<?xml version="1.0" encoding="utf-8" standalone="no"?>
<!DOCTYPE svg PUBLIC "-//W3C//DTD SVG 1.1//EN"
  "http://www.w3.org/Graphics/SVG/1.1/DTD/svg11.dtd">
<svg xmlns:xlink="http://www.w3.org/1999/xlink" width="460.8pt" height="345.6pt" viewBox="0 0 460.8 345.6" xmlns="http://www.w3.org/2000/svg" version="1.1">
 <metadata>
  <rdf:RDF xmlns:dc="http://purl.org/dc/elements/1.1/" xmlns:cc="http://creativecommons.org/ns#" xmlns:rdf="http://www.w3.org/1999/02/22-rdf-syntax-ns#">
   <cc:Work>
    <dc:type rdf:resource="http://purl.org/dc/dcmitype/StillImage"/>
    <dc:date>2026-04-23T20:39:34.538657</dc:date>
    <dc:format>image/svg+xml</dc:format>
    <dc:creator>
     <cc:Agent>
      <dc:title>Matplotlib v3.10.8, https://matplotlib.org/</dc:title>
     </cc:Agent>
    </dc:creator>
   </cc:Work>
  </rdf:RDF>
 </metadata>
 <defs>
  <style type="text/css">*{stroke-linejoin: round; stroke-linecap: butt}</style>
 </defs>
 <g id="figure_1">
  <g id="patch_1">
   <path d="M 0 345.6 
L 460.8 345.6 
L 460.8 0 
L 0 0 
z
" style="fill: #ffffff"/>
  </g>
  <g id="axes_1">
   <g id="patch_2">
    <path d="M 57.6 307.584 
L 414.72 307.584 
L 414.72 41.472 
L 57.6 41.472 
z
" style="fill: #ffffff"/>
   </g>
   <g id="matplotlib.axis_1">
    <g id="xtick_1">
     <g id="line2d_1">
      <path d="M 73.832727 307.584 
L 73.832727 41.472 
" clip-path="url(#pff1244ff51)" style="fill: none; stroke: #b0b0b0; stroke-width: 0.8; stroke-linecap: square"/>
     </g>
     <g id="line2d_2">
      <defs>
       <path id="m6fa2bcfcff" d="M 0 0 
L 0 3.5 
" style="stroke: #000000; stroke-width: 0.8"/>
      </defs>
      <g>
       <use xlink:href="#m6fa2bcfcff" x="73.832727" y="307.584" style="stroke: #000000; stroke-width: 0.8"/>
      </g>
     </g>
     <g id="text_1">
      <!-- 0 -->
      <g transform="translate(70.651477 322.182437) scale(0.1 -0.1)">
       <defs>
        <path id="DejaVuSans-30" d="M 2034 4250 
Q 1547 4250 1301 3770 
Q 1056 3291 1056 2328 
Q 1056 1369 1301 889 
Q 1547 409 2034 409 
Q 2525 409 2770 889 
Q 3016 1369 3016 2328 
Q 3016 3291 2770 3770 
Q 2525 4250 2034 4250 
z
M 2034 4750 
Q 2819 4750 3233 4129 
Q 3647 3509 3647 2328 
Q 3647 1150 3233 529 
Q 2819 -91 2034 -91 
Q 1250 -91 836 529 
Q 422 1150 422 2328 
Q 422 3509 836 4129 
Q 1250 4750 2034 4750 
z
" transform="scale(0.015625)"/>
       </defs>
       <use xlink:href="#DejaVuSans-30"/>
      </g>
     </g>
    </g>
    <g id="xtick_2">
     <g id="line2d_3">
      <path d="M 114.618474 307.584 
L 114.618474 41.472 
" clip-path="url(#pff1244ff51)" style="fill: none; stroke: #b0b0b0; stroke-width: 0.8; stroke-linecap: square"/>
     </g>
     <g id="line2d_4">
      <g>
       <use xlink:href="#m6fa2bcfcff" x="114.618474" y="307.584" style="stroke: #000000; stroke-width: 0.8"/>
      </g>
     </g>
     <g id="text_2">
      <!-- 25 -->
      <g transform="translate(108.255974 322.182437) scale(0.1 -0.1)">
       <defs>
        <path id="DejaVuSans-32" d="M 1228 531 
L 3431 531 
L 3431 0 
L 469 0 
L 469 531 
Q 828 903 1448 1529 
Q 2069 2156 2228 2338 
Q 2531 2678 2651 2914 
Q 2772 3150 2772 3378 
Q 2772 3750 2511 3984 
Q 2250 4219 1831 4219 
Q 1534 4219 1204 4116 
Q 875 4013 500 3803 
L 500 4441 
Q 881 4594 1212 4672 
Q 1544 4750 1819 4750 
Q 2544 4750 2975 4387 
Q 3406 4025 3406 3419 
Q 3406 3131 3298 2873 
Q 3191 2616 2906 2266 
Q 2828 2175 2409 1742 
Q 1991 1309 1228 531 
z
" transform="scale(0.015625)"/>
        <path id="DejaVuSans-35" d="M 691 4666 
L 3169 4666 
L 3169 4134 
L 1269 4134 
L 1269 2991 
Q 1406 3038 1543 3061 
Q 1681 3084 1819 3084 
Q 2600 3084 3056 2656 
Q 3513 2228 3513 1497 
Q 3513 744 3044 326 
Q 2575 -91 1722 -91 
Q 1428 -91 1123 -41 
Q 819 9 494 109 
L 494 744 
Q 775 591 1075 516 
Q 1375 441 1709 441 
Q 2250 441 2565 725 
Q 2881 1009 2881 1497 
Q 2881 1984 2565 2268 
Q 2250 2553 1709 2553 
Q 1456 2553 1204 2497 
Q 953 2441 691 2322 
L 691 4666 
z
" transform="scale(0.015625)"/>
       </defs>
       <use xlink:href="#DejaVuSans-32"/>
       <use xlink:href="#DejaVuSans-35" transform="translate(63.623047 0)"/>
      </g>
     </g>
    </g>
    <g id="xtick_3">
     <g id="line2d_5">
      <path d="M 155.404221 307.584 
L 155.404221 41.472 
" clip-path="url(#pff1244ff51)" style="fill: none; stroke: #b0b0b0; stroke-width: 0.8; stroke-linecap: square"/>
     </g>
     <g id="line2d_6">
      <g>
       <use xlink:href="#m6fa2bcfcff" x="155.404221" y="307.584" style="stroke: #000000; stroke-width: 0.8"/>
      </g>
     </g>
     <g id="text_3">
      <!-- 50 -->
      <g transform="translate(149.041721 322.182437) scale(0.1 -0.1)">
       <use xlink:href="#DejaVuSans-35"/>
       <use xlink:href="#DejaVuSans-30" transform="translate(63.623047 0)"/>
      </g>
     </g>
    </g>
    <g id="xtick_4">
     <g id="line2d_7">
      <path d="M 196.189968 307.584 
L 196.189968 41.472 
" clip-path="url(#pff1244ff51)" style="fill: none; stroke: #b0b0b0; stroke-width: 0.8; stroke-linecap: square"/>
     </g>
     <g id="line2d_8">
      <g>
       <use xlink:href="#m6fa2bcfcff" x="196.189968" y="307.584" style="stroke: #000000; stroke-width: 0.8"/>
      </g>
     </g>
     <g id="text_4">
      <!-- 75 -->
      <g transform="translate(189.827468 322.182437) scale(0.1 -0.1)">
       <defs>
        <path id="DejaVuSans-37" d="M 525 4666 
L 3525 4666 
L 3525 4397 
L 1831 0 
L 1172 0 
L 2766 4134 
L 525 4134 
L 525 4666 
z
" transform="scale(0.015625)"/>
       </defs>
       <use xlink:href="#DejaVuSans-37"/>
       <use xlink:href="#DejaVuSans-35" transform="translate(63.623047 0)"/>
      </g>
     </g>
    </g>
    <g id="xtick_5">
     <g id="line2d_9">
      <path d="M 236.975715 307.584 
L 236.975715 41.472 
" clip-path="url(#pff1244ff51)" style="fill: none; stroke: #b0b0b0; stroke-width: 0.8; stroke-linecap: square"/>
     </g>
     <g id="line2d_10">
      <g>
       <use xlink:href="#m6fa2bcfcff" x="236.975715" y="307.584" style="stroke: #000000; stroke-width: 0.8"/>
      </g>
     </g>
     <g id="text_5">
      <!-- 100 -->
      <g transform="translate(227.431965 322.182437) scale(0.1 -0.1)">
       <defs>
        <path id="DejaVuSans-31" d="M 794 531 
L 1825 531 
L 1825 4091 
L 703 3866 
L 703 4441 
L 1819 4666 
L 2450 4666 
L 2450 531 
L 3481 531 
L 3481 0 
L 794 0 
L 794 531 
z
" transform="scale(0.015625)"/>
       </defs>
       <use xlink:href="#DejaVuSans-31"/>
       <use xlink:href="#DejaVuSans-30" transform="translate(63.623047 0)"/>
       <use xlink:href="#DejaVuSans-30" transform="translate(127.246094 0)"/>
      </g>
     </g>
    </g>
    <g id="xtick_6">
     <g id="line2d_11">
      <path d="M 277.761462 307.584 
L 277.761462 41.472 
" clip-path="url(#pff1244ff51)" style="fill: none; stroke: #b0b0b0; stroke-width: 0.8; stroke-linecap: square"/>
     </g>
     <g id="line2d_12">
      <g>
       <use xlink:href="#m6fa2bcfcff" x="277.761462" y="307.584" style="stroke: #000000; stroke-width: 0.8"/>
      </g>
     </g>
     <g id="text_6">
      <!-- 125 -->
      <g transform="translate(268.217712 322.182437) scale(0.1 -0.1)">
       <use xlink:href="#DejaVuSans-31"/>
       <use xlink:href="#DejaVuSans-32" transform="translate(63.623047 0)"/>
       <use xlink:href="#DejaVuSans-35" transform="translate(127.246094 0)"/>
      </g>
     </g>
    </g>
    <g id="xtick_7">
     <g id="line2d_13">
      <path d="M 318.547209 307.584 
L 318.547209 41.472 
" clip-path="url(#pff1244ff51)" style="fill: none; stroke: #b0b0b0; stroke-width: 0.8; stroke-linecap: square"/>
     </g>
     <g id="line2d_14">
      <g>
       <use xlink:href="#m6fa2bcfcff" x="318.547209" y="307.584" style="stroke: #000000; stroke-width: 0.8"/>
      </g>
     </g>
     <g id="text_7">
      <!-- 150 -->
      <g transform="translate(309.003459 322.182437) scale(0.1 -0.1)">
       <use xlink:href="#DejaVuSans-31"/>
       <use xlink:href="#DejaVuSans-35" transform="translate(63.623047 0)"/>
       <use xlink:href="#DejaVuSans-30" transform="translate(127.246094 0)"/>
      </g>
     </g>
    </g>
    <g id="xtick_8">
     <g id="line2d_15">
      <path d="M 359.332956 307.584 
L 359.332956 41.472 
" clip-path="url(#pff1244ff51)" style="fill: none; stroke: #b0b0b0; stroke-width: 0.8; stroke-linecap: square"/>
     </g>
     <g id="line2d_16">
      <g>
       <use xlink:href="#m6fa2bcfcff" x="359.332956" y="307.584" style="stroke: #000000; stroke-width: 0.8"/>
      </g>
     </g>
     <g id="text_8">
      <!-- 175 -->
      <g transform="translate(349.789206 322.182437) scale(0.1 -0.1)">
       <use xlink:href="#DejaVuSans-31"/>
       <use xlink:href="#DejaVuSans-37" transform="translate(63.623047 0)"/>
       <use xlink:href="#DejaVuSans-35" transform="translate(127.246094 0)"/>
      </g>
     </g>
    </g>
    <g id="xtick_9">
     <g id="line2d_17">
      <path d="M 400.118703 307.584 
L 400.118703 41.472 
" clip-path="url(#pff1244ff51)" style="fill: none; stroke: #b0b0b0; stroke-width: 0.8; stroke-linecap: square"/>
     </g>
     <g id="line2d_18">
      <g>
       <use xlink:href="#m6fa2bcfcff" x="400.118703" y="307.584" style="stroke: #000000; stroke-width: 0.8"/>
      </g>
     </g>
     <g id="text_9">
      <!-- 200 -->
      <g transform="translate(390.574953 322.182437) scale(0.1 -0.1)">
       <use xlink:href="#DejaVuSans-32"/>
       <use xlink:href="#DejaVuSans-30" transform="translate(63.623047 0)"/>
       <use xlink:href="#DejaVuSans-30" transform="translate(127.246094 0)"/>
      </g>
     </g>
    </g>
    <g id="text_10">
     <!-- Generations -->
     <g transform="translate(205.662344 335.860562) scale(0.1 -0.1)">
      <defs>
       <path id="DejaVuSans-47" d="M 3809 666 
L 3809 1919 
L 2778 1919 
L 2778 2438 
L 4434 2438 
L 4434 434 
Q 4069 175 3628 42 
Q 3188 -91 2688 -91 
Q 1594 -91 976 548 
Q 359 1188 359 2328 
Q 359 3472 976 4111 
Q 1594 4750 2688 4750 
Q 3144 4750 3555 4637 
Q 3966 4525 4313 4306 
L 4313 3634 
Q 3963 3931 3569 4081 
Q 3175 4231 2741 4231 
Q 1884 4231 1454 3753 
Q 1025 3275 1025 2328 
Q 1025 1384 1454 906 
Q 1884 428 2741 428 
Q 3075 428 3337 486 
Q 3600 544 3809 666 
z
" transform="scale(0.015625)"/>
       <path id="DejaVuSans-65" d="M 3597 1894 
L 3597 1613 
L 953 1613 
Q 991 1019 1311 708 
Q 1631 397 2203 397 
Q 2534 397 2845 478 
Q 3156 559 3463 722 
L 3463 178 
Q 3153 47 2828 -22 
Q 2503 -91 2169 -91 
Q 1331 -91 842 396 
Q 353 884 353 1716 
Q 353 2575 817 3079 
Q 1281 3584 2069 3584 
Q 2775 3584 3186 3129 
Q 3597 2675 3597 1894 
z
M 3022 2063 
Q 3016 2534 2758 2815 
Q 2500 3097 2075 3097 
Q 1594 3097 1305 2825 
Q 1016 2553 972 2059 
L 3022 2063 
z
" transform="scale(0.015625)"/>
       <path id="DejaVuSans-6e" d="M 3513 2113 
L 3513 0 
L 2938 0 
L 2938 2094 
Q 2938 2591 2744 2837 
Q 2550 3084 2163 3084 
Q 1697 3084 1428 2787 
Q 1159 2491 1159 1978 
L 1159 0 
L 581 0 
L 581 3500 
L 1159 3500 
L 1159 2956 
Q 1366 3272 1645 3428 
Q 1925 3584 2291 3584 
Q 2894 3584 3203 3211 
Q 3513 2838 3513 2113 
z
" transform="scale(0.015625)"/>
       <path id="DejaVuSans-72" d="M 2631 2963 
Q 2534 3019 2420 3045 
Q 2306 3072 2169 3072 
Q 1681 3072 1420 2755 
Q 1159 2438 1159 1844 
L 1159 0 
L 581 0 
L 581 3500 
L 1159 3500 
L 1159 2956 
Q 1341 3275 1631 3429 
Q 1922 3584 2338 3584 
Q 2397 3584 2469 3576 
Q 2541 3569 2628 3553 
L 2631 2963 
z
" transform="scale(0.015625)"/>
       <path id="DejaVuSans-61" d="M 2194 1759 
Q 1497 1759 1228 1600 
Q 959 1441 959 1056 
Q 959 750 1161 570 
Q 1363 391 1709 391 
Q 2188 391 2477 730 
Q 2766 1069 2766 1631 
L 2766 1759 
L 2194 1759 
z
M 3341 1997 
L 3341 0 
L 2766 0 
L 2766 531 
Q 2569 213 2275 61 
Q 1981 -91 1556 -91 
Q 1019 -91 701 211 
Q 384 513 384 1019 
Q 384 1609 779 1909 
Q 1175 2209 1959 2209 
L 2766 2209 
L 2766 2266 
Q 2766 2663 2505 2880 
Q 2244 3097 1772 3097 
Q 1472 3097 1187 3025 
Q 903 2953 641 2809 
L 641 3341 
Q 956 3463 1253 3523 
Q 1550 3584 1831 3584 
Q 2591 3584 2966 3190 
Q 3341 2797 3341 1997 
z
" transform="scale(0.015625)"/>
       <path id="DejaVuSans-74" d="M 1172 4494 
L 1172 3500 
L 2356 3500 
L 2356 3053 
L 1172 3053 
L 1172 1153 
Q 1172 725 1289 603 
Q 1406 481 1766 481 
L 2356 481 
L 2356 0 
L 1766 0 
Q 1100 0 847 248 
Q 594 497 594 1153 
L 594 3053 
L 172 3053 
L 172 3500 
L 594 3500 
L 594 4494 
L 1172 4494 
z
" transform="scale(0.015625)"/>
       <path id="DejaVuSans-69" d="M 603 3500 
L 1178 3500 
L 1178 0 
L 603 0 
L 603 3500 
z
M 603 4863 
L 1178 4863 
L 1178 4134 
L 603 4134 
L 603 4863 
z
" transform="scale(0.015625)"/>
       <path id="DejaVuSans-6f" d="M 1959 3097 
Q 1497 3097 1228 2736 
Q 959 2375 959 1747 
Q 959 1119 1226 758 
Q 1494 397 1959 397 
Q 2419 397 2687 759 
Q 2956 1122 2956 1747 
Q 2956 2369 2687 2733 
Q 2419 3097 1959 3097 
z
M 1959 3584 
Q 2709 3584 3137 3096 
Q 3566 2609 3566 1747 
Q 3566 888 3137 398 
Q 2709 -91 1959 -91 
Q 1206 -91 779 398 
Q 353 888 353 1747 
Q 353 2609 779 3096 
Q 1206 3584 1959 3584 
z
" transform="scale(0.015625)"/>
       <path id="DejaVuSans-73" d="M 2834 3397 
L 2834 2853 
Q 2591 2978 2328 3040 
Q 2066 3103 1784 3103 
Q 1356 3103 1142 2972 
Q 928 2841 928 2578 
Q 928 2378 1081 2264 
Q 1234 2150 1697 2047 
L 1894 2003 
Q 2506 1872 2764 1633 
Q 3022 1394 3022 966 
Q 3022 478 2636 193 
Q 2250 -91 1575 -91 
Q 1294 -91 989 -36 
Q 684 19 347 128 
L 347 722 
Q 666 556 975 473 
Q 1284 391 1588 391 
Q 1994 391 2212 530 
Q 2431 669 2431 922 
Q 2431 1156 2273 1281 
Q 2116 1406 1581 1522 
L 1381 1569 
Q 847 1681 609 1914 
Q 372 2147 372 2553 
Q 372 3047 722 3315 
Q 1072 3584 1716 3584 
Q 2034 3584 2315 3537 
Q 2597 3491 2834 3397 
z
" transform="scale(0.015625)"/>
      </defs>
      <use xlink:href="#DejaVuSans-47"/>
      <use xlink:href="#DejaVuSans-65" transform="translate(77.490234 0)"/>
      <use xlink:href="#DejaVuSans-6e" transform="translate(139.013672 0)"/>
      <use xlink:href="#DejaVuSans-65" transform="translate(202.392578 0)"/>
      <use xlink:href="#DejaVuSans-72" transform="translate(263.916016 0)"/>
      <use xlink:href="#DejaVuSans-61" transform="translate(305.029297 0)"/>
      <use xlink:href="#DejaVuSans-74" transform="translate(366.308594 0)"/>
      <use xlink:href="#DejaVuSans-69" transform="translate(405.517578 0)"/>
      <use xlink:href="#DejaVuSans-6f" transform="translate(433.300781 0)"/>
      <use xlink:href="#DejaVuSans-6e" transform="translate(494.482422 0)"/>
      <use xlink:href="#DejaVuSans-73" transform="translate(557.861328 0)"/>
     </g>
    </g>
   </g>
   <g id="matplotlib.axis_2">
    <g id="ytick_1">
     <g id="line2d_19">
      <path d="M 57.6 105.784599 
L 414.72 105.784599 
" clip-path="url(#pff1244ff51)" style="fill: none; stroke: #b0b0b0; stroke-width: 0.8; stroke-linecap: square"/>
     </g>
     <g id="line2d_20">
      <defs>
       <path id="me5228d20bc" d="M 0 0 
L -3.5 0 
" style="stroke: #000000; stroke-width: 0.8"/>
      </defs>
      <g>
       <use xlink:href="#me5228d20bc" x="57.6" y="105.784599" style="stroke: #000000; stroke-width: 0.8"/>
      </g>
     </g>
     <g id="text_11">
      <!-- $\mathdefault{10^{2}}$ -->
      <g transform="translate(33 109.583818) scale(0.1 -0.1)">
       <use xlink:href="#DejaVuSans-31" transform="translate(0 0.765625)"/>
       <use xlink:href="#DejaVuSans-30" transform="translate(63.623047 0.765625)"/>
       <use xlink:href="#DejaVuSans-32" transform="translate(128.203125 39.046875) scale(0.7)"/>
      </g>
     </g>
    </g>
    <g id="text_12">
     <!-- Fitness -->
     <g transform="translate(26.920312 191.845187) rotate(-90) scale(0.1 -0.1)">
      <defs>
       <path id="DejaVuSans-46" d="M 628 4666 
L 3309 4666 
L 3309 4134 
L 1259 4134 
L 1259 2759 
L 3109 2759 
L 3109 2228 
L 1259 2228 
L 1259 0 
L 628 0 
L 628 4666 
z
" transform="scale(0.015625)"/>
      </defs>
      <use xlink:href="#DejaVuSans-46"/>
      <use xlink:href="#DejaVuSans-69" transform="translate(50.269531 0)"/>
      <use xlink:href="#DejaVuSans-74" transform="translate(78.052734 0)"/>
      <use xlink:href="#DejaVuSans-6e" transform="translate(117.261719 0)"/>
      <use xlink:href="#DejaVuSans-65" transform="translate(180.640625 0)"/>
      <use xlink:href="#DejaVuSans-73" transform="translate(242.164062 0)"/>
      <use xlink:href="#DejaVuSans-73" transform="translate(294.263672 0)"/>
     </g>
    </g>
   </g>
   <g id="line2d_21">
    <path d="M 73.832727 295.488 
L 75.464157 239.958724 
L 77.095587 208.631657 
L 78.727017 165.832918 
L 80.358447 162.974598 
L 81.989877 144.144634 
L 83.621307 143.382566 
L 85.252736 140.454522 
L 86.884166 139.422394 
L 88.515596 135.387027 
L 90.147026 136.736813 
L 91.778456 136.176284 
L 93.409886 134.29072 
L 95.041316 130.333392 
L 96.672746 128.956216 
L 98.304175 130.317685 
L 99.935605 130.806272 
L 101.567035 129.040806 
L 103.198465 126.131697 
L 104.829895 127.967405 
L 106.461325 127.325418 
L 108.092755 129.972787 
L 109.724185 126.54369 
L 111.355614 127.256115 
L 112.987044 129.079778 
L 114.618474 128.69148 
L 116.249904 126.029651 
L 117.881334 125.612394 
L 119.512764 124.448876 
L 121.144194 126.245911 
L 122.775624 126.630042 
L 124.407053 125.663667 
L 126.038483 123.572288 
L 127.669913 123.720102 
L 129.301343 126.932528 
L 130.932773 124.37895 
L 132.564203 122.79579 
L 134.195633 122.950133 
L 135.827063 124.300281 
L 137.458492 125.832724 
L 139.089922 122.784591 
L 140.721352 122.99531 
L 142.352782 126.145569 
L 143.984212 126.863401 
L 145.615642 124.213461 
L 147.247072 125.527864 
L 148.878502 125.712094 
L 150.509931 124.375344 
L 152.141361 123.373912 
L 153.772791 123.158495 
L 155.404221 122.178326 
L 157.035651 123.680479 
L 158.667081 122.509978 
L 160.298511 122.051166 
L 161.929941 123.133415 
L 163.56137 122.08427 
L 165.1928 121.991331 
L 166.82423 122.046065 
L 168.45566 124.382717 
L 170.08709 125.911913 
L 171.71852 125.364458 
L 173.34995 124.939948 
L 174.98138 121.611372 
L 176.61281 121.798116 
L 178.244239 125.399247 
L 179.875669 123.954882 
L 181.507099 124.160039 
L 184.769959 121.597454 
L 186.401389 121.143336 
L 188.032819 121.329281 
L 189.664249 120.868227 
L 191.295678 119.884856 
L 192.927108 121.73303 
L 194.558538 122.613855 
L 196.189968 122.675613 
L 197.821398 121.484827 
L 199.452828 122.224405 
L 201.084258 122.225842 
L 202.715688 122.440459 
L 204.347117 122.789933 
L 205.978547 121.825763 
L 207.609977 123.599968 
L 209.241407 122.39888 
L 210.872837 123.011013 
L 212.504267 121.948684 
L 214.135697 122.824597 
L 215.767127 121.806737 
L 217.398556 122.863245 
L 220.661416 122.110339 
L 222.292846 124.026776 
L 223.924276 120.827236 
L 227.187136 122.467377 
L 228.818566 121.55495 
L 230.449995 122.232744 
L 232.081425 121.743061 
L 233.712855 122.164033 
L 235.344285 121.236825 
L 236.975715 120.11173 
L 238.607145 123.495169 
L 240.238575 121.388342 
L 241.870005 121.368387 
L 243.501434 122.54514 
L 245.132864 121.623023 
L 246.764294 122.375432 
L 248.395724 120.855111 
L 250.027154 120.325728 
L 251.658584 120.270525 
L 254.921444 122.466363 
L 256.552873 122.393778 
L 258.184303 120.442494 
L 259.815733 121.850539 
L 261.447163 122.03109 
L 263.078593 120.54435 
L 264.710023 119.64894 
L 266.341453 124.533829 
L 267.972883 121.365543 
L 269.604312 118.673973 
L 271.235742 122.406152 
L 272.867172 119.519489 
L 274.498602 121.765129 
L 276.130032 120.984101 
L 277.761462 121.150403 
L 279.392892 122.504853 
L 281.024322 120.118591 
L 282.655751 122.244081 
L 284.287181 121.737306 
L 287.550041 123.033686 
L 289.181471 123.34622 
L 292.444331 121.118033 
L 294.075761 123.028209 
L 295.70719 122.495604 
L 297.33862 122.647698 
L 298.97005 120.698539 
L 300.60148 122.604962 
L 302.23291 122.07573 
L 303.86434 121.074331 
L 305.49577 120.210513 
L 307.1272 120.725441 
L 308.75863 123.875596 
L 310.390059 123.952986 
L 312.021489 122.725628 
L 313.652919 121.922558 
L 315.284349 121.47308 
L 316.915779 122.830582 
L 318.547209 121.066583 
L 320.178639 121.213598 
L 321.810069 124.430923 
L 323.441498 122.781485 
L 325.072928 121.790974 
L 326.704358 124.75389 
L 328.335788 122.728253 
L 329.967218 122.578588 
L 331.598648 122.099878 
L 333.230078 123.369399 
L 334.861508 123.330624 
L 336.492937 121.346563 
L 338.124367 123.970805 
L 339.755797 122.273114 
L 341.387227 121.640769 
L 343.018657 123.383155 
L 344.650087 121.136579 
L 346.281517 122.383997 
L 349.544376 122.413835 
L 351.175806 121.542414 
L 352.807236 122.68008 
L 354.438666 121.155985 
L 356.070096 121.13705 
L 357.701526 122.465384 
L 359.332956 121.607337 
L 360.964386 122.853726 
L 362.595815 123.292729 
L 365.858675 120.291235 
L 367.490105 122.861937 
L 370.752965 122.026075 
L 372.384395 122.293678 
L 374.015825 121.332354 
L 375.647254 121.259982 
L 377.278684 120.991834 
L 378.910114 119.322828 
L 380.541544 120.362371 
L 382.172974 119.49893 
L 383.804404 120.411573 
L 385.435834 120.118889 
L 387.067264 120.805728 
L 388.698693 120.365781 
L 390.330123 118.85489 
L 391.961553 119.916757 
L 393.592983 122.095189 
L 395.224413 117.78857 
L 396.855843 120.941141 
L 398.487273 122.272967 
L 398.487273 122.272967 
" clip-path="url(#pff1244ff51)" style="fill: none; stroke: #0000ff; stroke-width: 1.5; stroke-linecap: square"/>
   </g>
   <g id="line2d_22">
    <path d="M 73.832727 237.503579 
L 75.464157 184.472237 
L 77.095587 151.731582 
L 78.727017 126.395262 
L 80.358447 126.834128 
L 81.989877 118.505174 
L 83.621307 117.551986 
L 85.252736 110.546955 
L 86.884166 111.280763 
L 88.515596 110.010644 
L 90.147026 111.841688 
L 91.778456 109.980617 
L 93.409886 105.426857 
L 95.041316 111.414836 
L 98.304175 106.311749 
L 99.935605 110.014345 
L 101.567035 108.277838 
L 103.198465 107.090802 
L 104.829895 109.138613 
L 106.461325 108.344773 
L 108.092755 108.353116 
L 109.724185 105.099698 
L 111.355614 106.884259 
L 112.987044 103.56074 
L 114.618474 104.176373 
L 116.249904 107.498665 
L 117.881334 105.373712 
L 119.512764 107.381328 
L 121.144194 104.763688 
L 122.775624 106.170566 
L 124.407053 103.008143 
L 126.038483 105.822478 
L 127.669913 105.90505 
L 129.301343 103.265018 
L 130.932773 105.228365 
L 132.564203 105.424941 
L 134.195633 104.201806 
L 135.827063 107.888258 
L 137.458492 105.818237 
L 139.089922 105.977768 
L 140.721352 104.661624 
L 142.352782 105.631067 
L 143.984212 107.970516 
L 145.615642 108.245676 
L 147.247072 108.686614 
L 148.878502 104.662911 
L 150.509931 107.082007 
L 152.141361 104.733221 
L 153.772791 102.671053 
L 155.404221 104.311035 
L 157.035651 107.542089 
L 158.667081 105.776025 
L 160.298511 103.454713 
L 161.929941 107.243812 
L 163.56137 104.680468 
L 165.1928 105.947992 
L 166.82423 103.921006 
L 168.45566 104.268399 
L 170.08709 102.627758 
L 171.71852 104.33261 
L 173.34995 102.348778 
L 174.98138 103.543174 
L 176.61281 104.896242 
L 178.244239 105.391929 
L 179.875669 105.632948 
L 181.507099 106.273947 
L 183.138529 106.085388 
L 184.769959 104.651557 
L 186.401389 104.643658 
L 188.032819 103.578605 
L 189.664249 103.098369 
L 191.295678 102.122653 
L 192.927108 104.576515 
L 194.558538 105.359742 
L 196.189968 105.338278 
L 197.821398 103.744947 
L 199.452828 103.486082 
L 201.084258 104.796568 
L 202.715688 103.698133 
L 204.347117 105.28916 
L 205.978547 106.112386 
L 207.609977 107.88885 
L 209.241407 104.569772 
L 210.872837 107.401891 
L 212.504267 102.713894 
L 214.135697 107.134706 
L 215.767127 105.229715 
L 217.398556 105.010884 
L 219.029986 105.866327 
L 220.661416 104.297045 
L 222.292846 108.113499 
L 223.924276 104.138395 
L 225.555706 105.306071 
L 227.187136 103.408002 
L 228.818566 106.302252 
L 230.449995 105.312444 
L 232.081425 102.701624 
L 233.712855 105.719872 
L 235.344285 102.689337 
L 236.975715 104.090475 
L 238.607145 105.723608 
L 240.238575 103.95086 
L 241.870005 103.914155 
L 243.501434 105.370181 
L 245.132864 105.838696 
L 246.764294 107.119883 
L 248.395724 103.222156 
L 250.027154 104.727038 
L 251.658584 104.982802 
L 253.290014 104.698257 
L 256.552873 104.772324 
L 258.184303 105.170134 
L 259.815733 105.209985 
L 261.447163 104.137105 
L 263.078593 102.434533 
L 264.710023 102.22519 
L 266.341453 106.601432 
L 267.972883 103.618313 
L 269.604312 102.071642 
L 271.235742 105.55254 
L 272.867172 104.085143 
L 274.498602 105.450934 
L 276.130032 102.312917 
L 277.761462 105.862549 
L 279.392892 107.460489 
L 281.024322 104.231445 
L 282.655751 102.872608 
L 284.287181 102.596055 
L 285.918611 106.237388 
L 287.550041 105.568254 
L 289.181471 104.49392 
L 290.812901 104.739218 
L 292.444331 104.86194 
L 294.075761 106.470213 
L 295.70719 107.157683 
L 297.33862 108.28225 
L 298.97005 105.033424 
L 300.60148 103.666686 
L 302.23291 103.659019 
L 303.86434 103.918439 
L 305.49577 102.749343 
L 308.75863 107.367611 
L 310.390059 106.7259 
L 312.021489 104.913625 
L 313.652919 104.741435 
L 315.284349 105.050355 
L 316.915779 106.131696 
L 320.178639 105.100567 
L 321.810069 106.330116 
L 323.441498 106.38007 
L 325.072928 104.405715 
L 326.704358 109.614924 
L 328.335788 106.305579 
L 329.967218 106.351447 
L 331.598648 104.574478 
L 333.230078 107.509293 
L 334.861508 107.89861 
L 336.492937 103.949143 
L 338.124367 106.12199 
L 339.755797 106.135707 
L 341.387227 105.507357 
L 343.018657 106.22132 
L 344.650087 103.999306 
L 346.281517 105.45962 
L 347.912947 107.168629 
L 349.544376 105.792309 
L 351.175806 105.613076 
L 352.807236 107.172588 
L 354.438666 104.147912 
L 356.070096 103.020682 
L 357.701526 104.011394 
L 359.332956 105.970353 
L 360.964386 104.896876 
L 364.227245 106.501042 
L 365.858675 104.063577 
L 367.490105 104.233843 
L 369.121535 104.049768 
L 370.752965 103.098796 
L 372.384395 103.654862 
L 374.015825 104.034666 
L 375.647254 104.286652 
L 377.278684 101.823043 
L 378.910114 102.235152 
L 380.541544 103.747813 
L 382.172974 102.731199 
L 383.804404 103.104863 
L 385.435834 101.55743 
L 387.067264 103.595329 
L 388.698693 102.896224 
L 390.330123 103.180673 
L 391.961553 101.892808 
L 393.592983 103.445903 
L 395.224413 100.654772 
L 396.855843 104.636583 
L 398.487273 105.775359 
L 398.487273 105.775359 
" clip-path="url(#pff1244ff51)" style="fill: none; stroke-dasharray: 9.6,2.4,1.5,2.4; stroke-dashoffset: 0; stroke: #008000; stroke-width: 1.5"/>
   </g>
   <g id="line2d_23">
    <path d="M 73.832727 135.963886 
L 75.464157 123.465254 
L 77.095587 108.07144 
L 78.727017 98.815518 
L 80.358447 92.154225 
L 81.989877 101.13249 
L 83.621307 100.741097 
L 86.884166 83.781738 
L 88.515596 77.280469 
L 90.147026 77.309214 
L 91.778456 80.370107 
L 93.409886 76.09693 
L 95.041316 83.947703 
L 96.672746 72.432887 
L 98.304175 65.009115 
L 99.935605 82.191059 
L 101.567035 65.426772 
L 103.198465 57.63292 
L 104.829895 89.040735 
L 106.461325 74.763676 
L 108.092755 83.866245 
L 109.724185 65.412176 
L 111.355614 83.426184 
L 112.987044 66.533858 
L 114.618474 65.236829 
L 116.249904 83.711103 
L 117.881334 69.171523 
L 119.512764 81.902498 
L 121.144194 67.950377 
L 122.775624 77.167211 
L 124.407053 59.305315 
L 126.038483 83.663668 
L 127.669913 72.629484 
L 129.301343 77.556006 
L 130.932773 68.290905 
L 132.564203 78.887739 
L 134.195633 62.340465 
L 135.827063 66.42996 
L 137.458492 85.084067 
L 139.089922 78.770344 
L 140.721352 60.742054 
L 142.352782 84.138198 
L 143.984212 80.370568 
L 145.615642 72.581796 
L 147.247072 78.584805 
L 148.878502 78.670913 
L 150.509931 75.614999 
L 152.141361 72.87996 
L 153.772791 72.447951 
L 155.404221 69.457769 
L 157.035651 61.814184 
L 158.667081 77.200309 
L 160.298511 65.128942 
L 161.929941 75.886887 
L 163.56137 71.13068 
L 165.1928 69.667052 
L 166.82423 75.498391 
L 168.45566 73.205642 
L 170.08709 77.495023 
L 171.71852 66.48328 
L 173.34995 68.092729 
L 174.98138 73.878104 
L 176.61281 77.198511 
L 178.244239 81.560419 
L 179.875669 73.700788 
L 181.507099 72.314292 
L 183.138529 71.349872 
L 184.769959 75.893092 
L 186.401389 68.097903 
L 188.032819 80.334744 
L 189.664249 71.02157 
L 191.295678 70.595339 
L 192.927108 71.309137 
L 194.558538 77.383626 
L 196.189968 74.078254 
L 197.821398 72.789509 
L 199.452828 64.86237 
L 201.084258 72.40729 
L 202.715688 65.069981 
L 204.347117 76.356067 
L 205.978547 82.280085 
L 207.609977 78.502433 
L 209.241407 63.526616 
L 210.872837 71.091713 
L 212.504267 56.312143 
L 214.135697 75.558937 
L 215.767127 77.365563 
L 217.398556 60.914687 
L 219.029986 75.742667 
L 220.661416 75.580196 
L 222.292846 82.242441 
L 223.924276 71.229832 
L 225.555706 57.182265 
L 227.187136 75.696228 
L 228.818566 80.522617 
L 230.449995 71.306294 
L 232.081425 74.160493 
L 233.712855 65.165619 
L 235.344285 55.022993 
L 236.975715 69.804344 
L 238.607145 78.660008 
L 240.238575 68.126636 
L 241.870005 77.733952 
L 243.501434 74.044349 
L 245.132864 69.90053 
L 246.764294 71.373967 
L 248.395724 69.507509 
L 250.027154 81.801309 
L 251.658584 63.955103 
L 253.290014 66.278702 
L 254.921444 82.091971 
L 256.552873 69.652278 
L 258.184303 71.321893 
L 259.815733 85.145688 
L 261.447163 72.842279 
L 263.078593 67.753432 
L 264.710023 63.938022 
L 266.341453 69.712536 
L 267.972883 71.024706 
L 269.604312 60.230737 
L 271.235742 75.452463 
L 272.867172 78.616173 
L 274.498602 71.627163 
L 276.130032 66.434502 
L 277.761462 83.677409 
L 279.392892 72.189482 
L 281.024322 71.073226 
L 282.655751 69.325381 
L 284.287181 72.410792 
L 285.918611 69.565081 
L 287.550041 83.12779 
L 289.181471 72.767748 
L 290.812901 80.654026 
L 292.444331 75.417758 
L 294.075761 69.579991 
L 295.70719 71.389311 
L 297.33862 78.68054 
L 298.97005 59.059937 
L 302.23291 77.232037 
L 303.86434 59.648093 
L 305.49577 70.619776 
L 308.75863 74.083892 
L 310.390059 81.823138 
L 312.021489 78.919918 
L 313.652919 73.984174 
L 315.284349 60.435121 
L 316.915779 73.956118 
L 318.547209 83.345977 
L 320.178639 70.801136 
L 321.810069 68.050118 
L 323.441498 71.018496 
L 325.072928 82.083553 
L 326.704358 79.97422 
L 328.335788 68.021788 
L 329.967218 80.157545 
L 331.598648 65.256252 
L 333.230078 66.708156 
L 334.861508 77.298236 
L 336.492937 75.51329 
L 338.124367 62.320483 
L 339.755797 68.147557 
L 341.387227 75.445668 
L 343.018657 54.056181 
L 344.650087 67.879603 
L 346.281517 71.115318 
L 347.912947 81.623957 
L 349.544376 75.897748 
L 351.175806 77.218403 
L 352.807236 81.958647 
L 354.438666 68.004856 
L 356.070096 77.02131 
L 357.701526 65.044627 
L 359.332956 62.082621 
L 360.964386 62.497447 
L 362.595815 64.826988 
L 364.227245 75.631286 
L 365.858675 69.250109 
L 367.490105 77.273033 
L 369.121535 72.435883 
L 370.752965 66.849784 
L 372.384395 80.244261 
L 374.015825 69.409775 
L 375.647254 72.258517 
L 377.278684 72.679911 
L 378.910114 69.700855 
L 380.541544 74.124044 
L 382.172974 66.921365 
L 383.804404 74.059879 
L 385.435834 70.983416 
L 387.067264 58.995158 
L 388.698693 54.591188 
L 390.330123 77.387263 
L 391.961553 80.608354 
L 393.592983 53.568 
L 395.224413 61.888538 
L 396.855843 76.845903 
L 398.487273 58.015718 
L 398.487273 58.015718 
" clip-path="url(#pff1244ff51)" style="fill: none; stroke: #ff0000; stroke-width: 1.5; stroke-linecap: square"/>
   </g>
   <g id="patch_3">
    <path d="M 57.6 307.584 
L 57.6 41.472 
" style="fill: none; stroke: #000000; stroke-width: 0.8; stroke-linejoin: miter; stroke-linecap: square"/>
   </g>
   <g id="patch_4">
    <path d="M 414.72 307.584 
L 414.72 41.472 
" style="fill: none; stroke: #000000; stroke-width: 0.8; stroke-linejoin: miter; stroke-linecap: square"/>
   </g>
   <g id="patch_5">
    <path d="M 57.6 307.584 
L 414.72 307.584 
" style="fill: none; stroke: #000000; stroke-width: 0.8; stroke-linejoin: miter; stroke-linecap: square"/>
   </g>
   <g id="patch_6">
    <path d="M 57.6 41.472 
L 414.72 41.472 
" style="fill: none; stroke: #000000; stroke-width: 0.8; stroke-linejoin: miter; stroke-linecap: square"/>
   </g>
   <g id="text_13">
    <!-- Population's average and best fitness -->
    <g transform="translate(123.529687 35.472) scale(0.12 -0.12)">
     <defs>
      <path id="DejaVuSans-50" d="M 1259 4147 
L 1259 2394 
L 2053 2394 
Q 2494 2394 2734 2622 
Q 2975 2850 2975 3272 
Q 2975 3691 2734 3919 
Q 2494 4147 2053 4147 
L 1259 4147 
z
M 628 4666 
L 2053 4666 
Q 2838 4666 3239 4311 
Q 3641 3956 3641 3272 
Q 3641 2581 3239 2228 
Q 2838 1875 2053 1875 
L 1259 1875 
L 1259 0 
L 628 0 
L 628 4666 
z
" transform="scale(0.015625)"/>
      <path id="DejaVuSans-70" d="M 1159 525 
L 1159 -1331 
L 581 -1331 
L 581 3500 
L 1159 3500 
L 1159 2969 
Q 1341 3281 1617 3432 
Q 1894 3584 2278 3584 
Q 2916 3584 3314 3078 
Q 3713 2572 3713 1747 
Q 3713 922 3314 415 
Q 2916 -91 2278 -91 
Q 1894 -91 1617 61 
Q 1341 213 1159 525 
z
M 3116 1747 
Q 3116 2381 2855 2742 
Q 2594 3103 2138 3103 
Q 1681 3103 1420 2742 
Q 1159 2381 1159 1747 
Q 1159 1113 1420 752 
Q 1681 391 2138 391 
Q 2594 391 2855 752 
Q 3116 1113 3116 1747 
z
" transform="scale(0.015625)"/>
      <path id="DejaVuSans-75" d="M 544 1381 
L 544 3500 
L 1119 3500 
L 1119 1403 
Q 1119 906 1312 657 
Q 1506 409 1894 409 
Q 2359 409 2629 706 
Q 2900 1003 2900 1516 
L 2900 3500 
L 3475 3500 
L 3475 0 
L 2900 0 
L 2900 538 
Q 2691 219 2414 64 
Q 2138 -91 1772 -91 
Q 1169 -91 856 284 
Q 544 659 544 1381 
z
M 1991 3584 
L 1991 3584 
z
" transform="scale(0.015625)"/>
      <path id="DejaVuSans-6c" d="M 603 4863 
L 1178 4863 
L 1178 0 
L 603 0 
L 603 4863 
z
" transform="scale(0.015625)"/>
      <path id="DejaVuSans-27" d="M 1147 4666 
L 1147 2931 
L 616 2931 
L 616 4666 
L 1147 4666 
z
" transform="scale(0.015625)"/>
      <path id="DejaVuSans-20" transform="scale(0.015625)"/>
      <path id="DejaVuSans-76" d="M 191 3500 
L 800 3500 
L 1894 563 
L 2988 3500 
L 3597 3500 
L 2284 0 
L 1503 0 
L 191 3500 
z
" transform="scale(0.015625)"/>
      <path id="DejaVuSans-67" d="M 2906 1791 
Q 2906 2416 2648 2759 
Q 2391 3103 1925 3103 
Q 1463 3103 1205 2759 
Q 947 2416 947 1791 
Q 947 1169 1205 825 
Q 1463 481 1925 481 
Q 2391 481 2648 825 
Q 2906 1169 2906 1791 
z
M 3481 434 
Q 3481 -459 3084 -895 
Q 2688 -1331 1869 -1331 
Q 1566 -1331 1297 -1286 
Q 1028 -1241 775 -1147 
L 775 -588 
Q 1028 -725 1275 -790 
Q 1522 -856 1778 -856 
Q 2344 -856 2625 -561 
Q 2906 -266 2906 331 
L 2906 616 
Q 2728 306 2450 153 
Q 2172 0 1784 0 
Q 1141 0 747 490 
Q 353 981 353 1791 
Q 353 2603 747 3093 
Q 1141 3584 1784 3584 
Q 2172 3584 2450 3431 
Q 2728 3278 2906 2969 
L 2906 3500 
L 3481 3500 
L 3481 434 
z
" transform="scale(0.015625)"/>
      <path id="DejaVuSans-64" d="M 2906 2969 
L 2906 4863 
L 3481 4863 
L 3481 0 
L 2906 0 
L 2906 525 
Q 2725 213 2448 61 
Q 2172 -91 1784 -91 
Q 1150 -91 751 415 
Q 353 922 353 1747 
Q 353 2572 751 3078 
Q 1150 3584 1784 3584 
Q 2172 3584 2448 3432 
Q 2725 3281 2906 2969 
z
M 947 1747 
Q 947 1113 1208 752 
Q 1469 391 1925 391 
Q 2381 391 2643 752 
Q 2906 1113 2906 1747 
Q 2906 2381 2643 2742 
Q 2381 3103 1925 3103 
Q 1469 3103 1208 2742 
Q 947 2381 947 1747 
z
" transform="scale(0.015625)"/>
      <path id="DejaVuSans-62" d="M 3116 1747 
Q 3116 2381 2855 2742 
Q 2594 3103 2138 3103 
Q 1681 3103 1420 2742 
Q 1159 2381 1159 1747 
Q 1159 1113 1420 752 
Q 1681 391 2138 391 
Q 2594 391 2855 752 
Q 3116 1113 3116 1747 
z
M 1159 2969 
Q 1341 3281 1617 3432 
Q 1894 3584 2278 3584 
Q 2916 3584 3314 3078 
Q 3713 2572 3713 1747 
Q 3713 922 3314 415 
Q 2916 -91 2278 -91 
Q 1894 -91 1617 61 
Q 1341 213 1159 525 
L 1159 0 
L 581 0 
L 581 4863 
L 1159 4863 
L 1159 2969 
z
" transform="scale(0.015625)"/>
      <path id="DejaVuSans-66" d="M 2375 4863 
L 2375 4384 
L 1825 4384 
Q 1516 4384 1395 4259 
Q 1275 4134 1275 3809 
L 1275 3500 
L 2222 3500 
L 2222 3053 
L 1275 3053 
L 1275 0 
L 697 0 
L 697 3053 
L 147 3053 
L 147 3500 
L 697 3500 
L 697 3744 
Q 697 4328 969 4595 
Q 1241 4863 1831 4863 
L 2375 4863 
z
" transform="scale(0.015625)"/>
     </defs>
     <use xlink:href="#DejaVuSans-50"/>
     <use xlink:href="#DejaVuSans-6f" transform="translate(56.677734 0)"/>
     <use xlink:href="#DejaVuSans-70" transform="translate(117.859375 0)"/>
     <use xlink:href="#DejaVuSans-75" transform="translate(181.335938 0)"/>
     <use xlink:href="#DejaVuSans-6c" transform="translate(244.714844 0)"/>
     <use xlink:href="#DejaVuSans-61" transform="translate(272.498047 0)"/>
     <use xlink:href="#DejaVuSans-74" transform="translate(333.777344 0)"/>
     <use xlink:href="#DejaVuSans-69" transform="translate(372.986328 0)"/>
     <use xlink:href="#DejaVuSans-6f" transform="translate(400.769531 0)"/>
     <use xlink:href="#DejaVuSans-6e" transform="translate(461.951172 0)"/>
     <use xlink:href="#DejaVuSans-27" transform="translate(525.330078 0)"/>
     <use xlink:href="#DejaVuSans-73" transform="translate(552.820312 0)"/>
     <use xlink:href="#DejaVuSans-20" transform="translate(604.919922 0)"/>
     <use xlink:href="#DejaVuSans-61" transform="translate(636.707031 0)"/>
     <use xlink:href="#DejaVuSans-76" transform="translate(697.986328 0)"/>
     <use xlink:href="#DejaVuSans-65" transform="translate(757.166016 0)"/>
     <use xlink:href="#DejaVuSans-72" transform="translate(818.689453 0)"/>
     <use xlink:href="#DejaVuSans-61" transform="translate(859.802734 0)"/>
     <use xlink:href="#DejaVuSans-67" transform="translate(921.082031 0)"/>
     <use xlink:href="#DejaVuSans-65" transform="translate(984.558594 0)"/>
     <use xlink:href="#DejaVuSans-20" transform="translate(1046.082031 0)"/>
     <use xlink:href="#DejaVuSans-61" transform="translate(1077.869141 0)"/>
     <use xlink:href="#DejaVuSans-6e" transform="translate(1139.148438 0)"/>
     <use xlink:href="#DejaVuSans-64" transform="translate(1202.527344 0)"/>
     <use xlink:href="#DejaVuSans-20" transform="translate(1266.003906 0)"/>
     <use xlink:href="#DejaVuSans-62" transform="translate(1297.791016 0)"/>
     <use xlink:href="#DejaVuSans-65" transform="translate(1361.267578 0)"/>
     <use xlink:href="#DejaVuSans-73" transform="translate(1422.791016 0)"/>
     <use xlink:href="#DejaVuSans-74" transform="translate(1474.890625 0)"/>
     <use xlink:href="#DejaVuSans-20" transform="translate(1514.099609 0)"/>
     <use xlink:href="#DejaVuSans-66" transform="translate(1545.886719 0)"/>
     <use xlink:href="#DejaVuSans-69" transform="translate(1581.091797 0)"/>
     <use xlink:href="#DejaVuSans-74" transform="translate(1608.875 0)"/>
     <use xlink:href="#DejaVuSans-6e" transform="translate(1648.083984 0)"/>
     <use xlink:href="#DejaVuSans-65" transform="translate(1711.462891 0)"/>
     <use xlink:href="#DejaVuSans-73" transform="translate(1772.986328 0)"/>
     <use xlink:href="#DejaVuSans-73" transform="translate(1825.085938 0)"/>
    </g>
   </g>
   <g id="legend_1">
    <g id="patch_7">
     <path d="M 334.779375 302.584 
L 407.72 302.584 
Q 409.72 302.584 409.72 300.584 
L 409.72 257.549625 
Q 409.72 255.549625 407.72 255.549625 
L 334.779375 255.549625 
Q 332.779375 255.549625 332.779375 257.549625 
L 332.779375 300.584 
Q 332.779375 302.584 334.779375 302.584 
z
" style="fill: #ffffff; opacity: 0.8; stroke: #cccccc; stroke-linejoin: miter"/>
    </g>
    <g id="line2d_24">
     <path d="M 336.779375 263.648062 
L 346.779375 263.648062 
L 356.779375 263.648062 
" style="fill: none; stroke: #0000ff; stroke-width: 1.5; stroke-linecap: square"/>
    </g>
    <g id="text_14">
     <!-- average -->
     <g transform="translate(364.779375 267.148062) scale(0.1 -0.1)">
      <use xlink:href="#DejaVuSans-61"/>
      <use xlink:href="#DejaVuSans-76" transform="translate(61.279297 0)"/>
      <use xlink:href="#DejaVuSans-65" transform="translate(120.458984 0)"/>
      <use xlink:href="#DejaVuSans-72" transform="translate(181.982422 0)"/>
      <use xlink:href="#DejaVuSans-61" transform="translate(223.095703 0)"/>
      <use xlink:href="#DejaVuSans-67" transform="translate(284.375 0)"/>
      <use xlink:href="#DejaVuSans-65" transform="translate(347.851562 0)"/>
     </g>
    </g>
    <g id="line2d_25">
     <path d="M 336.779375 278.326188 
L 346.779375 278.326188 
L 356.779375 278.326188 
" style="fill: none; stroke-dasharray: 9.6,2.4,1.5,2.4; stroke-dashoffset: 0; stroke: #008000; stroke-width: 1.5"/>
    </g>
    <g id="text_15">
     <!-- +1 sd -->
     <g transform="translate(364.779375 281.826188) scale(0.1 -0.1)">
      <defs>
       <path id="DejaVuSans-2b" d="M 2944 4013 
L 2944 2272 
L 4684 2272 
L 4684 1741 
L 2944 1741 
L 2944 0 
L 2419 0 
L 2419 1741 
L 678 1741 
L 678 2272 
L 2419 2272 
L 2419 4013 
L 2944 4013 
z
" transform="scale(0.015625)"/>
      </defs>
      <use xlink:href="#DejaVuSans-2b"/>
      <use xlink:href="#DejaVuSans-31" transform="translate(83.789062 0)"/>
      <use xlink:href="#DejaVuSans-20" transform="translate(147.412109 0)"/>
      <use xlink:href="#DejaVuSans-73" transform="translate(179.199219 0)"/>
      <use xlink:href="#DejaVuSans-64" transform="translate(231.298828 0)"/>
     </g>
    </g>
    <g id="line2d_26">
     <path d="M 336.779375 293.004312 
L 346.779375 293.004312 
L 356.779375 293.004312 
" style="fill: none; stroke: #ff0000; stroke-width: 1.5; stroke-linecap: square"/>
    </g>
    <g id="text_16">
     <!-- best -->
     <g transform="translate(364.779375 296.504312) scale(0.1 -0.1)">
      <use xlink:href="#DejaVuSans-62"/>
      <use xlink:href="#DejaVuSans-65" transform="translate(63.476562 0)"/>
      <use xlink:href="#DejaVuSans-73" transform="translate(125 0)"/>
      <use xlink:href="#DejaVuSans-74" transform="translate(177.099609 0)"/>
     </g>
    </g>
   </g>
  </g>
 </g>
 <defs>
  <clipPath id="pff1244ff51">
   <rect x="57.6" y="41.472" width="357.12" height="266.112"/>
  </clipPath>
 </defs>
</svg>
