<?xml version="1.0" encoding="utf-8" standalone="no"?>
<!DOCTYPE svg PUBLIC "-//W3C//DTD SVG 1.1//EN"
  "http://www.w3.org/Graphics/SVG/1.1/DTD/svg11.dtd">
<svg xmlns:xlink="http://www.w3.org/1999/xlink" width="720pt" height="432pt" viewBox="0 0 720 432" xmlns="http://www.w3.org/2000/svg" version="1.1">
 <metadata>
  <rdf:RDF xmlns:dc="http://purl.org/dc/elements/1.1/" xmlns:cc="http://creativecommons.org/ns#" xmlns:rdf="http://www.w3.org/1999/02/22-rdf-syntax-ns#">
   <cc:Work>
    <dc:type rdf:resource="http://purl.org/dc/dcmitype/StillImage"/>
    <dc:date>2026-04-26T20:50:24.362232</dc:date>
    <dc:format>image/svg+xml</dc:format>
    <dc:creator>
     <cc:Agent>
      <dc:title>Matplotlib v3.10.8, https://matplotlib.org/</dc:title>
     </cc:Agent>
    </dc:creator>
   </cc:Work>
  </rdf:RDF>
 </metadata>
 <defs>
  <style type="text/css">*{stroke-linejoin: round; stroke-linecap: butt}</style>
 </defs>
 <g id="figure_1">
  <g id="patch_1">
   <path d="M 0 432 
L 720 432 
L 720 0 
L 0 0 
z
" style="fill: #ffffff"/>
  </g>
  <g id="axes_1">
   <g id="patch_2">
    <path d="M 90 384.48 
L 648 384.48 
L 648 51.84 
L 90 51.84 
z
" style="fill: #ffffff"/>
   </g>
   <g id="FillBetweenPolyCollection_1">
    <defs>
     <path id="m9a531aa9dd" d="M 115.363636 -245.769826 
L 115.363636 -183.451765 
L 117.912746 -224.156067 
L 120.461855 -228.277655 
L 123.010964 -251.542437 
L 125.560073 -267.662799 
L 128.109182 -246.259976 
L 130.658291 -254.480456 
L 133.207401 -260.109407 
L 135.75651 -272.236016 
L 138.305619 -269.37438 
L 140.854728 -262.527812 
L 143.403837 -268.419333 
L 145.952947 -252.617956 
L 148.502056 -267.56974 
L 151.051165 -264.24508 
L 153.600274 -272.929308 
L 156.149383 -265.647838 
L 158.698492 -270.93129 
L 161.247602 -263.173117 
L 163.796711 -271.291256 
L 166.34582 -271.473781 
L 168.894929 -272.056438 
L 171.444038 -267.92234 
L 173.993148 -278.79422 
L 176.542257 -267.949781 
L 179.091366 -279.307491 
L 181.640475 -292.725578 
L 184.189584 -274.837206 
L 186.738693 -272.34328 
L 189.287803 -261.055796 
L 191.836912 -267.536191 
L 194.386021 -274.846146 
L 196.93513 -270.962117 
L 199.484239 -284.073443 
L 202.033349 -277.621785 
L 204.582458 -281.420005 
L 207.131567 -278.196074 
L 209.680676 -276.733638 
L 212.229785 -277.695616 
L 214.778894 -277.846053 
L 217.328004 -274.325277 
L 219.877113 -280.787533 
L 222.426222 -280.049804 
L 224.975331 -276.567164 
L 227.52444 -287.807008 
L 230.07355 -268.902855 
L 232.622659 -278.602615 
L 235.171768 -272.130498 
L 237.720877 -275.786924 
L 240.269986 -278.514211 
L 242.819095 -280.914639 
L 245.368205 -277.753387 
L 247.917314 -277.318029 
L 250.466423 -275.440073 
L 253.015532 -288.498551 
L 255.564641 -271.485269 
L 258.113751 -279.034345 
L 260.66286 -273.414726 
L 263.211969 -280.506218 
L 265.761078 -283.761908 
L 268.310187 -276.617874 
L 270.859296 -282.878102 
L 273.408406 -278.691411 
L 275.957515 -271.576317 
L 278.506624 -280.375695 
L 281.055733 -278.646128 
L 283.604842 -281.786366 
L 286.153952 -283.291327 
L 288.703061 -282.891648 
L 291.25217 -280.437107 
L 293.801279 -284.607048 
L 296.350388 -283.215769 
L 298.899497 -279.43028 
L 301.448607 -284.957389 
L 303.997716 -279.756452 
L 306.546825 -278.618847 
L 309.095934 -280.9162 
L 311.645043 -275.475036 
L 314.194153 -277.176806 
L 316.743262 -280.479856 
L 319.292371 -273.267186 
L 321.84148 -283.433483 
L 324.390589 -278.592106 
L 326.939698 -282.606587 
L 329.488808 -277.492077 
L 332.037917 -271.952623 
L 334.587026 -271.555973 
L 337.136135 -280.93323 
L 339.685244 -278.436331 
L 342.234354 -285.687086 
L 344.783463 -284.138287 
L 347.332572 -277.769396 
L 349.881681 -288.377979 
L 352.43079 -280.455481 
L 354.979899 -275.476981 
L 357.529009 -281.69456 
L 360.078118 -279.816257 
L 362.627227 -280.028284 
L 365.176336 -279.726659 
L 367.725445 -285.923959 
L 370.274555 -278.383273 
L 372.823664 -281.815496 
L 375.372773 -284.816158 
L 377.921882 -290.982212 
L 380.470991 -290.260949 
L 383.020101 -279.051437 
L 385.56921 -278.769028 
L 388.118319 -274.270008 
L 390.667428 -281.983955 
L 393.216537 -280.435216 
L 395.765646 -285.482475 
L 398.314756 -282.473592 
L 400.863865 -289.934218 
L 403.412974 -275.899637 
L 405.962083 -284.441458 
L 408.511192 -279.870889 
L 411.060302 -274.464176 
L 413.609411 -282.601269 
L 416.15852 -279.150764 
L 418.707629 -283.080443 
L 421.256738 -282.937036 
L 423.805847 -282.785081 
L 426.354957 -271.344025 
L 428.904066 -275.461375 
L 431.453175 -292.031232 
L 434.002284 -282.645173 
L 436.551393 -287.684814 
L 439.100503 -279.583128 
L 441.649612 -282.265526 
L 444.198721 -293.770785 
L 446.74783 -286.180893 
L 449.296939 -282.465978 
L 451.846048 -272.495554 
L 454.395158 -281.860979 
L 456.944267 -281.621097 
L 459.493376 -288.554807 
L 462.042485 -281.002694 
L 464.591594 -278.126852 
L 467.140704 -286.569161 
L 469.689813 -281.740653 
L 472.238922 -281.963408 
L 474.788031 -283.352114 
L 477.33714 -288.436079 
L 479.886249 -278.607291 
L 482.435359 -282.904993 
L 484.984468 -279.291458 
L 487.533577 -276.767414 
L 490.082686 -278.014941 
L 492.631795 -282.244816 
L 495.180905 -281.781749 
L 497.730014 -299.444843 
L 500.279123 -272.560333 
L 502.828232 -275.218714 
L 505.377341 -283.421291 
L 507.92645 -281.359327 
L 510.47556 -274.382531 
L 513.024669 -281.814001 
L 515.573778 -285.134269 
L 518.122887 -280.255209 
L 520.671996 -281.923889 
L 523.221106 -281.644774 
L 525.770215 -284.378615 
L 528.319324 -279.631551 
L 530.868433 -278.273752 
L 533.417542 -280.932321 
L 535.966651 -277.680255 
L 538.515761 -278.455459 
L 541.06487 -278.093018 
L 543.613979 -285.311315 
L 546.163088 -286.035645 
L 548.712197 -285.186865 
L 551.261307 -289.11113 
L 553.810416 -279.866224 
L 556.359525 -288.718785 
L 558.908634 -285.650563 
L 561.457743 -281.908011 
L 564.006852 -279.79074 
L 566.555962 -286.908085 
L 569.105071 -284.962064 
L 571.65418 -279.623439 
L 574.203289 -282.978453 
L 576.752398 -277.633554 
L 579.301508 -284.788485 
L 581.850617 -282.42832 
L 584.399726 -275.389156 
L 586.948835 -280.015682 
L 589.497944 -283.334529 
L 592.047053 -284.438103 
L 594.596163 -279.349734 
L 597.145272 -282.796133 
L 599.694381 -288.120482 
L 602.24349 -297.63587 
L 604.792599 -281.452615 
L 607.341709 -280.436453 
L 609.890818 -284.967048 
L 612.439927 -280.030217 
L 614.989036 -287.54049 
L 617.538145 -287.703906 
L 620.087254 -287.730522 
L 622.636364 -282.495192 
L 622.636364 -338.336095 
L 622.636364 -338.336095 
L 620.087254 -331.504863 
L 617.538145 -328.825288 
L 614.989036 -324.772835 
L 612.439927 -340.139371 
L 609.890818 -348.382604 
L 607.341709 -329.820885 
L 604.792599 -339.275988 
L 602.24349 -344.740943 
L 599.694381 -337.981709 
L 597.145272 -339.623822 
L 594.596163 -347.292997 
L 592.047053 -325.545079 
L 589.497944 -330.030479 
L 586.948835 -335.990003 
L 584.399726 -325.724179 
L 581.850617 -340.5049 
L 579.301508 -319.90038 
L 576.752398 -338.911608 
L 574.203289 -336.136187 
L 571.65418 -344.87707 
L 569.105071 -321.984498 
L 566.555962 -324.186381 
L 564.006852 -320.621037 
L 561.457743 -337.405081 
L 558.908634 -352.129152 
L 556.359525 -337.952596 
L 553.810416 -328.265273 
L 551.261307 -332.857003 
L 548.712197 -329.205491 
L 546.163088 -337.623945 
L 543.613979 -335.078047 
L 541.06487 -316.81852 
L 538.515761 -317.258086 
L 535.966651 -326.147121 
L 533.417542 -335.80183 
L 530.868433 -330.807805 
L 528.319324 -361.105346 
L 525.770215 -335.345331 
L 523.221106 -326.675846 
L 520.671996 -328.086254 
L 518.122887 -334.521348 
L 515.573778 -334.21219 
L 513.024669 -350.577817 
L 510.47556 -328.291723 
L 507.92645 -343.58628 
L 505.377341 -337.924341 
L 502.828232 -326.476731 
L 500.279123 -345.034062 
L 497.730014 -353.228984 
L 495.180905 -327.933778 
L 492.631795 -316.211323 
L 490.082686 -337.441637 
L 487.533577 -345.771995 
L 484.984468 -330.753235 
L 482.435359 -335.940349 
L 479.886249 -333.886195 
L 477.33714 -347.748692 
L 474.788031 -326.87013 
L 472.238922 -365.04 
L 469.689813 -332.272794 
L 467.140704 -337.663257 
L 464.591594 -337.20065 
L 462.042485 -333.484141 
L 459.493376 -337.151718 
L 456.944267 -350.619713 
L 454.395158 -322.271812 
L 451.846048 -312.231795 
L 449.296939 -353.706706 
L 446.74783 -324.79364 
L 444.198721 -340.709092 
L 441.649612 -337.414498 
L 439.100503 -323.065231 
L 436.551393 -335.290184 
L 434.002284 -345.186506 
L 431.453175 -336.341141 
L 428.904066 -338.160913 
L 426.354957 -322.346213 
L 423.805847 -332.70195 
L 421.256738 -347.231403 
L 418.707629 -324.832602 
L 416.15852 -328.405738 
L 413.609411 -331.255999 
L 411.060302 -336.202373 
L 408.511192 -345.025131 
L 405.962083 -332.072304 
L 403.412974 -332.681403 
L 400.863865 -337.380884 
L 398.314756 -331.438225 
L 395.765646 -350.840226 
L 393.216537 -330.730947 
L 390.667428 -329.193199 
L 388.118319 -348.09897 
L 385.56921 -344.096877 
L 383.020101 -338.939361 
L 380.470991 -336.116932 
L 377.921882 -340.890547 
L 375.372773 -337.168799 
L 372.823664 -320.035597 
L 370.274555 -329.818214 
L 367.725445 -336.788086 
L 365.176336 -334.111793 
L 362.627227 -338.246079 
L 360.078118 -352.232583 
L 357.529009 -335.044813 
L 354.979899 -336.949239 
L 352.43079 -320.418214 
L 349.881681 -344.891917 
L 347.332572 -327.909376 
L 344.783463 -326.858164 
L 342.234354 -325.059123 
L 339.685244 -331.99562 
L 337.136135 -336.868788 
L 334.587026 -310.623138 
L 332.037917 -348.59488 
L 329.488808 -320.797027 
L 326.939698 -327.477494 
L 324.390589 -336.133797 
L 321.84148 -326.578241 
L 319.292371 -325.683537 
L 316.743262 -335.435663 
L 314.194153 -331.217841 
L 311.645043 -326.871248 
L 309.095934 -318.457357 
L 306.546825 -344.485679 
L 303.997716 -333.910898 
L 301.448607 -334.205717 
L 298.899497 -330.584022 
L 296.350388 -336.997921 
L 293.801279 -330.697387 
L 291.25217 -327.697869 
L 288.703061 -331.285625 
L 286.153952 -341.075834 
L 283.604842 -333.456362 
L 281.055733 -345.052357 
L 278.506624 -326.314053 
L 275.957515 -326.206969 
L 273.408406 -340.920857 
L 270.859296 -358.490259 
L 268.310187 -342.550569 
L 265.761078 -335.898335 
L 263.211969 -342.209108 
L 260.66286 -330.799633 
L 258.113751 -320.560968 
L 255.564641 -344.532652 
L 253.015532 -339.27255 
L 250.466423 -335.926577 
L 247.917314 -348.003948 
L 245.368205 -315.053245 
L 242.819095 -328.702379 
L 240.269986 -328.168426 
L 237.720877 -344.441849 
L 235.171768 -327.501543 
L 232.622659 -329.374172 
L 230.07355 -320.025088 
L 227.52444 -327.774617 
L 224.975331 -327.570367 
L 222.426222 -327.344898 
L 219.877113 -326.911858 
L 217.328004 -309.885798 
L 214.778894 -316.748996 
L 212.229785 -335.587223 
L 209.680676 -323.372779 
L 207.131567 -336.171034 
L 204.582458 -339.648532 
L 202.033349 -318.081675 
L 199.484239 -320.509154 
L 196.93513 -328.172466 
L 194.386021 -337.858256 
L 191.836912 -331.486413 
L 189.287803 -327.282859 
L 186.738693 -330.99298 
L 184.189584 -318.51984 
L 181.640475 -317.639448 
L 179.091366 -339.213887 
L 176.542257 -344.394497 
L 173.993148 -335.810217 
L 171.444038 -332.009459 
L 168.894929 -318.805018 
L 166.34582 -323.820507 
L 163.796711 -336.552185 
L 161.247602 -314.289776 
L 158.698492 -305.968351 
L 156.149383 -320.733155 
L 153.600274 -324.007039 
L 151.051165 -323.760691 
L 148.502056 -317.213525 
L 145.952947 -332.049307 
L 143.403837 -324.120376 
L 140.854728 -334.018521 
L 138.305619 -317.516013 
L 135.75651 -321.634356 
L 133.207401 -319.191964 
L 130.658291 -293.908399 
L 128.109182 -294.872083 
L 125.560073 -307.033249 
L 123.010964 -302.139986 
L 120.461855 -285.114684 
L 117.912746 -278.756336 
L 115.363636 -245.769826 
z
" style="stroke: #ff0000; stroke-opacity: 0.2"/>
    </defs>
    <g clip-path="url(#pdb273f960e)">
     <use xlink:href="#m9a531aa9dd" x="0" y="432" style="fill: #ff0000; fill-opacity: 0.2; stroke: #ff0000; stroke-opacity: 0.2"/>
    </g>
   </g>
   <g id="matplotlib.axis_1">
    <g id="xtick_1">
     <g id="line2d_1">
      <path d="M 112.814527 384.48 
L 112.814527 51.84 
" clip-path="url(#pdb273f960e)" style="fill: none; stroke: #b0b0b0; stroke-width: 0.8; stroke-linecap: square"/>
     </g>
     <g id="line2d_2">
      <defs>
       <path id="m0bf8fefc9f" d="M 0 0 
L 0 3.5 
" style="stroke: #000000; stroke-width: 0.8"/>
      </defs>
      <g>
       <use xlink:href="#m0bf8fefc9f" x="112.814527" y="384.48" style="stroke: #000000; stroke-width: 0.8"/>
      </g>
     </g>
     <g id="text_1">
      <!-- 0 -->
      <g transform="translate(109.633277 399.078438) scale(0.1 -0.1)">
       <defs>
        <path id="DejaVuSans-30" d="M 2034 4250 
Q 1547 4250 1301 3770 
Q 1056 3291 1056 2328 
Q 1056 1369 1301 889 
Q 1547 409 2034 409 
Q 2525 409 2770 889 
Q 3016 1369 3016 2328 
Q 3016 3291 2770 3770 
Q 2525 4250 2034 4250 
z
M 2034 4750 
Q 2819 4750 3233 4129 
Q 3647 3509 3647 2328 
Q 3647 1150 3233 529 
Q 2819 -91 2034 -91 
Q 1250 -91 836 529 
Q 422 1150 422 2328 
Q 422 3509 836 4129 
Q 1250 4750 2034 4750 
z
" transform="scale(0.015625)"/>
       </defs>
       <use xlink:href="#DejaVuSans-30"/>
      </g>
     </g>
    </g>
    <g id="xtick_2">
     <g id="line2d_3">
      <path d="M 176.542257 384.48 
L 176.542257 51.84 
" clip-path="url(#pdb273f960e)" style="fill: none; stroke: #b0b0b0; stroke-width: 0.8; stroke-linecap: square"/>
     </g>
     <g id="line2d_4">
      <g>
       <use xlink:href="#m0bf8fefc9f" x="176.542257" y="384.48" style="stroke: #000000; stroke-width: 0.8"/>
      </g>
     </g>
     <g id="text_2">
      <!-- 25 -->
      <g transform="translate(170.179757 399.078438) scale(0.1 -0.1)">
       <defs>
        <path id="DejaVuSans-32" d="M 1228 531 
L 3431 531 
L 3431 0 
L 469 0 
L 469 531 
Q 828 903 1448 1529 
Q 2069 2156 2228 2338 
Q 2531 2678 2651 2914 
Q 2772 3150 2772 3378 
Q 2772 3750 2511 3984 
Q 2250 4219 1831 4219 
Q 1534 4219 1204 4116 
Q 875 4013 500 3803 
L 500 4441 
Q 881 4594 1212 4672 
Q 1544 4750 1819 4750 
Q 2544 4750 2975 4387 
Q 3406 4025 3406 3419 
Q 3406 3131 3298 2873 
Q 3191 2616 2906 2266 
Q 2828 2175 2409 1742 
Q 1991 1309 1228 531 
z
" transform="scale(0.015625)"/>
        <path id="DejaVuSans-35" d="M 691 4666 
L 3169 4666 
L 3169 4134 
L 1269 4134 
L 1269 2991 
Q 1406 3038 1543 3061 
Q 1681 3084 1819 3084 
Q 2600 3084 3056 2656 
Q 3513 2228 3513 1497 
Q 3513 744 3044 326 
Q 2575 -91 1722 -91 
Q 1428 -91 1123 -41 
Q 819 9 494 109 
L 494 744 
Q 775 591 1075 516 
Q 1375 441 1709 441 
Q 2250 441 2565 725 
Q 2881 1009 2881 1497 
Q 2881 1984 2565 2268 
Q 2250 2553 1709 2553 
Q 1456 2553 1204 2497 
Q 953 2441 691 2322 
L 691 4666 
z
" transform="scale(0.015625)"/>
       </defs>
       <use xlink:href="#DejaVuSans-32"/>
       <use xlink:href="#DejaVuSans-35" transform="translate(63.623047 0)"/>
      </g>
     </g>
    </g>
    <g id="xtick_3">
     <g id="line2d_5">
      <path d="M 240.269986 384.48 
L 240.269986 51.84 
" clip-path="url(#pdb273f960e)" style="fill: none; stroke: #b0b0b0; stroke-width: 0.8; stroke-linecap: square"/>
     </g>
     <g id="line2d_6">
      <g>
       <use xlink:href="#m0bf8fefc9f" x="240.269986" y="384.48" style="stroke: #000000; stroke-width: 0.8"/>
      </g>
     </g>
     <g id="text_3">
      <!-- 50 -->
      <g transform="translate(233.907486 399.078438) scale(0.1 -0.1)">
       <use xlink:href="#DejaVuSans-35"/>
       <use xlink:href="#DejaVuSans-30" transform="translate(63.623047 0)"/>
      </g>
     </g>
    </g>
    <g id="xtick_4">
     <g id="line2d_7">
      <path d="M 303.997716 384.48 
L 303.997716 51.84 
" clip-path="url(#pdb273f960e)" style="fill: none; stroke: #b0b0b0; stroke-width: 0.8; stroke-linecap: square"/>
     </g>
     <g id="line2d_8">
      <g>
       <use xlink:href="#m0bf8fefc9f" x="303.997716" y="384.48" style="stroke: #000000; stroke-width: 0.8"/>
      </g>
     </g>
     <g id="text_4">
      <!-- 75 -->
      <g transform="translate(297.635216 399.078438) scale(0.1 -0.1)">
       <defs>
        <path id="DejaVuSans-37" d="M 525 4666 
L 3525 4666 
L 3525 4397 
L 1831 0 
L 1172 0 
L 2766 4134 
L 525 4134 
L 525 4666 
z
" transform="scale(0.015625)"/>
       </defs>
       <use xlink:href="#DejaVuSans-37"/>
       <use xlink:href="#DejaVuSans-35" transform="translate(63.623047 0)"/>
      </g>
     </g>
    </g>
    <g id="xtick_5">
     <g id="line2d_9">
      <path d="M 367.725445 384.48 
L 367.725445 51.84 
" clip-path="url(#pdb273f960e)" style="fill: none; stroke: #b0b0b0; stroke-width: 0.8; stroke-linecap: square"/>
     </g>
     <g id="line2d_10">
      <g>
       <use xlink:href="#m0bf8fefc9f" x="367.725445" y="384.48" style="stroke: #000000; stroke-width: 0.8"/>
      </g>
     </g>
     <g id="text_5">
      <!-- 100 -->
      <g transform="translate(358.181695 399.078438) scale(0.1 -0.1)">
       <defs>
        <path id="DejaVuSans-31" d="M 794 531 
L 1825 531 
L 1825 4091 
L 703 3866 
L 703 4441 
L 1819 4666 
L 2450 4666 
L 2450 531 
L 3481 531 
L 3481 0 
L 794 0 
L 794 531 
z
" transform="scale(0.015625)"/>
       </defs>
       <use xlink:href="#DejaVuSans-31"/>
       <use xlink:href="#DejaVuSans-30" transform="translate(63.623047 0)"/>
       <use xlink:href="#DejaVuSans-30" transform="translate(127.246094 0)"/>
      </g>
     </g>
    </g>
    <g id="xtick_6">
     <g id="line2d_11">
      <path d="M 431.453175 384.48 
L 431.453175 51.84 
" clip-path="url(#pdb273f960e)" style="fill: none; stroke: #b0b0b0; stroke-width: 0.8; stroke-linecap: square"/>
     </g>
     <g id="line2d_12">
      <g>
       <use xlink:href="#m0bf8fefc9f" x="431.453175" y="384.48" style="stroke: #000000; stroke-width: 0.8"/>
      </g>
     </g>
     <g id="text_6">
      <!-- 125 -->
      <g transform="translate(421.909425 399.078438) scale(0.1 -0.1)">
       <use xlink:href="#DejaVuSans-31"/>
       <use xlink:href="#DejaVuSans-32" transform="translate(63.623047 0)"/>
       <use xlink:href="#DejaVuSans-35" transform="translate(127.246094 0)"/>
      </g>
     </g>
    </g>
    <g id="xtick_7">
     <g id="line2d_13">
      <path d="M 495.180905 384.48 
L 495.180905 51.84 
" clip-path="url(#pdb273f960e)" style="fill: none; stroke: #b0b0b0; stroke-width: 0.8; stroke-linecap: square"/>
     </g>
     <g id="line2d_14">
      <g>
       <use xlink:href="#m0bf8fefc9f" x="495.180905" y="384.48" style="stroke: #000000; stroke-width: 0.8"/>
      </g>
     </g>
     <g id="text_7">
      <!-- 150 -->
      <g transform="translate(485.637155 399.078438) scale(0.1 -0.1)">
       <use xlink:href="#DejaVuSans-31"/>
       <use xlink:href="#DejaVuSans-35" transform="translate(63.623047 0)"/>
       <use xlink:href="#DejaVuSans-30" transform="translate(127.246094 0)"/>
      </g>
     </g>
    </g>
    <g id="xtick_8">
     <g id="line2d_15">
      <path d="M 558.908634 384.48 
L 558.908634 51.84 
" clip-path="url(#pdb273f960e)" style="fill: none; stroke: #b0b0b0; stroke-width: 0.8; stroke-linecap: square"/>
     </g>
     <g id="line2d_16">
      <g>
       <use xlink:href="#m0bf8fefc9f" x="558.908634" y="384.48" style="stroke: #000000; stroke-width: 0.8"/>
      </g>
     </g>
     <g id="text_8">
      <!-- 175 -->
      <g transform="translate(549.364884 399.078438) scale(0.1 -0.1)">
       <use xlink:href="#DejaVuSans-31"/>
       <use xlink:href="#DejaVuSans-37" transform="translate(63.623047 0)"/>
       <use xlink:href="#DejaVuSans-35" transform="translate(127.246094 0)"/>
      </g>
     </g>
    </g>
    <g id="xtick_9">
     <g id="line2d_17">
      <path d="M 622.636364 384.48 
L 622.636364 51.84 
" clip-path="url(#pdb273f960e)" style="fill: none; stroke: #b0b0b0; stroke-width: 0.8; stroke-linecap: square"/>
     </g>
     <g id="line2d_18">
      <g>
       <use xlink:href="#m0bf8fefc9f" x="622.636364" y="384.48" style="stroke: #000000; stroke-width: 0.8"/>
      </g>
     </g>
     <g id="text_9">
      <!-- 200 -->
      <g transform="translate(613.092614 399.078438) scale(0.1 -0.1)">
       <use xlink:href="#DejaVuSans-32"/>
       <use xlink:href="#DejaVuSans-30" transform="translate(63.623047 0)"/>
       <use xlink:href="#DejaVuSans-30" transform="translate(127.246094 0)"/>
      </g>
     </g>
    </g>
    <g id="text_10">
     <!-- Generacje -->
     <g transform="translate(343.469531 412.756563) scale(0.1 -0.1)">
      <defs>
       <path id="DejaVuSans-47" d="M 3809 666 
L 3809 1919 
L 2778 1919 
L 2778 2438 
L 4434 2438 
L 4434 434 
Q 4069 175 3628 42 
Q 3188 -91 2688 -91 
Q 1594 -91 976 548 
Q 359 1188 359 2328 
Q 359 3472 976 4111 
Q 1594 4750 2688 4750 
Q 3144 4750 3555 4637 
Q 3966 4525 4313 4306 
L 4313 3634 
Q 3963 3931 3569 4081 
Q 3175 4231 2741 4231 
Q 1884 4231 1454 3753 
Q 1025 3275 1025 2328 
Q 1025 1384 1454 906 
Q 1884 428 2741 428 
Q 3075 428 3337 486 
Q 3600 544 3809 666 
z
" transform="scale(0.015625)"/>
       <path id="DejaVuSans-65" d="M 3597 1894 
L 3597 1613 
L 953 1613 
Q 991 1019 1311 708 
Q 1631 397 2203 397 
Q 2534 397 2845 478 
Q 3156 559 3463 722 
L 3463 178 
Q 3153 47 2828 -22 
Q 2503 -91 2169 -91 
Q 1331 -91 842 396 
Q 353 884 353 1716 
Q 353 2575 817 3079 
Q 1281 3584 2069 3584 
Q 2775 3584 3186 3129 
Q 3597 2675 3597 1894 
z
M 3022 2063 
Q 3016 2534 2758 2815 
Q 2500 3097 2075 3097 
Q 1594 3097 1305 2825 
Q 1016 2553 972 2059 
L 3022 2063 
z
" transform="scale(0.015625)"/>
       <path id="DejaVuSans-6e" d="M 3513 2113 
L 3513 0 
L 2938 0 
L 2938 2094 
Q 2938 2591 2744 2837 
Q 2550 3084 2163 3084 
Q 1697 3084 1428 2787 
Q 1159 2491 1159 1978 
L 1159 0 
L 581 0 
L 581 3500 
L 1159 3500 
L 1159 2956 
Q 1366 3272 1645 3428 
Q 1925 3584 2291 3584 
Q 2894 3584 3203 3211 
Q 3513 2838 3513 2113 
z
" transform="scale(0.015625)"/>
       <path id="DejaVuSans-72" d="M 2631 2963 
Q 2534 3019 2420 3045 
Q 2306 3072 2169 3072 
Q 1681 3072 1420 2755 
Q 1159 2438 1159 1844 
L 1159 0 
L 581 0 
L 581 3500 
L 1159 3500 
L 1159 2956 
Q 1341 3275 1631 3429 
Q 1922 3584 2338 3584 
Q 2397 3584 2469 3576 
Q 2541 3569 2628 3553 
L 2631 2963 
z
" transform="scale(0.015625)"/>
       <path id="DejaVuSans-61" d="M 2194 1759 
Q 1497 1759 1228 1600 
Q 959 1441 959 1056 
Q 959 750 1161 570 
Q 1363 391 1709 391 
Q 2188 391 2477 730 
Q 2766 1069 2766 1631 
L 2766 1759 
L 2194 1759 
z
M 3341 1997 
L 3341 0 
L 2766 0 
L 2766 531 
Q 2569 213 2275 61 
Q 1981 -91 1556 -91 
Q 1019 -91 701 211 
Q 384 513 384 1019 
Q 384 1609 779 1909 
Q 1175 2209 1959 2209 
L 2766 2209 
L 2766 2266 
Q 2766 2663 2505 2880 
Q 2244 3097 1772 3097 
Q 1472 3097 1187 3025 
Q 903 2953 641 2809 
L 641 3341 
Q 956 3463 1253 3523 
Q 1550 3584 1831 3584 
Q 2591 3584 2966 3190 
Q 3341 2797 3341 1997 
z
" transform="scale(0.015625)"/>
       <path id="DejaVuSans-63" d="M 3122 3366 
L 3122 2828 
Q 2878 2963 2633 3030 
Q 2388 3097 2138 3097 
Q 1578 3097 1268 2742 
Q 959 2388 959 1747 
Q 959 1106 1268 751 
Q 1578 397 2138 397 
Q 2388 397 2633 464 
Q 2878 531 3122 666 
L 3122 134 
Q 2881 22 2623 -34 
Q 2366 -91 2075 -91 
Q 1284 -91 818 406 
Q 353 903 353 1747 
Q 353 2603 823 3093 
Q 1294 3584 2113 3584 
Q 2378 3584 2631 3529 
Q 2884 3475 3122 3366 
z
" transform="scale(0.015625)"/>
       <path id="DejaVuSans-6a" d="M 603 3500 
L 1178 3500 
L 1178 -63 
Q 1178 -731 923 -1031 
Q 669 -1331 103 -1331 
L -116 -1331 
L -116 -844 
L 38 -844 
Q 366 -844 484 -692 
Q 603 -541 603 -63 
L 603 3500 
z
M 603 4863 
L 1178 4863 
L 1178 4134 
L 603 4134 
L 603 4863 
z
" transform="scale(0.015625)"/>
      </defs>
      <use xlink:href="#DejaVuSans-47"/>
      <use xlink:href="#DejaVuSans-65" transform="translate(77.490234 0)"/>
      <use xlink:href="#DejaVuSans-6e" transform="translate(139.013672 0)"/>
      <use xlink:href="#DejaVuSans-65" transform="translate(202.392578 0)"/>
      <use xlink:href="#DejaVuSans-72" transform="translate(263.916016 0)"/>
      <use xlink:href="#DejaVuSans-61" transform="translate(305.029297 0)"/>
      <use xlink:href="#DejaVuSans-63" transform="translate(366.308594 0)"/>
      <use xlink:href="#DejaVuSans-6a" transform="translate(421.289062 0)"/>
      <use xlink:href="#DejaVuSans-65" transform="translate(449.072266 0)"/>
     </g>
    </g>
   </g>
   <g id="matplotlib.axis_2">
    <g id="ytick_1">
     <g id="line2d_19">
      <path d="M 90 361.146017 
L 648 361.146017 
" clip-path="url(#pdb273f960e)" style="fill: none; stroke: #b0b0b0; stroke-width: 0.8; stroke-linecap: square"/>
     </g>
     <g id="line2d_20">
      <defs>
       <path id="mcb472483df" d="M 0 0 
L -3.5 0 
" style="stroke: #000000; stroke-width: 0.8"/>
      </defs>
      <g>
       <use xlink:href="#mcb472483df" x="90" y="361.146017" style="stroke: #000000; stroke-width: 0.8"/>
      </g>
     </g>
     <g id="text_11">
      <!-- 40 -->
      <g transform="translate(70.275 364.945235) scale(0.1 -0.1)">
       <defs>
        <path id="DejaVuSans-34" d="M 2419 4116 
L 825 1625 
L 2419 1625 
L 2419 4116 
z
M 2253 4666 
L 3047 4666 
L 3047 1625 
L 3713 1625 
L 3713 1100 
L 3047 1100 
L 3047 0 
L 2419 0 
L 2419 1100 
L 313 1100 
L 313 1709 
L 2253 4666 
z
" transform="scale(0.015625)"/>
       </defs>
       <use xlink:href="#DejaVuSans-34"/>
       <use xlink:href="#DejaVuSans-30" transform="translate(63.623047 0)"/>
      </g>
     </g>
    </g>
    <g id="ytick_2">
     <g id="line2d_21">
      <path d="M 90 311.876351 
L 648 311.876351 
" clip-path="url(#pdb273f960e)" style="fill: none; stroke: #b0b0b0; stroke-width: 0.8; stroke-linecap: square"/>
     </g>
     <g id="line2d_22">
      <g>
       <use xlink:href="#mcb472483df" x="90" y="311.876351" style="stroke: #000000; stroke-width: 0.8"/>
      </g>
     </g>
     <g id="text_12">
      <!-- 60 -->
      <g transform="translate(70.275 315.67557) scale(0.1 -0.1)">
       <defs>
        <path id="DejaVuSans-36" d="M 2113 2584 
Q 1688 2584 1439 2293 
Q 1191 2003 1191 1497 
Q 1191 994 1439 701 
Q 1688 409 2113 409 
Q 2538 409 2786 701 
Q 3034 994 3034 1497 
Q 3034 2003 2786 2293 
Q 2538 2584 2113 2584 
z
M 3366 4563 
L 3366 3988 
Q 3128 4100 2886 4159 
Q 2644 4219 2406 4219 
Q 1781 4219 1451 3797 
Q 1122 3375 1075 2522 
Q 1259 2794 1537 2939 
Q 1816 3084 2150 3084 
Q 2853 3084 3261 2657 
Q 3669 2231 3669 1497 
Q 3669 778 3244 343 
Q 2819 -91 2113 -91 
Q 1303 -91 875 529 
Q 447 1150 447 2328 
Q 447 3434 972 4092 
Q 1497 4750 2381 4750 
Q 2619 4750 2861 4703 
Q 3103 4656 3366 4563 
z
" transform="scale(0.015625)"/>
       </defs>
       <use xlink:href="#DejaVuSans-36"/>
       <use xlink:href="#DejaVuSans-30" transform="translate(63.623047 0)"/>
      </g>
     </g>
    </g>
    <g id="ytick_3">
     <g id="line2d_23">
      <path d="M 90 262.606686 
L 648 262.606686 
" clip-path="url(#pdb273f960e)" style="fill: none; stroke: #b0b0b0; stroke-width: 0.8; stroke-linecap: square"/>
     </g>
     <g id="line2d_24">
      <g>
       <use xlink:href="#mcb472483df" x="90" y="262.606686" style="stroke: #000000; stroke-width: 0.8"/>
      </g>
     </g>
     <g id="text_13">
      <!-- 80 -->
      <g transform="translate(70.275 266.405905) scale(0.1 -0.1)">
       <defs>
        <path id="DejaVuSans-38" d="M 2034 2216 
Q 1584 2216 1326 1975 
Q 1069 1734 1069 1313 
Q 1069 891 1326 650 
Q 1584 409 2034 409 
Q 2484 409 2743 651 
Q 3003 894 3003 1313 
Q 3003 1734 2745 1975 
Q 2488 2216 2034 2216 
z
M 1403 2484 
Q 997 2584 770 2862 
Q 544 3141 544 3541 
Q 544 4100 942 4425 
Q 1341 4750 2034 4750 
Q 2731 4750 3128 4425 
Q 3525 4100 3525 3541 
Q 3525 3141 3298 2862 
Q 3072 2584 2669 2484 
Q 3125 2378 3379 2068 
Q 3634 1759 3634 1313 
Q 3634 634 3220 271 
Q 2806 -91 2034 -91 
Q 1263 -91 848 271 
Q 434 634 434 1313 
Q 434 1759 690 2068 
Q 947 2378 1403 2484 
z
M 1172 3481 
Q 1172 3119 1398 2916 
Q 1625 2713 2034 2713 
Q 2441 2713 2670 2916 
Q 2900 3119 2900 3481 
Q 2900 3844 2670 4047 
Q 2441 4250 2034 4250 
Q 1625 4250 1398 4047 
Q 1172 3844 1172 3481 
z
" transform="scale(0.015625)"/>
       </defs>
       <use xlink:href="#DejaVuSans-38"/>
       <use xlink:href="#DejaVuSans-30" transform="translate(63.623047 0)"/>
      </g>
     </g>
    </g>
    <g id="ytick_4">
     <g id="line2d_25">
      <path d="M 90 213.337021 
L 648 213.337021 
" clip-path="url(#pdb273f960e)" style="fill: none; stroke: #b0b0b0; stroke-width: 0.8; stroke-linecap: square"/>
     </g>
     <g id="line2d_26">
      <g>
       <use xlink:href="#mcb472483df" x="90" y="213.337021" style="stroke: #000000; stroke-width: 0.8"/>
      </g>
     </g>
     <g id="text_14">
      <!-- 100 -->
      <g transform="translate(63.9125 217.13624) scale(0.1 -0.1)">
       <use xlink:href="#DejaVuSans-31"/>
       <use xlink:href="#DejaVuSans-30" transform="translate(63.623047 0)"/>
       <use xlink:href="#DejaVuSans-30" transform="translate(127.246094 0)"/>
      </g>
     </g>
    </g>
    <g id="ytick_5">
     <g id="line2d_27">
      <path d="M 90 164.067356 
L 648 164.067356 
" clip-path="url(#pdb273f960e)" style="fill: none; stroke: #b0b0b0; stroke-width: 0.8; stroke-linecap: square"/>
     </g>
     <g id="line2d_28">
      <g>
       <use xlink:href="#mcb472483df" x="90" y="164.067356" style="stroke: #000000; stroke-width: 0.8"/>
      </g>
     </g>
     <g id="text_15">
      <!-- 120 -->
      <g transform="translate(63.9125 167.866575) scale(0.1 -0.1)">
       <use xlink:href="#DejaVuSans-31"/>
       <use xlink:href="#DejaVuSans-32" transform="translate(63.623047 0)"/>
       <use xlink:href="#DejaVuSans-30" transform="translate(127.246094 0)"/>
      </g>
     </g>
    </g>
    <g id="ytick_6">
     <g id="line2d_29">
      <path d="M 90 114.797691 
L 648 114.797691 
" clip-path="url(#pdb273f960e)" style="fill: none; stroke: #b0b0b0; stroke-width: 0.8; stroke-linecap: square"/>
     </g>
     <g id="line2d_30">
      <g>
       <use xlink:href="#mcb472483df" x="90" y="114.797691" style="stroke: #000000; stroke-width: 0.8"/>
      </g>
     </g>
     <g id="text_16">
      <!-- 140 -->
      <g transform="translate(63.9125 118.59691) scale(0.1 -0.1)">
       <use xlink:href="#DejaVuSans-31"/>
       <use xlink:href="#DejaVuSans-34" transform="translate(63.623047 0)"/>
       <use xlink:href="#DejaVuSans-30" transform="translate(127.246094 0)"/>
      </g>
     </g>
    </g>
    <g id="ytick_7">
     <g id="line2d_31">
      <path d="M 90 65.528026 
L 648 65.528026 
" clip-path="url(#pdb273f960e)" style="fill: none; stroke: #b0b0b0; stroke-width: 0.8; stroke-linecap: square"/>
     </g>
     <g id="line2d_32">
      <g>
       <use xlink:href="#mcb472483df" x="90" y="65.528026" style="stroke: #000000; stroke-width: 0.8"/>
      </g>
     </g>
     <g id="text_17">
      <!-- 160 -->
      <g transform="translate(63.9125 69.327245) scale(0.1 -0.1)">
       <use xlink:href="#DejaVuSans-31"/>
       <use xlink:href="#DejaVuSans-36" transform="translate(63.623047 0)"/>
       <use xlink:href="#DejaVuSans-30" transform="translate(127.246094 0)"/>
      </g>
     </g>
    </g>
    <g id="text_18">
     <!-- Fitness -->
     <g transform="translate(57.832812 235.477187) rotate(-90) scale(0.1 -0.1)">
      <defs>
       <path id="DejaVuSans-46" d="M 628 4666 
L 3309 4666 
L 3309 4134 
L 1259 4134 
L 1259 2759 
L 3109 2759 
L 3109 2228 
L 1259 2228 
L 1259 0 
L 628 0 
L 628 4666 
z
" transform="scale(0.015625)"/>
       <path id="DejaVuSans-69" d="M 603 3500 
L 1178 3500 
L 1178 0 
L 603 0 
L 603 3500 
z
M 603 4863 
L 1178 4863 
L 1178 4134 
L 603 4134 
L 603 4863 
z
" transform="scale(0.015625)"/>
       <path id="DejaVuSans-74" d="M 1172 4494 
L 1172 3500 
L 2356 3500 
L 2356 3053 
L 1172 3053 
L 1172 1153 
Q 1172 725 1289 603 
Q 1406 481 1766 481 
L 2356 481 
L 2356 0 
L 1766 0 
Q 1100 0 847 248 
Q 594 497 594 1153 
L 594 3053 
L 172 3053 
L 172 3500 
L 594 3500 
L 594 4494 
L 1172 4494 
z
" transform="scale(0.015625)"/>
       <path id="DejaVuSans-73" d="M 2834 3397 
L 2834 2853 
Q 2591 2978 2328 3040 
Q 2066 3103 1784 3103 
Q 1356 3103 1142 2972 
Q 928 2841 928 2578 
Q 928 2378 1081 2264 
Q 1234 2150 1697 2047 
L 1894 2003 
Q 2506 1872 2764 1633 
Q 3022 1394 3022 966 
Q 3022 478 2636 193 
Q 2250 -91 1575 -91 
Q 1294 -91 989 -36 
Q 684 19 347 128 
L 347 722 
Q 666 556 975 473 
Q 1284 391 1588 391 
Q 1994 391 2212 530 
Q 2431 669 2431 922 
Q 2431 1156 2273 1281 
Q 2116 1406 1581 1522 
L 1381 1569 
Q 847 1681 609 1914 
Q 372 2147 372 2553 
Q 372 3047 722 3315 
Q 1072 3584 1716 3584 
Q 2034 3584 2315 3537 
Q 2597 3491 2834 3397 
z
" transform="scale(0.015625)"/>
      </defs>
      <use xlink:href="#DejaVuSans-46"/>
      <use xlink:href="#DejaVuSans-69" transform="translate(50.269531 0)"/>
      <use xlink:href="#DejaVuSans-74" transform="translate(78.052734 0)"/>
      <use xlink:href="#DejaVuSans-6e" transform="translate(117.261719 0)"/>
      <use xlink:href="#DejaVuSans-65" transform="translate(180.640625 0)"/>
      <use xlink:href="#DejaVuSans-73" transform="translate(242.164062 0)"/>
      <use xlink:href="#DejaVuSans-73" transform="translate(294.263672 0)"/>
     </g>
    </g>
   </g>
   <g id="line2d_33">
    <path d="M 115.363636 217.389204 
L 117.912746 180.543798 
L 120.461855 175.30383 
L 123.010964 155.158789 
L 125.560073 144.651976 
L 128.109182 161.43397 
L 130.658291 157.805573 
L 133.207401 142.349315 
L 135.75651 135.064814 
L 138.305619 138.554803 
L 140.854728 133.726833 
L 143.403837 135.730146 
L 145.952947 139.666368 
L 148.502056 139.608367 
L 151.051165 137.997114 
L 153.600274 133.531827 
L 156.149383 138.809503 
L 158.698492 143.550179 
L 161.247602 143.268553 
L 163.796711 128.07828 
L 166.34582 134.352856 
L 168.894929 136.569272 
L 171.444038 132.034101 
L 173.993148 124.697781 
L 176.542257 125.827861 
L 179.091366 122.739311 
L 181.640475 126.817487 
L 184.189584 135.321477 
L 186.738693 130.33187 
L 189.287803 137.830673 
L 191.836912 132.488698 
L 194.386021 125.647799 
L 196.93513 132.432708 
L 199.484239 129.708702 
L 202.033349 134.14827 
L 204.582458 121.465731 
L 207.131567 124.816446 
L 209.680676 131.946792 
L 212.229785 125.358581 
L 214.778894 134.702475 
L 217.328004 139.894463 
L 219.877113 128.150305 
L 222.426222 128.302649 
L 224.975331 129.931234 
L 227.52444 124.209188 
L 230.07355 137.536028 
L 232.622659 128.011607 
L 235.171768 132.183979 
L 237.720877 121.885613 
L 240.269986 128.658682 
L 242.819095 127.191491 
L 245.368205 135.596684 
L 247.917314 119.339011 
L 250.466423 126.316675 
L 253.015532 118.114449 
L 255.564641 123.99104 
L 258.113751 132.202344 
L 260.66286 129.892821 
L 263.211969 120.642337 
L 265.761078 122.169879 
L 268.310187 122.415779 
L 270.859296 111.31582 
L 275.957515 133.108357 
L 278.506624 128.655126 
L 281.055733 120.150758 
L 283.604842 124.378636 
L 286.153952 119.816419 
L 288.703061 124.911363 
L 291.25217 127.932512 
L 293.801279 124.347782 
L 296.350388 121.893155 
L 298.899497 126.992849 
L 301.448607 122.418447 
L 303.997716 125.166325 
L 306.546825 120.447737 
L 309.095934 132.313221 
L 311.645043 130.826858 
L 314.194153 127.802677 
L 316.743262 124.042241 
L 319.292371 132.524639 
L 321.84148 126.994138 
L 324.390589 124.637049 
L 326.939698 126.95796 
L 329.488808 132.855448 
L 332.037917 121.726249 
L 334.587026 140.910444 
L 337.136135 123.098991 
L 339.685244 126.784025 
L 344.783463 126.501774 
L 347.332572 129.160614 
L 349.881681 115.365052 
L 352.43079 131.563153 
L 354.979899 125.78689 
L 357.529009 123.630314 
L 360.078118 115.97558 
L 362.627227 122.862819 
L 365.176336 125.080774 
L 367.725445 120.643978 
L 370.274555 127.899257 
L 372.823664 131.074454 
L 375.372773 121.007521 
L 377.921882 116.06362 
L 380.470991 118.811059 
L 383.020101 123.004601 
L 385.56921 120.567047 
L 388.118319 120.815511 
L 390.667428 126.411423 
L 393.216537 126.416919 
L 395.765646 113.83865 
L 398.314756 125.044091 
L 400.863865 118.342449 
L 403.412974 127.70948 
L 405.962083 123.743119 
L 408.511192 119.55199 
L 411.060302 126.666725 
L 413.609411 125.071366 
L 416.15852 128.221749 
L 418.707629 128.043477 
L 421.256738 116.91578 
L 423.805847 124.256485 
L 426.354957 135.154881 
L 428.904066 125.188856 
L 431.453175 117.813814 
L 434.002284 118.084161 
L 436.551393 120.512501 
L 439.100503 130.675821 
L 441.649612 122.159988 
L 444.198721 114.760062 
L 446.74783 126.512733 
L 449.296939 113.913658 
L 451.846048 139.636325 
L 454.395158 129.933604 
L 456.944267 115.879595 
L 459.493376 119.146738 
L 462.042485 124.756582 
L 464.591594 124.336249 
L 467.140704 119.883791 
L 469.689813 124.993277 
L 472.238922 108.498296 
L 474.788031 126.888878 
L 477.33714 113.907614 
L 479.886249 125.753257 
L 482.435359 122.577329 
L 484.984468 126.977653 
L 487.533577 120.730295 
L 490.082686 124.271711 
L 492.631795 132.77193 
L 495.180905 127.142236 
L 497.730014 105.663087 
L 500.279123 123.202802 
L 502.828232 131.152278 
L 505.377341 121.327184 
L 507.92645 119.527197 
L 510.47556 130.662873 
L 513.024669 115.804091 
L 515.573778 122.32677 
L 520.671996 126.994928 
L 523.221106 127.83969 
L 525.770215 122.138027 
L 528.319324 111.631552 
L 530.868433 127.459221 
L 533.417542 123.632925 
L 535.966651 130.086312 
L 538.515761 134.143227 
L 541.06487 134.544231 
L 543.613979 121.805319 
L 546.163088 120.170205 
L 548.712197 124.803822 
L 551.261307 121.015933 
L 553.810416 127.934252 
L 556.359525 118.66431 
L 558.908634 113.110143 
L 564.006852 131.794111 
L 566.555962 126.452767 
L 569.105071 128.526719 
L 571.65418 119.749745 
L 574.203289 122.44268 
L 576.752398 123.727419 
L 579.301508 129.655568 
L 581.850617 120.53339 
L 584.399726 131.443332 
L 586.948835 123.997157 
L 589.497944 125.317496 
L 592.047053 127.008409 
L 594.596163 118.678635 
L 597.145272 120.790023 
L 599.694381 118.948905 
L 602.24349 110.811594 
L 604.792599 121.635698 
L 607.341709 126.871331 
L 609.890818 115.325174 
L 612.439927 121.915206 
L 614.989036 125.843337 
L 617.538145 123.735403 
L 620.087254 122.382308 
L 622.636364 121.584356 
L 622.636364 121.584356 
" clip-path="url(#pdb273f960e)" style="fill: none; stroke: #ff0000; stroke-width: 1.5; stroke-linecap: square"/>
   </g>
   <g id="line2d_34">
    <path d="M 115.363636 369.36 
L 117.912746 332.305143 
L 120.461855 303.940047 
L 123.010964 286.406582 
L 125.560073 278.20858 
L 128.109182 273.370893 
L 130.658291 270.454765 
L 133.207401 266.533115 
L 135.75651 263.099723 
L 138.305619 261.958407 
L 140.854728 260.563288 
L 143.403837 257.343356 
L 145.952947 257.000648 
L 148.502056 255.38207 
L 151.051165 255.536245 
L 153.600274 254.819604 
L 156.149383 255.71401 
L 158.698492 254.238054 
L 161.247602 253.998673 
L 163.796711 253.988112 
L 166.34582 252.67052 
L 168.894929 252.614296 
L 171.444038 251.847869 
L 173.993148 251.392954 
L 176.542257 251.305636 
L 179.091366 251.037068 
L 181.640475 251.501305 
L 184.189584 250.495163 
L 186.738693 251.034731 
L 189.287803 251.250124 
L 194.386021 249.885321 
L 196.93513 249.800223 
L 199.484239 249.203532 
L 202.033349 249.638564 
L 204.582458 249.001391 
L 212.229785 248.210605 
L 214.778894 248.594245 
L 217.328004 247.94097 
L 219.877113 248.020442 
L 222.426222 247.597592 
L 224.975331 248.371992 
L 227.52444 246.598535 
L 230.07355 247.592047 
L 232.622659 247.958285 
L 235.171768 246.909207 
L 240.269986 247.034098 
L 242.819095 247.638346 
L 245.368205 246.616041 
L 247.917314 247.394052 
L 250.466423 247.096779 
L 253.015532 246.952226 
L 255.564641 246.534539 
L 260.66286 246.796719 
L 263.211969 247.111959 
L 265.761078 246.150098 
L 268.310187 246.442918 
L 270.859296 246.995974 
L 275.957515 246.777466 
L 278.506624 246.157141 
L 281.055733 246.06601 
L 283.604842 247.278495 
L 286.153952 247.195261 
L 288.703061 246.21106 
L 291.25217 245.842801 
L 293.801279 245.814417 
L 296.350388 246.328499 
L 298.899497 245.751196 
L 301.448607 246.209517 
L 303.997716 246.949982 
L 306.546825 246.382256 
L 309.095934 246.678061 
L 311.645043 246.534627 
L 314.194153 246.607078 
L 319.292371 246.446767 
L 321.84148 246.770911 
L 324.390589 246.434372 
L 326.939698 245.929803 
L 329.488808 246.891064 
L 332.037917 247.168977 
L 337.136135 247.122996 
L 339.685244 246.450512 
L 342.234354 245.942583 
L 344.783463 246.533332 
L 349.881681 246.328718 
L 352.43079 245.705823 
L 357.529009 246.645631 
L 360.078118 246.502076 
L 362.627227 245.486073 
L 365.176336 246.153563 
L 367.725445 246.357834 
L 370.274555 246.041372 
L 372.823664 245.898052 
L 375.372773 246.346014 
L 377.921882 245.369251 
L 380.470991 246.536067 
L 383.020101 245.730057 
L 388.118319 246.395371 
L 390.667428 246.227864 
L 393.216537 246.422293 
L 395.765646 245.602097 
L 400.863865 246.367512 
L 403.412974 246.369938 
L 405.962083 246.508038 
L 408.511192 246.31158 
L 411.060302 245.781862 
L 413.609411 245.68754 
L 416.15852 246.56361 
L 421.256738 245.411411 
L 423.805847 245.650263 
L 426.354957 246.121444 
L 428.904066 245.548565 
L 431.453175 246.071702 
L 434.002284 245.987827 
L 441.649612 246.019418 
L 444.198721 246.569371 
L 446.74783 245.948884 
L 449.296939 245.925113 
L 451.846048 246.490299 
L 454.395158 245.891067 
L 456.944267 246.109776 
L 462.042485 245.773965 
L 464.591594 245.793801 
L 467.140704 246.034234 
L 469.689813 245.937242 
L 472.238922 246.443139 
L 474.788031 245.62628 
L 482.435359 245.583916 
L 484.984468 246.046567 
L 487.533577 245.818212 
L 490.082686 246.085513 
L 492.631795 245.745241 
L 495.180905 245.525438 
L 497.730014 245.904615 
L 500.279123 245.165715 
L 502.828232 245.629994 
L 505.377341 245.962135 
L 510.47556 245.408089 
L 513.024669 245.645828 
L 515.573778 245.333374 
L 518.122887 245.678118 
L 520.671996 245.661814 
L 523.221106 245.909087 
L 525.770215 245.442287 
L 528.319324 245.217476 
L 530.868433 246.206427 
L 533.417542 245.523362 
L 535.966651 246.115636 
L 538.515761 246.509325 
L 541.06487 245.634607 
L 543.613979 244.958997 
L 546.163088 245.188713 
L 548.712197 245.933383 
L 551.261307 244.774084 
L 553.810416 246.506037 
L 558.908634 245.546683 
L 561.457743 245.468398 
L 564.006852 245.098435 
L 566.555962 245.588389 
L 569.105071 245.365961 
L 571.65418 244.914022 
L 574.203289 244.969267 
L 576.752398 245.300212 
L 579.301508 246.075071 
L 581.850617 245.584456 
L 584.399726 245.637701 
L 586.948835 245.187489 
L 589.497944 245.234408 
L 592.047053 244.982119 
L 594.596163 245.343528 
L 597.145272 246.047542 
L 602.24349 244.843257 
L 607.341709 245.651167 
L 609.890818 244.879301 
L 612.439927 245.162561 
L 614.989036 245.569677 
L 617.538145 245.150071 
L 620.087254 245.118783 
L 622.636364 244.459741 
L 622.636364 244.459741 
" clip-path="url(#pdb273f960e)" style="fill: none; stroke: #0000ff; stroke-width: 1.5; stroke-linecap: square"/>
   </g>
   <g id="patch_3">
    <path d="M 90 384.48 
L 90 51.84 
" style="fill: none; stroke: #000000; stroke-width: 0.8; stroke-linejoin: miter; stroke-linecap: square"/>
   </g>
   <g id="patch_4">
    <path d="M 648 384.48 
L 648 51.84 
" style="fill: none; stroke: #000000; stroke-width: 0.8; stroke-linejoin: miter; stroke-linecap: square"/>
   </g>
   <g id="patch_5">
    <path d="M 90 384.48 
L 648 384.48 
" style="fill: none; stroke: #000000; stroke-width: 0.8; stroke-linejoin: miter; stroke-linecap: square"/>
   </g>
   <g id="patch_6">
    <path d="M 90 51.84 
L 648 51.84 
" style="fill: none; stroke: #000000; stroke-width: 0.8; stroke-linejoin: miter; stroke-linecap: square"/>
   </g>
   <g id="text_19">
    <!-- Zagregowane statystyki z 20 niezależnych ewolucji -->
    <g transform="translate(214.952812 45.84) scale(0.12 -0.12)">
     <defs>
      <path id="DejaVuSans-5a" d="M 359 4666 
L 4025 4666 
L 4025 4184 
L 1075 531 
L 4097 531 
L 4097 0 
L 288 0 
L 288 481 
L 3238 4134 
L 359 4134 
L 359 4666 
z
" transform="scale(0.015625)"/>
      <path id="DejaVuSans-67" d="M 2906 1791 
Q 2906 2416 2648 2759 
Q 2391 3103 1925 3103 
Q 1463 3103 1205 2759 
Q 947 2416 947 1791 
Q 947 1169 1205 825 
Q 1463 481 1925 481 
Q 2391 481 2648 825 
Q 2906 1169 2906 1791 
z
M 3481 434 
Q 3481 -459 3084 -895 
Q 2688 -1331 1869 -1331 
Q 1566 -1331 1297 -1286 
Q 1028 -1241 775 -1147 
L 775 -588 
Q 1028 -725 1275 -790 
Q 1522 -856 1778 -856 
Q 2344 -856 2625 -561 
Q 2906 -266 2906 331 
L 2906 616 
Q 2728 306 2450 153 
Q 2172 0 1784 0 
Q 1141 0 747 490 
Q 353 981 353 1791 
Q 353 2603 747 3093 
Q 1141 3584 1784 3584 
Q 2172 3584 2450 3431 
Q 2728 3278 2906 2969 
L 2906 3500 
L 3481 3500 
L 3481 434 
z
" transform="scale(0.015625)"/>
      <path id="DejaVuSans-6f" d="M 1959 3097 
Q 1497 3097 1228 2736 
Q 959 2375 959 1747 
Q 959 1119 1226 758 
Q 1494 397 1959 397 
Q 2419 397 2687 759 
Q 2956 1122 2956 1747 
Q 2956 2369 2687 2733 
Q 2419 3097 1959 3097 
z
M 1959 3584 
Q 2709 3584 3137 3096 
Q 3566 2609 3566 1747 
Q 3566 888 3137 398 
Q 2709 -91 1959 -91 
Q 1206 -91 779 398 
Q 353 888 353 1747 
Q 353 2609 779 3096 
Q 1206 3584 1959 3584 
z
" transform="scale(0.015625)"/>
      <path id="DejaVuSans-77" d="M 269 3500 
L 844 3500 
L 1563 769 
L 2278 3500 
L 2956 3500 
L 3675 769 
L 4391 3500 
L 4966 3500 
L 4050 0 
L 3372 0 
L 2619 2869 
L 1863 0 
L 1184 0 
L 269 3500 
z
" transform="scale(0.015625)"/>
      <path id="DejaVuSans-20" transform="scale(0.015625)"/>
      <path id="DejaVuSans-79" d="M 2059 -325 
Q 1816 -950 1584 -1140 
Q 1353 -1331 966 -1331 
L 506 -1331 
L 506 -850 
L 844 -850 
Q 1081 -850 1212 -737 
Q 1344 -625 1503 -206 
L 1606 56 
L 191 3500 
L 800 3500 
L 1894 763 
L 2988 3500 
L 3597 3500 
L 2059 -325 
z
" transform="scale(0.015625)"/>
      <path id="DejaVuSans-6b" d="M 581 4863 
L 1159 4863 
L 1159 1991 
L 2875 3500 
L 3609 3500 
L 1753 1863 
L 3688 0 
L 2938 0 
L 1159 1709 
L 1159 0 
L 581 0 
L 581 4863 
z
" transform="scale(0.015625)"/>
      <path id="DejaVuSans-7a" d="M 353 3500 
L 3084 3500 
L 3084 2975 
L 922 459 
L 3084 459 
L 3084 0 
L 275 0 
L 275 525 
L 2438 3041 
L 353 3041 
L 353 3500 
z
" transform="scale(0.015625)"/>
      <path id="DejaVuSans-6c" d="M 603 4863 
L 1178 4863 
L 1178 0 
L 603 0 
L 603 4863 
z
" transform="scale(0.015625)"/>
      <path id="DejaVuSans-17c" d="M 1378 4863 
L 1953 4863 
L 1953 4134 
L 1378 4134 
L 1378 4863 
z
M 1672 3584 
L 1672 3584 
z
M 353 3500 
L 3084 3500 
L 3084 2975 
L 922 459 
L 3084 459 
L 3084 0 
L 275 0 
L 275 525 
L 2438 3041 
L 353 3041 
L 353 3500 
z
" transform="scale(0.015625)"/>
      <path id="DejaVuSans-68" d="M 3513 2113 
L 3513 0 
L 2938 0 
L 2938 2094 
Q 2938 2591 2744 2837 
Q 2550 3084 2163 3084 
Q 1697 3084 1428 2787 
Q 1159 2491 1159 1978 
L 1159 0 
L 581 0 
L 581 4863 
L 1159 4863 
L 1159 2956 
Q 1366 3272 1645 3428 
Q 1925 3584 2291 3584 
Q 2894 3584 3203 3211 
Q 3513 2838 3513 2113 
z
" transform="scale(0.015625)"/>
      <path id="DejaVuSans-75" d="M 544 1381 
L 544 3500 
L 1119 3500 
L 1119 1403 
Q 1119 906 1312 657 
Q 1506 409 1894 409 
Q 2359 409 2629 706 
Q 2900 1003 2900 1516 
L 2900 3500 
L 3475 3500 
L 3475 0 
L 2900 0 
L 2900 538 
Q 2691 219 2414 64 
Q 2138 -91 1772 -91 
Q 1169 -91 856 284 
Q 544 659 544 1381 
z
M 1991 3584 
L 1991 3584 
z
" transform="scale(0.015625)"/>
     </defs>
     <use xlink:href="#DejaVuSans-5a"/>
     <use xlink:href="#DejaVuSans-61" transform="translate(68.505859 0)"/>
     <use xlink:href="#DejaVuSans-67" transform="translate(129.785156 0)"/>
     <use xlink:href="#DejaVuSans-72" transform="translate(193.261719 0)"/>
     <use xlink:href="#DejaVuSans-65" transform="translate(232.125 0)"/>
     <use xlink:href="#DejaVuSans-67" transform="translate(293.648438 0)"/>
     <use xlink:href="#DejaVuSans-6f" transform="translate(357.125 0)"/>
     <use xlink:href="#DejaVuSans-77" transform="translate(418.306641 0)"/>
     <use xlink:href="#DejaVuSans-61" transform="translate(500.09375 0)"/>
     <use xlink:href="#DejaVuSans-6e" transform="translate(561.373047 0)"/>
     <use xlink:href="#DejaVuSans-65" transform="translate(624.751953 0)"/>
     <use xlink:href="#DejaVuSans-20" transform="translate(686.275391 0)"/>
     <use xlink:href="#DejaVuSans-73" transform="translate(718.0625 0)"/>
     <use xlink:href="#DejaVuSans-74" transform="translate(770.162109 0)"/>
     <use xlink:href="#DejaVuSans-61" transform="translate(809.371094 0)"/>
     <use xlink:href="#DejaVuSans-74" transform="translate(870.650391 0)"/>
     <use xlink:href="#DejaVuSans-79" transform="translate(909.859375 0)"/>
     <use xlink:href="#DejaVuSans-73" transform="translate(969.039062 0)"/>
     <use xlink:href="#DejaVuSans-74" transform="translate(1021.138672 0)"/>
     <use xlink:href="#DejaVuSans-79" transform="translate(1060.347656 0)"/>
     <use xlink:href="#DejaVuSans-6b" transform="translate(1119.527344 0)"/>
     <use xlink:href="#DejaVuSans-69" transform="translate(1177.4375 0)"/>
     <use xlink:href="#DejaVuSans-20" transform="translate(1205.220703 0)"/>
     <use xlink:href="#DejaVuSans-7a" transform="translate(1237.007812 0)"/>
     <use xlink:href="#DejaVuSans-20" transform="translate(1289.498047 0)"/>
     <use xlink:href="#DejaVuSans-32" transform="translate(1321.285156 0)"/>
     <use xlink:href="#DejaVuSans-30" transform="translate(1384.908203 0)"/>
     <use xlink:href="#DejaVuSans-20" transform="translate(1448.53125 0)"/>
     <use xlink:href="#DejaVuSans-6e" transform="translate(1480.318359 0)"/>
     <use xlink:href="#DejaVuSans-69" transform="translate(1543.697266 0)"/>
     <use xlink:href="#DejaVuSans-65" transform="translate(1571.480469 0)"/>
     <use xlink:href="#DejaVuSans-7a" transform="translate(1633.003906 0)"/>
     <use xlink:href="#DejaVuSans-61" transform="translate(1685.494141 0)"/>
     <use xlink:href="#DejaVuSans-6c" transform="translate(1746.773438 0)"/>
     <use xlink:href="#DejaVuSans-65" transform="translate(1774.556641 0)"/>
     <use xlink:href="#DejaVuSans-17c" transform="translate(1836.080078 0)"/>
     <use xlink:href="#DejaVuSans-6e" transform="translate(1888.570312 0)"/>
     <use xlink:href="#DejaVuSans-79" transform="translate(1951.949219 0)"/>
     <use xlink:href="#DejaVuSans-63" transform="translate(2011.128906 0)"/>
     <use xlink:href="#DejaVuSans-68" transform="translate(2066.109375 0)"/>
     <use xlink:href="#DejaVuSans-20" transform="translate(2129.488281 0)"/>
     <use xlink:href="#DejaVuSans-65" transform="translate(2161.275391 0)"/>
     <use xlink:href="#DejaVuSans-77" transform="translate(2222.798828 0)"/>
     <use xlink:href="#DejaVuSans-6f" transform="translate(2304.585938 0)"/>
     <use xlink:href="#DejaVuSans-6c" transform="translate(2365.767578 0)"/>
     <use xlink:href="#DejaVuSans-75" transform="translate(2393.550781 0)"/>
     <use xlink:href="#DejaVuSans-63" transform="translate(2456.929688 0)"/>
     <use xlink:href="#DejaVuSans-6a" transform="translate(2511.910156 0)"/>
     <use xlink:href="#DejaVuSans-69" transform="translate(2539.693359 0)"/>
    </g>
   </g>
   <g id="legend_1">
    <g id="patch_7">
     <path d="M 379.426562 379.48 
L 641 379.48 
Q 643 379.48 643 377.48 
L 643 330.739375 
Q 643 328.739375 641 328.739375 
L 379.426562 328.739375 
Q 377.426562 328.739375 377.426562 330.739375 
L 377.426562 377.48 
Q 377.426562 379.48 379.426562 379.48 
z
" style="fill: #ffffff; opacity: 0.8; stroke: #cccccc; stroke-linejoin: miter"/>
    </g>
    <g id="line2d_35">
     <path d="M 381.426562 338.490937 
L 391.426562 338.490937 
L 401.426562 338.490937 
" style="fill: none; stroke: #ff0000; stroke-width: 1.5; stroke-linecap: square"/>
    </g>
    <g id="text_20">
     <!-- Średnie przystosowanie najlepszego osobnika -->
     <g transform="translate(409.426562 341.990937) scale(0.1 -0.1)">
      <defs>
       <path id="DejaVuSans-15a" d="M 2236 5921 
L 2814 5921 
L 2102 5096 
L 1623 5096 
L 2236 5921 
z
M 3425 4513 
L 3425 3897 
Q 3066 4069 2747 4153 
Q 2428 4238 2131 4238 
Q 1616 4238 1336 4038 
Q 1056 3838 1056 3469 
Q 1056 3159 1242 3001 
Q 1428 2844 1947 2747 
L 2328 2669 
Q 3034 2534 3370 2195 
Q 3706 1856 3706 1288 
Q 3706 609 3251 259 
Q 2797 -91 1919 -91 
Q 1588 -91 1214 -16 
Q 841 59 441 206 
L 441 856 
Q 825 641 1194 531 
Q 1563 422 1919 422 
Q 2459 422 2753 634 
Q 3047 847 3047 1241 
Q 3047 1584 2836 1778 
Q 2625 1972 2144 2069 
L 1759 2144 
Q 1053 2284 737 2584 
Q 422 2884 422 3419 
Q 422 4038 858 4394 
Q 1294 4750 2059 4750 
Q 2388 4750 2728 4690 
Q 3069 4631 3425 4513 
z
" transform="scale(0.015625)"/>
       <path id="DejaVuSans-64" d="M 2906 2969 
L 2906 4863 
L 3481 4863 
L 3481 0 
L 2906 0 
L 2906 525 
Q 2725 213 2448 61 
Q 2172 -91 1784 -91 
Q 1150 -91 751 415 
Q 353 922 353 1747 
Q 353 2572 751 3078 
Q 1150 3584 1784 3584 
Q 2172 3584 2448 3432 
Q 2725 3281 2906 2969 
z
M 947 1747 
Q 947 1113 1208 752 
Q 1469 391 1925 391 
Q 2381 391 2643 752 
Q 2906 1113 2906 1747 
Q 2906 2381 2643 2742 
Q 2381 3103 1925 3103 
Q 1469 3103 1208 2742 
Q 947 2381 947 1747 
z
" transform="scale(0.015625)"/>
       <path id="DejaVuSans-70" d="M 1159 525 
L 1159 -1331 
L 581 -1331 
L 581 3500 
L 1159 3500 
L 1159 2969 
Q 1341 3281 1617 3432 
Q 1894 3584 2278 3584 
Q 2916 3584 3314 3078 
Q 3713 2572 3713 1747 
Q 3713 922 3314 415 
Q 2916 -91 2278 -91 
Q 1894 -91 1617 61 
Q 1341 213 1159 525 
z
M 3116 1747 
Q 3116 2381 2855 2742 
Q 2594 3103 2138 3103 
Q 1681 3103 1420 2742 
Q 1159 2381 1159 1747 
Q 1159 1113 1420 752 
Q 1681 391 2138 391 
Q 2594 391 2855 752 
Q 3116 1113 3116 1747 
z
" transform="scale(0.015625)"/>
       <path id="DejaVuSans-62" d="M 3116 1747 
Q 3116 2381 2855 2742 
Q 2594 3103 2138 3103 
Q 1681 3103 1420 2742 
Q 1159 2381 1159 1747 
Q 1159 1113 1420 752 
Q 1681 391 2138 391 
Q 2594 391 2855 752 
Q 3116 1113 3116 1747 
z
M 1159 2969 
Q 1341 3281 1617 3432 
Q 1894 3584 2278 3584 
Q 2916 3584 3314 3078 
Q 3713 2572 3713 1747 
Q 3713 922 3314 415 
Q 2916 -91 2278 -91 
Q 1894 -91 1617 61 
Q 1341 213 1159 525 
L 1159 0 
L 581 0 
L 581 4863 
L 1159 4863 
L 1159 2969 
z
" transform="scale(0.015625)"/>
      </defs>
      <use xlink:href="#DejaVuSans-15a"/>
      <use xlink:href="#DejaVuSans-72" transform="translate(63.476562 0)"/>
      <use xlink:href="#DejaVuSans-65" transform="translate(102.339844 0)"/>
      <use xlink:href="#DejaVuSans-64" transform="translate(163.863281 0)"/>
      <use xlink:href="#DejaVuSans-6e" transform="translate(227.339844 0)"/>
      <use xlink:href="#DejaVuSans-69" transform="translate(290.71875 0)"/>
      <use xlink:href="#DejaVuSans-65" transform="translate(318.501953 0)"/>
      <use xlink:href="#DejaVuSans-20" transform="translate(380.025391 0)"/>
      <use xlink:href="#DejaVuSans-70" transform="translate(411.8125 0)"/>
      <use xlink:href="#DejaVuSans-72" transform="translate(475.289062 0)"/>
      <use xlink:href="#DejaVuSans-7a" transform="translate(516.402344 0)"/>
      <use xlink:href="#DejaVuSans-79" transform="translate(568.892578 0)"/>
      <use xlink:href="#DejaVuSans-73" transform="translate(628.072266 0)"/>
      <use xlink:href="#DejaVuSans-74" transform="translate(680.171875 0)"/>
      <use xlink:href="#DejaVuSans-6f" transform="translate(719.380859 0)"/>
      <use xlink:href="#DejaVuSans-73" transform="translate(780.5625 0)"/>
      <use xlink:href="#DejaVuSans-6f" transform="translate(832.662109 0)"/>
      <use xlink:href="#DejaVuSans-77" transform="translate(893.84375 0)"/>
      <use xlink:href="#DejaVuSans-61" transform="translate(975.630859 0)"/>
      <use xlink:href="#DejaVuSans-6e" transform="translate(1036.910156 0)"/>
      <use xlink:href="#DejaVuSans-69" transform="translate(1100.289062 0)"/>
      <use xlink:href="#DejaVuSans-65" transform="translate(1128.072266 0)"/>
      <use xlink:href="#DejaVuSans-20" transform="translate(1189.595703 0)"/>
      <use xlink:href="#DejaVuSans-6e" transform="translate(1221.382812 0)"/>
      <use xlink:href="#DejaVuSans-61" transform="translate(1284.761719 0)"/>
      <use xlink:href="#DejaVuSans-6a" transform="translate(1346.041016 0)"/>
      <use xlink:href="#DejaVuSans-6c" transform="translate(1373.824219 0)"/>
      <use xlink:href="#DejaVuSans-65" transform="translate(1401.607422 0)"/>
      <use xlink:href="#DejaVuSans-70" transform="translate(1463.130859 0)"/>
      <use xlink:href="#DejaVuSans-73" transform="translate(1526.607422 0)"/>
      <use xlink:href="#DejaVuSans-7a" transform="translate(1578.707031 0)"/>
      <use xlink:href="#DejaVuSans-65" transform="translate(1631.197266 0)"/>
      <use xlink:href="#DejaVuSans-67" transform="translate(1692.720703 0)"/>
      <use xlink:href="#DejaVuSans-6f" transform="translate(1756.197266 0)"/>
      <use xlink:href="#DejaVuSans-20" transform="translate(1817.378906 0)"/>
      <use xlink:href="#DejaVuSans-6f" transform="translate(1849.166016 0)"/>
      <use xlink:href="#DejaVuSans-73" transform="translate(1910.347656 0)"/>
      <use xlink:href="#DejaVuSans-6f" transform="translate(1962.447266 0)"/>
      <use xlink:href="#DejaVuSans-62" transform="translate(2023.628906 0)"/>
      <use xlink:href="#DejaVuSans-6e" transform="translate(2087.105469 0)"/>
      <use xlink:href="#DejaVuSans-69" transform="translate(2150.484375 0)"/>
      <use xlink:href="#DejaVuSans-6b" transform="translate(2178.267578 0)"/>
      <use xlink:href="#DejaVuSans-61" transform="translate(2234.427734 0)"/>
     </g>
    </g>
    <g id="patch_8">
     <path d="M 381.426562 357.069062 
L 401.426562 357.069062 
L 401.426562 350.069062 
L 381.426562 350.069062 
z
" style="fill: #ff0000; fill-opacity: 0.2; stroke: #ff0000; stroke-opacity: 0.2; stroke-linejoin: miter"/>
    </g>
    <g id="text_21">
     <!-- ±1 Odchylenie std. najlepszych osobników -->
     <g transform="translate(409.426562 357.069062) scale(0.1 -0.1)">
      <defs>
       <path id="DejaVuSans-b1" d="M 2944 4013 
L 2944 2803 
L 4684 2803 
L 4684 2272 
L 2944 2272 
L 2944 1063 
L 2419 1063 
L 2419 2272 
L 678 2272 
L 678 2803 
L 2419 2803 
L 2419 4013 
L 2944 4013 
z
M 678 531 
L 4684 531 
L 4684 0 
L 678 0 
L 678 531 
z
" transform="scale(0.015625)"/>
       <path id="DejaVuSans-4f" d="M 2522 4238 
Q 1834 4238 1429 3725 
Q 1025 3213 1025 2328 
Q 1025 1447 1429 934 
Q 1834 422 2522 422 
Q 3209 422 3611 934 
Q 4013 1447 4013 2328 
Q 4013 3213 3611 3725 
Q 3209 4238 2522 4238 
z
M 2522 4750 
Q 3503 4750 4090 4092 
Q 4678 3434 4678 2328 
Q 4678 1225 4090 567 
Q 3503 -91 2522 -91 
Q 1538 -91 948 565 
Q 359 1222 359 2328 
Q 359 3434 948 4092 
Q 1538 4750 2522 4750 
z
" transform="scale(0.015625)"/>
       <path id="DejaVuSans-2e" d="M 684 794 
L 1344 794 
L 1344 0 
L 684 0 
L 684 794 
z
" transform="scale(0.015625)"/>
       <path id="DejaVuSans-f3" d="M 1959 3097 
Q 1497 3097 1228 2736 
Q 959 2375 959 1747 
Q 959 1119 1226 758 
Q 1494 397 1959 397 
Q 2419 397 2687 759 
Q 2956 1122 2956 1747 
Q 2956 2369 2687 2733 
Q 2419 3097 1959 3097 
z
M 1959 3584 
Q 2709 3584 3137 3096 
Q 3566 2609 3566 1747 
Q 3566 888 3137 398 
Q 2709 -91 1959 -91 
Q 1206 -91 779 398 
Q 353 888 353 1747 
Q 353 2609 779 3096 
Q 1206 3584 1959 3584 
z
M 2394 5119 
L 3016 5119 
L 1998 3944 
L 1519 3944 
L 2394 5119 
z
" transform="scale(0.015625)"/>
      </defs>
      <use xlink:href="#DejaVuSans-b1"/>
      <use xlink:href="#DejaVuSans-31" transform="translate(83.789062 0)"/>
      <use xlink:href="#DejaVuSans-20" transform="translate(147.412109 0)"/>
      <use xlink:href="#DejaVuSans-4f" transform="translate(179.199219 0)"/>
      <use xlink:href="#DejaVuSans-64" transform="translate(257.910156 0)"/>
      <use xlink:href="#DejaVuSans-63" transform="translate(321.386719 0)"/>
      <use xlink:href="#DejaVuSans-68" transform="translate(376.367188 0)"/>
      <use xlink:href="#DejaVuSans-79" transform="translate(439.746094 0)"/>
      <use xlink:href="#DejaVuSans-6c" transform="translate(498.925781 0)"/>
      <use xlink:href="#DejaVuSans-65" transform="translate(526.708984 0)"/>
      <use xlink:href="#DejaVuSans-6e" transform="translate(588.232422 0)"/>
      <use xlink:href="#DejaVuSans-69" transform="translate(651.611328 0)"/>
      <use xlink:href="#DejaVuSans-65" transform="translate(679.394531 0)"/>
      <use xlink:href="#DejaVuSans-20" transform="translate(740.917969 0)"/>
      <use xlink:href="#DejaVuSans-73" transform="translate(772.705078 0)"/>
      <use xlink:href="#DejaVuSans-74" transform="translate(824.804688 0)"/>
      <use xlink:href="#DejaVuSans-64" transform="translate(864.013672 0)"/>
      <use xlink:href="#DejaVuSans-2e" transform="translate(927.490234 0)"/>
      <use xlink:href="#DejaVuSans-20" transform="translate(959.277344 0)"/>
      <use xlink:href="#DejaVuSans-6e" transform="translate(991.064453 0)"/>
      <use xlink:href="#DejaVuSans-61" transform="translate(1054.443359 0)"/>
      <use xlink:href="#DejaVuSans-6a" transform="translate(1115.722656 0)"/>
      <use xlink:href="#DejaVuSans-6c" transform="translate(1143.505859 0)"/>
      <use xlink:href="#DejaVuSans-65" transform="translate(1171.289062 0)"/>
      <use xlink:href="#DejaVuSans-70" transform="translate(1232.8125 0)"/>
      <use xlink:href="#DejaVuSans-73" transform="translate(1296.289062 0)"/>
      <use xlink:href="#DejaVuSans-7a" transform="translate(1348.388672 0)"/>
      <use xlink:href="#DejaVuSans-79" transform="translate(1400.878906 0)"/>
      <use xlink:href="#DejaVuSans-63" transform="translate(1460.058594 0)"/>
      <use xlink:href="#DejaVuSans-68" transform="translate(1515.039062 0)"/>
      <use xlink:href="#DejaVuSans-20" transform="translate(1578.417969 0)"/>
      <use xlink:href="#DejaVuSans-6f" transform="translate(1610.205078 0)"/>
      <use xlink:href="#DejaVuSans-73" transform="translate(1671.386719 0)"/>
      <use xlink:href="#DejaVuSans-6f" transform="translate(1723.486328 0)"/>
      <use xlink:href="#DejaVuSans-62" transform="translate(1784.667969 0)"/>
      <use xlink:href="#DejaVuSans-6e" transform="translate(1848.144531 0)"/>
      <use xlink:href="#DejaVuSans-69" transform="translate(1911.523438 0)"/>
      <use xlink:href="#DejaVuSans-6b" transform="translate(1939.306641 0)"/>
      <use xlink:href="#DejaVuSans-f3" transform="translate(1993.591797 0)"/>
      <use xlink:href="#DejaVuSans-77" transform="translate(2054.773438 0)"/>
     </g>
    </g>
    <g id="line2d_36">
     <path d="M 381.426562 369.900312 
L 391.426562 369.900312 
L 401.426562 369.900312 
" style="fill: none; stroke: #0000ff; stroke-width: 1.5; stroke-linecap: square"/>
    </g>
    <g id="text_22">
     <!-- Średnie przystosowanie całej populacji -->
     <g transform="translate(409.426562 373.400312) scale(0.1 -0.1)">
      <defs>
       <path id="DejaVuSans-142" d="M 622 4863 
L 1197 4863 
L 1197 2981 
L 1588 3263 
L 1825 2931 
L 1197 2491 
L 1197 0 
L 622 0 
L 622 2081 
L 238 1806 
L 6 2138 
L 622 2578 
L 622 4863 
z
" transform="scale(0.015625)"/>
      </defs>
      <use xlink:href="#DejaVuSans-15a"/>
      <use xlink:href="#DejaVuSans-72" transform="translate(63.476562 0)"/>
      <use xlink:href="#DejaVuSans-65" transform="translate(102.339844 0)"/>
      <use xlink:href="#DejaVuSans-64" transform="translate(163.863281 0)"/>
      <use xlink:href="#DejaVuSans-6e" transform="translate(227.339844 0)"/>
      <use xlink:href="#DejaVuSans-69" transform="translate(290.71875 0)"/>
      <use xlink:href="#DejaVuSans-65" transform="translate(318.501953 0)"/>
      <use xlink:href="#DejaVuSans-20" transform="translate(380.025391 0)"/>
      <use xlink:href="#DejaVuSans-70" transform="translate(411.8125 0)"/>
      <use xlink:href="#DejaVuSans-72" transform="translate(475.289062 0)"/>
      <use xlink:href="#DejaVuSans-7a" transform="translate(516.402344 0)"/>
      <use xlink:href="#DejaVuSans-79" transform="translate(568.892578 0)"/>
      <use xlink:href="#DejaVuSans-73" transform="translate(628.072266 0)"/>
      <use xlink:href="#DejaVuSans-74" transform="translate(680.171875 0)"/>
      <use xlink:href="#DejaVuSans-6f" transform="translate(719.380859 0)"/>
      <use xlink:href="#DejaVuSans-73" transform="translate(780.5625 0)"/>
      <use xlink:href="#DejaVuSans-6f" transform="translate(832.662109 0)"/>
      <use xlink:href="#DejaVuSans-77" transform="translate(893.84375 0)"/>
      <use xlink:href="#DejaVuSans-61" transform="translate(975.630859 0)"/>
      <use xlink:href="#DejaVuSans-6e" transform="translate(1036.910156 0)"/>
      <use xlink:href="#DejaVuSans-69" transform="translate(1100.289062 0)"/>
      <use xlink:href="#DejaVuSans-65" transform="translate(1128.072266 0)"/>
      <use xlink:href="#DejaVuSans-20" transform="translate(1189.595703 0)"/>
      <use xlink:href="#DejaVuSans-63" transform="translate(1221.382812 0)"/>
      <use xlink:href="#DejaVuSans-61" transform="translate(1276.363281 0)"/>
      <use xlink:href="#DejaVuSans-142" transform="translate(1337.642578 0)"/>
      <use xlink:href="#DejaVuSans-65" transform="translate(1366.060547 0)"/>
      <use xlink:href="#DejaVuSans-6a" transform="translate(1427.583984 0)"/>
      <use xlink:href="#DejaVuSans-20" transform="translate(1455.367188 0)"/>
      <use xlink:href="#DejaVuSans-70" transform="translate(1487.154297 0)"/>
      <use xlink:href="#DejaVuSans-6f" transform="translate(1550.630859 0)"/>
      <use xlink:href="#DejaVuSans-70" transform="translate(1611.8125 0)"/>
      <use xlink:href="#DejaVuSans-75" transform="translate(1675.289062 0)"/>
      <use xlink:href="#DejaVuSans-6c" transform="translate(1738.667969 0)"/>
      <use xlink:href="#DejaVuSans-61" transform="translate(1766.451172 0)"/>
      <use xlink:href="#DejaVuSans-63" transform="translate(1827.730469 0)"/>
      <use xlink:href="#DejaVuSans-6a" transform="translate(1882.710938 0)"/>
      <use xlink:href="#DejaVuSans-69" transform="translate(1910.494141 0)"/>
     </g>
    </g>
   </g>
  </g>
 </g>
 <defs>
  <clipPath id="pdb273f960e">
   <rect x="90" y="51.84" width="558" height="332.64"/>
  </clipPath>
 </defs>
</svg>
