<?xml version="1.0" encoding="utf-8" standalone="no"?>
<!DOCTYPE svg PUBLIC "-//W3C//DTD SVG 1.1//EN"
  "http://www.w3.org/Graphics/SVG/1.1/DTD/svg11.dtd">
<svg xmlns:xlink="http://www.w3.org/1999/xlink" width="460.8pt" height="345.6pt" viewBox="0 0 460.8 345.6" xmlns="http://www.w3.org/2000/svg" version="1.1">
 <metadata>
  <rdf:RDF xmlns:dc="http://purl.org/dc/elements/1.1/" xmlns:cc="http://creativecommons.org/ns#" xmlns:rdf="http://www.w3.org/1999/02/22-rdf-syntax-ns#">
   <cc:Work>
    <dc:type rdf:resource="http://purl.org/dc/dcmitype/StillImage"/>
    <dc:date>2026-04-26T20:42:23.910854</dc:date>
    <dc:format>image/svg+xml</dc:format>
    <dc:creator>
     <cc:Agent>
      <dc:title>Matplotlib v3.10.8, https://matplotlib.org/</dc:title>
     </cc:Agent>
    </dc:creator>
   </cc:Work>
  </rdf:RDF>
 </metadata>
 <defs>
  <style type="text/css">*{stroke-linejoin: round; stroke-linecap: butt}</style>
 </defs>
 <g id="figure_1">
  <g id="patch_1">
   <path d="M 0 345.6 
L 460.8 345.6 
L 460.8 0 
L 0 0 
z
" style="fill: #ffffff"/>
  </g>
  <g id="axes_1">
   <g id="patch_2">
    <path d="M 57.6 307.584 
L 414.72 307.584 
L 414.72 41.472 
L 57.6 41.472 
z
" style="fill: #ffffff"/>
   </g>
   <g id="matplotlib.axis_1">
    <g id="xtick_1">
     <g id="line2d_1">
      <path d="M 72.201297 307.584 
L 72.201297 41.472 
" clip-path="url(#p27d200b0a4)" style="fill: none; stroke: #b0b0b0; stroke-width: 0.8; stroke-linecap: square"/>
     </g>
     <g id="line2d_2">
      <defs>
       <path id="m6ffa33fc9f" d="M 0 0 
L 0 3.5 
" style="stroke: #000000; stroke-width: 0.8"/>
      </defs>
      <g>
       <use xlink:href="#m6ffa33fc9f" x="72.201297" y="307.584" style="stroke: #000000; stroke-width: 0.8"/>
      </g>
     </g>
     <g id="text_1">
      <!-- 0 -->
      <g transform="translate(69.020047 322.182437) scale(0.1 -0.1)">
       <defs>
        <path id="DejaVuSans-30" d="M 2034 4250 
Q 1547 4250 1301 3770 
Q 1056 3291 1056 2328 
Q 1056 1369 1301 889 
Q 1547 409 2034 409 
Q 2525 409 2770 889 
Q 3016 1369 3016 2328 
Q 3016 3291 2770 3770 
Q 2525 4250 2034 4250 
z
M 2034 4750 
Q 2819 4750 3233 4129 
Q 3647 3509 3647 2328 
Q 3647 1150 3233 529 
Q 2819 -91 2034 -91 
Q 1250 -91 836 529 
Q 422 1150 422 2328 
Q 422 3509 836 4129 
Q 1250 4750 2034 4750 
z
" transform="scale(0.015625)"/>
       </defs>
       <use xlink:href="#DejaVuSans-30"/>
      </g>
     </g>
    </g>
    <g id="xtick_2">
     <g id="line2d_3">
      <path d="M 112.987044 307.584 
L 112.987044 41.472 
" clip-path="url(#p27d200b0a4)" style="fill: none; stroke: #b0b0b0; stroke-width: 0.8; stroke-linecap: square"/>
     </g>
     <g id="line2d_4">
      <g>
       <use xlink:href="#m6ffa33fc9f" x="112.987044" y="307.584" style="stroke: #000000; stroke-width: 0.8"/>
      </g>
     </g>
     <g id="text_2">
      <!-- 25 -->
      <g transform="translate(106.624544 322.182437) scale(0.1 -0.1)">
       <defs>
        <path id="DejaVuSans-32" d="M 1228 531 
L 3431 531 
L 3431 0 
L 469 0 
L 469 531 
Q 828 903 1448 1529 
Q 2069 2156 2228 2338 
Q 2531 2678 2651 2914 
Q 2772 3150 2772 3378 
Q 2772 3750 2511 3984 
Q 2250 4219 1831 4219 
Q 1534 4219 1204 4116 
Q 875 4013 500 3803 
L 500 4441 
Q 881 4594 1212 4672 
Q 1544 4750 1819 4750 
Q 2544 4750 2975 4387 
Q 3406 4025 3406 3419 
Q 3406 3131 3298 2873 
Q 3191 2616 2906 2266 
Q 2828 2175 2409 1742 
Q 1991 1309 1228 531 
z
" transform="scale(0.015625)"/>
        <path id="DejaVuSans-35" d="M 691 4666 
L 3169 4666 
L 3169 4134 
L 1269 4134 
L 1269 2991 
Q 1406 3038 1543 3061 
Q 1681 3084 1819 3084 
Q 2600 3084 3056 2656 
Q 3513 2228 3513 1497 
Q 3513 744 3044 326 
Q 2575 -91 1722 -91 
Q 1428 -91 1123 -41 
Q 819 9 494 109 
L 494 744 
Q 775 591 1075 516 
Q 1375 441 1709 441 
Q 2250 441 2565 725 
Q 2881 1009 2881 1497 
Q 2881 1984 2565 2268 
Q 2250 2553 1709 2553 
Q 1456 2553 1204 2497 
Q 953 2441 691 2322 
L 691 4666 
z
" transform="scale(0.015625)"/>
       </defs>
       <use xlink:href="#DejaVuSans-32"/>
       <use xlink:href="#DejaVuSans-35" transform="translate(63.623047 0)"/>
      </g>
     </g>
    </g>
    <g id="xtick_3">
     <g id="line2d_5">
      <path d="M 153.772791 307.584 
L 153.772791 41.472 
" clip-path="url(#p27d200b0a4)" style="fill: none; stroke: #b0b0b0; stroke-width: 0.8; stroke-linecap: square"/>
     </g>
     <g id="line2d_6">
      <g>
       <use xlink:href="#m6ffa33fc9f" x="153.772791" y="307.584" style="stroke: #000000; stroke-width: 0.8"/>
      </g>
     </g>
     <g id="text_3">
      <!-- 50 -->
      <g transform="translate(147.410291 322.182437) scale(0.1 -0.1)">
       <use xlink:href="#DejaVuSans-35"/>
       <use xlink:href="#DejaVuSans-30" transform="translate(63.623047 0)"/>
      </g>
     </g>
    </g>
    <g id="xtick_4">
     <g id="line2d_7">
      <path d="M 194.558538 307.584 
L 194.558538 41.472 
" clip-path="url(#p27d200b0a4)" style="fill: none; stroke: #b0b0b0; stroke-width: 0.8; stroke-linecap: square"/>
     </g>
     <g id="line2d_8">
      <g>
       <use xlink:href="#m6ffa33fc9f" x="194.558538" y="307.584" style="stroke: #000000; stroke-width: 0.8"/>
      </g>
     </g>
     <g id="text_4">
      <!-- 75 -->
      <g transform="translate(188.196038 322.182437) scale(0.1 -0.1)">
       <defs>
        <path id="DejaVuSans-37" d="M 525 4666 
L 3525 4666 
L 3525 4397 
L 1831 0 
L 1172 0 
L 2766 4134 
L 525 4134 
L 525 4666 
z
" transform="scale(0.015625)"/>
       </defs>
       <use xlink:href="#DejaVuSans-37"/>
       <use xlink:href="#DejaVuSans-35" transform="translate(63.623047 0)"/>
      </g>
     </g>
    </g>
    <g id="xtick_5">
     <g id="line2d_9">
      <path d="M 235.344285 307.584 
L 235.344285 41.472 
" clip-path="url(#p27d200b0a4)" style="fill: none; stroke: #b0b0b0; stroke-width: 0.8; stroke-linecap: square"/>
     </g>
     <g id="line2d_10">
      <g>
       <use xlink:href="#m6ffa33fc9f" x="235.344285" y="307.584" style="stroke: #000000; stroke-width: 0.8"/>
      </g>
     </g>
     <g id="text_5">
      <!-- 100 -->
      <g transform="translate(225.800535 322.182437) scale(0.1 -0.1)">
       <defs>
        <path id="DejaVuSans-31" d="M 794 531 
L 1825 531 
L 1825 4091 
L 703 3866 
L 703 4441 
L 1819 4666 
L 2450 4666 
L 2450 531 
L 3481 531 
L 3481 0 
L 794 0 
L 794 531 
z
" transform="scale(0.015625)"/>
       </defs>
       <use xlink:href="#DejaVuSans-31"/>
       <use xlink:href="#DejaVuSans-30" transform="translate(63.623047 0)"/>
       <use xlink:href="#DejaVuSans-30" transform="translate(127.246094 0)"/>
      </g>
     </g>
    </g>
    <g id="xtick_6">
     <g id="line2d_11">
      <path d="M 276.130032 307.584 
L 276.130032 41.472 
" clip-path="url(#p27d200b0a4)" style="fill: none; stroke: #b0b0b0; stroke-width: 0.8; stroke-linecap: square"/>
     </g>
     <g id="line2d_12">
      <g>
       <use xlink:href="#m6ffa33fc9f" x="276.130032" y="307.584" style="stroke: #000000; stroke-width: 0.8"/>
      </g>
     </g>
     <g id="text_6">
      <!-- 125 -->
      <g transform="translate(266.586282 322.182437) scale(0.1 -0.1)">
       <use xlink:href="#DejaVuSans-31"/>
       <use xlink:href="#DejaVuSans-32" transform="translate(63.623047 0)"/>
       <use xlink:href="#DejaVuSans-35" transform="translate(127.246094 0)"/>
      </g>
     </g>
    </g>
    <g id="xtick_7">
     <g id="line2d_13">
      <path d="M 316.915779 307.584 
L 316.915779 41.472 
" clip-path="url(#p27d200b0a4)" style="fill: none; stroke: #b0b0b0; stroke-width: 0.8; stroke-linecap: square"/>
     </g>
     <g id="line2d_14">
      <g>
       <use xlink:href="#m6ffa33fc9f" x="316.915779" y="307.584" style="stroke: #000000; stroke-width: 0.8"/>
      </g>
     </g>
     <g id="text_7">
      <!-- 150 -->
      <g transform="translate(307.372029 322.182437) scale(0.1 -0.1)">
       <use xlink:href="#DejaVuSans-31"/>
       <use xlink:href="#DejaVuSans-35" transform="translate(63.623047 0)"/>
       <use xlink:href="#DejaVuSans-30" transform="translate(127.246094 0)"/>
      </g>
     </g>
    </g>
    <g id="xtick_8">
     <g id="line2d_15">
      <path d="M 357.701526 307.584 
L 357.701526 41.472 
" clip-path="url(#p27d200b0a4)" style="fill: none; stroke: #b0b0b0; stroke-width: 0.8; stroke-linecap: square"/>
     </g>
     <g id="line2d_16">
      <g>
       <use xlink:href="#m6ffa33fc9f" x="357.701526" y="307.584" style="stroke: #000000; stroke-width: 0.8"/>
      </g>
     </g>
     <g id="text_8">
      <!-- 175 -->
      <g transform="translate(348.157776 322.182437) scale(0.1 -0.1)">
       <use xlink:href="#DejaVuSans-31"/>
       <use xlink:href="#DejaVuSans-37" transform="translate(63.623047 0)"/>
       <use xlink:href="#DejaVuSans-35" transform="translate(127.246094 0)"/>
      </g>
     </g>
    </g>
    <g id="xtick_9">
     <g id="line2d_17">
      <path d="M 398.487273 307.584 
L 398.487273 41.472 
" clip-path="url(#p27d200b0a4)" style="fill: none; stroke: #b0b0b0; stroke-width: 0.8; stroke-linecap: square"/>
     </g>
     <g id="line2d_18">
      <g>
       <use xlink:href="#m6ffa33fc9f" x="398.487273" y="307.584" style="stroke: #000000; stroke-width: 0.8"/>
      </g>
     </g>
     <g id="text_9">
      <!-- 200 -->
      <g transform="translate(388.943523 322.182437) scale(0.1 -0.1)">
       <use xlink:href="#DejaVuSans-32"/>
       <use xlink:href="#DejaVuSans-30" transform="translate(63.623047 0)"/>
       <use xlink:href="#DejaVuSans-30" transform="translate(127.246094 0)"/>
      </g>
     </g>
    </g>
    <g id="text_10">
     <!-- Generacje -->
     <g transform="translate(210.629531 335.860562) scale(0.1 -0.1)">
      <defs>
       <path id="DejaVuSans-47" d="M 3809 666 
L 3809 1919 
L 2778 1919 
L 2778 2438 
L 4434 2438 
L 4434 434 
Q 4069 175 3628 42 
Q 3188 -91 2688 -91 
Q 1594 -91 976 548 
Q 359 1188 359 2328 
Q 359 3472 976 4111 
Q 1594 4750 2688 4750 
Q 3144 4750 3555 4637 
Q 3966 4525 4313 4306 
L 4313 3634 
Q 3963 3931 3569 4081 
Q 3175 4231 2741 4231 
Q 1884 4231 1454 3753 
Q 1025 3275 1025 2328 
Q 1025 1384 1454 906 
Q 1884 428 2741 428 
Q 3075 428 3337 486 
Q 3600 544 3809 666 
z
" transform="scale(0.015625)"/>
       <path id="DejaVuSans-65" d="M 3597 1894 
L 3597 1613 
L 953 1613 
Q 991 1019 1311 708 
Q 1631 397 2203 397 
Q 2534 397 2845 478 
Q 3156 559 3463 722 
L 3463 178 
Q 3153 47 2828 -22 
Q 2503 -91 2169 -91 
Q 1331 -91 842 396 
Q 353 884 353 1716 
Q 353 2575 817 3079 
Q 1281 3584 2069 3584 
Q 2775 3584 3186 3129 
Q 3597 2675 3597 1894 
z
M 3022 2063 
Q 3016 2534 2758 2815 
Q 2500 3097 2075 3097 
Q 1594 3097 1305 2825 
Q 1016 2553 972 2059 
L 3022 2063 
z
" transform="scale(0.015625)"/>
       <path id="DejaVuSans-6e" d="M 3513 2113 
L 3513 0 
L 2938 0 
L 2938 2094 
Q 2938 2591 2744 2837 
Q 2550 3084 2163 3084 
Q 1697 3084 1428 2787 
Q 1159 2491 1159 1978 
L 1159 0 
L 581 0 
L 581 3500 
L 1159 3500 
L 1159 2956 
Q 1366 3272 1645 3428 
Q 1925 3584 2291 3584 
Q 2894 3584 3203 3211 
Q 3513 2838 3513 2113 
z
" transform="scale(0.015625)"/>
       <path id="DejaVuSans-72" d="M 2631 2963 
Q 2534 3019 2420 3045 
Q 2306 3072 2169 3072 
Q 1681 3072 1420 2755 
Q 1159 2438 1159 1844 
L 1159 0 
L 581 0 
L 581 3500 
L 1159 3500 
L 1159 2956 
Q 1341 3275 1631 3429 
Q 1922 3584 2338 3584 
Q 2397 3584 2469 3576 
Q 2541 3569 2628 3553 
L 2631 2963 
z
" transform="scale(0.015625)"/>
       <path id="DejaVuSans-61" d="M 2194 1759 
Q 1497 1759 1228 1600 
Q 959 1441 959 1056 
Q 959 750 1161 570 
Q 1363 391 1709 391 
Q 2188 391 2477 730 
Q 2766 1069 2766 1631 
L 2766 1759 
L 2194 1759 
z
M 3341 1997 
L 3341 0 
L 2766 0 
L 2766 531 
Q 2569 213 2275 61 
Q 1981 -91 1556 -91 
Q 1019 -91 701 211 
Q 384 513 384 1019 
Q 384 1609 779 1909 
Q 1175 2209 1959 2209 
L 2766 2209 
L 2766 2266 
Q 2766 2663 2505 2880 
Q 2244 3097 1772 3097 
Q 1472 3097 1187 3025 
Q 903 2953 641 2809 
L 641 3341 
Q 956 3463 1253 3523 
Q 1550 3584 1831 3584 
Q 2591 3584 2966 3190 
Q 3341 2797 3341 1997 
z
" transform="scale(0.015625)"/>
       <path id="DejaVuSans-63" d="M 3122 3366 
L 3122 2828 
Q 2878 2963 2633 3030 
Q 2388 3097 2138 3097 
Q 1578 3097 1268 2742 
Q 959 2388 959 1747 
Q 959 1106 1268 751 
Q 1578 397 2138 397 
Q 2388 397 2633 464 
Q 2878 531 3122 666 
L 3122 134 
Q 2881 22 2623 -34 
Q 2366 -91 2075 -91 
Q 1284 -91 818 406 
Q 353 903 353 1747 
Q 353 2603 823 3093 
Q 1294 3584 2113 3584 
Q 2378 3584 2631 3529 
Q 2884 3475 3122 3366 
z
" transform="scale(0.015625)"/>
       <path id="DejaVuSans-6a" d="M 603 3500 
L 1178 3500 
L 1178 -63 
Q 1178 -731 923 -1031 
Q 669 -1331 103 -1331 
L -116 -1331 
L -116 -844 
L 38 -844 
Q 366 -844 484 -692 
Q 603 -541 603 -63 
L 603 3500 
z
M 603 4863 
L 1178 4863 
L 1178 4134 
L 603 4134 
L 603 4863 
z
" transform="scale(0.015625)"/>
      </defs>
      <use xlink:href="#DejaVuSans-47"/>
      <use xlink:href="#DejaVuSans-65" transform="translate(77.490234 0)"/>
      <use xlink:href="#DejaVuSans-6e" transform="translate(139.013672 0)"/>
      <use xlink:href="#DejaVuSans-65" transform="translate(202.392578 0)"/>
      <use xlink:href="#DejaVuSans-72" transform="translate(263.916016 0)"/>
      <use xlink:href="#DejaVuSans-61" transform="translate(305.029297 0)"/>
      <use xlink:href="#DejaVuSans-63" transform="translate(366.308594 0)"/>
      <use xlink:href="#DejaVuSans-6a" transform="translate(421.289062 0)"/>
      <use xlink:href="#DejaVuSans-65" transform="translate(449.072266 0)"/>
     </g>
    </g>
   </g>
   <g id="matplotlib.axis_2">
    <g id="ytick_1">
     <g id="line2d_19">
      <path d="M 57.6 148.478745 
L 414.72 148.478745 
" clip-path="url(#p27d200b0a4)" style="fill: none; stroke: #b0b0b0; stroke-width: 0.8; stroke-linecap: square"/>
     </g>
     <g id="line2d_20">
      <defs>
       <path id="m2f5d0198a7" d="M 0 0 
L -3.5 0 
" style="stroke: #000000; stroke-width: 0.8"/>
      </defs>
      <g>
       <use xlink:href="#m2f5d0198a7" x="57.6" y="148.478745" style="stroke: #000000; stroke-width: 0.8"/>
      </g>
     </g>
     <g id="text_11">
      <!-- $\mathdefault{10^{2}}$ -->
      <g transform="translate(33 152.277964) scale(0.1 -0.1)">
       <use xlink:href="#DejaVuSans-31" transform="translate(0 0.765625)"/>
       <use xlink:href="#DejaVuSans-30" transform="translate(63.623047 0.765625)"/>
       <use xlink:href="#DejaVuSans-32" transform="translate(128.203125 39.046875) scale(0.7)"/>
      </g>
     </g>
    </g>
    <g id="text_12">
     <!-- Przystosowanie -->
     <g transform="translate(26.920312 213.170187) rotate(-90) scale(0.1 -0.1)">
      <defs>
       <path id="DejaVuSans-50" d="M 1259 4147 
L 1259 2394 
L 2053 2394 
Q 2494 2394 2734 2622 
Q 2975 2850 2975 3272 
Q 2975 3691 2734 3919 
Q 2494 4147 2053 4147 
L 1259 4147 
z
M 628 4666 
L 2053 4666 
Q 2838 4666 3239 4311 
Q 3641 3956 3641 3272 
Q 3641 2581 3239 2228 
Q 2838 1875 2053 1875 
L 1259 1875 
L 1259 0 
L 628 0 
L 628 4666 
z
" transform="scale(0.015625)"/>
       <path id="DejaVuSans-7a" d="M 353 3500 
L 3084 3500 
L 3084 2975 
L 922 459 
L 3084 459 
L 3084 0 
L 275 0 
L 275 525 
L 2438 3041 
L 353 3041 
L 353 3500 
z
" transform="scale(0.015625)"/>
       <path id="DejaVuSans-79" d="M 2059 -325 
Q 1816 -950 1584 -1140 
Q 1353 -1331 966 -1331 
L 506 -1331 
L 506 -850 
L 844 -850 
Q 1081 -850 1212 -737 
Q 1344 -625 1503 -206 
L 1606 56 
L 191 3500 
L 800 3500 
L 1894 763 
L 2988 3500 
L 3597 3500 
L 2059 -325 
z
" transform="scale(0.015625)"/>
       <path id="DejaVuSans-73" d="M 2834 3397 
L 2834 2853 
Q 2591 2978 2328 3040 
Q 2066 3103 1784 3103 
Q 1356 3103 1142 2972 
Q 928 2841 928 2578 
Q 928 2378 1081 2264 
Q 1234 2150 1697 2047 
L 1894 2003 
Q 2506 1872 2764 1633 
Q 3022 1394 3022 966 
Q 3022 478 2636 193 
Q 2250 -91 1575 -91 
Q 1294 -91 989 -36 
Q 684 19 347 128 
L 347 722 
Q 666 556 975 473 
Q 1284 391 1588 391 
Q 1994 391 2212 530 
Q 2431 669 2431 922 
Q 2431 1156 2273 1281 
Q 2116 1406 1581 1522 
L 1381 1569 
Q 847 1681 609 1914 
Q 372 2147 372 2553 
Q 372 3047 722 3315 
Q 1072 3584 1716 3584 
Q 2034 3584 2315 3537 
Q 2597 3491 2834 3397 
z
" transform="scale(0.015625)"/>
       <path id="DejaVuSans-74" d="M 1172 4494 
L 1172 3500 
L 2356 3500 
L 2356 3053 
L 1172 3053 
L 1172 1153 
Q 1172 725 1289 603 
Q 1406 481 1766 481 
L 2356 481 
L 2356 0 
L 1766 0 
Q 1100 0 847 248 
Q 594 497 594 1153 
L 594 3053 
L 172 3053 
L 172 3500 
L 594 3500 
L 594 4494 
L 1172 4494 
z
" transform="scale(0.015625)"/>
       <path id="DejaVuSans-6f" d="M 1959 3097 
Q 1497 3097 1228 2736 
Q 959 2375 959 1747 
Q 959 1119 1226 758 
Q 1494 397 1959 397 
Q 2419 397 2687 759 
Q 2956 1122 2956 1747 
Q 2956 2369 2687 2733 
Q 2419 3097 1959 3097 
z
M 1959 3584 
Q 2709 3584 3137 3096 
Q 3566 2609 3566 1747 
Q 3566 888 3137 398 
Q 2709 -91 1959 -91 
Q 1206 -91 779 398 
Q 353 888 353 1747 
Q 353 2609 779 3096 
Q 1206 3584 1959 3584 
z
" transform="scale(0.015625)"/>
       <path id="DejaVuSans-77" d="M 269 3500 
L 844 3500 
L 1563 769 
L 2278 3500 
L 2956 3500 
L 3675 769 
L 4391 3500 
L 4966 3500 
L 4050 0 
L 3372 0 
L 2619 2869 
L 1863 0 
L 1184 0 
L 269 3500 
z
" transform="scale(0.015625)"/>
       <path id="DejaVuSans-69" d="M 603 3500 
L 1178 3500 
L 1178 0 
L 603 0 
L 603 3500 
z
M 603 4863 
L 1178 4863 
L 1178 4134 
L 603 4134 
L 603 4863 
z
" transform="scale(0.015625)"/>
      </defs>
      <use xlink:href="#DejaVuSans-50"/>
      <use xlink:href="#DejaVuSans-72" transform="translate(58.552734 0)"/>
      <use xlink:href="#DejaVuSans-7a" transform="translate(99.666016 0)"/>
      <use xlink:href="#DejaVuSans-79" transform="translate(152.15625 0)"/>
      <use xlink:href="#DejaVuSans-73" transform="translate(211.335938 0)"/>
      <use xlink:href="#DejaVuSans-74" transform="translate(263.435547 0)"/>
      <use xlink:href="#DejaVuSans-6f" transform="translate(302.644531 0)"/>
      <use xlink:href="#DejaVuSans-73" transform="translate(363.826172 0)"/>
      <use xlink:href="#DejaVuSans-6f" transform="translate(415.925781 0)"/>
      <use xlink:href="#DejaVuSans-77" transform="translate(477.107422 0)"/>
      <use xlink:href="#DejaVuSans-61" transform="translate(558.894531 0)"/>
      <use xlink:href="#DejaVuSans-6e" transform="translate(620.173828 0)"/>
      <use xlink:href="#DejaVuSans-69" transform="translate(683.552734 0)"/>
      <use xlink:href="#DejaVuSans-65" transform="translate(711.335938 0)"/>
     </g>
    </g>
   </g>
   <g id="line2d_21">
    <path d="M 73.832727 295.488 
L 75.464157 250.924231 
L 77.095587 228.652584 
L 78.727017 199.852935 
L 80.358447 190.737423 
L 81.989877 195.847299 
L 83.621307 193.491936 
L 85.252736 184.360817 
L 86.884166 177.104394 
L 88.515596 181.408572 
L 90.147026 177.111891 
L 91.778456 176.739686 
L 93.409886 177.779274 
L 95.041316 177.466016 
L 96.672746 175.221837 
L 98.304175 175.20189 
L 99.935605 177.593035 
L 101.567035 178.242109 
L 103.198465 176.445772 
L 104.829895 176.357166 
L 106.461325 176.91661 
L 108.092755 173.523437 
L 109.724185 174.028529 
L 111.355614 173.341688 
L 112.987044 171.67444 
L 114.618474 172.04543 
L 116.249904 174.824819 
L 117.881334 172.355372 
L 119.512764 173.005531 
L 121.144194 171.804 
L 122.775624 171.943711 
L 124.407053 169.752237 
L 126.038483 172.186333 
L 127.669913 171.578842 
L 129.301343 171.592043 
L 130.932773 173.046547 
L 132.564203 171.48581 
L 134.195633 172.508443 
L 135.827063 168.838256 
L 137.458492 171.471252 
L 139.089922 171.651049 
L 140.721352 169.490839 
L 142.352782 170.121205 
L 143.984212 172.406619 
L 145.615642 169.905695 
L 147.247072 170.28153 
L 148.878502 171.137777 
L 150.509931 171.122318 
L 152.141361 168.672039 
L 153.772791 170.79046 
L 155.404221 168.647972 
L 157.035651 171.486675 
L 158.667081 172.817052 
L 160.298511 170.937288 
L 161.929941 172.050318 
L 163.56137 170.789682 
L 165.1928 172.320783 
L 166.82423 170.996115 
L 168.45566 170.583742 
L 170.08709 169.909561 
L 171.71852 168.564859 
L 173.34995 170.273681 
L 174.98138 171.591449 
L 176.61281 170.125351 
L 178.244239 169.818644 
L 179.875669 167.888005 
L 181.507099 170.833637 
L 183.138529 170.127783 
L 184.769959 168.497068 
L 186.401389 167.757926 
L 191.295678 173.072142 
L 192.927108 171.588137 
L 194.558538 171.150395 
L 196.189968 168.254865 
L 197.821398 169.990632 
L 199.452828 169.974576 
L 201.084258 170.758401 
L 202.715688 169.530137 
L 204.347117 171.389169 
L 205.978547 169.642362 
L 207.609977 171.204706 
L 209.241407 170.726127 
L 210.872837 170.99112 
L 212.504267 171.982693 
L 214.135697 169.272993 
L 215.767127 168.573644 
L 217.398556 172.683427 
L 219.029986 169.908027 
L 220.661416 171.852704 
L 222.292846 170.057579 
L 223.924276 171.641568 
L 225.555706 171.147684 
L 227.187136 171.299503 
L 228.818566 169.710676 
L 230.449995 169.957174 
L 232.081425 170.556656 
L 233.712855 172.277996 
L 235.344285 171.559969 
L 236.975715 172.348548 
L 238.607145 170.445961 
L 240.238575 172.689882 
L 241.870005 170.452989 
L 243.501434 172.673371 
L 245.132864 170.59805 
L 246.764294 169.663525 
L 248.395724 172.223793 
L 250.027154 170.06231 
L 251.658584 171.911878 
L 253.290014 170.484917 
L 254.921444 173.112215 
L 256.552873 173.247045 
L 258.184303 170.871908 
L 259.815733 173.076843 
L 261.447163 169.233446 
L 263.078593 171.818096 
L 264.710023 170.734175 
L 266.341453 170.2783 
L 267.972883 172.241197 
L 269.604312 170.771092 
L 271.235742 172.732868 
L 272.867172 169.822925 
L 274.498602 170.478369 
L 276.130032 171.849082 
L 277.761462 170.70836 
L 279.392892 171.940255 
L 281.024322 170.403049 
L 282.655751 169.377506 
L 284.287181 173.937095 
L 285.918611 169.130587 
L 287.550041 169.125048 
L 289.181471 171.622927 
L 290.812901 170.994661 
L 294.075761 172.091964 
L 295.70719 170.740417 
L 297.33862 172.580391 
L 298.97005 170.794227 
L 300.60148 172.641739 
L 302.23291 173.762237 
L 303.86434 171.509922 
L 305.49577 168.644955 
L 307.1272 169.31505 
L 308.75863 172.243184 
L 310.390059 169.87622 
L 312.021489 168.063531 
L 313.652919 170.747114 
L 315.284349 172.540695 
L 316.915779 169.076212 
L 318.547209 169.886761 
L 320.178639 168.270953 
L 321.810069 170.77963 
L 323.441498 170.702433 
L 325.072928 169.417111 
L 326.704358 169.178248 
L 328.335788 171.227782 
L 329.967218 170.74585 
L 331.598648 171.757079 
L 333.230078 172.063114 
L 334.861508 170.417671 
L 336.492937 170.896948 
L 338.124367 169.64695 
L 339.755797 168.66433 
L 343.018657 172.162365 
L 344.650087 171.320055 
L 346.281517 169.73414 
L 347.912947 166.714257 
L 349.544376 168.936039 
L 351.175806 170.537499 
L 352.807236 169.817821 
L 354.438666 171.518693 
L 356.070096 170.719078 
L 357.701526 169.137321 
L 359.332956 170.695417 
L 360.964386 170.163418 
L 362.595815 171.296854 
L 364.227245 173.182972 
L 365.858675 168.576449 
L 367.490105 170.658605 
L 369.121535 172.166633 
L 370.752965 172.737583 
L 372.384395 172.032262 
L 374.015825 170.933034 
L 375.647254 170.008112 
L 377.278684 171.707042 
L 378.910114 170.200267 
L 380.541544 170.3797 
L 382.172974 173.079683 
L 383.804404 171.355859 
L 385.435834 169.173566 
L 387.067264 172.809943 
L 388.698693 171.462227 
L 390.330123 169.611803 
L 391.961553 171.825028 
L 393.592983 170.108928 
L 395.224413 169.790595 
L 396.855843 169.843908 
L 398.487273 169.287024 
L 398.487273 169.287024 
" clip-path="url(#p27d200b0a4)" style="fill: none; stroke: #0000ff; stroke-width: 1.5; stroke-linecap: square"/>
   </g>
   <g id="line2d_22">
    <path d="M 73.832727 248.419782 
L 75.464157 202.344898 
L 77.095587 185.892228 
L 78.727017 165.340936 
L 80.358447 160.142741 
L 81.989877 164.089894 
L 83.621307 163.437665 
L 85.252736 155.115138 
L 86.884166 148.377298 
L 88.515596 153.918925 
L 90.147026 151.357383 
L 91.778456 149.193985 
L 93.409886 151.910148 
L 95.041316 149.904053 
L 96.672746 153.033666 
L 98.304175 151.210546 
L 99.935605 151.791724 
L 101.567035 155.118695 
L 103.198465 153.39356 
L 104.829895 155.521835 
L 106.461325 153.380571 
L 108.092755 151.022805 
L 109.724185 152.124414 
L 111.355614 152.38918 
L 112.987044 150.332111 
L 114.618474 151.846577 
L 117.881334 153.485097 
L 119.512764 153.444699 
L 121.144194 151.996306 
L 122.775624 153.416545 
L 124.407053 150.960842 
L 126.038483 152.487605 
L 127.669913 153.625219 
L 129.301343 152.852995 
L 130.932773 153.461648 
L 132.564203 151.06788 
L 134.195633 151.442969 
L 135.827063 148.083764 
L 137.458492 150.547576 
L 139.089922 152.191883 
L 140.721352 149.19959 
L 142.352782 148.851289 
L 143.984212 153.823207 
L 145.615642 148.33975 
L 147.247072 150.916472 
L 148.878502 147.156619 
L 150.509931 151.605398 
L 152.141361 148.074864 
L 153.772791 151.707031 
L 155.404221 148.284463 
L 157.035651 151.395851 
L 158.667081 152.296259 
L 160.298511 151.273335 
L 161.929941 152.28087 
L 163.56137 151.82451 
L 165.1928 153.672061 
L 166.82423 150.127908 
L 168.45566 150.985189 
L 170.08709 147.819415 
L 171.71852 146.724603 
L 173.34995 150.004211 
L 174.98138 148.832129 
L 176.61281 147.995316 
L 178.244239 150.345188 
L 179.875669 146.446204 
L 181.507099 150.281225 
L 183.138529 150.972802 
L 184.769959 146.130661 
L 186.401389 146.647916 
L 188.032819 147.594919 
L 191.295678 152.871403 
L 192.927108 150.694855 
L 194.558538 150.534234 
L 196.189968 147.410613 
L 197.821398 149.765473 
L 199.452828 148.995157 
L 201.084258 147.008961 
L 204.347117 150.645707 
L 205.978547 149.757682 
L 207.609977 150.859847 
L 209.241407 150.998345 
L 210.872837 149.887483 
L 212.504267 152.351885 
L 214.135697 146.627975 
L 215.767127 147.731235 
L 217.398556 152.373711 
L 219.029986 149.781862 
L 220.661416 151.37473 
L 222.292846 148.432789 
L 223.924276 150.988611 
L 225.555706 151.579312 
L 227.187136 150.024506 
L 228.818566 147.915372 
L 230.449995 147.777226 
L 232.081425 151.032111 
L 233.712855 153.793552 
L 235.344285 150.076786 
L 236.975715 153.154687 
L 238.607145 147.963835 
L 240.238575 152.485524 
L 241.870005 148.848875 
L 243.501434 151.650669 
L 245.132864 149.987265 
L 246.764294 147.329011 
L 248.395724 151.513604 
L 250.027154 149.687761 
L 251.658584 151.087828 
L 253.290014 148.801398 
L 254.921444 152.593304 
L 256.552873 150.696226 
L 258.184303 151.380954 
L 259.815733 152.862216 
L 261.447163 149.588118 
L 263.078593 151.19237 
L 264.710023 149.290876 
L 266.341453 148.816184 
L 267.972883 152.690294 
L 269.604312 145.907056 
L 271.235742 153.384949 
L 272.867172 149.64214 
L 274.498602 149.411537 
L 276.130032 150.494503 
L 279.392892 152.055098 
L 281.024322 151.347179 
L 282.655751 148.843431 
L 284.287181 153.642248 
L 285.918611 147.620585 
L 287.550041 150.937507 
L 289.181471 152.830342 
L 290.812901 150.529093 
L 292.444331 151.394752 
L 294.075761 150.87948 
L 295.70719 148.570617 
L 297.33862 154.133657 
L 298.97005 150.594567 
L 300.60148 154.377053 
L 302.23291 155.805566 
L 303.86434 151.514485 
L 305.49577 147.986094 
L 307.1272 148.066123 
L 308.75863 151.999875 
L 310.390059 150.093495 
L 312.021489 145.250036 
L 313.652919 151.118513 
L 315.284349 152.229221 
L 316.915779 149.22989 
L 318.547209 150.107657 
L 320.178639 148.159576 
L 321.810069 151.254025 
L 323.441498 150.406561 
L 325.072928 147.721858 
L 326.704358 148.764857 
L 328.335788 152.096852 
L 329.967218 149.496568 
L 331.598648 152.609903 
L 333.230078 153.229175 
L 334.861508 150.845395 
L 336.492937 150.624111 
L 338.124367 146.29889 
L 339.755797 148.424105 
L 341.387227 148.56121 
L 343.018657 153.892878 
L 344.650087 150.236913 
L 346.281517 149.503837 
L 347.912947 146.141717 
L 349.544376 145.928586 
L 351.175806 150.128641 
L 352.807236 148.745463 
L 354.438666 150.323217 
L 356.070096 150.973351 
L 357.701526 147.395399 
L 359.332956 150.067697 
L 362.595815 150.493844 
L 364.227245 153.884967 
L 365.858675 145.702871 
L 367.490105 151.120118 
L 369.121535 152.171083 
L 370.752965 152.427576 
L 372.384395 150.621995 
L 374.015825 148.564928 
L 375.647254 147.710227 
L 377.278684 151.943879 
L 378.910114 148.258396 
L 380.541544 148.720826 
L 382.172974 152.043389 
L 383.804404 150.646297 
L 385.435834 147.888666 
L 387.067264 152.462467 
L 390.330123 147.609251 
L 391.961553 150.012827 
L 393.592983 148.799846 
L 395.224413 149.341471 
L 396.855843 147.948412 
L 398.487273 149.729898 
L 398.487273 149.729898 
" clip-path="url(#p27d200b0a4)" style="fill: none; stroke-dasharray: 9.6,2.4,1.5,2.4; stroke-dashoffset: 0; stroke: #008000; stroke-width: 1.5"/>
   </g>
   <g id="line2d_23">
    <path d="M 73.832727 157.307896 
L 75.464157 142.693919 
L 77.095587 138.175533 
L 78.727017 110.622116 
L 80.358447 96.590314 
L 81.989877 133.556309 
L 83.621307 129.77957 
L 85.252736 96.626134 
L 86.884166 89.760499 
L 88.515596 121.46577 
L 90.147026 125.888242 
L 91.778456 102.955054 
L 93.409886 117.905835 
L 95.041316 114.246359 
L 96.672746 118.088828 
L 99.935605 110.018004 
L 101.567035 106.579533 
L 103.198465 117.747039 
L 104.829895 117.371483 
L 106.461325 103.445034 
L 108.092755 99.695235 
L 109.724185 114.366977 
L 111.355614 110.26575 
L 112.987044 110.657573 
L 114.618474 106.75388 
L 116.249904 103.366048 
L 117.881334 117.519812 
L 119.512764 113.773693 
L 121.144194 110.346451 
L 122.775624 114.113207 
L 124.407053 110.340777 
L 126.038483 113.82639 
L 127.669913 110.790933 
L 129.301343 114.739125 
L 130.932773 117.544512 
L 132.564203 117.98424 
L 134.195633 117.864052 
L 135.827063 103.276322 
L 137.458492 113.884138 
L 139.089922 121.659524 
L 140.721352 103.384244 
L 143.984212 117.441161 
L 145.615642 96.533396 
L 147.247072 121.952611 
L 148.878502 87.295782 
L 150.509931 107.059985 
L 152.141361 99.44076 
L 153.772791 114.275258 
L 155.404221 103.639549 
L 157.035651 110.372396 
L 158.667081 96.374491 
L 160.298511 117.644322 
L 161.929941 103.794855 
L 163.56137 117.61001 
L 165.1928 114.152645 
L 166.82423 106.647037 
L 168.45566 106.552251 
L 170.08709 86.681791 
L 171.71852 84.8987 
L 173.34995 89.553721 
L 174.98138 69.824551 
L 176.61281 87.007032 
L 178.244239 100.859417 
L 179.875669 93.507516 
L 181.507099 96.698555 
L 183.138529 117.979899 
L 184.769959 93.141305 
L 186.401389 86.936065 
L 188.032819 100.309911 
L 189.664249 99.682687 
L 192.927108 113.98171 
L 194.558538 106.97455 
L 196.189968 89.795996 
L 197.821398 106.696213 
L 199.452828 106.745375 
L 201.084258 100.470451 
L 202.715688 84.111497 
L 204.347117 103.214164 
L 205.978547 93.565672 
L 207.609977 93.708666 
L 209.241407 113.963248 
L 210.872837 95.975039 
L 212.504267 113.638864 
L 214.135697 100.096133 
L 215.767127 84.062464 
L 217.398556 99.538587 
L 220.661416 86.795089 
L 222.292846 96.570872 
L 223.924276 80.469411 
L 225.555706 117.673676 
L 227.187136 99.917279 
L 228.818566 96.145119 
L 230.449995 71.947572 
L 232.081425 106.856501 
L 233.712855 117.652086 
L 235.344285 100.217236 
L 236.975715 81.336212 
L 238.607145 103.305256 
L 240.238575 100.057336 
L 241.870005 87.302897 
L 243.501434 96.224112 
L 245.132864 110.763959 
L 246.764294 93.12319 
L 248.395724 81.294572 
L 250.027154 107.316933 
L 251.658584 99.381435 
L 253.290014 71.999222 
L 254.921444 107.126454 
L 256.552873 77.87259 
L 258.184303 103.060552 
L 259.815733 103.153539 
L 261.447163 93.425375 
L 263.078593 107.337485 
L 264.710023 83.557527 
L 266.341453 80.64879 
L 267.972883 93.743815 
L 269.604312 53.568 
L 271.235742 86.770121 
L 272.867172 104.301678 
L 274.498602 89.508516 
L 276.130032 106.593415 
L 277.761462 96.607393 
L 279.392892 113.970578 
L 281.024322 110.917271 
L 282.655751 103.020345 
L 284.287181 99.306045 
L 285.918611 100.113644 
L 287.550041 96.983999 
L 289.181471 106.838015 
L 290.812901 107.069293 
L 292.444331 114.363154 
L 294.075761 72.211655 
L 295.70719 81.083004 
L 297.33862 110.211199 
L 298.97005 89.787595 
L 300.60148 114.182703 
L 302.23291 110.032132 
L 303.86434 89.944967 
L 305.49577 103.321929 
L 307.1272 90.695267 
L 308.75863 99.909499 
L 310.390059 114.339611 
L 312.021489 77.550984 
L 313.652919 110.559758 
L 315.284349 114.220794 
L 316.915779 83.96581 
L 318.547209 86.872632 
L 321.810069 118.099943 
L 323.441498 77.752657 
L 325.072928 81.303699 
L 326.704358 107.122865 
L 328.335788 103.28315 
L 329.967218 84.027001 
L 331.598648 106.723162 
L 333.230078 96.201842 
L 334.861508 114.034715 
L 336.492937 102.984719 
L 338.124367 87.123044 
L 339.755797 107.466367 
L 341.387227 74.955599 
L 343.018657 121.46401 
L 344.650087 103.373127 
L 346.281517 96.343938 
L 347.912947 96.458598 
L 349.544376 97.095705 
L 351.175806 86.922575 
L 352.807236 80.659746 
L 354.438666 106.611696 
L 356.070096 99.946791 
L 357.701526 86.967416 
L 359.332956 99.616608 
L 362.595815 106.482705 
L 364.227245 93.707311 
L 365.858675 69.153865 
L 367.490105 110.252056 
L 369.121535 110.657516 
L 370.752965 104.043404 
L 372.384395 64.136642 
L 374.015825 86.90349 
L 375.647254 77.589085 
L 377.278684 93.003954 
L 378.910114 103.046159 
L 380.541544 96.715487 
L 382.172974 89.813914 
L 383.804404 83.795777 
L 385.435834 96.64706 
L 387.067264 99.975501 
L 388.698693 96.226986 
L 390.330123 77.290332 
L 391.961553 97.080586 
L 393.592983 99.852073 
L 395.224413 103.355515 
L 396.855843 83.861056 
L 398.487273 100.083826 
L 398.487273 100.083826 
" clip-path="url(#p27d200b0a4)" style="fill: none; stroke: #ff0000; stroke-width: 1.5; stroke-linecap: square"/>
   </g>
   <g id="patch_3">
    <path d="M 57.6 307.584 
L 57.6 41.472 
" style="fill: none; stroke: #000000; stroke-width: 0.8; stroke-linejoin: miter; stroke-linecap: square"/>
   </g>
   <g id="patch_4">
    <path d="M 414.72 307.584 
L 414.72 41.472 
" style="fill: none; stroke: #000000; stroke-width: 0.8; stroke-linejoin: miter; stroke-linecap: square"/>
   </g>
   <g id="patch_5">
    <path d="M 57.6 307.584 
L 414.72 307.584 
" style="fill: none; stroke: #000000; stroke-width: 0.8; stroke-linejoin: miter; stroke-linecap: square"/>
   </g>
   <g id="patch_6">
    <path d="M 57.6 41.472 
L 414.72 41.472 
" style="fill: none; stroke: #000000; stroke-width: 0.8; stroke-linejoin: miter; stroke-linecap: square"/>
   </g>
   <g id="text_13">
    <!-- Średnie i najlepsze przystosowanie w każdej generacji -->
    <g transform="translate(73.26 35.472) scale(0.12 -0.12)">
     <defs>
      <path id="DejaVuSans-15a" d="M 2236 5921 
L 2814 5921 
L 2102 5096 
L 1623 5096 
L 2236 5921 
z
M 3425 4513 
L 3425 3897 
Q 3066 4069 2747 4153 
Q 2428 4238 2131 4238 
Q 1616 4238 1336 4038 
Q 1056 3838 1056 3469 
Q 1056 3159 1242 3001 
Q 1428 2844 1947 2747 
L 2328 2669 
Q 3034 2534 3370 2195 
Q 3706 1856 3706 1288 
Q 3706 609 3251 259 
Q 2797 -91 1919 -91 
Q 1588 -91 1214 -16 
Q 841 59 441 206 
L 441 856 
Q 825 641 1194 531 
Q 1563 422 1919 422 
Q 2459 422 2753 634 
Q 3047 847 3047 1241 
Q 3047 1584 2836 1778 
Q 2625 1972 2144 2069 
L 1759 2144 
Q 1053 2284 737 2584 
Q 422 2884 422 3419 
Q 422 4038 858 4394 
Q 1294 4750 2059 4750 
Q 2388 4750 2728 4690 
Q 3069 4631 3425 4513 
z
" transform="scale(0.015625)"/>
      <path id="DejaVuSans-64" d="M 2906 2969 
L 2906 4863 
L 3481 4863 
L 3481 0 
L 2906 0 
L 2906 525 
Q 2725 213 2448 61 
Q 2172 -91 1784 -91 
Q 1150 -91 751 415 
Q 353 922 353 1747 
Q 353 2572 751 3078 
Q 1150 3584 1784 3584 
Q 2172 3584 2448 3432 
Q 2725 3281 2906 2969 
z
M 947 1747 
Q 947 1113 1208 752 
Q 1469 391 1925 391 
Q 2381 391 2643 752 
Q 2906 1113 2906 1747 
Q 2906 2381 2643 2742 
Q 2381 3103 1925 3103 
Q 1469 3103 1208 2742 
Q 947 2381 947 1747 
z
" transform="scale(0.015625)"/>
      <path id="DejaVuSans-20" transform="scale(0.015625)"/>
      <path id="DejaVuSans-6c" d="M 603 4863 
L 1178 4863 
L 1178 0 
L 603 0 
L 603 4863 
z
" transform="scale(0.015625)"/>
      <path id="DejaVuSans-70" d="M 1159 525 
L 1159 -1331 
L 581 -1331 
L 581 3500 
L 1159 3500 
L 1159 2969 
Q 1341 3281 1617 3432 
Q 1894 3584 2278 3584 
Q 2916 3584 3314 3078 
Q 3713 2572 3713 1747 
Q 3713 922 3314 415 
Q 2916 -91 2278 -91 
Q 1894 -91 1617 61 
Q 1341 213 1159 525 
z
M 3116 1747 
Q 3116 2381 2855 2742 
Q 2594 3103 2138 3103 
Q 1681 3103 1420 2742 
Q 1159 2381 1159 1747 
Q 1159 1113 1420 752 
Q 1681 391 2138 391 
Q 2594 391 2855 752 
Q 3116 1113 3116 1747 
z
" transform="scale(0.015625)"/>
      <path id="DejaVuSans-6b" d="M 581 4863 
L 1159 4863 
L 1159 1991 
L 2875 3500 
L 3609 3500 
L 1753 1863 
L 3688 0 
L 2938 0 
L 1159 1709 
L 1159 0 
L 581 0 
L 581 4863 
z
" transform="scale(0.015625)"/>
      <path id="DejaVuSans-17c" d="M 1378 4863 
L 1953 4863 
L 1953 4134 
L 1378 4134 
L 1378 4863 
z
M 1672 3584 
L 1672 3584 
z
M 353 3500 
L 3084 3500 
L 3084 2975 
L 922 459 
L 3084 459 
L 3084 0 
L 275 0 
L 275 525 
L 2438 3041 
L 353 3041 
L 353 3500 
z
" transform="scale(0.015625)"/>
      <path id="DejaVuSans-67" d="M 2906 1791 
Q 2906 2416 2648 2759 
Q 2391 3103 1925 3103 
Q 1463 3103 1205 2759 
Q 947 2416 947 1791 
Q 947 1169 1205 825 
Q 1463 481 1925 481 
Q 2391 481 2648 825 
Q 2906 1169 2906 1791 
z
M 3481 434 
Q 3481 -459 3084 -895 
Q 2688 -1331 1869 -1331 
Q 1566 -1331 1297 -1286 
Q 1028 -1241 775 -1147 
L 775 -588 
Q 1028 -725 1275 -790 
Q 1522 -856 1778 -856 
Q 2344 -856 2625 -561 
Q 2906 -266 2906 331 
L 2906 616 
Q 2728 306 2450 153 
Q 2172 0 1784 0 
Q 1141 0 747 490 
Q 353 981 353 1791 
Q 353 2603 747 3093 
Q 1141 3584 1784 3584 
Q 2172 3584 2450 3431 
Q 2728 3278 2906 2969 
L 2906 3500 
L 3481 3500 
L 3481 434 
z
" transform="scale(0.015625)"/>
     </defs>
     <use xlink:href="#DejaVuSans-15a"/>
     <use xlink:href="#DejaVuSans-72" transform="translate(63.476562 0)"/>
     <use xlink:href="#DejaVuSans-65" transform="translate(102.339844 0)"/>
     <use xlink:href="#DejaVuSans-64" transform="translate(163.863281 0)"/>
     <use xlink:href="#DejaVuSans-6e" transform="translate(227.339844 0)"/>
     <use xlink:href="#DejaVuSans-69" transform="translate(290.71875 0)"/>
     <use xlink:href="#DejaVuSans-65" transform="translate(318.501953 0)"/>
     <use xlink:href="#DejaVuSans-20" transform="translate(380.025391 0)"/>
     <use xlink:href="#DejaVuSans-69" transform="translate(411.8125 0)"/>
     <use xlink:href="#DejaVuSans-20" transform="translate(439.595703 0)"/>
     <use xlink:href="#DejaVuSans-6e" transform="translate(471.382812 0)"/>
     <use xlink:href="#DejaVuSans-61" transform="translate(534.761719 0)"/>
     <use xlink:href="#DejaVuSans-6a" transform="translate(596.041016 0)"/>
     <use xlink:href="#DejaVuSans-6c" transform="translate(623.824219 0)"/>
     <use xlink:href="#DejaVuSans-65" transform="translate(651.607422 0)"/>
     <use xlink:href="#DejaVuSans-70" transform="translate(713.130859 0)"/>
     <use xlink:href="#DejaVuSans-73" transform="translate(776.607422 0)"/>
     <use xlink:href="#DejaVuSans-7a" transform="translate(828.707031 0)"/>
     <use xlink:href="#DejaVuSans-65" transform="translate(881.197266 0)"/>
     <use xlink:href="#DejaVuSans-20" transform="translate(942.720703 0)"/>
     <use xlink:href="#DejaVuSans-70" transform="translate(974.507812 0)"/>
     <use xlink:href="#DejaVuSans-72" transform="translate(1037.984375 0)"/>
     <use xlink:href="#DejaVuSans-7a" transform="translate(1079.097656 0)"/>
     <use xlink:href="#DejaVuSans-79" transform="translate(1131.587891 0)"/>
     <use xlink:href="#DejaVuSans-73" transform="translate(1190.767578 0)"/>
     <use xlink:href="#DejaVuSans-74" transform="translate(1242.867188 0)"/>
     <use xlink:href="#DejaVuSans-6f" transform="translate(1282.076172 0)"/>
     <use xlink:href="#DejaVuSans-73" transform="translate(1343.257812 0)"/>
     <use xlink:href="#DejaVuSans-6f" transform="translate(1395.357422 0)"/>
     <use xlink:href="#DejaVuSans-77" transform="translate(1456.539062 0)"/>
     <use xlink:href="#DejaVuSans-61" transform="translate(1538.326172 0)"/>
     <use xlink:href="#DejaVuSans-6e" transform="translate(1599.605469 0)"/>
     <use xlink:href="#DejaVuSans-69" transform="translate(1662.984375 0)"/>
     <use xlink:href="#DejaVuSans-65" transform="translate(1690.767578 0)"/>
     <use xlink:href="#DejaVuSans-20" transform="translate(1752.291016 0)"/>
     <use xlink:href="#DejaVuSans-77" transform="translate(1784.078125 0)"/>
     <use xlink:href="#DejaVuSans-20" transform="translate(1865.865234 0)"/>
     <use xlink:href="#DejaVuSans-6b" transform="translate(1897.652344 0)"/>
     <use xlink:href="#DejaVuSans-61" transform="translate(1953.8125 0)"/>
     <use xlink:href="#DejaVuSans-17c" transform="translate(2015.091797 0)"/>
     <use xlink:href="#DejaVuSans-64" transform="translate(2067.582031 0)"/>
     <use xlink:href="#DejaVuSans-65" transform="translate(2131.058594 0)"/>
     <use xlink:href="#DejaVuSans-6a" transform="translate(2192.582031 0)"/>
     <use xlink:href="#DejaVuSans-20" transform="translate(2220.365234 0)"/>
     <use xlink:href="#DejaVuSans-67" transform="translate(2252.152344 0)"/>
     <use xlink:href="#DejaVuSans-65" transform="translate(2315.628906 0)"/>
     <use xlink:href="#DejaVuSans-6e" transform="translate(2377.152344 0)"/>
     <use xlink:href="#DejaVuSans-65" transform="translate(2440.53125 0)"/>
     <use xlink:href="#DejaVuSans-72" transform="translate(2502.054688 0)"/>
     <use xlink:href="#DejaVuSans-61" transform="translate(2543.167969 0)"/>
     <use xlink:href="#DejaVuSans-63" transform="translate(2604.447266 0)"/>
     <use xlink:href="#DejaVuSans-6a" transform="translate(2659.427734 0)"/>
     <use xlink:href="#DejaVuSans-69" transform="translate(2687.210938 0)"/>
    </g>
   </g>
   <g id="legend_1">
    <g id="patch_7">
     <path d="M 279.790313 302.584 
L 407.72 302.584 
Q 409.72 302.584 409.72 300.584 
L 409.72 257.549625 
Q 409.72 255.549625 407.72 255.549625 
L 279.790313 255.549625 
Q 277.790313 255.549625 277.790313 257.549625 
L 277.790313 300.584 
Q 277.790313 302.584 279.790313 302.584 
z
" style="fill: #ffffff; opacity: 0.8; stroke: #cccccc; stroke-linejoin: miter"/>
    </g>
    <g id="line2d_24">
     <path d="M 281.790313 263.648062 
L 291.790313 263.648062 
L 301.790313 263.648062 
" style="fill: none; stroke: #0000ff; stroke-width: 1.5; stroke-linecap: square"/>
    </g>
    <g id="text_14">
     <!-- Średnia -->
     <g transform="translate(309.790313 267.148062) scale(0.1 -0.1)">
      <use xlink:href="#DejaVuSans-15a"/>
      <use xlink:href="#DejaVuSans-72" transform="translate(63.476562 0)"/>
      <use xlink:href="#DejaVuSans-65" transform="translate(102.339844 0)"/>
      <use xlink:href="#DejaVuSans-64" transform="translate(163.863281 0)"/>
      <use xlink:href="#DejaVuSans-6e" transform="translate(227.339844 0)"/>
      <use xlink:href="#DejaVuSans-69" transform="translate(290.71875 0)"/>
      <use xlink:href="#DejaVuSans-61" transform="translate(318.501953 0)"/>
     </g>
    </g>
    <g id="line2d_25">
     <path d="M 281.790313 278.326188 
L 291.790313 278.326188 
L 301.790313 278.326188 
" style="fill: none; stroke-dasharray: 9.6,2.4,1.5,2.4; stroke-dashoffset: 0; stroke: #008000; stroke-width: 1.5"/>
    </g>
    <g id="text_15">
     <!-- ±1 Odchylenie std. -->
     <g transform="translate(309.790313 281.826188) scale(0.1 -0.1)">
      <defs>
       <path id="DejaVuSans-b1" d="M 2944 4013 
L 2944 2803 
L 4684 2803 
L 4684 2272 
L 2944 2272 
L 2944 1063 
L 2419 1063 
L 2419 2272 
L 678 2272 
L 678 2803 
L 2419 2803 
L 2419 4013 
L 2944 4013 
z
M 678 531 
L 4684 531 
L 4684 0 
L 678 0 
L 678 531 
z
" transform="scale(0.015625)"/>
       <path id="DejaVuSans-4f" d="M 2522 4238 
Q 1834 4238 1429 3725 
Q 1025 3213 1025 2328 
Q 1025 1447 1429 934 
Q 1834 422 2522 422 
Q 3209 422 3611 934 
Q 4013 1447 4013 2328 
Q 4013 3213 3611 3725 
Q 3209 4238 2522 4238 
z
M 2522 4750 
Q 3503 4750 4090 4092 
Q 4678 3434 4678 2328 
Q 4678 1225 4090 567 
Q 3503 -91 2522 -91 
Q 1538 -91 948 565 
Q 359 1222 359 2328 
Q 359 3434 948 4092 
Q 1538 4750 2522 4750 
z
" transform="scale(0.015625)"/>
       <path id="DejaVuSans-68" d="M 3513 2113 
L 3513 0 
L 2938 0 
L 2938 2094 
Q 2938 2591 2744 2837 
Q 2550 3084 2163 3084 
Q 1697 3084 1428 2787 
Q 1159 2491 1159 1978 
L 1159 0 
L 581 0 
L 581 4863 
L 1159 4863 
L 1159 2956 
Q 1366 3272 1645 3428 
Q 1925 3584 2291 3584 
Q 2894 3584 3203 3211 
Q 3513 2838 3513 2113 
z
" transform="scale(0.015625)"/>
       <path id="DejaVuSans-2e" d="M 684 794 
L 1344 794 
L 1344 0 
L 684 0 
L 684 794 
z
" transform="scale(0.015625)"/>
      </defs>
      <use xlink:href="#DejaVuSans-b1"/>
      <use xlink:href="#DejaVuSans-31" transform="translate(83.789062 0)"/>
      <use xlink:href="#DejaVuSans-20" transform="translate(147.412109 0)"/>
      <use xlink:href="#DejaVuSans-4f" transform="translate(179.199219 0)"/>
      <use xlink:href="#DejaVuSans-64" transform="translate(257.910156 0)"/>
      <use xlink:href="#DejaVuSans-63" transform="translate(321.386719 0)"/>
      <use xlink:href="#DejaVuSans-68" transform="translate(376.367188 0)"/>
      <use xlink:href="#DejaVuSans-79" transform="translate(439.746094 0)"/>
      <use xlink:href="#DejaVuSans-6c" transform="translate(498.925781 0)"/>
      <use xlink:href="#DejaVuSans-65" transform="translate(526.708984 0)"/>
      <use xlink:href="#DejaVuSans-6e" transform="translate(588.232422 0)"/>
      <use xlink:href="#DejaVuSans-69" transform="translate(651.611328 0)"/>
      <use xlink:href="#DejaVuSans-65" transform="translate(679.394531 0)"/>
      <use xlink:href="#DejaVuSans-20" transform="translate(740.917969 0)"/>
      <use xlink:href="#DejaVuSans-73" transform="translate(772.705078 0)"/>
      <use xlink:href="#DejaVuSans-74" transform="translate(824.804688 0)"/>
      <use xlink:href="#DejaVuSans-64" transform="translate(864.013672 0)"/>
      <use xlink:href="#DejaVuSans-2e" transform="translate(927.490234 0)"/>
     </g>
    </g>
    <g id="line2d_26">
     <path d="M 281.790313 293.004312 
L 291.790313 293.004312 
L 301.790313 293.004312 
" style="fill: none; stroke: #ff0000; stroke-width: 1.5; stroke-linecap: square"/>
    </g>
    <g id="text_16">
     <!-- Najlepsze -->
     <g transform="translate(309.790313 296.504312) scale(0.1 -0.1)">
      <defs>
       <path id="DejaVuSans-4e" d="M 628 4666 
L 1478 4666 
L 3547 763 
L 3547 4666 
L 4159 4666 
L 4159 0 
L 3309 0 
L 1241 3903 
L 1241 0 
L 628 0 
L 628 4666 
z
" transform="scale(0.015625)"/>
      </defs>
      <use xlink:href="#DejaVuSans-4e"/>
      <use xlink:href="#DejaVuSans-61" transform="translate(74.804688 0)"/>
      <use xlink:href="#DejaVuSans-6a" transform="translate(136.083984 0)"/>
      <use xlink:href="#DejaVuSans-6c" transform="translate(163.867188 0)"/>
      <use xlink:href="#DejaVuSans-65" transform="translate(191.650391 0)"/>
      <use xlink:href="#DejaVuSans-70" transform="translate(253.173828 0)"/>
      <use xlink:href="#DejaVuSans-73" transform="translate(316.650391 0)"/>
      <use xlink:href="#DejaVuSans-7a" transform="translate(368.75 0)"/>
      <use xlink:href="#DejaVuSans-65" transform="translate(421.240234 0)"/>
     </g>
    </g>
   </g>
  </g>
 </g>
 <defs>
  <clipPath id="p27d200b0a4">
   <rect x="57.6" y="41.472" width="357.12" height="266.112"/>
  </clipPath>
 </defs>
</svg>
