<?xml version="1.0" encoding="utf-8" standalone="no"?>
<!DOCTYPE svg PUBLIC "-//W3C//DTD SVG 1.1//EN"
  "http://www.w3.org/Graphics/SVG/1.1/DTD/svg11.dtd">
<svg xmlns:xlink="http://www.w3.org/1999/xlink" width="460.8pt" height="345.6pt" viewBox="0 0 460.8 345.6" xmlns="http://www.w3.org/2000/svg" version="1.1">
 <metadata>
  <rdf:RDF xmlns:dc="http://purl.org/dc/elements/1.1/" xmlns:cc="http://creativecommons.org/ns#" xmlns:rdf="http://www.w3.org/1999/02/22-rdf-syntax-ns#">
   <cc:Work>
    <dc:type rdf:resource="http://purl.org/dc/dcmitype/StillImage"/>
    <dc:date>2026-04-26T20:34:12.423903</dc:date>
    <dc:format>image/svg+xml</dc:format>
    <dc:creator>
     <cc:Agent>
      <dc:title>Matplotlib v3.10.8, https://matplotlib.org/</dc:title>
     </cc:Agent>
    </dc:creator>
   </cc:Work>
  </rdf:RDF>
 </metadata>
 <defs>
  <style type="text/css">*{stroke-linejoin: round; stroke-linecap: butt}</style>
 </defs>
 <g id="figure_1">
  <g id="patch_1">
   <path d="M 0 345.6 
L 460.8 345.6 
L 460.8 0 
L 0 0 
z
" style="fill: #ffffff"/>
  </g>
  <g id="axes_1">
   <g id="patch_2">
    <path d="M 57.6 307.584 
L 414.72 307.584 
L 414.72 41.472 
L 57.6 41.472 
z
" style="fill: #ffffff"/>
   </g>
   <g id="matplotlib.axis_1">
    <g id="xtick_1">
     <g id="line2d_1">
      <path d="M 72.201297 307.584 
L 72.201297 41.472 
" clip-path="url(#p2065ae3201)" style="fill: none; stroke: #b0b0b0; stroke-width: 0.8; stroke-linecap: square"/>
     </g>
     <g id="line2d_2">
      <defs>
       <path id="m401edab8a5" d="M 0 0 
L 0 3.5 
" style="stroke: #000000; stroke-width: 0.8"/>
      </defs>
      <g>
       <use xlink:href="#m401edab8a5" x="72.201297" y="307.584" style="stroke: #000000; stroke-width: 0.8"/>
      </g>
     </g>
     <g id="text_1">
      <!-- 0 -->
      <g transform="translate(69.020047 322.182437) scale(0.1 -0.1)">
       <defs>
        <path id="DejaVuSans-30" d="M 2034 4250 
Q 1547 4250 1301 3770 
Q 1056 3291 1056 2328 
Q 1056 1369 1301 889 
Q 1547 409 2034 409 
Q 2525 409 2770 889 
Q 3016 1369 3016 2328 
Q 3016 3291 2770 3770 
Q 2525 4250 2034 4250 
z
M 2034 4750 
Q 2819 4750 3233 4129 
Q 3647 3509 3647 2328 
Q 3647 1150 3233 529 
Q 2819 -91 2034 -91 
Q 1250 -91 836 529 
Q 422 1150 422 2328 
Q 422 3509 836 4129 
Q 1250 4750 2034 4750 
z
" transform="scale(0.015625)"/>
       </defs>
       <use xlink:href="#DejaVuSans-30"/>
      </g>
     </g>
    </g>
    <g id="xtick_2">
     <g id="line2d_3">
      <path d="M 112.987044 307.584 
L 112.987044 41.472 
" clip-path="url(#p2065ae3201)" style="fill: none; stroke: #b0b0b0; stroke-width: 0.8; stroke-linecap: square"/>
     </g>
     <g id="line2d_4">
      <g>
       <use xlink:href="#m401edab8a5" x="112.987044" y="307.584" style="stroke: #000000; stroke-width: 0.8"/>
      </g>
     </g>
     <g id="text_2">
      <!-- 25 -->
      <g transform="translate(106.624544 322.182437) scale(0.1 -0.1)">
       <defs>
        <path id="DejaVuSans-32" d="M 1228 531 
L 3431 531 
L 3431 0 
L 469 0 
L 469 531 
Q 828 903 1448 1529 
Q 2069 2156 2228 2338 
Q 2531 2678 2651 2914 
Q 2772 3150 2772 3378 
Q 2772 3750 2511 3984 
Q 2250 4219 1831 4219 
Q 1534 4219 1204 4116 
Q 875 4013 500 3803 
L 500 4441 
Q 881 4594 1212 4672 
Q 1544 4750 1819 4750 
Q 2544 4750 2975 4387 
Q 3406 4025 3406 3419 
Q 3406 3131 3298 2873 
Q 3191 2616 2906 2266 
Q 2828 2175 2409 1742 
Q 1991 1309 1228 531 
z
" transform="scale(0.015625)"/>
        <path id="DejaVuSans-35" d="M 691 4666 
L 3169 4666 
L 3169 4134 
L 1269 4134 
L 1269 2991 
Q 1406 3038 1543 3061 
Q 1681 3084 1819 3084 
Q 2600 3084 3056 2656 
Q 3513 2228 3513 1497 
Q 3513 744 3044 326 
Q 2575 -91 1722 -91 
Q 1428 -91 1123 -41 
Q 819 9 494 109 
L 494 744 
Q 775 591 1075 516 
Q 1375 441 1709 441 
Q 2250 441 2565 725 
Q 2881 1009 2881 1497 
Q 2881 1984 2565 2268 
Q 2250 2553 1709 2553 
Q 1456 2553 1204 2497 
Q 953 2441 691 2322 
L 691 4666 
z
" transform="scale(0.015625)"/>
       </defs>
       <use xlink:href="#DejaVuSans-32"/>
       <use xlink:href="#DejaVuSans-35" transform="translate(63.623047 0)"/>
      </g>
     </g>
    </g>
    <g id="xtick_3">
     <g id="line2d_5">
      <path d="M 153.772791 307.584 
L 153.772791 41.472 
" clip-path="url(#p2065ae3201)" style="fill: none; stroke: #b0b0b0; stroke-width: 0.8; stroke-linecap: square"/>
     </g>
     <g id="line2d_6">
      <g>
       <use xlink:href="#m401edab8a5" x="153.772791" y="307.584" style="stroke: #000000; stroke-width: 0.8"/>
      </g>
     </g>
     <g id="text_3">
      <!-- 50 -->
      <g transform="translate(147.410291 322.182437) scale(0.1 -0.1)">
       <use xlink:href="#DejaVuSans-35"/>
       <use xlink:href="#DejaVuSans-30" transform="translate(63.623047 0)"/>
      </g>
     </g>
    </g>
    <g id="xtick_4">
     <g id="line2d_7">
      <path d="M 194.558538 307.584 
L 194.558538 41.472 
" clip-path="url(#p2065ae3201)" style="fill: none; stroke: #b0b0b0; stroke-width: 0.8; stroke-linecap: square"/>
     </g>
     <g id="line2d_8">
      <g>
       <use xlink:href="#m401edab8a5" x="194.558538" y="307.584" style="stroke: #000000; stroke-width: 0.8"/>
      </g>
     </g>
     <g id="text_4">
      <!-- 75 -->
      <g transform="translate(188.196038 322.182437) scale(0.1 -0.1)">
       <defs>
        <path id="DejaVuSans-37" d="M 525 4666 
L 3525 4666 
L 3525 4397 
L 1831 0 
L 1172 0 
L 2766 4134 
L 525 4134 
L 525 4666 
z
" transform="scale(0.015625)"/>
       </defs>
       <use xlink:href="#DejaVuSans-37"/>
       <use xlink:href="#DejaVuSans-35" transform="translate(63.623047 0)"/>
      </g>
     </g>
    </g>
    <g id="xtick_5">
     <g id="line2d_9">
      <path d="M 235.344285 307.584 
L 235.344285 41.472 
" clip-path="url(#p2065ae3201)" style="fill: none; stroke: #b0b0b0; stroke-width: 0.8; stroke-linecap: square"/>
     </g>
     <g id="line2d_10">
      <g>
       <use xlink:href="#m401edab8a5" x="235.344285" y="307.584" style="stroke: #000000; stroke-width: 0.8"/>
      </g>
     </g>
     <g id="text_5">
      <!-- 100 -->
      <g transform="translate(225.800535 322.182437) scale(0.1 -0.1)">
       <defs>
        <path id="DejaVuSans-31" d="M 794 531 
L 1825 531 
L 1825 4091 
L 703 3866 
L 703 4441 
L 1819 4666 
L 2450 4666 
L 2450 531 
L 3481 531 
L 3481 0 
L 794 0 
L 794 531 
z
" transform="scale(0.015625)"/>
       </defs>
       <use xlink:href="#DejaVuSans-31"/>
       <use xlink:href="#DejaVuSans-30" transform="translate(63.623047 0)"/>
       <use xlink:href="#DejaVuSans-30" transform="translate(127.246094 0)"/>
      </g>
     </g>
    </g>
    <g id="xtick_6">
     <g id="line2d_11">
      <path d="M 276.130032 307.584 
L 276.130032 41.472 
" clip-path="url(#p2065ae3201)" style="fill: none; stroke: #b0b0b0; stroke-width: 0.8; stroke-linecap: square"/>
     </g>
     <g id="line2d_12">
      <g>
       <use xlink:href="#m401edab8a5" x="276.130032" y="307.584" style="stroke: #000000; stroke-width: 0.8"/>
      </g>
     </g>
     <g id="text_6">
      <!-- 125 -->
      <g transform="translate(266.586282 322.182437) scale(0.1 -0.1)">
       <use xlink:href="#DejaVuSans-31"/>
       <use xlink:href="#DejaVuSans-32" transform="translate(63.623047 0)"/>
       <use xlink:href="#DejaVuSans-35" transform="translate(127.246094 0)"/>
      </g>
     </g>
    </g>
    <g id="xtick_7">
     <g id="line2d_13">
      <path d="M 316.915779 307.584 
L 316.915779 41.472 
" clip-path="url(#p2065ae3201)" style="fill: none; stroke: #b0b0b0; stroke-width: 0.8; stroke-linecap: square"/>
     </g>
     <g id="line2d_14">
      <g>
       <use xlink:href="#m401edab8a5" x="316.915779" y="307.584" style="stroke: #000000; stroke-width: 0.8"/>
      </g>
     </g>
     <g id="text_7">
      <!-- 150 -->
      <g transform="translate(307.372029 322.182437) scale(0.1 -0.1)">
       <use xlink:href="#DejaVuSans-31"/>
       <use xlink:href="#DejaVuSans-35" transform="translate(63.623047 0)"/>
       <use xlink:href="#DejaVuSans-30" transform="translate(127.246094 0)"/>
      </g>
     </g>
    </g>
    <g id="xtick_8">
     <g id="line2d_15">
      <path d="M 357.701526 307.584 
L 357.701526 41.472 
" clip-path="url(#p2065ae3201)" style="fill: none; stroke: #b0b0b0; stroke-width: 0.8; stroke-linecap: square"/>
     </g>
     <g id="line2d_16">
      <g>
       <use xlink:href="#m401edab8a5" x="357.701526" y="307.584" style="stroke: #000000; stroke-width: 0.8"/>
      </g>
     </g>
     <g id="text_8">
      <!-- 175 -->
      <g transform="translate(348.157776 322.182437) scale(0.1 -0.1)">
       <use xlink:href="#DejaVuSans-31"/>
       <use xlink:href="#DejaVuSans-37" transform="translate(63.623047 0)"/>
       <use xlink:href="#DejaVuSans-35" transform="translate(127.246094 0)"/>
      </g>
     </g>
    </g>
    <g id="xtick_9">
     <g id="line2d_17">
      <path d="M 398.487273 307.584 
L 398.487273 41.472 
" clip-path="url(#p2065ae3201)" style="fill: none; stroke: #b0b0b0; stroke-width: 0.8; stroke-linecap: square"/>
     </g>
     <g id="line2d_18">
      <g>
       <use xlink:href="#m401edab8a5" x="398.487273" y="307.584" style="stroke: #000000; stroke-width: 0.8"/>
      </g>
     </g>
     <g id="text_9">
      <!-- 200 -->
      <g transform="translate(388.943523 322.182437) scale(0.1 -0.1)">
       <use xlink:href="#DejaVuSans-32"/>
       <use xlink:href="#DejaVuSans-30" transform="translate(63.623047 0)"/>
       <use xlink:href="#DejaVuSans-30" transform="translate(127.246094 0)"/>
      </g>
     </g>
    </g>
    <g id="text_10">
     <!-- Generacje -->
     <g transform="translate(210.629531 335.860562) scale(0.1 -0.1)">
      <defs>
       <path id="DejaVuSans-47" d="M 3809 666 
L 3809 1919 
L 2778 1919 
L 2778 2438 
L 4434 2438 
L 4434 434 
Q 4069 175 3628 42 
Q 3188 -91 2688 -91 
Q 1594 -91 976 548 
Q 359 1188 359 2328 
Q 359 3472 976 4111 
Q 1594 4750 2688 4750 
Q 3144 4750 3555 4637 
Q 3966 4525 4313 4306 
L 4313 3634 
Q 3963 3931 3569 4081 
Q 3175 4231 2741 4231 
Q 1884 4231 1454 3753 
Q 1025 3275 1025 2328 
Q 1025 1384 1454 906 
Q 1884 428 2741 428 
Q 3075 428 3337 486 
Q 3600 544 3809 666 
z
" transform="scale(0.015625)"/>
       <path id="DejaVuSans-65" d="M 3597 1894 
L 3597 1613 
L 953 1613 
Q 991 1019 1311 708 
Q 1631 397 2203 397 
Q 2534 397 2845 478 
Q 3156 559 3463 722 
L 3463 178 
Q 3153 47 2828 -22 
Q 2503 -91 2169 -91 
Q 1331 -91 842 396 
Q 353 884 353 1716 
Q 353 2575 817 3079 
Q 1281 3584 2069 3584 
Q 2775 3584 3186 3129 
Q 3597 2675 3597 1894 
z
M 3022 2063 
Q 3016 2534 2758 2815 
Q 2500 3097 2075 3097 
Q 1594 3097 1305 2825 
Q 1016 2553 972 2059 
L 3022 2063 
z
" transform="scale(0.015625)"/>
       <path id="DejaVuSans-6e" d="M 3513 2113 
L 3513 0 
L 2938 0 
L 2938 2094 
Q 2938 2591 2744 2837 
Q 2550 3084 2163 3084 
Q 1697 3084 1428 2787 
Q 1159 2491 1159 1978 
L 1159 0 
L 581 0 
L 581 3500 
L 1159 3500 
L 1159 2956 
Q 1366 3272 1645 3428 
Q 1925 3584 2291 3584 
Q 2894 3584 3203 3211 
Q 3513 2838 3513 2113 
z
" transform="scale(0.015625)"/>
       <path id="DejaVuSans-72" d="M 2631 2963 
Q 2534 3019 2420 3045 
Q 2306 3072 2169 3072 
Q 1681 3072 1420 2755 
Q 1159 2438 1159 1844 
L 1159 0 
L 581 0 
L 581 3500 
L 1159 3500 
L 1159 2956 
Q 1341 3275 1631 3429 
Q 1922 3584 2338 3584 
Q 2397 3584 2469 3576 
Q 2541 3569 2628 3553 
L 2631 2963 
z
" transform="scale(0.015625)"/>
       <path id="DejaVuSans-61" d="M 2194 1759 
Q 1497 1759 1228 1600 
Q 959 1441 959 1056 
Q 959 750 1161 570 
Q 1363 391 1709 391 
Q 2188 391 2477 730 
Q 2766 1069 2766 1631 
L 2766 1759 
L 2194 1759 
z
M 3341 1997 
L 3341 0 
L 2766 0 
L 2766 531 
Q 2569 213 2275 61 
Q 1981 -91 1556 -91 
Q 1019 -91 701 211 
Q 384 513 384 1019 
Q 384 1609 779 1909 
Q 1175 2209 1959 2209 
L 2766 2209 
L 2766 2266 
Q 2766 2663 2505 2880 
Q 2244 3097 1772 3097 
Q 1472 3097 1187 3025 
Q 903 2953 641 2809 
L 641 3341 
Q 956 3463 1253 3523 
Q 1550 3584 1831 3584 
Q 2591 3584 2966 3190 
Q 3341 2797 3341 1997 
z
" transform="scale(0.015625)"/>
       <path id="DejaVuSans-63" d="M 3122 3366 
L 3122 2828 
Q 2878 2963 2633 3030 
Q 2388 3097 2138 3097 
Q 1578 3097 1268 2742 
Q 959 2388 959 1747 
Q 959 1106 1268 751 
Q 1578 397 2138 397 
Q 2388 397 2633 464 
Q 2878 531 3122 666 
L 3122 134 
Q 2881 22 2623 -34 
Q 2366 -91 2075 -91 
Q 1284 -91 818 406 
Q 353 903 353 1747 
Q 353 2603 823 3093 
Q 1294 3584 2113 3584 
Q 2378 3584 2631 3529 
Q 2884 3475 3122 3366 
z
" transform="scale(0.015625)"/>
       <path id="DejaVuSans-6a" d="M 603 3500 
L 1178 3500 
L 1178 -63 
Q 1178 -731 923 -1031 
Q 669 -1331 103 -1331 
L -116 -1331 
L -116 -844 
L 38 -844 
Q 366 -844 484 -692 
Q 603 -541 603 -63 
L 603 3500 
z
M 603 4863 
L 1178 4863 
L 1178 4134 
L 603 4134 
L 603 4863 
z
" transform="scale(0.015625)"/>
      </defs>
      <use xlink:href="#DejaVuSans-47"/>
      <use xlink:href="#DejaVuSans-65" transform="translate(77.490234 0)"/>
      <use xlink:href="#DejaVuSans-6e" transform="translate(139.013672 0)"/>
      <use xlink:href="#DejaVuSans-65" transform="translate(202.392578 0)"/>
      <use xlink:href="#DejaVuSans-72" transform="translate(263.916016 0)"/>
      <use xlink:href="#DejaVuSans-61" transform="translate(305.029297 0)"/>
      <use xlink:href="#DejaVuSans-63" transform="translate(366.308594 0)"/>
      <use xlink:href="#DejaVuSans-6a" transform="translate(421.289062 0)"/>
      <use xlink:href="#DejaVuSans-65" transform="translate(449.072266 0)"/>
     </g>
    </g>
   </g>
   <g id="matplotlib.axis_2">
    <g id="ytick_1">
     <g id="line2d_19">
      <path d="M 57.6 141.063435 
L 414.72 141.063435 
" clip-path="url(#p2065ae3201)" style="fill: none; stroke: #b0b0b0; stroke-width: 0.8; stroke-linecap: square"/>
     </g>
     <g id="line2d_20">
      <defs>
       <path id="m557f3f04c4" d="M 0 0 
L -3.5 0 
" style="stroke: #000000; stroke-width: 0.8"/>
      </defs>
      <g>
       <use xlink:href="#m557f3f04c4" x="57.6" y="141.063435" style="stroke: #000000; stroke-width: 0.8"/>
      </g>
     </g>
     <g id="text_11">
      <!-- $\mathdefault{10^{2}}$ -->
      <g transform="translate(33 144.862654) scale(0.1 -0.1)">
       <use xlink:href="#DejaVuSans-31" transform="translate(0 0.765625)"/>
       <use xlink:href="#DejaVuSans-30" transform="translate(63.623047 0.765625)"/>
       <use xlink:href="#DejaVuSans-32" transform="translate(128.203125 39.046875) scale(0.7)"/>
      </g>
     </g>
    </g>
    <g id="text_12">
     <!-- Przystosowanie -->
     <g transform="translate(26.920312 213.170187) rotate(-90) scale(0.1 -0.1)">
      <defs>
       <path id="DejaVuSans-50" d="M 1259 4147 
L 1259 2394 
L 2053 2394 
Q 2494 2394 2734 2622 
Q 2975 2850 2975 3272 
Q 2975 3691 2734 3919 
Q 2494 4147 2053 4147 
L 1259 4147 
z
M 628 4666 
L 2053 4666 
Q 2838 4666 3239 4311 
Q 3641 3956 3641 3272 
Q 3641 2581 3239 2228 
Q 2838 1875 2053 1875 
L 1259 1875 
L 1259 0 
L 628 0 
L 628 4666 
z
" transform="scale(0.015625)"/>
       <path id="DejaVuSans-7a" d="M 353 3500 
L 3084 3500 
L 3084 2975 
L 922 459 
L 3084 459 
L 3084 0 
L 275 0 
L 275 525 
L 2438 3041 
L 353 3041 
L 353 3500 
z
" transform="scale(0.015625)"/>
       <path id="DejaVuSans-79" d="M 2059 -325 
Q 1816 -950 1584 -1140 
Q 1353 -1331 966 -1331 
L 506 -1331 
L 506 -850 
L 844 -850 
Q 1081 -850 1212 -737 
Q 1344 -625 1503 -206 
L 1606 56 
L 191 3500 
L 800 3500 
L 1894 763 
L 2988 3500 
L 3597 3500 
L 2059 -325 
z
" transform="scale(0.015625)"/>
       <path id="DejaVuSans-73" d="M 2834 3397 
L 2834 2853 
Q 2591 2978 2328 3040 
Q 2066 3103 1784 3103 
Q 1356 3103 1142 2972 
Q 928 2841 928 2578 
Q 928 2378 1081 2264 
Q 1234 2150 1697 2047 
L 1894 2003 
Q 2506 1872 2764 1633 
Q 3022 1394 3022 966 
Q 3022 478 2636 193 
Q 2250 -91 1575 -91 
Q 1294 -91 989 -36 
Q 684 19 347 128 
L 347 722 
Q 666 556 975 473 
Q 1284 391 1588 391 
Q 1994 391 2212 530 
Q 2431 669 2431 922 
Q 2431 1156 2273 1281 
Q 2116 1406 1581 1522 
L 1381 1569 
Q 847 1681 609 1914 
Q 372 2147 372 2553 
Q 372 3047 722 3315 
Q 1072 3584 1716 3584 
Q 2034 3584 2315 3537 
Q 2597 3491 2834 3397 
z
" transform="scale(0.015625)"/>
       <path id="DejaVuSans-74" d="M 1172 4494 
L 1172 3500 
L 2356 3500 
L 2356 3053 
L 1172 3053 
L 1172 1153 
Q 1172 725 1289 603 
Q 1406 481 1766 481 
L 2356 481 
L 2356 0 
L 1766 0 
Q 1100 0 847 248 
Q 594 497 594 1153 
L 594 3053 
L 172 3053 
L 172 3500 
L 594 3500 
L 594 4494 
L 1172 4494 
z
" transform="scale(0.015625)"/>
       <path id="DejaVuSans-6f" d="M 1959 3097 
Q 1497 3097 1228 2736 
Q 959 2375 959 1747 
Q 959 1119 1226 758 
Q 1494 397 1959 397 
Q 2419 397 2687 759 
Q 2956 1122 2956 1747 
Q 2956 2369 2687 2733 
Q 2419 3097 1959 3097 
z
M 1959 3584 
Q 2709 3584 3137 3096 
Q 3566 2609 3566 1747 
Q 3566 888 3137 398 
Q 2709 -91 1959 -91 
Q 1206 -91 779 398 
Q 353 888 353 1747 
Q 353 2609 779 3096 
Q 1206 3584 1959 3584 
z
" transform="scale(0.015625)"/>
       <path id="DejaVuSans-77" d="M 269 3500 
L 844 3500 
L 1563 769 
L 2278 3500 
L 2956 3500 
L 3675 769 
L 4391 3500 
L 4966 3500 
L 4050 0 
L 3372 0 
L 2619 2869 
L 1863 0 
L 1184 0 
L 269 3500 
z
" transform="scale(0.015625)"/>
       <path id="DejaVuSans-69" d="M 603 3500 
L 1178 3500 
L 1178 0 
L 603 0 
L 603 3500 
z
M 603 4863 
L 1178 4863 
L 1178 4134 
L 603 4134 
L 603 4863 
z
" transform="scale(0.015625)"/>
      </defs>
      <use xlink:href="#DejaVuSans-50"/>
      <use xlink:href="#DejaVuSans-72" transform="translate(58.552734 0)"/>
      <use xlink:href="#DejaVuSans-7a" transform="translate(99.666016 0)"/>
      <use xlink:href="#DejaVuSans-79" transform="translate(152.15625 0)"/>
      <use xlink:href="#DejaVuSans-73" transform="translate(211.335938 0)"/>
      <use xlink:href="#DejaVuSans-74" transform="translate(263.435547 0)"/>
      <use xlink:href="#DejaVuSans-6f" transform="translate(302.644531 0)"/>
      <use xlink:href="#DejaVuSans-73" transform="translate(363.826172 0)"/>
      <use xlink:href="#DejaVuSans-6f" transform="translate(415.925781 0)"/>
      <use xlink:href="#DejaVuSans-77" transform="translate(477.107422 0)"/>
      <use xlink:href="#DejaVuSans-61" transform="translate(558.894531 0)"/>
      <use xlink:href="#DejaVuSans-6e" transform="translate(620.173828 0)"/>
      <use xlink:href="#DejaVuSans-69" transform="translate(683.552734 0)"/>
      <use xlink:href="#DejaVuSans-65" transform="translate(711.335938 0)"/>
     </g>
    </g>
   </g>
   <g id="line2d_21">
    <path d="M 73.832727 295.488 
L 75.464157 247.64915 
L 77.095587 207.463003 
L 78.727017 190.530487 
L 80.358447 179.11283 
L 81.989877 179.607873 
L 83.621307 168.630804 
L 85.252736 174.623533 
L 86.884166 170.254261 
L 88.515596 172.516788 
L 90.147026 171.529974 
L 91.778456 167.924858 
L 93.409886 162.684373 
L 95.041316 170.455529 
L 96.672746 163.684843 
L 98.304175 167.873759 
L 99.935605 166.050298 
L 101.567035 165.8696 
L 103.198465 161.042671 
L 104.829895 166.669224 
L 106.461325 161.485055 
L 108.092755 163.762029 
L 109.724185 161.987684 
L 111.355614 159.223553 
L 112.987044 158.957821 
L 114.618474 160.195783 
L 116.249904 164.71654 
L 117.881334 161.593341 
L 119.512764 159.187364 
L 121.144194 160.047373 
L 122.775624 159.985664 
L 124.407053 161.598447 
L 126.038483 159.882226 
L 127.669913 158.571091 
L 129.301343 159.889285 
L 130.932773 158.530423 
L 132.564203 159.364086 
L 134.195633 160.39493 
L 135.827063 163.600259 
L 137.458492 159.771494 
L 139.089922 158.684939 
L 140.721352 157.757804 
L 142.352782 158.361209 
L 143.984212 157.656795 
L 145.615642 156.028891 
L 147.247072 157.678008 
L 150.509931 156.477108 
L 152.141361 156.70029 
L 153.772791 158.514587 
L 155.404221 159.966117 
L 157.035651 158.229205 
L 158.667081 153.565328 
L 160.298511 155.951754 
L 161.929941 159.700165 
L 163.56137 156.611514 
L 165.1928 156.625716 
L 166.82423 152.92324 
L 168.45566 156.453634 
L 170.08709 158.384424 
L 171.71852 154.140876 
L 173.34995 157.50683 
L 174.98138 157.436078 
L 176.61281 156.095349 
L 179.875669 155.605152 
L 181.507099 158.720496 
L 183.138529 155.482966 
L 184.769959 155.718252 
L 186.401389 155.561625 
L 188.032819 155.802378 
L 189.664249 160.249612 
L 191.295678 155.56128 
L 192.927108 154.213096 
L 194.558538 158.216126 
L 196.189968 152.256389 
L 197.821398 156.116308 
L 199.452828 158.237252 
L 201.084258 156.914821 
L 202.715688 154.714583 
L 204.347117 155.300168 
L 205.978547 155.259132 
L 207.609977 155.369312 
L 209.241407 154.863137 
L 210.872837 154.486071 
L 212.504267 156.766368 
L 214.135697 156.31293 
L 215.767127 157.781567 
L 217.398556 155.60565 
L 219.029986 157.448888 
L 220.661416 156.376658 
L 222.292846 156.648459 
L 223.924276 154.589465 
L 225.555706 157.817987 
L 227.187136 155.65068 
L 228.818566 158.936245 
L 230.449995 158.59879 
L 232.081425 155.644546 
L 233.712855 159.530848 
L 235.344285 152.494998 
L 236.975715 158.606955 
L 238.607145 154.897566 
L 240.238575 154.357117 
L 241.870005 156.186209 
L 243.501434 155.349136 
L 245.132864 155.806938 
L 246.764294 154.94593 
L 248.395724 155.493283 
L 250.027154 153.293578 
L 251.658584 154.654278 
L 253.290014 152.903943 
L 254.921444 159.062955 
L 256.552873 157.992225 
L 258.184303 157.121102 
L 259.815733 154.91777 
L 261.447163 156.798213 
L 263.078593 154.500468 
L 264.710023 156.110032 
L 266.341453 158.605362 
L 267.972883 155.814321 
L 269.604312 155.110199 
L 271.235742 153.975904 
L 272.867172 155.525182 
L 274.498602 156.362031 
L 276.130032 155.467016 
L 277.761462 156.295596 
L 279.392892 158.079056 
L 281.024322 155.70145 
L 282.655751 156.170777 
L 284.287181 157.600711 
L 285.918611 153.759921 
L 287.550041 154.611757 
L 289.181471 157.609603 
L 290.812901 154.598303 
L 294.075761 157.474922 
L 295.70719 157.71632 
L 297.33862 152.722949 
L 298.97005 154.332009 
L 300.60148 155.490481 
L 302.23291 155.671858 
L 303.86434 154.103444 
L 305.49577 156.70275 
L 307.1272 154.707013 
L 308.75863 155.58851 
L 312.021489 157.715034 
L 313.652919 156.700623 
L 315.284349 155.034498 
L 316.915779 154.128581 
L 318.547209 155.775206 
L 320.178639 154.350572 
L 321.810069 159.39789 
L 323.441498 157.301433 
L 325.072928 154.081847 
L 326.704358 156.400146 
L 328.335788 155.94735 
L 329.967218 156.735562 
L 331.598648 155.35549 
L 333.230078 155.979693 
L 334.861508 157.547172 
L 336.492937 156.690022 
L 338.124367 152.623408 
L 339.755797 158.926319 
L 341.387227 156.596727 
L 343.018657 156.28468 
L 344.650087 157.367419 
L 346.281517 154.856289 
L 347.912947 155.76939 
L 349.544376 155.248063 
L 351.175806 157.142891 
L 352.807236 154.958111 
L 354.438666 155.711428 
L 356.070096 156.621449 
L 357.701526 155.530443 
L 359.332956 155.03806 
L 360.964386 156.398739 
L 362.595815 154.147423 
L 364.227245 155.585631 
L 365.858675 156.820567 
L 367.490105 156.385185 
L 369.121535 156.563196 
L 370.752965 155.234981 
L 372.384395 156.426101 
L 374.015825 155.451367 
L 375.647254 155.836787 
L 378.910114 153.861051 
L 380.541544 152.763211 
L 382.172974 157.315958 
L 383.804404 156.160508 
L 385.435834 156.846737 
L 387.067264 158.786467 
L 388.698693 157.29263 
L 390.330123 153.722816 
L 391.961553 154.769023 
L 393.592983 156.294291 
L 395.224413 156.681648 
L 396.855843 155.88412 
L 398.487273 154.363388 
L 398.487273 154.363388 
" clip-path="url(#p2065ae3201)" style="fill: none; stroke: #0000ff; stroke-width: 1.5; stroke-linecap: square"/>
   </g>
   <g id="line2d_22">
    <path d="M 73.832727 244.770827 
L 75.464157 197.934107 
L 77.095587 170.646161 
L 78.727017 153.65177 
L 80.358447 147.488757 
L 81.989877 148.631572 
L 83.621307 144.987256 
L 85.252736 147.091554 
L 86.884166 143.956749 
L 88.515596 143.324992 
L 90.147026 143.013234 
L 91.778456 141.290355 
L 93.409886 140.544361 
L 95.041316 144.143813 
L 96.672746 140.259438 
L 98.304175 142.747337 
L 99.935605 141.059504 
L 101.567035 136.652749 
L 103.198465 138.338621 
L 104.829895 141.38083 
L 106.461325 138.012396 
L 108.092755 140.206666 
L 109.724185 138.51343 
L 111.355614 135.726684 
L 112.987044 136.785256 
L 114.618474 138.65791 
L 116.249904 140.752082 
L 117.881334 138.336996 
L 119.512764 134.311492 
L 121.144194 136.162728 
L 122.775624 139.522016 
L 124.407053 138.879881 
L 126.038483 135.193139 
L 127.669913 137.603316 
L 129.301343 135.940867 
L 130.932773 136.376395 
L 132.564203 137.154764 
L 134.195633 138.310249 
L 135.827063 142.293896 
L 137.458492 137.162818 
L 139.089922 138.555975 
L 140.721352 136.86433 
L 142.352782 136.536734 
L 143.984212 135.476631 
L 145.615642 133.571006 
L 147.247072 134.68905 
L 148.878502 134.056612 
L 150.509931 133.103872 
L 152.141361 134.636814 
L 153.772791 135.541516 
L 155.404221 134.771359 
L 157.035651 135.804351 
L 158.667081 129.958758 
L 160.298511 132.521101 
L 161.929941 138.609791 
L 163.56137 133.280498 
L 165.1928 133.135901 
L 166.82423 129.477082 
L 168.45566 133.581686 
L 170.08709 134.792336 
L 171.71852 131.014827 
L 173.34995 135.099837 
L 174.98138 133.436271 
L 176.61281 134.953304 
L 178.244239 135.367078 
L 179.875669 131.809312 
L 181.507099 137.392631 
L 183.138529 131.794129 
L 184.769959 133.084238 
L 186.401389 132.758478 
L 188.032819 133.196411 
L 189.664249 141.216992 
L 191.295678 132.792743 
L 192.927108 132.17402 
L 194.558538 134.987478 
L 196.189968 127.481126 
L 197.821398 133.578742 
L 199.452828 136.006768 
L 201.084258 134.402591 
L 202.715688 132.492199 
L 204.347117 132.862597 
L 205.978547 134.048575 
L 207.609977 132.237602 
L 209.241407 134.345569 
L 210.872837 131.607567 
L 212.504267 131.947634 
L 214.135697 134.772102 
L 215.767127 134.790007 
L 217.398556 133.831375 
L 219.029986 134.746845 
L 220.661416 135.480238 
L 222.292846 133.092099 
L 223.924276 131.739336 
L 225.555706 137.794685 
L 227.187136 133.460992 
L 228.818566 137.199266 
L 230.449995 136.597145 
L 232.081425 134.406406 
L 233.712855 138.735697 
L 235.344285 127.753606 
L 236.975715 138.425145 
L 238.607145 132.471829 
L 241.870005 133.161654 
L 243.501434 133.084633 
L 245.132864 134.868653 
L 246.764294 134.302476 
L 248.395724 133.349295 
L 250.027154 130.057274 
L 251.658584 132.684186 
L 253.290014 128.715522 
L 254.921444 138.096733 
L 256.552873 136.712943 
L 258.184303 136.153735 
L 259.815733 131.36753 
L 261.447163 135.411223 
L 263.078593 131.809255 
L 264.710023 135.197756 
L 266.341453 137.971204 
L 267.972883 133.516096 
L 269.604312 132.660721 
L 271.235742 130.730282 
L 272.867172 133.479984 
L 274.498602 134.478693 
L 276.130032 133.050143 
L 277.761462 133.606662 
L 279.392892 135.56858 
L 281.024322 132.750099 
L 282.655751 134.262022 
L 284.287181 134.253345 
L 285.918611 131.222199 
L 287.550041 131.06435 
L 289.181471 137.922558 
L 290.812901 132.07956 
L 292.444331 134.19575 
L 294.075761 136.694023 
L 295.70719 136.252538 
L 297.33862 128.621681 
L 298.97005 131.494979 
L 300.60148 131.998592 
L 302.23291 131.905758 
L 303.86434 130.52386 
L 305.49577 134.75306 
L 307.1272 131.748147 
L 310.390059 135.443794 
L 313.652919 136.429345 
L 315.284349 132.936436 
L 316.915779 131.2229 
L 318.547209 132.841081 
L 320.178639 132.640779 
L 321.810069 139.087897 
L 323.441498 135.806985 
L 325.072928 129.67486 
L 326.704358 135.62728 
L 328.335788 133.184021 
L 329.967218 136.067679 
L 331.598648 134.661212 
L 333.230078 136.1273 
L 336.492937 134.679672 
L 338.124367 131.29985 
L 339.755797 137.079365 
L 341.387227 135.133872 
L 343.018657 134.577427 
L 344.650087 135.517229 
L 346.281517 132.873361 
L 347.912947 134.676167 
L 349.544376 134.095699 
L 351.175806 134.485749 
L 352.807236 131.698937 
L 354.438666 135.105655 
L 356.070096 134.031383 
L 357.701526 134.391916 
L 359.332956 132.468033 
L 360.964386 136.241785 
L 362.595815 131.012312 
L 364.227245 132.236596 
L 365.858675 133.709312 
L 367.490105 132.456092 
L 369.121535 133.887366 
L 370.752965 132.411114 
L 372.384395 133.713143 
L 374.015825 132.386832 
L 375.647254 133.44036 
L 377.278684 132.146183 
L 378.910114 132.230249 
L 380.541544 129.778938 
L 382.172974 135.701374 
L 383.804404 134.696501 
L 385.435834 135.366507 
L 387.067264 138.756089 
L 388.698693 137.194462 
L 390.330123 130.781695 
L 391.961553 132.622726 
L 393.592983 135.631404 
L 395.224413 135.423301 
L 396.855843 131.629774 
L 398.487273 129.979091 
L 398.487273 129.979091 
" clip-path="url(#p2065ae3201)" style="fill: none; stroke-dasharray: 9.6,2.4,1.5,2.4; stroke-dashoffset: 0; stroke: #008000; stroke-width: 1.5"/>
   </g>
   <g id="line2d_23">
    <path d="M 73.832727 102.036678 
L 75.464157 88.047394 
L 77.095587 126.224057 
L 78.727017 83.934177 
L 80.358447 90.82736 
L 81.989877 83.826734 
L 83.621307 87.415785 
L 85.252736 68.035665 
L 86.884166 102.019903 
L 88.515596 105.157116 
L 90.147026 101.568794 
L 91.778456 78.33344 
L 93.409886 94.296803 
L 95.041316 90.847053 
L 96.672746 94.413074 
L 98.304175 87.693462 
L 99.935605 98.145972 
L 101.567035 98.317165 
L 103.198465 98.630898 
L 104.829895 56.80964 
L 106.461325 83.891715 
L 108.092755 91.024639 
L 109.724185 90.760752 
L 111.355614 77.389662 
L 112.987044 71.210198 
L 114.618474 87.530344 
L 116.249904 94.875824 
L 117.881334 81.308189 
L 119.512764 81.097217 
L 121.144194 71.746619 
L 122.775624 91.024801 
L 124.407053 94.494402 
L 126.038483 90.61403 
L 127.669913 88.030833 
L 129.301343 90.814647 
L 130.932773 80.774335 
L 132.564203 77.842765 
L 134.195633 77.985719 
L 135.827063 68.255502 
L 137.458492 90.733385 
L 139.089922 97.992147 
L 140.721352 99.084182 
L 142.352782 90.974504 
L 143.984212 77.541013 
L 145.615642 84.172458 
L 147.247072 84.228425 
L 148.878502 81.190924 
L 150.509931 53.568 
L 152.141361 74.575243 
L 153.772791 80.615027 
L 155.404221 74.929509 
L 157.035651 87.402479 
L 158.667081 74.126729 
L 160.298511 65.339372 
L 161.929941 94.201407 
L 163.56137 84.00337 
L 165.1928 91.112426 
L 166.82423 80.72788 
L 168.45566 86.979131 
L 170.08709 70.970635 
L 171.71852 65.309696 
L 173.34995 65.703523 
L 174.98138 71.010448 
L 176.61281 94.839286 
L 178.244239 101.309336 
L 179.875669 77.401854 
L 181.507099 101.509236 
L 183.138529 77.555044 
L 184.769959 87.830878 
L 186.401389 71.182932 
L 188.032819 68.170601 
L 189.664249 91.009538 
L 191.295678 90.759963 
L 192.927108 77.542632 
L 194.558538 90.593942 
L 196.189968 62.981932 
L 197.821398 87.446614 
L 199.452828 94.417663 
L 201.084258 90.759294 
L 202.715688 87.650946 
L 204.347117 87.430714 
L 205.978547 74.127498 
L 209.241407 101.33035 
L 210.872837 80.429682 
L 212.504267 71.249695 
L 214.135697 87.480582 
L 215.767127 98.264619 
L 217.398556 87.911198 
L 219.029986 80.419572 
L 220.661416 87.839576 
L 222.292846 77.067435 
L 223.924276 77.615254 
L 225.555706 91.037843 
L 227.187136 74.516415 
L 228.818566 91.38421 
L 230.449995 90.899866 
L 232.081425 97.749129 
L 233.712855 101.609425 
L 235.344285 59.445565 
L 236.975715 97.859745 
L 238.607145 84.255082 
L 240.238575 77.808459 
L 241.870005 87.012729 
L 243.501434 90.738788 
L 245.132864 91.595178 
L 246.764294 101.787947 
L 248.395724 77.559421 
L 250.027154 80.976874 
L 251.658584 87.287508 
L 253.290014 60.192945 
L 254.921444 97.865731 
L 256.552873 91.360214 
L 258.184303 94.161923 
L 259.815733 74.932621 
L 261.447163 97.545798 
L 263.078593 90.742057 
L 264.710023 91.480912 
L 266.341453 105.507315 
L 267.972883 84.360409 
L 269.604312 93.897255 
L 271.235742 91.014369 
L 272.867172 64.990885 
L 274.498602 94.368606 
L 276.130032 71.536564 
L 277.761462 90.731721 
L 279.392892 80.670652 
L 281.024322 77.788283 
L 282.655751 90.67389 
L 284.287181 77.160565 
L 285.918611 84.325765 
L 287.550041 72.044248 
L 289.181471 105.252649 
L 290.812901 84.358897 
L 292.444331 87.730062 
L 294.075761 105.539236 
L 295.70719 91.743499 
L 297.33862 68.372001 
L 298.97005 74.143623 
L 300.60148 87.465792 
L 302.23291 71.126642 
L 303.86434 84.434722 
L 305.49577 77.781412 
L 307.1272 87.823166 
L 308.75863 87.313119 
L 310.390059 101.491522 
L 312.021489 83.685409 
L 313.652919 74.096038 
L 315.284349 84.074546 
L 316.915779 80.563311 
L 318.547209 54.155099 
L 320.178639 90.288843 
L 321.810069 94.615553 
L 323.441498 77.517115 
L 325.072928 62.533756 
L 326.704358 94.501012 
L 328.335788 87.420999 
L 331.598648 87.742785 
L 333.230078 98.14667 
L 334.861508 90.733537 
L 336.492937 91.340969 
L 338.124367 69.118358 
L 339.755797 74.282759 
L 341.387227 87.41968 
L 343.018657 77.652651 
L 344.650087 90.591646 
L 346.281517 91.752127 
L 347.912947 97.568505 
L 349.544376 84.671214 
L 351.175806 87.839005 
L 352.807236 83.718082 
L 354.438666 80.459504 
L 356.070096 78.164281 
L 357.701526 94.892647 
L 359.332956 81.149942 
L 360.964386 88.01106 
L 362.595815 83.815306 
L 364.227245 81.149667 
L 365.858675 84.375748 
L 367.490105 65.378804 
L 369.121535 62.54115 
L 370.752965 84.692145 
L 372.384395 71.212791 
L 374.015825 94.293108 
L 375.647254 74.486978 
L 377.278684 87.43515 
L 378.910114 87.760586 
L 380.541544 68.518929 
L 382.172974 90.536984 
L 383.804404 78.17339 
L 385.435834 77.716666 
L 387.067264 83.887108 
L 388.698693 90.896844 
L 390.330123 81.286198 
L 391.961553 59.047817 
L 393.592983 94.819961 
L 395.224413 90.661014 
L 396.855843 71.025621 
L 398.487273 74.352901 
L 398.487273 74.352901 
" clip-path="url(#p2065ae3201)" style="fill: none; stroke: #ff0000; stroke-width: 1.5; stroke-linecap: square"/>
   </g>
   <g id="patch_3">
    <path d="M 57.6 307.584 
L 57.6 41.472 
" style="fill: none; stroke: #000000; stroke-width: 0.8; stroke-linejoin: miter; stroke-linecap: square"/>
   </g>
   <g id="patch_4">
    <path d="M 414.72 307.584 
L 414.72 41.472 
" style="fill: none; stroke: #000000; stroke-width: 0.8; stroke-linejoin: miter; stroke-linecap: square"/>
   </g>
   <g id="patch_5">
    <path d="M 57.6 307.584 
L 414.72 307.584 
" style="fill: none; stroke: #000000; stroke-width: 0.8; stroke-linejoin: miter; stroke-linecap: square"/>
   </g>
   <g id="patch_6">
    <path d="M 57.6 41.472 
L 414.72 41.472 
" style="fill: none; stroke: #000000; stroke-width: 0.8; stroke-linejoin: miter; stroke-linecap: square"/>
   </g>
   <g id="text_13">
    <!-- Średnie i najlepsze przystosowanie w każdej generacji -->
    <g transform="translate(73.26 35.472) scale(0.12 -0.12)">
     <defs>
      <path id="DejaVuSans-15a" d="M 2236 5921 
L 2814 5921 
L 2102 5096 
L 1623 5096 
L 2236 5921 
z
M 3425 4513 
L 3425 3897 
Q 3066 4069 2747 4153 
Q 2428 4238 2131 4238 
Q 1616 4238 1336 4038 
Q 1056 3838 1056 3469 
Q 1056 3159 1242 3001 
Q 1428 2844 1947 2747 
L 2328 2669 
Q 3034 2534 3370 2195 
Q 3706 1856 3706 1288 
Q 3706 609 3251 259 
Q 2797 -91 1919 -91 
Q 1588 -91 1214 -16 
Q 841 59 441 206 
L 441 856 
Q 825 641 1194 531 
Q 1563 422 1919 422 
Q 2459 422 2753 634 
Q 3047 847 3047 1241 
Q 3047 1584 2836 1778 
Q 2625 1972 2144 2069 
L 1759 2144 
Q 1053 2284 737 2584 
Q 422 2884 422 3419 
Q 422 4038 858 4394 
Q 1294 4750 2059 4750 
Q 2388 4750 2728 4690 
Q 3069 4631 3425 4513 
z
" transform="scale(0.015625)"/>
      <path id="DejaVuSans-64" d="M 2906 2969 
L 2906 4863 
L 3481 4863 
L 3481 0 
L 2906 0 
L 2906 525 
Q 2725 213 2448 61 
Q 2172 -91 1784 -91 
Q 1150 -91 751 415 
Q 353 922 353 1747 
Q 353 2572 751 3078 
Q 1150 3584 1784 3584 
Q 2172 3584 2448 3432 
Q 2725 3281 2906 2969 
z
M 947 1747 
Q 947 1113 1208 752 
Q 1469 391 1925 391 
Q 2381 391 2643 752 
Q 2906 1113 2906 1747 
Q 2906 2381 2643 2742 
Q 2381 3103 1925 3103 
Q 1469 3103 1208 2742 
Q 947 2381 947 1747 
z
" transform="scale(0.015625)"/>
      <path id="DejaVuSans-20" transform="scale(0.015625)"/>
      <path id="DejaVuSans-6c" d="M 603 4863 
L 1178 4863 
L 1178 0 
L 603 0 
L 603 4863 
z
" transform="scale(0.015625)"/>
      <path id="DejaVuSans-70" d="M 1159 525 
L 1159 -1331 
L 581 -1331 
L 581 3500 
L 1159 3500 
L 1159 2969 
Q 1341 3281 1617 3432 
Q 1894 3584 2278 3584 
Q 2916 3584 3314 3078 
Q 3713 2572 3713 1747 
Q 3713 922 3314 415 
Q 2916 -91 2278 -91 
Q 1894 -91 1617 61 
Q 1341 213 1159 525 
z
M 3116 1747 
Q 3116 2381 2855 2742 
Q 2594 3103 2138 3103 
Q 1681 3103 1420 2742 
Q 1159 2381 1159 1747 
Q 1159 1113 1420 752 
Q 1681 391 2138 391 
Q 2594 391 2855 752 
Q 3116 1113 3116 1747 
z
" transform="scale(0.015625)"/>
      <path id="DejaVuSans-6b" d="M 581 4863 
L 1159 4863 
L 1159 1991 
L 2875 3500 
L 3609 3500 
L 1753 1863 
L 3688 0 
L 2938 0 
L 1159 1709 
L 1159 0 
L 581 0 
L 581 4863 
z
" transform="scale(0.015625)"/>
      <path id="DejaVuSans-17c" d="M 1378 4863 
L 1953 4863 
L 1953 4134 
L 1378 4134 
L 1378 4863 
z
M 1672 3584 
L 1672 3584 
z
M 353 3500 
L 3084 3500 
L 3084 2975 
L 922 459 
L 3084 459 
L 3084 0 
L 275 0 
L 275 525 
L 2438 3041 
L 353 3041 
L 353 3500 
z
" transform="scale(0.015625)"/>
      <path id="DejaVuSans-67" d="M 2906 1791 
Q 2906 2416 2648 2759 
Q 2391 3103 1925 3103 
Q 1463 3103 1205 2759 
Q 947 2416 947 1791 
Q 947 1169 1205 825 
Q 1463 481 1925 481 
Q 2391 481 2648 825 
Q 2906 1169 2906 1791 
z
M 3481 434 
Q 3481 -459 3084 -895 
Q 2688 -1331 1869 -1331 
Q 1566 -1331 1297 -1286 
Q 1028 -1241 775 -1147 
L 775 -588 
Q 1028 -725 1275 -790 
Q 1522 -856 1778 -856 
Q 2344 -856 2625 -561 
Q 2906 -266 2906 331 
L 2906 616 
Q 2728 306 2450 153 
Q 2172 0 1784 0 
Q 1141 0 747 490 
Q 353 981 353 1791 
Q 353 2603 747 3093 
Q 1141 3584 1784 3584 
Q 2172 3584 2450 3431 
Q 2728 3278 2906 2969 
L 2906 3500 
L 3481 3500 
L 3481 434 
z
" transform="scale(0.015625)"/>
     </defs>
     <use xlink:href="#DejaVuSans-15a"/>
     <use xlink:href="#DejaVuSans-72" transform="translate(63.476562 0)"/>
     <use xlink:href="#DejaVuSans-65" transform="translate(102.339844 0)"/>
     <use xlink:href="#DejaVuSans-64" transform="translate(163.863281 0)"/>
     <use xlink:href="#DejaVuSans-6e" transform="translate(227.339844 0)"/>
     <use xlink:href="#DejaVuSans-69" transform="translate(290.71875 0)"/>
     <use xlink:href="#DejaVuSans-65" transform="translate(318.501953 0)"/>
     <use xlink:href="#DejaVuSans-20" transform="translate(380.025391 0)"/>
     <use xlink:href="#DejaVuSans-69" transform="translate(411.8125 0)"/>
     <use xlink:href="#DejaVuSans-20" transform="translate(439.595703 0)"/>
     <use xlink:href="#DejaVuSans-6e" transform="translate(471.382812 0)"/>
     <use xlink:href="#DejaVuSans-61" transform="translate(534.761719 0)"/>
     <use xlink:href="#DejaVuSans-6a" transform="translate(596.041016 0)"/>
     <use xlink:href="#DejaVuSans-6c" transform="translate(623.824219 0)"/>
     <use xlink:href="#DejaVuSans-65" transform="translate(651.607422 0)"/>
     <use xlink:href="#DejaVuSans-70" transform="translate(713.130859 0)"/>
     <use xlink:href="#DejaVuSans-73" transform="translate(776.607422 0)"/>
     <use xlink:href="#DejaVuSans-7a" transform="translate(828.707031 0)"/>
     <use xlink:href="#DejaVuSans-65" transform="translate(881.197266 0)"/>
     <use xlink:href="#DejaVuSans-20" transform="translate(942.720703 0)"/>
     <use xlink:href="#DejaVuSans-70" transform="translate(974.507812 0)"/>
     <use xlink:href="#DejaVuSans-72" transform="translate(1037.984375 0)"/>
     <use xlink:href="#DejaVuSans-7a" transform="translate(1079.097656 0)"/>
     <use xlink:href="#DejaVuSans-79" transform="translate(1131.587891 0)"/>
     <use xlink:href="#DejaVuSans-73" transform="translate(1190.767578 0)"/>
     <use xlink:href="#DejaVuSans-74" transform="translate(1242.867188 0)"/>
     <use xlink:href="#DejaVuSans-6f" transform="translate(1282.076172 0)"/>
     <use xlink:href="#DejaVuSans-73" transform="translate(1343.257812 0)"/>
     <use xlink:href="#DejaVuSans-6f" transform="translate(1395.357422 0)"/>
     <use xlink:href="#DejaVuSans-77" transform="translate(1456.539062 0)"/>
     <use xlink:href="#DejaVuSans-61" transform="translate(1538.326172 0)"/>
     <use xlink:href="#DejaVuSans-6e" transform="translate(1599.605469 0)"/>
     <use xlink:href="#DejaVuSans-69" transform="translate(1662.984375 0)"/>
     <use xlink:href="#DejaVuSans-65" transform="translate(1690.767578 0)"/>
     <use xlink:href="#DejaVuSans-20" transform="translate(1752.291016 0)"/>
     <use xlink:href="#DejaVuSans-77" transform="translate(1784.078125 0)"/>
     <use xlink:href="#DejaVuSans-20" transform="translate(1865.865234 0)"/>
     <use xlink:href="#DejaVuSans-6b" transform="translate(1897.652344 0)"/>
     <use xlink:href="#DejaVuSans-61" transform="translate(1953.8125 0)"/>
     <use xlink:href="#DejaVuSans-17c" transform="translate(2015.091797 0)"/>
     <use xlink:href="#DejaVuSans-64" transform="translate(2067.582031 0)"/>
     <use xlink:href="#DejaVuSans-65" transform="translate(2131.058594 0)"/>
     <use xlink:href="#DejaVuSans-6a" transform="translate(2192.582031 0)"/>
     <use xlink:href="#DejaVuSans-20" transform="translate(2220.365234 0)"/>
     <use xlink:href="#DejaVuSans-67" transform="translate(2252.152344 0)"/>
     <use xlink:href="#DejaVuSans-65" transform="translate(2315.628906 0)"/>
     <use xlink:href="#DejaVuSans-6e" transform="translate(2377.152344 0)"/>
     <use xlink:href="#DejaVuSans-65" transform="translate(2440.53125 0)"/>
     <use xlink:href="#DejaVuSans-72" transform="translate(2502.054688 0)"/>
     <use xlink:href="#DejaVuSans-61" transform="translate(2543.167969 0)"/>
     <use xlink:href="#DejaVuSans-63" transform="translate(2604.447266 0)"/>
     <use xlink:href="#DejaVuSans-6a" transform="translate(2659.427734 0)"/>
     <use xlink:href="#DejaVuSans-69" transform="translate(2687.210938 0)"/>
    </g>
   </g>
   <g id="legend_1">
    <g id="patch_7">
     <path d="M 279.790313 302.584 
L 407.72 302.584 
Q 409.72 302.584 409.72 300.584 
L 409.72 257.549625 
Q 409.72 255.549625 407.72 255.549625 
L 279.790313 255.549625 
Q 277.790313 255.549625 277.790313 257.549625 
L 277.790313 300.584 
Q 277.790313 302.584 279.790313 302.584 
z
" style="fill: #ffffff; opacity: 0.8; stroke: #cccccc; stroke-linejoin: miter"/>
    </g>
    <g id="line2d_24">
     <path d="M 281.790313 263.648062 
L 291.790313 263.648062 
L 301.790313 263.648062 
" style="fill: none; stroke: #0000ff; stroke-width: 1.5; stroke-linecap: square"/>
    </g>
    <g id="text_14">
     <!-- Średnia -->
     <g transform="translate(309.790313 267.148062) scale(0.1 -0.1)">
      <use xlink:href="#DejaVuSans-15a"/>
      <use xlink:href="#DejaVuSans-72" transform="translate(63.476562 0)"/>
      <use xlink:href="#DejaVuSans-65" transform="translate(102.339844 0)"/>
      <use xlink:href="#DejaVuSans-64" transform="translate(163.863281 0)"/>
      <use xlink:href="#DejaVuSans-6e" transform="translate(227.339844 0)"/>
      <use xlink:href="#DejaVuSans-69" transform="translate(290.71875 0)"/>
      <use xlink:href="#DejaVuSans-61" transform="translate(318.501953 0)"/>
     </g>
    </g>
    <g id="line2d_25">
     <path d="M 281.790313 278.326188 
L 291.790313 278.326188 
L 301.790313 278.326188 
" style="fill: none; stroke-dasharray: 9.6,2.4,1.5,2.4; stroke-dashoffset: 0; stroke: #008000; stroke-width: 1.5"/>
    </g>
    <g id="text_15">
     <!-- ±1 Odchylenie std. -->
     <g transform="translate(309.790313 281.826188) scale(0.1 -0.1)">
      <defs>
       <path id="DejaVuSans-b1" d="M 2944 4013 
L 2944 2803 
L 4684 2803 
L 4684 2272 
L 2944 2272 
L 2944 1063 
L 2419 1063 
L 2419 2272 
L 678 2272 
L 678 2803 
L 2419 2803 
L 2419 4013 
L 2944 4013 
z
M 678 531 
L 4684 531 
L 4684 0 
L 678 0 
L 678 531 
z
" transform="scale(0.015625)"/>
       <path id="DejaVuSans-4f" d="M 2522 4238 
Q 1834 4238 1429 3725 
Q 1025 3213 1025 2328 
Q 1025 1447 1429 934 
Q 1834 422 2522 422 
Q 3209 422 3611 934 
Q 4013 1447 4013 2328 
Q 4013 3213 3611 3725 
Q 3209 4238 2522 4238 
z
M 2522 4750 
Q 3503 4750 4090 4092 
Q 4678 3434 4678 2328 
Q 4678 1225 4090 567 
Q 3503 -91 2522 -91 
Q 1538 -91 948 565 
Q 359 1222 359 2328 
Q 359 3434 948 4092 
Q 1538 4750 2522 4750 
z
" transform="scale(0.015625)"/>
       <path id="DejaVuSans-68" d="M 3513 2113 
L 3513 0 
L 2938 0 
L 2938 2094 
Q 2938 2591 2744 2837 
Q 2550 3084 2163 3084 
Q 1697 3084 1428 2787 
Q 1159 2491 1159 1978 
L 1159 0 
L 581 0 
L 581 4863 
L 1159 4863 
L 1159 2956 
Q 1366 3272 1645 3428 
Q 1925 3584 2291 3584 
Q 2894 3584 3203 3211 
Q 3513 2838 3513 2113 
z
" transform="scale(0.015625)"/>
       <path id="DejaVuSans-2e" d="M 684 794 
L 1344 794 
L 1344 0 
L 684 0 
L 684 794 
z
" transform="scale(0.015625)"/>
      </defs>
      <use xlink:href="#DejaVuSans-b1"/>
      <use xlink:href="#DejaVuSans-31" transform="translate(83.789062 0)"/>
      <use xlink:href="#DejaVuSans-20" transform="translate(147.412109 0)"/>
      <use xlink:href="#DejaVuSans-4f" transform="translate(179.199219 0)"/>
      <use xlink:href="#DejaVuSans-64" transform="translate(257.910156 0)"/>
      <use xlink:href="#DejaVuSans-63" transform="translate(321.386719 0)"/>
      <use xlink:href="#DejaVuSans-68" transform="translate(376.367188 0)"/>
      <use xlink:href="#DejaVuSans-79" transform="translate(439.746094 0)"/>
      <use xlink:href="#DejaVuSans-6c" transform="translate(498.925781 0)"/>
      <use xlink:href="#DejaVuSans-65" transform="translate(526.708984 0)"/>
      <use xlink:href="#DejaVuSans-6e" transform="translate(588.232422 0)"/>
      <use xlink:href="#DejaVuSans-69" transform="translate(651.611328 0)"/>
      <use xlink:href="#DejaVuSans-65" transform="translate(679.394531 0)"/>
      <use xlink:href="#DejaVuSans-20" transform="translate(740.917969 0)"/>
      <use xlink:href="#DejaVuSans-73" transform="translate(772.705078 0)"/>
      <use xlink:href="#DejaVuSans-74" transform="translate(824.804688 0)"/>
      <use xlink:href="#DejaVuSans-64" transform="translate(864.013672 0)"/>
      <use xlink:href="#DejaVuSans-2e" transform="translate(927.490234 0)"/>
     </g>
    </g>
    <g id="line2d_26">
     <path d="M 281.790313 293.004312 
L 291.790313 293.004312 
L 301.790313 293.004312 
" style="fill: none; stroke: #ff0000; stroke-width: 1.5; stroke-linecap: square"/>
    </g>
    <g id="text_16">
     <!-- Najlepsze -->
     <g transform="translate(309.790313 296.504312) scale(0.1 -0.1)">
      <defs>
       <path id="DejaVuSans-4e" d="M 628 4666 
L 1478 4666 
L 3547 763 
L 3547 4666 
L 4159 4666 
L 4159 0 
L 3309 0 
L 1241 3903 
L 1241 0 
L 628 0 
L 628 4666 
z
" transform="scale(0.015625)"/>
      </defs>
      <use xlink:href="#DejaVuSans-4e"/>
      <use xlink:href="#DejaVuSans-61" transform="translate(74.804688 0)"/>
      <use xlink:href="#DejaVuSans-6a" transform="translate(136.083984 0)"/>
      <use xlink:href="#DejaVuSans-6c" transform="translate(163.867188 0)"/>
      <use xlink:href="#DejaVuSans-65" transform="translate(191.650391 0)"/>
      <use xlink:href="#DejaVuSans-70" transform="translate(253.173828 0)"/>
      <use xlink:href="#DejaVuSans-73" transform="translate(316.650391 0)"/>
      <use xlink:href="#DejaVuSans-7a" transform="translate(368.75 0)"/>
      <use xlink:href="#DejaVuSans-65" transform="translate(421.240234 0)"/>
     </g>
    </g>
   </g>
  </g>
 </g>
 <defs>
  <clipPath id="p2065ae3201">
   <rect x="57.6" y="41.472" width="357.12" height="266.112"/>
  </clipPath>
 </defs>
</svg>
