<?xml version="1.0" encoding="utf-8" standalone="no"?>
<!DOCTYPE svg PUBLIC "-//W3C//DTD SVG 1.1//EN"
  "http://www.w3.org/Graphics/SVG/1.1/DTD/svg11.dtd">
<svg xmlns:xlink="http://www.w3.org/1999/xlink" width="460.8pt" height="345.6pt" viewBox="0 0 460.8 345.6" xmlns="http://www.w3.org/2000/svg" version="1.1">
 <metadata>
  <rdf:RDF xmlns:dc="http://purl.org/dc/elements/1.1/" xmlns:cc="http://creativecommons.org/ns#" xmlns:rdf="http://www.w3.org/1999/02/22-rdf-syntax-ns#">
   <cc:Work>
    <dc:type rdf:resource="http://purl.org/dc/dcmitype/StillImage"/>
    <dc:date>2026-04-26T20:15:40.465832</dc:date>
    <dc:format>image/svg+xml</dc:format>
    <dc:creator>
     <cc:Agent>
      <dc:title>Matplotlib v3.10.8, https://matplotlib.org/</dc:title>
     </cc:Agent>
    </dc:creator>
   </cc:Work>
  </rdf:RDF>
 </metadata>
 <defs>
  <style type="text/css">*{stroke-linejoin: round; stroke-linecap: butt}</style>
 </defs>
 <g id="figure_1">
  <g id="patch_1">
   <path d="M 0 345.6 
L 460.8 345.6 
L 460.8 0 
L 0 0 
z
" style="fill: #ffffff"/>
  </g>
  <g id="axes_1">
   <g id="patch_2">
    <path d="M 57.6 307.584 
L 414.72 307.584 
L 414.72 41.472 
L 57.6 41.472 
z
" style="fill: #ffffff"/>
   </g>
   <g id="matplotlib.axis_1">
    <g id="xtick_1">
     <g id="line2d_1">
      <path d="M 72.201297 307.584 
L 72.201297 41.472 
" clip-path="url(#pf82cf11860)" style="fill: none; stroke: #b0b0b0; stroke-width: 0.8; stroke-linecap: square"/>
     </g>
     <g id="line2d_2">
      <defs>
       <path id="m1ae8dea93b" d="M 0 0 
L 0 3.5 
" style="stroke: #000000; stroke-width: 0.8"/>
      </defs>
      <g>
       <use xlink:href="#m1ae8dea93b" x="72.201297" y="307.584" style="stroke: #000000; stroke-width: 0.8"/>
      </g>
     </g>
     <g id="text_1">
      <!-- 0 -->
      <g transform="translate(69.020047 322.182437) scale(0.1 -0.1)">
       <defs>
        <path id="DejaVuSans-30" d="M 2034 4250 
Q 1547 4250 1301 3770 
Q 1056 3291 1056 2328 
Q 1056 1369 1301 889 
Q 1547 409 2034 409 
Q 2525 409 2770 889 
Q 3016 1369 3016 2328 
Q 3016 3291 2770 3770 
Q 2525 4250 2034 4250 
z
M 2034 4750 
Q 2819 4750 3233 4129 
Q 3647 3509 3647 2328 
Q 3647 1150 3233 529 
Q 2819 -91 2034 -91 
Q 1250 -91 836 529 
Q 422 1150 422 2328 
Q 422 3509 836 4129 
Q 1250 4750 2034 4750 
z
" transform="scale(0.015625)"/>
       </defs>
       <use xlink:href="#DejaVuSans-30"/>
      </g>
     </g>
    </g>
    <g id="xtick_2">
     <g id="line2d_3">
      <path d="M 112.987044 307.584 
L 112.987044 41.472 
" clip-path="url(#pf82cf11860)" style="fill: none; stroke: #b0b0b0; stroke-width: 0.8; stroke-linecap: square"/>
     </g>
     <g id="line2d_4">
      <g>
       <use xlink:href="#m1ae8dea93b" x="112.987044" y="307.584" style="stroke: #000000; stroke-width: 0.8"/>
      </g>
     </g>
     <g id="text_2">
      <!-- 25 -->
      <g transform="translate(106.624544 322.182437) scale(0.1 -0.1)">
       <defs>
        <path id="DejaVuSans-32" d="M 1228 531 
L 3431 531 
L 3431 0 
L 469 0 
L 469 531 
Q 828 903 1448 1529 
Q 2069 2156 2228 2338 
Q 2531 2678 2651 2914 
Q 2772 3150 2772 3378 
Q 2772 3750 2511 3984 
Q 2250 4219 1831 4219 
Q 1534 4219 1204 4116 
Q 875 4013 500 3803 
L 500 4441 
Q 881 4594 1212 4672 
Q 1544 4750 1819 4750 
Q 2544 4750 2975 4387 
Q 3406 4025 3406 3419 
Q 3406 3131 3298 2873 
Q 3191 2616 2906 2266 
Q 2828 2175 2409 1742 
Q 1991 1309 1228 531 
z
" transform="scale(0.015625)"/>
        <path id="DejaVuSans-35" d="M 691 4666 
L 3169 4666 
L 3169 4134 
L 1269 4134 
L 1269 2991 
Q 1406 3038 1543 3061 
Q 1681 3084 1819 3084 
Q 2600 3084 3056 2656 
Q 3513 2228 3513 1497 
Q 3513 744 3044 326 
Q 2575 -91 1722 -91 
Q 1428 -91 1123 -41 
Q 819 9 494 109 
L 494 744 
Q 775 591 1075 516 
Q 1375 441 1709 441 
Q 2250 441 2565 725 
Q 2881 1009 2881 1497 
Q 2881 1984 2565 2268 
Q 2250 2553 1709 2553 
Q 1456 2553 1204 2497 
Q 953 2441 691 2322 
L 691 4666 
z
" transform="scale(0.015625)"/>
       </defs>
       <use xlink:href="#DejaVuSans-32"/>
       <use xlink:href="#DejaVuSans-35" transform="translate(63.623047 0)"/>
      </g>
     </g>
    </g>
    <g id="xtick_3">
     <g id="line2d_5">
      <path d="M 153.772791 307.584 
L 153.772791 41.472 
" clip-path="url(#pf82cf11860)" style="fill: none; stroke: #b0b0b0; stroke-width: 0.8; stroke-linecap: square"/>
     </g>
     <g id="line2d_6">
      <g>
       <use xlink:href="#m1ae8dea93b" x="153.772791" y="307.584" style="stroke: #000000; stroke-width: 0.8"/>
      </g>
     </g>
     <g id="text_3">
      <!-- 50 -->
      <g transform="translate(147.410291 322.182437) scale(0.1 -0.1)">
       <use xlink:href="#DejaVuSans-35"/>
       <use xlink:href="#DejaVuSans-30" transform="translate(63.623047 0)"/>
      </g>
     </g>
    </g>
    <g id="xtick_4">
     <g id="line2d_7">
      <path d="M 194.558538 307.584 
L 194.558538 41.472 
" clip-path="url(#pf82cf11860)" style="fill: none; stroke: #b0b0b0; stroke-width: 0.8; stroke-linecap: square"/>
     </g>
     <g id="line2d_8">
      <g>
       <use xlink:href="#m1ae8dea93b" x="194.558538" y="307.584" style="stroke: #000000; stroke-width: 0.8"/>
      </g>
     </g>
     <g id="text_4">
      <!-- 75 -->
      <g transform="translate(188.196038 322.182437) scale(0.1 -0.1)">
       <defs>
        <path id="DejaVuSans-37" d="M 525 4666 
L 3525 4666 
L 3525 4397 
L 1831 0 
L 1172 0 
L 2766 4134 
L 525 4134 
L 525 4666 
z
" transform="scale(0.015625)"/>
       </defs>
       <use xlink:href="#DejaVuSans-37"/>
       <use xlink:href="#DejaVuSans-35" transform="translate(63.623047 0)"/>
      </g>
     </g>
    </g>
    <g id="xtick_5">
     <g id="line2d_9">
      <path d="M 235.344285 307.584 
L 235.344285 41.472 
" clip-path="url(#pf82cf11860)" style="fill: none; stroke: #b0b0b0; stroke-width: 0.8; stroke-linecap: square"/>
     </g>
     <g id="line2d_10">
      <g>
       <use xlink:href="#m1ae8dea93b" x="235.344285" y="307.584" style="stroke: #000000; stroke-width: 0.8"/>
      </g>
     </g>
     <g id="text_5">
      <!-- 100 -->
      <g transform="translate(225.800535 322.182437) scale(0.1 -0.1)">
       <defs>
        <path id="DejaVuSans-31" d="M 794 531 
L 1825 531 
L 1825 4091 
L 703 3866 
L 703 4441 
L 1819 4666 
L 2450 4666 
L 2450 531 
L 3481 531 
L 3481 0 
L 794 0 
L 794 531 
z
" transform="scale(0.015625)"/>
       </defs>
       <use xlink:href="#DejaVuSans-31"/>
       <use xlink:href="#DejaVuSans-30" transform="translate(63.623047 0)"/>
       <use xlink:href="#DejaVuSans-30" transform="translate(127.246094 0)"/>
      </g>
     </g>
    </g>
    <g id="xtick_6">
     <g id="line2d_11">
      <path d="M 276.130032 307.584 
L 276.130032 41.472 
" clip-path="url(#pf82cf11860)" style="fill: none; stroke: #b0b0b0; stroke-width: 0.8; stroke-linecap: square"/>
     </g>
     <g id="line2d_12">
      <g>
       <use xlink:href="#m1ae8dea93b" x="276.130032" y="307.584" style="stroke: #000000; stroke-width: 0.8"/>
      </g>
     </g>
     <g id="text_6">
      <!-- 125 -->
      <g transform="translate(266.586282 322.182437) scale(0.1 -0.1)">
       <use xlink:href="#DejaVuSans-31"/>
       <use xlink:href="#DejaVuSans-32" transform="translate(63.623047 0)"/>
       <use xlink:href="#DejaVuSans-35" transform="translate(127.246094 0)"/>
      </g>
     </g>
    </g>
    <g id="xtick_7">
     <g id="line2d_13">
      <path d="M 316.915779 307.584 
L 316.915779 41.472 
" clip-path="url(#pf82cf11860)" style="fill: none; stroke: #b0b0b0; stroke-width: 0.8; stroke-linecap: square"/>
     </g>
     <g id="line2d_14">
      <g>
       <use xlink:href="#m1ae8dea93b" x="316.915779" y="307.584" style="stroke: #000000; stroke-width: 0.8"/>
      </g>
     </g>
     <g id="text_7">
      <!-- 150 -->
      <g transform="translate(307.372029 322.182437) scale(0.1 -0.1)">
       <use xlink:href="#DejaVuSans-31"/>
       <use xlink:href="#DejaVuSans-35" transform="translate(63.623047 0)"/>
       <use xlink:href="#DejaVuSans-30" transform="translate(127.246094 0)"/>
      </g>
     </g>
    </g>
    <g id="xtick_8">
     <g id="line2d_15">
      <path d="M 357.701526 307.584 
L 357.701526 41.472 
" clip-path="url(#pf82cf11860)" style="fill: none; stroke: #b0b0b0; stroke-width: 0.8; stroke-linecap: square"/>
     </g>
     <g id="line2d_16">
      <g>
       <use xlink:href="#m1ae8dea93b" x="357.701526" y="307.584" style="stroke: #000000; stroke-width: 0.8"/>
      </g>
     </g>
     <g id="text_8">
      <!-- 175 -->
      <g transform="translate(348.157776 322.182437) scale(0.1 -0.1)">
       <use xlink:href="#DejaVuSans-31"/>
       <use xlink:href="#DejaVuSans-37" transform="translate(63.623047 0)"/>
       <use xlink:href="#DejaVuSans-35" transform="translate(127.246094 0)"/>
      </g>
     </g>
    </g>
    <g id="xtick_9">
     <g id="line2d_17">
      <path d="M 398.487273 307.584 
L 398.487273 41.472 
" clip-path="url(#pf82cf11860)" style="fill: none; stroke: #b0b0b0; stroke-width: 0.8; stroke-linecap: square"/>
     </g>
     <g id="line2d_18">
      <g>
       <use xlink:href="#m1ae8dea93b" x="398.487273" y="307.584" style="stroke: #000000; stroke-width: 0.8"/>
      </g>
     </g>
     <g id="text_9">
      <!-- 200 -->
      <g transform="translate(388.943523 322.182437) scale(0.1 -0.1)">
       <use xlink:href="#DejaVuSans-32"/>
       <use xlink:href="#DejaVuSans-30" transform="translate(63.623047 0)"/>
       <use xlink:href="#DejaVuSans-30" transform="translate(127.246094 0)"/>
      </g>
     </g>
    </g>
    <g id="text_10">
     <!-- Generacje -->
     <g transform="translate(210.629531 335.860562) scale(0.1 -0.1)">
      <defs>
       <path id="DejaVuSans-47" d="M 3809 666 
L 3809 1919 
L 2778 1919 
L 2778 2438 
L 4434 2438 
L 4434 434 
Q 4069 175 3628 42 
Q 3188 -91 2688 -91 
Q 1594 -91 976 548 
Q 359 1188 359 2328 
Q 359 3472 976 4111 
Q 1594 4750 2688 4750 
Q 3144 4750 3555 4637 
Q 3966 4525 4313 4306 
L 4313 3634 
Q 3963 3931 3569 4081 
Q 3175 4231 2741 4231 
Q 1884 4231 1454 3753 
Q 1025 3275 1025 2328 
Q 1025 1384 1454 906 
Q 1884 428 2741 428 
Q 3075 428 3337 486 
Q 3600 544 3809 666 
z
" transform="scale(0.015625)"/>
       <path id="DejaVuSans-65" d="M 3597 1894 
L 3597 1613 
L 953 1613 
Q 991 1019 1311 708 
Q 1631 397 2203 397 
Q 2534 397 2845 478 
Q 3156 559 3463 722 
L 3463 178 
Q 3153 47 2828 -22 
Q 2503 -91 2169 -91 
Q 1331 -91 842 396 
Q 353 884 353 1716 
Q 353 2575 817 3079 
Q 1281 3584 2069 3584 
Q 2775 3584 3186 3129 
Q 3597 2675 3597 1894 
z
M 3022 2063 
Q 3016 2534 2758 2815 
Q 2500 3097 2075 3097 
Q 1594 3097 1305 2825 
Q 1016 2553 972 2059 
L 3022 2063 
z
" transform="scale(0.015625)"/>
       <path id="DejaVuSans-6e" d="M 3513 2113 
L 3513 0 
L 2938 0 
L 2938 2094 
Q 2938 2591 2744 2837 
Q 2550 3084 2163 3084 
Q 1697 3084 1428 2787 
Q 1159 2491 1159 1978 
L 1159 0 
L 581 0 
L 581 3500 
L 1159 3500 
L 1159 2956 
Q 1366 3272 1645 3428 
Q 1925 3584 2291 3584 
Q 2894 3584 3203 3211 
Q 3513 2838 3513 2113 
z
" transform="scale(0.015625)"/>
       <path id="DejaVuSans-72" d="M 2631 2963 
Q 2534 3019 2420 3045 
Q 2306 3072 2169 3072 
Q 1681 3072 1420 2755 
Q 1159 2438 1159 1844 
L 1159 0 
L 581 0 
L 581 3500 
L 1159 3500 
L 1159 2956 
Q 1341 3275 1631 3429 
Q 1922 3584 2338 3584 
Q 2397 3584 2469 3576 
Q 2541 3569 2628 3553 
L 2631 2963 
z
" transform="scale(0.015625)"/>
       <path id="DejaVuSans-61" d="M 2194 1759 
Q 1497 1759 1228 1600 
Q 959 1441 959 1056 
Q 959 750 1161 570 
Q 1363 391 1709 391 
Q 2188 391 2477 730 
Q 2766 1069 2766 1631 
L 2766 1759 
L 2194 1759 
z
M 3341 1997 
L 3341 0 
L 2766 0 
L 2766 531 
Q 2569 213 2275 61 
Q 1981 -91 1556 -91 
Q 1019 -91 701 211 
Q 384 513 384 1019 
Q 384 1609 779 1909 
Q 1175 2209 1959 2209 
L 2766 2209 
L 2766 2266 
Q 2766 2663 2505 2880 
Q 2244 3097 1772 3097 
Q 1472 3097 1187 3025 
Q 903 2953 641 2809 
L 641 3341 
Q 956 3463 1253 3523 
Q 1550 3584 1831 3584 
Q 2591 3584 2966 3190 
Q 3341 2797 3341 1997 
z
" transform="scale(0.015625)"/>
       <path id="DejaVuSans-63" d="M 3122 3366 
L 3122 2828 
Q 2878 2963 2633 3030 
Q 2388 3097 2138 3097 
Q 1578 3097 1268 2742 
Q 959 2388 959 1747 
Q 959 1106 1268 751 
Q 1578 397 2138 397 
Q 2388 397 2633 464 
Q 2878 531 3122 666 
L 3122 134 
Q 2881 22 2623 -34 
Q 2366 -91 2075 -91 
Q 1284 -91 818 406 
Q 353 903 353 1747 
Q 353 2603 823 3093 
Q 1294 3584 2113 3584 
Q 2378 3584 2631 3529 
Q 2884 3475 3122 3366 
z
" transform="scale(0.015625)"/>
       <path id="DejaVuSans-6a" d="M 603 3500 
L 1178 3500 
L 1178 -63 
Q 1178 -731 923 -1031 
Q 669 -1331 103 -1331 
L -116 -1331 
L -116 -844 
L 38 -844 
Q 366 -844 484 -692 
Q 603 -541 603 -63 
L 603 3500 
z
M 603 4863 
L 1178 4863 
L 1178 4134 
L 603 4134 
L 603 4863 
z
" transform="scale(0.015625)"/>
      </defs>
      <use xlink:href="#DejaVuSans-47"/>
      <use xlink:href="#DejaVuSans-65" transform="translate(77.490234 0)"/>
      <use xlink:href="#DejaVuSans-6e" transform="translate(139.013672 0)"/>
      <use xlink:href="#DejaVuSans-65" transform="translate(202.392578 0)"/>
      <use xlink:href="#DejaVuSans-72" transform="translate(263.916016 0)"/>
      <use xlink:href="#DejaVuSans-61" transform="translate(305.029297 0)"/>
      <use xlink:href="#DejaVuSans-63" transform="translate(366.308594 0)"/>
      <use xlink:href="#DejaVuSans-6a" transform="translate(421.289062 0)"/>
      <use xlink:href="#DejaVuSans-65" transform="translate(449.072266 0)"/>
     </g>
    </g>
   </g>
   <g id="matplotlib.axis_2">
    <g id="ytick_1">
     <g id="line2d_19">
      <path d="M 57.6 147.113356 
L 414.72 147.113356 
" clip-path="url(#pf82cf11860)" style="fill: none; stroke: #b0b0b0; stroke-width: 0.8; stroke-linecap: square"/>
     </g>
     <g id="line2d_20">
      <defs>
       <path id="m13b3e37aed" d="M 0 0 
L -3.5 0 
" style="stroke: #000000; stroke-width: 0.8"/>
      </defs>
      <g>
       <use xlink:href="#m13b3e37aed" x="57.6" y="147.113356" style="stroke: #000000; stroke-width: 0.8"/>
      </g>
     </g>
     <g id="text_11">
      <!-- $\mathdefault{10^{2}}$ -->
      <g transform="translate(33 150.912575) scale(0.1 -0.1)">
       <use xlink:href="#DejaVuSans-31" transform="translate(0 0.765625)"/>
       <use xlink:href="#DejaVuSans-30" transform="translate(63.623047 0.765625)"/>
       <use xlink:href="#DejaVuSans-32" transform="translate(128.203125 39.046875) scale(0.7)"/>
      </g>
     </g>
    </g>
    <g id="text_12">
     <!-- Przystosowanie -->
     <g transform="translate(26.920312 213.170187) rotate(-90) scale(0.1 -0.1)">
      <defs>
       <path id="DejaVuSans-50" d="M 1259 4147 
L 1259 2394 
L 2053 2394 
Q 2494 2394 2734 2622 
Q 2975 2850 2975 3272 
Q 2975 3691 2734 3919 
Q 2494 4147 2053 4147 
L 1259 4147 
z
M 628 4666 
L 2053 4666 
Q 2838 4666 3239 4311 
Q 3641 3956 3641 3272 
Q 3641 2581 3239 2228 
Q 2838 1875 2053 1875 
L 1259 1875 
L 1259 0 
L 628 0 
L 628 4666 
z
" transform="scale(0.015625)"/>
       <path id="DejaVuSans-7a" d="M 353 3500 
L 3084 3500 
L 3084 2975 
L 922 459 
L 3084 459 
L 3084 0 
L 275 0 
L 275 525 
L 2438 3041 
L 353 3041 
L 353 3500 
z
" transform="scale(0.015625)"/>
       <path id="DejaVuSans-79" d="M 2059 -325 
Q 1816 -950 1584 -1140 
Q 1353 -1331 966 -1331 
L 506 -1331 
L 506 -850 
L 844 -850 
Q 1081 -850 1212 -737 
Q 1344 -625 1503 -206 
L 1606 56 
L 191 3500 
L 800 3500 
L 1894 763 
L 2988 3500 
L 3597 3500 
L 2059 -325 
z
" transform="scale(0.015625)"/>
       <path id="DejaVuSans-73" d="M 2834 3397 
L 2834 2853 
Q 2591 2978 2328 3040 
Q 2066 3103 1784 3103 
Q 1356 3103 1142 2972 
Q 928 2841 928 2578 
Q 928 2378 1081 2264 
Q 1234 2150 1697 2047 
L 1894 2003 
Q 2506 1872 2764 1633 
Q 3022 1394 3022 966 
Q 3022 478 2636 193 
Q 2250 -91 1575 -91 
Q 1294 -91 989 -36 
Q 684 19 347 128 
L 347 722 
Q 666 556 975 473 
Q 1284 391 1588 391 
Q 1994 391 2212 530 
Q 2431 669 2431 922 
Q 2431 1156 2273 1281 
Q 2116 1406 1581 1522 
L 1381 1569 
Q 847 1681 609 1914 
Q 372 2147 372 2553 
Q 372 3047 722 3315 
Q 1072 3584 1716 3584 
Q 2034 3584 2315 3537 
Q 2597 3491 2834 3397 
z
" transform="scale(0.015625)"/>
       <path id="DejaVuSans-74" d="M 1172 4494 
L 1172 3500 
L 2356 3500 
L 2356 3053 
L 1172 3053 
L 1172 1153 
Q 1172 725 1289 603 
Q 1406 481 1766 481 
L 2356 481 
L 2356 0 
L 1766 0 
Q 1100 0 847 248 
Q 594 497 594 1153 
L 594 3053 
L 172 3053 
L 172 3500 
L 594 3500 
L 594 4494 
L 1172 4494 
z
" transform="scale(0.015625)"/>
       <path id="DejaVuSans-6f" d="M 1959 3097 
Q 1497 3097 1228 2736 
Q 959 2375 959 1747 
Q 959 1119 1226 758 
Q 1494 397 1959 397 
Q 2419 397 2687 759 
Q 2956 1122 2956 1747 
Q 2956 2369 2687 2733 
Q 2419 3097 1959 3097 
z
M 1959 3584 
Q 2709 3584 3137 3096 
Q 3566 2609 3566 1747 
Q 3566 888 3137 398 
Q 2709 -91 1959 -91 
Q 1206 -91 779 398 
Q 353 888 353 1747 
Q 353 2609 779 3096 
Q 1206 3584 1959 3584 
z
" transform="scale(0.015625)"/>
       <path id="DejaVuSans-77" d="M 269 3500 
L 844 3500 
L 1563 769 
L 2278 3500 
L 2956 3500 
L 3675 769 
L 4391 3500 
L 4966 3500 
L 4050 0 
L 3372 0 
L 2619 2869 
L 1863 0 
L 1184 0 
L 269 3500 
z
" transform="scale(0.015625)"/>
       <path id="DejaVuSans-69" d="M 603 3500 
L 1178 3500 
L 1178 0 
L 603 0 
L 603 3500 
z
M 603 4863 
L 1178 4863 
L 1178 4134 
L 603 4134 
L 603 4863 
z
" transform="scale(0.015625)"/>
      </defs>
      <use xlink:href="#DejaVuSans-50"/>
      <use xlink:href="#DejaVuSans-72" transform="translate(58.552734 0)"/>
      <use xlink:href="#DejaVuSans-7a" transform="translate(99.666016 0)"/>
      <use xlink:href="#DejaVuSans-79" transform="translate(152.15625 0)"/>
      <use xlink:href="#DejaVuSans-73" transform="translate(211.335938 0)"/>
      <use xlink:href="#DejaVuSans-74" transform="translate(263.435547 0)"/>
      <use xlink:href="#DejaVuSans-6f" transform="translate(302.644531 0)"/>
      <use xlink:href="#DejaVuSans-73" transform="translate(363.826172 0)"/>
      <use xlink:href="#DejaVuSans-6f" transform="translate(415.925781 0)"/>
      <use xlink:href="#DejaVuSans-77" transform="translate(477.107422 0)"/>
      <use xlink:href="#DejaVuSans-61" transform="translate(558.894531 0)"/>
      <use xlink:href="#DejaVuSans-6e" transform="translate(620.173828 0)"/>
      <use xlink:href="#DejaVuSans-69" transform="translate(683.552734 0)"/>
      <use xlink:href="#DejaVuSans-65" transform="translate(711.335938 0)"/>
     </g>
    </g>
   </g>
   <g id="line2d_21">
    <path d="M 73.832727 295.488 
L 75.464157 238.323478 
L 77.095587 223.534081 
L 78.727017 207.569099 
L 80.358447 198.940093 
L 81.989877 187.952718 
L 83.621307 192.844733 
L 85.252736 179.46844 
L 86.884166 179.385308 
L 88.515596 179.914382 
L 90.147026 178.228874 
L 91.778456 177.996988 
L 93.409886 173.3174 
L 95.041316 171.530255 
L 96.672746 176.132513 
L 98.304175 173.42878 
L 101.567035 168.655802 
L 103.198465 172.32622 
L 104.829895 172.769737 
L 106.461325 169.604865 
L 108.092755 170.930051 
L 109.724185 169.211637 
L 111.355614 172.808404 
L 112.987044 169.922787 
L 114.618474 168.871349 
L 116.249904 174.329453 
L 117.881334 168.266918 
L 119.512764 169.807597 
L 121.144194 176.291071 
L 122.775624 171.970784 
L 124.407053 168.987652 
L 126.038483 171.237012 
L 127.669913 169.996153 
L 129.301343 171.427947 
L 130.932773 171.571126 
L 132.564203 170.512868 
L 134.195633 168.826225 
L 135.827063 169.44089 
L 137.458492 171.397052 
L 139.089922 171.797573 
L 140.721352 169.75684 
L 142.352782 169.590923 
L 143.984212 174.706601 
L 145.615642 169.095981 
L 147.247072 170.677678 
L 148.878502 173.159763 
L 150.509931 170.906796 
L 152.141361 171.506043 
L 153.772791 170.960806 
L 155.404221 172.905528 
L 157.035651 172.948869 
L 158.667081 171.714141 
L 160.298511 170.259512 
L 161.929941 169.620584 
L 163.56137 173.798954 
L 165.1928 170.117701 
L 166.82423 173.785018 
L 168.45566 171.673366 
L 170.08709 170.337064 
L 171.71852 173.035286 
L 173.34995 168.506459 
L 174.98138 172.98701 
L 176.61281 171.858232 
L 178.244239 172.555886 
L 179.875669 172.289037 
L 181.507099 173.002324 
L 184.769959 172.900794 
L 186.401389 171.379701 
L 188.032819 172.260809 
L 189.664249 171.275665 
L 191.295678 169.087002 
L 192.927108 170.546956 
L 194.558538 171.312251 
L 196.189968 170.343318 
L 197.821398 169.038438 
L 199.452828 169.834991 
L 201.084258 169.282574 
L 202.715688 169.867263 
L 204.347117 169.091008 
L 205.978547 170.894461 
L 209.241407 167.992922 
L 210.872837 170.543434 
L 212.504267 169.525332 
L 214.135697 170.999191 
L 215.767127 170.774138 
L 217.398556 168.462366 
L 219.029986 168.414875 
L 220.661416 166.114157 
L 222.292846 169.516679 
L 223.924276 168.788257 
L 225.555706 167.347964 
L 227.187136 169.661097 
L 228.818566 168.513501 
L 230.449995 166.579701 
L 232.081425 168.662642 
L 233.712855 169.864251 
L 235.344285 169.342282 
L 236.975715 170.247796 
L 238.607145 167.073671 
L 240.238575 171.088323 
L 241.870005 168.81908 
L 243.501434 170.99514 
L 245.132864 167.823587 
L 246.764294 166.91673 
L 248.395724 167.373947 
L 250.027154 169.458037 
L 251.658584 168.162394 
L 253.290014 167.721331 
L 254.921444 167.88117 
L 256.552873 169.409947 
L 258.184303 169.533256 
L 259.815733 170.190357 
L 261.447163 168.260171 
L 263.078593 168.03962 
L 264.710023 168.117815 
L 266.341453 168.506955 
L 267.972883 167.207908 
L 269.604312 168.728422 
L 271.235742 168.999521 
L 272.867172 167.903149 
L 274.498602 167.241407 
L 276.130032 169.305193 
L 277.761462 168.258525 
L 279.392892 167.426548 
L 281.024322 167.696084 
L 282.655751 167.434523 
L 284.287181 167.777643 
L 285.918611 168.503091 
L 287.550041 168.298659 
L 289.181471 167.19254 
L 290.812901 167.629025 
L 292.444331 167.51119 
L 294.075761 166.848893 
L 295.70719 170.593909 
L 297.33862 166.944887 
L 298.97005 169.314109 
L 300.60148 168.732634 
L 302.23291 169.429227 
L 303.86434 166.338878 
L 305.49577 167.310557 
L 307.1272 168.437437 
L 308.75863 166.530497 
L 310.390059 167.880611 
L 312.021489 167.030698 
L 313.652919 168.782903 
L 315.284349 168.927375 
L 316.915779 168.87665 
L 318.547209 169.239625 
L 320.178639 167.046631 
L 321.810069 166.178656 
L 323.441498 169.076899 
L 325.072928 170.065023 
L 326.704358 168.352281 
L 328.335788 167.995705 
L 329.967218 169.635498 
L 331.598648 169.760423 
L 333.230078 170.452102 
L 334.861508 168.460682 
L 336.492937 167.424648 
L 338.124367 168.454875 
L 339.755797 168.988081 
L 341.387227 167.757459 
L 343.018657 171.448115 
L 344.650087 170.260996 
L 346.281517 168.92871 
L 347.912947 168.998032 
L 349.544376 169.626443 
L 351.175806 167.29397 
L 352.807236 166.201203 
L 354.438666 168.247539 
L 356.070096 167.586686 
L 357.701526 168.595422 
L 359.332956 167.830322 
L 362.595815 169.675435 
L 364.227245 168.316943 
L 365.858675 167.248358 
L 367.490105 169.056195 
L 369.121535 165.424455 
L 370.752965 167.123341 
L 372.384395 169.028767 
L 374.015825 168.31794 
L 375.647254 169.409365 
L 377.278684 168.318119 
L 378.910114 168.952048 
L 380.541544 167.24716 
L 382.172974 167.516807 
L 383.804404 167.022364 
L 385.435834 169.07842 
L 387.067264 168.247715 
L 388.698693 166.849216 
L 390.330123 169.39125 
L 391.961553 169.392372 
L 393.592983 168.373665 
L 395.224413 168.59887 
L 396.855843 170.121376 
L 398.487273 167.024513 
L 398.487273 167.024513 
" clip-path="url(#pf82cf11860)" style="fill: none; stroke: #0000ff; stroke-width: 1.5; stroke-linecap: square"/>
   </g>
   <g id="line2d_22">
    <path d="M 73.832727 249.203753 
L 75.464157 193.839637 
L 78.727017 169.120253 
L 81.989877 153.507119 
L 83.621307 156.619991 
L 85.252736 152.272297 
L 86.884166 150.574129 
L 90.147026 153.526259 
L 91.778456 156.101271 
L 93.409886 147.633509 
L 95.041316 148.505048 
L 96.672746 150.569593 
L 98.304175 152.218751 
L 99.935605 150.949127 
L 101.567035 147.725265 
L 103.198465 148.974053 
L 104.829895 153.135095 
L 106.461325 149.534893 
L 108.092755 150.953125 
L 109.724185 148.150204 
L 111.355614 152.465979 
L 112.987044 147.423015 
L 114.618474 148.044997 
L 116.249904 148.190527 
L 117.881334 148.779762 
L 119.512764 150.127825 
L 121.144194 151.675743 
L 122.775624 154.079945 
L 124.407053 147.78913 
L 126.038483 149.730883 
L 127.669913 150.062872 
L 129.301343 150.786072 
L 130.932773 151.979189 
L 134.195633 148.04054 
L 137.458492 150.958004 
L 139.089922 152.071295 
L 140.721352 151.78848 
L 142.352782 150.925639 
L 143.984212 154.982048 
L 145.615642 150.516246 
L 147.247072 153.674452 
L 148.878502 153.053517 
L 150.509931 151.118746 
L 152.141361 152.574891 
L 153.772791 150.346832 
L 155.404221 155.381981 
L 157.035651 152.321478 
L 158.667081 150.508387 
L 160.298511 149.98474 
L 161.929941 149.208587 
L 163.56137 153.957704 
L 165.1928 150.354757 
L 166.82423 152.826743 
L 168.45566 150.479969 
L 170.08709 151.941375 
L 171.71852 154.34119 
L 173.34995 149.193829 
L 174.98138 153.708087 
L 176.61281 152.720476 
L 178.244239 153.274665 
L 179.875669 151.783584 
L 181.507099 151.713811 
L 184.769959 154.006222 
L 186.401389 152.892071 
L 189.664249 151.717694 
L 191.295678 150.058931 
L 192.927108 152.781824 
L 194.558538 152.600481 
L 196.189968 150.675828 
L 197.821398 149.391275 
L 199.452828 151.647908 
L 201.084258 152.289359 
L 202.715688 151.812549 
L 204.347117 150.1757 
L 205.978547 149.806295 
L 207.609977 149.226593 
L 209.241407 149.448449 
L 210.872837 152.652909 
L 212.504267 150.287274 
L 214.135697 152.328057 
L 215.767127 150.844453 
L 217.398556 147.437457 
L 219.029986 149.697329 
L 220.661416 146.037272 
L 222.292846 150.032636 
L 223.924276 149.40336 
L 225.555706 146.830609 
L 227.187136 150.875397 
L 228.818566 149.739862 
L 230.449995 147.478206 
L 232.081425 149.693745 
L 233.712855 149.646863 
L 235.344285 151.650719 
L 236.975715 149.837186 
L 238.607145 146.813563 
L 240.238575 151.850975 
L 241.870005 148.738027 
L 243.501434 151.994787 
L 245.132864 146.681457 
L 246.764294 146.096548 
L 248.395724 148.978369 
L 250.027154 151.186303 
L 251.658584 148.636229 
L 253.290014 148.401723 
L 254.921444 147.930895 
L 256.552873 151.191185 
L 258.184303 149.531032 
L 259.815733 152.000553 
L 261.447163 147.917978 
L 263.078593 148.146439 
L 264.710023 147.429795 
L 266.341453 149.07661 
L 267.972883 147.61657 
L 269.604312 150.183303 
L 271.235742 150.249749 
L 272.867172 147.800206 
L 274.498602 146.472032 
L 276.130032 149.057634 
L 277.761462 150.697356 
L 279.392892 148.094926 
L 281.024322 148.645458 
L 282.655751 147.089165 
L 284.287181 147.259035 
L 285.918611 147.927159 
L 287.550041 146.927862 
L 290.812901 148.274175 
L 292.444331 146.79698 
L 294.075761 146.724846 
L 295.70719 151.999823 
L 297.33862 148.427366 
L 298.97005 148.018918 
L 300.60148 148.138076 
L 302.23291 148.125155 
L 303.86434 145.170269 
L 305.49577 148.123104 
L 307.1272 149.432673 
L 308.75863 148.255259 
L 310.390059 148.304269 
L 312.021489 147.578347 
L 313.652919 149.978452 
L 315.284349 149.682586 
L 316.915779 148.688306 
L 318.547209 147.490424 
L 320.178639 146.49391 
L 321.810069 147.031959 
L 323.441498 150.139899 
L 325.072928 150.399825 
L 326.704358 149.35755 
L 328.335788 146.280486 
L 329.967218 150.02572 
L 331.598648 149.578257 
L 333.230078 151.823115 
L 334.861508 149.600937 
L 336.492937 147.815545 
L 338.124367 147.851011 
L 339.755797 151.459866 
L 341.387227 147.730784 
L 343.018657 152.537562 
L 344.650087 150.383926 
L 346.281517 149.471697 
L 347.912947 147.589704 
L 349.544376 151.366336 
L 351.175806 149.429277 
L 352.807236 147.278511 
L 354.438666 148.783638 
L 356.070096 145.620571 
L 357.701526 149.249186 
L 359.332956 148.577058 
L 360.964386 149.032338 
L 362.595815 150.780551 
L 364.227245 148.274343 
L 365.858675 146.980641 
L 367.490105 150.272959 
L 369.121535 144.911372 
L 370.752965 145.929452 
L 372.384395 149.66149 
L 374.015825 148.124874 
L 375.647254 149.864838 
L 377.278684 148.517866 
L 378.910114 149.086465 
L 380.541544 145.608657 
L 382.172974 145.349407 
L 383.804404 147.511152 
L 385.435834 150.576081 
L 387.067264 148.919578 
L 388.698693 146.150813 
L 390.330123 149.893529 
L 391.961553 151.12623 
L 393.592983 148.716421 
L 395.224413 148.771985 
L 396.855843 151.473095 
L 398.487273 145.68805 
L 398.487273 145.68805 
" clip-path="url(#pf82cf11860)" style="fill: none; stroke-dasharray: 9.6,2.4,1.5,2.4; stroke-dashoffset: 0; stroke: #008000; stroke-width: 1.5"/>
   </g>
   <g id="line2d_23">
    <path d="M 73.832727 171.075903 
L 75.464157 124.604754 
L 77.095587 136.766309 
L 78.727017 102.113006 
L 80.358447 116.881331 
L 81.989877 99.259354 
L 83.621307 120.981544 
L 85.252736 113.082331 
L 86.884166 106.024832 
L 88.515596 109.913095 
L 90.147026 106.179491 
L 91.778456 105.536847 
L 93.409886 116.585872 
L 95.041316 106.117508 
L 96.672746 89.564474 
L 98.304175 99.019147 
L 99.935605 109.798817 
L 101.567035 109.184678 
L 103.198465 80.223571 
L 104.829895 125.110026 
L 106.461325 109.166512 
L 108.092755 116.996595 
L 109.724185 102.538113 
L 111.355614 109.46874 
L 112.987044 102.625523 
L 114.618474 109.67859 
L 116.249904 99.916797 
L 117.881334 106.222086 
L 119.512764 110.284847 
L 121.144194 116.775739 
L 122.775624 116.867489 
L 124.407053 105.732959 
L 126.038483 116.765004 
L 127.669913 105.880864 
L 129.301343 113.017237 
L 130.932773 117.228504 
L 132.564203 86.676301 
L 134.195633 96.355494 
L 135.827063 93.165184 
L 137.458492 112.755938 
L 139.089922 120.296372 
L 142.352782 113.491005 
L 143.984212 116.694522 
L 145.615642 109.786007 
L 147.247072 124.89718 
L 148.878502 120.823352 
L 150.509931 113.437462 
L 152.141361 128.394839 
L 153.772791 113.41222 
L 157.035651 113.514373 
L 158.667081 109.846995 
L 160.298511 102.784368 
L 161.929941 105.951257 
L 163.56137 92.592517 
L 165.1928 103.020442 
L 166.82423 95.826551 
L 168.45566 99.426324 
L 170.08709 109.733838 
L 171.71852 109.966128 
L 173.34995 102.5954 
L 174.98138 109.655749 
L 176.61281 102.715803 
L 178.244239 92.525997 
L 179.875669 113.636476 
L 181.507099 109.944843 
L 183.138529 113.26863 
L 184.769959 117.108668 
L 186.401389 105.592148 
L 188.032819 95.726352 
L 189.664249 106.157884 
L 191.295678 120.748358 
L 192.927108 120.889935 
L 194.558538 124.408166 
L 196.189968 116.702613 
L 197.821398 83.195747 
L 199.452828 116.71665 
L 201.084258 116.855415 
L 202.715688 110.123677 
L 204.347117 102.660126 
L 205.978547 102.112036 
L 207.609977 89.366778 
L 209.241407 106.125652 
L 210.872837 113.347089 
L 212.504267 102.332071 
L 214.135697 109.483097 
L 215.767127 121.420045 
L 217.398556 95.782916 
L 219.029986 113.457329 
L 220.661416 96.405533 
L 222.292846 105.782956 
L 223.924276 102.618785 
L 225.555706 96.114607 
L 227.187136 106.238883 
L 228.818566 102.654932 
L 230.449995 102.442168 
L 232.081425 109.555813 
L 233.712855 105.957216 
L 235.344285 105.948765 
L 236.975715 116.709576 
L 238.607145 105.90249 
L 240.238575 86.176949 
L 241.870005 102.68343 
L 243.501434 99.220261 
L 245.132864 102.352926 
L 246.764294 103.19584 
L 248.395724 117.508444 
L 250.027154 109.415507 
L 251.658584 92.935661 
L 253.290014 83.229298 
L 254.921444 105.888127 
L 256.552873 109.979518 
L 258.184303 109.402738 
L 259.815733 106.116283 
L 261.447163 96.464758 
L 263.078593 109.334653 
L 264.710023 113.346514 
L 266.341453 99.94894 
L 267.972883 109.412583 
L 269.604312 112.732696 
L 271.235742 109.410035 
L 272.867172 89.35773 
L 274.498602 109.138269 
L 276.130032 99.167826 
L 277.761462 116.672407 
L 279.392892 102.44253 
L 281.024322 106.381982 
L 284.287181 92.499842 
L 285.918611 89.632296 
L 287.550041 75.80869 
L 289.181471 105.776968 
L 290.812901 113.093857 
L 292.444331 109.306639 
L 294.075761 95.77578 
L 297.33862 109.332242 
L 298.97005 109.76925 
L 300.60148 109.272553 
L 302.23291 92.548204 
L 303.86434 99.701258 
L 305.49577 113.090741 
L 307.1272 117.045114 
L 308.75863 117.274056 
L 310.390059 109.46192 
L 312.021489 106.052918 
L 313.652919 113.010571 
L 315.284349 106.037297 
L 316.915779 112.839227 
L 318.547209 106.65359 
L 320.178639 92.633712 
L 321.810069 99.147712 
L 323.441498 95.770637 
L 325.072928 99.39218 
L 326.704358 113.373947 
L 328.335788 53.568 
L 329.967218 99.716534 
L 331.598648 80.355003 
L 333.230078 106.573676 
L 334.861508 109.562588 
L 336.492937 109.190505 
L 338.124367 96.202374 
L 339.755797 105.83924 
L 341.387227 86.19703 
L 343.018657 102.098175 
L 344.650087 96.30112 
L 346.281517 109.328386 
L 347.912947 95.80141 
L 349.544376 116.443702 
L 351.175806 99.982302 
L 352.807236 109.775209 
L 354.438666 102.3451 
L 356.070096 83.431848 
L 357.701526 80.532857 
L 359.332956 106.112256 
L 360.964386 99.158875 
L 362.595815 109.90546 
L 364.227245 99.594526 
L 365.858675 80.370599 
L 367.490105 109.430229 
L 369.121535 112.96863 
L 370.752965 106.220739 
L 372.384395 109.499504 
L 374.015825 103.10663 
L 375.647254 106.273493 
L 377.278684 113.045396 
L 378.910114 102.562568 
L 380.541544 69.284316 
L 382.172974 83.149151 
L 383.804404 109.534001 
L 385.435834 109.743857 
L 387.067264 105.965191 
L 388.698693 102.548758 
L 390.330123 109.55038 
L 391.961553 120.466582 
L 393.592983 89.381557 
L 396.855843 109.594017 
L 398.487273 102.164357 
L 398.487273 102.164357 
" clip-path="url(#pf82cf11860)" style="fill: none; stroke: #ff0000; stroke-width: 1.5; stroke-linecap: square"/>
   </g>
   <g id="patch_3">
    <path d="M 57.6 307.584 
L 57.6 41.472 
" style="fill: none; stroke: #000000; stroke-width: 0.8; stroke-linejoin: miter; stroke-linecap: square"/>
   </g>
   <g id="patch_4">
    <path d="M 414.72 307.584 
L 414.72 41.472 
" style="fill: none; stroke: #000000; stroke-width: 0.8; stroke-linejoin: miter; stroke-linecap: square"/>
   </g>
   <g id="patch_5">
    <path d="M 57.6 307.584 
L 414.72 307.584 
" style="fill: none; stroke: #000000; stroke-width: 0.8; stroke-linejoin: miter; stroke-linecap: square"/>
   </g>
   <g id="patch_6">
    <path d="M 57.6 41.472 
L 414.72 41.472 
" style="fill: none; stroke: #000000; stroke-width: 0.8; stroke-linejoin: miter; stroke-linecap: square"/>
   </g>
   <g id="text_13">
    <!-- Średnie i najlepsze przystosowanie w każdej generacji -->
    <g transform="translate(73.26 35.472) scale(0.12 -0.12)">
     <defs>
      <path id="DejaVuSans-15a" d="M 2236 5921 
L 2814 5921 
L 2102 5096 
L 1623 5096 
L 2236 5921 
z
M 3425 4513 
L 3425 3897 
Q 3066 4069 2747 4153 
Q 2428 4238 2131 4238 
Q 1616 4238 1336 4038 
Q 1056 3838 1056 3469 
Q 1056 3159 1242 3001 
Q 1428 2844 1947 2747 
L 2328 2669 
Q 3034 2534 3370 2195 
Q 3706 1856 3706 1288 
Q 3706 609 3251 259 
Q 2797 -91 1919 -91 
Q 1588 -91 1214 -16 
Q 841 59 441 206 
L 441 856 
Q 825 641 1194 531 
Q 1563 422 1919 422 
Q 2459 422 2753 634 
Q 3047 847 3047 1241 
Q 3047 1584 2836 1778 
Q 2625 1972 2144 2069 
L 1759 2144 
Q 1053 2284 737 2584 
Q 422 2884 422 3419 
Q 422 4038 858 4394 
Q 1294 4750 2059 4750 
Q 2388 4750 2728 4690 
Q 3069 4631 3425 4513 
z
" transform="scale(0.015625)"/>
      <path id="DejaVuSans-64" d="M 2906 2969 
L 2906 4863 
L 3481 4863 
L 3481 0 
L 2906 0 
L 2906 525 
Q 2725 213 2448 61 
Q 2172 -91 1784 -91 
Q 1150 -91 751 415 
Q 353 922 353 1747 
Q 353 2572 751 3078 
Q 1150 3584 1784 3584 
Q 2172 3584 2448 3432 
Q 2725 3281 2906 2969 
z
M 947 1747 
Q 947 1113 1208 752 
Q 1469 391 1925 391 
Q 2381 391 2643 752 
Q 2906 1113 2906 1747 
Q 2906 2381 2643 2742 
Q 2381 3103 1925 3103 
Q 1469 3103 1208 2742 
Q 947 2381 947 1747 
z
" transform="scale(0.015625)"/>
      <path id="DejaVuSans-20" transform="scale(0.015625)"/>
      <path id="DejaVuSans-6c" d="M 603 4863 
L 1178 4863 
L 1178 0 
L 603 0 
L 603 4863 
z
" transform="scale(0.015625)"/>
      <path id="DejaVuSans-70" d="M 1159 525 
L 1159 -1331 
L 581 -1331 
L 581 3500 
L 1159 3500 
L 1159 2969 
Q 1341 3281 1617 3432 
Q 1894 3584 2278 3584 
Q 2916 3584 3314 3078 
Q 3713 2572 3713 1747 
Q 3713 922 3314 415 
Q 2916 -91 2278 -91 
Q 1894 -91 1617 61 
Q 1341 213 1159 525 
z
M 3116 1747 
Q 3116 2381 2855 2742 
Q 2594 3103 2138 3103 
Q 1681 3103 1420 2742 
Q 1159 2381 1159 1747 
Q 1159 1113 1420 752 
Q 1681 391 2138 391 
Q 2594 391 2855 752 
Q 3116 1113 3116 1747 
z
" transform="scale(0.015625)"/>
      <path id="DejaVuSans-6b" d="M 581 4863 
L 1159 4863 
L 1159 1991 
L 2875 3500 
L 3609 3500 
L 1753 1863 
L 3688 0 
L 2938 0 
L 1159 1709 
L 1159 0 
L 581 0 
L 581 4863 
z
" transform="scale(0.015625)"/>
      <path id="DejaVuSans-17c" d="M 1378 4863 
L 1953 4863 
L 1953 4134 
L 1378 4134 
L 1378 4863 
z
M 1672 3584 
L 1672 3584 
z
M 353 3500 
L 3084 3500 
L 3084 2975 
L 922 459 
L 3084 459 
L 3084 0 
L 275 0 
L 275 525 
L 2438 3041 
L 353 3041 
L 353 3500 
z
" transform="scale(0.015625)"/>
      <path id="DejaVuSans-67" d="M 2906 1791 
Q 2906 2416 2648 2759 
Q 2391 3103 1925 3103 
Q 1463 3103 1205 2759 
Q 947 2416 947 1791 
Q 947 1169 1205 825 
Q 1463 481 1925 481 
Q 2391 481 2648 825 
Q 2906 1169 2906 1791 
z
M 3481 434 
Q 3481 -459 3084 -895 
Q 2688 -1331 1869 -1331 
Q 1566 -1331 1297 -1286 
Q 1028 -1241 775 -1147 
L 775 -588 
Q 1028 -725 1275 -790 
Q 1522 -856 1778 -856 
Q 2344 -856 2625 -561 
Q 2906 -266 2906 331 
L 2906 616 
Q 2728 306 2450 153 
Q 2172 0 1784 0 
Q 1141 0 747 490 
Q 353 981 353 1791 
Q 353 2603 747 3093 
Q 1141 3584 1784 3584 
Q 2172 3584 2450 3431 
Q 2728 3278 2906 2969 
L 2906 3500 
L 3481 3500 
L 3481 434 
z
" transform="scale(0.015625)"/>
     </defs>
     <use xlink:href="#DejaVuSans-15a"/>
     <use xlink:href="#DejaVuSans-72" transform="translate(63.476562 0)"/>
     <use xlink:href="#DejaVuSans-65" transform="translate(102.339844 0)"/>
     <use xlink:href="#DejaVuSans-64" transform="translate(163.863281 0)"/>
     <use xlink:href="#DejaVuSans-6e" transform="translate(227.339844 0)"/>
     <use xlink:href="#DejaVuSans-69" transform="translate(290.71875 0)"/>
     <use xlink:href="#DejaVuSans-65" transform="translate(318.501953 0)"/>
     <use xlink:href="#DejaVuSans-20" transform="translate(380.025391 0)"/>
     <use xlink:href="#DejaVuSans-69" transform="translate(411.8125 0)"/>
     <use xlink:href="#DejaVuSans-20" transform="translate(439.595703 0)"/>
     <use xlink:href="#DejaVuSans-6e" transform="translate(471.382812 0)"/>
     <use xlink:href="#DejaVuSans-61" transform="translate(534.761719 0)"/>
     <use xlink:href="#DejaVuSans-6a" transform="translate(596.041016 0)"/>
     <use xlink:href="#DejaVuSans-6c" transform="translate(623.824219 0)"/>
     <use xlink:href="#DejaVuSans-65" transform="translate(651.607422 0)"/>
     <use xlink:href="#DejaVuSans-70" transform="translate(713.130859 0)"/>
     <use xlink:href="#DejaVuSans-73" transform="translate(776.607422 0)"/>
     <use xlink:href="#DejaVuSans-7a" transform="translate(828.707031 0)"/>
     <use xlink:href="#DejaVuSans-65" transform="translate(881.197266 0)"/>
     <use xlink:href="#DejaVuSans-20" transform="translate(942.720703 0)"/>
     <use xlink:href="#DejaVuSans-70" transform="translate(974.507812 0)"/>
     <use xlink:href="#DejaVuSans-72" transform="translate(1037.984375 0)"/>
     <use xlink:href="#DejaVuSans-7a" transform="translate(1079.097656 0)"/>
     <use xlink:href="#DejaVuSans-79" transform="translate(1131.587891 0)"/>
     <use xlink:href="#DejaVuSans-73" transform="translate(1190.767578 0)"/>
     <use xlink:href="#DejaVuSans-74" transform="translate(1242.867188 0)"/>
     <use xlink:href="#DejaVuSans-6f" transform="translate(1282.076172 0)"/>
     <use xlink:href="#DejaVuSans-73" transform="translate(1343.257812 0)"/>
     <use xlink:href="#DejaVuSans-6f" transform="translate(1395.357422 0)"/>
     <use xlink:href="#DejaVuSans-77" transform="translate(1456.539062 0)"/>
     <use xlink:href="#DejaVuSans-61" transform="translate(1538.326172 0)"/>
     <use xlink:href="#DejaVuSans-6e" transform="translate(1599.605469 0)"/>
     <use xlink:href="#DejaVuSans-69" transform="translate(1662.984375 0)"/>
     <use xlink:href="#DejaVuSans-65" transform="translate(1690.767578 0)"/>
     <use xlink:href="#DejaVuSans-20" transform="translate(1752.291016 0)"/>
     <use xlink:href="#DejaVuSans-77" transform="translate(1784.078125 0)"/>
     <use xlink:href="#DejaVuSans-20" transform="translate(1865.865234 0)"/>
     <use xlink:href="#DejaVuSans-6b" transform="translate(1897.652344 0)"/>
     <use xlink:href="#DejaVuSans-61" transform="translate(1953.8125 0)"/>
     <use xlink:href="#DejaVuSans-17c" transform="translate(2015.091797 0)"/>
     <use xlink:href="#DejaVuSans-64" transform="translate(2067.582031 0)"/>
     <use xlink:href="#DejaVuSans-65" transform="translate(2131.058594 0)"/>
     <use xlink:href="#DejaVuSans-6a" transform="translate(2192.582031 0)"/>
     <use xlink:href="#DejaVuSans-20" transform="translate(2220.365234 0)"/>
     <use xlink:href="#DejaVuSans-67" transform="translate(2252.152344 0)"/>
     <use xlink:href="#DejaVuSans-65" transform="translate(2315.628906 0)"/>
     <use xlink:href="#DejaVuSans-6e" transform="translate(2377.152344 0)"/>
     <use xlink:href="#DejaVuSans-65" transform="translate(2440.53125 0)"/>
     <use xlink:href="#DejaVuSans-72" transform="translate(2502.054688 0)"/>
     <use xlink:href="#DejaVuSans-61" transform="translate(2543.167969 0)"/>
     <use xlink:href="#DejaVuSans-63" transform="translate(2604.447266 0)"/>
     <use xlink:href="#DejaVuSans-6a" transform="translate(2659.427734 0)"/>
     <use xlink:href="#DejaVuSans-69" transform="translate(2687.210938 0)"/>
    </g>
   </g>
   <g id="legend_1">
    <g id="patch_7">
     <path d="M 279.790313 302.584 
L 407.72 302.584 
Q 409.72 302.584 409.72 300.584 
L 409.72 257.549625 
Q 409.72 255.549625 407.72 255.549625 
L 279.790313 255.549625 
Q 277.790313 255.549625 277.790313 257.549625 
L 277.790313 300.584 
Q 277.790313 302.584 279.790313 302.584 
z
" style="fill: #ffffff; opacity: 0.8; stroke: #cccccc; stroke-linejoin: miter"/>
    </g>
    <g id="line2d_24">
     <path d="M 281.790313 263.648062 
L 291.790313 263.648062 
L 301.790313 263.648062 
" style="fill: none; stroke: #0000ff; stroke-width: 1.5; stroke-linecap: square"/>
    </g>
    <g id="text_14">
     <!-- Średnia -->
     <g transform="translate(309.790313 267.148062) scale(0.1 -0.1)">
      <use xlink:href="#DejaVuSans-15a"/>
      <use xlink:href="#DejaVuSans-72" transform="translate(63.476562 0)"/>
      <use xlink:href="#DejaVuSans-65" transform="translate(102.339844 0)"/>
      <use xlink:href="#DejaVuSans-64" transform="translate(163.863281 0)"/>
      <use xlink:href="#DejaVuSans-6e" transform="translate(227.339844 0)"/>
      <use xlink:href="#DejaVuSans-69" transform="translate(290.71875 0)"/>
      <use xlink:href="#DejaVuSans-61" transform="translate(318.501953 0)"/>
     </g>
    </g>
    <g id="line2d_25">
     <path d="M 281.790313 278.326188 
L 291.790313 278.326188 
L 301.790313 278.326188 
" style="fill: none; stroke-dasharray: 9.6,2.4,1.5,2.4; stroke-dashoffset: 0; stroke: #008000; stroke-width: 1.5"/>
    </g>
    <g id="text_15">
     <!-- ±1 Odchylenie std. -->
     <g transform="translate(309.790313 281.826188) scale(0.1 -0.1)">
      <defs>
       <path id="DejaVuSans-b1" d="M 2944 4013 
L 2944 2803 
L 4684 2803 
L 4684 2272 
L 2944 2272 
L 2944 1063 
L 2419 1063 
L 2419 2272 
L 678 2272 
L 678 2803 
L 2419 2803 
L 2419 4013 
L 2944 4013 
z
M 678 531 
L 4684 531 
L 4684 0 
L 678 0 
L 678 531 
z
" transform="scale(0.015625)"/>
       <path id="DejaVuSans-4f" d="M 2522 4238 
Q 1834 4238 1429 3725 
Q 1025 3213 1025 2328 
Q 1025 1447 1429 934 
Q 1834 422 2522 422 
Q 3209 422 3611 934 
Q 4013 1447 4013 2328 
Q 4013 3213 3611 3725 
Q 3209 4238 2522 4238 
z
M 2522 4750 
Q 3503 4750 4090 4092 
Q 4678 3434 4678 2328 
Q 4678 1225 4090 567 
Q 3503 -91 2522 -91 
Q 1538 -91 948 565 
Q 359 1222 359 2328 
Q 359 3434 948 4092 
Q 1538 4750 2522 4750 
z
" transform="scale(0.015625)"/>
       <path id="DejaVuSans-68" d="M 3513 2113 
L 3513 0 
L 2938 0 
L 2938 2094 
Q 2938 2591 2744 2837 
Q 2550 3084 2163 3084 
Q 1697 3084 1428 2787 
Q 1159 2491 1159 1978 
L 1159 0 
L 581 0 
L 581 4863 
L 1159 4863 
L 1159 2956 
Q 1366 3272 1645 3428 
Q 1925 3584 2291 3584 
Q 2894 3584 3203 3211 
Q 3513 2838 3513 2113 
z
" transform="scale(0.015625)"/>
       <path id="DejaVuSans-2e" d="M 684 794 
L 1344 794 
L 1344 0 
L 684 0 
L 684 794 
z
" transform="scale(0.015625)"/>
      </defs>
      <use xlink:href="#DejaVuSans-b1"/>
      <use xlink:href="#DejaVuSans-31" transform="translate(83.789062 0)"/>
      <use xlink:href="#DejaVuSans-20" transform="translate(147.412109 0)"/>
      <use xlink:href="#DejaVuSans-4f" transform="translate(179.199219 0)"/>
      <use xlink:href="#DejaVuSans-64" transform="translate(257.910156 0)"/>
      <use xlink:href="#DejaVuSans-63" transform="translate(321.386719 0)"/>
      <use xlink:href="#DejaVuSans-68" transform="translate(376.367188 0)"/>
      <use xlink:href="#DejaVuSans-79" transform="translate(439.746094 0)"/>
      <use xlink:href="#DejaVuSans-6c" transform="translate(498.925781 0)"/>
      <use xlink:href="#DejaVuSans-65" transform="translate(526.708984 0)"/>
      <use xlink:href="#DejaVuSans-6e" transform="translate(588.232422 0)"/>
      <use xlink:href="#DejaVuSans-69" transform="translate(651.611328 0)"/>
      <use xlink:href="#DejaVuSans-65" transform="translate(679.394531 0)"/>
      <use xlink:href="#DejaVuSans-20" transform="translate(740.917969 0)"/>
      <use xlink:href="#DejaVuSans-73" transform="translate(772.705078 0)"/>
      <use xlink:href="#DejaVuSans-74" transform="translate(824.804688 0)"/>
      <use xlink:href="#DejaVuSans-64" transform="translate(864.013672 0)"/>
      <use xlink:href="#DejaVuSans-2e" transform="translate(927.490234 0)"/>
     </g>
    </g>
    <g id="line2d_26">
     <path d="M 281.790313 293.004312 
L 291.790313 293.004312 
L 301.790313 293.004312 
" style="fill: none; stroke: #ff0000; stroke-width: 1.5; stroke-linecap: square"/>
    </g>
    <g id="text_16">
     <!-- Najlepsze -->
     <g transform="translate(309.790313 296.504312) scale(0.1 -0.1)">
      <defs>
       <path id="DejaVuSans-4e" d="M 628 4666 
L 1478 4666 
L 3547 763 
L 3547 4666 
L 4159 4666 
L 4159 0 
L 3309 0 
L 1241 3903 
L 1241 0 
L 628 0 
L 628 4666 
z
" transform="scale(0.015625)"/>
      </defs>
      <use xlink:href="#DejaVuSans-4e"/>
      <use xlink:href="#DejaVuSans-61" transform="translate(74.804688 0)"/>
      <use xlink:href="#DejaVuSans-6a" transform="translate(136.083984 0)"/>
      <use xlink:href="#DejaVuSans-6c" transform="translate(163.867188 0)"/>
      <use xlink:href="#DejaVuSans-65" transform="translate(191.650391 0)"/>
      <use xlink:href="#DejaVuSans-70" transform="translate(253.173828 0)"/>
      <use xlink:href="#DejaVuSans-73" transform="translate(316.650391 0)"/>
      <use xlink:href="#DejaVuSans-7a" transform="translate(368.75 0)"/>
      <use xlink:href="#DejaVuSans-65" transform="translate(421.240234 0)"/>
     </g>
    </g>
   </g>
  </g>
 </g>
 <defs>
  <clipPath id="pf82cf11860">
   <rect x="57.6" y="41.472" width="357.12" height="266.112"/>
  </clipPath>
 </defs>
</svg>
