<?xml version="1.0" encoding="utf-8" standalone="no"?>
<!DOCTYPE svg PUBLIC "-//W3C//DTD SVG 1.1//EN"
  "http://www.w3.org/Graphics/SVG/1.1/DTD/svg11.dtd">
<svg xmlns:xlink="http://www.w3.org/1999/xlink" width="460.8pt" height="345.6pt" viewBox="0 0 460.8 345.6" xmlns="http://www.w3.org/2000/svg" version="1.1">
 <metadata>
  <rdf:RDF xmlns:dc="http://purl.org/dc/elements/1.1/" xmlns:cc="http://creativecommons.org/ns#" xmlns:rdf="http://www.w3.org/1999/02/22-rdf-syntax-ns#">
   <cc:Work>
    <dc:type rdf:resource="http://purl.org/dc/dcmitype/StillImage"/>
    <dc:date>2026-04-26T20:11:42.987442</dc:date>
    <dc:format>image/svg+xml</dc:format>
    <dc:creator>
     <cc:Agent>
      <dc:title>Matplotlib v3.10.8, https://matplotlib.org/</dc:title>
     </cc:Agent>
    </dc:creator>
   </cc:Work>
  </rdf:RDF>
 </metadata>
 <defs>
  <style type="text/css">*{stroke-linejoin: round; stroke-linecap: butt}</style>
 </defs>
 <g id="figure_1">
  <g id="patch_1">
   <path d="M 0 345.6 
L 460.8 345.6 
L 460.8 0 
L 0 0 
z
" style="fill: #ffffff"/>
  </g>
  <g id="axes_1">
   <g id="patch_2">
    <path d="M 57.6 307.584 
L 414.72 307.584 
L 414.72 41.472 
L 57.6 41.472 
z
" style="fill: #ffffff"/>
   </g>
   <g id="matplotlib.axis_1">
    <g id="xtick_1">
     <g id="line2d_1">
      <path d="M 72.201297 307.584 
L 72.201297 41.472 
" clip-path="url(#p0ff3f3efff)" style="fill: none; stroke: #b0b0b0; stroke-width: 0.8; stroke-linecap: square"/>
     </g>
     <g id="line2d_2">
      <defs>
       <path id="mcc55529761" d="M 0 0 
L 0 3.5 
" style="stroke: #000000; stroke-width: 0.8"/>
      </defs>
      <g>
       <use xlink:href="#mcc55529761" x="72.201297" y="307.584" style="stroke: #000000; stroke-width: 0.8"/>
      </g>
     </g>
     <g id="text_1">
      <!-- 0 -->
      <g transform="translate(69.020047 322.182437) scale(0.1 -0.1)">
       <defs>
        <path id="DejaVuSans-30" d="M 2034 4250 
Q 1547 4250 1301 3770 
Q 1056 3291 1056 2328 
Q 1056 1369 1301 889 
Q 1547 409 2034 409 
Q 2525 409 2770 889 
Q 3016 1369 3016 2328 
Q 3016 3291 2770 3770 
Q 2525 4250 2034 4250 
z
M 2034 4750 
Q 2819 4750 3233 4129 
Q 3647 3509 3647 2328 
Q 3647 1150 3233 529 
Q 2819 -91 2034 -91 
Q 1250 -91 836 529 
Q 422 1150 422 2328 
Q 422 3509 836 4129 
Q 1250 4750 2034 4750 
z
" transform="scale(0.015625)"/>
       </defs>
       <use xlink:href="#DejaVuSans-30"/>
      </g>
     </g>
    </g>
    <g id="xtick_2">
     <g id="line2d_3">
      <path d="M 112.987044 307.584 
L 112.987044 41.472 
" clip-path="url(#p0ff3f3efff)" style="fill: none; stroke: #b0b0b0; stroke-width: 0.8; stroke-linecap: square"/>
     </g>
     <g id="line2d_4">
      <g>
       <use xlink:href="#mcc55529761" x="112.987044" y="307.584" style="stroke: #000000; stroke-width: 0.8"/>
      </g>
     </g>
     <g id="text_2">
      <!-- 25 -->
      <g transform="translate(106.624544 322.182437) scale(0.1 -0.1)">
       <defs>
        <path id="DejaVuSans-32" d="M 1228 531 
L 3431 531 
L 3431 0 
L 469 0 
L 469 531 
Q 828 903 1448 1529 
Q 2069 2156 2228 2338 
Q 2531 2678 2651 2914 
Q 2772 3150 2772 3378 
Q 2772 3750 2511 3984 
Q 2250 4219 1831 4219 
Q 1534 4219 1204 4116 
Q 875 4013 500 3803 
L 500 4441 
Q 881 4594 1212 4672 
Q 1544 4750 1819 4750 
Q 2544 4750 2975 4387 
Q 3406 4025 3406 3419 
Q 3406 3131 3298 2873 
Q 3191 2616 2906 2266 
Q 2828 2175 2409 1742 
Q 1991 1309 1228 531 
z
" transform="scale(0.015625)"/>
        <path id="DejaVuSans-35" d="M 691 4666 
L 3169 4666 
L 3169 4134 
L 1269 4134 
L 1269 2991 
Q 1406 3038 1543 3061 
Q 1681 3084 1819 3084 
Q 2600 3084 3056 2656 
Q 3513 2228 3513 1497 
Q 3513 744 3044 326 
Q 2575 -91 1722 -91 
Q 1428 -91 1123 -41 
Q 819 9 494 109 
L 494 744 
Q 775 591 1075 516 
Q 1375 441 1709 441 
Q 2250 441 2565 725 
Q 2881 1009 2881 1497 
Q 2881 1984 2565 2268 
Q 2250 2553 1709 2553 
Q 1456 2553 1204 2497 
Q 953 2441 691 2322 
L 691 4666 
z
" transform="scale(0.015625)"/>
       </defs>
       <use xlink:href="#DejaVuSans-32"/>
       <use xlink:href="#DejaVuSans-35" transform="translate(63.623047 0)"/>
      </g>
     </g>
    </g>
    <g id="xtick_3">
     <g id="line2d_5">
      <path d="M 153.772791 307.584 
L 153.772791 41.472 
" clip-path="url(#p0ff3f3efff)" style="fill: none; stroke: #b0b0b0; stroke-width: 0.8; stroke-linecap: square"/>
     </g>
     <g id="line2d_6">
      <g>
       <use xlink:href="#mcc55529761" x="153.772791" y="307.584" style="stroke: #000000; stroke-width: 0.8"/>
      </g>
     </g>
     <g id="text_3">
      <!-- 50 -->
      <g transform="translate(147.410291 322.182437) scale(0.1 -0.1)">
       <use xlink:href="#DejaVuSans-35"/>
       <use xlink:href="#DejaVuSans-30" transform="translate(63.623047 0)"/>
      </g>
     </g>
    </g>
    <g id="xtick_4">
     <g id="line2d_7">
      <path d="M 194.558538 307.584 
L 194.558538 41.472 
" clip-path="url(#p0ff3f3efff)" style="fill: none; stroke: #b0b0b0; stroke-width: 0.8; stroke-linecap: square"/>
     </g>
     <g id="line2d_8">
      <g>
       <use xlink:href="#mcc55529761" x="194.558538" y="307.584" style="stroke: #000000; stroke-width: 0.8"/>
      </g>
     </g>
     <g id="text_4">
      <!-- 75 -->
      <g transform="translate(188.196038 322.182437) scale(0.1 -0.1)">
       <defs>
        <path id="DejaVuSans-37" d="M 525 4666 
L 3525 4666 
L 3525 4397 
L 1831 0 
L 1172 0 
L 2766 4134 
L 525 4134 
L 525 4666 
z
" transform="scale(0.015625)"/>
       </defs>
       <use xlink:href="#DejaVuSans-37"/>
       <use xlink:href="#DejaVuSans-35" transform="translate(63.623047 0)"/>
      </g>
     </g>
    </g>
    <g id="xtick_5">
     <g id="line2d_9">
      <path d="M 235.344285 307.584 
L 235.344285 41.472 
" clip-path="url(#p0ff3f3efff)" style="fill: none; stroke: #b0b0b0; stroke-width: 0.8; stroke-linecap: square"/>
     </g>
     <g id="line2d_10">
      <g>
       <use xlink:href="#mcc55529761" x="235.344285" y="307.584" style="stroke: #000000; stroke-width: 0.8"/>
      </g>
     </g>
     <g id="text_5">
      <!-- 100 -->
      <g transform="translate(225.800535 322.182437) scale(0.1 -0.1)">
       <defs>
        <path id="DejaVuSans-31" d="M 794 531 
L 1825 531 
L 1825 4091 
L 703 3866 
L 703 4441 
L 1819 4666 
L 2450 4666 
L 2450 531 
L 3481 531 
L 3481 0 
L 794 0 
L 794 531 
z
" transform="scale(0.015625)"/>
       </defs>
       <use xlink:href="#DejaVuSans-31"/>
       <use xlink:href="#DejaVuSans-30" transform="translate(63.623047 0)"/>
       <use xlink:href="#DejaVuSans-30" transform="translate(127.246094 0)"/>
      </g>
     </g>
    </g>
    <g id="xtick_6">
     <g id="line2d_11">
      <path d="M 276.130032 307.584 
L 276.130032 41.472 
" clip-path="url(#p0ff3f3efff)" style="fill: none; stroke: #b0b0b0; stroke-width: 0.8; stroke-linecap: square"/>
     </g>
     <g id="line2d_12">
      <g>
       <use xlink:href="#mcc55529761" x="276.130032" y="307.584" style="stroke: #000000; stroke-width: 0.8"/>
      </g>
     </g>
     <g id="text_6">
      <!-- 125 -->
      <g transform="translate(266.586282 322.182437) scale(0.1 -0.1)">
       <use xlink:href="#DejaVuSans-31"/>
       <use xlink:href="#DejaVuSans-32" transform="translate(63.623047 0)"/>
       <use xlink:href="#DejaVuSans-35" transform="translate(127.246094 0)"/>
      </g>
     </g>
    </g>
    <g id="xtick_7">
     <g id="line2d_13">
      <path d="M 316.915779 307.584 
L 316.915779 41.472 
" clip-path="url(#p0ff3f3efff)" style="fill: none; stroke: #b0b0b0; stroke-width: 0.8; stroke-linecap: square"/>
     </g>
     <g id="line2d_14">
      <g>
       <use xlink:href="#mcc55529761" x="316.915779" y="307.584" style="stroke: #000000; stroke-width: 0.8"/>
      </g>
     </g>
     <g id="text_7">
      <!-- 150 -->
      <g transform="translate(307.372029 322.182437) scale(0.1 -0.1)">
       <use xlink:href="#DejaVuSans-31"/>
       <use xlink:href="#DejaVuSans-35" transform="translate(63.623047 0)"/>
       <use xlink:href="#DejaVuSans-30" transform="translate(127.246094 0)"/>
      </g>
     </g>
    </g>
    <g id="xtick_8">
     <g id="line2d_15">
      <path d="M 357.701526 307.584 
L 357.701526 41.472 
" clip-path="url(#p0ff3f3efff)" style="fill: none; stroke: #b0b0b0; stroke-width: 0.8; stroke-linecap: square"/>
     </g>
     <g id="line2d_16">
      <g>
       <use xlink:href="#mcc55529761" x="357.701526" y="307.584" style="stroke: #000000; stroke-width: 0.8"/>
      </g>
     </g>
     <g id="text_8">
      <!-- 175 -->
      <g transform="translate(348.157776 322.182437) scale(0.1 -0.1)">
       <use xlink:href="#DejaVuSans-31"/>
       <use xlink:href="#DejaVuSans-37" transform="translate(63.623047 0)"/>
       <use xlink:href="#DejaVuSans-35" transform="translate(127.246094 0)"/>
      </g>
     </g>
    </g>
    <g id="xtick_9">
     <g id="line2d_17">
      <path d="M 398.487273 307.584 
L 398.487273 41.472 
" clip-path="url(#p0ff3f3efff)" style="fill: none; stroke: #b0b0b0; stroke-width: 0.8; stroke-linecap: square"/>
     </g>
     <g id="line2d_18">
      <g>
       <use xlink:href="#mcc55529761" x="398.487273" y="307.584" style="stroke: #000000; stroke-width: 0.8"/>
      </g>
     </g>
     <g id="text_9">
      <!-- 200 -->
      <g transform="translate(388.943523 322.182437) scale(0.1 -0.1)">
       <use xlink:href="#DejaVuSans-32"/>
       <use xlink:href="#DejaVuSans-30" transform="translate(63.623047 0)"/>
       <use xlink:href="#DejaVuSans-30" transform="translate(127.246094 0)"/>
      </g>
     </g>
    </g>
    <g id="text_10">
     <!-- Generacje -->
     <g transform="translate(210.629531 335.860562) scale(0.1 -0.1)">
      <defs>
       <path id="DejaVuSans-47" d="M 3809 666 
L 3809 1919 
L 2778 1919 
L 2778 2438 
L 4434 2438 
L 4434 434 
Q 4069 175 3628 42 
Q 3188 -91 2688 -91 
Q 1594 -91 976 548 
Q 359 1188 359 2328 
Q 359 3472 976 4111 
Q 1594 4750 2688 4750 
Q 3144 4750 3555 4637 
Q 3966 4525 4313 4306 
L 4313 3634 
Q 3963 3931 3569 4081 
Q 3175 4231 2741 4231 
Q 1884 4231 1454 3753 
Q 1025 3275 1025 2328 
Q 1025 1384 1454 906 
Q 1884 428 2741 428 
Q 3075 428 3337 486 
Q 3600 544 3809 666 
z
" transform="scale(0.015625)"/>
       <path id="DejaVuSans-65" d="M 3597 1894 
L 3597 1613 
L 953 1613 
Q 991 1019 1311 708 
Q 1631 397 2203 397 
Q 2534 397 2845 478 
Q 3156 559 3463 722 
L 3463 178 
Q 3153 47 2828 -22 
Q 2503 -91 2169 -91 
Q 1331 -91 842 396 
Q 353 884 353 1716 
Q 353 2575 817 3079 
Q 1281 3584 2069 3584 
Q 2775 3584 3186 3129 
Q 3597 2675 3597 1894 
z
M 3022 2063 
Q 3016 2534 2758 2815 
Q 2500 3097 2075 3097 
Q 1594 3097 1305 2825 
Q 1016 2553 972 2059 
L 3022 2063 
z
" transform="scale(0.015625)"/>
       <path id="DejaVuSans-6e" d="M 3513 2113 
L 3513 0 
L 2938 0 
L 2938 2094 
Q 2938 2591 2744 2837 
Q 2550 3084 2163 3084 
Q 1697 3084 1428 2787 
Q 1159 2491 1159 1978 
L 1159 0 
L 581 0 
L 581 3500 
L 1159 3500 
L 1159 2956 
Q 1366 3272 1645 3428 
Q 1925 3584 2291 3584 
Q 2894 3584 3203 3211 
Q 3513 2838 3513 2113 
z
" transform="scale(0.015625)"/>
       <path id="DejaVuSans-72" d="M 2631 2963 
Q 2534 3019 2420 3045 
Q 2306 3072 2169 3072 
Q 1681 3072 1420 2755 
Q 1159 2438 1159 1844 
L 1159 0 
L 581 0 
L 581 3500 
L 1159 3500 
L 1159 2956 
Q 1341 3275 1631 3429 
Q 1922 3584 2338 3584 
Q 2397 3584 2469 3576 
Q 2541 3569 2628 3553 
L 2631 2963 
z
" transform="scale(0.015625)"/>
       <path id="DejaVuSans-61" d="M 2194 1759 
Q 1497 1759 1228 1600 
Q 959 1441 959 1056 
Q 959 750 1161 570 
Q 1363 391 1709 391 
Q 2188 391 2477 730 
Q 2766 1069 2766 1631 
L 2766 1759 
L 2194 1759 
z
M 3341 1997 
L 3341 0 
L 2766 0 
L 2766 531 
Q 2569 213 2275 61 
Q 1981 -91 1556 -91 
Q 1019 -91 701 211 
Q 384 513 384 1019 
Q 384 1609 779 1909 
Q 1175 2209 1959 2209 
L 2766 2209 
L 2766 2266 
Q 2766 2663 2505 2880 
Q 2244 3097 1772 3097 
Q 1472 3097 1187 3025 
Q 903 2953 641 2809 
L 641 3341 
Q 956 3463 1253 3523 
Q 1550 3584 1831 3584 
Q 2591 3584 2966 3190 
Q 3341 2797 3341 1997 
z
" transform="scale(0.015625)"/>
       <path id="DejaVuSans-63" d="M 3122 3366 
L 3122 2828 
Q 2878 2963 2633 3030 
Q 2388 3097 2138 3097 
Q 1578 3097 1268 2742 
Q 959 2388 959 1747 
Q 959 1106 1268 751 
Q 1578 397 2138 397 
Q 2388 397 2633 464 
Q 2878 531 3122 666 
L 3122 134 
Q 2881 22 2623 -34 
Q 2366 -91 2075 -91 
Q 1284 -91 818 406 
Q 353 903 353 1747 
Q 353 2603 823 3093 
Q 1294 3584 2113 3584 
Q 2378 3584 2631 3529 
Q 2884 3475 3122 3366 
z
" transform="scale(0.015625)"/>
       <path id="DejaVuSans-6a" d="M 603 3500 
L 1178 3500 
L 1178 -63 
Q 1178 -731 923 -1031 
Q 669 -1331 103 -1331 
L -116 -1331 
L -116 -844 
L 38 -844 
Q 366 -844 484 -692 
Q 603 -541 603 -63 
L 603 3500 
z
M 603 4863 
L 1178 4863 
L 1178 4134 
L 603 4134 
L 603 4863 
z
" transform="scale(0.015625)"/>
      </defs>
      <use xlink:href="#DejaVuSans-47"/>
      <use xlink:href="#DejaVuSans-65" transform="translate(77.490234 0)"/>
      <use xlink:href="#DejaVuSans-6e" transform="translate(139.013672 0)"/>
      <use xlink:href="#DejaVuSans-65" transform="translate(202.392578 0)"/>
      <use xlink:href="#DejaVuSans-72" transform="translate(263.916016 0)"/>
      <use xlink:href="#DejaVuSans-61" transform="translate(305.029297 0)"/>
      <use xlink:href="#DejaVuSans-63" transform="translate(366.308594 0)"/>
      <use xlink:href="#DejaVuSans-6a" transform="translate(421.289062 0)"/>
      <use xlink:href="#DejaVuSans-65" transform="translate(449.072266 0)"/>
     </g>
    </g>
   </g>
   <g id="matplotlib.axis_2">
    <g id="ytick_1">
     <g id="line2d_19">
      <path d="M 57.6 134.592178 
L 414.72 134.592178 
" clip-path="url(#p0ff3f3efff)" style="fill: none; stroke: #b0b0b0; stroke-width: 0.8; stroke-linecap: square"/>
     </g>
     <g id="line2d_20">
      <defs>
       <path id="m1b99576cd5" d="M 0 0 
L -3.5 0 
" style="stroke: #000000; stroke-width: 0.8"/>
      </defs>
      <g>
       <use xlink:href="#m1b99576cd5" x="57.6" y="134.592178" style="stroke: #000000; stroke-width: 0.8"/>
      </g>
     </g>
     <g id="text_11">
      <!-- $\mathdefault{10^{2}}$ -->
      <g transform="translate(33 138.391397) scale(0.1 -0.1)">
       <use xlink:href="#DejaVuSans-31" transform="translate(0 0.765625)"/>
       <use xlink:href="#DejaVuSans-30" transform="translate(63.623047 0.765625)"/>
       <use xlink:href="#DejaVuSans-32" transform="translate(128.203125 39.046875) scale(0.7)"/>
      </g>
     </g>
    </g>
    <g id="text_12">
     <!-- Przystosowanie -->
     <g transform="translate(26.920312 213.170187) rotate(-90) scale(0.1 -0.1)">
      <defs>
       <path id="DejaVuSans-50" d="M 1259 4147 
L 1259 2394 
L 2053 2394 
Q 2494 2394 2734 2622 
Q 2975 2850 2975 3272 
Q 2975 3691 2734 3919 
Q 2494 4147 2053 4147 
L 1259 4147 
z
M 628 4666 
L 2053 4666 
Q 2838 4666 3239 4311 
Q 3641 3956 3641 3272 
Q 3641 2581 3239 2228 
Q 2838 1875 2053 1875 
L 1259 1875 
L 1259 0 
L 628 0 
L 628 4666 
z
" transform="scale(0.015625)"/>
       <path id="DejaVuSans-7a" d="M 353 3500 
L 3084 3500 
L 3084 2975 
L 922 459 
L 3084 459 
L 3084 0 
L 275 0 
L 275 525 
L 2438 3041 
L 353 3041 
L 353 3500 
z
" transform="scale(0.015625)"/>
       <path id="DejaVuSans-79" d="M 2059 -325 
Q 1816 -950 1584 -1140 
Q 1353 -1331 966 -1331 
L 506 -1331 
L 506 -850 
L 844 -850 
Q 1081 -850 1212 -737 
Q 1344 -625 1503 -206 
L 1606 56 
L 191 3500 
L 800 3500 
L 1894 763 
L 2988 3500 
L 3597 3500 
L 2059 -325 
z
" transform="scale(0.015625)"/>
       <path id="DejaVuSans-73" d="M 2834 3397 
L 2834 2853 
Q 2591 2978 2328 3040 
Q 2066 3103 1784 3103 
Q 1356 3103 1142 2972 
Q 928 2841 928 2578 
Q 928 2378 1081 2264 
Q 1234 2150 1697 2047 
L 1894 2003 
Q 2506 1872 2764 1633 
Q 3022 1394 3022 966 
Q 3022 478 2636 193 
Q 2250 -91 1575 -91 
Q 1294 -91 989 -36 
Q 684 19 347 128 
L 347 722 
Q 666 556 975 473 
Q 1284 391 1588 391 
Q 1994 391 2212 530 
Q 2431 669 2431 922 
Q 2431 1156 2273 1281 
Q 2116 1406 1581 1522 
L 1381 1569 
Q 847 1681 609 1914 
Q 372 2147 372 2553 
Q 372 3047 722 3315 
Q 1072 3584 1716 3584 
Q 2034 3584 2315 3537 
Q 2597 3491 2834 3397 
z
" transform="scale(0.015625)"/>
       <path id="DejaVuSans-74" d="M 1172 4494 
L 1172 3500 
L 2356 3500 
L 2356 3053 
L 1172 3053 
L 1172 1153 
Q 1172 725 1289 603 
Q 1406 481 1766 481 
L 2356 481 
L 2356 0 
L 1766 0 
Q 1100 0 847 248 
Q 594 497 594 1153 
L 594 3053 
L 172 3053 
L 172 3500 
L 594 3500 
L 594 4494 
L 1172 4494 
z
" transform="scale(0.015625)"/>
       <path id="DejaVuSans-6f" d="M 1959 3097 
Q 1497 3097 1228 2736 
Q 959 2375 959 1747 
Q 959 1119 1226 758 
Q 1494 397 1959 397 
Q 2419 397 2687 759 
Q 2956 1122 2956 1747 
Q 2956 2369 2687 2733 
Q 2419 3097 1959 3097 
z
M 1959 3584 
Q 2709 3584 3137 3096 
Q 3566 2609 3566 1747 
Q 3566 888 3137 398 
Q 2709 -91 1959 -91 
Q 1206 -91 779 398 
Q 353 888 353 1747 
Q 353 2609 779 3096 
Q 1206 3584 1959 3584 
z
" transform="scale(0.015625)"/>
       <path id="DejaVuSans-77" d="M 269 3500 
L 844 3500 
L 1563 769 
L 2278 3500 
L 2956 3500 
L 3675 769 
L 4391 3500 
L 4966 3500 
L 4050 0 
L 3372 0 
L 2619 2869 
L 1863 0 
L 1184 0 
L 269 3500 
z
" transform="scale(0.015625)"/>
       <path id="DejaVuSans-69" d="M 603 3500 
L 1178 3500 
L 1178 0 
L 603 0 
L 603 3500 
z
M 603 4863 
L 1178 4863 
L 1178 4134 
L 603 4134 
L 603 4863 
z
" transform="scale(0.015625)"/>
      </defs>
      <use xlink:href="#DejaVuSans-50"/>
      <use xlink:href="#DejaVuSans-72" transform="translate(58.552734 0)"/>
      <use xlink:href="#DejaVuSans-7a" transform="translate(99.666016 0)"/>
      <use xlink:href="#DejaVuSans-79" transform="translate(152.15625 0)"/>
      <use xlink:href="#DejaVuSans-73" transform="translate(211.335938 0)"/>
      <use xlink:href="#DejaVuSans-74" transform="translate(263.435547 0)"/>
      <use xlink:href="#DejaVuSans-6f" transform="translate(302.644531 0)"/>
      <use xlink:href="#DejaVuSans-73" transform="translate(363.826172 0)"/>
      <use xlink:href="#DejaVuSans-6f" transform="translate(415.925781 0)"/>
      <use xlink:href="#DejaVuSans-77" transform="translate(477.107422 0)"/>
      <use xlink:href="#DejaVuSans-61" transform="translate(558.894531 0)"/>
      <use xlink:href="#DejaVuSans-6e" transform="translate(620.173828 0)"/>
      <use xlink:href="#DejaVuSans-69" transform="translate(683.552734 0)"/>
      <use xlink:href="#DejaVuSans-65" transform="translate(711.335938 0)"/>
     </g>
    </g>
   </g>
   <g id="line2d_21">
    <path d="M 73.832727 295.488 
L 77.095587 209.815082 
L 78.727017 185.858125 
L 80.358447 173.136323 
L 83.621307 178.729997 
L 85.252736 172.982511 
L 86.884166 170.380686 
L 88.515596 164.495169 
L 90.147026 165.148066 
L 91.778456 158.523149 
L 93.409886 162.74427 
L 95.041316 161.041968 
L 96.672746 160.828855 
L 98.304175 160.413612 
L 99.935605 160.714378 
L 101.567035 162.472357 
L 103.198465 162.282654 
L 104.829895 160.839467 
L 106.461325 162.638546 
L 108.092755 161.584602 
L 109.724185 163.656013 
L 111.355614 164.150312 
L 112.987044 164.340124 
L 114.618474 161.903503 
L 116.249904 160.063688 
L 117.881334 162.350886 
L 119.512764 163.818417 
L 121.144194 162.783224 
L 122.775624 161.124997 
L 124.407053 161.054962 
L 126.038483 162.487147 
L 127.669913 161.250333 
L 129.301343 162.380361 
L 130.932773 162.039128 
L 132.564203 159.339279 
L 134.195633 157.350514 
L 135.827063 159.032145 
L 137.458492 158.132856 
L 139.089922 161.981822 
L 140.721352 160.222415 
L 142.352782 158.929888 
L 143.984212 158.191431 
L 145.615642 155.545968 
L 147.247072 160.282636 
L 148.878502 157.665096 
L 150.509931 158.867186 
L 152.141361 159.808433 
L 153.772791 157.382034 
L 155.404221 159.590593 
L 157.035651 161.099507 
L 160.298511 158.046652 
L 161.929941 158.725126 
L 163.56137 159.678035 
L 165.1928 157.785581 
L 166.82423 160.041557 
L 168.45566 160.490344 
L 171.71852 159.651286 
L 173.34995 163.109279 
L 174.98138 159.311605 
L 176.61281 161.038589 
L 178.244239 158.746764 
L 179.875669 159.338857 
L 181.507099 160.824553 
L 183.138529 161.231485 
L 184.769959 158.308405 
L 186.401389 157.678858 
L 188.032819 161.626675 
L 189.664249 160.490182 
L 191.295678 158.964158 
L 192.927108 159.087554 
L 194.558538 160.193201 
L 196.189968 159.650931 
L 197.821398 161.612516 
L 199.452828 159.177663 
L 201.084258 157.725589 
L 202.715688 158.686301 
L 204.347117 158.873726 
L 205.978547 160.22463 
L 207.609977 159.025422 
L 209.241407 159.660349 
L 210.872837 160.8892 
L 212.504267 160.110661 
L 214.135697 159.571451 
L 215.767127 158.680504 
L 217.398556 159.215211 
L 219.029986 160.444215 
L 220.661416 160.3325 
L 222.292846 160.453922 
L 223.924276 160.714144 
L 225.555706 160.6878 
L 227.187136 158.79378 
L 228.818566 160.517112 
L 230.449995 157.805236 
L 232.081425 157.86992 
L 233.712855 158.276275 
L 235.344285 160.915144 
L 236.975715 159.683979 
L 238.607145 161.000413 
L 240.238575 158.90106 
L 241.870005 160.84117 
L 243.501434 161.17969 
L 245.132864 160.689296 
L 246.764294 161.478338 
L 248.395724 159.591026 
L 250.027154 159.282578 
L 251.658584 158.141909 
L 253.290014 158.810461 
L 254.921444 158.437681 
L 256.552873 157.833756 
L 258.184303 157.805001 
L 259.815733 161.657147 
L 261.447163 158.710875 
L 263.078593 156.84874 
L 264.710023 160.51432 
L 266.341453 160.978595 
L 267.972883 159.807139 
L 269.604312 159.575569 
L 271.235742 159.819878 
L 272.867172 159.900168 
L 274.498602 158.609679 
L 276.130032 161.512963 
L 277.761462 160.387491 
L 279.392892 161.884391 
L 281.024322 161.07828 
L 282.655751 162.236456 
L 284.287181 158.559305 
L 285.918611 160.521258 
L 287.550041 158.649729 
L 290.812901 160.426585 
L 292.444331 157.540625 
L 294.075761 158.795991 
L 295.70719 159.037075 
L 297.33862 160.143062 
L 298.97005 161.418062 
L 300.60148 160.240067 
L 302.23291 160.022363 
L 303.86434 160.417903 
L 305.49577 159.779712 
L 307.1272 157.895273 
L 308.75863 157.799927 
L 310.390059 158.360463 
L 312.021489 160.632477 
L 313.652919 159.034786 
L 315.284349 159.226917 
L 316.915779 156.365212 
L 318.547209 161.107463 
L 320.178639 158.181713 
L 321.810069 158.52281 
L 323.441498 159.026449 
L 325.072928 160.171463 
L 326.704358 156.624292 
L 328.335788 157.30195 
L 329.967218 156.958454 
L 331.598648 156.875063 
L 333.230078 158.910375 
L 334.861508 156.796726 
L 336.492937 155.964475 
L 338.124367 156.864449 
L 339.755797 157.253205 
L 341.387227 156.882576 
L 343.018657 155.453909 
L 344.650087 156.887317 
L 346.281517 156.800527 
L 347.912947 156.894271 
L 349.544376 155.570694 
L 351.175806 157.325437 
L 352.807236 154.092533 
L 354.438666 157.427123 
L 356.070096 155.517338 
L 357.701526 153.908543 
L 359.332956 156.267481 
L 360.964386 155.579515 
L 362.595815 157.340405 
L 364.227245 155.458907 
L 365.858675 155.327593 
L 367.490105 156.466831 
L 369.121535 154.155287 
L 370.752965 158.19818 
L 372.384395 157.436026 
L 374.015825 155.341218 
L 375.647254 154.744262 
L 377.278684 157.546367 
L 378.910114 155.95098 
L 380.541544 155.732473 
L 382.172974 155.151538 
L 383.804404 159.157232 
L 385.435834 156.149717 
L 387.067264 157.001381 
L 388.698693 155.469002 
L 390.330123 158.227797 
L 391.961553 157.931127 
L 393.592983 157.125524 
L 395.224413 156.14029 
L 396.855843 153.869692 
L 398.487273 155.608296 
L 398.487273 155.608296 
" clip-path="url(#p0ff3f3efff)" style="fill: none; stroke: #0000ff; stroke-width: 1.5; stroke-linecap: square"/>
   </g>
   <g id="line2d_22">
    <path d="M 73.832727 245.614147 
L 75.464157 201.124906 
L 77.095587 165.281615 
L 78.727017 148.197294 
L 80.358447 141.667816 
L 81.989877 145.115212 
L 83.621307 145.808269 
L 85.252736 140.938504 
L 86.884166 140.27542 
L 88.515596 139.893805 
L 90.147026 134.992391 
L 91.778456 137.598023 
L 93.409886 139.778773 
L 95.041316 140.858678 
L 96.672746 138.201612 
L 98.304175 140.299774 
L 99.935605 141.617919 
L 101.567035 141.993362 
L 103.198465 140.648284 
L 104.829895 139.084232 
L 106.461325 142.933301 
L 108.092755 140.545094 
L 109.724185 145.117312 
L 111.355614 141.410834 
L 112.987044 145.57618 
L 114.618474 141.771887 
L 116.249904 140.341848 
L 117.881334 143.139118 
L 119.512764 144.678478 
L 121.144194 140.267712 
L 122.775624 141.035898 
L 124.407053 140.80693 
L 126.038483 141.282679 
L 127.669913 139.273455 
L 129.301343 140.688565 
L 130.932773 140.296679 
L 132.564203 139.069517 
L 134.195633 137.524589 
L 135.827063 139.450664 
L 137.458492 138.41975 
L 139.089922 143.013732 
L 140.721352 139.507177 
L 142.352782 138.55213 
L 143.984212 135.391404 
L 145.615642 136.684272 
L 147.247072 141.736655 
L 148.878502 138.299422 
L 150.509931 138.891151 
L 152.141361 142.244457 
L 153.772791 139.10848 
L 155.404221 139.908459 
L 157.035651 141.904906 
L 158.667081 139.401965 
L 160.298511 138.815099 
L 161.929941 139.035068 
L 163.56137 141.086985 
L 165.1928 136.715395 
L 166.82423 139.750638 
L 168.45566 140.309613 
L 170.08709 141.336326 
L 171.71852 142.144851 
L 173.34995 144.372027 
L 174.98138 140.010043 
L 176.61281 141.890147 
L 178.244239 138.268952 
L 179.875669 140.637952 
L 181.507099 142.114398 
L 183.138529 138.600248 
L 184.769959 136.452138 
L 186.401389 138.140705 
L 188.032819 141.694498 
L 189.664249 140.811326 
L 191.295678 138.72337 
L 192.927108 140.138816 
L 194.558538 139.352415 
L 196.189968 140.425561 
L 197.821398 143.067491 
L 199.452828 139.696687 
L 201.084258 139.085436 
L 202.715688 139.813373 
L 204.347117 139.137523 
L 205.978547 140.505116 
L 207.609977 140.246476 
L 209.241407 142.149241 
L 210.872837 142.642556 
L 212.504267 142.27976 
L 214.135697 140.187373 
L 215.767127 137.27622 
L 217.398556 138.502004 
L 219.029986 142.312806 
L 220.661416 140.514113 
L 222.292846 140.906494 
L 223.924276 140.944763 
L 225.555706 141.458376 
L 227.187136 138.506928 
L 228.818566 140.128811 
L 230.449995 137.06191 
L 232.081425 139.176301 
L 233.712855 137.692854 
L 235.344285 142.643911 
L 236.975715 140.536939 
L 238.607145 142.532267 
L 240.238575 139.836808 
L 241.870005 142.508674 
L 243.501434 142.040633 
L 245.132864 140.339028 
L 246.764294 142.070037 
L 248.395724 140.793042 
L 251.658584 138.971044 
L 253.290014 138.897292 
L 254.921444 139.829174 
L 256.552873 138.03813 
L 258.184303 138.524 
L 259.815733 143.83933 
L 261.447163 138.513724 
L 263.078593 136.544201 
L 266.341453 142.883793 
L 267.972883 138.727762 
L 271.235742 139.424537 
L 272.867172 140.397784 
L 274.498602 140.96496 
L 276.130032 142.080255 
L 277.761462 140.030407 
L 279.392892 140.73194 
L 281.024322 142.821503 
L 282.655751 143.538928 
L 284.287181 137.024065 
L 285.918611 141.569458 
L 287.550041 139.147911 
L 289.181471 140.261 
L 290.812901 141.077702 
L 292.444331 137.248453 
L 294.075761 138.434424 
L 295.70719 140.65352 
L 297.33862 139.535086 
L 298.97005 143.242772 
L 300.60148 141.323357 
L 302.23291 139.917748 
L 303.86434 142.429115 
L 307.1272 139.387915 
L 308.75863 136.591646 
L 310.390059 138.568059 
L 312.021489 140.062285 
L 313.652919 140.481803 
L 315.284349 141.126198 
L 316.915779 137.039708 
L 318.547209 141.043543 
L 320.178639 139.093525 
L 321.810069 139.587333 
L 323.441498 139.688668 
L 325.072928 141.86564 
L 326.704358 137.585949 
L 328.335788 134.721632 
L 329.967218 135.389865 
L 331.598648 135.354725 
L 333.230078 141.05142 
L 334.861508 137.018174 
L 336.492937 137.219241 
L 338.124367 138.618428 
L 341.387227 137.613904 
L 343.018657 134.862299 
L 344.650087 138.420548 
L 346.281517 139.12772 
L 347.912947 136.510625 
L 349.544376 134.848026 
L 351.175806 137.063838 
L 352.807236 134.224832 
L 354.438666 137.684229 
L 356.070096 135.642675 
L 357.701526 132.027738 
L 359.332956 135.688476 
L 360.964386 133.945542 
L 362.595815 139.16101 
L 364.227245 134.194777 
L 365.858675 135.93581 
L 367.490105 135.859975 
L 369.121535 134.430561 
L 370.752965 139.02032 
L 372.384395 137.489874 
L 374.015825 135.14084 
L 375.647254 131.56607 
L 377.278684 138.490026 
L 378.910114 136.08974 
L 380.541544 135.923451 
L 382.172974 136.342644 
L 383.804404 139.914907 
L 385.435834 137.433827 
L 388.698693 135.880577 
L 390.330123 138.791466 
L 391.961553 136.751688 
L 393.592983 137.817156 
L 395.224413 134.373594 
L 396.855843 134.332837 
L 398.487273 134.924861 
L 398.487273 134.924861 
" clip-path="url(#p0ff3f3efff)" style="fill: none; stroke-dasharray: 9.6,2.4,1.5,2.4; stroke-dashoffset: 0; stroke: #008000; stroke-width: 1.5"/>
   </g>
   <g id="line2d_23">
    <path d="M 73.832727 154.208365 
L 75.464157 123.838359 
L 77.095587 119.458965 
L 78.727017 102.17341 
L 80.358447 94.250858 
L 81.989877 114.830344 
L 83.621307 106.147717 
L 85.252736 86.791622 
L 86.884166 102.486414 
L 88.515596 101.91055 
L 90.147026 83.131885 
L 91.778456 72.518533 
L 93.409886 90.235719 
L 95.041316 110.097917 
L 96.672746 97.931656 
L 98.304175 90.48072 
L 99.935605 102.090234 
L 101.567035 110.006769 
L 103.198465 90.126429 
L 104.829895 79.544884 
L 106.461325 106.391964 
L 109.724185 114.605316 
L 111.355614 97.876799 
L 112.987044 106.094691 
L 114.618474 82.967772 
L 116.249904 86.470433 
L 117.881334 101.993396 
L 119.512764 106.231906 
L 121.144194 102.442979 
L 122.775624 106.785498 
L 124.407053 76.210834 
L 126.038483 106.189227 
L 127.669913 102.208573 
L 129.301343 98.763245 
L 130.932773 86.544074 
L 132.564203 79.544326 
L 134.195633 98.307217 
L 135.827063 106.642071 
L 137.458492 83.075936 
L 139.089922 101.826051 
L 140.721352 97.861286 
L 142.352782 101.996422 
L 143.984212 72.697066 
L 145.615642 94.210119 
L 147.247072 106.224048 
L 148.878502 90.479235 
L 150.509931 83.344764 
L 152.141361 97.940262 
L 153.772791 101.781158 
L 155.404221 90.537758 
L 157.035651 98.217927 
L 158.667081 79.345556 
L 160.298511 94.147955 
L 161.929941 98.097301 
L 163.56137 97.815596 
L 165.1928 69.160574 
L 166.82423 94.276199 
L 168.45566 90.209574 
L 170.08709 82.963704 
L 171.71852 102.158757 
L 173.34995 110.487513 
L 174.98138 98.224192 
L 176.61281 110.500879 
L 178.244239 90.150413 
L 179.875669 102.022324 
L 181.507099 102.214993 
L 183.138529 56.60728 
L 186.401389 94.279011 
L 188.032819 83.243623 
L 189.664249 101.784216 
L 191.295678 79.002822 
L 192.927108 80.059355 
L 194.558538 82.961734 
L 196.189968 115.08048 
L 197.821398 86.343603 
L 199.452828 90.108354 
L 201.084258 110.163688 
L 202.715688 101.515625 
L 204.347117 106.395031 
L 205.978547 82.806608 
L 207.609977 106.375209 
L 209.241407 110.558625 
L 210.872837 110.48355 
L 212.504267 119.063713 
L 214.135697 106.146407 
L 215.767127 83.017188 
L 217.398556 83.498064 
L 219.029986 97.55929 
L 220.661416 90.451044 
L 222.292846 102.178634 
L 223.924276 98.343264 
L 225.555706 97.967631 
L 227.187136 94.099901 
L 228.818566 90.624872 
L 230.449995 60.399671 
L 232.081425 106.52722 
L 233.712855 106.195976 
L 235.344285 76.103573 
L 236.975715 115.107301 
L 238.607145 98.111946 
L 240.238575 82.594371 
L 241.870005 106.229737 
L 243.501434 98.128147 
L 245.132864 94.444465 
L 246.764294 98.076037 
L 248.395724 94.66405 
L 250.027154 98.698153 
L 251.658584 97.881192 
L 253.290014 86.566638 
L 254.921444 98.39814 
L 256.552873 75.467709 
L 258.184303 105.796828 
L 259.815733 106.045912 
L 261.447163 79.5471 
L 263.078593 86.755735 
L 264.710023 75.862685 
L 266.341453 94.299876 
L 267.972883 90.518621 
L 269.604312 94.103914 
L 272.867172 94.302602 
L 274.498602 114.792179 
L 276.130032 76.495353 
L 277.761462 86.761513 
L 279.392892 83.729785 
L 281.024322 98.840941 
L 282.655751 90.305155 
L 284.287181 83.568527 
L 285.918611 102.116717 
L 287.550041 90.834717 
L 289.181471 94.443668 
L 290.812901 94.490696 
L 292.444331 82.875728 
L 294.075761 93.985362 
L 295.70719 114.973475 
L 297.33862 97.990208 
L 298.97005 97.880545 
L 300.60148 79.498536 
L 302.23291 53.568 
L 303.86434 87.191307 
L 305.49577 94.124869 
L 308.75863 94.622301 
L 310.390059 66.429412 
L 313.652919 91.219377 
L 315.284349 90.451227 
L 316.915779 86.262019 
L 318.547209 91.125376 
L 320.178639 102.243808 
L 321.810069 97.818434 
L 323.441498 97.835547 
L 325.072928 101.922782 
L 326.704358 94.245459 
L 328.335788 79.225824 
L 329.967218 66.475232 
L 331.598648 62.674437 
L 333.230078 110.341151 
L 334.861508 87.040164 
L 336.492937 94.536091 
L 338.124367 94.697074 
L 339.755797 106.078703 
L 341.387227 79.923517 
L 343.018657 86.565505 
L 344.650087 94.49212 
L 346.281517 86.681437 
L 347.912947 80.151682 
L 349.544376 90.592901 
L 351.175806 93.798854 
L 352.807236 82.823993 
L 354.438666 82.87858 
L 356.070096 90.483401 
L 357.701526 56.482667 
L 359.332956 93.849152 
L 360.964386 72.784104 
L 362.595815 101.716181 
L 364.227245 82.874139 
L 365.858675 83.287737 
L 367.490105 72.639321 
L 369.121535 86.999745 
L 370.752965 97.672083 
L 372.384395 94.853716 
L 374.015825 82.88504 
L 375.647254 59.557063 
L 377.278684 110.054639 
L 378.910114 93.881895 
L 380.541544 97.576888 
L 382.172974 90.290537 
L 383.804404 69.783238 
L 385.435834 98.034159 
L 387.067264 83.135572 
L 388.698693 97.81935 
L 390.330123 102.119226 
L 391.961553 72.221337 
L 393.592983 87.112255 
L 395.224413 79.025397 
L 396.855843 86.37645 
L 398.487273 87.496537 
L 398.487273 87.496537 
" clip-path="url(#p0ff3f3efff)" style="fill: none; stroke: #ff0000; stroke-width: 1.5; stroke-linecap: square"/>
   </g>
   <g id="patch_3">
    <path d="M 57.6 307.584 
L 57.6 41.472 
" style="fill: none; stroke: #000000; stroke-width: 0.8; stroke-linejoin: miter; stroke-linecap: square"/>
   </g>
   <g id="patch_4">
    <path d="M 414.72 307.584 
L 414.72 41.472 
" style="fill: none; stroke: #000000; stroke-width: 0.8; stroke-linejoin: miter; stroke-linecap: square"/>
   </g>
   <g id="patch_5">
    <path d="M 57.6 307.584 
L 414.72 307.584 
" style="fill: none; stroke: #000000; stroke-width: 0.8; stroke-linejoin: miter; stroke-linecap: square"/>
   </g>
   <g id="patch_6">
    <path d="M 57.6 41.472 
L 414.72 41.472 
" style="fill: none; stroke: #000000; stroke-width: 0.8; stroke-linejoin: miter; stroke-linecap: square"/>
   </g>
   <g id="text_13">
    <!-- Średnie i najlepsze przystosowanie w każdej generacji -->
    <g transform="translate(73.26 35.472) scale(0.12 -0.12)">
     <defs>
      <path id="DejaVuSans-15a" d="M 2236 5921 
L 2814 5921 
L 2102 5096 
L 1623 5096 
L 2236 5921 
z
M 3425 4513 
L 3425 3897 
Q 3066 4069 2747 4153 
Q 2428 4238 2131 4238 
Q 1616 4238 1336 4038 
Q 1056 3838 1056 3469 
Q 1056 3159 1242 3001 
Q 1428 2844 1947 2747 
L 2328 2669 
Q 3034 2534 3370 2195 
Q 3706 1856 3706 1288 
Q 3706 609 3251 259 
Q 2797 -91 1919 -91 
Q 1588 -91 1214 -16 
Q 841 59 441 206 
L 441 856 
Q 825 641 1194 531 
Q 1563 422 1919 422 
Q 2459 422 2753 634 
Q 3047 847 3047 1241 
Q 3047 1584 2836 1778 
Q 2625 1972 2144 2069 
L 1759 2144 
Q 1053 2284 737 2584 
Q 422 2884 422 3419 
Q 422 4038 858 4394 
Q 1294 4750 2059 4750 
Q 2388 4750 2728 4690 
Q 3069 4631 3425 4513 
z
" transform="scale(0.015625)"/>
      <path id="DejaVuSans-64" d="M 2906 2969 
L 2906 4863 
L 3481 4863 
L 3481 0 
L 2906 0 
L 2906 525 
Q 2725 213 2448 61 
Q 2172 -91 1784 -91 
Q 1150 -91 751 415 
Q 353 922 353 1747 
Q 353 2572 751 3078 
Q 1150 3584 1784 3584 
Q 2172 3584 2448 3432 
Q 2725 3281 2906 2969 
z
M 947 1747 
Q 947 1113 1208 752 
Q 1469 391 1925 391 
Q 2381 391 2643 752 
Q 2906 1113 2906 1747 
Q 2906 2381 2643 2742 
Q 2381 3103 1925 3103 
Q 1469 3103 1208 2742 
Q 947 2381 947 1747 
z
" transform="scale(0.015625)"/>
      <path id="DejaVuSans-20" transform="scale(0.015625)"/>
      <path id="DejaVuSans-6c" d="M 603 4863 
L 1178 4863 
L 1178 0 
L 603 0 
L 603 4863 
z
" transform="scale(0.015625)"/>
      <path id="DejaVuSans-70" d="M 1159 525 
L 1159 -1331 
L 581 -1331 
L 581 3500 
L 1159 3500 
L 1159 2969 
Q 1341 3281 1617 3432 
Q 1894 3584 2278 3584 
Q 2916 3584 3314 3078 
Q 3713 2572 3713 1747 
Q 3713 922 3314 415 
Q 2916 -91 2278 -91 
Q 1894 -91 1617 61 
Q 1341 213 1159 525 
z
M 3116 1747 
Q 3116 2381 2855 2742 
Q 2594 3103 2138 3103 
Q 1681 3103 1420 2742 
Q 1159 2381 1159 1747 
Q 1159 1113 1420 752 
Q 1681 391 2138 391 
Q 2594 391 2855 752 
Q 3116 1113 3116 1747 
z
" transform="scale(0.015625)"/>
      <path id="DejaVuSans-6b" d="M 581 4863 
L 1159 4863 
L 1159 1991 
L 2875 3500 
L 3609 3500 
L 1753 1863 
L 3688 0 
L 2938 0 
L 1159 1709 
L 1159 0 
L 581 0 
L 581 4863 
z
" transform="scale(0.015625)"/>
      <path id="DejaVuSans-17c" d="M 1378 4863 
L 1953 4863 
L 1953 4134 
L 1378 4134 
L 1378 4863 
z
M 1672 3584 
L 1672 3584 
z
M 353 3500 
L 3084 3500 
L 3084 2975 
L 922 459 
L 3084 459 
L 3084 0 
L 275 0 
L 275 525 
L 2438 3041 
L 353 3041 
L 353 3500 
z
" transform="scale(0.015625)"/>
      <path id="DejaVuSans-67" d="M 2906 1791 
Q 2906 2416 2648 2759 
Q 2391 3103 1925 3103 
Q 1463 3103 1205 2759 
Q 947 2416 947 1791 
Q 947 1169 1205 825 
Q 1463 481 1925 481 
Q 2391 481 2648 825 
Q 2906 1169 2906 1791 
z
M 3481 434 
Q 3481 -459 3084 -895 
Q 2688 -1331 1869 -1331 
Q 1566 -1331 1297 -1286 
Q 1028 -1241 775 -1147 
L 775 -588 
Q 1028 -725 1275 -790 
Q 1522 -856 1778 -856 
Q 2344 -856 2625 -561 
Q 2906 -266 2906 331 
L 2906 616 
Q 2728 306 2450 153 
Q 2172 0 1784 0 
Q 1141 0 747 490 
Q 353 981 353 1791 
Q 353 2603 747 3093 
Q 1141 3584 1784 3584 
Q 2172 3584 2450 3431 
Q 2728 3278 2906 2969 
L 2906 3500 
L 3481 3500 
L 3481 434 
z
" transform="scale(0.015625)"/>
     </defs>
     <use xlink:href="#DejaVuSans-15a"/>
     <use xlink:href="#DejaVuSans-72" transform="translate(63.476562 0)"/>
     <use xlink:href="#DejaVuSans-65" transform="translate(102.339844 0)"/>
     <use xlink:href="#DejaVuSans-64" transform="translate(163.863281 0)"/>
     <use xlink:href="#DejaVuSans-6e" transform="translate(227.339844 0)"/>
     <use xlink:href="#DejaVuSans-69" transform="translate(290.71875 0)"/>
     <use xlink:href="#DejaVuSans-65" transform="translate(318.501953 0)"/>
     <use xlink:href="#DejaVuSans-20" transform="translate(380.025391 0)"/>
     <use xlink:href="#DejaVuSans-69" transform="translate(411.8125 0)"/>
     <use xlink:href="#DejaVuSans-20" transform="translate(439.595703 0)"/>
     <use xlink:href="#DejaVuSans-6e" transform="translate(471.382812 0)"/>
     <use xlink:href="#DejaVuSans-61" transform="translate(534.761719 0)"/>
     <use xlink:href="#DejaVuSans-6a" transform="translate(596.041016 0)"/>
     <use xlink:href="#DejaVuSans-6c" transform="translate(623.824219 0)"/>
     <use xlink:href="#DejaVuSans-65" transform="translate(651.607422 0)"/>
     <use xlink:href="#DejaVuSans-70" transform="translate(713.130859 0)"/>
     <use xlink:href="#DejaVuSans-73" transform="translate(776.607422 0)"/>
     <use xlink:href="#DejaVuSans-7a" transform="translate(828.707031 0)"/>
     <use xlink:href="#DejaVuSans-65" transform="translate(881.197266 0)"/>
     <use xlink:href="#DejaVuSans-20" transform="translate(942.720703 0)"/>
     <use xlink:href="#DejaVuSans-70" transform="translate(974.507812 0)"/>
     <use xlink:href="#DejaVuSans-72" transform="translate(1037.984375 0)"/>
     <use xlink:href="#DejaVuSans-7a" transform="translate(1079.097656 0)"/>
     <use xlink:href="#DejaVuSans-79" transform="translate(1131.587891 0)"/>
     <use xlink:href="#DejaVuSans-73" transform="translate(1190.767578 0)"/>
     <use xlink:href="#DejaVuSans-74" transform="translate(1242.867188 0)"/>
     <use xlink:href="#DejaVuSans-6f" transform="translate(1282.076172 0)"/>
     <use xlink:href="#DejaVuSans-73" transform="translate(1343.257812 0)"/>
     <use xlink:href="#DejaVuSans-6f" transform="translate(1395.357422 0)"/>
     <use xlink:href="#DejaVuSans-77" transform="translate(1456.539062 0)"/>
     <use xlink:href="#DejaVuSans-61" transform="translate(1538.326172 0)"/>
     <use xlink:href="#DejaVuSans-6e" transform="translate(1599.605469 0)"/>
     <use xlink:href="#DejaVuSans-69" transform="translate(1662.984375 0)"/>
     <use xlink:href="#DejaVuSans-65" transform="translate(1690.767578 0)"/>
     <use xlink:href="#DejaVuSans-20" transform="translate(1752.291016 0)"/>
     <use xlink:href="#DejaVuSans-77" transform="translate(1784.078125 0)"/>
     <use xlink:href="#DejaVuSans-20" transform="translate(1865.865234 0)"/>
     <use xlink:href="#DejaVuSans-6b" transform="translate(1897.652344 0)"/>
     <use xlink:href="#DejaVuSans-61" transform="translate(1953.8125 0)"/>
     <use xlink:href="#DejaVuSans-17c" transform="translate(2015.091797 0)"/>
     <use xlink:href="#DejaVuSans-64" transform="translate(2067.582031 0)"/>
     <use xlink:href="#DejaVuSans-65" transform="translate(2131.058594 0)"/>
     <use xlink:href="#DejaVuSans-6a" transform="translate(2192.582031 0)"/>
     <use xlink:href="#DejaVuSans-20" transform="translate(2220.365234 0)"/>
     <use xlink:href="#DejaVuSans-67" transform="translate(2252.152344 0)"/>
     <use xlink:href="#DejaVuSans-65" transform="translate(2315.628906 0)"/>
     <use xlink:href="#DejaVuSans-6e" transform="translate(2377.152344 0)"/>
     <use xlink:href="#DejaVuSans-65" transform="translate(2440.53125 0)"/>
     <use xlink:href="#DejaVuSans-72" transform="translate(2502.054688 0)"/>
     <use xlink:href="#DejaVuSans-61" transform="translate(2543.167969 0)"/>
     <use xlink:href="#DejaVuSans-63" transform="translate(2604.447266 0)"/>
     <use xlink:href="#DejaVuSans-6a" transform="translate(2659.427734 0)"/>
     <use xlink:href="#DejaVuSans-69" transform="translate(2687.210938 0)"/>
    </g>
   </g>
   <g id="legend_1">
    <g id="patch_7">
     <path d="M 279.790313 302.584 
L 407.72 302.584 
Q 409.72 302.584 409.72 300.584 
L 409.72 257.549625 
Q 409.72 255.549625 407.72 255.549625 
L 279.790313 255.549625 
Q 277.790313 255.549625 277.790313 257.549625 
L 277.790313 300.584 
Q 277.790313 302.584 279.790313 302.584 
z
" style="fill: #ffffff; opacity: 0.8; stroke: #cccccc; stroke-linejoin: miter"/>
    </g>
    <g id="line2d_24">
     <path d="M 281.790313 263.648062 
L 291.790313 263.648062 
L 301.790313 263.648062 
" style="fill: none; stroke: #0000ff; stroke-width: 1.5; stroke-linecap: square"/>
    </g>
    <g id="text_14">
     <!-- Średnia -->
     <g transform="translate(309.790313 267.148062) scale(0.1 -0.1)">
      <use xlink:href="#DejaVuSans-15a"/>
      <use xlink:href="#DejaVuSans-72" transform="translate(63.476562 0)"/>
      <use xlink:href="#DejaVuSans-65" transform="translate(102.339844 0)"/>
      <use xlink:href="#DejaVuSans-64" transform="translate(163.863281 0)"/>
      <use xlink:href="#DejaVuSans-6e" transform="translate(227.339844 0)"/>
      <use xlink:href="#DejaVuSans-69" transform="translate(290.71875 0)"/>
      <use xlink:href="#DejaVuSans-61" transform="translate(318.501953 0)"/>
     </g>
    </g>
    <g id="line2d_25">
     <path d="M 281.790313 278.326188 
L 291.790313 278.326188 
L 301.790313 278.326188 
" style="fill: none; stroke-dasharray: 9.6,2.4,1.5,2.4; stroke-dashoffset: 0; stroke: #008000; stroke-width: 1.5"/>
    </g>
    <g id="text_15">
     <!-- ±1 Odchylenie std. -->
     <g transform="translate(309.790313 281.826188) scale(0.1 -0.1)">
      <defs>
       <path id="DejaVuSans-b1" d="M 2944 4013 
L 2944 2803 
L 4684 2803 
L 4684 2272 
L 2944 2272 
L 2944 1063 
L 2419 1063 
L 2419 2272 
L 678 2272 
L 678 2803 
L 2419 2803 
L 2419 4013 
L 2944 4013 
z
M 678 531 
L 4684 531 
L 4684 0 
L 678 0 
L 678 531 
z
" transform="scale(0.015625)"/>
       <path id="DejaVuSans-4f" d="M 2522 4238 
Q 1834 4238 1429 3725 
Q 1025 3213 1025 2328 
Q 1025 1447 1429 934 
Q 1834 422 2522 422 
Q 3209 422 3611 934 
Q 4013 1447 4013 2328 
Q 4013 3213 3611 3725 
Q 3209 4238 2522 4238 
z
M 2522 4750 
Q 3503 4750 4090 4092 
Q 4678 3434 4678 2328 
Q 4678 1225 4090 567 
Q 3503 -91 2522 -91 
Q 1538 -91 948 565 
Q 359 1222 359 2328 
Q 359 3434 948 4092 
Q 1538 4750 2522 4750 
z
" transform="scale(0.015625)"/>
       <path id="DejaVuSans-68" d="M 3513 2113 
L 3513 0 
L 2938 0 
L 2938 2094 
Q 2938 2591 2744 2837 
Q 2550 3084 2163 3084 
Q 1697 3084 1428 2787 
Q 1159 2491 1159 1978 
L 1159 0 
L 581 0 
L 581 4863 
L 1159 4863 
L 1159 2956 
Q 1366 3272 1645 3428 
Q 1925 3584 2291 3584 
Q 2894 3584 3203 3211 
Q 3513 2838 3513 2113 
z
" transform="scale(0.015625)"/>
       <path id="DejaVuSans-2e" d="M 684 794 
L 1344 794 
L 1344 0 
L 684 0 
L 684 794 
z
" transform="scale(0.015625)"/>
      </defs>
      <use xlink:href="#DejaVuSans-b1"/>
      <use xlink:href="#DejaVuSans-31" transform="translate(83.789062 0)"/>
      <use xlink:href="#DejaVuSans-20" transform="translate(147.412109 0)"/>
      <use xlink:href="#DejaVuSans-4f" transform="translate(179.199219 0)"/>
      <use xlink:href="#DejaVuSans-64" transform="translate(257.910156 0)"/>
      <use xlink:href="#DejaVuSans-63" transform="translate(321.386719 0)"/>
      <use xlink:href="#DejaVuSans-68" transform="translate(376.367188 0)"/>
      <use xlink:href="#DejaVuSans-79" transform="translate(439.746094 0)"/>
      <use xlink:href="#DejaVuSans-6c" transform="translate(498.925781 0)"/>
      <use xlink:href="#DejaVuSans-65" transform="translate(526.708984 0)"/>
      <use xlink:href="#DejaVuSans-6e" transform="translate(588.232422 0)"/>
      <use xlink:href="#DejaVuSans-69" transform="translate(651.611328 0)"/>
      <use xlink:href="#DejaVuSans-65" transform="translate(679.394531 0)"/>
      <use xlink:href="#DejaVuSans-20" transform="translate(740.917969 0)"/>
      <use xlink:href="#DejaVuSans-73" transform="translate(772.705078 0)"/>
      <use xlink:href="#DejaVuSans-74" transform="translate(824.804688 0)"/>
      <use xlink:href="#DejaVuSans-64" transform="translate(864.013672 0)"/>
      <use xlink:href="#DejaVuSans-2e" transform="translate(927.490234 0)"/>
     </g>
    </g>
    <g id="line2d_26">
     <path d="M 281.790313 293.004312 
L 291.790313 293.004312 
L 301.790313 293.004312 
" style="fill: none; stroke: #ff0000; stroke-width: 1.5; stroke-linecap: square"/>
    </g>
    <g id="text_16">
     <!-- Najlepsze -->
     <g transform="translate(309.790313 296.504312) scale(0.1 -0.1)">
      <defs>
       <path id="DejaVuSans-4e" d="M 628 4666 
L 1478 4666 
L 3547 763 
L 3547 4666 
L 4159 4666 
L 4159 0 
L 3309 0 
L 1241 3903 
L 1241 0 
L 628 0 
L 628 4666 
z
" transform="scale(0.015625)"/>
      </defs>
      <use xlink:href="#DejaVuSans-4e"/>
      <use xlink:href="#DejaVuSans-61" transform="translate(74.804688 0)"/>
      <use xlink:href="#DejaVuSans-6a" transform="translate(136.083984 0)"/>
      <use xlink:href="#DejaVuSans-6c" transform="translate(163.867188 0)"/>
      <use xlink:href="#DejaVuSans-65" transform="translate(191.650391 0)"/>
      <use xlink:href="#DejaVuSans-70" transform="translate(253.173828 0)"/>
      <use xlink:href="#DejaVuSans-73" transform="translate(316.650391 0)"/>
      <use xlink:href="#DejaVuSans-7a" transform="translate(368.75 0)"/>
      <use xlink:href="#DejaVuSans-65" transform="translate(421.240234 0)"/>
     </g>
    </g>
   </g>
  </g>
 </g>
 <defs>
  <clipPath id="p0ff3f3efff">
   <rect x="57.6" y="41.472" width="357.12" height="266.112"/>
  </clipPath>
 </defs>
</svg>
