<?xml version="1.0" encoding="utf-8" standalone="no"?>
<!DOCTYPE svg PUBLIC "-//W3C//DTD SVG 1.1//EN"
  "http://www.w3.org/Graphics/SVG/1.1/DTD/svg11.dtd">
<svg xmlns:xlink="http://www.w3.org/1999/xlink" width="460.8pt" height="345.6pt" viewBox="0 0 460.8 345.6" xmlns="http://www.w3.org/2000/svg" version="1.1">
 <metadata>
  <rdf:RDF xmlns:dc="http://purl.org/dc/elements/1.1/" xmlns:cc="http://creativecommons.org/ns#" xmlns:rdf="http://www.w3.org/1999/02/22-rdf-syntax-ns#">
   <cc:Work>
    <dc:type rdf:resource="http://purl.org/dc/dcmitype/StillImage"/>
    <dc:date>2026-04-26T20:50:23.969937</dc:date>
    <dc:format>image/svg+xml</dc:format>
    <dc:creator>
     <cc:Agent>
      <dc:title>Matplotlib v3.10.8, https://matplotlib.org/</dc:title>
     </cc:Agent>
    </dc:creator>
   </cc:Work>
  </rdf:RDF>
 </metadata>
 <defs>
  <style type="text/css">*{stroke-linejoin: round; stroke-linecap: butt}</style>
 </defs>
 <g id="figure_1">
  <g id="patch_1">
   <path d="M 0 345.6 
L 460.8 345.6 
L 460.8 0 
L 0 0 
z
" style="fill: #ffffff"/>
  </g>
  <g id="axes_1">
   <g id="patch_2">
    <path d="M 57.6 307.584 
L 414.72 307.584 
L 414.72 41.472 
L 57.6 41.472 
z
" style="fill: #ffffff"/>
   </g>
   <g id="matplotlib.axis_1">
    <g id="xtick_1">
     <g id="line2d_1">
      <path d="M 72.201297 307.584 
L 72.201297 41.472 
" clip-path="url(#pb516b29ec0)" style="fill: none; stroke: #b0b0b0; stroke-width: 0.8; stroke-linecap: square"/>
     </g>
     <g id="line2d_2">
      <defs>
       <path id="m500086222a" d="M 0 0 
L 0 3.5 
" style="stroke: #000000; stroke-width: 0.8"/>
      </defs>
      <g>
       <use xlink:href="#m500086222a" x="72.201297" y="307.584" style="stroke: #000000; stroke-width: 0.8"/>
      </g>
     </g>
     <g id="text_1">
      <!-- 0 -->
      <g transform="translate(69.020047 322.182437) scale(0.1 -0.1)">
       <defs>
        <path id="DejaVuSans-30" d="M 2034 4250 
Q 1547 4250 1301 3770 
Q 1056 3291 1056 2328 
Q 1056 1369 1301 889 
Q 1547 409 2034 409 
Q 2525 409 2770 889 
Q 3016 1369 3016 2328 
Q 3016 3291 2770 3770 
Q 2525 4250 2034 4250 
z
M 2034 4750 
Q 2819 4750 3233 4129 
Q 3647 3509 3647 2328 
Q 3647 1150 3233 529 
Q 2819 -91 2034 -91 
Q 1250 -91 836 529 
Q 422 1150 422 2328 
Q 422 3509 836 4129 
Q 1250 4750 2034 4750 
z
" transform="scale(0.015625)"/>
       </defs>
       <use xlink:href="#DejaVuSans-30"/>
      </g>
     </g>
    </g>
    <g id="xtick_2">
     <g id="line2d_3">
      <path d="M 112.987044 307.584 
L 112.987044 41.472 
" clip-path="url(#pb516b29ec0)" style="fill: none; stroke: #b0b0b0; stroke-width: 0.8; stroke-linecap: square"/>
     </g>
     <g id="line2d_4">
      <g>
       <use xlink:href="#m500086222a" x="112.987044" y="307.584" style="stroke: #000000; stroke-width: 0.8"/>
      </g>
     </g>
     <g id="text_2">
      <!-- 25 -->
      <g transform="translate(106.624544 322.182437) scale(0.1 -0.1)">
       <defs>
        <path id="DejaVuSans-32" d="M 1228 531 
L 3431 531 
L 3431 0 
L 469 0 
L 469 531 
Q 828 903 1448 1529 
Q 2069 2156 2228 2338 
Q 2531 2678 2651 2914 
Q 2772 3150 2772 3378 
Q 2772 3750 2511 3984 
Q 2250 4219 1831 4219 
Q 1534 4219 1204 4116 
Q 875 4013 500 3803 
L 500 4441 
Q 881 4594 1212 4672 
Q 1544 4750 1819 4750 
Q 2544 4750 2975 4387 
Q 3406 4025 3406 3419 
Q 3406 3131 3298 2873 
Q 3191 2616 2906 2266 
Q 2828 2175 2409 1742 
Q 1991 1309 1228 531 
z
" transform="scale(0.015625)"/>
        <path id="DejaVuSans-35" d="M 691 4666 
L 3169 4666 
L 3169 4134 
L 1269 4134 
L 1269 2991 
Q 1406 3038 1543 3061 
Q 1681 3084 1819 3084 
Q 2600 3084 3056 2656 
Q 3513 2228 3513 1497 
Q 3513 744 3044 326 
Q 2575 -91 1722 -91 
Q 1428 -91 1123 -41 
Q 819 9 494 109 
L 494 744 
Q 775 591 1075 516 
Q 1375 441 1709 441 
Q 2250 441 2565 725 
Q 2881 1009 2881 1497 
Q 2881 1984 2565 2268 
Q 2250 2553 1709 2553 
Q 1456 2553 1204 2497 
Q 953 2441 691 2322 
L 691 4666 
z
" transform="scale(0.015625)"/>
       </defs>
       <use xlink:href="#DejaVuSans-32"/>
       <use xlink:href="#DejaVuSans-35" transform="translate(63.623047 0)"/>
      </g>
     </g>
    </g>
    <g id="xtick_3">
     <g id="line2d_5">
      <path d="M 153.772791 307.584 
L 153.772791 41.472 
" clip-path="url(#pb516b29ec0)" style="fill: none; stroke: #b0b0b0; stroke-width: 0.8; stroke-linecap: square"/>
     </g>
     <g id="line2d_6">
      <g>
       <use xlink:href="#m500086222a" x="153.772791" y="307.584" style="stroke: #000000; stroke-width: 0.8"/>
      </g>
     </g>
     <g id="text_3">
      <!-- 50 -->
      <g transform="translate(147.410291 322.182437) scale(0.1 -0.1)">
       <use xlink:href="#DejaVuSans-35"/>
       <use xlink:href="#DejaVuSans-30" transform="translate(63.623047 0)"/>
      </g>
     </g>
    </g>
    <g id="xtick_4">
     <g id="line2d_7">
      <path d="M 194.558538 307.584 
L 194.558538 41.472 
" clip-path="url(#pb516b29ec0)" style="fill: none; stroke: #b0b0b0; stroke-width: 0.8; stroke-linecap: square"/>
     </g>
     <g id="line2d_8">
      <g>
       <use xlink:href="#m500086222a" x="194.558538" y="307.584" style="stroke: #000000; stroke-width: 0.8"/>
      </g>
     </g>
     <g id="text_4">
      <!-- 75 -->
      <g transform="translate(188.196038 322.182437) scale(0.1 -0.1)">
       <defs>
        <path id="DejaVuSans-37" d="M 525 4666 
L 3525 4666 
L 3525 4397 
L 1831 0 
L 1172 0 
L 2766 4134 
L 525 4134 
L 525 4666 
z
" transform="scale(0.015625)"/>
       </defs>
       <use xlink:href="#DejaVuSans-37"/>
       <use xlink:href="#DejaVuSans-35" transform="translate(63.623047 0)"/>
      </g>
     </g>
    </g>
    <g id="xtick_5">
     <g id="line2d_9">
      <path d="M 235.344285 307.584 
L 235.344285 41.472 
" clip-path="url(#pb516b29ec0)" style="fill: none; stroke: #b0b0b0; stroke-width: 0.8; stroke-linecap: square"/>
     </g>
     <g id="line2d_10">
      <g>
       <use xlink:href="#m500086222a" x="235.344285" y="307.584" style="stroke: #000000; stroke-width: 0.8"/>
      </g>
     </g>
     <g id="text_5">
      <!-- 100 -->
      <g transform="translate(225.800535 322.182437) scale(0.1 -0.1)">
       <defs>
        <path id="DejaVuSans-31" d="M 794 531 
L 1825 531 
L 1825 4091 
L 703 3866 
L 703 4441 
L 1819 4666 
L 2450 4666 
L 2450 531 
L 3481 531 
L 3481 0 
L 794 0 
L 794 531 
z
" transform="scale(0.015625)"/>
       </defs>
       <use xlink:href="#DejaVuSans-31"/>
       <use xlink:href="#DejaVuSans-30" transform="translate(63.623047 0)"/>
       <use xlink:href="#DejaVuSans-30" transform="translate(127.246094 0)"/>
      </g>
     </g>
    </g>
    <g id="xtick_6">
     <g id="line2d_11">
      <path d="M 276.130032 307.584 
L 276.130032 41.472 
" clip-path="url(#pb516b29ec0)" style="fill: none; stroke: #b0b0b0; stroke-width: 0.8; stroke-linecap: square"/>
     </g>
     <g id="line2d_12">
      <g>
       <use xlink:href="#m500086222a" x="276.130032" y="307.584" style="stroke: #000000; stroke-width: 0.8"/>
      </g>
     </g>
     <g id="text_6">
      <!-- 125 -->
      <g transform="translate(266.586282 322.182437) scale(0.1 -0.1)">
       <use xlink:href="#DejaVuSans-31"/>
       <use xlink:href="#DejaVuSans-32" transform="translate(63.623047 0)"/>
       <use xlink:href="#DejaVuSans-35" transform="translate(127.246094 0)"/>
      </g>
     </g>
    </g>
    <g id="xtick_7">
     <g id="line2d_13">
      <path d="M 316.915779 307.584 
L 316.915779 41.472 
" clip-path="url(#pb516b29ec0)" style="fill: none; stroke: #b0b0b0; stroke-width: 0.8; stroke-linecap: square"/>
     </g>
     <g id="line2d_14">
      <g>
       <use xlink:href="#m500086222a" x="316.915779" y="307.584" style="stroke: #000000; stroke-width: 0.8"/>
      </g>
     </g>
     <g id="text_7">
      <!-- 150 -->
      <g transform="translate(307.372029 322.182437) scale(0.1 -0.1)">
       <use xlink:href="#DejaVuSans-31"/>
       <use xlink:href="#DejaVuSans-35" transform="translate(63.623047 0)"/>
       <use xlink:href="#DejaVuSans-30" transform="translate(127.246094 0)"/>
      </g>
     </g>
    </g>
    <g id="xtick_8">
     <g id="line2d_15">
      <path d="M 357.701526 307.584 
L 357.701526 41.472 
" clip-path="url(#pb516b29ec0)" style="fill: none; stroke: #b0b0b0; stroke-width: 0.8; stroke-linecap: square"/>
     </g>
     <g id="line2d_16">
      <g>
       <use xlink:href="#m500086222a" x="357.701526" y="307.584" style="stroke: #000000; stroke-width: 0.8"/>
      </g>
     </g>
     <g id="text_8">
      <!-- 175 -->
      <g transform="translate(348.157776 322.182437) scale(0.1 -0.1)">
       <use xlink:href="#DejaVuSans-31"/>
       <use xlink:href="#DejaVuSans-37" transform="translate(63.623047 0)"/>
       <use xlink:href="#DejaVuSans-35" transform="translate(127.246094 0)"/>
      </g>
     </g>
    </g>
    <g id="xtick_9">
     <g id="line2d_17">
      <path d="M 398.487273 307.584 
L 398.487273 41.472 
" clip-path="url(#pb516b29ec0)" style="fill: none; stroke: #b0b0b0; stroke-width: 0.8; stroke-linecap: square"/>
     </g>
     <g id="line2d_18">
      <g>
       <use xlink:href="#m500086222a" x="398.487273" y="307.584" style="stroke: #000000; stroke-width: 0.8"/>
      </g>
     </g>
     <g id="text_9">
      <!-- 200 -->
      <g transform="translate(388.943523 322.182437) scale(0.1 -0.1)">
       <use xlink:href="#DejaVuSans-32"/>
       <use xlink:href="#DejaVuSans-30" transform="translate(63.623047 0)"/>
       <use xlink:href="#DejaVuSans-30" transform="translate(127.246094 0)"/>
      </g>
     </g>
    </g>
    <g id="text_10">
     <!-- Generacje -->
     <g transform="translate(210.629531 335.860562) scale(0.1 -0.1)">
      <defs>
       <path id="DejaVuSans-47" d="M 3809 666 
L 3809 1919 
L 2778 1919 
L 2778 2438 
L 4434 2438 
L 4434 434 
Q 4069 175 3628 42 
Q 3188 -91 2688 -91 
Q 1594 -91 976 548 
Q 359 1188 359 2328 
Q 359 3472 976 4111 
Q 1594 4750 2688 4750 
Q 3144 4750 3555 4637 
Q 3966 4525 4313 4306 
L 4313 3634 
Q 3963 3931 3569 4081 
Q 3175 4231 2741 4231 
Q 1884 4231 1454 3753 
Q 1025 3275 1025 2328 
Q 1025 1384 1454 906 
Q 1884 428 2741 428 
Q 3075 428 3337 486 
Q 3600 544 3809 666 
z
" transform="scale(0.015625)"/>
       <path id="DejaVuSans-65" d="M 3597 1894 
L 3597 1613 
L 953 1613 
Q 991 1019 1311 708 
Q 1631 397 2203 397 
Q 2534 397 2845 478 
Q 3156 559 3463 722 
L 3463 178 
Q 3153 47 2828 -22 
Q 2503 -91 2169 -91 
Q 1331 -91 842 396 
Q 353 884 353 1716 
Q 353 2575 817 3079 
Q 1281 3584 2069 3584 
Q 2775 3584 3186 3129 
Q 3597 2675 3597 1894 
z
M 3022 2063 
Q 3016 2534 2758 2815 
Q 2500 3097 2075 3097 
Q 1594 3097 1305 2825 
Q 1016 2553 972 2059 
L 3022 2063 
z
" transform="scale(0.015625)"/>
       <path id="DejaVuSans-6e" d="M 3513 2113 
L 3513 0 
L 2938 0 
L 2938 2094 
Q 2938 2591 2744 2837 
Q 2550 3084 2163 3084 
Q 1697 3084 1428 2787 
Q 1159 2491 1159 1978 
L 1159 0 
L 581 0 
L 581 3500 
L 1159 3500 
L 1159 2956 
Q 1366 3272 1645 3428 
Q 1925 3584 2291 3584 
Q 2894 3584 3203 3211 
Q 3513 2838 3513 2113 
z
" transform="scale(0.015625)"/>
       <path id="DejaVuSans-72" d="M 2631 2963 
Q 2534 3019 2420 3045 
Q 2306 3072 2169 3072 
Q 1681 3072 1420 2755 
Q 1159 2438 1159 1844 
L 1159 0 
L 581 0 
L 581 3500 
L 1159 3500 
L 1159 2956 
Q 1341 3275 1631 3429 
Q 1922 3584 2338 3584 
Q 2397 3584 2469 3576 
Q 2541 3569 2628 3553 
L 2631 2963 
z
" transform="scale(0.015625)"/>
       <path id="DejaVuSans-61" d="M 2194 1759 
Q 1497 1759 1228 1600 
Q 959 1441 959 1056 
Q 959 750 1161 570 
Q 1363 391 1709 391 
Q 2188 391 2477 730 
Q 2766 1069 2766 1631 
L 2766 1759 
L 2194 1759 
z
M 3341 1997 
L 3341 0 
L 2766 0 
L 2766 531 
Q 2569 213 2275 61 
Q 1981 -91 1556 -91 
Q 1019 -91 701 211 
Q 384 513 384 1019 
Q 384 1609 779 1909 
Q 1175 2209 1959 2209 
L 2766 2209 
L 2766 2266 
Q 2766 2663 2505 2880 
Q 2244 3097 1772 3097 
Q 1472 3097 1187 3025 
Q 903 2953 641 2809 
L 641 3341 
Q 956 3463 1253 3523 
Q 1550 3584 1831 3584 
Q 2591 3584 2966 3190 
Q 3341 2797 3341 1997 
z
" transform="scale(0.015625)"/>
       <path id="DejaVuSans-63" d="M 3122 3366 
L 3122 2828 
Q 2878 2963 2633 3030 
Q 2388 3097 2138 3097 
Q 1578 3097 1268 2742 
Q 959 2388 959 1747 
Q 959 1106 1268 751 
Q 1578 397 2138 397 
Q 2388 397 2633 464 
Q 2878 531 3122 666 
L 3122 134 
Q 2881 22 2623 -34 
Q 2366 -91 2075 -91 
Q 1284 -91 818 406 
Q 353 903 353 1747 
Q 353 2603 823 3093 
Q 1294 3584 2113 3584 
Q 2378 3584 2631 3529 
Q 2884 3475 3122 3366 
z
" transform="scale(0.015625)"/>
       <path id="DejaVuSans-6a" d="M 603 3500 
L 1178 3500 
L 1178 -63 
Q 1178 -731 923 -1031 
Q 669 -1331 103 -1331 
L -116 -1331 
L -116 -844 
L 38 -844 
Q 366 -844 484 -692 
Q 603 -541 603 -63 
L 603 3500 
z
M 603 4863 
L 1178 4863 
L 1178 4134 
L 603 4134 
L 603 4863 
z
" transform="scale(0.015625)"/>
      </defs>
      <use xlink:href="#DejaVuSans-47"/>
      <use xlink:href="#DejaVuSans-65" transform="translate(77.490234 0)"/>
      <use xlink:href="#DejaVuSans-6e" transform="translate(139.013672 0)"/>
      <use xlink:href="#DejaVuSans-65" transform="translate(202.392578 0)"/>
      <use xlink:href="#DejaVuSans-72" transform="translate(263.916016 0)"/>
      <use xlink:href="#DejaVuSans-61" transform="translate(305.029297 0)"/>
      <use xlink:href="#DejaVuSans-63" transform="translate(366.308594 0)"/>
      <use xlink:href="#DejaVuSans-6a" transform="translate(421.289062 0)"/>
      <use xlink:href="#DejaVuSans-65" transform="translate(449.072266 0)"/>
     </g>
    </g>
   </g>
   <g id="matplotlib.axis_2">
    <g id="ytick_1">
     <g id="line2d_19">
      <path d="M 57.6 133.057863 
L 414.72 133.057863 
" clip-path="url(#pb516b29ec0)" style="fill: none; stroke: #b0b0b0; stroke-width: 0.8; stroke-linecap: square"/>
     </g>
     <g id="line2d_20">
      <defs>
       <path id="m5b5cfa95d3" d="M 0 0 
L -3.5 0 
" style="stroke: #000000; stroke-width: 0.8"/>
      </defs>
      <g>
       <use xlink:href="#m5b5cfa95d3" x="57.6" y="133.057863" style="stroke: #000000; stroke-width: 0.8"/>
      </g>
     </g>
     <g id="text_11">
      <!-- $\mathdefault{10^{2}}$ -->
      <g transform="translate(33 136.857082) scale(0.1 -0.1)">
       <use xlink:href="#DejaVuSans-31" transform="translate(0 0.765625)"/>
       <use xlink:href="#DejaVuSans-30" transform="translate(63.623047 0.765625)"/>
       <use xlink:href="#DejaVuSans-32" transform="translate(128.203125 39.046875) scale(0.7)"/>
      </g>
     </g>
    </g>
    <g id="text_12">
     <!-- Przystosowanie -->
     <g transform="translate(26.920312 213.170187) rotate(-90) scale(0.1 -0.1)">
      <defs>
       <path id="DejaVuSans-50" d="M 1259 4147 
L 1259 2394 
L 2053 2394 
Q 2494 2394 2734 2622 
Q 2975 2850 2975 3272 
Q 2975 3691 2734 3919 
Q 2494 4147 2053 4147 
L 1259 4147 
z
M 628 4666 
L 2053 4666 
Q 2838 4666 3239 4311 
Q 3641 3956 3641 3272 
Q 3641 2581 3239 2228 
Q 2838 1875 2053 1875 
L 1259 1875 
L 1259 0 
L 628 0 
L 628 4666 
z
" transform="scale(0.015625)"/>
       <path id="DejaVuSans-7a" d="M 353 3500 
L 3084 3500 
L 3084 2975 
L 922 459 
L 3084 459 
L 3084 0 
L 275 0 
L 275 525 
L 2438 3041 
L 353 3041 
L 353 3500 
z
" transform="scale(0.015625)"/>
       <path id="DejaVuSans-79" d="M 2059 -325 
Q 1816 -950 1584 -1140 
Q 1353 -1331 966 -1331 
L 506 -1331 
L 506 -850 
L 844 -850 
Q 1081 -850 1212 -737 
Q 1344 -625 1503 -206 
L 1606 56 
L 191 3500 
L 800 3500 
L 1894 763 
L 2988 3500 
L 3597 3500 
L 2059 -325 
z
" transform="scale(0.015625)"/>
       <path id="DejaVuSans-73" d="M 2834 3397 
L 2834 2853 
Q 2591 2978 2328 3040 
Q 2066 3103 1784 3103 
Q 1356 3103 1142 2972 
Q 928 2841 928 2578 
Q 928 2378 1081 2264 
Q 1234 2150 1697 2047 
L 1894 2003 
Q 2506 1872 2764 1633 
Q 3022 1394 3022 966 
Q 3022 478 2636 193 
Q 2250 -91 1575 -91 
Q 1294 -91 989 -36 
Q 684 19 347 128 
L 347 722 
Q 666 556 975 473 
Q 1284 391 1588 391 
Q 1994 391 2212 530 
Q 2431 669 2431 922 
Q 2431 1156 2273 1281 
Q 2116 1406 1581 1522 
L 1381 1569 
Q 847 1681 609 1914 
Q 372 2147 372 2553 
Q 372 3047 722 3315 
Q 1072 3584 1716 3584 
Q 2034 3584 2315 3537 
Q 2597 3491 2834 3397 
z
" transform="scale(0.015625)"/>
       <path id="DejaVuSans-74" d="M 1172 4494 
L 1172 3500 
L 2356 3500 
L 2356 3053 
L 1172 3053 
L 1172 1153 
Q 1172 725 1289 603 
Q 1406 481 1766 481 
L 2356 481 
L 2356 0 
L 1766 0 
Q 1100 0 847 248 
Q 594 497 594 1153 
L 594 3053 
L 172 3053 
L 172 3500 
L 594 3500 
L 594 4494 
L 1172 4494 
z
" transform="scale(0.015625)"/>
       <path id="DejaVuSans-6f" d="M 1959 3097 
Q 1497 3097 1228 2736 
Q 959 2375 959 1747 
Q 959 1119 1226 758 
Q 1494 397 1959 397 
Q 2419 397 2687 759 
Q 2956 1122 2956 1747 
Q 2956 2369 2687 2733 
Q 2419 3097 1959 3097 
z
M 1959 3584 
Q 2709 3584 3137 3096 
Q 3566 2609 3566 1747 
Q 3566 888 3137 398 
Q 2709 -91 1959 -91 
Q 1206 -91 779 398 
Q 353 888 353 1747 
Q 353 2609 779 3096 
Q 1206 3584 1959 3584 
z
" transform="scale(0.015625)"/>
       <path id="DejaVuSans-77" d="M 269 3500 
L 844 3500 
L 1563 769 
L 2278 3500 
L 2956 3500 
L 3675 769 
L 4391 3500 
L 4966 3500 
L 4050 0 
L 3372 0 
L 2619 2869 
L 1863 0 
L 1184 0 
L 269 3500 
z
" transform="scale(0.015625)"/>
       <path id="DejaVuSans-69" d="M 603 3500 
L 1178 3500 
L 1178 0 
L 603 0 
L 603 3500 
z
M 603 4863 
L 1178 4863 
L 1178 4134 
L 603 4134 
L 603 4863 
z
" transform="scale(0.015625)"/>
      </defs>
      <use xlink:href="#DejaVuSans-50"/>
      <use xlink:href="#DejaVuSans-72" transform="translate(58.552734 0)"/>
      <use xlink:href="#DejaVuSans-7a" transform="translate(99.666016 0)"/>
      <use xlink:href="#DejaVuSans-79" transform="translate(152.15625 0)"/>
      <use xlink:href="#DejaVuSans-73" transform="translate(211.335938 0)"/>
      <use xlink:href="#DejaVuSans-74" transform="translate(263.435547 0)"/>
      <use xlink:href="#DejaVuSans-6f" transform="translate(302.644531 0)"/>
      <use xlink:href="#DejaVuSans-73" transform="translate(363.826172 0)"/>
      <use xlink:href="#DejaVuSans-6f" transform="translate(415.925781 0)"/>
      <use xlink:href="#DejaVuSans-77" transform="translate(477.107422 0)"/>
      <use xlink:href="#DejaVuSans-61" transform="translate(558.894531 0)"/>
      <use xlink:href="#DejaVuSans-6e" transform="translate(620.173828 0)"/>
      <use xlink:href="#DejaVuSans-69" transform="translate(683.552734 0)"/>
      <use xlink:href="#DejaVuSans-65" transform="translate(711.335938 0)"/>
     </g>
    </g>
   </g>
   <g id="line2d_21">
    <path d="M 73.832727 295.488 
L 75.464157 247.066578 
L 77.095587 223.325928 
L 78.727017 203.646662 
L 80.358447 188.711712 
L 81.989877 181.020707 
L 83.621307 184.937937 
L 85.252736 177.123894 
L 86.884166 176.837949 
L 88.515596 173.609647 
L 90.147026 174.225688 
L 91.778456 171.355118 
L 93.409886 167.370996 
L 95.041316 166.223636 
L 96.672746 170.687437 
L 98.304175 169.951927 
L 99.935605 168.58424 
L 101.567035 167.943073 
L 103.198465 169.732447 
L 104.829895 170.391739 
L 106.461325 168.193369 
L 108.092755 171.959726 
L 109.724185 170.518367 
L 111.355614 167.510194 
L 112.987044 173.275969 
L 114.618474 168.928433 
L 116.249904 169.816359 
L 117.881334 169.731407 
L 119.512764 170.438119 
L 121.144194 163.434556 
L 122.775624 167.826045 
L 124.407053 166.774326 
L 126.038483 166.735594 
L 130.932773 164.385438 
L 132.564203 161.701668 
L 134.195633 162.259353 
L 135.827063 164.686948 
L 137.458492 161.778454 
L 139.089922 157.55259 
L 140.721352 161.684791 
L 142.352782 162.30025 
L 143.984212 160.393906 
L 145.615642 161.54705 
L 147.247072 157.569733 
L 148.878502 159.362803 
L 150.509931 158.197569 
L 152.141361 159.921442 
L 153.772791 159.662265 
L 155.404221 158.65399 
L 157.035651 157.358443 
L 158.667081 159.565051 
L 160.298511 158.943427 
L 161.929941 157.295964 
L 163.56137 156.401376 
L 165.1928 157.381424 
L 166.82423 159.594182 
L 168.45566 158.430932 
L 170.08709 157.919382 
L 171.71852 161.177303 
L 173.34995 160.411988 
L 174.98138 156.640648 
L 176.61281 158.074205 
L 178.244239 157.268348 
L 179.875669 157.49402 
L 183.138529 159.678223 
L 184.769959 158.073497 
L 186.401389 158.946836 
L 188.032819 156.585591 
L 189.664249 159.02155 
L 191.295678 156.951943 
L 192.927108 157.793498 
L 194.558538 159.009288 
L 196.189968 157.060661 
L 197.821398 160.231866 
L 199.452828 159.783001 
L 201.084258 157.049741 
L 202.715688 160.24531 
L 204.347117 158.884136 
L 205.978547 159.13848 
L 207.609977 155.568348 
L 209.241407 157.917253 
L 210.872837 158.979 
L 212.504267 159.269689 
L 214.135697 161.643686 
L 215.767127 159.503786 
L 217.398556 160.143464 
L 219.029986 158.327953 
L 220.661416 160.40075 
L 222.292846 160.334709 
L 223.924276 158.244225 
L 225.555706 158.920508 
L 227.187136 160.872136 
L 228.818566 157.082002 
L 230.449995 157.130077 
L 232.081425 159.84555 
L 233.712855 159.226251 
L 235.344285 158.986272 
L 236.975715 157.697275 
L 238.607145 158.417735 
L 240.238575 158.634439 
L 241.870005 158.248351 
L 243.501434 158.109646 
L 245.132864 156.311508 
L 246.764294 158.609466 
L 248.395724 158.39547 
L 250.027154 160.684807 
L 253.290014 158.051814 
L 254.921444 157.984728 
L 258.184303 160.093201 
L 259.815733 158.149452 
L 261.447163 157.311304 
L 263.078593 157.615501 
L 264.710023 155.717722 
L 266.341453 158.131918 
L 267.972883 158.118966 
L 269.604312 158.219924 
L 271.235742 159.142753 
L 272.867172 159.246881 
L 274.498602 158.422518 
L 276.130032 157.110591 
L 277.761462 157.700942 
L 279.392892 157.633993 
L 281.024322 155.972073 
L 282.655751 157.281209 
L 284.287181 157.066064 
L 285.918611 160.000367 
L 287.550041 158.08709 
L 289.181471 160.508726 
L 290.812901 158.679261 
L 292.444331 157.037104 
L 294.075761 156.322239 
L 295.70719 158.43093 
L 297.33862 158.405004 
L 298.97005 158.142624 
L 300.60148 159.114441 
L 302.23291 158.419514 
L 303.86434 157.116915 
L 305.49577 160.176994 
L 307.1272 156.832687 
L 308.75863 157.99298 
L 310.390059 157.377573 
L 312.021489 159.392471 
L 313.652919 158.36614 
L 315.284349 159.81023 
L 316.915779 157.664788 
L 318.547209 156.806539 
L 320.178639 156.215874 
L 321.810069 158.61689 
L 323.441498 156.283468 
L 325.072928 156.428609 
L 326.704358 157.157767 
L 328.335788 156.073649 
L 329.967218 157.2938 
L 331.598648 159.802787 
L 333.230078 158.596861 
L 334.861508 159.697197 
L 336.492937 157.448816 
L 338.124367 158.0261 
L 339.755797 157.324163 
L 341.387227 159.793799 
L 343.018657 158.208198 
L 344.650087 160.133527 
L 346.281517 157.686553 
L 347.912947 154.906853 
L 349.544376 155.821762 
L 351.175806 157.583612 
L 352.807236 156.487776 
L 354.438666 160.876301 
L 356.070096 154.527674 
L 357.701526 157.048047 
L 359.332956 158.199612 
L 360.964386 156.189464 
L 362.595815 157.837946 
L 364.227245 157.59976 
L 365.858675 157.481684 
L 367.490105 156.061962 
L 369.121535 157.630931 
L 370.752965 158.656211 
L 372.384395 158.387527 
L 374.015825 156.682479 
L 375.647254 156.008009 
L 377.278684 158.179319 
L 378.910114 159.252422 
L 380.541544 159.309773 
L 382.172974 155.631137 
L 383.804404 155.532258 
L 385.435834 156.490064 
L 387.067264 156.976417 
L 388.698693 156.432545 
L 390.330123 157.176481 
L 391.961553 158.741527 
L 393.592983 157.059504 
L 395.224413 157.86501 
L 396.855843 158.975746 
L 398.487273 155.651332 
L 398.487273 155.651332 
" clip-path="url(#pb516b29ec0)" style="fill: none; stroke: #0000ff; stroke-width: 1.5; stroke-linecap: square"/>
   </g>
   <g id="line2d_22">
    <path d="M 73.832727 249.174479 
L 75.464157 196.793267 
L 77.095587 173.953378 
L 78.727017 160.681613 
L 80.358447 151.969457 
L 81.989877 143.898219 
L 83.621307 147.017375 
L 85.252736 145.287289 
L 86.884166 143.771324 
L 88.515596 143.563196 
L 90.147026 143.84427 
L 91.778456 141.412539 
L 93.409886 137.639583 
L 95.041316 139.137134 
L 96.672746 140.404686 
L 98.304175 139.2035 
L 99.935605 135.264785 
L 101.567035 136.990565 
L 103.198465 139.565224 
L 104.829895 138.66417 
L 106.461325 139.353553 
L 108.092755 142.193126 
L 109.724185 139.482534 
L 111.355614 137.245752 
L 112.987044 145.021239 
L 114.618474 139.465134 
L 116.249904 140.678053 
L 117.881334 145.618204 
L 119.512764 142.995317 
L 121.144194 138.987792 
L 122.775624 143.927943 
L 124.407053 143.492228 
L 126.038483 138.554444 
L 127.669913 140.28262 
L 129.301343 140.807834 
L 130.932773 138.877337 
L 132.564203 139.574522 
L 134.195633 140.918415 
L 135.827063 140.896799 
L 137.458492 139.934352 
L 139.089922 136.110268 
L 140.721352 138.595709 
L 142.352782 140.844922 
L 143.984212 138.039247 
L 145.615642 139.88819 
L 147.247072 136.331942 
L 148.878502 140.18299 
L 150.509931 135.890573 
L 152.141361 138.834049 
L 153.772791 139.227842 
L 155.404221 138.767729 
L 157.035651 136.969744 
L 158.667081 137.978858 
L 160.298511 138.795605 
L 161.929941 134.890252 
L 163.56137 135.548759 
L 165.1928 135.924754 
L 166.82423 138.148272 
L 168.45566 134.167042 
L 170.08709 135.947351 
L 171.71852 140.558848 
L 173.34995 136.430472 
L 174.98138 136.448898 
L 176.61281 138.053157 
L 178.244239 137.553872 
L 179.875669 137.704871 
L 181.507099 139.418127 
L 183.138529 139.638693 
L 184.769959 136.90873 
L 186.401389 137.746135 
L 188.032819 136.116809 
L 189.664249 138.041383 
L 191.295678 134.558491 
L 192.927108 137.666947 
L 194.558538 137.312709 
L 196.189968 135.524623 
L 197.821398 140.342543 
L 199.452828 136.954001 
L 201.084258 136.272233 
L 202.715688 140.022902 
L 204.347117 138.702617 
L 205.978547 136.687041 
L 207.609977 133.247901 
L 209.241407 137.554855 
L 210.872837 138.468044 
L 212.504267 137.948692 
L 214.135697 142.204953 
L 215.767127 138.331334 
L 217.398556 138.382212 
L 219.029986 137.274735 
L 220.661416 140.462986 
L 222.292846 140.044276 
L 223.924276 137.784748 
L 227.187136 140.939464 
L 228.818566 135.886154 
L 230.449995 135.947346 
L 232.081425 137.791012 
L 233.712855 138.774011 
L 235.344285 138.978733 
L 236.975715 136.182363 
L 238.607145 139.130986 
L 240.238575 136.766409 
L 241.870005 136.476979 
L 243.501434 137.35751 
L 245.132864 134.658712 
L 246.764294 139.061026 
L 248.395724 137.533546 
L 250.027154 138.358018 
L 251.658584 138.693201 
L 253.290014 137.768516 
L 254.921444 136.36937 
L 256.552873 137.519888 
L 258.184303 140.709901 
L 259.815733 137.327985 
L 261.447163 135.475527 
L 263.078593 135.235664 
L 264.710023 134.366664 
L 266.341453 137.370473 
L 267.972883 137.897113 
L 269.604312 135.43894 
L 271.235742 139.418424 
L 272.867172 140.059413 
L 274.498602 138.377643 
L 276.130032 137.049163 
L 277.761462 137.413781 
L 279.392892 136.863084 
L 281.024322 137.187316 
L 282.655751 136.325982 
L 284.287181 136.845352 
L 285.918611 140.479454 
L 287.550041 138.755861 
L 289.181471 141.228388 
L 290.812901 137.594718 
L 292.444331 136.963327 
L 294.075761 136.759999 
L 295.70719 137.326863 
L 297.33862 138.816944 
L 298.97005 136.515123 
L 300.60148 139.588133 
L 302.23291 135.304512 
L 303.86434 136.876123 
L 305.49577 142.098009 
L 307.1272 138.763945 
L 308.75863 137.301294 
L 310.390059 138.000209 
L 312.021489 139.344534 
L 313.652919 139.735662 
L 315.284349 141.030176 
L 316.915779 137.153239 
L 318.547209 137.746218 
L 320.178639 135.316094 
L 321.810069 137.375987 
L 323.441498 137.779742 
L 325.072928 135.419284 
L 326.704358 136.367624 
L 328.335788 135.401065 
L 329.967218 137.447416 
L 331.598648 140.797443 
L 333.230078 139.117221 
L 334.861508 139.192081 
L 336.492937 135.418961 
L 338.124367 137.987835 
L 339.755797 138.047411 
L 341.387227 141.259661 
L 343.018657 137.231484 
L 344.650087 140.014779 
L 346.281517 136.779851 
L 347.912947 135.888189 
L 349.544376 135.131249 
L 351.175806 137.498992 
L 352.807236 134.994817 
L 354.438666 141.276079 
L 356.070096 132.993551 
L 357.701526 137.945142 
L 359.332956 137.639462 
L 360.964386 133.826768 
L 362.595815 136.820825 
L 364.227245 136.769251 
L 365.858675 137.663132 
L 367.490105 134.449444 
L 369.121535 137.218275 
L 370.752965 138.57679 
L 372.384395 137.742569 
L 375.647254 134.750079 
L 377.278684 137.059573 
L 378.910114 140.673616 
L 380.541544 139.495761 
L 382.172974 133.174604 
L 383.804404 133.733514 
L 385.435834 134.964506 
L 387.067264 135.194611 
L 388.698693 135.958682 
L 390.330123 137.451352 
L 391.961553 137.728518 
L 393.592983 137.602423 
L 395.224413 138.862412 
L 396.855843 139.742649 
L 398.487273 134.05493 
L 398.487273 134.05493 
" clip-path="url(#pb516b29ec0)" style="fill: none; stroke-dasharray: 9.6,2.4,1.5,2.4; stroke-dashoffset: 0; stroke: #008000; stroke-width: 1.5"/>
   </g>
   <g id="line2d_23">
    <path d="M 73.832727 157.960817 
L 75.464157 118.179858 
L 77.095587 131.960683 
L 78.727017 113.723134 
L 81.989877 105.018525 
L 83.621307 97.006783 
L 85.252736 104.80187 
L 88.515596 89.97273 
L 90.147026 105.482917 
L 91.778456 105.11422 
L 93.409886 53.568 
L 95.041316 113.508845 
L 96.672746 60.268966 
L 98.304175 68.935466 
L 99.935605 69.237991 
L 101.567035 85.995846 
L 103.198465 97.626027 
L 104.829895 97.575703 
L 106.461325 101.326486 
L 108.092755 89.653698 
L 109.724185 65.858918 
L 111.355614 86.369492 
L 112.987044 101.038949 
L 114.618474 89.489173 
L 117.881334 105.505068 
L 119.512764 114.042805 
L 121.144194 94.277622 
L 122.775624 101.325426 
L 124.407053 96.881967 
L 126.038483 75.369446 
L 127.669913 93.289991 
L 129.301343 82.91837 
L 130.932773 75.635904 
L 132.564203 104.995036 
L 134.195633 97.462161 
L 135.827063 86.489361 
L 137.458492 105.405059 
L 139.089922 93.980682 
L 140.721352 97.533422 
L 142.352782 97.590401 
L 143.984212 101.323652 
L 145.615642 89.881665 
L 147.247072 93.39282 
L 148.878502 89.663407 
L 150.509931 82.426344 
L 152.141361 79.538842 
L 153.772791 97.038165 
L 155.404221 75.731336 
L 157.035651 97.088634 
L 158.667081 97.285746 
L 160.298511 97.340334 
L 161.929941 76.05377 
L 163.56137 85.759796 
L 165.1928 78.983085 
L 166.82423 97.301196 
L 168.45566 56.710554 
L 170.08709 86.558898 
L 171.71852 101.803658 
L 173.34995 86.275587 
L 174.98138 89.446095 
L 176.61281 109.253713 
L 178.244239 89.890882 
L 179.875669 97.00553 
L 181.507099 93.661031 
L 183.138529 93.576563 
L 184.769959 89.717726 
L 186.401389 75.951275 
L 188.032819 89.634933 
L 189.664249 93.080851 
L 191.295678 82.08314 
L 192.927108 82.612794 
L 194.558538 79.270792 
L 196.189968 72.756541 
L 197.821398 105.427442 
L 199.452828 71.948699 
L 201.084258 86.243719 
L 202.715688 86.324499 
L 204.347117 100.897343 
L 205.978547 82.910306 
L 207.609977 53.61069 
L 209.241407 75.370163 
L 210.872837 85.971766 
L 212.504267 72.917508 
L 214.135697 109.463036 
L 215.767127 78.944528 
L 217.398556 82.46973 
L 219.029986 78.865187 
L 220.661416 93.644178 
L 222.292846 101.039389 
L 223.924276 89.577481 
L 225.555706 76.310139 
L 227.187136 89.909692 
L 228.818566 93.292062 
L 230.449995 79.101031 
L 232.081425 72.414842 
L 233.712855 86.032474 
L 235.344285 97.485767 
L 236.975715 78.794164 
L 238.607145 101.240365 
L 240.238575 75.791544 
L 241.870005 63.7256 
L 243.501434 93.247214 
L 245.132864 72.077149 
L 246.764294 105.175285 
L 248.395724 82.950285 
L 250.027154 93.741094 
L 251.658584 93.65297 
L 253.290014 93.798628 
L 254.921444 75.76589 
L 256.552873 82.111205 
L 258.184303 105.337981 
L 259.815733 69.108026 
L 261.447163 93.561687 
L 263.078593 56.7613 
L 264.710023 82.305643 
L 266.341453 90.82133 
L 267.972883 90.546052 
L 269.604312 79.213412 
L 271.235742 83.244649 
L 272.867172 101.190384 
L 274.498602 101.367381 
L 276.130032 93.770033 
L 277.761462 66.159711 
L 279.392892 93.390556 
L 281.024322 105.439049 
L 282.655751 100.982877 
L 284.287181 75.648182 
L 285.918611 82.324954 
L 287.550041 79.093037 
L 289.181471 105.385624 
L 290.812901 89.38646 
L 292.444331 75.627385 
L 294.075761 71.995702 
L 295.70719 63.018655 
L 297.33862 93.413841 
L 298.97005 72.081427 
L 300.60148 101.013149 
L 302.23291 79.267419 
L 303.86434 79.708603 
L 305.49577 97.164091 
L 307.1272 105.64894 
L 308.75863 75.824939 
L 310.390059 101.155712 
L 312.021489 101.205643 
L 313.652919 109.347707 
L 315.284349 97.028708 
L 316.915779 101.443626 
L 318.547209 82.602861 
L 320.178639 90.011444 
L 321.810069 89.458137 
L 323.441498 97.273388 
L 325.072928 72.439992 
L 326.704358 89.387486 
L 328.335788 66.160586 
L 329.967218 93.132431 
L 331.598648 105.146767 
L 333.230078 96.96121 
L 334.861508 85.780189 
L 336.492937 69.212694 
L 338.124367 101.475488 
L 339.755797 86.151416 
L 341.387227 101.686391 
L 343.018657 90.461587 
L 344.650087 97.37493 
L 346.281517 85.869595 
L 347.912947 97.449846 
L 349.544376 89.733759 
L 351.175806 93.45187 
L 352.807236 79.106536 
L 354.438666 101.155714 
L 356.070096 83.085021 
L 357.701526 93.328977 
L 360.964386 79.12263 
L 362.595815 94.028014 
L 364.227245 85.938513 
L 365.858675 93.269203 
L 367.490105 75.693614 
L 369.121535 59.716445 
L 370.752965 97.400659 
L 372.384395 82.307295 
L 374.015825 89.820841 
L 375.647254 82.788388 
L 377.278684 86.060472 
L 378.910114 101.01983 
L 380.541544 93.285399 
L 382.172974 54.242262 
L 383.804404 90.119566 
L 385.435834 75.973295 
L 387.067264 75.647857 
L 388.698693 93.346044 
L 390.330123 93.577786 
L 391.961553 86.165492 
L 393.592983 86.341278 
L 395.224413 89.516744 
L 396.855843 93.613459 
L 398.487273 85.826759 
L 398.487273 85.826759 
" clip-path="url(#pb516b29ec0)" style="fill: none; stroke: #ff0000; stroke-width: 1.5; stroke-linecap: square"/>
   </g>
   <g id="patch_3">
    <path d="M 57.6 307.584 
L 57.6 41.472 
" style="fill: none; stroke: #000000; stroke-width: 0.8; stroke-linejoin: miter; stroke-linecap: square"/>
   </g>
   <g id="patch_4">
    <path d="M 414.72 307.584 
L 414.72 41.472 
" style="fill: none; stroke: #000000; stroke-width: 0.8; stroke-linejoin: miter; stroke-linecap: square"/>
   </g>
   <g id="patch_5">
    <path d="M 57.6 307.584 
L 414.72 307.584 
" style="fill: none; stroke: #000000; stroke-width: 0.8; stroke-linejoin: miter; stroke-linecap: square"/>
   </g>
   <g id="patch_6">
    <path d="M 57.6 41.472 
L 414.72 41.472 
" style="fill: none; stroke: #000000; stroke-width: 0.8; stroke-linejoin: miter; stroke-linecap: square"/>
   </g>
   <g id="text_13">
    <!-- Średnie i najlepsze przystosowanie w każdej generacji -->
    <g transform="translate(73.26 35.472) scale(0.12 -0.12)">
     <defs>
      <path id="DejaVuSans-15a" d="M 2236 5921 
L 2814 5921 
L 2102 5096 
L 1623 5096 
L 2236 5921 
z
M 3425 4513 
L 3425 3897 
Q 3066 4069 2747 4153 
Q 2428 4238 2131 4238 
Q 1616 4238 1336 4038 
Q 1056 3838 1056 3469 
Q 1056 3159 1242 3001 
Q 1428 2844 1947 2747 
L 2328 2669 
Q 3034 2534 3370 2195 
Q 3706 1856 3706 1288 
Q 3706 609 3251 259 
Q 2797 -91 1919 -91 
Q 1588 -91 1214 -16 
Q 841 59 441 206 
L 441 856 
Q 825 641 1194 531 
Q 1563 422 1919 422 
Q 2459 422 2753 634 
Q 3047 847 3047 1241 
Q 3047 1584 2836 1778 
Q 2625 1972 2144 2069 
L 1759 2144 
Q 1053 2284 737 2584 
Q 422 2884 422 3419 
Q 422 4038 858 4394 
Q 1294 4750 2059 4750 
Q 2388 4750 2728 4690 
Q 3069 4631 3425 4513 
z
" transform="scale(0.015625)"/>
      <path id="DejaVuSans-64" d="M 2906 2969 
L 2906 4863 
L 3481 4863 
L 3481 0 
L 2906 0 
L 2906 525 
Q 2725 213 2448 61 
Q 2172 -91 1784 -91 
Q 1150 -91 751 415 
Q 353 922 353 1747 
Q 353 2572 751 3078 
Q 1150 3584 1784 3584 
Q 2172 3584 2448 3432 
Q 2725 3281 2906 2969 
z
M 947 1747 
Q 947 1113 1208 752 
Q 1469 391 1925 391 
Q 2381 391 2643 752 
Q 2906 1113 2906 1747 
Q 2906 2381 2643 2742 
Q 2381 3103 1925 3103 
Q 1469 3103 1208 2742 
Q 947 2381 947 1747 
z
" transform="scale(0.015625)"/>
      <path id="DejaVuSans-20" transform="scale(0.015625)"/>
      <path id="DejaVuSans-6c" d="M 603 4863 
L 1178 4863 
L 1178 0 
L 603 0 
L 603 4863 
z
" transform="scale(0.015625)"/>
      <path id="DejaVuSans-70" d="M 1159 525 
L 1159 -1331 
L 581 -1331 
L 581 3500 
L 1159 3500 
L 1159 2969 
Q 1341 3281 1617 3432 
Q 1894 3584 2278 3584 
Q 2916 3584 3314 3078 
Q 3713 2572 3713 1747 
Q 3713 922 3314 415 
Q 2916 -91 2278 -91 
Q 1894 -91 1617 61 
Q 1341 213 1159 525 
z
M 3116 1747 
Q 3116 2381 2855 2742 
Q 2594 3103 2138 3103 
Q 1681 3103 1420 2742 
Q 1159 2381 1159 1747 
Q 1159 1113 1420 752 
Q 1681 391 2138 391 
Q 2594 391 2855 752 
Q 3116 1113 3116 1747 
z
" transform="scale(0.015625)"/>
      <path id="DejaVuSans-6b" d="M 581 4863 
L 1159 4863 
L 1159 1991 
L 2875 3500 
L 3609 3500 
L 1753 1863 
L 3688 0 
L 2938 0 
L 1159 1709 
L 1159 0 
L 581 0 
L 581 4863 
z
" transform="scale(0.015625)"/>
      <path id="DejaVuSans-17c" d="M 1378 4863 
L 1953 4863 
L 1953 4134 
L 1378 4134 
L 1378 4863 
z
M 1672 3584 
L 1672 3584 
z
M 353 3500 
L 3084 3500 
L 3084 2975 
L 922 459 
L 3084 459 
L 3084 0 
L 275 0 
L 275 525 
L 2438 3041 
L 353 3041 
L 353 3500 
z
" transform="scale(0.015625)"/>
      <path id="DejaVuSans-67" d="M 2906 1791 
Q 2906 2416 2648 2759 
Q 2391 3103 1925 3103 
Q 1463 3103 1205 2759 
Q 947 2416 947 1791 
Q 947 1169 1205 825 
Q 1463 481 1925 481 
Q 2391 481 2648 825 
Q 2906 1169 2906 1791 
z
M 3481 434 
Q 3481 -459 3084 -895 
Q 2688 -1331 1869 -1331 
Q 1566 -1331 1297 -1286 
Q 1028 -1241 775 -1147 
L 775 -588 
Q 1028 -725 1275 -790 
Q 1522 -856 1778 -856 
Q 2344 -856 2625 -561 
Q 2906 -266 2906 331 
L 2906 616 
Q 2728 306 2450 153 
Q 2172 0 1784 0 
Q 1141 0 747 490 
Q 353 981 353 1791 
Q 353 2603 747 3093 
Q 1141 3584 1784 3584 
Q 2172 3584 2450 3431 
Q 2728 3278 2906 2969 
L 2906 3500 
L 3481 3500 
L 3481 434 
z
" transform="scale(0.015625)"/>
     </defs>
     <use xlink:href="#DejaVuSans-15a"/>
     <use xlink:href="#DejaVuSans-72" transform="translate(63.476562 0)"/>
     <use xlink:href="#DejaVuSans-65" transform="translate(102.339844 0)"/>
     <use xlink:href="#DejaVuSans-64" transform="translate(163.863281 0)"/>
     <use xlink:href="#DejaVuSans-6e" transform="translate(227.339844 0)"/>
     <use xlink:href="#DejaVuSans-69" transform="translate(290.71875 0)"/>
     <use xlink:href="#DejaVuSans-65" transform="translate(318.501953 0)"/>
     <use xlink:href="#DejaVuSans-20" transform="translate(380.025391 0)"/>
     <use xlink:href="#DejaVuSans-69" transform="translate(411.8125 0)"/>
     <use xlink:href="#DejaVuSans-20" transform="translate(439.595703 0)"/>
     <use xlink:href="#DejaVuSans-6e" transform="translate(471.382812 0)"/>
     <use xlink:href="#DejaVuSans-61" transform="translate(534.761719 0)"/>
     <use xlink:href="#DejaVuSans-6a" transform="translate(596.041016 0)"/>
     <use xlink:href="#DejaVuSans-6c" transform="translate(623.824219 0)"/>
     <use xlink:href="#DejaVuSans-65" transform="translate(651.607422 0)"/>
     <use xlink:href="#DejaVuSans-70" transform="translate(713.130859 0)"/>
     <use xlink:href="#DejaVuSans-73" transform="translate(776.607422 0)"/>
     <use xlink:href="#DejaVuSans-7a" transform="translate(828.707031 0)"/>
     <use xlink:href="#DejaVuSans-65" transform="translate(881.197266 0)"/>
     <use xlink:href="#DejaVuSans-20" transform="translate(942.720703 0)"/>
     <use xlink:href="#DejaVuSans-70" transform="translate(974.507812 0)"/>
     <use xlink:href="#DejaVuSans-72" transform="translate(1037.984375 0)"/>
     <use xlink:href="#DejaVuSans-7a" transform="translate(1079.097656 0)"/>
     <use xlink:href="#DejaVuSans-79" transform="translate(1131.587891 0)"/>
     <use xlink:href="#DejaVuSans-73" transform="translate(1190.767578 0)"/>
     <use xlink:href="#DejaVuSans-74" transform="translate(1242.867188 0)"/>
     <use xlink:href="#DejaVuSans-6f" transform="translate(1282.076172 0)"/>
     <use xlink:href="#DejaVuSans-73" transform="translate(1343.257812 0)"/>
     <use xlink:href="#DejaVuSans-6f" transform="translate(1395.357422 0)"/>
     <use xlink:href="#DejaVuSans-77" transform="translate(1456.539062 0)"/>
     <use xlink:href="#DejaVuSans-61" transform="translate(1538.326172 0)"/>
     <use xlink:href="#DejaVuSans-6e" transform="translate(1599.605469 0)"/>
     <use xlink:href="#DejaVuSans-69" transform="translate(1662.984375 0)"/>
     <use xlink:href="#DejaVuSans-65" transform="translate(1690.767578 0)"/>
     <use xlink:href="#DejaVuSans-20" transform="translate(1752.291016 0)"/>
     <use xlink:href="#DejaVuSans-77" transform="translate(1784.078125 0)"/>
     <use xlink:href="#DejaVuSans-20" transform="translate(1865.865234 0)"/>
     <use xlink:href="#DejaVuSans-6b" transform="translate(1897.652344 0)"/>
     <use xlink:href="#DejaVuSans-61" transform="translate(1953.8125 0)"/>
     <use xlink:href="#DejaVuSans-17c" transform="translate(2015.091797 0)"/>
     <use xlink:href="#DejaVuSans-64" transform="translate(2067.582031 0)"/>
     <use xlink:href="#DejaVuSans-65" transform="translate(2131.058594 0)"/>
     <use xlink:href="#DejaVuSans-6a" transform="translate(2192.582031 0)"/>
     <use xlink:href="#DejaVuSans-20" transform="translate(2220.365234 0)"/>
     <use xlink:href="#DejaVuSans-67" transform="translate(2252.152344 0)"/>
     <use xlink:href="#DejaVuSans-65" transform="translate(2315.628906 0)"/>
     <use xlink:href="#DejaVuSans-6e" transform="translate(2377.152344 0)"/>
     <use xlink:href="#DejaVuSans-65" transform="translate(2440.53125 0)"/>
     <use xlink:href="#DejaVuSans-72" transform="translate(2502.054688 0)"/>
     <use xlink:href="#DejaVuSans-61" transform="translate(2543.167969 0)"/>
     <use xlink:href="#DejaVuSans-63" transform="translate(2604.447266 0)"/>
     <use xlink:href="#DejaVuSans-6a" transform="translate(2659.427734 0)"/>
     <use xlink:href="#DejaVuSans-69" transform="translate(2687.210938 0)"/>
    </g>
   </g>
   <g id="legend_1">
    <g id="patch_7">
     <path d="M 279.790313 302.584 
L 407.72 302.584 
Q 409.72 302.584 409.72 300.584 
L 409.72 257.549625 
Q 409.72 255.549625 407.72 255.549625 
L 279.790313 255.549625 
Q 277.790313 255.549625 277.790313 257.549625 
L 277.790313 300.584 
Q 277.790313 302.584 279.790313 302.584 
z
" style="fill: #ffffff; opacity: 0.8; stroke: #cccccc; stroke-linejoin: miter"/>
    </g>
    <g id="line2d_24">
     <path d="M 281.790313 263.648062 
L 291.790313 263.648062 
L 301.790313 263.648062 
" style="fill: none; stroke: #0000ff; stroke-width: 1.5; stroke-linecap: square"/>
    </g>
    <g id="text_14">
     <!-- Średnia -->
     <g transform="translate(309.790313 267.148062) scale(0.1 -0.1)">
      <use xlink:href="#DejaVuSans-15a"/>
      <use xlink:href="#DejaVuSans-72" transform="translate(63.476562 0)"/>
      <use xlink:href="#DejaVuSans-65" transform="translate(102.339844 0)"/>
      <use xlink:href="#DejaVuSans-64" transform="translate(163.863281 0)"/>
      <use xlink:href="#DejaVuSans-6e" transform="translate(227.339844 0)"/>
      <use xlink:href="#DejaVuSans-69" transform="translate(290.71875 0)"/>
      <use xlink:href="#DejaVuSans-61" transform="translate(318.501953 0)"/>
     </g>
    </g>
    <g id="line2d_25">
     <path d="M 281.790313 278.326188 
L 291.790313 278.326188 
L 301.790313 278.326188 
" style="fill: none; stroke-dasharray: 9.6,2.4,1.5,2.4; stroke-dashoffset: 0; stroke: #008000; stroke-width: 1.5"/>
    </g>
    <g id="text_15">
     <!-- ±1 Odchylenie std. -->
     <g transform="translate(309.790313 281.826188) scale(0.1 -0.1)">
      <defs>
       <path id="DejaVuSans-b1" d="M 2944 4013 
L 2944 2803 
L 4684 2803 
L 4684 2272 
L 2944 2272 
L 2944 1063 
L 2419 1063 
L 2419 2272 
L 678 2272 
L 678 2803 
L 2419 2803 
L 2419 4013 
L 2944 4013 
z
M 678 531 
L 4684 531 
L 4684 0 
L 678 0 
L 678 531 
z
" transform="scale(0.015625)"/>
       <path id="DejaVuSans-4f" d="M 2522 4238 
Q 1834 4238 1429 3725 
Q 1025 3213 1025 2328 
Q 1025 1447 1429 934 
Q 1834 422 2522 422 
Q 3209 422 3611 934 
Q 4013 1447 4013 2328 
Q 4013 3213 3611 3725 
Q 3209 4238 2522 4238 
z
M 2522 4750 
Q 3503 4750 4090 4092 
Q 4678 3434 4678 2328 
Q 4678 1225 4090 567 
Q 3503 -91 2522 -91 
Q 1538 -91 948 565 
Q 359 1222 359 2328 
Q 359 3434 948 4092 
Q 1538 4750 2522 4750 
z
" transform="scale(0.015625)"/>
       <path id="DejaVuSans-68" d="M 3513 2113 
L 3513 0 
L 2938 0 
L 2938 2094 
Q 2938 2591 2744 2837 
Q 2550 3084 2163 3084 
Q 1697 3084 1428 2787 
Q 1159 2491 1159 1978 
L 1159 0 
L 581 0 
L 581 4863 
L 1159 4863 
L 1159 2956 
Q 1366 3272 1645 3428 
Q 1925 3584 2291 3584 
Q 2894 3584 3203 3211 
Q 3513 2838 3513 2113 
z
" transform="scale(0.015625)"/>
       <path id="DejaVuSans-2e" d="M 684 794 
L 1344 794 
L 1344 0 
L 684 0 
L 684 794 
z
" transform="scale(0.015625)"/>
      </defs>
      <use xlink:href="#DejaVuSans-b1"/>
      <use xlink:href="#DejaVuSans-31" transform="translate(83.789062 0)"/>
      <use xlink:href="#DejaVuSans-20" transform="translate(147.412109 0)"/>
      <use xlink:href="#DejaVuSans-4f" transform="translate(179.199219 0)"/>
      <use xlink:href="#DejaVuSans-64" transform="translate(257.910156 0)"/>
      <use xlink:href="#DejaVuSans-63" transform="translate(321.386719 0)"/>
      <use xlink:href="#DejaVuSans-68" transform="translate(376.367188 0)"/>
      <use xlink:href="#DejaVuSans-79" transform="translate(439.746094 0)"/>
      <use xlink:href="#DejaVuSans-6c" transform="translate(498.925781 0)"/>
      <use xlink:href="#DejaVuSans-65" transform="translate(526.708984 0)"/>
      <use xlink:href="#DejaVuSans-6e" transform="translate(588.232422 0)"/>
      <use xlink:href="#DejaVuSans-69" transform="translate(651.611328 0)"/>
      <use xlink:href="#DejaVuSans-65" transform="translate(679.394531 0)"/>
      <use xlink:href="#DejaVuSans-20" transform="translate(740.917969 0)"/>
      <use xlink:href="#DejaVuSans-73" transform="translate(772.705078 0)"/>
      <use xlink:href="#DejaVuSans-74" transform="translate(824.804688 0)"/>
      <use xlink:href="#DejaVuSans-64" transform="translate(864.013672 0)"/>
      <use xlink:href="#DejaVuSans-2e" transform="translate(927.490234 0)"/>
     </g>
    </g>
    <g id="line2d_26">
     <path d="M 281.790313 293.004312 
L 291.790313 293.004312 
L 301.790313 293.004312 
" style="fill: none; stroke: #ff0000; stroke-width: 1.5; stroke-linecap: square"/>
    </g>
    <g id="text_16">
     <!-- Najlepsze -->
     <g transform="translate(309.790313 296.504312) scale(0.1 -0.1)">
      <defs>
       <path id="DejaVuSans-4e" d="M 628 4666 
L 1478 4666 
L 3547 763 
L 3547 4666 
L 4159 4666 
L 4159 0 
L 3309 0 
L 1241 3903 
L 1241 0 
L 628 0 
L 628 4666 
z
" transform="scale(0.015625)"/>
      </defs>
      <use xlink:href="#DejaVuSans-4e"/>
      <use xlink:href="#DejaVuSans-61" transform="translate(74.804688 0)"/>
      <use xlink:href="#DejaVuSans-6a" transform="translate(136.083984 0)"/>
      <use xlink:href="#DejaVuSans-6c" transform="translate(163.867188 0)"/>
      <use xlink:href="#DejaVuSans-65" transform="translate(191.650391 0)"/>
      <use xlink:href="#DejaVuSans-70" transform="translate(253.173828 0)"/>
      <use xlink:href="#DejaVuSans-73" transform="translate(316.650391 0)"/>
      <use xlink:href="#DejaVuSans-7a" transform="translate(368.75 0)"/>
      <use xlink:href="#DejaVuSans-65" transform="translate(421.240234 0)"/>
     </g>
    </g>
   </g>
  </g>
 </g>
 <defs>
  <clipPath id="pb516b29ec0">
   <rect x="57.6" y="41.472" width="357.12" height="266.112"/>
  </clipPath>
 </defs>
</svg>
