<?xml version="1.0" encoding="utf-8" standalone="no"?>
<!DOCTYPE svg PUBLIC "-//W3C//DTD SVG 1.1//EN"
  "http://www.w3.org/Graphics/SVG/1.1/DTD/svg11.dtd">
<svg xmlns:xlink="http://www.w3.org/1999/xlink" width="720pt" height="432pt" viewBox="0 0 720 432" xmlns="http://www.w3.org/2000/svg" version="1.1">
 <metadata>
  <rdf:RDF xmlns:dc="http://purl.org/dc/elements/1.1/" xmlns:cc="http://creativecommons.org/ns#" xmlns:rdf="http://www.w3.org/1999/02/22-rdf-syntax-ns#">
   <cc:Work>
    <dc:type rdf:resource="http://purl.org/dc/dcmitype/StillImage"/>
    <dc:date>2026-04-27T00:52:15.545743</dc:date>
    <dc:format>image/svg+xml</dc:format>
    <dc:creator>
     <cc:Agent>
      <dc:title>Matplotlib v3.10.8, https://matplotlib.org/</dc:title>
     </cc:Agent>
    </dc:creator>
   </cc:Work>
  </rdf:RDF>
 </metadata>
 <defs>
  <style type="text/css">*{stroke-linejoin: round; stroke-linecap: butt}</style>
 </defs>
 <g id="figure_1">
  <g id="patch_1">
   <path d="M 0 432 
L 720 432 
L 720 0 
L 0 0 
z
" style="fill: #ffffff"/>
  </g>
  <g id="axes_1">
   <g id="patch_2">
    <path d="M 90 384.48 
L 648 384.48 
L 648 51.84 
L 90 51.84 
z
" style="fill: #ffffff"/>
   </g>
   <g id="FillBetweenPolyCollection_1">
    <defs>
     <path id="m8528533196" d="M 115.363636 -229.732135 
L 115.363636 -189.66284 
L 117.912746 -231.663815 
L 120.461855 -245.333568 
L 123.010964 -258.305964 
L 125.560073 -267.931429 
L 128.109182 -257.269863 
L 130.658291 -269.402917 
L 133.207401 -254.412536 
L 135.75651 -269.623095 
L 138.305619 -265.787964 
L 140.854728 -270.148207 
L 143.403837 -278.019882 
L 145.952947 -269.931427 
L 148.502056 -273.165369 
L 151.051165 -277.016273 
L 153.600274 -273.292658 
L 156.149383 -269.743162 
L 158.698492 -266.166756 
L 161.247602 -273.457364 
L 163.796711 -276.083847 
L 166.34582 -283.516107 
L 168.894929 -279.758552 
L 171.444038 -267.404204 
L 173.993148 -280.525622 
L 176.542257 -272.015745 
L 179.091366 -278.19294 
L 181.640475 -276.759877 
L 184.189584 -276.962377 
L 186.738693 -275.202114 
L 189.287803 -279.60279 
L 191.836912 -269.785266 
L 194.386021 -277.440062 
L 196.93513 -271.828383 
L 199.484239 -270.047017 
L 202.033349 -271.385488 
L 204.582458 -264.747088 
L 207.131567 -285.103777 
L 209.680676 -273.726217 
L 212.229785 -282.224686 
L 214.778894 -282.293066 
L 217.328004 -270.578191 
L 219.877113 -273.897013 
L 222.426222 -279.390087 
L 224.975331 -277.61052 
L 227.52444 -275.848212 
L 230.07355 -268.171515 
L 232.622659 -279.682847 
L 235.171768 -273.422706 
L 237.720877 -285.165002 
L 240.269986 -273.839945 
L 242.819095 -277.679451 
L 245.368205 -268.123915 
L 247.917314 -283.564272 
L 250.466423 -279.388182 
L 253.015532 -285.478208 
L 255.564641 -279.527454 
L 258.113751 -279.03247 
L 260.66286 -268.009748 
L 263.211969 -280.706387 
L 265.761078 -287.4148 
L 268.310187 -278.591132 
L 270.859296 -274.987916 
L 273.408406 -274.610292 
L 275.957515 -271.678021 
L 278.506624 -276.526346 
L 281.055733 -276.111569 
L 283.604842 -271.448563 
L 286.153952 -272.373354 
L 288.703061 -287.529327 
L 291.25217 -280.095999 
L 293.801279 -281.18969 
L 296.350388 -274.057615 
L 298.899497 -270.965044 
L 301.448607 -277.307417 
L 303.997716 -281.537194 
L 306.546825 -284.972313 
L 309.095934 -280.857438 
L 311.645043 -283.673195 
L 314.194153 -283.740067 
L 316.743262 -275.221092 
L 319.292371 -287.287675 
L 321.84148 -278.590696 
L 324.390589 -272.817205 
L 326.939698 -286.523404 
L 329.488808 -276.288997 
L 332.037917 -284.439207 
L 334.587026 -285.901287 
L 337.136135 -271.691137 
L 339.685244 -277.168112 
L 342.234354 -278.591378 
L 344.783463 -281.514685 
L 347.332572 -274.923806 
L 349.881681 -278.348933 
L 352.43079 -289.73385 
L 354.979899 -274.929901 
L 357.529009 -288.698906 
L 360.078118 -271.091631 
L 362.627227 -283.62884 
L 365.176336 -278.957303 
L 367.725445 -282.564211 
L 370.274555 -294.215543 
L 372.823664 -271.40168 
L 375.372773 -283.611437 
L 377.921882 -281.358269 
L 380.470991 -276.264613 
L 383.020101 -280.563717 
L 385.56921 -273.705591 
L 388.118319 -273.503962 
L 390.667428 -282.478252 
L 393.216537 -286.708141 
L 395.765646 -286.911017 
L 398.314756 -280.916358 
L 400.863865 -278.666458 
L 403.412974 -283.064527 
L 405.962083 -278.356394 
L 408.511192 -278.904862 
L 411.060302 -273.362635 
L 413.609411 -271.923909 
L 416.15852 -282.853618 
L 418.707629 -282.046673 
L 421.256738 -276.257167 
L 423.805847 -279.341912 
L 426.354957 -283.370249 
L 428.904066 -276.042593 
L 431.453175 -281.188427 
L 434.002284 -279.741259 
L 436.551393 -289.098577 
L 439.100503 -282.033909 
L 441.649612 -286.100673 
L 444.198721 -284.130249 
L 446.74783 -280.930376 
L 449.296939 -289.222437 
L 451.846048 -283.932427 
L 454.395158 -280.649016 
L 456.944267 -276.727763 
L 459.493376 -285.436426 
L 462.042485 -280.787289 
L 464.591594 -279.311182 
L 467.140704 -277.605567 
L 469.689813 -281.814566 
L 472.238922 -262.556104 
L 474.788031 -280.220904 
L 477.33714 -287.403147 
L 479.886249 -272.836788 
L 482.435359 -278.541186 
L 484.984468 -282.25959 
L 487.533577 -282.221982 
L 490.082686 -282.609741 
L 492.631795 -284.248863 
L 495.180905 -291.808193 
L 497.730014 -290.241682 
L 500.279123 -273.430467 
L 502.828232 -283.443178 
L 505.377341 -289.602341 
L 507.92645 -277.074387 
L 510.47556 -282.421061 
L 513.024669 -279.442751 
L 515.573778 -277.795792 
L 518.122887 -288.8541 
L 520.671996 -280.668719 
L 523.221106 -283.60727 
L 525.770215 -284.211317 
L 528.319324 -284.013555 
L 530.868433 -280.311912 
L 533.417542 -275.597858 
L 535.966651 -287.135536 
L 538.515761 -281.946926 
L 541.06487 -277.06332 
L 543.613979 -283.359495 
L 546.163088 -280.012329 
L 548.712197 -276.718688 
L 551.261307 -279.328828 
L 553.810416 -280.625128 
L 556.359525 -291.228942 
L 558.908634 -283.686002 
L 561.457743 -290.725109 
L 564.006852 -289.113527 
L 566.555962 -286.28749 
L 569.105071 -287.854209 
L 571.65418 -279.111869 
L 574.203289 -294.175954 
L 576.752398 -287.115833 
L 579.301508 -284.124627 
L 581.850617 -281.5907 
L 584.399726 -290.622968 
L 586.948835 -284.794953 
L 589.497944 -279.334537 
L 592.047053 -276.663969 
L 594.596163 -274.118832 
L 597.145272 -290.727981 
L 599.694381 -275.672482 
L 602.24349 -288.867892 
L 604.792599 -284.918507 
L 607.341709 -273.87306 
L 609.890818 -278.830383 
L 612.439927 -289.248427 
L 614.989036 -276.123937 
L 617.538145 -277.446929 
L 620.087254 -275.508432 
L 622.636364 -293.747614 
L 622.636364 -341.606431 
L 622.636364 -341.606431 
L 620.087254 -325.415001 
L 617.538145 -341.404812 
L 614.989036 -321.558352 
L 612.439927 -336.736498 
L 609.890818 -346.865504 
L 607.341709 -336.003432 
L 604.792599 -343.943061 
L 602.24349 -335.130776 
L 599.694381 -341.224694 
L 597.145272 -330.97105 
L 594.596163 -329.070494 
L 592.047053 -347.736431 
L 589.497944 -326.885499 
L 586.948835 -329.290299 
L 584.399726 -345.84974 
L 581.850617 -350.362075 
L 579.301508 -327.100627 
L 576.752398 -350.936511 
L 574.203289 -328.734174 
L 571.65418 -321.111473 
L 569.105071 -321.520861 
L 566.555962 -343.019149 
L 564.006852 -330.316552 
L 561.457743 -347.968446 
L 558.908634 -336.47536 
L 556.359525 -341.059508 
L 553.810416 -338.210894 
L 551.261307 -326.759065 
L 548.712197 -345.417476 
L 546.163088 -329.956728 
L 543.613979 -338.564379 
L 541.06487 -337.036857 
L 538.515761 -318.998472 
L 535.966651 -337.882062 
L 533.417542 -349.532407 
L 530.868433 -327.855189 
L 528.319324 -338.615737 
L 525.770215 -332.749413 
L 523.221106 -314.913697 
L 520.671996 -347.401532 
L 518.122887 -330.043129 
L 515.573778 -324.896521 
L 513.024669 -341.425496 
L 510.47556 -339.763468 
L 507.92645 -329.168232 
L 505.377341 -334.666734 
L 502.828232 -341.29305 
L 500.279123 -351.520797 
L 497.730014 -338.232012 
L 495.180905 -337.376824 
L 492.631795 -335.3879 
L 490.082686 -330.327105 
L 487.533577 -338.691284 
L 484.984468 -336.33314 
L 482.435359 -336.409223 
L 479.886249 -357.956738 
L 477.33714 -365.04 
L 474.788031 -341.200681 
L 472.238922 -361.954542 
L 469.689813 -330.768365 
L 467.140704 -332.729786 
L 464.591594 -343.459803 
L 462.042485 -340.783926 
L 459.493376 -325.212636 
L 456.944267 -328.423923 
L 454.395158 -332.550833 
L 451.846048 -346.239149 
L 449.296939 -329.577252 
L 446.74783 -332.264475 
L 444.198721 -341.986949 
L 441.649612 -338.451936 
L 439.100503 -332.053124 
L 436.551393 -334.452638 
L 434.002284 -332.231737 
L 431.453175 -360.586228 
L 428.904066 -329.92743 
L 426.354957 -338.852812 
L 423.805847 -347.862949 
L 421.256738 -324.003377 
L 418.707629 -337.186459 
L 416.15852 -336.973816 
L 413.609411 -334.321229 
L 411.060302 -325.827054 
L 408.511192 -332.522412 
L 405.962083 -330.35811 
L 403.412974 -337.193757 
L 400.863865 -340.78757 
L 398.314756 -321.318497 
L 395.765646 -332.11119 
L 393.216537 -345.069674 
L 390.667428 -347.030396 
L 388.118319 -326.356886 
L 385.56921 -327.137795 
L 383.020101 -326.77027 
L 380.470991 -337.515806 
L 377.921882 -331.796226 
L 375.372773 -348.220743 
L 372.823664 -323.310594 
L 370.274555 -338.133991 
L 367.725445 -342.714664 
L 365.176336 -328.682347 
L 362.627227 -337.836206 
L 360.078118 -348.512109 
L 357.529009 -338.052783 
L 354.979899 -337.521092 
L 352.43079 -352.722885 
L 349.881681 -328.610089 
L 347.332572 -325.62109 
L 344.783463 -330.867026 
L 342.234354 -355.644235 
L 339.685244 -330.617344 
L 337.136135 -339.294061 
L 334.587026 -323.192613 
L 332.037917 -342.742294 
L 329.488808 -332.14191 
L 326.939698 -328.819646 
L 324.390589 -331.318853 
L 321.84148 -325.045946 
L 319.292371 -348.496265 
L 316.743262 -336.75027 
L 314.194153 -347.821075 
L 311.645043 -330.057217 
L 309.095934 -326.454955 
L 306.546825 -333.071917 
L 303.997716 -336.389121 
L 301.448607 -332.392469 
L 298.899497 -328.947186 
L 296.350388 -347.744437 
L 293.801279 -320.156988 
L 291.25217 -333.170847 
L 288.703061 -324.217376 
L 286.153952 -337.377871 
L 283.604842 -322.057793 
L 281.055733 -311.843996 
L 278.506624 -320.803294 
L 275.957515 -322.469803 
L 273.408406 -341.907392 
L 270.859296 -347.229151 
L 268.310187 -325.732153 
L 265.761078 -348.052151 
L 263.211969 -328.476466 
L 260.66286 -332.038928 
L 258.113751 -326.162917 
L 255.564641 -330.814523 
L 253.015532 -356.262561 
L 250.466423 -320.605874 
L 247.917314 -337.970754 
L 245.368205 -334.642438 
L 242.819095 -334.600454 
L 240.269986 -341.880541 
L 237.720877 -331.5182 
L 235.171768 -327.170836 
L 232.622659 -331.268934 
L 230.07355 -324.863726 
L 227.52444 -352.662587 
L 224.975331 -319.248061 
L 222.426222 -345.817771 
L 219.877113 -315.716725 
L 217.328004 -331.790404 
L 214.778894 -350.3211 
L 212.229785 -327.287012 
L 209.680676 -323.854321 
L 207.131567 -341.295256 
L 204.582458 -356.655799 
L 202.033349 -338.376013 
L 199.484239 -330.085316 
L 196.93513 -314.359527 
L 194.386021 -310.535877 
L 191.836912 -342.661211 
L 189.287803 -325.137069 
L 186.738693 -327.902302 
L 184.189584 -320.831511 
L 181.640475 -340.216003 
L 179.091366 -329.17026 
L 176.542257 -318.871661 
L 173.993148 -320.103269 
L 171.444038 -318.847476 
L 168.894929 -317.141667 
L 166.34582 -320.061863 
L 163.796711 -340.10111 
L 161.247602 -319.15401 
L 158.698492 -313.168467 
L 156.149383 -326.084481 
L 153.600274 -307.617234 
L 151.051165 -319.953748 
L 148.502056 -317.242733 
L 145.952947 -324.07836 
L 143.403837 -328.631276 
L 140.854728 -313.097241 
L 138.305619 -325.228861 
L 135.75651 -311.469422 
L 133.207401 -328.431472 
L 130.658291 -298.686882 
L 128.109182 -303.25926 
L 125.560073 -321.014791 
L 123.010964 -318.710261 
L 120.461855 -288.959777 
L 117.912746 -284.20584 
L 115.363636 -229.732135 
z
" style="stroke: #ff0000; stroke-opacity: 0.2"/>
    </defs>
    <g clip-path="url(#pf8ac73ab80)">
     <use xlink:href="#m8528533196" x="0" y="432" style="fill: #ff0000; fill-opacity: 0.2; stroke: #ff0000; stroke-opacity: 0.2"/>
    </g>
   </g>
   <g id="matplotlib.axis_1">
    <g id="xtick_1">
     <g id="line2d_1">
      <path d="M 112.814527 384.48 
L 112.814527 51.84 
" clip-path="url(#pf8ac73ab80)" style="fill: none; stroke: #b0b0b0; stroke-width: 0.8; stroke-linecap: square"/>
     </g>
     <g id="line2d_2">
      <defs>
       <path id="m5a701032a9" d="M 0 0 
L 0 3.5 
" style="stroke: #000000; stroke-width: 0.8"/>
      </defs>
      <g>
       <use xlink:href="#m5a701032a9" x="112.814527" y="384.48" style="stroke: #000000; stroke-width: 0.8"/>
      </g>
     </g>
     <g id="text_1">
      <!-- 0 -->
      <g transform="translate(109.633277 399.078438) scale(0.1 -0.1)">
       <defs>
        <path id="DejaVuSans-30" d="M 2034 4250 
Q 1547 4250 1301 3770 
Q 1056 3291 1056 2328 
Q 1056 1369 1301 889 
Q 1547 409 2034 409 
Q 2525 409 2770 889 
Q 3016 1369 3016 2328 
Q 3016 3291 2770 3770 
Q 2525 4250 2034 4250 
z
M 2034 4750 
Q 2819 4750 3233 4129 
Q 3647 3509 3647 2328 
Q 3647 1150 3233 529 
Q 2819 -91 2034 -91 
Q 1250 -91 836 529 
Q 422 1150 422 2328 
Q 422 3509 836 4129 
Q 1250 4750 2034 4750 
z
" transform="scale(0.015625)"/>
       </defs>
       <use xlink:href="#DejaVuSans-30"/>
      </g>
     </g>
    </g>
    <g id="xtick_2">
     <g id="line2d_3">
      <path d="M 176.542257 384.48 
L 176.542257 51.84 
" clip-path="url(#pf8ac73ab80)" style="fill: none; stroke: #b0b0b0; stroke-width: 0.8; stroke-linecap: square"/>
     </g>
     <g id="line2d_4">
      <g>
       <use xlink:href="#m5a701032a9" x="176.542257" y="384.48" style="stroke: #000000; stroke-width: 0.8"/>
      </g>
     </g>
     <g id="text_2">
      <!-- 25 -->
      <g transform="translate(170.179757 399.078438) scale(0.1 -0.1)">
       <defs>
        <path id="DejaVuSans-32" d="M 1228 531 
L 3431 531 
L 3431 0 
L 469 0 
L 469 531 
Q 828 903 1448 1529 
Q 2069 2156 2228 2338 
Q 2531 2678 2651 2914 
Q 2772 3150 2772 3378 
Q 2772 3750 2511 3984 
Q 2250 4219 1831 4219 
Q 1534 4219 1204 4116 
Q 875 4013 500 3803 
L 500 4441 
Q 881 4594 1212 4672 
Q 1544 4750 1819 4750 
Q 2544 4750 2975 4387 
Q 3406 4025 3406 3419 
Q 3406 3131 3298 2873 
Q 3191 2616 2906 2266 
Q 2828 2175 2409 1742 
Q 1991 1309 1228 531 
z
" transform="scale(0.015625)"/>
        <path id="DejaVuSans-35" d="M 691 4666 
L 3169 4666 
L 3169 4134 
L 1269 4134 
L 1269 2991 
Q 1406 3038 1543 3061 
Q 1681 3084 1819 3084 
Q 2600 3084 3056 2656 
Q 3513 2228 3513 1497 
Q 3513 744 3044 326 
Q 2575 -91 1722 -91 
Q 1428 -91 1123 -41 
Q 819 9 494 109 
L 494 744 
Q 775 591 1075 516 
Q 1375 441 1709 441 
Q 2250 441 2565 725 
Q 2881 1009 2881 1497 
Q 2881 1984 2565 2268 
Q 2250 2553 1709 2553 
Q 1456 2553 1204 2497 
Q 953 2441 691 2322 
L 691 4666 
z
" transform="scale(0.015625)"/>
       </defs>
       <use xlink:href="#DejaVuSans-32"/>
       <use xlink:href="#DejaVuSans-35" transform="translate(63.623047 0)"/>
      </g>
     </g>
    </g>
    <g id="xtick_3">
     <g id="line2d_5">
      <path d="M 240.269986 384.48 
L 240.269986 51.84 
" clip-path="url(#pf8ac73ab80)" style="fill: none; stroke: #b0b0b0; stroke-width: 0.8; stroke-linecap: square"/>
     </g>
     <g id="line2d_6">
      <g>
       <use xlink:href="#m5a701032a9" x="240.269986" y="384.48" style="stroke: #000000; stroke-width: 0.8"/>
      </g>
     </g>
     <g id="text_3">
      <!-- 50 -->
      <g transform="translate(233.907486 399.078438) scale(0.1 -0.1)">
       <use xlink:href="#DejaVuSans-35"/>
       <use xlink:href="#DejaVuSans-30" transform="translate(63.623047 0)"/>
      </g>
     </g>
    </g>
    <g id="xtick_4">
     <g id="line2d_7">
      <path d="M 303.997716 384.48 
L 303.997716 51.84 
" clip-path="url(#pf8ac73ab80)" style="fill: none; stroke: #b0b0b0; stroke-width: 0.8; stroke-linecap: square"/>
     </g>
     <g id="line2d_8">
      <g>
       <use xlink:href="#m5a701032a9" x="303.997716" y="384.48" style="stroke: #000000; stroke-width: 0.8"/>
      </g>
     </g>
     <g id="text_4">
      <!-- 75 -->
      <g transform="translate(297.635216 399.078438) scale(0.1 -0.1)">
       <defs>
        <path id="DejaVuSans-37" d="M 525 4666 
L 3525 4666 
L 3525 4397 
L 1831 0 
L 1172 0 
L 2766 4134 
L 525 4134 
L 525 4666 
z
" transform="scale(0.015625)"/>
       </defs>
       <use xlink:href="#DejaVuSans-37"/>
       <use xlink:href="#DejaVuSans-35" transform="translate(63.623047 0)"/>
      </g>
     </g>
    </g>
    <g id="xtick_5">
     <g id="line2d_9">
      <path d="M 367.725445 384.48 
L 367.725445 51.84 
" clip-path="url(#pf8ac73ab80)" style="fill: none; stroke: #b0b0b0; stroke-width: 0.8; stroke-linecap: square"/>
     </g>
     <g id="line2d_10">
      <g>
       <use xlink:href="#m5a701032a9" x="367.725445" y="384.48" style="stroke: #000000; stroke-width: 0.8"/>
      </g>
     </g>
     <g id="text_5">
      <!-- 100 -->
      <g transform="translate(358.181695 399.078438) scale(0.1 -0.1)">
       <defs>
        <path id="DejaVuSans-31" d="M 794 531 
L 1825 531 
L 1825 4091 
L 703 3866 
L 703 4441 
L 1819 4666 
L 2450 4666 
L 2450 531 
L 3481 531 
L 3481 0 
L 794 0 
L 794 531 
z
" transform="scale(0.015625)"/>
       </defs>
       <use xlink:href="#DejaVuSans-31"/>
       <use xlink:href="#DejaVuSans-30" transform="translate(63.623047 0)"/>
       <use xlink:href="#DejaVuSans-30" transform="translate(127.246094 0)"/>
      </g>
     </g>
    </g>
    <g id="xtick_6">
     <g id="line2d_11">
      <path d="M 431.453175 384.48 
L 431.453175 51.84 
" clip-path="url(#pf8ac73ab80)" style="fill: none; stroke: #b0b0b0; stroke-width: 0.8; stroke-linecap: square"/>
     </g>
     <g id="line2d_12">
      <g>
       <use xlink:href="#m5a701032a9" x="431.453175" y="384.48" style="stroke: #000000; stroke-width: 0.8"/>
      </g>
     </g>
     <g id="text_6">
      <!-- 125 -->
      <g transform="translate(421.909425 399.078438) scale(0.1 -0.1)">
       <use xlink:href="#DejaVuSans-31"/>
       <use xlink:href="#DejaVuSans-32" transform="translate(63.623047 0)"/>
       <use xlink:href="#DejaVuSans-35" transform="translate(127.246094 0)"/>
      </g>
     </g>
    </g>
    <g id="xtick_7">
     <g id="line2d_13">
      <path d="M 495.180905 384.48 
L 495.180905 51.84 
" clip-path="url(#pf8ac73ab80)" style="fill: none; stroke: #b0b0b0; stroke-width: 0.8; stroke-linecap: square"/>
     </g>
     <g id="line2d_14">
      <g>
       <use xlink:href="#m5a701032a9" x="495.180905" y="384.48" style="stroke: #000000; stroke-width: 0.8"/>
      </g>
     </g>
     <g id="text_7">
      <!-- 150 -->
      <g transform="translate(485.637155 399.078438) scale(0.1 -0.1)">
       <use xlink:href="#DejaVuSans-31"/>
       <use xlink:href="#DejaVuSans-35" transform="translate(63.623047 0)"/>
       <use xlink:href="#DejaVuSans-30" transform="translate(127.246094 0)"/>
      </g>
     </g>
    </g>
    <g id="xtick_8">
     <g id="line2d_15">
      <path d="M 558.908634 384.48 
L 558.908634 51.84 
" clip-path="url(#pf8ac73ab80)" style="fill: none; stroke: #b0b0b0; stroke-width: 0.8; stroke-linecap: square"/>
     </g>
     <g id="line2d_16">
      <g>
       <use xlink:href="#m5a701032a9" x="558.908634" y="384.48" style="stroke: #000000; stroke-width: 0.8"/>
      </g>
     </g>
     <g id="text_8">
      <!-- 175 -->
      <g transform="translate(549.364884 399.078438) scale(0.1 -0.1)">
       <use xlink:href="#DejaVuSans-31"/>
       <use xlink:href="#DejaVuSans-37" transform="translate(63.623047 0)"/>
       <use xlink:href="#DejaVuSans-35" transform="translate(127.246094 0)"/>
      </g>
     </g>
    </g>
    <g id="xtick_9">
     <g id="line2d_17">
      <path d="M 622.636364 384.48 
L 622.636364 51.84 
" clip-path="url(#pf8ac73ab80)" style="fill: none; stroke: #b0b0b0; stroke-width: 0.8; stroke-linecap: square"/>
     </g>
     <g id="line2d_18">
      <g>
       <use xlink:href="#m5a701032a9" x="622.636364" y="384.48" style="stroke: #000000; stroke-width: 0.8"/>
      </g>
     </g>
     <g id="text_9">
      <!-- 200 -->
      <g transform="translate(613.092614 399.078438) scale(0.1 -0.1)">
       <use xlink:href="#DejaVuSans-32"/>
       <use xlink:href="#DejaVuSans-30" transform="translate(63.623047 0)"/>
       <use xlink:href="#DejaVuSans-30" transform="translate(127.246094 0)"/>
      </g>
     </g>
    </g>
    <g id="text_10">
     <!-- Generacje -->
     <g transform="translate(343.469531 412.756563) scale(0.1 -0.1)">
      <defs>
       <path id="DejaVuSans-47" d="M 3809 666 
L 3809 1919 
L 2778 1919 
L 2778 2438 
L 4434 2438 
L 4434 434 
Q 4069 175 3628 42 
Q 3188 -91 2688 -91 
Q 1594 -91 976 548 
Q 359 1188 359 2328 
Q 359 3472 976 4111 
Q 1594 4750 2688 4750 
Q 3144 4750 3555 4637 
Q 3966 4525 4313 4306 
L 4313 3634 
Q 3963 3931 3569 4081 
Q 3175 4231 2741 4231 
Q 1884 4231 1454 3753 
Q 1025 3275 1025 2328 
Q 1025 1384 1454 906 
Q 1884 428 2741 428 
Q 3075 428 3337 486 
Q 3600 544 3809 666 
z
" transform="scale(0.015625)"/>
       <path id="DejaVuSans-65" d="M 3597 1894 
L 3597 1613 
L 953 1613 
Q 991 1019 1311 708 
Q 1631 397 2203 397 
Q 2534 397 2845 478 
Q 3156 559 3463 722 
L 3463 178 
Q 3153 47 2828 -22 
Q 2503 -91 2169 -91 
Q 1331 -91 842 396 
Q 353 884 353 1716 
Q 353 2575 817 3079 
Q 1281 3584 2069 3584 
Q 2775 3584 3186 3129 
Q 3597 2675 3597 1894 
z
M 3022 2063 
Q 3016 2534 2758 2815 
Q 2500 3097 2075 3097 
Q 1594 3097 1305 2825 
Q 1016 2553 972 2059 
L 3022 2063 
z
" transform="scale(0.015625)"/>
       <path id="DejaVuSans-6e" d="M 3513 2113 
L 3513 0 
L 2938 0 
L 2938 2094 
Q 2938 2591 2744 2837 
Q 2550 3084 2163 3084 
Q 1697 3084 1428 2787 
Q 1159 2491 1159 1978 
L 1159 0 
L 581 0 
L 581 3500 
L 1159 3500 
L 1159 2956 
Q 1366 3272 1645 3428 
Q 1925 3584 2291 3584 
Q 2894 3584 3203 3211 
Q 3513 2838 3513 2113 
z
" transform="scale(0.015625)"/>
       <path id="DejaVuSans-72" d="M 2631 2963 
Q 2534 3019 2420 3045 
Q 2306 3072 2169 3072 
Q 1681 3072 1420 2755 
Q 1159 2438 1159 1844 
L 1159 0 
L 581 0 
L 581 3500 
L 1159 3500 
L 1159 2956 
Q 1341 3275 1631 3429 
Q 1922 3584 2338 3584 
Q 2397 3584 2469 3576 
Q 2541 3569 2628 3553 
L 2631 2963 
z
" transform="scale(0.015625)"/>
       <path id="DejaVuSans-61" d="M 2194 1759 
Q 1497 1759 1228 1600 
Q 959 1441 959 1056 
Q 959 750 1161 570 
Q 1363 391 1709 391 
Q 2188 391 2477 730 
Q 2766 1069 2766 1631 
L 2766 1759 
L 2194 1759 
z
M 3341 1997 
L 3341 0 
L 2766 0 
L 2766 531 
Q 2569 213 2275 61 
Q 1981 -91 1556 -91 
Q 1019 -91 701 211 
Q 384 513 384 1019 
Q 384 1609 779 1909 
Q 1175 2209 1959 2209 
L 2766 2209 
L 2766 2266 
Q 2766 2663 2505 2880 
Q 2244 3097 1772 3097 
Q 1472 3097 1187 3025 
Q 903 2953 641 2809 
L 641 3341 
Q 956 3463 1253 3523 
Q 1550 3584 1831 3584 
Q 2591 3584 2966 3190 
Q 3341 2797 3341 1997 
z
" transform="scale(0.015625)"/>
       <path id="DejaVuSans-63" d="M 3122 3366 
L 3122 2828 
Q 2878 2963 2633 3030 
Q 2388 3097 2138 3097 
Q 1578 3097 1268 2742 
Q 959 2388 959 1747 
Q 959 1106 1268 751 
Q 1578 397 2138 397 
Q 2388 397 2633 464 
Q 2878 531 3122 666 
L 3122 134 
Q 2881 22 2623 -34 
Q 2366 -91 2075 -91 
Q 1284 -91 818 406 
Q 353 903 353 1747 
Q 353 2603 823 3093 
Q 1294 3584 2113 3584 
Q 2378 3584 2631 3529 
Q 2884 3475 3122 3366 
z
" transform="scale(0.015625)"/>
       <path id="DejaVuSans-6a" d="M 603 3500 
L 1178 3500 
L 1178 -63 
Q 1178 -731 923 -1031 
Q 669 -1331 103 -1331 
L -116 -1331 
L -116 -844 
L 38 -844 
Q 366 -844 484 -692 
Q 603 -541 603 -63 
L 603 3500 
z
M 603 4863 
L 1178 4863 
L 1178 4134 
L 603 4134 
L 603 4863 
z
" transform="scale(0.015625)"/>
      </defs>
      <use xlink:href="#DejaVuSans-47"/>
      <use xlink:href="#DejaVuSans-65" transform="translate(77.490234 0)"/>
      <use xlink:href="#DejaVuSans-6e" transform="translate(139.013672 0)"/>
      <use xlink:href="#DejaVuSans-65" transform="translate(202.392578 0)"/>
      <use xlink:href="#DejaVuSans-72" transform="translate(263.916016 0)"/>
      <use xlink:href="#DejaVuSans-61" transform="translate(305.029297 0)"/>
      <use xlink:href="#DejaVuSans-63" transform="translate(366.308594 0)"/>
      <use xlink:href="#DejaVuSans-6a" transform="translate(421.289062 0)"/>
      <use xlink:href="#DejaVuSans-65" transform="translate(449.072266 0)"/>
     </g>
    </g>
   </g>
   <g id="matplotlib.axis_2">
    <g id="ytick_1">
     <g id="line2d_19">
      <path d="M 90 360.585905 
L 648 360.585905 
" clip-path="url(#pf8ac73ab80)" style="fill: none; stroke: #b0b0b0; stroke-width: 0.8; stroke-linecap: square"/>
     </g>
     <g id="line2d_20">
      <defs>
       <path id="m364a76ba2f" d="M 0 0 
L -3.5 0 
" style="stroke: #000000; stroke-width: 0.8"/>
      </defs>
      <g>
       <use xlink:href="#m364a76ba2f" x="90" y="360.585905" style="stroke: #000000; stroke-width: 0.8"/>
      </g>
     </g>
     <g id="text_11">
      <!-- 40 -->
      <g transform="translate(70.275 364.385123) scale(0.1 -0.1)">
       <defs>
        <path id="DejaVuSans-34" d="M 2419 4116 
L 825 1625 
L 2419 1625 
L 2419 4116 
z
M 2253 4666 
L 3047 4666 
L 3047 1625 
L 3713 1625 
L 3713 1100 
L 3047 1100 
L 3047 0 
L 2419 0 
L 2419 1100 
L 313 1100 
L 313 1709 
L 2253 4666 
z
" transform="scale(0.015625)"/>
       </defs>
       <use xlink:href="#DejaVuSans-34"/>
       <use xlink:href="#DejaVuSans-30" transform="translate(63.623047 0)"/>
      </g>
     </g>
    </g>
    <g id="ytick_2">
     <g id="line2d_21">
      <path d="M 90 309.794203 
L 648 309.794203 
" clip-path="url(#pf8ac73ab80)" style="fill: none; stroke: #b0b0b0; stroke-width: 0.8; stroke-linecap: square"/>
     </g>
     <g id="line2d_22">
      <g>
       <use xlink:href="#m364a76ba2f" x="90" y="309.794203" style="stroke: #000000; stroke-width: 0.8"/>
      </g>
     </g>
     <g id="text_12">
      <!-- 60 -->
      <g transform="translate(70.275 313.593422) scale(0.1 -0.1)">
       <defs>
        <path id="DejaVuSans-36" d="M 2113 2584 
Q 1688 2584 1439 2293 
Q 1191 2003 1191 1497 
Q 1191 994 1439 701 
Q 1688 409 2113 409 
Q 2538 409 2786 701 
Q 3034 994 3034 1497 
Q 3034 2003 2786 2293 
Q 2538 2584 2113 2584 
z
M 3366 4563 
L 3366 3988 
Q 3128 4100 2886 4159 
Q 2644 4219 2406 4219 
Q 1781 4219 1451 3797 
Q 1122 3375 1075 2522 
Q 1259 2794 1537 2939 
Q 1816 3084 2150 3084 
Q 2853 3084 3261 2657 
Q 3669 2231 3669 1497 
Q 3669 778 3244 343 
Q 2819 -91 2113 -91 
Q 1303 -91 875 529 
Q 447 1150 447 2328 
Q 447 3434 972 4092 
Q 1497 4750 2381 4750 
Q 2619 4750 2861 4703 
Q 3103 4656 3366 4563 
z
" transform="scale(0.015625)"/>
       </defs>
       <use xlink:href="#DejaVuSans-36"/>
       <use xlink:href="#DejaVuSans-30" transform="translate(63.623047 0)"/>
      </g>
     </g>
    </g>
    <g id="ytick_3">
     <g id="line2d_23">
      <path d="M 90 259.002501 
L 648 259.002501 
" clip-path="url(#pf8ac73ab80)" style="fill: none; stroke: #b0b0b0; stroke-width: 0.8; stroke-linecap: square"/>
     </g>
     <g id="line2d_24">
      <g>
       <use xlink:href="#m364a76ba2f" x="90" y="259.002501" style="stroke: #000000; stroke-width: 0.8"/>
      </g>
     </g>
     <g id="text_13">
      <!-- 80 -->
      <g transform="translate(70.275 262.80172) scale(0.1 -0.1)">
       <defs>
        <path id="DejaVuSans-38" d="M 2034 2216 
Q 1584 2216 1326 1975 
Q 1069 1734 1069 1313 
Q 1069 891 1326 650 
Q 1584 409 2034 409 
Q 2484 409 2743 651 
Q 3003 894 3003 1313 
Q 3003 1734 2745 1975 
Q 2488 2216 2034 2216 
z
M 1403 2484 
Q 997 2584 770 2862 
Q 544 3141 544 3541 
Q 544 4100 942 4425 
Q 1341 4750 2034 4750 
Q 2731 4750 3128 4425 
Q 3525 4100 3525 3541 
Q 3525 3141 3298 2862 
Q 3072 2584 2669 2484 
Q 3125 2378 3379 2068 
Q 3634 1759 3634 1313 
Q 3634 634 3220 271 
Q 2806 -91 2034 -91 
Q 1263 -91 848 271 
Q 434 634 434 1313 
Q 434 1759 690 2068 
Q 947 2378 1403 2484 
z
M 1172 3481 
Q 1172 3119 1398 2916 
Q 1625 2713 2034 2713 
Q 2441 2713 2670 2916 
Q 2900 3119 2900 3481 
Q 2900 3844 2670 4047 
Q 2441 4250 2034 4250 
Q 1625 4250 1398 4047 
Q 1172 3844 1172 3481 
z
" transform="scale(0.015625)"/>
       </defs>
       <use xlink:href="#DejaVuSans-38"/>
       <use xlink:href="#DejaVuSans-30" transform="translate(63.623047 0)"/>
      </g>
     </g>
    </g>
    <g id="ytick_4">
     <g id="line2d_25">
      <path d="M 90 208.210799 
L 648 208.210799 
" clip-path="url(#pf8ac73ab80)" style="fill: none; stroke: #b0b0b0; stroke-width: 0.8; stroke-linecap: square"/>
     </g>
     <g id="line2d_26">
      <g>
       <use xlink:href="#m364a76ba2f" x="90" y="208.210799" style="stroke: #000000; stroke-width: 0.8"/>
      </g>
     </g>
     <g id="text_14">
      <!-- 100 -->
      <g transform="translate(63.9125 212.010018) scale(0.1 -0.1)">
       <use xlink:href="#DejaVuSans-31"/>
       <use xlink:href="#DejaVuSans-30" transform="translate(63.623047 0)"/>
       <use xlink:href="#DejaVuSans-30" transform="translate(127.246094 0)"/>
      </g>
     </g>
    </g>
    <g id="ytick_5">
     <g id="line2d_27">
      <path d="M 90 157.419098 
L 648 157.419098 
" clip-path="url(#pf8ac73ab80)" style="fill: none; stroke: #b0b0b0; stroke-width: 0.8; stroke-linecap: square"/>
     </g>
     <g id="line2d_28">
      <g>
       <use xlink:href="#m364a76ba2f" x="90" y="157.419098" style="stroke: #000000; stroke-width: 0.8"/>
      </g>
     </g>
     <g id="text_15">
      <!-- 120 -->
      <g transform="translate(63.9125 161.218316) scale(0.1 -0.1)">
       <use xlink:href="#DejaVuSans-31"/>
       <use xlink:href="#DejaVuSans-32" transform="translate(63.623047 0)"/>
       <use xlink:href="#DejaVuSans-30" transform="translate(127.246094 0)"/>
      </g>
     </g>
    </g>
    <g id="ytick_6">
     <g id="line2d_29">
      <path d="M 90 106.627396 
L 648 106.627396 
" clip-path="url(#pf8ac73ab80)" style="fill: none; stroke: #b0b0b0; stroke-width: 0.8; stroke-linecap: square"/>
     </g>
     <g id="line2d_30">
      <g>
       <use xlink:href="#m364a76ba2f" x="90" y="106.627396" style="stroke: #000000; stroke-width: 0.8"/>
      </g>
     </g>
     <g id="text_16">
      <!-- 140 -->
      <g transform="translate(63.9125 110.426615) scale(0.1 -0.1)">
       <use xlink:href="#DejaVuSans-31"/>
       <use xlink:href="#DejaVuSans-34" transform="translate(63.623047 0)"/>
       <use xlink:href="#DejaVuSans-30" transform="translate(127.246094 0)"/>
      </g>
     </g>
    </g>
    <g id="ytick_7">
     <g id="line2d_31">
      <path d="M 90 55.835694 
L 648 55.835694 
" clip-path="url(#pf8ac73ab80)" style="fill: none; stroke: #b0b0b0; stroke-width: 0.8; stroke-linecap: square"/>
     </g>
     <g id="line2d_32">
      <g>
       <use xlink:href="#m364a76ba2f" x="90" y="55.835694" style="stroke: #000000; stroke-width: 0.8"/>
      </g>
     </g>
     <g id="text_17">
      <!-- 160 -->
      <g transform="translate(63.9125 59.634913) scale(0.1 -0.1)">
       <use xlink:href="#DejaVuSans-31"/>
       <use xlink:href="#DejaVuSans-36" transform="translate(63.623047 0)"/>
       <use xlink:href="#DejaVuSans-30" transform="translate(127.246094 0)"/>
      </g>
     </g>
    </g>
    <g id="text_18">
     <!-- Fitness -->
     <g transform="translate(57.832812 235.477187) rotate(-90) scale(0.1 -0.1)">
      <defs>
       <path id="DejaVuSans-46" d="M 628 4666 
L 3309 4666 
L 3309 4134 
L 1259 4134 
L 1259 2759 
L 3109 2759 
L 3109 2228 
L 1259 2228 
L 1259 0 
L 628 0 
L 628 4666 
z
" transform="scale(0.015625)"/>
       <path id="DejaVuSans-69" d="M 603 3500 
L 1178 3500 
L 1178 0 
L 603 0 
L 603 3500 
z
M 603 4863 
L 1178 4863 
L 1178 4134 
L 603 4134 
L 603 4863 
z
" transform="scale(0.015625)"/>
       <path id="DejaVuSans-74" d="M 1172 4494 
L 1172 3500 
L 2356 3500 
L 2356 3053 
L 1172 3053 
L 1172 1153 
Q 1172 725 1289 603 
Q 1406 481 1766 481 
L 2356 481 
L 2356 0 
L 1766 0 
Q 1100 0 847 248 
Q 594 497 594 1153 
L 594 3053 
L 172 3053 
L 172 3500 
L 594 3500 
L 594 4494 
L 1172 4494 
z
" transform="scale(0.015625)"/>
       <path id="DejaVuSans-73" d="M 2834 3397 
L 2834 2853 
Q 2591 2978 2328 3040 
Q 2066 3103 1784 3103 
Q 1356 3103 1142 2972 
Q 928 2841 928 2578 
Q 928 2378 1081 2264 
Q 1234 2150 1697 2047 
L 1894 2003 
Q 2506 1872 2764 1633 
Q 3022 1394 3022 966 
Q 3022 478 2636 193 
Q 2250 -91 1575 -91 
Q 1294 -91 989 -36 
Q 684 19 347 128 
L 347 722 
Q 666 556 975 473 
Q 1284 391 1588 391 
Q 1994 391 2212 530 
Q 2431 669 2431 922 
Q 2431 1156 2273 1281 
Q 2116 1406 1581 1522 
L 1381 1569 
Q 847 1681 609 1914 
Q 372 2147 372 2553 
Q 372 3047 722 3315 
Q 1072 3584 1716 3584 
Q 2034 3584 2315 3537 
Q 2597 3491 2834 3397 
z
" transform="scale(0.015625)"/>
      </defs>
      <use xlink:href="#DejaVuSans-46"/>
      <use xlink:href="#DejaVuSans-69" transform="translate(50.269531 0)"/>
      <use xlink:href="#DejaVuSans-74" transform="translate(78.052734 0)"/>
      <use xlink:href="#DejaVuSans-6e" transform="translate(117.261719 0)"/>
      <use xlink:href="#DejaVuSans-65" transform="translate(180.640625 0)"/>
      <use xlink:href="#DejaVuSans-73" transform="translate(242.164062 0)"/>
      <use xlink:href="#DejaVuSans-73" transform="translate(294.263672 0)"/>
     </g>
    </g>
   </g>
   <g id="line2d_33">
    <path d="M 115.363636 222.302513 
L 117.912746 174.065172 
L 120.461855 164.853327 
L 123.010964 143.491887 
L 125.560073 137.52689 
L 128.109182 151.735439 
L 130.658291 147.955101 
L 133.207401 140.577996 
L 135.75651 141.453741 
L 138.305619 136.491587 
L 140.854728 140.377276 
L 143.403837 128.674421 
L 145.952947 134.995107 
L 148.502056 136.795949 
L 151.051165 133.51499 
L 153.600274 141.545054 
L 156.149383 134.086179 
L 158.698492 142.332389 
L 161.247602 135.694313 
L 163.796711 123.907522 
L 166.34582 130.211015 
L 168.894929 133.549891 
L 171.444038 138.87416 
L 173.993148 131.685554 
L 176.542257 136.556297 
L 179.091366 128.3184 
L 181.640475 123.51206 
L 184.189584 133.103056 
L 186.738693 130.447792 
L 189.287803 129.63007 
L 191.836912 125.776762 
L 194.386021 138.012031 
L 196.93513 138.906045 
L 199.484239 131.933834 
L 202.033349 127.11925 
L 204.582458 121.298556 
L 207.131567 118.800483 
L 209.680676 133.209731 
L 212.229785 127.244151 
L 214.778894 115.692917 
L 217.328004 130.815703 
L 219.877113 137.193131 
L 222.426222 119.396071 
L 224.975331 133.570709 
L 227.52444 117.744601 
L 230.07355 135.482379 
L 232.622659 126.524109 
L 235.171768 131.703229 
L 237.720877 123.658399 
L 240.269986 124.139757 
L 242.819095 125.860048 
L 245.368205 130.616824 
L 247.917314 121.232487 
L 250.466423 132.002972 
L 253.015532 111.129615 
L 255.564641 126.829012 
L 260.66286 131.975662 
L 263.211969 127.408573 
L 265.761078 114.266524 
L 268.310187 129.838358 
L 270.859296 120.891466 
L 273.408406 123.741158 
L 275.957515 134.926088 
L 278.506624 133.33518 
L 281.055733 138.022218 
L 283.604842 135.246822 
L 286.153952 127.124388 
L 288.703061 126.126648 
L 291.25217 125.366577 
L 293.801279 131.326661 
L 296.350388 121.098974 
L 298.899497 132.043885 
L 301.448607 127.150057 
L 303.997716 123.036842 
L 306.546825 122.977885 
L 309.095934 128.343804 
L 311.645043 125.134794 
L 314.194153 116.219429 
L 316.743262 126.014319 
L 319.292371 114.10803 
L 321.84148 130.181679 
L 324.390589 129.931971 
L 326.939698 124.328475 
L 329.488808 127.784546 
L 332.037917 118.409249 
L 334.587026 127.45305 
L 337.136135 126.507401 
L 339.685244 128.107272 
L 342.234354 114.882193 
L 344.783463 125.809145 
L 347.332572 131.727552 
L 349.881681 128.520489 
L 352.43079 110.771632 
L 354.979899 125.774504 
L 357.529009 118.624155 
L 360.078118 122.19813 
L 362.627227 121.267477 
L 365.176336 128.180175 
L 367.725445 119.360562 
L 370.274555 115.825233 
L 372.823664 134.643863 
L 375.372773 116.08391 
L 377.921882 125.422752 
L 380.470991 125.10979 
L 385.56921 131.578307 
L 388.118319 132.069576 
L 390.667428 117.245676 
L 393.216537 116.111093 
L 395.765646 122.488896 
L 398.314756 130.882572 
L 400.863865 122.272986 
L 403.412974 121.870858 
L 405.962083 127.642748 
L 408.511192 126.286363 
L 411.060302 132.405156 
L 413.609411 128.877431 
L 416.15852 122.086283 
L 418.707629 122.383434 
L 421.256738 131.869728 
L 423.805847 118.39757 
L 426.354957 120.888469 
L 428.904066 129.014988 
L 431.453175 111.112672 
L 434.002284 126.013502 
L 436.551393 120.224392 
L 439.100503 124.956484 
L 441.649612 119.723695 
L 444.198721 118.941401 
L 446.74783 125.402574 
L 449.296939 122.600156 
L 451.846048 116.914212 
L 454.395158 125.400076 
L 456.944267 129.424157 
L 459.493376 126.675469 
L 462.042485 121.214393 
L 464.591594 120.614507 
L 467.140704 126.832324 
L 469.689813 125.708535 
L 472.238922 119.744677 
L 474.788031 121.289207 
L 477.33714 105.778427 
L 479.886249 116.603237 
L 482.435359 124.524795 
L 484.984468 122.703635 
L 487.533577 121.543367 
L 490.082686 125.531577 
L 492.631795 122.181618 
L 495.180905 117.407492 
L 497.730014 117.763153 
L 500.279123 119.524368 
L 502.828232 119.631886 
L 505.377341 119.865462 
L 507.92645 128.878691 
L 510.47556 120.907736 
L 513.024669 121.565876 
L 515.573778 130.653844 
L 518.122887 122.551386 
L 520.671996 117.964874 
L 523.221106 132.739516 
L 525.770215 123.519635 
L 528.319324 120.685354 
L 530.868433 127.91645 
L 533.417542 119.434868 
L 535.966651 119.491201 
L 538.515761 131.527301 
L 541.06487 124.949911 
L 543.613979 121.038063 
L 546.163088 127.015472 
L 548.712197 120.931918 
L 551.261307 128.956054 
L 553.810416 122.581989 
L 556.359525 115.855775 
L 558.908634 121.919319 
L 561.457743 112.653222 
L 564.006852 122.284961 
L 566.555962 117.346681 
L 569.105071 127.312465 
L 571.65418 131.888329 
L 574.203289 120.544936 
L 576.752398 112.973828 
L 579.301508 126.387373 
L 581.850617 116.023612 
L 584.399726 113.763646 
L 586.948835 124.957374 
L 589.497944 128.889982 
L 592.047053 119.7998 
L 594.596163 130.405337 
L 597.145272 121.150484 
L 599.694381 123.551412 
L 602.24349 120.000666 
L 604.792599 117.569216 
L 607.341709 127.061754 
L 609.890818 119.152056 
L 612.439927 119.007537 
L 614.989036 133.158855 
L 617.538145 122.57413 
L 620.087254 131.538283 
L 622.636364 114.322978 
L 622.636364 114.322978 
" clip-path="url(#pf8ac73ab80)" style="fill: none; stroke: #ff0000; stroke-width: 1.5; stroke-linecap: square"/>
   </g>
   <g id="line2d_34">
    <path d="M 115.363636 369.36 
L 117.912746 331.761848 
L 120.461855 305.464433 
L 123.010964 286.375284 
L 125.560073 276.511972 
L 128.109182 271.854891 
L 130.658291 269.406735 
L 133.207401 264.360087 
L 135.75651 261.121259 
L 138.305619 260.135377 
L 140.854728 258.777157 
L 143.403837 256.650374 
L 145.952947 255.668241 
L 151.051165 253.018654 
L 153.600274 253.151894 
L 156.149383 252.27187 
L 158.698492 251.946159 
L 161.247602 251.456817 
L 163.796711 250.820253 
L 166.34582 249.902112 
L 168.894929 247.688146 
L 171.444038 248.848818 
L 173.993148 249.132625 
L 179.091366 247.810787 
L 181.640475 247.273601 
L 184.189584 247.767517 
L 186.738693 247.545196 
L 189.287803 246.970617 
L 191.836912 245.798599 
L 194.386021 245.790007 
L 196.93513 246.641535 
L 202.033349 246.313786 
L 204.582458 246.259063 
L 207.131567 245.547927 
L 209.680676 246.183943 
L 212.229785 245.413363 
L 214.778894 245.318683 
L 219.877113 246.35475 
L 224.975331 245.899567 
L 227.52444 245.309969 
L 230.07355 245.717284 
L 232.622659 245.352822 
L 235.171768 245.520492 
L 237.720877 245.525557 
L 242.819095 244.671208 
L 245.368205 245.243292 
L 247.917314 245.377244 
L 250.466423 244.433376 
L 253.015532 245.077673 
L 255.564641 245.139281 
L 258.113751 245.004369 
L 260.66286 245.483848 
L 263.211969 245.305013 
L 265.761078 243.985853 
L 268.310187 245.43128 
L 270.859296 244.307 
L 273.408406 245.307926 
L 275.957515 244.720579 
L 278.506624 244.593515 
L 281.055733 244.845219 
L 283.604842 245.799252 
L 288.703061 245.036978 
L 291.25217 244.908907 
L 293.801279 244.99387 
L 296.350388 243.848705 
L 298.899497 244.076758 
L 303.997716 244.190599 
L 306.546825 243.938939 
L 309.095934 244.384696 
L 311.645043 244.173371 
L 314.194153 243.741225 
L 316.743262 244.063069 
L 319.292371 243.512989 
L 321.84148 244.208429 
L 324.390589 243.370036 
L 326.939698 244.003179 
L 329.488808 244.226011 
L 332.037917 243.760172 
L 334.587026 243.835801 
L 337.136135 243.256561 
L 339.685244 243.904814 
L 342.234354 244.091981 
L 344.783463 243.563191 
L 347.332572 244.358128 
L 349.881681 244.029585 
L 352.43079 243.541695 
L 354.979899 243.448633 
L 357.529009 243.568871 
L 360.078118 243.284677 
L 362.627227 242.65694 
L 365.176336 243.250617 
L 367.725445 243.652271 
L 370.274555 242.763363 
L 372.823664 243.381186 
L 375.372773 242.883232 
L 377.921882 244.363386 
L 380.470991 243.938577 
L 383.020101 243.30182 
L 385.56921 243.956153 
L 388.118319 243.13127 
L 390.667428 243.623345 
L 393.216537 243.664103 
L 395.765646 243.433366 
L 398.314756 243.559966 
L 400.863865 244.055833 
L 403.412974 243.304414 
L 405.962083 243.272591 
L 408.511192 243.384851 
L 411.060302 243.684529 
L 413.609411 243.655471 
L 416.15852 243.118561 
L 418.707629 242.743189 
L 421.256738 243.446732 
L 423.805847 243.458591 
L 426.354957 242.985121 
L 428.904066 243.950282 
L 431.453175 243.655852 
L 434.002284 244.233865 
L 436.551393 243.495164 
L 441.649612 242.970564 
L 444.198721 243.243538 
L 446.74783 243.331668 
L 449.296939 243.231389 
L 451.846048 243.601954 
L 454.395158 242.589705 
L 456.944267 243.279684 
L 459.493376 243.40272 
L 462.042485 242.886262 
L 464.591594 242.779998 
L 467.140704 243.548864 
L 469.689813 242.56467 
L 472.238922 243.638329 
L 474.788031 243.147369 
L 477.33714 243.317277 
L 479.886249 243.200283 
L 482.435359 243.711778 
L 484.984468 243.743275 
L 487.533577 242.708781 
L 490.082686 243.385855 
L 492.631795 242.667686 
L 495.180905 243.437327 
L 497.730014 242.891844 
L 500.279123 242.634072 
L 502.828232 242.879476 
L 505.377341 242.923459 
L 507.92645 243.171334 
L 510.47556 242.645752 
L 515.573778 243.346427 
L 518.122887 242.13769 
L 520.671996 243.182685 
L 523.221106 242.998797 
L 525.770215 242.439885 
L 528.319324 242.719571 
L 530.868433 242.117428 
L 533.417542 241.962327 
L 535.966651 242.433253 
L 538.515761 241.949109 
L 541.06487 242.735645 
L 543.613979 242.858389 
L 546.163088 243.132559 
L 548.712197 242.466857 
L 553.810416 242.186572 
L 556.359525 242.256508 
L 561.457743 242.812236 
L 564.006852 242.287039 
L 566.555962 242.495222 
L 569.105071 242.21775 
L 571.65418 242.513677 
L 574.203289 242.140511 
L 579.301508 243.264671 
L 581.850617 241.935313 
L 584.399726 241.672027 
L 586.948835 242.329384 
L 589.497944 242.613782 
L 592.047053 242.318 
L 594.596163 242.908956 
L 597.145272 241.905579 
L 599.694381 242.660174 
L 602.24349 242.005742 
L 607.341709 242.517616 
L 612.439927 241.918384 
L 614.989036 242.281428 
L 617.538145 242.793653 
L 620.087254 242.619183 
L 622.636364 242.144178 
L 622.636364 242.144178 
" clip-path="url(#pf8ac73ab80)" style="fill: none; stroke: #0000ff; stroke-width: 1.5; stroke-linecap: square"/>
   </g>
   <g id="patch_3">
    <path d="M 90 384.48 
L 90 51.84 
" style="fill: none; stroke: #000000; stroke-width: 0.8; stroke-linejoin: miter; stroke-linecap: square"/>
   </g>
   <g id="patch_4">
    <path d="M 648 384.48 
L 648 51.84 
" style="fill: none; stroke: #000000; stroke-width: 0.8; stroke-linejoin: miter; stroke-linecap: square"/>
   </g>
   <g id="patch_5">
    <path d="M 90 384.48 
L 648 384.48 
" style="fill: none; stroke: #000000; stroke-width: 0.8; stroke-linejoin: miter; stroke-linecap: square"/>
   </g>
   <g id="patch_6">
    <path d="M 90 51.84 
L 648 51.84 
" style="fill: none; stroke: #000000; stroke-width: 0.8; stroke-linejoin: miter; stroke-linecap: square"/>
   </g>
   <g id="text_19">
    <!-- Zagregowane statystyki z 20 niezależnych ewolucji -->
    <g transform="translate(214.952812 45.84) scale(0.12 -0.12)">
     <defs>
      <path id="DejaVuSans-5a" d="M 359 4666 
L 4025 4666 
L 4025 4184 
L 1075 531 
L 4097 531 
L 4097 0 
L 288 0 
L 288 481 
L 3238 4134 
L 359 4134 
L 359 4666 
z
" transform="scale(0.015625)"/>
      <path id="DejaVuSans-67" d="M 2906 1791 
Q 2906 2416 2648 2759 
Q 2391 3103 1925 3103 
Q 1463 3103 1205 2759 
Q 947 2416 947 1791 
Q 947 1169 1205 825 
Q 1463 481 1925 481 
Q 2391 481 2648 825 
Q 2906 1169 2906 1791 
z
M 3481 434 
Q 3481 -459 3084 -895 
Q 2688 -1331 1869 -1331 
Q 1566 -1331 1297 -1286 
Q 1028 -1241 775 -1147 
L 775 -588 
Q 1028 -725 1275 -790 
Q 1522 -856 1778 -856 
Q 2344 -856 2625 -561 
Q 2906 -266 2906 331 
L 2906 616 
Q 2728 306 2450 153 
Q 2172 0 1784 0 
Q 1141 0 747 490 
Q 353 981 353 1791 
Q 353 2603 747 3093 
Q 1141 3584 1784 3584 
Q 2172 3584 2450 3431 
Q 2728 3278 2906 2969 
L 2906 3500 
L 3481 3500 
L 3481 434 
z
" transform="scale(0.015625)"/>
      <path id="DejaVuSans-6f" d="M 1959 3097 
Q 1497 3097 1228 2736 
Q 959 2375 959 1747 
Q 959 1119 1226 758 
Q 1494 397 1959 397 
Q 2419 397 2687 759 
Q 2956 1122 2956 1747 
Q 2956 2369 2687 2733 
Q 2419 3097 1959 3097 
z
M 1959 3584 
Q 2709 3584 3137 3096 
Q 3566 2609 3566 1747 
Q 3566 888 3137 398 
Q 2709 -91 1959 -91 
Q 1206 -91 779 398 
Q 353 888 353 1747 
Q 353 2609 779 3096 
Q 1206 3584 1959 3584 
z
" transform="scale(0.015625)"/>
      <path id="DejaVuSans-77" d="M 269 3500 
L 844 3500 
L 1563 769 
L 2278 3500 
L 2956 3500 
L 3675 769 
L 4391 3500 
L 4966 3500 
L 4050 0 
L 3372 0 
L 2619 2869 
L 1863 0 
L 1184 0 
L 269 3500 
z
" transform="scale(0.015625)"/>
      <path id="DejaVuSans-20" transform="scale(0.015625)"/>
      <path id="DejaVuSans-79" d="M 2059 -325 
Q 1816 -950 1584 -1140 
Q 1353 -1331 966 -1331 
L 506 -1331 
L 506 -850 
L 844 -850 
Q 1081 -850 1212 -737 
Q 1344 -625 1503 -206 
L 1606 56 
L 191 3500 
L 800 3500 
L 1894 763 
L 2988 3500 
L 3597 3500 
L 2059 -325 
z
" transform="scale(0.015625)"/>
      <path id="DejaVuSans-6b" d="M 581 4863 
L 1159 4863 
L 1159 1991 
L 2875 3500 
L 3609 3500 
L 1753 1863 
L 3688 0 
L 2938 0 
L 1159 1709 
L 1159 0 
L 581 0 
L 581 4863 
z
" transform="scale(0.015625)"/>
      <path id="DejaVuSans-7a" d="M 353 3500 
L 3084 3500 
L 3084 2975 
L 922 459 
L 3084 459 
L 3084 0 
L 275 0 
L 275 525 
L 2438 3041 
L 353 3041 
L 353 3500 
z
" transform="scale(0.015625)"/>
      <path id="DejaVuSans-6c" d="M 603 4863 
L 1178 4863 
L 1178 0 
L 603 0 
L 603 4863 
z
" transform="scale(0.015625)"/>
      <path id="DejaVuSans-17c" d="M 1378 4863 
L 1953 4863 
L 1953 4134 
L 1378 4134 
L 1378 4863 
z
M 1672 3584 
L 1672 3584 
z
M 353 3500 
L 3084 3500 
L 3084 2975 
L 922 459 
L 3084 459 
L 3084 0 
L 275 0 
L 275 525 
L 2438 3041 
L 353 3041 
L 353 3500 
z
" transform="scale(0.015625)"/>
      <path id="DejaVuSans-68" d="M 3513 2113 
L 3513 0 
L 2938 0 
L 2938 2094 
Q 2938 2591 2744 2837 
Q 2550 3084 2163 3084 
Q 1697 3084 1428 2787 
Q 1159 2491 1159 1978 
L 1159 0 
L 581 0 
L 581 4863 
L 1159 4863 
L 1159 2956 
Q 1366 3272 1645 3428 
Q 1925 3584 2291 3584 
Q 2894 3584 3203 3211 
Q 3513 2838 3513 2113 
z
" transform="scale(0.015625)"/>
      <path id="DejaVuSans-75" d="M 544 1381 
L 544 3500 
L 1119 3500 
L 1119 1403 
Q 1119 906 1312 657 
Q 1506 409 1894 409 
Q 2359 409 2629 706 
Q 2900 1003 2900 1516 
L 2900 3500 
L 3475 3500 
L 3475 0 
L 2900 0 
L 2900 538 
Q 2691 219 2414 64 
Q 2138 -91 1772 -91 
Q 1169 -91 856 284 
Q 544 659 544 1381 
z
M 1991 3584 
L 1991 3584 
z
" transform="scale(0.015625)"/>
     </defs>
     <use xlink:href="#DejaVuSans-5a"/>
     <use xlink:href="#DejaVuSans-61" transform="translate(68.505859 0)"/>
     <use xlink:href="#DejaVuSans-67" transform="translate(129.785156 0)"/>
     <use xlink:href="#DejaVuSans-72" transform="translate(193.261719 0)"/>
     <use xlink:href="#DejaVuSans-65" transform="translate(232.125 0)"/>
     <use xlink:href="#DejaVuSans-67" transform="translate(293.648438 0)"/>
     <use xlink:href="#DejaVuSans-6f" transform="translate(357.125 0)"/>
     <use xlink:href="#DejaVuSans-77" transform="translate(418.306641 0)"/>
     <use xlink:href="#DejaVuSans-61" transform="translate(500.09375 0)"/>
     <use xlink:href="#DejaVuSans-6e" transform="translate(561.373047 0)"/>
     <use xlink:href="#DejaVuSans-65" transform="translate(624.751953 0)"/>
     <use xlink:href="#DejaVuSans-20" transform="translate(686.275391 0)"/>
     <use xlink:href="#DejaVuSans-73" transform="translate(718.0625 0)"/>
     <use xlink:href="#DejaVuSans-74" transform="translate(770.162109 0)"/>
     <use xlink:href="#DejaVuSans-61" transform="translate(809.371094 0)"/>
     <use xlink:href="#DejaVuSans-74" transform="translate(870.650391 0)"/>
     <use xlink:href="#DejaVuSans-79" transform="translate(909.859375 0)"/>
     <use xlink:href="#DejaVuSans-73" transform="translate(969.039062 0)"/>
     <use xlink:href="#DejaVuSans-74" transform="translate(1021.138672 0)"/>
     <use xlink:href="#DejaVuSans-79" transform="translate(1060.347656 0)"/>
     <use xlink:href="#DejaVuSans-6b" transform="translate(1119.527344 0)"/>
     <use xlink:href="#DejaVuSans-69" transform="translate(1177.4375 0)"/>
     <use xlink:href="#DejaVuSans-20" transform="translate(1205.220703 0)"/>
     <use xlink:href="#DejaVuSans-7a" transform="translate(1237.007812 0)"/>
     <use xlink:href="#DejaVuSans-20" transform="translate(1289.498047 0)"/>
     <use xlink:href="#DejaVuSans-32" transform="translate(1321.285156 0)"/>
     <use xlink:href="#DejaVuSans-30" transform="translate(1384.908203 0)"/>
     <use xlink:href="#DejaVuSans-20" transform="translate(1448.53125 0)"/>
     <use xlink:href="#DejaVuSans-6e" transform="translate(1480.318359 0)"/>
     <use xlink:href="#DejaVuSans-69" transform="translate(1543.697266 0)"/>
     <use xlink:href="#DejaVuSans-65" transform="translate(1571.480469 0)"/>
     <use xlink:href="#DejaVuSans-7a" transform="translate(1633.003906 0)"/>
     <use xlink:href="#DejaVuSans-61" transform="translate(1685.494141 0)"/>
     <use xlink:href="#DejaVuSans-6c" transform="translate(1746.773438 0)"/>
     <use xlink:href="#DejaVuSans-65" transform="translate(1774.556641 0)"/>
     <use xlink:href="#DejaVuSans-17c" transform="translate(1836.080078 0)"/>
     <use xlink:href="#DejaVuSans-6e" transform="translate(1888.570312 0)"/>
     <use xlink:href="#DejaVuSans-79" transform="translate(1951.949219 0)"/>
     <use xlink:href="#DejaVuSans-63" transform="translate(2011.128906 0)"/>
     <use xlink:href="#DejaVuSans-68" transform="translate(2066.109375 0)"/>
     <use xlink:href="#DejaVuSans-20" transform="translate(2129.488281 0)"/>
     <use xlink:href="#DejaVuSans-65" transform="translate(2161.275391 0)"/>
     <use xlink:href="#DejaVuSans-77" transform="translate(2222.798828 0)"/>
     <use xlink:href="#DejaVuSans-6f" transform="translate(2304.585938 0)"/>
     <use xlink:href="#DejaVuSans-6c" transform="translate(2365.767578 0)"/>
     <use xlink:href="#DejaVuSans-75" transform="translate(2393.550781 0)"/>
     <use xlink:href="#DejaVuSans-63" transform="translate(2456.929688 0)"/>
     <use xlink:href="#DejaVuSans-6a" transform="translate(2511.910156 0)"/>
     <use xlink:href="#DejaVuSans-69" transform="translate(2539.693359 0)"/>
    </g>
   </g>
   <g id="legend_1">
    <g id="patch_7">
     <path d="M 379.426562 379.48 
L 641 379.48 
Q 643 379.48 643 377.48 
L 643 330.739375 
Q 643 328.739375 641 328.739375 
L 379.426562 328.739375 
Q 377.426562 328.739375 377.426562 330.739375 
L 377.426562 377.48 
Q 377.426562 379.48 379.426562 379.48 
z
" style="fill: #ffffff; opacity: 0.8; stroke: #cccccc; stroke-linejoin: miter"/>
    </g>
    <g id="line2d_35">
     <path d="M 381.426562 338.490937 
L 391.426562 338.490937 
L 401.426562 338.490937 
" style="fill: none; stroke: #ff0000; stroke-width: 1.5; stroke-linecap: square"/>
    </g>
    <g id="text_20">
     <!-- Średnie przystosowanie najlepszego osobnika -->
     <g transform="translate(409.426562 341.990937) scale(0.1 -0.1)">
      <defs>
       <path id="DejaVuSans-15a" d="M 2236 5921 
L 2814 5921 
L 2102 5096 
L 1623 5096 
L 2236 5921 
z
M 3425 4513 
L 3425 3897 
Q 3066 4069 2747 4153 
Q 2428 4238 2131 4238 
Q 1616 4238 1336 4038 
Q 1056 3838 1056 3469 
Q 1056 3159 1242 3001 
Q 1428 2844 1947 2747 
L 2328 2669 
Q 3034 2534 3370 2195 
Q 3706 1856 3706 1288 
Q 3706 609 3251 259 
Q 2797 -91 1919 -91 
Q 1588 -91 1214 -16 
Q 841 59 441 206 
L 441 856 
Q 825 641 1194 531 
Q 1563 422 1919 422 
Q 2459 422 2753 634 
Q 3047 847 3047 1241 
Q 3047 1584 2836 1778 
Q 2625 1972 2144 2069 
L 1759 2144 
Q 1053 2284 737 2584 
Q 422 2884 422 3419 
Q 422 4038 858 4394 
Q 1294 4750 2059 4750 
Q 2388 4750 2728 4690 
Q 3069 4631 3425 4513 
z
" transform="scale(0.015625)"/>
       <path id="DejaVuSans-64" d="M 2906 2969 
L 2906 4863 
L 3481 4863 
L 3481 0 
L 2906 0 
L 2906 525 
Q 2725 213 2448 61 
Q 2172 -91 1784 -91 
Q 1150 -91 751 415 
Q 353 922 353 1747 
Q 353 2572 751 3078 
Q 1150 3584 1784 3584 
Q 2172 3584 2448 3432 
Q 2725 3281 2906 2969 
z
M 947 1747 
Q 947 1113 1208 752 
Q 1469 391 1925 391 
Q 2381 391 2643 752 
Q 2906 1113 2906 1747 
Q 2906 2381 2643 2742 
Q 2381 3103 1925 3103 
Q 1469 3103 1208 2742 
Q 947 2381 947 1747 
z
" transform="scale(0.015625)"/>
       <path id="DejaVuSans-70" d="M 1159 525 
L 1159 -1331 
L 581 -1331 
L 581 3500 
L 1159 3500 
L 1159 2969 
Q 1341 3281 1617 3432 
Q 1894 3584 2278 3584 
Q 2916 3584 3314 3078 
Q 3713 2572 3713 1747 
Q 3713 922 3314 415 
Q 2916 -91 2278 -91 
Q 1894 -91 1617 61 
Q 1341 213 1159 525 
z
M 3116 1747 
Q 3116 2381 2855 2742 
Q 2594 3103 2138 3103 
Q 1681 3103 1420 2742 
Q 1159 2381 1159 1747 
Q 1159 1113 1420 752 
Q 1681 391 2138 391 
Q 2594 391 2855 752 
Q 3116 1113 3116 1747 
z
" transform="scale(0.015625)"/>
       <path id="DejaVuSans-62" d="M 3116 1747 
Q 3116 2381 2855 2742 
Q 2594 3103 2138 3103 
Q 1681 3103 1420 2742 
Q 1159 2381 1159 1747 
Q 1159 1113 1420 752 
Q 1681 391 2138 391 
Q 2594 391 2855 752 
Q 3116 1113 3116 1747 
z
M 1159 2969 
Q 1341 3281 1617 3432 
Q 1894 3584 2278 3584 
Q 2916 3584 3314 3078 
Q 3713 2572 3713 1747 
Q 3713 922 3314 415 
Q 2916 -91 2278 -91 
Q 1894 -91 1617 61 
Q 1341 213 1159 525 
L 1159 0 
L 581 0 
L 581 4863 
L 1159 4863 
L 1159 2969 
z
" transform="scale(0.015625)"/>
      </defs>
      <use xlink:href="#DejaVuSans-15a"/>
      <use xlink:href="#DejaVuSans-72" transform="translate(63.476562 0)"/>
      <use xlink:href="#DejaVuSans-65" transform="translate(102.339844 0)"/>
      <use xlink:href="#DejaVuSans-64" transform="translate(163.863281 0)"/>
      <use xlink:href="#DejaVuSans-6e" transform="translate(227.339844 0)"/>
      <use xlink:href="#DejaVuSans-69" transform="translate(290.71875 0)"/>
      <use xlink:href="#DejaVuSans-65" transform="translate(318.501953 0)"/>
      <use xlink:href="#DejaVuSans-20" transform="translate(380.025391 0)"/>
      <use xlink:href="#DejaVuSans-70" transform="translate(411.8125 0)"/>
      <use xlink:href="#DejaVuSans-72" transform="translate(475.289062 0)"/>
      <use xlink:href="#DejaVuSans-7a" transform="translate(516.402344 0)"/>
      <use xlink:href="#DejaVuSans-79" transform="translate(568.892578 0)"/>
      <use xlink:href="#DejaVuSans-73" transform="translate(628.072266 0)"/>
      <use xlink:href="#DejaVuSans-74" transform="translate(680.171875 0)"/>
      <use xlink:href="#DejaVuSans-6f" transform="translate(719.380859 0)"/>
      <use xlink:href="#DejaVuSans-73" transform="translate(780.5625 0)"/>
      <use xlink:href="#DejaVuSans-6f" transform="translate(832.662109 0)"/>
      <use xlink:href="#DejaVuSans-77" transform="translate(893.84375 0)"/>
      <use xlink:href="#DejaVuSans-61" transform="translate(975.630859 0)"/>
      <use xlink:href="#DejaVuSans-6e" transform="translate(1036.910156 0)"/>
      <use xlink:href="#DejaVuSans-69" transform="translate(1100.289062 0)"/>
      <use xlink:href="#DejaVuSans-65" transform="translate(1128.072266 0)"/>
      <use xlink:href="#DejaVuSans-20" transform="translate(1189.595703 0)"/>
      <use xlink:href="#DejaVuSans-6e" transform="translate(1221.382812 0)"/>
      <use xlink:href="#DejaVuSans-61" transform="translate(1284.761719 0)"/>
      <use xlink:href="#DejaVuSans-6a" transform="translate(1346.041016 0)"/>
      <use xlink:href="#DejaVuSans-6c" transform="translate(1373.824219 0)"/>
      <use xlink:href="#DejaVuSans-65" transform="translate(1401.607422 0)"/>
      <use xlink:href="#DejaVuSans-70" transform="translate(1463.130859 0)"/>
      <use xlink:href="#DejaVuSans-73" transform="translate(1526.607422 0)"/>
      <use xlink:href="#DejaVuSans-7a" transform="translate(1578.707031 0)"/>
      <use xlink:href="#DejaVuSans-65" transform="translate(1631.197266 0)"/>
      <use xlink:href="#DejaVuSans-67" transform="translate(1692.720703 0)"/>
      <use xlink:href="#DejaVuSans-6f" transform="translate(1756.197266 0)"/>
      <use xlink:href="#DejaVuSans-20" transform="translate(1817.378906 0)"/>
      <use xlink:href="#DejaVuSans-6f" transform="translate(1849.166016 0)"/>
      <use xlink:href="#DejaVuSans-73" transform="translate(1910.347656 0)"/>
      <use xlink:href="#DejaVuSans-6f" transform="translate(1962.447266 0)"/>
      <use xlink:href="#DejaVuSans-62" transform="translate(2023.628906 0)"/>
      <use xlink:href="#DejaVuSans-6e" transform="translate(2087.105469 0)"/>
      <use xlink:href="#DejaVuSans-69" transform="translate(2150.484375 0)"/>
      <use xlink:href="#DejaVuSans-6b" transform="translate(2178.267578 0)"/>
      <use xlink:href="#DejaVuSans-61" transform="translate(2234.427734 0)"/>
     </g>
    </g>
    <g id="patch_8">
     <path d="M 381.426562 357.069062 
L 401.426562 357.069062 
L 401.426562 350.069062 
L 381.426562 350.069062 
z
" style="fill: #ff0000; fill-opacity: 0.2; stroke: #ff0000; stroke-opacity: 0.2; stroke-linejoin: miter"/>
    </g>
    <g id="text_21">
     <!-- ±1 Odchylenie std. najlepszych osobników -->
     <g transform="translate(409.426562 357.069062) scale(0.1 -0.1)">
      <defs>
       <path id="DejaVuSans-b1" d="M 2944 4013 
L 2944 2803 
L 4684 2803 
L 4684 2272 
L 2944 2272 
L 2944 1063 
L 2419 1063 
L 2419 2272 
L 678 2272 
L 678 2803 
L 2419 2803 
L 2419 4013 
L 2944 4013 
z
M 678 531 
L 4684 531 
L 4684 0 
L 678 0 
L 678 531 
z
" transform="scale(0.015625)"/>
       <path id="DejaVuSans-4f" d="M 2522 4238 
Q 1834 4238 1429 3725 
Q 1025 3213 1025 2328 
Q 1025 1447 1429 934 
Q 1834 422 2522 422 
Q 3209 422 3611 934 
Q 4013 1447 4013 2328 
Q 4013 3213 3611 3725 
Q 3209 4238 2522 4238 
z
M 2522 4750 
Q 3503 4750 4090 4092 
Q 4678 3434 4678 2328 
Q 4678 1225 4090 567 
Q 3503 -91 2522 -91 
Q 1538 -91 948 565 
Q 359 1222 359 2328 
Q 359 3434 948 4092 
Q 1538 4750 2522 4750 
z
" transform="scale(0.015625)"/>
       <path id="DejaVuSans-2e" d="M 684 794 
L 1344 794 
L 1344 0 
L 684 0 
L 684 794 
z
" transform="scale(0.015625)"/>
       <path id="DejaVuSans-f3" d="M 1959 3097 
Q 1497 3097 1228 2736 
Q 959 2375 959 1747 
Q 959 1119 1226 758 
Q 1494 397 1959 397 
Q 2419 397 2687 759 
Q 2956 1122 2956 1747 
Q 2956 2369 2687 2733 
Q 2419 3097 1959 3097 
z
M 1959 3584 
Q 2709 3584 3137 3096 
Q 3566 2609 3566 1747 
Q 3566 888 3137 398 
Q 2709 -91 1959 -91 
Q 1206 -91 779 398 
Q 353 888 353 1747 
Q 353 2609 779 3096 
Q 1206 3584 1959 3584 
z
M 2394 5119 
L 3016 5119 
L 1998 3944 
L 1519 3944 
L 2394 5119 
z
" transform="scale(0.015625)"/>
      </defs>
      <use xlink:href="#DejaVuSans-b1"/>
      <use xlink:href="#DejaVuSans-31" transform="translate(83.789062 0)"/>
      <use xlink:href="#DejaVuSans-20" transform="translate(147.412109 0)"/>
      <use xlink:href="#DejaVuSans-4f" transform="translate(179.199219 0)"/>
      <use xlink:href="#DejaVuSans-64" transform="translate(257.910156 0)"/>
      <use xlink:href="#DejaVuSans-63" transform="translate(321.386719 0)"/>
      <use xlink:href="#DejaVuSans-68" transform="translate(376.367188 0)"/>
      <use xlink:href="#DejaVuSans-79" transform="translate(439.746094 0)"/>
      <use xlink:href="#DejaVuSans-6c" transform="translate(498.925781 0)"/>
      <use xlink:href="#DejaVuSans-65" transform="translate(526.708984 0)"/>
      <use xlink:href="#DejaVuSans-6e" transform="translate(588.232422 0)"/>
      <use xlink:href="#DejaVuSans-69" transform="translate(651.611328 0)"/>
      <use xlink:href="#DejaVuSans-65" transform="translate(679.394531 0)"/>
      <use xlink:href="#DejaVuSans-20" transform="translate(740.917969 0)"/>
      <use xlink:href="#DejaVuSans-73" transform="translate(772.705078 0)"/>
      <use xlink:href="#DejaVuSans-74" transform="translate(824.804688 0)"/>
      <use xlink:href="#DejaVuSans-64" transform="translate(864.013672 0)"/>
      <use xlink:href="#DejaVuSans-2e" transform="translate(927.490234 0)"/>
      <use xlink:href="#DejaVuSans-20" transform="translate(959.277344 0)"/>
      <use xlink:href="#DejaVuSans-6e" transform="translate(991.064453 0)"/>
      <use xlink:href="#DejaVuSans-61" transform="translate(1054.443359 0)"/>
      <use xlink:href="#DejaVuSans-6a" transform="translate(1115.722656 0)"/>
      <use xlink:href="#DejaVuSans-6c" transform="translate(1143.505859 0)"/>
      <use xlink:href="#DejaVuSans-65" transform="translate(1171.289062 0)"/>
      <use xlink:href="#DejaVuSans-70" transform="translate(1232.8125 0)"/>
      <use xlink:href="#DejaVuSans-73" transform="translate(1296.289062 0)"/>
      <use xlink:href="#DejaVuSans-7a" transform="translate(1348.388672 0)"/>
      <use xlink:href="#DejaVuSans-79" transform="translate(1400.878906 0)"/>
      <use xlink:href="#DejaVuSans-63" transform="translate(1460.058594 0)"/>
      <use xlink:href="#DejaVuSans-68" transform="translate(1515.039062 0)"/>
      <use xlink:href="#DejaVuSans-20" transform="translate(1578.417969 0)"/>
      <use xlink:href="#DejaVuSans-6f" transform="translate(1610.205078 0)"/>
      <use xlink:href="#DejaVuSans-73" transform="translate(1671.386719 0)"/>
      <use xlink:href="#DejaVuSans-6f" transform="translate(1723.486328 0)"/>
      <use xlink:href="#DejaVuSans-62" transform="translate(1784.667969 0)"/>
      <use xlink:href="#DejaVuSans-6e" transform="translate(1848.144531 0)"/>
      <use xlink:href="#DejaVuSans-69" transform="translate(1911.523438 0)"/>
      <use xlink:href="#DejaVuSans-6b" transform="translate(1939.306641 0)"/>
      <use xlink:href="#DejaVuSans-f3" transform="translate(1993.591797 0)"/>
      <use xlink:href="#DejaVuSans-77" transform="translate(2054.773438 0)"/>
     </g>
    </g>
    <g id="line2d_36">
     <path d="M 381.426562 369.900312 
L 391.426562 369.900312 
L 401.426562 369.900312 
" style="fill: none; stroke: #0000ff; stroke-width: 1.5; stroke-linecap: square"/>
    </g>
    <g id="text_22">
     <!-- Średnie przystosowanie całej populacji -->
     <g transform="translate(409.426562 373.400312) scale(0.1 -0.1)">
      <defs>
       <path id="DejaVuSans-142" d="M 622 4863 
L 1197 4863 
L 1197 2981 
L 1588 3263 
L 1825 2931 
L 1197 2491 
L 1197 0 
L 622 0 
L 622 2081 
L 238 1806 
L 6 2138 
L 622 2578 
L 622 4863 
z
" transform="scale(0.015625)"/>
      </defs>
      <use xlink:href="#DejaVuSans-15a"/>
      <use xlink:href="#DejaVuSans-72" transform="translate(63.476562 0)"/>
      <use xlink:href="#DejaVuSans-65" transform="translate(102.339844 0)"/>
      <use xlink:href="#DejaVuSans-64" transform="translate(163.863281 0)"/>
      <use xlink:href="#DejaVuSans-6e" transform="translate(227.339844 0)"/>
      <use xlink:href="#DejaVuSans-69" transform="translate(290.71875 0)"/>
      <use xlink:href="#DejaVuSans-65" transform="translate(318.501953 0)"/>
      <use xlink:href="#DejaVuSans-20" transform="translate(380.025391 0)"/>
      <use xlink:href="#DejaVuSans-70" transform="translate(411.8125 0)"/>
      <use xlink:href="#DejaVuSans-72" transform="translate(475.289062 0)"/>
      <use xlink:href="#DejaVuSans-7a" transform="translate(516.402344 0)"/>
      <use xlink:href="#DejaVuSans-79" transform="translate(568.892578 0)"/>
      <use xlink:href="#DejaVuSans-73" transform="translate(628.072266 0)"/>
      <use xlink:href="#DejaVuSans-74" transform="translate(680.171875 0)"/>
      <use xlink:href="#DejaVuSans-6f" transform="translate(719.380859 0)"/>
      <use xlink:href="#DejaVuSans-73" transform="translate(780.5625 0)"/>
      <use xlink:href="#DejaVuSans-6f" transform="translate(832.662109 0)"/>
      <use xlink:href="#DejaVuSans-77" transform="translate(893.84375 0)"/>
      <use xlink:href="#DejaVuSans-61" transform="translate(975.630859 0)"/>
      <use xlink:href="#DejaVuSans-6e" transform="translate(1036.910156 0)"/>
      <use xlink:href="#DejaVuSans-69" transform="translate(1100.289062 0)"/>
      <use xlink:href="#DejaVuSans-65" transform="translate(1128.072266 0)"/>
      <use xlink:href="#DejaVuSans-20" transform="translate(1189.595703 0)"/>
      <use xlink:href="#DejaVuSans-63" transform="translate(1221.382812 0)"/>
      <use xlink:href="#DejaVuSans-61" transform="translate(1276.363281 0)"/>
      <use xlink:href="#DejaVuSans-142" transform="translate(1337.642578 0)"/>
      <use xlink:href="#DejaVuSans-65" transform="translate(1366.060547 0)"/>
      <use xlink:href="#DejaVuSans-6a" transform="translate(1427.583984 0)"/>
      <use xlink:href="#DejaVuSans-20" transform="translate(1455.367188 0)"/>
      <use xlink:href="#DejaVuSans-70" transform="translate(1487.154297 0)"/>
      <use xlink:href="#DejaVuSans-6f" transform="translate(1550.630859 0)"/>
      <use xlink:href="#DejaVuSans-70" transform="translate(1611.8125 0)"/>
      <use xlink:href="#DejaVuSans-75" transform="translate(1675.289062 0)"/>
      <use xlink:href="#DejaVuSans-6c" transform="translate(1738.667969 0)"/>
      <use xlink:href="#DejaVuSans-61" transform="translate(1766.451172 0)"/>
      <use xlink:href="#DejaVuSans-63" transform="translate(1827.730469 0)"/>
      <use xlink:href="#DejaVuSans-6a" transform="translate(1882.710938 0)"/>
      <use xlink:href="#DejaVuSans-69" transform="translate(1910.494141 0)"/>
     </g>
    </g>
   </g>
  </g>
 </g>
 <defs>
  <clipPath id="pf8ac73ab80">
   <rect x="90" y="51.84" width="558" height="332.64"/>
  </clipPath>
 </defs>
</svg>
