<?xml version="1.0" encoding="utf-8" standalone="no"?>
<!DOCTYPE svg PUBLIC "-//W3C//DTD SVG 1.1//EN"
  "http://www.w3.org/Graphics/SVG/1.1/DTD/svg11.dtd">
<svg xmlns:xlink="http://www.w3.org/1999/xlink" width="460.8pt" height="345.6pt" viewBox="0 0 460.8 345.6" xmlns="http://www.w3.org/2000/svg" version="1.1">
 <metadata>
  <rdf:RDF xmlns:dc="http://purl.org/dc/elements/1.1/" xmlns:cc="http://creativecommons.org/ns#" xmlns:rdf="http://www.w3.org/1999/02/22-rdf-syntax-ns#">
   <cc:Work>
    <dc:type rdf:resource="http://purl.org/dc/dcmitype/StillImage"/>
    <dc:date>2026-04-27T00:45:47.391900</dc:date>
    <dc:format>image/svg+xml</dc:format>
    <dc:creator>
     <cc:Agent>
      <dc:title>Matplotlib v3.10.8, https://matplotlib.org/</dc:title>
     </cc:Agent>
    </dc:creator>
   </cc:Work>
  </rdf:RDF>
 </metadata>
 <defs>
  <style type="text/css">*{stroke-linejoin: round; stroke-linecap: butt}</style>
 </defs>
 <g id="figure_1">
  <g id="patch_1">
   <path d="M 0 345.6 
L 460.8 345.6 
L 460.8 0 
L 0 0 
z
" style="fill: #ffffff"/>
  </g>
  <g id="axes_1">
   <g id="patch_2">
    <path d="M 57.6 307.584 
L 414.72 307.584 
L 414.72 41.472 
L 57.6 41.472 
z
" style="fill: #ffffff"/>
   </g>
   <g id="matplotlib.axis_1">
    <g id="xtick_1">
     <g id="line2d_1">
      <path d="M 72.201297 307.584 
L 72.201297 41.472 
" clip-path="url(#pe4307442f0)" style="fill: none; stroke: #b0b0b0; stroke-width: 0.8; stroke-linecap: square"/>
     </g>
     <g id="line2d_2">
      <defs>
       <path id="m36682ed048" d="M 0 0 
L 0 3.5 
" style="stroke: #000000; stroke-width: 0.8"/>
      </defs>
      <g>
       <use xlink:href="#m36682ed048" x="72.201297" y="307.584" style="stroke: #000000; stroke-width: 0.8"/>
      </g>
     </g>
     <g id="text_1">
      <!-- 0 -->
      <g transform="translate(69.020047 322.182437) scale(0.1 -0.1)">
       <defs>
        <path id="DejaVuSans-30" d="M 2034 4250 
Q 1547 4250 1301 3770 
Q 1056 3291 1056 2328 
Q 1056 1369 1301 889 
Q 1547 409 2034 409 
Q 2525 409 2770 889 
Q 3016 1369 3016 2328 
Q 3016 3291 2770 3770 
Q 2525 4250 2034 4250 
z
M 2034 4750 
Q 2819 4750 3233 4129 
Q 3647 3509 3647 2328 
Q 3647 1150 3233 529 
Q 2819 -91 2034 -91 
Q 1250 -91 836 529 
Q 422 1150 422 2328 
Q 422 3509 836 4129 
Q 1250 4750 2034 4750 
z
" transform="scale(0.015625)"/>
       </defs>
       <use xlink:href="#DejaVuSans-30"/>
      </g>
     </g>
    </g>
    <g id="xtick_2">
     <g id="line2d_3">
      <path d="M 112.987044 307.584 
L 112.987044 41.472 
" clip-path="url(#pe4307442f0)" style="fill: none; stroke: #b0b0b0; stroke-width: 0.8; stroke-linecap: square"/>
     </g>
     <g id="line2d_4">
      <g>
       <use xlink:href="#m36682ed048" x="112.987044" y="307.584" style="stroke: #000000; stroke-width: 0.8"/>
      </g>
     </g>
     <g id="text_2">
      <!-- 25 -->
      <g transform="translate(106.624544 322.182437) scale(0.1 -0.1)">
       <defs>
        <path id="DejaVuSans-32" d="M 1228 531 
L 3431 531 
L 3431 0 
L 469 0 
L 469 531 
Q 828 903 1448 1529 
Q 2069 2156 2228 2338 
Q 2531 2678 2651 2914 
Q 2772 3150 2772 3378 
Q 2772 3750 2511 3984 
Q 2250 4219 1831 4219 
Q 1534 4219 1204 4116 
Q 875 4013 500 3803 
L 500 4441 
Q 881 4594 1212 4672 
Q 1544 4750 1819 4750 
Q 2544 4750 2975 4387 
Q 3406 4025 3406 3419 
Q 3406 3131 3298 2873 
Q 3191 2616 2906 2266 
Q 2828 2175 2409 1742 
Q 1991 1309 1228 531 
z
" transform="scale(0.015625)"/>
        <path id="DejaVuSans-35" d="M 691 4666 
L 3169 4666 
L 3169 4134 
L 1269 4134 
L 1269 2991 
Q 1406 3038 1543 3061 
Q 1681 3084 1819 3084 
Q 2600 3084 3056 2656 
Q 3513 2228 3513 1497 
Q 3513 744 3044 326 
Q 2575 -91 1722 -91 
Q 1428 -91 1123 -41 
Q 819 9 494 109 
L 494 744 
Q 775 591 1075 516 
Q 1375 441 1709 441 
Q 2250 441 2565 725 
Q 2881 1009 2881 1497 
Q 2881 1984 2565 2268 
Q 2250 2553 1709 2553 
Q 1456 2553 1204 2497 
Q 953 2441 691 2322 
L 691 4666 
z
" transform="scale(0.015625)"/>
       </defs>
       <use xlink:href="#DejaVuSans-32"/>
       <use xlink:href="#DejaVuSans-35" transform="translate(63.623047 0)"/>
      </g>
     </g>
    </g>
    <g id="xtick_3">
     <g id="line2d_5">
      <path d="M 153.772791 307.584 
L 153.772791 41.472 
" clip-path="url(#pe4307442f0)" style="fill: none; stroke: #b0b0b0; stroke-width: 0.8; stroke-linecap: square"/>
     </g>
     <g id="line2d_6">
      <g>
       <use xlink:href="#m36682ed048" x="153.772791" y="307.584" style="stroke: #000000; stroke-width: 0.8"/>
      </g>
     </g>
     <g id="text_3">
      <!-- 50 -->
      <g transform="translate(147.410291 322.182437) scale(0.1 -0.1)">
       <use xlink:href="#DejaVuSans-35"/>
       <use xlink:href="#DejaVuSans-30" transform="translate(63.623047 0)"/>
      </g>
     </g>
    </g>
    <g id="xtick_4">
     <g id="line2d_7">
      <path d="M 194.558538 307.584 
L 194.558538 41.472 
" clip-path="url(#pe4307442f0)" style="fill: none; stroke: #b0b0b0; stroke-width: 0.8; stroke-linecap: square"/>
     </g>
     <g id="line2d_8">
      <g>
       <use xlink:href="#m36682ed048" x="194.558538" y="307.584" style="stroke: #000000; stroke-width: 0.8"/>
      </g>
     </g>
     <g id="text_4">
      <!-- 75 -->
      <g transform="translate(188.196038 322.182437) scale(0.1 -0.1)">
       <defs>
        <path id="DejaVuSans-37" d="M 525 4666 
L 3525 4666 
L 3525 4397 
L 1831 0 
L 1172 0 
L 2766 4134 
L 525 4134 
L 525 4666 
z
" transform="scale(0.015625)"/>
       </defs>
       <use xlink:href="#DejaVuSans-37"/>
       <use xlink:href="#DejaVuSans-35" transform="translate(63.623047 0)"/>
      </g>
     </g>
    </g>
    <g id="xtick_5">
     <g id="line2d_9">
      <path d="M 235.344285 307.584 
L 235.344285 41.472 
" clip-path="url(#pe4307442f0)" style="fill: none; stroke: #b0b0b0; stroke-width: 0.8; stroke-linecap: square"/>
     </g>
     <g id="line2d_10">
      <g>
       <use xlink:href="#m36682ed048" x="235.344285" y="307.584" style="stroke: #000000; stroke-width: 0.8"/>
      </g>
     </g>
     <g id="text_5">
      <!-- 100 -->
      <g transform="translate(225.800535 322.182437) scale(0.1 -0.1)">
       <defs>
        <path id="DejaVuSans-31" d="M 794 531 
L 1825 531 
L 1825 4091 
L 703 3866 
L 703 4441 
L 1819 4666 
L 2450 4666 
L 2450 531 
L 3481 531 
L 3481 0 
L 794 0 
L 794 531 
z
" transform="scale(0.015625)"/>
       </defs>
       <use xlink:href="#DejaVuSans-31"/>
       <use xlink:href="#DejaVuSans-30" transform="translate(63.623047 0)"/>
       <use xlink:href="#DejaVuSans-30" transform="translate(127.246094 0)"/>
      </g>
     </g>
    </g>
    <g id="xtick_6">
     <g id="line2d_11">
      <path d="M 276.130032 307.584 
L 276.130032 41.472 
" clip-path="url(#pe4307442f0)" style="fill: none; stroke: #b0b0b0; stroke-width: 0.8; stroke-linecap: square"/>
     </g>
     <g id="line2d_12">
      <g>
       <use xlink:href="#m36682ed048" x="276.130032" y="307.584" style="stroke: #000000; stroke-width: 0.8"/>
      </g>
     </g>
     <g id="text_6">
      <!-- 125 -->
      <g transform="translate(266.586282 322.182437) scale(0.1 -0.1)">
       <use xlink:href="#DejaVuSans-31"/>
       <use xlink:href="#DejaVuSans-32" transform="translate(63.623047 0)"/>
       <use xlink:href="#DejaVuSans-35" transform="translate(127.246094 0)"/>
      </g>
     </g>
    </g>
    <g id="xtick_7">
     <g id="line2d_13">
      <path d="M 316.915779 307.584 
L 316.915779 41.472 
" clip-path="url(#pe4307442f0)" style="fill: none; stroke: #b0b0b0; stroke-width: 0.8; stroke-linecap: square"/>
     </g>
     <g id="line2d_14">
      <g>
       <use xlink:href="#m36682ed048" x="316.915779" y="307.584" style="stroke: #000000; stroke-width: 0.8"/>
      </g>
     </g>
     <g id="text_7">
      <!-- 150 -->
      <g transform="translate(307.372029 322.182437) scale(0.1 -0.1)">
       <use xlink:href="#DejaVuSans-31"/>
       <use xlink:href="#DejaVuSans-35" transform="translate(63.623047 0)"/>
       <use xlink:href="#DejaVuSans-30" transform="translate(127.246094 0)"/>
      </g>
     </g>
    </g>
    <g id="xtick_8">
     <g id="line2d_15">
      <path d="M 357.701526 307.584 
L 357.701526 41.472 
" clip-path="url(#pe4307442f0)" style="fill: none; stroke: #b0b0b0; stroke-width: 0.8; stroke-linecap: square"/>
     </g>
     <g id="line2d_16">
      <g>
       <use xlink:href="#m36682ed048" x="357.701526" y="307.584" style="stroke: #000000; stroke-width: 0.8"/>
      </g>
     </g>
     <g id="text_8">
      <!-- 175 -->
      <g transform="translate(348.157776 322.182437) scale(0.1 -0.1)">
       <use xlink:href="#DejaVuSans-31"/>
       <use xlink:href="#DejaVuSans-37" transform="translate(63.623047 0)"/>
       <use xlink:href="#DejaVuSans-35" transform="translate(127.246094 0)"/>
      </g>
     </g>
    </g>
    <g id="xtick_9">
     <g id="line2d_17">
      <path d="M 398.487273 307.584 
L 398.487273 41.472 
" clip-path="url(#pe4307442f0)" style="fill: none; stroke: #b0b0b0; stroke-width: 0.8; stroke-linecap: square"/>
     </g>
     <g id="line2d_18">
      <g>
       <use xlink:href="#m36682ed048" x="398.487273" y="307.584" style="stroke: #000000; stroke-width: 0.8"/>
      </g>
     </g>
     <g id="text_9">
      <!-- 200 -->
      <g transform="translate(388.943523 322.182437) scale(0.1 -0.1)">
       <use xlink:href="#DejaVuSans-32"/>
       <use xlink:href="#DejaVuSans-30" transform="translate(63.623047 0)"/>
       <use xlink:href="#DejaVuSans-30" transform="translate(127.246094 0)"/>
      </g>
     </g>
    </g>
    <g id="text_10">
     <!-- Generacje -->
     <g transform="translate(210.629531 335.860562) scale(0.1 -0.1)">
      <defs>
       <path id="DejaVuSans-47" d="M 3809 666 
L 3809 1919 
L 2778 1919 
L 2778 2438 
L 4434 2438 
L 4434 434 
Q 4069 175 3628 42 
Q 3188 -91 2688 -91 
Q 1594 -91 976 548 
Q 359 1188 359 2328 
Q 359 3472 976 4111 
Q 1594 4750 2688 4750 
Q 3144 4750 3555 4637 
Q 3966 4525 4313 4306 
L 4313 3634 
Q 3963 3931 3569 4081 
Q 3175 4231 2741 4231 
Q 1884 4231 1454 3753 
Q 1025 3275 1025 2328 
Q 1025 1384 1454 906 
Q 1884 428 2741 428 
Q 3075 428 3337 486 
Q 3600 544 3809 666 
z
" transform="scale(0.015625)"/>
       <path id="DejaVuSans-65" d="M 3597 1894 
L 3597 1613 
L 953 1613 
Q 991 1019 1311 708 
Q 1631 397 2203 397 
Q 2534 397 2845 478 
Q 3156 559 3463 722 
L 3463 178 
Q 3153 47 2828 -22 
Q 2503 -91 2169 -91 
Q 1331 -91 842 396 
Q 353 884 353 1716 
Q 353 2575 817 3079 
Q 1281 3584 2069 3584 
Q 2775 3584 3186 3129 
Q 3597 2675 3597 1894 
z
M 3022 2063 
Q 3016 2534 2758 2815 
Q 2500 3097 2075 3097 
Q 1594 3097 1305 2825 
Q 1016 2553 972 2059 
L 3022 2063 
z
" transform="scale(0.015625)"/>
       <path id="DejaVuSans-6e" d="M 3513 2113 
L 3513 0 
L 2938 0 
L 2938 2094 
Q 2938 2591 2744 2837 
Q 2550 3084 2163 3084 
Q 1697 3084 1428 2787 
Q 1159 2491 1159 1978 
L 1159 0 
L 581 0 
L 581 3500 
L 1159 3500 
L 1159 2956 
Q 1366 3272 1645 3428 
Q 1925 3584 2291 3584 
Q 2894 3584 3203 3211 
Q 3513 2838 3513 2113 
z
" transform="scale(0.015625)"/>
       <path id="DejaVuSans-72" d="M 2631 2963 
Q 2534 3019 2420 3045 
Q 2306 3072 2169 3072 
Q 1681 3072 1420 2755 
Q 1159 2438 1159 1844 
L 1159 0 
L 581 0 
L 581 3500 
L 1159 3500 
L 1159 2956 
Q 1341 3275 1631 3429 
Q 1922 3584 2338 3584 
Q 2397 3584 2469 3576 
Q 2541 3569 2628 3553 
L 2631 2963 
z
" transform="scale(0.015625)"/>
       <path id="DejaVuSans-61" d="M 2194 1759 
Q 1497 1759 1228 1600 
Q 959 1441 959 1056 
Q 959 750 1161 570 
Q 1363 391 1709 391 
Q 2188 391 2477 730 
Q 2766 1069 2766 1631 
L 2766 1759 
L 2194 1759 
z
M 3341 1997 
L 3341 0 
L 2766 0 
L 2766 531 
Q 2569 213 2275 61 
Q 1981 -91 1556 -91 
Q 1019 -91 701 211 
Q 384 513 384 1019 
Q 384 1609 779 1909 
Q 1175 2209 1959 2209 
L 2766 2209 
L 2766 2266 
Q 2766 2663 2505 2880 
Q 2244 3097 1772 3097 
Q 1472 3097 1187 3025 
Q 903 2953 641 2809 
L 641 3341 
Q 956 3463 1253 3523 
Q 1550 3584 1831 3584 
Q 2591 3584 2966 3190 
Q 3341 2797 3341 1997 
z
" transform="scale(0.015625)"/>
       <path id="DejaVuSans-63" d="M 3122 3366 
L 3122 2828 
Q 2878 2963 2633 3030 
Q 2388 3097 2138 3097 
Q 1578 3097 1268 2742 
Q 959 2388 959 1747 
Q 959 1106 1268 751 
Q 1578 397 2138 397 
Q 2388 397 2633 464 
Q 2878 531 3122 666 
L 3122 134 
Q 2881 22 2623 -34 
Q 2366 -91 2075 -91 
Q 1284 -91 818 406 
Q 353 903 353 1747 
Q 353 2603 823 3093 
Q 1294 3584 2113 3584 
Q 2378 3584 2631 3529 
Q 2884 3475 3122 3366 
z
" transform="scale(0.015625)"/>
       <path id="DejaVuSans-6a" d="M 603 3500 
L 1178 3500 
L 1178 -63 
Q 1178 -731 923 -1031 
Q 669 -1331 103 -1331 
L -116 -1331 
L -116 -844 
L 38 -844 
Q 366 -844 484 -692 
Q 603 -541 603 -63 
L 603 3500 
z
M 603 4863 
L 1178 4863 
L 1178 4134 
L 603 4134 
L 603 4863 
z
" transform="scale(0.015625)"/>
      </defs>
      <use xlink:href="#DejaVuSans-47"/>
      <use xlink:href="#DejaVuSans-65" transform="translate(77.490234 0)"/>
      <use xlink:href="#DejaVuSans-6e" transform="translate(139.013672 0)"/>
      <use xlink:href="#DejaVuSans-65" transform="translate(202.392578 0)"/>
      <use xlink:href="#DejaVuSans-72" transform="translate(263.916016 0)"/>
      <use xlink:href="#DejaVuSans-61" transform="translate(305.029297 0)"/>
      <use xlink:href="#DejaVuSans-63" transform="translate(366.308594 0)"/>
      <use xlink:href="#DejaVuSans-6a" transform="translate(421.289062 0)"/>
      <use xlink:href="#DejaVuSans-65" transform="translate(449.072266 0)"/>
     </g>
    </g>
   </g>
   <g id="matplotlib.axis_2">
    <g id="ytick_1">
     <g id="line2d_19">
      <path d="M 57.6 128.922879 
L 414.72 128.922879 
" clip-path="url(#pe4307442f0)" style="fill: none; stroke: #b0b0b0; stroke-width: 0.8; stroke-linecap: square"/>
     </g>
     <g id="line2d_20">
      <defs>
       <path id="m5d5169775c" d="M 0 0 
L -3.5 0 
" style="stroke: #000000; stroke-width: 0.8"/>
      </defs>
      <g>
       <use xlink:href="#m5d5169775c" x="57.6" y="128.922879" style="stroke: #000000; stroke-width: 0.8"/>
      </g>
     </g>
     <g id="text_11">
      <!-- $\mathdefault{10^{2}}$ -->
      <g transform="translate(33 132.722098) scale(0.1 -0.1)">
       <use xlink:href="#DejaVuSans-31" transform="translate(0 0.765625)"/>
       <use xlink:href="#DejaVuSans-30" transform="translate(63.623047 0.765625)"/>
       <use xlink:href="#DejaVuSans-32" transform="translate(128.203125 39.046875) scale(0.7)"/>
      </g>
     </g>
    </g>
    <g id="text_12">
     <!-- Przystosowanie -->
     <g transform="translate(26.920312 213.170187) rotate(-90) scale(0.1 -0.1)">
      <defs>
       <path id="DejaVuSans-50" d="M 1259 4147 
L 1259 2394 
L 2053 2394 
Q 2494 2394 2734 2622 
Q 2975 2850 2975 3272 
Q 2975 3691 2734 3919 
Q 2494 4147 2053 4147 
L 1259 4147 
z
M 628 4666 
L 2053 4666 
Q 2838 4666 3239 4311 
Q 3641 3956 3641 3272 
Q 3641 2581 3239 2228 
Q 2838 1875 2053 1875 
L 1259 1875 
L 1259 0 
L 628 0 
L 628 4666 
z
" transform="scale(0.015625)"/>
       <path id="DejaVuSans-7a" d="M 353 3500 
L 3084 3500 
L 3084 2975 
L 922 459 
L 3084 459 
L 3084 0 
L 275 0 
L 275 525 
L 2438 3041 
L 353 3041 
L 353 3500 
z
" transform="scale(0.015625)"/>
       <path id="DejaVuSans-79" d="M 2059 -325 
Q 1816 -950 1584 -1140 
Q 1353 -1331 966 -1331 
L 506 -1331 
L 506 -850 
L 844 -850 
Q 1081 -850 1212 -737 
Q 1344 -625 1503 -206 
L 1606 56 
L 191 3500 
L 800 3500 
L 1894 763 
L 2988 3500 
L 3597 3500 
L 2059 -325 
z
" transform="scale(0.015625)"/>
       <path id="DejaVuSans-73" d="M 2834 3397 
L 2834 2853 
Q 2591 2978 2328 3040 
Q 2066 3103 1784 3103 
Q 1356 3103 1142 2972 
Q 928 2841 928 2578 
Q 928 2378 1081 2264 
Q 1234 2150 1697 2047 
L 1894 2003 
Q 2506 1872 2764 1633 
Q 3022 1394 3022 966 
Q 3022 478 2636 193 
Q 2250 -91 1575 -91 
Q 1294 -91 989 -36 
Q 684 19 347 128 
L 347 722 
Q 666 556 975 473 
Q 1284 391 1588 391 
Q 1994 391 2212 530 
Q 2431 669 2431 922 
Q 2431 1156 2273 1281 
Q 2116 1406 1581 1522 
L 1381 1569 
Q 847 1681 609 1914 
Q 372 2147 372 2553 
Q 372 3047 722 3315 
Q 1072 3584 1716 3584 
Q 2034 3584 2315 3537 
Q 2597 3491 2834 3397 
z
" transform="scale(0.015625)"/>
       <path id="DejaVuSans-74" d="M 1172 4494 
L 1172 3500 
L 2356 3500 
L 2356 3053 
L 1172 3053 
L 1172 1153 
Q 1172 725 1289 603 
Q 1406 481 1766 481 
L 2356 481 
L 2356 0 
L 1766 0 
Q 1100 0 847 248 
Q 594 497 594 1153 
L 594 3053 
L 172 3053 
L 172 3500 
L 594 3500 
L 594 4494 
L 1172 4494 
z
" transform="scale(0.015625)"/>
       <path id="DejaVuSans-6f" d="M 1959 3097 
Q 1497 3097 1228 2736 
Q 959 2375 959 1747 
Q 959 1119 1226 758 
Q 1494 397 1959 397 
Q 2419 397 2687 759 
Q 2956 1122 2956 1747 
Q 2956 2369 2687 2733 
Q 2419 3097 1959 3097 
z
M 1959 3584 
Q 2709 3584 3137 3096 
Q 3566 2609 3566 1747 
Q 3566 888 3137 398 
Q 2709 -91 1959 -91 
Q 1206 -91 779 398 
Q 353 888 353 1747 
Q 353 2609 779 3096 
Q 1206 3584 1959 3584 
z
" transform="scale(0.015625)"/>
       <path id="DejaVuSans-77" d="M 269 3500 
L 844 3500 
L 1563 769 
L 2278 3500 
L 2956 3500 
L 3675 769 
L 4391 3500 
L 4966 3500 
L 4050 0 
L 3372 0 
L 2619 2869 
L 1863 0 
L 1184 0 
L 269 3500 
z
" transform="scale(0.015625)"/>
       <path id="DejaVuSans-69" d="M 603 3500 
L 1178 3500 
L 1178 0 
L 603 0 
L 603 3500 
z
M 603 4863 
L 1178 4863 
L 1178 4134 
L 603 4134 
L 603 4863 
z
" transform="scale(0.015625)"/>
      </defs>
      <use xlink:href="#DejaVuSans-50"/>
      <use xlink:href="#DejaVuSans-72" transform="translate(58.552734 0)"/>
      <use xlink:href="#DejaVuSans-7a" transform="translate(99.666016 0)"/>
      <use xlink:href="#DejaVuSans-79" transform="translate(152.15625 0)"/>
      <use xlink:href="#DejaVuSans-73" transform="translate(211.335938 0)"/>
      <use xlink:href="#DejaVuSans-74" transform="translate(263.435547 0)"/>
      <use xlink:href="#DejaVuSans-6f" transform="translate(302.644531 0)"/>
      <use xlink:href="#DejaVuSans-73" transform="translate(363.826172 0)"/>
      <use xlink:href="#DejaVuSans-6f" transform="translate(415.925781 0)"/>
      <use xlink:href="#DejaVuSans-77" transform="translate(477.107422 0)"/>
      <use xlink:href="#DejaVuSans-61" transform="translate(558.894531 0)"/>
      <use xlink:href="#DejaVuSans-6e" transform="translate(620.173828 0)"/>
      <use xlink:href="#DejaVuSans-69" transform="translate(683.552734 0)"/>
      <use xlink:href="#DejaVuSans-65" transform="translate(711.335938 0)"/>
     </g>
    </g>
   </g>
   <g id="line2d_21">
    <path d="M 73.832727 295.488 
L 75.464157 236.208791 
L 77.095587 194.469442 
L 78.727017 186.566614 
L 80.358447 185.228124 
L 81.989877 166.375663 
L 83.621307 166.442621 
L 85.252736 167.40114 
L 86.884166 169.146217 
L 88.515596 168.730208 
L 90.147026 167.389069 
L 91.778456 165.495033 
L 93.409886 164.553159 
L 95.041316 159.405731 
L 96.672746 160.571346 
L 98.304175 159.847451 
L 99.935605 162.108954 
L 101.567035 159.026732 
L 103.198465 157.922557 
L 104.829895 157.699095 
L 106.461325 161.911339 
L 108.092755 158.713118 
L 109.724185 158.326463 
L 111.355614 159.567035 
L 112.987044 157.416227 
L 114.618474 158.247168 
L 116.249904 155.563521 
L 117.881334 157.709796 
L 119.512764 160.513672 
L 121.144194 157.097359 
L 122.775624 154.59501 
L 124.407053 156.727114 
L 126.038483 157.647161 
L 127.669913 157.191623 
L 129.301343 154.566777 
L 130.932773 157.001308 
L 132.564203 155.723601 
L 134.195633 153.119443 
L 135.827063 152.790405 
L 137.458492 153.580033 
L 139.089922 152.848014 
L 140.721352 155.536115 
L 143.984212 156.839905 
L 145.615642 152.065001 
L 147.247072 155.673729 
L 148.878502 154.068339 
L 150.509931 154.36299 
L 152.141361 156.010405 
L 153.772791 153.54934 
L 155.404221 152.440471 
L 157.035651 154.377645 
L 158.667081 154.736116 
L 160.298511 153.393689 
L 161.929941 150.786894 
L 163.56137 151.785221 
L 165.1928 154.269086 
L 166.82423 158.052193 
L 168.45566 154.33959 
L 170.08709 155.943777 
L 171.71852 157.802162 
L 173.34995 154.179304 
L 174.98138 157.524272 
L 176.61281 155.889493 
L 178.244239 154.601946 
L 179.875669 155.99199 
L 181.507099 155.658965 
L 183.138529 153.800188 
L 184.769959 156.794773 
L 186.401389 157.119966 
L 188.032819 153.933175 
L 191.295678 156.171174 
L 192.927108 154.88715 
L 194.558538 155.706071 
L 196.189968 155.118763 
L 197.821398 155.690045 
L 199.452828 155.705813 
L 201.084258 153.436466 
L 202.715688 153.630628 
L 204.347117 156.345551 
L 205.978547 156.502284 
L 207.609977 152.912611 
L 209.241407 152.752399 
L 210.872837 156.479978 
L 212.504267 155.249833 
L 214.135697 155.254514 
L 215.767127 154.117955 
L 217.398556 155.999861 
L 219.029986 156.224415 
L 220.661416 155.253167 
L 222.292846 157.105648 
L 223.924276 154.386146 
L 225.555706 156.423688 
L 227.187136 155.524389 
L 228.818566 156.807003 
L 230.449995 154.525216 
L 232.081425 153.369528 
L 233.712855 154.318052 
L 235.344285 152.515815 
L 236.975715 150.923362 
L 238.607145 153.62118 
L 240.238575 153.287728 
L 241.870005 155.371342 
L 243.501434 154.54706 
L 245.132864 154.968292 
L 246.764294 153.535221 
L 248.395724 153.708085 
L 250.027154 154.475105 
L 253.290014 152.615996 
L 254.921444 156.242003 
L 256.552873 154.277806 
L 258.184303 151.965947 
L 259.815733 155.774511 
L 261.447163 155.382181 
L 263.078593 154.467567 
L 264.710023 153.329187 
L 266.341453 154.886884 
L 267.972883 155.226898 
L 269.604312 157.437526 
L 271.235742 155.693238 
L 272.867172 153.695649 
L 274.498602 154.961452 
L 276.130032 154.397188 
L 277.761462 154.7299 
L 279.392892 156.694308 
L 281.024322 157.558851 
L 282.655751 152.59423 
L 284.287181 154.456435 
L 285.918611 157.076536 
L 287.550041 154.287511 
L 289.181471 154.871548 
L 290.812901 155.325718 
L 292.444331 153.483667 
L 294.075761 155.419679 
L 295.70719 158.997909 
L 297.33862 157.090899 
L 300.60148 154.311675 
L 302.23291 159.155224 
L 303.86434 154.334896 
L 305.49577 155.399331 
L 307.1272 158.288828 
L 308.75863 160.251853 
L 310.390059 157.42097 
L 312.021489 152.390537 
L 313.652919 155.494464 
L 315.284349 154.345298 
L 316.915779 152.458575 
L 318.547209 154.070251 
L 320.178639 151.754082 
L 321.810069 152.728436 
L 323.441498 153.373245 
L 325.072928 153.174947 
L 326.704358 153.631765 
L 328.335788 153.129493 
L 329.967218 147.388818 
L 331.598648 152.656984 
L 333.230078 151.814299 
L 334.861508 152.764655 
L 336.492937 151.197174 
L 338.124367 151.764868 
L 339.755797 151.727607 
L 341.387227 150.810168 
L 343.018657 151.541015 
L 344.650087 151.782138 
L 346.281517 153.631469 
L 347.912947 151.334104 
L 349.544376 150.767377 
L 351.175806 152.000496 
L 352.807236 153.760177 
L 354.438666 151.719828 
L 356.070096 154.698822 
L 357.701526 151.443757 
L 359.332956 151.688628 
L 360.964386 151.244912 
L 362.595815 153.224362 
L 364.227245 151.676878 
L 365.858675 152.435858 
L 367.490105 150.740861 
L 369.121535 155.721141 
L 370.752965 155.636442 
L 372.384395 149.996272 
L 374.015825 151.155972 
L 375.647254 154.000605 
L 377.278684 151.302913 
L 378.910114 152.794162 
L 380.541544 152.144696 
L 382.172974 155.028456 
L 383.804404 155.339573 
L 385.435834 153.125325 
L 387.067264 151.695276 
L 388.698693 153.158088 
L 390.330123 153.706555 
L 391.961553 152.55414 
L 393.592983 153.504793 
L 395.224413 152.003851 
L 396.855843 152.809174 
L 398.487273 153.156258 
L 398.487273 153.156258 
" clip-path="url(#pe4307442f0)" style="fill: none; stroke: #0000ff; stroke-width: 1.5; stroke-linecap: square"/>
   </g>
   <g id="line2d_22">
    <path d="M 73.832727 241.216345 
L 75.464157 180.595139 
L 77.095587 148.315303 
L 78.727017 144.354259 
L 80.358447 141.615835 
L 81.989877 133.9021 
L 83.621307 133.798395 
L 85.252736 135.084068 
L 86.884166 136.828112 
L 88.515596 134.579236 
L 90.147026 137.329992 
L 91.778456 135.793529 
L 93.409886 138.59546 
L 95.041316 135.132995 
L 96.672746 135.39724 
L 98.304175 135.932865 
L 99.935605 137.242478 
L 101.567035 133.066916 
L 103.198465 136.094888 
L 104.829895 133.718893 
L 106.461325 137.471695 
L 108.092755 135.172986 
L 109.724185 134.218495 
L 111.355614 136.024709 
L 112.987044 132.901483 
L 114.618474 135.614942 
L 116.249904 131.657626 
L 117.881334 133.767825 
L 119.512764 136.996172 
L 121.144194 133.768751 
L 122.775624 134.541996 
L 124.407053 134.791872 
L 126.038483 133.805927 
L 127.669913 134.334639 
L 129.301343 132.669087 
L 130.932773 133.977867 
L 132.564203 133.488622 
L 134.195633 129.042125 
L 135.827063 130.165795 
L 137.458492 130.336177 
L 139.089922 132.190184 
L 140.721352 132.900003 
L 143.984212 136.195962 
L 145.615642 127.991496 
L 147.247072 135.273923 
L 148.878502 130.575103 
L 150.509931 132.676463 
L 152.141361 131.664521 
L 153.772791 129.451075 
L 155.404221 128.319277 
L 157.035651 132.717155 
L 158.667081 130.961749 
L 160.298511 130.780455 
L 161.929941 125.013004 
L 163.56137 128.981432 
L 165.1928 133.399931 
L 166.82423 136.920907 
L 168.45566 130.343068 
L 170.08709 133.402016 
L 171.71852 137.161663 
L 173.34995 131.879587 
L 174.98138 136.123756 
L 176.61281 135.923004 
L 178.244239 132.634267 
L 179.875669 135.4857 
L 181.507099 133.227789 
L 183.138529 130.268576 
L 184.769959 135.639623 
L 186.401389 136.585055 
L 188.032819 131.696237 
L 189.664249 133.06235 
L 191.295678 133.185354 
L 192.927108 133.581174 
L 194.558538 133.696843 
L 196.189968 131.440683 
L 197.821398 133.74829 
L 199.452828 134.266411 
L 201.084258 133.540139 
L 202.715688 131.447982 
L 204.347117 133.456271 
L 205.978547 134.547338 
L 207.609977 130.076475 
L 209.241407 131.255367 
L 210.872837 134.299896 
L 212.504267 131.41093 
L 214.135697 133.837008 
L 215.767127 131.069648 
L 217.398556 135.241036 
L 219.029986 133.572978 
L 220.661416 134.168391 
L 222.292846 136.281916 
L 223.924276 131.673009 
L 225.555706 134.461267 
L 227.187136 132.574172 
L 228.818566 134.538856 
L 230.449995 133.238965 
L 233.712855 132.800962 
L 235.344285 129.140717 
L 236.975715 129.697768 
L 238.607145 134.371636 
L 240.238575 133.736892 
L 241.870005 133.909471 
L 243.501434 135.471964 
L 245.132864 135.944529 
L 246.764294 133.34676 
L 248.395724 133.125517 
L 250.027154 134.526928 
L 251.658584 132.550948 
L 253.290014 132.479773 
L 254.921444 136.103366 
L 256.552873 132.516556 
L 258.184303 129.460284 
L 259.815733 136.730251 
L 261.447163 134.390663 
L 263.078593 135.137061 
L 264.710023 133.465858 
L 266.341453 132.740021 
L 267.972883 134.098105 
L 269.604312 136.671213 
L 271.235742 136.956474 
L 272.867172 132.648865 
L 274.498602 133.560971 
L 276.130032 132.007511 
L 277.761462 135.544245 
L 279.392892 134.95039 
L 281.024322 137.66668 
L 282.655751 132.476662 
L 284.287181 133.130752 
L 285.918611 135.837158 
L 287.550041 133.058114 
L 289.181471 135.268774 
L 290.812901 133.555497 
L 292.444331 134.285185 
L 294.075761 132.955649 
L 295.70719 136.184826 
L 297.33862 136.229329 
L 298.97005 133.183337 
L 300.60148 132.294245 
L 302.23291 131.165729 
L 303.86434 129.317383 
L 305.49577 131.953709 
L 307.1272 131.94636 
L 308.75863 134.886402 
L 310.390059 132.681936 
L 312.021489 127.992438 
L 313.652919 130.545902 
L 315.284349 130.431276 
L 316.915779 130.556574 
L 318.547209 133.187883 
L 320.178639 130.966104 
L 321.810069 132.864652 
L 323.441498 132.372211 
L 325.072928 132.093075 
L 326.704358 133.368802 
L 328.335788 132.038221 
L 329.967218 124.343345 
L 331.598648 132.358343 
L 333.230078 128.500086 
L 334.861508 132.629416 
L 336.492937 129.699355 
L 338.124367 129.132269 
L 339.755797 131.694151 
L 341.387227 129.071757 
L 343.018657 129.473826 
L 344.650087 133.443337 
L 346.281517 132.709415 
L 347.912947 129.836997 
L 349.544376 129.82807 
L 351.175806 132.023401 
L 352.807236 135.222726 
L 354.438666 130.604739 
L 356.070096 133.413533 
L 357.701526 130.778094 
L 359.332956 131.311687 
L 360.964386 129.80146 
L 362.595815 132.000131 
L 364.227245 130.450632 
L 365.858675 131.916549 
L 367.490105 128.472915 
L 369.121535 133.887444 
L 370.752965 133.040263 
L 372.384395 127.730665 
L 374.015825 128.972066 
L 375.647254 133.066803 
L 377.278684 131.671533 
L 378.910114 131.022507 
L 380.541544 131.528384 
L 382.172974 136.087691 
L 383.804404 134.584111 
L 387.067264 131.127827 
L 388.698693 132.978535 
L 390.330123 131.459052 
L 391.961553 129.098026 
L 393.592983 129.870124 
L 395.224413 129.407191 
L 396.855843 131.877885 
L 398.487273 133.679821 
L 398.487273 133.679821 
" clip-path="url(#pe4307442f0)" style="fill: none; stroke-dasharray: 9.6,2.4,1.5,2.4; stroke-dashoffset: 0; stroke: #008000; stroke-width: 1.5"/>
   </g>
   <g id="line2d_23">
    <path d="M 73.832727 143.818131 
L 75.464157 117.784208 
L 77.095587 103.758998 
L 78.727017 86.951762 
L 80.358447 90.045505 
L 81.989877 90.850417 
L 83.621307 74.896558 
L 85.252736 90.319154 
L 86.884166 95.219893 
L 88.515596 90.861579 
L 90.147026 103.052598 
L 91.778456 94.772336 
L 96.672746 82.169014 
L 98.304175 78.630386 
L 99.935605 99.28454 
L 101.567035 79.010133 
L 103.198465 94.59978 
L 104.829895 91.576803 
L 106.461325 82.565262 
L 108.092755 94.975999 
L 109.724185 87.455057 
L 111.355614 82.517553 
L 112.987044 98.792569 
L 114.618474 94.931722 
L 116.249904 74.47412 
L 117.881334 86.631937 
L 119.512764 59.959178 
L 121.144194 86.550154 
L 122.775624 90.450641 
L 124.407053 94.655884 
L 126.038483 86.509908 
L 127.669913 95.120143 
L 129.301343 71.161126 
L 130.932773 78.550729 
L 132.564203 86.744956 
L 134.195633 64.002193 
L 135.827063 82.472692 
L 137.458492 63.918458 
L 139.089922 90.270877 
L 140.721352 86.565688 
L 142.352782 94.487032 
L 143.984212 78.515119 
L 145.615642 74.711072 
L 147.247072 86.668576 
L 148.878502 90.298538 
L 150.509931 57.001691 
L 152.141361 67.360187 
L 153.772791 91.050353 
L 155.404221 82.367911 
L 157.035651 86.803142 
L 158.667081 74.708548 
L 160.298511 82.379977 
L 161.929941 53.648334 
L 163.56137 71.094604 
L 165.1928 95.337423 
L 166.82423 86.291548 
L 168.45566 86.321159 
L 170.08709 82.500431 
L 171.71852 86.506896 
L 173.34995 82.720265 
L 174.98138 82.678784 
L 176.61281 103.394614 
L 178.244239 95.10443 
L 179.875669 95.158949 
L 181.507099 86.672288 
L 183.138529 59.729813 
L 184.769959 70.753804 
L 186.401389 94.641356 
L 188.032819 86.384753 
L 189.664249 90.553916 
L 191.295678 87.075518 
L 192.927108 104.044516 
L 194.558538 78.476592 
L 196.189968 90.997908 
L 197.821398 78.137031 
L 199.452828 82.260072 
L 201.084258 94.863464 
L 202.715688 71.302313 
L 204.347117 90.622992 
L 205.978547 71.473284 
L 207.609977 86.999241 
L 209.241407 71.105974 
L 210.872837 78.985489 
L 212.504267 68.031106 
L 214.135697 90.581799 
L 215.767127 70.875535 
L 217.398556 82.521207 
L 219.029986 86.461096 
L 220.661416 90.797268 
L 222.292846 103.181328 
L 223.924276 86.931567 
L 225.555706 63.841257 
L 227.187136 90.57794 
L 228.818566 68.238564 
L 230.449995 87.216475 
L 232.081425 94.916449 
L 233.712855 90.507048 
L 235.344285 53.647722 
L 236.975715 82.42724 
L 238.607145 108.150396 
L 240.238575 86.461269 
L 241.870005 86.612308 
L 243.501434 82.512996 
L 245.132864 99.291035 
L 246.764294 99.324576 
L 248.395724 82.779886 
L 250.027154 103.39463 
L 251.658584 99.095794 
L 253.290014 78.602024 
L 254.921444 94.635832 
L 256.552873 90.864617 
L 258.184303 86.452525 
L 259.815733 108.311144 
L 261.447163 99.24345 
L 263.078593 103.362141 
L 264.710023 103.408691 
L 266.341453 74.546496 
L 267.972883 53.568 
L 269.604312 71.298735 
L 271.235742 99.160003 
L 272.867172 90.572448 
L 274.498602 94.808329 
L 276.130032 82.482033 
L 277.761462 99.099499 
L 279.392892 90.394005 
L 281.024322 86.988274 
L 282.655751 71.125853 
L 284.287181 56.781777 
L 285.918611 94.790076 
L 287.550041 82.485126 
L 289.181471 90.313189 
L 290.812901 90.522489 
L 292.444331 94.750111 
L 294.075761 78.713106 
L 295.70719 99.146392 
L 297.33862 94.461764 
L 298.97005 90.682121 
L 300.60148 90.761353 
L 302.23291 82.141945 
L 303.86434 59.919203 
L 305.49577 75.246926 
L 307.1272 53.615671 
L 308.75863 90.502075 
L 310.390059 94.851215 
L 312.021489 70.851578 
L 313.652919 99.156666 
L 315.284349 67.333405 
L 316.915779 75.186776 
L 318.547209 74.654006 
L 320.178639 74.952376 
L 321.810069 82.73252 
L 323.441498 86.125237 
L 325.072928 86.718799 
L 326.704358 91.132331 
L 328.335788 86.391712 
L 329.967218 71.316738 
L 331.598648 90.476382 
L 333.230078 78.932276 
L 336.492937 71.560807 
L 338.124367 90.170744 
L 339.755797 78.633247 
L 341.387227 63.824164 
L 343.018657 64.105538 
L 344.650087 103.830412 
L 346.281517 82.359421 
L 347.912947 79.062434 
L 349.544376 86.673349 
L 351.175806 82.516874 
L 352.807236 94.9536 
L 354.438666 71.015425 
L 356.070096 86.199342 
L 357.701526 67.444488 
L 359.332956 82.631939 
L 360.964386 67.861894 
L 362.595815 67.538864 
L 364.227245 78.719837 
L 365.858675 95.090102 
L 367.490105 90.226917 
L 369.121535 70.840193 
L 370.752965 90.481628 
L 372.384395 71.463625 
L 374.015825 78.583316 
L 375.647254 82.194477 
L 377.278684 86.792886 
L 378.910114 74.823774 
L 380.541544 90.308646 
L 382.172974 99.664056 
L 383.804404 90.59585 
L 385.435834 99.009046 
L 387.067264 82.625765 
L 388.698693 90.778387 
L 390.330123 71.565794 
L 391.961553 53.954918 
L 393.592983 86.282549 
L 395.224413 71.067074 
L 396.855843 91.265638 
L 398.487273 82.500367 
L 398.487273 82.500367 
" clip-path="url(#pe4307442f0)" style="fill: none; stroke: #ff0000; stroke-width: 1.5; stroke-linecap: square"/>
   </g>
   <g id="patch_3">
    <path d="M 57.6 307.584 
L 57.6 41.472 
" style="fill: none; stroke: #000000; stroke-width: 0.8; stroke-linejoin: miter; stroke-linecap: square"/>
   </g>
   <g id="patch_4">
    <path d="M 414.72 307.584 
L 414.72 41.472 
" style="fill: none; stroke: #000000; stroke-width: 0.8; stroke-linejoin: miter; stroke-linecap: square"/>
   </g>
   <g id="patch_5">
    <path d="M 57.6 307.584 
L 414.72 307.584 
" style="fill: none; stroke: #000000; stroke-width: 0.8; stroke-linejoin: miter; stroke-linecap: square"/>
   </g>
   <g id="patch_6">
    <path d="M 57.6 41.472 
L 414.72 41.472 
" style="fill: none; stroke: #000000; stroke-width: 0.8; stroke-linejoin: miter; stroke-linecap: square"/>
   </g>
   <g id="text_13">
    <!-- Średnie i najlepsze przystosowanie w każdej generacji -->
    <g transform="translate(73.26 35.472) scale(0.12 -0.12)">
     <defs>
      <path id="DejaVuSans-15a" d="M 2236 5921 
L 2814 5921 
L 2102 5096 
L 1623 5096 
L 2236 5921 
z
M 3425 4513 
L 3425 3897 
Q 3066 4069 2747 4153 
Q 2428 4238 2131 4238 
Q 1616 4238 1336 4038 
Q 1056 3838 1056 3469 
Q 1056 3159 1242 3001 
Q 1428 2844 1947 2747 
L 2328 2669 
Q 3034 2534 3370 2195 
Q 3706 1856 3706 1288 
Q 3706 609 3251 259 
Q 2797 -91 1919 -91 
Q 1588 -91 1214 -16 
Q 841 59 441 206 
L 441 856 
Q 825 641 1194 531 
Q 1563 422 1919 422 
Q 2459 422 2753 634 
Q 3047 847 3047 1241 
Q 3047 1584 2836 1778 
Q 2625 1972 2144 2069 
L 1759 2144 
Q 1053 2284 737 2584 
Q 422 2884 422 3419 
Q 422 4038 858 4394 
Q 1294 4750 2059 4750 
Q 2388 4750 2728 4690 
Q 3069 4631 3425 4513 
z
" transform="scale(0.015625)"/>
      <path id="DejaVuSans-64" d="M 2906 2969 
L 2906 4863 
L 3481 4863 
L 3481 0 
L 2906 0 
L 2906 525 
Q 2725 213 2448 61 
Q 2172 -91 1784 -91 
Q 1150 -91 751 415 
Q 353 922 353 1747 
Q 353 2572 751 3078 
Q 1150 3584 1784 3584 
Q 2172 3584 2448 3432 
Q 2725 3281 2906 2969 
z
M 947 1747 
Q 947 1113 1208 752 
Q 1469 391 1925 391 
Q 2381 391 2643 752 
Q 2906 1113 2906 1747 
Q 2906 2381 2643 2742 
Q 2381 3103 1925 3103 
Q 1469 3103 1208 2742 
Q 947 2381 947 1747 
z
" transform="scale(0.015625)"/>
      <path id="DejaVuSans-20" transform="scale(0.015625)"/>
      <path id="DejaVuSans-6c" d="M 603 4863 
L 1178 4863 
L 1178 0 
L 603 0 
L 603 4863 
z
" transform="scale(0.015625)"/>
      <path id="DejaVuSans-70" d="M 1159 525 
L 1159 -1331 
L 581 -1331 
L 581 3500 
L 1159 3500 
L 1159 2969 
Q 1341 3281 1617 3432 
Q 1894 3584 2278 3584 
Q 2916 3584 3314 3078 
Q 3713 2572 3713 1747 
Q 3713 922 3314 415 
Q 2916 -91 2278 -91 
Q 1894 -91 1617 61 
Q 1341 213 1159 525 
z
M 3116 1747 
Q 3116 2381 2855 2742 
Q 2594 3103 2138 3103 
Q 1681 3103 1420 2742 
Q 1159 2381 1159 1747 
Q 1159 1113 1420 752 
Q 1681 391 2138 391 
Q 2594 391 2855 752 
Q 3116 1113 3116 1747 
z
" transform="scale(0.015625)"/>
      <path id="DejaVuSans-6b" d="M 581 4863 
L 1159 4863 
L 1159 1991 
L 2875 3500 
L 3609 3500 
L 1753 1863 
L 3688 0 
L 2938 0 
L 1159 1709 
L 1159 0 
L 581 0 
L 581 4863 
z
" transform="scale(0.015625)"/>
      <path id="DejaVuSans-17c" d="M 1378 4863 
L 1953 4863 
L 1953 4134 
L 1378 4134 
L 1378 4863 
z
M 1672 3584 
L 1672 3584 
z
M 353 3500 
L 3084 3500 
L 3084 2975 
L 922 459 
L 3084 459 
L 3084 0 
L 275 0 
L 275 525 
L 2438 3041 
L 353 3041 
L 353 3500 
z
" transform="scale(0.015625)"/>
      <path id="DejaVuSans-67" d="M 2906 1791 
Q 2906 2416 2648 2759 
Q 2391 3103 1925 3103 
Q 1463 3103 1205 2759 
Q 947 2416 947 1791 
Q 947 1169 1205 825 
Q 1463 481 1925 481 
Q 2391 481 2648 825 
Q 2906 1169 2906 1791 
z
M 3481 434 
Q 3481 -459 3084 -895 
Q 2688 -1331 1869 -1331 
Q 1566 -1331 1297 -1286 
Q 1028 -1241 775 -1147 
L 775 -588 
Q 1028 -725 1275 -790 
Q 1522 -856 1778 -856 
Q 2344 -856 2625 -561 
Q 2906 -266 2906 331 
L 2906 616 
Q 2728 306 2450 153 
Q 2172 0 1784 0 
Q 1141 0 747 490 
Q 353 981 353 1791 
Q 353 2603 747 3093 
Q 1141 3584 1784 3584 
Q 2172 3584 2450 3431 
Q 2728 3278 2906 2969 
L 2906 3500 
L 3481 3500 
L 3481 434 
z
" transform="scale(0.015625)"/>
     </defs>
     <use xlink:href="#DejaVuSans-15a"/>
     <use xlink:href="#DejaVuSans-72" transform="translate(63.476562 0)"/>
     <use xlink:href="#DejaVuSans-65" transform="translate(102.339844 0)"/>
     <use xlink:href="#DejaVuSans-64" transform="translate(163.863281 0)"/>
     <use xlink:href="#DejaVuSans-6e" transform="translate(227.339844 0)"/>
     <use xlink:href="#DejaVuSans-69" transform="translate(290.71875 0)"/>
     <use xlink:href="#DejaVuSans-65" transform="translate(318.501953 0)"/>
     <use xlink:href="#DejaVuSans-20" transform="translate(380.025391 0)"/>
     <use xlink:href="#DejaVuSans-69" transform="translate(411.8125 0)"/>
     <use xlink:href="#DejaVuSans-20" transform="translate(439.595703 0)"/>
     <use xlink:href="#DejaVuSans-6e" transform="translate(471.382812 0)"/>
     <use xlink:href="#DejaVuSans-61" transform="translate(534.761719 0)"/>
     <use xlink:href="#DejaVuSans-6a" transform="translate(596.041016 0)"/>
     <use xlink:href="#DejaVuSans-6c" transform="translate(623.824219 0)"/>
     <use xlink:href="#DejaVuSans-65" transform="translate(651.607422 0)"/>
     <use xlink:href="#DejaVuSans-70" transform="translate(713.130859 0)"/>
     <use xlink:href="#DejaVuSans-73" transform="translate(776.607422 0)"/>
     <use xlink:href="#DejaVuSans-7a" transform="translate(828.707031 0)"/>
     <use xlink:href="#DejaVuSans-65" transform="translate(881.197266 0)"/>
     <use xlink:href="#DejaVuSans-20" transform="translate(942.720703 0)"/>
     <use xlink:href="#DejaVuSans-70" transform="translate(974.507812 0)"/>
     <use xlink:href="#DejaVuSans-72" transform="translate(1037.984375 0)"/>
     <use xlink:href="#DejaVuSans-7a" transform="translate(1079.097656 0)"/>
     <use xlink:href="#DejaVuSans-79" transform="translate(1131.587891 0)"/>
     <use xlink:href="#DejaVuSans-73" transform="translate(1190.767578 0)"/>
     <use xlink:href="#DejaVuSans-74" transform="translate(1242.867188 0)"/>
     <use xlink:href="#DejaVuSans-6f" transform="translate(1282.076172 0)"/>
     <use xlink:href="#DejaVuSans-73" transform="translate(1343.257812 0)"/>
     <use xlink:href="#DejaVuSans-6f" transform="translate(1395.357422 0)"/>
     <use xlink:href="#DejaVuSans-77" transform="translate(1456.539062 0)"/>
     <use xlink:href="#DejaVuSans-61" transform="translate(1538.326172 0)"/>
     <use xlink:href="#DejaVuSans-6e" transform="translate(1599.605469 0)"/>
     <use xlink:href="#DejaVuSans-69" transform="translate(1662.984375 0)"/>
     <use xlink:href="#DejaVuSans-65" transform="translate(1690.767578 0)"/>
     <use xlink:href="#DejaVuSans-20" transform="translate(1752.291016 0)"/>
     <use xlink:href="#DejaVuSans-77" transform="translate(1784.078125 0)"/>
     <use xlink:href="#DejaVuSans-20" transform="translate(1865.865234 0)"/>
     <use xlink:href="#DejaVuSans-6b" transform="translate(1897.652344 0)"/>
     <use xlink:href="#DejaVuSans-61" transform="translate(1953.8125 0)"/>
     <use xlink:href="#DejaVuSans-17c" transform="translate(2015.091797 0)"/>
     <use xlink:href="#DejaVuSans-64" transform="translate(2067.582031 0)"/>
     <use xlink:href="#DejaVuSans-65" transform="translate(2131.058594 0)"/>
     <use xlink:href="#DejaVuSans-6a" transform="translate(2192.582031 0)"/>
     <use xlink:href="#DejaVuSans-20" transform="translate(2220.365234 0)"/>
     <use xlink:href="#DejaVuSans-67" transform="translate(2252.152344 0)"/>
     <use xlink:href="#DejaVuSans-65" transform="translate(2315.628906 0)"/>
     <use xlink:href="#DejaVuSans-6e" transform="translate(2377.152344 0)"/>
     <use xlink:href="#DejaVuSans-65" transform="translate(2440.53125 0)"/>
     <use xlink:href="#DejaVuSans-72" transform="translate(2502.054688 0)"/>
     <use xlink:href="#DejaVuSans-61" transform="translate(2543.167969 0)"/>
     <use xlink:href="#DejaVuSans-63" transform="translate(2604.447266 0)"/>
     <use xlink:href="#DejaVuSans-6a" transform="translate(2659.427734 0)"/>
     <use xlink:href="#DejaVuSans-69" transform="translate(2687.210938 0)"/>
    </g>
   </g>
   <g id="legend_1">
    <g id="patch_7">
     <path d="M 279.790313 302.584 
L 407.72 302.584 
Q 409.72 302.584 409.72 300.584 
L 409.72 257.549625 
Q 409.72 255.549625 407.72 255.549625 
L 279.790313 255.549625 
Q 277.790313 255.549625 277.790313 257.549625 
L 277.790313 300.584 
Q 277.790313 302.584 279.790313 302.584 
z
" style="fill: #ffffff; opacity: 0.8; stroke: #cccccc; stroke-linejoin: miter"/>
    </g>
    <g id="line2d_24">
     <path d="M 281.790313 263.648062 
L 291.790313 263.648062 
L 301.790313 263.648062 
" style="fill: none; stroke: #0000ff; stroke-width: 1.5; stroke-linecap: square"/>
    </g>
    <g id="text_14">
     <!-- Średnia -->
     <g transform="translate(309.790313 267.148062) scale(0.1 -0.1)">
      <use xlink:href="#DejaVuSans-15a"/>
      <use xlink:href="#DejaVuSans-72" transform="translate(63.476562 0)"/>
      <use xlink:href="#DejaVuSans-65" transform="translate(102.339844 0)"/>
      <use xlink:href="#DejaVuSans-64" transform="translate(163.863281 0)"/>
      <use xlink:href="#DejaVuSans-6e" transform="translate(227.339844 0)"/>
      <use xlink:href="#DejaVuSans-69" transform="translate(290.71875 0)"/>
      <use xlink:href="#DejaVuSans-61" transform="translate(318.501953 0)"/>
     </g>
    </g>
    <g id="line2d_25">
     <path d="M 281.790313 278.326188 
L 291.790313 278.326188 
L 301.790313 278.326188 
" style="fill: none; stroke-dasharray: 9.6,2.4,1.5,2.4; stroke-dashoffset: 0; stroke: #008000; stroke-width: 1.5"/>
    </g>
    <g id="text_15">
     <!-- ±1 Odchylenie std. -->
     <g transform="translate(309.790313 281.826188) scale(0.1 -0.1)">
      <defs>
       <path id="DejaVuSans-b1" d="M 2944 4013 
L 2944 2803 
L 4684 2803 
L 4684 2272 
L 2944 2272 
L 2944 1063 
L 2419 1063 
L 2419 2272 
L 678 2272 
L 678 2803 
L 2419 2803 
L 2419 4013 
L 2944 4013 
z
M 678 531 
L 4684 531 
L 4684 0 
L 678 0 
L 678 531 
z
" transform="scale(0.015625)"/>
       <path id="DejaVuSans-4f" d="M 2522 4238 
Q 1834 4238 1429 3725 
Q 1025 3213 1025 2328 
Q 1025 1447 1429 934 
Q 1834 422 2522 422 
Q 3209 422 3611 934 
Q 4013 1447 4013 2328 
Q 4013 3213 3611 3725 
Q 3209 4238 2522 4238 
z
M 2522 4750 
Q 3503 4750 4090 4092 
Q 4678 3434 4678 2328 
Q 4678 1225 4090 567 
Q 3503 -91 2522 -91 
Q 1538 -91 948 565 
Q 359 1222 359 2328 
Q 359 3434 948 4092 
Q 1538 4750 2522 4750 
z
" transform="scale(0.015625)"/>
       <path id="DejaVuSans-68" d="M 3513 2113 
L 3513 0 
L 2938 0 
L 2938 2094 
Q 2938 2591 2744 2837 
Q 2550 3084 2163 3084 
Q 1697 3084 1428 2787 
Q 1159 2491 1159 1978 
L 1159 0 
L 581 0 
L 581 4863 
L 1159 4863 
L 1159 2956 
Q 1366 3272 1645 3428 
Q 1925 3584 2291 3584 
Q 2894 3584 3203 3211 
Q 3513 2838 3513 2113 
z
" transform="scale(0.015625)"/>
       <path id="DejaVuSans-2e" d="M 684 794 
L 1344 794 
L 1344 0 
L 684 0 
L 684 794 
z
" transform="scale(0.015625)"/>
      </defs>
      <use xlink:href="#DejaVuSans-b1"/>
      <use xlink:href="#DejaVuSans-31" transform="translate(83.789062 0)"/>
      <use xlink:href="#DejaVuSans-20" transform="translate(147.412109 0)"/>
      <use xlink:href="#DejaVuSans-4f" transform="translate(179.199219 0)"/>
      <use xlink:href="#DejaVuSans-64" transform="translate(257.910156 0)"/>
      <use xlink:href="#DejaVuSans-63" transform="translate(321.386719 0)"/>
      <use xlink:href="#DejaVuSans-68" transform="translate(376.367188 0)"/>
      <use xlink:href="#DejaVuSans-79" transform="translate(439.746094 0)"/>
      <use xlink:href="#DejaVuSans-6c" transform="translate(498.925781 0)"/>
      <use xlink:href="#DejaVuSans-65" transform="translate(526.708984 0)"/>
      <use xlink:href="#DejaVuSans-6e" transform="translate(588.232422 0)"/>
      <use xlink:href="#DejaVuSans-69" transform="translate(651.611328 0)"/>
      <use xlink:href="#DejaVuSans-65" transform="translate(679.394531 0)"/>
      <use xlink:href="#DejaVuSans-20" transform="translate(740.917969 0)"/>
      <use xlink:href="#DejaVuSans-73" transform="translate(772.705078 0)"/>
      <use xlink:href="#DejaVuSans-74" transform="translate(824.804688 0)"/>
      <use xlink:href="#DejaVuSans-64" transform="translate(864.013672 0)"/>
      <use xlink:href="#DejaVuSans-2e" transform="translate(927.490234 0)"/>
     </g>
    </g>
    <g id="line2d_26">
     <path d="M 281.790313 293.004312 
L 291.790313 293.004312 
L 301.790313 293.004312 
" style="fill: none; stroke: #ff0000; stroke-width: 1.5; stroke-linecap: square"/>
    </g>
    <g id="text_16">
     <!-- Najlepsze -->
     <g transform="translate(309.790313 296.504312) scale(0.1 -0.1)">
      <defs>
       <path id="DejaVuSans-4e" d="M 628 4666 
L 1478 4666 
L 3547 763 
L 3547 4666 
L 4159 4666 
L 4159 0 
L 3309 0 
L 1241 3903 
L 1241 0 
L 628 0 
L 628 4666 
z
" transform="scale(0.015625)"/>
      </defs>
      <use xlink:href="#DejaVuSans-4e"/>
      <use xlink:href="#DejaVuSans-61" transform="translate(74.804688 0)"/>
      <use xlink:href="#DejaVuSans-6a" transform="translate(136.083984 0)"/>
      <use xlink:href="#DejaVuSans-6c" transform="translate(163.867188 0)"/>
      <use xlink:href="#DejaVuSans-65" transform="translate(191.650391 0)"/>
      <use xlink:href="#DejaVuSans-70" transform="translate(253.173828 0)"/>
      <use xlink:href="#DejaVuSans-73" transform="translate(316.650391 0)"/>
      <use xlink:href="#DejaVuSans-7a" transform="translate(368.75 0)"/>
      <use xlink:href="#DejaVuSans-65" transform="translate(421.240234 0)"/>
     </g>
    </g>
   </g>
  </g>
 </g>
 <defs>
  <clipPath id="pe4307442f0">
   <rect x="57.6" y="41.472" width="357.12" height="266.112"/>
  </clipPath>
 </defs>
</svg>
