<?xml version="1.0" encoding="utf-8" standalone="no"?>
<!DOCTYPE svg PUBLIC "-//W3C//DTD SVG 1.1//EN"
  "http://www.w3.org/Graphics/SVG/1.1/DTD/svg11.dtd">
<svg xmlns:xlink="http://www.w3.org/1999/xlink" width="460.8pt" height="345.6pt" viewBox="0 0 460.8 345.6" xmlns="http://www.w3.org/2000/svg" version="1.1">
 <metadata>
  <rdf:RDF xmlns:dc="http://purl.org/dc/elements/1.1/" xmlns:cc="http://creativecommons.org/ns#" xmlns:rdf="http://www.w3.org/1999/02/22-rdf-syntax-ns#">
   <cc:Work>
    <dc:type rdf:resource="http://purl.org/dc/dcmitype/StillImage"/>
    <dc:date>2026-04-27T00:03:46.782251</dc:date>
    <dc:format>image/svg+xml</dc:format>
    <dc:creator>
     <cc:Agent>
      <dc:title>Matplotlib v3.10.8, https://matplotlib.org/</dc:title>
     </cc:Agent>
    </dc:creator>
   </cc:Work>
  </rdf:RDF>
 </metadata>
 <defs>
  <style type="text/css">*{stroke-linejoin: round; stroke-linecap: butt}</style>
 </defs>
 <g id="figure_1">
  <g id="patch_1">
   <path d="M 0 345.6 
L 460.8 345.6 
L 460.8 0 
L 0 0 
z
" style="fill: #ffffff"/>
  </g>
  <g id="axes_1">
   <g id="patch_2">
    <path d="M 57.6 307.584 
L 414.72 307.584 
L 414.72 41.472 
L 57.6 41.472 
z
" style="fill: #ffffff"/>
   </g>
   <g id="matplotlib.axis_1">
    <g id="xtick_1">
     <g id="line2d_1">
      <path d="M 72.201297 307.584 
L 72.201297 41.472 
" clip-path="url(#p0ab2a314e1)" style="fill: none; stroke: #b0b0b0; stroke-width: 0.8; stroke-linecap: square"/>
     </g>
     <g id="line2d_2">
      <defs>
       <path id="m47281e294b" d="M 0 0 
L 0 3.5 
" style="stroke: #000000; stroke-width: 0.8"/>
      </defs>
      <g>
       <use xlink:href="#m47281e294b" x="72.201297" y="307.584" style="stroke: #000000; stroke-width: 0.8"/>
      </g>
     </g>
     <g id="text_1">
      <!-- 0 -->
      <g transform="translate(69.020047 322.182437) scale(0.1 -0.1)">
       <defs>
        <path id="DejaVuSans-30" d="M 2034 4250 
Q 1547 4250 1301 3770 
Q 1056 3291 1056 2328 
Q 1056 1369 1301 889 
Q 1547 409 2034 409 
Q 2525 409 2770 889 
Q 3016 1369 3016 2328 
Q 3016 3291 2770 3770 
Q 2525 4250 2034 4250 
z
M 2034 4750 
Q 2819 4750 3233 4129 
Q 3647 3509 3647 2328 
Q 3647 1150 3233 529 
Q 2819 -91 2034 -91 
Q 1250 -91 836 529 
Q 422 1150 422 2328 
Q 422 3509 836 4129 
Q 1250 4750 2034 4750 
z
" transform="scale(0.015625)"/>
       </defs>
       <use xlink:href="#DejaVuSans-30"/>
      </g>
     </g>
    </g>
    <g id="xtick_2">
     <g id="line2d_3">
      <path d="M 112.987044 307.584 
L 112.987044 41.472 
" clip-path="url(#p0ab2a314e1)" style="fill: none; stroke: #b0b0b0; stroke-width: 0.8; stroke-linecap: square"/>
     </g>
     <g id="line2d_4">
      <g>
       <use xlink:href="#m47281e294b" x="112.987044" y="307.584" style="stroke: #000000; stroke-width: 0.8"/>
      </g>
     </g>
     <g id="text_2">
      <!-- 25 -->
      <g transform="translate(106.624544 322.182437) scale(0.1 -0.1)">
       <defs>
        <path id="DejaVuSans-32" d="M 1228 531 
L 3431 531 
L 3431 0 
L 469 0 
L 469 531 
Q 828 903 1448 1529 
Q 2069 2156 2228 2338 
Q 2531 2678 2651 2914 
Q 2772 3150 2772 3378 
Q 2772 3750 2511 3984 
Q 2250 4219 1831 4219 
Q 1534 4219 1204 4116 
Q 875 4013 500 3803 
L 500 4441 
Q 881 4594 1212 4672 
Q 1544 4750 1819 4750 
Q 2544 4750 2975 4387 
Q 3406 4025 3406 3419 
Q 3406 3131 3298 2873 
Q 3191 2616 2906 2266 
Q 2828 2175 2409 1742 
Q 1991 1309 1228 531 
z
" transform="scale(0.015625)"/>
        <path id="DejaVuSans-35" d="M 691 4666 
L 3169 4666 
L 3169 4134 
L 1269 4134 
L 1269 2991 
Q 1406 3038 1543 3061 
Q 1681 3084 1819 3084 
Q 2600 3084 3056 2656 
Q 3513 2228 3513 1497 
Q 3513 744 3044 326 
Q 2575 -91 1722 -91 
Q 1428 -91 1123 -41 
Q 819 9 494 109 
L 494 744 
Q 775 591 1075 516 
Q 1375 441 1709 441 
Q 2250 441 2565 725 
Q 2881 1009 2881 1497 
Q 2881 1984 2565 2268 
Q 2250 2553 1709 2553 
Q 1456 2553 1204 2497 
Q 953 2441 691 2322 
L 691 4666 
z
" transform="scale(0.015625)"/>
       </defs>
       <use xlink:href="#DejaVuSans-32"/>
       <use xlink:href="#DejaVuSans-35" transform="translate(63.623047 0)"/>
      </g>
     </g>
    </g>
    <g id="xtick_3">
     <g id="line2d_5">
      <path d="M 153.772791 307.584 
L 153.772791 41.472 
" clip-path="url(#p0ab2a314e1)" style="fill: none; stroke: #b0b0b0; stroke-width: 0.8; stroke-linecap: square"/>
     </g>
     <g id="line2d_6">
      <g>
       <use xlink:href="#m47281e294b" x="153.772791" y="307.584" style="stroke: #000000; stroke-width: 0.8"/>
      </g>
     </g>
     <g id="text_3">
      <!-- 50 -->
      <g transform="translate(147.410291 322.182437) scale(0.1 -0.1)">
       <use xlink:href="#DejaVuSans-35"/>
       <use xlink:href="#DejaVuSans-30" transform="translate(63.623047 0)"/>
      </g>
     </g>
    </g>
    <g id="xtick_4">
     <g id="line2d_7">
      <path d="M 194.558538 307.584 
L 194.558538 41.472 
" clip-path="url(#p0ab2a314e1)" style="fill: none; stroke: #b0b0b0; stroke-width: 0.8; stroke-linecap: square"/>
     </g>
     <g id="line2d_8">
      <g>
       <use xlink:href="#m47281e294b" x="194.558538" y="307.584" style="stroke: #000000; stroke-width: 0.8"/>
      </g>
     </g>
     <g id="text_4">
      <!-- 75 -->
      <g transform="translate(188.196038 322.182437) scale(0.1 -0.1)">
       <defs>
        <path id="DejaVuSans-37" d="M 525 4666 
L 3525 4666 
L 3525 4397 
L 1831 0 
L 1172 0 
L 2766 4134 
L 525 4134 
L 525 4666 
z
" transform="scale(0.015625)"/>
       </defs>
       <use xlink:href="#DejaVuSans-37"/>
       <use xlink:href="#DejaVuSans-35" transform="translate(63.623047 0)"/>
      </g>
     </g>
    </g>
    <g id="xtick_5">
     <g id="line2d_9">
      <path d="M 235.344285 307.584 
L 235.344285 41.472 
" clip-path="url(#p0ab2a314e1)" style="fill: none; stroke: #b0b0b0; stroke-width: 0.8; stroke-linecap: square"/>
     </g>
     <g id="line2d_10">
      <g>
       <use xlink:href="#m47281e294b" x="235.344285" y="307.584" style="stroke: #000000; stroke-width: 0.8"/>
      </g>
     </g>
     <g id="text_5">
      <!-- 100 -->
      <g transform="translate(225.800535 322.182437) scale(0.1 -0.1)">
       <defs>
        <path id="DejaVuSans-31" d="M 794 531 
L 1825 531 
L 1825 4091 
L 703 3866 
L 703 4441 
L 1819 4666 
L 2450 4666 
L 2450 531 
L 3481 531 
L 3481 0 
L 794 0 
L 794 531 
z
" transform="scale(0.015625)"/>
       </defs>
       <use xlink:href="#DejaVuSans-31"/>
       <use xlink:href="#DejaVuSans-30" transform="translate(63.623047 0)"/>
       <use xlink:href="#DejaVuSans-30" transform="translate(127.246094 0)"/>
      </g>
     </g>
    </g>
    <g id="xtick_6">
     <g id="line2d_11">
      <path d="M 276.130032 307.584 
L 276.130032 41.472 
" clip-path="url(#p0ab2a314e1)" style="fill: none; stroke: #b0b0b0; stroke-width: 0.8; stroke-linecap: square"/>
     </g>
     <g id="line2d_12">
      <g>
       <use xlink:href="#m47281e294b" x="276.130032" y="307.584" style="stroke: #000000; stroke-width: 0.8"/>
      </g>
     </g>
     <g id="text_6">
      <!-- 125 -->
      <g transform="translate(266.586282 322.182437) scale(0.1 -0.1)">
       <use xlink:href="#DejaVuSans-31"/>
       <use xlink:href="#DejaVuSans-32" transform="translate(63.623047 0)"/>
       <use xlink:href="#DejaVuSans-35" transform="translate(127.246094 0)"/>
      </g>
     </g>
    </g>
    <g id="xtick_7">
     <g id="line2d_13">
      <path d="M 316.915779 307.584 
L 316.915779 41.472 
" clip-path="url(#p0ab2a314e1)" style="fill: none; stroke: #b0b0b0; stroke-width: 0.8; stroke-linecap: square"/>
     </g>
     <g id="line2d_14">
      <g>
       <use xlink:href="#m47281e294b" x="316.915779" y="307.584" style="stroke: #000000; stroke-width: 0.8"/>
      </g>
     </g>
     <g id="text_7">
      <!-- 150 -->
      <g transform="translate(307.372029 322.182437) scale(0.1 -0.1)">
       <use xlink:href="#DejaVuSans-31"/>
       <use xlink:href="#DejaVuSans-35" transform="translate(63.623047 0)"/>
       <use xlink:href="#DejaVuSans-30" transform="translate(127.246094 0)"/>
      </g>
     </g>
    </g>
    <g id="xtick_8">
     <g id="line2d_15">
      <path d="M 357.701526 307.584 
L 357.701526 41.472 
" clip-path="url(#p0ab2a314e1)" style="fill: none; stroke: #b0b0b0; stroke-width: 0.8; stroke-linecap: square"/>
     </g>
     <g id="line2d_16">
      <g>
       <use xlink:href="#m47281e294b" x="357.701526" y="307.584" style="stroke: #000000; stroke-width: 0.8"/>
      </g>
     </g>
     <g id="text_8">
      <!-- 175 -->
      <g transform="translate(348.157776 322.182437) scale(0.1 -0.1)">
       <use xlink:href="#DejaVuSans-31"/>
       <use xlink:href="#DejaVuSans-37" transform="translate(63.623047 0)"/>
       <use xlink:href="#DejaVuSans-35" transform="translate(127.246094 0)"/>
      </g>
     </g>
    </g>
    <g id="xtick_9">
     <g id="line2d_17">
      <path d="M 398.487273 307.584 
L 398.487273 41.472 
" clip-path="url(#p0ab2a314e1)" style="fill: none; stroke: #b0b0b0; stroke-width: 0.8; stroke-linecap: square"/>
     </g>
     <g id="line2d_18">
      <g>
       <use xlink:href="#m47281e294b" x="398.487273" y="307.584" style="stroke: #000000; stroke-width: 0.8"/>
      </g>
     </g>
     <g id="text_9">
      <!-- 200 -->
      <g transform="translate(388.943523 322.182437) scale(0.1 -0.1)">
       <use xlink:href="#DejaVuSans-32"/>
       <use xlink:href="#DejaVuSans-30" transform="translate(63.623047 0)"/>
       <use xlink:href="#DejaVuSans-30" transform="translate(127.246094 0)"/>
      </g>
     </g>
    </g>
    <g id="text_10">
     <!-- Generacje -->
     <g transform="translate(210.629531 335.860562) scale(0.1 -0.1)">
      <defs>
       <path id="DejaVuSans-47" d="M 3809 666 
L 3809 1919 
L 2778 1919 
L 2778 2438 
L 4434 2438 
L 4434 434 
Q 4069 175 3628 42 
Q 3188 -91 2688 -91 
Q 1594 -91 976 548 
Q 359 1188 359 2328 
Q 359 3472 976 4111 
Q 1594 4750 2688 4750 
Q 3144 4750 3555 4637 
Q 3966 4525 4313 4306 
L 4313 3634 
Q 3963 3931 3569 4081 
Q 3175 4231 2741 4231 
Q 1884 4231 1454 3753 
Q 1025 3275 1025 2328 
Q 1025 1384 1454 906 
Q 1884 428 2741 428 
Q 3075 428 3337 486 
Q 3600 544 3809 666 
z
" transform="scale(0.015625)"/>
       <path id="DejaVuSans-65" d="M 3597 1894 
L 3597 1613 
L 953 1613 
Q 991 1019 1311 708 
Q 1631 397 2203 397 
Q 2534 397 2845 478 
Q 3156 559 3463 722 
L 3463 178 
Q 3153 47 2828 -22 
Q 2503 -91 2169 -91 
Q 1331 -91 842 396 
Q 353 884 353 1716 
Q 353 2575 817 3079 
Q 1281 3584 2069 3584 
Q 2775 3584 3186 3129 
Q 3597 2675 3597 1894 
z
M 3022 2063 
Q 3016 2534 2758 2815 
Q 2500 3097 2075 3097 
Q 1594 3097 1305 2825 
Q 1016 2553 972 2059 
L 3022 2063 
z
" transform="scale(0.015625)"/>
       <path id="DejaVuSans-6e" d="M 3513 2113 
L 3513 0 
L 2938 0 
L 2938 2094 
Q 2938 2591 2744 2837 
Q 2550 3084 2163 3084 
Q 1697 3084 1428 2787 
Q 1159 2491 1159 1978 
L 1159 0 
L 581 0 
L 581 3500 
L 1159 3500 
L 1159 2956 
Q 1366 3272 1645 3428 
Q 1925 3584 2291 3584 
Q 2894 3584 3203 3211 
Q 3513 2838 3513 2113 
z
" transform="scale(0.015625)"/>
       <path id="DejaVuSans-72" d="M 2631 2963 
Q 2534 3019 2420 3045 
Q 2306 3072 2169 3072 
Q 1681 3072 1420 2755 
Q 1159 2438 1159 1844 
L 1159 0 
L 581 0 
L 581 3500 
L 1159 3500 
L 1159 2956 
Q 1341 3275 1631 3429 
Q 1922 3584 2338 3584 
Q 2397 3584 2469 3576 
Q 2541 3569 2628 3553 
L 2631 2963 
z
" transform="scale(0.015625)"/>
       <path id="DejaVuSans-61" d="M 2194 1759 
Q 1497 1759 1228 1600 
Q 959 1441 959 1056 
Q 959 750 1161 570 
Q 1363 391 1709 391 
Q 2188 391 2477 730 
Q 2766 1069 2766 1631 
L 2766 1759 
L 2194 1759 
z
M 3341 1997 
L 3341 0 
L 2766 0 
L 2766 531 
Q 2569 213 2275 61 
Q 1981 -91 1556 -91 
Q 1019 -91 701 211 
Q 384 513 384 1019 
Q 384 1609 779 1909 
Q 1175 2209 1959 2209 
L 2766 2209 
L 2766 2266 
Q 2766 2663 2505 2880 
Q 2244 3097 1772 3097 
Q 1472 3097 1187 3025 
Q 903 2953 641 2809 
L 641 3341 
Q 956 3463 1253 3523 
Q 1550 3584 1831 3584 
Q 2591 3584 2966 3190 
Q 3341 2797 3341 1997 
z
" transform="scale(0.015625)"/>
       <path id="DejaVuSans-63" d="M 3122 3366 
L 3122 2828 
Q 2878 2963 2633 3030 
Q 2388 3097 2138 3097 
Q 1578 3097 1268 2742 
Q 959 2388 959 1747 
Q 959 1106 1268 751 
Q 1578 397 2138 397 
Q 2388 397 2633 464 
Q 2878 531 3122 666 
L 3122 134 
Q 2881 22 2623 -34 
Q 2366 -91 2075 -91 
Q 1284 -91 818 406 
Q 353 903 353 1747 
Q 353 2603 823 3093 
Q 1294 3584 2113 3584 
Q 2378 3584 2631 3529 
Q 2884 3475 3122 3366 
z
" transform="scale(0.015625)"/>
       <path id="DejaVuSans-6a" d="M 603 3500 
L 1178 3500 
L 1178 -63 
Q 1178 -731 923 -1031 
Q 669 -1331 103 -1331 
L -116 -1331 
L -116 -844 
L 38 -844 
Q 366 -844 484 -692 
Q 603 -541 603 -63 
L 603 3500 
z
M 603 4863 
L 1178 4863 
L 1178 4134 
L 603 4134 
L 603 4863 
z
" transform="scale(0.015625)"/>
      </defs>
      <use xlink:href="#DejaVuSans-47"/>
      <use xlink:href="#DejaVuSans-65" transform="translate(77.490234 0)"/>
      <use xlink:href="#DejaVuSans-6e" transform="translate(139.013672 0)"/>
      <use xlink:href="#DejaVuSans-65" transform="translate(202.392578 0)"/>
      <use xlink:href="#DejaVuSans-72" transform="translate(263.916016 0)"/>
      <use xlink:href="#DejaVuSans-61" transform="translate(305.029297 0)"/>
      <use xlink:href="#DejaVuSans-63" transform="translate(366.308594 0)"/>
      <use xlink:href="#DejaVuSans-6a" transform="translate(421.289062 0)"/>
      <use xlink:href="#DejaVuSans-65" transform="translate(449.072266 0)"/>
     </g>
    </g>
   </g>
   <g id="matplotlib.axis_2">
    <g id="ytick_1">
     <g id="line2d_19">
      <path d="M 57.6 140.17315 
L 414.72 140.17315 
" clip-path="url(#p0ab2a314e1)" style="fill: none; stroke: #b0b0b0; stroke-width: 0.8; stroke-linecap: square"/>
     </g>
     <g id="line2d_20">
      <defs>
       <path id="me4b55039ce" d="M 0 0 
L -3.5 0 
" style="stroke: #000000; stroke-width: 0.8"/>
      </defs>
      <g>
       <use xlink:href="#me4b55039ce" x="57.6" y="140.17315" style="stroke: #000000; stroke-width: 0.8"/>
      </g>
     </g>
     <g id="text_11">
      <!-- $\mathdefault{10^{2}}$ -->
      <g transform="translate(33 143.972369) scale(0.1 -0.1)">
       <use xlink:href="#DejaVuSans-31" transform="translate(0 0.765625)"/>
       <use xlink:href="#DejaVuSans-30" transform="translate(63.623047 0.765625)"/>
       <use xlink:href="#DejaVuSans-32" transform="translate(128.203125 39.046875) scale(0.7)"/>
      </g>
     </g>
    </g>
    <g id="text_12">
     <!-- Przystosowanie -->
     <g transform="translate(26.920312 213.170187) rotate(-90) scale(0.1 -0.1)">
      <defs>
       <path id="DejaVuSans-50" d="M 1259 4147 
L 1259 2394 
L 2053 2394 
Q 2494 2394 2734 2622 
Q 2975 2850 2975 3272 
Q 2975 3691 2734 3919 
Q 2494 4147 2053 4147 
L 1259 4147 
z
M 628 4666 
L 2053 4666 
Q 2838 4666 3239 4311 
Q 3641 3956 3641 3272 
Q 3641 2581 3239 2228 
Q 2838 1875 2053 1875 
L 1259 1875 
L 1259 0 
L 628 0 
L 628 4666 
z
" transform="scale(0.015625)"/>
       <path id="DejaVuSans-7a" d="M 353 3500 
L 3084 3500 
L 3084 2975 
L 922 459 
L 3084 459 
L 3084 0 
L 275 0 
L 275 525 
L 2438 3041 
L 353 3041 
L 353 3500 
z
" transform="scale(0.015625)"/>
       <path id="DejaVuSans-79" d="M 2059 -325 
Q 1816 -950 1584 -1140 
Q 1353 -1331 966 -1331 
L 506 -1331 
L 506 -850 
L 844 -850 
Q 1081 -850 1212 -737 
Q 1344 -625 1503 -206 
L 1606 56 
L 191 3500 
L 800 3500 
L 1894 763 
L 2988 3500 
L 3597 3500 
L 2059 -325 
z
" transform="scale(0.015625)"/>
       <path id="DejaVuSans-73" d="M 2834 3397 
L 2834 2853 
Q 2591 2978 2328 3040 
Q 2066 3103 1784 3103 
Q 1356 3103 1142 2972 
Q 928 2841 928 2578 
Q 928 2378 1081 2264 
Q 1234 2150 1697 2047 
L 1894 2003 
Q 2506 1872 2764 1633 
Q 3022 1394 3022 966 
Q 3022 478 2636 193 
Q 2250 -91 1575 -91 
Q 1294 -91 989 -36 
Q 684 19 347 128 
L 347 722 
Q 666 556 975 473 
Q 1284 391 1588 391 
Q 1994 391 2212 530 
Q 2431 669 2431 922 
Q 2431 1156 2273 1281 
Q 2116 1406 1581 1522 
L 1381 1569 
Q 847 1681 609 1914 
Q 372 2147 372 2553 
Q 372 3047 722 3315 
Q 1072 3584 1716 3584 
Q 2034 3584 2315 3537 
Q 2597 3491 2834 3397 
z
" transform="scale(0.015625)"/>
       <path id="DejaVuSans-74" d="M 1172 4494 
L 1172 3500 
L 2356 3500 
L 2356 3053 
L 1172 3053 
L 1172 1153 
Q 1172 725 1289 603 
Q 1406 481 1766 481 
L 2356 481 
L 2356 0 
L 1766 0 
Q 1100 0 847 248 
Q 594 497 594 1153 
L 594 3053 
L 172 3053 
L 172 3500 
L 594 3500 
L 594 4494 
L 1172 4494 
z
" transform="scale(0.015625)"/>
       <path id="DejaVuSans-6f" d="M 1959 3097 
Q 1497 3097 1228 2736 
Q 959 2375 959 1747 
Q 959 1119 1226 758 
Q 1494 397 1959 397 
Q 2419 397 2687 759 
Q 2956 1122 2956 1747 
Q 2956 2369 2687 2733 
Q 2419 3097 1959 3097 
z
M 1959 3584 
Q 2709 3584 3137 3096 
Q 3566 2609 3566 1747 
Q 3566 888 3137 398 
Q 2709 -91 1959 -91 
Q 1206 -91 779 398 
Q 353 888 353 1747 
Q 353 2609 779 3096 
Q 1206 3584 1959 3584 
z
" transform="scale(0.015625)"/>
       <path id="DejaVuSans-77" d="M 269 3500 
L 844 3500 
L 1563 769 
L 2278 3500 
L 2956 3500 
L 3675 769 
L 4391 3500 
L 4966 3500 
L 4050 0 
L 3372 0 
L 2619 2869 
L 1863 0 
L 1184 0 
L 269 3500 
z
" transform="scale(0.015625)"/>
       <path id="DejaVuSans-69" d="M 603 3500 
L 1178 3500 
L 1178 0 
L 603 0 
L 603 3500 
z
M 603 4863 
L 1178 4863 
L 1178 4134 
L 603 4134 
L 603 4863 
z
" transform="scale(0.015625)"/>
      </defs>
      <use xlink:href="#DejaVuSans-50"/>
      <use xlink:href="#DejaVuSans-72" transform="translate(58.552734 0)"/>
      <use xlink:href="#DejaVuSans-7a" transform="translate(99.666016 0)"/>
      <use xlink:href="#DejaVuSans-79" transform="translate(152.15625 0)"/>
      <use xlink:href="#DejaVuSans-73" transform="translate(211.335938 0)"/>
      <use xlink:href="#DejaVuSans-74" transform="translate(263.435547 0)"/>
      <use xlink:href="#DejaVuSans-6f" transform="translate(302.644531 0)"/>
      <use xlink:href="#DejaVuSans-73" transform="translate(363.826172 0)"/>
      <use xlink:href="#DejaVuSans-6f" transform="translate(415.925781 0)"/>
      <use xlink:href="#DejaVuSans-77" transform="translate(477.107422 0)"/>
      <use xlink:href="#DejaVuSans-61" transform="translate(558.894531 0)"/>
      <use xlink:href="#DejaVuSans-6e" transform="translate(620.173828 0)"/>
      <use xlink:href="#DejaVuSans-69" transform="translate(683.552734 0)"/>
      <use xlink:href="#DejaVuSans-65" transform="translate(711.335938 0)"/>
     </g>
    </g>
   </g>
   <g id="line2d_21">
    <path d="M 73.832727 295.488 
L 75.464157 224.210892 
L 77.095587 208.714915 
L 78.727017 203.199477 
L 80.358447 196.685774 
L 81.989877 176.767942 
L 83.621307 181.332555 
L 85.252736 180.275978 
L 86.884166 172.192835 
L 88.515596 176.488765 
L 90.147026 169.808483 
L 91.778456 172.407433 
L 93.409886 166.942055 
L 95.041316 167.861894 
L 96.672746 166.378854 
L 98.304175 169.813092 
L 99.935605 169.570645 
L 101.567035 167.28566 
L 103.198465 166.787168 
L 104.829895 168.591594 
L 106.461325 165.152542 
L 108.092755 166.155136 
L 109.724185 166.88803 
L 111.355614 164.432775 
L 114.618474 165.855103 
L 116.249904 164.490348 
L 117.881334 165.971047 
L 119.512764 166.618983 
L 121.144194 165.950251 
L 122.775624 168.314868 
L 124.407053 168.187303 
L 126.038483 166.126984 
L 127.669913 165.106567 
L 129.301343 165.51911 
L 130.932773 165.334754 
L 132.564203 165.287899 
L 134.195633 167.249595 
L 135.827063 166.05397 
L 137.458492 165.129805 
L 139.089922 166.620533 
L 140.721352 164.014937 
L 142.352782 164.344739 
L 143.984212 166.253146 
L 145.615642 165.325661 
L 147.247072 164.806437 
L 148.878502 162.71936 
L 150.509931 165.696209 
L 152.141361 165.111103 
L 153.772791 166.018571 
L 155.404221 163.848327 
L 157.035651 163.901237 
L 158.667081 163.573232 
L 160.298511 164.069822 
L 161.929941 166.87422 
L 163.56137 164.849894 
L 165.1928 164.39264 
L 166.82423 165.392475 
L 168.45566 163.56784 
L 170.08709 163.211308 
L 171.71852 166.122529 
L 173.34995 166.174934 
L 174.98138 165.158885 
L 176.61281 163.778445 
L 178.244239 163.940825 
L 179.875669 165.646211 
L 181.507099 165.921377 
L 183.138529 165.090898 
L 184.769959 165.795429 
L 186.401389 163.349383 
L 188.032819 161.57339 
L 189.664249 164.044206 
L 191.295678 163.130132 
L 192.927108 162.905972 
L 194.558538 166.194555 
L 196.189968 163.841251 
L 197.821398 164.172481 
L 199.452828 164.319498 
L 201.084258 164.887348 
L 202.715688 165.01821 
L 204.347117 161.642765 
L 205.978547 163.169573 
L 207.609977 166.742152 
L 209.241407 163.741504 
L 210.872837 166.211279 
L 212.504267 162.286129 
L 214.135697 164.975435 
L 215.767127 166.73144 
L 217.398556 162.653111 
L 219.029986 165.047803 
L 220.661416 164.054625 
L 222.292846 164.488035 
L 223.924276 164.128832 
L 225.555706 165.224483 
L 227.187136 163.637804 
L 228.818566 165.678989 
L 230.449995 163.915113 
L 232.081425 163.064742 
L 233.712855 166.339948 
L 235.344285 166.468715 
L 236.975715 162.36042 
L 238.607145 166.18534 
L 240.238575 165.77815 
L 241.870005 163.360455 
L 243.501434 165.858668 
L 245.132864 163.991355 
L 246.764294 165.008652 
L 248.395724 166.63764 
L 250.027154 165.204843 
L 251.658584 165.459472 
L 253.290014 164.130499 
L 254.921444 164.444031 
L 256.552873 167.957762 
L 258.184303 166.555241 
L 259.815733 164.430925 
L 261.447163 165.800679 
L 263.078593 166.248609 
L 264.710023 164.801976 
L 266.341453 166.579264 
L 267.972883 164.452047 
L 269.604312 166.695981 
L 271.235742 164.987955 
L 272.867172 163.085297 
L 274.498602 166.89479 
L 276.130032 166.453873 
L 277.761462 164.039282 
L 279.392892 165.740987 
L 281.024322 165.720751 
L 282.655751 161.78893 
L 284.287181 164.612146 
L 285.918611 163.944952 
L 287.550041 162.841625 
L 289.181471 165.2976 
L 290.812901 162.188188 
L 292.444331 164.373477 
L 294.075761 166.328987 
L 295.70719 163.1358 
L 297.33862 163.819852 
L 298.97005 163.704149 
L 300.60148 164.847224 
L 302.23291 162.039416 
L 303.86434 164.161711 
L 305.49577 163.719945 
L 307.1272 161.74666 
L 308.75863 164.288951 
L 310.390059 166.167317 
L 312.021489 163.97272 
L 313.652919 165.571189 
L 315.284349 164.672067 
L 316.915779 165.024316 
L 318.547209 166.293485 
L 320.178639 163.992559 
L 321.810069 164.552576 
L 323.441498 162.558453 
L 325.072928 166.269996 
L 326.704358 164.31726 
L 328.335788 166.189315 
L 329.967218 165.659787 
L 331.598648 164.160616 
L 333.230078 165.217413 
L 334.861508 162.561511 
L 336.492937 162.864297 
L 338.124367 165.051671 
L 339.755797 163.404817 
L 341.387227 166.20762 
L 344.650087 165.566395 
L 346.281517 163.883492 
L 347.912947 161.922532 
L 349.544376 166.153861 
L 351.175806 167.360861 
L 352.807236 165.618661 
L 354.438666 163.442812 
L 356.070096 163.37333 
L 357.701526 167.731654 
L 359.332956 164.5433 
L 360.964386 163.834688 
L 362.595815 161.771929 
L 364.227245 163.473977 
L 365.858675 165.667178 
L 367.490105 164.603087 
L 369.121535 165.11639 
L 370.752965 164.41697 
L 372.384395 163.535454 
L 374.015825 164.497166 
L 375.647254 163.478313 
L 377.278684 162.852495 
L 378.910114 165.751437 
L 380.541544 166.142888 
L 382.172974 163.494613 
L 383.804404 165.136762 
L 385.435834 165.728412 
L 387.067264 165.071791 
L 388.698693 164.291755 
L 390.330123 166.025287 
L 391.961553 165.059311 
L 393.592983 164.767505 
L 395.224413 165.920559 
L 396.855843 166.510538 
L 398.487273 163.710953 
L 398.487273 163.710953 
" clip-path="url(#p0ab2a314e1)" style="fill: none; stroke: #0000ff; stroke-width: 1.5; stroke-linecap: square"/>
   </g>
   <g id="line2d_22">
    <path d="M 73.832727 246.257338 
L 75.464157 177.902733 
L 77.095587 167.200086 
L 78.727017 163.601546 
L 80.358447 156.893478 
L 81.989877 149.504866 
L 83.621307 150.065721 
L 85.252736 149.89679 
L 86.884166 144.505681 
L 88.515596 150.425885 
L 90.147026 144.434258 
L 91.778456 149.76355 
L 93.409886 145.294818 
L 95.041316 145.732647 
L 96.672746 144.225169 
L 98.304175 147.248318 
L 99.935605 145.809871 
L 101.567035 145.721104 
L 103.198465 144.384898 
L 104.829895 145.97724 
L 106.461325 144.698893 
L 108.092755 146.621409 
L 109.724185 145.37367 
L 111.355614 143.578245 
L 112.987044 141.278521 
L 114.618474 145.063605 
L 116.249904 141.860523 
L 117.881334 143.118127 
L 119.512764 147.424255 
L 121.144194 145.230745 
L 122.775624 147.217465 
L 124.407053 145.054217 
L 126.038483 147.874657 
L 127.669913 143.75401 
L 129.301343 144.40874 
L 130.932773 144.598347 
L 132.564203 141.663133 
L 134.195633 146.812506 
L 137.458492 143.804814 
L 139.089922 145.862595 
L 140.721352 145.704058 
L 142.352782 143.929806 
L 143.984212 146.564248 
L 145.615642 145.781745 
L 147.247072 146.403135 
L 148.878502 142.53018 
L 150.509931 146.665156 
L 152.141361 146.1458 
L 153.772791 144.87728 
L 157.035651 143.337685 
L 158.667081 141.699486 
L 160.298511 143.097656 
L 161.929941 146.522933 
L 163.56137 146.047617 
L 165.1928 144.662289 
L 166.82423 146.21766 
L 168.45566 145.031072 
L 170.08709 143.306209 
L 171.71852 147.847107 
L 173.34995 147.52961 
L 174.98138 147.564403 
L 176.61281 145.589204 
L 178.244239 143.94571 
L 179.875669 148.302472 
L 181.507099 147.408544 
L 183.138529 146.238953 
L 184.769959 147.324517 
L 186.401389 146.176886 
L 188.032819 141.799144 
L 189.664249 144.935926 
L 191.295678 143.913882 
L 192.927108 143.795276 
L 194.558538 146.272077 
L 196.189968 143.928675 
L 197.821398 144.104812 
L 199.452828 144.551657 
L 201.084258 143.707935 
L 202.715688 144.693595 
L 204.347117 139.237222 
L 205.978547 144.636053 
L 207.609977 148.70999 
L 209.241407 145.140415 
L 210.872837 148.303536 
L 212.504267 143.28653 
L 214.135697 145.213952 
L 215.767127 147.718852 
L 217.398556 142.198407 
L 219.029986 146.086881 
L 220.661416 145.907854 
L 222.292846 146.412229 
L 223.924276 144.080958 
L 225.555706 147.063121 
L 227.187136 145.984358 
L 228.818566 146.851511 
L 230.449995 146.356368 
L 232.081425 144.383475 
L 233.712855 145.689113 
L 235.344285 148.401703 
L 236.975715 142.5221 
L 238.607145 148.775737 
L 240.238575 144.416142 
L 241.870005 144.081283 
L 243.501434 147.061315 
L 245.132864 144.837598 
L 246.764294 145.093241 
L 248.395724 147.567725 
L 250.027154 146.547243 
L 251.658584 146.009967 
L 253.290014 145.206944 
L 254.921444 144.216343 
L 256.552873 147.610007 
L 258.184303 147.793225 
L 259.815733 143.949913 
L 263.078593 147.879861 
L 264.710023 145.922311 
L 266.341453 147.305212 
L 267.972883 144.936072 
L 269.604312 145.071385 
L 271.235742 143.637219 
L 272.867172 142.569586 
L 274.498602 148.28258 
L 276.130032 147.797047 
L 277.761462 144.382278 
L 279.392892 147.284597 
L 281.024322 148.551338 
L 282.655751 142.590947 
L 284.287181 144.028059 
L 285.918611 142.820502 
L 287.550041 143.222894 
L 289.181471 146.119606 
L 290.812901 143.632312 
L 292.444331 144.666293 
L 294.075761 148.534271 
L 295.70719 142.924087 
L 297.33862 144.727081 
L 298.97005 143.681045 
L 300.60148 144.720274 
L 302.23291 141.937899 
L 303.86434 145.241178 
L 305.49577 145.137141 
L 307.1272 144.072139 
L 308.75863 146.432713 
L 310.390059 147.651694 
L 312.021489 144.630664 
L 313.652919 146.290706 
L 316.915779 146.998523 
L 318.547209 148.813179 
L 320.178639 144.948977 
L 321.810069 145.756187 
L 323.441498 142.707928 
L 325.072928 147.71143 
L 326.704358 143.85319 
L 328.335788 148.373362 
L 329.967218 147.984807 
L 331.598648 145.097081 
L 333.230078 146.342544 
L 334.861508 141.891294 
L 336.492937 143.667523 
L 338.124367 146.846781 
L 339.755797 145.302624 
L 341.387227 147.029712 
L 343.018657 146.723368 
L 344.650087 147.776928 
L 346.281517 144.984681 
L 347.912947 141.938768 
L 349.544376 148.569433 
L 351.175806 149.074829 
L 354.438666 143.739185 
L 356.070096 145.830596 
L 357.701526 149.038 
L 359.332956 145.060165 
L 360.964386 144.202445 
L 362.595815 141.979921 
L 364.227245 143.688481 
L 365.858675 146.102662 
L 367.490105 144.794188 
L 369.121535 147.409996 
L 370.752965 145.016763 
L 372.384395 143.589323 
L 374.015825 145.493084 
L 375.647254 144.955888 
L 377.278684 145.01043 
L 378.910114 147.799862 
L 380.541544 149.045464 
L 382.172974 144.962948 
L 383.804404 146.993989 
L 385.435834 146.651956 
L 387.067264 146.786173 
L 388.698693 145.604678 
L 390.330123 147.309465 
L 391.961553 145.719321 
L 393.592983 145.483087 
L 395.224413 144.995101 
L 396.855843 147.997297 
L 398.487273 145.347439 
L 398.487273 145.347439 
" clip-path="url(#p0ab2a314e1)" style="fill: none; stroke-dasharray: 9.6,2.4,1.5,2.4; stroke-dashoffset: 0; stroke: #008000; stroke-width: 1.5"/>
   </g>
   <g id="line2d_23">
    <path d="M 73.832727 154.36799 
L 75.464157 112.996616 
L 77.095587 108.774956 
L 78.727017 100.863702 
L 80.358447 97.233301 
L 81.989877 112.426832 
L 83.621307 116.759698 
L 85.252736 108.645954 
L 86.884166 101.271495 
L 88.515596 112.618288 
L 90.147026 109.004894 
L 91.778456 108.416751 
L 93.409886 97.350708 
L 95.041316 94.639027 
L 96.672746 108.755098 
L 99.935605 116.652876 
L 101.567035 86.425728 
L 103.198465 86.19277 
L 104.829895 89.742853 
L 106.461325 90.156241 
L 108.092755 104.846779 
L 111.355614 90.264601 
L 112.987044 100.843735 
L 114.618474 96.993304 
L 116.249904 90.083753 
L 117.881334 97.473135 
L 119.512764 100.682614 
L 121.144194 90.212562 
L 122.775624 97.244867 
L 124.407053 97.769436 
L 126.038483 121.085763 
L 127.669913 101.290286 
L 129.301343 97.060581 
L 130.932773 94.125962 
L 132.564203 86.523059 
L 134.195633 86.601319 
L 135.827063 93.478702 
L 137.458492 90.478141 
L 139.089922 116.754465 
L 140.721352 104.500306 
L 142.352782 116.678902 
L 143.984212 104.299272 
L 145.615642 100.531794 
L 147.247072 108.858634 
L 148.878502 97.048024 
L 150.509931 104.697547 
L 152.141361 97.349116 
L 153.772791 104.960529 
L 155.404221 100.864276 
L 157.035651 109.15603 
L 158.667081 96.992618 
L 161.929941 112.390655 
L 163.56137 108.668527 
L 165.1928 93.353836 
L 166.82423 116.398792 
L 168.45566 83.14711 
L 170.08709 100.922501 
L 171.71852 108.735482 
L 173.34995 112.405676 
L 174.98138 120.793609 
L 176.61281 108.4259 
L 178.244239 100.552394 
L 179.875669 120.720562 
L 181.507099 104.862553 
L 183.138529 108.491916 
L 184.769959 100.866933 
L 186.401389 112.637411 
L 188.032819 93.49724 
L 189.664249 108.59946 
L 191.295678 108.713657 
L 192.927108 108.48371 
L 194.558538 105.23345 
L 196.189968 97.259796 
L 197.821398 83.492423 
L 199.452828 93.393592 
L 201.084258 83.305316 
L 202.715688 104.669865 
L 204.347117 53.568 
L 205.978547 101.415819 
L 207.609977 109.121925 
L 209.241407 112.655333 
L 210.872837 116.778265 
L 212.504267 112.669303 
L 214.135697 89.941809 
L 215.767127 94.021226 
L 217.398556 105.154127 
L 219.029986 100.364324 
L 220.661416 109.14747 
L 222.292846 108.319512 
L 223.924276 93.291851 
L 225.555706 108.40773 
L 227.187136 83.381463 
L 228.818566 83.23643 
L 230.449995 97.096394 
L 232.081425 116.671721 
L 233.712855 104.341378 
L 235.344285 104.483336 
L 236.975715 97.21796 
L 238.607145 108.552598 
L 240.238575 90.210776 
L 243.501434 104.595692 
L 245.132864 101.059496 
L 246.764294 93.581806 
L 250.027154 108.650116 
L 251.658584 112.662625 
L 253.290014 113.030111 
L 254.921444 100.753594 
L 256.552873 90.236805 
L 258.184303 104.844602 
L 259.815733 93.41838 
L 261.447163 97.310793 
L 263.078593 116.602711 
L 264.710023 108.715006 
L 266.341453 108.405007 
L 267.972883 116.682996 
L 269.604312 108.60124 
L 271.235742 86.182767 
L 272.867172 93.738582 
L 274.498602 108.370146 
L 276.130032 104.857144 
L 277.761462 89.96047 
L 279.392892 73.692015 
L 281.024322 120.739386 
L 282.655751 86.503055 
L 285.918611 100.647736 
L 287.550041 112.372598 
L 289.181471 89.984305 
L 290.812901 104.569727 
L 292.444331 104.995228 
L 294.075761 97.162985 
L 295.70719 86.641797 
L 297.33862 101.099724 
L 298.97005 67.681194 
L 300.60148 86.549333 
L 302.23291 108.3523 
L 303.86434 116.708944 
L 305.49577 93.793399 
L 307.1272 104.809082 
L 308.75863 93.611048 
L 310.390059 108.877242 
L 312.021489 89.975651 
L 313.652919 100.935575 
L 315.284349 116.651851 
L 316.915779 108.946876 
L 318.547209 104.784781 
L 321.810069 97.392099 
L 323.441498 97.129277 
L 325.072928 108.863113 
L 326.704358 66.987145 
L 328.335788 83.123307 
L 329.967218 104.678479 
L 331.598648 93.715959 
L 333.230078 113.098599 
L 334.861508 93.833113 
L 336.492937 112.610544 
L 338.124367 112.771209 
L 339.755797 113.197433 
L 341.387227 104.697118 
L 343.018657 104.81247 
L 344.650087 104.469312 
L 346.281517 86.753355 
L 347.912947 83.350642 
L 349.544376 112.890607 
L 351.175806 104.622569 
L 352.807236 108.518725 
L 354.438666 97.447241 
L 356.070096 97.366436 
L 357.701526 104.761749 
L 359.332956 90.046898 
L 360.964386 93.468505 
L 362.595815 93.95117 
L 364.227245 100.688839 
L 365.858675 97.349614 
L 367.490105 83.307743 
L 369.121535 108.34859 
L 370.752965 108.322279 
L 372.384395 112.584113 
L 374.015825 90.388555 
L 375.647254 112.425903 
L 377.278684 112.539733 
L 378.910114 101.050485 
L 380.541544 109.221373 
L 382.172974 108.437667 
L 383.804404 100.961237 
L 385.435834 108.754971 
L 387.067264 108.47427 
L 388.698693 100.843641 
L 390.330123 100.854724 
L 391.961553 112.429515 
L 393.592983 94.073398 
L 395.224413 86.266685 
L 396.855843 113.053761 
L 398.487273 89.854972 
L 398.487273 89.854972 
" clip-path="url(#p0ab2a314e1)" style="fill: none; stroke: #ff0000; stroke-width: 1.5; stroke-linecap: square"/>
   </g>
   <g id="patch_3">
    <path d="M 57.6 307.584 
L 57.6 41.472 
" style="fill: none; stroke: #000000; stroke-width: 0.8; stroke-linejoin: miter; stroke-linecap: square"/>
   </g>
   <g id="patch_4">
    <path d="M 414.72 307.584 
L 414.72 41.472 
" style="fill: none; stroke: #000000; stroke-width: 0.8; stroke-linejoin: miter; stroke-linecap: square"/>
   </g>
   <g id="patch_5">
    <path d="M 57.6 307.584 
L 414.72 307.584 
" style="fill: none; stroke: #000000; stroke-width: 0.8; stroke-linejoin: miter; stroke-linecap: square"/>
   </g>
   <g id="patch_6">
    <path d="M 57.6 41.472 
L 414.72 41.472 
" style="fill: none; stroke: #000000; stroke-width: 0.8; stroke-linejoin: miter; stroke-linecap: square"/>
   </g>
   <g id="text_13">
    <!-- Średnie i najlepsze przystosowanie w każdej generacji -->
    <g transform="translate(73.26 35.472) scale(0.12 -0.12)">
     <defs>
      <path id="DejaVuSans-15a" d="M 2236 5921 
L 2814 5921 
L 2102 5096 
L 1623 5096 
L 2236 5921 
z
M 3425 4513 
L 3425 3897 
Q 3066 4069 2747 4153 
Q 2428 4238 2131 4238 
Q 1616 4238 1336 4038 
Q 1056 3838 1056 3469 
Q 1056 3159 1242 3001 
Q 1428 2844 1947 2747 
L 2328 2669 
Q 3034 2534 3370 2195 
Q 3706 1856 3706 1288 
Q 3706 609 3251 259 
Q 2797 -91 1919 -91 
Q 1588 -91 1214 -16 
Q 841 59 441 206 
L 441 856 
Q 825 641 1194 531 
Q 1563 422 1919 422 
Q 2459 422 2753 634 
Q 3047 847 3047 1241 
Q 3047 1584 2836 1778 
Q 2625 1972 2144 2069 
L 1759 2144 
Q 1053 2284 737 2584 
Q 422 2884 422 3419 
Q 422 4038 858 4394 
Q 1294 4750 2059 4750 
Q 2388 4750 2728 4690 
Q 3069 4631 3425 4513 
z
" transform="scale(0.015625)"/>
      <path id="DejaVuSans-64" d="M 2906 2969 
L 2906 4863 
L 3481 4863 
L 3481 0 
L 2906 0 
L 2906 525 
Q 2725 213 2448 61 
Q 2172 -91 1784 -91 
Q 1150 -91 751 415 
Q 353 922 353 1747 
Q 353 2572 751 3078 
Q 1150 3584 1784 3584 
Q 2172 3584 2448 3432 
Q 2725 3281 2906 2969 
z
M 947 1747 
Q 947 1113 1208 752 
Q 1469 391 1925 391 
Q 2381 391 2643 752 
Q 2906 1113 2906 1747 
Q 2906 2381 2643 2742 
Q 2381 3103 1925 3103 
Q 1469 3103 1208 2742 
Q 947 2381 947 1747 
z
" transform="scale(0.015625)"/>
      <path id="DejaVuSans-20" transform="scale(0.015625)"/>
      <path id="DejaVuSans-6c" d="M 603 4863 
L 1178 4863 
L 1178 0 
L 603 0 
L 603 4863 
z
" transform="scale(0.015625)"/>
      <path id="DejaVuSans-70" d="M 1159 525 
L 1159 -1331 
L 581 -1331 
L 581 3500 
L 1159 3500 
L 1159 2969 
Q 1341 3281 1617 3432 
Q 1894 3584 2278 3584 
Q 2916 3584 3314 3078 
Q 3713 2572 3713 1747 
Q 3713 922 3314 415 
Q 2916 -91 2278 -91 
Q 1894 -91 1617 61 
Q 1341 213 1159 525 
z
M 3116 1747 
Q 3116 2381 2855 2742 
Q 2594 3103 2138 3103 
Q 1681 3103 1420 2742 
Q 1159 2381 1159 1747 
Q 1159 1113 1420 752 
Q 1681 391 2138 391 
Q 2594 391 2855 752 
Q 3116 1113 3116 1747 
z
" transform="scale(0.015625)"/>
      <path id="DejaVuSans-6b" d="M 581 4863 
L 1159 4863 
L 1159 1991 
L 2875 3500 
L 3609 3500 
L 1753 1863 
L 3688 0 
L 2938 0 
L 1159 1709 
L 1159 0 
L 581 0 
L 581 4863 
z
" transform="scale(0.015625)"/>
      <path id="DejaVuSans-17c" d="M 1378 4863 
L 1953 4863 
L 1953 4134 
L 1378 4134 
L 1378 4863 
z
M 1672 3584 
L 1672 3584 
z
M 353 3500 
L 3084 3500 
L 3084 2975 
L 922 459 
L 3084 459 
L 3084 0 
L 275 0 
L 275 525 
L 2438 3041 
L 353 3041 
L 353 3500 
z
" transform="scale(0.015625)"/>
      <path id="DejaVuSans-67" d="M 2906 1791 
Q 2906 2416 2648 2759 
Q 2391 3103 1925 3103 
Q 1463 3103 1205 2759 
Q 947 2416 947 1791 
Q 947 1169 1205 825 
Q 1463 481 1925 481 
Q 2391 481 2648 825 
Q 2906 1169 2906 1791 
z
M 3481 434 
Q 3481 -459 3084 -895 
Q 2688 -1331 1869 -1331 
Q 1566 -1331 1297 -1286 
Q 1028 -1241 775 -1147 
L 775 -588 
Q 1028 -725 1275 -790 
Q 1522 -856 1778 -856 
Q 2344 -856 2625 -561 
Q 2906 -266 2906 331 
L 2906 616 
Q 2728 306 2450 153 
Q 2172 0 1784 0 
Q 1141 0 747 490 
Q 353 981 353 1791 
Q 353 2603 747 3093 
Q 1141 3584 1784 3584 
Q 2172 3584 2450 3431 
Q 2728 3278 2906 2969 
L 2906 3500 
L 3481 3500 
L 3481 434 
z
" transform="scale(0.015625)"/>
     </defs>
     <use xlink:href="#DejaVuSans-15a"/>
     <use xlink:href="#DejaVuSans-72" transform="translate(63.476562 0)"/>
     <use xlink:href="#DejaVuSans-65" transform="translate(102.339844 0)"/>
     <use xlink:href="#DejaVuSans-64" transform="translate(163.863281 0)"/>
     <use xlink:href="#DejaVuSans-6e" transform="translate(227.339844 0)"/>
     <use xlink:href="#DejaVuSans-69" transform="translate(290.71875 0)"/>
     <use xlink:href="#DejaVuSans-65" transform="translate(318.501953 0)"/>
     <use xlink:href="#DejaVuSans-20" transform="translate(380.025391 0)"/>
     <use xlink:href="#DejaVuSans-69" transform="translate(411.8125 0)"/>
     <use xlink:href="#DejaVuSans-20" transform="translate(439.595703 0)"/>
     <use xlink:href="#DejaVuSans-6e" transform="translate(471.382812 0)"/>
     <use xlink:href="#DejaVuSans-61" transform="translate(534.761719 0)"/>
     <use xlink:href="#DejaVuSans-6a" transform="translate(596.041016 0)"/>
     <use xlink:href="#DejaVuSans-6c" transform="translate(623.824219 0)"/>
     <use xlink:href="#DejaVuSans-65" transform="translate(651.607422 0)"/>
     <use xlink:href="#DejaVuSans-70" transform="translate(713.130859 0)"/>
     <use xlink:href="#DejaVuSans-73" transform="translate(776.607422 0)"/>
     <use xlink:href="#DejaVuSans-7a" transform="translate(828.707031 0)"/>
     <use xlink:href="#DejaVuSans-65" transform="translate(881.197266 0)"/>
     <use xlink:href="#DejaVuSans-20" transform="translate(942.720703 0)"/>
     <use xlink:href="#DejaVuSans-70" transform="translate(974.507812 0)"/>
     <use xlink:href="#DejaVuSans-72" transform="translate(1037.984375 0)"/>
     <use xlink:href="#DejaVuSans-7a" transform="translate(1079.097656 0)"/>
     <use xlink:href="#DejaVuSans-79" transform="translate(1131.587891 0)"/>
     <use xlink:href="#DejaVuSans-73" transform="translate(1190.767578 0)"/>
     <use xlink:href="#DejaVuSans-74" transform="translate(1242.867188 0)"/>
     <use xlink:href="#DejaVuSans-6f" transform="translate(1282.076172 0)"/>
     <use xlink:href="#DejaVuSans-73" transform="translate(1343.257812 0)"/>
     <use xlink:href="#DejaVuSans-6f" transform="translate(1395.357422 0)"/>
     <use xlink:href="#DejaVuSans-77" transform="translate(1456.539062 0)"/>
     <use xlink:href="#DejaVuSans-61" transform="translate(1538.326172 0)"/>
     <use xlink:href="#DejaVuSans-6e" transform="translate(1599.605469 0)"/>
     <use xlink:href="#DejaVuSans-69" transform="translate(1662.984375 0)"/>
     <use xlink:href="#DejaVuSans-65" transform="translate(1690.767578 0)"/>
     <use xlink:href="#DejaVuSans-20" transform="translate(1752.291016 0)"/>
     <use xlink:href="#DejaVuSans-77" transform="translate(1784.078125 0)"/>
     <use xlink:href="#DejaVuSans-20" transform="translate(1865.865234 0)"/>
     <use xlink:href="#DejaVuSans-6b" transform="translate(1897.652344 0)"/>
     <use xlink:href="#DejaVuSans-61" transform="translate(1953.8125 0)"/>
     <use xlink:href="#DejaVuSans-17c" transform="translate(2015.091797 0)"/>
     <use xlink:href="#DejaVuSans-64" transform="translate(2067.582031 0)"/>
     <use xlink:href="#DejaVuSans-65" transform="translate(2131.058594 0)"/>
     <use xlink:href="#DejaVuSans-6a" transform="translate(2192.582031 0)"/>
     <use xlink:href="#DejaVuSans-20" transform="translate(2220.365234 0)"/>
     <use xlink:href="#DejaVuSans-67" transform="translate(2252.152344 0)"/>
     <use xlink:href="#DejaVuSans-65" transform="translate(2315.628906 0)"/>
     <use xlink:href="#DejaVuSans-6e" transform="translate(2377.152344 0)"/>
     <use xlink:href="#DejaVuSans-65" transform="translate(2440.53125 0)"/>
     <use xlink:href="#DejaVuSans-72" transform="translate(2502.054688 0)"/>
     <use xlink:href="#DejaVuSans-61" transform="translate(2543.167969 0)"/>
     <use xlink:href="#DejaVuSans-63" transform="translate(2604.447266 0)"/>
     <use xlink:href="#DejaVuSans-6a" transform="translate(2659.427734 0)"/>
     <use xlink:href="#DejaVuSans-69" transform="translate(2687.210938 0)"/>
    </g>
   </g>
   <g id="legend_1">
    <g id="patch_7">
     <path d="M 279.790313 302.584 
L 407.72 302.584 
Q 409.72 302.584 409.72 300.584 
L 409.72 257.549625 
Q 409.72 255.549625 407.72 255.549625 
L 279.790313 255.549625 
Q 277.790313 255.549625 277.790313 257.549625 
L 277.790313 300.584 
Q 277.790313 302.584 279.790313 302.584 
z
" style="fill: #ffffff; opacity: 0.8; stroke: #cccccc; stroke-linejoin: miter"/>
    </g>
    <g id="line2d_24">
     <path d="M 281.790313 263.648062 
L 291.790313 263.648062 
L 301.790313 263.648062 
" style="fill: none; stroke: #0000ff; stroke-width: 1.5; stroke-linecap: square"/>
    </g>
    <g id="text_14">
     <!-- Średnia -->
     <g transform="translate(309.790313 267.148062) scale(0.1 -0.1)">
      <use xlink:href="#DejaVuSans-15a"/>
      <use xlink:href="#DejaVuSans-72" transform="translate(63.476562 0)"/>
      <use xlink:href="#DejaVuSans-65" transform="translate(102.339844 0)"/>
      <use xlink:href="#DejaVuSans-64" transform="translate(163.863281 0)"/>
      <use xlink:href="#DejaVuSans-6e" transform="translate(227.339844 0)"/>
      <use xlink:href="#DejaVuSans-69" transform="translate(290.71875 0)"/>
      <use xlink:href="#DejaVuSans-61" transform="translate(318.501953 0)"/>
     </g>
    </g>
    <g id="line2d_25">
     <path d="M 281.790313 278.326188 
L 291.790313 278.326188 
L 301.790313 278.326188 
" style="fill: none; stroke-dasharray: 9.6,2.4,1.5,2.4; stroke-dashoffset: 0; stroke: #008000; stroke-width: 1.5"/>
    </g>
    <g id="text_15">
     <!-- ±1 Odchylenie std. -->
     <g transform="translate(309.790313 281.826188) scale(0.1 -0.1)">
      <defs>
       <path id="DejaVuSans-b1" d="M 2944 4013 
L 2944 2803 
L 4684 2803 
L 4684 2272 
L 2944 2272 
L 2944 1063 
L 2419 1063 
L 2419 2272 
L 678 2272 
L 678 2803 
L 2419 2803 
L 2419 4013 
L 2944 4013 
z
M 678 531 
L 4684 531 
L 4684 0 
L 678 0 
L 678 531 
z
" transform="scale(0.015625)"/>
       <path id="DejaVuSans-4f" d="M 2522 4238 
Q 1834 4238 1429 3725 
Q 1025 3213 1025 2328 
Q 1025 1447 1429 934 
Q 1834 422 2522 422 
Q 3209 422 3611 934 
Q 4013 1447 4013 2328 
Q 4013 3213 3611 3725 
Q 3209 4238 2522 4238 
z
M 2522 4750 
Q 3503 4750 4090 4092 
Q 4678 3434 4678 2328 
Q 4678 1225 4090 567 
Q 3503 -91 2522 -91 
Q 1538 -91 948 565 
Q 359 1222 359 2328 
Q 359 3434 948 4092 
Q 1538 4750 2522 4750 
z
" transform="scale(0.015625)"/>
       <path id="DejaVuSans-68" d="M 3513 2113 
L 3513 0 
L 2938 0 
L 2938 2094 
Q 2938 2591 2744 2837 
Q 2550 3084 2163 3084 
Q 1697 3084 1428 2787 
Q 1159 2491 1159 1978 
L 1159 0 
L 581 0 
L 581 4863 
L 1159 4863 
L 1159 2956 
Q 1366 3272 1645 3428 
Q 1925 3584 2291 3584 
Q 2894 3584 3203 3211 
Q 3513 2838 3513 2113 
z
" transform="scale(0.015625)"/>
       <path id="DejaVuSans-2e" d="M 684 794 
L 1344 794 
L 1344 0 
L 684 0 
L 684 794 
z
" transform="scale(0.015625)"/>
      </defs>
      <use xlink:href="#DejaVuSans-b1"/>
      <use xlink:href="#DejaVuSans-31" transform="translate(83.789062 0)"/>
      <use xlink:href="#DejaVuSans-20" transform="translate(147.412109 0)"/>
      <use xlink:href="#DejaVuSans-4f" transform="translate(179.199219 0)"/>
      <use xlink:href="#DejaVuSans-64" transform="translate(257.910156 0)"/>
      <use xlink:href="#DejaVuSans-63" transform="translate(321.386719 0)"/>
      <use xlink:href="#DejaVuSans-68" transform="translate(376.367188 0)"/>
      <use xlink:href="#DejaVuSans-79" transform="translate(439.746094 0)"/>
      <use xlink:href="#DejaVuSans-6c" transform="translate(498.925781 0)"/>
      <use xlink:href="#DejaVuSans-65" transform="translate(526.708984 0)"/>
      <use xlink:href="#DejaVuSans-6e" transform="translate(588.232422 0)"/>
      <use xlink:href="#DejaVuSans-69" transform="translate(651.611328 0)"/>
      <use xlink:href="#DejaVuSans-65" transform="translate(679.394531 0)"/>
      <use xlink:href="#DejaVuSans-20" transform="translate(740.917969 0)"/>
      <use xlink:href="#DejaVuSans-73" transform="translate(772.705078 0)"/>
      <use xlink:href="#DejaVuSans-74" transform="translate(824.804688 0)"/>
      <use xlink:href="#DejaVuSans-64" transform="translate(864.013672 0)"/>
      <use xlink:href="#DejaVuSans-2e" transform="translate(927.490234 0)"/>
     </g>
    </g>
    <g id="line2d_26">
     <path d="M 281.790313 293.004312 
L 291.790313 293.004312 
L 301.790313 293.004312 
" style="fill: none; stroke: #ff0000; stroke-width: 1.5; stroke-linecap: square"/>
    </g>
    <g id="text_16">
     <!-- Najlepsze -->
     <g transform="translate(309.790313 296.504312) scale(0.1 -0.1)">
      <defs>
       <path id="DejaVuSans-4e" d="M 628 4666 
L 1478 4666 
L 3547 763 
L 3547 4666 
L 4159 4666 
L 4159 0 
L 3309 0 
L 1241 3903 
L 1241 0 
L 628 0 
L 628 4666 
z
" transform="scale(0.015625)"/>
      </defs>
      <use xlink:href="#DejaVuSans-4e"/>
      <use xlink:href="#DejaVuSans-61" transform="translate(74.804688 0)"/>
      <use xlink:href="#DejaVuSans-6a" transform="translate(136.083984 0)"/>
      <use xlink:href="#DejaVuSans-6c" transform="translate(163.867188 0)"/>
      <use xlink:href="#DejaVuSans-65" transform="translate(191.650391 0)"/>
      <use xlink:href="#DejaVuSans-70" transform="translate(253.173828 0)"/>
      <use xlink:href="#DejaVuSans-73" transform="translate(316.650391 0)"/>
      <use xlink:href="#DejaVuSans-7a" transform="translate(368.75 0)"/>
      <use xlink:href="#DejaVuSans-65" transform="translate(421.240234 0)"/>
     </g>
    </g>
   </g>
  </g>
 </g>
 <defs>
  <clipPath id="p0ab2a314e1">
   <rect x="57.6" y="41.472" width="357.12" height="266.112"/>
  </clipPath>
 </defs>
</svg>
