<?xml version="1.0" encoding="utf-8" standalone="no"?>
<!DOCTYPE svg PUBLIC "-//W3C//DTD SVG 1.1//EN"
  "http://www.w3.org/Graphics/SVG/1.1/DTD/svg11.dtd">
<svg xmlns:xlink="http://www.w3.org/1999/xlink" width="460.8pt" height="345.6pt" viewBox="0 0 460.8 345.6" xmlns="http://www.w3.org/2000/svg" version="1.1">
 <metadata>
  <rdf:RDF xmlns:dc="http://purl.org/dc/elements/1.1/" xmlns:cc="http://creativecommons.org/ns#" xmlns:rdf="http://www.w3.org/1999/02/22-rdf-syntax-ns#">
   <cc:Work>
    <dc:type rdf:resource="http://purl.org/dc/dcmitype/StillImage"/>
    <dc:date>2026-04-27T00:39:52.891206</dc:date>
    <dc:format>image/svg+xml</dc:format>
    <dc:creator>
     <cc:Agent>
      <dc:title>Matplotlib v3.10.8, https://matplotlib.org/</dc:title>
     </cc:Agent>
    </dc:creator>
   </cc:Work>
  </rdf:RDF>
 </metadata>
 <defs>
  <style type="text/css">*{stroke-linejoin: round; stroke-linecap: butt}</style>
 </defs>
 <g id="figure_1">
  <g id="patch_1">
   <path d="M 0 345.6 
L 460.8 345.6 
L 460.8 0 
L 0 0 
z
" style="fill: #ffffff"/>
  </g>
  <g id="axes_1">
   <g id="patch_2">
    <path d="M 57.6 307.584 
L 414.72 307.584 
L 414.72 41.472 
L 57.6 41.472 
z
" style="fill: #ffffff"/>
   </g>
   <g id="matplotlib.axis_1">
    <g id="xtick_1">
     <g id="line2d_1">
      <path d="M 72.201297 307.584 
L 72.201297 41.472 
" clip-path="url(#p1d7b4ed540)" style="fill: none; stroke: #b0b0b0; stroke-width: 0.8; stroke-linecap: square"/>
     </g>
     <g id="line2d_2">
      <defs>
       <path id="madcbb1ded0" d="M 0 0 
L 0 3.5 
" style="stroke: #000000; stroke-width: 0.8"/>
      </defs>
      <g>
       <use xlink:href="#madcbb1ded0" x="72.201297" y="307.584" style="stroke: #000000; stroke-width: 0.8"/>
      </g>
     </g>
     <g id="text_1">
      <!-- 0 -->
      <g transform="translate(69.020047 322.182437) scale(0.1 -0.1)">
       <defs>
        <path id="DejaVuSans-30" d="M 2034 4250 
Q 1547 4250 1301 3770 
Q 1056 3291 1056 2328 
Q 1056 1369 1301 889 
Q 1547 409 2034 409 
Q 2525 409 2770 889 
Q 3016 1369 3016 2328 
Q 3016 3291 2770 3770 
Q 2525 4250 2034 4250 
z
M 2034 4750 
Q 2819 4750 3233 4129 
Q 3647 3509 3647 2328 
Q 3647 1150 3233 529 
Q 2819 -91 2034 -91 
Q 1250 -91 836 529 
Q 422 1150 422 2328 
Q 422 3509 836 4129 
Q 1250 4750 2034 4750 
z
" transform="scale(0.015625)"/>
       </defs>
       <use xlink:href="#DejaVuSans-30"/>
      </g>
     </g>
    </g>
    <g id="xtick_2">
     <g id="line2d_3">
      <path d="M 112.987044 307.584 
L 112.987044 41.472 
" clip-path="url(#p1d7b4ed540)" style="fill: none; stroke: #b0b0b0; stroke-width: 0.8; stroke-linecap: square"/>
     </g>
     <g id="line2d_4">
      <g>
       <use xlink:href="#madcbb1ded0" x="112.987044" y="307.584" style="stroke: #000000; stroke-width: 0.8"/>
      </g>
     </g>
     <g id="text_2">
      <!-- 25 -->
      <g transform="translate(106.624544 322.182437) scale(0.1 -0.1)">
       <defs>
        <path id="DejaVuSans-32" d="M 1228 531 
L 3431 531 
L 3431 0 
L 469 0 
L 469 531 
Q 828 903 1448 1529 
Q 2069 2156 2228 2338 
Q 2531 2678 2651 2914 
Q 2772 3150 2772 3378 
Q 2772 3750 2511 3984 
Q 2250 4219 1831 4219 
Q 1534 4219 1204 4116 
Q 875 4013 500 3803 
L 500 4441 
Q 881 4594 1212 4672 
Q 1544 4750 1819 4750 
Q 2544 4750 2975 4387 
Q 3406 4025 3406 3419 
Q 3406 3131 3298 2873 
Q 3191 2616 2906 2266 
Q 2828 2175 2409 1742 
Q 1991 1309 1228 531 
z
" transform="scale(0.015625)"/>
        <path id="DejaVuSans-35" d="M 691 4666 
L 3169 4666 
L 3169 4134 
L 1269 4134 
L 1269 2991 
Q 1406 3038 1543 3061 
Q 1681 3084 1819 3084 
Q 2600 3084 3056 2656 
Q 3513 2228 3513 1497 
Q 3513 744 3044 326 
Q 2575 -91 1722 -91 
Q 1428 -91 1123 -41 
Q 819 9 494 109 
L 494 744 
Q 775 591 1075 516 
Q 1375 441 1709 441 
Q 2250 441 2565 725 
Q 2881 1009 2881 1497 
Q 2881 1984 2565 2268 
Q 2250 2553 1709 2553 
Q 1456 2553 1204 2497 
Q 953 2441 691 2322 
L 691 4666 
z
" transform="scale(0.015625)"/>
       </defs>
       <use xlink:href="#DejaVuSans-32"/>
       <use xlink:href="#DejaVuSans-35" transform="translate(63.623047 0)"/>
      </g>
     </g>
    </g>
    <g id="xtick_3">
     <g id="line2d_5">
      <path d="M 153.772791 307.584 
L 153.772791 41.472 
" clip-path="url(#p1d7b4ed540)" style="fill: none; stroke: #b0b0b0; stroke-width: 0.8; stroke-linecap: square"/>
     </g>
     <g id="line2d_6">
      <g>
       <use xlink:href="#madcbb1ded0" x="153.772791" y="307.584" style="stroke: #000000; stroke-width: 0.8"/>
      </g>
     </g>
     <g id="text_3">
      <!-- 50 -->
      <g transform="translate(147.410291 322.182437) scale(0.1 -0.1)">
       <use xlink:href="#DejaVuSans-35"/>
       <use xlink:href="#DejaVuSans-30" transform="translate(63.623047 0)"/>
      </g>
     </g>
    </g>
    <g id="xtick_4">
     <g id="line2d_7">
      <path d="M 194.558538 307.584 
L 194.558538 41.472 
" clip-path="url(#p1d7b4ed540)" style="fill: none; stroke: #b0b0b0; stroke-width: 0.8; stroke-linecap: square"/>
     </g>
     <g id="line2d_8">
      <g>
       <use xlink:href="#madcbb1ded0" x="194.558538" y="307.584" style="stroke: #000000; stroke-width: 0.8"/>
      </g>
     </g>
     <g id="text_4">
      <!-- 75 -->
      <g transform="translate(188.196038 322.182437) scale(0.1 -0.1)">
       <defs>
        <path id="DejaVuSans-37" d="M 525 4666 
L 3525 4666 
L 3525 4397 
L 1831 0 
L 1172 0 
L 2766 4134 
L 525 4134 
L 525 4666 
z
" transform="scale(0.015625)"/>
       </defs>
       <use xlink:href="#DejaVuSans-37"/>
       <use xlink:href="#DejaVuSans-35" transform="translate(63.623047 0)"/>
      </g>
     </g>
    </g>
    <g id="xtick_5">
     <g id="line2d_9">
      <path d="M 235.344285 307.584 
L 235.344285 41.472 
" clip-path="url(#p1d7b4ed540)" style="fill: none; stroke: #b0b0b0; stroke-width: 0.8; stroke-linecap: square"/>
     </g>
     <g id="line2d_10">
      <g>
       <use xlink:href="#madcbb1ded0" x="235.344285" y="307.584" style="stroke: #000000; stroke-width: 0.8"/>
      </g>
     </g>
     <g id="text_5">
      <!-- 100 -->
      <g transform="translate(225.800535 322.182437) scale(0.1 -0.1)">
       <defs>
        <path id="DejaVuSans-31" d="M 794 531 
L 1825 531 
L 1825 4091 
L 703 3866 
L 703 4441 
L 1819 4666 
L 2450 4666 
L 2450 531 
L 3481 531 
L 3481 0 
L 794 0 
L 794 531 
z
" transform="scale(0.015625)"/>
       </defs>
       <use xlink:href="#DejaVuSans-31"/>
       <use xlink:href="#DejaVuSans-30" transform="translate(63.623047 0)"/>
       <use xlink:href="#DejaVuSans-30" transform="translate(127.246094 0)"/>
      </g>
     </g>
    </g>
    <g id="xtick_6">
     <g id="line2d_11">
      <path d="M 276.130032 307.584 
L 276.130032 41.472 
" clip-path="url(#p1d7b4ed540)" style="fill: none; stroke: #b0b0b0; stroke-width: 0.8; stroke-linecap: square"/>
     </g>
     <g id="line2d_12">
      <g>
       <use xlink:href="#madcbb1ded0" x="276.130032" y="307.584" style="stroke: #000000; stroke-width: 0.8"/>
      </g>
     </g>
     <g id="text_6">
      <!-- 125 -->
      <g transform="translate(266.586282 322.182437) scale(0.1 -0.1)">
       <use xlink:href="#DejaVuSans-31"/>
       <use xlink:href="#DejaVuSans-32" transform="translate(63.623047 0)"/>
       <use xlink:href="#DejaVuSans-35" transform="translate(127.246094 0)"/>
      </g>
     </g>
    </g>
    <g id="xtick_7">
     <g id="line2d_13">
      <path d="M 316.915779 307.584 
L 316.915779 41.472 
" clip-path="url(#p1d7b4ed540)" style="fill: none; stroke: #b0b0b0; stroke-width: 0.8; stroke-linecap: square"/>
     </g>
     <g id="line2d_14">
      <g>
       <use xlink:href="#madcbb1ded0" x="316.915779" y="307.584" style="stroke: #000000; stroke-width: 0.8"/>
      </g>
     </g>
     <g id="text_7">
      <!-- 150 -->
      <g transform="translate(307.372029 322.182437) scale(0.1 -0.1)">
       <use xlink:href="#DejaVuSans-31"/>
       <use xlink:href="#DejaVuSans-35" transform="translate(63.623047 0)"/>
       <use xlink:href="#DejaVuSans-30" transform="translate(127.246094 0)"/>
      </g>
     </g>
    </g>
    <g id="xtick_8">
     <g id="line2d_15">
      <path d="M 357.701526 307.584 
L 357.701526 41.472 
" clip-path="url(#p1d7b4ed540)" style="fill: none; stroke: #b0b0b0; stroke-width: 0.8; stroke-linecap: square"/>
     </g>
     <g id="line2d_16">
      <g>
       <use xlink:href="#madcbb1ded0" x="357.701526" y="307.584" style="stroke: #000000; stroke-width: 0.8"/>
      </g>
     </g>
     <g id="text_8">
      <!-- 175 -->
      <g transform="translate(348.157776 322.182437) scale(0.1 -0.1)">
       <use xlink:href="#DejaVuSans-31"/>
       <use xlink:href="#DejaVuSans-37" transform="translate(63.623047 0)"/>
       <use xlink:href="#DejaVuSans-35" transform="translate(127.246094 0)"/>
      </g>
     </g>
    </g>
    <g id="xtick_9">
     <g id="line2d_17">
      <path d="M 398.487273 307.584 
L 398.487273 41.472 
" clip-path="url(#p1d7b4ed540)" style="fill: none; stroke: #b0b0b0; stroke-width: 0.8; stroke-linecap: square"/>
     </g>
     <g id="line2d_18">
      <g>
       <use xlink:href="#madcbb1ded0" x="398.487273" y="307.584" style="stroke: #000000; stroke-width: 0.8"/>
      </g>
     </g>
     <g id="text_9">
      <!-- 200 -->
      <g transform="translate(388.943523 322.182437) scale(0.1 -0.1)">
       <use xlink:href="#DejaVuSans-32"/>
       <use xlink:href="#DejaVuSans-30" transform="translate(63.623047 0)"/>
       <use xlink:href="#DejaVuSans-30" transform="translate(127.246094 0)"/>
      </g>
     </g>
    </g>
    <g id="text_10">
     <!-- Generacje -->
     <g transform="translate(210.629531 335.860562) scale(0.1 -0.1)">
      <defs>
       <path id="DejaVuSans-47" d="M 3809 666 
L 3809 1919 
L 2778 1919 
L 2778 2438 
L 4434 2438 
L 4434 434 
Q 4069 175 3628 42 
Q 3188 -91 2688 -91 
Q 1594 -91 976 548 
Q 359 1188 359 2328 
Q 359 3472 976 4111 
Q 1594 4750 2688 4750 
Q 3144 4750 3555 4637 
Q 3966 4525 4313 4306 
L 4313 3634 
Q 3963 3931 3569 4081 
Q 3175 4231 2741 4231 
Q 1884 4231 1454 3753 
Q 1025 3275 1025 2328 
Q 1025 1384 1454 906 
Q 1884 428 2741 428 
Q 3075 428 3337 486 
Q 3600 544 3809 666 
z
" transform="scale(0.015625)"/>
       <path id="DejaVuSans-65" d="M 3597 1894 
L 3597 1613 
L 953 1613 
Q 991 1019 1311 708 
Q 1631 397 2203 397 
Q 2534 397 2845 478 
Q 3156 559 3463 722 
L 3463 178 
Q 3153 47 2828 -22 
Q 2503 -91 2169 -91 
Q 1331 -91 842 396 
Q 353 884 353 1716 
Q 353 2575 817 3079 
Q 1281 3584 2069 3584 
Q 2775 3584 3186 3129 
Q 3597 2675 3597 1894 
z
M 3022 2063 
Q 3016 2534 2758 2815 
Q 2500 3097 2075 3097 
Q 1594 3097 1305 2825 
Q 1016 2553 972 2059 
L 3022 2063 
z
" transform="scale(0.015625)"/>
       <path id="DejaVuSans-6e" d="M 3513 2113 
L 3513 0 
L 2938 0 
L 2938 2094 
Q 2938 2591 2744 2837 
Q 2550 3084 2163 3084 
Q 1697 3084 1428 2787 
Q 1159 2491 1159 1978 
L 1159 0 
L 581 0 
L 581 3500 
L 1159 3500 
L 1159 2956 
Q 1366 3272 1645 3428 
Q 1925 3584 2291 3584 
Q 2894 3584 3203 3211 
Q 3513 2838 3513 2113 
z
" transform="scale(0.015625)"/>
       <path id="DejaVuSans-72" d="M 2631 2963 
Q 2534 3019 2420 3045 
Q 2306 3072 2169 3072 
Q 1681 3072 1420 2755 
Q 1159 2438 1159 1844 
L 1159 0 
L 581 0 
L 581 3500 
L 1159 3500 
L 1159 2956 
Q 1341 3275 1631 3429 
Q 1922 3584 2338 3584 
Q 2397 3584 2469 3576 
Q 2541 3569 2628 3553 
L 2631 2963 
z
" transform="scale(0.015625)"/>
       <path id="DejaVuSans-61" d="M 2194 1759 
Q 1497 1759 1228 1600 
Q 959 1441 959 1056 
Q 959 750 1161 570 
Q 1363 391 1709 391 
Q 2188 391 2477 730 
Q 2766 1069 2766 1631 
L 2766 1759 
L 2194 1759 
z
M 3341 1997 
L 3341 0 
L 2766 0 
L 2766 531 
Q 2569 213 2275 61 
Q 1981 -91 1556 -91 
Q 1019 -91 701 211 
Q 384 513 384 1019 
Q 384 1609 779 1909 
Q 1175 2209 1959 2209 
L 2766 2209 
L 2766 2266 
Q 2766 2663 2505 2880 
Q 2244 3097 1772 3097 
Q 1472 3097 1187 3025 
Q 903 2953 641 2809 
L 641 3341 
Q 956 3463 1253 3523 
Q 1550 3584 1831 3584 
Q 2591 3584 2966 3190 
Q 3341 2797 3341 1997 
z
" transform="scale(0.015625)"/>
       <path id="DejaVuSans-63" d="M 3122 3366 
L 3122 2828 
Q 2878 2963 2633 3030 
Q 2388 3097 2138 3097 
Q 1578 3097 1268 2742 
Q 959 2388 959 1747 
Q 959 1106 1268 751 
Q 1578 397 2138 397 
Q 2388 397 2633 464 
Q 2878 531 3122 666 
L 3122 134 
Q 2881 22 2623 -34 
Q 2366 -91 2075 -91 
Q 1284 -91 818 406 
Q 353 903 353 1747 
Q 353 2603 823 3093 
Q 1294 3584 2113 3584 
Q 2378 3584 2631 3529 
Q 2884 3475 3122 3366 
z
" transform="scale(0.015625)"/>
       <path id="DejaVuSans-6a" d="M 603 3500 
L 1178 3500 
L 1178 -63 
Q 1178 -731 923 -1031 
Q 669 -1331 103 -1331 
L -116 -1331 
L -116 -844 
L 38 -844 
Q 366 -844 484 -692 
Q 603 -541 603 -63 
L 603 3500 
z
M 603 4863 
L 1178 4863 
L 1178 4134 
L 603 4134 
L 603 4863 
z
" transform="scale(0.015625)"/>
      </defs>
      <use xlink:href="#DejaVuSans-47"/>
      <use xlink:href="#DejaVuSans-65" transform="translate(77.490234 0)"/>
      <use xlink:href="#DejaVuSans-6e" transform="translate(139.013672 0)"/>
      <use xlink:href="#DejaVuSans-65" transform="translate(202.392578 0)"/>
      <use xlink:href="#DejaVuSans-72" transform="translate(263.916016 0)"/>
      <use xlink:href="#DejaVuSans-61" transform="translate(305.029297 0)"/>
      <use xlink:href="#DejaVuSans-63" transform="translate(366.308594 0)"/>
      <use xlink:href="#DejaVuSans-6a" transform="translate(421.289062 0)"/>
      <use xlink:href="#DejaVuSans-65" transform="translate(449.072266 0)"/>
     </g>
    </g>
   </g>
   <g id="matplotlib.axis_2">
    <g id="ytick_1">
     <g id="line2d_19">
      <path d="M 57.6 152.74444 
L 414.72 152.74444 
" clip-path="url(#p1d7b4ed540)" style="fill: none; stroke: #b0b0b0; stroke-width: 0.8; stroke-linecap: square"/>
     </g>
     <g id="line2d_20">
      <defs>
       <path id="m6c3c96802e" d="M 0 0 
L -3.5 0 
" style="stroke: #000000; stroke-width: 0.8"/>
      </defs>
      <g>
       <use xlink:href="#m6c3c96802e" x="57.6" y="152.74444" style="stroke: #000000; stroke-width: 0.8"/>
      </g>
     </g>
     <g id="text_11">
      <!-- $\mathdefault{10^{2}}$ -->
      <g transform="translate(33 156.543658) scale(0.1 -0.1)">
       <use xlink:href="#DejaVuSans-31" transform="translate(0 0.765625)"/>
       <use xlink:href="#DejaVuSans-30" transform="translate(63.623047 0.765625)"/>
       <use xlink:href="#DejaVuSans-32" transform="translate(128.203125 39.046875) scale(0.7)"/>
      </g>
     </g>
    </g>
    <g id="text_12">
     <!-- Przystosowanie -->
     <g transform="translate(26.920312 213.170187) rotate(-90) scale(0.1 -0.1)">
      <defs>
       <path id="DejaVuSans-50" d="M 1259 4147 
L 1259 2394 
L 2053 2394 
Q 2494 2394 2734 2622 
Q 2975 2850 2975 3272 
Q 2975 3691 2734 3919 
Q 2494 4147 2053 4147 
L 1259 4147 
z
M 628 4666 
L 2053 4666 
Q 2838 4666 3239 4311 
Q 3641 3956 3641 3272 
Q 3641 2581 3239 2228 
Q 2838 1875 2053 1875 
L 1259 1875 
L 1259 0 
L 628 0 
L 628 4666 
z
" transform="scale(0.015625)"/>
       <path id="DejaVuSans-7a" d="M 353 3500 
L 3084 3500 
L 3084 2975 
L 922 459 
L 3084 459 
L 3084 0 
L 275 0 
L 275 525 
L 2438 3041 
L 353 3041 
L 353 3500 
z
" transform="scale(0.015625)"/>
       <path id="DejaVuSans-79" d="M 2059 -325 
Q 1816 -950 1584 -1140 
Q 1353 -1331 966 -1331 
L 506 -1331 
L 506 -850 
L 844 -850 
Q 1081 -850 1212 -737 
Q 1344 -625 1503 -206 
L 1606 56 
L 191 3500 
L 800 3500 
L 1894 763 
L 2988 3500 
L 3597 3500 
L 2059 -325 
z
" transform="scale(0.015625)"/>
       <path id="DejaVuSans-73" d="M 2834 3397 
L 2834 2853 
Q 2591 2978 2328 3040 
Q 2066 3103 1784 3103 
Q 1356 3103 1142 2972 
Q 928 2841 928 2578 
Q 928 2378 1081 2264 
Q 1234 2150 1697 2047 
L 1894 2003 
Q 2506 1872 2764 1633 
Q 3022 1394 3022 966 
Q 3022 478 2636 193 
Q 2250 -91 1575 -91 
Q 1294 -91 989 -36 
Q 684 19 347 128 
L 347 722 
Q 666 556 975 473 
Q 1284 391 1588 391 
Q 1994 391 2212 530 
Q 2431 669 2431 922 
Q 2431 1156 2273 1281 
Q 2116 1406 1581 1522 
L 1381 1569 
Q 847 1681 609 1914 
Q 372 2147 372 2553 
Q 372 3047 722 3315 
Q 1072 3584 1716 3584 
Q 2034 3584 2315 3537 
Q 2597 3491 2834 3397 
z
" transform="scale(0.015625)"/>
       <path id="DejaVuSans-74" d="M 1172 4494 
L 1172 3500 
L 2356 3500 
L 2356 3053 
L 1172 3053 
L 1172 1153 
Q 1172 725 1289 603 
Q 1406 481 1766 481 
L 2356 481 
L 2356 0 
L 1766 0 
Q 1100 0 847 248 
Q 594 497 594 1153 
L 594 3053 
L 172 3053 
L 172 3500 
L 594 3500 
L 594 4494 
L 1172 4494 
z
" transform="scale(0.015625)"/>
       <path id="DejaVuSans-6f" d="M 1959 3097 
Q 1497 3097 1228 2736 
Q 959 2375 959 1747 
Q 959 1119 1226 758 
Q 1494 397 1959 397 
Q 2419 397 2687 759 
Q 2956 1122 2956 1747 
Q 2956 2369 2687 2733 
Q 2419 3097 1959 3097 
z
M 1959 3584 
Q 2709 3584 3137 3096 
Q 3566 2609 3566 1747 
Q 3566 888 3137 398 
Q 2709 -91 1959 -91 
Q 1206 -91 779 398 
Q 353 888 353 1747 
Q 353 2609 779 3096 
Q 1206 3584 1959 3584 
z
" transform="scale(0.015625)"/>
       <path id="DejaVuSans-77" d="M 269 3500 
L 844 3500 
L 1563 769 
L 2278 3500 
L 2956 3500 
L 3675 769 
L 4391 3500 
L 4966 3500 
L 4050 0 
L 3372 0 
L 2619 2869 
L 1863 0 
L 1184 0 
L 269 3500 
z
" transform="scale(0.015625)"/>
       <path id="DejaVuSans-69" d="M 603 3500 
L 1178 3500 
L 1178 0 
L 603 0 
L 603 3500 
z
M 603 4863 
L 1178 4863 
L 1178 4134 
L 603 4134 
L 603 4863 
z
" transform="scale(0.015625)"/>
      </defs>
      <use xlink:href="#DejaVuSans-50"/>
      <use xlink:href="#DejaVuSans-72" transform="translate(58.552734 0)"/>
      <use xlink:href="#DejaVuSans-7a" transform="translate(99.666016 0)"/>
      <use xlink:href="#DejaVuSans-79" transform="translate(152.15625 0)"/>
      <use xlink:href="#DejaVuSans-73" transform="translate(211.335938 0)"/>
      <use xlink:href="#DejaVuSans-74" transform="translate(263.435547 0)"/>
      <use xlink:href="#DejaVuSans-6f" transform="translate(302.644531 0)"/>
      <use xlink:href="#DejaVuSans-73" transform="translate(363.826172 0)"/>
      <use xlink:href="#DejaVuSans-6f" transform="translate(415.925781 0)"/>
      <use xlink:href="#DejaVuSans-77" transform="translate(477.107422 0)"/>
      <use xlink:href="#DejaVuSans-61" transform="translate(558.894531 0)"/>
      <use xlink:href="#DejaVuSans-6e" transform="translate(620.173828 0)"/>
      <use xlink:href="#DejaVuSans-69" transform="translate(683.552734 0)"/>
      <use xlink:href="#DejaVuSans-65" transform="translate(711.335938 0)"/>
     </g>
    </g>
   </g>
   <g id="line2d_21">
    <path d="M 73.832727 295.488 
L 75.464157 248.728562 
L 77.095587 227.802941 
L 78.727017 195.485411 
L 80.358447 187.69043 
L 81.989877 183.271448 
L 83.621307 181.009329 
L 85.252736 177.889787 
L 86.884166 178.75719 
L 88.515596 176.722456 
L 90.147026 176.16901 
L 91.778456 174.648421 
L 93.409886 176.35162 
L 95.041316 176.947637 
L 96.672746 172.354422 
L 98.304175 174.776073 
L 99.935605 172.517753 
L 101.567035 171.537588 
L 103.198465 174.392208 
L 104.829895 173.779104 
L 106.461325 172.126051 
L 108.092755 174.363281 
L 109.724185 169.777358 
L 111.355614 175.630514 
L 112.987044 171.565338 
L 114.618474 173.026494 
L 116.249904 170.065673 
L 117.881334 171.115718 
L 119.512764 169.505116 
L 121.144194 168.819814 
L 122.775624 166.427353 
L 126.038483 170.512105 
L 127.669913 169.147164 
L 129.301343 169.984057 
L 130.932773 169.883111 
L 132.564203 170.020738 
L 134.195633 169.062232 
L 135.827063 171.308328 
L 137.458492 171.954493 
L 139.089922 168.282778 
L 140.721352 168.884558 
L 142.352782 169.222373 
L 143.984212 165.757797 
L 145.615642 165.263307 
L 147.247072 168.138925 
L 148.878502 170.425266 
L 150.509931 167.708118 
L 152.141361 168.299782 
L 153.772791 167.360437 
L 155.404221 166.883569 
L 158.667081 168.236814 
L 160.298511 167.389884 
L 161.929941 167.060116 
L 163.56137 170.263707 
L 165.1928 171.397847 
L 166.82423 169.341501 
L 168.45566 168.189923 
L 170.08709 164.796954 
L 171.71852 168.584329 
L 173.34995 165.26564 
L 174.98138 166.148197 
L 176.61281 166.852359 
L 178.244239 168.03454 
L 179.875669 167.840613 
L 181.507099 168.86425 
L 183.138529 171.320573 
L 184.769959 169.279478 
L 186.401389 169.187809 
L 188.032819 167.27475 
L 189.664249 167.744486 
L 191.295678 167.571845 
L 194.558538 165.551521 
L 196.189968 168.071356 
L 197.821398 164.997261 
L 199.452828 167.684034 
L 201.084258 166.197298 
L 202.715688 168.862249 
L 204.347117 167.507372 
L 205.978547 168.893836 
L 207.609977 169.325694 
L 209.241407 168.587755 
L 210.872837 169.046974 
L 212.504267 167.278981 
L 214.135697 168.02599 
L 215.767127 165.47988 
L 217.398556 164.717045 
L 219.029986 169.141561 
L 220.661416 167.140849 
L 222.292846 166.130545 
L 227.187136 169.364726 
L 228.818566 168.542441 
L 230.449995 165.68277 
L 232.081425 167.049582 
L 233.712855 167.189172 
L 235.344285 169.222162 
L 236.975715 168.99392 
L 238.607145 170.388102 
L 240.238575 165.624491 
L 241.870005 167.867564 
L 243.501434 168.667896 
L 245.132864 168.606625 
L 246.764294 168.769592 
L 248.395724 167.262382 
L 250.027154 168.16419 
L 251.658584 167.298032 
L 253.290014 168.84773 
L 254.921444 167.866394 
L 256.552873 170.709481 
L 258.184303 168.716505 
L 259.815733 166.445579 
L 261.447163 168.296583 
L 263.078593 170.430547 
L 264.710023 165.613505 
L 266.341453 166.880102 
L 267.972883 168.556542 
L 269.604312 168.970783 
L 271.235742 166.648493 
L 272.867172 167.844912 
L 274.498602 167.793511 
L 276.130032 166.30859 
L 277.761462 166.212777 
L 279.392892 168.009979 
L 281.024322 168.709322 
L 282.655751 167.17641 
L 284.287181 167.314678 
L 285.918611 166.678428 
L 287.550041 169.772497 
L 289.181471 167.63113 
L 290.812901 166.945881 
L 292.444331 166.543996 
L 294.075761 166.969931 
L 295.70719 167.040351 
L 297.33862 168.375626 
L 300.60148 167.915827 
L 302.23291 167.203123 
L 303.86434 167.808199 
L 305.49577 166.883741 
L 307.1272 166.80731 
L 308.75863 167.195024 
L 310.390059 165.912357 
L 312.021489 166.5677 
L 313.652919 167.603721 
L 315.284349 166.741628 
L 316.915779 166.977908 
L 318.547209 167.070895 
L 320.178639 165.119711 
L 321.810069 165.891634 
L 323.441498 167.719813 
L 325.072928 167.584793 
L 326.704358 166.712066 
L 328.335788 166.947888 
L 329.967218 169.59269 
L 331.598648 166.450926 
L 333.230078 167.158304 
L 334.861508 166.521091 
L 336.492937 166.962741 
L 338.124367 168.359084 
L 339.755797 164.987739 
L 341.387227 166.993079 
L 343.018657 168.145962 
L 344.650087 164.87387 
L 346.281517 167.376768 
L 347.912947 169.300259 
L 349.544376 169.849534 
L 351.175806 168.035391 
L 352.807236 169.115436 
L 354.438666 167.378549 
L 356.070096 164.927971 
L 357.701526 168.49518 
L 359.332956 166.157013 
L 360.964386 166.097181 
L 362.595815 169.18549 
L 364.227245 166.912205 
L 365.858675 165.777459 
L 367.490105 165.262477 
L 369.121535 166.998439 
L 370.752965 167.649793 
L 372.384395 165.180031 
L 374.015825 167.262849 
L 375.647254 165.031002 
L 377.278684 168.584277 
L 378.910114 166.487131 
L 380.541544 167.084924 
L 382.172974 165.881166 
L 383.804404 166.268918 
L 385.435834 165.493206 
L 387.067264 168.190548 
L 388.698693 166.206284 
L 390.330123 165.112145 
L 391.961553 167.3005 
L 393.592983 165.528756 
L 395.224413 167.244095 
L 396.855843 165.174427 
L 398.487273 167.087355 
L 398.487273 167.087355 
" clip-path="url(#p1d7b4ed540)" style="fill: none; stroke: #0000ff; stroke-width: 1.5; stroke-linecap: square"/>
   </g>
   <g id="line2d_22">
    <path d="M 73.832727 247.563275 
L 75.464157 202.673635 
L 77.095587 187.757234 
L 78.727017 167.112235 
L 80.358447 160.242567 
L 81.989877 157.612649 
L 83.621307 159.586472 
L 85.252736 154.432026 
L 86.884166 158.867251 
L 88.515596 154.175107 
L 90.147026 155.698159 
L 91.778456 154.647138 
L 93.409886 157.728496 
L 95.041316 153.358312 
L 96.672746 149.552986 
L 98.304175 153.251913 
L 99.935605 151.53929 
L 101.567035 151.413323 
L 103.198465 155.909651 
L 104.829895 153.79813 
L 106.461325 149.140877 
L 108.092755 153.968908 
L 109.724185 149.318353 
L 111.355614 153.456721 
L 112.987044 151.174886 
L 114.618474 152.813035 
L 116.249904 148.518666 
L 117.881334 148.833991 
L 119.512764 149.715108 
L 121.144194 146.957661 
L 122.775624 146.180104 
L 124.407053 146.21268 
L 126.038483 148.270721 
L 127.669913 147.971244 
L 129.301343 149.392848 
L 130.932773 147.226008 
L 132.564203 149.875037 
L 134.195633 149.244937 
L 135.827063 149.525934 
L 137.458492 150.964757 
L 139.089922 146.307125 
L 140.721352 148.603932 
L 142.352782 149.895215 
L 143.984212 146.041935 
L 145.615642 145.276721 
L 147.247072 147.109043 
L 148.878502 149.904846 
L 150.509931 148.610136 
L 152.141361 146.558712 
L 153.772791 146.352535 
L 155.404221 146.960068 
L 157.035651 147.24616 
L 158.667081 147.119944 
L 160.298511 148.561254 
L 161.929941 145.757509 
L 163.56137 151.005009 
L 165.1928 152.567796 
L 166.82423 147.38313 
L 168.45566 147.527003 
L 170.08709 143.327686 
L 171.71852 149.503957 
L 173.34995 143.213879 
L 174.98138 148.075341 
L 176.61281 146.278832 
L 178.244239 148.318034 
L 179.875669 144.823568 
L 181.507099 149.135101 
L 183.138529 152.019292 
L 184.769959 149.652416 
L 186.401389 146.803031 
L 188.032819 146.577358 
L 189.664249 148.158591 
L 191.295678 147.49002 
L 192.927108 146.453017 
L 194.558538 143.626447 
L 196.189968 147.760782 
L 197.821398 145.676455 
L 199.452828 148.568676 
L 201.084258 145.200763 
L 202.715688 147.238638 
L 204.347117 145.972045 
L 205.978547 149.803582 
L 207.609977 150.041538 
L 209.241407 146.723674 
L 210.872837 150.382902 
L 212.504267 145.293974 
L 214.135697 148.77984 
L 215.767127 144.546049 
L 217.398556 143.881686 
L 219.029986 148.547809 
L 220.661416 145.870338 
L 222.292846 146.05601 
L 223.924276 147.633433 
L 225.555706 146.919782 
L 227.187136 148.728988 
L 228.818566 146.350679 
L 230.449995 142.707604 
L 232.081425 143.534784 
L 233.712855 144.192712 
L 235.344285 147.91706 
L 236.975715 147.642531 
L 238.607145 152.198051 
L 240.238575 144.764239 
L 241.870005 147.240509 
L 243.501434 148.405753 
L 245.132864 148.368484 
L 246.764294 147.462286 
L 248.395724 149.030611 
L 250.027154 147.340673 
L 251.658584 147.707794 
L 253.290014 148.733662 
L 254.921444 148.92032 
L 256.552873 152.318719 
L 258.184303 148.232056 
L 259.815733 145.282501 
L 261.447163 149.705178 
L 263.078593 151.722355 
L 264.710023 145.197501 
L 266.341453 145.583441 
L 267.972883 150.599732 
L 271.235742 144.871409 
L 272.867172 146.918724 
L 274.498602 146.906399 
L 276.130032 144.102432 
L 277.761462 145.401489 
L 279.392892 148.185259 
L 282.655751 146.427858 
L 284.287181 147.488728 
L 285.918611 147.561486 
L 287.550041 149.421894 
L 289.181471 149.269597 
L 290.812901 147.539074 
L 292.444331 146.023543 
L 294.075761 146.248056 
L 295.70719 148.502798 
L 297.33862 147.660367 
L 298.97005 149.90916 
L 300.60148 148.11217 
L 302.23291 147.343966 
L 303.86434 147.154016 
L 305.49577 147.099046 
L 307.1272 145.848804 
L 308.75863 148.042335 
L 310.390059 145.6533 
L 312.021489 146.610424 
L 313.652919 148.322503 
L 315.284349 147.272262 
L 316.915779 148.112921 
L 318.547209 146.632267 
L 320.178639 144.512495 
L 321.810069 145.051791 
L 323.441498 148.148495 
L 325.072928 148.918654 
L 326.704358 146.869943 
L 328.335788 146.787249 
L 329.967218 150.440314 
L 331.598648 147.310909 
L 333.230078 146.904996 
L 334.861508 148.004844 
L 338.124367 148.231727 
L 339.755797 147.209156 
L 341.387227 147.312851 
L 343.018657 149.062371 
L 344.650087 145.96026 
L 346.281517 149.17628 
L 347.912947 150.743673 
L 349.544376 151.095648 
L 351.175806 149.86104 
L 352.807236 149.043685 
L 356.070096 144.265473 
L 357.701526 149.358579 
L 359.332956 146.643812 
L 360.964386 145.941313 
L 362.595815 148.788658 
L 364.227245 148.598441 
L 365.858675 144.544506 
L 367.490105 146.268558 
L 369.121535 146.932706 
L 370.752965 146.895586 
L 372.384395 145.101987 
L 374.015825 147.812535 
L 375.647254 145.088656 
L 377.278684 148.52295 
L 378.910114 146.034935 
L 380.541544 147.934092 
L 382.172974 145.54302 
L 383.804404 146.955694 
L 385.435834 145.242326 
L 387.067264 149.14112 
L 388.698693 147.80134 
L 390.330123 144.314261 
L 391.961553 147.519181 
L 393.592983 145.43801 
L 395.224413 147.800545 
L 396.855843 146.153464 
L 398.487273 147.666127 
L 398.487273 147.666127 
" clip-path="url(#p1d7b4ed540)" style="fill: none; stroke-dasharray: 9.6,2.4,1.5,2.4; stroke-dashoffset: 0; stroke: #008000; stroke-width: 1.5"/>
   </g>
   <g id="line2d_23">
    <path d="M 73.832727 139.136554 
L 75.464157 123.384175 
L 77.095587 138.720953 
L 78.727017 130.918925 
L 80.358447 119.953196 
L 81.989877 112.91311 
L 83.621307 123.298933 
L 85.252736 91.49068 
L 86.884166 113.183317 
L 88.515596 79.659699 
L 90.147026 120.079924 
L 91.778456 109.437717 
L 93.409886 123.317392 
L 95.041316 109.507573 
L 96.672746 99.575917 
L 98.304175 103.417867 
L 99.935605 96.383206 
L 101.567035 109.818731 
L 103.198465 119.696539 
L 104.829895 106.363573 
L 106.461325 103.699749 
L 108.092755 103.116769 
L 109.724185 100.031251 
L 111.355614 93.785171 
L 112.987044 112.70307 
L 114.618474 113.070367 
L 116.249904 103.247442 
L 117.881334 102.855797 
L 119.512764 99.991266 
L 121.144194 103.741439 
L 122.775624 109.268594 
L 124.407053 96.844216 
L 126.038483 109.099665 
L 127.669913 100.138033 
L 129.301343 105.754368 
L 130.932773 53.568 
L 132.564203 112.87685 
L 134.195633 119.569233 
L 135.827063 112.5126 
L 137.458492 115.960266 
L 139.089922 103.300392 
L 140.721352 112.836853 
L 142.352782 109.903573 
L 143.984212 112.956706 
L 145.615642 100.0534 
L 147.247072 96.919197 
L 148.878502 103.50289 
L 150.509931 112.545579 
L 155.404221 93.601337 
L 157.035651 112.510242 
L 158.667081 99.873081 
L 160.298511 102.916394 
L 161.929941 96.950567 
L 163.56137 119.637337 
L 165.1928 119.459277 
L 166.82423 90.884708 
L 168.45566 103.430648 
L 170.08709 77.736468 
L 171.71852 109.475799 
L 173.34995 80.366701 
L 174.98138 116.104562 
L 176.61281 102.676731 
L 178.244239 102.804948 
L 179.875669 102.555029 
L 181.507099 96.683231 
L 184.769959 102.742267 
L 186.401389 93.842818 
L 188.032819 102.888348 
L 189.664249 113.092994 
L 191.295678 93.748517 
L 192.927108 93.828749 
L 194.558538 88.41261 
L 196.189968 100.043182 
L 197.821398 102.685296 
L 199.452828 109.186481 
L 201.084258 99.640797 
L 202.715688 79.569917 
L 204.347117 102.592128 
L 205.978547 99.95151 
L 207.609977 116.11085 
L 209.241407 103.304523 
L 210.872837 106.333969 
L 212.504267 84.963355 
L 214.135697 109.474963 
L 215.767127 87.971085 
L 217.398556 88.09536 
L 219.029986 94.606054 
L 222.292846 99.599417 
L 223.924276 106.217053 
L 225.555706 96.386822 
L 227.187136 82.443404 
L 228.818566 105.775456 
L 230.449995 74.666331 
L 232.081425 84.774279 
L 233.712855 96.384871 
L 235.344285 99.962296 
L 236.975715 112.480615 
L 238.607145 116.322479 
L 240.238575 93.775085 
L 241.870005 106.162778 
L 243.501434 82.116353 
L 245.132864 93.397168 
L 246.764294 85.596811 
L 248.395724 116.261685 
L 250.027154 87.767659 
L 251.658584 113.407631 
L 253.290014 93.631843 
L 254.921444 97.203817 
L 256.552873 90.953968 
L 258.184303 99.711962 
L 259.815733 84.832569 
L 261.447163 109.513064 
L 263.078593 119.467336 
L 264.710023 109.121996 
L 266.341453 85.26939 
L 267.972883 116.071365 
L 269.604312 90.349575 
L 271.235742 76.832892 
L 272.867172 106.09914 
L 274.498602 93.416137 
L 276.130032 62.824367 
L 277.761462 109.555543 
L 279.392892 106.319886 
L 282.655751 82.184182 
L 284.287181 94.172415 
L 285.918611 100.04449 
L 287.550041 106.382377 
L 289.181471 96.483908 
L 290.812901 97.145839 
L 292.444331 93.698305 
L 294.075761 109.032015 
L 295.70719 109.318907 
L 297.33862 105.736414 
L 298.97005 102.846811 
L 300.60148 112.255038 
L 302.23291 94.180054 
L 303.86434 102.883064 
L 305.49577 84.845787 
L 307.1272 55.088293 
L 308.75863 85.125329 
L 310.390059 109.007099 
L 312.021489 106.268366 
L 313.652919 109.352338 
L 315.284349 99.951341 
L 316.915779 109.375466 
L 318.547209 112.557916 
L 321.810069 87.819599 
L 323.441498 93.859656 
L 325.072928 105.671072 
L 326.704358 103.330743 
L 328.335788 85.212681 
L 329.967218 109.516093 
L 331.598648 106.561859 
L 333.230078 106.075311 
L 334.861508 120.072476 
L 336.492937 106.30343 
L 338.124367 99.458942 
L 339.755797 112.650626 
L 341.387227 102.892663 
L 343.018657 106.229212 
L 344.650087 99.758181 
L 346.281517 102.795412 
L 347.912947 106.184646 
L 349.544376 116.262738 
L 351.175806 112.504228 
L 352.807236 87.714537 
L 354.438666 73.940774 
L 356.070096 96.747411 
L 357.701526 106.009618 
L 359.332956 112.663198 
L 360.964386 96.604156 
L 362.595815 90.479969 
L 364.227245 115.901572 
L 365.858675 91.239253 
L 367.490105 105.946263 
L 369.121535 88.979033 
L 370.752965 91.059341 
L 372.384395 82.355674 
L 374.015825 100.07627 
L 375.647254 102.740486 
L 377.278684 90.260677 
L 378.910114 62.251136 
L 380.541544 109.59417 
L 382.172974 96.752192 
L 383.804404 100.219882 
L 385.435834 102.537954 
L 387.067264 109.971448 
L 388.698693 115.966473 
L 390.330123 102.494627 
L 391.961553 109.128081 
L 393.592983 91.283464 
L 395.224413 105.672562 
L 398.487273 106.216746 
L 398.487273 106.216746 
" clip-path="url(#p1d7b4ed540)" style="fill: none; stroke: #ff0000; stroke-width: 1.5; stroke-linecap: square"/>
   </g>
   <g id="patch_3">
    <path d="M 57.6 307.584 
L 57.6 41.472 
" style="fill: none; stroke: #000000; stroke-width: 0.8; stroke-linejoin: miter; stroke-linecap: square"/>
   </g>
   <g id="patch_4">
    <path d="M 414.72 307.584 
L 414.72 41.472 
" style="fill: none; stroke: #000000; stroke-width: 0.8; stroke-linejoin: miter; stroke-linecap: square"/>
   </g>
   <g id="patch_5">
    <path d="M 57.6 307.584 
L 414.72 307.584 
" style="fill: none; stroke: #000000; stroke-width: 0.8; stroke-linejoin: miter; stroke-linecap: square"/>
   </g>
   <g id="patch_6">
    <path d="M 57.6 41.472 
L 414.72 41.472 
" style="fill: none; stroke: #000000; stroke-width: 0.8; stroke-linejoin: miter; stroke-linecap: square"/>
   </g>
   <g id="text_13">
    <!-- Średnie i najlepsze przystosowanie w każdej generacji -->
    <g transform="translate(73.26 35.472) scale(0.12 -0.12)">
     <defs>
      <path id="DejaVuSans-15a" d="M 2236 5921 
L 2814 5921 
L 2102 5096 
L 1623 5096 
L 2236 5921 
z
M 3425 4513 
L 3425 3897 
Q 3066 4069 2747 4153 
Q 2428 4238 2131 4238 
Q 1616 4238 1336 4038 
Q 1056 3838 1056 3469 
Q 1056 3159 1242 3001 
Q 1428 2844 1947 2747 
L 2328 2669 
Q 3034 2534 3370 2195 
Q 3706 1856 3706 1288 
Q 3706 609 3251 259 
Q 2797 -91 1919 -91 
Q 1588 -91 1214 -16 
Q 841 59 441 206 
L 441 856 
Q 825 641 1194 531 
Q 1563 422 1919 422 
Q 2459 422 2753 634 
Q 3047 847 3047 1241 
Q 3047 1584 2836 1778 
Q 2625 1972 2144 2069 
L 1759 2144 
Q 1053 2284 737 2584 
Q 422 2884 422 3419 
Q 422 4038 858 4394 
Q 1294 4750 2059 4750 
Q 2388 4750 2728 4690 
Q 3069 4631 3425 4513 
z
" transform="scale(0.015625)"/>
      <path id="DejaVuSans-64" d="M 2906 2969 
L 2906 4863 
L 3481 4863 
L 3481 0 
L 2906 0 
L 2906 525 
Q 2725 213 2448 61 
Q 2172 -91 1784 -91 
Q 1150 -91 751 415 
Q 353 922 353 1747 
Q 353 2572 751 3078 
Q 1150 3584 1784 3584 
Q 2172 3584 2448 3432 
Q 2725 3281 2906 2969 
z
M 947 1747 
Q 947 1113 1208 752 
Q 1469 391 1925 391 
Q 2381 391 2643 752 
Q 2906 1113 2906 1747 
Q 2906 2381 2643 2742 
Q 2381 3103 1925 3103 
Q 1469 3103 1208 2742 
Q 947 2381 947 1747 
z
" transform="scale(0.015625)"/>
      <path id="DejaVuSans-20" transform="scale(0.015625)"/>
      <path id="DejaVuSans-6c" d="M 603 4863 
L 1178 4863 
L 1178 0 
L 603 0 
L 603 4863 
z
" transform="scale(0.015625)"/>
      <path id="DejaVuSans-70" d="M 1159 525 
L 1159 -1331 
L 581 -1331 
L 581 3500 
L 1159 3500 
L 1159 2969 
Q 1341 3281 1617 3432 
Q 1894 3584 2278 3584 
Q 2916 3584 3314 3078 
Q 3713 2572 3713 1747 
Q 3713 922 3314 415 
Q 2916 -91 2278 -91 
Q 1894 -91 1617 61 
Q 1341 213 1159 525 
z
M 3116 1747 
Q 3116 2381 2855 2742 
Q 2594 3103 2138 3103 
Q 1681 3103 1420 2742 
Q 1159 2381 1159 1747 
Q 1159 1113 1420 752 
Q 1681 391 2138 391 
Q 2594 391 2855 752 
Q 3116 1113 3116 1747 
z
" transform="scale(0.015625)"/>
      <path id="DejaVuSans-6b" d="M 581 4863 
L 1159 4863 
L 1159 1991 
L 2875 3500 
L 3609 3500 
L 1753 1863 
L 3688 0 
L 2938 0 
L 1159 1709 
L 1159 0 
L 581 0 
L 581 4863 
z
" transform="scale(0.015625)"/>
      <path id="DejaVuSans-17c" d="M 1378 4863 
L 1953 4863 
L 1953 4134 
L 1378 4134 
L 1378 4863 
z
M 1672 3584 
L 1672 3584 
z
M 353 3500 
L 3084 3500 
L 3084 2975 
L 922 459 
L 3084 459 
L 3084 0 
L 275 0 
L 275 525 
L 2438 3041 
L 353 3041 
L 353 3500 
z
" transform="scale(0.015625)"/>
      <path id="DejaVuSans-67" d="M 2906 1791 
Q 2906 2416 2648 2759 
Q 2391 3103 1925 3103 
Q 1463 3103 1205 2759 
Q 947 2416 947 1791 
Q 947 1169 1205 825 
Q 1463 481 1925 481 
Q 2391 481 2648 825 
Q 2906 1169 2906 1791 
z
M 3481 434 
Q 3481 -459 3084 -895 
Q 2688 -1331 1869 -1331 
Q 1566 -1331 1297 -1286 
Q 1028 -1241 775 -1147 
L 775 -588 
Q 1028 -725 1275 -790 
Q 1522 -856 1778 -856 
Q 2344 -856 2625 -561 
Q 2906 -266 2906 331 
L 2906 616 
Q 2728 306 2450 153 
Q 2172 0 1784 0 
Q 1141 0 747 490 
Q 353 981 353 1791 
Q 353 2603 747 3093 
Q 1141 3584 1784 3584 
Q 2172 3584 2450 3431 
Q 2728 3278 2906 2969 
L 2906 3500 
L 3481 3500 
L 3481 434 
z
" transform="scale(0.015625)"/>
     </defs>
     <use xlink:href="#DejaVuSans-15a"/>
     <use xlink:href="#DejaVuSans-72" transform="translate(63.476562 0)"/>
     <use xlink:href="#DejaVuSans-65" transform="translate(102.339844 0)"/>
     <use xlink:href="#DejaVuSans-64" transform="translate(163.863281 0)"/>
     <use xlink:href="#DejaVuSans-6e" transform="translate(227.339844 0)"/>
     <use xlink:href="#DejaVuSans-69" transform="translate(290.71875 0)"/>
     <use xlink:href="#DejaVuSans-65" transform="translate(318.501953 0)"/>
     <use xlink:href="#DejaVuSans-20" transform="translate(380.025391 0)"/>
     <use xlink:href="#DejaVuSans-69" transform="translate(411.8125 0)"/>
     <use xlink:href="#DejaVuSans-20" transform="translate(439.595703 0)"/>
     <use xlink:href="#DejaVuSans-6e" transform="translate(471.382812 0)"/>
     <use xlink:href="#DejaVuSans-61" transform="translate(534.761719 0)"/>
     <use xlink:href="#DejaVuSans-6a" transform="translate(596.041016 0)"/>
     <use xlink:href="#DejaVuSans-6c" transform="translate(623.824219 0)"/>
     <use xlink:href="#DejaVuSans-65" transform="translate(651.607422 0)"/>
     <use xlink:href="#DejaVuSans-70" transform="translate(713.130859 0)"/>
     <use xlink:href="#DejaVuSans-73" transform="translate(776.607422 0)"/>
     <use xlink:href="#DejaVuSans-7a" transform="translate(828.707031 0)"/>
     <use xlink:href="#DejaVuSans-65" transform="translate(881.197266 0)"/>
     <use xlink:href="#DejaVuSans-20" transform="translate(942.720703 0)"/>
     <use xlink:href="#DejaVuSans-70" transform="translate(974.507812 0)"/>
     <use xlink:href="#DejaVuSans-72" transform="translate(1037.984375 0)"/>
     <use xlink:href="#DejaVuSans-7a" transform="translate(1079.097656 0)"/>
     <use xlink:href="#DejaVuSans-79" transform="translate(1131.587891 0)"/>
     <use xlink:href="#DejaVuSans-73" transform="translate(1190.767578 0)"/>
     <use xlink:href="#DejaVuSans-74" transform="translate(1242.867188 0)"/>
     <use xlink:href="#DejaVuSans-6f" transform="translate(1282.076172 0)"/>
     <use xlink:href="#DejaVuSans-73" transform="translate(1343.257812 0)"/>
     <use xlink:href="#DejaVuSans-6f" transform="translate(1395.357422 0)"/>
     <use xlink:href="#DejaVuSans-77" transform="translate(1456.539062 0)"/>
     <use xlink:href="#DejaVuSans-61" transform="translate(1538.326172 0)"/>
     <use xlink:href="#DejaVuSans-6e" transform="translate(1599.605469 0)"/>
     <use xlink:href="#DejaVuSans-69" transform="translate(1662.984375 0)"/>
     <use xlink:href="#DejaVuSans-65" transform="translate(1690.767578 0)"/>
     <use xlink:href="#DejaVuSans-20" transform="translate(1752.291016 0)"/>
     <use xlink:href="#DejaVuSans-77" transform="translate(1784.078125 0)"/>
     <use xlink:href="#DejaVuSans-20" transform="translate(1865.865234 0)"/>
     <use xlink:href="#DejaVuSans-6b" transform="translate(1897.652344 0)"/>
     <use xlink:href="#DejaVuSans-61" transform="translate(1953.8125 0)"/>
     <use xlink:href="#DejaVuSans-17c" transform="translate(2015.091797 0)"/>
     <use xlink:href="#DejaVuSans-64" transform="translate(2067.582031 0)"/>
     <use xlink:href="#DejaVuSans-65" transform="translate(2131.058594 0)"/>
     <use xlink:href="#DejaVuSans-6a" transform="translate(2192.582031 0)"/>
     <use xlink:href="#DejaVuSans-20" transform="translate(2220.365234 0)"/>
     <use xlink:href="#DejaVuSans-67" transform="translate(2252.152344 0)"/>
     <use xlink:href="#DejaVuSans-65" transform="translate(2315.628906 0)"/>
     <use xlink:href="#DejaVuSans-6e" transform="translate(2377.152344 0)"/>
     <use xlink:href="#DejaVuSans-65" transform="translate(2440.53125 0)"/>
     <use xlink:href="#DejaVuSans-72" transform="translate(2502.054688 0)"/>
     <use xlink:href="#DejaVuSans-61" transform="translate(2543.167969 0)"/>
     <use xlink:href="#DejaVuSans-63" transform="translate(2604.447266 0)"/>
     <use xlink:href="#DejaVuSans-6a" transform="translate(2659.427734 0)"/>
     <use xlink:href="#DejaVuSans-69" transform="translate(2687.210938 0)"/>
    </g>
   </g>
   <g id="legend_1">
    <g id="patch_7">
     <path d="M 279.790313 302.584 
L 407.72 302.584 
Q 409.72 302.584 409.72 300.584 
L 409.72 257.549625 
Q 409.72 255.549625 407.72 255.549625 
L 279.790313 255.549625 
Q 277.790313 255.549625 277.790313 257.549625 
L 277.790313 300.584 
Q 277.790313 302.584 279.790313 302.584 
z
" style="fill: #ffffff; opacity: 0.8; stroke: #cccccc; stroke-linejoin: miter"/>
    </g>
    <g id="line2d_24">
     <path d="M 281.790313 263.648062 
L 291.790313 263.648062 
L 301.790313 263.648062 
" style="fill: none; stroke: #0000ff; stroke-width: 1.5; stroke-linecap: square"/>
    </g>
    <g id="text_14">
     <!-- Średnia -->
     <g transform="translate(309.790313 267.148062) scale(0.1 -0.1)">
      <use xlink:href="#DejaVuSans-15a"/>
      <use xlink:href="#DejaVuSans-72" transform="translate(63.476562 0)"/>
      <use xlink:href="#DejaVuSans-65" transform="translate(102.339844 0)"/>
      <use xlink:href="#DejaVuSans-64" transform="translate(163.863281 0)"/>
      <use xlink:href="#DejaVuSans-6e" transform="translate(227.339844 0)"/>
      <use xlink:href="#DejaVuSans-69" transform="translate(290.71875 0)"/>
      <use xlink:href="#DejaVuSans-61" transform="translate(318.501953 0)"/>
     </g>
    </g>
    <g id="line2d_25">
     <path d="M 281.790313 278.326188 
L 291.790313 278.326188 
L 301.790313 278.326188 
" style="fill: none; stroke-dasharray: 9.6,2.4,1.5,2.4; stroke-dashoffset: 0; stroke: #008000; stroke-width: 1.5"/>
    </g>
    <g id="text_15">
     <!-- ±1 Odchylenie std. -->
     <g transform="translate(309.790313 281.826188) scale(0.1 -0.1)">
      <defs>
       <path id="DejaVuSans-b1" d="M 2944 4013 
L 2944 2803 
L 4684 2803 
L 4684 2272 
L 2944 2272 
L 2944 1063 
L 2419 1063 
L 2419 2272 
L 678 2272 
L 678 2803 
L 2419 2803 
L 2419 4013 
L 2944 4013 
z
M 678 531 
L 4684 531 
L 4684 0 
L 678 0 
L 678 531 
z
" transform="scale(0.015625)"/>
       <path id="DejaVuSans-4f" d="M 2522 4238 
Q 1834 4238 1429 3725 
Q 1025 3213 1025 2328 
Q 1025 1447 1429 934 
Q 1834 422 2522 422 
Q 3209 422 3611 934 
Q 4013 1447 4013 2328 
Q 4013 3213 3611 3725 
Q 3209 4238 2522 4238 
z
M 2522 4750 
Q 3503 4750 4090 4092 
Q 4678 3434 4678 2328 
Q 4678 1225 4090 567 
Q 3503 -91 2522 -91 
Q 1538 -91 948 565 
Q 359 1222 359 2328 
Q 359 3434 948 4092 
Q 1538 4750 2522 4750 
z
" transform="scale(0.015625)"/>
       <path id="DejaVuSans-68" d="M 3513 2113 
L 3513 0 
L 2938 0 
L 2938 2094 
Q 2938 2591 2744 2837 
Q 2550 3084 2163 3084 
Q 1697 3084 1428 2787 
Q 1159 2491 1159 1978 
L 1159 0 
L 581 0 
L 581 4863 
L 1159 4863 
L 1159 2956 
Q 1366 3272 1645 3428 
Q 1925 3584 2291 3584 
Q 2894 3584 3203 3211 
Q 3513 2838 3513 2113 
z
" transform="scale(0.015625)"/>
       <path id="DejaVuSans-2e" d="M 684 794 
L 1344 794 
L 1344 0 
L 684 0 
L 684 794 
z
" transform="scale(0.015625)"/>
      </defs>
      <use xlink:href="#DejaVuSans-b1"/>
      <use xlink:href="#DejaVuSans-31" transform="translate(83.789062 0)"/>
      <use xlink:href="#DejaVuSans-20" transform="translate(147.412109 0)"/>
      <use xlink:href="#DejaVuSans-4f" transform="translate(179.199219 0)"/>
      <use xlink:href="#DejaVuSans-64" transform="translate(257.910156 0)"/>
      <use xlink:href="#DejaVuSans-63" transform="translate(321.386719 0)"/>
      <use xlink:href="#DejaVuSans-68" transform="translate(376.367188 0)"/>
      <use xlink:href="#DejaVuSans-79" transform="translate(439.746094 0)"/>
      <use xlink:href="#DejaVuSans-6c" transform="translate(498.925781 0)"/>
      <use xlink:href="#DejaVuSans-65" transform="translate(526.708984 0)"/>
      <use xlink:href="#DejaVuSans-6e" transform="translate(588.232422 0)"/>
      <use xlink:href="#DejaVuSans-69" transform="translate(651.611328 0)"/>
      <use xlink:href="#DejaVuSans-65" transform="translate(679.394531 0)"/>
      <use xlink:href="#DejaVuSans-20" transform="translate(740.917969 0)"/>
      <use xlink:href="#DejaVuSans-73" transform="translate(772.705078 0)"/>
      <use xlink:href="#DejaVuSans-74" transform="translate(824.804688 0)"/>
      <use xlink:href="#DejaVuSans-64" transform="translate(864.013672 0)"/>
      <use xlink:href="#DejaVuSans-2e" transform="translate(927.490234 0)"/>
     </g>
    </g>
    <g id="line2d_26">
     <path d="M 281.790313 293.004312 
L 291.790313 293.004312 
L 301.790313 293.004312 
" style="fill: none; stroke: #ff0000; stroke-width: 1.5; stroke-linecap: square"/>
    </g>
    <g id="text_16">
     <!-- Najlepsze -->
     <g transform="translate(309.790313 296.504312) scale(0.1 -0.1)">
      <defs>
       <path id="DejaVuSans-4e" d="M 628 4666 
L 1478 4666 
L 3547 763 
L 3547 4666 
L 4159 4666 
L 4159 0 
L 3309 0 
L 1241 3903 
L 1241 0 
L 628 0 
L 628 4666 
z
" transform="scale(0.015625)"/>
      </defs>
      <use xlink:href="#DejaVuSans-4e"/>
      <use xlink:href="#DejaVuSans-61" transform="translate(74.804688 0)"/>
      <use xlink:href="#DejaVuSans-6a" transform="translate(136.083984 0)"/>
      <use xlink:href="#DejaVuSans-6c" transform="translate(163.867188 0)"/>
      <use xlink:href="#DejaVuSans-65" transform="translate(191.650391 0)"/>
      <use xlink:href="#DejaVuSans-70" transform="translate(253.173828 0)"/>
      <use xlink:href="#DejaVuSans-73" transform="translate(316.650391 0)"/>
      <use xlink:href="#DejaVuSans-7a" transform="translate(368.75 0)"/>
      <use xlink:href="#DejaVuSans-65" transform="translate(421.240234 0)"/>
     </g>
    </g>
   </g>
  </g>
 </g>
 <defs>
  <clipPath id="p1d7b4ed540">
   <rect x="57.6" y="41.472" width="357.12" height="266.112"/>
  </clipPath>
 </defs>
</svg>
