<?xml version="1.0" encoding="utf-8" standalone="no"?>
<!DOCTYPE svg PUBLIC "-//W3C//DTD SVG 1.1//EN"
  "http://www.w3.org/Graphics/SVG/1.1/DTD/svg11.dtd">
<svg xmlns:xlink="http://www.w3.org/1999/xlink" width="460.8pt" height="345.6pt" viewBox="0 0 460.8 345.6" xmlns="http://www.w3.org/2000/svg" version="1.1">
 <metadata>
  <rdf:RDF xmlns:dc="http://purl.org/dc/elements/1.1/" xmlns:cc="http://creativecommons.org/ns#" xmlns:rdf="http://www.w3.org/1999/02/22-rdf-syntax-ns#">
   <cc:Work>
    <dc:type rdf:resource="http://purl.org/dc/dcmitype/StillImage"/>
    <dc:date>2026-04-27T00:20:29.532222</dc:date>
    <dc:format>image/svg+xml</dc:format>
    <dc:creator>
     <cc:Agent>
      <dc:title>Matplotlib v3.10.8, https://matplotlib.org/</dc:title>
     </cc:Agent>
    </dc:creator>
   </cc:Work>
  </rdf:RDF>
 </metadata>
 <defs>
  <style type="text/css">*{stroke-linejoin: round; stroke-linecap: butt}</style>
 </defs>
 <g id="figure_1">
  <g id="patch_1">
   <path d="M 0 345.6 
L 460.8 345.6 
L 460.8 0 
L 0 0 
z
" style="fill: #ffffff"/>
  </g>
  <g id="axes_1">
   <g id="patch_2">
    <path d="M 57.6 307.584 
L 414.72 307.584 
L 414.72 41.472 
L 57.6 41.472 
z
" style="fill: #ffffff"/>
   </g>
   <g id="matplotlib.axis_1">
    <g id="xtick_1">
     <g id="line2d_1">
      <path d="M 72.201297 307.584 
L 72.201297 41.472 
" clip-path="url(#p09e3f8253b)" style="fill: none; stroke: #b0b0b0; stroke-width: 0.8; stroke-linecap: square"/>
     </g>
     <g id="line2d_2">
      <defs>
       <path id="m679a889cdc" d="M 0 0 
L 0 3.5 
" style="stroke: #000000; stroke-width: 0.8"/>
      </defs>
      <g>
       <use xlink:href="#m679a889cdc" x="72.201297" y="307.584" style="stroke: #000000; stroke-width: 0.8"/>
      </g>
     </g>
     <g id="text_1">
      <!-- 0 -->
      <g transform="translate(69.020047 322.182437) scale(0.1 -0.1)">
       <defs>
        <path id="DejaVuSans-30" d="M 2034 4250 
Q 1547 4250 1301 3770 
Q 1056 3291 1056 2328 
Q 1056 1369 1301 889 
Q 1547 409 2034 409 
Q 2525 409 2770 889 
Q 3016 1369 3016 2328 
Q 3016 3291 2770 3770 
Q 2525 4250 2034 4250 
z
M 2034 4750 
Q 2819 4750 3233 4129 
Q 3647 3509 3647 2328 
Q 3647 1150 3233 529 
Q 2819 -91 2034 -91 
Q 1250 -91 836 529 
Q 422 1150 422 2328 
Q 422 3509 836 4129 
Q 1250 4750 2034 4750 
z
" transform="scale(0.015625)"/>
       </defs>
       <use xlink:href="#DejaVuSans-30"/>
      </g>
     </g>
    </g>
    <g id="xtick_2">
     <g id="line2d_3">
      <path d="M 112.987044 307.584 
L 112.987044 41.472 
" clip-path="url(#p09e3f8253b)" style="fill: none; stroke: #b0b0b0; stroke-width: 0.8; stroke-linecap: square"/>
     </g>
     <g id="line2d_4">
      <g>
       <use xlink:href="#m679a889cdc" x="112.987044" y="307.584" style="stroke: #000000; stroke-width: 0.8"/>
      </g>
     </g>
     <g id="text_2">
      <!-- 25 -->
      <g transform="translate(106.624544 322.182437) scale(0.1 -0.1)">
       <defs>
        <path id="DejaVuSans-32" d="M 1228 531 
L 3431 531 
L 3431 0 
L 469 0 
L 469 531 
Q 828 903 1448 1529 
Q 2069 2156 2228 2338 
Q 2531 2678 2651 2914 
Q 2772 3150 2772 3378 
Q 2772 3750 2511 3984 
Q 2250 4219 1831 4219 
Q 1534 4219 1204 4116 
Q 875 4013 500 3803 
L 500 4441 
Q 881 4594 1212 4672 
Q 1544 4750 1819 4750 
Q 2544 4750 2975 4387 
Q 3406 4025 3406 3419 
Q 3406 3131 3298 2873 
Q 3191 2616 2906 2266 
Q 2828 2175 2409 1742 
Q 1991 1309 1228 531 
z
" transform="scale(0.015625)"/>
        <path id="DejaVuSans-35" d="M 691 4666 
L 3169 4666 
L 3169 4134 
L 1269 4134 
L 1269 2991 
Q 1406 3038 1543 3061 
Q 1681 3084 1819 3084 
Q 2600 3084 3056 2656 
Q 3513 2228 3513 1497 
Q 3513 744 3044 326 
Q 2575 -91 1722 -91 
Q 1428 -91 1123 -41 
Q 819 9 494 109 
L 494 744 
Q 775 591 1075 516 
Q 1375 441 1709 441 
Q 2250 441 2565 725 
Q 2881 1009 2881 1497 
Q 2881 1984 2565 2268 
Q 2250 2553 1709 2553 
Q 1456 2553 1204 2497 
Q 953 2441 691 2322 
L 691 4666 
z
" transform="scale(0.015625)"/>
       </defs>
       <use xlink:href="#DejaVuSans-32"/>
       <use xlink:href="#DejaVuSans-35" transform="translate(63.623047 0)"/>
      </g>
     </g>
    </g>
    <g id="xtick_3">
     <g id="line2d_5">
      <path d="M 153.772791 307.584 
L 153.772791 41.472 
" clip-path="url(#p09e3f8253b)" style="fill: none; stroke: #b0b0b0; stroke-width: 0.8; stroke-linecap: square"/>
     </g>
     <g id="line2d_6">
      <g>
       <use xlink:href="#m679a889cdc" x="153.772791" y="307.584" style="stroke: #000000; stroke-width: 0.8"/>
      </g>
     </g>
     <g id="text_3">
      <!-- 50 -->
      <g transform="translate(147.410291 322.182437) scale(0.1 -0.1)">
       <use xlink:href="#DejaVuSans-35"/>
       <use xlink:href="#DejaVuSans-30" transform="translate(63.623047 0)"/>
      </g>
     </g>
    </g>
    <g id="xtick_4">
     <g id="line2d_7">
      <path d="M 194.558538 307.584 
L 194.558538 41.472 
" clip-path="url(#p09e3f8253b)" style="fill: none; stroke: #b0b0b0; stroke-width: 0.8; stroke-linecap: square"/>
     </g>
     <g id="line2d_8">
      <g>
       <use xlink:href="#m679a889cdc" x="194.558538" y="307.584" style="stroke: #000000; stroke-width: 0.8"/>
      </g>
     </g>
     <g id="text_4">
      <!-- 75 -->
      <g transform="translate(188.196038 322.182437) scale(0.1 -0.1)">
       <defs>
        <path id="DejaVuSans-37" d="M 525 4666 
L 3525 4666 
L 3525 4397 
L 1831 0 
L 1172 0 
L 2766 4134 
L 525 4134 
L 525 4666 
z
" transform="scale(0.015625)"/>
       </defs>
       <use xlink:href="#DejaVuSans-37"/>
       <use xlink:href="#DejaVuSans-35" transform="translate(63.623047 0)"/>
      </g>
     </g>
    </g>
    <g id="xtick_5">
     <g id="line2d_9">
      <path d="M 235.344285 307.584 
L 235.344285 41.472 
" clip-path="url(#p09e3f8253b)" style="fill: none; stroke: #b0b0b0; stroke-width: 0.8; stroke-linecap: square"/>
     </g>
     <g id="line2d_10">
      <g>
       <use xlink:href="#m679a889cdc" x="235.344285" y="307.584" style="stroke: #000000; stroke-width: 0.8"/>
      </g>
     </g>
     <g id="text_5">
      <!-- 100 -->
      <g transform="translate(225.800535 322.182437) scale(0.1 -0.1)">
       <defs>
        <path id="DejaVuSans-31" d="M 794 531 
L 1825 531 
L 1825 4091 
L 703 3866 
L 703 4441 
L 1819 4666 
L 2450 4666 
L 2450 531 
L 3481 531 
L 3481 0 
L 794 0 
L 794 531 
z
" transform="scale(0.015625)"/>
       </defs>
       <use xlink:href="#DejaVuSans-31"/>
       <use xlink:href="#DejaVuSans-30" transform="translate(63.623047 0)"/>
       <use xlink:href="#DejaVuSans-30" transform="translate(127.246094 0)"/>
      </g>
     </g>
    </g>
    <g id="xtick_6">
     <g id="line2d_11">
      <path d="M 276.130032 307.584 
L 276.130032 41.472 
" clip-path="url(#p09e3f8253b)" style="fill: none; stroke: #b0b0b0; stroke-width: 0.8; stroke-linecap: square"/>
     </g>
     <g id="line2d_12">
      <g>
       <use xlink:href="#m679a889cdc" x="276.130032" y="307.584" style="stroke: #000000; stroke-width: 0.8"/>
      </g>
     </g>
     <g id="text_6">
      <!-- 125 -->
      <g transform="translate(266.586282 322.182437) scale(0.1 -0.1)">
       <use xlink:href="#DejaVuSans-31"/>
       <use xlink:href="#DejaVuSans-32" transform="translate(63.623047 0)"/>
       <use xlink:href="#DejaVuSans-35" transform="translate(127.246094 0)"/>
      </g>
     </g>
    </g>
    <g id="xtick_7">
     <g id="line2d_13">
      <path d="M 316.915779 307.584 
L 316.915779 41.472 
" clip-path="url(#p09e3f8253b)" style="fill: none; stroke: #b0b0b0; stroke-width: 0.8; stroke-linecap: square"/>
     </g>
     <g id="line2d_14">
      <g>
       <use xlink:href="#m679a889cdc" x="316.915779" y="307.584" style="stroke: #000000; stroke-width: 0.8"/>
      </g>
     </g>
     <g id="text_7">
      <!-- 150 -->
      <g transform="translate(307.372029 322.182437) scale(0.1 -0.1)">
       <use xlink:href="#DejaVuSans-31"/>
       <use xlink:href="#DejaVuSans-35" transform="translate(63.623047 0)"/>
       <use xlink:href="#DejaVuSans-30" transform="translate(127.246094 0)"/>
      </g>
     </g>
    </g>
    <g id="xtick_8">
     <g id="line2d_15">
      <path d="M 357.701526 307.584 
L 357.701526 41.472 
" clip-path="url(#p09e3f8253b)" style="fill: none; stroke: #b0b0b0; stroke-width: 0.8; stroke-linecap: square"/>
     </g>
     <g id="line2d_16">
      <g>
       <use xlink:href="#m679a889cdc" x="357.701526" y="307.584" style="stroke: #000000; stroke-width: 0.8"/>
      </g>
     </g>
     <g id="text_8">
      <!-- 175 -->
      <g transform="translate(348.157776 322.182437) scale(0.1 -0.1)">
       <use xlink:href="#DejaVuSans-31"/>
       <use xlink:href="#DejaVuSans-37" transform="translate(63.623047 0)"/>
       <use xlink:href="#DejaVuSans-35" transform="translate(127.246094 0)"/>
      </g>
     </g>
    </g>
    <g id="xtick_9">
     <g id="line2d_17">
      <path d="M 398.487273 307.584 
L 398.487273 41.472 
" clip-path="url(#p09e3f8253b)" style="fill: none; stroke: #b0b0b0; stroke-width: 0.8; stroke-linecap: square"/>
     </g>
     <g id="line2d_18">
      <g>
       <use xlink:href="#m679a889cdc" x="398.487273" y="307.584" style="stroke: #000000; stroke-width: 0.8"/>
      </g>
     </g>
     <g id="text_9">
      <!-- 200 -->
      <g transform="translate(388.943523 322.182437) scale(0.1 -0.1)">
       <use xlink:href="#DejaVuSans-32"/>
       <use xlink:href="#DejaVuSans-30" transform="translate(63.623047 0)"/>
       <use xlink:href="#DejaVuSans-30" transform="translate(127.246094 0)"/>
      </g>
     </g>
    </g>
    <g id="text_10">
     <!-- Generacje -->
     <g transform="translate(210.629531 335.860562) scale(0.1 -0.1)">
      <defs>
       <path id="DejaVuSans-47" d="M 3809 666 
L 3809 1919 
L 2778 1919 
L 2778 2438 
L 4434 2438 
L 4434 434 
Q 4069 175 3628 42 
Q 3188 -91 2688 -91 
Q 1594 -91 976 548 
Q 359 1188 359 2328 
Q 359 3472 976 4111 
Q 1594 4750 2688 4750 
Q 3144 4750 3555 4637 
Q 3966 4525 4313 4306 
L 4313 3634 
Q 3963 3931 3569 4081 
Q 3175 4231 2741 4231 
Q 1884 4231 1454 3753 
Q 1025 3275 1025 2328 
Q 1025 1384 1454 906 
Q 1884 428 2741 428 
Q 3075 428 3337 486 
Q 3600 544 3809 666 
z
" transform="scale(0.015625)"/>
       <path id="DejaVuSans-65" d="M 3597 1894 
L 3597 1613 
L 953 1613 
Q 991 1019 1311 708 
Q 1631 397 2203 397 
Q 2534 397 2845 478 
Q 3156 559 3463 722 
L 3463 178 
Q 3153 47 2828 -22 
Q 2503 -91 2169 -91 
Q 1331 -91 842 396 
Q 353 884 353 1716 
Q 353 2575 817 3079 
Q 1281 3584 2069 3584 
Q 2775 3584 3186 3129 
Q 3597 2675 3597 1894 
z
M 3022 2063 
Q 3016 2534 2758 2815 
Q 2500 3097 2075 3097 
Q 1594 3097 1305 2825 
Q 1016 2553 972 2059 
L 3022 2063 
z
" transform="scale(0.015625)"/>
       <path id="DejaVuSans-6e" d="M 3513 2113 
L 3513 0 
L 2938 0 
L 2938 2094 
Q 2938 2591 2744 2837 
Q 2550 3084 2163 3084 
Q 1697 3084 1428 2787 
Q 1159 2491 1159 1978 
L 1159 0 
L 581 0 
L 581 3500 
L 1159 3500 
L 1159 2956 
Q 1366 3272 1645 3428 
Q 1925 3584 2291 3584 
Q 2894 3584 3203 3211 
Q 3513 2838 3513 2113 
z
" transform="scale(0.015625)"/>
       <path id="DejaVuSans-72" d="M 2631 2963 
Q 2534 3019 2420 3045 
Q 2306 3072 2169 3072 
Q 1681 3072 1420 2755 
Q 1159 2438 1159 1844 
L 1159 0 
L 581 0 
L 581 3500 
L 1159 3500 
L 1159 2956 
Q 1341 3275 1631 3429 
Q 1922 3584 2338 3584 
Q 2397 3584 2469 3576 
Q 2541 3569 2628 3553 
L 2631 2963 
z
" transform="scale(0.015625)"/>
       <path id="DejaVuSans-61" d="M 2194 1759 
Q 1497 1759 1228 1600 
Q 959 1441 959 1056 
Q 959 750 1161 570 
Q 1363 391 1709 391 
Q 2188 391 2477 730 
Q 2766 1069 2766 1631 
L 2766 1759 
L 2194 1759 
z
M 3341 1997 
L 3341 0 
L 2766 0 
L 2766 531 
Q 2569 213 2275 61 
Q 1981 -91 1556 -91 
Q 1019 -91 701 211 
Q 384 513 384 1019 
Q 384 1609 779 1909 
Q 1175 2209 1959 2209 
L 2766 2209 
L 2766 2266 
Q 2766 2663 2505 2880 
Q 2244 3097 1772 3097 
Q 1472 3097 1187 3025 
Q 903 2953 641 2809 
L 641 3341 
Q 956 3463 1253 3523 
Q 1550 3584 1831 3584 
Q 2591 3584 2966 3190 
Q 3341 2797 3341 1997 
z
" transform="scale(0.015625)"/>
       <path id="DejaVuSans-63" d="M 3122 3366 
L 3122 2828 
Q 2878 2963 2633 3030 
Q 2388 3097 2138 3097 
Q 1578 3097 1268 2742 
Q 959 2388 959 1747 
Q 959 1106 1268 751 
Q 1578 397 2138 397 
Q 2388 397 2633 464 
Q 2878 531 3122 666 
L 3122 134 
Q 2881 22 2623 -34 
Q 2366 -91 2075 -91 
Q 1284 -91 818 406 
Q 353 903 353 1747 
Q 353 2603 823 3093 
Q 1294 3584 2113 3584 
Q 2378 3584 2631 3529 
Q 2884 3475 3122 3366 
z
" transform="scale(0.015625)"/>
       <path id="DejaVuSans-6a" d="M 603 3500 
L 1178 3500 
L 1178 -63 
Q 1178 -731 923 -1031 
Q 669 -1331 103 -1331 
L -116 -1331 
L -116 -844 
L 38 -844 
Q 366 -844 484 -692 
Q 603 -541 603 -63 
L 603 3500 
z
M 603 4863 
L 1178 4863 
L 1178 4134 
L 603 4134 
L 603 4863 
z
" transform="scale(0.015625)"/>
      </defs>
      <use xlink:href="#DejaVuSans-47"/>
      <use xlink:href="#DejaVuSans-65" transform="translate(77.490234 0)"/>
      <use xlink:href="#DejaVuSans-6e" transform="translate(139.013672 0)"/>
      <use xlink:href="#DejaVuSans-65" transform="translate(202.392578 0)"/>
      <use xlink:href="#DejaVuSans-72" transform="translate(263.916016 0)"/>
      <use xlink:href="#DejaVuSans-61" transform="translate(305.029297 0)"/>
      <use xlink:href="#DejaVuSans-63" transform="translate(366.308594 0)"/>
      <use xlink:href="#DejaVuSans-6a" transform="translate(421.289062 0)"/>
      <use xlink:href="#DejaVuSans-65" transform="translate(449.072266 0)"/>
     </g>
    </g>
   </g>
   <g id="matplotlib.axis_2">
    <g id="ytick_1">
     <g id="line2d_19">
      <path d="M 57.6 133.553268 
L 414.72 133.553268 
" clip-path="url(#p09e3f8253b)" style="fill: none; stroke: #b0b0b0; stroke-width: 0.8; stroke-linecap: square"/>
     </g>
     <g id="line2d_20">
      <defs>
       <path id="md8417bddb8" d="M 0 0 
L -3.5 0 
" style="stroke: #000000; stroke-width: 0.8"/>
      </defs>
      <g>
       <use xlink:href="#md8417bddb8" x="57.6" y="133.553268" style="stroke: #000000; stroke-width: 0.8"/>
      </g>
     </g>
     <g id="text_11">
      <!-- $\mathdefault{10^{2}}$ -->
      <g transform="translate(33 137.352487) scale(0.1 -0.1)">
       <use xlink:href="#DejaVuSans-31" transform="translate(0 0.765625)"/>
       <use xlink:href="#DejaVuSans-30" transform="translate(63.623047 0.765625)"/>
       <use xlink:href="#DejaVuSans-32" transform="translate(128.203125 39.046875) scale(0.7)"/>
      </g>
     </g>
    </g>
    <g id="text_12">
     <!-- Przystosowanie -->
     <g transform="translate(26.920312 213.170187) rotate(-90) scale(0.1 -0.1)">
      <defs>
       <path id="DejaVuSans-50" d="M 1259 4147 
L 1259 2394 
L 2053 2394 
Q 2494 2394 2734 2622 
Q 2975 2850 2975 3272 
Q 2975 3691 2734 3919 
Q 2494 4147 2053 4147 
L 1259 4147 
z
M 628 4666 
L 2053 4666 
Q 2838 4666 3239 4311 
Q 3641 3956 3641 3272 
Q 3641 2581 3239 2228 
Q 2838 1875 2053 1875 
L 1259 1875 
L 1259 0 
L 628 0 
L 628 4666 
z
" transform="scale(0.015625)"/>
       <path id="DejaVuSans-7a" d="M 353 3500 
L 3084 3500 
L 3084 2975 
L 922 459 
L 3084 459 
L 3084 0 
L 275 0 
L 275 525 
L 2438 3041 
L 353 3041 
L 353 3500 
z
" transform="scale(0.015625)"/>
       <path id="DejaVuSans-79" d="M 2059 -325 
Q 1816 -950 1584 -1140 
Q 1353 -1331 966 -1331 
L 506 -1331 
L 506 -850 
L 844 -850 
Q 1081 -850 1212 -737 
Q 1344 -625 1503 -206 
L 1606 56 
L 191 3500 
L 800 3500 
L 1894 763 
L 2988 3500 
L 3597 3500 
L 2059 -325 
z
" transform="scale(0.015625)"/>
       <path id="DejaVuSans-73" d="M 2834 3397 
L 2834 2853 
Q 2591 2978 2328 3040 
Q 2066 3103 1784 3103 
Q 1356 3103 1142 2972 
Q 928 2841 928 2578 
Q 928 2378 1081 2264 
Q 1234 2150 1697 2047 
L 1894 2003 
Q 2506 1872 2764 1633 
Q 3022 1394 3022 966 
Q 3022 478 2636 193 
Q 2250 -91 1575 -91 
Q 1294 -91 989 -36 
Q 684 19 347 128 
L 347 722 
Q 666 556 975 473 
Q 1284 391 1588 391 
Q 1994 391 2212 530 
Q 2431 669 2431 922 
Q 2431 1156 2273 1281 
Q 2116 1406 1581 1522 
L 1381 1569 
Q 847 1681 609 1914 
Q 372 2147 372 2553 
Q 372 3047 722 3315 
Q 1072 3584 1716 3584 
Q 2034 3584 2315 3537 
Q 2597 3491 2834 3397 
z
" transform="scale(0.015625)"/>
       <path id="DejaVuSans-74" d="M 1172 4494 
L 1172 3500 
L 2356 3500 
L 2356 3053 
L 1172 3053 
L 1172 1153 
Q 1172 725 1289 603 
Q 1406 481 1766 481 
L 2356 481 
L 2356 0 
L 1766 0 
Q 1100 0 847 248 
Q 594 497 594 1153 
L 594 3053 
L 172 3053 
L 172 3500 
L 594 3500 
L 594 4494 
L 1172 4494 
z
" transform="scale(0.015625)"/>
       <path id="DejaVuSans-6f" d="M 1959 3097 
Q 1497 3097 1228 2736 
Q 959 2375 959 1747 
Q 959 1119 1226 758 
Q 1494 397 1959 397 
Q 2419 397 2687 759 
Q 2956 1122 2956 1747 
Q 2956 2369 2687 2733 
Q 2419 3097 1959 3097 
z
M 1959 3584 
Q 2709 3584 3137 3096 
Q 3566 2609 3566 1747 
Q 3566 888 3137 398 
Q 2709 -91 1959 -91 
Q 1206 -91 779 398 
Q 353 888 353 1747 
Q 353 2609 779 3096 
Q 1206 3584 1959 3584 
z
" transform="scale(0.015625)"/>
       <path id="DejaVuSans-77" d="M 269 3500 
L 844 3500 
L 1563 769 
L 2278 3500 
L 2956 3500 
L 3675 769 
L 4391 3500 
L 4966 3500 
L 4050 0 
L 3372 0 
L 2619 2869 
L 1863 0 
L 1184 0 
L 269 3500 
z
" transform="scale(0.015625)"/>
       <path id="DejaVuSans-69" d="M 603 3500 
L 1178 3500 
L 1178 0 
L 603 0 
L 603 3500 
z
M 603 4863 
L 1178 4863 
L 1178 4134 
L 603 4134 
L 603 4863 
z
" transform="scale(0.015625)"/>
      </defs>
      <use xlink:href="#DejaVuSans-50"/>
      <use xlink:href="#DejaVuSans-72" transform="translate(58.552734 0)"/>
      <use xlink:href="#DejaVuSans-7a" transform="translate(99.666016 0)"/>
      <use xlink:href="#DejaVuSans-79" transform="translate(152.15625 0)"/>
      <use xlink:href="#DejaVuSans-73" transform="translate(211.335938 0)"/>
      <use xlink:href="#DejaVuSans-74" transform="translate(263.435547 0)"/>
      <use xlink:href="#DejaVuSans-6f" transform="translate(302.644531 0)"/>
      <use xlink:href="#DejaVuSans-73" transform="translate(363.826172 0)"/>
      <use xlink:href="#DejaVuSans-6f" transform="translate(415.925781 0)"/>
      <use xlink:href="#DejaVuSans-77" transform="translate(477.107422 0)"/>
      <use xlink:href="#DejaVuSans-61" transform="translate(558.894531 0)"/>
      <use xlink:href="#DejaVuSans-6e" transform="translate(620.173828 0)"/>
      <use xlink:href="#DejaVuSans-69" transform="translate(683.552734 0)"/>
      <use xlink:href="#DejaVuSans-65" transform="translate(711.335938 0)"/>
     </g>
    </g>
   </g>
   <g id="line2d_21">
    <path d="M 73.832727 295.488 
L 75.464157 235.266488 
L 77.095587 206.859161 
L 78.727017 188.396296 
L 80.358447 183.266942 
L 81.989877 181.584255 
L 85.252736 174.028826 
L 86.884166 173.794797 
L 88.515596 173.817028 
L 90.147026 169.234047 
L 91.778456 164.100083 
L 93.409886 166.462742 
L 95.041316 162.371326 
L 96.672746 162.422899 
L 98.304175 163.717728 
L 99.935605 161.893045 
L 101.567035 158.287437 
L 103.198465 163.271498 
L 104.829895 159.119719 
L 106.461325 162.331986 
L 108.092755 159.573902 
L 109.724185 161.63897 
L 111.355614 163.242247 
L 112.987044 162.819448 
L 114.618474 162.240435 
L 116.249904 162.551963 
L 117.881334 160.19816 
L 119.512764 166.527257 
L 121.144194 161.718806 
L 122.775624 160.399796 
L 124.407053 160.598037 
L 126.038483 161.706626 
L 127.669913 158.560009 
L 129.301343 161.585132 
L 132.564203 160.051565 
L 134.195633 163.080941 
L 135.827063 162.834186 
L 137.458492 159.717825 
L 139.089922 160.647978 
L 140.721352 162.116447 
L 142.352782 161.083664 
L 143.984212 161.181275 
L 145.615642 160.312968 
L 147.247072 161.456476 
L 148.878502 161.485507 
L 150.509931 162.697314 
L 152.141361 161.910279 
L 153.772791 162.770307 
L 155.404221 161.76817 
L 157.035651 162.234222 
L 158.667081 160.965824 
L 160.298511 158.720251 
L 161.929941 161.189747 
L 163.56137 159.404502 
L 165.1928 161.652866 
L 166.82423 160.183179 
L 168.45566 161.549815 
L 170.08709 161.521302 
L 171.71852 160.146534 
L 173.34995 160.446085 
L 174.98138 163.67421 
L 176.61281 163.240915 
L 178.244239 163.840874 
L 179.875669 159.835022 
L 181.507099 164.595102 
L 183.138529 164.813774 
L 184.769959 164.413444 
L 186.401389 162.058876 
L 188.032819 162.233292 
L 189.664249 160.381991 
L 191.295678 160.311812 
L 192.927108 161.546637 
L 194.558538 162.575821 
L 196.189968 159.938535 
L 197.821398 160.859105 
L 199.452828 160.611198 
L 201.084258 161.711299 
L 202.715688 158.469774 
L 204.347117 159.648388 
L 205.978547 162.11962 
L 207.609977 158.623398 
L 209.241407 161.484663 
L 210.872837 157.911828 
L 212.504267 161.629067 
L 214.135697 159.855902 
L 215.767127 160.736837 
L 217.398556 161.402454 
L 219.029986 158.674929 
L 220.661416 160.002382 
L 222.292846 156.973074 
L 223.924276 159.647151 
L 225.555706 158.374984 
L 227.187136 160.105904 
L 228.818566 159.495376 
L 230.449995 159.07011 
L 232.081425 158.951782 
L 233.712855 159.482577 
L 235.344285 162.087761 
L 236.975715 160.678934 
L 238.607145 160.902283 
L 240.238575 157.144519 
L 241.870005 161.245313 
L 243.501434 160.1693 
L 245.132864 158.476872 
L 246.764294 158.53655 
L 248.395724 160.044036 
L 250.027154 157.922244 
L 251.658584 161.4854 
L 253.290014 164.366838 
L 254.921444 161.03317 
L 256.552873 162.544257 
L 258.184303 163.467018 
L 259.815733 161.701978 
L 261.447163 161.150785 
L 263.078593 160.239589 
L 264.710023 162.24416 
L 266.341453 159.834304 
L 267.972883 160.046308 
L 269.604312 159.674689 
L 271.235742 159.583641 
L 272.867172 161.971723 
L 274.498602 160.989031 
L 276.130032 160.779017 
L 277.761462 159.704337 
L 279.392892 160.352012 
L 281.024322 160.046752 
L 282.655751 160.919033 
L 284.287181 158.64876 
L 285.918611 160.035107 
L 287.550041 159.746044 
L 289.181471 159.205359 
L 290.812901 162.446201 
L 292.444331 157.522683 
L 294.075761 160.09799 
L 295.70719 158.170947 
L 297.33862 161.766267 
L 298.97005 160.694145 
L 300.60148 158.124633 
L 302.23291 160.061984 
L 303.86434 159.99144 
L 307.1272 159.396295 
L 308.75863 160.049583 
L 310.390059 161.780738 
L 312.021489 160.509197 
L 313.652919 158.549343 
L 315.284349 159.201731 
L 316.915779 160.964085 
L 318.547209 160.594596 
L 320.178639 161.87454 
L 321.810069 159.53016 
L 323.441498 163.159751 
L 325.072928 162.231577 
L 326.704358 160.389127 
L 328.335788 160.031618 
L 329.967218 159.489631 
L 331.598648 158.602672 
L 333.230078 159.371621 
L 334.861508 161.02906 
L 336.492937 160.01014 
L 338.124367 158.302196 
L 339.755797 159.116621 
L 341.387227 156.374606 
L 343.018657 158.65214 
L 344.650087 160.54249 
L 346.281517 161.828819 
L 347.912947 159.423882 
L 349.544376 159.000147 
L 351.175806 157.814296 
L 352.807236 157.742543 
L 354.438666 157.798701 
L 356.070096 158.066951 
L 357.701526 157.649322 
L 359.332956 159.406724 
L 360.964386 157.273329 
L 362.595815 159.269789 
L 364.227245 159.31683 
L 365.858675 157.551122 
L 367.490105 158.306255 
L 369.121535 159.456176 
L 370.752965 160.861494 
L 372.384395 156.917155 
L 374.015825 156.323235 
L 375.647254 158.559163 
L 377.278684 158.171148 
L 378.910114 158.882664 
L 380.541544 160.674671 
L 382.172974 158.312861 
L 383.804404 158.743228 
L 385.435834 156.095223 
L 387.067264 157.666234 
L 388.698693 158.304763 
L 390.330123 159.568164 
L 391.961553 157.925783 
L 393.592983 160.769839 
L 395.224413 158.664262 
L 396.855843 158.77722 
L 398.487273 158.456094 
L 398.487273 158.456094 
" clip-path="url(#p09e3f8253b)" style="fill: none; stroke: #0000ff; stroke-width: 1.5; stroke-linecap: square"/>
   </g>
   <g id="line2d_22">
    <path d="M 73.832727 244.884793 
L 75.464157 183.497513 
L 77.095587 162.490551 
L 78.727017 150.80337 
L 80.358447 147.45644 
L 83.621307 146.945968 
L 85.252736 143.824926 
L 86.884166 145.791569 
L 88.515596 146.935737 
L 90.147026 141.646194 
L 91.778456 138.930533 
L 93.409886 141.298025 
L 95.041316 137.243939 
L 96.672746 139.884773 
L 98.304175 139.144015 
L 99.935605 139.721057 
L 101.567035 133.89131 
L 103.198465 140.246024 
L 104.829895 134.488717 
L 106.461325 134.410187 
L 108.092755 136.787987 
L 109.724185 138.349061 
L 111.355614 140.118106 
L 112.987044 141.617952 
L 114.618474 139.31657 
L 116.249904 139.909018 
L 117.881334 137.275334 
L 119.512764 140.388036 
L 121.144194 142.604671 
L 122.775624 135.722441 
L 124.407053 136.42139 
L 126.038483 141.691897 
L 127.669913 136.449768 
L 129.301343 139.768795 
L 130.932773 139.140277 
L 132.564203 139.896064 
L 134.195633 140.101673 
L 135.827063 139.217658 
L 137.458492 139.956769 
L 139.089922 140.530946 
L 140.721352 143.332223 
L 142.352782 137.906793 
L 143.984212 140.258319 
L 145.615642 139.40142 
L 147.247072 139.136688 
L 150.509931 142.540892 
L 152.141361 141.070405 
L 153.772791 141.916936 
L 155.404221 139.143473 
L 158.667081 139.721718 
L 160.298511 136.498867 
L 161.929941 138.392806 
L 163.56137 136.597329 
L 165.1928 139.960181 
L 166.82423 137.057178 
L 168.45566 138.697066 
L 170.08709 138.099636 
L 171.71852 135.782694 
L 173.34995 139.342884 
L 174.98138 143.318686 
L 176.61281 142.952828 
L 178.244239 142.872731 
L 179.875669 137.871336 
L 181.507099 145.898867 
L 183.138529 144.456362 
L 184.769959 144.71298 
L 186.401389 141.166056 
L 188.032819 144.369235 
L 189.664249 139.996156 
L 191.295678 139.312412 
L 192.927108 139.517468 
L 194.558538 141.102783 
L 196.189968 139.590624 
L 197.821398 141.017402 
L 199.452828 141.020303 
L 201.084258 141.214598 
L 202.715688 137.893892 
L 204.347117 138.482918 
L 205.978547 142.053249 
L 207.609977 137.771847 
L 209.241407 140.236048 
L 210.872837 137.437037 
L 212.504267 140.716418 
L 214.135697 139.713787 
L 217.398556 140.975828 
L 219.029986 137.749982 
L 220.661416 138.765265 
L 222.292846 133.515171 
L 223.924276 136.007793 
L 225.555706 137.000537 
L 227.187136 139.089355 
L 228.818566 139.496281 
L 230.449995 138.967117 
L 232.081425 136.89205 
L 235.344285 139.807789 
L 236.975715 139.893821 
L 238.607145 142.526071 
L 240.238575 137.364062 
L 241.870005 138.310716 
L 243.501434 138.740989 
L 245.132864 136.664262 
L 246.764294 137.123648 
L 248.395724 141.455012 
L 250.027154 137.451498 
L 251.658584 138.772422 
L 253.290014 140.621523 
L 254.921444 138.685987 
L 256.552873 141.158254 
L 258.184303 141.8121 
L 259.815733 139.259082 
L 261.447163 139.553923 
L 263.078593 139.212647 
L 264.710023 140.675691 
L 266.341453 138.45053 
L 267.972883 140.041422 
L 269.604312 139.021676 
L 271.235742 139.086695 
L 272.867172 141.16414 
L 274.498602 140.178865 
L 276.130032 138.604267 
L 277.761462 139.060541 
L 279.392892 139.672817 
L 281.024322 140.112976 
L 282.655751 138.998503 
L 284.287181 137.305378 
L 285.918611 139.077278 
L 287.550041 138.832388 
L 289.181471 136.726085 
L 290.812901 142.343528 
L 292.444331 136.986338 
L 294.075761 140.212888 
L 295.70719 135.823348 
L 297.33862 140.75571 
L 298.97005 138.508467 
L 300.60148 137.038886 
L 302.23291 138.493095 
L 303.86434 137.282074 
L 305.49577 136.681689 
L 307.1272 138.895886 
L 308.75863 137.828035 
L 310.390059 139.903019 
L 312.021489 137.283851 
L 313.652919 136.659694 
L 315.284349 136.807347 
L 316.915779 138.970916 
L 318.547209 139.530221 
L 320.178639 141.519575 
L 321.810069 138.897815 
L 323.441498 142.63532 
L 325.072928 141.127023 
L 326.704358 139.856612 
L 328.335788 137.869455 
L 329.967218 138.029575 
L 331.598648 137.753285 
L 333.230078 136.355844 
L 334.861508 140.180936 
L 336.492937 138.895417 
L 338.124367 136.598808 
L 339.755797 138.186537 
L 341.387227 134.180268 
L 343.018657 138.558734 
L 344.650087 140.001536 
L 346.281517 140.530106 
L 347.912947 139.624039 
L 349.544376 135.928361 
L 351.175806 137.726754 
L 352.807236 136.612606 
L 354.438666 136.943994 
L 356.070096 136.243865 
L 357.701526 135.995443 
L 359.332956 136.585666 
L 360.964386 135.080343 
L 362.595815 137.455176 
L 364.227245 137.791616 
L 365.858675 134.773514 
L 367.490105 135.305161 
L 369.121535 138.748666 
L 370.752965 139.099087 
L 372.384395 134.212533 
L 374.015825 133.665411 
L 375.647254 136.458907 
L 377.278684 137.022055 
L 378.910114 136.389041 
L 380.541544 138.966282 
L 382.172974 135.474331 
L 383.804404 138.237472 
L 385.435834 132.67347 
L 387.067264 135.901536 
L 388.698693 134.860908 
L 390.330123 139.074736 
L 391.961553 136.496596 
L 393.592983 141.913514 
L 395.224413 136.325048 
L 396.855843 137.871828 
L 398.487273 135.431242 
L 398.487273 135.431242 
" clip-path="url(#p09e3f8253b)" style="fill: none; stroke-dasharray: 9.6,2.4,1.5,2.4; stroke-dashoffset: 0; stroke: #008000; stroke-width: 1.5"/>
   </g>
   <g id="line2d_23">
    <path d="M 73.832727 160.0447 
L 75.464157 84.552042 
L 77.095587 96.045714 
L 78.727017 92.480265 
L 80.358447 104.365744 
L 81.989877 96.289584 
L 83.621307 108.59224 
L 85.252736 85.06373 
L 86.884166 92.086675 
L 88.515596 113.675692 
L 90.147026 105.109023 
L 91.778456 84.569671 
L 93.409886 66.667255 
L 95.041316 95.863068 
L 96.672746 91.941949 
L 98.304175 85.207744 
L 99.935605 84.989893 
L 101.567035 84.211903 
L 103.198465 104.263903 
L 104.829895 54.469008 
L 106.461325 70.636325 
L 108.092755 96.439624 
L 109.724185 92.662421 
L 111.355614 92.362629 
L 112.987044 108.34057 
L 114.618474 91.891459 
L 116.249904 92.872366 
L 117.881334 92.466699 
L 119.512764 77.239851 
L 121.144194 100.433565 
L 122.775624 57.016464 
L 124.407053 96.02607 
L 126.038483 104.437852 
L 127.669913 88.614973 
L 129.301343 99.87718 
L 130.932773 100.25413 
L 132.564203 104.665586 
L 134.195633 96.03842 
L 135.827063 81.038403 
L 137.458492 92.450494 
L 139.089922 104.741985 
L 140.721352 112.988447 
L 142.352782 88.885948 
L 143.984212 87.960399 
L 145.615642 80.584863 
L 147.247072 96.438696 
L 148.878502 92.139725 
L 152.141361 100.647685 
L 153.772791 103.950711 
L 155.404221 77.023482 
L 157.035651 96.020622 
L 158.667081 99.78671 
L 160.298511 81.259086 
L 161.929941 88.042564 
L 163.56137 70.710054 
L 165.1928 96.07047 
L 166.82423 95.597556 
L 168.45566 85.154144 
L 170.08709 92.461228 
L 171.71852 53.568 
L 173.34995 81.430186 
L 174.98138 66.607526 
L 176.61281 96.168531 
L 178.244239 109.030962 
L 179.875669 96.303329 
L 181.507099 117.639568 
L 183.138529 101.014912 
L 184.769959 96.339781 
L 186.401389 96.249482 
L 188.032819 109.05842 
L 189.664249 108.19777 
L 191.295678 88.182245 
L 192.927108 84.608442 
L 194.558538 88.417085 
L 196.189968 96.034404 
L 197.821398 96.426121 
L 199.452828 109.244102 
L 201.084258 92.049903 
L 202.715688 100.198903 
L 204.347117 76.967177 
L 205.978547 96.36734 
L 207.609977 100.641313 
L 209.241407 84.269965 
L 210.872837 96.591528 
L 212.504267 92.012616 
L 214.135697 100.236412 
L 215.767127 104.691288 
L 217.398556 91.985729 
L 219.029986 80.817463 
L 220.661416 88.038729 
L 222.292846 76.881599 
L 223.924276 73.097304 
L 225.555706 80.490727 
L 227.187136 96.079271 
L 228.818566 85.413366 
L 230.449995 92.562369 
L 232.081425 77.263507 
L 233.712855 96.057219 
L 235.344285 84.824204 
L 236.975715 85.165611 
L 238.607145 96.052443 
L 240.238575 92.243084 
L 241.870005 76.901046 
L 243.501434 108.378644 
L 245.132864 92.797384 
L 246.764294 95.964669 
L 248.395724 104.260238 
L 250.027154 85.090655 
L 251.658584 91.999308 
L 253.290014 88.215923 
L 254.921444 100.452533 
L 256.552873 100.413161 
L 258.184303 104.264724 
L 259.815733 96.377789 
L 261.447163 96.167956 
L 263.078593 96.881278 
L 264.710023 92.537096 
L 266.341453 100.667953 
L 267.972883 96.233532 
L 269.604312 108.246964 
L 271.235742 99.976098 
L 272.867172 100.79435 
L 274.498602 84.075427 
L 276.130032 92.010531 
L 277.761462 88.164465 
L 279.392892 95.631135 
L 281.024322 88.435605 
L 282.655751 89.003443 
L 285.918611 71.152544 
L 287.550041 84.45108 
L 289.181471 73.74603 
L 290.812901 104.61628 
L 292.444331 77.015817 
L 294.075761 100.607037 
L 295.70719 96.055976 
L 297.33862 103.984394 
L 298.97005 87.89805 
L 300.60148 84.813053 
L 302.23291 103.985162 
L 303.86434 92.245179 
L 305.49577 73.675381 
L 307.1272 104.801914 
L 308.75863 84.579278 
L 310.390059 92.125866 
L 312.021489 73.767854 
L 313.652919 84.187374 
L 315.284349 74.112232 
L 316.915779 80.477194 
L 318.547209 92.71846 
L 320.178639 108.939984 
L 321.810069 91.781864 
L 325.072928 100.071369 
L 326.704358 92.113731 
L 328.335788 78.053445 
L 329.967218 108.550905 
L 331.598648 104.499811 
L 333.230078 96.077697 
L 334.861508 96.184832 
L 336.492937 95.846512 
L 338.124367 96.189053 
L 339.755797 96.021159 
L 341.387227 104.135629 
L 343.018657 80.318502 
L 344.650087 96.201371 
L 346.281517 100.096314 
L 347.912947 100.520293 
L 349.544376 96.109479 
L 351.175806 95.796586 
L 352.807236 88.091993 
L 354.438666 95.808336 
L 356.070096 92.926055 
L 357.701526 74.090103 
L 359.332956 73.27252 
L 360.964386 77.250305 
L 362.595815 56.568448 
L 364.227245 100.39676 
L 365.858675 80.787835 
L 367.490105 70.001957 
L 369.121535 95.506674 
L 370.752965 84.746082 
L 372.384395 70.092831 
L 374.015825 63.315431 
L 375.647254 92.171914 
L 377.278684 104.618442 
L 378.910114 84.825312 
L 380.541544 103.932224 
L 382.172974 80.428847 
L 383.804404 85.062027 
L 385.435834 73.551252 
L 387.067264 77.18582 
L 388.698693 77.104127 
L 390.330123 85.010783 
L 391.961553 88.550481 
L 393.592983 113.506905 
L 395.224413 104.624401 
L 396.855843 96.390181 
L 398.487273 70.657214 
L 398.487273 70.657214 
" clip-path="url(#p09e3f8253b)" style="fill: none; stroke: #ff0000; stroke-width: 1.5; stroke-linecap: square"/>
   </g>
   <g id="patch_3">
    <path d="M 57.6 307.584 
L 57.6 41.472 
" style="fill: none; stroke: #000000; stroke-width: 0.8; stroke-linejoin: miter; stroke-linecap: square"/>
   </g>
   <g id="patch_4">
    <path d="M 414.72 307.584 
L 414.72 41.472 
" style="fill: none; stroke: #000000; stroke-width: 0.8; stroke-linejoin: miter; stroke-linecap: square"/>
   </g>
   <g id="patch_5">
    <path d="M 57.6 307.584 
L 414.72 307.584 
" style="fill: none; stroke: #000000; stroke-width: 0.8; stroke-linejoin: miter; stroke-linecap: square"/>
   </g>
   <g id="patch_6">
    <path d="M 57.6 41.472 
L 414.72 41.472 
" style="fill: none; stroke: #000000; stroke-width: 0.8; stroke-linejoin: miter; stroke-linecap: square"/>
   </g>
   <g id="text_13">
    <!-- Średnie i najlepsze przystosowanie w każdej generacji -->
    <g transform="translate(73.26 35.472) scale(0.12 -0.12)">
     <defs>
      <path id="DejaVuSans-15a" d="M 2236 5921 
L 2814 5921 
L 2102 5096 
L 1623 5096 
L 2236 5921 
z
M 3425 4513 
L 3425 3897 
Q 3066 4069 2747 4153 
Q 2428 4238 2131 4238 
Q 1616 4238 1336 4038 
Q 1056 3838 1056 3469 
Q 1056 3159 1242 3001 
Q 1428 2844 1947 2747 
L 2328 2669 
Q 3034 2534 3370 2195 
Q 3706 1856 3706 1288 
Q 3706 609 3251 259 
Q 2797 -91 1919 -91 
Q 1588 -91 1214 -16 
Q 841 59 441 206 
L 441 856 
Q 825 641 1194 531 
Q 1563 422 1919 422 
Q 2459 422 2753 634 
Q 3047 847 3047 1241 
Q 3047 1584 2836 1778 
Q 2625 1972 2144 2069 
L 1759 2144 
Q 1053 2284 737 2584 
Q 422 2884 422 3419 
Q 422 4038 858 4394 
Q 1294 4750 2059 4750 
Q 2388 4750 2728 4690 
Q 3069 4631 3425 4513 
z
" transform="scale(0.015625)"/>
      <path id="DejaVuSans-64" d="M 2906 2969 
L 2906 4863 
L 3481 4863 
L 3481 0 
L 2906 0 
L 2906 525 
Q 2725 213 2448 61 
Q 2172 -91 1784 -91 
Q 1150 -91 751 415 
Q 353 922 353 1747 
Q 353 2572 751 3078 
Q 1150 3584 1784 3584 
Q 2172 3584 2448 3432 
Q 2725 3281 2906 2969 
z
M 947 1747 
Q 947 1113 1208 752 
Q 1469 391 1925 391 
Q 2381 391 2643 752 
Q 2906 1113 2906 1747 
Q 2906 2381 2643 2742 
Q 2381 3103 1925 3103 
Q 1469 3103 1208 2742 
Q 947 2381 947 1747 
z
" transform="scale(0.015625)"/>
      <path id="DejaVuSans-20" transform="scale(0.015625)"/>
      <path id="DejaVuSans-6c" d="M 603 4863 
L 1178 4863 
L 1178 0 
L 603 0 
L 603 4863 
z
" transform="scale(0.015625)"/>
      <path id="DejaVuSans-70" d="M 1159 525 
L 1159 -1331 
L 581 -1331 
L 581 3500 
L 1159 3500 
L 1159 2969 
Q 1341 3281 1617 3432 
Q 1894 3584 2278 3584 
Q 2916 3584 3314 3078 
Q 3713 2572 3713 1747 
Q 3713 922 3314 415 
Q 2916 -91 2278 -91 
Q 1894 -91 1617 61 
Q 1341 213 1159 525 
z
M 3116 1747 
Q 3116 2381 2855 2742 
Q 2594 3103 2138 3103 
Q 1681 3103 1420 2742 
Q 1159 2381 1159 1747 
Q 1159 1113 1420 752 
Q 1681 391 2138 391 
Q 2594 391 2855 752 
Q 3116 1113 3116 1747 
z
" transform="scale(0.015625)"/>
      <path id="DejaVuSans-6b" d="M 581 4863 
L 1159 4863 
L 1159 1991 
L 2875 3500 
L 3609 3500 
L 1753 1863 
L 3688 0 
L 2938 0 
L 1159 1709 
L 1159 0 
L 581 0 
L 581 4863 
z
" transform="scale(0.015625)"/>
      <path id="DejaVuSans-17c" d="M 1378 4863 
L 1953 4863 
L 1953 4134 
L 1378 4134 
L 1378 4863 
z
M 1672 3584 
L 1672 3584 
z
M 353 3500 
L 3084 3500 
L 3084 2975 
L 922 459 
L 3084 459 
L 3084 0 
L 275 0 
L 275 525 
L 2438 3041 
L 353 3041 
L 353 3500 
z
" transform="scale(0.015625)"/>
      <path id="DejaVuSans-67" d="M 2906 1791 
Q 2906 2416 2648 2759 
Q 2391 3103 1925 3103 
Q 1463 3103 1205 2759 
Q 947 2416 947 1791 
Q 947 1169 1205 825 
Q 1463 481 1925 481 
Q 2391 481 2648 825 
Q 2906 1169 2906 1791 
z
M 3481 434 
Q 3481 -459 3084 -895 
Q 2688 -1331 1869 -1331 
Q 1566 -1331 1297 -1286 
Q 1028 -1241 775 -1147 
L 775 -588 
Q 1028 -725 1275 -790 
Q 1522 -856 1778 -856 
Q 2344 -856 2625 -561 
Q 2906 -266 2906 331 
L 2906 616 
Q 2728 306 2450 153 
Q 2172 0 1784 0 
Q 1141 0 747 490 
Q 353 981 353 1791 
Q 353 2603 747 3093 
Q 1141 3584 1784 3584 
Q 2172 3584 2450 3431 
Q 2728 3278 2906 2969 
L 2906 3500 
L 3481 3500 
L 3481 434 
z
" transform="scale(0.015625)"/>
     </defs>
     <use xlink:href="#DejaVuSans-15a"/>
     <use xlink:href="#DejaVuSans-72" transform="translate(63.476562 0)"/>
     <use xlink:href="#DejaVuSans-65" transform="translate(102.339844 0)"/>
     <use xlink:href="#DejaVuSans-64" transform="translate(163.863281 0)"/>
     <use xlink:href="#DejaVuSans-6e" transform="translate(227.339844 0)"/>
     <use xlink:href="#DejaVuSans-69" transform="translate(290.71875 0)"/>
     <use xlink:href="#DejaVuSans-65" transform="translate(318.501953 0)"/>
     <use xlink:href="#DejaVuSans-20" transform="translate(380.025391 0)"/>
     <use xlink:href="#DejaVuSans-69" transform="translate(411.8125 0)"/>
     <use xlink:href="#DejaVuSans-20" transform="translate(439.595703 0)"/>
     <use xlink:href="#DejaVuSans-6e" transform="translate(471.382812 0)"/>
     <use xlink:href="#DejaVuSans-61" transform="translate(534.761719 0)"/>
     <use xlink:href="#DejaVuSans-6a" transform="translate(596.041016 0)"/>
     <use xlink:href="#DejaVuSans-6c" transform="translate(623.824219 0)"/>
     <use xlink:href="#DejaVuSans-65" transform="translate(651.607422 0)"/>
     <use xlink:href="#DejaVuSans-70" transform="translate(713.130859 0)"/>
     <use xlink:href="#DejaVuSans-73" transform="translate(776.607422 0)"/>
     <use xlink:href="#DejaVuSans-7a" transform="translate(828.707031 0)"/>
     <use xlink:href="#DejaVuSans-65" transform="translate(881.197266 0)"/>
     <use xlink:href="#DejaVuSans-20" transform="translate(942.720703 0)"/>
     <use xlink:href="#DejaVuSans-70" transform="translate(974.507812 0)"/>
     <use xlink:href="#DejaVuSans-72" transform="translate(1037.984375 0)"/>
     <use xlink:href="#DejaVuSans-7a" transform="translate(1079.097656 0)"/>
     <use xlink:href="#DejaVuSans-79" transform="translate(1131.587891 0)"/>
     <use xlink:href="#DejaVuSans-73" transform="translate(1190.767578 0)"/>
     <use xlink:href="#DejaVuSans-74" transform="translate(1242.867188 0)"/>
     <use xlink:href="#DejaVuSans-6f" transform="translate(1282.076172 0)"/>
     <use xlink:href="#DejaVuSans-73" transform="translate(1343.257812 0)"/>
     <use xlink:href="#DejaVuSans-6f" transform="translate(1395.357422 0)"/>
     <use xlink:href="#DejaVuSans-77" transform="translate(1456.539062 0)"/>
     <use xlink:href="#DejaVuSans-61" transform="translate(1538.326172 0)"/>
     <use xlink:href="#DejaVuSans-6e" transform="translate(1599.605469 0)"/>
     <use xlink:href="#DejaVuSans-69" transform="translate(1662.984375 0)"/>
     <use xlink:href="#DejaVuSans-65" transform="translate(1690.767578 0)"/>
     <use xlink:href="#DejaVuSans-20" transform="translate(1752.291016 0)"/>
     <use xlink:href="#DejaVuSans-77" transform="translate(1784.078125 0)"/>
     <use xlink:href="#DejaVuSans-20" transform="translate(1865.865234 0)"/>
     <use xlink:href="#DejaVuSans-6b" transform="translate(1897.652344 0)"/>
     <use xlink:href="#DejaVuSans-61" transform="translate(1953.8125 0)"/>
     <use xlink:href="#DejaVuSans-17c" transform="translate(2015.091797 0)"/>
     <use xlink:href="#DejaVuSans-64" transform="translate(2067.582031 0)"/>
     <use xlink:href="#DejaVuSans-65" transform="translate(2131.058594 0)"/>
     <use xlink:href="#DejaVuSans-6a" transform="translate(2192.582031 0)"/>
     <use xlink:href="#DejaVuSans-20" transform="translate(2220.365234 0)"/>
     <use xlink:href="#DejaVuSans-67" transform="translate(2252.152344 0)"/>
     <use xlink:href="#DejaVuSans-65" transform="translate(2315.628906 0)"/>
     <use xlink:href="#DejaVuSans-6e" transform="translate(2377.152344 0)"/>
     <use xlink:href="#DejaVuSans-65" transform="translate(2440.53125 0)"/>
     <use xlink:href="#DejaVuSans-72" transform="translate(2502.054688 0)"/>
     <use xlink:href="#DejaVuSans-61" transform="translate(2543.167969 0)"/>
     <use xlink:href="#DejaVuSans-63" transform="translate(2604.447266 0)"/>
     <use xlink:href="#DejaVuSans-6a" transform="translate(2659.427734 0)"/>
     <use xlink:href="#DejaVuSans-69" transform="translate(2687.210938 0)"/>
    </g>
   </g>
   <g id="legend_1">
    <g id="patch_7">
     <path d="M 279.790313 302.584 
L 407.72 302.584 
Q 409.72 302.584 409.72 300.584 
L 409.72 257.549625 
Q 409.72 255.549625 407.72 255.549625 
L 279.790313 255.549625 
Q 277.790313 255.549625 277.790313 257.549625 
L 277.790313 300.584 
Q 277.790313 302.584 279.790313 302.584 
z
" style="fill: #ffffff; opacity: 0.8; stroke: #cccccc; stroke-linejoin: miter"/>
    </g>
    <g id="line2d_24">
     <path d="M 281.790313 263.648062 
L 291.790313 263.648062 
L 301.790313 263.648062 
" style="fill: none; stroke: #0000ff; stroke-width: 1.5; stroke-linecap: square"/>
    </g>
    <g id="text_14">
     <!-- Średnia -->
     <g transform="translate(309.790313 267.148062) scale(0.1 -0.1)">
      <use xlink:href="#DejaVuSans-15a"/>
      <use xlink:href="#DejaVuSans-72" transform="translate(63.476562 0)"/>
      <use xlink:href="#DejaVuSans-65" transform="translate(102.339844 0)"/>
      <use xlink:href="#DejaVuSans-64" transform="translate(163.863281 0)"/>
      <use xlink:href="#DejaVuSans-6e" transform="translate(227.339844 0)"/>
      <use xlink:href="#DejaVuSans-69" transform="translate(290.71875 0)"/>
      <use xlink:href="#DejaVuSans-61" transform="translate(318.501953 0)"/>
     </g>
    </g>
    <g id="line2d_25">
     <path d="M 281.790313 278.326188 
L 291.790313 278.326188 
L 301.790313 278.326188 
" style="fill: none; stroke-dasharray: 9.6,2.4,1.5,2.4; stroke-dashoffset: 0; stroke: #008000; stroke-width: 1.5"/>
    </g>
    <g id="text_15">
     <!-- ±1 Odchylenie std. -->
     <g transform="translate(309.790313 281.826188) scale(0.1 -0.1)">
      <defs>
       <path id="DejaVuSans-b1" d="M 2944 4013 
L 2944 2803 
L 4684 2803 
L 4684 2272 
L 2944 2272 
L 2944 1063 
L 2419 1063 
L 2419 2272 
L 678 2272 
L 678 2803 
L 2419 2803 
L 2419 4013 
L 2944 4013 
z
M 678 531 
L 4684 531 
L 4684 0 
L 678 0 
L 678 531 
z
" transform="scale(0.015625)"/>
       <path id="DejaVuSans-4f" d="M 2522 4238 
Q 1834 4238 1429 3725 
Q 1025 3213 1025 2328 
Q 1025 1447 1429 934 
Q 1834 422 2522 422 
Q 3209 422 3611 934 
Q 4013 1447 4013 2328 
Q 4013 3213 3611 3725 
Q 3209 4238 2522 4238 
z
M 2522 4750 
Q 3503 4750 4090 4092 
Q 4678 3434 4678 2328 
Q 4678 1225 4090 567 
Q 3503 -91 2522 -91 
Q 1538 -91 948 565 
Q 359 1222 359 2328 
Q 359 3434 948 4092 
Q 1538 4750 2522 4750 
z
" transform="scale(0.015625)"/>
       <path id="DejaVuSans-68" d="M 3513 2113 
L 3513 0 
L 2938 0 
L 2938 2094 
Q 2938 2591 2744 2837 
Q 2550 3084 2163 3084 
Q 1697 3084 1428 2787 
Q 1159 2491 1159 1978 
L 1159 0 
L 581 0 
L 581 4863 
L 1159 4863 
L 1159 2956 
Q 1366 3272 1645 3428 
Q 1925 3584 2291 3584 
Q 2894 3584 3203 3211 
Q 3513 2838 3513 2113 
z
" transform="scale(0.015625)"/>
       <path id="DejaVuSans-2e" d="M 684 794 
L 1344 794 
L 1344 0 
L 684 0 
L 684 794 
z
" transform="scale(0.015625)"/>
      </defs>
      <use xlink:href="#DejaVuSans-b1"/>
      <use xlink:href="#DejaVuSans-31" transform="translate(83.789062 0)"/>
      <use xlink:href="#DejaVuSans-20" transform="translate(147.412109 0)"/>
      <use xlink:href="#DejaVuSans-4f" transform="translate(179.199219 0)"/>
      <use xlink:href="#DejaVuSans-64" transform="translate(257.910156 0)"/>
      <use xlink:href="#DejaVuSans-63" transform="translate(321.386719 0)"/>
      <use xlink:href="#DejaVuSans-68" transform="translate(376.367188 0)"/>
      <use xlink:href="#DejaVuSans-79" transform="translate(439.746094 0)"/>
      <use xlink:href="#DejaVuSans-6c" transform="translate(498.925781 0)"/>
      <use xlink:href="#DejaVuSans-65" transform="translate(526.708984 0)"/>
      <use xlink:href="#DejaVuSans-6e" transform="translate(588.232422 0)"/>
      <use xlink:href="#DejaVuSans-69" transform="translate(651.611328 0)"/>
      <use xlink:href="#DejaVuSans-65" transform="translate(679.394531 0)"/>
      <use xlink:href="#DejaVuSans-20" transform="translate(740.917969 0)"/>
      <use xlink:href="#DejaVuSans-73" transform="translate(772.705078 0)"/>
      <use xlink:href="#DejaVuSans-74" transform="translate(824.804688 0)"/>
      <use xlink:href="#DejaVuSans-64" transform="translate(864.013672 0)"/>
      <use xlink:href="#DejaVuSans-2e" transform="translate(927.490234 0)"/>
     </g>
    </g>
    <g id="line2d_26">
     <path d="M 281.790313 293.004312 
L 291.790313 293.004312 
L 301.790313 293.004312 
" style="fill: none; stroke: #ff0000; stroke-width: 1.5; stroke-linecap: square"/>
    </g>
    <g id="text_16">
     <!-- Najlepsze -->
     <g transform="translate(309.790313 296.504312) scale(0.1 -0.1)">
      <defs>
       <path id="DejaVuSans-4e" d="M 628 4666 
L 1478 4666 
L 3547 763 
L 3547 4666 
L 4159 4666 
L 4159 0 
L 3309 0 
L 1241 3903 
L 1241 0 
L 628 0 
L 628 4666 
z
" transform="scale(0.015625)"/>
      </defs>
      <use xlink:href="#DejaVuSans-4e"/>
      <use xlink:href="#DejaVuSans-61" transform="translate(74.804688 0)"/>
      <use xlink:href="#DejaVuSans-6a" transform="translate(136.083984 0)"/>
      <use xlink:href="#DejaVuSans-6c" transform="translate(163.867188 0)"/>
      <use xlink:href="#DejaVuSans-65" transform="translate(191.650391 0)"/>
      <use xlink:href="#DejaVuSans-70" transform="translate(253.173828 0)"/>
      <use xlink:href="#DejaVuSans-73" transform="translate(316.650391 0)"/>
      <use xlink:href="#DejaVuSans-7a" transform="translate(368.75 0)"/>
      <use xlink:href="#DejaVuSans-65" transform="translate(421.240234 0)"/>
     </g>
    </g>
   </g>
  </g>
 </g>
 <defs>
  <clipPath id="p09e3f8253b">
   <rect x="57.6" y="41.472" width="357.12" height="266.112"/>
  </clipPath>
 </defs>
</svg>
