<?xml version="1.0" encoding="utf-8" standalone="no"?>
<!DOCTYPE svg PUBLIC "-//W3C//DTD SVG 1.1//EN"
  "http://www.w3.org/Graphics/SVG/1.1/DTD/svg11.dtd">
<svg xmlns:xlink="http://www.w3.org/1999/xlink" width="720pt" height="432pt" viewBox="0 0 720 432" xmlns="http://www.w3.org/2000/svg" version="1.1">
 <metadata>
  <rdf:RDF xmlns:dc="http://purl.org/dc/elements/1.1/" xmlns:cc="http://creativecommons.org/ns#" xmlns:rdf="http://www.w3.org/1999/02/22-rdf-syntax-ns#">
   <cc:Work>
    <dc:type rdf:resource="http://purl.org/dc/dcmitype/StillImage"/>
    <dc:date>2026-04-27T04:34:11.556201</dc:date>
    <dc:format>image/svg+xml</dc:format>
    <dc:creator>
     <cc:Agent>
      <dc:title>Matplotlib v3.10.8, https://matplotlib.org/</dc:title>
     </cc:Agent>
    </dc:creator>
   </cc:Work>
  </rdf:RDF>
 </metadata>
 <defs>
  <style type="text/css">*{stroke-linejoin: round; stroke-linecap: butt}</style>
 </defs>
 <g id="figure_1">
  <g id="patch_1">
   <path d="M 0 432 
L 720 432 
L 720 0 
L 0 0 
z
" style="fill: #ffffff"/>
  </g>
  <g id="axes_1">
   <g id="patch_2">
    <path d="M 90 384.48 
L 648 384.48 
L 648 51.84 
L 90 51.84 
z
" style="fill: #ffffff"/>
   </g>
   <g id="FillBetweenPolyCollection_1">
    <defs>
     <path id="m08f152db2b" d="M 115.363636 -359.447552 
L 115.363636 -316.126024 
L 120.487603 -344.929196 
L 125.61157 -342.457247 
L 130.735537 -343.274491 
L 135.859504 -344.913249 
L 140.983471 -344.870283 
L 146.107438 -345.728591 
L 151.231405 -347.188347 
L 156.355372 -348.088191 
L 161.479339 -347.458839 
L 166.603306 -350.767473 
L 171.727273 -348.300566 
L 176.85124 -349.436774 
L 181.975207 -349.394125 
L 187.099174 -348.761239 
L 192.22314 -350.630289 
L 197.347107 -351.631547 
L 202.471074 -351.182671 
L 207.595041 -350.798689 
L 212.719008 -351.976784 
L 217.842975 -353.518647 
L 222.966942 -350.506838 
L 228.090909 -352.931712 
L 233.214876 -351.831521 
L 238.338843 -352.128846 
L 243.46281 -354.306304 
L 248.586777 -352.702158 
L 253.710744 -353.988526 
L 258.834711 -353.221709 
L 263.958678 -354.102944 
L 269.082645 -354.493076 
L 274.206612 -352.92275 
L 279.330579 -353.534716 
L 284.454545 -353.568059 
L 289.578512 -354.506653 
L 294.702479 -353.958319 
L 299.826446 -355.138635 
L 304.950413 -353.997475 
L 310.07438 -355.119793 
L 315.198347 -353.399176 
L 320.322314 -354.146747 
L 325.446281 -354.674336 
L 330.570248 -354.211031 
L 335.694215 -354.662968 
L 340.818182 -355.462726 
L 345.942149 -355.009752 
L 351.066116 -354.491619 
L 356.190083 -356.122955 
L 361.31405 -354.321072 
L 366.438017 -354.53098 
L 371.561983 -353.895728 
L 376.68595 -353.701838 
L 381.809917 -354.625624 
L 386.933884 -355.579104 
L 392.057851 -353.762988 
L 397.181818 -356.828873 
L 402.305785 -355.441014 
L 407.429752 -357.045654 
L 412.553719 -356.409736 
L 417.677686 -354.693232 
L 422.801653 -353.893571 
L 427.92562 -353.773715 
L 433.049587 -353.847215 
L 438.173554 -354.846088 
L 443.297521 -355.963391 
L 448.421488 -353.411043 
L 453.545455 -354.790028 
L 458.669421 -354.38404 
L 463.793388 -354.587436 
L 468.917355 -354.039392 
L 474.041322 -353.263105 
L 479.165289 -355.077608 
L 484.289256 -354.077212 
L 489.413223 -355.220398 
L 494.53719 -355.732478 
L 499.661157 -356.278094 
L 504.785124 -353.789392 
L 509.909091 -355.482003 
L 515.033058 -355.764484 
L 520.157025 -354.561103 
L 525.280992 -354.633409 
L 530.404959 -354.29638 
L 535.528926 -354.649835 
L 540.652893 -354.316211 
L 545.77686 -355.817709 
L 550.900826 -354.067371 
L 556.024793 -354.400853 
L 561.14876 -355.425439 
L 566.272727 -355.868591 
L 571.396694 -353.886876 
L 576.520661 -355.211024 
L 581.644628 -354.726948 
L 586.768595 -356.000064 
L 591.892562 -355.759399 
L 597.016529 -355.64641 
L 602.140496 -354.24065 
L 607.264463 -354.863033 
L 612.38843 -355.298036 
L 617.512397 -354.856276 
L 622.636364 -355.215332 
L 622.636364 -362.811054 
L 622.636364 -362.811054 
L 617.512397 -362.61829 
L 612.38843 -362.040503 
L 607.264463 -361.538637 
L 602.140496 -360.686262 
L 597.016529 -362.222775 
L 591.892562 -361.872172 
L 586.768595 -362.382899 
L 581.644628 -362.224348 
L 576.520661 -360.844654 
L 571.396694 -362.853056 
L 566.272727 -361.388842 
L 561.14876 -361.01841 
L 556.024793 -364.785114 
L 550.900826 -362.076847 
L 545.77686 -361.552494 
L 540.652893 -362.25978 
L 535.528926 -364.291907 
L 530.404959 -364.328381 
L 525.280992 -363.990566 
L 520.157025 -364.217202 
L 515.033058 -365.04 
L 509.909091 -364.607792 
L 504.785124 -363.560291 
L 499.661157 -361.526957 
L 494.53719 -361.338585 
L 489.413223 -363.547804 
L 484.289256 -360.996944 
L 479.165289 -362.62484 
L 474.041322 -359.773619 
L 468.917355 -363.347157 
L 463.793388 -362.601669 
L 458.669421 -362.445497 
L 453.545455 -361.562013 
L 448.421488 -361.472631 
L 443.297521 -362.876611 
L 438.173554 -360.506013 
L 433.049587 -360.033506 
L 427.92562 -361.954461 
L 422.801653 -359.664055 
L 417.677686 -362.145323 
L 412.553719 -362.148599 
L 407.429752 -361.392773 
L 402.305785 -361.319959 
L 397.181818 -363.571789 
L 392.057851 -364.921315 
L 386.933884 -363.528499 
L 381.809917 -362.786658 
L 376.68595 -359.833585 
L 371.561983 -362.075243 
L 366.438017 -360.245497 
L 361.31405 -360.819384 
L 356.190083 -363.909364 
L 351.066116 -363.275513 
L 345.942149 -360.956436 
L 340.818182 -364.402102 
L 335.694215 -363.838826 
L 330.570248 -361.991599 
L 325.446281 -362.195972 
L 320.322314 -362.956262 
L 315.198347 -359.742314 
L 310.07438 -361.761061 
L 304.950413 -362.685032 
L 299.826446 -361.812409 
L 294.702479 -361.59092 
L 289.578512 -361.575353 
L 284.454545 -360.827549 
L 279.330579 -362.843514 
L 274.206612 -361.226943 
L 269.082645 -359.564918 
L 263.958678 -360.993502 
L 258.834711 -361.692172 
L 253.710744 -362.000235 
L 248.586777 -361.360257 
L 243.46281 -363.540378 
L 238.338843 -361.419438 
L 233.214876 -358.162646 
L 228.090909 -360.843146 
L 222.966942 -359.422161 
L 217.842975 -361.05305 
L 212.719008 -360.482976 
L 207.595041 -362.632051 
L 202.471074 -359.651704 
L 197.347107 -357.488803 
L 192.22314 -360.654038 
L 187.099174 -359.058651 
L 181.975207 -358.162114 
L 176.85124 -360.236139 
L 171.727273 -355.670089 
L 166.603306 -358.547141 
L 161.479339 -361.724195 
L 156.355372 -357.771796 
L 151.231405 -356.09295 
L 146.107438 -355.762224 
L 140.983471 -353.129078 
L 135.859504 -353.967926 
L 130.735537 -351.851203 
L 125.61157 -352.030473 
L 120.487603 -350.164849 
L 115.363636 -359.447552 
z
" style="stroke: #ff0000; stroke-opacity: 0.2"/>
    </defs>
    <g clip-path="url(#pe9963ec0b7)">
     <use xlink:href="#m08f152db2b" x="0" y="432" style="fill: #ff0000; fill-opacity: 0.2; stroke: #ff0000; stroke-opacity: 0.2"/>
    </g>
   </g>
   <g id="matplotlib.axis_1">
    <g id="xtick_1">
     <g id="line2d_1">
      <path d="M 110.239669 384.48 
L 110.239669 51.84 
" clip-path="url(#pe9963ec0b7)" style="fill: none; stroke: #b0b0b0; stroke-width: 0.8; stroke-linecap: square"/>
     </g>
     <g id="line2d_2">
      <defs>
       <path id="m2b8ba9f494" d="M 0 0 
L 0 3.5 
" style="stroke: #000000; stroke-width: 0.8"/>
      </defs>
      <g>
       <use xlink:href="#m2b8ba9f494" x="110.239669" y="384.48" style="stroke: #000000; stroke-width: 0.8"/>
      </g>
     </g>
     <g id="text_1">
      <!-- 0 -->
      <g transform="translate(107.058419 399.078438) scale(0.1 -0.1)">
       <defs>
        <path id="DejaVuSans-30" d="M 2034 4250 
Q 1547 4250 1301 3770 
Q 1056 3291 1056 2328 
Q 1056 1369 1301 889 
Q 1547 409 2034 409 
Q 2525 409 2770 889 
Q 3016 1369 3016 2328 
Q 3016 3291 2770 3770 
Q 2525 4250 2034 4250 
z
M 2034 4750 
Q 2819 4750 3233 4129 
Q 3647 3509 3647 2328 
Q 3647 1150 3233 529 
Q 2819 -91 2034 -91 
Q 1250 -91 836 529 
Q 422 1150 422 2328 
Q 422 3509 836 4129 
Q 1250 4750 2034 4750 
z
" transform="scale(0.015625)"/>
       </defs>
       <use xlink:href="#DejaVuSans-30"/>
      </g>
     </g>
    </g>
    <g id="xtick_2">
     <g id="line2d_3">
      <path d="M 212.719008 384.48 
L 212.719008 51.84 
" clip-path="url(#pe9963ec0b7)" style="fill: none; stroke: #b0b0b0; stroke-width: 0.8; stroke-linecap: square"/>
     </g>
     <g id="line2d_4">
      <g>
       <use xlink:href="#m2b8ba9f494" x="212.719008" y="384.48" style="stroke: #000000; stroke-width: 0.8"/>
      </g>
     </g>
     <g id="text_2">
      <!-- 20 -->
      <g transform="translate(206.356508 399.078438) scale(0.1 -0.1)">
       <defs>
        <path id="DejaVuSans-32" d="M 1228 531 
L 3431 531 
L 3431 0 
L 469 0 
L 469 531 
Q 828 903 1448 1529 
Q 2069 2156 2228 2338 
Q 2531 2678 2651 2914 
Q 2772 3150 2772 3378 
Q 2772 3750 2511 3984 
Q 2250 4219 1831 4219 
Q 1534 4219 1204 4116 
Q 875 4013 500 3803 
L 500 4441 
Q 881 4594 1212 4672 
Q 1544 4750 1819 4750 
Q 2544 4750 2975 4387 
Q 3406 4025 3406 3419 
Q 3406 3131 3298 2873 
Q 3191 2616 2906 2266 
Q 2828 2175 2409 1742 
Q 1991 1309 1228 531 
z
" transform="scale(0.015625)"/>
       </defs>
       <use xlink:href="#DejaVuSans-32"/>
       <use xlink:href="#DejaVuSans-30" transform="translate(63.623047 0)"/>
      </g>
     </g>
    </g>
    <g id="xtick_3">
     <g id="line2d_5">
      <path d="M 315.198347 384.48 
L 315.198347 51.84 
" clip-path="url(#pe9963ec0b7)" style="fill: none; stroke: #b0b0b0; stroke-width: 0.8; stroke-linecap: square"/>
     </g>
     <g id="line2d_6">
      <g>
       <use xlink:href="#m2b8ba9f494" x="315.198347" y="384.48" style="stroke: #000000; stroke-width: 0.8"/>
      </g>
     </g>
     <g id="text_3">
      <!-- 40 -->
      <g transform="translate(308.835847 399.078438) scale(0.1 -0.1)">
       <defs>
        <path id="DejaVuSans-34" d="M 2419 4116 
L 825 1625 
L 2419 1625 
L 2419 4116 
z
M 2253 4666 
L 3047 4666 
L 3047 1625 
L 3713 1625 
L 3713 1100 
L 3047 1100 
L 3047 0 
L 2419 0 
L 2419 1100 
L 313 1100 
L 313 1709 
L 2253 4666 
z
" transform="scale(0.015625)"/>
       </defs>
       <use xlink:href="#DejaVuSans-34"/>
       <use xlink:href="#DejaVuSans-30" transform="translate(63.623047 0)"/>
      </g>
     </g>
    </g>
    <g id="xtick_4">
     <g id="line2d_7">
      <path d="M 417.677686 384.48 
L 417.677686 51.84 
" clip-path="url(#pe9963ec0b7)" style="fill: none; stroke: #b0b0b0; stroke-width: 0.8; stroke-linecap: square"/>
     </g>
     <g id="line2d_8">
      <g>
       <use xlink:href="#m2b8ba9f494" x="417.677686" y="384.48" style="stroke: #000000; stroke-width: 0.8"/>
      </g>
     </g>
     <g id="text_4">
      <!-- 60 -->
      <g transform="translate(411.315186 399.078438) scale(0.1 -0.1)">
       <defs>
        <path id="DejaVuSans-36" d="M 2113 2584 
Q 1688 2584 1439 2293 
Q 1191 2003 1191 1497 
Q 1191 994 1439 701 
Q 1688 409 2113 409 
Q 2538 409 2786 701 
Q 3034 994 3034 1497 
Q 3034 2003 2786 2293 
Q 2538 2584 2113 2584 
z
M 3366 4563 
L 3366 3988 
Q 3128 4100 2886 4159 
Q 2644 4219 2406 4219 
Q 1781 4219 1451 3797 
Q 1122 3375 1075 2522 
Q 1259 2794 1537 2939 
Q 1816 3084 2150 3084 
Q 2853 3084 3261 2657 
Q 3669 2231 3669 1497 
Q 3669 778 3244 343 
Q 2819 -91 2113 -91 
Q 1303 -91 875 529 
Q 447 1150 447 2328 
Q 447 3434 972 4092 
Q 1497 4750 2381 4750 
Q 2619 4750 2861 4703 
Q 3103 4656 3366 4563 
z
" transform="scale(0.015625)"/>
       </defs>
       <use xlink:href="#DejaVuSans-36"/>
       <use xlink:href="#DejaVuSans-30" transform="translate(63.623047 0)"/>
      </g>
     </g>
    </g>
    <g id="xtick_5">
     <g id="line2d_9">
      <path d="M 520.157025 384.48 
L 520.157025 51.84 
" clip-path="url(#pe9963ec0b7)" style="fill: none; stroke: #b0b0b0; stroke-width: 0.8; stroke-linecap: square"/>
     </g>
     <g id="line2d_10">
      <g>
       <use xlink:href="#m2b8ba9f494" x="520.157025" y="384.48" style="stroke: #000000; stroke-width: 0.8"/>
      </g>
     </g>
     <g id="text_5">
      <!-- 80 -->
      <g transform="translate(513.794525 399.078438) scale(0.1 -0.1)">
       <defs>
        <path id="DejaVuSans-38" d="M 2034 2216 
Q 1584 2216 1326 1975 
Q 1069 1734 1069 1313 
Q 1069 891 1326 650 
Q 1584 409 2034 409 
Q 2484 409 2743 651 
Q 3003 894 3003 1313 
Q 3003 1734 2745 1975 
Q 2488 2216 2034 2216 
z
M 1403 2484 
Q 997 2584 770 2862 
Q 544 3141 544 3541 
Q 544 4100 942 4425 
Q 1341 4750 2034 4750 
Q 2731 4750 3128 4425 
Q 3525 4100 3525 3541 
Q 3525 3141 3298 2862 
Q 3072 2584 2669 2484 
Q 3125 2378 3379 2068 
Q 3634 1759 3634 1313 
Q 3634 634 3220 271 
Q 2806 -91 2034 -91 
Q 1263 -91 848 271 
Q 434 634 434 1313 
Q 434 1759 690 2068 
Q 947 2378 1403 2484 
z
M 1172 3481 
Q 1172 3119 1398 2916 
Q 1625 2713 2034 2713 
Q 2441 2713 2670 2916 
Q 2900 3119 2900 3481 
Q 2900 3844 2670 4047 
Q 2441 4250 2034 4250 
Q 1625 4250 1398 4047 
Q 1172 3844 1172 3481 
z
" transform="scale(0.015625)"/>
       </defs>
       <use xlink:href="#DejaVuSans-38"/>
       <use xlink:href="#DejaVuSans-30" transform="translate(63.623047 0)"/>
      </g>
     </g>
    </g>
    <g id="xtick_6">
     <g id="line2d_11">
      <path d="M 622.636364 384.48 
L 622.636364 51.84 
" clip-path="url(#pe9963ec0b7)" style="fill: none; stroke: #b0b0b0; stroke-width: 0.8; stroke-linecap: square"/>
     </g>
     <g id="line2d_12">
      <g>
       <use xlink:href="#m2b8ba9f494" x="622.636364" y="384.48" style="stroke: #000000; stroke-width: 0.8"/>
      </g>
     </g>
     <g id="text_6">
      <!-- 100 -->
      <g transform="translate(613.092614 399.078438) scale(0.1 -0.1)">
       <defs>
        <path id="DejaVuSans-31" d="M 794 531 
L 1825 531 
L 1825 4091 
L 703 3866 
L 703 4441 
L 1819 4666 
L 2450 4666 
L 2450 531 
L 3481 531 
L 3481 0 
L 794 0 
L 794 531 
z
" transform="scale(0.015625)"/>
       </defs>
       <use xlink:href="#DejaVuSans-31"/>
       <use xlink:href="#DejaVuSans-30" transform="translate(63.623047 0)"/>
       <use xlink:href="#DejaVuSans-30" transform="translate(127.246094 0)"/>
      </g>
     </g>
    </g>
    <g id="text_7">
     <!-- Generacje -->
     <g transform="translate(343.469531 412.756563) scale(0.1 -0.1)">
      <defs>
       <path id="DejaVuSans-47" d="M 3809 666 
L 3809 1919 
L 2778 1919 
L 2778 2438 
L 4434 2438 
L 4434 434 
Q 4069 175 3628 42 
Q 3188 -91 2688 -91 
Q 1594 -91 976 548 
Q 359 1188 359 2328 
Q 359 3472 976 4111 
Q 1594 4750 2688 4750 
Q 3144 4750 3555 4637 
Q 3966 4525 4313 4306 
L 4313 3634 
Q 3963 3931 3569 4081 
Q 3175 4231 2741 4231 
Q 1884 4231 1454 3753 
Q 1025 3275 1025 2328 
Q 1025 1384 1454 906 
Q 1884 428 2741 428 
Q 3075 428 3337 486 
Q 3600 544 3809 666 
z
" transform="scale(0.015625)"/>
       <path id="DejaVuSans-65" d="M 3597 1894 
L 3597 1613 
L 953 1613 
Q 991 1019 1311 708 
Q 1631 397 2203 397 
Q 2534 397 2845 478 
Q 3156 559 3463 722 
L 3463 178 
Q 3153 47 2828 -22 
Q 2503 -91 2169 -91 
Q 1331 -91 842 396 
Q 353 884 353 1716 
Q 353 2575 817 3079 
Q 1281 3584 2069 3584 
Q 2775 3584 3186 3129 
Q 3597 2675 3597 1894 
z
M 3022 2063 
Q 3016 2534 2758 2815 
Q 2500 3097 2075 3097 
Q 1594 3097 1305 2825 
Q 1016 2553 972 2059 
L 3022 2063 
z
" transform="scale(0.015625)"/>
       <path id="DejaVuSans-6e" d="M 3513 2113 
L 3513 0 
L 2938 0 
L 2938 2094 
Q 2938 2591 2744 2837 
Q 2550 3084 2163 3084 
Q 1697 3084 1428 2787 
Q 1159 2491 1159 1978 
L 1159 0 
L 581 0 
L 581 3500 
L 1159 3500 
L 1159 2956 
Q 1366 3272 1645 3428 
Q 1925 3584 2291 3584 
Q 2894 3584 3203 3211 
Q 3513 2838 3513 2113 
z
" transform="scale(0.015625)"/>
       <path id="DejaVuSans-72" d="M 2631 2963 
Q 2534 3019 2420 3045 
Q 2306 3072 2169 3072 
Q 1681 3072 1420 2755 
Q 1159 2438 1159 1844 
L 1159 0 
L 581 0 
L 581 3500 
L 1159 3500 
L 1159 2956 
Q 1341 3275 1631 3429 
Q 1922 3584 2338 3584 
Q 2397 3584 2469 3576 
Q 2541 3569 2628 3553 
L 2631 2963 
z
" transform="scale(0.015625)"/>
       <path id="DejaVuSans-61" d="M 2194 1759 
Q 1497 1759 1228 1600 
Q 959 1441 959 1056 
Q 959 750 1161 570 
Q 1363 391 1709 391 
Q 2188 391 2477 730 
Q 2766 1069 2766 1631 
L 2766 1759 
L 2194 1759 
z
M 3341 1997 
L 3341 0 
L 2766 0 
L 2766 531 
Q 2569 213 2275 61 
Q 1981 -91 1556 -91 
Q 1019 -91 701 211 
Q 384 513 384 1019 
Q 384 1609 779 1909 
Q 1175 2209 1959 2209 
L 2766 2209 
L 2766 2266 
Q 2766 2663 2505 2880 
Q 2244 3097 1772 3097 
Q 1472 3097 1187 3025 
Q 903 2953 641 2809 
L 641 3341 
Q 956 3463 1253 3523 
Q 1550 3584 1831 3584 
Q 2591 3584 2966 3190 
Q 3341 2797 3341 1997 
z
" transform="scale(0.015625)"/>
       <path id="DejaVuSans-63" d="M 3122 3366 
L 3122 2828 
Q 2878 2963 2633 3030 
Q 2388 3097 2138 3097 
Q 1578 3097 1268 2742 
Q 959 2388 959 1747 
Q 959 1106 1268 751 
Q 1578 397 2138 397 
Q 2388 397 2633 464 
Q 2878 531 3122 666 
L 3122 134 
Q 2881 22 2623 -34 
Q 2366 -91 2075 -91 
Q 1284 -91 818 406 
Q 353 903 353 1747 
Q 353 2603 823 3093 
Q 1294 3584 2113 3584 
Q 2378 3584 2631 3529 
Q 2884 3475 3122 3366 
z
" transform="scale(0.015625)"/>
       <path id="DejaVuSans-6a" d="M 603 3500 
L 1178 3500 
L 1178 -63 
Q 1178 -731 923 -1031 
Q 669 -1331 103 -1331 
L -116 -1331 
L -116 -844 
L 38 -844 
Q 366 -844 484 -692 
Q 603 -541 603 -63 
L 603 3500 
z
M 603 4863 
L 1178 4863 
L 1178 4134 
L 603 4134 
L 603 4863 
z
" transform="scale(0.015625)"/>
      </defs>
      <use xlink:href="#DejaVuSans-47"/>
      <use xlink:href="#DejaVuSans-65" transform="translate(77.490234 0)"/>
      <use xlink:href="#DejaVuSans-6e" transform="translate(139.013672 0)"/>
      <use xlink:href="#DejaVuSans-65" transform="translate(202.392578 0)"/>
      <use xlink:href="#DejaVuSans-72" transform="translate(263.916016 0)"/>
      <use xlink:href="#DejaVuSans-61" transform="translate(305.029297 0)"/>
      <use xlink:href="#DejaVuSans-63" transform="translate(366.308594 0)"/>
      <use xlink:href="#DejaVuSans-6a" transform="translate(421.289062 0)"/>
      <use xlink:href="#DejaVuSans-65" transform="translate(449.072266 0)"/>
     </g>
    </g>
   </g>
   <g id="matplotlib.axis_2">
    <g id="ytick_1">
     <g id="line2d_13">
      <path d="M 90 336.505812 
L 648 336.505812 
" clip-path="url(#pe9963ec0b7)" style="fill: none; stroke: #b0b0b0; stroke-width: 0.8; stroke-linecap: square"/>
     </g>
     <g id="line2d_14">
      <defs>
       <path id="m0ac125dd9b" d="M 0 0 
L -3.5 0 
" style="stroke: #000000; stroke-width: 0.8"/>
      </defs>
      <g>
       <use xlink:href="#m0ac125dd9b" x="90" y="336.505812" style="stroke: #000000; stroke-width: 0.8"/>
      </g>
     </g>
     <g id="text_8">
      <!-- −600 -->
      <g transform="translate(55.532812 340.305031) scale(0.1 -0.1)">
       <defs>
        <path id="DejaVuSans-2212" d="M 678 2272 
L 4684 2272 
L 4684 1741 
L 678 1741 
L 678 2272 
z
" transform="scale(0.015625)"/>
       </defs>
       <use xlink:href="#DejaVuSans-2212"/>
       <use xlink:href="#DejaVuSans-36" transform="translate(83.789062 0)"/>
       <use xlink:href="#DejaVuSans-30" transform="translate(147.412109 0)"/>
       <use xlink:href="#DejaVuSans-30" transform="translate(211.035156 0)"/>
      </g>
     </g>
    </g>
    <g id="ytick_2">
     <g id="line2d_15">
      <path d="M 90 284.494024 
L 648 284.494024 
" clip-path="url(#pe9963ec0b7)" style="fill: none; stroke: #b0b0b0; stroke-width: 0.8; stroke-linecap: square"/>
     </g>
     <g id="line2d_16">
      <g>
       <use xlink:href="#m0ac125dd9b" x="90" y="284.494024" style="stroke: #000000; stroke-width: 0.8"/>
      </g>
     </g>
     <g id="text_9">
      <!-- −500 -->
      <g transform="translate(55.532812 288.293243) scale(0.1 -0.1)">
       <defs>
        <path id="DejaVuSans-35" d="M 691 4666 
L 3169 4666 
L 3169 4134 
L 1269 4134 
L 1269 2991 
Q 1406 3038 1543 3061 
Q 1681 3084 1819 3084 
Q 2600 3084 3056 2656 
Q 3513 2228 3513 1497 
Q 3513 744 3044 326 
Q 2575 -91 1722 -91 
Q 1428 -91 1123 -41 
Q 819 9 494 109 
L 494 744 
Q 775 591 1075 516 
Q 1375 441 1709 441 
Q 2250 441 2565 725 
Q 2881 1009 2881 1497 
Q 2881 1984 2565 2268 
Q 2250 2553 1709 2553 
Q 1456 2553 1204 2497 
Q 953 2441 691 2322 
L 691 4666 
z
" transform="scale(0.015625)"/>
       </defs>
       <use xlink:href="#DejaVuSans-2212"/>
       <use xlink:href="#DejaVuSans-35" transform="translate(83.789062 0)"/>
       <use xlink:href="#DejaVuSans-30" transform="translate(147.412109 0)"/>
       <use xlink:href="#DejaVuSans-30" transform="translate(211.035156 0)"/>
      </g>
     </g>
    </g>
    <g id="ytick_3">
     <g id="line2d_17">
      <path d="M 90 232.482236 
L 648 232.482236 
" clip-path="url(#pe9963ec0b7)" style="fill: none; stroke: #b0b0b0; stroke-width: 0.8; stroke-linecap: square"/>
     </g>
     <g id="line2d_18">
      <g>
       <use xlink:href="#m0ac125dd9b" x="90" y="232.482236" style="stroke: #000000; stroke-width: 0.8"/>
      </g>
     </g>
     <g id="text_10">
      <!-- −400 -->
      <g transform="translate(55.532812 236.281455) scale(0.1 -0.1)">
       <use xlink:href="#DejaVuSans-2212"/>
       <use xlink:href="#DejaVuSans-34" transform="translate(83.789062 0)"/>
       <use xlink:href="#DejaVuSans-30" transform="translate(147.412109 0)"/>
       <use xlink:href="#DejaVuSans-30" transform="translate(211.035156 0)"/>
      </g>
     </g>
    </g>
    <g id="ytick_4">
     <g id="line2d_19">
      <path d="M 90 180.470448 
L 648 180.470448 
" clip-path="url(#pe9963ec0b7)" style="fill: none; stroke: #b0b0b0; stroke-width: 0.8; stroke-linecap: square"/>
     </g>
     <g id="line2d_20">
      <g>
       <use xlink:href="#m0ac125dd9b" x="90" y="180.470448" style="stroke: #000000; stroke-width: 0.8"/>
      </g>
     </g>
     <g id="text_11">
      <!-- −300 -->
      <g transform="translate(55.532812 184.269667) scale(0.1 -0.1)">
       <defs>
        <path id="DejaVuSans-33" d="M 2597 2516 
Q 3050 2419 3304 2112 
Q 3559 1806 3559 1356 
Q 3559 666 3084 287 
Q 2609 -91 1734 -91 
Q 1441 -91 1130 -33 
Q 819 25 488 141 
L 488 750 
Q 750 597 1062 519 
Q 1375 441 1716 441 
Q 2309 441 2620 675 
Q 2931 909 2931 1356 
Q 2931 1769 2642 2001 
Q 2353 2234 1838 2234 
L 1294 2234 
L 1294 2753 
L 1863 2753 
Q 2328 2753 2575 2939 
Q 2822 3125 2822 3475 
Q 2822 3834 2567 4026 
Q 2313 4219 1838 4219 
Q 1578 4219 1281 4162 
Q 984 4106 628 3988 
L 628 4550 
Q 988 4650 1302 4700 
Q 1616 4750 1894 4750 
Q 2613 4750 3031 4423 
Q 3450 4097 3450 3541 
Q 3450 3153 3228 2886 
Q 3006 2619 2597 2516 
z
" transform="scale(0.015625)"/>
       </defs>
       <use xlink:href="#DejaVuSans-2212"/>
       <use xlink:href="#DejaVuSans-33" transform="translate(83.789062 0)"/>
       <use xlink:href="#DejaVuSans-30" transform="translate(147.412109 0)"/>
       <use xlink:href="#DejaVuSans-30" transform="translate(211.035156 0)"/>
      </g>
     </g>
    </g>
    <g id="ytick_5">
     <g id="line2d_21">
      <path d="M 90 128.45866 
L 648 128.45866 
" clip-path="url(#pe9963ec0b7)" style="fill: none; stroke: #b0b0b0; stroke-width: 0.8; stroke-linecap: square"/>
     </g>
     <g id="line2d_22">
      <g>
       <use xlink:href="#m0ac125dd9b" x="90" y="128.45866" style="stroke: #000000; stroke-width: 0.8"/>
      </g>
     </g>
     <g id="text_12">
      <!-- −200 -->
      <g transform="translate(55.532812 132.257879) scale(0.1 -0.1)">
       <use xlink:href="#DejaVuSans-2212"/>
       <use xlink:href="#DejaVuSans-32" transform="translate(83.789062 0)"/>
       <use xlink:href="#DejaVuSans-30" transform="translate(147.412109 0)"/>
       <use xlink:href="#DejaVuSans-30" transform="translate(211.035156 0)"/>
      </g>
     </g>
    </g>
    <g id="ytick_6">
     <g id="line2d_23">
      <path d="M 90 76.446872 
L 648 76.446872 
" clip-path="url(#pe9963ec0b7)" style="fill: none; stroke: #b0b0b0; stroke-width: 0.8; stroke-linecap: square"/>
     </g>
     <g id="line2d_24">
      <g>
       <use xlink:href="#m0ac125dd9b" x="90" y="76.446872" style="stroke: #000000; stroke-width: 0.8"/>
      </g>
     </g>
     <g id="text_13">
      <!-- −100 -->
      <g transform="translate(55.532812 80.246091) scale(0.1 -0.1)">
       <use xlink:href="#DejaVuSans-2212"/>
       <use xlink:href="#DejaVuSans-31" transform="translate(83.789062 0)"/>
       <use xlink:href="#DejaVuSans-30" transform="translate(147.412109 0)"/>
       <use xlink:href="#DejaVuSans-30" transform="translate(211.035156 0)"/>
      </g>
     </g>
    </g>
    <g id="text_14">
     <!-- Fitness -->
     <g transform="translate(49.453125 235.477187) rotate(-90) scale(0.1 -0.1)">
      <defs>
       <path id="DejaVuSans-46" d="M 628 4666 
L 3309 4666 
L 3309 4134 
L 1259 4134 
L 1259 2759 
L 3109 2759 
L 3109 2228 
L 1259 2228 
L 1259 0 
L 628 0 
L 628 4666 
z
" transform="scale(0.015625)"/>
       <path id="DejaVuSans-69" d="M 603 3500 
L 1178 3500 
L 1178 0 
L 603 0 
L 603 3500 
z
M 603 4863 
L 1178 4863 
L 1178 4134 
L 603 4134 
L 603 4863 
z
" transform="scale(0.015625)"/>
       <path id="DejaVuSans-74" d="M 1172 4494 
L 1172 3500 
L 2356 3500 
L 2356 3053 
L 1172 3053 
L 1172 1153 
Q 1172 725 1289 603 
Q 1406 481 1766 481 
L 2356 481 
L 2356 0 
L 1766 0 
Q 1100 0 847 248 
Q 594 497 594 1153 
L 594 3053 
L 172 3053 
L 172 3500 
L 594 3500 
L 594 4494 
L 1172 4494 
z
" transform="scale(0.015625)"/>
       <path id="DejaVuSans-73" d="M 2834 3397 
L 2834 2853 
Q 2591 2978 2328 3040 
Q 2066 3103 1784 3103 
Q 1356 3103 1142 2972 
Q 928 2841 928 2578 
Q 928 2378 1081 2264 
Q 1234 2150 1697 2047 
L 1894 2003 
Q 2506 1872 2764 1633 
Q 3022 1394 3022 966 
Q 3022 478 2636 193 
Q 2250 -91 1575 -91 
Q 1294 -91 989 -36 
Q 684 19 347 128 
L 347 722 
Q 666 556 975 473 
Q 1284 391 1588 391 
Q 1994 391 2212 530 
Q 2431 669 2431 922 
Q 2431 1156 2273 1281 
Q 2116 1406 1581 1522 
L 1381 1569 
Q 847 1681 609 1914 
Q 372 2147 372 2553 
Q 372 3047 722 3315 
Q 1072 3584 1716 3584 
Q 2034 3584 2315 3537 
Q 2597 3491 2834 3397 
z
" transform="scale(0.015625)"/>
      </defs>
      <use xlink:href="#DejaVuSans-46"/>
      <use xlink:href="#DejaVuSans-69" transform="translate(50.269531 0)"/>
      <use xlink:href="#DejaVuSans-74" transform="translate(78.052734 0)"/>
      <use xlink:href="#DejaVuSans-6e" transform="translate(117.261719 0)"/>
      <use xlink:href="#DejaVuSans-65" transform="translate(180.640625 0)"/>
      <use xlink:href="#DejaVuSans-73" transform="translate(242.164062 0)"/>
      <use xlink:href="#DejaVuSans-73" transform="translate(294.263672 0)"/>
     </g>
    </g>
   </g>
   <g id="line2d_25">
    <path d="M 115.363636 94.213212 
L 120.487603 84.452978 
L 125.61157 84.75614 
L 130.735537 84.437153 
L 135.859504 82.559412 
L 140.983471 83.00032 
L 146.107438 81.254592 
L 151.231405 80.359351 
L 156.355372 79.070007 
L 161.479339 77.408483 
L 166.603306 77.342693 
L 171.727273 80.014672 
L 176.85124 77.163544 
L 181.975207 78.221881 
L 187.099174 78.090055 
L 192.22314 76.357837 
L 197.347107 77.439825 
L 202.471074 76.582812 
L 207.595041 75.28463 
L 212.719008 75.77012 
L 217.842975 74.714152 
L 222.966942 77.035501 
L 228.090909 75.112571 
L 233.214876 77.002916 
L 238.338843 75.225858 
L 243.46281 73.076659 
L 248.586777 74.968792 
L 253.710744 74.005619 
L 258.834711 74.543059 
L 263.958678 74.451777 
L 269.082645 74.971003 
L 274.206612 74.925154 
L 279.330579 73.810885 
L 284.454545 74.802196 
L 289.578512 73.958997 
L 294.702479 74.225381 
L 299.826446 73.524478 
L 304.950413 73.658746 
L 310.07438 73.559573 
L 315.198347 75.429255 
L 320.322314 73.448495 
L 325.446281 73.564846 
L 330.570248 73.898685 
L 335.694215 72.749103 
L 340.818182 72.067586 
L 345.942149 74.016906 
L 351.066116 73.116434 
L 356.190083 71.983841 
L 361.31405 74.429772 
L 366.438017 74.611761 
L 371.561983 74.014515 
L 376.68595 75.232288 
L 381.809917 73.293859 
L 386.933884 72.446199 
L 392.057851 72.657848 
L 397.181818 71.799669 
L 402.305785 73.619514 
L 407.429752 72.780786 
L 412.553719 72.720832 
L 417.677686 73.580723 
L 422.801653 75.221187 
L 427.92562 74.135912 
L 433.049587 75.059639 
L 438.173554 74.32395 
L 443.297521 72.579999 
L 448.421488 74.558163 
L 453.545455 73.823979 
L 458.669421 73.585232 
L 463.793388 73.405448 
L 468.917355 73.306726 
L 474.041322 75.481638 
L 479.165289 73.148776 
L 484.289256 74.462922 
L 489.413223 72.615899 
L 494.53719 73.464469 
L 499.661157 73.097475 
L 504.785124 73.325158 
L 509.909091 71.955103 
L 515.033058 71.597758 
L 520.157025 72.610847 
L 525.280992 72.688012 
L 530.404959 72.68762 
L 535.528926 72.529129 
L 540.652893 73.712005 
L 545.77686 73.314898 
L 550.900826 73.927891 
L 556.024793 72.407016 
L 561.14876 73.778076 
L 566.272727 73.371284 
L 571.396694 73.630034 
L 576.520661 73.972161 
L 581.644628 73.524352 
L 586.768595 72.808519 
L 591.892562 73.184215 
L 597.016529 73.065408 
L 602.140496 74.536544 
L 607.264463 73.799165 
L 612.38843 73.33073 
L 617.512397 73.262717 
L 622.636364 72.986807 
" clip-path="url(#pe9963ec0b7)" style="fill: none; stroke: #ff0000; stroke-width: 1.5; stroke-linecap: square"/>
   </g>
   <g id="line2d_26">
    <path d="M 115.363636 369.36 
L 120.487603 331.101646 
L 125.61157 310.65857 
L 130.735537 305.90777 
L 135.859504 289.231224 
L 140.983471 268.661613 
L 146.107438 260.839763 
L 151.231405 244.757137 
L 156.355372 235.70142 
L 161.479339 219.658734 
L 166.603306 218.102551 
L 171.727273 207.941266 
L 176.85124 198.131358 
L 181.975207 195.000941 
L 187.099174 184.263556 
L 192.22314 178.837285 
L 197.347107 170.586504 
L 202.471074 158.953836 
L 207.595041 154.410123 
L 212.719008 150.58267 
L 217.842975 142.717903 
L 222.966942 141.610905 
L 228.090909 136.039901 
L 233.214876 129.709326 
L 238.338843 128.851597 
L 243.46281 128.332994 
L 248.586777 129.277609 
L 253.710744 122.715157 
L 258.834711 127.223512 
L 263.958678 123.19612 
L 269.082645 119.963824 
L 274.206612 116.782279 
L 279.330579 117.125157 
L 284.454545 115.589801 
L 289.578512 115.883528 
L 294.702479 111.405721 
L 299.826446 110.861185 
L 304.950413 113.67812 
L 310.07438 112.607391 
L 315.198347 111.69294 
L 320.322314 111.93344 
L 325.446281 109.588431 
L 330.570248 110.42509 
L 335.694215 108.48084 
L 340.818182 107.257361 
L 345.942149 112.09905 
L 351.066116 107.488145 
L 356.190083 105.069665 
L 361.31405 105.681878 
L 366.438017 105.310874 
L 371.561983 105.204495 
L 376.68595 105.919841 
L 381.809917 104.750652 
L 386.933884 106.762822 
L 392.057851 103.996147 
L 397.181818 105.64571 
L 402.305785 103.974013 
L 407.429752 103.076954 
L 412.553719 105.92405 
L 417.677686 106.313604 
L 422.801653 105.225327 
L 427.92562 103.859555 
L 433.049587 103.485158 
L 438.173554 104.293437 
L 443.297521 103.313408 
L 448.421488 103.258707 
L 453.545455 104.782927 
L 458.669421 104.719159 
L 463.793388 101.996229 
L 468.917355 102.394407 
L 474.041322 102.841407 
L 479.165289 101.957813 
L 484.289256 102.17624 
L 489.413223 103.756394 
L 494.53719 100.008603 
L 499.661157 99.666111 
L 504.785124 101.420228 
L 509.909091 100.84179 
L 515.033058 99.809063 
L 520.157025 100.048891 
L 525.280992 101.132117 
L 530.404959 100.461638 
L 535.528926 100.335645 
L 540.652893 102.991473 
L 545.77686 99.537476 
L 550.900826 98.816214 
L 556.024793 97.782487 
L 561.14876 100.932789 
L 566.272727 101.915244 
L 571.396694 98.099066 
L 576.520661 99.689994 
L 581.644628 99.598751 
L 586.768595 99.116726 
L 591.892562 100.725616 
L 597.016529 100.920602 
L 602.140496 98.107249 
L 607.264463 97.587818 
L 612.38843 99.252433 
L 617.512397 99.043186 
L 622.636364 98.304529 
" clip-path="url(#pe9963ec0b7)" style="fill: none; stroke: #0000ff; stroke-width: 1.5; stroke-linecap: square"/>
   </g>
   <g id="patch_3">
    <path d="M 90 384.48 
L 90 51.84 
" style="fill: none; stroke: #000000; stroke-width: 0.8; stroke-linejoin: miter; stroke-linecap: square"/>
   </g>
   <g id="patch_4">
    <path d="M 648 384.48 
L 648 51.84 
" style="fill: none; stroke: #000000; stroke-width: 0.8; stroke-linejoin: miter; stroke-linecap: square"/>
   </g>
   <g id="patch_5">
    <path d="M 90 384.48 
L 648 384.48 
" style="fill: none; stroke: #000000; stroke-width: 0.8; stroke-linejoin: miter; stroke-linecap: square"/>
   </g>
   <g id="patch_6">
    <path d="M 90 51.84 
L 648 51.84 
" style="fill: none; stroke: #000000; stroke-width: 0.8; stroke-linejoin: miter; stroke-linecap: square"/>
   </g>
   <g id="text_15">
    <!-- Zagregowane statystyki z 20 niezależnych ewolucji -->
    <g transform="translate(214.952812 45.84) scale(0.12 -0.12)">
     <defs>
      <path id="DejaVuSans-5a" d="M 359 4666 
L 4025 4666 
L 4025 4184 
L 1075 531 
L 4097 531 
L 4097 0 
L 288 0 
L 288 481 
L 3238 4134 
L 359 4134 
L 359 4666 
z
" transform="scale(0.015625)"/>
      <path id="DejaVuSans-67" d="M 2906 1791 
Q 2906 2416 2648 2759 
Q 2391 3103 1925 3103 
Q 1463 3103 1205 2759 
Q 947 2416 947 1791 
Q 947 1169 1205 825 
Q 1463 481 1925 481 
Q 2391 481 2648 825 
Q 2906 1169 2906 1791 
z
M 3481 434 
Q 3481 -459 3084 -895 
Q 2688 -1331 1869 -1331 
Q 1566 -1331 1297 -1286 
Q 1028 -1241 775 -1147 
L 775 -588 
Q 1028 -725 1275 -790 
Q 1522 -856 1778 -856 
Q 2344 -856 2625 -561 
Q 2906 -266 2906 331 
L 2906 616 
Q 2728 306 2450 153 
Q 2172 0 1784 0 
Q 1141 0 747 490 
Q 353 981 353 1791 
Q 353 2603 747 3093 
Q 1141 3584 1784 3584 
Q 2172 3584 2450 3431 
Q 2728 3278 2906 2969 
L 2906 3500 
L 3481 3500 
L 3481 434 
z
" transform="scale(0.015625)"/>
      <path id="DejaVuSans-6f" d="M 1959 3097 
Q 1497 3097 1228 2736 
Q 959 2375 959 1747 
Q 959 1119 1226 758 
Q 1494 397 1959 397 
Q 2419 397 2687 759 
Q 2956 1122 2956 1747 
Q 2956 2369 2687 2733 
Q 2419 3097 1959 3097 
z
M 1959 3584 
Q 2709 3584 3137 3096 
Q 3566 2609 3566 1747 
Q 3566 888 3137 398 
Q 2709 -91 1959 -91 
Q 1206 -91 779 398 
Q 353 888 353 1747 
Q 353 2609 779 3096 
Q 1206 3584 1959 3584 
z
" transform="scale(0.015625)"/>
      <path id="DejaVuSans-77" d="M 269 3500 
L 844 3500 
L 1563 769 
L 2278 3500 
L 2956 3500 
L 3675 769 
L 4391 3500 
L 4966 3500 
L 4050 0 
L 3372 0 
L 2619 2869 
L 1863 0 
L 1184 0 
L 269 3500 
z
" transform="scale(0.015625)"/>
      <path id="DejaVuSans-20" transform="scale(0.015625)"/>
      <path id="DejaVuSans-79" d="M 2059 -325 
Q 1816 -950 1584 -1140 
Q 1353 -1331 966 -1331 
L 506 -1331 
L 506 -850 
L 844 -850 
Q 1081 -850 1212 -737 
Q 1344 -625 1503 -206 
L 1606 56 
L 191 3500 
L 800 3500 
L 1894 763 
L 2988 3500 
L 3597 3500 
L 2059 -325 
z
" transform="scale(0.015625)"/>
      <path id="DejaVuSans-6b" d="M 581 4863 
L 1159 4863 
L 1159 1991 
L 2875 3500 
L 3609 3500 
L 1753 1863 
L 3688 0 
L 2938 0 
L 1159 1709 
L 1159 0 
L 581 0 
L 581 4863 
z
" transform="scale(0.015625)"/>
      <path id="DejaVuSans-7a" d="M 353 3500 
L 3084 3500 
L 3084 2975 
L 922 459 
L 3084 459 
L 3084 0 
L 275 0 
L 275 525 
L 2438 3041 
L 353 3041 
L 353 3500 
z
" transform="scale(0.015625)"/>
      <path id="DejaVuSans-6c" d="M 603 4863 
L 1178 4863 
L 1178 0 
L 603 0 
L 603 4863 
z
" transform="scale(0.015625)"/>
      <path id="DejaVuSans-17c" d="M 1378 4863 
L 1953 4863 
L 1953 4134 
L 1378 4134 
L 1378 4863 
z
M 1672 3584 
L 1672 3584 
z
M 353 3500 
L 3084 3500 
L 3084 2975 
L 922 459 
L 3084 459 
L 3084 0 
L 275 0 
L 275 525 
L 2438 3041 
L 353 3041 
L 353 3500 
z
" transform="scale(0.015625)"/>
      <path id="DejaVuSans-68" d="M 3513 2113 
L 3513 0 
L 2938 0 
L 2938 2094 
Q 2938 2591 2744 2837 
Q 2550 3084 2163 3084 
Q 1697 3084 1428 2787 
Q 1159 2491 1159 1978 
L 1159 0 
L 581 0 
L 581 4863 
L 1159 4863 
L 1159 2956 
Q 1366 3272 1645 3428 
Q 1925 3584 2291 3584 
Q 2894 3584 3203 3211 
Q 3513 2838 3513 2113 
z
" transform="scale(0.015625)"/>
      <path id="DejaVuSans-75" d="M 544 1381 
L 544 3500 
L 1119 3500 
L 1119 1403 
Q 1119 906 1312 657 
Q 1506 409 1894 409 
Q 2359 409 2629 706 
Q 2900 1003 2900 1516 
L 2900 3500 
L 3475 3500 
L 3475 0 
L 2900 0 
L 2900 538 
Q 2691 219 2414 64 
Q 2138 -91 1772 -91 
Q 1169 -91 856 284 
Q 544 659 544 1381 
z
M 1991 3584 
L 1991 3584 
z
" transform="scale(0.015625)"/>
     </defs>
     <use xlink:href="#DejaVuSans-5a"/>
     <use xlink:href="#DejaVuSans-61" transform="translate(68.505859 0)"/>
     <use xlink:href="#DejaVuSans-67" transform="translate(129.785156 0)"/>
     <use xlink:href="#DejaVuSans-72" transform="translate(193.261719 0)"/>
     <use xlink:href="#DejaVuSans-65" transform="translate(232.125 0)"/>
     <use xlink:href="#DejaVuSans-67" transform="translate(293.648438 0)"/>
     <use xlink:href="#DejaVuSans-6f" transform="translate(357.125 0)"/>
     <use xlink:href="#DejaVuSans-77" transform="translate(418.306641 0)"/>
     <use xlink:href="#DejaVuSans-61" transform="translate(500.09375 0)"/>
     <use xlink:href="#DejaVuSans-6e" transform="translate(561.373047 0)"/>
     <use xlink:href="#DejaVuSans-65" transform="translate(624.751953 0)"/>
     <use xlink:href="#DejaVuSans-20" transform="translate(686.275391 0)"/>
     <use xlink:href="#DejaVuSans-73" transform="translate(718.0625 0)"/>
     <use xlink:href="#DejaVuSans-74" transform="translate(770.162109 0)"/>
     <use xlink:href="#DejaVuSans-61" transform="translate(809.371094 0)"/>
     <use xlink:href="#DejaVuSans-74" transform="translate(870.650391 0)"/>
     <use xlink:href="#DejaVuSans-79" transform="translate(909.859375 0)"/>
     <use xlink:href="#DejaVuSans-73" transform="translate(969.039062 0)"/>
     <use xlink:href="#DejaVuSans-74" transform="translate(1021.138672 0)"/>
     <use xlink:href="#DejaVuSans-79" transform="translate(1060.347656 0)"/>
     <use xlink:href="#DejaVuSans-6b" transform="translate(1119.527344 0)"/>
     <use xlink:href="#DejaVuSans-69" transform="translate(1177.4375 0)"/>
     <use xlink:href="#DejaVuSans-20" transform="translate(1205.220703 0)"/>
     <use xlink:href="#DejaVuSans-7a" transform="translate(1237.007812 0)"/>
     <use xlink:href="#DejaVuSans-20" transform="translate(1289.498047 0)"/>
     <use xlink:href="#DejaVuSans-32" transform="translate(1321.285156 0)"/>
     <use xlink:href="#DejaVuSans-30" transform="translate(1384.908203 0)"/>
     <use xlink:href="#DejaVuSans-20" transform="translate(1448.53125 0)"/>
     <use xlink:href="#DejaVuSans-6e" transform="translate(1480.318359 0)"/>
     <use xlink:href="#DejaVuSans-69" transform="translate(1543.697266 0)"/>
     <use xlink:href="#DejaVuSans-65" transform="translate(1571.480469 0)"/>
     <use xlink:href="#DejaVuSans-7a" transform="translate(1633.003906 0)"/>
     <use xlink:href="#DejaVuSans-61" transform="translate(1685.494141 0)"/>
     <use xlink:href="#DejaVuSans-6c" transform="translate(1746.773438 0)"/>
     <use xlink:href="#DejaVuSans-65" transform="translate(1774.556641 0)"/>
     <use xlink:href="#DejaVuSans-17c" transform="translate(1836.080078 0)"/>
     <use xlink:href="#DejaVuSans-6e" transform="translate(1888.570312 0)"/>
     <use xlink:href="#DejaVuSans-79" transform="translate(1951.949219 0)"/>
     <use xlink:href="#DejaVuSans-63" transform="translate(2011.128906 0)"/>
     <use xlink:href="#DejaVuSans-68" transform="translate(2066.109375 0)"/>
     <use xlink:href="#DejaVuSans-20" transform="translate(2129.488281 0)"/>
     <use xlink:href="#DejaVuSans-65" transform="translate(2161.275391 0)"/>
     <use xlink:href="#DejaVuSans-77" transform="translate(2222.798828 0)"/>
     <use xlink:href="#DejaVuSans-6f" transform="translate(2304.585938 0)"/>
     <use xlink:href="#DejaVuSans-6c" transform="translate(2365.767578 0)"/>
     <use xlink:href="#DejaVuSans-75" transform="translate(2393.550781 0)"/>
     <use xlink:href="#DejaVuSans-63" transform="translate(2456.929688 0)"/>
     <use xlink:href="#DejaVuSans-6a" transform="translate(2511.910156 0)"/>
     <use xlink:href="#DejaVuSans-69" transform="translate(2539.693359 0)"/>
    </g>
   </g>
   <g id="legend_1">
    <g id="patch_7">
     <path d="M 379.426562 379.48 
L 641 379.48 
Q 643 379.48 643 377.48 
L 643 330.739375 
Q 643 328.739375 641 328.739375 
L 379.426562 328.739375 
Q 377.426562 328.739375 377.426562 330.739375 
L 377.426562 377.48 
Q 377.426562 379.48 379.426562 379.48 
z
" style="fill: #ffffff; opacity: 0.8; stroke: #cccccc; stroke-linejoin: miter"/>
    </g>
    <g id="line2d_27">
     <path d="M 381.426562 338.490937 
L 391.426562 338.490937 
L 401.426562 338.490937 
" style="fill: none; stroke: #ff0000; stroke-width: 1.5; stroke-linecap: square"/>
    </g>
    <g id="text_16">
     <!-- Średnie przystosowanie najlepszego osobnika -->
     <g transform="translate(409.426562 341.990937) scale(0.1 -0.1)">
      <defs>
       <path id="DejaVuSans-15a" d="M 2236 5921 
L 2814 5921 
L 2102 5096 
L 1623 5096 
L 2236 5921 
z
M 3425 4513 
L 3425 3897 
Q 3066 4069 2747 4153 
Q 2428 4238 2131 4238 
Q 1616 4238 1336 4038 
Q 1056 3838 1056 3469 
Q 1056 3159 1242 3001 
Q 1428 2844 1947 2747 
L 2328 2669 
Q 3034 2534 3370 2195 
Q 3706 1856 3706 1288 
Q 3706 609 3251 259 
Q 2797 -91 1919 -91 
Q 1588 -91 1214 -16 
Q 841 59 441 206 
L 441 856 
Q 825 641 1194 531 
Q 1563 422 1919 422 
Q 2459 422 2753 634 
Q 3047 847 3047 1241 
Q 3047 1584 2836 1778 
Q 2625 1972 2144 2069 
L 1759 2144 
Q 1053 2284 737 2584 
Q 422 2884 422 3419 
Q 422 4038 858 4394 
Q 1294 4750 2059 4750 
Q 2388 4750 2728 4690 
Q 3069 4631 3425 4513 
z
" transform="scale(0.015625)"/>
       <path id="DejaVuSans-64" d="M 2906 2969 
L 2906 4863 
L 3481 4863 
L 3481 0 
L 2906 0 
L 2906 525 
Q 2725 213 2448 61 
Q 2172 -91 1784 -91 
Q 1150 -91 751 415 
Q 353 922 353 1747 
Q 353 2572 751 3078 
Q 1150 3584 1784 3584 
Q 2172 3584 2448 3432 
Q 2725 3281 2906 2969 
z
M 947 1747 
Q 947 1113 1208 752 
Q 1469 391 1925 391 
Q 2381 391 2643 752 
Q 2906 1113 2906 1747 
Q 2906 2381 2643 2742 
Q 2381 3103 1925 3103 
Q 1469 3103 1208 2742 
Q 947 2381 947 1747 
z
" transform="scale(0.015625)"/>
       <path id="DejaVuSans-70" d="M 1159 525 
L 1159 -1331 
L 581 -1331 
L 581 3500 
L 1159 3500 
L 1159 2969 
Q 1341 3281 1617 3432 
Q 1894 3584 2278 3584 
Q 2916 3584 3314 3078 
Q 3713 2572 3713 1747 
Q 3713 922 3314 415 
Q 2916 -91 2278 -91 
Q 1894 -91 1617 61 
Q 1341 213 1159 525 
z
M 3116 1747 
Q 3116 2381 2855 2742 
Q 2594 3103 2138 3103 
Q 1681 3103 1420 2742 
Q 1159 2381 1159 1747 
Q 1159 1113 1420 752 
Q 1681 391 2138 391 
Q 2594 391 2855 752 
Q 3116 1113 3116 1747 
z
" transform="scale(0.015625)"/>
       <path id="DejaVuSans-62" d="M 3116 1747 
Q 3116 2381 2855 2742 
Q 2594 3103 2138 3103 
Q 1681 3103 1420 2742 
Q 1159 2381 1159 1747 
Q 1159 1113 1420 752 
Q 1681 391 2138 391 
Q 2594 391 2855 752 
Q 3116 1113 3116 1747 
z
M 1159 2969 
Q 1341 3281 1617 3432 
Q 1894 3584 2278 3584 
Q 2916 3584 3314 3078 
Q 3713 2572 3713 1747 
Q 3713 922 3314 415 
Q 2916 -91 2278 -91 
Q 1894 -91 1617 61 
Q 1341 213 1159 525 
L 1159 0 
L 581 0 
L 581 4863 
L 1159 4863 
L 1159 2969 
z
" transform="scale(0.015625)"/>
      </defs>
      <use xlink:href="#DejaVuSans-15a"/>
      <use xlink:href="#DejaVuSans-72" transform="translate(63.476562 0)"/>
      <use xlink:href="#DejaVuSans-65" transform="translate(102.339844 0)"/>
      <use xlink:href="#DejaVuSans-64" transform="translate(163.863281 0)"/>
      <use xlink:href="#DejaVuSans-6e" transform="translate(227.339844 0)"/>
      <use xlink:href="#DejaVuSans-69" transform="translate(290.71875 0)"/>
      <use xlink:href="#DejaVuSans-65" transform="translate(318.501953 0)"/>
      <use xlink:href="#DejaVuSans-20" transform="translate(380.025391 0)"/>
      <use xlink:href="#DejaVuSans-70" transform="translate(411.8125 0)"/>
      <use xlink:href="#DejaVuSans-72" transform="translate(475.289062 0)"/>
      <use xlink:href="#DejaVuSans-7a" transform="translate(516.402344 0)"/>
      <use xlink:href="#DejaVuSans-79" transform="translate(568.892578 0)"/>
      <use xlink:href="#DejaVuSans-73" transform="translate(628.072266 0)"/>
      <use xlink:href="#DejaVuSans-74" transform="translate(680.171875 0)"/>
      <use xlink:href="#DejaVuSans-6f" transform="translate(719.380859 0)"/>
      <use xlink:href="#DejaVuSans-73" transform="translate(780.5625 0)"/>
      <use xlink:href="#DejaVuSans-6f" transform="translate(832.662109 0)"/>
      <use xlink:href="#DejaVuSans-77" transform="translate(893.84375 0)"/>
      <use xlink:href="#DejaVuSans-61" transform="translate(975.630859 0)"/>
      <use xlink:href="#DejaVuSans-6e" transform="translate(1036.910156 0)"/>
      <use xlink:href="#DejaVuSans-69" transform="translate(1100.289062 0)"/>
      <use xlink:href="#DejaVuSans-65" transform="translate(1128.072266 0)"/>
      <use xlink:href="#DejaVuSans-20" transform="translate(1189.595703 0)"/>
      <use xlink:href="#DejaVuSans-6e" transform="translate(1221.382812 0)"/>
      <use xlink:href="#DejaVuSans-61" transform="translate(1284.761719 0)"/>
      <use xlink:href="#DejaVuSans-6a" transform="translate(1346.041016 0)"/>
      <use xlink:href="#DejaVuSans-6c" transform="translate(1373.824219 0)"/>
      <use xlink:href="#DejaVuSans-65" transform="translate(1401.607422 0)"/>
      <use xlink:href="#DejaVuSans-70" transform="translate(1463.130859 0)"/>
      <use xlink:href="#DejaVuSans-73" transform="translate(1526.607422 0)"/>
      <use xlink:href="#DejaVuSans-7a" transform="translate(1578.707031 0)"/>
      <use xlink:href="#DejaVuSans-65" transform="translate(1631.197266 0)"/>
      <use xlink:href="#DejaVuSans-67" transform="translate(1692.720703 0)"/>
      <use xlink:href="#DejaVuSans-6f" transform="translate(1756.197266 0)"/>
      <use xlink:href="#DejaVuSans-20" transform="translate(1817.378906 0)"/>
      <use xlink:href="#DejaVuSans-6f" transform="translate(1849.166016 0)"/>
      <use xlink:href="#DejaVuSans-73" transform="translate(1910.347656 0)"/>
      <use xlink:href="#DejaVuSans-6f" transform="translate(1962.447266 0)"/>
      <use xlink:href="#DejaVuSans-62" transform="translate(2023.628906 0)"/>
      <use xlink:href="#DejaVuSans-6e" transform="translate(2087.105469 0)"/>
      <use xlink:href="#DejaVuSans-69" transform="translate(2150.484375 0)"/>
      <use xlink:href="#DejaVuSans-6b" transform="translate(2178.267578 0)"/>
      <use xlink:href="#DejaVuSans-61" transform="translate(2234.427734 0)"/>
     </g>
    </g>
    <g id="patch_8">
     <path d="M 381.426562 357.069062 
L 401.426562 357.069062 
L 401.426562 350.069062 
L 381.426562 350.069062 
z
" style="fill: #ff0000; fill-opacity: 0.2; stroke: #ff0000; stroke-opacity: 0.2; stroke-linejoin: miter"/>
    </g>
    <g id="text_17">
     <!-- ±1 Odchylenie std. najlepszych osobników -->
     <g transform="translate(409.426562 357.069062) scale(0.1 -0.1)">
      <defs>
       <path id="DejaVuSans-b1" d="M 2944 4013 
L 2944 2803 
L 4684 2803 
L 4684 2272 
L 2944 2272 
L 2944 1063 
L 2419 1063 
L 2419 2272 
L 678 2272 
L 678 2803 
L 2419 2803 
L 2419 4013 
L 2944 4013 
z
M 678 531 
L 4684 531 
L 4684 0 
L 678 0 
L 678 531 
z
" transform="scale(0.015625)"/>
       <path id="DejaVuSans-4f" d="M 2522 4238 
Q 1834 4238 1429 3725 
Q 1025 3213 1025 2328 
Q 1025 1447 1429 934 
Q 1834 422 2522 422 
Q 3209 422 3611 934 
Q 4013 1447 4013 2328 
Q 4013 3213 3611 3725 
Q 3209 4238 2522 4238 
z
M 2522 4750 
Q 3503 4750 4090 4092 
Q 4678 3434 4678 2328 
Q 4678 1225 4090 567 
Q 3503 -91 2522 -91 
Q 1538 -91 948 565 
Q 359 1222 359 2328 
Q 359 3434 948 4092 
Q 1538 4750 2522 4750 
z
" transform="scale(0.015625)"/>
       <path id="DejaVuSans-2e" d="M 684 794 
L 1344 794 
L 1344 0 
L 684 0 
L 684 794 
z
" transform="scale(0.015625)"/>
       <path id="DejaVuSans-f3" d="M 1959 3097 
Q 1497 3097 1228 2736 
Q 959 2375 959 1747 
Q 959 1119 1226 758 
Q 1494 397 1959 397 
Q 2419 397 2687 759 
Q 2956 1122 2956 1747 
Q 2956 2369 2687 2733 
Q 2419 3097 1959 3097 
z
M 1959 3584 
Q 2709 3584 3137 3096 
Q 3566 2609 3566 1747 
Q 3566 888 3137 398 
Q 2709 -91 1959 -91 
Q 1206 -91 779 398 
Q 353 888 353 1747 
Q 353 2609 779 3096 
Q 1206 3584 1959 3584 
z
M 2394 5119 
L 3016 5119 
L 1998 3944 
L 1519 3944 
L 2394 5119 
z
" transform="scale(0.015625)"/>
      </defs>
      <use xlink:href="#DejaVuSans-b1"/>
      <use xlink:href="#DejaVuSans-31" transform="translate(83.789062 0)"/>
      <use xlink:href="#DejaVuSans-20" transform="translate(147.412109 0)"/>
      <use xlink:href="#DejaVuSans-4f" transform="translate(179.199219 0)"/>
      <use xlink:href="#DejaVuSans-64" transform="translate(257.910156 0)"/>
      <use xlink:href="#DejaVuSans-63" transform="translate(321.386719 0)"/>
      <use xlink:href="#DejaVuSans-68" transform="translate(376.367188 0)"/>
      <use xlink:href="#DejaVuSans-79" transform="translate(439.746094 0)"/>
      <use xlink:href="#DejaVuSans-6c" transform="translate(498.925781 0)"/>
      <use xlink:href="#DejaVuSans-65" transform="translate(526.708984 0)"/>
      <use xlink:href="#DejaVuSans-6e" transform="translate(588.232422 0)"/>
      <use xlink:href="#DejaVuSans-69" transform="translate(651.611328 0)"/>
      <use xlink:href="#DejaVuSans-65" transform="translate(679.394531 0)"/>
      <use xlink:href="#DejaVuSans-20" transform="translate(740.917969 0)"/>
      <use xlink:href="#DejaVuSans-73" transform="translate(772.705078 0)"/>
      <use xlink:href="#DejaVuSans-74" transform="translate(824.804688 0)"/>
      <use xlink:href="#DejaVuSans-64" transform="translate(864.013672 0)"/>
      <use xlink:href="#DejaVuSans-2e" transform="translate(927.490234 0)"/>
      <use xlink:href="#DejaVuSans-20" transform="translate(959.277344 0)"/>
      <use xlink:href="#DejaVuSans-6e" transform="translate(991.064453 0)"/>
      <use xlink:href="#DejaVuSans-61" transform="translate(1054.443359 0)"/>
      <use xlink:href="#DejaVuSans-6a" transform="translate(1115.722656 0)"/>
      <use xlink:href="#DejaVuSans-6c" transform="translate(1143.505859 0)"/>
      <use xlink:href="#DejaVuSans-65" transform="translate(1171.289062 0)"/>
      <use xlink:href="#DejaVuSans-70" transform="translate(1232.8125 0)"/>
      <use xlink:href="#DejaVuSans-73" transform="translate(1296.289062 0)"/>
      <use xlink:href="#DejaVuSans-7a" transform="translate(1348.388672 0)"/>
      <use xlink:href="#DejaVuSans-79" transform="translate(1400.878906 0)"/>
      <use xlink:href="#DejaVuSans-63" transform="translate(1460.058594 0)"/>
      <use xlink:href="#DejaVuSans-68" transform="translate(1515.039062 0)"/>
      <use xlink:href="#DejaVuSans-20" transform="translate(1578.417969 0)"/>
      <use xlink:href="#DejaVuSans-6f" transform="translate(1610.205078 0)"/>
      <use xlink:href="#DejaVuSans-73" transform="translate(1671.386719 0)"/>
      <use xlink:href="#DejaVuSans-6f" transform="translate(1723.486328 0)"/>
      <use xlink:href="#DejaVuSans-62" transform="translate(1784.667969 0)"/>
      <use xlink:href="#DejaVuSans-6e" transform="translate(1848.144531 0)"/>
      <use xlink:href="#DejaVuSans-69" transform="translate(1911.523438 0)"/>
      <use xlink:href="#DejaVuSans-6b" transform="translate(1939.306641 0)"/>
      <use xlink:href="#DejaVuSans-f3" transform="translate(1993.591797 0)"/>
      <use xlink:href="#DejaVuSans-77" transform="translate(2054.773438 0)"/>
     </g>
    </g>
    <g id="line2d_28">
     <path d="M 381.426562 369.900312 
L 391.426562 369.900312 
L 401.426562 369.900312 
" style="fill: none; stroke: #0000ff; stroke-width: 1.5; stroke-linecap: square"/>
    </g>
    <g id="text_18">
     <!-- Średnie przystosowanie całej populacji -->
     <g transform="translate(409.426562 373.400312) scale(0.1 -0.1)">
      <defs>
       <path id="DejaVuSans-142" d="M 622 4863 
L 1197 4863 
L 1197 2981 
L 1588 3263 
L 1825 2931 
L 1197 2491 
L 1197 0 
L 622 0 
L 622 2081 
L 238 1806 
L 6 2138 
L 622 2578 
L 622 4863 
z
" transform="scale(0.015625)"/>
      </defs>
      <use xlink:href="#DejaVuSans-15a"/>
      <use xlink:href="#DejaVuSans-72" transform="translate(63.476562 0)"/>
      <use xlink:href="#DejaVuSans-65" transform="translate(102.339844 0)"/>
      <use xlink:href="#DejaVuSans-64" transform="translate(163.863281 0)"/>
      <use xlink:href="#DejaVuSans-6e" transform="translate(227.339844 0)"/>
      <use xlink:href="#DejaVuSans-69" transform="translate(290.71875 0)"/>
      <use xlink:href="#DejaVuSans-65" transform="translate(318.501953 0)"/>
      <use xlink:href="#DejaVuSans-20" transform="translate(380.025391 0)"/>
      <use xlink:href="#DejaVuSans-70" transform="translate(411.8125 0)"/>
      <use xlink:href="#DejaVuSans-72" transform="translate(475.289062 0)"/>
      <use xlink:href="#DejaVuSans-7a" transform="translate(516.402344 0)"/>
      <use xlink:href="#DejaVuSans-79" transform="translate(568.892578 0)"/>
      <use xlink:href="#DejaVuSans-73" transform="translate(628.072266 0)"/>
      <use xlink:href="#DejaVuSans-74" transform="translate(680.171875 0)"/>
      <use xlink:href="#DejaVuSans-6f" transform="translate(719.380859 0)"/>
      <use xlink:href="#DejaVuSans-73" transform="translate(780.5625 0)"/>
      <use xlink:href="#DejaVuSans-6f" transform="translate(832.662109 0)"/>
      <use xlink:href="#DejaVuSans-77" transform="translate(893.84375 0)"/>
      <use xlink:href="#DejaVuSans-61" transform="translate(975.630859 0)"/>
      <use xlink:href="#DejaVuSans-6e" transform="translate(1036.910156 0)"/>
      <use xlink:href="#DejaVuSans-69" transform="translate(1100.289062 0)"/>
      <use xlink:href="#DejaVuSans-65" transform="translate(1128.072266 0)"/>
      <use xlink:href="#DejaVuSans-20" transform="translate(1189.595703 0)"/>
      <use xlink:href="#DejaVuSans-63" transform="translate(1221.382812 0)"/>
      <use xlink:href="#DejaVuSans-61" transform="translate(1276.363281 0)"/>
      <use xlink:href="#DejaVuSans-142" transform="translate(1337.642578 0)"/>
      <use xlink:href="#DejaVuSans-65" transform="translate(1366.060547 0)"/>
      <use xlink:href="#DejaVuSans-6a" transform="translate(1427.583984 0)"/>
      <use xlink:href="#DejaVuSans-20" transform="translate(1455.367188 0)"/>
      <use xlink:href="#DejaVuSans-70" transform="translate(1487.154297 0)"/>
      <use xlink:href="#DejaVuSans-6f" transform="translate(1550.630859 0)"/>
      <use xlink:href="#DejaVuSans-70" transform="translate(1611.8125 0)"/>
      <use xlink:href="#DejaVuSans-75" transform="translate(1675.289062 0)"/>
      <use xlink:href="#DejaVuSans-6c" transform="translate(1738.667969 0)"/>
      <use xlink:href="#DejaVuSans-61" transform="translate(1766.451172 0)"/>
      <use xlink:href="#DejaVuSans-63" transform="translate(1827.730469 0)"/>
      <use xlink:href="#DejaVuSans-6a" transform="translate(1882.710938 0)"/>
      <use xlink:href="#DejaVuSans-69" transform="translate(1910.494141 0)"/>
     </g>
    </g>
   </g>
  </g>
 </g>
 <defs>
  <clipPath id="pe9963ec0b7">
   <rect x="90" y="51.84" width="558" height="332.64"/>
  </clipPath>
 </defs>
</svg>
