<?xml version="1.0" encoding="utf-8" standalone="no"?>
<!DOCTYPE svg PUBLIC "-//W3C//DTD SVG 1.1//EN"
  "http://www.w3.org/Graphics/SVG/1.1/DTD/svg11.dtd">
<svg xmlns:xlink="http://www.w3.org/1999/xlink" width="460.8pt" height="345.6pt" viewBox="0 0 460.8 345.6" xmlns="http://www.w3.org/2000/svg" version="1.1">
 <metadata>
  <rdf:RDF xmlns:dc="http://purl.org/dc/elements/1.1/" xmlns:cc="http://creativecommons.org/ns#" xmlns:rdf="http://www.w3.org/1999/02/22-rdf-syntax-ns#">
   <cc:Work>
    <dc:type rdf:resource="http://purl.org/dc/dcmitype/StillImage"/>
    <dc:date>2026-04-27T04:32:40.733862</dc:date>
    <dc:format>image/svg+xml</dc:format>
    <dc:creator>
     <cc:Agent>
      <dc:title>Matplotlib v3.10.8, https://matplotlib.org/</dc:title>
     </cc:Agent>
    </dc:creator>
   </cc:Work>
  </rdf:RDF>
 </metadata>
 <defs>
  <style type="text/css">*{stroke-linejoin: round; stroke-linecap: butt}</style>
 </defs>
 <g id="figure_1">
  <g id="patch_1">
   <path d="M 0 345.6 
L 460.8 345.6 
L 460.8 0 
L 0 0 
z
" style="fill: #ffffff"/>
  </g>
  <g id="axes_1">
   <g id="patch_2">
    <path d="M 57.6 307.584 
L 414.72 307.584 
L 414.72 41.472 
L 57.6 41.472 
z
" style="fill: #ffffff"/>
   </g>
   <g id="matplotlib.axis_1">
    <g id="xtick_1">
     <g id="line2d_1">
      <path d="M 70.553388 307.584 
L 70.553388 41.472 
" clip-path="url(#pa108c6a87c)" style="fill: none; stroke: #b0b0b0; stroke-width: 0.8; stroke-linecap: square"/>
     </g>
     <g id="line2d_2">
      <defs>
       <path id="m312cc937dc" d="M 0 0 
L 0 3.5 
" style="stroke: #000000; stroke-width: 0.8"/>
      </defs>
      <g>
       <use xlink:href="#m312cc937dc" x="70.553388" y="307.584" style="stroke: #000000; stroke-width: 0.8"/>
      </g>
     </g>
     <g id="text_1">
      <!-- 0 -->
      <g transform="translate(67.372138 322.182437) scale(0.1 -0.1)">
       <defs>
        <path id="DejaVuSans-30" d="M 2034 4250 
Q 1547 4250 1301 3770 
Q 1056 3291 1056 2328 
Q 1056 1369 1301 889 
Q 1547 409 2034 409 
Q 2525 409 2770 889 
Q 3016 1369 3016 2328 
Q 3016 3291 2770 3770 
Q 2525 4250 2034 4250 
z
M 2034 4750 
Q 2819 4750 3233 4129 
Q 3647 3509 3647 2328 
Q 3647 1150 3233 529 
Q 2819 -91 2034 -91 
Q 1250 -91 836 529 
Q 422 1150 422 2328 
Q 422 3509 836 4129 
Q 1250 4750 2034 4750 
z
" transform="scale(0.015625)"/>
       </defs>
       <use xlink:href="#DejaVuSans-30"/>
      </g>
     </g>
    </g>
    <g id="xtick_2">
     <g id="line2d_3">
      <path d="M 136.140165 307.584 
L 136.140165 41.472 
" clip-path="url(#pa108c6a87c)" style="fill: none; stroke: #b0b0b0; stroke-width: 0.8; stroke-linecap: square"/>
     </g>
     <g id="line2d_4">
      <g>
       <use xlink:href="#m312cc937dc" x="136.140165" y="307.584" style="stroke: #000000; stroke-width: 0.8"/>
      </g>
     </g>
     <g id="text_2">
      <!-- 20 -->
      <g transform="translate(129.777665 322.182437) scale(0.1 -0.1)">
       <defs>
        <path id="DejaVuSans-32" d="M 1228 531 
L 3431 531 
L 3431 0 
L 469 0 
L 469 531 
Q 828 903 1448 1529 
Q 2069 2156 2228 2338 
Q 2531 2678 2651 2914 
Q 2772 3150 2772 3378 
Q 2772 3750 2511 3984 
Q 2250 4219 1831 4219 
Q 1534 4219 1204 4116 
Q 875 4013 500 3803 
L 500 4441 
Q 881 4594 1212 4672 
Q 1544 4750 1819 4750 
Q 2544 4750 2975 4387 
Q 3406 4025 3406 3419 
Q 3406 3131 3298 2873 
Q 3191 2616 2906 2266 
Q 2828 2175 2409 1742 
Q 1991 1309 1228 531 
z
" transform="scale(0.015625)"/>
       </defs>
       <use xlink:href="#DejaVuSans-32"/>
       <use xlink:href="#DejaVuSans-30" transform="translate(63.623047 0)"/>
      </g>
     </g>
    </g>
    <g id="xtick_3">
     <g id="line2d_5">
      <path d="M 201.726942 307.584 
L 201.726942 41.472 
" clip-path="url(#pa108c6a87c)" style="fill: none; stroke: #b0b0b0; stroke-width: 0.8; stroke-linecap: square"/>
     </g>
     <g id="line2d_6">
      <g>
       <use xlink:href="#m312cc937dc" x="201.726942" y="307.584" style="stroke: #000000; stroke-width: 0.8"/>
      </g>
     </g>
     <g id="text_3">
      <!-- 40 -->
      <g transform="translate(195.364442 322.182437) scale(0.1 -0.1)">
       <defs>
        <path id="DejaVuSans-34" d="M 2419 4116 
L 825 1625 
L 2419 1625 
L 2419 4116 
z
M 2253 4666 
L 3047 4666 
L 3047 1625 
L 3713 1625 
L 3713 1100 
L 3047 1100 
L 3047 0 
L 2419 0 
L 2419 1100 
L 313 1100 
L 313 1709 
L 2253 4666 
z
" transform="scale(0.015625)"/>
       </defs>
       <use xlink:href="#DejaVuSans-34"/>
       <use xlink:href="#DejaVuSans-30" transform="translate(63.623047 0)"/>
      </g>
     </g>
    </g>
    <g id="xtick_4">
     <g id="line2d_7">
      <path d="M 267.313719 307.584 
L 267.313719 41.472 
" clip-path="url(#pa108c6a87c)" style="fill: none; stroke: #b0b0b0; stroke-width: 0.8; stroke-linecap: square"/>
     </g>
     <g id="line2d_8">
      <g>
       <use xlink:href="#m312cc937dc" x="267.313719" y="307.584" style="stroke: #000000; stroke-width: 0.8"/>
      </g>
     </g>
     <g id="text_4">
      <!-- 60 -->
      <g transform="translate(260.951219 322.182437) scale(0.1 -0.1)">
       <defs>
        <path id="DejaVuSans-36" d="M 2113 2584 
Q 1688 2584 1439 2293 
Q 1191 2003 1191 1497 
Q 1191 994 1439 701 
Q 1688 409 2113 409 
Q 2538 409 2786 701 
Q 3034 994 3034 1497 
Q 3034 2003 2786 2293 
Q 2538 2584 2113 2584 
z
M 3366 4563 
L 3366 3988 
Q 3128 4100 2886 4159 
Q 2644 4219 2406 4219 
Q 1781 4219 1451 3797 
Q 1122 3375 1075 2522 
Q 1259 2794 1537 2939 
Q 1816 3084 2150 3084 
Q 2853 3084 3261 2657 
Q 3669 2231 3669 1497 
Q 3669 778 3244 343 
Q 2819 -91 2113 -91 
Q 1303 -91 875 529 
Q 447 1150 447 2328 
Q 447 3434 972 4092 
Q 1497 4750 2381 4750 
Q 2619 4750 2861 4703 
Q 3103 4656 3366 4563 
z
" transform="scale(0.015625)"/>
       </defs>
       <use xlink:href="#DejaVuSans-36"/>
       <use xlink:href="#DejaVuSans-30" transform="translate(63.623047 0)"/>
      </g>
     </g>
    </g>
    <g id="xtick_5">
     <g id="line2d_9">
      <path d="M 332.900496 307.584 
L 332.900496 41.472 
" clip-path="url(#pa108c6a87c)" style="fill: none; stroke: #b0b0b0; stroke-width: 0.8; stroke-linecap: square"/>
     </g>
     <g id="line2d_10">
      <g>
       <use xlink:href="#m312cc937dc" x="332.900496" y="307.584" style="stroke: #000000; stroke-width: 0.8"/>
      </g>
     </g>
     <g id="text_5">
      <!-- 80 -->
      <g transform="translate(326.537996 322.182437) scale(0.1 -0.1)">
       <defs>
        <path id="DejaVuSans-38" d="M 2034 2216 
Q 1584 2216 1326 1975 
Q 1069 1734 1069 1313 
Q 1069 891 1326 650 
Q 1584 409 2034 409 
Q 2484 409 2743 651 
Q 3003 894 3003 1313 
Q 3003 1734 2745 1975 
Q 2488 2216 2034 2216 
z
M 1403 2484 
Q 997 2584 770 2862 
Q 544 3141 544 3541 
Q 544 4100 942 4425 
Q 1341 4750 2034 4750 
Q 2731 4750 3128 4425 
Q 3525 4100 3525 3541 
Q 3525 3141 3298 2862 
Q 3072 2584 2669 2484 
Q 3125 2378 3379 2068 
Q 3634 1759 3634 1313 
Q 3634 634 3220 271 
Q 2806 -91 2034 -91 
Q 1263 -91 848 271 
Q 434 634 434 1313 
Q 434 1759 690 2068 
Q 947 2378 1403 2484 
z
M 1172 3481 
Q 1172 3119 1398 2916 
Q 1625 2713 2034 2713 
Q 2441 2713 2670 2916 
Q 2900 3119 2900 3481 
Q 2900 3844 2670 4047 
Q 2441 4250 2034 4250 
Q 1625 4250 1398 4047 
Q 1172 3844 1172 3481 
z
" transform="scale(0.015625)"/>
       </defs>
       <use xlink:href="#DejaVuSans-38"/>
       <use xlink:href="#DejaVuSans-30" transform="translate(63.623047 0)"/>
      </g>
     </g>
    </g>
    <g id="xtick_6">
     <g id="line2d_11">
      <path d="M 398.487273 307.584 
L 398.487273 41.472 
" clip-path="url(#pa108c6a87c)" style="fill: none; stroke: #b0b0b0; stroke-width: 0.8; stroke-linecap: square"/>
     </g>
     <g id="line2d_12">
      <g>
       <use xlink:href="#m312cc937dc" x="398.487273" y="307.584" style="stroke: #000000; stroke-width: 0.8"/>
      </g>
     </g>
     <g id="text_6">
      <!-- 100 -->
      <g transform="translate(388.943523 322.182437) scale(0.1 -0.1)">
       <defs>
        <path id="DejaVuSans-31" d="M 794 531 
L 1825 531 
L 1825 4091 
L 703 3866 
L 703 4441 
L 1819 4666 
L 2450 4666 
L 2450 531 
L 3481 531 
L 3481 0 
L 794 0 
L 794 531 
z
" transform="scale(0.015625)"/>
       </defs>
       <use xlink:href="#DejaVuSans-31"/>
       <use xlink:href="#DejaVuSans-30" transform="translate(63.623047 0)"/>
       <use xlink:href="#DejaVuSans-30" transform="translate(127.246094 0)"/>
      </g>
     </g>
    </g>
    <g id="text_7">
     <!-- Generacje -->
     <g transform="translate(210.629531 335.860562) scale(0.1 -0.1)">
      <defs>
       <path id="DejaVuSans-47" d="M 3809 666 
L 3809 1919 
L 2778 1919 
L 2778 2438 
L 4434 2438 
L 4434 434 
Q 4069 175 3628 42 
Q 3188 -91 2688 -91 
Q 1594 -91 976 548 
Q 359 1188 359 2328 
Q 359 3472 976 4111 
Q 1594 4750 2688 4750 
Q 3144 4750 3555 4637 
Q 3966 4525 4313 4306 
L 4313 3634 
Q 3963 3931 3569 4081 
Q 3175 4231 2741 4231 
Q 1884 4231 1454 3753 
Q 1025 3275 1025 2328 
Q 1025 1384 1454 906 
Q 1884 428 2741 428 
Q 3075 428 3337 486 
Q 3600 544 3809 666 
z
" transform="scale(0.015625)"/>
       <path id="DejaVuSans-65" d="M 3597 1894 
L 3597 1613 
L 953 1613 
Q 991 1019 1311 708 
Q 1631 397 2203 397 
Q 2534 397 2845 478 
Q 3156 559 3463 722 
L 3463 178 
Q 3153 47 2828 -22 
Q 2503 -91 2169 -91 
Q 1331 -91 842 396 
Q 353 884 353 1716 
Q 353 2575 817 3079 
Q 1281 3584 2069 3584 
Q 2775 3584 3186 3129 
Q 3597 2675 3597 1894 
z
M 3022 2063 
Q 3016 2534 2758 2815 
Q 2500 3097 2075 3097 
Q 1594 3097 1305 2825 
Q 1016 2553 972 2059 
L 3022 2063 
z
" transform="scale(0.015625)"/>
       <path id="DejaVuSans-6e" d="M 3513 2113 
L 3513 0 
L 2938 0 
L 2938 2094 
Q 2938 2591 2744 2837 
Q 2550 3084 2163 3084 
Q 1697 3084 1428 2787 
Q 1159 2491 1159 1978 
L 1159 0 
L 581 0 
L 581 3500 
L 1159 3500 
L 1159 2956 
Q 1366 3272 1645 3428 
Q 1925 3584 2291 3584 
Q 2894 3584 3203 3211 
Q 3513 2838 3513 2113 
z
" transform="scale(0.015625)"/>
       <path id="DejaVuSans-72" d="M 2631 2963 
Q 2534 3019 2420 3045 
Q 2306 3072 2169 3072 
Q 1681 3072 1420 2755 
Q 1159 2438 1159 1844 
L 1159 0 
L 581 0 
L 581 3500 
L 1159 3500 
L 1159 2956 
Q 1341 3275 1631 3429 
Q 1922 3584 2338 3584 
Q 2397 3584 2469 3576 
Q 2541 3569 2628 3553 
L 2631 2963 
z
" transform="scale(0.015625)"/>
       <path id="DejaVuSans-61" d="M 2194 1759 
Q 1497 1759 1228 1600 
Q 959 1441 959 1056 
Q 959 750 1161 570 
Q 1363 391 1709 391 
Q 2188 391 2477 730 
Q 2766 1069 2766 1631 
L 2766 1759 
L 2194 1759 
z
M 3341 1997 
L 3341 0 
L 2766 0 
L 2766 531 
Q 2569 213 2275 61 
Q 1981 -91 1556 -91 
Q 1019 -91 701 211 
Q 384 513 384 1019 
Q 384 1609 779 1909 
Q 1175 2209 1959 2209 
L 2766 2209 
L 2766 2266 
Q 2766 2663 2505 2880 
Q 2244 3097 1772 3097 
Q 1472 3097 1187 3025 
Q 903 2953 641 2809 
L 641 3341 
Q 956 3463 1253 3523 
Q 1550 3584 1831 3584 
Q 2591 3584 2966 3190 
Q 3341 2797 3341 1997 
z
" transform="scale(0.015625)"/>
       <path id="DejaVuSans-63" d="M 3122 3366 
L 3122 2828 
Q 2878 2963 2633 3030 
Q 2388 3097 2138 3097 
Q 1578 3097 1268 2742 
Q 959 2388 959 1747 
Q 959 1106 1268 751 
Q 1578 397 2138 397 
Q 2388 397 2633 464 
Q 2878 531 3122 666 
L 3122 134 
Q 2881 22 2623 -34 
Q 2366 -91 2075 -91 
Q 1284 -91 818 406 
Q 353 903 353 1747 
Q 353 2603 823 3093 
Q 1294 3584 2113 3584 
Q 2378 3584 2631 3529 
Q 2884 3475 3122 3366 
z
" transform="scale(0.015625)"/>
       <path id="DejaVuSans-6a" d="M 603 3500 
L 1178 3500 
L 1178 -63 
Q 1178 -731 923 -1031 
Q 669 -1331 103 -1331 
L -116 -1331 
L -116 -844 
L 38 -844 
Q 366 -844 484 -692 
Q 603 -541 603 -63 
L 603 3500 
z
M 603 4863 
L 1178 4863 
L 1178 4134 
L 603 4134 
L 603 4863 
z
" transform="scale(0.015625)"/>
      </defs>
      <use xlink:href="#DejaVuSans-47"/>
      <use xlink:href="#DejaVuSans-65" transform="translate(77.490234 0)"/>
      <use xlink:href="#DejaVuSans-6e" transform="translate(139.013672 0)"/>
      <use xlink:href="#DejaVuSans-65" transform="translate(202.392578 0)"/>
      <use xlink:href="#DejaVuSans-72" transform="translate(263.916016 0)"/>
      <use xlink:href="#DejaVuSans-61" transform="translate(305.029297 0)"/>
      <use xlink:href="#DejaVuSans-63" transform="translate(366.308594 0)"/>
      <use xlink:href="#DejaVuSans-6a" transform="translate(421.289062 0)"/>
      <use xlink:href="#DejaVuSans-65" transform="translate(449.072266 0)"/>
     </g>
    </g>
   </g>
   <g id="matplotlib.axis_2">
    <g id="ytick_1">
     <g id="line2d_13">
      <path d="M 57.6 303.463995 
L 414.72 303.463995 
" clip-path="url(#pa108c6a87c)" style="fill: none; stroke: #b0b0b0; stroke-width: 0.8; stroke-linecap: square"/>
     </g>
     <g id="line2d_14">
      <defs>
       <path id="m2e7d8ac5c4" d="M 0 0 
L -3.5 0 
" style="stroke: #000000; stroke-width: 0.8"/>
      </defs>
      <g>
       <use xlink:href="#m2e7d8ac5c4" x="57.6" y="303.463995" style="stroke: #000000; stroke-width: 0.8"/>
      </g>
     </g>
     <g id="text_8">
      <!-- $\mathdefault{-10^{3}}$ -->
      <g transform="translate(24.6 307.263214) scale(0.1 -0.1)">
       <defs>
        <path id="DejaVuSans-2212" d="M 678 2272 
L 4684 2272 
L 4684 1741 
L 678 1741 
L 678 2272 
z
" transform="scale(0.015625)"/>
        <path id="DejaVuSans-33" d="M 2597 2516 
Q 3050 2419 3304 2112 
Q 3559 1806 3559 1356 
Q 3559 666 3084 287 
Q 2609 -91 1734 -91 
Q 1441 -91 1130 -33 
Q 819 25 488 141 
L 488 750 
Q 750 597 1062 519 
Q 1375 441 1716 441 
Q 2309 441 2620 675 
Q 2931 909 2931 1356 
Q 2931 1769 2642 2001 
Q 2353 2234 1838 2234 
L 1294 2234 
L 1294 2753 
L 1863 2753 
Q 2328 2753 2575 2939 
Q 2822 3125 2822 3475 
Q 2822 3834 2567 4026 
Q 2313 4219 1838 4219 
Q 1578 4219 1281 4162 
Q 984 4106 628 3988 
L 628 4550 
Q 988 4650 1302 4700 
Q 1616 4750 1894 4750 
Q 2613 4750 3031 4423 
Q 3450 4097 3450 3541 
Q 3450 3153 3228 2886 
Q 3006 2619 2597 2516 
z
" transform="scale(0.015625)"/>
       </defs>
       <use xlink:href="#DejaVuSans-2212" transform="translate(0 0.765625)"/>
       <use xlink:href="#DejaVuSans-31" transform="translate(83.789062 0.765625)"/>
       <use xlink:href="#DejaVuSans-30" transform="translate(147.412109 0.765625)"/>
       <use xlink:href="#DejaVuSans-33" transform="translate(211.992188 39.046875) scale(0.7)"/>
      </g>
     </g>
    </g>
    <g id="ytick_2">
     <g id="line2d_15">
      <path d="M 57.6 263.54141 
L 414.72 263.54141 
" clip-path="url(#pa108c6a87c)" style="fill: none; stroke: #b0b0b0; stroke-width: 0.8; stroke-linecap: square"/>
     </g>
     <g id="line2d_16">
      <g>
       <use xlink:href="#m2e7d8ac5c4" x="57.6" y="263.54141" style="stroke: #000000; stroke-width: 0.8"/>
      </g>
     </g>
     <g id="text_9">
      <!-- $\mathdefault{-10^{2}}$ -->
      <g transform="translate(24.6 267.340629) scale(0.1 -0.1)">
       <use xlink:href="#DejaVuSans-2212" transform="translate(0 0.765625)"/>
       <use xlink:href="#DejaVuSans-31" transform="translate(83.789062 0.765625)"/>
       <use xlink:href="#DejaVuSans-30" transform="translate(147.412109 0.765625)"/>
       <use xlink:href="#DejaVuSans-32" transform="translate(211.992188 39.046875) scale(0.7)"/>
      </g>
     </g>
    </g>
    <g id="ytick_3">
     <g id="line2d_17">
      <path d="M 57.6 223.618824 
L 414.72 223.618824 
" clip-path="url(#pa108c6a87c)" style="fill: none; stroke: #b0b0b0; stroke-width: 0.8; stroke-linecap: square"/>
     </g>
     <g id="line2d_18">
      <g>
       <use xlink:href="#m2e7d8ac5c4" x="57.6" y="223.618824" style="stroke: #000000; stroke-width: 0.8"/>
      </g>
     </g>
     <g id="text_10">
      <!-- $\mathdefault{-10^{1}}$ -->
      <g transform="translate(24.6 227.418043) scale(0.1 -0.1)">
       <use xlink:href="#DejaVuSans-2212" transform="translate(0 0.684375)"/>
       <use xlink:href="#DejaVuSans-31" transform="translate(83.789062 0.684375)"/>
       <use xlink:href="#DejaVuSans-30" transform="translate(147.412109 0.684375)"/>
       <use xlink:href="#DejaVuSans-31" transform="translate(211.992188 38.965625) scale(0.7)"/>
      </g>
     </g>
    </g>
    <g id="ytick_4">
     <g id="line2d_19">
      <path d="M 57.6 173.53492 
L 414.72 173.53492 
" clip-path="url(#pa108c6a87c)" style="fill: none; stroke: #b0b0b0; stroke-width: 0.8; stroke-linecap: square"/>
     </g>
     <g id="line2d_20">
      <g>
       <use xlink:href="#m2e7d8ac5c4" x="57.6" y="173.53492" style="stroke: #000000; stroke-width: 0.8"/>
      </g>
     </g>
     <g id="text_11">
      <!-- $\mathdefault{-10^{0}}$ -->
      <g transform="translate(24.6 177.334139) scale(0.1 -0.1)">
       <use xlink:href="#DejaVuSans-2212" transform="translate(0 0.765625)"/>
       <use xlink:href="#DejaVuSans-31" transform="translate(83.789062 0.765625)"/>
       <use xlink:href="#DejaVuSans-30" transform="translate(147.412109 0.765625)"/>
       <use xlink:href="#DejaVuSans-30" transform="translate(211.992188 39.046875) scale(0.7)"/>
      </g>
     </g>
    </g>
    <g id="ytick_5">
     <g id="line2d_21">
      <path d="M 57.6 151.355706 
L 414.72 151.355706 
" clip-path="url(#pa108c6a87c)" style="fill: none; stroke: #b0b0b0; stroke-width: 0.8; stroke-linecap: square"/>
     </g>
     <g id="line2d_22">
      <g>
       <use xlink:href="#m2e7d8ac5c4" x="57.6" y="151.355706" style="stroke: #000000; stroke-width: 0.8"/>
      </g>
     </g>
     <g id="text_12">
      <!-- $\mathdefault{0}$ -->
      <g transform="translate(44.2 155.154925) scale(0.1 -0.1)">
       <use xlink:href="#DejaVuSans-30" transform="translate(0 0.78125)"/>
      </g>
     </g>
    </g>
    <g id="ytick_6">
     <g id="line2d_23">
      <path d="M 57.6 129.176492 
L 414.72 129.176492 
" clip-path="url(#pa108c6a87c)" style="fill: none; stroke: #b0b0b0; stroke-width: 0.8; stroke-linecap: square"/>
     </g>
     <g id="line2d_24">
      <g>
       <use xlink:href="#m2e7d8ac5c4" x="57.6" y="129.176492" style="stroke: #000000; stroke-width: 0.8"/>
      </g>
     </g>
     <g id="text_13">
      <!-- $\mathdefault{10^{0}}$ -->
      <g transform="translate(33 132.975711) scale(0.1 -0.1)">
       <use xlink:href="#DejaVuSans-31" transform="translate(0 0.765625)"/>
       <use xlink:href="#DejaVuSans-30" transform="translate(63.623047 0.765625)"/>
       <use xlink:href="#DejaVuSans-30" transform="translate(128.203125 39.046875) scale(0.7)"/>
      </g>
     </g>
    </g>
    <g id="ytick_7">
     <g id="line2d_25">
      <path d="M 57.6 79.092588 
L 414.72 79.092588 
" clip-path="url(#pa108c6a87c)" style="fill: none; stroke: #b0b0b0; stroke-width: 0.8; stroke-linecap: square"/>
     </g>
     <g id="line2d_26">
      <g>
       <use xlink:href="#m2e7d8ac5c4" x="57.6" y="79.092588" style="stroke: #000000; stroke-width: 0.8"/>
      </g>
     </g>
     <g id="text_14">
      <!-- $\mathdefault{10^{1}}$ -->
      <g transform="translate(33 82.891807) scale(0.1 -0.1)">
       <use xlink:href="#DejaVuSans-31" transform="translate(0 0.684375)"/>
       <use xlink:href="#DejaVuSans-30" transform="translate(63.623047 0.684375)"/>
       <use xlink:href="#DejaVuSans-31" transform="translate(128.203125 38.965625) scale(0.7)"/>
      </g>
     </g>
    </g>
    <g id="text_15">
     <!-- Przystosowanie -->
     <g transform="translate(18.520312 213.170187) rotate(-90) scale(0.1 -0.1)">
      <defs>
       <path id="DejaVuSans-50" d="M 1259 4147 
L 1259 2394 
L 2053 2394 
Q 2494 2394 2734 2622 
Q 2975 2850 2975 3272 
Q 2975 3691 2734 3919 
Q 2494 4147 2053 4147 
L 1259 4147 
z
M 628 4666 
L 2053 4666 
Q 2838 4666 3239 4311 
Q 3641 3956 3641 3272 
Q 3641 2581 3239 2228 
Q 2838 1875 2053 1875 
L 1259 1875 
L 1259 0 
L 628 0 
L 628 4666 
z
" transform="scale(0.015625)"/>
       <path id="DejaVuSans-7a" d="M 353 3500 
L 3084 3500 
L 3084 2975 
L 922 459 
L 3084 459 
L 3084 0 
L 275 0 
L 275 525 
L 2438 3041 
L 353 3041 
L 353 3500 
z
" transform="scale(0.015625)"/>
       <path id="DejaVuSans-79" d="M 2059 -325 
Q 1816 -950 1584 -1140 
Q 1353 -1331 966 -1331 
L 506 -1331 
L 506 -850 
L 844 -850 
Q 1081 -850 1212 -737 
Q 1344 -625 1503 -206 
L 1606 56 
L 191 3500 
L 800 3500 
L 1894 763 
L 2988 3500 
L 3597 3500 
L 2059 -325 
z
" transform="scale(0.015625)"/>
       <path id="DejaVuSans-73" d="M 2834 3397 
L 2834 2853 
Q 2591 2978 2328 3040 
Q 2066 3103 1784 3103 
Q 1356 3103 1142 2972 
Q 928 2841 928 2578 
Q 928 2378 1081 2264 
Q 1234 2150 1697 2047 
L 1894 2003 
Q 2506 1872 2764 1633 
Q 3022 1394 3022 966 
Q 3022 478 2636 193 
Q 2250 -91 1575 -91 
Q 1294 -91 989 -36 
Q 684 19 347 128 
L 347 722 
Q 666 556 975 473 
Q 1284 391 1588 391 
Q 1994 391 2212 530 
Q 2431 669 2431 922 
Q 2431 1156 2273 1281 
Q 2116 1406 1581 1522 
L 1381 1569 
Q 847 1681 609 1914 
Q 372 2147 372 2553 
Q 372 3047 722 3315 
Q 1072 3584 1716 3584 
Q 2034 3584 2315 3537 
Q 2597 3491 2834 3397 
z
" transform="scale(0.015625)"/>
       <path id="DejaVuSans-74" d="M 1172 4494 
L 1172 3500 
L 2356 3500 
L 2356 3053 
L 1172 3053 
L 1172 1153 
Q 1172 725 1289 603 
Q 1406 481 1766 481 
L 2356 481 
L 2356 0 
L 1766 0 
Q 1100 0 847 248 
Q 594 497 594 1153 
L 594 3053 
L 172 3053 
L 172 3500 
L 594 3500 
L 594 4494 
L 1172 4494 
z
" transform="scale(0.015625)"/>
       <path id="DejaVuSans-6f" d="M 1959 3097 
Q 1497 3097 1228 2736 
Q 959 2375 959 1747 
Q 959 1119 1226 758 
Q 1494 397 1959 397 
Q 2419 397 2687 759 
Q 2956 1122 2956 1747 
Q 2956 2369 2687 2733 
Q 2419 3097 1959 3097 
z
M 1959 3584 
Q 2709 3584 3137 3096 
Q 3566 2609 3566 1747 
Q 3566 888 3137 398 
Q 2709 -91 1959 -91 
Q 1206 -91 779 398 
Q 353 888 353 1747 
Q 353 2609 779 3096 
Q 1206 3584 1959 3584 
z
" transform="scale(0.015625)"/>
       <path id="DejaVuSans-77" d="M 269 3500 
L 844 3500 
L 1563 769 
L 2278 3500 
L 2956 3500 
L 3675 769 
L 4391 3500 
L 4966 3500 
L 4050 0 
L 3372 0 
L 2619 2869 
L 1863 0 
L 1184 0 
L 269 3500 
z
" transform="scale(0.015625)"/>
       <path id="DejaVuSans-69" d="M 603 3500 
L 1178 3500 
L 1178 0 
L 603 0 
L 603 3500 
z
M 603 4863 
L 1178 4863 
L 1178 4134 
L 603 4134 
L 603 4863 
z
" transform="scale(0.015625)"/>
      </defs>
      <use xlink:href="#DejaVuSans-50"/>
      <use xlink:href="#DejaVuSans-72" transform="translate(58.552734 0)"/>
      <use xlink:href="#DejaVuSans-7a" transform="translate(99.666016 0)"/>
      <use xlink:href="#DejaVuSans-79" transform="translate(152.15625 0)"/>
      <use xlink:href="#DejaVuSans-73" transform="translate(211.335938 0)"/>
      <use xlink:href="#DejaVuSans-74" transform="translate(263.435547 0)"/>
      <use xlink:href="#DejaVuSans-6f" transform="translate(302.644531 0)"/>
      <use xlink:href="#DejaVuSans-73" transform="translate(363.826172 0)"/>
      <use xlink:href="#DejaVuSans-6f" transform="translate(415.925781 0)"/>
      <use xlink:href="#DejaVuSans-77" transform="translate(477.107422 0)"/>
      <use xlink:href="#DejaVuSans-61" transform="translate(558.894531 0)"/>
      <use xlink:href="#DejaVuSans-6e" transform="translate(620.173828 0)"/>
      <use xlink:href="#DejaVuSans-69" transform="translate(683.552734 0)"/>
      <use xlink:href="#DejaVuSans-65" transform="translate(711.335938 0)"/>
     </g>
    </g>
   </g>
   <g id="line2d_27">
    <path d="M 73.832727 295.488 
L 77.112066 293.613674 
L 80.391405 291.573292 
L 83.670744 292.284139 
L 86.950083 289.294525 
L 90.229421 289.831115 
L 93.50876 289.331893 
L 96.788099 288.217734 
L 100.067438 282.635286 
L 103.346777 279.564918 
L 106.626116 280.353829 
L 109.905455 279.989551 
L 113.184793 278.173603 
L 116.464132 278.43207 
L 119.743471 277.930014 
L 123.02281 277.182148 
L 126.302149 278.642955 
L 129.581488 274.751266 
L 132.860826 276.258501 
L 136.140165 273.307047 
L 139.419504 273.161343 
L 142.698843 273.904826 
L 145.978182 273.607001 
L 149.257521 273.421455 
L 152.53686 272.681097 
L 155.816198 274.54186 
L 159.095537 275.831629 
L 162.374876 275.156855 
L 165.654215 273.853316 
L 168.933554 274.430038 
L 172.212893 273.047845 
L 175.492231 271.846427 
L 178.77157 273.519282 
L 182.050909 273.433548 
L 185.330248 272.620162 
L 188.609587 270.363361 
L 191.888926 274.133299 
L 195.168264 269.276907 
L 198.447603 272.172828 
L 201.726942 272.88763 
L 205.006281 271.245557 
L 208.28562 271.668248 
L 211.564959 269.954317 
L 214.844298 271.213448 
L 218.123636 270.044792 
L 221.402975 269.339221 
L 224.682314 271.828489 
L 227.961653 272.811105 
L 231.240992 273.758829 
L 234.520331 273.327878 
L 237.799669 270.272676 
L 241.079008 271.87936 
L 244.358347 270.79049 
L 247.637686 273.796822 
L 250.917025 270.293701 
L 254.196364 271.120196 
L 257.475702 270.688264 
L 260.755041 270.868886 
L 264.03438 269.135846 
L 267.313719 275.781362 
L 270.593058 272.762679 
L 273.872397 270.933691 
L 277.151736 273.139795 
L 280.431074 270.729437 
L 283.710413 268.224527 
L 286.989752 271.767775 
L 290.269091 271.080272 
L 293.54843 273.325557 
L 296.827769 270.439225 
L 300.107107 270.423669 
L 303.386446 272.34039 
L 306.665785 274.214206 
L 309.945124 271.368329 
L 313.224463 271.010787 
L 316.503802 270.755354 
L 319.78314 268.825171 
L 323.062479 272.020455 
L 326.341818 270.608915 
L 329.621157 268.8186 
L 332.900496 272.640664 
L 336.179835 268.76777 
L 339.459174 269.858605 
L 342.738512 268.409295 
L 346.017851 274.804004 
L 349.29719 270.279278 
L 352.576529 268.710067 
L 355.855868 269.363936 
L 359.135207 271.630983 
L 362.414545 267.620872 
L 365.693884 269.182675 
L 368.973223 268.522212 
L 372.252562 267.88162 
L 375.531901 268.64497 
L 378.81124 269.526119 
L 382.090579 270.029843 
L 385.369917 268.690028 
L 388.649256 267.871314 
L 391.928595 269.590371 
L 395.207934 271.184258 
L 398.487273 268.077279 
" clip-path="url(#pa108c6a87c)" style="fill: none; stroke: #0000ff; stroke-width: 1.5; stroke-linecap: square"/>
   </g>
   <g id="line2d_28">
    <path d="M 73.832727 288.564715 
L 77.112066 285.698362 
L 80.391405 282.987878 
L 83.670744 281.820191 
L 86.950083 279.580547 
L 90.229421 281.248735 
L 93.50876 280.020207 
L 96.788099 275.541714 
L 100.067438 268.337902 
L 103.346777 262.117958 
L 106.626116 269.177698 
L 109.905455 268.81082 
L 113.184793 267.293276 
L 116.464132 264.456321 
L 119.743471 263.616474 
L 123.02281 263.140315 
L 126.302149 263.662205 
L 129.581488 262.806478 
L 132.860826 259.085603 
L 136.140165 255.0546 
L 139.419504 260.029567 
L 142.698843 254.730866 
L 145.978182 259.028176 
L 149.257521 261.421613 
L 152.53686 261.945886 
L 155.816198 257.476166 
L 159.095537 246.43024 
L 162.374876 252.703519 
L 165.654215 258.63793 
L 168.933554 254.319601 
L 172.212893 260.48564 
L 175.492231 263.23986 
L 178.77157 256.693935 
L 182.050909 230.734218 
L 185.330248 242.801032 
L 188.609587 255.384265 
L 191.888926 198.506882 
L 195.168264 260.739691 
L 198.447603 247.702818 
L 201.726942 240.685336 
L 205.006281 248.233847 
L 208.28562 233.847978 
L 211.564959 256.328025 
L 214.844298 253.401329 
L 218.123636 257.685637 
L 221.402975 260.068181 
L 224.682314 250.80176 
L 227.961653 240.055608 
L 231.240992 241.127218 
L 234.520331 175.571512 
L 237.799669 247.416155 
L 241.079008 243.734152 
L 244.358347 236.664005 
L 247.637686 237.925493 
L 250.917025 253.188158 
L 254.196364 248.518722 
L 257.475702 251.927879 
L 260.755041 253.225686 
L 264.03438 258.027425 
L 267.313719 82.891129 
L 270.593058 188.481958 
L 273.872397 245.6182 
L 277.151736 225.736601 
L 280.431074 251.919131 
L 283.710413 263.716839 
L 286.989752 202.149651 
L 290.269091 244.408554 
L 293.54843 63.003367 
L 296.827769 246.369439 
L 300.107107 238.863105 
L 303.386446 110.848443 
L 306.665785 58.615666 
L 309.945124 220.047803 
L 313.224463 243.821148 
L 316.503802 248.372247 
L 319.78314 261.886394 
L 323.062479 229.597956 
L 326.341818 250.615546 
L 329.621157 258.425632 
L 332.900496 233.871647 
L 336.179835 257.153151 
L 339.459174 251.908321 
L 342.738512 260.772188 
L 346.017851 53.568 
L 349.29719 236.353537 
L 352.576529 260.432534 
L 355.855868 254.120909 
L 359.135207 53.734662 
L 362.414545 265.412464 
L 365.693884 260.238165 
L 368.973223 261.915962 
L 372.252562 266.018859 
L 375.531901 261.955175 
L 378.81124 255.251033 
L 382.090579 253.078185 
L 385.369917 259.419999 
L 388.649256 265.994663 
L 391.928595 250.626766 
L 395.207934 232.034034 
L 398.487273 265.21145 
" clip-path="url(#pa108c6a87c)" style="fill: none; stroke-dasharray: 9.6,2.4,1.5,2.4; stroke-dashoffset: 0; stroke: #008000; stroke-width: 1.5"/>
   </g>
   <g id="line2d_29">
    <path d="M 73.832727 266.048352 
L 77.112066 265.435822 
L 80.391405 264.528705 
L 83.670744 265.804867 
L 86.950083 265.297386 
L 90.229421 264.259846 
L 93.50876 264.662697 
L 96.788099 263.992134 
L 100.067438 264.705542 
L 103.346777 260.259381 
L 106.626116 261.707679 
L 109.905455 263.455496 
L 113.184793 263.705805 
L 116.464132 263.521809 
L 119.743471 259.989965 
L 123.02281 260.760594 
L 126.302149 263.411681 
L 129.581488 262.546922 
L 132.860826 263.16883 
L 136.140165 265.017441 
L 139.419504 263.280994 
L 142.698843 262.804424 
L 145.978182 260.234049 
L 149.257521 263.470006 
L 152.53686 259.575784 
L 155.816198 262.659516 
L 159.095537 261.462998 
L 162.374876 262.77399 
L 165.654215 262.035009 
L 168.933554 262.856139 
L 172.212893 262.957154 
L 175.492231 263.226402 
L 178.77157 261.467129 
L 182.050909 262.597631 
L 185.330248 261.387757 
L 188.609587 263.046008 
L 191.888926 262.905229 
L 195.168264 257.802751 
L 198.447603 260.993033 
L 201.726942 263.313496 
L 205.006281 260.886332 
L 208.28562 260.943266 
L 211.564959 260.376285 
L 214.844298 262.588801 
L 218.123636 261.536574 
L 221.402975 260.983083 
L 224.682314 258.220408 
L 227.961653 258.852628 
L 231.240992 263.505202 
L 234.520331 263.751822 
L 237.799669 263.766351 
L 241.079008 263.728569 
L 244.358347 262.504087 
L 247.637686 263.218898 
L 250.917025 259.803657 
L 254.196364 261.205475 
L 257.475702 263.158284 
L 260.755041 262.18105 
L 264.03438 261.851411 
L 267.313719 262.78284 
L 270.593058 262.084963 
L 273.872397 263.543781 
L 277.151736 260.907832 
L 280.431074 261.92737 
L 283.710413 260.847791 
L 286.989752 263.929576 
L 290.269091 262.74284 
L 293.54843 263.246496 
L 296.827769 262.053612 
L 300.107107 262.014018 
L 303.386446 263.552799 
L 306.665785 264.718214 
L 309.945124 262.06096 
L 313.224463 260.362553 
L 316.503802 262.753343 
L 319.78314 262.208558 
L 323.062479 263.798658 
L 326.341818 262.652193 
L 329.621157 262.199312 
L 332.900496 264.155437 
L 336.179835 260.317206 
L 339.459174 263.392767 
L 342.738512 261.9594 
L 346.017851 261.77432 
L 349.29719 261.734687 
L 352.576529 259.861205 
L 355.855868 261.48555 
L 359.135207 264.821779 
L 362.414545 262.144442 
L 365.693884 263.499829 
L 368.973223 263.752998 
L 372.252562 261.808714 
L 375.531901 258.168586 
L 378.81124 262.366725 
L 382.090579 259.158995 
L 385.369917 263.701868 
L 388.649256 263.624876 
L 391.928595 262.986834 
L 395.207934 261.099623 
L 398.487273 261.739138 
" clip-path="url(#pa108c6a87c)" style="fill: none; stroke: #ff0000; stroke-width: 1.5; stroke-linecap: square"/>
   </g>
   <g id="patch_3">
    <path d="M 57.6 307.584 
L 57.6 41.472 
" style="fill: none; stroke: #000000; stroke-width: 0.8; stroke-linejoin: miter; stroke-linecap: square"/>
   </g>
   <g id="patch_4">
    <path d="M 414.72 307.584 
L 414.72 41.472 
" style="fill: none; stroke: #000000; stroke-width: 0.8; stroke-linejoin: miter; stroke-linecap: square"/>
   </g>
   <g id="patch_5">
    <path d="M 57.6 307.584 
L 414.72 307.584 
" style="fill: none; stroke: #000000; stroke-width: 0.8; stroke-linejoin: miter; stroke-linecap: square"/>
   </g>
   <g id="patch_6">
    <path d="M 57.6 41.472 
L 414.72 41.472 
" style="fill: none; stroke: #000000; stroke-width: 0.8; stroke-linejoin: miter; stroke-linecap: square"/>
   </g>
   <g id="text_16">
    <!-- Średnie i najlepsze przystosowanie w każdej generacji -->
    <g transform="translate(73.26 35.472) scale(0.12 -0.12)">
     <defs>
      <path id="DejaVuSans-15a" d="M 2236 5921 
L 2814 5921 
L 2102 5096 
L 1623 5096 
L 2236 5921 
z
M 3425 4513 
L 3425 3897 
Q 3066 4069 2747 4153 
Q 2428 4238 2131 4238 
Q 1616 4238 1336 4038 
Q 1056 3838 1056 3469 
Q 1056 3159 1242 3001 
Q 1428 2844 1947 2747 
L 2328 2669 
Q 3034 2534 3370 2195 
Q 3706 1856 3706 1288 
Q 3706 609 3251 259 
Q 2797 -91 1919 -91 
Q 1588 -91 1214 -16 
Q 841 59 441 206 
L 441 856 
Q 825 641 1194 531 
Q 1563 422 1919 422 
Q 2459 422 2753 634 
Q 3047 847 3047 1241 
Q 3047 1584 2836 1778 
Q 2625 1972 2144 2069 
L 1759 2144 
Q 1053 2284 737 2584 
Q 422 2884 422 3419 
Q 422 4038 858 4394 
Q 1294 4750 2059 4750 
Q 2388 4750 2728 4690 
Q 3069 4631 3425 4513 
z
" transform="scale(0.015625)"/>
      <path id="DejaVuSans-64" d="M 2906 2969 
L 2906 4863 
L 3481 4863 
L 3481 0 
L 2906 0 
L 2906 525 
Q 2725 213 2448 61 
Q 2172 -91 1784 -91 
Q 1150 -91 751 415 
Q 353 922 353 1747 
Q 353 2572 751 3078 
Q 1150 3584 1784 3584 
Q 2172 3584 2448 3432 
Q 2725 3281 2906 2969 
z
M 947 1747 
Q 947 1113 1208 752 
Q 1469 391 1925 391 
Q 2381 391 2643 752 
Q 2906 1113 2906 1747 
Q 2906 2381 2643 2742 
Q 2381 3103 1925 3103 
Q 1469 3103 1208 2742 
Q 947 2381 947 1747 
z
" transform="scale(0.015625)"/>
      <path id="DejaVuSans-20" transform="scale(0.015625)"/>
      <path id="DejaVuSans-6c" d="M 603 4863 
L 1178 4863 
L 1178 0 
L 603 0 
L 603 4863 
z
" transform="scale(0.015625)"/>
      <path id="DejaVuSans-70" d="M 1159 525 
L 1159 -1331 
L 581 -1331 
L 581 3500 
L 1159 3500 
L 1159 2969 
Q 1341 3281 1617 3432 
Q 1894 3584 2278 3584 
Q 2916 3584 3314 3078 
Q 3713 2572 3713 1747 
Q 3713 922 3314 415 
Q 2916 -91 2278 -91 
Q 1894 -91 1617 61 
Q 1341 213 1159 525 
z
M 3116 1747 
Q 3116 2381 2855 2742 
Q 2594 3103 2138 3103 
Q 1681 3103 1420 2742 
Q 1159 2381 1159 1747 
Q 1159 1113 1420 752 
Q 1681 391 2138 391 
Q 2594 391 2855 752 
Q 3116 1113 3116 1747 
z
" transform="scale(0.015625)"/>
      <path id="DejaVuSans-6b" d="M 581 4863 
L 1159 4863 
L 1159 1991 
L 2875 3500 
L 3609 3500 
L 1753 1863 
L 3688 0 
L 2938 0 
L 1159 1709 
L 1159 0 
L 581 0 
L 581 4863 
z
" transform="scale(0.015625)"/>
      <path id="DejaVuSans-17c" d="M 1378 4863 
L 1953 4863 
L 1953 4134 
L 1378 4134 
L 1378 4863 
z
M 1672 3584 
L 1672 3584 
z
M 353 3500 
L 3084 3500 
L 3084 2975 
L 922 459 
L 3084 459 
L 3084 0 
L 275 0 
L 275 525 
L 2438 3041 
L 353 3041 
L 353 3500 
z
" transform="scale(0.015625)"/>
      <path id="DejaVuSans-67" d="M 2906 1791 
Q 2906 2416 2648 2759 
Q 2391 3103 1925 3103 
Q 1463 3103 1205 2759 
Q 947 2416 947 1791 
Q 947 1169 1205 825 
Q 1463 481 1925 481 
Q 2391 481 2648 825 
Q 2906 1169 2906 1791 
z
M 3481 434 
Q 3481 -459 3084 -895 
Q 2688 -1331 1869 -1331 
Q 1566 -1331 1297 -1286 
Q 1028 -1241 775 -1147 
L 775 -588 
Q 1028 -725 1275 -790 
Q 1522 -856 1778 -856 
Q 2344 -856 2625 -561 
Q 2906 -266 2906 331 
L 2906 616 
Q 2728 306 2450 153 
Q 2172 0 1784 0 
Q 1141 0 747 490 
Q 353 981 353 1791 
Q 353 2603 747 3093 
Q 1141 3584 1784 3584 
Q 2172 3584 2450 3431 
Q 2728 3278 2906 2969 
L 2906 3500 
L 3481 3500 
L 3481 434 
z
" transform="scale(0.015625)"/>
     </defs>
     <use xlink:href="#DejaVuSans-15a"/>
     <use xlink:href="#DejaVuSans-72" transform="translate(63.476562 0)"/>
     <use xlink:href="#DejaVuSans-65" transform="translate(102.339844 0)"/>
     <use xlink:href="#DejaVuSans-64" transform="translate(163.863281 0)"/>
     <use xlink:href="#DejaVuSans-6e" transform="translate(227.339844 0)"/>
     <use xlink:href="#DejaVuSans-69" transform="translate(290.71875 0)"/>
     <use xlink:href="#DejaVuSans-65" transform="translate(318.501953 0)"/>
     <use xlink:href="#DejaVuSans-20" transform="translate(380.025391 0)"/>
     <use xlink:href="#DejaVuSans-69" transform="translate(411.8125 0)"/>
     <use xlink:href="#DejaVuSans-20" transform="translate(439.595703 0)"/>
     <use xlink:href="#DejaVuSans-6e" transform="translate(471.382812 0)"/>
     <use xlink:href="#DejaVuSans-61" transform="translate(534.761719 0)"/>
     <use xlink:href="#DejaVuSans-6a" transform="translate(596.041016 0)"/>
     <use xlink:href="#DejaVuSans-6c" transform="translate(623.824219 0)"/>
     <use xlink:href="#DejaVuSans-65" transform="translate(651.607422 0)"/>
     <use xlink:href="#DejaVuSans-70" transform="translate(713.130859 0)"/>
     <use xlink:href="#DejaVuSans-73" transform="translate(776.607422 0)"/>
     <use xlink:href="#DejaVuSans-7a" transform="translate(828.707031 0)"/>
     <use xlink:href="#DejaVuSans-65" transform="translate(881.197266 0)"/>
     <use xlink:href="#DejaVuSans-20" transform="translate(942.720703 0)"/>
     <use xlink:href="#DejaVuSans-70" transform="translate(974.507812 0)"/>
     <use xlink:href="#DejaVuSans-72" transform="translate(1037.984375 0)"/>
     <use xlink:href="#DejaVuSans-7a" transform="translate(1079.097656 0)"/>
     <use xlink:href="#DejaVuSans-79" transform="translate(1131.587891 0)"/>
     <use xlink:href="#DejaVuSans-73" transform="translate(1190.767578 0)"/>
     <use xlink:href="#DejaVuSans-74" transform="translate(1242.867188 0)"/>
     <use xlink:href="#DejaVuSans-6f" transform="translate(1282.076172 0)"/>
     <use xlink:href="#DejaVuSans-73" transform="translate(1343.257812 0)"/>
     <use xlink:href="#DejaVuSans-6f" transform="translate(1395.357422 0)"/>
     <use xlink:href="#DejaVuSans-77" transform="translate(1456.539062 0)"/>
     <use xlink:href="#DejaVuSans-61" transform="translate(1538.326172 0)"/>
     <use xlink:href="#DejaVuSans-6e" transform="translate(1599.605469 0)"/>
     <use xlink:href="#DejaVuSans-69" transform="translate(1662.984375 0)"/>
     <use xlink:href="#DejaVuSans-65" transform="translate(1690.767578 0)"/>
     <use xlink:href="#DejaVuSans-20" transform="translate(1752.291016 0)"/>
     <use xlink:href="#DejaVuSans-77" transform="translate(1784.078125 0)"/>
     <use xlink:href="#DejaVuSans-20" transform="translate(1865.865234 0)"/>
     <use xlink:href="#DejaVuSans-6b" transform="translate(1897.652344 0)"/>
     <use xlink:href="#DejaVuSans-61" transform="translate(1953.8125 0)"/>
     <use xlink:href="#DejaVuSans-17c" transform="translate(2015.091797 0)"/>
     <use xlink:href="#DejaVuSans-64" transform="translate(2067.582031 0)"/>
     <use xlink:href="#DejaVuSans-65" transform="translate(2131.058594 0)"/>
     <use xlink:href="#DejaVuSans-6a" transform="translate(2192.582031 0)"/>
     <use xlink:href="#DejaVuSans-20" transform="translate(2220.365234 0)"/>
     <use xlink:href="#DejaVuSans-67" transform="translate(2252.152344 0)"/>
     <use xlink:href="#DejaVuSans-65" transform="translate(2315.628906 0)"/>
     <use xlink:href="#DejaVuSans-6e" transform="translate(2377.152344 0)"/>
     <use xlink:href="#DejaVuSans-65" transform="translate(2440.53125 0)"/>
     <use xlink:href="#DejaVuSans-72" transform="translate(2502.054688 0)"/>
     <use xlink:href="#DejaVuSans-61" transform="translate(2543.167969 0)"/>
     <use xlink:href="#DejaVuSans-63" transform="translate(2604.447266 0)"/>
     <use xlink:href="#DejaVuSans-6a" transform="translate(2659.427734 0)"/>
     <use xlink:href="#DejaVuSans-69" transform="translate(2687.210938 0)"/>
    </g>
   </g>
   <g id="legend_1">
    <g id="patch_7">
     <path d="M 64.6 93.506375 
L 192.529687 93.506375 
Q 194.529687 93.506375 194.529687 91.506375 
L 194.529687 48.472 
Q 194.529687 46.472 192.529687 46.472 
L 64.6 46.472 
Q 62.6 46.472 62.6 48.472 
L 62.6 91.506375 
Q 62.6 93.506375 64.6 93.506375 
z
" style="fill: #ffffff; opacity: 0.8; stroke: #cccccc; stroke-linejoin: miter"/>
    </g>
    <g id="line2d_30">
     <path d="M 66.6 54.570438 
L 76.6 54.570438 
L 86.6 54.570438 
" style="fill: none; stroke: #0000ff; stroke-width: 1.5; stroke-linecap: square"/>
    </g>
    <g id="text_17">
     <!-- Średnia -->
     <g transform="translate(94.6 58.070438) scale(0.1 -0.1)">
      <use xlink:href="#DejaVuSans-15a"/>
      <use xlink:href="#DejaVuSans-72" transform="translate(63.476562 0)"/>
      <use xlink:href="#DejaVuSans-65" transform="translate(102.339844 0)"/>
      <use xlink:href="#DejaVuSans-64" transform="translate(163.863281 0)"/>
      <use xlink:href="#DejaVuSans-6e" transform="translate(227.339844 0)"/>
      <use xlink:href="#DejaVuSans-69" transform="translate(290.71875 0)"/>
      <use xlink:href="#DejaVuSans-61" transform="translate(318.501953 0)"/>
     </g>
    </g>
    <g id="line2d_31">
     <path d="M 66.6 69.248563 
L 76.6 69.248563 
L 86.6 69.248563 
" style="fill: none; stroke-dasharray: 9.6,2.4,1.5,2.4; stroke-dashoffset: 0; stroke: #008000; stroke-width: 1.5"/>
    </g>
    <g id="text_18">
     <!-- ±1 Odchylenie std. -->
     <g transform="translate(94.6 72.748563) scale(0.1 -0.1)">
      <defs>
       <path id="DejaVuSans-b1" d="M 2944 4013 
L 2944 2803 
L 4684 2803 
L 4684 2272 
L 2944 2272 
L 2944 1063 
L 2419 1063 
L 2419 2272 
L 678 2272 
L 678 2803 
L 2419 2803 
L 2419 4013 
L 2944 4013 
z
M 678 531 
L 4684 531 
L 4684 0 
L 678 0 
L 678 531 
z
" transform="scale(0.015625)"/>
       <path id="DejaVuSans-4f" d="M 2522 4238 
Q 1834 4238 1429 3725 
Q 1025 3213 1025 2328 
Q 1025 1447 1429 934 
Q 1834 422 2522 422 
Q 3209 422 3611 934 
Q 4013 1447 4013 2328 
Q 4013 3213 3611 3725 
Q 3209 4238 2522 4238 
z
M 2522 4750 
Q 3503 4750 4090 4092 
Q 4678 3434 4678 2328 
Q 4678 1225 4090 567 
Q 3503 -91 2522 -91 
Q 1538 -91 948 565 
Q 359 1222 359 2328 
Q 359 3434 948 4092 
Q 1538 4750 2522 4750 
z
" transform="scale(0.015625)"/>
       <path id="DejaVuSans-68" d="M 3513 2113 
L 3513 0 
L 2938 0 
L 2938 2094 
Q 2938 2591 2744 2837 
Q 2550 3084 2163 3084 
Q 1697 3084 1428 2787 
Q 1159 2491 1159 1978 
L 1159 0 
L 581 0 
L 581 4863 
L 1159 4863 
L 1159 2956 
Q 1366 3272 1645 3428 
Q 1925 3584 2291 3584 
Q 2894 3584 3203 3211 
Q 3513 2838 3513 2113 
z
" transform="scale(0.015625)"/>
       <path id="DejaVuSans-2e" d="M 684 794 
L 1344 794 
L 1344 0 
L 684 0 
L 684 794 
z
" transform="scale(0.015625)"/>
      </defs>
      <use xlink:href="#DejaVuSans-b1"/>
      <use xlink:href="#DejaVuSans-31" transform="translate(83.789062 0)"/>
      <use xlink:href="#DejaVuSans-20" transform="translate(147.412109 0)"/>
      <use xlink:href="#DejaVuSans-4f" transform="translate(179.199219 0)"/>
      <use xlink:href="#DejaVuSans-64" transform="translate(257.910156 0)"/>
      <use xlink:href="#DejaVuSans-63" transform="translate(321.386719 0)"/>
      <use xlink:href="#DejaVuSans-68" transform="translate(376.367188 0)"/>
      <use xlink:href="#DejaVuSans-79" transform="translate(439.746094 0)"/>
      <use xlink:href="#DejaVuSans-6c" transform="translate(498.925781 0)"/>
      <use xlink:href="#DejaVuSans-65" transform="translate(526.708984 0)"/>
      <use xlink:href="#DejaVuSans-6e" transform="translate(588.232422 0)"/>
      <use xlink:href="#DejaVuSans-69" transform="translate(651.611328 0)"/>
      <use xlink:href="#DejaVuSans-65" transform="translate(679.394531 0)"/>
      <use xlink:href="#DejaVuSans-20" transform="translate(740.917969 0)"/>
      <use xlink:href="#DejaVuSans-73" transform="translate(772.705078 0)"/>
      <use xlink:href="#DejaVuSans-74" transform="translate(824.804688 0)"/>
      <use xlink:href="#DejaVuSans-64" transform="translate(864.013672 0)"/>
      <use xlink:href="#DejaVuSans-2e" transform="translate(927.490234 0)"/>
     </g>
    </g>
    <g id="line2d_32">
     <path d="M 66.6 83.926688 
L 76.6 83.926688 
L 86.6 83.926688 
" style="fill: none; stroke: #ff0000; stroke-width: 1.5; stroke-linecap: square"/>
    </g>
    <g id="text_19">
     <!-- Najlepsze -->
     <g transform="translate(94.6 87.426688) scale(0.1 -0.1)">
      <defs>
       <path id="DejaVuSans-4e" d="M 628 4666 
L 1478 4666 
L 3547 763 
L 3547 4666 
L 4159 4666 
L 4159 0 
L 3309 0 
L 1241 3903 
L 1241 0 
L 628 0 
L 628 4666 
z
" transform="scale(0.015625)"/>
      </defs>
      <use xlink:href="#DejaVuSans-4e"/>
      <use xlink:href="#DejaVuSans-61" transform="translate(74.804688 0)"/>
      <use xlink:href="#DejaVuSans-6a" transform="translate(136.083984 0)"/>
      <use xlink:href="#DejaVuSans-6c" transform="translate(163.867188 0)"/>
      <use xlink:href="#DejaVuSans-65" transform="translate(191.650391 0)"/>
      <use xlink:href="#DejaVuSans-70" transform="translate(253.173828 0)"/>
      <use xlink:href="#DejaVuSans-73" transform="translate(316.650391 0)"/>
      <use xlink:href="#DejaVuSans-7a" transform="translate(368.75 0)"/>
      <use xlink:href="#DejaVuSans-65" transform="translate(421.240234 0)"/>
     </g>
    </g>
   </g>
  </g>
 </g>
 <defs>
  <clipPath id="pa108c6a87c">
   <rect x="57.6" y="41.472" width="357.12" height="266.112"/>
  </clipPath>
 </defs>
</svg>
