<?xml version="1.0" encoding="utf-8" standalone="no"?>
<!DOCTYPE svg PUBLIC "-//W3C//DTD SVG 1.1//EN"
  "http://www.w3.org/Graphics/SVG/1.1/DTD/svg11.dtd">
<svg xmlns:xlink="http://www.w3.org/1999/xlink" width="460.8pt" height="345.6pt" viewBox="0 0 460.8 345.6" xmlns="http://www.w3.org/2000/svg" version="1.1">
 <metadata>
  <rdf:RDF xmlns:dc="http://purl.org/dc/elements/1.1/" xmlns:cc="http://creativecommons.org/ns#" xmlns:rdf="http://www.w3.org/1999/02/22-rdf-syntax-ns#">
   <cc:Work>
    <dc:type rdf:resource="http://purl.org/dc/dcmitype/StillImage"/>
    <dc:date>2026-04-14T00:40:00.432223</dc:date>
    <dc:format>image/svg+xml</dc:format>
    <dc:creator>
     <cc:Agent>
      <dc:title>Matplotlib v3.10.8, https://matplotlib.org/</dc:title>
     </cc:Agent>
    </dc:creator>
   </cc:Work>
  </rdf:RDF>
 </metadata>
 <defs>
  <style type="text/css">*{stroke-linejoin: round; stroke-linecap: butt}</style>
 </defs>
 <g id="figure_1">
  <g id="patch_1">
   <path d="M 0 345.6 
L 460.8 345.6 
L 460.8 0 
L 0 0 
z
" style="fill: #ffffff"/>
  </g>
  <g id="axes_1">
   <g id="patch_2">
    <path d="M 57.6 307.584 
L 414.72 307.584 
L 414.72 41.472 
L 57.6 41.472 
z
" style="fill: #ffffff"/>
   </g>
   <g id="matplotlib.axis_1">
    <g id="xtick_1">
     <g id="line2d_1">
      <path d="M 73.832727 307.584 
L 73.832727 41.472 
" clip-path="url(#p4b18ec0e2f)" style="fill: none; stroke: #b0b0b0; stroke-width: 0.8; stroke-linecap: square"/>
     </g>
     <g id="line2d_2">
      <defs>
       <path id="mf1b1c2422e" d="M 0 0 
L 0 3.5 
" style="stroke: #000000; stroke-width: 0.8"/>
      </defs>
      <g>
       <use xlink:href="#mf1b1c2422e" x="73.832727" y="307.584" style="stroke: #000000; stroke-width: 0.8"/>
      </g>
     </g>
     <g id="text_1">
      <!-- 0 -->
      <g transform="translate(70.651477 322.182437) scale(0.1 -0.1)">
       <defs>
        <path id="DejaVuSans-30" d="M 2034 4250 
Q 1547 4250 1301 3770 
Q 1056 3291 1056 2328 
Q 1056 1369 1301 889 
Q 1547 409 2034 409 
Q 2525 409 2770 889 
Q 3016 1369 3016 2328 
Q 3016 3291 2770 3770 
Q 2525 4250 2034 4250 
z
M 2034 4750 
Q 2819 4750 3233 4129 
Q 3647 3509 3647 2328 
Q 3647 1150 3233 529 
Q 2819 -91 2034 -91 
Q 1250 -91 836 529 
Q 422 1150 422 2328 
Q 422 3509 836 4129 
Q 1250 4750 2034 4750 
z
" transform="scale(0.015625)"/>
       </defs>
       <use xlink:href="#DejaVuSans-30"/>
      </g>
     </g>
    </g>
    <g id="xtick_2">
     <g id="line2d_3">
      <path d="M 114.618474 307.584 
L 114.618474 41.472 
" clip-path="url(#p4b18ec0e2f)" style="fill: none; stroke: #b0b0b0; stroke-width: 0.8; stroke-linecap: square"/>
     </g>
     <g id="line2d_4">
      <g>
       <use xlink:href="#mf1b1c2422e" x="114.618474" y="307.584" style="stroke: #000000; stroke-width: 0.8"/>
      </g>
     </g>
     <g id="text_2">
      <!-- 25 -->
      <g transform="translate(108.255974 322.182437) scale(0.1 -0.1)">
       <defs>
        <path id="DejaVuSans-32" d="M 1228 531 
L 3431 531 
L 3431 0 
L 469 0 
L 469 531 
Q 828 903 1448 1529 
Q 2069 2156 2228 2338 
Q 2531 2678 2651 2914 
Q 2772 3150 2772 3378 
Q 2772 3750 2511 3984 
Q 2250 4219 1831 4219 
Q 1534 4219 1204 4116 
Q 875 4013 500 3803 
L 500 4441 
Q 881 4594 1212 4672 
Q 1544 4750 1819 4750 
Q 2544 4750 2975 4387 
Q 3406 4025 3406 3419 
Q 3406 3131 3298 2873 
Q 3191 2616 2906 2266 
Q 2828 2175 2409 1742 
Q 1991 1309 1228 531 
z
" transform="scale(0.015625)"/>
        <path id="DejaVuSans-35" d="M 691 4666 
L 3169 4666 
L 3169 4134 
L 1269 4134 
L 1269 2991 
Q 1406 3038 1543 3061 
Q 1681 3084 1819 3084 
Q 2600 3084 3056 2656 
Q 3513 2228 3513 1497 
Q 3513 744 3044 326 
Q 2575 -91 1722 -91 
Q 1428 -91 1123 -41 
Q 819 9 494 109 
L 494 744 
Q 775 591 1075 516 
Q 1375 441 1709 441 
Q 2250 441 2565 725 
Q 2881 1009 2881 1497 
Q 2881 1984 2565 2268 
Q 2250 2553 1709 2553 
Q 1456 2553 1204 2497 
Q 953 2441 691 2322 
L 691 4666 
z
" transform="scale(0.015625)"/>
       </defs>
       <use xlink:href="#DejaVuSans-32"/>
       <use xlink:href="#DejaVuSans-35" transform="translate(63.623047 0)"/>
      </g>
     </g>
    </g>
    <g id="xtick_3">
     <g id="line2d_5">
      <path d="M 155.404221 307.584 
L 155.404221 41.472 
" clip-path="url(#p4b18ec0e2f)" style="fill: none; stroke: #b0b0b0; stroke-width: 0.8; stroke-linecap: square"/>
     </g>
     <g id="line2d_6">
      <g>
       <use xlink:href="#mf1b1c2422e" x="155.404221" y="307.584" style="stroke: #000000; stroke-width: 0.8"/>
      </g>
     </g>
     <g id="text_3">
      <!-- 50 -->
      <g transform="translate(149.041721 322.182437) scale(0.1 -0.1)">
       <use xlink:href="#DejaVuSans-35"/>
       <use xlink:href="#DejaVuSans-30" transform="translate(63.623047 0)"/>
      </g>
     </g>
    </g>
    <g id="xtick_4">
     <g id="line2d_7">
      <path d="M 196.189968 307.584 
L 196.189968 41.472 
" clip-path="url(#p4b18ec0e2f)" style="fill: none; stroke: #b0b0b0; stroke-width: 0.8; stroke-linecap: square"/>
     </g>
     <g id="line2d_8">
      <g>
       <use xlink:href="#mf1b1c2422e" x="196.189968" y="307.584" style="stroke: #000000; stroke-width: 0.8"/>
      </g>
     </g>
     <g id="text_4">
      <!-- 75 -->
      <g transform="translate(189.827468 322.182437) scale(0.1 -0.1)">
       <defs>
        <path id="DejaVuSans-37" d="M 525 4666 
L 3525 4666 
L 3525 4397 
L 1831 0 
L 1172 0 
L 2766 4134 
L 525 4134 
L 525 4666 
z
" transform="scale(0.015625)"/>
       </defs>
       <use xlink:href="#DejaVuSans-37"/>
       <use xlink:href="#DejaVuSans-35" transform="translate(63.623047 0)"/>
      </g>
     </g>
    </g>
    <g id="xtick_5">
     <g id="line2d_9">
      <path d="M 236.975715 307.584 
L 236.975715 41.472 
" clip-path="url(#p4b18ec0e2f)" style="fill: none; stroke: #b0b0b0; stroke-width: 0.8; stroke-linecap: square"/>
     </g>
     <g id="line2d_10">
      <g>
       <use xlink:href="#mf1b1c2422e" x="236.975715" y="307.584" style="stroke: #000000; stroke-width: 0.8"/>
      </g>
     </g>
     <g id="text_5">
      <!-- 100 -->
      <g transform="translate(227.431965 322.182437) scale(0.1 -0.1)">
       <defs>
        <path id="DejaVuSans-31" d="M 794 531 
L 1825 531 
L 1825 4091 
L 703 3866 
L 703 4441 
L 1819 4666 
L 2450 4666 
L 2450 531 
L 3481 531 
L 3481 0 
L 794 0 
L 794 531 
z
" transform="scale(0.015625)"/>
       </defs>
       <use xlink:href="#DejaVuSans-31"/>
       <use xlink:href="#DejaVuSans-30" transform="translate(63.623047 0)"/>
       <use xlink:href="#DejaVuSans-30" transform="translate(127.246094 0)"/>
      </g>
     </g>
    </g>
    <g id="xtick_6">
     <g id="line2d_11">
      <path d="M 277.761462 307.584 
L 277.761462 41.472 
" clip-path="url(#p4b18ec0e2f)" style="fill: none; stroke: #b0b0b0; stroke-width: 0.8; stroke-linecap: square"/>
     </g>
     <g id="line2d_12">
      <g>
       <use xlink:href="#mf1b1c2422e" x="277.761462" y="307.584" style="stroke: #000000; stroke-width: 0.8"/>
      </g>
     </g>
     <g id="text_6">
      <!-- 125 -->
      <g transform="translate(268.217712 322.182437) scale(0.1 -0.1)">
       <use xlink:href="#DejaVuSans-31"/>
       <use xlink:href="#DejaVuSans-32" transform="translate(63.623047 0)"/>
       <use xlink:href="#DejaVuSans-35" transform="translate(127.246094 0)"/>
      </g>
     </g>
    </g>
    <g id="xtick_7">
     <g id="line2d_13">
      <path d="M 318.547209 307.584 
L 318.547209 41.472 
" clip-path="url(#p4b18ec0e2f)" style="fill: none; stroke: #b0b0b0; stroke-width: 0.8; stroke-linecap: square"/>
     </g>
     <g id="line2d_14">
      <g>
       <use xlink:href="#mf1b1c2422e" x="318.547209" y="307.584" style="stroke: #000000; stroke-width: 0.8"/>
      </g>
     </g>
     <g id="text_7">
      <!-- 150 -->
      <g transform="translate(309.003459 322.182437) scale(0.1 -0.1)">
       <use xlink:href="#DejaVuSans-31"/>
       <use xlink:href="#DejaVuSans-35" transform="translate(63.623047 0)"/>
       <use xlink:href="#DejaVuSans-30" transform="translate(127.246094 0)"/>
      </g>
     </g>
    </g>
    <g id="xtick_8">
     <g id="line2d_15">
      <path d="M 359.332956 307.584 
L 359.332956 41.472 
" clip-path="url(#p4b18ec0e2f)" style="fill: none; stroke: #b0b0b0; stroke-width: 0.8; stroke-linecap: square"/>
     </g>
     <g id="line2d_16">
      <g>
       <use xlink:href="#mf1b1c2422e" x="359.332956" y="307.584" style="stroke: #000000; stroke-width: 0.8"/>
      </g>
     </g>
     <g id="text_8">
      <!-- 175 -->
      <g transform="translate(349.789206 322.182437) scale(0.1 -0.1)">
       <use xlink:href="#DejaVuSans-31"/>
       <use xlink:href="#DejaVuSans-37" transform="translate(63.623047 0)"/>
       <use xlink:href="#DejaVuSans-35" transform="translate(127.246094 0)"/>
      </g>
     </g>
    </g>
    <g id="xtick_9">
     <g id="line2d_17">
      <path d="M 400.118703 307.584 
L 400.118703 41.472 
" clip-path="url(#p4b18ec0e2f)" style="fill: none; stroke: #b0b0b0; stroke-width: 0.8; stroke-linecap: square"/>
     </g>
     <g id="line2d_18">
      <g>
       <use xlink:href="#mf1b1c2422e" x="400.118703" y="307.584" style="stroke: #000000; stroke-width: 0.8"/>
      </g>
     </g>
     <g id="text_9">
      <!-- 200 -->
      <g transform="translate(390.574953 322.182437) scale(0.1 -0.1)">
       <use xlink:href="#DejaVuSans-32"/>
       <use xlink:href="#DejaVuSans-30" transform="translate(63.623047 0)"/>
       <use xlink:href="#DejaVuSans-30" transform="translate(127.246094 0)"/>
      </g>
     </g>
    </g>
    <g id="text_10">
     <!-- Generations -->
     <g transform="translate(205.662344 335.860562) scale(0.1 -0.1)">
      <defs>
       <path id="DejaVuSans-47" d="M 3809 666 
L 3809 1919 
L 2778 1919 
L 2778 2438 
L 4434 2438 
L 4434 434 
Q 4069 175 3628 42 
Q 3188 -91 2688 -91 
Q 1594 -91 976 548 
Q 359 1188 359 2328 
Q 359 3472 976 4111 
Q 1594 4750 2688 4750 
Q 3144 4750 3555 4637 
Q 3966 4525 4313 4306 
L 4313 3634 
Q 3963 3931 3569 4081 
Q 3175 4231 2741 4231 
Q 1884 4231 1454 3753 
Q 1025 3275 1025 2328 
Q 1025 1384 1454 906 
Q 1884 428 2741 428 
Q 3075 428 3337 486 
Q 3600 544 3809 666 
z
" transform="scale(0.015625)"/>
       <path id="DejaVuSans-65" d="M 3597 1894 
L 3597 1613 
L 953 1613 
Q 991 1019 1311 708 
Q 1631 397 2203 397 
Q 2534 397 2845 478 
Q 3156 559 3463 722 
L 3463 178 
Q 3153 47 2828 -22 
Q 2503 -91 2169 -91 
Q 1331 -91 842 396 
Q 353 884 353 1716 
Q 353 2575 817 3079 
Q 1281 3584 2069 3584 
Q 2775 3584 3186 3129 
Q 3597 2675 3597 1894 
z
M 3022 2063 
Q 3016 2534 2758 2815 
Q 2500 3097 2075 3097 
Q 1594 3097 1305 2825 
Q 1016 2553 972 2059 
L 3022 2063 
z
" transform="scale(0.015625)"/>
       <path id="DejaVuSans-6e" d="M 3513 2113 
L 3513 0 
L 2938 0 
L 2938 2094 
Q 2938 2591 2744 2837 
Q 2550 3084 2163 3084 
Q 1697 3084 1428 2787 
Q 1159 2491 1159 1978 
L 1159 0 
L 581 0 
L 581 3500 
L 1159 3500 
L 1159 2956 
Q 1366 3272 1645 3428 
Q 1925 3584 2291 3584 
Q 2894 3584 3203 3211 
Q 3513 2838 3513 2113 
z
" transform="scale(0.015625)"/>
       <path id="DejaVuSans-72" d="M 2631 2963 
Q 2534 3019 2420 3045 
Q 2306 3072 2169 3072 
Q 1681 3072 1420 2755 
Q 1159 2438 1159 1844 
L 1159 0 
L 581 0 
L 581 3500 
L 1159 3500 
L 1159 2956 
Q 1341 3275 1631 3429 
Q 1922 3584 2338 3584 
Q 2397 3584 2469 3576 
Q 2541 3569 2628 3553 
L 2631 2963 
z
" transform="scale(0.015625)"/>
       <path id="DejaVuSans-61" d="M 2194 1759 
Q 1497 1759 1228 1600 
Q 959 1441 959 1056 
Q 959 750 1161 570 
Q 1363 391 1709 391 
Q 2188 391 2477 730 
Q 2766 1069 2766 1631 
L 2766 1759 
L 2194 1759 
z
M 3341 1997 
L 3341 0 
L 2766 0 
L 2766 531 
Q 2569 213 2275 61 
Q 1981 -91 1556 -91 
Q 1019 -91 701 211 
Q 384 513 384 1019 
Q 384 1609 779 1909 
Q 1175 2209 1959 2209 
L 2766 2209 
L 2766 2266 
Q 2766 2663 2505 2880 
Q 2244 3097 1772 3097 
Q 1472 3097 1187 3025 
Q 903 2953 641 2809 
L 641 3341 
Q 956 3463 1253 3523 
Q 1550 3584 1831 3584 
Q 2591 3584 2966 3190 
Q 3341 2797 3341 1997 
z
" transform="scale(0.015625)"/>
       <path id="DejaVuSans-74" d="M 1172 4494 
L 1172 3500 
L 2356 3500 
L 2356 3053 
L 1172 3053 
L 1172 1153 
Q 1172 725 1289 603 
Q 1406 481 1766 481 
L 2356 481 
L 2356 0 
L 1766 0 
Q 1100 0 847 248 
Q 594 497 594 1153 
L 594 3053 
L 172 3053 
L 172 3500 
L 594 3500 
L 594 4494 
L 1172 4494 
z
" transform="scale(0.015625)"/>
       <path id="DejaVuSans-69" d="M 603 3500 
L 1178 3500 
L 1178 0 
L 603 0 
L 603 3500 
z
M 603 4863 
L 1178 4863 
L 1178 4134 
L 603 4134 
L 603 4863 
z
" transform="scale(0.015625)"/>
       <path id="DejaVuSans-6f" d="M 1959 3097 
Q 1497 3097 1228 2736 
Q 959 2375 959 1747 
Q 959 1119 1226 758 
Q 1494 397 1959 397 
Q 2419 397 2687 759 
Q 2956 1122 2956 1747 
Q 2956 2369 2687 2733 
Q 2419 3097 1959 3097 
z
M 1959 3584 
Q 2709 3584 3137 3096 
Q 3566 2609 3566 1747 
Q 3566 888 3137 398 
Q 2709 -91 1959 -91 
Q 1206 -91 779 398 
Q 353 888 353 1747 
Q 353 2609 779 3096 
Q 1206 3584 1959 3584 
z
" transform="scale(0.015625)"/>
       <path id="DejaVuSans-73" d="M 2834 3397 
L 2834 2853 
Q 2591 2978 2328 3040 
Q 2066 3103 1784 3103 
Q 1356 3103 1142 2972 
Q 928 2841 928 2578 
Q 928 2378 1081 2264 
Q 1234 2150 1697 2047 
L 1894 2003 
Q 2506 1872 2764 1633 
Q 3022 1394 3022 966 
Q 3022 478 2636 193 
Q 2250 -91 1575 -91 
Q 1294 -91 989 -36 
Q 684 19 347 128 
L 347 722 
Q 666 556 975 473 
Q 1284 391 1588 391 
Q 1994 391 2212 530 
Q 2431 669 2431 922 
Q 2431 1156 2273 1281 
Q 2116 1406 1581 1522 
L 1381 1569 
Q 847 1681 609 1914 
Q 372 2147 372 2553 
Q 372 3047 722 3315 
Q 1072 3584 1716 3584 
Q 2034 3584 2315 3537 
Q 2597 3491 2834 3397 
z
" transform="scale(0.015625)"/>
      </defs>
      <use xlink:href="#DejaVuSans-47"/>
      <use xlink:href="#DejaVuSans-65" transform="translate(77.490234 0)"/>
      <use xlink:href="#DejaVuSans-6e" transform="translate(139.013672 0)"/>
      <use xlink:href="#DejaVuSans-65" transform="translate(202.392578 0)"/>
      <use xlink:href="#DejaVuSans-72" transform="translate(263.916016 0)"/>
      <use xlink:href="#DejaVuSans-61" transform="translate(305.029297 0)"/>
      <use xlink:href="#DejaVuSans-74" transform="translate(366.308594 0)"/>
      <use xlink:href="#DejaVuSans-69" transform="translate(405.517578 0)"/>
      <use xlink:href="#DejaVuSans-6f" transform="translate(433.300781 0)"/>
      <use xlink:href="#DejaVuSans-6e" transform="translate(494.482422 0)"/>
      <use xlink:href="#DejaVuSans-73" transform="translate(557.861328 0)"/>
     </g>
    </g>
   </g>
   <g id="matplotlib.axis_2">
    <g id="ytick_1">
     <g id="line2d_19">
      <path d="M 57.6 112.741594 
L 414.72 112.741594 
" clip-path="url(#p4b18ec0e2f)" style="fill: none; stroke: #b0b0b0; stroke-width: 0.8; stroke-linecap: square"/>
     </g>
     <g id="line2d_20">
      <defs>
       <path id="ma236e90445" d="M 0 0 
L -3.5 0 
" style="stroke: #000000; stroke-width: 0.8"/>
      </defs>
      <g>
       <use xlink:href="#ma236e90445" x="57.6" y="112.741594" style="stroke: #000000; stroke-width: 0.8"/>
      </g>
     </g>
     <g id="text_11">
      <!-- $\mathdefault{10^{2}}$ -->
      <g transform="translate(33 116.540813) scale(0.1 -0.1)">
       <use xlink:href="#DejaVuSans-31" transform="translate(0 0.765625)"/>
       <use xlink:href="#DejaVuSans-30" transform="translate(63.623047 0.765625)"/>
       <use xlink:href="#DejaVuSans-32" transform="translate(128.203125 39.046875) scale(0.7)"/>
      </g>
     </g>
    </g>
    <g id="text_12">
     <!-- Fitness -->
     <g transform="translate(26.920312 191.845187) rotate(-90) scale(0.1 -0.1)">
      <defs>
       <path id="DejaVuSans-46" d="M 628 4666 
L 3309 4666 
L 3309 4134 
L 1259 4134 
L 1259 2759 
L 3109 2759 
L 3109 2228 
L 1259 2228 
L 1259 0 
L 628 0 
L 628 4666 
z
" transform="scale(0.015625)"/>
      </defs>
      <use xlink:href="#DejaVuSans-46"/>
      <use xlink:href="#DejaVuSans-69" transform="translate(50.269531 0)"/>
      <use xlink:href="#DejaVuSans-74" transform="translate(78.052734 0)"/>
      <use xlink:href="#DejaVuSans-6e" transform="translate(117.261719 0)"/>
      <use xlink:href="#DejaVuSans-65" transform="translate(180.640625 0)"/>
      <use xlink:href="#DejaVuSans-73" transform="translate(242.164062 0)"/>
      <use xlink:href="#DejaVuSans-73" transform="translate(294.263672 0)"/>
     </g>
    </g>
   </g>
   <g id="line2d_21">
    <path d="M 73.832727 295.488 
L 75.464157 227.446702 
L 77.095587 193.23839 
L 78.727017 175.877139 
L 80.358447 161.421587 
L 81.989877 154.117785 
L 83.621307 153.576681 
L 85.252736 144.087393 
L 86.884166 143.987349 
L 88.515596 144.702553 
L 90.147026 141.429098 
L 91.778456 141.487057 
L 93.409886 137.868331 
L 95.041316 137.8821 
L 96.672746 138.171353 
L 98.304175 139.419565 
L 99.935605 136.352024 
L 101.567035 139.248461 
L 103.198465 136.664085 
L 104.829895 138.795972 
L 106.461325 136.15172 
L 108.092755 136.400647 
L 109.724185 135.004534 
L 111.355614 137.151554 
L 112.987044 137.135021 
L 114.618474 136.960917 
L 116.249904 136.269018 
L 117.881334 135.982492 
L 119.512764 137.804313 
L 121.144194 136.829216 
L 122.775624 135.483373 
L 124.407053 134.45914 
L 126.038483 136.331135 
L 127.669913 136.307545 
L 129.301343 138.179815 
L 130.932773 136.871884 
L 132.564203 134.377574 
L 134.195633 135.312374 
L 135.827063 137.423691 
L 137.458492 135.113336 
L 139.089922 135.505064 
L 140.721352 135.356922 
L 142.352782 135.919754 
L 143.984212 134.030934 
L 145.615642 136.413458 
L 147.247072 134.690474 
L 148.878502 132.337795 
L 150.509931 134.491004 
L 152.141361 134.028323 
L 155.404221 132.666298 
L 157.035651 134.104227 
L 158.667081 134.185406 
L 160.298511 133.606832 
L 161.929941 134.163822 
L 163.56137 134.439495 
L 165.1928 133.023278 
L 166.82423 135.929362 
L 168.45566 131.851206 
L 170.08709 135.117739 
L 171.71852 130.458674 
L 173.34995 133.992046 
L 174.98138 132.194695 
L 176.61281 132.850494 
L 178.244239 132.103801 
L 179.875669 133.917734 
L 181.507099 133.40614 
L 183.138529 133.457829 
L 184.769959 133.365257 
L 186.401389 133.618647 
L 188.032819 133.75119 
L 189.664249 135.792968 
L 191.295678 136.286875 
L 192.927108 133.263022 
L 194.558538 132.14439 
L 196.189968 132.089787 
L 197.821398 133.7408 
L 199.452828 133.881416 
L 201.084258 133.428525 
L 202.715688 133.593477 
L 204.347117 131.490199 
L 205.978547 132.48916 
L 207.609977 130.723457 
L 209.241407 131.120634 
L 210.872837 129.48337 
L 212.504267 130.487035 
L 214.135697 129.562574 
L 215.767127 129.868237 
L 217.398556 129.652363 
L 219.029986 133.398266 
L 220.661416 131.362129 
L 222.292846 131.52825 
L 223.924276 132.500544 
L 225.555706 131.813866 
L 227.187136 132.748562 
L 228.818566 132.558388 
L 232.081425 131.058239 
L 233.712855 132.320135 
L 236.975715 130.618399 
L 238.607145 131.66076 
L 240.238575 131.005309 
L 241.870005 131.469581 
L 243.501434 130.589322 
L 246.764294 130.258223 
L 248.395724 132.415636 
L 250.027154 134.981594 
L 251.658584 132.651508 
L 253.290014 133.495651 
L 254.921444 133.126927 
L 256.552873 131.953282 
L 258.184303 131.78266 
L 259.815733 132.718893 
L 261.447163 132.632462 
L 263.078593 133.269133 
L 264.710023 133.217886 
L 266.341453 130.716001 
L 267.972883 131.645041 
L 269.604312 131.619025 
L 271.235742 133.427139 
L 272.867172 131.741031 
L 274.498602 132.300925 
L 276.130032 130.350413 
L 277.761462 133.659937 
L 279.392892 133.840815 
L 282.655751 131.356648 
L 284.287181 131.25428 
L 285.918611 132.949151 
L 287.550041 130.846183 
L 289.181471 131.639219 
L 290.812901 131.409709 
L 292.444331 130.901617 
L 294.075761 130.984412 
L 295.70719 130.640646 
L 297.33862 132.238601 
L 298.97005 131.541309 
L 300.60148 131.595269 
L 302.23291 132.476963 
L 303.86434 132.096438 
L 305.49577 131.566769 
L 307.1272 129.848291 
L 308.75863 131.272368 
L 310.390059 130.645988 
L 312.021489 130.673557 
L 313.652919 129.216204 
L 315.284349 131.536117 
L 316.915779 130.484172 
L 318.547209 130.554173 
L 320.178639 131.898548 
L 321.810069 130.387079 
L 323.441498 129.501444 
L 325.072928 130.991953 
L 326.704358 130.927701 
L 328.335788 131.717635 
L 329.967218 131.488591 
L 331.598648 130.145447 
L 333.230078 129.017986 
L 334.861508 129.060196 
L 336.492937 130.217057 
L 338.124367 130.87608 
L 339.755797 130.648596 
L 341.387227 129.162206 
L 344.650087 130.597027 
L 346.281517 130.088464 
L 347.912947 128.904619 
L 349.544376 127.930022 
L 351.175806 128.969317 
L 352.807236 129.832992 
L 354.438666 128.895791 
L 356.070096 129.64788 
L 357.701526 128.855394 
L 359.332956 129.427398 
L 360.964386 130.339814 
L 362.595815 130.445963 
L 364.227245 128.950338 
L 365.858675 130.057452 
L 367.490105 129.386676 
L 369.121535 130.777163 
L 370.752965 129.846696 
L 372.384395 129.409207 
L 374.015825 127.545147 
L 375.647254 131.717133 
L 377.278684 130.023626 
L 378.910114 129.133695 
L 380.541544 129.10401 
L 382.172974 130.673906 
L 383.804404 128.349147 
L 385.435834 130.11023 
L 387.067264 131.312644 
L 388.698693 133.242688 
L 390.330123 130.563321 
L 391.961553 131.379406 
L 395.224413 131.46079 
L 396.855843 129.903354 
L 398.487273 131.195257 
L 398.487273 131.195257 
" clip-path="url(#p4b18ec0e2f)" style="fill: none; stroke: #0000ff; stroke-width: 1.5; stroke-linecap: square"/>
   </g>
   <g id="line2d_22">
    <path d="M 73.832727 240.451016 
L 75.464157 174.702715 
L 77.095587 145.715121 
L 78.727017 132.008344 
L 80.358447 122.087452 
L 85.252736 112.437601 
L 86.884166 120.975279 
L 88.515596 118.220472 
L 90.147026 122.46958 
L 91.778456 119.695291 
L 93.409886 118.229113 
L 95.041316 120.785558 
L 96.672746 119.65869 
L 98.304175 121.094762 
L 99.935605 119.507141 
L 101.567035 119.576797 
L 103.198465 118.855424 
L 104.829895 117.173957 
L 106.461325 120.240998 
L 108.092755 117.876757 
L 109.724185 121.470085 
L 111.355614 122.673439 
L 112.987044 120.451169 
L 114.618474 119.27482 
L 116.249904 121.54223 
L 117.881334 117.837768 
L 119.512764 116.041635 
L 121.144194 122.412526 
L 122.775624 120.515858 
L 124.407053 117.38356 
L 126.038483 122.252703 
L 127.669913 118.704298 
L 129.301343 115.657 
L 130.932773 118.629369 
L 132.564203 118.631278 
L 134.195633 116.620706 
L 135.827063 119.303112 
L 137.458492 117.778593 
L 140.721352 116.77605 
L 142.352782 117.898196 
L 143.984212 120.002716 
L 145.615642 117.286242 
L 147.247072 119.939515 
L 148.878502 117.680536 
L 150.509931 117.770367 
L 152.141361 117.623643 
L 153.772791 117.322071 
L 155.404221 118.303318 
L 157.035651 117.075785 
L 158.667081 114.052227 
L 160.298511 118.975461 
L 161.929941 119.079418 
L 163.56137 116.814545 
L 165.1928 115.056862 
L 166.82423 116.96112 
L 168.45566 116.807591 
L 171.71852 113.223588 
L 173.34995 116.107167 
L 176.61281 115.534853 
L 178.244239 115.831569 
L 179.875669 118.768821 
L 181.507099 115.802992 
L 183.138529 118.181217 
L 186.401389 116.963052 
L 188.032819 114.928923 
L 189.664249 115.837653 
L 191.295678 114.485502 
L 192.927108 116.031811 
L 194.558538 114.660237 
L 196.189968 115.395273 
L 197.821398 115.013777 
L 199.452828 115.156033 
L 201.084258 116.330066 
L 202.715688 116.688152 
L 204.347117 115.517802 
L 205.978547 117.406514 
L 207.609977 116.012816 
L 209.241407 114.338174 
L 210.872837 114.41364 
L 212.504267 114.783067 
L 214.135697 114.355453 
L 215.767127 114.269062 
L 217.398556 114.043529 
L 219.029986 117.576903 
L 220.661416 112.620053 
L 222.292846 118.915771 
L 223.924276 117.114269 
L 225.555706 114.968576 
L 227.187136 118.530687 
L 228.818566 118.333699 
L 232.081425 116.66474 
L 233.712855 118.684331 
L 235.344285 115.274017 
L 236.975715 114.334949 
L 238.607145 119.169475 
L 240.238575 116.234423 
L 241.870005 117.180726 
L 243.501434 115.553868 
L 245.132864 116.178915 
L 246.764294 112.753677 
L 248.395724 117.392947 
L 250.027154 118.151029 
L 253.290014 117.991659 
L 256.552873 115.101293 
L 258.184303 115.726692 
L 259.815733 115.91286 
L 261.447163 117.476971 
L 263.078593 118.464684 
L 264.710023 119.275839 
L 266.341453 114.670629 
L 267.972883 116.408716 
L 269.604312 116.024698 
L 271.235742 118.39406 
L 272.867172 116.198981 
L 274.498602 117.433374 
L 276.130032 115.086035 
L 277.761462 117.713318 
L 279.392892 120.092508 
L 281.024322 116.51395 
L 282.655751 115.9293 
L 284.287181 116.903358 
L 285.918611 117.001427 
L 287.550041 116.436691 
L 289.181471 115.553532 
L 290.812901 116.646555 
L 292.444331 113.034869 
L 294.075761 114.907749 
L 295.70719 115.73204 
L 297.33862 118.037428 
L 298.97005 116.4061 
L 300.60148 116.601521 
L 302.23291 116.555261 
L 303.86434 115.552623 
L 305.49577 113.352058 
L 307.1272 113.547153 
L 308.75863 117.209775 
L 310.390059 115.337233 
L 312.021489 115.340934 
L 313.652919 113.73276 
L 315.284349 115.076963 
L 316.915779 113.332657 
L 318.547209 115.26639 
L 320.178639 115.174421 
L 323.441498 114.698293 
L 325.072928 115.074959 
L 328.335788 117.793747 
L 329.967218 116.807175 
L 331.598648 115.401272 
L 333.230078 113.480637 
L 334.861508 112.821606 
L 336.492937 115.21313 
L 338.124367 114.260215 
L 339.755797 115.255223 
L 341.387227 113.750209 
L 343.018657 113.616997 
L 344.650087 116.731969 
L 346.281517 113.565692 
L 347.912947 113.728249 
L 349.544376 112.522008 
L 351.175806 112.609396 
L 352.807236 114.024564 
L 354.438666 113.128474 
L 356.070096 114.578651 
L 357.701526 112.581674 
L 359.332956 112.779796 
L 360.964386 114.326597 
L 362.595815 114.774495 
L 364.227245 113.810463 
L 365.858675 114.483623 
L 367.490105 113.836044 
L 369.121535 116.684789 
L 372.384395 112.79165 
L 374.015825 110.61544 
L 375.647254 115.896397 
L 377.278684 112.199904 
L 378.910114 112.243837 
L 382.172974 115.952355 
L 383.804404 113.818523 
L 385.435834 115.735602 
L 388.698693 117.362729 
L 390.330123 116.941733 
L 391.961553 117.229595 
L 393.592983 116.43869 
L 395.224413 116.102585 
L 396.855843 114.696199 
L 398.487273 114.770273 
L 398.487273 114.770273 
" clip-path="url(#p4b18ec0e2f)" style="fill: none; stroke-dasharray: 9.6,2.4,1.5,2.4; stroke-dashoffset: 0; stroke: #008000; stroke-width: 1.5"/>
   </g>
   <g id="line2d_23">
    <path d="M 73.832727 142.59439 
L 75.464157 113.196851 
L 77.095587 111.500454 
L 78.727017 73.446232 
L 80.358447 96.597738 
L 81.989877 105.870259 
L 83.621307 92.014358 
L 85.252736 92.415584 
L 86.884166 104.904171 
L 88.515596 98.574543 
L 90.147026 98.614874 
L 91.778456 96.882138 
L 93.409886 103.317813 
L 95.041316 98.287415 
L 96.672746 96.921824 
L 98.304175 92.092889 
L 99.935605 92.203283 
L 101.567035 96.890936 
L 103.198465 90.601504 
L 104.829895 95.066937 
L 106.461325 92.327924 
L 108.092755 95.019739 
L 109.724185 93.885113 
L 111.355614 95.772564 
L 112.987044 93.83001 
L 114.618474 94.101164 
L 116.249904 96.709161 
L 117.881334 78.181272 
L 119.512764 99.819329 
L 121.144194 100.190263 
L 122.775624 98.156562 
L 124.407053 90.527494 
L 126.038483 95.413399 
L 127.669913 84.677324 
L 129.301343 96.917234 
L 130.932773 96.735114 
L 132.564203 90.987541 
L 134.195633 79.540689 
L 135.827063 76.635037 
L 137.458492 92.865048 
L 139.089922 80.771432 
L 140.721352 87.863348 
L 142.352782 89.381965 
L 143.984212 72.233365 
L 145.615642 85.291752 
L 147.247072 86.51319 
L 148.878502 90.798861 
L 150.509931 90.750591 
L 152.141361 81.935634 
L 153.772791 82.04281 
L 155.404221 79.280845 
L 157.035651 87.628575 
L 158.667081 79.699249 
L 160.298511 86.377075 
L 161.929941 73.694169 
L 163.56137 85.113345 
L 165.1928 80.390487 
L 166.82423 95.287778 
L 168.45566 73.787587 
L 170.08709 78.00347 
L 171.71852 83.884032 
L 173.34995 87.661882 
L 174.98138 68.246104 
L 176.61281 86.144669 
L 178.244239 82.452407 
L 179.875669 83.413898 
L 181.507099 82.057531 
L 183.138529 98.263562 
L 184.769959 80.212785 
L 186.401389 84.824661 
L 188.032819 92.187952 
L 189.664249 81.086051 
L 191.295678 83.616753 
L 192.927108 77.960234 
L 194.558538 98.738225 
L 196.189968 90.690546 
L 197.821398 95.106367 
L 199.452828 89.385798 
L 201.084258 73.636728 
L 202.715688 79.605404 
L 204.347117 73.643732 
L 205.978547 86.362784 
L 207.609977 83.291439 
L 209.241407 90.760422 
L 210.872837 80.660436 
L 212.504267 79.606954 
L 214.135697 81.765348 
L 215.767127 83.366088 
L 217.398556 79.713215 
L 219.029986 93.466339 
L 220.661416 67.115563 
L 222.292846 96.687856 
L 223.924276 89.242727 
L 225.555706 87.648253 
L 227.187136 86.555379 
L 228.818566 90.608946 
L 230.449995 86.717933 
L 232.081425 88.980107 
L 233.712855 96.700855 
L 235.344285 86.439977 
L 236.975715 86.472223 
L 238.607145 93.539513 
L 240.238575 76.285441 
L 241.870005 87.80526 
L 243.501434 89.327895 
L 245.132864 85.006862 
L 246.764294 65.95092 
L 248.395724 87.772098 
L 250.027154 89.154738 
L 251.658584 91.425285 
L 253.290014 94.209999 
L 254.921444 87.704024 
L 256.552873 70.919692 
L 258.184303 72.482698 
L 259.815733 90.782433 
L 261.447163 80.995892 
L 263.078593 82.415462 
L 264.710023 89.412594 
L 266.341453 76.711833 
L 267.972883 90.628788 
L 269.604312 83.824228 
L 271.235742 83.290723 
L 272.867172 84.831406 
L 274.498602 80.805903 
L 276.130032 76.126886 
L 277.761462 77.687478 
L 279.392892 96.88343 
L 281.024322 83.617957 
L 282.655751 82.171845 
L 284.287181 78.994975 
L 285.918611 89.404591 
L 287.550041 76.345883 
L 289.181471 78.071294 
L 290.812901 76.756653 
L 292.444331 71.255053 
L 294.075761 76.146237 
L 295.70719 81.923973 
L 297.33862 92.244582 
L 298.97005 89.340467 
L 302.23291 57.858131 
L 303.86434 72.299056 
L 305.49577 84.993148 
L 307.1272 77.747266 
L 308.75863 90.462689 
L 310.390059 88.948065 
L 312.021489 73.754124 
L 313.652919 53.568 
L 315.284349 84.734458 
L 316.915779 71.100289 
L 318.547209 87.515328 
L 320.178639 73.526731 
L 321.810069 71.052317 
L 323.441498 89.418822 
L 325.072928 71.243818 
L 326.704358 86.298129 
L 328.335788 84.543262 
L 329.967218 98.243932 
L 331.598648 84.819087 
L 333.230078 54.667049 
L 334.861508 79.224187 
L 336.492937 77.005343 
L 338.124367 79.433911 
L 339.755797 70.799245 
L 341.387227 76.227807 
L 343.018657 72.141364 
L 344.650087 87.752241 
L 346.281517 79.066844 
L 347.912947 76.207859 
L 349.544376 84.987783 
L 351.175806 83.216813 
L 352.807236 77.692961 
L 354.438666 86.334508 
L 356.070096 84.772597 
L 357.701526 67.330953 
L 359.332956 83.16814 
L 360.964386 81.986102 
L 362.595815 76.390532 
L 364.227245 78.113242 
L 365.858675 83.381537 
L 367.490105 79.081637 
L 369.121535 69.60095 
L 370.752965 90.730412 
L 372.384395 71.289752 
L 374.015825 58.300867 
L 375.647254 71.183571 
L 377.278684 75.039078 
L 378.910114 59.208057 
L 380.541544 82.002132 
L 382.172974 86.271921 
L 383.804404 85.251513 
L 387.067264 79.571598 
L 388.698693 90.63434 
L 390.330123 71.07936 
L 391.961553 73.810978 
L 393.592983 79.196712 
L 395.224413 77.824647 
L 396.855843 73.557268 
L 398.487273 76.24965 
L 398.487273 76.24965 
" clip-path="url(#p4b18ec0e2f)" style="fill: none; stroke: #ff0000; stroke-width: 1.5; stroke-linecap: square"/>
   </g>
   <g id="patch_3">
    <path d="M 57.6 307.584 
L 57.6 41.472 
" style="fill: none; stroke: #000000; stroke-width: 0.8; stroke-linejoin: miter; stroke-linecap: square"/>
   </g>
   <g id="patch_4">
    <path d="M 414.72 307.584 
L 414.72 41.472 
" style="fill: none; stroke: #000000; stroke-width: 0.8; stroke-linejoin: miter; stroke-linecap: square"/>
   </g>
   <g id="patch_5">
    <path d="M 57.6 307.584 
L 414.72 307.584 
" style="fill: none; stroke: #000000; stroke-width: 0.8; stroke-linejoin: miter; stroke-linecap: square"/>
   </g>
   <g id="patch_6">
    <path d="M 57.6 41.472 
L 414.72 41.472 
" style="fill: none; stroke: #000000; stroke-width: 0.8; stroke-linejoin: miter; stroke-linecap: square"/>
   </g>
   <g id="text_13">
    <!-- Population's average and best fitness -->
    <g transform="translate(123.529687 35.472) scale(0.12 -0.12)">
     <defs>
      <path id="DejaVuSans-50" d="M 1259 4147 
L 1259 2394 
L 2053 2394 
Q 2494 2394 2734 2622 
Q 2975 2850 2975 3272 
Q 2975 3691 2734 3919 
Q 2494 4147 2053 4147 
L 1259 4147 
z
M 628 4666 
L 2053 4666 
Q 2838 4666 3239 4311 
Q 3641 3956 3641 3272 
Q 3641 2581 3239 2228 
Q 2838 1875 2053 1875 
L 1259 1875 
L 1259 0 
L 628 0 
L 628 4666 
z
" transform="scale(0.015625)"/>
      <path id="DejaVuSans-70" d="M 1159 525 
L 1159 -1331 
L 581 -1331 
L 581 3500 
L 1159 3500 
L 1159 2969 
Q 1341 3281 1617 3432 
Q 1894 3584 2278 3584 
Q 2916 3584 3314 3078 
Q 3713 2572 3713 1747 
Q 3713 922 3314 415 
Q 2916 -91 2278 -91 
Q 1894 -91 1617 61 
Q 1341 213 1159 525 
z
M 3116 1747 
Q 3116 2381 2855 2742 
Q 2594 3103 2138 3103 
Q 1681 3103 1420 2742 
Q 1159 2381 1159 1747 
Q 1159 1113 1420 752 
Q 1681 391 2138 391 
Q 2594 391 2855 752 
Q 3116 1113 3116 1747 
z
" transform="scale(0.015625)"/>
      <path id="DejaVuSans-75" d="M 544 1381 
L 544 3500 
L 1119 3500 
L 1119 1403 
Q 1119 906 1312 657 
Q 1506 409 1894 409 
Q 2359 409 2629 706 
Q 2900 1003 2900 1516 
L 2900 3500 
L 3475 3500 
L 3475 0 
L 2900 0 
L 2900 538 
Q 2691 219 2414 64 
Q 2138 -91 1772 -91 
Q 1169 -91 856 284 
Q 544 659 544 1381 
z
M 1991 3584 
L 1991 3584 
z
" transform="scale(0.015625)"/>
      <path id="DejaVuSans-6c" d="M 603 4863 
L 1178 4863 
L 1178 0 
L 603 0 
L 603 4863 
z
" transform="scale(0.015625)"/>
      <path id="DejaVuSans-27" d="M 1147 4666 
L 1147 2931 
L 616 2931 
L 616 4666 
L 1147 4666 
z
" transform="scale(0.015625)"/>
      <path id="DejaVuSans-20" transform="scale(0.015625)"/>
      <path id="DejaVuSans-76" d="M 191 3500 
L 800 3500 
L 1894 563 
L 2988 3500 
L 3597 3500 
L 2284 0 
L 1503 0 
L 191 3500 
z
" transform="scale(0.015625)"/>
      <path id="DejaVuSans-67" d="M 2906 1791 
Q 2906 2416 2648 2759 
Q 2391 3103 1925 3103 
Q 1463 3103 1205 2759 
Q 947 2416 947 1791 
Q 947 1169 1205 825 
Q 1463 481 1925 481 
Q 2391 481 2648 825 
Q 2906 1169 2906 1791 
z
M 3481 434 
Q 3481 -459 3084 -895 
Q 2688 -1331 1869 -1331 
Q 1566 -1331 1297 -1286 
Q 1028 -1241 775 -1147 
L 775 -588 
Q 1028 -725 1275 -790 
Q 1522 -856 1778 -856 
Q 2344 -856 2625 -561 
Q 2906 -266 2906 331 
L 2906 616 
Q 2728 306 2450 153 
Q 2172 0 1784 0 
Q 1141 0 747 490 
Q 353 981 353 1791 
Q 353 2603 747 3093 
Q 1141 3584 1784 3584 
Q 2172 3584 2450 3431 
Q 2728 3278 2906 2969 
L 2906 3500 
L 3481 3500 
L 3481 434 
z
" transform="scale(0.015625)"/>
      <path id="DejaVuSans-64" d="M 2906 2969 
L 2906 4863 
L 3481 4863 
L 3481 0 
L 2906 0 
L 2906 525 
Q 2725 213 2448 61 
Q 2172 -91 1784 -91 
Q 1150 -91 751 415 
Q 353 922 353 1747 
Q 353 2572 751 3078 
Q 1150 3584 1784 3584 
Q 2172 3584 2448 3432 
Q 2725 3281 2906 2969 
z
M 947 1747 
Q 947 1113 1208 752 
Q 1469 391 1925 391 
Q 2381 391 2643 752 
Q 2906 1113 2906 1747 
Q 2906 2381 2643 2742 
Q 2381 3103 1925 3103 
Q 1469 3103 1208 2742 
Q 947 2381 947 1747 
z
" transform="scale(0.015625)"/>
      <path id="DejaVuSans-62" d="M 3116 1747 
Q 3116 2381 2855 2742 
Q 2594 3103 2138 3103 
Q 1681 3103 1420 2742 
Q 1159 2381 1159 1747 
Q 1159 1113 1420 752 
Q 1681 391 2138 391 
Q 2594 391 2855 752 
Q 3116 1113 3116 1747 
z
M 1159 2969 
Q 1341 3281 1617 3432 
Q 1894 3584 2278 3584 
Q 2916 3584 3314 3078 
Q 3713 2572 3713 1747 
Q 3713 922 3314 415 
Q 2916 -91 2278 -91 
Q 1894 -91 1617 61 
Q 1341 213 1159 525 
L 1159 0 
L 581 0 
L 581 4863 
L 1159 4863 
L 1159 2969 
z
" transform="scale(0.015625)"/>
      <path id="DejaVuSans-66" d="M 2375 4863 
L 2375 4384 
L 1825 4384 
Q 1516 4384 1395 4259 
Q 1275 4134 1275 3809 
L 1275 3500 
L 2222 3500 
L 2222 3053 
L 1275 3053 
L 1275 0 
L 697 0 
L 697 3053 
L 147 3053 
L 147 3500 
L 697 3500 
L 697 3744 
Q 697 4328 969 4595 
Q 1241 4863 1831 4863 
L 2375 4863 
z
" transform="scale(0.015625)"/>
     </defs>
     <use xlink:href="#DejaVuSans-50"/>
     <use xlink:href="#DejaVuSans-6f" transform="translate(56.677734 0)"/>
     <use xlink:href="#DejaVuSans-70" transform="translate(117.859375 0)"/>
     <use xlink:href="#DejaVuSans-75" transform="translate(181.335938 0)"/>
     <use xlink:href="#DejaVuSans-6c" transform="translate(244.714844 0)"/>
     <use xlink:href="#DejaVuSans-61" transform="translate(272.498047 0)"/>
     <use xlink:href="#DejaVuSans-74" transform="translate(333.777344 0)"/>
     <use xlink:href="#DejaVuSans-69" transform="translate(372.986328 0)"/>
     <use xlink:href="#DejaVuSans-6f" transform="translate(400.769531 0)"/>
     <use xlink:href="#DejaVuSans-6e" transform="translate(461.951172 0)"/>
     <use xlink:href="#DejaVuSans-27" transform="translate(525.330078 0)"/>
     <use xlink:href="#DejaVuSans-73" transform="translate(552.820312 0)"/>
     <use xlink:href="#DejaVuSans-20" transform="translate(604.919922 0)"/>
     <use xlink:href="#DejaVuSans-61" transform="translate(636.707031 0)"/>
     <use xlink:href="#DejaVuSans-76" transform="translate(697.986328 0)"/>
     <use xlink:href="#DejaVuSans-65" transform="translate(757.166016 0)"/>
     <use xlink:href="#DejaVuSans-72" transform="translate(818.689453 0)"/>
     <use xlink:href="#DejaVuSans-61" transform="translate(859.802734 0)"/>
     <use xlink:href="#DejaVuSans-67" transform="translate(921.082031 0)"/>
     <use xlink:href="#DejaVuSans-65" transform="translate(984.558594 0)"/>
     <use xlink:href="#DejaVuSans-20" transform="translate(1046.082031 0)"/>
     <use xlink:href="#DejaVuSans-61" transform="translate(1077.869141 0)"/>
     <use xlink:href="#DejaVuSans-6e" transform="translate(1139.148438 0)"/>
     <use xlink:href="#DejaVuSans-64" transform="translate(1202.527344 0)"/>
     <use xlink:href="#DejaVuSans-20" transform="translate(1266.003906 0)"/>
     <use xlink:href="#DejaVuSans-62" transform="translate(1297.791016 0)"/>
     <use xlink:href="#DejaVuSans-65" transform="translate(1361.267578 0)"/>
     <use xlink:href="#DejaVuSans-73" transform="translate(1422.791016 0)"/>
     <use xlink:href="#DejaVuSans-74" transform="translate(1474.890625 0)"/>
     <use xlink:href="#DejaVuSans-20" transform="translate(1514.099609 0)"/>
     <use xlink:href="#DejaVuSans-66" transform="translate(1545.886719 0)"/>
     <use xlink:href="#DejaVuSans-69" transform="translate(1581.091797 0)"/>
     <use xlink:href="#DejaVuSans-74" transform="translate(1608.875 0)"/>
     <use xlink:href="#DejaVuSans-6e" transform="translate(1648.083984 0)"/>
     <use xlink:href="#DejaVuSans-65" transform="translate(1711.462891 0)"/>
     <use xlink:href="#DejaVuSans-73" transform="translate(1772.986328 0)"/>
     <use xlink:href="#DejaVuSans-73" transform="translate(1825.085938 0)"/>
    </g>
   </g>
   <g id="legend_1">
    <g id="patch_7">
     <path d="M 334.779375 302.584 
L 407.72 302.584 
Q 409.72 302.584 409.72 300.584 
L 409.72 257.549625 
Q 409.72 255.549625 407.72 255.549625 
L 334.779375 255.549625 
Q 332.779375 255.549625 332.779375 257.549625 
L 332.779375 300.584 
Q 332.779375 302.584 334.779375 302.584 
z
" style="fill: #ffffff; opacity: 0.8; stroke: #cccccc; stroke-linejoin: miter"/>
    </g>
    <g id="line2d_24">
     <path d="M 336.779375 263.648062 
L 346.779375 263.648062 
L 356.779375 263.648062 
" style="fill: none; stroke: #0000ff; stroke-width: 1.5; stroke-linecap: square"/>
    </g>
    <g id="text_14">
     <!-- average -->
     <g transform="translate(364.779375 267.148062) scale(0.1 -0.1)">
      <use xlink:href="#DejaVuSans-61"/>
      <use xlink:href="#DejaVuSans-76" transform="translate(61.279297 0)"/>
      <use xlink:href="#DejaVuSans-65" transform="translate(120.458984 0)"/>
      <use xlink:href="#DejaVuSans-72" transform="translate(181.982422 0)"/>
      <use xlink:href="#DejaVuSans-61" transform="translate(223.095703 0)"/>
      <use xlink:href="#DejaVuSans-67" transform="translate(284.375 0)"/>
      <use xlink:href="#DejaVuSans-65" transform="translate(347.851562 0)"/>
     </g>
    </g>
    <g id="line2d_25">
     <path d="M 336.779375 278.326188 
L 346.779375 278.326188 
L 356.779375 278.326188 
" style="fill: none; stroke-dasharray: 9.6,2.4,1.5,2.4; stroke-dashoffset: 0; stroke: #008000; stroke-width: 1.5"/>
    </g>
    <g id="text_15">
     <!-- +1 sd -->
     <g transform="translate(364.779375 281.826188) scale(0.1 -0.1)">
      <defs>
       <path id="DejaVuSans-2b" d="M 2944 4013 
L 2944 2272 
L 4684 2272 
L 4684 1741 
L 2944 1741 
L 2944 0 
L 2419 0 
L 2419 1741 
L 678 1741 
L 678 2272 
L 2419 2272 
L 2419 4013 
L 2944 4013 
z
" transform="scale(0.015625)"/>
      </defs>
      <use xlink:href="#DejaVuSans-2b"/>
      <use xlink:href="#DejaVuSans-31" transform="translate(83.789062 0)"/>
      <use xlink:href="#DejaVuSans-20" transform="translate(147.412109 0)"/>
      <use xlink:href="#DejaVuSans-73" transform="translate(179.199219 0)"/>
      <use xlink:href="#DejaVuSans-64" transform="translate(231.298828 0)"/>
     </g>
    </g>
    <g id="line2d_26">
     <path d="M 336.779375 293.004312 
L 346.779375 293.004312 
L 356.779375 293.004312 
" style="fill: none; stroke: #ff0000; stroke-width: 1.5; stroke-linecap: square"/>
    </g>
    <g id="text_16">
     <!-- best -->
     <g transform="translate(364.779375 296.504312) scale(0.1 -0.1)">
      <use xlink:href="#DejaVuSans-62"/>
      <use xlink:href="#DejaVuSans-65" transform="translate(63.476562 0)"/>
      <use xlink:href="#DejaVuSans-73" transform="translate(125 0)"/>
      <use xlink:href="#DejaVuSans-74" transform="translate(177.099609 0)"/>
     </g>
    </g>
   </g>
  </g>
 </g>
 <defs>
  <clipPath id="p4b18ec0e2f">
   <rect x="57.6" y="41.472" width="357.12" height="266.112"/>
  </clipPath>
 </defs>
</svg>
