<?xml version="1.0" encoding="utf-8" standalone="no"?>
<!DOCTYPE svg PUBLIC "-//W3C//DTD SVG 1.1//EN"
  "http://www.w3.org/Graphics/SVG/1.1/DTD/svg11.dtd">
<svg xmlns:xlink="http://www.w3.org/1999/xlink" width="460.8pt" height="345.6pt" viewBox="0 0 460.8 345.6" xmlns="http://www.w3.org/2000/svg" version="1.1">
 <metadata>
  <rdf:RDF xmlns:dc="http://purl.org/dc/elements/1.1/" xmlns:cc="http://creativecommons.org/ns#" xmlns:rdf="http://www.w3.org/1999/02/22-rdf-syntax-ns#">
   <cc:Work>
    <dc:type rdf:resource="http://purl.org/dc/dcmitype/StillImage"/>
    <dc:date>2026-04-13T12:33:42.264562</dc:date>
    <dc:format>image/svg+xml</dc:format>
    <dc:creator>
     <cc:Agent>
      <dc:title>Matplotlib v3.10.8, https://matplotlib.org/</dc:title>
     </cc:Agent>
    </dc:creator>
   </cc:Work>
  </rdf:RDF>
 </metadata>
 <defs>
  <style type="text/css">*{stroke-linejoin: round; stroke-linecap: butt}</style>
 </defs>
 <g id="figure_1">
  <g id="patch_1">
   <path d="M 0 345.6 
L 460.8 345.6 
L 460.8 0 
L 0 0 
z
" style="fill: #ffffff"/>
  </g>
  <g id="axes_1">
   <g id="patch_2">
    <path d="M 57.6 307.584 
L 414.72 307.584 
L 414.72 41.472 
L 57.6 41.472 
z
" style="fill: #ffffff"/>
   </g>
   <g id="matplotlib.axis_1">
    <g id="xtick_1">
     <g id="line2d_1">
      <path d="M 73.832727 307.584 
L 73.832727 41.472 
" clip-path="url(#p0503cb3b9e)" style="fill: none; stroke: #b0b0b0; stroke-width: 0.8; stroke-linecap: square"/>
     </g>
     <g id="line2d_2">
      <defs>
       <path id="m2227062759" d="M 0 0 
L 0 3.5 
" style="stroke: #000000; stroke-width: 0.8"/>
      </defs>
      <g>
       <use xlink:href="#m2227062759" x="73.832727" y="307.584" style="stroke: #000000; stroke-width: 0.8"/>
      </g>
     </g>
     <g id="text_1">
      <!-- 0 -->
      <g transform="translate(70.651477 322.182437) scale(0.1 -0.1)">
       <defs>
        <path id="DejaVuSans-30" d="M 2034 4250 
Q 1547 4250 1301 3770 
Q 1056 3291 1056 2328 
Q 1056 1369 1301 889 
Q 1547 409 2034 409 
Q 2525 409 2770 889 
Q 3016 1369 3016 2328 
Q 3016 3291 2770 3770 
Q 2525 4250 2034 4250 
z
M 2034 4750 
Q 2819 4750 3233 4129 
Q 3647 3509 3647 2328 
Q 3647 1150 3233 529 
Q 2819 -91 2034 -91 
Q 1250 -91 836 529 
Q 422 1150 422 2328 
Q 422 3509 836 4129 
Q 1250 4750 2034 4750 
z
" transform="scale(0.015625)"/>
       </defs>
       <use xlink:href="#DejaVuSans-30"/>
      </g>
     </g>
    </g>
    <g id="xtick_2">
     <g id="line2d_3">
      <path d="M 114.618474 307.584 
L 114.618474 41.472 
" clip-path="url(#p0503cb3b9e)" style="fill: none; stroke: #b0b0b0; stroke-width: 0.8; stroke-linecap: square"/>
     </g>
     <g id="line2d_4">
      <g>
       <use xlink:href="#m2227062759" x="114.618474" y="307.584" style="stroke: #000000; stroke-width: 0.8"/>
      </g>
     </g>
     <g id="text_2">
      <!-- 25 -->
      <g transform="translate(108.255974 322.182437) scale(0.1 -0.1)">
       <defs>
        <path id="DejaVuSans-32" d="M 1228 531 
L 3431 531 
L 3431 0 
L 469 0 
L 469 531 
Q 828 903 1448 1529 
Q 2069 2156 2228 2338 
Q 2531 2678 2651 2914 
Q 2772 3150 2772 3378 
Q 2772 3750 2511 3984 
Q 2250 4219 1831 4219 
Q 1534 4219 1204 4116 
Q 875 4013 500 3803 
L 500 4441 
Q 881 4594 1212 4672 
Q 1544 4750 1819 4750 
Q 2544 4750 2975 4387 
Q 3406 4025 3406 3419 
Q 3406 3131 3298 2873 
Q 3191 2616 2906 2266 
Q 2828 2175 2409 1742 
Q 1991 1309 1228 531 
z
" transform="scale(0.015625)"/>
        <path id="DejaVuSans-35" d="M 691 4666 
L 3169 4666 
L 3169 4134 
L 1269 4134 
L 1269 2991 
Q 1406 3038 1543 3061 
Q 1681 3084 1819 3084 
Q 2600 3084 3056 2656 
Q 3513 2228 3513 1497 
Q 3513 744 3044 326 
Q 2575 -91 1722 -91 
Q 1428 -91 1123 -41 
Q 819 9 494 109 
L 494 744 
Q 775 591 1075 516 
Q 1375 441 1709 441 
Q 2250 441 2565 725 
Q 2881 1009 2881 1497 
Q 2881 1984 2565 2268 
Q 2250 2553 1709 2553 
Q 1456 2553 1204 2497 
Q 953 2441 691 2322 
L 691 4666 
z
" transform="scale(0.015625)"/>
       </defs>
       <use xlink:href="#DejaVuSans-32"/>
       <use xlink:href="#DejaVuSans-35" transform="translate(63.623047 0)"/>
      </g>
     </g>
    </g>
    <g id="xtick_3">
     <g id="line2d_5">
      <path d="M 155.404221 307.584 
L 155.404221 41.472 
" clip-path="url(#p0503cb3b9e)" style="fill: none; stroke: #b0b0b0; stroke-width: 0.8; stroke-linecap: square"/>
     </g>
     <g id="line2d_6">
      <g>
       <use xlink:href="#m2227062759" x="155.404221" y="307.584" style="stroke: #000000; stroke-width: 0.8"/>
      </g>
     </g>
     <g id="text_3">
      <!-- 50 -->
      <g transform="translate(149.041721 322.182437) scale(0.1 -0.1)">
       <use xlink:href="#DejaVuSans-35"/>
       <use xlink:href="#DejaVuSans-30" transform="translate(63.623047 0)"/>
      </g>
     </g>
    </g>
    <g id="xtick_4">
     <g id="line2d_7">
      <path d="M 196.189968 307.584 
L 196.189968 41.472 
" clip-path="url(#p0503cb3b9e)" style="fill: none; stroke: #b0b0b0; stroke-width: 0.8; stroke-linecap: square"/>
     </g>
     <g id="line2d_8">
      <g>
       <use xlink:href="#m2227062759" x="196.189968" y="307.584" style="stroke: #000000; stroke-width: 0.8"/>
      </g>
     </g>
     <g id="text_4">
      <!-- 75 -->
      <g transform="translate(189.827468 322.182437) scale(0.1 -0.1)">
       <defs>
        <path id="DejaVuSans-37" d="M 525 4666 
L 3525 4666 
L 3525 4397 
L 1831 0 
L 1172 0 
L 2766 4134 
L 525 4134 
L 525 4666 
z
" transform="scale(0.015625)"/>
       </defs>
       <use xlink:href="#DejaVuSans-37"/>
       <use xlink:href="#DejaVuSans-35" transform="translate(63.623047 0)"/>
      </g>
     </g>
    </g>
    <g id="xtick_5">
     <g id="line2d_9">
      <path d="M 236.975715 307.584 
L 236.975715 41.472 
" clip-path="url(#p0503cb3b9e)" style="fill: none; stroke: #b0b0b0; stroke-width: 0.8; stroke-linecap: square"/>
     </g>
     <g id="line2d_10">
      <g>
       <use xlink:href="#m2227062759" x="236.975715" y="307.584" style="stroke: #000000; stroke-width: 0.8"/>
      </g>
     </g>
     <g id="text_5">
      <!-- 100 -->
      <g transform="translate(227.431965 322.182437) scale(0.1 -0.1)">
       <defs>
        <path id="DejaVuSans-31" d="M 794 531 
L 1825 531 
L 1825 4091 
L 703 3866 
L 703 4441 
L 1819 4666 
L 2450 4666 
L 2450 531 
L 3481 531 
L 3481 0 
L 794 0 
L 794 531 
z
" transform="scale(0.015625)"/>
       </defs>
       <use xlink:href="#DejaVuSans-31"/>
       <use xlink:href="#DejaVuSans-30" transform="translate(63.623047 0)"/>
       <use xlink:href="#DejaVuSans-30" transform="translate(127.246094 0)"/>
      </g>
     </g>
    </g>
    <g id="xtick_6">
     <g id="line2d_11">
      <path d="M 277.761462 307.584 
L 277.761462 41.472 
" clip-path="url(#p0503cb3b9e)" style="fill: none; stroke: #b0b0b0; stroke-width: 0.8; stroke-linecap: square"/>
     </g>
     <g id="line2d_12">
      <g>
       <use xlink:href="#m2227062759" x="277.761462" y="307.584" style="stroke: #000000; stroke-width: 0.8"/>
      </g>
     </g>
     <g id="text_6">
      <!-- 125 -->
      <g transform="translate(268.217712 322.182437) scale(0.1 -0.1)">
       <use xlink:href="#DejaVuSans-31"/>
       <use xlink:href="#DejaVuSans-32" transform="translate(63.623047 0)"/>
       <use xlink:href="#DejaVuSans-35" transform="translate(127.246094 0)"/>
      </g>
     </g>
    </g>
    <g id="xtick_7">
     <g id="line2d_13">
      <path d="M 318.547209 307.584 
L 318.547209 41.472 
" clip-path="url(#p0503cb3b9e)" style="fill: none; stroke: #b0b0b0; stroke-width: 0.8; stroke-linecap: square"/>
     </g>
     <g id="line2d_14">
      <g>
       <use xlink:href="#m2227062759" x="318.547209" y="307.584" style="stroke: #000000; stroke-width: 0.8"/>
      </g>
     </g>
     <g id="text_7">
      <!-- 150 -->
      <g transform="translate(309.003459 322.182437) scale(0.1 -0.1)">
       <use xlink:href="#DejaVuSans-31"/>
       <use xlink:href="#DejaVuSans-35" transform="translate(63.623047 0)"/>
       <use xlink:href="#DejaVuSans-30" transform="translate(127.246094 0)"/>
      </g>
     </g>
    </g>
    <g id="xtick_8">
     <g id="line2d_15">
      <path d="M 359.332956 307.584 
L 359.332956 41.472 
" clip-path="url(#p0503cb3b9e)" style="fill: none; stroke: #b0b0b0; stroke-width: 0.8; stroke-linecap: square"/>
     </g>
     <g id="line2d_16">
      <g>
       <use xlink:href="#m2227062759" x="359.332956" y="307.584" style="stroke: #000000; stroke-width: 0.8"/>
      </g>
     </g>
     <g id="text_8">
      <!-- 175 -->
      <g transform="translate(349.789206 322.182437) scale(0.1 -0.1)">
       <use xlink:href="#DejaVuSans-31"/>
       <use xlink:href="#DejaVuSans-37" transform="translate(63.623047 0)"/>
       <use xlink:href="#DejaVuSans-35" transform="translate(127.246094 0)"/>
      </g>
     </g>
    </g>
    <g id="xtick_9">
     <g id="line2d_17">
      <path d="M 400.118703 307.584 
L 400.118703 41.472 
" clip-path="url(#p0503cb3b9e)" style="fill: none; stroke: #b0b0b0; stroke-width: 0.8; stroke-linecap: square"/>
     </g>
     <g id="line2d_18">
      <g>
       <use xlink:href="#m2227062759" x="400.118703" y="307.584" style="stroke: #000000; stroke-width: 0.8"/>
      </g>
     </g>
     <g id="text_9">
      <!-- 200 -->
      <g transform="translate(390.574953 322.182437) scale(0.1 -0.1)">
       <use xlink:href="#DejaVuSans-32"/>
       <use xlink:href="#DejaVuSans-30" transform="translate(63.623047 0)"/>
       <use xlink:href="#DejaVuSans-30" transform="translate(127.246094 0)"/>
      </g>
     </g>
    </g>
    <g id="text_10">
     <!-- Generations -->
     <g transform="translate(205.662344 335.860562) scale(0.1 -0.1)">
      <defs>
       <path id="DejaVuSans-47" d="M 3809 666 
L 3809 1919 
L 2778 1919 
L 2778 2438 
L 4434 2438 
L 4434 434 
Q 4069 175 3628 42 
Q 3188 -91 2688 -91 
Q 1594 -91 976 548 
Q 359 1188 359 2328 
Q 359 3472 976 4111 
Q 1594 4750 2688 4750 
Q 3144 4750 3555 4637 
Q 3966 4525 4313 4306 
L 4313 3634 
Q 3963 3931 3569 4081 
Q 3175 4231 2741 4231 
Q 1884 4231 1454 3753 
Q 1025 3275 1025 2328 
Q 1025 1384 1454 906 
Q 1884 428 2741 428 
Q 3075 428 3337 486 
Q 3600 544 3809 666 
z
" transform="scale(0.015625)"/>
       <path id="DejaVuSans-65" d="M 3597 1894 
L 3597 1613 
L 953 1613 
Q 991 1019 1311 708 
Q 1631 397 2203 397 
Q 2534 397 2845 478 
Q 3156 559 3463 722 
L 3463 178 
Q 3153 47 2828 -22 
Q 2503 -91 2169 -91 
Q 1331 -91 842 396 
Q 353 884 353 1716 
Q 353 2575 817 3079 
Q 1281 3584 2069 3584 
Q 2775 3584 3186 3129 
Q 3597 2675 3597 1894 
z
M 3022 2063 
Q 3016 2534 2758 2815 
Q 2500 3097 2075 3097 
Q 1594 3097 1305 2825 
Q 1016 2553 972 2059 
L 3022 2063 
z
" transform="scale(0.015625)"/>
       <path id="DejaVuSans-6e" d="M 3513 2113 
L 3513 0 
L 2938 0 
L 2938 2094 
Q 2938 2591 2744 2837 
Q 2550 3084 2163 3084 
Q 1697 3084 1428 2787 
Q 1159 2491 1159 1978 
L 1159 0 
L 581 0 
L 581 3500 
L 1159 3500 
L 1159 2956 
Q 1366 3272 1645 3428 
Q 1925 3584 2291 3584 
Q 2894 3584 3203 3211 
Q 3513 2838 3513 2113 
z
" transform="scale(0.015625)"/>
       <path id="DejaVuSans-72" d="M 2631 2963 
Q 2534 3019 2420 3045 
Q 2306 3072 2169 3072 
Q 1681 3072 1420 2755 
Q 1159 2438 1159 1844 
L 1159 0 
L 581 0 
L 581 3500 
L 1159 3500 
L 1159 2956 
Q 1341 3275 1631 3429 
Q 1922 3584 2338 3584 
Q 2397 3584 2469 3576 
Q 2541 3569 2628 3553 
L 2631 2963 
z
" transform="scale(0.015625)"/>
       <path id="DejaVuSans-61" d="M 2194 1759 
Q 1497 1759 1228 1600 
Q 959 1441 959 1056 
Q 959 750 1161 570 
Q 1363 391 1709 391 
Q 2188 391 2477 730 
Q 2766 1069 2766 1631 
L 2766 1759 
L 2194 1759 
z
M 3341 1997 
L 3341 0 
L 2766 0 
L 2766 531 
Q 2569 213 2275 61 
Q 1981 -91 1556 -91 
Q 1019 -91 701 211 
Q 384 513 384 1019 
Q 384 1609 779 1909 
Q 1175 2209 1959 2209 
L 2766 2209 
L 2766 2266 
Q 2766 2663 2505 2880 
Q 2244 3097 1772 3097 
Q 1472 3097 1187 3025 
Q 903 2953 641 2809 
L 641 3341 
Q 956 3463 1253 3523 
Q 1550 3584 1831 3584 
Q 2591 3584 2966 3190 
Q 3341 2797 3341 1997 
z
" transform="scale(0.015625)"/>
       <path id="DejaVuSans-74" d="M 1172 4494 
L 1172 3500 
L 2356 3500 
L 2356 3053 
L 1172 3053 
L 1172 1153 
Q 1172 725 1289 603 
Q 1406 481 1766 481 
L 2356 481 
L 2356 0 
L 1766 0 
Q 1100 0 847 248 
Q 594 497 594 1153 
L 594 3053 
L 172 3053 
L 172 3500 
L 594 3500 
L 594 4494 
L 1172 4494 
z
" transform="scale(0.015625)"/>
       <path id="DejaVuSans-69" d="M 603 3500 
L 1178 3500 
L 1178 0 
L 603 0 
L 603 3500 
z
M 603 4863 
L 1178 4863 
L 1178 4134 
L 603 4134 
L 603 4863 
z
" transform="scale(0.015625)"/>
       <path id="DejaVuSans-6f" d="M 1959 3097 
Q 1497 3097 1228 2736 
Q 959 2375 959 1747 
Q 959 1119 1226 758 
Q 1494 397 1959 397 
Q 2419 397 2687 759 
Q 2956 1122 2956 1747 
Q 2956 2369 2687 2733 
Q 2419 3097 1959 3097 
z
M 1959 3584 
Q 2709 3584 3137 3096 
Q 3566 2609 3566 1747 
Q 3566 888 3137 398 
Q 2709 -91 1959 -91 
Q 1206 -91 779 398 
Q 353 888 353 1747 
Q 353 2609 779 3096 
Q 1206 3584 1959 3584 
z
" transform="scale(0.015625)"/>
       <path id="DejaVuSans-73" d="M 2834 3397 
L 2834 2853 
Q 2591 2978 2328 3040 
Q 2066 3103 1784 3103 
Q 1356 3103 1142 2972 
Q 928 2841 928 2578 
Q 928 2378 1081 2264 
Q 1234 2150 1697 2047 
L 1894 2003 
Q 2506 1872 2764 1633 
Q 3022 1394 3022 966 
Q 3022 478 2636 193 
Q 2250 -91 1575 -91 
Q 1294 -91 989 -36 
Q 684 19 347 128 
L 347 722 
Q 666 556 975 473 
Q 1284 391 1588 391 
Q 1994 391 2212 530 
Q 2431 669 2431 922 
Q 2431 1156 2273 1281 
Q 2116 1406 1581 1522 
L 1381 1569 
Q 847 1681 609 1914 
Q 372 2147 372 2553 
Q 372 3047 722 3315 
Q 1072 3584 1716 3584 
Q 2034 3584 2315 3537 
Q 2597 3491 2834 3397 
z
" transform="scale(0.015625)"/>
      </defs>
      <use xlink:href="#DejaVuSans-47"/>
      <use xlink:href="#DejaVuSans-65" transform="translate(77.490234 0)"/>
      <use xlink:href="#DejaVuSans-6e" transform="translate(139.013672 0)"/>
      <use xlink:href="#DejaVuSans-65" transform="translate(202.392578 0)"/>
      <use xlink:href="#DejaVuSans-72" transform="translate(263.916016 0)"/>
      <use xlink:href="#DejaVuSans-61" transform="translate(305.029297 0)"/>
      <use xlink:href="#DejaVuSans-74" transform="translate(366.308594 0)"/>
      <use xlink:href="#DejaVuSans-69" transform="translate(405.517578 0)"/>
      <use xlink:href="#DejaVuSans-6f" transform="translate(433.300781 0)"/>
      <use xlink:href="#DejaVuSans-6e" transform="translate(494.482422 0)"/>
      <use xlink:href="#DejaVuSans-73" transform="translate(557.861328 0)"/>
     </g>
    </g>
   </g>
   <g id="matplotlib.axis_2">
    <g id="ytick_1">
     <g id="line2d_19">
      <path d="M 57.6 113.034001 
L 414.72 113.034001 
" clip-path="url(#p0503cb3b9e)" style="fill: none; stroke: #b0b0b0; stroke-width: 0.8; stroke-linecap: square"/>
     </g>
     <g id="line2d_20">
      <defs>
       <path id="m1e8caf778f" d="M 0 0 
L -3.5 0 
" style="stroke: #000000; stroke-width: 0.8"/>
      </defs>
      <g>
       <use xlink:href="#m1e8caf778f" x="57.6" y="113.034001" style="stroke: #000000; stroke-width: 0.8"/>
      </g>
     </g>
     <g id="text_11">
      <!-- $\mathdefault{10^{2}}$ -->
      <g transform="translate(33 116.83322) scale(0.1 -0.1)">
       <use xlink:href="#DejaVuSans-31" transform="translate(0 0.765625)"/>
       <use xlink:href="#DejaVuSans-30" transform="translate(63.623047 0.765625)"/>
       <use xlink:href="#DejaVuSans-32" transform="translate(128.203125 39.046875) scale(0.7)"/>
      </g>
     </g>
    </g>
    <g id="text_12">
     <!-- Fitness -->
     <g transform="translate(26.920312 191.845187) rotate(-90) scale(0.1 -0.1)">
      <defs>
       <path id="DejaVuSans-46" d="M 628 4666 
L 3309 4666 
L 3309 4134 
L 1259 4134 
L 1259 2759 
L 3109 2759 
L 3109 2228 
L 1259 2228 
L 1259 0 
L 628 0 
L 628 4666 
z
" transform="scale(0.015625)"/>
      </defs>
      <use xlink:href="#DejaVuSans-46"/>
      <use xlink:href="#DejaVuSans-69" transform="translate(50.269531 0)"/>
      <use xlink:href="#DejaVuSans-74" transform="translate(78.052734 0)"/>
      <use xlink:href="#DejaVuSans-6e" transform="translate(117.261719 0)"/>
      <use xlink:href="#DejaVuSans-65" transform="translate(180.640625 0)"/>
      <use xlink:href="#DejaVuSans-73" transform="translate(242.164062 0)"/>
      <use xlink:href="#DejaVuSans-73" transform="translate(294.263672 0)"/>
     </g>
    </g>
   </g>
   <g id="line2d_21">
    <path d="M 73.832727 295.488 
L 75.464157 240.869132 
L 77.095587 191.52995 
L 78.727017 167.501766 
L 80.358447 160.132801 
L 81.989877 159.710234 
L 83.621307 157.305223 
L 85.252736 152.765239 
L 86.884166 149.481793 
L 88.515596 146.489274 
L 90.147026 143.949476 
L 91.778456 145.021094 
L 93.409886 146.316761 
L 95.041316 141.394562 
L 96.672746 140.249617 
L 98.304175 141.051837 
L 99.935605 138.249545 
L 101.567035 140.393358 
L 103.198465 141.999512 
L 104.829895 139.88428 
L 106.461325 139.34143 
L 108.092755 140.728044 
L 111.355614 139.181822 
L 112.987044 137.05239 
L 114.618474 138.644637 
L 116.249904 138.303508 
L 117.881334 136.738425 
L 119.512764 136.133775 
L 121.144194 136.721092 
L 122.775624 138.660833 
L 124.407053 137.651677 
L 126.038483 132.867957 
L 127.669913 134.264584 
L 129.301343 133.747989 
L 130.932773 134.650723 
L 132.564203 134.472111 
L 134.195633 136.483888 
L 135.827063 135.895719 
L 137.458492 137.875189 
L 139.089922 133.911961 
L 140.721352 133.418127 
L 142.352782 135.572428 
L 143.984212 131.821737 
L 145.615642 134.521835 
L 147.247072 133.988486 
L 148.878502 132.208209 
L 150.509931 134.47459 
L 152.141361 133.376821 
L 153.772791 135.922343 
L 155.404221 134.923367 
L 157.035651 134.875094 
L 158.667081 135.470597 
L 160.298511 135.370251 
L 161.929941 135.67325 
L 163.56137 134.8509 
L 165.1928 134.375789 
L 166.82423 133.307013 
L 168.45566 134.003169 
L 170.08709 134.118431 
L 171.71852 136.66387 
L 173.34995 136.109733 
L 174.98138 135.052209 
L 176.61281 132.667221 
L 178.244239 132.969752 
L 179.875669 133.517397 
L 181.507099 133.561613 
L 183.138529 134.054977 
L 184.769959 133.461594 
L 186.401389 133.807391 
L 188.032819 134.691456 
L 189.664249 133.813485 
L 191.295678 133.495791 
L 192.927108 133.748996 
L 194.558538 133.229145 
L 196.189968 134.373177 
L 197.821398 133.104724 
L 199.452828 132.983757 
L 201.084258 133.588281 
L 202.715688 131.714244 
L 204.347117 131.788473 
L 205.978547 132.092678 
L 207.609977 131.721684 
L 209.241407 133.544443 
L 210.872837 133.066797 
L 212.504267 134.46592 
L 214.135697 134.276657 
L 215.767127 132.015113 
L 217.398556 131.801951 
L 219.029986 133.722441 
L 220.661416 132.174701 
L 222.292846 132.433943 
L 223.924276 133.245425 
L 225.555706 130.74102 
L 227.187136 130.989523 
L 228.818566 134.123225 
L 230.449995 131.218888 
L 232.081425 131.761942 
L 235.344285 133.090245 
L 238.607145 133.313094 
L 240.238575 131.67524 
L 241.870005 132.377424 
L 243.501434 132.380276 
L 245.132864 132.672893 
L 246.764294 131.519184 
L 248.395724 132.332269 
L 250.027154 132.762765 
L 251.658584 131.072621 
L 253.290014 130.471523 
L 254.921444 131.899231 
L 256.552873 131.389963 
L 258.184303 131.936984 
L 259.815733 130.009983 
L 261.447163 131.66489 
L 263.078593 131.645823 
L 264.710023 131.444224 
L 266.341453 130.415468 
L 267.972883 131.143467 
L 269.604312 133.237148 
L 271.235742 130.953143 
L 272.867172 130.062756 
L 274.498602 130.849122 
L 276.130032 130.480233 
L 277.761462 129.703276 
L 279.392892 130.36028 
L 281.024322 132.634538 
L 282.655751 128.828237 
L 284.287181 130.386298 
L 285.918611 130.169127 
L 287.550041 130.136978 
L 289.181471 131.090619 
L 290.812901 130.664481 
L 292.444331 130.878279 
L 294.075761 132.213886 
L 295.70719 133.382849 
L 297.33862 130.245818 
L 298.97005 129.217598 
L 300.60148 130.422594 
L 302.23291 130.439201 
L 303.86434 130.128309 
L 305.49577 131.308514 
L 307.1272 129.195791 
L 308.75863 129.721365 
L 310.390059 130.038927 
L 312.021489 131.459507 
L 313.652919 132.23505 
L 315.284349 130.67007 
L 316.915779 131.729812 
L 318.547209 132.334354 
L 320.178639 130.888272 
L 321.810069 131.255094 
L 323.441498 132.389287 
L 325.072928 131.46619 
L 326.704358 131.610113 
L 328.335788 131.568884 
L 329.967218 131.881182 
L 331.598648 130.591344 
L 333.230078 131.586325 
L 334.861508 132.346026 
L 336.492937 132.096551 
L 338.124367 131.501654 
L 341.387227 131.023184 
L 343.018657 131.048983 
L 344.650087 131.433074 
L 346.281517 132.817526 
L 347.912947 132.066028 
L 349.544376 130.654921 
L 351.175806 130.45866 
L 352.807236 128.531228 
L 354.438666 131.383237 
L 356.070096 131.037438 
L 359.332956 131.855632 
L 360.964386 131.426391 
L 362.595815 130.709965 
L 364.227245 131.917077 
L 365.858675 132.000565 
L 367.490105 130.948091 
L 369.121535 132.48332 
L 370.752965 130.824518 
L 372.384395 130.544104 
L 374.015825 131.902163 
L 377.278684 130.73475 
L 378.910114 130.18247 
L 380.541544 132.439076 
L 382.172974 131.549858 
L 383.804404 132.848676 
L 385.435834 130.922333 
L 387.067264 131.449803 
L 388.698693 131.488939 
L 390.330123 131.267492 
L 391.961553 129.627298 
L 393.592983 131.545326 
L 395.224413 132.024012 
L 396.855843 131.87794 
L 398.487273 131.368531 
L 398.487273 131.368531 
" clip-path="url(#p0503cb3b9e)" style="fill: none; stroke: #0000ff; stroke-width: 1.5; stroke-linecap: square"/>
   </g>
   <g id="line2d_22">
    <path d="M 73.832727 246.814125 
L 75.464157 189.042097 
L 77.095587 140.048097 
L 78.727017 124.660285 
L 80.358447 124.204336 
L 81.989877 123.119837 
L 83.621307 121.659785 
L 85.252736 120.789163 
L 86.884166 117.29374 
L 88.515596 115.863169 
L 90.147026 118.318043 
L 91.778456 118.913885 
L 93.409886 115.176888 
L 95.041316 121.750473 
L 96.672746 123.466854 
L 98.304175 121.846902 
L 99.935605 119.97133 
L 101.567035 121.775417 
L 103.198465 124.654953 
L 106.461325 123.879326 
L 108.092755 119.916985 
L 109.724185 121.563893 
L 111.355614 120.86128 
L 112.987044 121.030204 
L 114.618474 122.884998 
L 116.249904 122.390138 
L 117.881334 122.100032 
L 119.512764 119.308703 
L 121.144194 120.970782 
L 122.775624 118.441887 
L 124.407053 117.018209 
L 126.038483 117.83275 
L 127.669913 120.318221 
L 129.301343 114.053342 
L 130.932773 116.89183 
L 132.564203 118.931474 
L 134.195633 115.981368 
L 135.827063 113.275912 
L 137.458492 114.612167 
L 139.089922 116.633623 
L 142.352782 115.712512 
L 143.984212 116.227658 
L 145.615642 114.647066 
L 147.247072 117.596552 
L 148.878502 116.789374 
L 150.509931 116.324489 
L 152.141361 118.39625 
L 153.772791 119.759241 
L 155.404221 119.271027 
L 157.035651 117.871803 
L 158.667081 118.308844 
L 160.298511 116.803791 
L 161.929941 116.23277 
L 163.56137 116.575328 
L 165.1928 114.751298 
L 166.82423 119.297245 
L 168.45566 120.273859 
L 171.71852 114.816758 
L 173.34995 114.903546 
L 174.98138 113.920081 
L 176.61281 118.46851 
L 178.244239 120.408694 
L 179.875669 115.91865 
L 181.507099 114.891589 
L 183.138529 116.445153 
L 184.769959 117.252437 
L 186.401389 117.736392 
L 188.032819 117.350502 
L 189.664249 115.465235 
L 191.295678 119.038496 
L 192.927108 113.74427 
L 194.558538 117.886387 
L 196.189968 117.133052 
L 197.821398 113.835879 
L 199.452828 115.816786 
L 201.084258 113.8931 
L 202.715688 114.183608 
L 204.347117 115.789636 
L 205.978547 118.847205 
L 207.609977 114.154686 
L 209.241407 114.640713 
L 210.872837 115.913695 
L 212.504267 119.629183 
L 214.135697 116.672929 
L 215.767127 117.122443 
L 217.398556 112.712967 
L 219.029986 115.16316 
L 220.661416 117.107689 
L 222.292846 112.829524 
L 223.924276 118.02375 
L 225.555706 114.750187 
L 227.187136 115.359153 
L 228.818566 114.780635 
L 230.449995 114.880271 
L 232.081425 115.584626 
L 233.712855 117.610218 
L 235.344285 118.074698 
L 236.975715 118.136156 
L 238.607145 119.631198 
L 240.238575 114.912799 
L 241.870005 116.148331 
L 243.501434 116.559444 
L 245.132864 109.743382 
L 246.764294 114.209274 
L 248.395724 116.328727 
L 250.027154 116.75537 
L 251.658584 114.085508 
L 253.290014 114.795861 
L 254.921444 116.978546 
L 256.552873 115.231141 
L 258.184303 115.628448 
L 259.815733 112.59706 
L 261.447163 116.473058 
L 263.078593 116.686921 
L 264.710023 115.931197 
L 266.341453 113.764516 
L 267.972883 115.848979 
L 269.604312 116.834556 
L 272.867172 114.300161 
L 274.498602 115.394089 
L 276.130032 113.478198 
L 277.761462 111.115887 
L 279.392892 115.445247 
L 281.024322 117.682776 
L 282.655751 112.037159 
L 284.287181 115.145988 
L 285.918611 114.677672 
L 287.550041 112.340181 
L 289.181471 114.983483 
L 290.812901 115.046543 
L 292.444331 115.235537 
L 294.075761 113.214321 
L 295.70719 115.075491 
L 297.33862 112.576528 
L 298.97005 113.014968 
L 300.60148 114.795371 
L 302.23291 115.373553 
L 303.86434 114.106176 
L 305.49577 115.856567 
L 307.1272 109.866094 
L 308.75863 113.012327 
L 310.390059 112.646211 
L 312.021489 114.202275 
L 313.652919 116.02182 
L 315.284349 115.821881 
L 316.915779 115.245901 
L 318.547209 116.109493 
L 320.178639 116.085851 
L 321.810069 116.793128 
L 323.441498 118.451186 
L 325.072928 117.837815 
L 326.704358 116.864403 
L 328.335788 115.222105 
L 329.967218 116.971235 
L 331.598648 114.239448 
L 333.230078 116.010963 
L 334.861508 115.245999 
L 336.492937 117.408969 
L 338.124367 117.020843 
L 339.755797 115.593453 
L 341.387227 113.595962 
L 343.018657 114.319615 
L 344.650087 116.549172 
L 346.281517 116.504504 
L 347.912947 117.011104 
L 349.544376 116.492912 
L 351.175806 115.010496 
L 352.807236 112.517581 
L 354.438666 117.504629 
L 356.070096 111.745547 
L 357.701526 116.625216 
L 359.332956 114.582581 
L 360.964386 115.94504 
L 362.595815 113.204866 
L 364.227245 117.896801 
L 365.858675 116.257299 
L 367.490105 116.470946 
L 369.121535 118.38251 
L 370.752965 116.221947 
L 372.384395 113.224257 
L 374.015825 114.889037 
L 375.647254 115.082685 
L 377.278684 115.546867 
L 378.910114 113.583447 
L 380.541544 117.851604 
L 382.172974 116.240572 
L 383.804404 119.579683 
L 385.435834 115.538882 
L 387.067264 115.941749 
L 390.330123 116.368648 
L 391.961553 113.484973 
L 393.592983 115.460033 
L 395.224413 117.698154 
L 396.855843 116.468092 
L 398.487273 114.193382 
L 398.487273 114.193382 
" clip-path="url(#p0503cb3b9e)" style="fill: none; stroke-dasharray: 9.6,2.4,1.5,2.4; stroke-dashoffset: 0; stroke: #008000; stroke-width: 1.5"/>
   </g>
   <g id="line2d_23">
    <path d="M 73.832727 137.909852 
L 75.464157 125.231444 
L 77.095587 100.88977 
L 78.727017 94.92837 
L 80.358447 110.176109 
L 81.989877 114.93936 
L 83.621307 102.192864 
L 85.252736 96.438934 
L 86.884166 102.373328 
L 88.515596 102.284483 
L 90.147026 106.904878 
L 91.778456 102.317137 
L 93.409886 107.159013 
L 95.041316 102.654488 
L 96.672746 90.749809 
L 99.935605 102.413382 
L 103.198465 90.356725 
L 104.829895 99.137512 
L 106.461325 104.147056 
L 108.092755 91.751264 
L 109.724185 99.188401 
L 111.355614 96.330737 
L 114.618474 93.580795 
L 116.249904 100.658583 
L 117.881334 95.116385 
L 119.512764 102.194197 
L 121.144194 89.025268 
L 122.775624 83.239062 
L 124.407053 79.07003 
L 126.038483 93.130313 
L 127.669913 83.836606 
L 129.301343 70.324573 
L 130.932773 80.635944 
L 132.564203 91.93917 
L 134.195633 85.338222 
L 135.827063 82.202934 
L 137.458492 96.55775 
L 139.089922 89.018645 
L 140.721352 66.383179 
L 142.352782 90.130404 
L 143.984212 73.293493 
L 145.615642 71.408059 
L 147.247072 74.212911 
L 148.878502 83.651401 
L 150.509931 81.89332 
L 152.141361 89.027566 
L 153.772791 78.12074 
L 155.404221 77.563141 
L 157.035651 70.726419 
L 158.667081 82.083114 
L 160.298511 83.554851 
L 161.929941 64.324035 
L 163.56137 82.21795 
L 165.1928 82.146639 
L 166.82423 94.794455 
L 168.45566 86.63033 
L 170.08709 71.627662 
L 171.71852 87.591292 
L 173.34995 80.677782 
L 174.98138 82.190597 
L 176.61281 83.374167 
L 178.244239 83.723522 
L 179.875669 83.862093 
L 181.507099 84.686583 
L 183.138529 59.190277 
L 184.769959 79.345967 
L 186.401389 79.204924 
L 188.032819 85.00474 
L 189.664249 80.795816 
L 191.295678 82.08404 
L 192.927108 82.043795 
L 194.558538 56.954126 
L 196.189968 78.026402 
L 197.821398 77.934977 
L 199.452828 81.814332 
L 201.084258 71.635237 
L 202.715688 78.142269 
L 204.347117 83.384508 
L 205.978547 74.351776 
L 207.609977 73.827806 
L 209.241407 82.183218 
L 210.872837 68.864742 
L 212.504267 86.438158 
L 214.135697 86.149232 
L 215.767127 66.644644 
L 217.398556 83.266758 
L 219.029986 82.522601 
L 220.661416 80.815696 
L 222.292846 89.181172 
L 223.924276 90.106548 
L 225.555706 67.68937 
L 227.187136 81.098256 
L 228.818566 90.773633 
L 230.449995 83.396333 
L 232.081425 67.919526 
L 233.712855 86.292655 
L 235.344285 86.48484 
L 236.975715 72.898386 
L 238.607145 89.068807 
L 240.238575 77.877456 
L 241.870005 86.451315 
L 243.501434 82.533158 
L 245.132864 65.024245 
L 246.764294 71.713888 
L 248.395724 75.417727 
L 250.027154 79.60937 
L 251.658584 76.77111 
L 253.290014 82.32811 
L 254.921444 86.370972 
L 256.552873 79.539432 
L 258.184303 90.654361 
L 259.815733 74.414087 
L 261.447163 73.002461 
L 263.078593 82.326177 
L 264.710023 78.347596 
L 266.341453 65.221774 
L 267.972883 81.588204 
L 269.604312 79.304867 
L 271.235742 75.426091 
L 272.867172 78.413418 
L 274.498602 82.184944 
L 276.130032 72.059688 
L 277.761462 70.232354 
L 279.392892 85.193749 
L 281.024322 90.291628 
L 282.655751 66.656448 
L 284.287181 79.452444 
L 285.918611 68.008347 
L 287.550041 53.568 
L 289.181471 87.574874 
L 290.812901 81.068595 
L 292.444331 56.961437 
L 294.075761 56.676261 
L 295.70719 66.515959 
L 297.33862 75.406809 
L 298.97005 74.095765 
L 300.60148 77.952798 
L 302.23291 78.131053 
L 303.86434 67.87907 
L 305.49577 61.734933 
L 307.1272 75.728844 
L 308.75863 65.374288 
L 310.390059 60.426377 
L 312.021489 79.466887 
L 313.652919 76.875637 
L 315.284349 86.216055 
L 320.178639 78.483179 
L 321.810069 87.722554 
L 323.441498 71.42064 
L 325.072928 78.295777 
L 326.704358 86.579758 
L 328.335788 63.018869 
L 329.967218 86.079658 
L 331.598648 71.843964 
L 333.230078 87.451292 
L 334.861508 83.759347 
L 336.492937 83.19048 
L 338.124367 71.696255 
L 339.755797 86.086508 
L 341.387227 55.623596 
L 343.018657 86.315001 
L 344.650087 81.833141 
L 346.281517 81.151811 
L 347.912947 79.576596 
L 349.544376 93.448334 
L 352.807236 65.371729 
L 354.438666 94.709389 
L 356.070096 78.078931 
L 357.701526 87.429026 
L 359.332956 83.563121 
L 360.964386 73.948566 
L 362.595815 69.017321 
L 364.227245 79.24825 
L 365.858675 80.550663 
L 367.490105 87.318019 
L 369.121535 87.893138 
L 370.752965 79.224318 
L 372.384395 75.532445 
L 374.015825 79.64215 
L 375.647254 75.356219 
L 377.278684 73.893202 
L 378.910114 68.727693 
L 380.541544 90.454809 
L 382.172974 80.928025 
L 383.804404 85.994931 
L 385.435834 70.098571 
L 387.067264 85.016977 
L 388.698693 66.681648 
L 390.330123 79.02478 
L 391.961553 79.030997 
L 393.592983 78.348636 
L 395.224413 87.579368 
L 396.855843 77.300373 
L 398.487273 85.028327 
L 398.487273 85.028327 
" clip-path="url(#p0503cb3b9e)" style="fill: none; stroke: #ff0000; stroke-width: 1.5; stroke-linecap: square"/>
   </g>
   <g id="patch_3">
    <path d="M 57.6 307.584 
L 57.6 41.472 
" style="fill: none; stroke: #000000; stroke-width: 0.8; stroke-linejoin: miter; stroke-linecap: square"/>
   </g>
   <g id="patch_4">
    <path d="M 414.72 307.584 
L 414.72 41.472 
" style="fill: none; stroke: #000000; stroke-width: 0.8; stroke-linejoin: miter; stroke-linecap: square"/>
   </g>
   <g id="patch_5">
    <path d="M 57.6 307.584 
L 414.72 307.584 
" style="fill: none; stroke: #000000; stroke-width: 0.8; stroke-linejoin: miter; stroke-linecap: square"/>
   </g>
   <g id="patch_6">
    <path d="M 57.6 41.472 
L 414.72 41.472 
" style="fill: none; stroke: #000000; stroke-width: 0.8; stroke-linejoin: miter; stroke-linecap: square"/>
   </g>
   <g id="text_13">
    <!-- Population's average and best fitness -->
    <g transform="translate(123.529687 35.472) scale(0.12 -0.12)">
     <defs>
      <path id="DejaVuSans-50" d="M 1259 4147 
L 1259 2394 
L 2053 2394 
Q 2494 2394 2734 2622 
Q 2975 2850 2975 3272 
Q 2975 3691 2734 3919 
Q 2494 4147 2053 4147 
L 1259 4147 
z
M 628 4666 
L 2053 4666 
Q 2838 4666 3239 4311 
Q 3641 3956 3641 3272 
Q 3641 2581 3239 2228 
Q 2838 1875 2053 1875 
L 1259 1875 
L 1259 0 
L 628 0 
L 628 4666 
z
" transform="scale(0.015625)"/>
      <path id="DejaVuSans-70" d="M 1159 525 
L 1159 -1331 
L 581 -1331 
L 581 3500 
L 1159 3500 
L 1159 2969 
Q 1341 3281 1617 3432 
Q 1894 3584 2278 3584 
Q 2916 3584 3314 3078 
Q 3713 2572 3713 1747 
Q 3713 922 3314 415 
Q 2916 -91 2278 -91 
Q 1894 -91 1617 61 
Q 1341 213 1159 525 
z
M 3116 1747 
Q 3116 2381 2855 2742 
Q 2594 3103 2138 3103 
Q 1681 3103 1420 2742 
Q 1159 2381 1159 1747 
Q 1159 1113 1420 752 
Q 1681 391 2138 391 
Q 2594 391 2855 752 
Q 3116 1113 3116 1747 
z
" transform="scale(0.015625)"/>
      <path id="DejaVuSans-75" d="M 544 1381 
L 544 3500 
L 1119 3500 
L 1119 1403 
Q 1119 906 1312 657 
Q 1506 409 1894 409 
Q 2359 409 2629 706 
Q 2900 1003 2900 1516 
L 2900 3500 
L 3475 3500 
L 3475 0 
L 2900 0 
L 2900 538 
Q 2691 219 2414 64 
Q 2138 -91 1772 -91 
Q 1169 -91 856 284 
Q 544 659 544 1381 
z
M 1991 3584 
L 1991 3584 
z
" transform="scale(0.015625)"/>
      <path id="DejaVuSans-6c" d="M 603 4863 
L 1178 4863 
L 1178 0 
L 603 0 
L 603 4863 
z
" transform="scale(0.015625)"/>
      <path id="DejaVuSans-27" d="M 1147 4666 
L 1147 2931 
L 616 2931 
L 616 4666 
L 1147 4666 
z
" transform="scale(0.015625)"/>
      <path id="DejaVuSans-20" transform="scale(0.015625)"/>
      <path id="DejaVuSans-76" d="M 191 3500 
L 800 3500 
L 1894 563 
L 2988 3500 
L 3597 3500 
L 2284 0 
L 1503 0 
L 191 3500 
z
" transform="scale(0.015625)"/>
      <path id="DejaVuSans-67" d="M 2906 1791 
Q 2906 2416 2648 2759 
Q 2391 3103 1925 3103 
Q 1463 3103 1205 2759 
Q 947 2416 947 1791 
Q 947 1169 1205 825 
Q 1463 481 1925 481 
Q 2391 481 2648 825 
Q 2906 1169 2906 1791 
z
M 3481 434 
Q 3481 -459 3084 -895 
Q 2688 -1331 1869 -1331 
Q 1566 -1331 1297 -1286 
Q 1028 -1241 775 -1147 
L 775 -588 
Q 1028 -725 1275 -790 
Q 1522 -856 1778 -856 
Q 2344 -856 2625 -561 
Q 2906 -266 2906 331 
L 2906 616 
Q 2728 306 2450 153 
Q 2172 0 1784 0 
Q 1141 0 747 490 
Q 353 981 353 1791 
Q 353 2603 747 3093 
Q 1141 3584 1784 3584 
Q 2172 3584 2450 3431 
Q 2728 3278 2906 2969 
L 2906 3500 
L 3481 3500 
L 3481 434 
z
" transform="scale(0.015625)"/>
      <path id="DejaVuSans-64" d="M 2906 2969 
L 2906 4863 
L 3481 4863 
L 3481 0 
L 2906 0 
L 2906 525 
Q 2725 213 2448 61 
Q 2172 -91 1784 -91 
Q 1150 -91 751 415 
Q 353 922 353 1747 
Q 353 2572 751 3078 
Q 1150 3584 1784 3584 
Q 2172 3584 2448 3432 
Q 2725 3281 2906 2969 
z
M 947 1747 
Q 947 1113 1208 752 
Q 1469 391 1925 391 
Q 2381 391 2643 752 
Q 2906 1113 2906 1747 
Q 2906 2381 2643 2742 
Q 2381 3103 1925 3103 
Q 1469 3103 1208 2742 
Q 947 2381 947 1747 
z
" transform="scale(0.015625)"/>
      <path id="DejaVuSans-62" d="M 3116 1747 
Q 3116 2381 2855 2742 
Q 2594 3103 2138 3103 
Q 1681 3103 1420 2742 
Q 1159 2381 1159 1747 
Q 1159 1113 1420 752 
Q 1681 391 2138 391 
Q 2594 391 2855 752 
Q 3116 1113 3116 1747 
z
M 1159 2969 
Q 1341 3281 1617 3432 
Q 1894 3584 2278 3584 
Q 2916 3584 3314 3078 
Q 3713 2572 3713 1747 
Q 3713 922 3314 415 
Q 2916 -91 2278 -91 
Q 1894 -91 1617 61 
Q 1341 213 1159 525 
L 1159 0 
L 581 0 
L 581 4863 
L 1159 4863 
L 1159 2969 
z
" transform="scale(0.015625)"/>
      <path id="DejaVuSans-66" d="M 2375 4863 
L 2375 4384 
L 1825 4384 
Q 1516 4384 1395 4259 
Q 1275 4134 1275 3809 
L 1275 3500 
L 2222 3500 
L 2222 3053 
L 1275 3053 
L 1275 0 
L 697 0 
L 697 3053 
L 147 3053 
L 147 3500 
L 697 3500 
L 697 3744 
Q 697 4328 969 4595 
Q 1241 4863 1831 4863 
L 2375 4863 
z
" transform="scale(0.015625)"/>
     </defs>
     <use xlink:href="#DejaVuSans-50"/>
     <use xlink:href="#DejaVuSans-6f" transform="translate(56.677734 0)"/>
     <use xlink:href="#DejaVuSans-70" transform="translate(117.859375 0)"/>
     <use xlink:href="#DejaVuSans-75" transform="translate(181.335938 0)"/>
     <use xlink:href="#DejaVuSans-6c" transform="translate(244.714844 0)"/>
     <use xlink:href="#DejaVuSans-61" transform="translate(272.498047 0)"/>
     <use xlink:href="#DejaVuSans-74" transform="translate(333.777344 0)"/>
     <use xlink:href="#DejaVuSans-69" transform="translate(372.986328 0)"/>
     <use xlink:href="#DejaVuSans-6f" transform="translate(400.769531 0)"/>
     <use xlink:href="#DejaVuSans-6e" transform="translate(461.951172 0)"/>
     <use xlink:href="#DejaVuSans-27" transform="translate(525.330078 0)"/>
     <use xlink:href="#DejaVuSans-73" transform="translate(552.820312 0)"/>
     <use xlink:href="#DejaVuSans-20" transform="translate(604.919922 0)"/>
     <use xlink:href="#DejaVuSans-61" transform="translate(636.707031 0)"/>
     <use xlink:href="#DejaVuSans-76" transform="translate(697.986328 0)"/>
     <use xlink:href="#DejaVuSans-65" transform="translate(757.166016 0)"/>
     <use xlink:href="#DejaVuSans-72" transform="translate(818.689453 0)"/>
     <use xlink:href="#DejaVuSans-61" transform="translate(859.802734 0)"/>
     <use xlink:href="#DejaVuSans-67" transform="translate(921.082031 0)"/>
     <use xlink:href="#DejaVuSans-65" transform="translate(984.558594 0)"/>
     <use xlink:href="#DejaVuSans-20" transform="translate(1046.082031 0)"/>
     <use xlink:href="#DejaVuSans-61" transform="translate(1077.869141 0)"/>
     <use xlink:href="#DejaVuSans-6e" transform="translate(1139.148438 0)"/>
     <use xlink:href="#DejaVuSans-64" transform="translate(1202.527344 0)"/>
     <use xlink:href="#DejaVuSans-20" transform="translate(1266.003906 0)"/>
     <use xlink:href="#DejaVuSans-62" transform="translate(1297.791016 0)"/>
     <use xlink:href="#DejaVuSans-65" transform="translate(1361.267578 0)"/>
     <use xlink:href="#DejaVuSans-73" transform="translate(1422.791016 0)"/>
     <use xlink:href="#DejaVuSans-74" transform="translate(1474.890625 0)"/>
     <use xlink:href="#DejaVuSans-20" transform="translate(1514.099609 0)"/>
     <use xlink:href="#DejaVuSans-66" transform="translate(1545.886719 0)"/>
     <use xlink:href="#DejaVuSans-69" transform="translate(1581.091797 0)"/>
     <use xlink:href="#DejaVuSans-74" transform="translate(1608.875 0)"/>
     <use xlink:href="#DejaVuSans-6e" transform="translate(1648.083984 0)"/>
     <use xlink:href="#DejaVuSans-65" transform="translate(1711.462891 0)"/>
     <use xlink:href="#DejaVuSans-73" transform="translate(1772.986328 0)"/>
     <use xlink:href="#DejaVuSans-73" transform="translate(1825.085938 0)"/>
    </g>
   </g>
   <g id="legend_1">
    <g id="patch_7">
     <path d="M 334.779375 302.584 
L 407.72 302.584 
Q 409.72 302.584 409.72 300.584 
L 409.72 257.549625 
Q 409.72 255.549625 407.72 255.549625 
L 334.779375 255.549625 
Q 332.779375 255.549625 332.779375 257.549625 
L 332.779375 300.584 
Q 332.779375 302.584 334.779375 302.584 
z
" style="fill: #ffffff; opacity: 0.8; stroke: #cccccc; stroke-linejoin: miter"/>
    </g>
    <g id="line2d_24">
     <path d="M 336.779375 263.648062 
L 346.779375 263.648062 
L 356.779375 263.648062 
" style="fill: none; stroke: #0000ff; stroke-width: 1.5; stroke-linecap: square"/>
    </g>
    <g id="text_14">
     <!-- average -->
     <g transform="translate(364.779375 267.148062) scale(0.1 -0.1)">
      <use xlink:href="#DejaVuSans-61"/>
      <use xlink:href="#DejaVuSans-76" transform="translate(61.279297 0)"/>
      <use xlink:href="#DejaVuSans-65" transform="translate(120.458984 0)"/>
      <use xlink:href="#DejaVuSans-72" transform="translate(181.982422 0)"/>
      <use xlink:href="#DejaVuSans-61" transform="translate(223.095703 0)"/>
      <use xlink:href="#DejaVuSans-67" transform="translate(284.375 0)"/>
      <use xlink:href="#DejaVuSans-65" transform="translate(347.851562 0)"/>
     </g>
    </g>
    <g id="line2d_25">
     <path d="M 336.779375 278.326188 
L 346.779375 278.326188 
L 356.779375 278.326188 
" style="fill: none; stroke-dasharray: 9.6,2.4,1.5,2.4; stroke-dashoffset: 0; stroke: #008000; stroke-width: 1.5"/>
    </g>
    <g id="text_15">
     <!-- +1 sd -->
     <g transform="translate(364.779375 281.826188) scale(0.1 -0.1)">
      <defs>
       <path id="DejaVuSans-2b" d="M 2944 4013 
L 2944 2272 
L 4684 2272 
L 4684 1741 
L 2944 1741 
L 2944 0 
L 2419 0 
L 2419 1741 
L 678 1741 
L 678 2272 
L 2419 2272 
L 2419 4013 
L 2944 4013 
z
" transform="scale(0.015625)"/>
      </defs>
      <use xlink:href="#DejaVuSans-2b"/>
      <use xlink:href="#DejaVuSans-31" transform="translate(83.789062 0)"/>
      <use xlink:href="#DejaVuSans-20" transform="translate(147.412109 0)"/>
      <use xlink:href="#DejaVuSans-73" transform="translate(179.199219 0)"/>
      <use xlink:href="#DejaVuSans-64" transform="translate(231.298828 0)"/>
     </g>
    </g>
    <g id="line2d_26">
     <path d="M 336.779375 293.004312 
L 346.779375 293.004312 
L 356.779375 293.004312 
" style="fill: none; stroke: #ff0000; stroke-width: 1.5; stroke-linecap: square"/>
    </g>
    <g id="text_16">
     <!-- best -->
     <g transform="translate(364.779375 296.504312) scale(0.1 -0.1)">
      <use xlink:href="#DejaVuSans-62"/>
      <use xlink:href="#DejaVuSans-65" transform="translate(63.476562 0)"/>
      <use xlink:href="#DejaVuSans-73" transform="translate(125 0)"/>
      <use xlink:href="#DejaVuSans-74" transform="translate(177.099609 0)"/>
     </g>
    </g>
   </g>
  </g>
 </g>
 <defs>
  <clipPath id="p0503cb3b9e">
   <rect x="57.6" y="41.472" width="357.12" height="266.112"/>
  </clipPath>
 </defs>
</svg>
