<?xml version="1.0" encoding="UTF-8" standalone="no"?>
<!DOCTYPE svg PUBLIC "-//W3C//DTD SVG 1.1//EN"
 "http://www.w3.org/Graphics/SVG/1.1/DTD/svg11.dtd">
<!-- Generated by graphviz version 12.2.0 (20241103.1931)
 -->
<!-- Pages: 1 -->
<svg width="76pt" height="200pt"
 viewBox="0.00 0.00 75.75 200.49" xmlns="http://www.w3.org/2000/svg" xmlns:xlink="http://www.w3.org/1999/xlink">
<g id="graph0" class="graph" transform="scale(1 1) rotate(0) translate(4 196.49)">
<polygon fill="white" stroke="none" points="-4,4 -4,-196.49 71.75,-196.49 71.75,4 -4,4"/>
<!-- 1 -->
<g id="node1" class="node">
<title>1</title>
<polygon fill="lightgray" stroke="black" points="20.5,-187.25 0,-187.25 0,-168.75 20.5,-168.75 20.5,-187.25"/>
<text text-anchor="middle" x="10.25" y="-174.7" font-family="Times New Roman,serif" font-size="9.00">1</text>
</g>
<!-- 2 -->
<g id="node2" class="node">
<title>2</title>
<polygon fill="lightgray" stroke="black" points="63.5,-73 43,-73 43,-54.5 63.5,-54.5 63.5,-73"/>
<text text-anchor="middle" x="53.25" y="-60.45" font-family="Times New Roman,serif" font-size="9.00">2</text>
</g>
<!-- 4 -->
<g id="node4" class="node">
<title>4</title>
<polygon fill="lightgray" stroke="black" points="63.5,-18.5 43,-18.5 43,0 63.5,0 63.5,-18.5"/>
<text text-anchor="middle" x="53.25" y="-5.95" font-family="Times New Roman,serif" font-size="9.00">4</text>
</g>
<!-- 2&#45;&gt;4 -->
<g id="edge3" class="edge">
<title>2&#45;&gt;4</title>
<path fill="none" stroke="red" stroke-width="0.11" d="M48.08,-54.08C46.59,-47.2 46.15,-37.34 46.77,-28.71"/>
<polygon fill="red" stroke="red" stroke-width="0.11" points="50.22,-29.3 48.1,-18.92 43.29,-28.36 50.22,-29.3"/>
</g>
<!-- 3 -->
<g id="node3" class="node">
<title>3</title>
<polygon fill="lightgray" stroke="black" points="63.5,-127.5 43,-127.5 43,-109 63.5,-109 63.5,-127.5"/>
<text text-anchor="middle" x="53.25" y="-114.95" font-family="Times New Roman,serif" font-size="9.00">3</text>
</g>
<!-- 3&#45;&gt;2 -->
<g id="edge2" class="edge">
<title>3&#45;&gt;2</title>
<path fill="none" stroke="green" stroke-width="0.13" d="M53.25,-108.58C53.25,-101.7 53.25,-91.84 53.25,-83.21"/>
<polygon fill="green" stroke="green" stroke-width="0.13" points="56.75,-83.46 53.25,-73.46 49.75,-83.46 56.75,-83.46"/>
</g>
<!-- 4&#45;&gt;2 -->
<g id="edge4" class="edge">
<title>4&#45;&gt;2</title>
<path fill="none" stroke="red" stroke-width="0.24" d="M58.38,-18.76C59.89,-25.59 60.34,-35.44 59.74,-44.09"/>
<polygon fill="red" stroke="red" stroke-width="0.24" points="56.31,-43.35 58.46,-53.73 63.25,-44.27 56.31,-43.35"/>
</g>
<!-- 5 -->
<g id="node5" class="node">
<title>5</title>
<ellipse fill="lightblue" stroke="black" cx="53.25" cy="-178" rx="14.5" ry="14.5"/>
<text text-anchor="middle" x="53.25" y="-174.7" font-family="Times New Roman,serif" font-size="9.00">5</text>
</g>
<!-- 5&#45;&gt;3 -->
<g id="edge1" class="edge">
<title>5&#45;&gt;3</title>
<path fill="none" stroke="green" stroke-width="0.11" d="M53.25,-163.02C53.25,-155.49 53.25,-146.1 53.25,-137.96"/>
<polygon fill="green" stroke="green" stroke-width="0.11" points="56.75,-138.07 53.25,-128.07 49.75,-138.07 56.75,-138.07"/>
</g>
</g>
</svg>
