<?xml version="1.0" encoding="utf-8" standalone="no"?>
<!DOCTYPE svg PUBLIC "-//W3C//DTD SVG 1.1//EN"
  "http://www.w3.org/Graphics/SVG/1.1/DTD/svg11.dtd">
<svg xmlns:xlink="http://www.w3.org/1999/xlink" width="460.8pt" height="345.6pt" viewBox="0 0 460.8 345.6" xmlns="http://www.w3.org/2000/svg" version="1.1">
 <metadata>
  <rdf:RDF xmlns:dc="http://purl.org/dc/elements/1.1/" xmlns:cc="http://creativecommons.org/ns#" xmlns:rdf="http://www.w3.org/1999/02/22-rdf-syntax-ns#">
   <cc:Work>
    <dc:type rdf:resource="http://purl.org/dc/dcmitype/StillImage"/>
    <dc:date>2026-04-23T15:25:42.781614</dc:date>
    <dc:format>image/svg+xml</dc:format>
    <dc:creator>
     <cc:Agent>
      <dc:title>Matplotlib v3.10.8, https://matplotlib.org/</dc:title>
     </cc:Agent>
    </dc:creator>
   </cc:Work>
  </rdf:RDF>
 </metadata>
 <defs>
  <style type="text/css">*{stroke-linejoin: round; stroke-linecap: butt}</style>
 </defs>
 <g id="figure_1">
  <g id="patch_1">
   <path d="M 0 345.6 
L 460.8 345.6 
L 460.8 0 
L 0 0 
z
" style="fill: #ffffff"/>
  </g>
  <g id="axes_1">
   <g id="patch_2">
    <path d="M 57.6 307.584 
L 414.72 307.584 
L 414.72 41.472 
L 57.6 41.472 
z
" style="fill: #ffffff"/>
   </g>
   <g id="matplotlib.axis_1">
    <g id="xtick_1">
     <g id="line2d_1">
      <path d="M 73.832727 307.584 
L 73.832727 41.472 
" clip-path="url(#p9cc8a49142)" style="fill: none; stroke: #b0b0b0; stroke-width: 0.8; stroke-linecap: square"/>
     </g>
     <g id="line2d_2">
      <defs>
       <path id="m5b1c54b060" d="M 0 0 
L 0 3.5 
" style="stroke: #000000; stroke-width: 0.8"/>
      </defs>
      <g>
       <use xlink:href="#m5b1c54b060" x="73.832727" y="307.584" style="stroke: #000000; stroke-width: 0.8"/>
      </g>
     </g>
     <g id="text_1">
      <!-- 0 -->
      <g transform="translate(70.651477 322.182437) scale(0.1 -0.1)">
       <defs>
        <path id="DejaVuSans-30" d="M 2034 4250 
Q 1547 4250 1301 3770 
Q 1056 3291 1056 2328 
Q 1056 1369 1301 889 
Q 1547 409 2034 409 
Q 2525 409 2770 889 
Q 3016 1369 3016 2328 
Q 3016 3291 2770 3770 
Q 2525 4250 2034 4250 
z
M 2034 4750 
Q 2819 4750 3233 4129 
Q 3647 3509 3647 2328 
Q 3647 1150 3233 529 
Q 2819 -91 2034 -91 
Q 1250 -91 836 529 
Q 422 1150 422 2328 
Q 422 3509 836 4129 
Q 1250 4750 2034 4750 
z
" transform="scale(0.015625)"/>
       </defs>
       <use xlink:href="#DejaVuSans-30"/>
      </g>
     </g>
    </g>
    <g id="xtick_2">
     <g id="line2d_3">
      <path d="M 114.618474 307.584 
L 114.618474 41.472 
" clip-path="url(#p9cc8a49142)" style="fill: none; stroke: #b0b0b0; stroke-width: 0.8; stroke-linecap: square"/>
     </g>
     <g id="line2d_4">
      <g>
       <use xlink:href="#m5b1c54b060" x="114.618474" y="307.584" style="stroke: #000000; stroke-width: 0.8"/>
      </g>
     </g>
     <g id="text_2">
      <!-- 25 -->
      <g transform="translate(108.255974 322.182437) scale(0.1 -0.1)">
       <defs>
        <path id="DejaVuSans-32" d="M 1228 531 
L 3431 531 
L 3431 0 
L 469 0 
L 469 531 
Q 828 903 1448 1529 
Q 2069 2156 2228 2338 
Q 2531 2678 2651 2914 
Q 2772 3150 2772 3378 
Q 2772 3750 2511 3984 
Q 2250 4219 1831 4219 
Q 1534 4219 1204 4116 
Q 875 4013 500 3803 
L 500 4441 
Q 881 4594 1212 4672 
Q 1544 4750 1819 4750 
Q 2544 4750 2975 4387 
Q 3406 4025 3406 3419 
Q 3406 3131 3298 2873 
Q 3191 2616 2906 2266 
Q 2828 2175 2409 1742 
Q 1991 1309 1228 531 
z
" transform="scale(0.015625)"/>
        <path id="DejaVuSans-35" d="M 691 4666 
L 3169 4666 
L 3169 4134 
L 1269 4134 
L 1269 2991 
Q 1406 3038 1543 3061 
Q 1681 3084 1819 3084 
Q 2600 3084 3056 2656 
Q 3513 2228 3513 1497 
Q 3513 744 3044 326 
Q 2575 -91 1722 -91 
Q 1428 -91 1123 -41 
Q 819 9 494 109 
L 494 744 
Q 775 591 1075 516 
Q 1375 441 1709 441 
Q 2250 441 2565 725 
Q 2881 1009 2881 1497 
Q 2881 1984 2565 2268 
Q 2250 2553 1709 2553 
Q 1456 2553 1204 2497 
Q 953 2441 691 2322 
L 691 4666 
z
" transform="scale(0.015625)"/>
       </defs>
       <use xlink:href="#DejaVuSans-32"/>
       <use xlink:href="#DejaVuSans-35" transform="translate(63.623047 0)"/>
      </g>
     </g>
    </g>
    <g id="xtick_3">
     <g id="line2d_5">
      <path d="M 155.404221 307.584 
L 155.404221 41.472 
" clip-path="url(#p9cc8a49142)" style="fill: none; stroke: #b0b0b0; stroke-width: 0.8; stroke-linecap: square"/>
     </g>
     <g id="line2d_6">
      <g>
       <use xlink:href="#m5b1c54b060" x="155.404221" y="307.584" style="stroke: #000000; stroke-width: 0.8"/>
      </g>
     </g>
     <g id="text_3">
      <!-- 50 -->
      <g transform="translate(149.041721 322.182437) scale(0.1 -0.1)">
       <use xlink:href="#DejaVuSans-35"/>
       <use xlink:href="#DejaVuSans-30" transform="translate(63.623047 0)"/>
      </g>
     </g>
    </g>
    <g id="xtick_4">
     <g id="line2d_7">
      <path d="M 196.189968 307.584 
L 196.189968 41.472 
" clip-path="url(#p9cc8a49142)" style="fill: none; stroke: #b0b0b0; stroke-width: 0.8; stroke-linecap: square"/>
     </g>
     <g id="line2d_8">
      <g>
       <use xlink:href="#m5b1c54b060" x="196.189968" y="307.584" style="stroke: #000000; stroke-width: 0.8"/>
      </g>
     </g>
     <g id="text_4">
      <!-- 75 -->
      <g transform="translate(189.827468 322.182437) scale(0.1 -0.1)">
       <defs>
        <path id="DejaVuSans-37" d="M 525 4666 
L 3525 4666 
L 3525 4397 
L 1831 0 
L 1172 0 
L 2766 4134 
L 525 4134 
L 525 4666 
z
" transform="scale(0.015625)"/>
       </defs>
       <use xlink:href="#DejaVuSans-37"/>
       <use xlink:href="#DejaVuSans-35" transform="translate(63.623047 0)"/>
      </g>
     </g>
    </g>
    <g id="xtick_5">
     <g id="line2d_9">
      <path d="M 236.975715 307.584 
L 236.975715 41.472 
" clip-path="url(#p9cc8a49142)" style="fill: none; stroke: #b0b0b0; stroke-width: 0.8; stroke-linecap: square"/>
     </g>
     <g id="line2d_10">
      <g>
       <use xlink:href="#m5b1c54b060" x="236.975715" y="307.584" style="stroke: #000000; stroke-width: 0.8"/>
      </g>
     </g>
     <g id="text_5">
      <!-- 100 -->
      <g transform="translate(227.431965 322.182437) scale(0.1 -0.1)">
       <defs>
        <path id="DejaVuSans-31" d="M 794 531 
L 1825 531 
L 1825 4091 
L 703 3866 
L 703 4441 
L 1819 4666 
L 2450 4666 
L 2450 531 
L 3481 531 
L 3481 0 
L 794 0 
L 794 531 
z
" transform="scale(0.015625)"/>
       </defs>
       <use xlink:href="#DejaVuSans-31"/>
       <use xlink:href="#DejaVuSans-30" transform="translate(63.623047 0)"/>
       <use xlink:href="#DejaVuSans-30" transform="translate(127.246094 0)"/>
      </g>
     </g>
    </g>
    <g id="xtick_6">
     <g id="line2d_11">
      <path d="M 277.761462 307.584 
L 277.761462 41.472 
" clip-path="url(#p9cc8a49142)" style="fill: none; stroke: #b0b0b0; stroke-width: 0.8; stroke-linecap: square"/>
     </g>
     <g id="line2d_12">
      <g>
       <use xlink:href="#m5b1c54b060" x="277.761462" y="307.584" style="stroke: #000000; stroke-width: 0.8"/>
      </g>
     </g>
     <g id="text_6">
      <!-- 125 -->
      <g transform="translate(268.217712 322.182437) scale(0.1 -0.1)">
       <use xlink:href="#DejaVuSans-31"/>
       <use xlink:href="#DejaVuSans-32" transform="translate(63.623047 0)"/>
       <use xlink:href="#DejaVuSans-35" transform="translate(127.246094 0)"/>
      </g>
     </g>
    </g>
    <g id="xtick_7">
     <g id="line2d_13">
      <path d="M 318.547209 307.584 
L 318.547209 41.472 
" clip-path="url(#p9cc8a49142)" style="fill: none; stroke: #b0b0b0; stroke-width: 0.8; stroke-linecap: square"/>
     </g>
     <g id="line2d_14">
      <g>
       <use xlink:href="#m5b1c54b060" x="318.547209" y="307.584" style="stroke: #000000; stroke-width: 0.8"/>
      </g>
     </g>
     <g id="text_7">
      <!-- 150 -->
      <g transform="translate(309.003459 322.182437) scale(0.1 -0.1)">
       <use xlink:href="#DejaVuSans-31"/>
       <use xlink:href="#DejaVuSans-35" transform="translate(63.623047 0)"/>
       <use xlink:href="#DejaVuSans-30" transform="translate(127.246094 0)"/>
      </g>
     </g>
    </g>
    <g id="xtick_8">
     <g id="line2d_15">
      <path d="M 359.332956 307.584 
L 359.332956 41.472 
" clip-path="url(#p9cc8a49142)" style="fill: none; stroke: #b0b0b0; stroke-width: 0.8; stroke-linecap: square"/>
     </g>
     <g id="line2d_16">
      <g>
       <use xlink:href="#m5b1c54b060" x="359.332956" y="307.584" style="stroke: #000000; stroke-width: 0.8"/>
      </g>
     </g>
     <g id="text_8">
      <!-- 175 -->
      <g transform="translate(349.789206 322.182437) scale(0.1 -0.1)">
       <use xlink:href="#DejaVuSans-31"/>
       <use xlink:href="#DejaVuSans-37" transform="translate(63.623047 0)"/>
       <use xlink:href="#DejaVuSans-35" transform="translate(127.246094 0)"/>
      </g>
     </g>
    </g>
    <g id="xtick_9">
     <g id="line2d_17">
      <path d="M 400.118703 307.584 
L 400.118703 41.472 
" clip-path="url(#p9cc8a49142)" style="fill: none; stroke: #b0b0b0; stroke-width: 0.8; stroke-linecap: square"/>
     </g>
     <g id="line2d_18">
      <g>
       <use xlink:href="#m5b1c54b060" x="400.118703" y="307.584" style="stroke: #000000; stroke-width: 0.8"/>
      </g>
     </g>
     <g id="text_9">
      <!-- 200 -->
      <g transform="translate(390.574953 322.182437) scale(0.1 -0.1)">
       <use xlink:href="#DejaVuSans-32"/>
       <use xlink:href="#DejaVuSans-30" transform="translate(63.623047 0)"/>
       <use xlink:href="#DejaVuSans-30" transform="translate(127.246094 0)"/>
      </g>
     </g>
    </g>
    <g id="text_10">
     <!-- Generations -->
     <g transform="translate(205.662344 335.860562) scale(0.1 -0.1)">
      <defs>
       <path id="DejaVuSans-47" d="M 3809 666 
L 3809 1919 
L 2778 1919 
L 2778 2438 
L 4434 2438 
L 4434 434 
Q 4069 175 3628 42 
Q 3188 -91 2688 -91 
Q 1594 -91 976 548 
Q 359 1188 359 2328 
Q 359 3472 976 4111 
Q 1594 4750 2688 4750 
Q 3144 4750 3555 4637 
Q 3966 4525 4313 4306 
L 4313 3634 
Q 3963 3931 3569 4081 
Q 3175 4231 2741 4231 
Q 1884 4231 1454 3753 
Q 1025 3275 1025 2328 
Q 1025 1384 1454 906 
Q 1884 428 2741 428 
Q 3075 428 3337 486 
Q 3600 544 3809 666 
z
" transform="scale(0.015625)"/>
       <path id="DejaVuSans-65" d="M 3597 1894 
L 3597 1613 
L 953 1613 
Q 991 1019 1311 708 
Q 1631 397 2203 397 
Q 2534 397 2845 478 
Q 3156 559 3463 722 
L 3463 178 
Q 3153 47 2828 -22 
Q 2503 -91 2169 -91 
Q 1331 -91 842 396 
Q 353 884 353 1716 
Q 353 2575 817 3079 
Q 1281 3584 2069 3584 
Q 2775 3584 3186 3129 
Q 3597 2675 3597 1894 
z
M 3022 2063 
Q 3016 2534 2758 2815 
Q 2500 3097 2075 3097 
Q 1594 3097 1305 2825 
Q 1016 2553 972 2059 
L 3022 2063 
z
" transform="scale(0.015625)"/>
       <path id="DejaVuSans-6e" d="M 3513 2113 
L 3513 0 
L 2938 0 
L 2938 2094 
Q 2938 2591 2744 2837 
Q 2550 3084 2163 3084 
Q 1697 3084 1428 2787 
Q 1159 2491 1159 1978 
L 1159 0 
L 581 0 
L 581 3500 
L 1159 3500 
L 1159 2956 
Q 1366 3272 1645 3428 
Q 1925 3584 2291 3584 
Q 2894 3584 3203 3211 
Q 3513 2838 3513 2113 
z
" transform="scale(0.015625)"/>
       <path id="DejaVuSans-72" d="M 2631 2963 
Q 2534 3019 2420 3045 
Q 2306 3072 2169 3072 
Q 1681 3072 1420 2755 
Q 1159 2438 1159 1844 
L 1159 0 
L 581 0 
L 581 3500 
L 1159 3500 
L 1159 2956 
Q 1341 3275 1631 3429 
Q 1922 3584 2338 3584 
Q 2397 3584 2469 3576 
Q 2541 3569 2628 3553 
L 2631 2963 
z
" transform="scale(0.015625)"/>
       <path id="DejaVuSans-61" d="M 2194 1759 
Q 1497 1759 1228 1600 
Q 959 1441 959 1056 
Q 959 750 1161 570 
Q 1363 391 1709 391 
Q 2188 391 2477 730 
Q 2766 1069 2766 1631 
L 2766 1759 
L 2194 1759 
z
M 3341 1997 
L 3341 0 
L 2766 0 
L 2766 531 
Q 2569 213 2275 61 
Q 1981 -91 1556 -91 
Q 1019 -91 701 211 
Q 384 513 384 1019 
Q 384 1609 779 1909 
Q 1175 2209 1959 2209 
L 2766 2209 
L 2766 2266 
Q 2766 2663 2505 2880 
Q 2244 3097 1772 3097 
Q 1472 3097 1187 3025 
Q 903 2953 641 2809 
L 641 3341 
Q 956 3463 1253 3523 
Q 1550 3584 1831 3584 
Q 2591 3584 2966 3190 
Q 3341 2797 3341 1997 
z
" transform="scale(0.015625)"/>
       <path id="DejaVuSans-74" d="M 1172 4494 
L 1172 3500 
L 2356 3500 
L 2356 3053 
L 1172 3053 
L 1172 1153 
Q 1172 725 1289 603 
Q 1406 481 1766 481 
L 2356 481 
L 2356 0 
L 1766 0 
Q 1100 0 847 248 
Q 594 497 594 1153 
L 594 3053 
L 172 3053 
L 172 3500 
L 594 3500 
L 594 4494 
L 1172 4494 
z
" transform="scale(0.015625)"/>
       <path id="DejaVuSans-69" d="M 603 3500 
L 1178 3500 
L 1178 0 
L 603 0 
L 603 3500 
z
M 603 4863 
L 1178 4863 
L 1178 4134 
L 603 4134 
L 603 4863 
z
" transform="scale(0.015625)"/>
       <path id="DejaVuSans-6f" d="M 1959 3097 
Q 1497 3097 1228 2736 
Q 959 2375 959 1747 
Q 959 1119 1226 758 
Q 1494 397 1959 397 
Q 2419 397 2687 759 
Q 2956 1122 2956 1747 
Q 2956 2369 2687 2733 
Q 2419 3097 1959 3097 
z
M 1959 3584 
Q 2709 3584 3137 3096 
Q 3566 2609 3566 1747 
Q 3566 888 3137 398 
Q 2709 -91 1959 -91 
Q 1206 -91 779 398 
Q 353 888 353 1747 
Q 353 2609 779 3096 
Q 1206 3584 1959 3584 
z
" transform="scale(0.015625)"/>
       <path id="DejaVuSans-73" d="M 2834 3397 
L 2834 2853 
Q 2591 2978 2328 3040 
Q 2066 3103 1784 3103 
Q 1356 3103 1142 2972 
Q 928 2841 928 2578 
Q 928 2378 1081 2264 
Q 1234 2150 1697 2047 
L 1894 2003 
Q 2506 1872 2764 1633 
Q 3022 1394 3022 966 
Q 3022 478 2636 193 
Q 2250 -91 1575 -91 
Q 1294 -91 989 -36 
Q 684 19 347 128 
L 347 722 
Q 666 556 975 473 
Q 1284 391 1588 391 
Q 1994 391 2212 530 
Q 2431 669 2431 922 
Q 2431 1156 2273 1281 
Q 2116 1406 1581 1522 
L 1381 1569 
Q 847 1681 609 1914 
Q 372 2147 372 2553 
Q 372 3047 722 3315 
Q 1072 3584 1716 3584 
Q 2034 3584 2315 3537 
Q 2597 3491 2834 3397 
z
" transform="scale(0.015625)"/>
      </defs>
      <use xlink:href="#DejaVuSans-47"/>
      <use xlink:href="#DejaVuSans-65" transform="translate(77.490234 0)"/>
      <use xlink:href="#DejaVuSans-6e" transform="translate(139.013672 0)"/>
      <use xlink:href="#DejaVuSans-65" transform="translate(202.392578 0)"/>
      <use xlink:href="#DejaVuSans-72" transform="translate(263.916016 0)"/>
      <use xlink:href="#DejaVuSans-61" transform="translate(305.029297 0)"/>
      <use xlink:href="#DejaVuSans-74" transform="translate(366.308594 0)"/>
      <use xlink:href="#DejaVuSans-69" transform="translate(405.517578 0)"/>
      <use xlink:href="#DejaVuSans-6f" transform="translate(433.300781 0)"/>
      <use xlink:href="#DejaVuSans-6e" transform="translate(494.482422 0)"/>
      <use xlink:href="#DejaVuSans-73" transform="translate(557.861328 0)"/>
     </g>
    </g>
   </g>
   <g id="matplotlib.axis_2">
    <g id="ytick_1">
     <g id="line2d_19">
      <path d="M 57.6 133.377547 
L 414.72 133.377547 
" clip-path="url(#p9cc8a49142)" style="fill: none; stroke: #b0b0b0; stroke-width: 0.8; stroke-linecap: square"/>
     </g>
     <g id="line2d_20">
      <defs>
       <path id="m14e004b793" d="M 0 0 
L -3.5 0 
" style="stroke: #000000; stroke-width: 0.8"/>
      </defs>
      <g>
       <use xlink:href="#m14e004b793" x="57.6" y="133.377547" style="stroke: #000000; stroke-width: 0.8"/>
      </g>
     </g>
     <g id="text_11">
      <!-- $\mathdefault{10^{2}}$ -->
      <g transform="translate(33 137.176766) scale(0.1 -0.1)">
       <use xlink:href="#DejaVuSans-31" transform="translate(0 0.765625)"/>
       <use xlink:href="#DejaVuSans-30" transform="translate(63.623047 0.765625)"/>
       <use xlink:href="#DejaVuSans-32" transform="translate(128.203125 39.046875) scale(0.7)"/>
      </g>
     </g>
    </g>
    <g id="text_12">
     <!-- Fitness -->
     <g transform="translate(26.920312 191.845187) rotate(-90) scale(0.1 -0.1)">
      <defs>
       <path id="DejaVuSans-46" d="M 628 4666 
L 3309 4666 
L 3309 4134 
L 1259 4134 
L 1259 2759 
L 3109 2759 
L 3109 2228 
L 1259 2228 
L 1259 0 
L 628 0 
L 628 4666 
z
" transform="scale(0.015625)"/>
      </defs>
      <use xlink:href="#DejaVuSans-46"/>
      <use xlink:href="#DejaVuSans-69" transform="translate(50.269531 0)"/>
      <use xlink:href="#DejaVuSans-74" transform="translate(78.052734 0)"/>
      <use xlink:href="#DejaVuSans-6e" transform="translate(117.261719 0)"/>
      <use xlink:href="#DejaVuSans-65" transform="translate(180.640625 0)"/>
      <use xlink:href="#DejaVuSans-73" transform="translate(242.164062 0)"/>
      <use xlink:href="#DejaVuSans-73" transform="translate(294.263672 0)"/>
     </g>
    </g>
   </g>
   <g id="line2d_21">
    <path d="M 73.832727 295.488 
L 75.464157 241.671707 
L 77.095587 197.266066 
L 78.727017 178.429559 
L 80.358447 171.413629 
L 81.989877 180.281935 
L 83.621307 169.228418 
L 85.252736 169.347824 
L 86.884166 167.466528 
L 88.515596 168.413998 
L 90.147026 166.662928 
L 91.778456 166.990286 
L 93.409886 164.208683 
L 95.041316 162.327908 
L 96.672746 162.792508 
L 98.304175 162.805307 
L 99.935605 162.512691 
L 101.567035 161.539724 
L 104.829895 159.893975 
L 106.461325 161.424778 
L 108.092755 165.204962 
L 109.724185 162.263683 
L 111.355614 162.211274 
L 112.987044 164.636904 
L 114.618474 160.756295 
L 116.249904 160.347626 
L 117.881334 157.908619 
L 119.512764 158.313968 
L 121.144194 159.136047 
L 122.775624 160.399746 
L 124.407053 160.873526 
L 126.038483 160.044585 
L 127.669913 160.458336 
L 129.301343 159.715556 
L 130.932773 161.771408 
L 134.195633 158.090265 
L 135.827063 155.234442 
L 137.458492 158.14798 
L 139.089922 154.793873 
L 140.721352 159.812961 
L 142.352782 155.864911 
L 143.984212 156.717412 
L 145.615642 158.058905 
L 147.247072 157.504075 
L 148.878502 152.916939 
L 150.509931 154.395423 
L 152.141361 156.853863 
L 153.772791 154.66254 
L 155.404221 154.781539 
L 157.035651 156.651776 
L 158.667081 156.019302 
L 160.298511 153.244534 
L 161.929941 154.531778 
L 163.56137 153.412185 
L 165.1928 156.985915 
L 166.82423 154.810995 
L 168.45566 154.473496 
L 170.08709 155.340699 
L 171.71852 154.166967 
L 173.34995 150.469339 
L 174.98138 155.973895 
L 176.61281 153.603185 
L 178.244239 153.576676 
L 179.875669 154.077845 
L 181.507099 151.362332 
L 183.138529 155.602283 
L 184.769959 153.035958 
L 186.401389 150.821993 
L 188.032819 155.248667 
L 189.664249 150.983534 
L 191.295678 154.873127 
L 192.927108 153.672265 
L 194.558538 153.587965 
L 196.189968 153.097782 
L 197.821398 153.875052 
L 199.452828 153.911522 
L 201.084258 152.439602 
L 202.715688 154.858347 
L 204.347117 151.896915 
L 205.978547 153.367983 
L 207.609977 156.849654 
L 209.241407 154.234818 
L 210.872837 152.624146 
L 212.504267 154.754233 
L 214.135697 152.372992 
L 215.767127 153.130961 
L 217.398556 154.177905 
L 219.029986 153.199545 
L 220.661416 155.678237 
L 222.292846 151.709556 
L 223.924276 151.87413 
L 225.555706 153.846753 
L 227.187136 156.254399 
L 228.818566 151.187126 
L 230.449995 155.252722 
L 232.081425 155.758378 
L 233.712855 155.917622 
L 235.344285 155.53787 
L 236.975715 155.321186 
L 238.607145 151.930346 
L 240.238575 154.471697 
L 241.870005 153.993771 
L 243.501434 154.736175 
L 245.132864 151.902269 
L 246.764294 151.121798 
L 248.395724 154.707637 
L 250.027154 153.596372 
L 251.658584 158.165348 
L 253.290014 152.599475 
L 254.921444 152.401893 
L 256.552873 155.927928 
L 258.184303 152.376186 
L 259.815733 152.565362 
L 263.078593 155.378312 
L 264.710023 157.218408 
L 266.341453 152.92693 
L 267.972883 153.811225 
L 269.604312 155.402002 
L 271.235742 154.502439 
L 272.867172 156.78768 
L 274.498602 153.848505 
L 276.130032 151.881244 
L 277.761462 152.246127 
L 279.392892 155.028564 
L 281.024322 154.488066 
L 282.655751 152.621134 
L 284.287181 153.287914 
L 285.918611 153.713044 
L 287.550041 152.868906 
L 289.181471 153.402642 
L 290.812901 151.78826 
L 292.444331 152.257956 
L 294.075761 154.678274 
L 295.70719 154.776624 
L 298.97005 151.856077 
L 300.60148 152.896518 
L 302.23291 152.664584 
L 303.86434 152.997052 
L 305.49577 152.485306 
L 307.1272 152.155442 
L 308.75863 155.200663 
L 310.390059 157.101974 
L 312.021489 155.253224 
L 313.652919 152.906023 
L 315.284349 154.765896 
L 316.915779 154.251033 
L 318.547209 153.410456 
L 320.178639 155.071638 
L 321.810069 153.203627 
L 323.441498 153.935 
L 325.072928 155.017314 
L 326.704358 152.159451 
L 328.335788 152.743744 
L 329.967218 154.444257 
L 331.598648 152.873261 
L 333.230078 154.778477 
L 334.861508 154.316921 
L 336.492937 153.63993 
L 338.124367 155.234919 
L 339.755797 152.984656 
L 341.387227 151.257063 
L 343.018657 152.879073 
L 344.650087 153.956019 
L 346.281517 155.365605 
L 347.912947 152.551176 
L 349.544376 156.903137 
L 351.175806 156.205741 
L 352.807236 153.877356 
L 354.438666 154.024552 
L 356.070096 152.447797 
L 357.701526 155.296122 
L 359.332956 153.722229 
L 360.964386 154.791791 
L 362.595815 153.216961 
L 364.227245 153.849528 
L 365.858675 153.503686 
L 367.490105 152.766233 
L 369.121535 156.267188 
L 370.752965 156.018277 
L 372.384395 154.963552 
L 374.015825 155.056514 
L 375.647254 153.67335 
L 377.278684 152.045971 
L 378.910114 153.682655 
L 380.541544 154.884083 
L 382.172974 154.692904 
L 383.804404 156.93459 
L 385.435834 153.943977 
L 387.067264 154.766338 
L 388.698693 155.144161 
L 390.330123 152.623009 
L 391.961553 155.213699 
L 393.592983 153.197785 
L 395.224413 155.421753 
L 396.855843 157.299271 
L 398.487273 154.578386 
L 398.487273 154.578386 
" clip-path="url(#p9cc8a49142)" style="fill: none; stroke: #0000ff; stroke-width: 1.5; stroke-linecap: square"/>
   </g>
   <g id="line2d_22">
    <path d="M 73.832727 246.564139 
L 75.464157 188.157375 
L 77.095587 152.686891 
L 78.727017 144.710111 
L 80.358447 143.656607 
L 81.989877 138.837103 
L 83.621307 137.432511 
L 85.252736 137.895376 
L 86.884166 135.851901 
L 88.515596 138.618143 
L 90.147026 140.257853 
L 91.778456 136.530426 
L 93.409886 139.136419 
L 95.041316 139.632712 
L 96.672746 137.843569 
L 99.935605 136.541218 
L 101.567035 139.854464 
L 103.198465 136.886806 
L 104.829895 139.238769 
L 106.461325 136.915992 
L 108.092755 141.953715 
L 109.724185 138.434812 
L 111.355614 137.148873 
L 112.987044 136.496902 
L 114.618474 139.203746 
L 116.249904 134.00709 
L 117.881334 135.695777 
L 119.512764 138.071996 
L 121.144194 137.550008 
L 122.775624 138.389935 
L 124.407053 138.320108 
L 126.038483 135.814686 
L 127.669913 137.642711 
L 129.301343 136.961972 
L 132.564203 138.242057 
L 134.195633 134.895186 
L 135.827063 135.014768 
L 137.458492 137.353248 
L 139.089922 133.649989 
L 140.721352 137.330784 
L 142.352782 132.372636 
L 143.984212 135.230379 
L 145.615642 135.644872 
L 148.878502 131.05699 
L 150.509931 132.588529 
L 152.141361 134.810109 
L 153.772791 132.053281 
L 155.404221 133.827892 
L 157.035651 135.211236 
L 158.667081 132.699483 
L 160.298511 131.28281 
L 161.929941 133.431353 
L 163.56137 130.990104 
L 165.1928 133.324001 
L 166.82423 132.984503 
L 168.45566 132.77755 
L 170.08709 132.073389 
L 171.71852 133.145952 
L 173.34995 127.918007 
L 174.98138 134.190037 
L 176.61281 131.860937 
L 178.244239 131.083559 
L 179.875669 130.559026 
L 181.507099 129.458321 
L 183.138529 133.126807 
L 184.769959 132.709809 
L 186.401389 129.089137 
L 188.032819 133.568881 
L 189.664249 129.93845 
L 191.295678 134.227883 
L 192.927108 132.851728 
L 194.558538 130.584904 
L 196.189968 130.130723 
L 197.821398 132.347325 
L 199.452828 132.451169 
L 201.084258 130.474881 
L 202.715688 135.2394 
L 204.347117 130.985952 
L 205.978547 131.423538 
L 207.609977 135.780324 
L 209.241407 132.248693 
L 210.872837 128.098818 
L 212.504267 133.523351 
L 214.135697 130.774629 
L 215.767127 131.966119 
L 217.398556 132.472873 
L 219.029986 130.788728 
L 220.661416 133.683492 
L 222.292846 128.420378 
L 223.924276 130.804079 
L 225.555706 132.031615 
L 227.187136 134.693406 
L 228.818566 125.724441 
L 230.449995 135.360638 
L 232.081425 132.377164 
L 233.712855 135.706282 
L 235.344285 133.772354 
L 236.975715 134.346703 
L 238.607145 128.922422 
L 240.238575 133.49459 
L 241.870005 133.878955 
L 243.501434 133.054903 
L 245.132864 129.194439 
L 246.764294 129.728362 
L 248.395724 130.744186 
L 250.027154 133.348373 
L 251.658584 137.163117 
L 253.290014 132.409387 
L 254.921444 129.704176 
L 256.552873 135.111337 
L 258.184303 130.18057 
L 259.815733 132.971615 
L 261.447163 131.771485 
L 263.078593 134.384597 
L 264.710023 135.850409 
L 266.341453 131.596506 
L 267.972883 132.575 
L 269.604312 131.594192 
L 271.235742 133.896651 
L 272.867172 134.150148 
L 274.498602 132.812643 
L 276.130032 128.277549 
L 277.761462 129.771687 
L 279.392892 133.55313 
L 281.024322 132.312262 
L 282.655751 130.455711 
L 284.287181 129.892679 
L 285.918611 130.529463 
L 287.550041 132.875025 
L 289.181471 133.326463 
L 290.812901 130.421106 
L 292.444331 130.823541 
L 294.075761 135.647129 
L 295.70719 134.467383 
L 297.33862 130.779269 
L 298.97005 130.198762 
L 300.60148 128.533973 
L 302.23291 130.684037 
L 303.86434 132.505854 
L 305.49577 130.389717 
L 307.1272 129.683584 
L 308.75863 134.70087 
L 312.021489 134.413131 
L 313.652919 130.591272 
L 315.284349 132.626171 
L 318.547209 131.795131 
L 320.178639 132.8653 
L 321.810069 131.616295 
L 323.441498 130.911924 
L 326.704358 130.581516 
L 328.335788 131.254252 
L 329.967218 134.331442 
L 331.598648 130.372653 
L 333.230078 132.544285 
L 334.861508 132.355663 
L 336.492937 130.702951 
L 338.124367 133.189233 
L 339.755797 130.014463 
L 341.387227 130.355448 
L 343.018657 132.401189 
L 344.650087 132.99687 
L 346.281517 133.728429 
L 347.912947 129.349464 
L 349.544376 137.303694 
L 351.175806 134.179344 
L 352.807236 132.513709 
L 354.438666 132.398858 
L 356.070096 130.138303 
L 357.701526 134.864503 
L 359.332956 130.738805 
L 360.964386 134.598396 
L 362.595815 132.238651 
L 365.858675 130.246942 
L 367.490105 131.337178 
L 369.121535 134.442311 
L 370.752965 132.557977 
L 372.384395 134.452698 
L 374.015825 133.029104 
L 375.647254 131.988391 
L 377.278684 129.032657 
L 378.910114 131.939061 
L 380.541544 134.358391 
L 382.172974 133.705376 
L 383.804404 135.250187 
L 385.435834 132.343718 
L 387.067264 133.293318 
L 388.698693 134.509006 
L 390.330123 131.523476 
L 393.592983 133.353949 
L 395.224413 135.749978 
L 396.855843 134.251597 
L 398.487273 134.256939 
L 398.487273 134.256939 
" clip-path="url(#p9cc8a49142)" style="fill: none; stroke-dasharray: 9.6,2.4,1.5,2.4; stroke-dashoffset: 0; stroke: #008000; stroke-width: 1.5"/>
   </g>
   <g id="line2d_23">
    <path d="M 73.832727 137.312749 
L 75.464157 113.367293 
L 77.095587 96.092481 
L 78.727017 104.700312 
L 80.358447 92.626766 
L 81.989877 88.290913 
L 83.621307 100.297767 
L 85.252736 81.056009 
L 86.884166 80.94198 
L 88.515596 81.358707 
L 90.147026 80.949387 
L 91.778456 84.826537 
L 93.409886 92.126547 
L 95.041316 96.237418 
L 96.672746 73.484552 
L 98.304175 100.058774 
L 99.935605 92.381019 
L 101.567035 88.472395 
L 103.198465 88.628142 
L 104.829895 96.285197 
L 106.461325 85.266531 
L 108.092755 104.418009 
L 109.724185 105.063664 
L 111.355614 100.080076 
L 112.987044 63.401884 
L 114.618474 84.520379 
L 116.249904 54.007726 
L 117.881334 92.330833 
L 119.512764 80.721695 
L 121.144194 100.151284 
L 122.775624 99.980625 
L 124.407053 104.895631 
L 126.038483 84.819159 
L 127.669913 70.851827 
L 129.301343 60.130983 
L 130.932773 84.75571 
L 132.564203 80.945223 
L 134.195633 81.18211 
L 135.827063 108.688537 
L 137.458492 96.344624 
L 139.089922 88.200129 
L 140.721352 96.566397 
L 142.352782 85.408258 
L 143.984212 93.022352 
L 145.615642 88.24711 
L 148.878502 54.050495 
L 150.509931 88.144969 
L 152.141361 88.741304 
L 153.772791 84.7815 
L 155.404221 81.844519 
L 157.035651 84.755299 
L 158.667081 80.825304 
L 160.298511 88.508682 
L 161.929941 73.75435 
L 163.56137 96.116454 
L 165.1928 70.692273 
L 166.82423 77.796868 
L 168.45566 88.522582 
L 170.08709 53.568 
L 171.71852 80.813904 
L 173.34995 80.384182 
L 174.98138 92.359124 
L 176.61281 73.601828 
L 178.244239 92.400735 
L 179.875669 66.418676 
L 181.507099 88.572522 
L 183.138529 70.908353 
L 184.769959 71.005224 
L 186.401389 80.757697 
L 188.032819 88.579671 
L 189.664249 85.076771 
L 191.295678 80.675408 
L 192.927108 95.837783 
L 194.558538 77.535728 
L 196.189968 56.867289 
L 197.821398 92.355599 
L 199.452828 96.490138 
L 201.084258 70.608949 
L 202.715688 88.456805 
L 204.347117 77.026759 
L 205.978547 85.149184 
L 207.609977 95.873838 
L 209.241407 74.089407 
L 210.872837 77.45749 
L 212.504267 92.317134 
L 214.135697 66.751059 
L 215.767127 88.33497 
L 217.398556 57.794628 
L 219.029986 80.676652 
L 220.661416 73.519115 
L 222.292846 76.980378 
L 223.924276 74.527562 
L 225.555706 85.129855 
L 227.187136 70.278635 
L 228.818566 57.175139 
L 230.449995 81.219429 
L 232.081425 101.181025 
L 233.712855 80.856447 
L 235.344285 92.294193 
L 238.607145 84.490734 
L 240.238575 57.774222 
L 241.870005 88.548176 
L 243.501434 85.049935 
L 245.132864 84.46695 
L 246.764294 84.277583 
L 248.395724 70.315526 
L 250.027154 95.973412 
L 251.658584 95.903408 
L 253.290014 59.998127 
L 254.921444 73.618395 
L 256.552873 81.678531 
L 258.184303 85.15725 
L 259.815733 96.23222 
L 261.447163 64.225649 
L 263.078593 92.433226 
L 264.710023 76.96657 
L 266.341453 84.813332 
L 267.972883 81.043871 
L 269.604312 80.786789 
L 271.235742 74.134265 
L 272.867172 70.380651 
L 274.498602 81.324979 
L 277.761462 60.245377 
L 279.392892 81.761922 
L 281.024322 77.410936 
L 282.655751 89.099076 
L 284.287181 74.214048 
L 285.918611 74.003077 
L 287.550041 92.468406 
L 289.181471 96.436177 
L 290.812901 84.373216 
L 292.444331 74.416421 
L 294.075761 104.343024 
L 295.70719 77.532424 
L 297.33862 77.053106 
L 298.97005 92.495706 
L 300.60148 76.775357 
L 302.23291 91.583668 
L 303.86434 88.510421 
L 305.49577 77.907185 
L 307.1272 60.465956 
L 308.75863 92.118461 
L 310.390059 84.57504 
L 312.021489 60.439394 
L 313.652919 70.792397 
L 315.284349 88.373548 
L 316.915779 85.32082 
L 318.547209 91.892659 
L 320.178639 84.844433 
L 321.810069 88.597317 
L 323.441498 88.311936 
L 325.072928 81.120814 
L 326.704358 77.36786 
L 328.335788 91.90952 
L 329.967218 96.279102 
L 331.598648 73.768859 
L 333.230078 80.576413 
L 334.861508 84.984354 
L 336.492937 69.958228 
L 338.124367 73.408629 
L 341.387227 95.892635 
L 343.018657 81.046945 
L 344.650087 81.314324 
L 346.281517 84.266522 
L 349.544376 85.034929 
L 351.175806 96.056959 
L 354.438666 81.787168 
L 356.070096 69.843276 
L 357.701526 92.348974 
L 359.332956 92.357386 
L 360.964386 100.097007 
L 362.595815 84.053283 
L 364.227245 63.547721 
L 365.858675 59.990766 
L 367.490105 96.357373 
L 369.121535 85.094437 
L 370.752965 88.318374 
L 372.384395 95.587179 
L 374.015825 74.818757 
L 375.647254 84.510865 
L 377.278684 63.926676 
L 378.910114 74.617675 
L 380.541544 70.641663 
L 382.172974 73.795388 
L 383.804404 81.010075 
L 385.435834 92.165208 
L 387.067264 73.399829 
L 388.698693 68.092255 
L 390.330123 70.265637 
L 391.961553 77.152772 
L 393.592983 100.445064 
L 395.224413 84.759227 
L 396.855843 92.955091 
L 398.487273 92.344402 
L 398.487273 92.344402 
" clip-path="url(#p9cc8a49142)" style="fill: none; stroke: #ff0000; stroke-width: 1.5; stroke-linecap: square"/>
   </g>
   <g id="patch_3">
    <path d="M 57.6 307.584 
L 57.6 41.472 
" style="fill: none; stroke: #000000; stroke-width: 0.8; stroke-linejoin: miter; stroke-linecap: square"/>
   </g>
   <g id="patch_4">
    <path d="M 414.72 307.584 
L 414.72 41.472 
" style="fill: none; stroke: #000000; stroke-width: 0.8; stroke-linejoin: miter; stroke-linecap: square"/>
   </g>
   <g id="patch_5">
    <path d="M 57.6 307.584 
L 414.72 307.584 
" style="fill: none; stroke: #000000; stroke-width: 0.8; stroke-linejoin: miter; stroke-linecap: square"/>
   </g>
   <g id="patch_6">
    <path d="M 57.6 41.472 
L 414.72 41.472 
" style="fill: none; stroke: #000000; stroke-width: 0.8; stroke-linejoin: miter; stroke-linecap: square"/>
   </g>
   <g id="text_13">
    <!-- Population's average and best fitness -->
    <g transform="translate(123.529687 35.472) scale(0.12 -0.12)">
     <defs>
      <path id="DejaVuSans-50" d="M 1259 4147 
L 1259 2394 
L 2053 2394 
Q 2494 2394 2734 2622 
Q 2975 2850 2975 3272 
Q 2975 3691 2734 3919 
Q 2494 4147 2053 4147 
L 1259 4147 
z
M 628 4666 
L 2053 4666 
Q 2838 4666 3239 4311 
Q 3641 3956 3641 3272 
Q 3641 2581 3239 2228 
Q 2838 1875 2053 1875 
L 1259 1875 
L 1259 0 
L 628 0 
L 628 4666 
z
" transform="scale(0.015625)"/>
      <path id="DejaVuSans-70" d="M 1159 525 
L 1159 -1331 
L 581 -1331 
L 581 3500 
L 1159 3500 
L 1159 2969 
Q 1341 3281 1617 3432 
Q 1894 3584 2278 3584 
Q 2916 3584 3314 3078 
Q 3713 2572 3713 1747 
Q 3713 922 3314 415 
Q 2916 -91 2278 -91 
Q 1894 -91 1617 61 
Q 1341 213 1159 525 
z
M 3116 1747 
Q 3116 2381 2855 2742 
Q 2594 3103 2138 3103 
Q 1681 3103 1420 2742 
Q 1159 2381 1159 1747 
Q 1159 1113 1420 752 
Q 1681 391 2138 391 
Q 2594 391 2855 752 
Q 3116 1113 3116 1747 
z
" transform="scale(0.015625)"/>
      <path id="DejaVuSans-75" d="M 544 1381 
L 544 3500 
L 1119 3500 
L 1119 1403 
Q 1119 906 1312 657 
Q 1506 409 1894 409 
Q 2359 409 2629 706 
Q 2900 1003 2900 1516 
L 2900 3500 
L 3475 3500 
L 3475 0 
L 2900 0 
L 2900 538 
Q 2691 219 2414 64 
Q 2138 -91 1772 -91 
Q 1169 -91 856 284 
Q 544 659 544 1381 
z
M 1991 3584 
L 1991 3584 
z
" transform="scale(0.015625)"/>
      <path id="DejaVuSans-6c" d="M 603 4863 
L 1178 4863 
L 1178 0 
L 603 0 
L 603 4863 
z
" transform="scale(0.015625)"/>
      <path id="DejaVuSans-27" d="M 1147 4666 
L 1147 2931 
L 616 2931 
L 616 4666 
L 1147 4666 
z
" transform="scale(0.015625)"/>
      <path id="DejaVuSans-20" transform="scale(0.015625)"/>
      <path id="DejaVuSans-76" d="M 191 3500 
L 800 3500 
L 1894 563 
L 2988 3500 
L 3597 3500 
L 2284 0 
L 1503 0 
L 191 3500 
z
" transform="scale(0.015625)"/>
      <path id="DejaVuSans-67" d="M 2906 1791 
Q 2906 2416 2648 2759 
Q 2391 3103 1925 3103 
Q 1463 3103 1205 2759 
Q 947 2416 947 1791 
Q 947 1169 1205 825 
Q 1463 481 1925 481 
Q 2391 481 2648 825 
Q 2906 1169 2906 1791 
z
M 3481 434 
Q 3481 -459 3084 -895 
Q 2688 -1331 1869 -1331 
Q 1566 -1331 1297 -1286 
Q 1028 -1241 775 -1147 
L 775 -588 
Q 1028 -725 1275 -790 
Q 1522 -856 1778 -856 
Q 2344 -856 2625 -561 
Q 2906 -266 2906 331 
L 2906 616 
Q 2728 306 2450 153 
Q 2172 0 1784 0 
Q 1141 0 747 490 
Q 353 981 353 1791 
Q 353 2603 747 3093 
Q 1141 3584 1784 3584 
Q 2172 3584 2450 3431 
Q 2728 3278 2906 2969 
L 2906 3500 
L 3481 3500 
L 3481 434 
z
" transform="scale(0.015625)"/>
      <path id="DejaVuSans-64" d="M 2906 2969 
L 2906 4863 
L 3481 4863 
L 3481 0 
L 2906 0 
L 2906 525 
Q 2725 213 2448 61 
Q 2172 -91 1784 -91 
Q 1150 -91 751 415 
Q 353 922 353 1747 
Q 353 2572 751 3078 
Q 1150 3584 1784 3584 
Q 2172 3584 2448 3432 
Q 2725 3281 2906 2969 
z
M 947 1747 
Q 947 1113 1208 752 
Q 1469 391 1925 391 
Q 2381 391 2643 752 
Q 2906 1113 2906 1747 
Q 2906 2381 2643 2742 
Q 2381 3103 1925 3103 
Q 1469 3103 1208 2742 
Q 947 2381 947 1747 
z
" transform="scale(0.015625)"/>
      <path id="DejaVuSans-62" d="M 3116 1747 
Q 3116 2381 2855 2742 
Q 2594 3103 2138 3103 
Q 1681 3103 1420 2742 
Q 1159 2381 1159 1747 
Q 1159 1113 1420 752 
Q 1681 391 2138 391 
Q 2594 391 2855 752 
Q 3116 1113 3116 1747 
z
M 1159 2969 
Q 1341 3281 1617 3432 
Q 1894 3584 2278 3584 
Q 2916 3584 3314 3078 
Q 3713 2572 3713 1747 
Q 3713 922 3314 415 
Q 2916 -91 2278 -91 
Q 1894 -91 1617 61 
Q 1341 213 1159 525 
L 1159 0 
L 581 0 
L 581 4863 
L 1159 4863 
L 1159 2969 
z
" transform="scale(0.015625)"/>
      <path id="DejaVuSans-66" d="M 2375 4863 
L 2375 4384 
L 1825 4384 
Q 1516 4384 1395 4259 
Q 1275 4134 1275 3809 
L 1275 3500 
L 2222 3500 
L 2222 3053 
L 1275 3053 
L 1275 0 
L 697 0 
L 697 3053 
L 147 3053 
L 147 3500 
L 697 3500 
L 697 3744 
Q 697 4328 969 4595 
Q 1241 4863 1831 4863 
L 2375 4863 
z
" transform="scale(0.015625)"/>
     </defs>
     <use xlink:href="#DejaVuSans-50"/>
     <use xlink:href="#DejaVuSans-6f" transform="translate(56.677734 0)"/>
     <use xlink:href="#DejaVuSans-70" transform="translate(117.859375 0)"/>
     <use xlink:href="#DejaVuSans-75" transform="translate(181.335938 0)"/>
     <use xlink:href="#DejaVuSans-6c" transform="translate(244.714844 0)"/>
     <use xlink:href="#DejaVuSans-61" transform="translate(272.498047 0)"/>
     <use xlink:href="#DejaVuSans-74" transform="translate(333.777344 0)"/>
     <use xlink:href="#DejaVuSans-69" transform="translate(372.986328 0)"/>
     <use xlink:href="#DejaVuSans-6f" transform="translate(400.769531 0)"/>
     <use xlink:href="#DejaVuSans-6e" transform="translate(461.951172 0)"/>
     <use xlink:href="#DejaVuSans-27" transform="translate(525.330078 0)"/>
     <use xlink:href="#DejaVuSans-73" transform="translate(552.820312 0)"/>
     <use xlink:href="#DejaVuSans-20" transform="translate(604.919922 0)"/>
     <use xlink:href="#DejaVuSans-61" transform="translate(636.707031 0)"/>
     <use xlink:href="#DejaVuSans-76" transform="translate(697.986328 0)"/>
     <use xlink:href="#DejaVuSans-65" transform="translate(757.166016 0)"/>
     <use xlink:href="#DejaVuSans-72" transform="translate(818.689453 0)"/>
     <use xlink:href="#DejaVuSans-61" transform="translate(859.802734 0)"/>
     <use xlink:href="#DejaVuSans-67" transform="translate(921.082031 0)"/>
     <use xlink:href="#DejaVuSans-65" transform="translate(984.558594 0)"/>
     <use xlink:href="#DejaVuSans-20" transform="translate(1046.082031 0)"/>
     <use xlink:href="#DejaVuSans-61" transform="translate(1077.869141 0)"/>
     <use xlink:href="#DejaVuSans-6e" transform="translate(1139.148438 0)"/>
     <use xlink:href="#DejaVuSans-64" transform="translate(1202.527344 0)"/>
     <use xlink:href="#DejaVuSans-20" transform="translate(1266.003906 0)"/>
     <use xlink:href="#DejaVuSans-62" transform="translate(1297.791016 0)"/>
     <use xlink:href="#DejaVuSans-65" transform="translate(1361.267578 0)"/>
     <use xlink:href="#DejaVuSans-73" transform="translate(1422.791016 0)"/>
     <use xlink:href="#DejaVuSans-74" transform="translate(1474.890625 0)"/>
     <use xlink:href="#DejaVuSans-20" transform="translate(1514.099609 0)"/>
     <use xlink:href="#DejaVuSans-66" transform="translate(1545.886719 0)"/>
     <use xlink:href="#DejaVuSans-69" transform="translate(1581.091797 0)"/>
     <use xlink:href="#DejaVuSans-74" transform="translate(1608.875 0)"/>
     <use xlink:href="#DejaVuSans-6e" transform="translate(1648.083984 0)"/>
     <use xlink:href="#DejaVuSans-65" transform="translate(1711.462891 0)"/>
     <use xlink:href="#DejaVuSans-73" transform="translate(1772.986328 0)"/>
     <use xlink:href="#DejaVuSans-73" transform="translate(1825.085938 0)"/>
    </g>
   </g>
   <g id="legend_1">
    <g id="patch_7">
     <path d="M 334.779375 302.584 
L 407.72 302.584 
Q 409.72 302.584 409.72 300.584 
L 409.72 257.549625 
Q 409.72 255.549625 407.72 255.549625 
L 334.779375 255.549625 
Q 332.779375 255.549625 332.779375 257.549625 
L 332.779375 300.584 
Q 332.779375 302.584 334.779375 302.584 
z
" style="fill: #ffffff; opacity: 0.8; stroke: #cccccc; stroke-linejoin: miter"/>
    </g>
    <g id="line2d_24">
     <path d="M 336.779375 263.648062 
L 346.779375 263.648062 
L 356.779375 263.648062 
" style="fill: none; stroke: #0000ff; stroke-width: 1.5; stroke-linecap: square"/>
    </g>
    <g id="text_14">
     <!-- average -->
     <g transform="translate(364.779375 267.148062) scale(0.1 -0.1)">
      <use xlink:href="#DejaVuSans-61"/>
      <use xlink:href="#DejaVuSans-76" transform="translate(61.279297 0)"/>
      <use xlink:href="#DejaVuSans-65" transform="translate(120.458984 0)"/>
      <use xlink:href="#DejaVuSans-72" transform="translate(181.982422 0)"/>
      <use xlink:href="#DejaVuSans-61" transform="translate(223.095703 0)"/>
      <use xlink:href="#DejaVuSans-67" transform="translate(284.375 0)"/>
      <use xlink:href="#DejaVuSans-65" transform="translate(347.851562 0)"/>
     </g>
    </g>
    <g id="line2d_25">
     <path d="M 336.779375 278.326188 
L 346.779375 278.326188 
L 356.779375 278.326188 
" style="fill: none; stroke-dasharray: 9.6,2.4,1.5,2.4; stroke-dashoffset: 0; stroke: #008000; stroke-width: 1.5"/>
    </g>
    <g id="text_15">
     <!-- +1 sd -->
     <g transform="translate(364.779375 281.826188) scale(0.1 -0.1)">
      <defs>
       <path id="DejaVuSans-2b" d="M 2944 4013 
L 2944 2272 
L 4684 2272 
L 4684 1741 
L 2944 1741 
L 2944 0 
L 2419 0 
L 2419 1741 
L 678 1741 
L 678 2272 
L 2419 2272 
L 2419 4013 
L 2944 4013 
z
" transform="scale(0.015625)"/>
      </defs>
      <use xlink:href="#DejaVuSans-2b"/>
      <use xlink:href="#DejaVuSans-31" transform="translate(83.789062 0)"/>
      <use xlink:href="#DejaVuSans-20" transform="translate(147.412109 0)"/>
      <use xlink:href="#DejaVuSans-73" transform="translate(179.199219 0)"/>
      <use xlink:href="#DejaVuSans-64" transform="translate(231.298828 0)"/>
     </g>
    </g>
    <g id="line2d_26">
     <path d="M 336.779375 293.004312 
L 346.779375 293.004312 
L 356.779375 293.004312 
" style="fill: none; stroke: #ff0000; stroke-width: 1.5; stroke-linecap: square"/>
    </g>
    <g id="text_16">
     <!-- best -->
     <g transform="translate(364.779375 296.504312) scale(0.1 -0.1)">
      <use xlink:href="#DejaVuSans-62"/>
      <use xlink:href="#DejaVuSans-65" transform="translate(63.476562 0)"/>
      <use xlink:href="#DejaVuSans-73" transform="translate(125 0)"/>
      <use xlink:href="#DejaVuSans-74" transform="translate(177.099609 0)"/>
     </g>
    </g>
   </g>
  </g>
 </g>
 <defs>
  <clipPath id="p9cc8a49142">
   <rect x="57.6" y="41.472" width="357.12" height="266.112"/>
  </clipPath>
 </defs>
</svg>
