<?xml version="1.0" encoding="utf-8" standalone="no"?>
<!DOCTYPE svg PUBLIC "-//W3C//DTD SVG 1.1//EN"
  "http://www.w3.org/Graphics/SVG/1.1/DTD/svg11.dtd">
<svg xmlns:xlink="http://www.w3.org/1999/xlink" width="460.8pt" height="345.6pt" viewBox="0 0 460.8 345.6" xmlns="http://www.w3.org/2000/svg" version="1.1">
 <metadata>
  <rdf:RDF xmlns:dc="http://purl.org/dc/elements/1.1/" xmlns:cc="http://creativecommons.org/ns#" xmlns:rdf="http://www.w3.org/1999/02/22-rdf-syntax-ns#">
   <cc:Work>
    <dc:type rdf:resource="http://purl.org/dc/dcmitype/StillImage"/>
    <dc:date>2026-04-27T03:36:43.861449</dc:date>
    <dc:format>image/svg+xml</dc:format>
    <dc:creator>
     <cc:Agent>
      <dc:title>Matplotlib v3.10.8, https://matplotlib.org/</dc:title>
     </cc:Agent>
    </dc:creator>
   </cc:Work>
  </rdf:RDF>
 </metadata>
 <defs>
  <style type="text/css">*{stroke-linejoin: round; stroke-linecap: butt}</style>
 </defs>
 <g id="figure_1">
  <g id="patch_1">
   <path d="M 0 345.6 
L 460.8 345.6 
L 460.8 0 
L 0 0 
z
" style="fill: #ffffff"/>
  </g>
  <g id="axes_1">
   <g id="patch_2">
    <path d="M 57.6 307.584 
L 414.72 307.584 
L 414.72 41.472 
L 57.6 41.472 
z
" style="fill: #ffffff"/>
   </g>
   <g id="matplotlib.axis_1">
    <g id="xtick_1">
     <g id="line2d_1">
      <path d="M 72.201297 307.584 
L 72.201297 41.472 
" clip-path="url(#pc4c2ee9e2f)" style="fill: none; stroke: #b0b0b0; stroke-width: 0.8; stroke-linecap: square"/>
     </g>
     <g id="line2d_2">
      <defs>
       <path id="m4303461910" d="M 0 0 
L 0 3.5 
" style="stroke: #000000; stroke-width: 0.8"/>
      </defs>
      <g>
       <use xlink:href="#m4303461910" x="72.201297" y="307.584" style="stroke: #000000; stroke-width: 0.8"/>
      </g>
     </g>
     <g id="text_1">
      <!-- 0 -->
      <g transform="translate(69.020047 322.182437) scale(0.1 -0.1)">
       <defs>
        <path id="DejaVuSans-30" d="M 2034 4250 
Q 1547 4250 1301 3770 
Q 1056 3291 1056 2328 
Q 1056 1369 1301 889 
Q 1547 409 2034 409 
Q 2525 409 2770 889 
Q 3016 1369 3016 2328 
Q 3016 3291 2770 3770 
Q 2525 4250 2034 4250 
z
M 2034 4750 
Q 2819 4750 3233 4129 
Q 3647 3509 3647 2328 
Q 3647 1150 3233 529 
Q 2819 -91 2034 -91 
Q 1250 -91 836 529 
Q 422 1150 422 2328 
Q 422 3509 836 4129 
Q 1250 4750 2034 4750 
z
" transform="scale(0.015625)"/>
       </defs>
       <use xlink:href="#DejaVuSans-30"/>
      </g>
     </g>
    </g>
    <g id="xtick_2">
     <g id="line2d_3">
      <path d="M 112.987044 307.584 
L 112.987044 41.472 
" clip-path="url(#pc4c2ee9e2f)" style="fill: none; stroke: #b0b0b0; stroke-width: 0.8; stroke-linecap: square"/>
     </g>
     <g id="line2d_4">
      <g>
       <use xlink:href="#m4303461910" x="112.987044" y="307.584" style="stroke: #000000; stroke-width: 0.8"/>
      </g>
     </g>
     <g id="text_2">
      <!-- 25 -->
      <g transform="translate(106.624544 322.182437) scale(0.1 -0.1)">
       <defs>
        <path id="DejaVuSans-32" d="M 1228 531 
L 3431 531 
L 3431 0 
L 469 0 
L 469 531 
Q 828 903 1448 1529 
Q 2069 2156 2228 2338 
Q 2531 2678 2651 2914 
Q 2772 3150 2772 3378 
Q 2772 3750 2511 3984 
Q 2250 4219 1831 4219 
Q 1534 4219 1204 4116 
Q 875 4013 500 3803 
L 500 4441 
Q 881 4594 1212 4672 
Q 1544 4750 1819 4750 
Q 2544 4750 2975 4387 
Q 3406 4025 3406 3419 
Q 3406 3131 3298 2873 
Q 3191 2616 2906 2266 
Q 2828 2175 2409 1742 
Q 1991 1309 1228 531 
z
" transform="scale(0.015625)"/>
        <path id="DejaVuSans-35" d="M 691 4666 
L 3169 4666 
L 3169 4134 
L 1269 4134 
L 1269 2991 
Q 1406 3038 1543 3061 
Q 1681 3084 1819 3084 
Q 2600 3084 3056 2656 
Q 3513 2228 3513 1497 
Q 3513 744 3044 326 
Q 2575 -91 1722 -91 
Q 1428 -91 1123 -41 
Q 819 9 494 109 
L 494 744 
Q 775 591 1075 516 
Q 1375 441 1709 441 
Q 2250 441 2565 725 
Q 2881 1009 2881 1497 
Q 2881 1984 2565 2268 
Q 2250 2553 1709 2553 
Q 1456 2553 1204 2497 
Q 953 2441 691 2322 
L 691 4666 
z
" transform="scale(0.015625)"/>
       </defs>
       <use xlink:href="#DejaVuSans-32"/>
       <use xlink:href="#DejaVuSans-35" transform="translate(63.623047 0)"/>
      </g>
     </g>
    </g>
    <g id="xtick_3">
     <g id="line2d_5">
      <path d="M 153.772791 307.584 
L 153.772791 41.472 
" clip-path="url(#pc4c2ee9e2f)" style="fill: none; stroke: #b0b0b0; stroke-width: 0.8; stroke-linecap: square"/>
     </g>
     <g id="line2d_6">
      <g>
       <use xlink:href="#m4303461910" x="153.772791" y="307.584" style="stroke: #000000; stroke-width: 0.8"/>
      </g>
     </g>
     <g id="text_3">
      <!-- 50 -->
      <g transform="translate(147.410291 322.182437) scale(0.1 -0.1)">
       <use xlink:href="#DejaVuSans-35"/>
       <use xlink:href="#DejaVuSans-30" transform="translate(63.623047 0)"/>
      </g>
     </g>
    </g>
    <g id="xtick_4">
     <g id="line2d_7">
      <path d="M 194.558538 307.584 
L 194.558538 41.472 
" clip-path="url(#pc4c2ee9e2f)" style="fill: none; stroke: #b0b0b0; stroke-width: 0.8; stroke-linecap: square"/>
     </g>
     <g id="line2d_8">
      <g>
       <use xlink:href="#m4303461910" x="194.558538" y="307.584" style="stroke: #000000; stroke-width: 0.8"/>
      </g>
     </g>
     <g id="text_4">
      <!-- 75 -->
      <g transform="translate(188.196038 322.182437) scale(0.1 -0.1)">
       <defs>
        <path id="DejaVuSans-37" d="M 525 4666 
L 3525 4666 
L 3525 4397 
L 1831 0 
L 1172 0 
L 2766 4134 
L 525 4134 
L 525 4666 
z
" transform="scale(0.015625)"/>
       </defs>
       <use xlink:href="#DejaVuSans-37"/>
       <use xlink:href="#DejaVuSans-35" transform="translate(63.623047 0)"/>
      </g>
     </g>
    </g>
    <g id="xtick_5">
     <g id="line2d_9">
      <path d="M 235.344285 307.584 
L 235.344285 41.472 
" clip-path="url(#pc4c2ee9e2f)" style="fill: none; stroke: #b0b0b0; stroke-width: 0.8; stroke-linecap: square"/>
     </g>
     <g id="line2d_10">
      <g>
       <use xlink:href="#m4303461910" x="235.344285" y="307.584" style="stroke: #000000; stroke-width: 0.8"/>
      </g>
     </g>
     <g id="text_5">
      <!-- 100 -->
      <g transform="translate(225.800535 322.182437) scale(0.1 -0.1)">
       <defs>
        <path id="DejaVuSans-31" d="M 794 531 
L 1825 531 
L 1825 4091 
L 703 3866 
L 703 4441 
L 1819 4666 
L 2450 4666 
L 2450 531 
L 3481 531 
L 3481 0 
L 794 0 
L 794 531 
z
" transform="scale(0.015625)"/>
       </defs>
       <use xlink:href="#DejaVuSans-31"/>
       <use xlink:href="#DejaVuSans-30" transform="translate(63.623047 0)"/>
       <use xlink:href="#DejaVuSans-30" transform="translate(127.246094 0)"/>
      </g>
     </g>
    </g>
    <g id="xtick_6">
     <g id="line2d_11">
      <path d="M 276.130032 307.584 
L 276.130032 41.472 
" clip-path="url(#pc4c2ee9e2f)" style="fill: none; stroke: #b0b0b0; stroke-width: 0.8; stroke-linecap: square"/>
     </g>
     <g id="line2d_12">
      <g>
       <use xlink:href="#m4303461910" x="276.130032" y="307.584" style="stroke: #000000; stroke-width: 0.8"/>
      </g>
     </g>
     <g id="text_6">
      <!-- 125 -->
      <g transform="translate(266.586282 322.182437) scale(0.1 -0.1)">
       <use xlink:href="#DejaVuSans-31"/>
       <use xlink:href="#DejaVuSans-32" transform="translate(63.623047 0)"/>
       <use xlink:href="#DejaVuSans-35" transform="translate(127.246094 0)"/>
      </g>
     </g>
    </g>
    <g id="xtick_7">
     <g id="line2d_13">
      <path d="M 316.915779 307.584 
L 316.915779 41.472 
" clip-path="url(#pc4c2ee9e2f)" style="fill: none; stroke: #b0b0b0; stroke-width: 0.8; stroke-linecap: square"/>
     </g>
     <g id="line2d_14">
      <g>
       <use xlink:href="#m4303461910" x="316.915779" y="307.584" style="stroke: #000000; stroke-width: 0.8"/>
      </g>
     </g>
     <g id="text_7">
      <!-- 150 -->
      <g transform="translate(307.372029 322.182437) scale(0.1 -0.1)">
       <use xlink:href="#DejaVuSans-31"/>
       <use xlink:href="#DejaVuSans-35" transform="translate(63.623047 0)"/>
       <use xlink:href="#DejaVuSans-30" transform="translate(127.246094 0)"/>
      </g>
     </g>
    </g>
    <g id="xtick_8">
     <g id="line2d_15">
      <path d="M 357.701526 307.584 
L 357.701526 41.472 
" clip-path="url(#pc4c2ee9e2f)" style="fill: none; stroke: #b0b0b0; stroke-width: 0.8; stroke-linecap: square"/>
     </g>
     <g id="line2d_16">
      <g>
       <use xlink:href="#m4303461910" x="357.701526" y="307.584" style="stroke: #000000; stroke-width: 0.8"/>
      </g>
     </g>
     <g id="text_8">
      <!-- 175 -->
      <g transform="translate(348.157776 322.182437) scale(0.1 -0.1)">
       <use xlink:href="#DejaVuSans-31"/>
       <use xlink:href="#DejaVuSans-37" transform="translate(63.623047 0)"/>
       <use xlink:href="#DejaVuSans-35" transform="translate(127.246094 0)"/>
      </g>
     </g>
    </g>
    <g id="xtick_9">
     <g id="line2d_17">
      <path d="M 398.487273 307.584 
L 398.487273 41.472 
" clip-path="url(#pc4c2ee9e2f)" style="fill: none; stroke: #b0b0b0; stroke-width: 0.8; stroke-linecap: square"/>
     </g>
     <g id="line2d_18">
      <g>
       <use xlink:href="#m4303461910" x="398.487273" y="307.584" style="stroke: #000000; stroke-width: 0.8"/>
      </g>
     </g>
     <g id="text_9">
      <!-- 200 -->
      <g transform="translate(388.943523 322.182437) scale(0.1 -0.1)">
       <use xlink:href="#DejaVuSans-32"/>
       <use xlink:href="#DejaVuSans-30" transform="translate(63.623047 0)"/>
       <use xlink:href="#DejaVuSans-30" transform="translate(127.246094 0)"/>
      </g>
     </g>
    </g>
    <g id="text_10">
     <!-- Generacje -->
     <g transform="translate(210.629531 335.860562) scale(0.1 -0.1)">
      <defs>
       <path id="DejaVuSans-47" d="M 3809 666 
L 3809 1919 
L 2778 1919 
L 2778 2438 
L 4434 2438 
L 4434 434 
Q 4069 175 3628 42 
Q 3188 -91 2688 -91 
Q 1594 -91 976 548 
Q 359 1188 359 2328 
Q 359 3472 976 4111 
Q 1594 4750 2688 4750 
Q 3144 4750 3555 4637 
Q 3966 4525 4313 4306 
L 4313 3634 
Q 3963 3931 3569 4081 
Q 3175 4231 2741 4231 
Q 1884 4231 1454 3753 
Q 1025 3275 1025 2328 
Q 1025 1384 1454 906 
Q 1884 428 2741 428 
Q 3075 428 3337 486 
Q 3600 544 3809 666 
z
" transform="scale(0.015625)"/>
       <path id="DejaVuSans-65" d="M 3597 1894 
L 3597 1613 
L 953 1613 
Q 991 1019 1311 708 
Q 1631 397 2203 397 
Q 2534 397 2845 478 
Q 3156 559 3463 722 
L 3463 178 
Q 3153 47 2828 -22 
Q 2503 -91 2169 -91 
Q 1331 -91 842 396 
Q 353 884 353 1716 
Q 353 2575 817 3079 
Q 1281 3584 2069 3584 
Q 2775 3584 3186 3129 
Q 3597 2675 3597 1894 
z
M 3022 2063 
Q 3016 2534 2758 2815 
Q 2500 3097 2075 3097 
Q 1594 3097 1305 2825 
Q 1016 2553 972 2059 
L 3022 2063 
z
" transform="scale(0.015625)"/>
       <path id="DejaVuSans-6e" d="M 3513 2113 
L 3513 0 
L 2938 0 
L 2938 2094 
Q 2938 2591 2744 2837 
Q 2550 3084 2163 3084 
Q 1697 3084 1428 2787 
Q 1159 2491 1159 1978 
L 1159 0 
L 581 0 
L 581 3500 
L 1159 3500 
L 1159 2956 
Q 1366 3272 1645 3428 
Q 1925 3584 2291 3584 
Q 2894 3584 3203 3211 
Q 3513 2838 3513 2113 
z
" transform="scale(0.015625)"/>
       <path id="DejaVuSans-72" d="M 2631 2963 
Q 2534 3019 2420 3045 
Q 2306 3072 2169 3072 
Q 1681 3072 1420 2755 
Q 1159 2438 1159 1844 
L 1159 0 
L 581 0 
L 581 3500 
L 1159 3500 
L 1159 2956 
Q 1341 3275 1631 3429 
Q 1922 3584 2338 3584 
Q 2397 3584 2469 3576 
Q 2541 3569 2628 3553 
L 2631 2963 
z
" transform="scale(0.015625)"/>
       <path id="DejaVuSans-61" d="M 2194 1759 
Q 1497 1759 1228 1600 
Q 959 1441 959 1056 
Q 959 750 1161 570 
Q 1363 391 1709 391 
Q 2188 391 2477 730 
Q 2766 1069 2766 1631 
L 2766 1759 
L 2194 1759 
z
M 3341 1997 
L 3341 0 
L 2766 0 
L 2766 531 
Q 2569 213 2275 61 
Q 1981 -91 1556 -91 
Q 1019 -91 701 211 
Q 384 513 384 1019 
Q 384 1609 779 1909 
Q 1175 2209 1959 2209 
L 2766 2209 
L 2766 2266 
Q 2766 2663 2505 2880 
Q 2244 3097 1772 3097 
Q 1472 3097 1187 3025 
Q 903 2953 641 2809 
L 641 3341 
Q 956 3463 1253 3523 
Q 1550 3584 1831 3584 
Q 2591 3584 2966 3190 
Q 3341 2797 3341 1997 
z
" transform="scale(0.015625)"/>
       <path id="DejaVuSans-63" d="M 3122 3366 
L 3122 2828 
Q 2878 2963 2633 3030 
Q 2388 3097 2138 3097 
Q 1578 3097 1268 2742 
Q 959 2388 959 1747 
Q 959 1106 1268 751 
Q 1578 397 2138 397 
Q 2388 397 2633 464 
Q 2878 531 3122 666 
L 3122 134 
Q 2881 22 2623 -34 
Q 2366 -91 2075 -91 
Q 1284 -91 818 406 
Q 353 903 353 1747 
Q 353 2603 823 3093 
Q 1294 3584 2113 3584 
Q 2378 3584 2631 3529 
Q 2884 3475 3122 3366 
z
" transform="scale(0.015625)"/>
       <path id="DejaVuSans-6a" d="M 603 3500 
L 1178 3500 
L 1178 -63 
Q 1178 -731 923 -1031 
Q 669 -1331 103 -1331 
L -116 -1331 
L -116 -844 
L 38 -844 
Q 366 -844 484 -692 
Q 603 -541 603 -63 
L 603 3500 
z
M 603 4863 
L 1178 4863 
L 1178 4134 
L 603 4134 
L 603 4863 
z
" transform="scale(0.015625)"/>
      </defs>
      <use xlink:href="#DejaVuSans-47"/>
      <use xlink:href="#DejaVuSans-65" transform="translate(77.490234 0)"/>
      <use xlink:href="#DejaVuSans-6e" transform="translate(139.013672 0)"/>
      <use xlink:href="#DejaVuSans-65" transform="translate(202.392578 0)"/>
      <use xlink:href="#DejaVuSans-72" transform="translate(263.916016 0)"/>
      <use xlink:href="#DejaVuSans-61" transform="translate(305.029297 0)"/>
      <use xlink:href="#DejaVuSans-63" transform="translate(366.308594 0)"/>
      <use xlink:href="#DejaVuSans-6a" transform="translate(421.289062 0)"/>
      <use xlink:href="#DejaVuSans-65" transform="translate(449.072266 0)"/>
     </g>
    </g>
   </g>
   <g id="matplotlib.axis_2">
    <g id="ytick_1">
     <g id="line2d_19">
      <path d="M 57.6 119.827148 
L 414.72 119.827148 
" clip-path="url(#pc4c2ee9e2f)" style="fill: none; stroke: #b0b0b0; stroke-width: 0.8; stroke-linecap: square"/>
     </g>
     <g id="line2d_20">
      <defs>
       <path id="m1ee88ca7e6" d="M 0 0 
L -3.5 0 
" style="stroke: #000000; stroke-width: 0.8"/>
      </defs>
      <g>
       <use xlink:href="#m1ee88ca7e6" x="57.6" y="119.827148" style="stroke: #000000; stroke-width: 0.8"/>
      </g>
     </g>
     <g id="text_11">
      <!-- $\mathdefault{10^{2}}$ -->
      <g transform="translate(33 123.626367) scale(0.1 -0.1)">
       <use xlink:href="#DejaVuSans-31" transform="translate(0 0.765625)"/>
       <use xlink:href="#DejaVuSans-30" transform="translate(63.623047 0.765625)"/>
       <use xlink:href="#DejaVuSans-32" transform="translate(128.203125 39.046875) scale(0.7)"/>
      </g>
     </g>
    </g>
    <g id="text_12">
     <!-- Przystosowanie -->
     <g transform="translate(26.920312 213.170187) rotate(-90) scale(0.1 -0.1)">
      <defs>
       <path id="DejaVuSans-50" d="M 1259 4147 
L 1259 2394 
L 2053 2394 
Q 2494 2394 2734 2622 
Q 2975 2850 2975 3272 
Q 2975 3691 2734 3919 
Q 2494 4147 2053 4147 
L 1259 4147 
z
M 628 4666 
L 2053 4666 
Q 2838 4666 3239 4311 
Q 3641 3956 3641 3272 
Q 3641 2581 3239 2228 
Q 2838 1875 2053 1875 
L 1259 1875 
L 1259 0 
L 628 0 
L 628 4666 
z
" transform="scale(0.015625)"/>
       <path id="DejaVuSans-7a" d="M 353 3500 
L 3084 3500 
L 3084 2975 
L 922 459 
L 3084 459 
L 3084 0 
L 275 0 
L 275 525 
L 2438 3041 
L 353 3041 
L 353 3500 
z
" transform="scale(0.015625)"/>
       <path id="DejaVuSans-79" d="M 2059 -325 
Q 1816 -950 1584 -1140 
Q 1353 -1331 966 -1331 
L 506 -1331 
L 506 -850 
L 844 -850 
Q 1081 -850 1212 -737 
Q 1344 -625 1503 -206 
L 1606 56 
L 191 3500 
L 800 3500 
L 1894 763 
L 2988 3500 
L 3597 3500 
L 2059 -325 
z
" transform="scale(0.015625)"/>
       <path id="DejaVuSans-73" d="M 2834 3397 
L 2834 2853 
Q 2591 2978 2328 3040 
Q 2066 3103 1784 3103 
Q 1356 3103 1142 2972 
Q 928 2841 928 2578 
Q 928 2378 1081 2264 
Q 1234 2150 1697 2047 
L 1894 2003 
Q 2506 1872 2764 1633 
Q 3022 1394 3022 966 
Q 3022 478 2636 193 
Q 2250 -91 1575 -91 
Q 1294 -91 989 -36 
Q 684 19 347 128 
L 347 722 
Q 666 556 975 473 
Q 1284 391 1588 391 
Q 1994 391 2212 530 
Q 2431 669 2431 922 
Q 2431 1156 2273 1281 
Q 2116 1406 1581 1522 
L 1381 1569 
Q 847 1681 609 1914 
Q 372 2147 372 2553 
Q 372 3047 722 3315 
Q 1072 3584 1716 3584 
Q 2034 3584 2315 3537 
Q 2597 3491 2834 3397 
z
" transform="scale(0.015625)"/>
       <path id="DejaVuSans-74" d="M 1172 4494 
L 1172 3500 
L 2356 3500 
L 2356 3053 
L 1172 3053 
L 1172 1153 
Q 1172 725 1289 603 
Q 1406 481 1766 481 
L 2356 481 
L 2356 0 
L 1766 0 
Q 1100 0 847 248 
Q 594 497 594 1153 
L 594 3053 
L 172 3053 
L 172 3500 
L 594 3500 
L 594 4494 
L 1172 4494 
z
" transform="scale(0.015625)"/>
       <path id="DejaVuSans-6f" d="M 1959 3097 
Q 1497 3097 1228 2736 
Q 959 2375 959 1747 
Q 959 1119 1226 758 
Q 1494 397 1959 397 
Q 2419 397 2687 759 
Q 2956 1122 2956 1747 
Q 2956 2369 2687 2733 
Q 2419 3097 1959 3097 
z
M 1959 3584 
Q 2709 3584 3137 3096 
Q 3566 2609 3566 1747 
Q 3566 888 3137 398 
Q 2709 -91 1959 -91 
Q 1206 -91 779 398 
Q 353 888 353 1747 
Q 353 2609 779 3096 
Q 1206 3584 1959 3584 
z
" transform="scale(0.015625)"/>
       <path id="DejaVuSans-77" d="M 269 3500 
L 844 3500 
L 1563 769 
L 2278 3500 
L 2956 3500 
L 3675 769 
L 4391 3500 
L 4966 3500 
L 4050 0 
L 3372 0 
L 2619 2869 
L 1863 0 
L 1184 0 
L 269 3500 
z
" transform="scale(0.015625)"/>
       <path id="DejaVuSans-69" d="M 603 3500 
L 1178 3500 
L 1178 0 
L 603 0 
L 603 3500 
z
M 603 4863 
L 1178 4863 
L 1178 4134 
L 603 4134 
L 603 4863 
z
" transform="scale(0.015625)"/>
      </defs>
      <use xlink:href="#DejaVuSans-50"/>
      <use xlink:href="#DejaVuSans-72" transform="translate(58.552734 0)"/>
      <use xlink:href="#DejaVuSans-7a" transform="translate(99.666016 0)"/>
      <use xlink:href="#DejaVuSans-79" transform="translate(152.15625 0)"/>
      <use xlink:href="#DejaVuSans-73" transform="translate(211.335938 0)"/>
      <use xlink:href="#DejaVuSans-74" transform="translate(263.435547 0)"/>
      <use xlink:href="#DejaVuSans-6f" transform="translate(302.644531 0)"/>
      <use xlink:href="#DejaVuSans-73" transform="translate(363.826172 0)"/>
      <use xlink:href="#DejaVuSans-6f" transform="translate(415.925781 0)"/>
      <use xlink:href="#DejaVuSans-77" transform="translate(477.107422 0)"/>
      <use xlink:href="#DejaVuSans-61" transform="translate(558.894531 0)"/>
      <use xlink:href="#DejaVuSans-6e" transform="translate(620.173828 0)"/>
      <use xlink:href="#DejaVuSans-69" transform="translate(683.552734 0)"/>
      <use xlink:href="#DejaVuSans-65" transform="translate(711.335938 0)"/>
     </g>
    </g>
   </g>
   <g id="line2d_21">
    <path d="M 73.832727 295.488 
L 75.464157 237.547236 
L 77.095587 204.193961 
L 78.727017 173.204995 
L 80.358447 161.39304 
L 81.989877 158.449149 
L 83.621307 149.595678 
L 85.252736 148.762412 
L 88.515596 144.525435 
L 90.147026 151.928473 
L 91.778456 152.002623 
L 93.409886 148.369774 
L 95.041316 143.889083 
L 96.672746 145.794395 
L 98.304175 143.567265 
L 99.935605 145.170005 
L 101.567035 148.029625 
L 103.198465 143.97382 
L 104.829895 145.144414 
L 106.461325 142.104402 
L 108.092755 141.694427 
L 109.724185 144.212214 
L 111.355614 142.467987 
L 112.987044 145.469146 
L 114.618474 142.691816 
L 116.249904 143.822434 
L 117.881334 145.257576 
L 119.512764 142.432178 
L 121.144194 143.390494 
L 122.775624 143.553276 
L 124.407053 142.423874 
L 127.669913 144.519432 
L 129.301343 144.702297 
L 130.932773 143.70768 
L 132.564203 142.952008 
L 134.195633 141.692407 
L 135.827063 142.19257 
L 137.458492 143.874399 
L 139.089922 144.259524 
L 140.721352 141.758469 
L 142.352782 142.167687 
L 143.984212 142.456294 
L 145.615642 141.619411 
L 147.247072 144.075071 
L 148.878502 143.093815 
L 150.509931 141.928748 
L 152.141361 141.816219 
L 155.404221 141.191746 
L 157.035651 141.868353 
L 158.667081 142.014761 
L 160.298511 142.40712 
L 161.929941 142.444751 
L 163.56137 140.967844 
L 165.1928 141.807489 
L 166.82423 139.581656 
L 168.45566 141.731362 
L 170.08709 142.889718 
L 171.71852 140.754757 
L 173.34995 142.865378 
L 174.98138 141.637949 
L 176.61281 143.451947 
L 178.244239 142.84821 
L 179.875669 139.994784 
L 181.507099 141.168277 
L 183.138529 141.760849 
L 184.769959 143.713371 
L 186.401389 141.825867 
L 188.032819 142.597651 
L 189.664249 140.88549 
L 191.295678 140.759891 
L 192.927108 140.169409 
L 194.558538 140.45655 
L 196.189968 140.07335 
L 197.821398 139.056687 
L 199.452828 141.471847 
L 201.084258 140.260202 
L 202.715688 141.254378 
L 204.347117 142.642787 
L 205.978547 140.557624 
L 207.609977 140.241734 
L 209.241407 140.618837 
L 210.872837 140.256102 
L 212.504267 140.513874 
L 214.135697 141.921667 
L 215.767127 140.335043 
L 217.398556 140.541971 
L 219.029986 140.996735 
L 220.661416 141.585884 
L 222.292846 141.584308 
L 225.555706 141.336523 
L 227.187136 141.642737 
L 228.818566 141.577682 
L 230.449995 140.661612 
L 232.081425 140.919281 
L 233.712855 140.919004 
L 235.344285 141.590929 
L 236.975715 140.727005 
L 238.607145 140.480723 
L 240.238575 141.781948 
L 241.870005 142.583205 
L 243.501434 142.091326 
L 245.132864 143.204166 
L 246.764294 140.708832 
L 248.395724 139.213777 
L 250.027154 139.878725 
L 251.658584 139.982162 
L 253.290014 141.277274 
L 254.921444 140.314231 
L 256.552873 140.377573 
L 258.184303 141.416068 
L 259.815733 141.518741 
L 261.447163 141.422632 
L 263.078593 140.886308 
L 264.710023 142.058934 
L 266.341453 142.083361 
L 267.972883 138.60286 
L 269.604312 141.938559 
L 271.235742 141.604454 
L 272.867172 140.244297 
L 274.498602 142.748602 
L 276.130032 139.819365 
L 277.761462 142.578361 
L 279.392892 140.044 
L 281.024322 140.967004 
L 282.655751 141.536295 
L 284.287181 139.764556 
L 285.918611 138.9228 
L 287.550041 140.08229 
L 290.812901 141.355347 
L 292.444331 141.138008 
L 294.075761 140.425091 
L 295.70719 140.4565 
L 297.33862 140.698957 
L 298.97005 140.547339 
L 300.60148 140.62864 
L 302.23291 138.802027 
L 303.86434 141.134289 
L 305.49577 140.876254 
L 307.1272 141.18268 
L 308.75863 141.701811 
L 310.390059 138.731286 
L 312.021489 140.504977 
L 313.652919 139.845571 
L 315.284349 141.175589 
L 316.915779 139.781595 
L 318.547209 139.619506 
L 320.178639 139.748326 
L 321.810069 139.090629 
L 323.441498 139.74665 
L 325.072928 141.705413 
L 328.335788 139.123447 
L 329.967218 140.686634 
L 331.598648 138.817528 
L 333.230078 141.08851 
L 334.861508 139.937731 
L 336.492937 140.792341 
L 338.124367 140.055621 
L 339.755797 141.846448 
L 341.387227 138.989329 
L 343.018657 141.115381 
L 344.650087 141.554645 
L 346.281517 140.331772 
L 347.912947 141.006196 
L 349.544376 140.287173 
L 352.807236 139.863985 
L 354.438666 140.438202 
L 356.070096 140.347704 
L 357.701526 142.202255 
L 359.332956 140.84531 
L 360.964386 140.335918 
L 362.595815 140.206269 
L 364.227245 141.409769 
L 365.858675 140.80661 
L 367.490105 140.440355 
L 369.121535 140.238424 
L 370.752965 140.565222 
L 372.384395 141.242725 
L 374.015825 140.019042 
L 375.647254 140.470258 
L 377.278684 141.043111 
L 378.910114 141.093056 
L 380.541544 140.239207 
L 382.172974 140.373494 
L 383.804404 139.941826 
L 385.435834 138.979693 
L 387.067264 139.922071 
L 388.698693 141.331112 
L 390.330123 141.699613 
L 391.961553 138.850981 
L 393.592983 141.341063 
L 395.224413 141.105377 
L 396.855843 139.065085 
L 398.487273 139.773542 
L 398.487273 139.773542 
" clip-path="url(#pc4c2ee9e2f)" style="fill: none; stroke: #0000ff; stroke-width: 1.5; stroke-linecap: square"/>
   </g>
   <g id="line2d_22">
    <path d="M 73.832727 245.560164 
L 75.464157 187.27648 
L 77.095587 157.695116 
L 78.727017 130.646849 
L 80.358447 125.965718 
L 81.989877 129.214976 
L 83.621307 125.898873 
L 85.252736 125.420617 
L 86.884166 121.93617 
L 88.515596 127.773947 
L 90.147026 121.739638 
L 91.778456 119.535185 
L 93.409886 122.862737 
L 95.041316 124.148541 
L 96.672746 120.339779 
L 98.304175 123.794036 
L 99.935605 123.364027 
L 101.567035 121.191026 
L 103.198465 119.974908 
L 104.829895 121.302473 
L 106.461325 124.258919 
L 108.092755 125.882124 
L 109.724185 124.517261 
L 111.355614 127.647554 
L 112.987044 121.15753 
L 114.618474 125.818299 
L 117.881334 124.015357 
L 119.512764 126.173105 
L 121.144194 121.281513 
L 122.775624 123.738632 
L 124.407053 124.87253 
L 126.038483 126.304355 
L 129.301343 123.005081 
L 130.932773 127.210136 
L 132.564203 124.656512 
L 134.195633 123.394496 
L 135.827063 124.758188 
L 137.458492 126.33965 
L 139.089922 124.538861 
L 140.721352 124.514955 
L 142.352782 125.550534 
L 143.984212 123.422314 
L 145.615642 124.150978 
L 147.247072 128.148697 
L 148.878502 127.67511 
L 150.509931 126.072477 
L 152.141361 124.652978 
L 153.772791 124.155343 
L 157.035651 127.577931 
L 158.667081 125.893958 
L 160.298511 127.099717 
L 161.929941 126.270514 
L 163.56137 127.741885 
L 165.1928 126.314975 
L 166.82423 125.448347 
L 168.45566 126.808925 
L 170.08709 126.344238 
L 171.71852 127.58525 
L 173.34995 126.499768 
L 174.98138 127.102218 
L 176.61281 126.842309 
L 178.244239 128.183766 
L 179.875669 127.548594 
L 181.507099 128.520321 
L 183.138529 128.815399 
L 184.769959 129.967689 
L 186.401389 128.344749 
L 188.032819 130.431451 
L 189.664249 126.118031 
L 191.295678 128.013984 
L 192.927108 127.283417 
L 194.558538 126.947994 
L 196.189968 126.801348 
L 197.821398 126.362095 
L 199.452828 128.826801 
L 201.084258 124.835212 
L 202.715688 126.130927 
L 204.347117 129.714989 
L 205.978547 125.509351 
L 207.609977 126.842206 
L 209.241407 128.894332 
L 210.872837 127.166959 
L 212.504267 127.767831 
L 214.135697 128.764253 
L 215.767127 127.377494 
L 217.398556 125.766015 
L 219.029986 128.040175 
L 220.661416 126.967885 
L 222.292846 127.673732 
L 223.924276 127.960636 
L 225.555706 127.573951 
L 227.187136 129.222821 
L 228.818566 127.447334 
L 230.449995 128.250684 
L 232.081425 127.358418 
L 233.712855 124.817492 
L 235.344285 127.297182 
L 236.975715 127.623761 
L 238.607145 125.438884 
L 240.238575 127.762321 
L 241.870005 128.770512 
L 243.501434 126.212273 
L 245.132864 124.503331 
L 246.764294 124.904319 
L 248.395724 125.835738 
L 250.027154 127.268238 
L 251.658584 124.479655 
L 253.290014 124.884146 
L 254.921444 125.013105 
L 256.552873 126.892985 
L 258.184303 125.844617 
L 259.815733 127.105671 
L 261.447163 127.508134 
L 263.078593 127.373637 
L 264.710023 123.945949 
L 266.341453 127.7069 
L 267.972883 124.666916 
L 269.604312 123.336898 
L 271.235742 127.461287 
L 272.867172 126.425558 
L 274.498602 127.490418 
L 276.130032 125.156222 
L 277.761462 127.836469 
L 279.392892 126.550887 
L 281.024322 125.487393 
L 284.287181 126.108407 
L 285.918611 124.259319 
L 287.550041 124.854536 
L 289.181471 124.748066 
L 290.812901 126.269337 
L 292.444331 124.149623 
L 294.075761 127.395779 
L 295.70719 126.044527 
L 297.33862 126.082687 
L 298.97005 124.889258 
L 300.60148 127.642531 
L 302.23291 124.902633 
L 303.86434 127.245193 
L 305.49577 126.516697 
L 307.1272 127.890898 
L 308.75863 126.870162 
L 310.390059 123.938528 
L 312.021489 125.35042 
L 313.652919 123.877414 
L 315.284349 127.107316 
L 316.915779 125.855162 
L 318.547209 125.262897 
L 320.178639 124.509503 
L 321.810069 123.189986 
L 323.441498 124.1622 
L 325.072928 125.704058 
L 326.704358 124.687838 
L 328.335788 123.38865 
L 329.967218 127.80877 
L 331.598648 125.037371 
L 333.230078 128.263107 
L 334.861508 124.790769 
L 336.492937 124.057494 
L 338.124367 126.386735 
L 339.755797 126.132194 
L 341.387227 125.115248 
L 343.018657 128.287612 
L 344.650087 126.754467 
L 346.281517 126.624789 
L 347.912947 127.685672 
L 349.544376 125.75479 
L 351.175806 126.704266 
L 352.807236 122.8128 
L 354.438666 126.806543 
L 356.070096 125.504701 
L 357.701526 128.261841 
L 359.332956 125.843438 
L 360.964386 124.135886 
L 362.595815 126.222796 
L 364.227245 127.592125 
L 365.858675 126.407218 
L 367.490105 127.554521 
L 369.121535 126.055122 
L 370.752965 125.851746 
L 374.015825 125.967039 
L 375.647254 126.417288 
L 377.278684 127.289845 
L 378.910114 126.369045 
L 380.541544 127.697168 
L 382.172974 126.509458 
L 383.804404 125.470855 
L 385.435834 123.914193 
L 387.067264 125.458676 
L 388.698693 126.657486 
L 390.330123 129.80593 
L 391.961553 123.553732 
L 393.592983 125.236588 
L 395.224413 126.534127 
L 396.855843 123.713389 
L 398.487273 125.291138 
L 398.487273 125.291138 
" clip-path="url(#pc4c2ee9e2f)" style="fill: none; stroke-dasharray: 9.6,2.4,1.5,2.4; stroke-dashoffset: 0; stroke: #008000; stroke-width: 1.5"/>
   </g>
   <g id="line2d_23">
    <path d="M 73.832727 136.954165 
L 75.464157 128.522972 
L 77.095587 128.193898 
L 78.727017 99.342146 
L 80.358447 112.60021 
L 81.989877 109.515238 
L 83.621307 89.665905 
L 85.252736 110.624587 
L 86.884166 91.975349 
L 88.515596 101.906999 
L 90.147026 84.456239 
L 93.409886 106.166186 
L 95.041316 95.024054 
L 96.672746 101.9188 
L 98.304175 99.104713 
L 99.935605 107.664096 
L 101.567035 99.00557 
L 103.198465 94.796523 
L 104.829895 89.819098 
L 106.461325 73.287887 
L 108.092755 97.840043 
L 109.724185 99.126511 
L 111.355614 104.92002 
L 112.987044 94.956878 
L 114.618474 100.541513 
L 116.249904 107.995143 
L 117.881334 103.518289 
L 119.512764 92.540643 
L 121.144194 90.788771 
L 122.775624 84.225297 
L 124.407053 75.563046 
L 126.038483 96.251166 
L 127.669913 89.6655 
L 129.301343 94.734053 
L 130.932773 101.917647 
L 132.564203 93.363833 
L 134.195633 86.717913 
L 135.827063 87.335212 
L 137.458492 88.361667 
L 139.089922 103.284088 
L 140.721352 97.755032 
L 142.352782 100.539386 
L 143.984212 97.41144 
L 145.615642 94.895395 
L 147.247072 92.063934 
L 148.878502 84.302266 
L 150.509931 80.832555 
L 152.141361 92.147889 
L 153.772791 95.221549 
L 155.404221 92.501835 
L 157.035651 93.549285 
L 158.667081 71.71165 
L 160.298511 93.292264 
L 161.929941 91.463906 
L 163.56137 93.564262 
L 165.1928 99.098207 
L 166.82423 81.774559 
L 168.45566 99.245546 
L 170.08709 85.393223 
L 171.71852 96.594568 
L 173.34995 88.287064 
L 174.98138 95.105332 
L 176.61281 99.044231 
L 178.244239 95.043296 
L 179.875669 101.957621 
L 181.507099 100.668123 
L 183.138529 93.402859 
L 184.769959 105.128858 
L 186.401389 99.226214 
L 188.032819 106.257776 
L 189.664249 97.837471 
L 191.295678 93.584546 
L 192.927108 94.627775 
L 194.558538 96.293889 
L 196.189968 100.594855 
L 197.821398 97.513835 
L 199.452828 104.822401 
L 201.084258 100.212161 
L 202.715688 89.697767 
L 204.347117 92.304538 
L 205.978547 101.963294 
L 207.609977 103.658844 
L 209.241407 103.231579 
L 210.872837 103.48598 
L 212.504267 97.787707 
L 214.135697 84.206044 
L 215.767127 95.070459 
L 217.398556 97.698148 
L 219.029986 96.110175 
L 220.661416 104.401758 
L 222.292846 100.574114 
L 223.924276 95.087394 
L 225.555706 96.144673 
L 227.187136 103.210283 
L 228.818566 100.371821 
L 230.449995 99.44156 
L 232.081425 98.274677 
L 233.712855 97.983738 
L 235.344285 93.644729 
L 236.975715 93.628984 
L 238.607145 76.683837 
L 240.238575 98.99789 
L 241.870005 97.697044 
L 243.501434 90.839084 
L 245.132864 92.666532 
L 246.764294 81.864858 
L 248.395724 93.239454 
L 250.027154 99.228623 
L 251.658584 79.241353 
L 253.290014 89.356493 
L 254.921444 103.612676 
L 256.552873 93.317407 
L 258.184303 96.247649 
L 259.815733 104.750811 
L 261.447163 93.327086 
L 263.078593 95.145198 
L 264.710023 91.023764 
L 266.341453 90.848934 
L 267.972883 91.034417 
L 269.604312 101.928127 
L 271.235742 84.357507 
L 272.867172 77.277666 
L 274.498602 88.076915 
L 276.130032 100.661239 
L 277.761462 104.463384 
L 279.392892 92.217058 
L 281.024322 92.447046 
L 282.655751 98.266783 
L 284.287181 96.499758 
L 285.918611 86.810173 
L 287.550041 84.195506 
L 289.181471 93.554245 
L 290.812901 93.726169 
L 292.444331 97.476246 
L 294.075761 97.859262 
L 295.70719 86.669465 
L 297.33862 83.079411 
L 298.97005 91.034595 
L 300.60148 95.169036 
L 302.23291 90.924407 
L 303.86434 82.766488 
L 305.49577 89.356948 
L 307.1272 73.079082 
L 308.75863 98.616971 
L 310.390059 90.892543 
L 312.021489 63.715294 
L 313.652919 53.568 
L 315.284349 90.844236 
L 316.915779 89.836751 
L 318.547209 86.909541 
L 320.178639 75.332003 
L 321.810069 78.345688 
L 323.441498 87.26008 
L 325.072928 74.381127 
L 326.704358 89.259765 
L 328.335788 87.136832 
L 329.967218 98.767079 
L 331.598648 94.914542 
L 333.230078 93.603898 
L 334.861508 60.328946 
L 336.492937 79.582501 
L 338.124367 96.405667 
L 339.755797 85.568442 
L 341.387227 81.623072 
L 343.018657 95.047572 
L 344.650087 84.021267 
L 346.281517 89.516507 
L 347.912947 92.1175 
L 349.544376 85.500761 
L 351.175806 100.244487 
L 352.807236 75.356853 
L 354.438666 82.780021 
L 356.070096 92.300152 
L 357.701526 88.022174 
L 359.332956 86.936832 
L 360.964386 68.295136 
L 362.595815 88.222097 
L 364.227245 87.036667 
L 365.858675 93.581557 
L 367.490105 93.659479 
L 369.121535 94.862061 
L 370.752965 78.097765 
L 372.384395 84.60095 
L 374.015825 79.171127 
L 375.647254 95.02144 
L 377.278684 95.052767 
L 378.910114 81.805195 
L 380.541544 86.504376 
L 382.172974 98.094563 
L 383.804404 85.858502 
L 385.435834 79.408428 
L 387.067264 93.680255 
L 388.698693 99.009528 
L 390.330123 96.226405 
L 391.961553 63.41017 
L 393.592983 91.04477 
L 395.224413 86.866756 
L 396.855843 75.550415 
L 398.487273 85.626869 
L 398.487273 85.626869 
" clip-path="url(#pc4c2ee9e2f)" style="fill: none; stroke: #ff0000; stroke-width: 1.5; stroke-linecap: square"/>
   </g>
   <g id="patch_3">
    <path d="M 57.6 307.584 
L 57.6 41.472 
" style="fill: none; stroke: #000000; stroke-width: 0.8; stroke-linejoin: miter; stroke-linecap: square"/>
   </g>
   <g id="patch_4">
    <path d="M 414.72 307.584 
L 414.72 41.472 
" style="fill: none; stroke: #000000; stroke-width: 0.8; stroke-linejoin: miter; stroke-linecap: square"/>
   </g>
   <g id="patch_5">
    <path d="M 57.6 307.584 
L 414.72 307.584 
" style="fill: none; stroke: #000000; stroke-width: 0.8; stroke-linejoin: miter; stroke-linecap: square"/>
   </g>
   <g id="patch_6">
    <path d="M 57.6 41.472 
L 414.72 41.472 
" style="fill: none; stroke: #000000; stroke-width: 0.8; stroke-linejoin: miter; stroke-linecap: square"/>
   </g>
   <g id="text_13">
    <!-- Średnie i najlepsze przystosowanie w każdej generacji -->
    <g transform="translate(73.26 35.472) scale(0.12 -0.12)">
     <defs>
      <path id="DejaVuSans-15a" d="M 2236 5921 
L 2814 5921 
L 2102 5096 
L 1623 5096 
L 2236 5921 
z
M 3425 4513 
L 3425 3897 
Q 3066 4069 2747 4153 
Q 2428 4238 2131 4238 
Q 1616 4238 1336 4038 
Q 1056 3838 1056 3469 
Q 1056 3159 1242 3001 
Q 1428 2844 1947 2747 
L 2328 2669 
Q 3034 2534 3370 2195 
Q 3706 1856 3706 1288 
Q 3706 609 3251 259 
Q 2797 -91 1919 -91 
Q 1588 -91 1214 -16 
Q 841 59 441 206 
L 441 856 
Q 825 641 1194 531 
Q 1563 422 1919 422 
Q 2459 422 2753 634 
Q 3047 847 3047 1241 
Q 3047 1584 2836 1778 
Q 2625 1972 2144 2069 
L 1759 2144 
Q 1053 2284 737 2584 
Q 422 2884 422 3419 
Q 422 4038 858 4394 
Q 1294 4750 2059 4750 
Q 2388 4750 2728 4690 
Q 3069 4631 3425 4513 
z
" transform="scale(0.015625)"/>
      <path id="DejaVuSans-64" d="M 2906 2969 
L 2906 4863 
L 3481 4863 
L 3481 0 
L 2906 0 
L 2906 525 
Q 2725 213 2448 61 
Q 2172 -91 1784 -91 
Q 1150 -91 751 415 
Q 353 922 353 1747 
Q 353 2572 751 3078 
Q 1150 3584 1784 3584 
Q 2172 3584 2448 3432 
Q 2725 3281 2906 2969 
z
M 947 1747 
Q 947 1113 1208 752 
Q 1469 391 1925 391 
Q 2381 391 2643 752 
Q 2906 1113 2906 1747 
Q 2906 2381 2643 2742 
Q 2381 3103 1925 3103 
Q 1469 3103 1208 2742 
Q 947 2381 947 1747 
z
" transform="scale(0.015625)"/>
      <path id="DejaVuSans-20" transform="scale(0.015625)"/>
      <path id="DejaVuSans-6c" d="M 603 4863 
L 1178 4863 
L 1178 0 
L 603 0 
L 603 4863 
z
" transform="scale(0.015625)"/>
      <path id="DejaVuSans-70" d="M 1159 525 
L 1159 -1331 
L 581 -1331 
L 581 3500 
L 1159 3500 
L 1159 2969 
Q 1341 3281 1617 3432 
Q 1894 3584 2278 3584 
Q 2916 3584 3314 3078 
Q 3713 2572 3713 1747 
Q 3713 922 3314 415 
Q 2916 -91 2278 -91 
Q 1894 -91 1617 61 
Q 1341 213 1159 525 
z
M 3116 1747 
Q 3116 2381 2855 2742 
Q 2594 3103 2138 3103 
Q 1681 3103 1420 2742 
Q 1159 2381 1159 1747 
Q 1159 1113 1420 752 
Q 1681 391 2138 391 
Q 2594 391 2855 752 
Q 3116 1113 3116 1747 
z
" transform="scale(0.015625)"/>
      <path id="DejaVuSans-6b" d="M 581 4863 
L 1159 4863 
L 1159 1991 
L 2875 3500 
L 3609 3500 
L 1753 1863 
L 3688 0 
L 2938 0 
L 1159 1709 
L 1159 0 
L 581 0 
L 581 4863 
z
" transform="scale(0.015625)"/>
      <path id="DejaVuSans-17c" d="M 1378 4863 
L 1953 4863 
L 1953 4134 
L 1378 4134 
L 1378 4863 
z
M 1672 3584 
L 1672 3584 
z
M 353 3500 
L 3084 3500 
L 3084 2975 
L 922 459 
L 3084 459 
L 3084 0 
L 275 0 
L 275 525 
L 2438 3041 
L 353 3041 
L 353 3500 
z
" transform="scale(0.015625)"/>
      <path id="DejaVuSans-67" d="M 2906 1791 
Q 2906 2416 2648 2759 
Q 2391 3103 1925 3103 
Q 1463 3103 1205 2759 
Q 947 2416 947 1791 
Q 947 1169 1205 825 
Q 1463 481 1925 481 
Q 2391 481 2648 825 
Q 2906 1169 2906 1791 
z
M 3481 434 
Q 3481 -459 3084 -895 
Q 2688 -1331 1869 -1331 
Q 1566 -1331 1297 -1286 
Q 1028 -1241 775 -1147 
L 775 -588 
Q 1028 -725 1275 -790 
Q 1522 -856 1778 -856 
Q 2344 -856 2625 -561 
Q 2906 -266 2906 331 
L 2906 616 
Q 2728 306 2450 153 
Q 2172 0 1784 0 
Q 1141 0 747 490 
Q 353 981 353 1791 
Q 353 2603 747 3093 
Q 1141 3584 1784 3584 
Q 2172 3584 2450 3431 
Q 2728 3278 2906 2969 
L 2906 3500 
L 3481 3500 
L 3481 434 
z
" transform="scale(0.015625)"/>
     </defs>
     <use xlink:href="#DejaVuSans-15a"/>
     <use xlink:href="#DejaVuSans-72" transform="translate(63.476562 0)"/>
     <use xlink:href="#DejaVuSans-65" transform="translate(102.339844 0)"/>
     <use xlink:href="#DejaVuSans-64" transform="translate(163.863281 0)"/>
     <use xlink:href="#DejaVuSans-6e" transform="translate(227.339844 0)"/>
     <use xlink:href="#DejaVuSans-69" transform="translate(290.71875 0)"/>
     <use xlink:href="#DejaVuSans-65" transform="translate(318.501953 0)"/>
     <use xlink:href="#DejaVuSans-20" transform="translate(380.025391 0)"/>
     <use xlink:href="#DejaVuSans-69" transform="translate(411.8125 0)"/>
     <use xlink:href="#DejaVuSans-20" transform="translate(439.595703 0)"/>
     <use xlink:href="#DejaVuSans-6e" transform="translate(471.382812 0)"/>
     <use xlink:href="#DejaVuSans-61" transform="translate(534.761719 0)"/>
     <use xlink:href="#DejaVuSans-6a" transform="translate(596.041016 0)"/>
     <use xlink:href="#DejaVuSans-6c" transform="translate(623.824219 0)"/>
     <use xlink:href="#DejaVuSans-65" transform="translate(651.607422 0)"/>
     <use xlink:href="#DejaVuSans-70" transform="translate(713.130859 0)"/>
     <use xlink:href="#DejaVuSans-73" transform="translate(776.607422 0)"/>
     <use xlink:href="#DejaVuSans-7a" transform="translate(828.707031 0)"/>
     <use xlink:href="#DejaVuSans-65" transform="translate(881.197266 0)"/>
     <use xlink:href="#DejaVuSans-20" transform="translate(942.720703 0)"/>
     <use xlink:href="#DejaVuSans-70" transform="translate(974.507812 0)"/>
     <use xlink:href="#DejaVuSans-72" transform="translate(1037.984375 0)"/>
     <use xlink:href="#DejaVuSans-7a" transform="translate(1079.097656 0)"/>
     <use xlink:href="#DejaVuSans-79" transform="translate(1131.587891 0)"/>
     <use xlink:href="#DejaVuSans-73" transform="translate(1190.767578 0)"/>
     <use xlink:href="#DejaVuSans-74" transform="translate(1242.867188 0)"/>
     <use xlink:href="#DejaVuSans-6f" transform="translate(1282.076172 0)"/>
     <use xlink:href="#DejaVuSans-73" transform="translate(1343.257812 0)"/>
     <use xlink:href="#DejaVuSans-6f" transform="translate(1395.357422 0)"/>
     <use xlink:href="#DejaVuSans-77" transform="translate(1456.539062 0)"/>
     <use xlink:href="#DejaVuSans-61" transform="translate(1538.326172 0)"/>
     <use xlink:href="#DejaVuSans-6e" transform="translate(1599.605469 0)"/>
     <use xlink:href="#DejaVuSans-69" transform="translate(1662.984375 0)"/>
     <use xlink:href="#DejaVuSans-65" transform="translate(1690.767578 0)"/>
     <use xlink:href="#DejaVuSans-20" transform="translate(1752.291016 0)"/>
     <use xlink:href="#DejaVuSans-77" transform="translate(1784.078125 0)"/>
     <use xlink:href="#DejaVuSans-20" transform="translate(1865.865234 0)"/>
     <use xlink:href="#DejaVuSans-6b" transform="translate(1897.652344 0)"/>
     <use xlink:href="#DejaVuSans-61" transform="translate(1953.8125 0)"/>
     <use xlink:href="#DejaVuSans-17c" transform="translate(2015.091797 0)"/>
     <use xlink:href="#DejaVuSans-64" transform="translate(2067.582031 0)"/>
     <use xlink:href="#DejaVuSans-65" transform="translate(2131.058594 0)"/>
     <use xlink:href="#DejaVuSans-6a" transform="translate(2192.582031 0)"/>
     <use xlink:href="#DejaVuSans-20" transform="translate(2220.365234 0)"/>
     <use xlink:href="#DejaVuSans-67" transform="translate(2252.152344 0)"/>
     <use xlink:href="#DejaVuSans-65" transform="translate(2315.628906 0)"/>
     <use xlink:href="#DejaVuSans-6e" transform="translate(2377.152344 0)"/>
     <use xlink:href="#DejaVuSans-65" transform="translate(2440.53125 0)"/>
     <use xlink:href="#DejaVuSans-72" transform="translate(2502.054688 0)"/>
     <use xlink:href="#DejaVuSans-61" transform="translate(2543.167969 0)"/>
     <use xlink:href="#DejaVuSans-63" transform="translate(2604.447266 0)"/>
     <use xlink:href="#DejaVuSans-6a" transform="translate(2659.427734 0)"/>
     <use xlink:href="#DejaVuSans-69" transform="translate(2687.210938 0)"/>
    </g>
   </g>
   <g id="legend_1">
    <g id="patch_7">
     <path d="M 279.790313 302.584 
L 407.72 302.584 
Q 409.72 302.584 409.72 300.584 
L 409.72 257.549625 
Q 409.72 255.549625 407.72 255.549625 
L 279.790313 255.549625 
Q 277.790313 255.549625 277.790313 257.549625 
L 277.790313 300.584 
Q 277.790313 302.584 279.790313 302.584 
z
" style="fill: #ffffff; opacity: 0.8; stroke: #cccccc; stroke-linejoin: miter"/>
    </g>
    <g id="line2d_24">
     <path d="M 281.790313 263.648062 
L 291.790313 263.648062 
L 301.790313 263.648062 
" style="fill: none; stroke: #0000ff; stroke-width: 1.5; stroke-linecap: square"/>
    </g>
    <g id="text_14">
     <!-- Średnia -->
     <g transform="translate(309.790313 267.148062) scale(0.1 -0.1)">
      <use xlink:href="#DejaVuSans-15a"/>
      <use xlink:href="#DejaVuSans-72" transform="translate(63.476562 0)"/>
      <use xlink:href="#DejaVuSans-65" transform="translate(102.339844 0)"/>
      <use xlink:href="#DejaVuSans-64" transform="translate(163.863281 0)"/>
      <use xlink:href="#DejaVuSans-6e" transform="translate(227.339844 0)"/>
      <use xlink:href="#DejaVuSans-69" transform="translate(290.71875 0)"/>
      <use xlink:href="#DejaVuSans-61" transform="translate(318.501953 0)"/>
     </g>
    </g>
    <g id="line2d_25">
     <path d="M 281.790313 278.326188 
L 291.790313 278.326188 
L 301.790313 278.326188 
" style="fill: none; stroke-dasharray: 9.6,2.4,1.5,2.4; stroke-dashoffset: 0; stroke: #008000; stroke-width: 1.5"/>
    </g>
    <g id="text_15">
     <!-- ±1 Odchylenie std. -->
     <g transform="translate(309.790313 281.826188) scale(0.1 -0.1)">
      <defs>
       <path id="DejaVuSans-b1" d="M 2944 4013 
L 2944 2803 
L 4684 2803 
L 4684 2272 
L 2944 2272 
L 2944 1063 
L 2419 1063 
L 2419 2272 
L 678 2272 
L 678 2803 
L 2419 2803 
L 2419 4013 
L 2944 4013 
z
M 678 531 
L 4684 531 
L 4684 0 
L 678 0 
L 678 531 
z
" transform="scale(0.015625)"/>
       <path id="DejaVuSans-4f" d="M 2522 4238 
Q 1834 4238 1429 3725 
Q 1025 3213 1025 2328 
Q 1025 1447 1429 934 
Q 1834 422 2522 422 
Q 3209 422 3611 934 
Q 4013 1447 4013 2328 
Q 4013 3213 3611 3725 
Q 3209 4238 2522 4238 
z
M 2522 4750 
Q 3503 4750 4090 4092 
Q 4678 3434 4678 2328 
Q 4678 1225 4090 567 
Q 3503 -91 2522 -91 
Q 1538 -91 948 565 
Q 359 1222 359 2328 
Q 359 3434 948 4092 
Q 1538 4750 2522 4750 
z
" transform="scale(0.015625)"/>
       <path id="DejaVuSans-68" d="M 3513 2113 
L 3513 0 
L 2938 0 
L 2938 2094 
Q 2938 2591 2744 2837 
Q 2550 3084 2163 3084 
Q 1697 3084 1428 2787 
Q 1159 2491 1159 1978 
L 1159 0 
L 581 0 
L 581 4863 
L 1159 4863 
L 1159 2956 
Q 1366 3272 1645 3428 
Q 1925 3584 2291 3584 
Q 2894 3584 3203 3211 
Q 3513 2838 3513 2113 
z
" transform="scale(0.015625)"/>
       <path id="DejaVuSans-2e" d="M 684 794 
L 1344 794 
L 1344 0 
L 684 0 
L 684 794 
z
" transform="scale(0.015625)"/>
      </defs>
      <use xlink:href="#DejaVuSans-b1"/>
      <use xlink:href="#DejaVuSans-31" transform="translate(83.789062 0)"/>
      <use xlink:href="#DejaVuSans-20" transform="translate(147.412109 0)"/>
      <use xlink:href="#DejaVuSans-4f" transform="translate(179.199219 0)"/>
      <use xlink:href="#DejaVuSans-64" transform="translate(257.910156 0)"/>
      <use xlink:href="#DejaVuSans-63" transform="translate(321.386719 0)"/>
      <use xlink:href="#DejaVuSans-68" transform="translate(376.367188 0)"/>
      <use xlink:href="#DejaVuSans-79" transform="translate(439.746094 0)"/>
      <use xlink:href="#DejaVuSans-6c" transform="translate(498.925781 0)"/>
      <use xlink:href="#DejaVuSans-65" transform="translate(526.708984 0)"/>
      <use xlink:href="#DejaVuSans-6e" transform="translate(588.232422 0)"/>
      <use xlink:href="#DejaVuSans-69" transform="translate(651.611328 0)"/>
      <use xlink:href="#DejaVuSans-65" transform="translate(679.394531 0)"/>
      <use xlink:href="#DejaVuSans-20" transform="translate(740.917969 0)"/>
      <use xlink:href="#DejaVuSans-73" transform="translate(772.705078 0)"/>
      <use xlink:href="#DejaVuSans-74" transform="translate(824.804688 0)"/>
      <use xlink:href="#DejaVuSans-64" transform="translate(864.013672 0)"/>
      <use xlink:href="#DejaVuSans-2e" transform="translate(927.490234 0)"/>
     </g>
    </g>
    <g id="line2d_26">
     <path d="M 281.790313 293.004312 
L 291.790313 293.004312 
L 301.790313 293.004312 
" style="fill: none; stroke: #ff0000; stroke-width: 1.5; stroke-linecap: square"/>
    </g>
    <g id="text_16">
     <!-- Najlepsze -->
     <g transform="translate(309.790313 296.504312) scale(0.1 -0.1)">
      <defs>
       <path id="DejaVuSans-4e" d="M 628 4666 
L 1478 4666 
L 3547 763 
L 3547 4666 
L 4159 4666 
L 4159 0 
L 3309 0 
L 1241 3903 
L 1241 0 
L 628 0 
L 628 4666 
z
" transform="scale(0.015625)"/>
      </defs>
      <use xlink:href="#DejaVuSans-4e"/>
      <use xlink:href="#DejaVuSans-61" transform="translate(74.804688 0)"/>
      <use xlink:href="#DejaVuSans-6a" transform="translate(136.083984 0)"/>
      <use xlink:href="#DejaVuSans-6c" transform="translate(163.867188 0)"/>
      <use xlink:href="#DejaVuSans-65" transform="translate(191.650391 0)"/>
      <use xlink:href="#DejaVuSans-70" transform="translate(253.173828 0)"/>
      <use xlink:href="#DejaVuSans-73" transform="translate(316.650391 0)"/>
      <use xlink:href="#DejaVuSans-7a" transform="translate(368.75 0)"/>
      <use xlink:href="#DejaVuSans-65" transform="translate(421.240234 0)"/>
     </g>
    </g>
   </g>
  </g>
 </g>
 <defs>
  <clipPath id="pc4c2ee9e2f">
   <rect x="57.6" y="41.472" width="357.12" height="266.112"/>
  </clipPath>
 </defs>
</svg>
