<?xml version="1.0" encoding="utf-8" standalone="no"?>
<!DOCTYPE svg PUBLIC "-//W3C//DTD SVG 1.1//EN"
  "http://www.w3.org/Graphics/SVG/1.1/DTD/svg11.dtd">
<svg xmlns:xlink="http://www.w3.org/1999/xlink" width="460.8pt" height="345.6pt" viewBox="0 0 460.8 345.6" xmlns="http://www.w3.org/2000/svg" version="1.1">
 <metadata>
  <rdf:RDF xmlns:dc="http://purl.org/dc/elements/1.1/" xmlns:cc="http://creativecommons.org/ns#" xmlns:rdf="http://www.w3.org/1999/02/22-rdf-syntax-ns#">
   <cc:Work>
    <dc:type rdf:resource="http://purl.org/dc/dcmitype/StillImage"/>
    <dc:date>2026-04-27T02:26:11.963909</dc:date>
    <dc:format>image/svg+xml</dc:format>
    <dc:creator>
     <cc:Agent>
      <dc:title>Matplotlib v3.10.8, https://matplotlib.org/</dc:title>
     </cc:Agent>
    </dc:creator>
   </cc:Work>
  </rdf:RDF>
 </metadata>
 <defs>
  <style type="text/css">*{stroke-linejoin: round; stroke-linecap: butt}</style>
 </defs>
 <g id="figure_1">
  <g id="patch_1">
   <path d="M 0 345.6 
L 460.8 345.6 
L 460.8 0 
L 0 0 
z
" style="fill: #ffffff"/>
  </g>
  <g id="axes_1">
   <g id="patch_2">
    <path d="M 57.6 307.584 
L 414.72 307.584 
L 414.72 41.472 
L 57.6 41.472 
z
" style="fill: #ffffff"/>
   </g>
   <g id="matplotlib.axis_1">
    <g id="xtick_1">
     <g id="line2d_1">
      <path d="M 72.201297 307.584 
L 72.201297 41.472 
" clip-path="url(#pcc9183f511)" style="fill: none; stroke: #b0b0b0; stroke-width: 0.8; stroke-linecap: square"/>
     </g>
     <g id="line2d_2">
      <defs>
       <path id="m49b6d05525" d="M 0 0 
L 0 3.5 
" style="stroke: #000000; stroke-width: 0.8"/>
      </defs>
      <g>
       <use xlink:href="#m49b6d05525" x="72.201297" y="307.584" style="stroke: #000000; stroke-width: 0.8"/>
      </g>
     </g>
     <g id="text_1">
      <!-- 0 -->
      <g transform="translate(69.020047 322.182437) scale(0.1 -0.1)">
       <defs>
        <path id="DejaVuSans-30" d="M 2034 4250 
Q 1547 4250 1301 3770 
Q 1056 3291 1056 2328 
Q 1056 1369 1301 889 
Q 1547 409 2034 409 
Q 2525 409 2770 889 
Q 3016 1369 3016 2328 
Q 3016 3291 2770 3770 
Q 2525 4250 2034 4250 
z
M 2034 4750 
Q 2819 4750 3233 4129 
Q 3647 3509 3647 2328 
Q 3647 1150 3233 529 
Q 2819 -91 2034 -91 
Q 1250 -91 836 529 
Q 422 1150 422 2328 
Q 422 3509 836 4129 
Q 1250 4750 2034 4750 
z
" transform="scale(0.015625)"/>
       </defs>
       <use xlink:href="#DejaVuSans-30"/>
      </g>
     </g>
    </g>
    <g id="xtick_2">
     <g id="line2d_3">
      <path d="M 112.987044 307.584 
L 112.987044 41.472 
" clip-path="url(#pcc9183f511)" style="fill: none; stroke: #b0b0b0; stroke-width: 0.8; stroke-linecap: square"/>
     </g>
     <g id="line2d_4">
      <g>
       <use xlink:href="#m49b6d05525" x="112.987044" y="307.584" style="stroke: #000000; stroke-width: 0.8"/>
      </g>
     </g>
     <g id="text_2">
      <!-- 25 -->
      <g transform="translate(106.624544 322.182437) scale(0.1 -0.1)">
       <defs>
        <path id="DejaVuSans-32" d="M 1228 531 
L 3431 531 
L 3431 0 
L 469 0 
L 469 531 
Q 828 903 1448 1529 
Q 2069 2156 2228 2338 
Q 2531 2678 2651 2914 
Q 2772 3150 2772 3378 
Q 2772 3750 2511 3984 
Q 2250 4219 1831 4219 
Q 1534 4219 1204 4116 
Q 875 4013 500 3803 
L 500 4441 
Q 881 4594 1212 4672 
Q 1544 4750 1819 4750 
Q 2544 4750 2975 4387 
Q 3406 4025 3406 3419 
Q 3406 3131 3298 2873 
Q 3191 2616 2906 2266 
Q 2828 2175 2409 1742 
Q 1991 1309 1228 531 
z
" transform="scale(0.015625)"/>
        <path id="DejaVuSans-35" d="M 691 4666 
L 3169 4666 
L 3169 4134 
L 1269 4134 
L 1269 2991 
Q 1406 3038 1543 3061 
Q 1681 3084 1819 3084 
Q 2600 3084 3056 2656 
Q 3513 2228 3513 1497 
Q 3513 744 3044 326 
Q 2575 -91 1722 -91 
Q 1428 -91 1123 -41 
Q 819 9 494 109 
L 494 744 
Q 775 591 1075 516 
Q 1375 441 1709 441 
Q 2250 441 2565 725 
Q 2881 1009 2881 1497 
Q 2881 1984 2565 2268 
Q 2250 2553 1709 2553 
Q 1456 2553 1204 2497 
Q 953 2441 691 2322 
L 691 4666 
z
" transform="scale(0.015625)"/>
       </defs>
       <use xlink:href="#DejaVuSans-32"/>
       <use xlink:href="#DejaVuSans-35" transform="translate(63.623047 0)"/>
      </g>
     </g>
    </g>
    <g id="xtick_3">
     <g id="line2d_5">
      <path d="M 153.772791 307.584 
L 153.772791 41.472 
" clip-path="url(#pcc9183f511)" style="fill: none; stroke: #b0b0b0; stroke-width: 0.8; stroke-linecap: square"/>
     </g>
     <g id="line2d_6">
      <g>
       <use xlink:href="#m49b6d05525" x="153.772791" y="307.584" style="stroke: #000000; stroke-width: 0.8"/>
      </g>
     </g>
     <g id="text_3">
      <!-- 50 -->
      <g transform="translate(147.410291 322.182437) scale(0.1 -0.1)">
       <use xlink:href="#DejaVuSans-35"/>
       <use xlink:href="#DejaVuSans-30" transform="translate(63.623047 0)"/>
      </g>
     </g>
    </g>
    <g id="xtick_4">
     <g id="line2d_7">
      <path d="M 194.558538 307.584 
L 194.558538 41.472 
" clip-path="url(#pcc9183f511)" style="fill: none; stroke: #b0b0b0; stroke-width: 0.8; stroke-linecap: square"/>
     </g>
     <g id="line2d_8">
      <g>
       <use xlink:href="#m49b6d05525" x="194.558538" y="307.584" style="stroke: #000000; stroke-width: 0.8"/>
      </g>
     </g>
     <g id="text_4">
      <!-- 75 -->
      <g transform="translate(188.196038 322.182437) scale(0.1 -0.1)">
       <defs>
        <path id="DejaVuSans-37" d="M 525 4666 
L 3525 4666 
L 3525 4397 
L 1831 0 
L 1172 0 
L 2766 4134 
L 525 4134 
L 525 4666 
z
" transform="scale(0.015625)"/>
       </defs>
       <use xlink:href="#DejaVuSans-37"/>
       <use xlink:href="#DejaVuSans-35" transform="translate(63.623047 0)"/>
      </g>
     </g>
    </g>
    <g id="xtick_5">
     <g id="line2d_9">
      <path d="M 235.344285 307.584 
L 235.344285 41.472 
" clip-path="url(#pcc9183f511)" style="fill: none; stroke: #b0b0b0; stroke-width: 0.8; stroke-linecap: square"/>
     </g>
     <g id="line2d_10">
      <g>
       <use xlink:href="#m49b6d05525" x="235.344285" y="307.584" style="stroke: #000000; stroke-width: 0.8"/>
      </g>
     </g>
     <g id="text_5">
      <!-- 100 -->
      <g transform="translate(225.800535 322.182437) scale(0.1 -0.1)">
       <defs>
        <path id="DejaVuSans-31" d="M 794 531 
L 1825 531 
L 1825 4091 
L 703 3866 
L 703 4441 
L 1819 4666 
L 2450 4666 
L 2450 531 
L 3481 531 
L 3481 0 
L 794 0 
L 794 531 
z
" transform="scale(0.015625)"/>
       </defs>
       <use xlink:href="#DejaVuSans-31"/>
       <use xlink:href="#DejaVuSans-30" transform="translate(63.623047 0)"/>
       <use xlink:href="#DejaVuSans-30" transform="translate(127.246094 0)"/>
      </g>
     </g>
    </g>
    <g id="xtick_6">
     <g id="line2d_11">
      <path d="M 276.130032 307.584 
L 276.130032 41.472 
" clip-path="url(#pcc9183f511)" style="fill: none; stroke: #b0b0b0; stroke-width: 0.8; stroke-linecap: square"/>
     </g>
     <g id="line2d_12">
      <g>
       <use xlink:href="#m49b6d05525" x="276.130032" y="307.584" style="stroke: #000000; stroke-width: 0.8"/>
      </g>
     </g>
     <g id="text_6">
      <!-- 125 -->
      <g transform="translate(266.586282 322.182437) scale(0.1 -0.1)">
       <use xlink:href="#DejaVuSans-31"/>
       <use xlink:href="#DejaVuSans-32" transform="translate(63.623047 0)"/>
       <use xlink:href="#DejaVuSans-35" transform="translate(127.246094 0)"/>
      </g>
     </g>
    </g>
    <g id="xtick_7">
     <g id="line2d_13">
      <path d="M 316.915779 307.584 
L 316.915779 41.472 
" clip-path="url(#pcc9183f511)" style="fill: none; stroke: #b0b0b0; stroke-width: 0.8; stroke-linecap: square"/>
     </g>
     <g id="line2d_14">
      <g>
       <use xlink:href="#m49b6d05525" x="316.915779" y="307.584" style="stroke: #000000; stroke-width: 0.8"/>
      </g>
     </g>
     <g id="text_7">
      <!-- 150 -->
      <g transform="translate(307.372029 322.182437) scale(0.1 -0.1)">
       <use xlink:href="#DejaVuSans-31"/>
       <use xlink:href="#DejaVuSans-35" transform="translate(63.623047 0)"/>
       <use xlink:href="#DejaVuSans-30" transform="translate(127.246094 0)"/>
      </g>
     </g>
    </g>
    <g id="xtick_8">
     <g id="line2d_15">
      <path d="M 357.701526 307.584 
L 357.701526 41.472 
" clip-path="url(#pcc9183f511)" style="fill: none; stroke: #b0b0b0; stroke-width: 0.8; stroke-linecap: square"/>
     </g>
     <g id="line2d_16">
      <g>
       <use xlink:href="#m49b6d05525" x="357.701526" y="307.584" style="stroke: #000000; stroke-width: 0.8"/>
      </g>
     </g>
     <g id="text_8">
      <!-- 175 -->
      <g transform="translate(348.157776 322.182437) scale(0.1 -0.1)">
       <use xlink:href="#DejaVuSans-31"/>
       <use xlink:href="#DejaVuSans-37" transform="translate(63.623047 0)"/>
       <use xlink:href="#DejaVuSans-35" transform="translate(127.246094 0)"/>
      </g>
     </g>
    </g>
    <g id="xtick_9">
     <g id="line2d_17">
      <path d="M 398.487273 307.584 
L 398.487273 41.472 
" clip-path="url(#pcc9183f511)" style="fill: none; stroke: #b0b0b0; stroke-width: 0.8; stroke-linecap: square"/>
     </g>
     <g id="line2d_18">
      <g>
       <use xlink:href="#m49b6d05525" x="398.487273" y="307.584" style="stroke: #000000; stroke-width: 0.8"/>
      </g>
     </g>
     <g id="text_9">
      <!-- 200 -->
      <g transform="translate(388.943523 322.182437) scale(0.1 -0.1)">
       <use xlink:href="#DejaVuSans-32"/>
       <use xlink:href="#DejaVuSans-30" transform="translate(63.623047 0)"/>
       <use xlink:href="#DejaVuSans-30" transform="translate(127.246094 0)"/>
      </g>
     </g>
    </g>
    <g id="text_10">
     <!-- Generacje -->
     <g transform="translate(210.629531 335.860562) scale(0.1 -0.1)">
      <defs>
       <path id="DejaVuSans-47" d="M 3809 666 
L 3809 1919 
L 2778 1919 
L 2778 2438 
L 4434 2438 
L 4434 434 
Q 4069 175 3628 42 
Q 3188 -91 2688 -91 
Q 1594 -91 976 548 
Q 359 1188 359 2328 
Q 359 3472 976 4111 
Q 1594 4750 2688 4750 
Q 3144 4750 3555 4637 
Q 3966 4525 4313 4306 
L 4313 3634 
Q 3963 3931 3569 4081 
Q 3175 4231 2741 4231 
Q 1884 4231 1454 3753 
Q 1025 3275 1025 2328 
Q 1025 1384 1454 906 
Q 1884 428 2741 428 
Q 3075 428 3337 486 
Q 3600 544 3809 666 
z
" transform="scale(0.015625)"/>
       <path id="DejaVuSans-65" d="M 3597 1894 
L 3597 1613 
L 953 1613 
Q 991 1019 1311 708 
Q 1631 397 2203 397 
Q 2534 397 2845 478 
Q 3156 559 3463 722 
L 3463 178 
Q 3153 47 2828 -22 
Q 2503 -91 2169 -91 
Q 1331 -91 842 396 
Q 353 884 353 1716 
Q 353 2575 817 3079 
Q 1281 3584 2069 3584 
Q 2775 3584 3186 3129 
Q 3597 2675 3597 1894 
z
M 3022 2063 
Q 3016 2534 2758 2815 
Q 2500 3097 2075 3097 
Q 1594 3097 1305 2825 
Q 1016 2553 972 2059 
L 3022 2063 
z
" transform="scale(0.015625)"/>
       <path id="DejaVuSans-6e" d="M 3513 2113 
L 3513 0 
L 2938 0 
L 2938 2094 
Q 2938 2591 2744 2837 
Q 2550 3084 2163 3084 
Q 1697 3084 1428 2787 
Q 1159 2491 1159 1978 
L 1159 0 
L 581 0 
L 581 3500 
L 1159 3500 
L 1159 2956 
Q 1366 3272 1645 3428 
Q 1925 3584 2291 3584 
Q 2894 3584 3203 3211 
Q 3513 2838 3513 2113 
z
" transform="scale(0.015625)"/>
       <path id="DejaVuSans-72" d="M 2631 2963 
Q 2534 3019 2420 3045 
Q 2306 3072 2169 3072 
Q 1681 3072 1420 2755 
Q 1159 2438 1159 1844 
L 1159 0 
L 581 0 
L 581 3500 
L 1159 3500 
L 1159 2956 
Q 1341 3275 1631 3429 
Q 1922 3584 2338 3584 
Q 2397 3584 2469 3576 
Q 2541 3569 2628 3553 
L 2631 2963 
z
" transform="scale(0.015625)"/>
       <path id="DejaVuSans-61" d="M 2194 1759 
Q 1497 1759 1228 1600 
Q 959 1441 959 1056 
Q 959 750 1161 570 
Q 1363 391 1709 391 
Q 2188 391 2477 730 
Q 2766 1069 2766 1631 
L 2766 1759 
L 2194 1759 
z
M 3341 1997 
L 3341 0 
L 2766 0 
L 2766 531 
Q 2569 213 2275 61 
Q 1981 -91 1556 -91 
Q 1019 -91 701 211 
Q 384 513 384 1019 
Q 384 1609 779 1909 
Q 1175 2209 1959 2209 
L 2766 2209 
L 2766 2266 
Q 2766 2663 2505 2880 
Q 2244 3097 1772 3097 
Q 1472 3097 1187 3025 
Q 903 2953 641 2809 
L 641 3341 
Q 956 3463 1253 3523 
Q 1550 3584 1831 3584 
Q 2591 3584 2966 3190 
Q 3341 2797 3341 1997 
z
" transform="scale(0.015625)"/>
       <path id="DejaVuSans-63" d="M 3122 3366 
L 3122 2828 
Q 2878 2963 2633 3030 
Q 2388 3097 2138 3097 
Q 1578 3097 1268 2742 
Q 959 2388 959 1747 
Q 959 1106 1268 751 
Q 1578 397 2138 397 
Q 2388 397 2633 464 
Q 2878 531 3122 666 
L 3122 134 
Q 2881 22 2623 -34 
Q 2366 -91 2075 -91 
Q 1284 -91 818 406 
Q 353 903 353 1747 
Q 353 2603 823 3093 
Q 1294 3584 2113 3584 
Q 2378 3584 2631 3529 
Q 2884 3475 3122 3366 
z
" transform="scale(0.015625)"/>
       <path id="DejaVuSans-6a" d="M 603 3500 
L 1178 3500 
L 1178 -63 
Q 1178 -731 923 -1031 
Q 669 -1331 103 -1331 
L -116 -1331 
L -116 -844 
L 38 -844 
Q 366 -844 484 -692 
Q 603 -541 603 -63 
L 603 3500 
z
M 603 4863 
L 1178 4863 
L 1178 4134 
L 603 4134 
L 603 4863 
z
" transform="scale(0.015625)"/>
      </defs>
      <use xlink:href="#DejaVuSans-47"/>
      <use xlink:href="#DejaVuSans-65" transform="translate(77.490234 0)"/>
      <use xlink:href="#DejaVuSans-6e" transform="translate(139.013672 0)"/>
      <use xlink:href="#DejaVuSans-65" transform="translate(202.392578 0)"/>
      <use xlink:href="#DejaVuSans-72" transform="translate(263.916016 0)"/>
      <use xlink:href="#DejaVuSans-61" transform="translate(305.029297 0)"/>
      <use xlink:href="#DejaVuSans-63" transform="translate(366.308594 0)"/>
      <use xlink:href="#DejaVuSans-6a" transform="translate(421.289062 0)"/>
      <use xlink:href="#DejaVuSans-65" transform="translate(449.072266 0)"/>
     </g>
    </g>
   </g>
   <g id="matplotlib.axis_2">
    <g id="ytick_1">
     <g id="line2d_19">
      <path d="M 57.6 117.888786 
L 414.72 117.888786 
" clip-path="url(#pcc9183f511)" style="fill: none; stroke: #b0b0b0; stroke-width: 0.8; stroke-linecap: square"/>
     </g>
     <g id="line2d_20">
      <defs>
       <path id="m712509b6a8" d="M 0 0 
L -3.5 0 
" style="stroke: #000000; stroke-width: 0.8"/>
      </defs>
      <g>
       <use xlink:href="#m712509b6a8" x="57.6" y="117.888786" style="stroke: #000000; stroke-width: 0.8"/>
      </g>
     </g>
     <g id="text_11">
      <!-- $\mathdefault{10^{2}}$ -->
      <g transform="translate(33 121.688005) scale(0.1 -0.1)">
       <use xlink:href="#DejaVuSans-31" transform="translate(0 0.765625)"/>
       <use xlink:href="#DejaVuSans-30" transform="translate(63.623047 0.765625)"/>
       <use xlink:href="#DejaVuSans-32" transform="translate(128.203125 39.046875) scale(0.7)"/>
      </g>
     </g>
    </g>
    <g id="text_12">
     <!-- Przystosowanie -->
     <g transform="translate(26.920312 213.170187) rotate(-90) scale(0.1 -0.1)">
      <defs>
       <path id="DejaVuSans-50" d="M 1259 4147 
L 1259 2394 
L 2053 2394 
Q 2494 2394 2734 2622 
Q 2975 2850 2975 3272 
Q 2975 3691 2734 3919 
Q 2494 4147 2053 4147 
L 1259 4147 
z
M 628 4666 
L 2053 4666 
Q 2838 4666 3239 4311 
Q 3641 3956 3641 3272 
Q 3641 2581 3239 2228 
Q 2838 1875 2053 1875 
L 1259 1875 
L 1259 0 
L 628 0 
L 628 4666 
z
" transform="scale(0.015625)"/>
       <path id="DejaVuSans-7a" d="M 353 3500 
L 3084 3500 
L 3084 2975 
L 922 459 
L 3084 459 
L 3084 0 
L 275 0 
L 275 525 
L 2438 3041 
L 353 3041 
L 353 3500 
z
" transform="scale(0.015625)"/>
       <path id="DejaVuSans-79" d="M 2059 -325 
Q 1816 -950 1584 -1140 
Q 1353 -1331 966 -1331 
L 506 -1331 
L 506 -850 
L 844 -850 
Q 1081 -850 1212 -737 
Q 1344 -625 1503 -206 
L 1606 56 
L 191 3500 
L 800 3500 
L 1894 763 
L 2988 3500 
L 3597 3500 
L 2059 -325 
z
" transform="scale(0.015625)"/>
       <path id="DejaVuSans-73" d="M 2834 3397 
L 2834 2853 
Q 2591 2978 2328 3040 
Q 2066 3103 1784 3103 
Q 1356 3103 1142 2972 
Q 928 2841 928 2578 
Q 928 2378 1081 2264 
Q 1234 2150 1697 2047 
L 1894 2003 
Q 2506 1872 2764 1633 
Q 3022 1394 3022 966 
Q 3022 478 2636 193 
Q 2250 -91 1575 -91 
Q 1294 -91 989 -36 
Q 684 19 347 128 
L 347 722 
Q 666 556 975 473 
Q 1284 391 1588 391 
Q 1994 391 2212 530 
Q 2431 669 2431 922 
Q 2431 1156 2273 1281 
Q 2116 1406 1581 1522 
L 1381 1569 
Q 847 1681 609 1914 
Q 372 2147 372 2553 
Q 372 3047 722 3315 
Q 1072 3584 1716 3584 
Q 2034 3584 2315 3537 
Q 2597 3491 2834 3397 
z
" transform="scale(0.015625)"/>
       <path id="DejaVuSans-74" d="M 1172 4494 
L 1172 3500 
L 2356 3500 
L 2356 3053 
L 1172 3053 
L 1172 1153 
Q 1172 725 1289 603 
Q 1406 481 1766 481 
L 2356 481 
L 2356 0 
L 1766 0 
Q 1100 0 847 248 
Q 594 497 594 1153 
L 594 3053 
L 172 3053 
L 172 3500 
L 594 3500 
L 594 4494 
L 1172 4494 
z
" transform="scale(0.015625)"/>
       <path id="DejaVuSans-6f" d="M 1959 3097 
Q 1497 3097 1228 2736 
Q 959 2375 959 1747 
Q 959 1119 1226 758 
Q 1494 397 1959 397 
Q 2419 397 2687 759 
Q 2956 1122 2956 1747 
Q 2956 2369 2687 2733 
Q 2419 3097 1959 3097 
z
M 1959 3584 
Q 2709 3584 3137 3096 
Q 3566 2609 3566 1747 
Q 3566 888 3137 398 
Q 2709 -91 1959 -91 
Q 1206 -91 779 398 
Q 353 888 353 1747 
Q 353 2609 779 3096 
Q 1206 3584 1959 3584 
z
" transform="scale(0.015625)"/>
       <path id="DejaVuSans-77" d="M 269 3500 
L 844 3500 
L 1563 769 
L 2278 3500 
L 2956 3500 
L 3675 769 
L 4391 3500 
L 4966 3500 
L 4050 0 
L 3372 0 
L 2619 2869 
L 1863 0 
L 1184 0 
L 269 3500 
z
" transform="scale(0.015625)"/>
       <path id="DejaVuSans-69" d="M 603 3500 
L 1178 3500 
L 1178 0 
L 603 0 
L 603 3500 
z
M 603 4863 
L 1178 4863 
L 1178 4134 
L 603 4134 
L 603 4863 
z
" transform="scale(0.015625)"/>
      </defs>
      <use xlink:href="#DejaVuSans-50"/>
      <use xlink:href="#DejaVuSans-72" transform="translate(58.552734 0)"/>
      <use xlink:href="#DejaVuSans-7a" transform="translate(99.666016 0)"/>
      <use xlink:href="#DejaVuSans-79" transform="translate(152.15625 0)"/>
      <use xlink:href="#DejaVuSans-73" transform="translate(211.335938 0)"/>
      <use xlink:href="#DejaVuSans-74" transform="translate(263.435547 0)"/>
      <use xlink:href="#DejaVuSans-6f" transform="translate(302.644531 0)"/>
      <use xlink:href="#DejaVuSans-73" transform="translate(363.826172 0)"/>
      <use xlink:href="#DejaVuSans-6f" transform="translate(415.925781 0)"/>
      <use xlink:href="#DejaVuSans-77" transform="translate(477.107422 0)"/>
      <use xlink:href="#DejaVuSans-61" transform="translate(558.894531 0)"/>
      <use xlink:href="#DejaVuSans-6e" transform="translate(620.173828 0)"/>
      <use xlink:href="#DejaVuSans-69" transform="translate(683.552734 0)"/>
      <use xlink:href="#DejaVuSans-65" transform="translate(711.335938 0)"/>
     </g>
    </g>
   </g>
   <g id="line2d_21">
    <path d="M 73.832727 295.488 
L 75.464157 218.873183 
L 77.095587 179.012245 
L 78.727017 176.360867 
L 80.358447 166.781572 
L 81.989877 153.067344 
L 83.621307 151.299663 
L 85.252736 159.725655 
L 86.884166 155.081932 
L 88.515596 146.333756 
L 90.147026 145.001728 
L 91.778456 141.245931 
L 93.409886 144.499513 
L 95.041316 146.746852 
L 96.672746 149.816551 
L 98.304175 146.895727 
L 99.935605 145.298907 
L 101.567035 144.979155 
L 103.198465 148.523382 
L 104.829895 147.988295 
L 106.461325 145.174416 
L 108.092755 144.435026 
L 109.724185 146.331637 
L 111.355614 147.157803 
L 112.987044 143.692414 
L 114.618474 141.58071 
L 116.249904 143.342202 
L 117.881334 142.075669 
L 119.512764 141.761242 
L 121.144194 143.418015 
L 122.775624 143.427436 
L 124.407053 141.324566 
L 126.038483 142.043307 
L 127.669913 143.388496 
L 129.301343 143.621797 
L 130.932773 141.671408 
L 132.564203 141.30626 
L 134.195633 142.948346 
L 135.827063 142.745706 
L 137.458492 141.501077 
L 139.089922 142.114369 
L 140.721352 142.128955 
L 142.352782 140.61552 
L 143.984212 141.917768 
L 145.615642 141.758657 
L 147.247072 141.746354 
L 148.878502 140.557914 
L 150.509931 143.690373 
L 152.141361 141.014293 
L 153.772791 140.712067 
L 155.404221 142.859551 
L 157.035651 140.814568 
L 158.667081 140.34449 
L 160.298511 141.934903 
L 161.929941 141.013945 
L 163.56137 142.60244 
L 166.82423 143.087328 
L 170.08709 141.332428 
L 171.71852 142.709279 
L 173.34995 141.836138 
L 174.98138 140.784172 
L 176.61281 142.488887 
L 178.244239 141.373619 
L 179.875669 141.153037 
L 181.507099 141.518187 
L 183.138529 141.502389 
L 184.769959 140.61463 
L 186.401389 138.82245 
L 188.032819 140.95517 
L 189.664249 139.214988 
L 191.295678 141.449039 
L 192.927108 140.157922 
L 194.558538 141.747741 
L 196.189968 140.565157 
L 197.821398 141.806517 
L 199.452828 142.009131 
L 201.084258 141.177787 
L 202.715688 140.56897 
L 204.347117 140.24418 
L 205.978547 141.178115 
L 207.609977 141.085019 
L 209.241407 142.414543 
L 210.872837 140.769482 
L 214.135697 143.003373 
L 215.767127 139.804045 
L 217.398556 142.317321 
L 219.029986 141.649181 
L 220.661416 140.690442 
L 222.292846 140.85188 
L 223.924276 140.591463 
L 225.555706 140.735202 
L 227.187136 142.088055 
L 228.818566 141.345628 
L 230.449995 140.231557 
L 232.081425 141.001515 
L 233.712855 141.362798 
L 235.344285 141.607078 
L 236.975715 142.479332 
L 238.607145 140.061194 
L 240.238575 140.147258 
L 241.870005 140.568214 
L 243.501434 140.650722 
L 245.132864 141.196727 
L 246.764294 142.229952 
L 248.395724 140.836381 
L 250.027154 139.736124 
L 251.658584 139.834921 
L 253.290014 139.39991 
L 254.921444 140.684255 
L 256.552873 141.821706 
L 259.815733 141.069166 
L 261.447163 144.455434 
L 263.078593 141.976599 
L 264.710023 140.294394 
L 266.341453 140.957096 
L 267.972883 139.849419 
L 269.604312 141.24261 
L 271.235742 140.85942 
L 272.867172 139.407239 
L 274.498602 140.40519 
L 276.130032 139.790776 
L 277.761462 143.210621 
L 279.392892 140.015623 
L 281.024322 140.890597 
L 282.655751 139.83669 
L 284.287181 140.540913 
L 285.918611 141.115848 
L 287.550041 139.913667 
L 289.181471 139.863002 
L 290.812901 139.968482 
L 292.444331 140.643067 
L 294.075761 141.606603 
L 295.70719 141.18322 
L 297.33862 141.517511 
L 298.97005 140.090765 
L 300.60148 139.693445 
L 302.23291 139.778732 
L 303.86434 140.43984 
L 305.49577 139.82976 
L 307.1272 140.69314 
L 308.75863 139.009948 
L 312.021489 139.597466 
L 313.652919 140.686077 
L 315.284349 140.525997 
L 316.915779 141.838011 
L 318.547209 140.785583 
L 320.178639 139.235342 
L 321.810069 141.884304 
L 323.441498 140.035319 
L 326.704358 141.018573 
L 328.335788 139.526776 
L 329.967218 140.183921 
L 331.598648 141.255207 
L 333.230078 140.214162 
L 334.861508 143.211698 
L 336.492937 139.887427 
L 338.124367 140.53669 
L 339.755797 141.652267 
L 341.387227 142.371334 
L 343.018657 140.395928 
L 344.650087 141.682372 
L 346.281517 138.906039 
L 347.912947 140.754571 
L 349.544376 141.98156 
L 351.175806 139.120046 
L 352.807236 141.013095 
L 356.070096 139.837296 
L 357.701526 139.539085 
L 359.332956 138.980841 
L 360.964386 140.408362 
L 364.227245 141.33607 
L 365.858675 137.649194 
L 367.490105 139.83902 
L 369.121535 141.006619 
L 370.752965 141.32307 
L 372.384395 141.361364 
L 374.015825 140.455357 
L 375.647254 140.41496 
L 377.278684 139.406223 
L 378.910114 139.821664 
L 380.541544 141.192092 
L 382.172974 140.619759 
L 383.804404 138.631388 
L 385.435834 141.354251 
L 387.067264 140.650829 
L 388.698693 141.475098 
L 390.330123 140.567724 
L 391.961553 140.535229 
L 393.592983 140.821212 
L 395.224413 139.970228 
L 396.855843 140.288655 
L 398.487273 139.112987 
L 398.487273 139.112987 
" clip-path="url(#pcc9183f511)" style="fill: none; stroke: #0000ff; stroke-width: 1.5; stroke-linecap: square"/>
   </g>
   <g id="line2d_22">
    <path d="M 73.832727 235.73545 
L 75.464157 166.032564 
L 77.095587 137.698049 
L 78.727017 132.978941 
L 80.358447 127.15411 
L 81.989877 123.627125 
L 83.621307 123.989301 
L 85.252736 123.084518 
L 86.884166 121.510516 
L 88.515596 127.528416 
L 90.147026 124.041939 
L 91.778456 120.14185 
L 93.409886 122.079692 
L 95.041316 121.477086 
L 96.672746 119.316454 
L 98.304175 125.588528 
L 99.935605 123.444829 
L 101.567035 123.616224 
L 103.198465 121.563167 
L 104.829895 118.94717 
L 106.461325 120.624269 
L 108.092755 123.73665 
L 109.724185 121.248008 
L 111.355614 120.208163 
L 112.987044 121.78683 
L 114.618474 125.676484 
L 116.249904 121.711331 
L 117.881334 122.507598 
L 119.512764 123.641462 
L 121.144194 120.090396 
L 122.775624 123.255963 
L 124.407053 121.46047 
L 126.038483 120.911764 
L 127.669913 123.297446 
L 129.301343 120.294847 
L 130.932773 123.022403 
L 132.564203 121.393707 
L 134.195633 120.736055 
L 135.827063 124.03686 
L 137.458492 120.107022 
L 139.089922 121.51096 
L 140.721352 124.744396 
L 142.352782 122.419752 
L 143.984212 124.288635 
L 145.615642 123.358938 
L 147.247072 121.167712 
L 148.878502 125.046409 
L 150.509931 124.155169 
L 152.141361 128.071336 
L 153.772791 128.076816 
L 155.404221 122.73031 
L 157.035651 124.649658 
L 158.667081 123.904605 
L 160.298511 122.790008 
L 161.929941 124.109164 
L 163.56137 127.125135 
L 165.1928 127.263601 
L 166.82423 126.430976 
L 168.45566 126.625298 
L 170.08709 124.159893 
L 171.71852 125.883569 
L 173.34995 126.147011 
L 174.98138 125.056122 
L 176.61281 126.920179 
L 178.244239 124.488667 
L 179.875669 125.266261 
L 181.507099 123.437099 
L 183.138529 125.701778 
L 184.769959 126.220214 
L 186.401389 123.016863 
L 188.032819 125.45522 
L 189.664249 124.255918 
L 191.295678 125.878304 
L 192.927108 126.156821 
L 194.558538 125.732689 
L 196.189968 124.345139 
L 197.821398 127.127002 
L 199.452828 126.45649 
L 201.084258 125.421042 
L 204.347117 126.023653 
L 205.978547 127.091547 
L 207.609977 127.041939 
L 209.241407 124.69191 
L 210.872837 126.829035 
L 212.504267 122.693017 
L 214.135697 124.108065 
L 215.767127 126.236986 
L 217.398556 126.558966 
L 219.029986 126.345237 
L 220.661416 125.429649 
L 222.292846 126.414168 
L 223.924276 126.201566 
L 225.555706 126.584028 
L 227.187136 125.777498 
L 228.818566 128.2917 
L 230.449995 125.627734 
L 232.081425 127.194933 
L 233.712855 126.522565 
L 235.344285 123.787706 
L 236.975715 129.301959 
L 238.607145 126.144348 
L 240.238575 125.963392 
L 241.870005 123.438823 
L 243.501434 121.53479 
L 245.132864 123.166003 
L 246.764294 126.41264 
L 248.395724 120.319705 
L 250.027154 121.54002 
L 251.658584 124.678325 
L 253.290014 122.886588 
L 254.921444 123.663897 
L 256.552873 127.665717 
L 258.184303 127.104647 
L 259.815733 127.082288 
L 261.447163 128.97047 
L 264.710023 126.57325 
L 266.341453 126.176218 
L 267.972883 126.707959 
L 269.604312 126.983883 
L 272.867172 125.210085 
L 274.498602 126.282607 
L 276.130032 124.449245 
L 277.761462 128.447928 
L 279.392892 125.830295 
L 281.024322 127.23746 
L 282.655751 125.346637 
L 284.287181 125.163825 
L 285.918611 128.303532 
L 287.550041 125.961794 
L 289.181471 125.360207 
L 290.812901 124.091789 
L 292.444331 126.479479 
L 294.075761 127.12455 
L 295.70719 125.938625 
L 297.33862 126.986966 
L 298.97005 126.277091 
L 300.60148 123.385849 
L 302.23291 125.750331 
L 303.86434 125.869842 
L 305.49577 125.483098 
L 307.1272 126.168538 
L 308.75863 123.374719 
L 310.390059 125.955951 
L 313.652919 125.973731 
L 315.284349 125.308321 
L 316.915779 125.604673 
L 318.547209 126.065569 
L 320.178639 123.602899 
L 321.810069 127.428913 
L 323.441498 124.6875 
L 325.072928 126.987463 
L 326.704358 126.238052 
L 328.335788 124.191536 
L 329.967218 126.584191 
L 331.598648 123.349432 
L 333.230078 125.971111 
L 334.861508 123.848029 
L 336.492937 122.880124 
L 338.124367 125.556698 
L 339.755797 125.19872 
L 341.387227 126.538929 
L 343.018657 120.931036 
L 344.650087 126.139187 
L 346.281517 124.527272 
L 347.912947 127.737591 
L 349.544376 128.012031 
L 351.175806 124.429412 
L 352.807236 126.205018 
L 354.438666 126.360133 
L 356.070096 124.054732 
L 357.701526 124.932883 
L 359.332956 125.271482 
L 360.964386 125.743299 
L 362.595815 126.637267 
L 364.227245 126.146589 
L 365.858675 122.301072 
L 367.490105 125.263407 
L 369.121535 125.432843 
L 370.752965 127.167259 
L 372.384395 126.705833 
L 374.015825 125.893801 
L 375.647254 126.684637 
L 377.278684 122.742156 
L 378.910114 125.681511 
L 380.541544 127.509535 
L 382.172974 126.315011 
L 383.804404 123.731387 
L 385.435834 127.422398 
L 387.067264 125.850275 
L 388.698693 128.682637 
L 390.330123 126.198094 
L 391.961553 126.563575 
L 393.592983 126.624448 
L 396.855843 123.390273 
L 398.487273 123.366478 
L 398.487273 123.366478 
" clip-path="url(#pcc9183f511)" style="fill: none; stroke-dasharray: 9.6,2.4,1.5,2.4; stroke-dashoffset: 0; stroke: #008000; stroke-width: 1.5"/>
   </g>
   <g id="line2d_23">
    <path d="M 73.832727 140.079453 
L 75.464157 127.007406 
L 77.095587 108.588985 
L 78.727017 97.363905 
L 80.358447 118.362777 
L 81.989877 97.569239 
L 83.621307 107.193986 
L 85.252736 98.679408 
L 86.884166 105.452733 
L 88.515596 106.894908 
L 90.147026 94.359228 
L 91.778456 82.786219 
L 93.409886 95.962231 
L 95.041316 86.187622 
L 96.672746 72.933494 
L 98.304175 93.071444 
L 99.935605 100.349365 
L 101.567035 90.23211 
L 103.198465 106.638349 
L 104.829895 88.767422 
L 106.461325 103.50274 
L 108.092755 80.011369 
L 109.724185 74.494404 
L 111.355614 103.176717 
L 114.618474 91.882039 
L 116.249904 94.646898 
L 117.881334 88.481008 
L 119.512764 92.932006 
L 121.144194 94.67863 
L 122.775624 99.404487 
L 124.407053 84.328295 
L 126.038483 84.344998 
L 127.669913 87.497925 
L 129.301343 88.761352 
L 130.932773 87.353523 
L 132.564203 82.869388 
L 134.195633 53.568 
L 135.827063 74.912972 
L 137.458492 57.149794 
L 140.721352 79.009437 
L 142.352782 76.097377 
L 143.984212 84.416263 
L 145.615642 85.752236 
L 147.247072 71.001975 
L 148.878502 101.868469 
L 150.509931 97.661403 
L 152.141361 98.988782 
L 153.772791 95.700611 
L 155.404221 92.850297 
L 157.035651 84.74711 
L 158.667081 84.483548 
L 160.298511 78.856082 
L 161.929941 88.531961 
L 163.56137 97.461863 
L 165.1928 68.207851 
L 166.82423 93.082001 
L 168.45566 99.094084 
L 170.08709 75.045675 
L 171.71852 91.52223 
L 173.34995 94.260218 
L 174.98138 81.402432 
L 176.61281 83.335081 
L 178.244239 82.98918 
L 179.875669 84.343251 
L 181.507099 76.03339 
L 183.138529 82.952656 
L 184.769959 77.450981 
L 186.401389 84.48734 
L 188.032819 85.183036 
L 189.664249 84.155574 
L 191.295678 85.660269 
L 192.927108 92.974776 
L 194.558538 84.079206 
L 196.189968 89.730803 
L 197.821398 98.947036 
L 199.452828 87.621863 
L 201.084258 89.69596 
L 202.715688 77.435584 
L 204.347117 91.759772 
L 205.978547 85.653432 
L 207.609977 85.707966 
L 209.241407 92.551894 
L 210.872837 74.664629 
L 212.504267 72.156844 
L 214.135697 76.068668 
L 215.767127 90.267448 
L 217.398556 95.986011 
L 219.029986 89.951476 
L 220.661416 72.299824 
L 222.292846 91.542495 
L 223.924276 85.946484 
L 225.555706 76.09543 
L 227.187136 93.211219 
L 228.818566 89.90878 
L 230.449995 88.155476 
L 232.081425 91.393055 
L 233.712855 84.37115 
L 235.344285 80.250245 
L 236.975715 95.802242 
L 238.607145 105.020512 
L 240.238575 87.406347 
L 241.870005 80.200712 
L 243.501434 64.254977 
L 245.132864 85.36093 
L 246.764294 92.626239 
L 248.395724 76.229919 
L 250.027154 87.700623 
L 251.658584 81.369364 
L 253.290014 77.52179 
L 254.921444 78.536815 
L 256.552873 92.936256 
L 258.184303 97.644369 
L 259.815733 87.244765 
L 261.447163 103.454944 
L 263.078593 74.868068 
L 264.710023 93.032729 
L 266.341453 91.462917 
L 267.972883 98.804074 
L 269.604312 95.960894 
L 271.235742 80.410168 
L 272.867172 79.93576 
L 274.498602 82.760436 
L 276.130032 84.060602 
L 277.761462 87.190101 
L 279.392892 74.834399 
L 281.024322 94.378673 
L 282.655751 91.436104 
L 284.287181 89.636507 
L 285.918611 98.843239 
L 287.550041 80.025277 
L 289.181471 89.943825 
L 290.812901 84.311505 
L 292.444331 88.552168 
L 294.075761 97.358814 
L 295.70719 88.301505 
L 297.33862 91.503415 
L 298.97005 97.0876 
L 300.60148 78.883209 
L 302.23291 88.030468 
L 303.86434 87.179787 
L 305.49577 96.05528 
L 307.1272 94.087236 
L 308.75863 89.890232 
L 310.390059 95.479734 
L 312.021489 97.337445 
L 313.652919 94.27204 
L 315.284349 87.310377 
L 316.915779 73.396627 
L 318.547209 78.659792 
L 320.178639 86.883068 
L 321.810069 91.733007 
L 323.441498 82.946365 
L 325.072928 102.124492 
L 326.704358 101.644195 
L 328.335788 88.67893 
L 329.967218 94.599845 
L 331.598648 84.413093 
L 333.230078 98.733559 
L 334.861508 98.529004 
L 336.492937 82.39398 
L 338.124367 91.685977 
L 339.755797 88.43745 
L 341.387227 95.59939 
L 343.018657 66.628206 
L 344.650087 86.608492 
L 346.281517 84.09269 
L 347.912947 95.644921 
L 349.544376 98.631024 
L 351.175806 85.826346 
L 352.807236 93.227412 
L 354.438666 91.321087 
L 356.070096 77.366127 
L 357.701526 89.873491 
L 359.332956 97.27655 
L 360.964386 82.837798 
L 362.595815 83.084793 
L 364.227245 95.525002 
L 365.858675 79.348569 
L 367.490105 90.506118 
L 369.121535 82.801202 
L 370.752965 92.846669 
L 372.384395 79.471968 
L 374.015825 64.765435 
L 375.647254 92.838405 
L 377.278684 63.012261 
L 378.910114 87.03895 
L 380.541544 96.142128 
L 382.172974 85.405545 
L 383.804404 91.617245 
L 385.435834 88.753519 
L 387.067264 64.206111 
L 388.698693 103.269656 
L 390.330123 80.166951 
L 391.961553 100.364151 
L 393.592983 78.588202 
L 395.224413 92.584274 
L 396.855843 88.124777 
L 398.487273 67.49337 
L 398.487273 67.49337 
" clip-path="url(#pcc9183f511)" style="fill: none; stroke: #ff0000; stroke-width: 1.5; stroke-linecap: square"/>
   </g>
   <g id="patch_3">
    <path d="M 57.6 307.584 
L 57.6 41.472 
" style="fill: none; stroke: #000000; stroke-width: 0.8; stroke-linejoin: miter; stroke-linecap: square"/>
   </g>
   <g id="patch_4">
    <path d="M 414.72 307.584 
L 414.72 41.472 
" style="fill: none; stroke: #000000; stroke-width: 0.8; stroke-linejoin: miter; stroke-linecap: square"/>
   </g>
   <g id="patch_5">
    <path d="M 57.6 307.584 
L 414.72 307.584 
" style="fill: none; stroke: #000000; stroke-width: 0.8; stroke-linejoin: miter; stroke-linecap: square"/>
   </g>
   <g id="patch_6">
    <path d="M 57.6 41.472 
L 414.72 41.472 
" style="fill: none; stroke: #000000; stroke-width: 0.8; stroke-linejoin: miter; stroke-linecap: square"/>
   </g>
   <g id="text_13">
    <!-- Średnie i najlepsze przystosowanie w każdej generacji -->
    <g transform="translate(73.26 35.472) scale(0.12 -0.12)">
     <defs>
      <path id="DejaVuSans-15a" d="M 2236 5921 
L 2814 5921 
L 2102 5096 
L 1623 5096 
L 2236 5921 
z
M 3425 4513 
L 3425 3897 
Q 3066 4069 2747 4153 
Q 2428 4238 2131 4238 
Q 1616 4238 1336 4038 
Q 1056 3838 1056 3469 
Q 1056 3159 1242 3001 
Q 1428 2844 1947 2747 
L 2328 2669 
Q 3034 2534 3370 2195 
Q 3706 1856 3706 1288 
Q 3706 609 3251 259 
Q 2797 -91 1919 -91 
Q 1588 -91 1214 -16 
Q 841 59 441 206 
L 441 856 
Q 825 641 1194 531 
Q 1563 422 1919 422 
Q 2459 422 2753 634 
Q 3047 847 3047 1241 
Q 3047 1584 2836 1778 
Q 2625 1972 2144 2069 
L 1759 2144 
Q 1053 2284 737 2584 
Q 422 2884 422 3419 
Q 422 4038 858 4394 
Q 1294 4750 2059 4750 
Q 2388 4750 2728 4690 
Q 3069 4631 3425 4513 
z
" transform="scale(0.015625)"/>
      <path id="DejaVuSans-64" d="M 2906 2969 
L 2906 4863 
L 3481 4863 
L 3481 0 
L 2906 0 
L 2906 525 
Q 2725 213 2448 61 
Q 2172 -91 1784 -91 
Q 1150 -91 751 415 
Q 353 922 353 1747 
Q 353 2572 751 3078 
Q 1150 3584 1784 3584 
Q 2172 3584 2448 3432 
Q 2725 3281 2906 2969 
z
M 947 1747 
Q 947 1113 1208 752 
Q 1469 391 1925 391 
Q 2381 391 2643 752 
Q 2906 1113 2906 1747 
Q 2906 2381 2643 2742 
Q 2381 3103 1925 3103 
Q 1469 3103 1208 2742 
Q 947 2381 947 1747 
z
" transform="scale(0.015625)"/>
      <path id="DejaVuSans-20" transform="scale(0.015625)"/>
      <path id="DejaVuSans-6c" d="M 603 4863 
L 1178 4863 
L 1178 0 
L 603 0 
L 603 4863 
z
" transform="scale(0.015625)"/>
      <path id="DejaVuSans-70" d="M 1159 525 
L 1159 -1331 
L 581 -1331 
L 581 3500 
L 1159 3500 
L 1159 2969 
Q 1341 3281 1617 3432 
Q 1894 3584 2278 3584 
Q 2916 3584 3314 3078 
Q 3713 2572 3713 1747 
Q 3713 922 3314 415 
Q 2916 -91 2278 -91 
Q 1894 -91 1617 61 
Q 1341 213 1159 525 
z
M 3116 1747 
Q 3116 2381 2855 2742 
Q 2594 3103 2138 3103 
Q 1681 3103 1420 2742 
Q 1159 2381 1159 1747 
Q 1159 1113 1420 752 
Q 1681 391 2138 391 
Q 2594 391 2855 752 
Q 3116 1113 3116 1747 
z
" transform="scale(0.015625)"/>
      <path id="DejaVuSans-6b" d="M 581 4863 
L 1159 4863 
L 1159 1991 
L 2875 3500 
L 3609 3500 
L 1753 1863 
L 3688 0 
L 2938 0 
L 1159 1709 
L 1159 0 
L 581 0 
L 581 4863 
z
" transform="scale(0.015625)"/>
      <path id="DejaVuSans-17c" d="M 1378 4863 
L 1953 4863 
L 1953 4134 
L 1378 4134 
L 1378 4863 
z
M 1672 3584 
L 1672 3584 
z
M 353 3500 
L 3084 3500 
L 3084 2975 
L 922 459 
L 3084 459 
L 3084 0 
L 275 0 
L 275 525 
L 2438 3041 
L 353 3041 
L 353 3500 
z
" transform="scale(0.015625)"/>
      <path id="DejaVuSans-67" d="M 2906 1791 
Q 2906 2416 2648 2759 
Q 2391 3103 1925 3103 
Q 1463 3103 1205 2759 
Q 947 2416 947 1791 
Q 947 1169 1205 825 
Q 1463 481 1925 481 
Q 2391 481 2648 825 
Q 2906 1169 2906 1791 
z
M 3481 434 
Q 3481 -459 3084 -895 
Q 2688 -1331 1869 -1331 
Q 1566 -1331 1297 -1286 
Q 1028 -1241 775 -1147 
L 775 -588 
Q 1028 -725 1275 -790 
Q 1522 -856 1778 -856 
Q 2344 -856 2625 -561 
Q 2906 -266 2906 331 
L 2906 616 
Q 2728 306 2450 153 
Q 2172 0 1784 0 
Q 1141 0 747 490 
Q 353 981 353 1791 
Q 353 2603 747 3093 
Q 1141 3584 1784 3584 
Q 2172 3584 2450 3431 
Q 2728 3278 2906 2969 
L 2906 3500 
L 3481 3500 
L 3481 434 
z
" transform="scale(0.015625)"/>
     </defs>
     <use xlink:href="#DejaVuSans-15a"/>
     <use xlink:href="#DejaVuSans-72" transform="translate(63.476562 0)"/>
     <use xlink:href="#DejaVuSans-65" transform="translate(102.339844 0)"/>
     <use xlink:href="#DejaVuSans-64" transform="translate(163.863281 0)"/>
     <use xlink:href="#DejaVuSans-6e" transform="translate(227.339844 0)"/>
     <use xlink:href="#DejaVuSans-69" transform="translate(290.71875 0)"/>
     <use xlink:href="#DejaVuSans-65" transform="translate(318.501953 0)"/>
     <use xlink:href="#DejaVuSans-20" transform="translate(380.025391 0)"/>
     <use xlink:href="#DejaVuSans-69" transform="translate(411.8125 0)"/>
     <use xlink:href="#DejaVuSans-20" transform="translate(439.595703 0)"/>
     <use xlink:href="#DejaVuSans-6e" transform="translate(471.382812 0)"/>
     <use xlink:href="#DejaVuSans-61" transform="translate(534.761719 0)"/>
     <use xlink:href="#DejaVuSans-6a" transform="translate(596.041016 0)"/>
     <use xlink:href="#DejaVuSans-6c" transform="translate(623.824219 0)"/>
     <use xlink:href="#DejaVuSans-65" transform="translate(651.607422 0)"/>
     <use xlink:href="#DejaVuSans-70" transform="translate(713.130859 0)"/>
     <use xlink:href="#DejaVuSans-73" transform="translate(776.607422 0)"/>
     <use xlink:href="#DejaVuSans-7a" transform="translate(828.707031 0)"/>
     <use xlink:href="#DejaVuSans-65" transform="translate(881.197266 0)"/>
     <use xlink:href="#DejaVuSans-20" transform="translate(942.720703 0)"/>
     <use xlink:href="#DejaVuSans-70" transform="translate(974.507812 0)"/>
     <use xlink:href="#DejaVuSans-72" transform="translate(1037.984375 0)"/>
     <use xlink:href="#DejaVuSans-7a" transform="translate(1079.097656 0)"/>
     <use xlink:href="#DejaVuSans-79" transform="translate(1131.587891 0)"/>
     <use xlink:href="#DejaVuSans-73" transform="translate(1190.767578 0)"/>
     <use xlink:href="#DejaVuSans-74" transform="translate(1242.867188 0)"/>
     <use xlink:href="#DejaVuSans-6f" transform="translate(1282.076172 0)"/>
     <use xlink:href="#DejaVuSans-73" transform="translate(1343.257812 0)"/>
     <use xlink:href="#DejaVuSans-6f" transform="translate(1395.357422 0)"/>
     <use xlink:href="#DejaVuSans-77" transform="translate(1456.539062 0)"/>
     <use xlink:href="#DejaVuSans-61" transform="translate(1538.326172 0)"/>
     <use xlink:href="#DejaVuSans-6e" transform="translate(1599.605469 0)"/>
     <use xlink:href="#DejaVuSans-69" transform="translate(1662.984375 0)"/>
     <use xlink:href="#DejaVuSans-65" transform="translate(1690.767578 0)"/>
     <use xlink:href="#DejaVuSans-20" transform="translate(1752.291016 0)"/>
     <use xlink:href="#DejaVuSans-77" transform="translate(1784.078125 0)"/>
     <use xlink:href="#DejaVuSans-20" transform="translate(1865.865234 0)"/>
     <use xlink:href="#DejaVuSans-6b" transform="translate(1897.652344 0)"/>
     <use xlink:href="#DejaVuSans-61" transform="translate(1953.8125 0)"/>
     <use xlink:href="#DejaVuSans-17c" transform="translate(2015.091797 0)"/>
     <use xlink:href="#DejaVuSans-64" transform="translate(2067.582031 0)"/>
     <use xlink:href="#DejaVuSans-65" transform="translate(2131.058594 0)"/>
     <use xlink:href="#DejaVuSans-6a" transform="translate(2192.582031 0)"/>
     <use xlink:href="#DejaVuSans-20" transform="translate(2220.365234 0)"/>
     <use xlink:href="#DejaVuSans-67" transform="translate(2252.152344 0)"/>
     <use xlink:href="#DejaVuSans-65" transform="translate(2315.628906 0)"/>
     <use xlink:href="#DejaVuSans-6e" transform="translate(2377.152344 0)"/>
     <use xlink:href="#DejaVuSans-65" transform="translate(2440.53125 0)"/>
     <use xlink:href="#DejaVuSans-72" transform="translate(2502.054688 0)"/>
     <use xlink:href="#DejaVuSans-61" transform="translate(2543.167969 0)"/>
     <use xlink:href="#DejaVuSans-63" transform="translate(2604.447266 0)"/>
     <use xlink:href="#DejaVuSans-6a" transform="translate(2659.427734 0)"/>
     <use xlink:href="#DejaVuSans-69" transform="translate(2687.210938 0)"/>
    </g>
   </g>
   <g id="legend_1">
    <g id="patch_7">
     <path d="M 279.790313 302.584 
L 407.72 302.584 
Q 409.72 302.584 409.72 300.584 
L 409.72 257.549625 
Q 409.72 255.549625 407.72 255.549625 
L 279.790313 255.549625 
Q 277.790313 255.549625 277.790313 257.549625 
L 277.790313 300.584 
Q 277.790313 302.584 279.790313 302.584 
z
" style="fill: #ffffff; opacity: 0.8; stroke: #cccccc; stroke-linejoin: miter"/>
    </g>
    <g id="line2d_24">
     <path d="M 281.790313 263.648062 
L 291.790313 263.648062 
L 301.790313 263.648062 
" style="fill: none; stroke: #0000ff; stroke-width: 1.5; stroke-linecap: square"/>
    </g>
    <g id="text_14">
     <!-- Średnia -->
     <g transform="translate(309.790313 267.148062) scale(0.1 -0.1)">
      <use xlink:href="#DejaVuSans-15a"/>
      <use xlink:href="#DejaVuSans-72" transform="translate(63.476562 0)"/>
      <use xlink:href="#DejaVuSans-65" transform="translate(102.339844 0)"/>
      <use xlink:href="#DejaVuSans-64" transform="translate(163.863281 0)"/>
      <use xlink:href="#DejaVuSans-6e" transform="translate(227.339844 0)"/>
      <use xlink:href="#DejaVuSans-69" transform="translate(290.71875 0)"/>
      <use xlink:href="#DejaVuSans-61" transform="translate(318.501953 0)"/>
     </g>
    </g>
    <g id="line2d_25">
     <path d="M 281.790313 278.326188 
L 291.790313 278.326188 
L 301.790313 278.326188 
" style="fill: none; stroke-dasharray: 9.6,2.4,1.5,2.4; stroke-dashoffset: 0; stroke: #008000; stroke-width: 1.5"/>
    </g>
    <g id="text_15">
     <!-- ±1 Odchylenie std. -->
     <g transform="translate(309.790313 281.826188) scale(0.1 -0.1)">
      <defs>
       <path id="DejaVuSans-b1" d="M 2944 4013 
L 2944 2803 
L 4684 2803 
L 4684 2272 
L 2944 2272 
L 2944 1063 
L 2419 1063 
L 2419 2272 
L 678 2272 
L 678 2803 
L 2419 2803 
L 2419 4013 
L 2944 4013 
z
M 678 531 
L 4684 531 
L 4684 0 
L 678 0 
L 678 531 
z
" transform="scale(0.015625)"/>
       <path id="DejaVuSans-4f" d="M 2522 4238 
Q 1834 4238 1429 3725 
Q 1025 3213 1025 2328 
Q 1025 1447 1429 934 
Q 1834 422 2522 422 
Q 3209 422 3611 934 
Q 4013 1447 4013 2328 
Q 4013 3213 3611 3725 
Q 3209 4238 2522 4238 
z
M 2522 4750 
Q 3503 4750 4090 4092 
Q 4678 3434 4678 2328 
Q 4678 1225 4090 567 
Q 3503 -91 2522 -91 
Q 1538 -91 948 565 
Q 359 1222 359 2328 
Q 359 3434 948 4092 
Q 1538 4750 2522 4750 
z
" transform="scale(0.015625)"/>
       <path id="DejaVuSans-68" d="M 3513 2113 
L 3513 0 
L 2938 0 
L 2938 2094 
Q 2938 2591 2744 2837 
Q 2550 3084 2163 3084 
Q 1697 3084 1428 2787 
Q 1159 2491 1159 1978 
L 1159 0 
L 581 0 
L 581 4863 
L 1159 4863 
L 1159 2956 
Q 1366 3272 1645 3428 
Q 1925 3584 2291 3584 
Q 2894 3584 3203 3211 
Q 3513 2838 3513 2113 
z
" transform="scale(0.015625)"/>
       <path id="DejaVuSans-2e" d="M 684 794 
L 1344 794 
L 1344 0 
L 684 0 
L 684 794 
z
" transform="scale(0.015625)"/>
      </defs>
      <use xlink:href="#DejaVuSans-b1"/>
      <use xlink:href="#DejaVuSans-31" transform="translate(83.789062 0)"/>
      <use xlink:href="#DejaVuSans-20" transform="translate(147.412109 0)"/>
      <use xlink:href="#DejaVuSans-4f" transform="translate(179.199219 0)"/>
      <use xlink:href="#DejaVuSans-64" transform="translate(257.910156 0)"/>
      <use xlink:href="#DejaVuSans-63" transform="translate(321.386719 0)"/>
      <use xlink:href="#DejaVuSans-68" transform="translate(376.367188 0)"/>
      <use xlink:href="#DejaVuSans-79" transform="translate(439.746094 0)"/>
      <use xlink:href="#DejaVuSans-6c" transform="translate(498.925781 0)"/>
      <use xlink:href="#DejaVuSans-65" transform="translate(526.708984 0)"/>
      <use xlink:href="#DejaVuSans-6e" transform="translate(588.232422 0)"/>
      <use xlink:href="#DejaVuSans-69" transform="translate(651.611328 0)"/>
      <use xlink:href="#DejaVuSans-65" transform="translate(679.394531 0)"/>
      <use xlink:href="#DejaVuSans-20" transform="translate(740.917969 0)"/>
      <use xlink:href="#DejaVuSans-73" transform="translate(772.705078 0)"/>
      <use xlink:href="#DejaVuSans-74" transform="translate(824.804688 0)"/>
      <use xlink:href="#DejaVuSans-64" transform="translate(864.013672 0)"/>
      <use xlink:href="#DejaVuSans-2e" transform="translate(927.490234 0)"/>
     </g>
    </g>
    <g id="line2d_26">
     <path d="M 281.790313 293.004312 
L 291.790313 293.004312 
L 301.790313 293.004312 
" style="fill: none; stroke: #ff0000; stroke-width: 1.5; stroke-linecap: square"/>
    </g>
    <g id="text_16">
     <!-- Najlepsze -->
     <g transform="translate(309.790313 296.504312) scale(0.1 -0.1)">
      <defs>
       <path id="DejaVuSans-4e" d="M 628 4666 
L 1478 4666 
L 3547 763 
L 3547 4666 
L 4159 4666 
L 4159 0 
L 3309 0 
L 1241 3903 
L 1241 0 
L 628 0 
L 628 4666 
z
" transform="scale(0.015625)"/>
      </defs>
      <use xlink:href="#DejaVuSans-4e"/>
      <use xlink:href="#DejaVuSans-61" transform="translate(74.804688 0)"/>
      <use xlink:href="#DejaVuSans-6a" transform="translate(136.083984 0)"/>
      <use xlink:href="#DejaVuSans-6c" transform="translate(163.867188 0)"/>
      <use xlink:href="#DejaVuSans-65" transform="translate(191.650391 0)"/>
      <use xlink:href="#DejaVuSans-70" transform="translate(253.173828 0)"/>
      <use xlink:href="#DejaVuSans-73" transform="translate(316.650391 0)"/>
      <use xlink:href="#DejaVuSans-7a" transform="translate(368.75 0)"/>
      <use xlink:href="#DejaVuSans-65" transform="translate(421.240234 0)"/>
     </g>
    </g>
   </g>
  </g>
 </g>
 <defs>
  <clipPath id="pcc9183f511">
   <rect x="57.6" y="41.472" width="357.12" height="266.112"/>
  </clipPath>
 </defs>
</svg>
