<?xml version="1.0" encoding="utf-8" standalone="no"?>
<!DOCTYPE svg PUBLIC "-//W3C//DTD SVG 1.1//EN"
  "http://www.w3.org/Graphics/SVG/1.1/DTD/svg11.dtd">
<svg xmlns:xlink="http://www.w3.org/1999/xlink" width="460.8pt" height="345.6pt" viewBox="0 0 460.8 345.6" xmlns="http://www.w3.org/2000/svg" version="1.1">
 <metadata>
  <rdf:RDF xmlns:dc="http://purl.org/dc/elements/1.1/" xmlns:cc="http://creativecommons.org/ns#" xmlns:rdf="http://www.w3.org/1999/02/22-rdf-syntax-ns#">
   <cc:Work>
    <dc:type rdf:resource="http://purl.org/dc/dcmitype/StillImage"/>
    <dc:date>2026-04-27T02:57:40.495222</dc:date>
    <dc:format>image/svg+xml</dc:format>
    <dc:creator>
     <cc:Agent>
      <dc:title>Matplotlib v3.10.8, https://matplotlib.org/</dc:title>
     </cc:Agent>
    </dc:creator>
   </cc:Work>
  </rdf:RDF>
 </metadata>
 <defs>
  <style type="text/css">*{stroke-linejoin: round; stroke-linecap: butt}</style>
 </defs>
 <g id="figure_1">
  <g id="patch_1">
   <path d="M 0 345.6 
L 460.8 345.6 
L 460.8 0 
L 0 0 
z
" style="fill: #ffffff"/>
  </g>
  <g id="axes_1">
   <g id="patch_2">
    <path d="M 57.6 307.584 
L 414.72 307.584 
L 414.72 41.472 
L 57.6 41.472 
z
" style="fill: #ffffff"/>
   </g>
   <g id="matplotlib.axis_1">
    <g id="xtick_1">
     <g id="line2d_1">
      <path d="M 72.201297 307.584 
L 72.201297 41.472 
" clip-path="url(#pdf4d5fa8dd)" style="fill: none; stroke: #b0b0b0; stroke-width: 0.8; stroke-linecap: square"/>
     </g>
     <g id="line2d_2">
      <defs>
       <path id="m32cde2c3db" d="M 0 0 
L 0 3.5 
" style="stroke: #000000; stroke-width: 0.8"/>
      </defs>
      <g>
       <use xlink:href="#m32cde2c3db" x="72.201297" y="307.584" style="stroke: #000000; stroke-width: 0.8"/>
      </g>
     </g>
     <g id="text_1">
      <!-- 0 -->
      <g transform="translate(69.020047 322.182437) scale(0.1 -0.1)">
       <defs>
        <path id="DejaVuSans-30" d="M 2034 4250 
Q 1547 4250 1301 3770 
Q 1056 3291 1056 2328 
Q 1056 1369 1301 889 
Q 1547 409 2034 409 
Q 2525 409 2770 889 
Q 3016 1369 3016 2328 
Q 3016 3291 2770 3770 
Q 2525 4250 2034 4250 
z
M 2034 4750 
Q 2819 4750 3233 4129 
Q 3647 3509 3647 2328 
Q 3647 1150 3233 529 
Q 2819 -91 2034 -91 
Q 1250 -91 836 529 
Q 422 1150 422 2328 
Q 422 3509 836 4129 
Q 1250 4750 2034 4750 
z
" transform="scale(0.015625)"/>
       </defs>
       <use xlink:href="#DejaVuSans-30"/>
      </g>
     </g>
    </g>
    <g id="xtick_2">
     <g id="line2d_3">
      <path d="M 112.987044 307.584 
L 112.987044 41.472 
" clip-path="url(#pdf4d5fa8dd)" style="fill: none; stroke: #b0b0b0; stroke-width: 0.8; stroke-linecap: square"/>
     </g>
     <g id="line2d_4">
      <g>
       <use xlink:href="#m32cde2c3db" x="112.987044" y="307.584" style="stroke: #000000; stroke-width: 0.8"/>
      </g>
     </g>
     <g id="text_2">
      <!-- 25 -->
      <g transform="translate(106.624544 322.182437) scale(0.1 -0.1)">
       <defs>
        <path id="DejaVuSans-32" d="M 1228 531 
L 3431 531 
L 3431 0 
L 469 0 
L 469 531 
Q 828 903 1448 1529 
Q 2069 2156 2228 2338 
Q 2531 2678 2651 2914 
Q 2772 3150 2772 3378 
Q 2772 3750 2511 3984 
Q 2250 4219 1831 4219 
Q 1534 4219 1204 4116 
Q 875 4013 500 3803 
L 500 4441 
Q 881 4594 1212 4672 
Q 1544 4750 1819 4750 
Q 2544 4750 2975 4387 
Q 3406 4025 3406 3419 
Q 3406 3131 3298 2873 
Q 3191 2616 2906 2266 
Q 2828 2175 2409 1742 
Q 1991 1309 1228 531 
z
" transform="scale(0.015625)"/>
        <path id="DejaVuSans-35" d="M 691 4666 
L 3169 4666 
L 3169 4134 
L 1269 4134 
L 1269 2991 
Q 1406 3038 1543 3061 
Q 1681 3084 1819 3084 
Q 2600 3084 3056 2656 
Q 3513 2228 3513 1497 
Q 3513 744 3044 326 
Q 2575 -91 1722 -91 
Q 1428 -91 1123 -41 
Q 819 9 494 109 
L 494 744 
Q 775 591 1075 516 
Q 1375 441 1709 441 
Q 2250 441 2565 725 
Q 2881 1009 2881 1497 
Q 2881 1984 2565 2268 
Q 2250 2553 1709 2553 
Q 1456 2553 1204 2497 
Q 953 2441 691 2322 
L 691 4666 
z
" transform="scale(0.015625)"/>
       </defs>
       <use xlink:href="#DejaVuSans-32"/>
       <use xlink:href="#DejaVuSans-35" transform="translate(63.623047 0)"/>
      </g>
     </g>
    </g>
    <g id="xtick_3">
     <g id="line2d_5">
      <path d="M 153.772791 307.584 
L 153.772791 41.472 
" clip-path="url(#pdf4d5fa8dd)" style="fill: none; stroke: #b0b0b0; stroke-width: 0.8; stroke-linecap: square"/>
     </g>
     <g id="line2d_6">
      <g>
       <use xlink:href="#m32cde2c3db" x="153.772791" y="307.584" style="stroke: #000000; stroke-width: 0.8"/>
      </g>
     </g>
     <g id="text_3">
      <!-- 50 -->
      <g transform="translate(147.410291 322.182437) scale(0.1 -0.1)">
       <use xlink:href="#DejaVuSans-35"/>
       <use xlink:href="#DejaVuSans-30" transform="translate(63.623047 0)"/>
      </g>
     </g>
    </g>
    <g id="xtick_4">
     <g id="line2d_7">
      <path d="M 194.558538 307.584 
L 194.558538 41.472 
" clip-path="url(#pdf4d5fa8dd)" style="fill: none; stroke: #b0b0b0; stroke-width: 0.8; stroke-linecap: square"/>
     </g>
     <g id="line2d_8">
      <g>
       <use xlink:href="#m32cde2c3db" x="194.558538" y="307.584" style="stroke: #000000; stroke-width: 0.8"/>
      </g>
     </g>
     <g id="text_4">
      <!-- 75 -->
      <g transform="translate(188.196038 322.182437) scale(0.1 -0.1)">
       <defs>
        <path id="DejaVuSans-37" d="M 525 4666 
L 3525 4666 
L 3525 4397 
L 1831 0 
L 1172 0 
L 2766 4134 
L 525 4134 
L 525 4666 
z
" transform="scale(0.015625)"/>
       </defs>
       <use xlink:href="#DejaVuSans-37"/>
       <use xlink:href="#DejaVuSans-35" transform="translate(63.623047 0)"/>
      </g>
     </g>
    </g>
    <g id="xtick_5">
     <g id="line2d_9">
      <path d="M 235.344285 307.584 
L 235.344285 41.472 
" clip-path="url(#pdf4d5fa8dd)" style="fill: none; stroke: #b0b0b0; stroke-width: 0.8; stroke-linecap: square"/>
     </g>
     <g id="line2d_10">
      <g>
       <use xlink:href="#m32cde2c3db" x="235.344285" y="307.584" style="stroke: #000000; stroke-width: 0.8"/>
      </g>
     </g>
     <g id="text_5">
      <!-- 100 -->
      <g transform="translate(225.800535 322.182437) scale(0.1 -0.1)">
       <defs>
        <path id="DejaVuSans-31" d="M 794 531 
L 1825 531 
L 1825 4091 
L 703 3866 
L 703 4441 
L 1819 4666 
L 2450 4666 
L 2450 531 
L 3481 531 
L 3481 0 
L 794 0 
L 794 531 
z
" transform="scale(0.015625)"/>
       </defs>
       <use xlink:href="#DejaVuSans-31"/>
       <use xlink:href="#DejaVuSans-30" transform="translate(63.623047 0)"/>
       <use xlink:href="#DejaVuSans-30" transform="translate(127.246094 0)"/>
      </g>
     </g>
    </g>
    <g id="xtick_6">
     <g id="line2d_11">
      <path d="M 276.130032 307.584 
L 276.130032 41.472 
" clip-path="url(#pdf4d5fa8dd)" style="fill: none; stroke: #b0b0b0; stroke-width: 0.8; stroke-linecap: square"/>
     </g>
     <g id="line2d_12">
      <g>
       <use xlink:href="#m32cde2c3db" x="276.130032" y="307.584" style="stroke: #000000; stroke-width: 0.8"/>
      </g>
     </g>
     <g id="text_6">
      <!-- 125 -->
      <g transform="translate(266.586282 322.182437) scale(0.1 -0.1)">
       <use xlink:href="#DejaVuSans-31"/>
       <use xlink:href="#DejaVuSans-32" transform="translate(63.623047 0)"/>
       <use xlink:href="#DejaVuSans-35" transform="translate(127.246094 0)"/>
      </g>
     </g>
    </g>
    <g id="xtick_7">
     <g id="line2d_13">
      <path d="M 316.915779 307.584 
L 316.915779 41.472 
" clip-path="url(#pdf4d5fa8dd)" style="fill: none; stroke: #b0b0b0; stroke-width: 0.8; stroke-linecap: square"/>
     </g>
     <g id="line2d_14">
      <g>
       <use xlink:href="#m32cde2c3db" x="316.915779" y="307.584" style="stroke: #000000; stroke-width: 0.8"/>
      </g>
     </g>
     <g id="text_7">
      <!-- 150 -->
      <g transform="translate(307.372029 322.182437) scale(0.1 -0.1)">
       <use xlink:href="#DejaVuSans-31"/>
       <use xlink:href="#DejaVuSans-35" transform="translate(63.623047 0)"/>
       <use xlink:href="#DejaVuSans-30" transform="translate(127.246094 0)"/>
      </g>
     </g>
    </g>
    <g id="xtick_8">
     <g id="line2d_15">
      <path d="M 357.701526 307.584 
L 357.701526 41.472 
" clip-path="url(#pdf4d5fa8dd)" style="fill: none; stroke: #b0b0b0; stroke-width: 0.8; stroke-linecap: square"/>
     </g>
     <g id="line2d_16">
      <g>
       <use xlink:href="#m32cde2c3db" x="357.701526" y="307.584" style="stroke: #000000; stroke-width: 0.8"/>
      </g>
     </g>
     <g id="text_8">
      <!-- 175 -->
      <g transform="translate(348.157776 322.182437) scale(0.1 -0.1)">
       <use xlink:href="#DejaVuSans-31"/>
       <use xlink:href="#DejaVuSans-37" transform="translate(63.623047 0)"/>
       <use xlink:href="#DejaVuSans-35" transform="translate(127.246094 0)"/>
      </g>
     </g>
    </g>
    <g id="xtick_9">
     <g id="line2d_17">
      <path d="M 398.487273 307.584 
L 398.487273 41.472 
" clip-path="url(#pdf4d5fa8dd)" style="fill: none; stroke: #b0b0b0; stroke-width: 0.8; stroke-linecap: square"/>
     </g>
     <g id="line2d_18">
      <g>
       <use xlink:href="#m32cde2c3db" x="398.487273" y="307.584" style="stroke: #000000; stroke-width: 0.8"/>
      </g>
     </g>
     <g id="text_9">
      <!-- 200 -->
      <g transform="translate(388.943523 322.182437) scale(0.1 -0.1)">
       <use xlink:href="#DejaVuSans-32"/>
       <use xlink:href="#DejaVuSans-30" transform="translate(63.623047 0)"/>
       <use xlink:href="#DejaVuSans-30" transform="translate(127.246094 0)"/>
      </g>
     </g>
    </g>
    <g id="text_10">
     <!-- Generacje -->
     <g transform="translate(210.629531 335.860562) scale(0.1 -0.1)">
      <defs>
       <path id="DejaVuSans-47" d="M 3809 666 
L 3809 1919 
L 2778 1919 
L 2778 2438 
L 4434 2438 
L 4434 434 
Q 4069 175 3628 42 
Q 3188 -91 2688 -91 
Q 1594 -91 976 548 
Q 359 1188 359 2328 
Q 359 3472 976 4111 
Q 1594 4750 2688 4750 
Q 3144 4750 3555 4637 
Q 3966 4525 4313 4306 
L 4313 3634 
Q 3963 3931 3569 4081 
Q 3175 4231 2741 4231 
Q 1884 4231 1454 3753 
Q 1025 3275 1025 2328 
Q 1025 1384 1454 906 
Q 1884 428 2741 428 
Q 3075 428 3337 486 
Q 3600 544 3809 666 
z
" transform="scale(0.015625)"/>
       <path id="DejaVuSans-65" d="M 3597 1894 
L 3597 1613 
L 953 1613 
Q 991 1019 1311 708 
Q 1631 397 2203 397 
Q 2534 397 2845 478 
Q 3156 559 3463 722 
L 3463 178 
Q 3153 47 2828 -22 
Q 2503 -91 2169 -91 
Q 1331 -91 842 396 
Q 353 884 353 1716 
Q 353 2575 817 3079 
Q 1281 3584 2069 3584 
Q 2775 3584 3186 3129 
Q 3597 2675 3597 1894 
z
M 3022 2063 
Q 3016 2534 2758 2815 
Q 2500 3097 2075 3097 
Q 1594 3097 1305 2825 
Q 1016 2553 972 2059 
L 3022 2063 
z
" transform="scale(0.015625)"/>
       <path id="DejaVuSans-6e" d="M 3513 2113 
L 3513 0 
L 2938 0 
L 2938 2094 
Q 2938 2591 2744 2837 
Q 2550 3084 2163 3084 
Q 1697 3084 1428 2787 
Q 1159 2491 1159 1978 
L 1159 0 
L 581 0 
L 581 3500 
L 1159 3500 
L 1159 2956 
Q 1366 3272 1645 3428 
Q 1925 3584 2291 3584 
Q 2894 3584 3203 3211 
Q 3513 2838 3513 2113 
z
" transform="scale(0.015625)"/>
       <path id="DejaVuSans-72" d="M 2631 2963 
Q 2534 3019 2420 3045 
Q 2306 3072 2169 3072 
Q 1681 3072 1420 2755 
Q 1159 2438 1159 1844 
L 1159 0 
L 581 0 
L 581 3500 
L 1159 3500 
L 1159 2956 
Q 1341 3275 1631 3429 
Q 1922 3584 2338 3584 
Q 2397 3584 2469 3576 
Q 2541 3569 2628 3553 
L 2631 2963 
z
" transform="scale(0.015625)"/>
       <path id="DejaVuSans-61" d="M 2194 1759 
Q 1497 1759 1228 1600 
Q 959 1441 959 1056 
Q 959 750 1161 570 
Q 1363 391 1709 391 
Q 2188 391 2477 730 
Q 2766 1069 2766 1631 
L 2766 1759 
L 2194 1759 
z
M 3341 1997 
L 3341 0 
L 2766 0 
L 2766 531 
Q 2569 213 2275 61 
Q 1981 -91 1556 -91 
Q 1019 -91 701 211 
Q 384 513 384 1019 
Q 384 1609 779 1909 
Q 1175 2209 1959 2209 
L 2766 2209 
L 2766 2266 
Q 2766 2663 2505 2880 
Q 2244 3097 1772 3097 
Q 1472 3097 1187 3025 
Q 903 2953 641 2809 
L 641 3341 
Q 956 3463 1253 3523 
Q 1550 3584 1831 3584 
Q 2591 3584 2966 3190 
Q 3341 2797 3341 1997 
z
" transform="scale(0.015625)"/>
       <path id="DejaVuSans-63" d="M 3122 3366 
L 3122 2828 
Q 2878 2963 2633 3030 
Q 2388 3097 2138 3097 
Q 1578 3097 1268 2742 
Q 959 2388 959 1747 
Q 959 1106 1268 751 
Q 1578 397 2138 397 
Q 2388 397 2633 464 
Q 2878 531 3122 666 
L 3122 134 
Q 2881 22 2623 -34 
Q 2366 -91 2075 -91 
Q 1284 -91 818 406 
Q 353 903 353 1747 
Q 353 2603 823 3093 
Q 1294 3584 2113 3584 
Q 2378 3584 2631 3529 
Q 2884 3475 3122 3366 
z
" transform="scale(0.015625)"/>
       <path id="DejaVuSans-6a" d="M 603 3500 
L 1178 3500 
L 1178 -63 
Q 1178 -731 923 -1031 
Q 669 -1331 103 -1331 
L -116 -1331 
L -116 -844 
L 38 -844 
Q 366 -844 484 -692 
Q 603 -541 603 -63 
L 603 3500 
z
M 603 4863 
L 1178 4863 
L 1178 4134 
L 603 4134 
L 603 4863 
z
" transform="scale(0.015625)"/>
      </defs>
      <use xlink:href="#DejaVuSans-47"/>
      <use xlink:href="#DejaVuSans-65" transform="translate(77.490234 0)"/>
      <use xlink:href="#DejaVuSans-6e" transform="translate(139.013672 0)"/>
      <use xlink:href="#DejaVuSans-65" transform="translate(202.392578 0)"/>
      <use xlink:href="#DejaVuSans-72" transform="translate(263.916016 0)"/>
      <use xlink:href="#DejaVuSans-61" transform="translate(305.029297 0)"/>
      <use xlink:href="#DejaVuSans-63" transform="translate(366.308594 0)"/>
      <use xlink:href="#DejaVuSans-6a" transform="translate(421.289062 0)"/>
      <use xlink:href="#DejaVuSans-65" transform="translate(449.072266 0)"/>
     </g>
    </g>
   </g>
   <g id="matplotlib.axis_2">
    <g id="ytick_1">
     <g id="line2d_19">
      <path d="M 57.6 103.559868 
L 414.72 103.559868 
" clip-path="url(#pdf4d5fa8dd)" style="fill: none; stroke: #b0b0b0; stroke-width: 0.8; stroke-linecap: square"/>
     </g>
     <g id="line2d_20">
      <defs>
       <path id="mfef8134b72" d="M 0 0 
L -3.5 0 
" style="stroke: #000000; stroke-width: 0.8"/>
      </defs>
      <g>
       <use xlink:href="#mfef8134b72" x="57.6" y="103.559868" style="stroke: #000000; stroke-width: 0.8"/>
      </g>
     </g>
     <g id="text_11">
      <!-- $\mathdefault{10^{2}}$ -->
      <g transform="translate(33 107.359087) scale(0.1 -0.1)">
       <use xlink:href="#DejaVuSans-31" transform="translate(0 0.765625)"/>
       <use xlink:href="#DejaVuSans-30" transform="translate(63.623047 0.765625)"/>
       <use xlink:href="#DejaVuSans-32" transform="translate(128.203125 39.046875) scale(0.7)"/>
      </g>
     </g>
    </g>
    <g id="text_12">
     <!-- Przystosowanie -->
     <g transform="translate(26.920312 213.170187) rotate(-90) scale(0.1 -0.1)">
      <defs>
       <path id="DejaVuSans-50" d="M 1259 4147 
L 1259 2394 
L 2053 2394 
Q 2494 2394 2734 2622 
Q 2975 2850 2975 3272 
Q 2975 3691 2734 3919 
Q 2494 4147 2053 4147 
L 1259 4147 
z
M 628 4666 
L 2053 4666 
Q 2838 4666 3239 4311 
Q 3641 3956 3641 3272 
Q 3641 2581 3239 2228 
Q 2838 1875 2053 1875 
L 1259 1875 
L 1259 0 
L 628 0 
L 628 4666 
z
" transform="scale(0.015625)"/>
       <path id="DejaVuSans-7a" d="M 353 3500 
L 3084 3500 
L 3084 2975 
L 922 459 
L 3084 459 
L 3084 0 
L 275 0 
L 275 525 
L 2438 3041 
L 353 3041 
L 353 3500 
z
" transform="scale(0.015625)"/>
       <path id="DejaVuSans-79" d="M 2059 -325 
Q 1816 -950 1584 -1140 
Q 1353 -1331 966 -1331 
L 506 -1331 
L 506 -850 
L 844 -850 
Q 1081 -850 1212 -737 
Q 1344 -625 1503 -206 
L 1606 56 
L 191 3500 
L 800 3500 
L 1894 763 
L 2988 3500 
L 3597 3500 
L 2059 -325 
z
" transform="scale(0.015625)"/>
       <path id="DejaVuSans-73" d="M 2834 3397 
L 2834 2853 
Q 2591 2978 2328 3040 
Q 2066 3103 1784 3103 
Q 1356 3103 1142 2972 
Q 928 2841 928 2578 
Q 928 2378 1081 2264 
Q 1234 2150 1697 2047 
L 1894 2003 
Q 2506 1872 2764 1633 
Q 3022 1394 3022 966 
Q 3022 478 2636 193 
Q 2250 -91 1575 -91 
Q 1294 -91 989 -36 
Q 684 19 347 128 
L 347 722 
Q 666 556 975 473 
Q 1284 391 1588 391 
Q 1994 391 2212 530 
Q 2431 669 2431 922 
Q 2431 1156 2273 1281 
Q 2116 1406 1581 1522 
L 1381 1569 
Q 847 1681 609 1914 
Q 372 2147 372 2553 
Q 372 3047 722 3315 
Q 1072 3584 1716 3584 
Q 2034 3584 2315 3537 
Q 2597 3491 2834 3397 
z
" transform="scale(0.015625)"/>
       <path id="DejaVuSans-74" d="M 1172 4494 
L 1172 3500 
L 2356 3500 
L 2356 3053 
L 1172 3053 
L 1172 1153 
Q 1172 725 1289 603 
Q 1406 481 1766 481 
L 2356 481 
L 2356 0 
L 1766 0 
Q 1100 0 847 248 
Q 594 497 594 1153 
L 594 3053 
L 172 3053 
L 172 3500 
L 594 3500 
L 594 4494 
L 1172 4494 
z
" transform="scale(0.015625)"/>
       <path id="DejaVuSans-6f" d="M 1959 3097 
Q 1497 3097 1228 2736 
Q 959 2375 959 1747 
Q 959 1119 1226 758 
Q 1494 397 1959 397 
Q 2419 397 2687 759 
Q 2956 1122 2956 1747 
Q 2956 2369 2687 2733 
Q 2419 3097 1959 3097 
z
M 1959 3584 
Q 2709 3584 3137 3096 
Q 3566 2609 3566 1747 
Q 3566 888 3137 398 
Q 2709 -91 1959 -91 
Q 1206 -91 779 398 
Q 353 888 353 1747 
Q 353 2609 779 3096 
Q 1206 3584 1959 3584 
z
" transform="scale(0.015625)"/>
       <path id="DejaVuSans-77" d="M 269 3500 
L 844 3500 
L 1563 769 
L 2278 3500 
L 2956 3500 
L 3675 769 
L 4391 3500 
L 4966 3500 
L 4050 0 
L 3372 0 
L 2619 2869 
L 1863 0 
L 1184 0 
L 269 3500 
z
" transform="scale(0.015625)"/>
       <path id="DejaVuSans-69" d="M 603 3500 
L 1178 3500 
L 1178 0 
L 603 0 
L 603 3500 
z
M 603 4863 
L 1178 4863 
L 1178 4134 
L 603 4134 
L 603 4863 
z
" transform="scale(0.015625)"/>
      </defs>
      <use xlink:href="#DejaVuSans-50"/>
      <use xlink:href="#DejaVuSans-72" transform="translate(58.552734 0)"/>
      <use xlink:href="#DejaVuSans-7a" transform="translate(99.666016 0)"/>
      <use xlink:href="#DejaVuSans-79" transform="translate(152.15625 0)"/>
      <use xlink:href="#DejaVuSans-73" transform="translate(211.335938 0)"/>
      <use xlink:href="#DejaVuSans-74" transform="translate(263.435547 0)"/>
      <use xlink:href="#DejaVuSans-6f" transform="translate(302.644531 0)"/>
      <use xlink:href="#DejaVuSans-73" transform="translate(363.826172 0)"/>
      <use xlink:href="#DejaVuSans-6f" transform="translate(415.925781 0)"/>
      <use xlink:href="#DejaVuSans-77" transform="translate(477.107422 0)"/>
      <use xlink:href="#DejaVuSans-61" transform="translate(558.894531 0)"/>
      <use xlink:href="#DejaVuSans-6e" transform="translate(620.173828 0)"/>
      <use xlink:href="#DejaVuSans-69" transform="translate(683.552734 0)"/>
      <use xlink:href="#DejaVuSans-65" transform="translate(711.335938 0)"/>
     </g>
    </g>
   </g>
   <g id="line2d_21">
    <path d="M 73.832727 295.488 
L 75.464157 235.378466 
L 77.095587 180.214489 
L 78.727017 158.508308 
L 80.358447 151.996879 
L 81.989877 154.398476 
L 83.621307 140.400397 
L 85.252736 132.104873 
L 86.884166 132.388243 
L 88.515596 133.731603 
L 90.147026 136.550995 
L 91.778456 125.265336 
L 93.409886 136.051008 
L 95.041316 136.428237 
L 96.672746 138.554272 
L 99.935605 135.03133 
L 101.567035 133.576464 
L 103.198465 143.544931 
L 104.829895 133.359707 
L 106.461325 131.206198 
L 108.092755 127.83668 
L 109.724185 128.215946 
L 111.355614 133.36518 
L 112.987044 133.333876 
L 114.618474 128.83314 
L 116.249904 131.402936 
L 117.881334 131.35563 
L 121.144194 128.276303 
L 122.775624 133.769939 
L 124.407053 131.918361 
L 126.038483 129.028548 
L 127.669913 130.270054 
L 129.301343 128.644489 
L 130.932773 128.580571 
L 132.564203 130.47509 
L 134.195633 129.182776 
L 135.827063 129.857417 
L 137.458492 129.647213 
L 139.089922 129.004704 
L 140.721352 129.571816 
L 142.352782 128.019437 
L 143.984212 129.795387 
L 145.615642 129.630258 
L 147.247072 129.886146 
L 148.878502 129.172401 
L 150.509931 127.968324 
L 152.141361 128.202733 
L 153.772791 129.246078 
L 155.404221 128.308538 
L 157.035651 129.474318 
L 158.667081 128.895435 
L 160.298511 128.815875 
L 165.1928 126.798845 
L 166.82423 128.284122 
L 168.45566 128.816287 
L 170.08709 128.468826 
L 171.71852 128.297833 
L 173.34995 127.857631 
L 174.98138 128.837627 
L 176.61281 127.730697 
L 178.244239 129.275871 
L 179.875669 129.238331 
L 181.507099 127.519923 
L 183.138529 127.415944 
L 184.769959 127.600873 
L 186.401389 129.604864 
L 188.032819 128.310029 
L 191.295678 127.33826 
L 192.927108 128.280028 
L 194.558538 128.916048 
L 196.189968 129.127578 
L 197.821398 129.193856 
L 199.452828 128.820936 
L 201.084258 127.230786 
L 202.715688 127.587014 
L 204.347117 128.91718 
L 205.978547 126.368575 
L 207.609977 129.734807 
L 209.241407 127.414859 
L 210.872837 128.584931 
L 212.504267 127.011474 
L 214.135697 127.465342 
L 215.767127 126.161315 
L 217.398556 126.780665 
L 219.029986 127.788069 
L 222.292846 127.262415 
L 223.924276 127.32472 
L 225.555706 128.648069 
L 227.187136 127.38217 
L 228.818566 127.14172 
L 230.449995 126.335828 
L 232.081425 128.431335 
L 233.712855 125.546555 
L 235.344285 125.990039 
L 236.975715 126.681694 
L 238.607145 125.748063 
L 240.238575 127.395669 
L 241.870005 128.62072 
L 245.132864 126.685931 
L 246.764294 128.125816 
L 248.395724 128.45716 
L 250.027154 126.615882 
L 251.658584 127.509194 
L 253.290014 127.514376 
L 254.921444 129.893114 
L 256.552873 125.770309 
L 258.184303 127.795079 
L 259.815733 125.949447 
L 261.447163 125.722457 
L 263.078593 127.350698 
L 264.710023 128.051695 
L 266.341453 126.374166 
L 267.972883 127.642999 
L 269.604312 127.287524 
L 271.235742 127.392697 
L 274.498602 125.889337 
L 276.130032 126.06725 
L 277.761462 127.325091 
L 279.392892 127.027467 
L 281.024322 127.693689 
L 282.655751 128.567801 
L 284.287181 126.91052 
L 285.918611 126.003651 
L 287.550041 125.936956 
L 289.181471 128.389601 
L 290.812901 127.379403 
L 292.444331 127.097654 
L 294.075761 125.50808 
L 295.70719 126.860984 
L 297.33862 127.335631 
L 298.97005 126.747764 
L 300.60148 127.471123 
L 302.23291 126.566342 
L 303.86434 128.251656 
L 305.49577 126.440229 
L 307.1272 126.389369 
L 308.75863 126.594642 
L 310.390059 126.653052 
L 312.021489 126.027817 
L 313.652919 126.332904 
L 315.284349 126.903888 
L 316.915779 125.28044 
L 318.547209 127.090175 
L 320.178639 125.533497 
L 321.810069 125.516987 
L 323.441498 125.681954 
L 325.072928 128.37697 
L 326.704358 127.57827 
L 328.335788 127.33456 
L 329.967218 126.591126 
L 331.598648 127.852239 
L 333.230078 125.149819 
L 334.861508 127.57484 
L 336.492937 126.869924 
L 338.124367 126.753276 
L 339.755797 125.401361 
L 341.387227 125.679763 
L 343.018657 126.786763 
L 344.650087 126.452653 
L 346.281517 127.020546 
L 347.912947 126.651445 
L 349.544376 126.880961 
L 351.175806 126.850879 
L 352.807236 125.987817 
L 354.438666 125.48744 
L 356.070096 126.088528 
L 357.701526 128.161731 
L 359.332956 126.616102 
L 360.964386 127.390403 
L 362.595815 126.789265 
L 364.227245 126.446498 
L 365.858675 126.717913 
L 369.121535 128.23476 
L 370.752965 125.521306 
L 372.384395 126.441164 
L 374.015825 128.403041 
L 375.647254 129.464941 
L 377.278684 128.403205 
L 378.910114 124.645388 
L 380.541544 127.360284 
L 382.172974 126.54276 
L 383.804404 124.570104 
L 385.435834 126.913134 
L 387.067264 125.099636 
L 388.698693 126.684822 
L 390.330123 126.177057 
L 391.961553 125.363449 
L 393.592983 127.570099 
L 395.224413 126.85755 
L 396.855843 124.784701 
L 398.487273 125.907141 
L 398.487273 125.907141 
" clip-path="url(#pdf4d5fa8dd)" style="fill: none; stroke: #0000ff; stroke-width: 1.5; stroke-linecap: square"/>
   </g>
   <g id="line2d_22">
    <path d="M 73.832727 238.182401 
L 75.464157 180.066125 
L 77.095587 133.658898 
L 78.727017 120.058982 
L 80.358447 115.236274 
L 81.989877 113.107105 
L 83.621307 112.327846 
L 85.252736 109.491495 
L 86.884166 108.167694 
L 88.515596 109.756348 
L 90.147026 106.687471 
L 91.778456 110.14242 
L 93.409886 109.026715 
L 95.041316 106.953668 
L 96.672746 103.145562 
L 98.304175 108.92673 
L 99.935605 110.206946 
L 101.567035 106.964103 
L 103.198465 106.583244 
L 104.829895 113.058799 
L 106.461325 109.751947 
L 108.092755 112.565239 
L 109.724185 110.615793 
L 111.355614 110.185567 
L 112.987044 111.908187 
L 114.618474 111.631323 
L 117.881334 117.468912 
L 119.512764 112.338415 
L 121.144194 111.355093 
L 122.775624 112.415776 
L 124.407053 115.190335 
L 126.038483 115.108939 
L 127.669913 112.667511 
L 129.301343 115.509528 
L 130.932773 114.734754 
L 132.564203 116.469822 
L 134.195633 111.452745 
L 135.827063 116.818757 
L 137.458492 111.736854 
L 139.089922 115.97399 
L 140.721352 117.233245 
L 142.352782 112.233346 
L 143.984212 114.209934 
L 145.615642 113.107511 
L 147.247072 117.214504 
L 148.878502 114.695645 
L 150.509931 114.010412 
L 152.141361 113.094233 
L 153.772791 112.58891 
L 155.404221 112.506641 
L 157.035651 113.285714 
L 158.667081 114.480126 
L 160.298511 112.618211 
L 161.929941 114.141172 
L 163.56137 112.440698 
L 166.82423 112.655131 
L 168.45566 114.848139 
L 170.08709 113.944975 
L 173.34995 113.491355 
L 174.98138 112.18309 
L 176.61281 114.449183 
L 178.244239 112.258189 
L 179.875669 111.187698 
L 181.507099 112.612149 
L 183.138529 113.411044 
L 184.769959 112.285492 
L 186.401389 111.827239 
L 188.032819 112.67515 
L 189.664249 112.675152 
L 191.295678 112.168614 
L 192.927108 112.198958 
L 194.558538 109.33516 
L 196.189968 110.196296 
L 197.821398 110.363787 
L 199.452828 115.216516 
L 201.084258 111.910391 
L 202.715688 112.302407 
L 204.347117 112.98151 
L 205.978547 111.093016 
L 207.609977 110.063465 
L 209.241407 112.376581 
L 210.872837 111.214399 
L 212.504267 109.814199 
L 214.135697 112.684645 
L 215.767127 110.215236 
L 217.398556 111.646477 
L 219.029986 109.544334 
L 220.661416 111.344841 
L 222.292846 109.208664 
L 223.924276 113.912941 
L 225.555706 108.634064 
L 227.187136 108.937033 
L 228.818566 113.986813 
L 230.449995 109.537372 
L 232.081425 111.620735 
L 233.712855 111.338567 
L 235.344285 112.530113 
L 236.975715 111.424724 
L 238.607145 112.829213 
L 240.238575 114.786607 
L 241.870005 111.635432 
L 243.501434 110.655919 
L 245.132864 110.563408 
L 246.764294 112.827543 
L 248.395724 112.947161 
L 250.027154 111.296753 
L 251.658584 112.497548 
L 253.290014 110.708494 
L 254.921444 116.413104 
L 256.552873 111.591508 
L 258.184303 113.539644 
L 259.815733 110.715542 
L 261.447163 112.532923 
L 263.078593 113.655503 
L 264.710023 111.873178 
L 266.341453 112.232266 
L 267.972883 113.615449 
L 269.604312 112.389948 
L 271.235742 110.859785 
L 272.867172 111.502308 
L 274.498602 111.139734 
L 276.130032 111.707428 
L 277.761462 109.712701 
L 279.392892 114.366925 
L 281.024322 112.356017 
L 282.655751 115.752005 
L 284.287181 112.673323 
L 287.550041 113.000386 
L 289.181471 113.963444 
L 290.812901 113.438508 
L 292.444331 111.812159 
L 294.075761 110.728465 
L 295.70719 111.746531 
L 297.33862 111.632378 
L 298.97005 111.100967 
L 300.60148 109.077912 
L 302.23291 109.878756 
L 303.86434 108.795455 
L 305.49577 112.80512 
L 307.1272 109.416606 
L 308.75863 112.051571 
L 310.390059 113.484486 
L 312.021489 111.029837 
L 313.652919 111.769642 
L 315.284349 113.199533 
L 316.915779 110.30497 
L 318.547209 112.076487 
L 320.178639 108.716565 
L 321.810069 111.215831 
L 323.441498 110.160306 
L 325.072928 113.48019 
L 326.704358 112.248187 
L 328.335788 109.244875 
L 329.967218 112.122799 
L 333.230078 110.209699 
L 334.861508 112.573381 
L 336.492937 113.448487 
L 338.124367 111.739085 
L 339.755797 111.587504 
L 341.387227 110.626911 
L 343.018657 109.440039 
L 344.650087 109.642356 
L 346.281517 112.320899 
L 347.912947 112.22549 
L 349.544376 110.56838 
L 351.175806 112.749806 
L 352.807236 109.870951 
L 354.438666 110.12609 
L 356.070096 109.467743 
L 357.701526 113.667931 
L 359.332956 110.54835 
L 360.964386 113.326597 
L 362.595815 112.646578 
L 364.227245 110.974558 
L 365.858675 110.541868 
L 367.490105 111.955814 
L 369.121535 113.204739 
L 370.752965 110.766729 
L 372.384395 110.790006 
L 374.015825 112.455 
L 375.647254 113.42053 
L 377.278684 109.561904 
L 378.910114 109.424331 
L 380.541544 113.194877 
L 382.172974 108.851065 
L 383.804404 107.980671 
L 385.435834 111.116754 
L 387.067264 108.049755 
L 388.698693 112.022645 
L 390.330123 110.556851 
L 391.961553 110.176676 
L 393.592983 111.76368 
L 395.224413 112.228811 
L 396.855843 108.421214 
L 398.487273 108.886647 
L 398.487273 108.886647 
" clip-path="url(#pdf4d5fa8dd)" style="fill: none; stroke-dasharray: 9.6,2.4,1.5,2.4; stroke-dashoffset: 0; stroke: #008000; stroke-width: 1.5"/>
   </g>
   <g id="line2d_23">
    <path d="M 73.832727 130.512956 
L 75.464157 102.150308 
L 77.095587 100.403907 
L 78.727017 92.162398 
L 80.358447 94.075251 
L 81.989877 88.680085 
L 83.621307 85.513073 
L 85.252736 85.645461 
L 86.884166 91.760916 
L 88.515596 87.049569 
L 90.147026 87.143425 
L 91.778456 80.727157 
L 93.409886 83.816551 
L 95.041316 88.807705 
L 96.672746 87.027039 
L 98.304175 63.214855 
L 99.935605 90.317338 
L 101.567035 87.198143 
L 103.198465 76.617538 
L 104.829895 85.603828 
L 106.461325 80.776591 
L 108.092755 83.705727 
L 109.724185 88.905741 
L 111.355614 84.309332 
L 112.987044 90.168169 
L 114.618474 84.222442 
L 116.249904 83.774493 
L 117.881334 96.859327 
L 119.512764 80.632318 
L 121.144194 77.864157 
L 122.775624 73.357587 
L 124.407053 91.717061 
L 126.038483 77.859548 
L 127.669913 80.747198 
L 129.301343 90.220614 
L 130.932773 83.811628 
L 132.564203 85.737632 
L 134.195633 76.479238 
L 135.827063 97.170245 
L 137.458492 83.680184 
L 139.089922 82.160441 
L 140.721352 91.623455 
L 142.352782 79.483432 
L 143.984212 86.914762 
L 145.615642 96.740543 
L 147.247072 87.333375 
L 148.878502 90.44127 
L 150.509931 85.534261 
L 152.141361 85.380334 
L 153.772791 91.921995 
L 155.404221 82.484296 
L 157.035651 83.775531 
L 158.667081 66.995261 
L 160.298511 83.896473 
L 161.929941 80.391015 
L 163.56137 78.774129 
L 165.1928 67.484512 
L 166.82423 83.077326 
L 168.45566 85.570739 
L 170.08709 68.857445 
L 171.71852 89.082348 
L 173.34995 77.954226 
L 174.98138 88.352784 
L 176.61281 79.706457 
L 178.244239 87.13224 
L 179.875669 88.433993 
L 181.507099 82.215968 
L 183.138529 95.132818 
L 184.769959 76.082763 
L 186.401389 85.481875 
L 188.032819 80.866183 
L 189.664249 84.124633 
L 191.295678 75.026872 
L 192.927108 80.998606 
L 194.558538 77.701812 
L 196.189968 79.673836 
L 197.821398 89.036783 
L 199.452828 85.78469 
L 201.084258 75.363305 
L 202.715688 76.364136 
L 204.347117 90.398244 
L 205.978547 76.052576 
L 207.609977 80.009427 
L 209.241407 65.958655 
L 210.872837 74.638521 
L 212.504267 64.285178 
L 214.135697 72.985327 
L 215.767127 62.047511 
L 217.398556 70.235624 
L 219.029986 84.006848 
L 220.661416 83.686121 
L 222.292846 76.294175 
L 223.924276 73.035175 
L 225.555706 67.502393 
L 227.187136 86.999706 
L 228.818566 84.198936 
L 230.449995 79.501181 
L 232.081425 84.076095 
L 233.712855 78.114877 
L 235.344285 76.339186 
L 236.975715 83.706732 
L 238.607145 84.252651 
L 240.238575 93.901973 
L 241.870005 73.042228 
L 243.501434 80.738592 
L 245.132864 77.45622 
L 246.764294 88.693325 
L 248.395724 87.08512 
L 251.658584 80.725526 
L 253.290014 56.122391 
L 254.921444 80.699654 
L 256.552873 82.516432 
L 258.184303 85.558636 
L 259.815733 72.075038 
L 261.447163 73.100101 
L 263.078593 76.565248 
L 264.710023 84.216599 
L 266.341453 76.294711 
L 267.972883 86.7519 
L 269.604312 66.247908 
L 271.235742 70.489777 
L 272.867172 63.06564 
L 274.498602 80.877764 
L 276.130032 69.858073 
L 277.761462 88.397376 
L 279.392892 80.78355 
L 281.024322 84.203087 
L 282.655751 85.785145 
L 284.287181 73.130346 
L 285.918611 71.961342 
L 287.550041 83.965337 
L 289.181471 89.009921 
L 290.812901 72.015746 
L 292.444331 68.575455 
L 294.075761 79.707614 
L 295.70719 82.464063 
L 297.33862 64.542958 
L 298.97005 74.87535 
L 300.60148 61.471632 
L 302.23291 83.889635 
L 303.86434 77.48258 
L 305.49577 73.134614 
L 307.1272 80.930009 
L 308.75863 63.504797 
L 310.390059 74.966371 
L 312.021489 78.326391 
L 313.652919 70.446271 
L 315.284349 82.321666 
L 316.915779 70.373701 
L 318.547209 76.227062 
L 320.178639 80.587034 
L 321.810069 83.953169 
L 323.441498 68.39891 
L 325.072928 83.894637 
L 326.704358 74.874277 
L 328.335788 60.307514 
L 329.967218 82.040582 
L 331.598648 61.675774 
L 333.230078 68.73449 
L 334.861508 57.796376 
L 336.492937 88.795297 
L 338.124367 71.938674 
L 339.755797 84.039891 
L 341.387227 70.594714 
L 343.018657 74.604784 
L 344.650087 84.264993 
L 346.281517 64.614158 
L 347.912947 63.493276 
L 349.544376 72.029445 
L 351.175806 85.632566 
L 352.807236 64.359725 
L 354.438666 61.956884 
L 356.070096 71.617059 
L 357.701526 79.288277 
L 359.332956 58.977916 
L 360.964386 85.588456 
L 362.595815 76.059036 
L 364.227245 74.72764 
L 365.858675 82.432254 
L 367.490105 67.210559 
L 369.121535 88.642286 
L 372.384395 64.016853 
L 374.015825 73.129345 
L 375.647254 64.659469 
L 377.278684 76.318318 
L 378.910114 63.099954 
L 380.541544 67.327956 
L 382.172974 73.248681 
L 383.804404 56.175664 
L 385.435834 53.706801 
L 387.067264 64.567219 
L 388.698693 68.744478 
L 390.330123 53.568 
L 391.961553 76.233534 
L 393.592983 79.361582 
L 395.224413 64.747978 
L 396.855843 68.80324 
L 398.487273 53.779144 
L 398.487273 53.779144 
" clip-path="url(#pdf4d5fa8dd)" style="fill: none; stroke: #ff0000; stroke-width: 1.5; stroke-linecap: square"/>
   </g>
   <g id="patch_3">
    <path d="M 57.6 307.584 
L 57.6 41.472 
" style="fill: none; stroke: #000000; stroke-width: 0.8; stroke-linejoin: miter; stroke-linecap: square"/>
   </g>
   <g id="patch_4">
    <path d="M 414.72 307.584 
L 414.72 41.472 
" style="fill: none; stroke: #000000; stroke-width: 0.8; stroke-linejoin: miter; stroke-linecap: square"/>
   </g>
   <g id="patch_5">
    <path d="M 57.6 307.584 
L 414.72 307.584 
" style="fill: none; stroke: #000000; stroke-width: 0.8; stroke-linejoin: miter; stroke-linecap: square"/>
   </g>
   <g id="patch_6">
    <path d="M 57.6 41.472 
L 414.72 41.472 
" style="fill: none; stroke: #000000; stroke-width: 0.8; stroke-linejoin: miter; stroke-linecap: square"/>
   </g>
   <g id="text_13">
    <!-- Średnie i najlepsze przystosowanie w każdej generacji -->
    <g transform="translate(73.26 35.472) scale(0.12 -0.12)">
     <defs>
      <path id="DejaVuSans-15a" d="M 2236 5921 
L 2814 5921 
L 2102 5096 
L 1623 5096 
L 2236 5921 
z
M 3425 4513 
L 3425 3897 
Q 3066 4069 2747 4153 
Q 2428 4238 2131 4238 
Q 1616 4238 1336 4038 
Q 1056 3838 1056 3469 
Q 1056 3159 1242 3001 
Q 1428 2844 1947 2747 
L 2328 2669 
Q 3034 2534 3370 2195 
Q 3706 1856 3706 1288 
Q 3706 609 3251 259 
Q 2797 -91 1919 -91 
Q 1588 -91 1214 -16 
Q 841 59 441 206 
L 441 856 
Q 825 641 1194 531 
Q 1563 422 1919 422 
Q 2459 422 2753 634 
Q 3047 847 3047 1241 
Q 3047 1584 2836 1778 
Q 2625 1972 2144 2069 
L 1759 2144 
Q 1053 2284 737 2584 
Q 422 2884 422 3419 
Q 422 4038 858 4394 
Q 1294 4750 2059 4750 
Q 2388 4750 2728 4690 
Q 3069 4631 3425 4513 
z
" transform="scale(0.015625)"/>
      <path id="DejaVuSans-64" d="M 2906 2969 
L 2906 4863 
L 3481 4863 
L 3481 0 
L 2906 0 
L 2906 525 
Q 2725 213 2448 61 
Q 2172 -91 1784 -91 
Q 1150 -91 751 415 
Q 353 922 353 1747 
Q 353 2572 751 3078 
Q 1150 3584 1784 3584 
Q 2172 3584 2448 3432 
Q 2725 3281 2906 2969 
z
M 947 1747 
Q 947 1113 1208 752 
Q 1469 391 1925 391 
Q 2381 391 2643 752 
Q 2906 1113 2906 1747 
Q 2906 2381 2643 2742 
Q 2381 3103 1925 3103 
Q 1469 3103 1208 2742 
Q 947 2381 947 1747 
z
" transform="scale(0.015625)"/>
      <path id="DejaVuSans-20" transform="scale(0.015625)"/>
      <path id="DejaVuSans-6c" d="M 603 4863 
L 1178 4863 
L 1178 0 
L 603 0 
L 603 4863 
z
" transform="scale(0.015625)"/>
      <path id="DejaVuSans-70" d="M 1159 525 
L 1159 -1331 
L 581 -1331 
L 581 3500 
L 1159 3500 
L 1159 2969 
Q 1341 3281 1617 3432 
Q 1894 3584 2278 3584 
Q 2916 3584 3314 3078 
Q 3713 2572 3713 1747 
Q 3713 922 3314 415 
Q 2916 -91 2278 -91 
Q 1894 -91 1617 61 
Q 1341 213 1159 525 
z
M 3116 1747 
Q 3116 2381 2855 2742 
Q 2594 3103 2138 3103 
Q 1681 3103 1420 2742 
Q 1159 2381 1159 1747 
Q 1159 1113 1420 752 
Q 1681 391 2138 391 
Q 2594 391 2855 752 
Q 3116 1113 3116 1747 
z
" transform="scale(0.015625)"/>
      <path id="DejaVuSans-6b" d="M 581 4863 
L 1159 4863 
L 1159 1991 
L 2875 3500 
L 3609 3500 
L 1753 1863 
L 3688 0 
L 2938 0 
L 1159 1709 
L 1159 0 
L 581 0 
L 581 4863 
z
" transform="scale(0.015625)"/>
      <path id="DejaVuSans-17c" d="M 1378 4863 
L 1953 4863 
L 1953 4134 
L 1378 4134 
L 1378 4863 
z
M 1672 3584 
L 1672 3584 
z
M 353 3500 
L 3084 3500 
L 3084 2975 
L 922 459 
L 3084 459 
L 3084 0 
L 275 0 
L 275 525 
L 2438 3041 
L 353 3041 
L 353 3500 
z
" transform="scale(0.015625)"/>
      <path id="DejaVuSans-67" d="M 2906 1791 
Q 2906 2416 2648 2759 
Q 2391 3103 1925 3103 
Q 1463 3103 1205 2759 
Q 947 2416 947 1791 
Q 947 1169 1205 825 
Q 1463 481 1925 481 
Q 2391 481 2648 825 
Q 2906 1169 2906 1791 
z
M 3481 434 
Q 3481 -459 3084 -895 
Q 2688 -1331 1869 -1331 
Q 1566 -1331 1297 -1286 
Q 1028 -1241 775 -1147 
L 775 -588 
Q 1028 -725 1275 -790 
Q 1522 -856 1778 -856 
Q 2344 -856 2625 -561 
Q 2906 -266 2906 331 
L 2906 616 
Q 2728 306 2450 153 
Q 2172 0 1784 0 
Q 1141 0 747 490 
Q 353 981 353 1791 
Q 353 2603 747 3093 
Q 1141 3584 1784 3584 
Q 2172 3584 2450 3431 
Q 2728 3278 2906 2969 
L 2906 3500 
L 3481 3500 
L 3481 434 
z
" transform="scale(0.015625)"/>
     </defs>
     <use xlink:href="#DejaVuSans-15a"/>
     <use xlink:href="#DejaVuSans-72" transform="translate(63.476562 0)"/>
     <use xlink:href="#DejaVuSans-65" transform="translate(102.339844 0)"/>
     <use xlink:href="#DejaVuSans-64" transform="translate(163.863281 0)"/>
     <use xlink:href="#DejaVuSans-6e" transform="translate(227.339844 0)"/>
     <use xlink:href="#DejaVuSans-69" transform="translate(290.71875 0)"/>
     <use xlink:href="#DejaVuSans-65" transform="translate(318.501953 0)"/>
     <use xlink:href="#DejaVuSans-20" transform="translate(380.025391 0)"/>
     <use xlink:href="#DejaVuSans-69" transform="translate(411.8125 0)"/>
     <use xlink:href="#DejaVuSans-20" transform="translate(439.595703 0)"/>
     <use xlink:href="#DejaVuSans-6e" transform="translate(471.382812 0)"/>
     <use xlink:href="#DejaVuSans-61" transform="translate(534.761719 0)"/>
     <use xlink:href="#DejaVuSans-6a" transform="translate(596.041016 0)"/>
     <use xlink:href="#DejaVuSans-6c" transform="translate(623.824219 0)"/>
     <use xlink:href="#DejaVuSans-65" transform="translate(651.607422 0)"/>
     <use xlink:href="#DejaVuSans-70" transform="translate(713.130859 0)"/>
     <use xlink:href="#DejaVuSans-73" transform="translate(776.607422 0)"/>
     <use xlink:href="#DejaVuSans-7a" transform="translate(828.707031 0)"/>
     <use xlink:href="#DejaVuSans-65" transform="translate(881.197266 0)"/>
     <use xlink:href="#DejaVuSans-20" transform="translate(942.720703 0)"/>
     <use xlink:href="#DejaVuSans-70" transform="translate(974.507812 0)"/>
     <use xlink:href="#DejaVuSans-72" transform="translate(1037.984375 0)"/>
     <use xlink:href="#DejaVuSans-7a" transform="translate(1079.097656 0)"/>
     <use xlink:href="#DejaVuSans-79" transform="translate(1131.587891 0)"/>
     <use xlink:href="#DejaVuSans-73" transform="translate(1190.767578 0)"/>
     <use xlink:href="#DejaVuSans-74" transform="translate(1242.867188 0)"/>
     <use xlink:href="#DejaVuSans-6f" transform="translate(1282.076172 0)"/>
     <use xlink:href="#DejaVuSans-73" transform="translate(1343.257812 0)"/>
     <use xlink:href="#DejaVuSans-6f" transform="translate(1395.357422 0)"/>
     <use xlink:href="#DejaVuSans-77" transform="translate(1456.539062 0)"/>
     <use xlink:href="#DejaVuSans-61" transform="translate(1538.326172 0)"/>
     <use xlink:href="#DejaVuSans-6e" transform="translate(1599.605469 0)"/>
     <use xlink:href="#DejaVuSans-69" transform="translate(1662.984375 0)"/>
     <use xlink:href="#DejaVuSans-65" transform="translate(1690.767578 0)"/>
     <use xlink:href="#DejaVuSans-20" transform="translate(1752.291016 0)"/>
     <use xlink:href="#DejaVuSans-77" transform="translate(1784.078125 0)"/>
     <use xlink:href="#DejaVuSans-20" transform="translate(1865.865234 0)"/>
     <use xlink:href="#DejaVuSans-6b" transform="translate(1897.652344 0)"/>
     <use xlink:href="#DejaVuSans-61" transform="translate(1953.8125 0)"/>
     <use xlink:href="#DejaVuSans-17c" transform="translate(2015.091797 0)"/>
     <use xlink:href="#DejaVuSans-64" transform="translate(2067.582031 0)"/>
     <use xlink:href="#DejaVuSans-65" transform="translate(2131.058594 0)"/>
     <use xlink:href="#DejaVuSans-6a" transform="translate(2192.582031 0)"/>
     <use xlink:href="#DejaVuSans-20" transform="translate(2220.365234 0)"/>
     <use xlink:href="#DejaVuSans-67" transform="translate(2252.152344 0)"/>
     <use xlink:href="#DejaVuSans-65" transform="translate(2315.628906 0)"/>
     <use xlink:href="#DejaVuSans-6e" transform="translate(2377.152344 0)"/>
     <use xlink:href="#DejaVuSans-65" transform="translate(2440.53125 0)"/>
     <use xlink:href="#DejaVuSans-72" transform="translate(2502.054688 0)"/>
     <use xlink:href="#DejaVuSans-61" transform="translate(2543.167969 0)"/>
     <use xlink:href="#DejaVuSans-63" transform="translate(2604.447266 0)"/>
     <use xlink:href="#DejaVuSans-6a" transform="translate(2659.427734 0)"/>
     <use xlink:href="#DejaVuSans-69" transform="translate(2687.210938 0)"/>
    </g>
   </g>
   <g id="legend_1">
    <g id="patch_7">
     <path d="M 279.790313 302.584 
L 407.72 302.584 
Q 409.72 302.584 409.72 300.584 
L 409.72 257.549625 
Q 409.72 255.549625 407.72 255.549625 
L 279.790313 255.549625 
Q 277.790313 255.549625 277.790313 257.549625 
L 277.790313 300.584 
Q 277.790313 302.584 279.790313 302.584 
z
" style="fill: #ffffff; opacity: 0.8; stroke: #cccccc; stroke-linejoin: miter"/>
    </g>
    <g id="line2d_24">
     <path d="M 281.790313 263.648062 
L 291.790313 263.648062 
L 301.790313 263.648062 
" style="fill: none; stroke: #0000ff; stroke-width: 1.5; stroke-linecap: square"/>
    </g>
    <g id="text_14">
     <!-- Średnia -->
     <g transform="translate(309.790313 267.148062) scale(0.1 -0.1)">
      <use xlink:href="#DejaVuSans-15a"/>
      <use xlink:href="#DejaVuSans-72" transform="translate(63.476562 0)"/>
      <use xlink:href="#DejaVuSans-65" transform="translate(102.339844 0)"/>
      <use xlink:href="#DejaVuSans-64" transform="translate(163.863281 0)"/>
      <use xlink:href="#DejaVuSans-6e" transform="translate(227.339844 0)"/>
      <use xlink:href="#DejaVuSans-69" transform="translate(290.71875 0)"/>
      <use xlink:href="#DejaVuSans-61" transform="translate(318.501953 0)"/>
     </g>
    </g>
    <g id="line2d_25">
     <path d="M 281.790313 278.326188 
L 291.790313 278.326188 
L 301.790313 278.326188 
" style="fill: none; stroke-dasharray: 9.6,2.4,1.5,2.4; stroke-dashoffset: 0; stroke: #008000; stroke-width: 1.5"/>
    </g>
    <g id="text_15">
     <!-- ±1 Odchylenie std. -->
     <g transform="translate(309.790313 281.826188) scale(0.1 -0.1)">
      <defs>
       <path id="DejaVuSans-b1" d="M 2944 4013 
L 2944 2803 
L 4684 2803 
L 4684 2272 
L 2944 2272 
L 2944 1063 
L 2419 1063 
L 2419 2272 
L 678 2272 
L 678 2803 
L 2419 2803 
L 2419 4013 
L 2944 4013 
z
M 678 531 
L 4684 531 
L 4684 0 
L 678 0 
L 678 531 
z
" transform="scale(0.015625)"/>
       <path id="DejaVuSans-4f" d="M 2522 4238 
Q 1834 4238 1429 3725 
Q 1025 3213 1025 2328 
Q 1025 1447 1429 934 
Q 1834 422 2522 422 
Q 3209 422 3611 934 
Q 4013 1447 4013 2328 
Q 4013 3213 3611 3725 
Q 3209 4238 2522 4238 
z
M 2522 4750 
Q 3503 4750 4090 4092 
Q 4678 3434 4678 2328 
Q 4678 1225 4090 567 
Q 3503 -91 2522 -91 
Q 1538 -91 948 565 
Q 359 1222 359 2328 
Q 359 3434 948 4092 
Q 1538 4750 2522 4750 
z
" transform="scale(0.015625)"/>
       <path id="DejaVuSans-68" d="M 3513 2113 
L 3513 0 
L 2938 0 
L 2938 2094 
Q 2938 2591 2744 2837 
Q 2550 3084 2163 3084 
Q 1697 3084 1428 2787 
Q 1159 2491 1159 1978 
L 1159 0 
L 581 0 
L 581 4863 
L 1159 4863 
L 1159 2956 
Q 1366 3272 1645 3428 
Q 1925 3584 2291 3584 
Q 2894 3584 3203 3211 
Q 3513 2838 3513 2113 
z
" transform="scale(0.015625)"/>
       <path id="DejaVuSans-2e" d="M 684 794 
L 1344 794 
L 1344 0 
L 684 0 
L 684 794 
z
" transform="scale(0.015625)"/>
      </defs>
      <use xlink:href="#DejaVuSans-b1"/>
      <use xlink:href="#DejaVuSans-31" transform="translate(83.789062 0)"/>
      <use xlink:href="#DejaVuSans-20" transform="translate(147.412109 0)"/>
      <use xlink:href="#DejaVuSans-4f" transform="translate(179.199219 0)"/>
      <use xlink:href="#DejaVuSans-64" transform="translate(257.910156 0)"/>
      <use xlink:href="#DejaVuSans-63" transform="translate(321.386719 0)"/>
      <use xlink:href="#DejaVuSans-68" transform="translate(376.367188 0)"/>
      <use xlink:href="#DejaVuSans-79" transform="translate(439.746094 0)"/>
      <use xlink:href="#DejaVuSans-6c" transform="translate(498.925781 0)"/>
      <use xlink:href="#DejaVuSans-65" transform="translate(526.708984 0)"/>
      <use xlink:href="#DejaVuSans-6e" transform="translate(588.232422 0)"/>
      <use xlink:href="#DejaVuSans-69" transform="translate(651.611328 0)"/>
      <use xlink:href="#DejaVuSans-65" transform="translate(679.394531 0)"/>
      <use xlink:href="#DejaVuSans-20" transform="translate(740.917969 0)"/>
      <use xlink:href="#DejaVuSans-73" transform="translate(772.705078 0)"/>
      <use xlink:href="#DejaVuSans-74" transform="translate(824.804688 0)"/>
      <use xlink:href="#DejaVuSans-64" transform="translate(864.013672 0)"/>
      <use xlink:href="#DejaVuSans-2e" transform="translate(927.490234 0)"/>
     </g>
    </g>
    <g id="line2d_26">
     <path d="M 281.790313 293.004312 
L 291.790313 293.004312 
L 301.790313 293.004312 
" style="fill: none; stroke: #ff0000; stroke-width: 1.5; stroke-linecap: square"/>
    </g>
    <g id="text_16">
     <!-- Najlepsze -->
     <g transform="translate(309.790313 296.504312) scale(0.1 -0.1)">
      <defs>
       <path id="DejaVuSans-4e" d="M 628 4666 
L 1478 4666 
L 3547 763 
L 3547 4666 
L 4159 4666 
L 4159 0 
L 3309 0 
L 1241 3903 
L 1241 0 
L 628 0 
L 628 4666 
z
" transform="scale(0.015625)"/>
      </defs>
      <use xlink:href="#DejaVuSans-4e"/>
      <use xlink:href="#DejaVuSans-61" transform="translate(74.804688 0)"/>
      <use xlink:href="#DejaVuSans-6a" transform="translate(136.083984 0)"/>
      <use xlink:href="#DejaVuSans-6c" transform="translate(163.867188 0)"/>
      <use xlink:href="#DejaVuSans-65" transform="translate(191.650391 0)"/>
      <use xlink:href="#DejaVuSans-70" transform="translate(253.173828 0)"/>
      <use xlink:href="#DejaVuSans-73" transform="translate(316.650391 0)"/>
      <use xlink:href="#DejaVuSans-7a" transform="translate(368.75 0)"/>
      <use xlink:href="#DejaVuSans-65" transform="translate(421.240234 0)"/>
     </g>
    </g>
   </g>
  </g>
 </g>
 <defs>
  <clipPath id="pdf4d5fa8dd">
   <rect x="57.6" y="41.472" width="357.12" height="266.112"/>
  </clipPath>
 </defs>
</svg>
