<?xml version="1.0" encoding="utf-8" standalone="no"?>
<!DOCTYPE svg PUBLIC "-//W3C//DTD SVG 1.1//EN"
  "http://www.w3.org/Graphics/SVG/1.1/DTD/svg11.dtd">
<svg xmlns:xlink="http://www.w3.org/1999/xlink" width="460.8pt" height="345.6pt" viewBox="0 0 460.8 345.6" xmlns="http://www.w3.org/2000/svg" version="1.1">
 <metadata>
  <rdf:RDF xmlns:dc="http://purl.org/dc/elements/1.1/" xmlns:cc="http://creativecommons.org/ns#" xmlns:rdf="http://www.w3.org/1999/02/22-rdf-syntax-ns#">
   <cc:Work>
    <dc:type rdf:resource="http://purl.org/dc/dcmitype/StillImage"/>
    <dc:date>2026-04-27T02:04:02.860346</dc:date>
    <dc:format>image/svg+xml</dc:format>
    <dc:creator>
     <cc:Agent>
      <dc:title>Matplotlib v3.10.8, https://matplotlib.org/</dc:title>
     </cc:Agent>
    </dc:creator>
   </cc:Work>
  </rdf:RDF>
 </metadata>
 <defs>
  <style type="text/css">*{stroke-linejoin: round; stroke-linecap: butt}</style>
 </defs>
 <g id="figure_1">
  <g id="patch_1">
   <path d="M 0 345.6 
L 460.8 345.6 
L 460.8 0 
L 0 0 
z
" style="fill: #ffffff"/>
  </g>
  <g id="axes_1">
   <g id="patch_2">
    <path d="M 57.6 307.584 
L 414.72 307.584 
L 414.72 41.472 
L 57.6 41.472 
z
" style="fill: #ffffff"/>
   </g>
   <g id="matplotlib.axis_1">
    <g id="xtick_1">
     <g id="line2d_1">
      <path d="M 72.201297 307.584 
L 72.201297 41.472 
" clip-path="url(#p486be7c4e9)" style="fill: none; stroke: #b0b0b0; stroke-width: 0.8; stroke-linecap: square"/>
     </g>
     <g id="line2d_2">
      <defs>
       <path id="m289e725ff1" d="M 0 0 
L 0 3.5 
" style="stroke: #000000; stroke-width: 0.8"/>
      </defs>
      <g>
       <use xlink:href="#m289e725ff1" x="72.201297" y="307.584" style="stroke: #000000; stroke-width: 0.8"/>
      </g>
     </g>
     <g id="text_1">
      <!-- 0 -->
      <g transform="translate(69.020047 322.182437) scale(0.1 -0.1)">
       <defs>
        <path id="DejaVuSans-30" d="M 2034 4250 
Q 1547 4250 1301 3770 
Q 1056 3291 1056 2328 
Q 1056 1369 1301 889 
Q 1547 409 2034 409 
Q 2525 409 2770 889 
Q 3016 1369 3016 2328 
Q 3016 3291 2770 3770 
Q 2525 4250 2034 4250 
z
M 2034 4750 
Q 2819 4750 3233 4129 
Q 3647 3509 3647 2328 
Q 3647 1150 3233 529 
Q 2819 -91 2034 -91 
Q 1250 -91 836 529 
Q 422 1150 422 2328 
Q 422 3509 836 4129 
Q 1250 4750 2034 4750 
z
" transform="scale(0.015625)"/>
       </defs>
       <use xlink:href="#DejaVuSans-30"/>
      </g>
     </g>
    </g>
    <g id="xtick_2">
     <g id="line2d_3">
      <path d="M 112.987044 307.584 
L 112.987044 41.472 
" clip-path="url(#p486be7c4e9)" style="fill: none; stroke: #b0b0b0; stroke-width: 0.8; stroke-linecap: square"/>
     </g>
     <g id="line2d_4">
      <g>
       <use xlink:href="#m289e725ff1" x="112.987044" y="307.584" style="stroke: #000000; stroke-width: 0.8"/>
      </g>
     </g>
     <g id="text_2">
      <!-- 25 -->
      <g transform="translate(106.624544 322.182437) scale(0.1 -0.1)">
       <defs>
        <path id="DejaVuSans-32" d="M 1228 531 
L 3431 531 
L 3431 0 
L 469 0 
L 469 531 
Q 828 903 1448 1529 
Q 2069 2156 2228 2338 
Q 2531 2678 2651 2914 
Q 2772 3150 2772 3378 
Q 2772 3750 2511 3984 
Q 2250 4219 1831 4219 
Q 1534 4219 1204 4116 
Q 875 4013 500 3803 
L 500 4441 
Q 881 4594 1212 4672 
Q 1544 4750 1819 4750 
Q 2544 4750 2975 4387 
Q 3406 4025 3406 3419 
Q 3406 3131 3298 2873 
Q 3191 2616 2906 2266 
Q 2828 2175 2409 1742 
Q 1991 1309 1228 531 
z
" transform="scale(0.015625)"/>
        <path id="DejaVuSans-35" d="M 691 4666 
L 3169 4666 
L 3169 4134 
L 1269 4134 
L 1269 2991 
Q 1406 3038 1543 3061 
Q 1681 3084 1819 3084 
Q 2600 3084 3056 2656 
Q 3513 2228 3513 1497 
Q 3513 744 3044 326 
Q 2575 -91 1722 -91 
Q 1428 -91 1123 -41 
Q 819 9 494 109 
L 494 744 
Q 775 591 1075 516 
Q 1375 441 1709 441 
Q 2250 441 2565 725 
Q 2881 1009 2881 1497 
Q 2881 1984 2565 2268 
Q 2250 2553 1709 2553 
Q 1456 2553 1204 2497 
Q 953 2441 691 2322 
L 691 4666 
z
" transform="scale(0.015625)"/>
       </defs>
       <use xlink:href="#DejaVuSans-32"/>
       <use xlink:href="#DejaVuSans-35" transform="translate(63.623047 0)"/>
      </g>
     </g>
    </g>
    <g id="xtick_3">
     <g id="line2d_5">
      <path d="M 153.772791 307.584 
L 153.772791 41.472 
" clip-path="url(#p486be7c4e9)" style="fill: none; stroke: #b0b0b0; stroke-width: 0.8; stroke-linecap: square"/>
     </g>
     <g id="line2d_6">
      <g>
       <use xlink:href="#m289e725ff1" x="153.772791" y="307.584" style="stroke: #000000; stroke-width: 0.8"/>
      </g>
     </g>
     <g id="text_3">
      <!-- 50 -->
      <g transform="translate(147.410291 322.182437) scale(0.1 -0.1)">
       <use xlink:href="#DejaVuSans-35"/>
       <use xlink:href="#DejaVuSans-30" transform="translate(63.623047 0)"/>
      </g>
     </g>
    </g>
    <g id="xtick_4">
     <g id="line2d_7">
      <path d="M 194.558538 307.584 
L 194.558538 41.472 
" clip-path="url(#p486be7c4e9)" style="fill: none; stroke: #b0b0b0; stroke-width: 0.8; stroke-linecap: square"/>
     </g>
     <g id="line2d_8">
      <g>
       <use xlink:href="#m289e725ff1" x="194.558538" y="307.584" style="stroke: #000000; stroke-width: 0.8"/>
      </g>
     </g>
     <g id="text_4">
      <!-- 75 -->
      <g transform="translate(188.196038 322.182437) scale(0.1 -0.1)">
       <defs>
        <path id="DejaVuSans-37" d="M 525 4666 
L 3525 4666 
L 3525 4397 
L 1831 0 
L 1172 0 
L 2766 4134 
L 525 4134 
L 525 4666 
z
" transform="scale(0.015625)"/>
       </defs>
       <use xlink:href="#DejaVuSans-37"/>
       <use xlink:href="#DejaVuSans-35" transform="translate(63.623047 0)"/>
      </g>
     </g>
    </g>
    <g id="xtick_5">
     <g id="line2d_9">
      <path d="M 235.344285 307.584 
L 235.344285 41.472 
" clip-path="url(#p486be7c4e9)" style="fill: none; stroke: #b0b0b0; stroke-width: 0.8; stroke-linecap: square"/>
     </g>
     <g id="line2d_10">
      <g>
       <use xlink:href="#m289e725ff1" x="235.344285" y="307.584" style="stroke: #000000; stroke-width: 0.8"/>
      </g>
     </g>
     <g id="text_5">
      <!-- 100 -->
      <g transform="translate(225.800535 322.182437) scale(0.1 -0.1)">
       <defs>
        <path id="DejaVuSans-31" d="M 794 531 
L 1825 531 
L 1825 4091 
L 703 3866 
L 703 4441 
L 1819 4666 
L 2450 4666 
L 2450 531 
L 3481 531 
L 3481 0 
L 794 0 
L 794 531 
z
" transform="scale(0.015625)"/>
       </defs>
       <use xlink:href="#DejaVuSans-31"/>
       <use xlink:href="#DejaVuSans-30" transform="translate(63.623047 0)"/>
       <use xlink:href="#DejaVuSans-30" transform="translate(127.246094 0)"/>
      </g>
     </g>
    </g>
    <g id="xtick_6">
     <g id="line2d_11">
      <path d="M 276.130032 307.584 
L 276.130032 41.472 
" clip-path="url(#p486be7c4e9)" style="fill: none; stroke: #b0b0b0; stroke-width: 0.8; stroke-linecap: square"/>
     </g>
     <g id="line2d_12">
      <g>
       <use xlink:href="#m289e725ff1" x="276.130032" y="307.584" style="stroke: #000000; stroke-width: 0.8"/>
      </g>
     </g>
     <g id="text_6">
      <!-- 125 -->
      <g transform="translate(266.586282 322.182437) scale(0.1 -0.1)">
       <use xlink:href="#DejaVuSans-31"/>
       <use xlink:href="#DejaVuSans-32" transform="translate(63.623047 0)"/>
       <use xlink:href="#DejaVuSans-35" transform="translate(127.246094 0)"/>
      </g>
     </g>
    </g>
    <g id="xtick_7">
     <g id="line2d_13">
      <path d="M 316.915779 307.584 
L 316.915779 41.472 
" clip-path="url(#p486be7c4e9)" style="fill: none; stroke: #b0b0b0; stroke-width: 0.8; stroke-linecap: square"/>
     </g>
     <g id="line2d_14">
      <g>
       <use xlink:href="#m289e725ff1" x="316.915779" y="307.584" style="stroke: #000000; stroke-width: 0.8"/>
      </g>
     </g>
     <g id="text_7">
      <!-- 150 -->
      <g transform="translate(307.372029 322.182437) scale(0.1 -0.1)">
       <use xlink:href="#DejaVuSans-31"/>
       <use xlink:href="#DejaVuSans-35" transform="translate(63.623047 0)"/>
       <use xlink:href="#DejaVuSans-30" transform="translate(127.246094 0)"/>
      </g>
     </g>
    </g>
    <g id="xtick_8">
     <g id="line2d_15">
      <path d="M 357.701526 307.584 
L 357.701526 41.472 
" clip-path="url(#p486be7c4e9)" style="fill: none; stroke: #b0b0b0; stroke-width: 0.8; stroke-linecap: square"/>
     </g>
     <g id="line2d_16">
      <g>
       <use xlink:href="#m289e725ff1" x="357.701526" y="307.584" style="stroke: #000000; stroke-width: 0.8"/>
      </g>
     </g>
     <g id="text_8">
      <!-- 175 -->
      <g transform="translate(348.157776 322.182437) scale(0.1 -0.1)">
       <use xlink:href="#DejaVuSans-31"/>
       <use xlink:href="#DejaVuSans-37" transform="translate(63.623047 0)"/>
       <use xlink:href="#DejaVuSans-35" transform="translate(127.246094 0)"/>
      </g>
     </g>
    </g>
    <g id="xtick_9">
     <g id="line2d_17">
      <path d="M 398.487273 307.584 
L 398.487273 41.472 
" clip-path="url(#p486be7c4e9)" style="fill: none; stroke: #b0b0b0; stroke-width: 0.8; stroke-linecap: square"/>
     </g>
     <g id="line2d_18">
      <g>
       <use xlink:href="#m289e725ff1" x="398.487273" y="307.584" style="stroke: #000000; stroke-width: 0.8"/>
      </g>
     </g>
     <g id="text_9">
      <!-- 200 -->
      <g transform="translate(388.943523 322.182437) scale(0.1 -0.1)">
       <use xlink:href="#DejaVuSans-32"/>
       <use xlink:href="#DejaVuSans-30" transform="translate(63.623047 0)"/>
       <use xlink:href="#DejaVuSans-30" transform="translate(127.246094 0)"/>
      </g>
     </g>
    </g>
    <g id="text_10">
     <!-- Generacje -->
     <g transform="translate(210.629531 335.860562) scale(0.1 -0.1)">
      <defs>
       <path id="DejaVuSans-47" d="M 3809 666 
L 3809 1919 
L 2778 1919 
L 2778 2438 
L 4434 2438 
L 4434 434 
Q 4069 175 3628 42 
Q 3188 -91 2688 -91 
Q 1594 -91 976 548 
Q 359 1188 359 2328 
Q 359 3472 976 4111 
Q 1594 4750 2688 4750 
Q 3144 4750 3555 4637 
Q 3966 4525 4313 4306 
L 4313 3634 
Q 3963 3931 3569 4081 
Q 3175 4231 2741 4231 
Q 1884 4231 1454 3753 
Q 1025 3275 1025 2328 
Q 1025 1384 1454 906 
Q 1884 428 2741 428 
Q 3075 428 3337 486 
Q 3600 544 3809 666 
z
" transform="scale(0.015625)"/>
       <path id="DejaVuSans-65" d="M 3597 1894 
L 3597 1613 
L 953 1613 
Q 991 1019 1311 708 
Q 1631 397 2203 397 
Q 2534 397 2845 478 
Q 3156 559 3463 722 
L 3463 178 
Q 3153 47 2828 -22 
Q 2503 -91 2169 -91 
Q 1331 -91 842 396 
Q 353 884 353 1716 
Q 353 2575 817 3079 
Q 1281 3584 2069 3584 
Q 2775 3584 3186 3129 
Q 3597 2675 3597 1894 
z
M 3022 2063 
Q 3016 2534 2758 2815 
Q 2500 3097 2075 3097 
Q 1594 3097 1305 2825 
Q 1016 2553 972 2059 
L 3022 2063 
z
" transform="scale(0.015625)"/>
       <path id="DejaVuSans-6e" d="M 3513 2113 
L 3513 0 
L 2938 0 
L 2938 2094 
Q 2938 2591 2744 2837 
Q 2550 3084 2163 3084 
Q 1697 3084 1428 2787 
Q 1159 2491 1159 1978 
L 1159 0 
L 581 0 
L 581 3500 
L 1159 3500 
L 1159 2956 
Q 1366 3272 1645 3428 
Q 1925 3584 2291 3584 
Q 2894 3584 3203 3211 
Q 3513 2838 3513 2113 
z
" transform="scale(0.015625)"/>
       <path id="DejaVuSans-72" d="M 2631 2963 
Q 2534 3019 2420 3045 
Q 2306 3072 2169 3072 
Q 1681 3072 1420 2755 
Q 1159 2438 1159 1844 
L 1159 0 
L 581 0 
L 581 3500 
L 1159 3500 
L 1159 2956 
Q 1341 3275 1631 3429 
Q 1922 3584 2338 3584 
Q 2397 3584 2469 3576 
Q 2541 3569 2628 3553 
L 2631 2963 
z
" transform="scale(0.015625)"/>
       <path id="DejaVuSans-61" d="M 2194 1759 
Q 1497 1759 1228 1600 
Q 959 1441 959 1056 
Q 959 750 1161 570 
Q 1363 391 1709 391 
Q 2188 391 2477 730 
Q 2766 1069 2766 1631 
L 2766 1759 
L 2194 1759 
z
M 3341 1997 
L 3341 0 
L 2766 0 
L 2766 531 
Q 2569 213 2275 61 
Q 1981 -91 1556 -91 
Q 1019 -91 701 211 
Q 384 513 384 1019 
Q 384 1609 779 1909 
Q 1175 2209 1959 2209 
L 2766 2209 
L 2766 2266 
Q 2766 2663 2505 2880 
Q 2244 3097 1772 3097 
Q 1472 3097 1187 3025 
Q 903 2953 641 2809 
L 641 3341 
Q 956 3463 1253 3523 
Q 1550 3584 1831 3584 
Q 2591 3584 2966 3190 
Q 3341 2797 3341 1997 
z
" transform="scale(0.015625)"/>
       <path id="DejaVuSans-63" d="M 3122 3366 
L 3122 2828 
Q 2878 2963 2633 3030 
Q 2388 3097 2138 3097 
Q 1578 3097 1268 2742 
Q 959 2388 959 1747 
Q 959 1106 1268 751 
Q 1578 397 2138 397 
Q 2388 397 2633 464 
Q 2878 531 3122 666 
L 3122 134 
Q 2881 22 2623 -34 
Q 2366 -91 2075 -91 
Q 1284 -91 818 406 
Q 353 903 353 1747 
Q 353 2603 823 3093 
Q 1294 3584 2113 3584 
Q 2378 3584 2631 3529 
Q 2884 3475 3122 3366 
z
" transform="scale(0.015625)"/>
       <path id="DejaVuSans-6a" d="M 603 3500 
L 1178 3500 
L 1178 -63 
Q 1178 -731 923 -1031 
Q 669 -1331 103 -1331 
L -116 -1331 
L -116 -844 
L 38 -844 
Q 366 -844 484 -692 
Q 603 -541 603 -63 
L 603 3500 
z
M 603 4863 
L 1178 4863 
L 1178 4134 
L 603 4134 
L 603 4863 
z
" transform="scale(0.015625)"/>
      </defs>
      <use xlink:href="#DejaVuSans-47"/>
      <use xlink:href="#DejaVuSans-65" transform="translate(77.490234 0)"/>
      <use xlink:href="#DejaVuSans-6e" transform="translate(139.013672 0)"/>
      <use xlink:href="#DejaVuSans-65" transform="translate(202.392578 0)"/>
      <use xlink:href="#DejaVuSans-72" transform="translate(263.916016 0)"/>
      <use xlink:href="#DejaVuSans-61" transform="translate(305.029297 0)"/>
      <use xlink:href="#DejaVuSans-63" transform="translate(366.308594 0)"/>
      <use xlink:href="#DejaVuSans-6a" transform="translate(421.289062 0)"/>
      <use xlink:href="#DejaVuSans-65" transform="translate(449.072266 0)"/>
     </g>
    </g>
   </g>
   <g id="matplotlib.axis_2">
    <g id="ytick_1">
     <g id="line2d_19">
      <path d="M 57.6 110.828986 
L 414.72 110.828986 
" clip-path="url(#p486be7c4e9)" style="fill: none; stroke: #b0b0b0; stroke-width: 0.8; stroke-linecap: square"/>
     </g>
     <g id="line2d_20">
      <defs>
       <path id="m99df4f2829" d="M 0 0 
L -3.5 0 
" style="stroke: #000000; stroke-width: 0.8"/>
      </defs>
      <g>
       <use xlink:href="#m99df4f2829" x="57.6" y="110.828986" style="stroke: #000000; stroke-width: 0.8"/>
      </g>
     </g>
     <g id="text_11">
      <!-- $\mathdefault{10^{2}}$ -->
      <g transform="translate(33 114.628205) scale(0.1 -0.1)">
       <use xlink:href="#DejaVuSans-31" transform="translate(0 0.765625)"/>
       <use xlink:href="#DejaVuSans-30" transform="translate(63.623047 0.765625)"/>
       <use xlink:href="#DejaVuSans-32" transform="translate(128.203125 39.046875) scale(0.7)"/>
      </g>
     </g>
    </g>
    <g id="text_12">
     <!-- Przystosowanie -->
     <g transform="translate(26.920312 213.170187) rotate(-90) scale(0.1 -0.1)">
      <defs>
       <path id="DejaVuSans-50" d="M 1259 4147 
L 1259 2394 
L 2053 2394 
Q 2494 2394 2734 2622 
Q 2975 2850 2975 3272 
Q 2975 3691 2734 3919 
Q 2494 4147 2053 4147 
L 1259 4147 
z
M 628 4666 
L 2053 4666 
Q 2838 4666 3239 4311 
Q 3641 3956 3641 3272 
Q 3641 2581 3239 2228 
Q 2838 1875 2053 1875 
L 1259 1875 
L 1259 0 
L 628 0 
L 628 4666 
z
" transform="scale(0.015625)"/>
       <path id="DejaVuSans-7a" d="M 353 3500 
L 3084 3500 
L 3084 2975 
L 922 459 
L 3084 459 
L 3084 0 
L 275 0 
L 275 525 
L 2438 3041 
L 353 3041 
L 353 3500 
z
" transform="scale(0.015625)"/>
       <path id="DejaVuSans-79" d="M 2059 -325 
Q 1816 -950 1584 -1140 
Q 1353 -1331 966 -1331 
L 506 -1331 
L 506 -850 
L 844 -850 
Q 1081 -850 1212 -737 
Q 1344 -625 1503 -206 
L 1606 56 
L 191 3500 
L 800 3500 
L 1894 763 
L 2988 3500 
L 3597 3500 
L 2059 -325 
z
" transform="scale(0.015625)"/>
       <path id="DejaVuSans-73" d="M 2834 3397 
L 2834 2853 
Q 2591 2978 2328 3040 
Q 2066 3103 1784 3103 
Q 1356 3103 1142 2972 
Q 928 2841 928 2578 
Q 928 2378 1081 2264 
Q 1234 2150 1697 2047 
L 1894 2003 
Q 2506 1872 2764 1633 
Q 3022 1394 3022 966 
Q 3022 478 2636 193 
Q 2250 -91 1575 -91 
Q 1294 -91 989 -36 
Q 684 19 347 128 
L 347 722 
Q 666 556 975 473 
Q 1284 391 1588 391 
Q 1994 391 2212 530 
Q 2431 669 2431 922 
Q 2431 1156 2273 1281 
Q 2116 1406 1581 1522 
L 1381 1569 
Q 847 1681 609 1914 
Q 372 2147 372 2553 
Q 372 3047 722 3315 
Q 1072 3584 1716 3584 
Q 2034 3584 2315 3537 
Q 2597 3491 2834 3397 
z
" transform="scale(0.015625)"/>
       <path id="DejaVuSans-74" d="M 1172 4494 
L 1172 3500 
L 2356 3500 
L 2356 3053 
L 1172 3053 
L 1172 1153 
Q 1172 725 1289 603 
Q 1406 481 1766 481 
L 2356 481 
L 2356 0 
L 1766 0 
Q 1100 0 847 248 
Q 594 497 594 1153 
L 594 3053 
L 172 3053 
L 172 3500 
L 594 3500 
L 594 4494 
L 1172 4494 
z
" transform="scale(0.015625)"/>
       <path id="DejaVuSans-6f" d="M 1959 3097 
Q 1497 3097 1228 2736 
Q 959 2375 959 1747 
Q 959 1119 1226 758 
Q 1494 397 1959 397 
Q 2419 397 2687 759 
Q 2956 1122 2956 1747 
Q 2956 2369 2687 2733 
Q 2419 3097 1959 3097 
z
M 1959 3584 
Q 2709 3584 3137 3096 
Q 3566 2609 3566 1747 
Q 3566 888 3137 398 
Q 2709 -91 1959 -91 
Q 1206 -91 779 398 
Q 353 888 353 1747 
Q 353 2609 779 3096 
Q 1206 3584 1959 3584 
z
" transform="scale(0.015625)"/>
       <path id="DejaVuSans-77" d="M 269 3500 
L 844 3500 
L 1563 769 
L 2278 3500 
L 2956 3500 
L 3675 769 
L 4391 3500 
L 4966 3500 
L 4050 0 
L 3372 0 
L 2619 2869 
L 1863 0 
L 1184 0 
L 269 3500 
z
" transform="scale(0.015625)"/>
       <path id="DejaVuSans-69" d="M 603 3500 
L 1178 3500 
L 1178 0 
L 603 0 
L 603 3500 
z
M 603 4863 
L 1178 4863 
L 1178 4134 
L 603 4134 
L 603 4863 
z
" transform="scale(0.015625)"/>
      </defs>
      <use xlink:href="#DejaVuSans-50"/>
      <use xlink:href="#DejaVuSans-72" transform="translate(58.552734 0)"/>
      <use xlink:href="#DejaVuSans-7a" transform="translate(99.666016 0)"/>
      <use xlink:href="#DejaVuSans-79" transform="translate(152.15625 0)"/>
      <use xlink:href="#DejaVuSans-73" transform="translate(211.335938 0)"/>
      <use xlink:href="#DejaVuSans-74" transform="translate(263.435547 0)"/>
      <use xlink:href="#DejaVuSans-6f" transform="translate(302.644531 0)"/>
      <use xlink:href="#DejaVuSans-73" transform="translate(363.826172 0)"/>
      <use xlink:href="#DejaVuSans-6f" transform="translate(415.925781 0)"/>
      <use xlink:href="#DejaVuSans-77" transform="translate(477.107422 0)"/>
      <use xlink:href="#DejaVuSans-61" transform="translate(558.894531 0)"/>
      <use xlink:href="#DejaVuSans-6e" transform="translate(620.173828 0)"/>
      <use xlink:href="#DejaVuSans-69" transform="translate(683.552734 0)"/>
      <use xlink:href="#DejaVuSans-65" transform="translate(711.335938 0)"/>
     </g>
    </g>
   </g>
   <g id="line2d_21">
    <path d="M 73.832727 295.488 
L 75.464157 232.222996 
L 77.095587 198.567599 
L 78.727017 168.291853 
L 80.358447 153.097707 
L 81.989877 146.566998 
L 83.621307 141.32876 
L 85.252736 144.117016 
L 86.884166 140.722979 
L 88.515596 139.052598 
L 90.147026 144.969584 
L 91.778456 141.135172 
L 93.409886 141.896143 
L 95.041316 145.257525 
L 96.672746 137.736961 
L 98.304175 139.201638 
L 99.935605 138.73299 
L 101.567035 138.578509 
L 103.198465 138.304547 
L 104.829895 140.065864 
L 106.461325 135.559303 
L 108.092755 138.173302 
L 109.724185 138.685281 
L 111.355614 139.025367 
L 112.987044 137.578771 
L 114.618474 138.00733 
L 116.249904 137.907657 
L 117.881334 135.801144 
L 119.512764 135.582113 
L 121.144194 135.244727 
L 122.775624 136.0956 
L 124.407053 133.721769 
L 126.038483 135.540001 
L 127.669913 134.496065 
L 129.301343 136.977679 
L 130.932773 135.031909 
L 132.564203 134.081737 
L 134.195633 132.726155 
L 135.827063 135.44534 
L 137.458492 135.160671 
L 139.089922 135.136565 
L 140.721352 138.241641 
L 142.352782 136.528011 
L 143.984212 137.047755 
L 145.615642 134.033048 
L 147.247072 134.061685 
L 148.878502 135.070022 
L 152.141361 134.85197 
L 153.772791 135.891263 
L 155.404221 134.587208 
L 157.035651 137.014961 
L 158.667081 134.506315 
L 160.298511 137.201871 
L 161.929941 135.578941 
L 163.56137 134.788511 
L 165.1928 134.178169 
L 166.82423 136.244171 
L 170.08709 134.224464 
L 171.71852 133.754112 
L 173.34995 135.903127 
L 174.98138 135.486846 
L 176.61281 135.774367 
L 178.244239 134.183211 
L 179.875669 135.38803 
L 181.507099 134.559109 
L 183.138529 134.176786 
L 184.769959 135.694498 
L 186.401389 134.249782 
L 188.032819 132.629661 
L 189.664249 136.133965 
L 191.295678 133.85715 
L 192.927108 134.557903 
L 194.558538 133.554576 
L 196.189968 133.209122 
L 197.821398 134.044419 
L 199.452828 135.694111 
L 201.084258 134.401262 
L 202.715688 134.226169 
L 204.347117 135.98652 
L 205.978547 136.177842 
L 207.609977 134.525324 
L 209.241407 136.920619 
L 210.872837 136.709534 
L 212.504267 136.621371 
L 214.135697 136.381941 
L 215.767127 135.759075 
L 217.398556 134.727263 
L 219.029986 137.303471 
L 220.661416 134.905891 
L 222.292846 135.644147 
L 223.924276 135.774889 
L 225.555706 136.127514 
L 227.187136 133.955128 
L 228.818566 134.345035 
L 230.449995 134.557933 
L 232.081425 135.259881 
L 233.712855 135.033485 
L 235.344285 135.137075 
L 236.975715 133.333673 
L 238.607145 134.017039 
L 240.238575 136.056485 
L 243.501434 134.933854 
L 245.132864 135.454124 
L 246.764294 136.538518 
L 248.395724 135.775313 
L 250.027154 135.908397 
L 251.658584 135.105374 
L 253.290014 135.065026 
L 254.921444 135.669863 
L 256.552873 134.947914 
L 258.184303 135.574499 
L 259.815733 135.701239 
L 261.447163 136.532232 
L 263.078593 134.905406 
L 264.710023 135.970097 
L 266.341453 134.963078 
L 267.972883 134.782096 
L 269.604312 136.096894 
L 271.235742 135.349739 
L 272.867172 134.040136 
L 274.498602 134.505375 
L 276.130032 135.663855 
L 277.761462 135.1254 
L 279.392892 135.814824 
L 281.024322 135.992719 
L 282.655751 135.080542 
L 284.287181 135.029274 
L 285.918611 134.289227 
L 287.550041 135.582441 
L 289.181471 134.807374 
L 290.812901 135.635281 
L 292.444331 134.522798 
L 294.075761 135.292072 
L 295.70719 135.862128 
L 297.33862 134.672921 
L 298.97005 134.919036 
L 300.60148 133.287297 
L 302.23291 134.789614 
L 303.86434 134.704305 
L 305.49577 135.16107 
L 307.1272 133.521864 
L 308.75863 134.620679 
L 310.390059 134.855878 
L 312.021489 134.27964 
L 313.652919 134.860783 
L 315.284349 133.805033 
L 316.915779 135.81097 
L 318.547209 137.156604 
L 320.178639 136.409412 
L 321.810069 134.891404 
L 323.441498 133.777509 
L 325.072928 135.402934 
L 326.704358 138.90055 
L 328.335788 137.894045 
L 329.967218 134.660655 
L 331.598648 135.905654 
L 333.230078 139.492796 
L 334.861508 135.952525 
L 336.492937 135.538307 
L 338.124367 134.781761 
L 341.387227 135.441095 
L 343.018657 138.116823 
L 344.650087 134.919791 
L 346.281517 136.420014 
L 347.912947 133.972454 
L 349.544376 137.113465 
L 351.175806 134.340529 
L 352.807236 134.964547 
L 354.438666 134.899343 
L 356.070096 136.001429 
L 357.701526 134.898005 
L 359.332956 135.741063 
L 362.595815 134.594096 
L 364.227245 134.906909 
L 365.858675 134.585069 
L 367.490105 135.072017 
L 369.121535 134.09878 
L 370.752965 135.018147 
L 372.384395 134.544366 
L 374.015825 135.918234 
L 375.647254 134.604602 
L 377.278684 135.211862 
L 378.910114 133.829559 
L 380.541544 135.574056 
L 382.172974 133.982863 
L 383.804404 135.297874 
L 385.435834 134.853591 
L 387.067264 135.465317 
L 388.698693 135.098012 
L 390.330123 134.18098 
L 391.961553 134.083016 
L 393.592983 135.823323 
L 395.224413 133.741351 
L 396.855843 136.330654 
L 398.487273 134.32176 
L 398.487273 134.32176 
" clip-path="url(#p486be7c4e9)" style="fill: none; stroke: #0000ff; stroke-width: 1.5; stroke-linecap: square"/>
   </g>
   <g id="line2d_22">
    <path d="M 73.832727 237.823271 
L 75.464157 176.405883 
L 77.095587 148.868932 
L 78.727017 127.937826 
L 81.989877 118.775994 
L 83.621307 119.181336 
L 85.252736 115.399472 
L 86.884166 120.705109 
L 88.515596 120.762875 
L 90.147026 118.109859 
L 91.778456 116.804838 
L 93.409886 119.109389 
L 95.041316 117.097026 
L 96.672746 120.829977 
L 98.304175 118.41425 
L 99.935605 119.470608 
L 101.567035 119.718239 
L 103.198465 120.453884 
L 104.829895 121.347302 
L 106.461325 120.668862 
L 108.092755 120.405527 
L 109.724185 122.670521 
L 111.355614 118.33128 
L 112.987044 117.823126 
L 114.618474 119.539418 
L 116.249904 120.775586 
L 117.881334 114.329598 
L 119.512764 116.885611 
L 121.144194 118.430851 
L 122.775624 117.174681 
L 124.407053 117.905132 
L 126.038483 121.672328 
L 127.669913 121.315705 
L 129.301343 121.634912 
L 130.932773 119.007408 
L 132.564203 121.170637 
L 134.195633 118.60054 
L 135.827063 119.443466 
L 137.458492 116.552589 
L 139.089922 120.762481 
L 140.721352 115.548375 
L 142.352782 118.442261 
L 143.984212 114.80586 
L 145.615642 119.61101 
L 147.247072 120.789719 
L 148.878502 122.32576 
L 150.509931 121.807993 
L 152.141361 122.752194 
L 153.772791 120.155311 
L 155.404221 121.469821 
L 157.035651 115.561494 
L 158.667081 118.840682 
L 160.298511 117.596007 
L 161.929941 118.839363 
L 163.56137 118.173829 
L 165.1928 120.892165 
L 166.82423 116.116352 
L 168.45566 122.14265 
L 170.08709 122.548001 
L 171.71852 119.749613 
L 173.34995 121.739906 
L 176.61281 120.65015 
L 178.244239 121.784047 
L 179.875669 122.691548 
L 181.507099 120.9346 
L 183.138529 121.330185 
L 184.769959 120.302794 
L 186.401389 121.340294 
L 188.032819 119.641505 
L 189.664249 122.604803 
L 191.295678 120.728515 
L 192.927108 119.683352 
L 194.558538 120.129456 
L 196.189968 117.573492 
L 197.821398 120.310088 
L 199.452828 123.390975 
L 201.084258 122.161763 
L 202.715688 121.103789 
L 204.347117 121.281162 
L 205.978547 120.741152 
L 207.609977 119.020571 
L 209.241407 121.788317 
L 210.872837 122.715396 
L 212.504267 121.717267 
L 214.135697 120.506909 
L 217.398556 120.483553 
L 219.029986 121.195283 
L 220.661416 120.714481 
L 222.292846 123.813884 
L 223.924276 124.133729 
L 225.555706 121.00032 
L 227.187136 120.356767 
L 230.449995 120.654601 
L 232.081425 121.410494 
L 233.712855 120.869706 
L 235.344285 121.630554 
L 236.975715 119.510424 
L 238.607145 119.896796 
L 240.238575 118.73562 
L 241.870005 121.327597 
L 243.501434 122.000088 
L 245.132864 121.420525 
L 246.764294 121.412046 
L 248.395724 122.950086 
L 250.027154 122.172807 
L 251.658584 118.638129 
L 253.290014 121.730992 
L 254.921444 122.874745 
L 258.184303 123.201017 
L 259.815733 122.113747 
L 261.447163 122.265916 
L 263.078593 121.893892 
L 264.710023 123.361167 
L 266.341453 122.045085 
L 267.972883 120.298968 
L 269.604312 122.904575 
L 271.235742 120.531473 
L 272.867172 120.78349 
L 274.498602 119.713115 
L 276.130032 119.340828 
L 277.761462 118.025391 
L 279.392892 121.47567 
L 281.024322 118.390459 
L 282.655751 118.583283 
L 284.287181 121.07844 
L 285.918611 120.138029 
L 287.550041 121.898067 
L 289.181471 122.052685 
L 290.812901 123.242051 
L 292.444331 121.284399 
L 294.075761 121.313245 
L 295.70719 118.664133 
L 297.33862 120.221693 
L 298.97005 120.564696 
L 300.60148 118.661262 
L 302.23291 121.258827 
L 303.86434 122.466358 
L 305.49577 120.67087 
L 307.1272 119.697154 
L 310.390059 120.799318 
L 312.021489 122.198091 
L 313.652919 118.058891 
L 315.284349 120.134888 
L 316.915779 124.00514 
L 318.547209 119.699812 
L 320.178639 123.323607 
L 321.810069 121.967019 
L 323.441498 119.60869 
L 325.072928 118.750293 
L 326.704358 116.152379 
L 328.335788 115.825308 
L 329.967218 118.502951 
L 331.598648 120.688345 
L 333.230078 115.438807 
L 334.861508 120.398654 
L 336.492937 119.702748 
L 338.124367 121.129061 
L 339.755797 114.467301 
L 341.387227 121.886553 
L 343.018657 120.381147 
L 344.650087 119.666606 
L 346.281517 122.868597 
L 347.912947 119.691434 
L 349.544376 120.335345 
L 351.175806 122.228196 
L 352.807236 119.694556 
L 354.438666 121.783225 
L 356.070096 113.686919 
L 357.701526 119.235203 
L 359.332956 120.825695 
L 360.964386 120.912266 
L 362.595815 121.576023 
L 364.227245 119.112784 
L 365.858675 119.96663 
L 367.490105 121.177932 
L 369.121535 120.632481 
L 370.752965 122.230888 
L 372.384395 120.283889 
L 374.015825 124.098297 
L 375.647254 119.511639 
L 377.278684 117.457205 
L 380.541544 123.671708 
L 382.172974 120.952424 
L 383.804404 122.491263 
L 385.435834 121.602009 
L 387.067264 122.714532 
L 388.698693 120.783824 
L 390.330123 120.867205 
L 391.961553 120.781407 
L 393.592983 118.253477 
L 395.224413 120.494159 
L 396.855843 121.782491 
L 398.487273 119.174428 
L 398.487273 119.174428 
" clip-path="url(#p486be7c4e9)" style="fill: none; stroke-dasharray: 9.6,2.4,1.5,2.4; stroke-dashoffset: 0; stroke: #008000; stroke-width: 1.5"/>
   </g>
   <g id="line2d_23">
    <path d="M 73.832727 138.677448 
L 75.464157 121.791753 
L 77.095587 109.666291 
L 78.727017 108.116733 
L 80.358447 106.376957 
L 81.989877 96.602887 
L 83.621307 99.976405 
L 85.252736 109.542853 
L 86.884166 98.194552 
L 88.515596 96.38502 
L 90.147026 111.091624 
L 91.778456 106.270549 
L 93.409886 87.388335 
L 95.041316 96.738548 
L 96.672746 90.327971 
L 98.304175 102.807508 
L 99.935605 91.802313 
L 101.567035 106.380193 
L 103.198465 101.129653 
L 104.829895 108.044517 
L 106.461325 96.294617 
L 108.092755 83.089281 
L 109.724185 101.57623 
L 111.355614 97.928887 
L 112.987044 102.890345 
L 114.618474 94.848532 
L 116.249904 93.180919 
L 117.881334 70.734407 
L 119.512764 88.587574 
L 121.144194 80.154584 
L 122.775624 87.498611 
L 124.407053 93.44486 
L 126.038483 86.183897 
L 127.669913 86.07995 
L 129.301343 99.71453 
L 130.932773 80.228859 
L 132.564203 97.538386 
L 134.195633 90.195055 
L 135.827063 93.497773 
L 137.458492 88.62073 
L 139.089922 88.855228 
L 140.721352 91.507627 
L 142.352782 97.999979 
L 143.984212 93.423097 
L 145.615642 91.463159 
L 147.247072 85.666429 
L 148.878502 98.299633 
L 150.509931 79.856687 
L 152.141361 106.140009 
L 153.772791 98.44833 
L 155.404221 96.70788 
L 157.035651 79.67008 
L 158.667081 85.697205 
L 160.298511 93.248115 
L 161.929941 96.713671 
L 163.56137 96.511897 
L 165.1928 87.479024 
L 166.82423 93.362587 
L 168.45566 85.009968 
L 170.08709 86.174424 
L 171.71852 84.171622 
L 173.34995 100.949487 
L 174.98138 91.876003 
L 176.61281 92.126935 
L 178.244239 89.011196 
L 179.875669 93.359552 
L 181.507099 94.834218 
L 183.138529 90.407735 
L 184.769959 93.738001 
L 186.401389 86.141421 
L 188.032819 95.063369 
L 189.664249 99.763249 
L 191.295678 80.282184 
L 192.927108 94.799148 
L 194.558538 81.167016 
L 196.189968 74.481307 
L 197.821398 85.675721 
L 199.452828 95.140256 
L 201.084258 103.05096 
L 202.715688 91.778939 
L 204.347117 95.043497 
L 205.978547 68.820223 
L 207.609977 92.013091 
L 209.241407 98.373081 
L 210.872837 93.172494 
L 212.504267 87.515894 
L 214.135697 81.439164 
L 215.767127 91.980259 
L 217.398556 85.896741 
L 219.029986 96.860564 
L 220.661416 82.965373 
L 222.292846 97.971583 
L 223.924276 104.144795 
L 225.555706 96.393926 
L 227.187136 79.766821 
L 228.818566 91.731412 
L 230.449995 73.057647 
L 232.081425 66.291654 
L 233.712855 78.422326 
L 235.344285 75.908442 
L 236.975715 83.067578 
L 238.607145 78.577419 
L 240.238575 98.118628 
L 241.870005 91.660681 
L 243.501434 96.249507 
L 245.132864 82.81293 
L 248.395724 91.492657 
L 250.027154 98.173442 
L 251.658584 81.15789 
L 253.290014 84.007887 
L 254.921444 85.93742 
L 256.552873 101.215919 
L 258.184303 103.952998 
L 259.815733 93.491264 
L 261.447163 94.467706 
L 263.078593 84.36581 
L 264.710023 88.886481 
L 266.341453 89.048782 
L 267.972883 71.9647 
L 269.604312 78.441805 
L 271.235742 73.006441 
L 272.867172 88.73006 
L 274.498602 74.719325 
L 276.130032 83.072289 
L 277.761462 75.963 
L 279.392892 88.730487 
L 281.024322 86.053068 
L 282.655751 53.568 
L 284.287181 84.109676 
L 285.918611 80.37277 
L 287.550041 97.89311 
L 289.181471 97.755885 
L 290.812901 89.889655 
L 292.444331 73.370271 
L 294.075761 70.13258 
L 295.70719 84.656406 
L 297.33862 62.352718 
L 298.97005 74.669545 
L 300.60148 76.188955 
L 302.23291 93.4353 
L 303.86434 94.794581 
L 305.49577 79.036427 
L 307.1272 84.471824 
L 308.75863 57.161756 
L 310.390059 86.16079 
L 312.021489 96.578455 
L 313.652919 93.453729 
L 315.284349 85.82628 
L 316.915779 90.351377 
L 318.547209 78.667315 
L 320.178639 99.806834 
L 321.810069 79.973921 
L 323.441498 76.975472 
L 325.072928 79.041672 
L 326.704358 88.799575 
L 328.335788 87.334685 
L 329.967218 81.362015 
L 331.598648 90.280299 
L 333.230078 95.231493 
L 334.861508 109.487981 
L 336.492937 81.66542 
L 338.124367 85.714097 
L 339.755797 86.002095 
L 341.387227 93.10494 
L 343.018657 93.256138 
L 344.650087 77.491871 
L 346.281517 90.029279 
L 347.912947 78.735599 
L 349.544376 90.375964 
L 351.175806 102.911796 
L 352.807236 87.731758 
L 354.438666 81.498323 
L 356.070096 70.316599 
L 357.701526 99.841691 
L 359.332956 93.388825 
L 360.964386 80.310912 
L 362.595815 84.010019 
L 364.227245 94.640977 
L 365.858675 87.192347 
L 367.490105 59.188927 
L 369.121535 96.41282 
L 370.752965 91.762578 
L 372.384395 70.633434 
L 374.015825 93.707201 
L 375.647254 74.536759 
L 377.278684 77.376343 
L 378.910114 88.796443 
L 380.541544 104.334823 
L 382.172974 93.163512 
L 383.804404 80.063874 
L 385.435834 84.559702 
L 387.067264 93.799424 
L 388.698693 94.835041 
L 390.330123 85.409562 
L 391.961553 87.502963 
L 393.592983 95.099826 
L 395.224413 86.125553 
L 398.487273 88.330551 
L 398.487273 88.330551 
" clip-path="url(#p486be7c4e9)" style="fill: none; stroke: #ff0000; stroke-width: 1.5; stroke-linecap: square"/>
   </g>
   <g id="patch_3">
    <path d="M 57.6 307.584 
L 57.6 41.472 
" style="fill: none; stroke: #000000; stroke-width: 0.8; stroke-linejoin: miter; stroke-linecap: square"/>
   </g>
   <g id="patch_4">
    <path d="M 414.72 307.584 
L 414.72 41.472 
" style="fill: none; stroke: #000000; stroke-width: 0.8; stroke-linejoin: miter; stroke-linecap: square"/>
   </g>
   <g id="patch_5">
    <path d="M 57.6 307.584 
L 414.72 307.584 
" style="fill: none; stroke: #000000; stroke-width: 0.8; stroke-linejoin: miter; stroke-linecap: square"/>
   </g>
   <g id="patch_6">
    <path d="M 57.6 41.472 
L 414.72 41.472 
" style="fill: none; stroke: #000000; stroke-width: 0.8; stroke-linejoin: miter; stroke-linecap: square"/>
   </g>
   <g id="text_13">
    <!-- Średnie i najlepsze przystosowanie w każdej generacji -->
    <g transform="translate(73.26 35.472) scale(0.12 -0.12)">
     <defs>
      <path id="DejaVuSans-15a" d="M 2236 5921 
L 2814 5921 
L 2102 5096 
L 1623 5096 
L 2236 5921 
z
M 3425 4513 
L 3425 3897 
Q 3066 4069 2747 4153 
Q 2428 4238 2131 4238 
Q 1616 4238 1336 4038 
Q 1056 3838 1056 3469 
Q 1056 3159 1242 3001 
Q 1428 2844 1947 2747 
L 2328 2669 
Q 3034 2534 3370 2195 
Q 3706 1856 3706 1288 
Q 3706 609 3251 259 
Q 2797 -91 1919 -91 
Q 1588 -91 1214 -16 
Q 841 59 441 206 
L 441 856 
Q 825 641 1194 531 
Q 1563 422 1919 422 
Q 2459 422 2753 634 
Q 3047 847 3047 1241 
Q 3047 1584 2836 1778 
Q 2625 1972 2144 2069 
L 1759 2144 
Q 1053 2284 737 2584 
Q 422 2884 422 3419 
Q 422 4038 858 4394 
Q 1294 4750 2059 4750 
Q 2388 4750 2728 4690 
Q 3069 4631 3425 4513 
z
" transform="scale(0.015625)"/>
      <path id="DejaVuSans-64" d="M 2906 2969 
L 2906 4863 
L 3481 4863 
L 3481 0 
L 2906 0 
L 2906 525 
Q 2725 213 2448 61 
Q 2172 -91 1784 -91 
Q 1150 -91 751 415 
Q 353 922 353 1747 
Q 353 2572 751 3078 
Q 1150 3584 1784 3584 
Q 2172 3584 2448 3432 
Q 2725 3281 2906 2969 
z
M 947 1747 
Q 947 1113 1208 752 
Q 1469 391 1925 391 
Q 2381 391 2643 752 
Q 2906 1113 2906 1747 
Q 2906 2381 2643 2742 
Q 2381 3103 1925 3103 
Q 1469 3103 1208 2742 
Q 947 2381 947 1747 
z
" transform="scale(0.015625)"/>
      <path id="DejaVuSans-20" transform="scale(0.015625)"/>
      <path id="DejaVuSans-6c" d="M 603 4863 
L 1178 4863 
L 1178 0 
L 603 0 
L 603 4863 
z
" transform="scale(0.015625)"/>
      <path id="DejaVuSans-70" d="M 1159 525 
L 1159 -1331 
L 581 -1331 
L 581 3500 
L 1159 3500 
L 1159 2969 
Q 1341 3281 1617 3432 
Q 1894 3584 2278 3584 
Q 2916 3584 3314 3078 
Q 3713 2572 3713 1747 
Q 3713 922 3314 415 
Q 2916 -91 2278 -91 
Q 1894 -91 1617 61 
Q 1341 213 1159 525 
z
M 3116 1747 
Q 3116 2381 2855 2742 
Q 2594 3103 2138 3103 
Q 1681 3103 1420 2742 
Q 1159 2381 1159 1747 
Q 1159 1113 1420 752 
Q 1681 391 2138 391 
Q 2594 391 2855 752 
Q 3116 1113 3116 1747 
z
" transform="scale(0.015625)"/>
      <path id="DejaVuSans-6b" d="M 581 4863 
L 1159 4863 
L 1159 1991 
L 2875 3500 
L 3609 3500 
L 1753 1863 
L 3688 0 
L 2938 0 
L 1159 1709 
L 1159 0 
L 581 0 
L 581 4863 
z
" transform="scale(0.015625)"/>
      <path id="DejaVuSans-17c" d="M 1378 4863 
L 1953 4863 
L 1953 4134 
L 1378 4134 
L 1378 4863 
z
M 1672 3584 
L 1672 3584 
z
M 353 3500 
L 3084 3500 
L 3084 2975 
L 922 459 
L 3084 459 
L 3084 0 
L 275 0 
L 275 525 
L 2438 3041 
L 353 3041 
L 353 3500 
z
" transform="scale(0.015625)"/>
      <path id="DejaVuSans-67" d="M 2906 1791 
Q 2906 2416 2648 2759 
Q 2391 3103 1925 3103 
Q 1463 3103 1205 2759 
Q 947 2416 947 1791 
Q 947 1169 1205 825 
Q 1463 481 1925 481 
Q 2391 481 2648 825 
Q 2906 1169 2906 1791 
z
M 3481 434 
Q 3481 -459 3084 -895 
Q 2688 -1331 1869 -1331 
Q 1566 -1331 1297 -1286 
Q 1028 -1241 775 -1147 
L 775 -588 
Q 1028 -725 1275 -790 
Q 1522 -856 1778 -856 
Q 2344 -856 2625 -561 
Q 2906 -266 2906 331 
L 2906 616 
Q 2728 306 2450 153 
Q 2172 0 1784 0 
Q 1141 0 747 490 
Q 353 981 353 1791 
Q 353 2603 747 3093 
Q 1141 3584 1784 3584 
Q 2172 3584 2450 3431 
Q 2728 3278 2906 2969 
L 2906 3500 
L 3481 3500 
L 3481 434 
z
" transform="scale(0.015625)"/>
     </defs>
     <use xlink:href="#DejaVuSans-15a"/>
     <use xlink:href="#DejaVuSans-72" transform="translate(63.476562 0)"/>
     <use xlink:href="#DejaVuSans-65" transform="translate(102.339844 0)"/>
     <use xlink:href="#DejaVuSans-64" transform="translate(163.863281 0)"/>
     <use xlink:href="#DejaVuSans-6e" transform="translate(227.339844 0)"/>
     <use xlink:href="#DejaVuSans-69" transform="translate(290.71875 0)"/>
     <use xlink:href="#DejaVuSans-65" transform="translate(318.501953 0)"/>
     <use xlink:href="#DejaVuSans-20" transform="translate(380.025391 0)"/>
     <use xlink:href="#DejaVuSans-69" transform="translate(411.8125 0)"/>
     <use xlink:href="#DejaVuSans-20" transform="translate(439.595703 0)"/>
     <use xlink:href="#DejaVuSans-6e" transform="translate(471.382812 0)"/>
     <use xlink:href="#DejaVuSans-61" transform="translate(534.761719 0)"/>
     <use xlink:href="#DejaVuSans-6a" transform="translate(596.041016 0)"/>
     <use xlink:href="#DejaVuSans-6c" transform="translate(623.824219 0)"/>
     <use xlink:href="#DejaVuSans-65" transform="translate(651.607422 0)"/>
     <use xlink:href="#DejaVuSans-70" transform="translate(713.130859 0)"/>
     <use xlink:href="#DejaVuSans-73" transform="translate(776.607422 0)"/>
     <use xlink:href="#DejaVuSans-7a" transform="translate(828.707031 0)"/>
     <use xlink:href="#DejaVuSans-65" transform="translate(881.197266 0)"/>
     <use xlink:href="#DejaVuSans-20" transform="translate(942.720703 0)"/>
     <use xlink:href="#DejaVuSans-70" transform="translate(974.507812 0)"/>
     <use xlink:href="#DejaVuSans-72" transform="translate(1037.984375 0)"/>
     <use xlink:href="#DejaVuSans-7a" transform="translate(1079.097656 0)"/>
     <use xlink:href="#DejaVuSans-79" transform="translate(1131.587891 0)"/>
     <use xlink:href="#DejaVuSans-73" transform="translate(1190.767578 0)"/>
     <use xlink:href="#DejaVuSans-74" transform="translate(1242.867188 0)"/>
     <use xlink:href="#DejaVuSans-6f" transform="translate(1282.076172 0)"/>
     <use xlink:href="#DejaVuSans-73" transform="translate(1343.257812 0)"/>
     <use xlink:href="#DejaVuSans-6f" transform="translate(1395.357422 0)"/>
     <use xlink:href="#DejaVuSans-77" transform="translate(1456.539062 0)"/>
     <use xlink:href="#DejaVuSans-61" transform="translate(1538.326172 0)"/>
     <use xlink:href="#DejaVuSans-6e" transform="translate(1599.605469 0)"/>
     <use xlink:href="#DejaVuSans-69" transform="translate(1662.984375 0)"/>
     <use xlink:href="#DejaVuSans-65" transform="translate(1690.767578 0)"/>
     <use xlink:href="#DejaVuSans-20" transform="translate(1752.291016 0)"/>
     <use xlink:href="#DejaVuSans-77" transform="translate(1784.078125 0)"/>
     <use xlink:href="#DejaVuSans-20" transform="translate(1865.865234 0)"/>
     <use xlink:href="#DejaVuSans-6b" transform="translate(1897.652344 0)"/>
     <use xlink:href="#DejaVuSans-61" transform="translate(1953.8125 0)"/>
     <use xlink:href="#DejaVuSans-17c" transform="translate(2015.091797 0)"/>
     <use xlink:href="#DejaVuSans-64" transform="translate(2067.582031 0)"/>
     <use xlink:href="#DejaVuSans-65" transform="translate(2131.058594 0)"/>
     <use xlink:href="#DejaVuSans-6a" transform="translate(2192.582031 0)"/>
     <use xlink:href="#DejaVuSans-20" transform="translate(2220.365234 0)"/>
     <use xlink:href="#DejaVuSans-67" transform="translate(2252.152344 0)"/>
     <use xlink:href="#DejaVuSans-65" transform="translate(2315.628906 0)"/>
     <use xlink:href="#DejaVuSans-6e" transform="translate(2377.152344 0)"/>
     <use xlink:href="#DejaVuSans-65" transform="translate(2440.53125 0)"/>
     <use xlink:href="#DejaVuSans-72" transform="translate(2502.054688 0)"/>
     <use xlink:href="#DejaVuSans-61" transform="translate(2543.167969 0)"/>
     <use xlink:href="#DejaVuSans-63" transform="translate(2604.447266 0)"/>
     <use xlink:href="#DejaVuSans-6a" transform="translate(2659.427734 0)"/>
     <use xlink:href="#DejaVuSans-69" transform="translate(2687.210938 0)"/>
    </g>
   </g>
   <g id="legend_1">
    <g id="patch_7">
     <path d="M 279.790313 302.584 
L 407.72 302.584 
Q 409.72 302.584 409.72 300.584 
L 409.72 257.549625 
Q 409.72 255.549625 407.72 255.549625 
L 279.790313 255.549625 
Q 277.790313 255.549625 277.790313 257.549625 
L 277.790313 300.584 
Q 277.790313 302.584 279.790313 302.584 
z
" style="fill: #ffffff; opacity: 0.8; stroke: #cccccc; stroke-linejoin: miter"/>
    </g>
    <g id="line2d_24">
     <path d="M 281.790313 263.648062 
L 291.790313 263.648062 
L 301.790313 263.648062 
" style="fill: none; stroke: #0000ff; stroke-width: 1.5; stroke-linecap: square"/>
    </g>
    <g id="text_14">
     <!-- Średnia -->
     <g transform="translate(309.790313 267.148062) scale(0.1 -0.1)">
      <use xlink:href="#DejaVuSans-15a"/>
      <use xlink:href="#DejaVuSans-72" transform="translate(63.476562 0)"/>
      <use xlink:href="#DejaVuSans-65" transform="translate(102.339844 0)"/>
      <use xlink:href="#DejaVuSans-64" transform="translate(163.863281 0)"/>
      <use xlink:href="#DejaVuSans-6e" transform="translate(227.339844 0)"/>
      <use xlink:href="#DejaVuSans-69" transform="translate(290.71875 0)"/>
      <use xlink:href="#DejaVuSans-61" transform="translate(318.501953 0)"/>
     </g>
    </g>
    <g id="line2d_25">
     <path d="M 281.790313 278.326188 
L 291.790313 278.326188 
L 301.790313 278.326188 
" style="fill: none; stroke-dasharray: 9.6,2.4,1.5,2.4; stroke-dashoffset: 0; stroke: #008000; stroke-width: 1.5"/>
    </g>
    <g id="text_15">
     <!-- ±1 Odchylenie std. -->
     <g transform="translate(309.790313 281.826188) scale(0.1 -0.1)">
      <defs>
       <path id="DejaVuSans-b1" d="M 2944 4013 
L 2944 2803 
L 4684 2803 
L 4684 2272 
L 2944 2272 
L 2944 1063 
L 2419 1063 
L 2419 2272 
L 678 2272 
L 678 2803 
L 2419 2803 
L 2419 4013 
L 2944 4013 
z
M 678 531 
L 4684 531 
L 4684 0 
L 678 0 
L 678 531 
z
" transform="scale(0.015625)"/>
       <path id="DejaVuSans-4f" d="M 2522 4238 
Q 1834 4238 1429 3725 
Q 1025 3213 1025 2328 
Q 1025 1447 1429 934 
Q 1834 422 2522 422 
Q 3209 422 3611 934 
Q 4013 1447 4013 2328 
Q 4013 3213 3611 3725 
Q 3209 4238 2522 4238 
z
M 2522 4750 
Q 3503 4750 4090 4092 
Q 4678 3434 4678 2328 
Q 4678 1225 4090 567 
Q 3503 -91 2522 -91 
Q 1538 -91 948 565 
Q 359 1222 359 2328 
Q 359 3434 948 4092 
Q 1538 4750 2522 4750 
z
" transform="scale(0.015625)"/>
       <path id="DejaVuSans-68" d="M 3513 2113 
L 3513 0 
L 2938 0 
L 2938 2094 
Q 2938 2591 2744 2837 
Q 2550 3084 2163 3084 
Q 1697 3084 1428 2787 
Q 1159 2491 1159 1978 
L 1159 0 
L 581 0 
L 581 4863 
L 1159 4863 
L 1159 2956 
Q 1366 3272 1645 3428 
Q 1925 3584 2291 3584 
Q 2894 3584 3203 3211 
Q 3513 2838 3513 2113 
z
" transform="scale(0.015625)"/>
       <path id="DejaVuSans-2e" d="M 684 794 
L 1344 794 
L 1344 0 
L 684 0 
L 684 794 
z
" transform="scale(0.015625)"/>
      </defs>
      <use xlink:href="#DejaVuSans-b1"/>
      <use xlink:href="#DejaVuSans-31" transform="translate(83.789062 0)"/>
      <use xlink:href="#DejaVuSans-20" transform="translate(147.412109 0)"/>
      <use xlink:href="#DejaVuSans-4f" transform="translate(179.199219 0)"/>
      <use xlink:href="#DejaVuSans-64" transform="translate(257.910156 0)"/>
      <use xlink:href="#DejaVuSans-63" transform="translate(321.386719 0)"/>
      <use xlink:href="#DejaVuSans-68" transform="translate(376.367188 0)"/>
      <use xlink:href="#DejaVuSans-79" transform="translate(439.746094 0)"/>
      <use xlink:href="#DejaVuSans-6c" transform="translate(498.925781 0)"/>
      <use xlink:href="#DejaVuSans-65" transform="translate(526.708984 0)"/>
      <use xlink:href="#DejaVuSans-6e" transform="translate(588.232422 0)"/>
      <use xlink:href="#DejaVuSans-69" transform="translate(651.611328 0)"/>
      <use xlink:href="#DejaVuSans-65" transform="translate(679.394531 0)"/>
      <use xlink:href="#DejaVuSans-20" transform="translate(740.917969 0)"/>
      <use xlink:href="#DejaVuSans-73" transform="translate(772.705078 0)"/>
      <use xlink:href="#DejaVuSans-74" transform="translate(824.804688 0)"/>
      <use xlink:href="#DejaVuSans-64" transform="translate(864.013672 0)"/>
      <use xlink:href="#DejaVuSans-2e" transform="translate(927.490234 0)"/>
     </g>
    </g>
    <g id="line2d_26">
     <path d="M 281.790313 293.004312 
L 291.790313 293.004312 
L 301.790313 293.004312 
" style="fill: none; stroke: #ff0000; stroke-width: 1.5; stroke-linecap: square"/>
    </g>
    <g id="text_16">
     <!-- Najlepsze -->
     <g transform="translate(309.790313 296.504312) scale(0.1 -0.1)">
      <defs>
       <path id="DejaVuSans-4e" d="M 628 4666 
L 1478 4666 
L 3547 763 
L 3547 4666 
L 4159 4666 
L 4159 0 
L 3309 0 
L 1241 3903 
L 1241 0 
L 628 0 
L 628 4666 
z
" transform="scale(0.015625)"/>
      </defs>
      <use xlink:href="#DejaVuSans-4e"/>
      <use xlink:href="#DejaVuSans-61" transform="translate(74.804688 0)"/>
      <use xlink:href="#DejaVuSans-6a" transform="translate(136.083984 0)"/>
      <use xlink:href="#DejaVuSans-6c" transform="translate(163.867188 0)"/>
      <use xlink:href="#DejaVuSans-65" transform="translate(191.650391 0)"/>
      <use xlink:href="#DejaVuSans-70" transform="translate(253.173828 0)"/>
      <use xlink:href="#DejaVuSans-73" transform="translate(316.650391 0)"/>
      <use xlink:href="#DejaVuSans-7a" transform="translate(368.75 0)"/>
      <use xlink:href="#DejaVuSans-65" transform="translate(421.240234 0)"/>
     </g>
    </g>
   </g>
  </g>
 </g>
 <defs>
  <clipPath id="p486be7c4e9">
   <rect x="57.6" y="41.472" width="357.12" height="266.112"/>
  </clipPath>
 </defs>
</svg>
