<?xml version="1.0" encoding="utf-8" standalone="no"?>
<!DOCTYPE svg PUBLIC "-//W3C//DTD SVG 1.1//EN"
  "http://www.w3.org/Graphics/SVG/1.1/DTD/svg11.dtd">
<svg xmlns:xlink="http://www.w3.org/1999/xlink" width="460.8pt" height="345.6pt" viewBox="0 0 460.8 345.6" xmlns="http://www.w3.org/2000/svg" version="1.1">
 <metadata>
  <rdf:RDF xmlns:dc="http://purl.org/dc/elements/1.1/" xmlns:cc="http://creativecommons.org/ns#" xmlns:rdf="http://www.w3.org/1999/02/22-rdf-syntax-ns#">
   <cc:Work>
    <dc:type rdf:resource="http://purl.org/dc/dcmitype/StillImage"/>
    <dc:date>2026-04-27T03:30:39.152153</dc:date>
    <dc:format>image/svg+xml</dc:format>
    <dc:creator>
     <cc:Agent>
      <dc:title>Matplotlib v3.10.8, https://matplotlib.org/</dc:title>
     </cc:Agent>
    </dc:creator>
   </cc:Work>
  </rdf:RDF>
 </metadata>
 <defs>
  <style type="text/css">*{stroke-linejoin: round; stroke-linecap: butt}</style>
 </defs>
 <g id="figure_1">
  <g id="patch_1">
   <path d="M 0 345.6 
L 460.8 345.6 
L 460.8 0 
L 0 0 
z
" style="fill: #ffffff"/>
  </g>
  <g id="axes_1">
   <g id="patch_2">
    <path d="M 57.6 307.584 
L 414.72 307.584 
L 414.72 41.472 
L 57.6 41.472 
z
" style="fill: #ffffff"/>
   </g>
   <g id="matplotlib.axis_1">
    <g id="xtick_1">
     <g id="line2d_1">
      <path d="M 72.201297 307.584 
L 72.201297 41.472 
" clip-path="url(#pb9512ea39e)" style="fill: none; stroke: #b0b0b0; stroke-width: 0.8; stroke-linecap: square"/>
     </g>
     <g id="line2d_2">
      <defs>
       <path id="m684ca4bd3d" d="M 0 0 
L 0 3.5 
" style="stroke: #000000; stroke-width: 0.8"/>
      </defs>
      <g>
       <use xlink:href="#m684ca4bd3d" x="72.201297" y="307.584" style="stroke: #000000; stroke-width: 0.8"/>
      </g>
     </g>
     <g id="text_1">
      <!-- 0 -->
      <g transform="translate(69.020047 322.182437) scale(0.1 -0.1)">
       <defs>
        <path id="DejaVuSans-30" d="M 2034 4250 
Q 1547 4250 1301 3770 
Q 1056 3291 1056 2328 
Q 1056 1369 1301 889 
Q 1547 409 2034 409 
Q 2525 409 2770 889 
Q 3016 1369 3016 2328 
Q 3016 3291 2770 3770 
Q 2525 4250 2034 4250 
z
M 2034 4750 
Q 2819 4750 3233 4129 
Q 3647 3509 3647 2328 
Q 3647 1150 3233 529 
Q 2819 -91 2034 -91 
Q 1250 -91 836 529 
Q 422 1150 422 2328 
Q 422 3509 836 4129 
Q 1250 4750 2034 4750 
z
" transform="scale(0.015625)"/>
       </defs>
       <use xlink:href="#DejaVuSans-30"/>
      </g>
     </g>
    </g>
    <g id="xtick_2">
     <g id="line2d_3">
      <path d="M 112.987044 307.584 
L 112.987044 41.472 
" clip-path="url(#pb9512ea39e)" style="fill: none; stroke: #b0b0b0; stroke-width: 0.8; stroke-linecap: square"/>
     </g>
     <g id="line2d_4">
      <g>
       <use xlink:href="#m684ca4bd3d" x="112.987044" y="307.584" style="stroke: #000000; stroke-width: 0.8"/>
      </g>
     </g>
     <g id="text_2">
      <!-- 25 -->
      <g transform="translate(106.624544 322.182437) scale(0.1 -0.1)">
       <defs>
        <path id="DejaVuSans-32" d="M 1228 531 
L 3431 531 
L 3431 0 
L 469 0 
L 469 531 
Q 828 903 1448 1529 
Q 2069 2156 2228 2338 
Q 2531 2678 2651 2914 
Q 2772 3150 2772 3378 
Q 2772 3750 2511 3984 
Q 2250 4219 1831 4219 
Q 1534 4219 1204 4116 
Q 875 4013 500 3803 
L 500 4441 
Q 881 4594 1212 4672 
Q 1544 4750 1819 4750 
Q 2544 4750 2975 4387 
Q 3406 4025 3406 3419 
Q 3406 3131 3298 2873 
Q 3191 2616 2906 2266 
Q 2828 2175 2409 1742 
Q 1991 1309 1228 531 
z
" transform="scale(0.015625)"/>
        <path id="DejaVuSans-35" d="M 691 4666 
L 3169 4666 
L 3169 4134 
L 1269 4134 
L 1269 2991 
Q 1406 3038 1543 3061 
Q 1681 3084 1819 3084 
Q 2600 3084 3056 2656 
Q 3513 2228 3513 1497 
Q 3513 744 3044 326 
Q 2575 -91 1722 -91 
Q 1428 -91 1123 -41 
Q 819 9 494 109 
L 494 744 
Q 775 591 1075 516 
Q 1375 441 1709 441 
Q 2250 441 2565 725 
Q 2881 1009 2881 1497 
Q 2881 1984 2565 2268 
Q 2250 2553 1709 2553 
Q 1456 2553 1204 2497 
Q 953 2441 691 2322 
L 691 4666 
z
" transform="scale(0.015625)"/>
       </defs>
       <use xlink:href="#DejaVuSans-32"/>
       <use xlink:href="#DejaVuSans-35" transform="translate(63.623047 0)"/>
      </g>
     </g>
    </g>
    <g id="xtick_3">
     <g id="line2d_5">
      <path d="M 153.772791 307.584 
L 153.772791 41.472 
" clip-path="url(#pb9512ea39e)" style="fill: none; stroke: #b0b0b0; stroke-width: 0.8; stroke-linecap: square"/>
     </g>
     <g id="line2d_6">
      <g>
       <use xlink:href="#m684ca4bd3d" x="153.772791" y="307.584" style="stroke: #000000; stroke-width: 0.8"/>
      </g>
     </g>
     <g id="text_3">
      <!-- 50 -->
      <g transform="translate(147.410291 322.182437) scale(0.1 -0.1)">
       <use xlink:href="#DejaVuSans-35"/>
       <use xlink:href="#DejaVuSans-30" transform="translate(63.623047 0)"/>
      </g>
     </g>
    </g>
    <g id="xtick_4">
     <g id="line2d_7">
      <path d="M 194.558538 307.584 
L 194.558538 41.472 
" clip-path="url(#pb9512ea39e)" style="fill: none; stroke: #b0b0b0; stroke-width: 0.8; stroke-linecap: square"/>
     </g>
     <g id="line2d_8">
      <g>
       <use xlink:href="#m684ca4bd3d" x="194.558538" y="307.584" style="stroke: #000000; stroke-width: 0.8"/>
      </g>
     </g>
     <g id="text_4">
      <!-- 75 -->
      <g transform="translate(188.196038 322.182437) scale(0.1 -0.1)">
       <defs>
        <path id="DejaVuSans-37" d="M 525 4666 
L 3525 4666 
L 3525 4397 
L 1831 0 
L 1172 0 
L 2766 4134 
L 525 4134 
L 525 4666 
z
" transform="scale(0.015625)"/>
       </defs>
       <use xlink:href="#DejaVuSans-37"/>
       <use xlink:href="#DejaVuSans-35" transform="translate(63.623047 0)"/>
      </g>
     </g>
    </g>
    <g id="xtick_5">
     <g id="line2d_9">
      <path d="M 235.344285 307.584 
L 235.344285 41.472 
" clip-path="url(#pb9512ea39e)" style="fill: none; stroke: #b0b0b0; stroke-width: 0.8; stroke-linecap: square"/>
     </g>
     <g id="line2d_10">
      <g>
       <use xlink:href="#m684ca4bd3d" x="235.344285" y="307.584" style="stroke: #000000; stroke-width: 0.8"/>
      </g>
     </g>
     <g id="text_5">
      <!-- 100 -->
      <g transform="translate(225.800535 322.182437) scale(0.1 -0.1)">
       <defs>
        <path id="DejaVuSans-31" d="M 794 531 
L 1825 531 
L 1825 4091 
L 703 3866 
L 703 4441 
L 1819 4666 
L 2450 4666 
L 2450 531 
L 3481 531 
L 3481 0 
L 794 0 
L 794 531 
z
" transform="scale(0.015625)"/>
       </defs>
       <use xlink:href="#DejaVuSans-31"/>
       <use xlink:href="#DejaVuSans-30" transform="translate(63.623047 0)"/>
       <use xlink:href="#DejaVuSans-30" transform="translate(127.246094 0)"/>
      </g>
     </g>
    </g>
    <g id="xtick_6">
     <g id="line2d_11">
      <path d="M 276.130032 307.584 
L 276.130032 41.472 
" clip-path="url(#pb9512ea39e)" style="fill: none; stroke: #b0b0b0; stroke-width: 0.8; stroke-linecap: square"/>
     </g>
     <g id="line2d_12">
      <g>
       <use xlink:href="#m684ca4bd3d" x="276.130032" y="307.584" style="stroke: #000000; stroke-width: 0.8"/>
      </g>
     </g>
     <g id="text_6">
      <!-- 125 -->
      <g transform="translate(266.586282 322.182437) scale(0.1 -0.1)">
       <use xlink:href="#DejaVuSans-31"/>
       <use xlink:href="#DejaVuSans-32" transform="translate(63.623047 0)"/>
       <use xlink:href="#DejaVuSans-35" transform="translate(127.246094 0)"/>
      </g>
     </g>
    </g>
    <g id="xtick_7">
     <g id="line2d_13">
      <path d="M 316.915779 307.584 
L 316.915779 41.472 
" clip-path="url(#pb9512ea39e)" style="fill: none; stroke: #b0b0b0; stroke-width: 0.8; stroke-linecap: square"/>
     </g>
     <g id="line2d_14">
      <g>
       <use xlink:href="#m684ca4bd3d" x="316.915779" y="307.584" style="stroke: #000000; stroke-width: 0.8"/>
      </g>
     </g>
     <g id="text_7">
      <!-- 150 -->
      <g transform="translate(307.372029 322.182437) scale(0.1 -0.1)">
       <use xlink:href="#DejaVuSans-31"/>
       <use xlink:href="#DejaVuSans-35" transform="translate(63.623047 0)"/>
       <use xlink:href="#DejaVuSans-30" transform="translate(127.246094 0)"/>
      </g>
     </g>
    </g>
    <g id="xtick_8">
     <g id="line2d_15">
      <path d="M 357.701526 307.584 
L 357.701526 41.472 
" clip-path="url(#pb9512ea39e)" style="fill: none; stroke: #b0b0b0; stroke-width: 0.8; stroke-linecap: square"/>
     </g>
     <g id="line2d_16">
      <g>
       <use xlink:href="#m684ca4bd3d" x="357.701526" y="307.584" style="stroke: #000000; stroke-width: 0.8"/>
      </g>
     </g>
     <g id="text_8">
      <!-- 175 -->
      <g transform="translate(348.157776 322.182437) scale(0.1 -0.1)">
       <use xlink:href="#DejaVuSans-31"/>
       <use xlink:href="#DejaVuSans-37" transform="translate(63.623047 0)"/>
       <use xlink:href="#DejaVuSans-35" transform="translate(127.246094 0)"/>
      </g>
     </g>
    </g>
    <g id="xtick_9">
     <g id="line2d_17">
      <path d="M 398.487273 307.584 
L 398.487273 41.472 
" clip-path="url(#pb9512ea39e)" style="fill: none; stroke: #b0b0b0; stroke-width: 0.8; stroke-linecap: square"/>
     </g>
     <g id="line2d_18">
      <g>
       <use xlink:href="#m684ca4bd3d" x="398.487273" y="307.584" style="stroke: #000000; stroke-width: 0.8"/>
      </g>
     </g>
     <g id="text_9">
      <!-- 200 -->
      <g transform="translate(388.943523 322.182437) scale(0.1 -0.1)">
       <use xlink:href="#DejaVuSans-32"/>
       <use xlink:href="#DejaVuSans-30" transform="translate(63.623047 0)"/>
       <use xlink:href="#DejaVuSans-30" transform="translate(127.246094 0)"/>
      </g>
     </g>
    </g>
    <g id="text_10">
     <!-- Generacje -->
     <g transform="translate(210.629531 335.860562) scale(0.1 -0.1)">
      <defs>
       <path id="DejaVuSans-47" d="M 3809 666 
L 3809 1919 
L 2778 1919 
L 2778 2438 
L 4434 2438 
L 4434 434 
Q 4069 175 3628 42 
Q 3188 -91 2688 -91 
Q 1594 -91 976 548 
Q 359 1188 359 2328 
Q 359 3472 976 4111 
Q 1594 4750 2688 4750 
Q 3144 4750 3555 4637 
Q 3966 4525 4313 4306 
L 4313 3634 
Q 3963 3931 3569 4081 
Q 3175 4231 2741 4231 
Q 1884 4231 1454 3753 
Q 1025 3275 1025 2328 
Q 1025 1384 1454 906 
Q 1884 428 2741 428 
Q 3075 428 3337 486 
Q 3600 544 3809 666 
z
" transform="scale(0.015625)"/>
       <path id="DejaVuSans-65" d="M 3597 1894 
L 3597 1613 
L 953 1613 
Q 991 1019 1311 708 
Q 1631 397 2203 397 
Q 2534 397 2845 478 
Q 3156 559 3463 722 
L 3463 178 
Q 3153 47 2828 -22 
Q 2503 -91 2169 -91 
Q 1331 -91 842 396 
Q 353 884 353 1716 
Q 353 2575 817 3079 
Q 1281 3584 2069 3584 
Q 2775 3584 3186 3129 
Q 3597 2675 3597 1894 
z
M 3022 2063 
Q 3016 2534 2758 2815 
Q 2500 3097 2075 3097 
Q 1594 3097 1305 2825 
Q 1016 2553 972 2059 
L 3022 2063 
z
" transform="scale(0.015625)"/>
       <path id="DejaVuSans-6e" d="M 3513 2113 
L 3513 0 
L 2938 0 
L 2938 2094 
Q 2938 2591 2744 2837 
Q 2550 3084 2163 3084 
Q 1697 3084 1428 2787 
Q 1159 2491 1159 1978 
L 1159 0 
L 581 0 
L 581 3500 
L 1159 3500 
L 1159 2956 
Q 1366 3272 1645 3428 
Q 1925 3584 2291 3584 
Q 2894 3584 3203 3211 
Q 3513 2838 3513 2113 
z
" transform="scale(0.015625)"/>
       <path id="DejaVuSans-72" d="M 2631 2963 
Q 2534 3019 2420 3045 
Q 2306 3072 2169 3072 
Q 1681 3072 1420 2755 
Q 1159 2438 1159 1844 
L 1159 0 
L 581 0 
L 581 3500 
L 1159 3500 
L 1159 2956 
Q 1341 3275 1631 3429 
Q 1922 3584 2338 3584 
Q 2397 3584 2469 3576 
Q 2541 3569 2628 3553 
L 2631 2963 
z
" transform="scale(0.015625)"/>
       <path id="DejaVuSans-61" d="M 2194 1759 
Q 1497 1759 1228 1600 
Q 959 1441 959 1056 
Q 959 750 1161 570 
Q 1363 391 1709 391 
Q 2188 391 2477 730 
Q 2766 1069 2766 1631 
L 2766 1759 
L 2194 1759 
z
M 3341 1997 
L 3341 0 
L 2766 0 
L 2766 531 
Q 2569 213 2275 61 
Q 1981 -91 1556 -91 
Q 1019 -91 701 211 
Q 384 513 384 1019 
Q 384 1609 779 1909 
Q 1175 2209 1959 2209 
L 2766 2209 
L 2766 2266 
Q 2766 2663 2505 2880 
Q 2244 3097 1772 3097 
Q 1472 3097 1187 3025 
Q 903 2953 641 2809 
L 641 3341 
Q 956 3463 1253 3523 
Q 1550 3584 1831 3584 
Q 2591 3584 2966 3190 
Q 3341 2797 3341 1997 
z
" transform="scale(0.015625)"/>
       <path id="DejaVuSans-63" d="M 3122 3366 
L 3122 2828 
Q 2878 2963 2633 3030 
Q 2388 3097 2138 3097 
Q 1578 3097 1268 2742 
Q 959 2388 959 1747 
Q 959 1106 1268 751 
Q 1578 397 2138 397 
Q 2388 397 2633 464 
Q 2878 531 3122 666 
L 3122 134 
Q 2881 22 2623 -34 
Q 2366 -91 2075 -91 
Q 1284 -91 818 406 
Q 353 903 353 1747 
Q 353 2603 823 3093 
Q 1294 3584 2113 3584 
Q 2378 3584 2631 3529 
Q 2884 3475 3122 3366 
z
" transform="scale(0.015625)"/>
       <path id="DejaVuSans-6a" d="M 603 3500 
L 1178 3500 
L 1178 -63 
Q 1178 -731 923 -1031 
Q 669 -1331 103 -1331 
L -116 -1331 
L -116 -844 
L 38 -844 
Q 366 -844 484 -692 
Q 603 -541 603 -63 
L 603 3500 
z
M 603 4863 
L 1178 4863 
L 1178 4134 
L 603 4134 
L 603 4863 
z
" transform="scale(0.015625)"/>
      </defs>
      <use xlink:href="#DejaVuSans-47"/>
      <use xlink:href="#DejaVuSans-65" transform="translate(77.490234 0)"/>
      <use xlink:href="#DejaVuSans-6e" transform="translate(139.013672 0)"/>
      <use xlink:href="#DejaVuSans-65" transform="translate(202.392578 0)"/>
      <use xlink:href="#DejaVuSans-72" transform="translate(263.916016 0)"/>
      <use xlink:href="#DejaVuSans-61" transform="translate(305.029297 0)"/>
      <use xlink:href="#DejaVuSans-63" transform="translate(366.308594 0)"/>
      <use xlink:href="#DejaVuSans-6a" transform="translate(421.289062 0)"/>
      <use xlink:href="#DejaVuSans-65" transform="translate(449.072266 0)"/>
     </g>
    </g>
   </g>
   <g id="matplotlib.axis_2">
    <g id="ytick_1">
     <g id="line2d_19">
      <path d="M 57.6 112.244635 
L 414.72 112.244635 
" clip-path="url(#pb9512ea39e)" style="fill: none; stroke: #b0b0b0; stroke-width: 0.8; stroke-linecap: square"/>
     </g>
     <g id="line2d_20">
      <defs>
       <path id="m9b3f93924e" d="M 0 0 
L -3.5 0 
" style="stroke: #000000; stroke-width: 0.8"/>
      </defs>
      <g>
       <use xlink:href="#m9b3f93924e" x="57.6" y="112.244635" style="stroke: #000000; stroke-width: 0.8"/>
      </g>
     </g>
     <g id="text_11">
      <!-- $\mathdefault{10^{2}}$ -->
      <g transform="translate(33 116.043854) scale(0.1 -0.1)">
       <use xlink:href="#DejaVuSans-31" transform="translate(0 0.765625)"/>
       <use xlink:href="#DejaVuSans-30" transform="translate(63.623047 0.765625)"/>
       <use xlink:href="#DejaVuSans-32" transform="translate(128.203125 39.046875) scale(0.7)"/>
      </g>
     </g>
    </g>
    <g id="text_12">
     <!-- Przystosowanie -->
     <g transform="translate(26.920312 213.170187) rotate(-90) scale(0.1 -0.1)">
      <defs>
       <path id="DejaVuSans-50" d="M 1259 4147 
L 1259 2394 
L 2053 2394 
Q 2494 2394 2734 2622 
Q 2975 2850 2975 3272 
Q 2975 3691 2734 3919 
Q 2494 4147 2053 4147 
L 1259 4147 
z
M 628 4666 
L 2053 4666 
Q 2838 4666 3239 4311 
Q 3641 3956 3641 3272 
Q 3641 2581 3239 2228 
Q 2838 1875 2053 1875 
L 1259 1875 
L 1259 0 
L 628 0 
L 628 4666 
z
" transform="scale(0.015625)"/>
       <path id="DejaVuSans-7a" d="M 353 3500 
L 3084 3500 
L 3084 2975 
L 922 459 
L 3084 459 
L 3084 0 
L 275 0 
L 275 525 
L 2438 3041 
L 353 3041 
L 353 3500 
z
" transform="scale(0.015625)"/>
       <path id="DejaVuSans-79" d="M 2059 -325 
Q 1816 -950 1584 -1140 
Q 1353 -1331 966 -1331 
L 506 -1331 
L 506 -850 
L 844 -850 
Q 1081 -850 1212 -737 
Q 1344 -625 1503 -206 
L 1606 56 
L 191 3500 
L 800 3500 
L 1894 763 
L 2988 3500 
L 3597 3500 
L 2059 -325 
z
" transform="scale(0.015625)"/>
       <path id="DejaVuSans-73" d="M 2834 3397 
L 2834 2853 
Q 2591 2978 2328 3040 
Q 2066 3103 1784 3103 
Q 1356 3103 1142 2972 
Q 928 2841 928 2578 
Q 928 2378 1081 2264 
Q 1234 2150 1697 2047 
L 1894 2003 
Q 2506 1872 2764 1633 
Q 3022 1394 3022 966 
Q 3022 478 2636 193 
Q 2250 -91 1575 -91 
Q 1294 -91 989 -36 
Q 684 19 347 128 
L 347 722 
Q 666 556 975 473 
Q 1284 391 1588 391 
Q 1994 391 2212 530 
Q 2431 669 2431 922 
Q 2431 1156 2273 1281 
Q 2116 1406 1581 1522 
L 1381 1569 
Q 847 1681 609 1914 
Q 372 2147 372 2553 
Q 372 3047 722 3315 
Q 1072 3584 1716 3584 
Q 2034 3584 2315 3537 
Q 2597 3491 2834 3397 
z
" transform="scale(0.015625)"/>
       <path id="DejaVuSans-74" d="M 1172 4494 
L 1172 3500 
L 2356 3500 
L 2356 3053 
L 1172 3053 
L 1172 1153 
Q 1172 725 1289 603 
Q 1406 481 1766 481 
L 2356 481 
L 2356 0 
L 1766 0 
Q 1100 0 847 248 
Q 594 497 594 1153 
L 594 3053 
L 172 3053 
L 172 3500 
L 594 3500 
L 594 4494 
L 1172 4494 
z
" transform="scale(0.015625)"/>
       <path id="DejaVuSans-6f" d="M 1959 3097 
Q 1497 3097 1228 2736 
Q 959 2375 959 1747 
Q 959 1119 1226 758 
Q 1494 397 1959 397 
Q 2419 397 2687 759 
Q 2956 1122 2956 1747 
Q 2956 2369 2687 2733 
Q 2419 3097 1959 3097 
z
M 1959 3584 
Q 2709 3584 3137 3096 
Q 3566 2609 3566 1747 
Q 3566 888 3137 398 
Q 2709 -91 1959 -91 
Q 1206 -91 779 398 
Q 353 888 353 1747 
Q 353 2609 779 3096 
Q 1206 3584 1959 3584 
z
" transform="scale(0.015625)"/>
       <path id="DejaVuSans-77" d="M 269 3500 
L 844 3500 
L 1563 769 
L 2278 3500 
L 2956 3500 
L 3675 769 
L 4391 3500 
L 4966 3500 
L 4050 0 
L 3372 0 
L 2619 2869 
L 1863 0 
L 1184 0 
L 269 3500 
z
" transform="scale(0.015625)"/>
       <path id="DejaVuSans-69" d="M 603 3500 
L 1178 3500 
L 1178 0 
L 603 0 
L 603 3500 
z
M 603 4863 
L 1178 4863 
L 1178 4134 
L 603 4134 
L 603 4863 
z
" transform="scale(0.015625)"/>
      </defs>
      <use xlink:href="#DejaVuSans-50"/>
      <use xlink:href="#DejaVuSans-72" transform="translate(58.552734 0)"/>
      <use xlink:href="#DejaVuSans-7a" transform="translate(99.666016 0)"/>
      <use xlink:href="#DejaVuSans-79" transform="translate(152.15625 0)"/>
      <use xlink:href="#DejaVuSans-73" transform="translate(211.335938 0)"/>
      <use xlink:href="#DejaVuSans-74" transform="translate(263.435547 0)"/>
      <use xlink:href="#DejaVuSans-6f" transform="translate(302.644531 0)"/>
      <use xlink:href="#DejaVuSans-73" transform="translate(363.826172 0)"/>
      <use xlink:href="#DejaVuSans-6f" transform="translate(415.925781 0)"/>
      <use xlink:href="#DejaVuSans-77" transform="translate(477.107422 0)"/>
      <use xlink:href="#DejaVuSans-61" transform="translate(558.894531 0)"/>
      <use xlink:href="#DejaVuSans-6e" transform="translate(620.173828 0)"/>
      <use xlink:href="#DejaVuSans-69" transform="translate(683.552734 0)"/>
      <use xlink:href="#DejaVuSans-65" transform="translate(711.335938 0)"/>
     </g>
    </g>
   </g>
   <g id="line2d_21">
    <path d="M 73.832727 295.488 
L 75.464157 221.273189 
L 77.095587 174.412909 
L 78.727017 164.565202 
L 80.358447 156.410622 
L 81.989877 157.203404 
L 83.621307 150.565592 
L 85.252736 147.905732 
L 86.884166 146.041092 
L 88.515596 142.620265 
L 90.147026 141.381689 
L 91.778456 138.74676 
L 93.409886 139.611699 
L 95.041316 139.310694 
L 98.304175 137.460972 
L 99.935605 140.244939 
L 101.567035 141.308848 
L 103.198465 139.255772 
L 104.829895 138.328961 
L 106.461325 133.952257 
L 108.092755 136.108489 
L 109.724185 136.50198 
L 111.355614 137.972366 
L 112.987044 134.149294 
L 114.618474 135.216973 
L 116.249904 134.238016 
L 117.881334 135.181323 
L 119.512764 135.091567 
L 121.144194 137.354689 
L 122.775624 136.59578 
L 124.407053 134.084151 
L 126.038483 134.33155 
L 127.669913 133.971032 
L 129.301343 134.148188 
L 130.932773 132.687125 
L 132.564203 132.840688 
L 134.195633 134.169851 
L 135.827063 133.554305 
L 137.458492 132.530964 
L 139.089922 135.745365 
L 140.721352 136.537554 
L 142.352782 135.499314 
L 143.984212 137.100647 
L 145.615642 134.754989 
L 147.247072 134.532329 
L 148.878502 133.856676 
L 150.509931 132.576592 
L 152.141361 132.835944 
L 153.772791 134.327845 
L 155.404221 131.103508 
L 157.035651 130.874486 
L 158.667081 131.671541 
L 160.298511 131.066812 
L 161.929941 132.080343 
L 163.56137 135.479645 
L 165.1928 132.543777 
L 166.82423 132.90492 
L 168.45566 133.751973 
L 170.08709 132.710883 
L 171.71852 132.877452 
L 173.34995 131.755977 
L 174.98138 133.945984 
L 178.244239 132.273596 
L 179.875669 132.862755 
L 181.507099 133.258622 
L 183.138529 130.519326 
L 184.769959 131.416929 
L 186.401389 131.834429 
L 188.032819 131.943072 
L 189.664249 131.118642 
L 191.295678 130.126659 
L 192.927108 131.996743 
L 194.558538 131.316965 
L 196.189968 131.907929 
L 197.821398 129.917706 
L 199.452828 132.102123 
L 201.084258 131.168552 
L 202.715688 132.463644 
L 205.978547 130.267046 
L 207.609977 131.182189 
L 209.241407 130.365247 
L 210.872837 129.815455 
L 212.504267 129.131921 
L 214.135697 130.484672 
L 215.767127 131.105881 
L 217.398556 129.451571 
L 219.029986 129.756711 
L 220.661416 131.862487 
L 222.292846 131.582426 
L 223.924276 132.369457 
L 225.555706 132.135375 
L 227.187136 134.205991 
L 228.818566 132.278174 
L 230.449995 132.161771 
L 232.081425 132.176877 
L 233.712855 131.087519 
L 235.344285 130.675273 
L 236.975715 131.032114 
L 238.607145 132.141716 
L 240.238575 129.523396 
L 241.870005 131.673503 
L 243.501434 132.696631 
L 245.132864 132.000219 
L 246.764294 132.18502 
L 248.395724 130.721565 
L 250.027154 130.388109 
L 251.658584 130.756464 
L 253.290014 131.328191 
L 254.921444 133.10707 
L 256.552873 130.060883 
L 258.184303 130.583011 
L 259.815733 131.612227 
L 263.078593 131.872777 
L 264.710023 129.565489 
L 266.341453 131.431255 
L 267.972883 131.699196 
L 269.604312 131.200942 
L 271.235742 131.321258 
L 272.867172 129.892272 
L 274.498602 131.093543 
L 276.130032 130.70893 
L 277.761462 131.094408 
L 279.392892 129.792346 
L 281.024322 133.031582 
L 282.655751 130.869498 
L 284.287181 131.694487 
L 285.918611 130.296323 
L 287.550041 130.298172 
L 289.181471 129.71643 
L 290.812901 130.996456 
L 292.444331 129.350643 
L 294.075761 130.735129 
L 295.70719 131.227792 
L 297.33862 130.391709 
L 298.97005 131.096812 
L 300.60148 130.873973 
L 302.23291 131.961579 
L 303.86434 131.77067 
L 305.49577 131.356039 
L 307.1272 131.93294 
L 308.75863 130.249678 
L 310.390059 132.213092 
L 312.021489 131.255866 
L 315.284349 132.083042 
L 316.915779 132.025316 
L 318.547209 130.847383 
L 320.178639 132.317639 
L 321.810069 131.725945 
L 323.441498 129.778511 
L 325.072928 130.296068 
L 326.704358 131.008513 
L 328.335788 129.334565 
L 329.967218 131.408801 
L 331.598648 132.669759 
L 333.230078 131.244726 
L 334.861508 131.940366 
L 336.492937 131.08698 
L 338.124367 133.062676 
L 339.755797 131.430021 
L 341.387227 131.566139 
L 343.018657 131.183698 
L 344.650087 131.030867 
L 346.281517 131.202347 
L 347.912947 130.185791 
L 349.544376 130.734688 
L 351.175806 130.575256 
L 352.807236 130.694178 
L 354.438666 131.369537 
L 356.070096 130.241166 
L 357.701526 130.330828 
L 359.332956 131.053794 
L 360.964386 130.988377 
L 362.595815 128.485408 
L 364.227245 130.15852 
L 365.858675 130.862456 
L 367.490105 130.330769 
L 369.121535 130.785399 
L 370.752965 130.829757 
L 372.384395 129.846443 
L 374.015825 130.101434 
L 375.647254 131.299187 
L 377.278684 131.972954 
L 378.910114 130.902256 
L 380.541544 131.798803 
L 382.172974 129.909947 
L 383.804404 129.651047 
L 385.435834 130.025615 
L 387.067264 130.844508 
L 388.698693 130.010121 
L 390.330123 129.369357 
L 391.961553 130.747657 
L 395.224413 131.664755 
L 396.855843 131.406607 
L 398.487273 129.827427 
L 398.487273 129.827427 
" clip-path="url(#pb9512ea39e)" style="fill: none; stroke: #0000ff; stroke-width: 1.5; stroke-linecap: square"/>
   </g>
   <g id="line2d_22">
    <path d="M 73.832727 242.037646 
L 75.464157 164.969371 
L 77.095587 132.471812 
L 78.727017 124.998284 
L 80.358447 124.043306 
L 81.989877 121.161849 
L 83.621307 124.04915 
L 85.252736 120.265378 
L 86.884166 122.112929 
L 88.515596 122.012333 
L 90.147026 124.293514 
L 91.778456 122.404993 
L 93.409886 123.61236 
L 95.041316 122.052152 
L 96.672746 123.237329 
L 98.304175 122.351473 
L 99.935605 122.315778 
L 101.567035 119.207739 
L 103.198465 117.849196 
L 104.829895 120.394421 
L 106.461325 116.390398 
L 108.092755 113.830611 
L 109.724185 113.606517 
L 111.355614 118.316081 
L 112.987044 116.97876 
L 114.618474 118.892194 
L 116.249904 118.382826 
L 117.881334 114.778547 
L 119.512764 114.782434 
L 121.144194 120.78746 
L 122.775624 118.211057 
L 124.407053 117.437765 
L 126.038483 116.081212 
L 127.669913 114.206799 
L 129.301343 117.544926 
L 130.932773 116.38409 
L 132.564203 112.020641 
L 134.195633 115.287532 
L 135.827063 115.520282 
L 137.458492 118.270212 
L 139.089922 115.636925 
L 140.721352 111.281189 
L 142.352782 114.958635 
L 143.984212 111.800707 
L 145.615642 115.005781 
L 147.247072 115.359236 
L 148.878502 120.348478 
L 150.509931 114.304462 
L 152.141361 109.452037 
L 153.772791 113.114909 
L 155.404221 114.552092 
L 157.035651 116.481973 
L 158.667081 115.189514 
L 160.298511 115.782891 
L 161.929941 115.128773 
L 163.56137 112.766996 
L 165.1928 116.635125 
L 166.82423 114.680102 
L 168.45566 115.086103 
L 170.08709 115.88055 
L 171.71852 114.365313 
L 173.34995 116.014788 
L 174.98138 113.607559 
L 176.61281 114.451238 
L 178.244239 113.967949 
L 179.875669 112.218251 
L 181.507099 115.695408 
L 183.138529 113.796779 
L 184.769959 113.540236 
L 186.401389 114.195363 
L 188.032819 116.591404 
L 189.664249 116.973054 
L 191.295678 115.350568 
L 192.927108 112.454163 
L 194.558538 114.824121 
L 196.189968 113.918579 
L 197.821398 115.32877 
L 199.452828 113.23967 
L 201.084258 116.321952 
L 202.715688 116.217298 
L 204.347117 114.019519 
L 205.978547 112.211667 
L 207.609977 115.724292 
L 209.241407 114.34561 
L 210.872837 113.613103 
L 212.504267 114.554306 
L 214.135697 110.549322 
L 215.767127 116.317157 
L 217.398556 113.372432 
L 219.029986 114.564661 
L 220.661416 114.463206 
L 222.292846 114.761385 
L 223.924276 116.312534 
L 225.555706 112.970937 
L 227.187136 113.641791 
L 228.818566 110.156269 
L 230.449995 113.216275 
L 232.081425 111.691585 
L 235.344285 115.108954 
L 236.975715 112.155664 
L 238.607145 117.061827 
L 240.238575 113.411006 
L 241.870005 115.886443 
L 243.501434 118.657737 
L 245.132864 116.779172 
L 246.764294 116.599546 
L 248.395724 115.129501 
L 250.027154 115.307833 
L 251.658584 115.211009 
L 253.290014 114.228574 
L 254.921444 117.799923 
L 256.552873 113.404722 
L 258.184303 116.39078 
L 259.815733 114.710302 
L 261.447163 117.376675 
L 263.078593 117.419951 
L 264.710023 112.896329 
L 266.341453 115.463134 
L 267.972883 115.966066 
L 269.604312 115.052425 
L 272.867172 115.47627 
L 274.498602 116.801685 
L 276.130032 116.455043 
L 277.761462 116.624779 
L 279.392892 113.602462 
L 281.024322 120.098362 
L 282.655751 116.000107 
L 284.287181 117.640026 
L 285.918611 114.609451 
L 287.550041 115.286192 
L 289.181471 114.318904 
L 290.812901 116.608793 
L 292.444331 114.508163 
L 294.075761 114.317215 
L 295.70719 115.555225 
L 297.33862 115.105389 
L 298.97005 116.627522 
L 300.60148 116.005687 
L 302.23291 114.886588 
L 303.86434 114.938707 
L 305.49577 114.544402 
L 307.1272 113.572065 
L 308.75863 115.759194 
L 310.390059 116.656161 
L 312.021489 115.72654 
L 315.284349 116.691881 
L 316.915779 117.581911 
L 318.547209 116.176688 
L 320.178639 118.976099 
L 323.441498 114.088328 
L 325.072928 115.264812 
L 326.704358 114.945256 
L 328.335788 113.662971 
L 329.967218 115.833115 
L 331.598648 116.893575 
L 333.230078 117.40412 
L 334.861508 115.473761 
L 336.492937 117.254932 
L 338.124367 116.788303 
L 339.755797 115.306466 
L 341.387227 116.949081 
L 343.018657 114.571131 
L 344.650087 114.145751 
L 347.912947 115.34457 
L 349.544376 114.330102 
L 351.175806 115.344479 
L 352.807236 113.955246 
L 354.438666 116.67245 
L 356.070096 116.116731 
L 357.701526 114.528206 
L 359.332956 117.244466 
L 360.964386 116.320667 
L 362.595815 113.392044 
L 364.227245 114.574185 
L 365.858675 116.324154 
L 367.490105 115.339219 
L 369.121535 113.952824 
L 370.752965 115.590139 
L 372.384395 113.335664 
L 374.015825 116.153059 
L 375.647254 116.759197 
L 377.278684 117.224534 
L 378.910114 117.341067 
L 380.541544 115.523109 
L 382.172974 114.211744 
L 385.435834 113.852048 
L 387.067264 116.34695 
L 390.330123 113.747022 
L 391.961553 116.200439 
L 393.592983 117.045379 
L 395.224413 114.199779 
L 396.855843 114.398306 
L 398.487273 114.168258 
L 398.487273 114.168258 
" clip-path="url(#pb9512ea39e)" style="fill: none; stroke-dasharray: 9.6,2.4,1.5,2.4; stroke-dashoffset: 0; stroke: #008000; stroke-width: 1.5"/>
   </g>
   <g id="line2d_23">
    <path d="M 73.832727 141.78428 
L 75.464157 117.546857 
L 77.095587 99.816769 
L 78.727017 98.244677 
L 80.358447 109.13619 
L 81.989877 102.758813 
L 83.621307 106.042996 
L 85.252736 104.475872 
L 86.884166 108.055186 
L 88.515596 99.769221 
L 90.147026 96.754532 
L 91.778456 101.386715 
L 93.409886 102.884922 
L 95.041316 99.473916 
L 96.672746 104.780823 
L 99.935605 98.100756 
L 101.567035 106.070861 
L 103.198465 91.760787 
L 104.829895 92.193398 
L 106.461325 80.461814 
L 108.092755 99.659815 
L 109.724185 94.853784 
L 111.355614 91.998742 
L 112.987044 76.440512 
L 114.618474 88.225357 
L 116.249904 91.96983 
L 117.881334 88.981099 
L 121.144194 91.981675 
L 122.775624 90.286053 
L 124.407053 93.09159 
L 126.038483 95.007245 
L 127.669913 87.071099 
L 129.301343 96.423639 
L 130.932773 96.431401 
L 132.564203 83.853395 
L 134.195633 74.855146 
L 135.827063 87.405231 
L 137.458492 81.982274 
L 139.089922 65.488468 
L 140.721352 87.543993 
L 142.352782 73.71328 
L 143.984212 74.939565 
L 145.615642 83.439148 
L 147.247072 81.503586 
L 148.878502 94.719005 
L 150.509931 79.044758 
L 152.141361 80.582566 
L 153.772791 83.266866 
L 155.404221 73.656961 
L 157.035651 84.670308 
L 158.667081 85.727779 
L 160.298511 76.380714 
L 161.929941 87.128492 
L 163.56137 96.911953 
L 165.1928 84.417111 
L 166.82423 76.441762 
L 168.45566 94.765742 
L 170.08709 83.284689 
L 171.71852 79.128827 
L 173.34995 78.930036 
L 174.98138 85.895354 
L 176.61281 76.565941 
L 178.244239 72.015611 
L 179.875669 89.429512 
L 181.507099 79.07357 
L 183.138529 84.728833 
L 184.769959 61.914085 
L 186.401389 90.548899 
L 188.032819 74.571705 
L 189.664249 90.469864 
L 191.295678 84.626095 
L 192.927108 77.906298 
L 194.558538 90.532165 
L 196.189968 73.39159 
L 197.821398 87.621584 
L 199.452828 84.797567 
L 201.084258 93.616455 
L 202.715688 84.868185 
L 204.347117 69.782921 
L 205.978547 84.903761 
L 207.609977 81.662036 
L 209.241407 86.250297 
L 210.872837 81.947341 
L 212.504267 80.277548 
L 214.135697 76.318552 
L 215.767127 88.858264 
L 217.398556 73.485152 
L 219.029986 86.188354 
L 220.661416 79.408336 
L 222.292846 78.648331 
L 223.924276 91.779017 
L 225.555706 90.441234 
L 227.187136 86.254446 
L 228.818566 67.146841 
L 230.449995 80.493216 
L 232.081425 62.081048 
L 233.712855 82.998338 
L 235.344285 86.141954 
L 236.975715 76.331646 
L 238.607145 92.091051 
L 240.238575 77.54825 
L 241.870005 85.112972 
L 243.501434 76.091039 
L 245.132864 86.416206 
L 246.764294 86.479666 
L 248.395724 81.945367 
L 250.027154 78.777987 
L 251.658584 80.79062 
L 253.290014 74.610513 
L 254.921444 97.797572 
L 256.552873 86.187556 
L 258.184303 84.60062 
L 259.815733 64.827925 
L 261.447163 87.374034 
L 263.078593 83.141039 
L 264.710023 83.195609 
L 266.341453 84.726386 
L 267.972883 91.981262 
L 269.604312 80.591966 
L 271.235742 73.31852 
L 272.867172 84.472188 
L 274.498602 83.330709 
L 276.130032 90.896966 
L 277.761462 79.684216 
L 279.392892 79.46336 
L 281.024322 88.748968 
L 282.655751 83.232787 
L 284.287181 86.541934 
L 285.918611 84.016348 
L 287.550041 90.448496 
L 289.181471 69.538294 
L 290.812901 92.233243 
L 292.444331 73.597077 
L 294.075761 83.22538 
L 295.70719 53.568 
L 297.33862 79.204426 
L 298.97005 80.14837 
L 300.60148 81.834536 
L 302.23291 84.460135 
L 303.86434 91.916808 
L 305.49577 89.22991 
L 307.1272 78.134597 
L 308.75863 82.999226 
L 310.390059 71.058082 
L 312.021489 80.544399 
L 313.652919 83.070077 
L 315.284349 87.482919 
L 316.915779 89.330888 
L 318.547209 80.306832 
L 320.178639 77.691227 
L 321.810069 85.112505 
L 323.441498 72.199432 
L 325.072928 86.019897 
L 326.704358 73.887133 
L 328.335788 86.316746 
L 329.967218 89.151663 
L 331.598648 80.626753 
L 333.230078 93.189094 
L 334.861508 81.807736 
L 336.492937 88.114246 
L 338.124367 71.191107 
L 339.755797 80.459481 
L 341.387227 94.86947 
L 343.018657 91.718028 
L 344.650087 89.23258 
L 346.281517 80.040126 
L 347.912947 86.290844 
L 349.544376 82.075098 
L 351.175806 76.163458 
L 352.807236 77.47999 
L 354.438666 87.624613 
L 356.070096 83.004034 
L 357.701526 80.747904 
L 359.332956 91.628203 
L 362.595815 65.631512 
L 364.227245 64.526765 
L 365.858675 75.229542 
L 367.490105 84.713934 
L 369.121535 85.085143 
L 370.752965 81.660342 
L 372.384395 73.698323 
L 374.015825 90.398124 
L 375.647254 77.644274 
L 377.278684 78.099239 
L 378.910114 96.19321 
L 380.541544 88.162006 
L 382.172974 66.728206 
L 383.804404 69.832891 
L 385.435834 66.036823 
L 387.067264 82.009126 
L 388.698693 76.246961 
L 390.330123 86.119066 
L 391.961553 89.386689 
L 393.592983 85.435793 
L 395.224413 83.798538 
L 396.855843 77.707998 
L 398.487273 80.428313 
L 398.487273 80.428313 
" clip-path="url(#pb9512ea39e)" style="fill: none; stroke: #ff0000; stroke-width: 1.5; stroke-linecap: square"/>
   </g>
   <g id="patch_3">
    <path d="M 57.6 307.584 
L 57.6 41.472 
" style="fill: none; stroke: #000000; stroke-width: 0.8; stroke-linejoin: miter; stroke-linecap: square"/>
   </g>
   <g id="patch_4">
    <path d="M 414.72 307.584 
L 414.72 41.472 
" style="fill: none; stroke: #000000; stroke-width: 0.8; stroke-linejoin: miter; stroke-linecap: square"/>
   </g>
   <g id="patch_5">
    <path d="M 57.6 307.584 
L 414.72 307.584 
" style="fill: none; stroke: #000000; stroke-width: 0.8; stroke-linejoin: miter; stroke-linecap: square"/>
   </g>
   <g id="patch_6">
    <path d="M 57.6 41.472 
L 414.72 41.472 
" style="fill: none; stroke: #000000; stroke-width: 0.8; stroke-linejoin: miter; stroke-linecap: square"/>
   </g>
   <g id="text_13">
    <!-- Średnie i najlepsze przystosowanie w każdej generacji -->
    <g transform="translate(73.26 35.472) scale(0.12 -0.12)">
     <defs>
      <path id="DejaVuSans-15a" d="M 2236 5921 
L 2814 5921 
L 2102 5096 
L 1623 5096 
L 2236 5921 
z
M 3425 4513 
L 3425 3897 
Q 3066 4069 2747 4153 
Q 2428 4238 2131 4238 
Q 1616 4238 1336 4038 
Q 1056 3838 1056 3469 
Q 1056 3159 1242 3001 
Q 1428 2844 1947 2747 
L 2328 2669 
Q 3034 2534 3370 2195 
Q 3706 1856 3706 1288 
Q 3706 609 3251 259 
Q 2797 -91 1919 -91 
Q 1588 -91 1214 -16 
Q 841 59 441 206 
L 441 856 
Q 825 641 1194 531 
Q 1563 422 1919 422 
Q 2459 422 2753 634 
Q 3047 847 3047 1241 
Q 3047 1584 2836 1778 
Q 2625 1972 2144 2069 
L 1759 2144 
Q 1053 2284 737 2584 
Q 422 2884 422 3419 
Q 422 4038 858 4394 
Q 1294 4750 2059 4750 
Q 2388 4750 2728 4690 
Q 3069 4631 3425 4513 
z
" transform="scale(0.015625)"/>
      <path id="DejaVuSans-64" d="M 2906 2969 
L 2906 4863 
L 3481 4863 
L 3481 0 
L 2906 0 
L 2906 525 
Q 2725 213 2448 61 
Q 2172 -91 1784 -91 
Q 1150 -91 751 415 
Q 353 922 353 1747 
Q 353 2572 751 3078 
Q 1150 3584 1784 3584 
Q 2172 3584 2448 3432 
Q 2725 3281 2906 2969 
z
M 947 1747 
Q 947 1113 1208 752 
Q 1469 391 1925 391 
Q 2381 391 2643 752 
Q 2906 1113 2906 1747 
Q 2906 2381 2643 2742 
Q 2381 3103 1925 3103 
Q 1469 3103 1208 2742 
Q 947 2381 947 1747 
z
" transform="scale(0.015625)"/>
      <path id="DejaVuSans-20" transform="scale(0.015625)"/>
      <path id="DejaVuSans-6c" d="M 603 4863 
L 1178 4863 
L 1178 0 
L 603 0 
L 603 4863 
z
" transform="scale(0.015625)"/>
      <path id="DejaVuSans-70" d="M 1159 525 
L 1159 -1331 
L 581 -1331 
L 581 3500 
L 1159 3500 
L 1159 2969 
Q 1341 3281 1617 3432 
Q 1894 3584 2278 3584 
Q 2916 3584 3314 3078 
Q 3713 2572 3713 1747 
Q 3713 922 3314 415 
Q 2916 -91 2278 -91 
Q 1894 -91 1617 61 
Q 1341 213 1159 525 
z
M 3116 1747 
Q 3116 2381 2855 2742 
Q 2594 3103 2138 3103 
Q 1681 3103 1420 2742 
Q 1159 2381 1159 1747 
Q 1159 1113 1420 752 
Q 1681 391 2138 391 
Q 2594 391 2855 752 
Q 3116 1113 3116 1747 
z
" transform="scale(0.015625)"/>
      <path id="DejaVuSans-6b" d="M 581 4863 
L 1159 4863 
L 1159 1991 
L 2875 3500 
L 3609 3500 
L 1753 1863 
L 3688 0 
L 2938 0 
L 1159 1709 
L 1159 0 
L 581 0 
L 581 4863 
z
" transform="scale(0.015625)"/>
      <path id="DejaVuSans-17c" d="M 1378 4863 
L 1953 4863 
L 1953 4134 
L 1378 4134 
L 1378 4863 
z
M 1672 3584 
L 1672 3584 
z
M 353 3500 
L 3084 3500 
L 3084 2975 
L 922 459 
L 3084 459 
L 3084 0 
L 275 0 
L 275 525 
L 2438 3041 
L 353 3041 
L 353 3500 
z
" transform="scale(0.015625)"/>
      <path id="DejaVuSans-67" d="M 2906 1791 
Q 2906 2416 2648 2759 
Q 2391 3103 1925 3103 
Q 1463 3103 1205 2759 
Q 947 2416 947 1791 
Q 947 1169 1205 825 
Q 1463 481 1925 481 
Q 2391 481 2648 825 
Q 2906 1169 2906 1791 
z
M 3481 434 
Q 3481 -459 3084 -895 
Q 2688 -1331 1869 -1331 
Q 1566 -1331 1297 -1286 
Q 1028 -1241 775 -1147 
L 775 -588 
Q 1028 -725 1275 -790 
Q 1522 -856 1778 -856 
Q 2344 -856 2625 -561 
Q 2906 -266 2906 331 
L 2906 616 
Q 2728 306 2450 153 
Q 2172 0 1784 0 
Q 1141 0 747 490 
Q 353 981 353 1791 
Q 353 2603 747 3093 
Q 1141 3584 1784 3584 
Q 2172 3584 2450 3431 
Q 2728 3278 2906 2969 
L 2906 3500 
L 3481 3500 
L 3481 434 
z
" transform="scale(0.015625)"/>
     </defs>
     <use xlink:href="#DejaVuSans-15a"/>
     <use xlink:href="#DejaVuSans-72" transform="translate(63.476562 0)"/>
     <use xlink:href="#DejaVuSans-65" transform="translate(102.339844 0)"/>
     <use xlink:href="#DejaVuSans-64" transform="translate(163.863281 0)"/>
     <use xlink:href="#DejaVuSans-6e" transform="translate(227.339844 0)"/>
     <use xlink:href="#DejaVuSans-69" transform="translate(290.71875 0)"/>
     <use xlink:href="#DejaVuSans-65" transform="translate(318.501953 0)"/>
     <use xlink:href="#DejaVuSans-20" transform="translate(380.025391 0)"/>
     <use xlink:href="#DejaVuSans-69" transform="translate(411.8125 0)"/>
     <use xlink:href="#DejaVuSans-20" transform="translate(439.595703 0)"/>
     <use xlink:href="#DejaVuSans-6e" transform="translate(471.382812 0)"/>
     <use xlink:href="#DejaVuSans-61" transform="translate(534.761719 0)"/>
     <use xlink:href="#DejaVuSans-6a" transform="translate(596.041016 0)"/>
     <use xlink:href="#DejaVuSans-6c" transform="translate(623.824219 0)"/>
     <use xlink:href="#DejaVuSans-65" transform="translate(651.607422 0)"/>
     <use xlink:href="#DejaVuSans-70" transform="translate(713.130859 0)"/>
     <use xlink:href="#DejaVuSans-73" transform="translate(776.607422 0)"/>
     <use xlink:href="#DejaVuSans-7a" transform="translate(828.707031 0)"/>
     <use xlink:href="#DejaVuSans-65" transform="translate(881.197266 0)"/>
     <use xlink:href="#DejaVuSans-20" transform="translate(942.720703 0)"/>
     <use xlink:href="#DejaVuSans-70" transform="translate(974.507812 0)"/>
     <use xlink:href="#DejaVuSans-72" transform="translate(1037.984375 0)"/>
     <use xlink:href="#DejaVuSans-7a" transform="translate(1079.097656 0)"/>
     <use xlink:href="#DejaVuSans-79" transform="translate(1131.587891 0)"/>
     <use xlink:href="#DejaVuSans-73" transform="translate(1190.767578 0)"/>
     <use xlink:href="#DejaVuSans-74" transform="translate(1242.867188 0)"/>
     <use xlink:href="#DejaVuSans-6f" transform="translate(1282.076172 0)"/>
     <use xlink:href="#DejaVuSans-73" transform="translate(1343.257812 0)"/>
     <use xlink:href="#DejaVuSans-6f" transform="translate(1395.357422 0)"/>
     <use xlink:href="#DejaVuSans-77" transform="translate(1456.539062 0)"/>
     <use xlink:href="#DejaVuSans-61" transform="translate(1538.326172 0)"/>
     <use xlink:href="#DejaVuSans-6e" transform="translate(1599.605469 0)"/>
     <use xlink:href="#DejaVuSans-69" transform="translate(1662.984375 0)"/>
     <use xlink:href="#DejaVuSans-65" transform="translate(1690.767578 0)"/>
     <use xlink:href="#DejaVuSans-20" transform="translate(1752.291016 0)"/>
     <use xlink:href="#DejaVuSans-77" transform="translate(1784.078125 0)"/>
     <use xlink:href="#DejaVuSans-20" transform="translate(1865.865234 0)"/>
     <use xlink:href="#DejaVuSans-6b" transform="translate(1897.652344 0)"/>
     <use xlink:href="#DejaVuSans-61" transform="translate(1953.8125 0)"/>
     <use xlink:href="#DejaVuSans-17c" transform="translate(2015.091797 0)"/>
     <use xlink:href="#DejaVuSans-64" transform="translate(2067.582031 0)"/>
     <use xlink:href="#DejaVuSans-65" transform="translate(2131.058594 0)"/>
     <use xlink:href="#DejaVuSans-6a" transform="translate(2192.582031 0)"/>
     <use xlink:href="#DejaVuSans-20" transform="translate(2220.365234 0)"/>
     <use xlink:href="#DejaVuSans-67" transform="translate(2252.152344 0)"/>
     <use xlink:href="#DejaVuSans-65" transform="translate(2315.628906 0)"/>
     <use xlink:href="#DejaVuSans-6e" transform="translate(2377.152344 0)"/>
     <use xlink:href="#DejaVuSans-65" transform="translate(2440.53125 0)"/>
     <use xlink:href="#DejaVuSans-72" transform="translate(2502.054688 0)"/>
     <use xlink:href="#DejaVuSans-61" transform="translate(2543.167969 0)"/>
     <use xlink:href="#DejaVuSans-63" transform="translate(2604.447266 0)"/>
     <use xlink:href="#DejaVuSans-6a" transform="translate(2659.427734 0)"/>
     <use xlink:href="#DejaVuSans-69" transform="translate(2687.210938 0)"/>
    </g>
   </g>
   <g id="legend_1">
    <g id="patch_7">
     <path d="M 279.790313 302.584 
L 407.72 302.584 
Q 409.72 302.584 409.72 300.584 
L 409.72 257.549625 
Q 409.72 255.549625 407.72 255.549625 
L 279.790313 255.549625 
Q 277.790313 255.549625 277.790313 257.549625 
L 277.790313 300.584 
Q 277.790313 302.584 279.790313 302.584 
z
" style="fill: #ffffff; opacity: 0.8; stroke: #cccccc; stroke-linejoin: miter"/>
    </g>
    <g id="line2d_24">
     <path d="M 281.790313 263.648062 
L 291.790313 263.648062 
L 301.790313 263.648062 
" style="fill: none; stroke: #0000ff; stroke-width: 1.5; stroke-linecap: square"/>
    </g>
    <g id="text_14">
     <!-- Średnia -->
     <g transform="translate(309.790313 267.148062) scale(0.1 -0.1)">
      <use xlink:href="#DejaVuSans-15a"/>
      <use xlink:href="#DejaVuSans-72" transform="translate(63.476562 0)"/>
      <use xlink:href="#DejaVuSans-65" transform="translate(102.339844 0)"/>
      <use xlink:href="#DejaVuSans-64" transform="translate(163.863281 0)"/>
      <use xlink:href="#DejaVuSans-6e" transform="translate(227.339844 0)"/>
      <use xlink:href="#DejaVuSans-69" transform="translate(290.71875 0)"/>
      <use xlink:href="#DejaVuSans-61" transform="translate(318.501953 0)"/>
     </g>
    </g>
    <g id="line2d_25">
     <path d="M 281.790313 278.326188 
L 291.790313 278.326188 
L 301.790313 278.326188 
" style="fill: none; stroke-dasharray: 9.6,2.4,1.5,2.4; stroke-dashoffset: 0; stroke: #008000; stroke-width: 1.5"/>
    </g>
    <g id="text_15">
     <!-- ±1 Odchylenie std. -->
     <g transform="translate(309.790313 281.826188) scale(0.1 -0.1)">
      <defs>
       <path id="DejaVuSans-b1" d="M 2944 4013 
L 2944 2803 
L 4684 2803 
L 4684 2272 
L 2944 2272 
L 2944 1063 
L 2419 1063 
L 2419 2272 
L 678 2272 
L 678 2803 
L 2419 2803 
L 2419 4013 
L 2944 4013 
z
M 678 531 
L 4684 531 
L 4684 0 
L 678 0 
L 678 531 
z
" transform="scale(0.015625)"/>
       <path id="DejaVuSans-4f" d="M 2522 4238 
Q 1834 4238 1429 3725 
Q 1025 3213 1025 2328 
Q 1025 1447 1429 934 
Q 1834 422 2522 422 
Q 3209 422 3611 934 
Q 4013 1447 4013 2328 
Q 4013 3213 3611 3725 
Q 3209 4238 2522 4238 
z
M 2522 4750 
Q 3503 4750 4090 4092 
Q 4678 3434 4678 2328 
Q 4678 1225 4090 567 
Q 3503 -91 2522 -91 
Q 1538 -91 948 565 
Q 359 1222 359 2328 
Q 359 3434 948 4092 
Q 1538 4750 2522 4750 
z
" transform="scale(0.015625)"/>
       <path id="DejaVuSans-68" d="M 3513 2113 
L 3513 0 
L 2938 0 
L 2938 2094 
Q 2938 2591 2744 2837 
Q 2550 3084 2163 3084 
Q 1697 3084 1428 2787 
Q 1159 2491 1159 1978 
L 1159 0 
L 581 0 
L 581 4863 
L 1159 4863 
L 1159 2956 
Q 1366 3272 1645 3428 
Q 1925 3584 2291 3584 
Q 2894 3584 3203 3211 
Q 3513 2838 3513 2113 
z
" transform="scale(0.015625)"/>
       <path id="DejaVuSans-2e" d="M 684 794 
L 1344 794 
L 1344 0 
L 684 0 
L 684 794 
z
" transform="scale(0.015625)"/>
      </defs>
      <use xlink:href="#DejaVuSans-b1"/>
      <use xlink:href="#DejaVuSans-31" transform="translate(83.789062 0)"/>
      <use xlink:href="#DejaVuSans-20" transform="translate(147.412109 0)"/>
      <use xlink:href="#DejaVuSans-4f" transform="translate(179.199219 0)"/>
      <use xlink:href="#DejaVuSans-64" transform="translate(257.910156 0)"/>
      <use xlink:href="#DejaVuSans-63" transform="translate(321.386719 0)"/>
      <use xlink:href="#DejaVuSans-68" transform="translate(376.367188 0)"/>
      <use xlink:href="#DejaVuSans-79" transform="translate(439.746094 0)"/>
      <use xlink:href="#DejaVuSans-6c" transform="translate(498.925781 0)"/>
      <use xlink:href="#DejaVuSans-65" transform="translate(526.708984 0)"/>
      <use xlink:href="#DejaVuSans-6e" transform="translate(588.232422 0)"/>
      <use xlink:href="#DejaVuSans-69" transform="translate(651.611328 0)"/>
      <use xlink:href="#DejaVuSans-65" transform="translate(679.394531 0)"/>
      <use xlink:href="#DejaVuSans-20" transform="translate(740.917969 0)"/>
      <use xlink:href="#DejaVuSans-73" transform="translate(772.705078 0)"/>
      <use xlink:href="#DejaVuSans-74" transform="translate(824.804688 0)"/>
      <use xlink:href="#DejaVuSans-64" transform="translate(864.013672 0)"/>
      <use xlink:href="#DejaVuSans-2e" transform="translate(927.490234 0)"/>
     </g>
    </g>
    <g id="line2d_26">
     <path d="M 281.790313 293.004312 
L 291.790313 293.004312 
L 301.790313 293.004312 
" style="fill: none; stroke: #ff0000; stroke-width: 1.5; stroke-linecap: square"/>
    </g>
    <g id="text_16">
     <!-- Najlepsze -->
     <g transform="translate(309.790313 296.504312) scale(0.1 -0.1)">
      <defs>
       <path id="DejaVuSans-4e" d="M 628 4666 
L 1478 4666 
L 3547 763 
L 3547 4666 
L 4159 4666 
L 4159 0 
L 3309 0 
L 1241 3903 
L 1241 0 
L 628 0 
L 628 4666 
z
" transform="scale(0.015625)"/>
      </defs>
      <use xlink:href="#DejaVuSans-4e"/>
      <use xlink:href="#DejaVuSans-61" transform="translate(74.804688 0)"/>
      <use xlink:href="#DejaVuSans-6a" transform="translate(136.083984 0)"/>
      <use xlink:href="#DejaVuSans-6c" transform="translate(163.867188 0)"/>
      <use xlink:href="#DejaVuSans-65" transform="translate(191.650391 0)"/>
      <use xlink:href="#DejaVuSans-70" transform="translate(253.173828 0)"/>
      <use xlink:href="#DejaVuSans-73" transform="translate(316.650391 0)"/>
      <use xlink:href="#DejaVuSans-7a" transform="translate(368.75 0)"/>
      <use xlink:href="#DejaVuSans-65" transform="translate(421.240234 0)"/>
     </g>
    </g>
   </g>
  </g>
 </g>
 <defs>
  <clipPath id="pb9512ea39e">
   <rect x="57.6" y="41.472" width="357.12" height="266.112"/>
  </clipPath>
 </defs>
</svg>
