<?xml version="1.0" encoding="utf-8" standalone="no"?>
<!DOCTYPE svg PUBLIC "-//W3C//DTD SVG 1.1//EN"
  "http://www.w3.org/Graphics/SVG/1.1/DTD/svg11.dtd">
<svg xmlns:xlink="http://www.w3.org/1999/xlink" width="460.8pt" height="345.6pt" viewBox="0 0 460.8 345.6" xmlns="http://www.w3.org/2000/svg" version="1.1">
 <metadata>
  <rdf:RDF xmlns:dc="http://purl.org/dc/elements/1.1/" xmlns:cc="http://creativecommons.org/ns#" xmlns:rdf="http://www.w3.org/1999/02/22-rdf-syntax-ns#">
   <cc:Work>
    <dc:type rdf:resource="http://purl.org/dc/dcmitype/StillImage"/>
    <dc:date>2026-04-27T03:42:27.761757</dc:date>
    <dc:format>image/svg+xml</dc:format>
    <dc:creator>
     <cc:Agent>
      <dc:title>Matplotlib v3.10.8, https://matplotlib.org/</dc:title>
     </cc:Agent>
    </dc:creator>
   </cc:Work>
  </rdf:RDF>
 </metadata>
 <defs>
  <style type="text/css">*{stroke-linejoin: round; stroke-linecap: butt}</style>
 </defs>
 <g id="figure_1">
  <g id="patch_1">
   <path d="M 0 345.6 
L 460.8 345.6 
L 460.8 0 
L 0 0 
z
" style="fill: #ffffff"/>
  </g>
  <g id="axes_1">
   <g id="patch_2">
    <path d="M 57.6 307.584 
L 414.72 307.584 
L 414.72 41.472 
L 57.6 41.472 
z
" style="fill: #ffffff"/>
   </g>
   <g id="matplotlib.axis_1">
    <g id="xtick_1">
     <g id="line2d_1">
      <path d="M 72.201297 307.584 
L 72.201297 41.472 
" clip-path="url(#pc1aeef2deb)" style="fill: none; stroke: #b0b0b0; stroke-width: 0.8; stroke-linecap: square"/>
     </g>
     <g id="line2d_2">
      <defs>
       <path id="ma04959fa1c" d="M 0 0 
L 0 3.5 
" style="stroke: #000000; stroke-width: 0.8"/>
      </defs>
      <g>
       <use xlink:href="#ma04959fa1c" x="72.201297" y="307.584" style="stroke: #000000; stroke-width: 0.8"/>
      </g>
     </g>
     <g id="text_1">
      <!-- 0 -->
      <g transform="translate(69.020047 322.182437) scale(0.1 -0.1)">
       <defs>
        <path id="DejaVuSans-30" d="M 2034 4250 
Q 1547 4250 1301 3770 
Q 1056 3291 1056 2328 
Q 1056 1369 1301 889 
Q 1547 409 2034 409 
Q 2525 409 2770 889 
Q 3016 1369 3016 2328 
Q 3016 3291 2770 3770 
Q 2525 4250 2034 4250 
z
M 2034 4750 
Q 2819 4750 3233 4129 
Q 3647 3509 3647 2328 
Q 3647 1150 3233 529 
Q 2819 -91 2034 -91 
Q 1250 -91 836 529 
Q 422 1150 422 2328 
Q 422 3509 836 4129 
Q 1250 4750 2034 4750 
z
" transform="scale(0.015625)"/>
       </defs>
       <use xlink:href="#DejaVuSans-30"/>
      </g>
     </g>
    </g>
    <g id="xtick_2">
     <g id="line2d_3">
      <path d="M 112.987044 307.584 
L 112.987044 41.472 
" clip-path="url(#pc1aeef2deb)" style="fill: none; stroke: #b0b0b0; stroke-width: 0.8; stroke-linecap: square"/>
     </g>
     <g id="line2d_4">
      <g>
       <use xlink:href="#ma04959fa1c" x="112.987044" y="307.584" style="stroke: #000000; stroke-width: 0.8"/>
      </g>
     </g>
     <g id="text_2">
      <!-- 25 -->
      <g transform="translate(106.624544 322.182437) scale(0.1 -0.1)">
       <defs>
        <path id="DejaVuSans-32" d="M 1228 531 
L 3431 531 
L 3431 0 
L 469 0 
L 469 531 
Q 828 903 1448 1529 
Q 2069 2156 2228 2338 
Q 2531 2678 2651 2914 
Q 2772 3150 2772 3378 
Q 2772 3750 2511 3984 
Q 2250 4219 1831 4219 
Q 1534 4219 1204 4116 
Q 875 4013 500 3803 
L 500 4441 
Q 881 4594 1212 4672 
Q 1544 4750 1819 4750 
Q 2544 4750 2975 4387 
Q 3406 4025 3406 3419 
Q 3406 3131 3298 2873 
Q 3191 2616 2906 2266 
Q 2828 2175 2409 1742 
Q 1991 1309 1228 531 
z
" transform="scale(0.015625)"/>
        <path id="DejaVuSans-35" d="M 691 4666 
L 3169 4666 
L 3169 4134 
L 1269 4134 
L 1269 2991 
Q 1406 3038 1543 3061 
Q 1681 3084 1819 3084 
Q 2600 3084 3056 2656 
Q 3513 2228 3513 1497 
Q 3513 744 3044 326 
Q 2575 -91 1722 -91 
Q 1428 -91 1123 -41 
Q 819 9 494 109 
L 494 744 
Q 775 591 1075 516 
Q 1375 441 1709 441 
Q 2250 441 2565 725 
Q 2881 1009 2881 1497 
Q 2881 1984 2565 2268 
Q 2250 2553 1709 2553 
Q 1456 2553 1204 2497 
Q 953 2441 691 2322 
L 691 4666 
z
" transform="scale(0.015625)"/>
       </defs>
       <use xlink:href="#DejaVuSans-32"/>
       <use xlink:href="#DejaVuSans-35" transform="translate(63.623047 0)"/>
      </g>
     </g>
    </g>
    <g id="xtick_3">
     <g id="line2d_5">
      <path d="M 153.772791 307.584 
L 153.772791 41.472 
" clip-path="url(#pc1aeef2deb)" style="fill: none; stroke: #b0b0b0; stroke-width: 0.8; stroke-linecap: square"/>
     </g>
     <g id="line2d_6">
      <g>
       <use xlink:href="#ma04959fa1c" x="153.772791" y="307.584" style="stroke: #000000; stroke-width: 0.8"/>
      </g>
     </g>
     <g id="text_3">
      <!-- 50 -->
      <g transform="translate(147.410291 322.182437) scale(0.1 -0.1)">
       <use xlink:href="#DejaVuSans-35"/>
       <use xlink:href="#DejaVuSans-30" transform="translate(63.623047 0)"/>
      </g>
     </g>
    </g>
    <g id="xtick_4">
     <g id="line2d_7">
      <path d="M 194.558538 307.584 
L 194.558538 41.472 
" clip-path="url(#pc1aeef2deb)" style="fill: none; stroke: #b0b0b0; stroke-width: 0.8; stroke-linecap: square"/>
     </g>
     <g id="line2d_8">
      <g>
       <use xlink:href="#ma04959fa1c" x="194.558538" y="307.584" style="stroke: #000000; stroke-width: 0.8"/>
      </g>
     </g>
     <g id="text_4">
      <!-- 75 -->
      <g transform="translate(188.196038 322.182437) scale(0.1 -0.1)">
       <defs>
        <path id="DejaVuSans-37" d="M 525 4666 
L 3525 4666 
L 3525 4397 
L 1831 0 
L 1172 0 
L 2766 4134 
L 525 4134 
L 525 4666 
z
" transform="scale(0.015625)"/>
       </defs>
       <use xlink:href="#DejaVuSans-37"/>
       <use xlink:href="#DejaVuSans-35" transform="translate(63.623047 0)"/>
      </g>
     </g>
    </g>
    <g id="xtick_5">
     <g id="line2d_9">
      <path d="M 235.344285 307.584 
L 235.344285 41.472 
" clip-path="url(#pc1aeef2deb)" style="fill: none; stroke: #b0b0b0; stroke-width: 0.8; stroke-linecap: square"/>
     </g>
     <g id="line2d_10">
      <g>
       <use xlink:href="#ma04959fa1c" x="235.344285" y="307.584" style="stroke: #000000; stroke-width: 0.8"/>
      </g>
     </g>
     <g id="text_5">
      <!-- 100 -->
      <g transform="translate(225.800535 322.182437) scale(0.1 -0.1)">
       <defs>
        <path id="DejaVuSans-31" d="M 794 531 
L 1825 531 
L 1825 4091 
L 703 3866 
L 703 4441 
L 1819 4666 
L 2450 4666 
L 2450 531 
L 3481 531 
L 3481 0 
L 794 0 
L 794 531 
z
" transform="scale(0.015625)"/>
       </defs>
       <use xlink:href="#DejaVuSans-31"/>
       <use xlink:href="#DejaVuSans-30" transform="translate(63.623047 0)"/>
       <use xlink:href="#DejaVuSans-30" transform="translate(127.246094 0)"/>
      </g>
     </g>
    </g>
    <g id="xtick_6">
     <g id="line2d_11">
      <path d="M 276.130032 307.584 
L 276.130032 41.472 
" clip-path="url(#pc1aeef2deb)" style="fill: none; stroke: #b0b0b0; stroke-width: 0.8; stroke-linecap: square"/>
     </g>
     <g id="line2d_12">
      <g>
       <use xlink:href="#ma04959fa1c" x="276.130032" y="307.584" style="stroke: #000000; stroke-width: 0.8"/>
      </g>
     </g>
     <g id="text_6">
      <!-- 125 -->
      <g transform="translate(266.586282 322.182437) scale(0.1 -0.1)">
       <use xlink:href="#DejaVuSans-31"/>
       <use xlink:href="#DejaVuSans-32" transform="translate(63.623047 0)"/>
       <use xlink:href="#DejaVuSans-35" transform="translate(127.246094 0)"/>
      </g>
     </g>
    </g>
    <g id="xtick_7">
     <g id="line2d_13">
      <path d="M 316.915779 307.584 
L 316.915779 41.472 
" clip-path="url(#pc1aeef2deb)" style="fill: none; stroke: #b0b0b0; stroke-width: 0.8; stroke-linecap: square"/>
     </g>
     <g id="line2d_14">
      <g>
       <use xlink:href="#ma04959fa1c" x="316.915779" y="307.584" style="stroke: #000000; stroke-width: 0.8"/>
      </g>
     </g>
     <g id="text_7">
      <!-- 150 -->
      <g transform="translate(307.372029 322.182437) scale(0.1 -0.1)">
       <use xlink:href="#DejaVuSans-31"/>
       <use xlink:href="#DejaVuSans-35" transform="translate(63.623047 0)"/>
       <use xlink:href="#DejaVuSans-30" transform="translate(127.246094 0)"/>
      </g>
     </g>
    </g>
    <g id="xtick_8">
     <g id="line2d_15">
      <path d="M 357.701526 307.584 
L 357.701526 41.472 
" clip-path="url(#pc1aeef2deb)" style="fill: none; stroke: #b0b0b0; stroke-width: 0.8; stroke-linecap: square"/>
     </g>
     <g id="line2d_16">
      <g>
       <use xlink:href="#ma04959fa1c" x="357.701526" y="307.584" style="stroke: #000000; stroke-width: 0.8"/>
      </g>
     </g>
     <g id="text_8">
      <!-- 175 -->
      <g transform="translate(348.157776 322.182437) scale(0.1 -0.1)">
       <use xlink:href="#DejaVuSans-31"/>
       <use xlink:href="#DejaVuSans-37" transform="translate(63.623047 0)"/>
       <use xlink:href="#DejaVuSans-35" transform="translate(127.246094 0)"/>
      </g>
     </g>
    </g>
    <g id="xtick_9">
     <g id="line2d_17">
      <path d="M 398.487273 307.584 
L 398.487273 41.472 
" clip-path="url(#pc1aeef2deb)" style="fill: none; stroke: #b0b0b0; stroke-width: 0.8; stroke-linecap: square"/>
     </g>
     <g id="line2d_18">
      <g>
       <use xlink:href="#ma04959fa1c" x="398.487273" y="307.584" style="stroke: #000000; stroke-width: 0.8"/>
      </g>
     </g>
     <g id="text_9">
      <!-- 200 -->
      <g transform="translate(388.943523 322.182437) scale(0.1 -0.1)">
       <use xlink:href="#DejaVuSans-32"/>
       <use xlink:href="#DejaVuSans-30" transform="translate(63.623047 0)"/>
       <use xlink:href="#DejaVuSans-30" transform="translate(127.246094 0)"/>
      </g>
     </g>
    </g>
    <g id="text_10">
     <!-- Generacje -->
     <g transform="translate(210.629531 335.860562) scale(0.1 -0.1)">
      <defs>
       <path id="DejaVuSans-47" d="M 3809 666 
L 3809 1919 
L 2778 1919 
L 2778 2438 
L 4434 2438 
L 4434 434 
Q 4069 175 3628 42 
Q 3188 -91 2688 -91 
Q 1594 -91 976 548 
Q 359 1188 359 2328 
Q 359 3472 976 4111 
Q 1594 4750 2688 4750 
Q 3144 4750 3555 4637 
Q 3966 4525 4313 4306 
L 4313 3634 
Q 3963 3931 3569 4081 
Q 3175 4231 2741 4231 
Q 1884 4231 1454 3753 
Q 1025 3275 1025 2328 
Q 1025 1384 1454 906 
Q 1884 428 2741 428 
Q 3075 428 3337 486 
Q 3600 544 3809 666 
z
" transform="scale(0.015625)"/>
       <path id="DejaVuSans-65" d="M 3597 1894 
L 3597 1613 
L 953 1613 
Q 991 1019 1311 708 
Q 1631 397 2203 397 
Q 2534 397 2845 478 
Q 3156 559 3463 722 
L 3463 178 
Q 3153 47 2828 -22 
Q 2503 -91 2169 -91 
Q 1331 -91 842 396 
Q 353 884 353 1716 
Q 353 2575 817 3079 
Q 1281 3584 2069 3584 
Q 2775 3584 3186 3129 
Q 3597 2675 3597 1894 
z
M 3022 2063 
Q 3016 2534 2758 2815 
Q 2500 3097 2075 3097 
Q 1594 3097 1305 2825 
Q 1016 2553 972 2059 
L 3022 2063 
z
" transform="scale(0.015625)"/>
       <path id="DejaVuSans-6e" d="M 3513 2113 
L 3513 0 
L 2938 0 
L 2938 2094 
Q 2938 2591 2744 2837 
Q 2550 3084 2163 3084 
Q 1697 3084 1428 2787 
Q 1159 2491 1159 1978 
L 1159 0 
L 581 0 
L 581 3500 
L 1159 3500 
L 1159 2956 
Q 1366 3272 1645 3428 
Q 1925 3584 2291 3584 
Q 2894 3584 3203 3211 
Q 3513 2838 3513 2113 
z
" transform="scale(0.015625)"/>
       <path id="DejaVuSans-72" d="M 2631 2963 
Q 2534 3019 2420 3045 
Q 2306 3072 2169 3072 
Q 1681 3072 1420 2755 
Q 1159 2438 1159 1844 
L 1159 0 
L 581 0 
L 581 3500 
L 1159 3500 
L 1159 2956 
Q 1341 3275 1631 3429 
Q 1922 3584 2338 3584 
Q 2397 3584 2469 3576 
Q 2541 3569 2628 3553 
L 2631 2963 
z
" transform="scale(0.015625)"/>
       <path id="DejaVuSans-61" d="M 2194 1759 
Q 1497 1759 1228 1600 
Q 959 1441 959 1056 
Q 959 750 1161 570 
Q 1363 391 1709 391 
Q 2188 391 2477 730 
Q 2766 1069 2766 1631 
L 2766 1759 
L 2194 1759 
z
M 3341 1997 
L 3341 0 
L 2766 0 
L 2766 531 
Q 2569 213 2275 61 
Q 1981 -91 1556 -91 
Q 1019 -91 701 211 
Q 384 513 384 1019 
Q 384 1609 779 1909 
Q 1175 2209 1959 2209 
L 2766 2209 
L 2766 2266 
Q 2766 2663 2505 2880 
Q 2244 3097 1772 3097 
Q 1472 3097 1187 3025 
Q 903 2953 641 2809 
L 641 3341 
Q 956 3463 1253 3523 
Q 1550 3584 1831 3584 
Q 2591 3584 2966 3190 
Q 3341 2797 3341 1997 
z
" transform="scale(0.015625)"/>
       <path id="DejaVuSans-63" d="M 3122 3366 
L 3122 2828 
Q 2878 2963 2633 3030 
Q 2388 3097 2138 3097 
Q 1578 3097 1268 2742 
Q 959 2388 959 1747 
Q 959 1106 1268 751 
Q 1578 397 2138 397 
Q 2388 397 2633 464 
Q 2878 531 3122 666 
L 3122 134 
Q 2881 22 2623 -34 
Q 2366 -91 2075 -91 
Q 1284 -91 818 406 
Q 353 903 353 1747 
Q 353 2603 823 3093 
Q 1294 3584 2113 3584 
Q 2378 3584 2631 3529 
Q 2884 3475 3122 3366 
z
" transform="scale(0.015625)"/>
       <path id="DejaVuSans-6a" d="M 603 3500 
L 1178 3500 
L 1178 -63 
Q 1178 -731 923 -1031 
Q 669 -1331 103 -1331 
L -116 -1331 
L -116 -844 
L 38 -844 
Q 366 -844 484 -692 
Q 603 -541 603 -63 
L 603 3500 
z
M 603 4863 
L 1178 4863 
L 1178 4134 
L 603 4134 
L 603 4863 
z
" transform="scale(0.015625)"/>
      </defs>
      <use xlink:href="#DejaVuSans-47"/>
      <use xlink:href="#DejaVuSans-65" transform="translate(77.490234 0)"/>
      <use xlink:href="#DejaVuSans-6e" transform="translate(139.013672 0)"/>
      <use xlink:href="#DejaVuSans-65" transform="translate(202.392578 0)"/>
      <use xlink:href="#DejaVuSans-72" transform="translate(263.916016 0)"/>
      <use xlink:href="#DejaVuSans-61" transform="translate(305.029297 0)"/>
      <use xlink:href="#DejaVuSans-63" transform="translate(366.308594 0)"/>
      <use xlink:href="#DejaVuSans-6a" transform="translate(421.289062 0)"/>
      <use xlink:href="#DejaVuSans-65" transform="translate(449.072266 0)"/>
     </g>
    </g>
   </g>
   <g id="matplotlib.axis_2">
    <g id="ytick_1">
     <g id="line2d_19">
      <path d="M 57.6 119.497467 
L 414.72 119.497467 
" clip-path="url(#pc1aeef2deb)" style="fill: none; stroke: #b0b0b0; stroke-width: 0.8; stroke-linecap: square"/>
     </g>
     <g id="line2d_20">
      <defs>
       <path id="m652bcb9795" d="M 0 0 
L -3.5 0 
" style="stroke: #000000; stroke-width: 0.8"/>
      </defs>
      <g>
       <use xlink:href="#m652bcb9795" x="57.6" y="119.497467" style="stroke: #000000; stroke-width: 0.8"/>
      </g>
     </g>
     <g id="text_11">
      <!-- $\mathdefault{10^{2}}$ -->
      <g transform="translate(33 123.296685) scale(0.1 -0.1)">
       <use xlink:href="#DejaVuSans-31" transform="translate(0 0.765625)"/>
       <use xlink:href="#DejaVuSans-30" transform="translate(63.623047 0.765625)"/>
       <use xlink:href="#DejaVuSans-32" transform="translate(128.203125 39.046875) scale(0.7)"/>
      </g>
     </g>
    </g>
    <g id="text_12">
     <!-- Przystosowanie -->
     <g transform="translate(26.920312 213.170187) rotate(-90) scale(0.1 -0.1)">
      <defs>
       <path id="DejaVuSans-50" d="M 1259 4147 
L 1259 2394 
L 2053 2394 
Q 2494 2394 2734 2622 
Q 2975 2850 2975 3272 
Q 2975 3691 2734 3919 
Q 2494 4147 2053 4147 
L 1259 4147 
z
M 628 4666 
L 2053 4666 
Q 2838 4666 3239 4311 
Q 3641 3956 3641 3272 
Q 3641 2581 3239 2228 
Q 2838 1875 2053 1875 
L 1259 1875 
L 1259 0 
L 628 0 
L 628 4666 
z
" transform="scale(0.015625)"/>
       <path id="DejaVuSans-7a" d="M 353 3500 
L 3084 3500 
L 3084 2975 
L 922 459 
L 3084 459 
L 3084 0 
L 275 0 
L 275 525 
L 2438 3041 
L 353 3041 
L 353 3500 
z
" transform="scale(0.015625)"/>
       <path id="DejaVuSans-79" d="M 2059 -325 
Q 1816 -950 1584 -1140 
Q 1353 -1331 966 -1331 
L 506 -1331 
L 506 -850 
L 844 -850 
Q 1081 -850 1212 -737 
Q 1344 -625 1503 -206 
L 1606 56 
L 191 3500 
L 800 3500 
L 1894 763 
L 2988 3500 
L 3597 3500 
L 2059 -325 
z
" transform="scale(0.015625)"/>
       <path id="DejaVuSans-73" d="M 2834 3397 
L 2834 2853 
Q 2591 2978 2328 3040 
Q 2066 3103 1784 3103 
Q 1356 3103 1142 2972 
Q 928 2841 928 2578 
Q 928 2378 1081 2264 
Q 1234 2150 1697 2047 
L 1894 2003 
Q 2506 1872 2764 1633 
Q 3022 1394 3022 966 
Q 3022 478 2636 193 
Q 2250 -91 1575 -91 
Q 1294 -91 989 -36 
Q 684 19 347 128 
L 347 722 
Q 666 556 975 473 
Q 1284 391 1588 391 
Q 1994 391 2212 530 
Q 2431 669 2431 922 
Q 2431 1156 2273 1281 
Q 2116 1406 1581 1522 
L 1381 1569 
Q 847 1681 609 1914 
Q 372 2147 372 2553 
Q 372 3047 722 3315 
Q 1072 3584 1716 3584 
Q 2034 3584 2315 3537 
Q 2597 3491 2834 3397 
z
" transform="scale(0.015625)"/>
       <path id="DejaVuSans-74" d="M 1172 4494 
L 1172 3500 
L 2356 3500 
L 2356 3053 
L 1172 3053 
L 1172 1153 
Q 1172 725 1289 603 
Q 1406 481 1766 481 
L 2356 481 
L 2356 0 
L 1766 0 
Q 1100 0 847 248 
Q 594 497 594 1153 
L 594 3053 
L 172 3053 
L 172 3500 
L 594 3500 
L 594 4494 
L 1172 4494 
z
" transform="scale(0.015625)"/>
       <path id="DejaVuSans-6f" d="M 1959 3097 
Q 1497 3097 1228 2736 
Q 959 2375 959 1747 
Q 959 1119 1226 758 
Q 1494 397 1959 397 
Q 2419 397 2687 759 
Q 2956 1122 2956 1747 
Q 2956 2369 2687 2733 
Q 2419 3097 1959 3097 
z
M 1959 3584 
Q 2709 3584 3137 3096 
Q 3566 2609 3566 1747 
Q 3566 888 3137 398 
Q 2709 -91 1959 -91 
Q 1206 -91 779 398 
Q 353 888 353 1747 
Q 353 2609 779 3096 
Q 1206 3584 1959 3584 
z
" transform="scale(0.015625)"/>
       <path id="DejaVuSans-77" d="M 269 3500 
L 844 3500 
L 1563 769 
L 2278 3500 
L 2956 3500 
L 3675 769 
L 4391 3500 
L 4966 3500 
L 4050 0 
L 3372 0 
L 2619 2869 
L 1863 0 
L 1184 0 
L 269 3500 
z
" transform="scale(0.015625)"/>
       <path id="DejaVuSans-69" d="M 603 3500 
L 1178 3500 
L 1178 0 
L 603 0 
L 603 3500 
z
M 603 4863 
L 1178 4863 
L 1178 4134 
L 603 4134 
L 603 4863 
z
" transform="scale(0.015625)"/>
      </defs>
      <use xlink:href="#DejaVuSans-50"/>
      <use xlink:href="#DejaVuSans-72" transform="translate(58.552734 0)"/>
      <use xlink:href="#DejaVuSans-7a" transform="translate(99.666016 0)"/>
      <use xlink:href="#DejaVuSans-79" transform="translate(152.15625 0)"/>
      <use xlink:href="#DejaVuSans-73" transform="translate(211.335938 0)"/>
      <use xlink:href="#DejaVuSans-74" transform="translate(263.435547 0)"/>
      <use xlink:href="#DejaVuSans-6f" transform="translate(302.644531 0)"/>
      <use xlink:href="#DejaVuSans-73" transform="translate(363.826172 0)"/>
      <use xlink:href="#DejaVuSans-6f" transform="translate(415.925781 0)"/>
      <use xlink:href="#DejaVuSans-77" transform="translate(477.107422 0)"/>
      <use xlink:href="#DejaVuSans-61" transform="translate(558.894531 0)"/>
      <use xlink:href="#DejaVuSans-6e" transform="translate(620.173828 0)"/>
      <use xlink:href="#DejaVuSans-69" transform="translate(683.552734 0)"/>
      <use xlink:href="#DejaVuSans-65" transform="translate(711.335938 0)"/>
     </g>
    </g>
   </g>
   <g id="line2d_21">
    <path d="M 73.832727 295.488 
L 75.464157 233.995115 
L 77.095587 193.17765 
L 78.727017 166.465247 
L 80.358447 165.411869 
L 81.989877 144.790972 
L 83.621307 146.983795 
L 85.252736 147.115468 
L 86.884166 146.473727 
L 88.515596 149.014472 
L 90.147026 144.801822 
L 91.778456 148.281253 
L 93.409886 148.960689 
L 95.041316 147.505474 
L 96.672746 148.926373 
L 98.304175 146.083536 
L 99.935605 150.650949 
L 101.567035 142.596521 
L 103.198465 142.053434 
L 104.829895 140.95788 
L 106.461325 142.68096 
L 108.092755 148.851398 
L 109.724185 149.180737 
L 111.355614 146.391622 
L 112.987044 141.957258 
L 114.618474 142.175457 
L 116.249904 142.897421 
L 117.881334 141.263037 
L 119.512764 142.222128 
L 121.144194 146.450789 
L 122.775624 140.28593 
L 124.407053 142.374112 
L 126.038483 137.991983 
L 127.669913 139.028137 
L 129.301343 137.344787 
L 130.932773 140.403961 
L 132.564203 137.756576 
L 134.195633 137.473549 
L 135.827063 138.75086 
L 137.458492 138.001798 
L 139.089922 137.5757 
L 140.721352 137.873023 
L 142.352782 135.445154 
L 143.984212 138.431251 
L 145.615642 136.64938 
L 147.247072 134.398506 
L 148.878502 136.683221 
L 150.509931 136.10411 
L 152.141361 137.03912 
L 153.772791 137.338855 
L 155.404221 136.253525 
L 157.035651 137.234911 
L 158.667081 135.720641 
L 161.929941 137.627845 
L 165.1928 135.845592 
L 166.82423 136.631383 
L 170.08709 136.511461 
L 171.71852 137.749688 
L 173.34995 137.109195 
L 174.98138 139.955737 
L 176.61281 136.666131 
L 178.244239 134.649752 
L 179.875669 136.772479 
L 181.507099 137.789182 
L 183.138529 136.515919 
L 184.769959 135.563169 
L 186.401389 137.697748 
L 188.032819 137.35543 
L 189.664249 135.569938 
L 191.295678 137.072041 
L 192.927108 135.977391 
L 194.558538 135.108513 
L 196.189968 134.44047 
L 197.821398 135.813715 
L 199.452828 136.647108 
L 201.084258 134.626381 
L 202.715688 134.579368 
L 204.347117 136.501259 
L 205.978547 137.13737 
L 207.609977 133.538969 
L 209.241407 135.324023 
L 210.872837 135.205166 
L 212.504267 134.520831 
L 214.135697 133.13256 
L 215.767127 135.553864 
L 217.398556 134.43922 
L 219.029986 134.112049 
L 220.661416 133.363402 
L 222.292846 138.105407 
L 223.924276 132.53959 
L 225.555706 137.25607 
L 227.187136 135.820157 
L 228.818566 135.219564 
L 230.449995 135.988785 
L 233.712855 134.099626 
L 235.344285 134.51777 
L 236.975715 136.655596 
L 238.607145 136.009288 
L 240.238575 135.886251 
L 241.870005 135.549661 
L 243.501434 135.034663 
L 245.132864 134.822901 
L 246.764294 134.421495 
L 248.395724 134.284248 
L 250.027154 134.864957 
L 251.658584 136.186311 
L 253.290014 136.456274 
L 254.921444 135.379775 
L 256.552873 134.529096 
L 258.184303 135.88084 
L 259.815733 135.77014 
L 261.447163 136.554932 
L 263.078593 134.377418 
L 264.710023 136.948358 
L 266.341453 136.43332 
L 267.972883 134.333505 
L 269.604312 135.118236 
L 271.235742 134.977697 
L 272.867172 134.68809 
L 274.498602 136.464938 
L 277.761462 134.034945 
L 279.392892 134.850463 
L 281.024322 135.455412 
L 282.655751 136.462717 
L 284.287181 135.734971 
L 285.918611 136.414904 
L 287.550041 136.256871 
L 289.181471 135.258556 
L 290.812901 136.25303 
L 292.444331 135.795495 
L 294.075761 135.726184 
L 295.70719 136.909486 
L 297.33862 135.505616 
L 298.97005 137.186219 
L 300.60148 135.025626 
L 302.23291 135.072874 
L 303.86434 135.977837 
L 305.49577 136.064724 
L 307.1272 137.046845 
L 308.75863 135.830914 
L 310.390059 135.146594 
L 312.021489 137.532625 
L 313.652919 135.235336 
L 315.284349 136.237377 
L 316.915779 135.677357 
L 318.547209 135.329739 
L 320.178639 134.729537 
L 321.810069 136.328211 
L 323.441498 136.513493 
L 325.072928 134.588262 
L 326.704358 133.537592 
L 328.335788 136.806105 
L 329.967218 135.017833 
L 331.598648 135.663252 
L 333.230078 135.852443 
L 334.861508 135.039469 
L 336.492937 133.21267 
L 338.124367 133.985627 
L 339.755797 135.723336 
L 341.387227 133.680457 
L 343.018657 134.082341 
L 344.650087 134.292983 
L 347.912947 135.052756 
L 349.544376 134.861062 
L 351.175806 135.37607 
L 352.807236 134.61217 
L 354.438666 135.172883 
L 356.070096 135.396982 
L 357.701526 135.817255 
L 359.332956 136.562699 
L 360.964386 134.752644 
L 362.595815 134.229 
L 364.227245 134.107479 
L 365.858675 134.916552 
L 367.490105 134.309256 
L 369.121535 135.714617 
L 370.752965 134.515099 
L 372.384395 136.298303 
L 374.015825 134.463236 
L 375.647254 134.513249 
L 377.278684 133.980309 
L 378.910114 135.722626 
L 380.541544 132.021594 
L 382.172974 135.670518 
L 383.804404 133.262038 
L 385.435834 134.465925 
L 387.067264 134.752821 
L 388.698693 133.876951 
L 390.330123 134.742375 
L 391.961553 135.755944 
L 393.592983 135.275863 
L 395.224413 134.579306 
L 396.855843 135.557363 
L 398.487273 135.457116 
L 398.487273 135.457116 
" clip-path="url(#pc1aeef2deb)" style="fill: none; stroke: #0000ff; stroke-width: 1.5; stroke-linecap: square"/>
   </g>
   <g id="line2d_22">
    <path d="M 73.832727 240.83755 
L 75.464157 176.911652 
L 77.095587 143.38329 
L 78.727017 132.220605 
L 80.358447 129.247897 
L 81.989877 124.841204 
L 83.621307 126.388188 
L 85.252736 124.119231 
L 86.884166 126.38025 
L 88.515596 125.116072 
L 90.147026 125.223871 
L 91.778456 124.924704 
L 93.409886 124.246719 
L 95.041316 126.472196 
L 96.672746 122.489914 
L 98.304175 126.067216 
L 99.935605 123.449622 
L 101.567035 128.061587 
L 103.198465 125.530344 
L 104.829895 124.069692 
L 106.461325 121.475018 
L 108.092755 126.105743 
L 109.724185 122.851038 
L 111.355614 124.174061 
L 112.987044 126.084264 
L 114.618474 124.651391 
L 116.249904 123.464057 
L 117.881334 122.059415 
L 119.512764 124.427406 
L 121.144194 118.03204 
L 122.775624 123.939985 
L 124.407053 121.433028 
L 126.038483 121.041223 
L 127.669913 123.285279 
L 129.301343 118.373757 
L 130.932773 118.932236 
L 132.564203 123.598647 
L 134.195633 118.435236 
L 135.827063 122.56542 
L 137.458492 120.810258 
L 139.089922 117.607877 
L 140.721352 120.794939 
L 142.352782 119.581909 
L 143.984212 123.642271 
L 145.615642 118.912755 
L 147.247072 118.610532 
L 148.878502 117.634107 
L 150.509931 119.888707 
L 152.141361 122.858589 
L 153.772791 116.480692 
L 155.404221 120.773554 
L 157.035651 120.274815 
L 158.667081 120.422569 
L 160.298511 121.15256 
L 163.56137 120.190105 
L 165.1928 118.971427 
L 166.82423 122.409033 
L 168.45566 121.207555 
L 170.08709 122.074912 
L 171.71852 121.967449 
L 173.34995 117.920241 
L 174.98138 118.980642 
L 178.244239 120.077371 
L 179.875669 122.545773 
L 181.507099 122.900055 
L 183.138529 118.831224 
L 184.769959 121.381508 
L 186.401389 121.359517 
L 188.032819 122.362656 
L 189.664249 117.717177 
L 191.295678 120.843281 
L 192.927108 120.227058 
L 194.558538 120.543489 
L 196.189968 119.189503 
L 197.821398 119.349457 
L 199.452828 121.438884 
L 201.084258 119.251441 
L 202.715688 119.439184 
L 204.347117 122.775998 
L 205.978547 121.320071 
L 207.609977 117.043036 
L 209.241407 120.373962 
L 210.872837 120.019012 
L 212.504267 119.198875 
L 214.135697 117.584543 
L 215.767127 119.25195 
L 219.029986 119.379938 
L 220.661416 118.688426 
L 222.292846 116.650246 
L 223.924276 118.347946 
L 225.555706 118.549816 
L 227.187136 121.716151 
L 228.818566 119.317231 
L 230.449995 121.683198 
L 232.081425 120.704243 
L 233.712855 118.894177 
L 235.344285 120.305844 
L 236.975715 118.041984 
L 238.607145 121.365471 
L 240.238575 121.840085 
L 241.870005 119.682527 
L 243.501434 118.908972 
L 245.132864 120.265321 
L 246.764294 118.518292 
L 248.395724 119.446567 
L 251.658584 120.581395 
L 253.290014 122.096519 
L 254.921444 120.20296 
L 256.552873 120.343133 
L 258.184303 119.370516 
L 259.815733 122.504847 
L 261.447163 122.594729 
L 263.078593 119.912138 
L 264.710023 123.99838 
L 266.341453 123.477095 
L 267.972883 118.155713 
L 269.604312 120.557108 
L 271.235742 118.746346 
L 272.867172 120.047461 
L 274.498602 117.513532 
L 276.130032 119.39036 
L 277.761462 119.473907 
L 281.024322 122.088272 
L 282.655751 123.000674 
L 284.287181 123.219005 
L 285.918611 120.679301 
L 287.550041 123.02594 
L 289.181471 119.139251 
L 290.812901 123.034832 
L 292.444331 121.209866 
L 294.075761 119.603002 
L 295.70719 121.793035 
L 297.33862 121.22485 
L 298.97005 123.02718 
L 300.60148 121.620424 
L 302.23291 120.567159 
L 303.86434 119.829119 
L 305.49577 120.084483 
L 307.1272 122.289142 
L 308.75863 121.560283 
L 310.390059 121.490145 
L 312.021489 122.146884 
L 313.652919 121.068604 
L 315.284349 122.588167 
L 316.915779 119.788546 
L 318.547209 121.475435 
L 320.178639 121.347306 
L 321.810069 121.461164 
L 323.441498 119.847535 
L 325.072928 118.760893 
L 326.704358 118.966796 
L 328.335788 121.29524 
L 329.967218 120.139186 
L 331.598648 120.217337 
L 333.230078 121.473505 
L 334.861508 119.424899 
L 336.492937 117.98298 
L 338.124367 121.060153 
L 339.755797 122.222697 
L 341.387227 119.603904 
L 343.018657 119.971323 
L 344.650087 120.872548 
L 346.281517 119.593989 
L 347.912947 121.834301 
L 349.544376 120.833695 
L 351.175806 119.606393 
L 354.438666 119.280354 
L 356.070096 121.045297 
L 357.701526 121.919024 
L 359.332956 122.24732 
L 360.964386 119.191681 
L 362.595815 120.685329 
L 364.227245 120.217057 
L 365.858675 121.883526 
L 367.490105 119.277043 
L 369.121535 120.848211 
L 370.752965 119.956956 
L 372.384395 120.651593 
L 374.015825 119.379689 
L 375.647254 120.923464 
L 377.278684 120.60629 
L 378.910114 120.869321 
L 380.541544 117.468902 
L 382.172974 122.523635 
L 383.804404 118.806918 
L 385.435834 119.37736 
L 387.067264 121.454763 
L 388.698693 119.889277 
L 390.330123 120.607599 
L 391.961553 119.003576 
L 393.592983 121.030041 
L 395.224413 121.857044 
L 396.855843 121.747759 
L 398.487273 120.977037 
L 398.487273 120.977037 
" clip-path="url(#pc1aeef2deb)" style="fill: none; stroke-dasharray: 9.6,2.4,1.5,2.4; stroke-dashoffset: 0; stroke: #008000; stroke-width: 1.5"/>
   </g>
   <g id="line2d_23">
    <path d="M 73.832727 119.887664 
L 75.464157 115.137501 
L 77.095587 113.641353 
L 78.727017 110.658914 
L 80.358447 107.410534 
L 81.989877 97.658647 
L 83.621307 99.000312 
L 85.252736 103.168158 
L 86.884166 90.948468 
L 88.515596 107.462742 
L 90.147026 97.500897 
L 91.778456 100.42263 
L 93.409886 82.649651 
L 95.041316 101.576776 
L 96.672746 94.839547 
L 98.304175 113.53292 
L 99.935605 100.518072 
L 101.567035 103.48652 
L 103.198465 101.6482 
L 104.829895 76.657027 
L 106.461325 97.141909 
L 108.092755 94.709837 
L 109.724185 98.080338 
L 111.355614 107.371211 
L 112.987044 106.079287 
L 114.618474 92.457461 
L 116.249904 84.432433 
L 117.881334 96.317086 
L 121.144194 104.218144 
L 122.775624 103.203549 
L 124.407053 89.319061 
L 126.038483 80.127822 
L 127.669913 96.176467 
L 129.301343 77.038265 
L 130.932773 93.477735 
L 132.564203 94.814813 
L 134.195633 93.350708 
L 135.827063 86.854378 
L 137.458492 78.452743 
L 139.089922 93.294171 
L 140.721352 86.665891 
L 142.352782 93.355271 
L 143.984212 104.778861 
L 145.615642 86.567465 
L 147.247072 84.987901 
L 148.878502 75.211145 
L 150.509931 86.737432 
L 152.141361 105.664037 
L 153.772791 90.502775 
L 155.404221 90.952306 
L 157.035651 91.951526 
L 158.667081 94.346112 
L 160.298511 82.818021 
L 161.929941 96.581865 
L 163.56137 89.367815 
L 165.1928 94.691955 
L 166.82423 94.720601 
L 168.45566 94.967826 
L 170.08709 86.851323 
L 171.71852 72.845863 
L 173.34995 89.281764 
L 174.98138 82.091948 
L 176.61281 94.587521 
L 178.244239 93.566425 
L 179.875669 100.112737 
L 181.507099 91.972548 
L 183.138529 91.678929 
L 184.769959 90.445915 
L 186.401389 94.464066 
L 188.032819 97.111717 
L 189.664249 92.128553 
L 191.295678 92.299235 
L 192.927108 86.768638 
L 194.558538 92.314721 
L 196.189968 74.41329 
L 199.452828 93.515112 
L 201.084258 85.275869 
L 202.715688 81.768513 
L 204.347117 89.501418 
L 205.978547 90.840615 
L 207.609977 83.920149 
L 209.241407 91.975908 
L 210.872837 92.175385 
L 212.504267 80.329489 
L 214.135697 85.506373 
L 215.767127 77.819157 
L 217.398556 86.840394 
L 219.029986 84.183026 
L 220.661416 98.539712 
L 223.924276 81.680239 
L 225.555706 92.23876 
L 227.187136 97.929335 
L 228.818566 90.471505 
L 230.449995 95.919563 
L 232.081425 91.893266 
L 233.712855 86.676284 
L 235.344285 82.797248 
L 236.975715 88.154286 
L 238.607145 103.103937 
L 241.870005 81.507505 
L 243.501434 93.053062 
L 245.132864 89.657593 
L 246.764294 82.643021 
L 248.395724 85.401141 
L 250.027154 82.76291 
L 251.658584 84.39964 
L 253.290014 82.9399 
L 254.921444 83.420807 
L 256.552873 89.040142 
L 258.184303 78.035907 
L 259.815733 78.183331 
L 261.447163 98.897336 
L 263.078593 80.483969 
L 264.710023 92.030686 
L 266.341453 87.94451 
L 267.972883 92.632833 
L 269.604312 84.279221 
L 271.235742 94.631282 
L 272.867172 53.568 
L 274.498602 85.253336 
L 276.130032 89.07659 
L 277.761462 90.457049 
L 279.392892 90.498001 
L 281.024322 90.694042 
L 282.655751 96.182428 
L 284.287181 104.256857 
L 285.918611 86.674215 
L 287.550041 98.935631 
L 289.181471 89.955796 
L 290.812901 89.600871 
L 292.444331 100.312675 
L 294.075761 75.807326 
L 295.70719 97.62787 
L 297.33862 89.232195 
L 298.97005 96.111519 
L 300.60148 84.538746 
L 302.23291 81.44958 
L 305.49577 89.468784 
L 307.1272 87.913812 
L 308.75863 96.153846 
L 310.390059 84.017381 
L 312.021489 90.806714 
L 313.652919 89.680459 
L 315.284349 85.708887 
L 316.915779 87.975174 
L 318.547209 87.827743 
L 320.178639 79.118184 
L 321.810069 93.499443 
L 323.441498 94.824177 
L 325.072928 90.687143 
L 326.704358 80.387187 
L 328.335788 90.985451 
L 329.967218 76.877488 
L 331.598648 84.176133 
L 333.230078 96.010829 
L 334.861508 77.95377 
L 336.492937 80.473311 
L 338.124367 96.085965 
L 339.755797 89.314082 
L 341.387227 97.491009 
L 343.018657 93.241698 
L 344.650087 97.504768 
L 346.281517 94.694166 
L 347.912947 100.428595 
L 349.544376 90.651288 
L 351.175806 103.061098 
L 352.807236 89.673268 
L 354.438666 83.059866 
L 356.070096 94.761066 
L 357.701526 88.339216 
L 359.332956 97.667199 
L 360.964386 76.898878 
L 362.595815 98.876215 
L 364.227245 98.732175 
L 365.858675 84.230538 
L 367.490105 89.485541 
L 369.121535 89.116217 
L 370.752965 82.477209 
L 372.384395 86.721049 
L 374.015825 96.050755 
L 375.647254 81.619716 
L 377.278684 91.990587 
L 378.910114 88.405406 
L 380.541544 80.664366 
L 382.172974 93.621744 
L 383.804404 71.534604 
L 385.435834 81.537756 
L 387.067264 90.825026 
L 388.698693 93.59005 
L 390.330123 74.268444 
L 391.961553 70.869496 
L 393.592983 89.099668 
L 395.224413 83.012263 
L 396.855843 100.360521 
L 398.487273 90.900721 
L 398.487273 90.900721 
" clip-path="url(#pc1aeef2deb)" style="fill: none; stroke: #ff0000; stroke-width: 1.5; stroke-linecap: square"/>
   </g>
   <g id="patch_3">
    <path d="M 57.6 307.584 
L 57.6 41.472 
" style="fill: none; stroke: #000000; stroke-width: 0.8; stroke-linejoin: miter; stroke-linecap: square"/>
   </g>
   <g id="patch_4">
    <path d="M 414.72 307.584 
L 414.72 41.472 
" style="fill: none; stroke: #000000; stroke-width: 0.8; stroke-linejoin: miter; stroke-linecap: square"/>
   </g>
   <g id="patch_5">
    <path d="M 57.6 307.584 
L 414.72 307.584 
" style="fill: none; stroke: #000000; stroke-width: 0.8; stroke-linejoin: miter; stroke-linecap: square"/>
   </g>
   <g id="patch_6">
    <path d="M 57.6 41.472 
L 414.72 41.472 
" style="fill: none; stroke: #000000; stroke-width: 0.8; stroke-linejoin: miter; stroke-linecap: square"/>
   </g>
   <g id="text_13">
    <!-- Średnie i najlepsze przystosowanie w każdej generacji -->
    <g transform="translate(73.26 35.472) scale(0.12 -0.12)">
     <defs>
      <path id="DejaVuSans-15a" d="M 2236 5921 
L 2814 5921 
L 2102 5096 
L 1623 5096 
L 2236 5921 
z
M 3425 4513 
L 3425 3897 
Q 3066 4069 2747 4153 
Q 2428 4238 2131 4238 
Q 1616 4238 1336 4038 
Q 1056 3838 1056 3469 
Q 1056 3159 1242 3001 
Q 1428 2844 1947 2747 
L 2328 2669 
Q 3034 2534 3370 2195 
Q 3706 1856 3706 1288 
Q 3706 609 3251 259 
Q 2797 -91 1919 -91 
Q 1588 -91 1214 -16 
Q 841 59 441 206 
L 441 856 
Q 825 641 1194 531 
Q 1563 422 1919 422 
Q 2459 422 2753 634 
Q 3047 847 3047 1241 
Q 3047 1584 2836 1778 
Q 2625 1972 2144 2069 
L 1759 2144 
Q 1053 2284 737 2584 
Q 422 2884 422 3419 
Q 422 4038 858 4394 
Q 1294 4750 2059 4750 
Q 2388 4750 2728 4690 
Q 3069 4631 3425 4513 
z
" transform="scale(0.015625)"/>
      <path id="DejaVuSans-64" d="M 2906 2969 
L 2906 4863 
L 3481 4863 
L 3481 0 
L 2906 0 
L 2906 525 
Q 2725 213 2448 61 
Q 2172 -91 1784 -91 
Q 1150 -91 751 415 
Q 353 922 353 1747 
Q 353 2572 751 3078 
Q 1150 3584 1784 3584 
Q 2172 3584 2448 3432 
Q 2725 3281 2906 2969 
z
M 947 1747 
Q 947 1113 1208 752 
Q 1469 391 1925 391 
Q 2381 391 2643 752 
Q 2906 1113 2906 1747 
Q 2906 2381 2643 2742 
Q 2381 3103 1925 3103 
Q 1469 3103 1208 2742 
Q 947 2381 947 1747 
z
" transform="scale(0.015625)"/>
      <path id="DejaVuSans-20" transform="scale(0.015625)"/>
      <path id="DejaVuSans-6c" d="M 603 4863 
L 1178 4863 
L 1178 0 
L 603 0 
L 603 4863 
z
" transform="scale(0.015625)"/>
      <path id="DejaVuSans-70" d="M 1159 525 
L 1159 -1331 
L 581 -1331 
L 581 3500 
L 1159 3500 
L 1159 2969 
Q 1341 3281 1617 3432 
Q 1894 3584 2278 3584 
Q 2916 3584 3314 3078 
Q 3713 2572 3713 1747 
Q 3713 922 3314 415 
Q 2916 -91 2278 -91 
Q 1894 -91 1617 61 
Q 1341 213 1159 525 
z
M 3116 1747 
Q 3116 2381 2855 2742 
Q 2594 3103 2138 3103 
Q 1681 3103 1420 2742 
Q 1159 2381 1159 1747 
Q 1159 1113 1420 752 
Q 1681 391 2138 391 
Q 2594 391 2855 752 
Q 3116 1113 3116 1747 
z
" transform="scale(0.015625)"/>
      <path id="DejaVuSans-6b" d="M 581 4863 
L 1159 4863 
L 1159 1991 
L 2875 3500 
L 3609 3500 
L 1753 1863 
L 3688 0 
L 2938 0 
L 1159 1709 
L 1159 0 
L 581 0 
L 581 4863 
z
" transform="scale(0.015625)"/>
      <path id="DejaVuSans-17c" d="M 1378 4863 
L 1953 4863 
L 1953 4134 
L 1378 4134 
L 1378 4863 
z
M 1672 3584 
L 1672 3584 
z
M 353 3500 
L 3084 3500 
L 3084 2975 
L 922 459 
L 3084 459 
L 3084 0 
L 275 0 
L 275 525 
L 2438 3041 
L 353 3041 
L 353 3500 
z
" transform="scale(0.015625)"/>
      <path id="DejaVuSans-67" d="M 2906 1791 
Q 2906 2416 2648 2759 
Q 2391 3103 1925 3103 
Q 1463 3103 1205 2759 
Q 947 2416 947 1791 
Q 947 1169 1205 825 
Q 1463 481 1925 481 
Q 2391 481 2648 825 
Q 2906 1169 2906 1791 
z
M 3481 434 
Q 3481 -459 3084 -895 
Q 2688 -1331 1869 -1331 
Q 1566 -1331 1297 -1286 
Q 1028 -1241 775 -1147 
L 775 -588 
Q 1028 -725 1275 -790 
Q 1522 -856 1778 -856 
Q 2344 -856 2625 -561 
Q 2906 -266 2906 331 
L 2906 616 
Q 2728 306 2450 153 
Q 2172 0 1784 0 
Q 1141 0 747 490 
Q 353 981 353 1791 
Q 353 2603 747 3093 
Q 1141 3584 1784 3584 
Q 2172 3584 2450 3431 
Q 2728 3278 2906 2969 
L 2906 3500 
L 3481 3500 
L 3481 434 
z
" transform="scale(0.015625)"/>
     </defs>
     <use xlink:href="#DejaVuSans-15a"/>
     <use xlink:href="#DejaVuSans-72" transform="translate(63.476562 0)"/>
     <use xlink:href="#DejaVuSans-65" transform="translate(102.339844 0)"/>
     <use xlink:href="#DejaVuSans-64" transform="translate(163.863281 0)"/>
     <use xlink:href="#DejaVuSans-6e" transform="translate(227.339844 0)"/>
     <use xlink:href="#DejaVuSans-69" transform="translate(290.71875 0)"/>
     <use xlink:href="#DejaVuSans-65" transform="translate(318.501953 0)"/>
     <use xlink:href="#DejaVuSans-20" transform="translate(380.025391 0)"/>
     <use xlink:href="#DejaVuSans-69" transform="translate(411.8125 0)"/>
     <use xlink:href="#DejaVuSans-20" transform="translate(439.595703 0)"/>
     <use xlink:href="#DejaVuSans-6e" transform="translate(471.382812 0)"/>
     <use xlink:href="#DejaVuSans-61" transform="translate(534.761719 0)"/>
     <use xlink:href="#DejaVuSans-6a" transform="translate(596.041016 0)"/>
     <use xlink:href="#DejaVuSans-6c" transform="translate(623.824219 0)"/>
     <use xlink:href="#DejaVuSans-65" transform="translate(651.607422 0)"/>
     <use xlink:href="#DejaVuSans-70" transform="translate(713.130859 0)"/>
     <use xlink:href="#DejaVuSans-73" transform="translate(776.607422 0)"/>
     <use xlink:href="#DejaVuSans-7a" transform="translate(828.707031 0)"/>
     <use xlink:href="#DejaVuSans-65" transform="translate(881.197266 0)"/>
     <use xlink:href="#DejaVuSans-20" transform="translate(942.720703 0)"/>
     <use xlink:href="#DejaVuSans-70" transform="translate(974.507812 0)"/>
     <use xlink:href="#DejaVuSans-72" transform="translate(1037.984375 0)"/>
     <use xlink:href="#DejaVuSans-7a" transform="translate(1079.097656 0)"/>
     <use xlink:href="#DejaVuSans-79" transform="translate(1131.587891 0)"/>
     <use xlink:href="#DejaVuSans-73" transform="translate(1190.767578 0)"/>
     <use xlink:href="#DejaVuSans-74" transform="translate(1242.867188 0)"/>
     <use xlink:href="#DejaVuSans-6f" transform="translate(1282.076172 0)"/>
     <use xlink:href="#DejaVuSans-73" transform="translate(1343.257812 0)"/>
     <use xlink:href="#DejaVuSans-6f" transform="translate(1395.357422 0)"/>
     <use xlink:href="#DejaVuSans-77" transform="translate(1456.539062 0)"/>
     <use xlink:href="#DejaVuSans-61" transform="translate(1538.326172 0)"/>
     <use xlink:href="#DejaVuSans-6e" transform="translate(1599.605469 0)"/>
     <use xlink:href="#DejaVuSans-69" transform="translate(1662.984375 0)"/>
     <use xlink:href="#DejaVuSans-65" transform="translate(1690.767578 0)"/>
     <use xlink:href="#DejaVuSans-20" transform="translate(1752.291016 0)"/>
     <use xlink:href="#DejaVuSans-77" transform="translate(1784.078125 0)"/>
     <use xlink:href="#DejaVuSans-20" transform="translate(1865.865234 0)"/>
     <use xlink:href="#DejaVuSans-6b" transform="translate(1897.652344 0)"/>
     <use xlink:href="#DejaVuSans-61" transform="translate(1953.8125 0)"/>
     <use xlink:href="#DejaVuSans-17c" transform="translate(2015.091797 0)"/>
     <use xlink:href="#DejaVuSans-64" transform="translate(2067.582031 0)"/>
     <use xlink:href="#DejaVuSans-65" transform="translate(2131.058594 0)"/>
     <use xlink:href="#DejaVuSans-6a" transform="translate(2192.582031 0)"/>
     <use xlink:href="#DejaVuSans-20" transform="translate(2220.365234 0)"/>
     <use xlink:href="#DejaVuSans-67" transform="translate(2252.152344 0)"/>
     <use xlink:href="#DejaVuSans-65" transform="translate(2315.628906 0)"/>
     <use xlink:href="#DejaVuSans-6e" transform="translate(2377.152344 0)"/>
     <use xlink:href="#DejaVuSans-65" transform="translate(2440.53125 0)"/>
     <use xlink:href="#DejaVuSans-72" transform="translate(2502.054688 0)"/>
     <use xlink:href="#DejaVuSans-61" transform="translate(2543.167969 0)"/>
     <use xlink:href="#DejaVuSans-63" transform="translate(2604.447266 0)"/>
     <use xlink:href="#DejaVuSans-6a" transform="translate(2659.427734 0)"/>
     <use xlink:href="#DejaVuSans-69" transform="translate(2687.210938 0)"/>
    </g>
   </g>
   <g id="legend_1">
    <g id="patch_7">
     <path d="M 279.790313 302.584 
L 407.72 302.584 
Q 409.72 302.584 409.72 300.584 
L 409.72 257.549625 
Q 409.72 255.549625 407.72 255.549625 
L 279.790313 255.549625 
Q 277.790313 255.549625 277.790313 257.549625 
L 277.790313 300.584 
Q 277.790313 302.584 279.790313 302.584 
z
" style="fill: #ffffff; opacity: 0.8; stroke: #cccccc; stroke-linejoin: miter"/>
    </g>
    <g id="line2d_24">
     <path d="M 281.790313 263.648062 
L 291.790313 263.648062 
L 301.790313 263.648062 
" style="fill: none; stroke: #0000ff; stroke-width: 1.5; stroke-linecap: square"/>
    </g>
    <g id="text_14">
     <!-- Średnia -->
     <g transform="translate(309.790313 267.148062) scale(0.1 -0.1)">
      <use xlink:href="#DejaVuSans-15a"/>
      <use xlink:href="#DejaVuSans-72" transform="translate(63.476562 0)"/>
      <use xlink:href="#DejaVuSans-65" transform="translate(102.339844 0)"/>
      <use xlink:href="#DejaVuSans-64" transform="translate(163.863281 0)"/>
      <use xlink:href="#DejaVuSans-6e" transform="translate(227.339844 0)"/>
      <use xlink:href="#DejaVuSans-69" transform="translate(290.71875 0)"/>
      <use xlink:href="#DejaVuSans-61" transform="translate(318.501953 0)"/>
     </g>
    </g>
    <g id="line2d_25">
     <path d="M 281.790313 278.326188 
L 291.790313 278.326188 
L 301.790313 278.326188 
" style="fill: none; stroke-dasharray: 9.6,2.4,1.5,2.4; stroke-dashoffset: 0; stroke: #008000; stroke-width: 1.5"/>
    </g>
    <g id="text_15">
     <!-- ±1 Odchylenie std. -->
     <g transform="translate(309.790313 281.826188) scale(0.1 -0.1)">
      <defs>
       <path id="DejaVuSans-b1" d="M 2944 4013 
L 2944 2803 
L 4684 2803 
L 4684 2272 
L 2944 2272 
L 2944 1063 
L 2419 1063 
L 2419 2272 
L 678 2272 
L 678 2803 
L 2419 2803 
L 2419 4013 
L 2944 4013 
z
M 678 531 
L 4684 531 
L 4684 0 
L 678 0 
L 678 531 
z
" transform="scale(0.015625)"/>
       <path id="DejaVuSans-4f" d="M 2522 4238 
Q 1834 4238 1429 3725 
Q 1025 3213 1025 2328 
Q 1025 1447 1429 934 
Q 1834 422 2522 422 
Q 3209 422 3611 934 
Q 4013 1447 4013 2328 
Q 4013 3213 3611 3725 
Q 3209 4238 2522 4238 
z
M 2522 4750 
Q 3503 4750 4090 4092 
Q 4678 3434 4678 2328 
Q 4678 1225 4090 567 
Q 3503 -91 2522 -91 
Q 1538 -91 948 565 
Q 359 1222 359 2328 
Q 359 3434 948 4092 
Q 1538 4750 2522 4750 
z
" transform="scale(0.015625)"/>
       <path id="DejaVuSans-68" d="M 3513 2113 
L 3513 0 
L 2938 0 
L 2938 2094 
Q 2938 2591 2744 2837 
Q 2550 3084 2163 3084 
Q 1697 3084 1428 2787 
Q 1159 2491 1159 1978 
L 1159 0 
L 581 0 
L 581 4863 
L 1159 4863 
L 1159 2956 
Q 1366 3272 1645 3428 
Q 1925 3584 2291 3584 
Q 2894 3584 3203 3211 
Q 3513 2838 3513 2113 
z
" transform="scale(0.015625)"/>
       <path id="DejaVuSans-2e" d="M 684 794 
L 1344 794 
L 1344 0 
L 684 0 
L 684 794 
z
" transform="scale(0.015625)"/>
      </defs>
      <use xlink:href="#DejaVuSans-b1"/>
      <use xlink:href="#DejaVuSans-31" transform="translate(83.789062 0)"/>
      <use xlink:href="#DejaVuSans-20" transform="translate(147.412109 0)"/>
      <use xlink:href="#DejaVuSans-4f" transform="translate(179.199219 0)"/>
      <use xlink:href="#DejaVuSans-64" transform="translate(257.910156 0)"/>
      <use xlink:href="#DejaVuSans-63" transform="translate(321.386719 0)"/>
      <use xlink:href="#DejaVuSans-68" transform="translate(376.367188 0)"/>
      <use xlink:href="#DejaVuSans-79" transform="translate(439.746094 0)"/>
      <use xlink:href="#DejaVuSans-6c" transform="translate(498.925781 0)"/>
      <use xlink:href="#DejaVuSans-65" transform="translate(526.708984 0)"/>
      <use xlink:href="#DejaVuSans-6e" transform="translate(588.232422 0)"/>
      <use xlink:href="#DejaVuSans-69" transform="translate(651.611328 0)"/>
      <use xlink:href="#DejaVuSans-65" transform="translate(679.394531 0)"/>
      <use xlink:href="#DejaVuSans-20" transform="translate(740.917969 0)"/>
      <use xlink:href="#DejaVuSans-73" transform="translate(772.705078 0)"/>
      <use xlink:href="#DejaVuSans-74" transform="translate(824.804688 0)"/>
      <use xlink:href="#DejaVuSans-64" transform="translate(864.013672 0)"/>
      <use xlink:href="#DejaVuSans-2e" transform="translate(927.490234 0)"/>
     </g>
    </g>
    <g id="line2d_26">
     <path d="M 281.790313 293.004312 
L 291.790313 293.004312 
L 301.790313 293.004312 
" style="fill: none; stroke: #ff0000; stroke-width: 1.5; stroke-linecap: square"/>
    </g>
    <g id="text_16">
     <!-- Najlepsze -->
     <g transform="translate(309.790313 296.504312) scale(0.1 -0.1)">
      <defs>
       <path id="DejaVuSans-4e" d="M 628 4666 
L 1478 4666 
L 3547 763 
L 3547 4666 
L 4159 4666 
L 4159 0 
L 3309 0 
L 1241 3903 
L 1241 0 
L 628 0 
L 628 4666 
z
" transform="scale(0.015625)"/>
      </defs>
      <use xlink:href="#DejaVuSans-4e"/>
      <use xlink:href="#DejaVuSans-61" transform="translate(74.804688 0)"/>
      <use xlink:href="#DejaVuSans-6a" transform="translate(136.083984 0)"/>
      <use xlink:href="#DejaVuSans-6c" transform="translate(163.867188 0)"/>
      <use xlink:href="#DejaVuSans-65" transform="translate(191.650391 0)"/>
      <use xlink:href="#DejaVuSans-70" transform="translate(253.173828 0)"/>
      <use xlink:href="#DejaVuSans-73" transform="translate(316.650391 0)"/>
      <use xlink:href="#DejaVuSans-7a" transform="translate(368.75 0)"/>
      <use xlink:href="#DejaVuSans-65" transform="translate(421.240234 0)"/>
     </g>
    </g>
   </g>
  </g>
 </g>
 <defs>
  <clipPath id="pc1aeef2deb">
   <rect x="57.6" y="41.472" width="357.12" height="266.112"/>
  </clipPath>
 </defs>
</svg>
