<?xml version="1.0" encoding="utf-8" standalone="no"?>
<!DOCTYPE svg PUBLIC "-//W3C//DTD SVG 1.1//EN"
  "http://www.w3.org/Graphics/SVG/1.1/DTD/svg11.dtd">
<svg xmlns:xlink="http://www.w3.org/1999/xlink" width="460.8pt" height="345.6pt" viewBox="0 0 460.8 345.6" xmlns="http://www.w3.org/2000/svg" version="1.1">
 <metadata>
  <rdf:RDF xmlns:dc="http://purl.org/dc/elements/1.1/" xmlns:cc="http://creativecommons.org/ns#" xmlns:rdf="http://www.w3.org/1999/02/22-rdf-syntax-ns#">
   <cc:Work>
    <dc:type rdf:resource="http://purl.org/dc/dcmitype/StillImage"/>
    <dc:date>2026-04-27T01:58:27.115381</dc:date>
    <dc:format>image/svg+xml</dc:format>
    <dc:creator>
     <cc:Agent>
      <dc:title>Matplotlib v3.10.8, https://matplotlib.org/</dc:title>
     </cc:Agent>
    </dc:creator>
   </cc:Work>
  </rdf:RDF>
 </metadata>
 <defs>
  <style type="text/css">*{stroke-linejoin: round; stroke-linecap: butt}</style>
 </defs>
 <g id="figure_1">
  <g id="patch_1">
   <path d="M 0 345.6 
L 460.8 345.6 
L 460.8 0 
L 0 0 
z
" style="fill: #ffffff"/>
  </g>
  <g id="axes_1">
   <g id="patch_2">
    <path d="M 57.6 307.584 
L 414.72 307.584 
L 414.72 41.472 
L 57.6 41.472 
z
" style="fill: #ffffff"/>
   </g>
   <g id="matplotlib.axis_1">
    <g id="xtick_1">
     <g id="line2d_1">
      <path d="M 72.201297 307.584 
L 72.201297 41.472 
" clip-path="url(#p0ce8e9db7b)" style="fill: none; stroke: #b0b0b0; stroke-width: 0.8; stroke-linecap: square"/>
     </g>
     <g id="line2d_2">
      <defs>
       <path id="ma5593bc54f" d="M 0 0 
L 0 3.5 
" style="stroke: #000000; stroke-width: 0.8"/>
      </defs>
      <g>
       <use xlink:href="#ma5593bc54f" x="72.201297" y="307.584" style="stroke: #000000; stroke-width: 0.8"/>
      </g>
     </g>
     <g id="text_1">
      <!-- 0 -->
      <g transform="translate(69.020047 322.182437) scale(0.1 -0.1)">
       <defs>
        <path id="DejaVuSans-30" d="M 2034 4250 
Q 1547 4250 1301 3770 
Q 1056 3291 1056 2328 
Q 1056 1369 1301 889 
Q 1547 409 2034 409 
Q 2525 409 2770 889 
Q 3016 1369 3016 2328 
Q 3016 3291 2770 3770 
Q 2525 4250 2034 4250 
z
M 2034 4750 
Q 2819 4750 3233 4129 
Q 3647 3509 3647 2328 
Q 3647 1150 3233 529 
Q 2819 -91 2034 -91 
Q 1250 -91 836 529 
Q 422 1150 422 2328 
Q 422 3509 836 4129 
Q 1250 4750 2034 4750 
z
" transform="scale(0.015625)"/>
       </defs>
       <use xlink:href="#DejaVuSans-30"/>
      </g>
     </g>
    </g>
    <g id="xtick_2">
     <g id="line2d_3">
      <path d="M 112.987044 307.584 
L 112.987044 41.472 
" clip-path="url(#p0ce8e9db7b)" style="fill: none; stroke: #b0b0b0; stroke-width: 0.8; stroke-linecap: square"/>
     </g>
     <g id="line2d_4">
      <g>
       <use xlink:href="#ma5593bc54f" x="112.987044" y="307.584" style="stroke: #000000; stroke-width: 0.8"/>
      </g>
     </g>
     <g id="text_2">
      <!-- 25 -->
      <g transform="translate(106.624544 322.182437) scale(0.1 -0.1)">
       <defs>
        <path id="DejaVuSans-32" d="M 1228 531 
L 3431 531 
L 3431 0 
L 469 0 
L 469 531 
Q 828 903 1448 1529 
Q 2069 2156 2228 2338 
Q 2531 2678 2651 2914 
Q 2772 3150 2772 3378 
Q 2772 3750 2511 3984 
Q 2250 4219 1831 4219 
Q 1534 4219 1204 4116 
Q 875 4013 500 3803 
L 500 4441 
Q 881 4594 1212 4672 
Q 1544 4750 1819 4750 
Q 2544 4750 2975 4387 
Q 3406 4025 3406 3419 
Q 3406 3131 3298 2873 
Q 3191 2616 2906 2266 
Q 2828 2175 2409 1742 
Q 1991 1309 1228 531 
z
" transform="scale(0.015625)"/>
        <path id="DejaVuSans-35" d="M 691 4666 
L 3169 4666 
L 3169 4134 
L 1269 4134 
L 1269 2991 
Q 1406 3038 1543 3061 
Q 1681 3084 1819 3084 
Q 2600 3084 3056 2656 
Q 3513 2228 3513 1497 
Q 3513 744 3044 326 
Q 2575 -91 1722 -91 
Q 1428 -91 1123 -41 
Q 819 9 494 109 
L 494 744 
Q 775 591 1075 516 
Q 1375 441 1709 441 
Q 2250 441 2565 725 
Q 2881 1009 2881 1497 
Q 2881 1984 2565 2268 
Q 2250 2553 1709 2553 
Q 1456 2553 1204 2497 
Q 953 2441 691 2322 
L 691 4666 
z
" transform="scale(0.015625)"/>
       </defs>
       <use xlink:href="#DejaVuSans-32"/>
       <use xlink:href="#DejaVuSans-35" transform="translate(63.623047 0)"/>
      </g>
     </g>
    </g>
    <g id="xtick_3">
     <g id="line2d_5">
      <path d="M 153.772791 307.584 
L 153.772791 41.472 
" clip-path="url(#p0ce8e9db7b)" style="fill: none; stroke: #b0b0b0; stroke-width: 0.8; stroke-linecap: square"/>
     </g>
     <g id="line2d_6">
      <g>
       <use xlink:href="#ma5593bc54f" x="153.772791" y="307.584" style="stroke: #000000; stroke-width: 0.8"/>
      </g>
     </g>
     <g id="text_3">
      <!-- 50 -->
      <g transform="translate(147.410291 322.182437) scale(0.1 -0.1)">
       <use xlink:href="#DejaVuSans-35"/>
       <use xlink:href="#DejaVuSans-30" transform="translate(63.623047 0)"/>
      </g>
     </g>
    </g>
    <g id="xtick_4">
     <g id="line2d_7">
      <path d="M 194.558538 307.584 
L 194.558538 41.472 
" clip-path="url(#p0ce8e9db7b)" style="fill: none; stroke: #b0b0b0; stroke-width: 0.8; stroke-linecap: square"/>
     </g>
     <g id="line2d_8">
      <g>
       <use xlink:href="#ma5593bc54f" x="194.558538" y="307.584" style="stroke: #000000; stroke-width: 0.8"/>
      </g>
     </g>
     <g id="text_4">
      <!-- 75 -->
      <g transform="translate(188.196038 322.182437) scale(0.1 -0.1)">
       <defs>
        <path id="DejaVuSans-37" d="M 525 4666 
L 3525 4666 
L 3525 4397 
L 1831 0 
L 1172 0 
L 2766 4134 
L 525 4134 
L 525 4666 
z
" transform="scale(0.015625)"/>
       </defs>
       <use xlink:href="#DejaVuSans-37"/>
       <use xlink:href="#DejaVuSans-35" transform="translate(63.623047 0)"/>
      </g>
     </g>
    </g>
    <g id="xtick_5">
     <g id="line2d_9">
      <path d="M 235.344285 307.584 
L 235.344285 41.472 
" clip-path="url(#p0ce8e9db7b)" style="fill: none; stroke: #b0b0b0; stroke-width: 0.8; stroke-linecap: square"/>
     </g>
     <g id="line2d_10">
      <g>
       <use xlink:href="#ma5593bc54f" x="235.344285" y="307.584" style="stroke: #000000; stroke-width: 0.8"/>
      </g>
     </g>
     <g id="text_5">
      <!-- 100 -->
      <g transform="translate(225.800535 322.182437) scale(0.1 -0.1)">
       <defs>
        <path id="DejaVuSans-31" d="M 794 531 
L 1825 531 
L 1825 4091 
L 703 3866 
L 703 4441 
L 1819 4666 
L 2450 4666 
L 2450 531 
L 3481 531 
L 3481 0 
L 794 0 
L 794 531 
z
" transform="scale(0.015625)"/>
       </defs>
       <use xlink:href="#DejaVuSans-31"/>
       <use xlink:href="#DejaVuSans-30" transform="translate(63.623047 0)"/>
       <use xlink:href="#DejaVuSans-30" transform="translate(127.246094 0)"/>
      </g>
     </g>
    </g>
    <g id="xtick_6">
     <g id="line2d_11">
      <path d="M 276.130032 307.584 
L 276.130032 41.472 
" clip-path="url(#p0ce8e9db7b)" style="fill: none; stroke: #b0b0b0; stroke-width: 0.8; stroke-linecap: square"/>
     </g>
     <g id="line2d_12">
      <g>
       <use xlink:href="#ma5593bc54f" x="276.130032" y="307.584" style="stroke: #000000; stroke-width: 0.8"/>
      </g>
     </g>
     <g id="text_6">
      <!-- 125 -->
      <g transform="translate(266.586282 322.182437) scale(0.1 -0.1)">
       <use xlink:href="#DejaVuSans-31"/>
       <use xlink:href="#DejaVuSans-32" transform="translate(63.623047 0)"/>
       <use xlink:href="#DejaVuSans-35" transform="translate(127.246094 0)"/>
      </g>
     </g>
    </g>
    <g id="xtick_7">
     <g id="line2d_13">
      <path d="M 316.915779 307.584 
L 316.915779 41.472 
" clip-path="url(#p0ce8e9db7b)" style="fill: none; stroke: #b0b0b0; stroke-width: 0.8; stroke-linecap: square"/>
     </g>
     <g id="line2d_14">
      <g>
       <use xlink:href="#ma5593bc54f" x="316.915779" y="307.584" style="stroke: #000000; stroke-width: 0.8"/>
      </g>
     </g>
     <g id="text_7">
      <!-- 150 -->
      <g transform="translate(307.372029 322.182437) scale(0.1 -0.1)">
       <use xlink:href="#DejaVuSans-31"/>
       <use xlink:href="#DejaVuSans-35" transform="translate(63.623047 0)"/>
       <use xlink:href="#DejaVuSans-30" transform="translate(127.246094 0)"/>
      </g>
     </g>
    </g>
    <g id="xtick_8">
     <g id="line2d_15">
      <path d="M 357.701526 307.584 
L 357.701526 41.472 
" clip-path="url(#p0ce8e9db7b)" style="fill: none; stroke: #b0b0b0; stroke-width: 0.8; stroke-linecap: square"/>
     </g>
     <g id="line2d_16">
      <g>
       <use xlink:href="#ma5593bc54f" x="357.701526" y="307.584" style="stroke: #000000; stroke-width: 0.8"/>
      </g>
     </g>
     <g id="text_8">
      <!-- 175 -->
      <g transform="translate(348.157776 322.182437) scale(0.1 -0.1)">
       <use xlink:href="#DejaVuSans-31"/>
       <use xlink:href="#DejaVuSans-37" transform="translate(63.623047 0)"/>
       <use xlink:href="#DejaVuSans-35" transform="translate(127.246094 0)"/>
      </g>
     </g>
    </g>
    <g id="xtick_9">
     <g id="line2d_17">
      <path d="M 398.487273 307.584 
L 398.487273 41.472 
" clip-path="url(#p0ce8e9db7b)" style="fill: none; stroke: #b0b0b0; stroke-width: 0.8; stroke-linecap: square"/>
     </g>
     <g id="line2d_18">
      <g>
       <use xlink:href="#ma5593bc54f" x="398.487273" y="307.584" style="stroke: #000000; stroke-width: 0.8"/>
      </g>
     </g>
     <g id="text_9">
      <!-- 200 -->
      <g transform="translate(388.943523 322.182437) scale(0.1 -0.1)">
       <use xlink:href="#DejaVuSans-32"/>
       <use xlink:href="#DejaVuSans-30" transform="translate(63.623047 0)"/>
       <use xlink:href="#DejaVuSans-30" transform="translate(127.246094 0)"/>
      </g>
     </g>
    </g>
    <g id="text_10">
     <!-- Generacje -->
     <g transform="translate(210.629531 335.860562) scale(0.1 -0.1)">
      <defs>
       <path id="DejaVuSans-47" d="M 3809 666 
L 3809 1919 
L 2778 1919 
L 2778 2438 
L 4434 2438 
L 4434 434 
Q 4069 175 3628 42 
Q 3188 -91 2688 -91 
Q 1594 -91 976 548 
Q 359 1188 359 2328 
Q 359 3472 976 4111 
Q 1594 4750 2688 4750 
Q 3144 4750 3555 4637 
Q 3966 4525 4313 4306 
L 4313 3634 
Q 3963 3931 3569 4081 
Q 3175 4231 2741 4231 
Q 1884 4231 1454 3753 
Q 1025 3275 1025 2328 
Q 1025 1384 1454 906 
Q 1884 428 2741 428 
Q 3075 428 3337 486 
Q 3600 544 3809 666 
z
" transform="scale(0.015625)"/>
       <path id="DejaVuSans-65" d="M 3597 1894 
L 3597 1613 
L 953 1613 
Q 991 1019 1311 708 
Q 1631 397 2203 397 
Q 2534 397 2845 478 
Q 3156 559 3463 722 
L 3463 178 
Q 3153 47 2828 -22 
Q 2503 -91 2169 -91 
Q 1331 -91 842 396 
Q 353 884 353 1716 
Q 353 2575 817 3079 
Q 1281 3584 2069 3584 
Q 2775 3584 3186 3129 
Q 3597 2675 3597 1894 
z
M 3022 2063 
Q 3016 2534 2758 2815 
Q 2500 3097 2075 3097 
Q 1594 3097 1305 2825 
Q 1016 2553 972 2059 
L 3022 2063 
z
" transform="scale(0.015625)"/>
       <path id="DejaVuSans-6e" d="M 3513 2113 
L 3513 0 
L 2938 0 
L 2938 2094 
Q 2938 2591 2744 2837 
Q 2550 3084 2163 3084 
Q 1697 3084 1428 2787 
Q 1159 2491 1159 1978 
L 1159 0 
L 581 0 
L 581 3500 
L 1159 3500 
L 1159 2956 
Q 1366 3272 1645 3428 
Q 1925 3584 2291 3584 
Q 2894 3584 3203 3211 
Q 3513 2838 3513 2113 
z
" transform="scale(0.015625)"/>
       <path id="DejaVuSans-72" d="M 2631 2963 
Q 2534 3019 2420 3045 
Q 2306 3072 2169 3072 
Q 1681 3072 1420 2755 
Q 1159 2438 1159 1844 
L 1159 0 
L 581 0 
L 581 3500 
L 1159 3500 
L 1159 2956 
Q 1341 3275 1631 3429 
Q 1922 3584 2338 3584 
Q 2397 3584 2469 3576 
Q 2541 3569 2628 3553 
L 2631 2963 
z
" transform="scale(0.015625)"/>
       <path id="DejaVuSans-61" d="M 2194 1759 
Q 1497 1759 1228 1600 
Q 959 1441 959 1056 
Q 959 750 1161 570 
Q 1363 391 1709 391 
Q 2188 391 2477 730 
Q 2766 1069 2766 1631 
L 2766 1759 
L 2194 1759 
z
M 3341 1997 
L 3341 0 
L 2766 0 
L 2766 531 
Q 2569 213 2275 61 
Q 1981 -91 1556 -91 
Q 1019 -91 701 211 
Q 384 513 384 1019 
Q 384 1609 779 1909 
Q 1175 2209 1959 2209 
L 2766 2209 
L 2766 2266 
Q 2766 2663 2505 2880 
Q 2244 3097 1772 3097 
Q 1472 3097 1187 3025 
Q 903 2953 641 2809 
L 641 3341 
Q 956 3463 1253 3523 
Q 1550 3584 1831 3584 
Q 2591 3584 2966 3190 
Q 3341 2797 3341 1997 
z
" transform="scale(0.015625)"/>
       <path id="DejaVuSans-63" d="M 3122 3366 
L 3122 2828 
Q 2878 2963 2633 3030 
Q 2388 3097 2138 3097 
Q 1578 3097 1268 2742 
Q 959 2388 959 1747 
Q 959 1106 1268 751 
Q 1578 397 2138 397 
Q 2388 397 2633 464 
Q 2878 531 3122 666 
L 3122 134 
Q 2881 22 2623 -34 
Q 2366 -91 2075 -91 
Q 1284 -91 818 406 
Q 353 903 353 1747 
Q 353 2603 823 3093 
Q 1294 3584 2113 3584 
Q 2378 3584 2631 3529 
Q 2884 3475 3122 3366 
z
" transform="scale(0.015625)"/>
       <path id="DejaVuSans-6a" d="M 603 3500 
L 1178 3500 
L 1178 -63 
Q 1178 -731 923 -1031 
Q 669 -1331 103 -1331 
L -116 -1331 
L -116 -844 
L 38 -844 
Q 366 -844 484 -692 
Q 603 -541 603 -63 
L 603 3500 
z
M 603 4863 
L 1178 4863 
L 1178 4134 
L 603 4134 
L 603 4863 
z
" transform="scale(0.015625)"/>
      </defs>
      <use xlink:href="#DejaVuSans-47"/>
      <use xlink:href="#DejaVuSans-65" transform="translate(77.490234 0)"/>
      <use xlink:href="#DejaVuSans-6e" transform="translate(139.013672 0)"/>
      <use xlink:href="#DejaVuSans-65" transform="translate(202.392578 0)"/>
      <use xlink:href="#DejaVuSans-72" transform="translate(263.916016 0)"/>
      <use xlink:href="#DejaVuSans-61" transform="translate(305.029297 0)"/>
      <use xlink:href="#DejaVuSans-63" transform="translate(366.308594 0)"/>
      <use xlink:href="#DejaVuSans-6a" transform="translate(421.289062 0)"/>
      <use xlink:href="#DejaVuSans-65" transform="translate(449.072266 0)"/>
     </g>
    </g>
   </g>
   <g id="matplotlib.axis_2">
    <g id="ytick_1">
     <g id="line2d_19">
      <path d="M 57.6 111.687647 
L 414.72 111.687647 
" clip-path="url(#p0ce8e9db7b)" style="fill: none; stroke: #b0b0b0; stroke-width: 0.8; stroke-linecap: square"/>
     </g>
     <g id="line2d_20">
      <defs>
       <path id="m3c19c6c029" d="M 0 0 
L -3.5 0 
" style="stroke: #000000; stroke-width: 0.8"/>
      </defs>
      <g>
       <use xlink:href="#m3c19c6c029" x="57.6" y="111.687647" style="stroke: #000000; stroke-width: 0.8"/>
      </g>
     </g>
     <g id="text_11">
      <!-- $\mathdefault{10^{2}}$ -->
      <g transform="translate(33 115.486866) scale(0.1 -0.1)">
       <use xlink:href="#DejaVuSans-31" transform="translate(0 0.765625)"/>
       <use xlink:href="#DejaVuSans-30" transform="translate(63.623047 0.765625)"/>
       <use xlink:href="#DejaVuSans-32" transform="translate(128.203125 39.046875) scale(0.7)"/>
      </g>
     </g>
    </g>
    <g id="text_12">
     <!-- Przystosowanie -->
     <g transform="translate(26.920312 213.170187) rotate(-90) scale(0.1 -0.1)">
      <defs>
       <path id="DejaVuSans-50" d="M 1259 4147 
L 1259 2394 
L 2053 2394 
Q 2494 2394 2734 2622 
Q 2975 2850 2975 3272 
Q 2975 3691 2734 3919 
Q 2494 4147 2053 4147 
L 1259 4147 
z
M 628 4666 
L 2053 4666 
Q 2838 4666 3239 4311 
Q 3641 3956 3641 3272 
Q 3641 2581 3239 2228 
Q 2838 1875 2053 1875 
L 1259 1875 
L 1259 0 
L 628 0 
L 628 4666 
z
" transform="scale(0.015625)"/>
       <path id="DejaVuSans-7a" d="M 353 3500 
L 3084 3500 
L 3084 2975 
L 922 459 
L 3084 459 
L 3084 0 
L 275 0 
L 275 525 
L 2438 3041 
L 353 3041 
L 353 3500 
z
" transform="scale(0.015625)"/>
       <path id="DejaVuSans-79" d="M 2059 -325 
Q 1816 -950 1584 -1140 
Q 1353 -1331 966 -1331 
L 506 -1331 
L 506 -850 
L 844 -850 
Q 1081 -850 1212 -737 
Q 1344 -625 1503 -206 
L 1606 56 
L 191 3500 
L 800 3500 
L 1894 763 
L 2988 3500 
L 3597 3500 
L 2059 -325 
z
" transform="scale(0.015625)"/>
       <path id="DejaVuSans-73" d="M 2834 3397 
L 2834 2853 
Q 2591 2978 2328 3040 
Q 2066 3103 1784 3103 
Q 1356 3103 1142 2972 
Q 928 2841 928 2578 
Q 928 2378 1081 2264 
Q 1234 2150 1697 2047 
L 1894 2003 
Q 2506 1872 2764 1633 
Q 3022 1394 3022 966 
Q 3022 478 2636 193 
Q 2250 -91 1575 -91 
Q 1294 -91 989 -36 
Q 684 19 347 128 
L 347 722 
Q 666 556 975 473 
Q 1284 391 1588 391 
Q 1994 391 2212 530 
Q 2431 669 2431 922 
Q 2431 1156 2273 1281 
Q 2116 1406 1581 1522 
L 1381 1569 
Q 847 1681 609 1914 
Q 372 2147 372 2553 
Q 372 3047 722 3315 
Q 1072 3584 1716 3584 
Q 2034 3584 2315 3537 
Q 2597 3491 2834 3397 
z
" transform="scale(0.015625)"/>
       <path id="DejaVuSans-74" d="M 1172 4494 
L 1172 3500 
L 2356 3500 
L 2356 3053 
L 1172 3053 
L 1172 1153 
Q 1172 725 1289 603 
Q 1406 481 1766 481 
L 2356 481 
L 2356 0 
L 1766 0 
Q 1100 0 847 248 
Q 594 497 594 1153 
L 594 3053 
L 172 3053 
L 172 3500 
L 594 3500 
L 594 4494 
L 1172 4494 
z
" transform="scale(0.015625)"/>
       <path id="DejaVuSans-6f" d="M 1959 3097 
Q 1497 3097 1228 2736 
Q 959 2375 959 1747 
Q 959 1119 1226 758 
Q 1494 397 1959 397 
Q 2419 397 2687 759 
Q 2956 1122 2956 1747 
Q 2956 2369 2687 2733 
Q 2419 3097 1959 3097 
z
M 1959 3584 
Q 2709 3584 3137 3096 
Q 3566 2609 3566 1747 
Q 3566 888 3137 398 
Q 2709 -91 1959 -91 
Q 1206 -91 779 398 
Q 353 888 353 1747 
Q 353 2609 779 3096 
Q 1206 3584 1959 3584 
z
" transform="scale(0.015625)"/>
       <path id="DejaVuSans-77" d="M 269 3500 
L 844 3500 
L 1563 769 
L 2278 3500 
L 2956 3500 
L 3675 769 
L 4391 3500 
L 4966 3500 
L 4050 0 
L 3372 0 
L 2619 2869 
L 1863 0 
L 1184 0 
L 269 3500 
z
" transform="scale(0.015625)"/>
       <path id="DejaVuSans-69" d="M 603 3500 
L 1178 3500 
L 1178 0 
L 603 0 
L 603 3500 
z
M 603 4863 
L 1178 4863 
L 1178 4134 
L 603 4134 
L 603 4863 
z
" transform="scale(0.015625)"/>
      </defs>
      <use xlink:href="#DejaVuSans-50"/>
      <use xlink:href="#DejaVuSans-72" transform="translate(58.552734 0)"/>
      <use xlink:href="#DejaVuSans-7a" transform="translate(99.666016 0)"/>
      <use xlink:href="#DejaVuSans-79" transform="translate(152.15625 0)"/>
      <use xlink:href="#DejaVuSans-73" transform="translate(211.335938 0)"/>
      <use xlink:href="#DejaVuSans-74" transform="translate(263.435547 0)"/>
      <use xlink:href="#DejaVuSans-6f" transform="translate(302.644531 0)"/>
      <use xlink:href="#DejaVuSans-73" transform="translate(363.826172 0)"/>
      <use xlink:href="#DejaVuSans-6f" transform="translate(415.925781 0)"/>
      <use xlink:href="#DejaVuSans-77" transform="translate(477.107422 0)"/>
      <use xlink:href="#DejaVuSans-61" transform="translate(558.894531 0)"/>
      <use xlink:href="#DejaVuSans-6e" transform="translate(620.173828 0)"/>
      <use xlink:href="#DejaVuSans-69" transform="translate(683.552734 0)"/>
      <use xlink:href="#DejaVuSans-65" transform="translate(711.335938 0)"/>
     </g>
    </g>
   </g>
   <g id="line2d_21">
    <path d="M 73.832727 295.488 
L 75.464157 222.780895 
L 77.095587 177.375134 
L 78.727017 167.648649 
L 80.358447 149.122135 
L 81.989877 149.572703 
L 83.621307 151.918577 
L 85.252736 144.744639 
L 86.884166 140.096852 
L 88.515596 139.729749 
L 90.147026 138.478896 
L 91.778456 142.059002 
L 93.409886 142.101397 
L 95.041316 142.865737 
L 96.672746 139.130639 
L 98.304175 139.914483 
L 99.935605 142.422631 
L 101.567035 138.914063 
L 103.198465 140.789795 
L 104.829895 138.02141 
L 106.461325 142.295752 
L 108.092755 141.651968 
L 109.724185 138.978685 
L 111.355614 139.396388 
L 112.987044 140.540636 
L 114.618474 141.898173 
L 116.249904 137.844133 
L 117.881334 135.577009 
L 119.512764 138.090964 
L 121.144194 137.341738 
L 122.775624 139.579432 
L 124.407053 138.556616 
L 126.038483 139.527746 
L 127.669913 137.242383 
L 129.301343 138.206006 
L 130.932773 134.04905 
L 132.564203 135.135091 
L 134.195633 138.175625 
L 135.827063 137.171057 
L 137.458492 137.319135 
L 139.089922 135.956057 
L 140.721352 136.31046 
L 142.352782 138.204781 
L 143.984212 136.183417 
L 145.615642 134.778463 
L 147.247072 134.294083 
L 148.878502 134.492213 
L 150.509931 136.050764 
L 152.141361 132.403339 
L 153.772791 136.891731 
L 155.404221 130.784879 
L 157.035651 131.770015 
L 158.667081 134.36882 
L 160.298511 135.397476 
L 161.929941 133.658142 
L 163.56137 133.857765 
L 165.1928 132.69728 
L 166.82423 133.594287 
L 168.45566 135.129923 
L 170.08709 133.146302 
L 171.71852 131.994934 
L 173.34995 133.295528 
L 174.98138 132.561443 
L 176.61281 131.004847 
L 178.244239 134.811129 
L 179.875669 130.373291 
L 181.507099 132.538348 
L 183.138529 131.829206 
L 184.769959 130.414895 
L 186.401389 131.63048 
L 188.032819 130.573975 
L 189.664249 131.600847 
L 191.295678 132.042949 
L 192.927108 132.33271 
L 194.558538 131.727178 
L 196.189968 132.099288 
L 197.821398 134.914047 
L 199.452828 132.74059 
L 201.084258 132.086401 
L 202.715688 130.860605 
L 204.347117 132.76253 
L 205.978547 131.325564 
L 207.609977 132.398989 
L 209.241407 132.381432 
L 210.872837 131.00394 
L 212.504267 129.001785 
L 214.135697 130.003451 
L 215.767127 131.580585 
L 217.398556 129.926613 
L 219.029986 129.231462 
L 220.661416 129.917804 
L 222.292846 128.565849 
L 223.924276 131.084182 
L 225.555706 131.803805 
L 227.187136 131.836123 
L 228.818566 130.349097 
L 230.449995 131.202137 
L 232.081425 130.679861 
L 233.712855 134.559579 
L 235.344285 131.038371 
L 236.975715 133.310922 
L 238.607145 133.222218 
L 240.238575 130.129082 
L 241.870005 131.687507 
L 243.501434 129.882147 
L 245.132864 130.267211 
L 246.764294 130.323316 
L 248.395724 131.594373 
L 250.027154 130.454331 
L 251.658584 130.354338 
L 253.290014 130.718275 
L 254.921444 129.751311 
L 256.552873 132.346265 
L 259.815733 130.665583 
L 261.447163 128.370668 
L 263.078593 130.598227 
L 264.710023 131.333977 
L 266.341453 130.069383 
L 267.972883 130.153907 
L 269.604312 130.815172 
L 271.235742 130.044677 
L 272.867172 131.513691 
L 274.498602 131.050926 
L 276.130032 132.511225 
L 277.761462 130.794406 
L 279.392892 129.807564 
L 281.024322 128.522133 
L 282.655751 129.991026 
L 284.287181 129.36088 
L 285.918611 130.42936 
L 287.550041 132.397772 
L 289.181471 128.696226 
L 290.812901 128.528323 
L 292.444331 129.180287 
L 294.075761 131.619211 
L 295.70719 130.296578 
L 297.33862 129.419677 
L 298.97005 129.68861 
L 300.60148 127.852659 
L 302.23291 130.855204 
L 303.86434 128.499282 
L 305.49577 130.613511 
L 307.1272 129.403102 
L 308.75863 130.666147 
L 310.390059 129.41554 
L 312.021489 131.319977 
L 313.652919 129.335968 
L 315.284349 130.295779 
L 316.915779 130.302872 
L 318.547209 130.17756 
L 320.178639 128.94291 
L 321.810069 129.377868 
L 323.441498 130.294687 
L 325.072928 130.050504 
L 326.704358 128.535835 
L 328.335788 129.42817 
L 329.967218 129.76473 
L 331.598648 128.107337 
L 333.230078 129.953953 
L 334.861508 130.509144 
L 336.492937 129.236023 
L 338.124367 129.879617 
L 339.755797 129.782142 
L 341.387227 130.370615 
L 343.018657 131.4019 
L 344.650087 130.759841 
L 346.281517 127.362631 
L 347.912947 129.330593 
L 349.544376 129.96015 
L 351.175806 129.822531 
L 352.807236 130.630301 
L 354.438666 129.396784 
L 356.070096 128.935948 
L 357.701526 127.282912 
L 359.332956 130.963998 
L 360.964386 129.802881 
L 362.595815 129.628337 
L 364.227245 129.940712 
L 365.858675 130.073845 
L 367.490105 128.652699 
L 369.121535 127.916395 
L 370.752965 129.96051 
L 372.384395 128.848511 
L 374.015825 130.479857 
L 375.647254 128.422346 
L 377.278684 131.368557 
L 378.910114 127.532104 
L 380.541544 129.062542 
L 382.172974 131.190073 
L 383.804404 129.467974 
L 385.435834 129.763324 
L 387.067264 129.414319 
L 388.698693 128.652154 
L 390.330123 130.546978 
L 391.961553 128.70126 
L 393.592983 127.70519 
L 395.224413 128.869271 
L 396.855843 129.423736 
L 398.487273 130.852884 
L 398.487273 130.852884 
" clip-path="url(#p0ce8e9db7b)" style="fill: none; stroke: #0000ff; stroke-width: 1.5; stroke-linecap: square"/>
   </g>
   <g id="line2d_22">
    <path d="M 73.832727 237.39038 
L 75.464157 164.604928 
L 77.095587 133.739331 
L 78.727017 124.240867 
L 80.358447 115.976049 
L 81.989877 114.142982 
L 83.621307 114.38429 
L 85.252736 114.859691 
L 88.515596 119.274212 
L 90.147026 118.748223 
L 91.778456 111.498364 
L 93.409886 110.88535 
L 95.041316 113.424823 
L 96.672746 118.361005 
L 98.304175 119.762182 
L 99.935605 118.251241 
L 101.567035 116.41326 
L 103.198465 110.975165 
L 104.829895 116.008478 
L 106.461325 112.748536 
L 108.092755 113.508421 
L 109.724185 117.527459 
L 111.355614 114.414975 
L 112.987044 113.360563 
L 114.618474 112.68091 
L 116.249904 115.040564 
L 117.881334 116.64212 
L 119.512764 116.906935 
L 121.144194 115.130809 
L 122.775624 114.433639 
L 124.407053 116.69453 
L 126.038483 116.319864 
L 127.669913 116.66993 
L 129.301343 113.282331 
L 130.932773 113.378305 
L 132.564203 115.488704 
L 134.195633 111.381909 
L 135.827063 114.991792 
L 137.458492 113.149245 
L 139.089922 114.424128 
L 140.721352 114.889576 
L 142.352782 112.092102 
L 143.984212 113.668025 
L 145.615642 113.942009 
L 147.247072 115.241573 
L 148.878502 115.466378 
L 150.509931 109.030898 
L 152.141361 114.056386 
L 153.772791 110.993278 
L 155.404221 115.857355 
L 157.035651 117.608081 
L 158.667081 120.998171 
L 160.298511 118.870721 
L 161.929941 119.204817 
L 163.56137 118.387272 
L 165.1928 116.110751 
L 166.82423 119.421429 
L 168.45566 115.391036 
L 170.08709 114.667047 
L 171.71852 114.716349 
L 173.34995 115.156213 
L 174.98138 117.126211 
L 176.61281 117.149901 
L 178.244239 114.832248 
L 179.875669 115.585077 
L 181.507099 117.256377 
L 183.138529 116.86603 
L 184.769959 115.94348 
L 186.401389 117.408518 
L 188.032819 114.171337 
L 189.664249 116.407107 
L 191.295678 119.070805 
L 192.927108 118.099651 
L 194.558538 116.640261 
L 196.189968 117.544689 
L 197.821398 117.494869 
L 199.452828 117.322292 
L 201.084258 118.265582 
L 202.715688 114.404411 
L 204.347117 114.570437 
L 205.978547 116.378482 
L 207.609977 116.440308 
L 209.241407 115.161583 
L 210.872837 114.500719 
L 212.504267 109.842662 
L 214.135697 108.911832 
L 215.767127 113.893977 
L 217.398556 111.853602 
L 219.029986 113.880115 
L 220.661416 108.57685 
L 222.292846 111.995745 
L 223.924276 109.242841 
L 225.555706 110.01508 
L 227.187136 116.51709 
L 228.818566 107.399792 
L 230.449995 110.063167 
L 232.081425 112.291331 
L 233.712855 115.001248 
L 235.344285 112.669942 
L 236.975715 110.051999 
L 238.607145 112.987301 
L 240.238575 112.331773 
L 243.501434 114.13633 
L 245.132864 114.243053 
L 246.764294 115.784568 
L 248.395724 116.196281 
L 250.027154 114.073308 
L 251.658584 114.300752 
L 253.290014 112.685162 
L 254.921444 112.406981 
L 256.552873 117.783045 
L 258.184303 117.699462 
L 259.815733 115.651687 
L 261.447163 112.968973 
L 263.078593 114.539411 
L 264.710023 114.364567 
L 266.341453 115.121364 
L 267.972883 113.740428 
L 269.604312 112.062905 
L 271.235742 112.551707 
L 272.867172 115.547347 
L 274.498602 115.124142 
L 276.130032 116.42472 
L 277.761462 114.603849 
L 279.392892 113.001091 
L 281.024322 111.935999 
L 282.655751 111.460402 
L 284.287181 112.527796 
L 285.918611 114.310751 
L 287.550041 116.442841 
L 289.181471 112.177376 
L 290.812901 111.565117 
L 292.444331 113.665156 
L 294.075761 114.759413 
L 295.70719 113.348961 
L 297.33862 113.238955 
L 300.60148 110.746538 
L 302.23291 113.534244 
L 303.86434 111.194155 
L 305.49577 115.094303 
L 307.1272 113.281067 
L 308.75863 113.597434 
L 310.390059 113.512575 
L 312.021489 110.837314 
L 313.652919 112.986403 
L 315.284349 114.826165 
L 316.915779 112.245906 
L 318.547209 112.81502 
L 320.178639 111.964972 
L 321.810069 114.609121 
L 323.441498 113.331852 
L 325.072928 113.886767 
L 326.704358 109.923231 
L 328.335788 112.201247 
L 329.967218 113.584603 
L 331.598648 112.019924 
L 333.230078 112.280981 
L 334.861508 113.762959 
L 336.492937 112.986588 
L 338.124367 112.600442 
L 339.755797 111.657747 
L 341.387227 115.058607 
L 343.018657 115.887404 
L 344.650087 112.391933 
L 346.281517 112.145848 
L 347.912947 112.334202 
L 351.175806 113.116797 
L 352.807236 114.346281 
L 354.438666 113.64701 
L 356.070096 111.871868 
L 357.701526 109.080579 
L 359.332956 110.844695 
L 360.964386 114.184775 
L 362.595815 112.838007 
L 364.227245 114.109288 
L 365.858675 113.443828 
L 367.490105 111.453409 
L 369.121535 110.252947 
L 370.752965 111.152682 
L 372.384395 112.984735 
L 374.015825 112.92352 
L 375.647254 112.443677 
L 377.278684 113.827977 
L 378.910114 111.735209 
L 380.541544 114.771523 
L 382.172974 116.650794 
L 383.804404 112.869056 
L 385.435834 114.234935 
L 387.067264 113.808661 
L 388.698693 112.300744 
L 390.330123 114.942787 
L 391.961553 112.14235 
L 393.592983 110.581924 
L 395.224413 111.43575 
L 396.855843 113.732843 
L 398.487273 113.809471 
L 398.487273 113.809471 
" clip-path="url(#p0ce8e9db7b)" style="fill: none; stroke-dasharray: 9.6,2.4,1.5,2.4; stroke-dashoffset: 0; stroke: #008000; stroke-width: 1.5"/>
   </g>
   <g id="line2d_23">
    <path d="M 73.832727 122.748042 
L 75.464157 119.294424 
L 77.095587 112.033286 
L 78.727017 108.489612 
L 80.358447 98.216217 
L 81.989877 81.181266 
L 83.621307 100.001734 
L 85.252736 84.10951 
L 86.884166 99.84198 
L 88.515596 98.410574 
L 90.147026 95.091663 
L 91.778456 80.209548 
L 93.409886 98.715656 
L 95.041316 80.065415 
L 96.672746 93.605052 
L 98.304175 98.480254 
L 99.935605 79.404214 
L 101.567035 93.620552 
L 103.198465 76.649017 
L 104.829895 80.078234 
L 108.092755 104.750432 
L 109.724185 84.747063 
L 111.355614 98.12145 
L 112.987044 96.51809 
L 114.618474 85.773503 
L 116.249904 97.268139 
L 117.881334 91.872258 
L 119.512764 91.86876 
L 121.144194 82.773237 
L 122.775624 81.178306 
L 124.407053 91.953872 
L 126.038483 98.404636 
L 127.669913 88.771425 
L 129.301343 95.513345 
L 130.932773 72.512746 
L 132.564203 91.939479 
L 134.195633 98.878 
L 135.827063 85.944009 
L 137.458492 81.549912 
L 139.089922 75.242784 
L 140.721352 88.663715 
L 142.352782 70.887831 
L 143.984212 84.285855 
L 145.615642 72.383351 
L 147.247072 79.751693 
L 148.878502 74.072794 
L 150.509931 91.78001 
L 152.141361 65.565455 
L 153.772791 87.656829 
L 155.404221 77.075263 
L 157.035651 85.991894 
L 158.667081 90.381813 
L 160.298511 93.585679 
L 161.929941 84.155474 
L 163.56137 87.150499 
L 165.1928 85.595151 
L 166.82423 88.478448 
L 168.45566 82.739787 
L 170.08709 91.864881 
L 171.71852 84.146246 
L 173.34995 93.521548 
L 174.98138 98.12762 
L 176.61281 84.325971 
L 178.244239 90.604479 
L 179.875669 89.305781 
L 181.507099 95.011396 
L 183.138529 95.312764 
L 184.769959 90.318914 
L 186.401389 98.329556 
L 188.032819 75.68579 
L 189.664249 88.593504 
L 191.295678 87.454969 
L 192.927108 77.769662 
L 194.558538 79.580438 
L 196.189968 95.328437 
L 197.821398 95.466176 
L 199.452828 91.826758 
L 201.084258 93.653123 
L 202.715688 78.276076 
L 204.347117 76.988119 
L 205.978547 84.005271 
L 207.609977 86.888584 
L 209.241407 73.872647 
L 210.872837 66.89253 
L 212.504267 82.897271 
L 214.135697 77.075838 
L 215.767127 88.735277 
L 217.398556 78.712668 
L 219.029986 74.022883 
L 220.661416 65.911824 
L 222.292846 68.236852 
L 223.924276 89.119979 
L 225.555706 72.444445 
L 227.187136 87.004797 
L 228.818566 69.613296 
L 230.449995 61.686417 
L 232.081425 67.311945 
L 233.712855 70.9088 
L 235.344285 78.208265 
L 236.975715 80.947725 
L 238.607145 81.136398 
L 240.238575 67.154801 
L 241.870005 71.763379 
L 243.501434 84.471076 
L 245.132864 76.6719 
L 246.764294 87.490988 
L 248.395724 81.411402 
L 250.027154 76.892201 
L 251.658584 79.972429 
L 253.290014 75.186755 
L 254.921444 72.646925 
L 256.552873 91.761135 
L 258.184303 91.95068 
L 259.815733 85.750323 
L 261.447163 78.60583 
L 263.078593 69.675569 
L 264.710023 80.16425 
L 266.341453 76.983346 
L 267.972883 53.568 
L 269.604312 78.172688 
L 271.235742 72.430947 
L 272.867172 79.479612 
L 274.498602 61.189331 
L 276.130032 81.275938 
L 277.761462 79.484432 
L 279.392892 71.705922 
L 281.024322 68.220862 
L 282.655751 71.500749 
L 284.287181 82.735843 
L 285.918611 75.371863 
L 287.550041 77.209603 
L 289.181471 81.342474 
L 290.812901 62.683324 
L 292.444331 81.163843 
L 294.075761 73.831568 
L 295.70719 69.788229 
L 297.33862 68.070571 
L 298.97005 75.194801 
L 300.60148 73.599906 
L 302.23291 81.423525 
L 305.49577 69.827669 
L 307.1272 81.605721 
L 308.75863 65.683623 
L 310.390059 78.454109 
L 312.021489 72.65437 
L 313.652919 54.029282 
L 315.284349 84.385875 
L 316.915779 71.101535 
L 318.547209 76.829072 
L 320.178639 72.444421 
L 321.810069 81.061696 
L 323.441498 72.773896 
L 325.072928 81.265542 
L 326.704358 79.631206 
L 328.335788 72.462363 
L 329.967218 78.177295 
L 331.598648 79.630404 
L 333.230078 87.383578 
L 334.861508 71.323393 
L 336.492937 74.097214 
L 338.124367 75.293819 
L 339.755797 68.580926 
L 341.387227 87.221954 
L 343.018657 86.012153 
L 344.650087 70.80417 
L 346.281517 78.682467 
L 347.912947 65.295229 
L 349.544376 82.482223 
L 351.175806 81.460257 
L 352.807236 85.835878 
L 354.438666 69.836163 
L 356.070096 76.59409 
L 357.701526 69.382821 
L 359.332956 64.242835 
L 360.964386 72.326861 
L 362.595815 76.797162 
L 364.227245 86.230749 
L 365.858675 76.891054 
L 367.490105 66.756819 
L 369.121535 61.389799 
L 370.752965 85.626201 
L 372.384395 68.773169 
L 374.015825 74.471301 
L 375.647254 66.817499 
L 377.278684 84.037373 
L 378.910114 74.292343 
L 380.541544 85.746587 
L 382.172974 81.170878 
L 383.804404 79.896437 
L 385.435834 76.936947 
L 387.067264 69.599589 
L 388.698693 82.604632 
L 390.330123 78.147806 
L 391.961553 68.181835 
L 393.592983 71.346971 
L 395.224413 69.447582 
L 396.855843 78.433249 
L 398.487273 84.216489 
L 398.487273 84.216489 
" clip-path="url(#p0ce8e9db7b)" style="fill: none; stroke: #ff0000; stroke-width: 1.5; stroke-linecap: square"/>
   </g>
   <g id="patch_3">
    <path d="M 57.6 307.584 
L 57.6 41.472 
" style="fill: none; stroke: #000000; stroke-width: 0.8; stroke-linejoin: miter; stroke-linecap: square"/>
   </g>
   <g id="patch_4">
    <path d="M 414.72 307.584 
L 414.72 41.472 
" style="fill: none; stroke: #000000; stroke-width: 0.8; stroke-linejoin: miter; stroke-linecap: square"/>
   </g>
   <g id="patch_5">
    <path d="M 57.6 307.584 
L 414.72 307.584 
" style="fill: none; stroke: #000000; stroke-width: 0.8; stroke-linejoin: miter; stroke-linecap: square"/>
   </g>
   <g id="patch_6">
    <path d="M 57.6 41.472 
L 414.72 41.472 
" style="fill: none; stroke: #000000; stroke-width: 0.8; stroke-linejoin: miter; stroke-linecap: square"/>
   </g>
   <g id="text_13">
    <!-- Średnie i najlepsze przystosowanie w każdej generacji -->
    <g transform="translate(73.26 35.472) scale(0.12 -0.12)">
     <defs>
      <path id="DejaVuSans-15a" d="M 2236 5921 
L 2814 5921 
L 2102 5096 
L 1623 5096 
L 2236 5921 
z
M 3425 4513 
L 3425 3897 
Q 3066 4069 2747 4153 
Q 2428 4238 2131 4238 
Q 1616 4238 1336 4038 
Q 1056 3838 1056 3469 
Q 1056 3159 1242 3001 
Q 1428 2844 1947 2747 
L 2328 2669 
Q 3034 2534 3370 2195 
Q 3706 1856 3706 1288 
Q 3706 609 3251 259 
Q 2797 -91 1919 -91 
Q 1588 -91 1214 -16 
Q 841 59 441 206 
L 441 856 
Q 825 641 1194 531 
Q 1563 422 1919 422 
Q 2459 422 2753 634 
Q 3047 847 3047 1241 
Q 3047 1584 2836 1778 
Q 2625 1972 2144 2069 
L 1759 2144 
Q 1053 2284 737 2584 
Q 422 2884 422 3419 
Q 422 4038 858 4394 
Q 1294 4750 2059 4750 
Q 2388 4750 2728 4690 
Q 3069 4631 3425 4513 
z
" transform="scale(0.015625)"/>
      <path id="DejaVuSans-64" d="M 2906 2969 
L 2906 4863 
L 3481 4863 
L 3481 0 
L 2906 0 
L 2906 525 
Q 2725 213 2448 61 
Q 2172 -91 1784 -91 
Q 1150 -91 751 415 
Q 353 922 353 1747 
Q 353 2572 751 3078 
Q 1150 3584 1784 3584 
Q 2172 3584 2448 3432 
Q 2725 3281 2906 2969 
z
M 947 1747 
Q 947 1113 1208 752 
Q 1469 391 1925 391 
Q 2381 391 2643 752 
Q 2906 1113 2906 1747 
Q 2906 2381 2643 2742 
Q 2381 3103 1925 3103 
Q 1469 3103 1208 2742 
Q 947 2381 947 1747 
z
" transform="scale(0.015625)"/>
      <path id="DejaVuSans-20" transform="scale(0.015625)"/>
      <path id="DejaVuSans-6c" d="M 603 4863 
L 1178 4863 
L 1178 0 
L 603 0 
L 603 4863 
z
" transform="scale(0.015625)"/>
      <path id="DejaVuSans-70" d="M 1159 525 
L 1159 -1331 
L 581 -1331 
L 581 3500 
L 1159 3500 
L 1159 2969 
Q 1341 3281 1617 3432 
Q 1894 3584 2278 3584 
Q 2916 3584 3314 3078 
Q 3713 2572 3713 1747 
Q 3713 922 3314 415 
Q 2916 -91 2278 -91 
Q 1894 -91 1617 61 
Q 1341 213 1159 525 
z
M 3116 1747 
Q 3116 2381 2855 2742 
Q 2594 3103 2138 3103 
Q 1681 3103 1420 2742 
Q 1159 2381 1159 1747 
Q 1159 1113 1420 752 
Q 1681 391 2138 391 
Q 2594 391 2855 752 
Q 3116 1113 3116 1747 
z
" transform="scale(0.015625)"/>
      <path id="DejaVuSans-6b" d="M 581 4863 
L 1159 4863 
L 1159 1991 
L 2875 3500 
L 3609 3500 
L 1753 1863 
L 3688 0 
L 2938 0 
L 1159 1709 
L 1159 0 
L 581 0 
L 581 4863 
z
" transform="scale(0.015625)"/>
      <path id="DejaVuSans-17c" d="M 1378 4863 
L 1953 4863 
L 1953 4134 
L 1378 4134 
L 1378 4863 
z
M 1672 3584 
L 1672 3584 
z
M 353 3500 
L 3084 3500 
L 3084 2975 
L 922 459 
L 3084 459 
L 3084 0 
L 275 0 
L 275 525 
L 2438 3041 
L 353 3041 
L 353 3500 
z
" transform="scale(0.015625)"/>
      <path id="DejaVuSans-67" d="M 2906 1791 
Q 2906 2416 2648 2759 
Q 2391 3103 1925 3103 
Q 1463 3103 1205 2759 
Q 947 2416 947 1791 
Q 947 1169 1205 825 
Q 1463 481 1925 481 
Q 2391 481 2648 825 
Q 2906 1169 2906 1791 
z
M 3481 434 
Q 3481 -459 3084 -895 
Q 2688 -1331 1869 -1331 
Q 1566 -1331 1297 -1286 
Q 1028 -1241 775 -1147 
L 775 -588 
Q 1028 -725 1275 -790 
Q 1522 -856 1778 -856 
Q 2344 -856 2625 -561 
Q 2906 -266 2906 331 
L 2906 616 
Q 2728 306 2450 153 
Q 2172 0 1784 0 
Q 1141 0 747 490 
Q 353 981 353 1791 
Q 353 2603 747 3093 
Q 1141 3584 1784 3584 
Q 2172 3584 2450 3431 
Q 2728 3278 2906 2969 
L 2906 3500 
L 3481 3500 
L 3481 434 
z
" transform="scale(0.015625)"/>
     </defs>
     <use xlink:href="#DejaVuSans-15a"/>
     <use xlink:href="#DejaVuSans-72" transform="translate(63.476562 0)"/>
     <use xlink:href="#DejaVuSans-65" transform="translate(102.339844 0)"/>
     <use xlink:href="#DejaVuSans-64" transform="translate(163.863281 0)"/>
     <use xlink:href="#DejaVuSans-6e" transform="translate(227.339844 0)"/>
     <use xlink:href="#DejaVuSans-69" transform="translate(290.71875 0)"/>
     <use xlink:href="#DejaVuSans-65" transform="translate(318.501953 0)"/>
     <use xlink:href="#DejaVuSans-20" transform="translate(380.025391 0)"/>
     <use xlink:href="#DejaVuSans-69" transform="translate(411.8125 0)"/>
     <use xlink:href="#DejaVuSans-20" transform="translate(439.595703 0)"/>
     <use xlink:href="#DejaVuSans-6e" transform="translate(471.382812 0)"/>
     <use xlink:href="#DejaVuSans-61" transform="translate(534.761719 0)"/>
     <use xlink:href="#DejaVuSans-6a" transform="translate(596.041016 0)"/>
     <use xlink:href="#DejaVuSans-6c" transform="translate(623.824219 0)"/>
     <use xlink:href="#DejaVuSans-65" transform="translate(651.607422 0)"/>
     <use xlink:href="#DejaVuSans-70" transform="translate(713.130859 0)"/>
     <use xlink:href="#DejaVuSans-73" transform="translate(776.607422 0)"/>
     <use xlink:href="#DejaVuSans-7a" transform="translate(828.707031 0)"/>
     <use xlink:href="#DejaVuSans-65" transform="translate(881.197266 0)"/>
     <use xlink:href="#DejaVuSans-20" transform="translate(942.720703 0)"/>
     <use xlink:href="#DejaVuSans-70" transform="translate(974.507812 0)"/>
     <use xlink:href="#DejaVuSans-72" transform="translate(1037.984375 0)"/>
     <use xlink:href="#DejaVuSans-7a" transform="translate(1079.097656 0)"/>
     <use xlink:href="#DejaVuSans-79" transform="translate(1131.587891 0)"/>
     <use xlink:href="#DejaVuSans-73" transform="translate(1190.767578 0)"/>
     <use xlink:href="#DejaVuSans-74" transform="translate(1242.867188 0)"/>
     <use xlink:href="#DejaVuSans-6f" transform="translate(1282.076172 0)"/>
     <use xlink:href="#DejaVuSans-73" transform="translate(1343.257812 0)"/>
     <use xlink:href="#DejaVuSans-6f" transform="translate(1395.357422 0)"/>
     <use xlink:href="#DejaVuSans-77" transform="translate(1456.539062 0)"/>
     <use xlink:href="#DejaVuSans-61" transform="translate(1538.326172 0)"/>
     <use xlink:href="#DejaVuSans-6e" transform="translate(1599.605469 0)"/>
     <use xlink:href="#DejaVuSans-69" transform="translate(1662.984375 0)"/>
     <use xlink:href="#DejaVuSans-65" transform="translate(1690.767578 0)"/>
     <use xlink:href="#DejaVuSans-20" transform="translate(1752.291016 0)"/>
     <use xlink:href="#DejaVuSans-77" transform="translate(1784.078125 0)"/>
     <use xlink:href="#DejaVuSans-20" transform="translate(1865.865234 0)"/>
     <use xlink:href="#DejaVuSans-6b" transform="translate(1897.652344 0)"/>
     <use xlink:href="#DejaVuSans-61" transform="translate(1953.8125 0)"/>
     <use xlink:href="#DejaVuSans-17c" transform="translate(2015.091797 0)"/>
     <use xlink:href="#DejaVuSans-64" transform="translate(2067.582031 0)"/>
     <use xlink:href="#DejaVuSans-65" transform="translate(2131.058594 0)"/>
     <use xlink:href="#DejaVuSans-6a" transform="translate(2192.582031 0)"/>
     <use xlink:href="#DejaVuSans-20" transform="translate(2220.365234 0)"/>
     <use xlink:href="#DejaVuSans-67" transform="translate(2252.152344 0)"/>
     <use xlink:href="#DejaVuSans-65" transform="translate(2315.628906 0)"/>
     <use xlink:href="#DejaVuSans-6e" transform="translate(2377.152344 0)"/>
     <use xlink:href="#DejaVuSans-65" transform="translate(2440.53125 0)"/>
     <use xlink:href="#DejaVuSans-72" transform="translate(2502.054688 0)"/>
     <use xlink:href="#DejaVuSans-61" transform="translate(2543.167969 0)"/>
     <use xlink:href="#DejaVuSans-63" transform="translate(2604.447266 0)"/>
     <use xlink:href="#DejaVuSans-6a" transform="translate(2659.427734 0)"/>
     <use xlink:href="#DejaVuSans-69" transform="translate(2687.210938 0)"/>
    </g>
   </g>
   <g id="legend_1">
    <g id="patch_7">
     <path d="M 279.790313 302.584 
L 407.72 302.584 
Q 409.72 302.584 409.72 300.584 
L 409.72 257.549625 
Q 409.72 255.549625 407.72 255.549625 
L 279.790313 255.549625 
Q 277.790313 255.549625 277.790313 257.549625 
L 277.790313 300.584 
Q 277.790313 302.584 279.790313 302.584 
z
" style="fill: #ffffff; opacity: 0.8; stroke: #cccccc; stroke-linejoin: miter"/>
    </g>
    <g id="line2d_24">
     <path d="M 281.790313 263.648062 
L 291.790313 263.648062 
L 301.790313 263.648062 
" style="fill: none; stroke: #0000ff; stroke-width: 1.5; stroke-linecap: square"/>
    </g>
    <g id="text_14">
     <!-- Średnia -->
     <g transform="translate(309.790313 267.148062) scale(0.1 -0.1)">
      <use xlink:href="#DejaVuSans-15a"/>
      <use xlink:href="#DejaVuSans-72" transform="translate(63.476562 0)"/>
      <use xlink:href="#DejaVuSans-65" transform="translate(102.339844 0)"/>
      <use xlink:href="#DejaVuSans-64" transform="translate(163.863281 0)"/>
      <use xlink:href="#DejaVuSans-6e" transform="translate(227.339844 0)"/>
      <use xlink:href="#DejaVuSans-69" transform="translate(290.71875 0)"/>
      <use xlink:href="#DejaVuSans-61" transform="translate(318.501953 0)"/>
     </g>
    </g>
    <g id="line2d_25">
     <path d="M 281.790313 278.326188 
L 291.790313 278.326188 
L 301.790313 278.326188 
" style="fill: none; stroke-dasharray: 9.6,2.4,1.5,2.4; stroke-dashoffset: 0; stroke: #008000; stroke-width: 1.5"/>
    </g>
    <g id="text_15">
     <!-- ±1 Odchylenie std. -->
     <g transform="translate(309.790313 281.826188) scale(0.1 -0.1)">
      <defs>
       <path id="DejaVuSans-b1" d="M 2944 4013 
L 2944 2803 
L 4684 2803 
L 4684 2272 
L 2944 2272 
L 2944 1063 
L 2419 1063 
L 2419 2272 
L 678 2272 
L 678 2803 
L 2419 2803 
L 2419 4013 
L 2944 4013 
z
M 678 531 
L 4684 531 
L 4684 0 
L 678 0 
L 678 531 
z
" transform="scale(0.015625)"/>
       <path id="DejaVuSans-4f" d="M 2522 4238 
Q 1834 4238 1429 3725 
Q 1025 3213 1025 2328 
Q 1025 1447 1429 934 
Q 1834 422 2522 422 
Q 3209 422 3611 934 
Q 4013 1447 4013 2328 
Q 4013 3213 3611 3725 
Q 3209 4238 2522 4238 
z
M 2522 4750 
Q 3503 4750 4090 4092 
Q 4678 3434 4678 2328 
Q 4678 1225 4090 567 
Q 3503 -91 2522 -91 
Q 1538 -91 948 565 
Q 359 1222 359 2328 
Q 359 3434 948 4092 
Q 1538 4750 2522 4750 
z
" transform="scale(0.015625)"/>
       <path id="DejaVuSans-68" d="M 3513 2113 
L 3513 0 
L 2938 0 
L 2938 2094 
Q 2938 2591 2744 2837 
Q 2550 3084 2163 3084 
Q 1697 3084 1428 2787 
Q 1159 2491 1159 1978 
L 1159 0 
L 581 0 
L 581 4863 
L 1159 4863 
L 1159 2956 
Q 1366 3272 1645 3428 
Q 1925 3584 2291 3584 
Q 2894 3584 3203 3211 
Q 3513 2838 3513 2113 
z
" transform="scale(0.015625)"/>
       <path id="DejaVuSans-2e" d="M 684 794 
L 1344 794 
L 1344 0 
L 684 0 
L 684 794 
z
" transform="scale(0.015625)"/>
      </defs>
      <use xlink:href="#DejaVuSans-b1"/>
      <use xlink:href="#DejaVuSans-31" transform="translate(83.789062 0)"/>
      <use xlink:href="#DejaVuSans-20" transform="translate(147.412109 0)"/>
      <use xlink:href="#DejaVuSans-4f" transform="translate(179.199219 0)"/>
      <use xlink:href="#DejaVuSans-64" transform="translate(257.910156 0)"/>
      <use xlink:href="#DejaVuSans-63" transform="translate(321.386719 0)"/>
      <use xlink:href="#DejaVuSans-68" transform="translate(376.367188 0)"/>
      <use xlink:href="#DejaVuSans-79" transform="translate(439.746094 0)"/>
      <use xlink:href="#DejaVuSans-6c" transform="translate(498.925781 0)"/>
      <use xlink:href="#DejaVuSans-65" transform="translate(526.708984 0)"/>
      <use xlink:href="#DejaVuSans-6e" transform="translate(588.232422 0)"/>
      <use xlink:href="#DejaVuSans-69" transform="translate(651.611328 0)"/>
      <use xlink:href="#DejaVuSans-65" transform="translate(679.394531 0)"/>
      <use xlink:href="#DejaVuSans-20" transform="translate(740.917969 0)"/>
      <use xlink:href="#DejaVuSans-73" transform="translate(772.705078 0)"/>
      <use xlink:href="#DejaVuSans-74" transform="translate(824.804688 0)"/>
      <use xlink:href="#DejaVuSans-64" transform="translate(864.013672 0)"/>
      <use xlink:href="#DejaVuSans-2e" transform="translate(927.490234 0)"/>
     </g>
    </g>
    <g id="line2d_26">
     <path d="M 281.790313 293.004312 
L 291.790313 293.004312 
L 301.790313 293.004312 
" style="fill: none; stroke: #ff0000; stroke-width: 1.5; stroke-linecap: square"/>
    </g>
    <g id="text_16">
     <!-- Najlepsze -->
     <g transform="translate(309.790313 296.504312) scale(0.1 -0.1)">
      <defs>
       <path id="DejaVuSans-4e" d="M 628 4666 
L 1478 4666 
L 3547 763 
L 3547 4666 
L 4159 4666 
L 4159 0 
L 3309 0 
L 1241 3903 
L 1241 0 
L 628 0 
L 628 4666 
z
" transform="scale(0.015625)"/>
      </defs>
      <use xlink:href="#DejaVuSans-4e"/>
      <use xlink:href="#DejaVuSans-61" transform="translate(74.804688 0)"/>
      <use xlink:href="#DejaVuSans-6a" transform="translate(136.083984 0)"/>
      <use xlink:href="#DejaVuSans-6c" transform="translate(163.867188 0)"/>
      <use xlink:href="#DejaVuSans-65" transform="translate(191.650391 0)"/>
      <use xlink:href="#DejaVuSans-70" transform="translate(253.173828 0)"/>
      <use xlink:href="#DejaVuSans-73" transform="translate(316.650391 0)"/>
      <use xlink:href="#DejaVuSans-7a" transform="translate(368.75 0)"/>
      <use xlink:href="#DejaVuSans-65" transform="translate(421.240234 0)"/>
     </g>
    </g>
   </g>
  </g>
 </g>
 <defs>
  <clipPath id="p0ce8e9db7b">
   <rect x="57.6" y="41.472" width="357.12" height="266.112"/>
  </clipPath>
 </defs>
</svg>
