<?xml version="1.0" encoding="utf-8" standalone="no"?>
<!DOCTYPE svg PUBLIC "-//W3C//DTD SVG 1.1//EN"
  "http://www.w3.org/Graphics/SVG/1.1/DTD/svg11.dtd">
<svg xmlns:xlink="http://www.w3.org/1999/xlink" width="460.8pt" height="345.6pt" viewBox="0 0 460.8 345.6" xmlns="http://www.w3.org/2000/svg" version="1.1">
 <metadata>
  <rdf:RDF xmlns:dc="http://purl.org/dc/elements/1.1/" xmlns:cc="http://creativecommons.org/ns#" xmlns:rdf="http://www.w3.org/1999/02/22-rdf-syntax-ns#">
   <cc:Work>
    <dc:type rdf:resource="http://purl.org/dc/dcmitype/StillImage"/>
    <dc:date>2026-04-27T01:52:47.590115</dc:date>
    <dc:format>image/svg+xml</dc:format>
    <dc:creator>
     <cc:Agent>
      <dc:title>Matplotlib v3.10.8, https://matplotlib.org/</dc:title>
     </cc:Agent>
    </dc:creator>
   </cc:Work>
  </rdf:RDF>
 </metadata>
 <defs>
  <style type="text/css">*{stroke-linejoin: round; stroke-linecap: butt}</style>
 </defs>
 <g id="figure_1">
  <g id="patch_1">
   <path d="M 0 345.6 
L 460.8 345.6 
L 460.8 0 
L 0 0 
z
" style="fill: #ffffff"/>
  </g>
  <g id="axes_1">
   <g id="patch_2">
    <path d="M 57.6 307.584 
L 414.72 307.584 
L 414.72 41.472 
L 57.6 41.472 
z
" style="fill: #ffffff"/>
   </g>
   <g id="matplotlib.axis_1">
    <g id="xtick_1">
     <g id="line2d_1">
      <path d="M 72.201297 307.584 
L 72.201297 41.472 
" clip-path="url(#p0021be2987)" style="fill: none; stroke: #b0b0b0; stroke-width: 0.8; stroke-linecap: square"/>
     </g>
     <g id="line2d_2">
      <defs>
       <path id="m5168c427a7" d="M 0 0 
L 0 3.5 
" style="stroke: #000000; stroke-width: 0.8"/>
      </defs>
      <g>
       <use xlink:href="#m5168c427a7" x="72.201297" y="307.584" style="stroke: #000000; stroke-width: 0.8"/>
      </g>
     </g>
     <g id="text_1">
      <!-- 0 -->
      <g transform="translate(69.020047 322.182437) scale(0.1 -0.1)">
       <defs>
        <path id="DejaVuSans-30" d="M 2034 4250 
Q 1547 4250 1301 3770 
Q 1056 3291 1056 2328 
Q 1056 1369 1301 889 
Q 1547 409 2034 409 
Q 2525 409 2770 889 
Q 3016 1369 3016 2328 
Q 3016 3291 2770 3770 
Q 2525 4250 2034 4250 
z
M 2034 4750 
Q 2819 4750 3233 4129 
Q 3647 3509 3647 2328 
Q 3647 1150 3233 529 
Q 2819 -91 2034 -91 
Q 1250 -91 836 529 
Q 422 1150 422 2328 
Q 422 3509 836 4129 
Q 1250 4750 2034 4750 
z
" transform="scale(0.015625)"/>
       </defs>
       <use xlink:href="#DejaVuSans-30"/>
      </g>
     </g>
    </g>
    <g id="xtick_2">
     <g id="line2d_3">
      <path d="M 112.987044 307.584 
L 112.987044 41.472 
" clip-path="url(#p0021be2987)" style="fill: none; stroke: #b0b0b0; stroke-width: 0.8; stroke-linecap: square"/>
     </g>
     <g id="line2d_4">
      <g>
       <use xlink:href="#m5168c427a7" x="112.987044" y="307.584" style="stroke: #000000; stroke-width: 0.8"/>
      </g>
     </g>
     <g id="text_2">
      <!-- 25 -->
      <g transform="translate(106.624544 322.182437) scale(0.1 -0.1)">
       <defs>
        <path id="DejaVuSans-32" d="M 1228 531 
L 3431 531 
L 3431 0 
L 469 0 
L 469 531 
Q 828 903 1448 1529 
Q 2069 2156 2228 2338 
Q 2531 2678 2651 2914 
Q 2772 3150 2772 3378 
Q 2772 3750 2511 3984 
Q 2250 4219 1831 4219 
Q 1534 4219 1204 4116 
Q 875 4013 500 3803 
L 500 4441 
Q 881 4594 1212 4672 
Q 1544 4750 1819 4750 
Q 2544 4750 2975 4387 
Q 3406 4025 3406 3419 
Q 3406 3131 3298 2873 
Q 3191 2616 2906 2266 
Q 2828 2175 2409 1742 
Q 1991 1309 1228 531 
z
" transform="scale(0.015625)"/>
        <path id="DejaVuSans-35" d="M 691 4666 
L 3169 4666 
L 3169 4134 
L 1269 4134 
L 1269 2991 
Q 1406 3038 1543 3061 
Q 1681 3084 1819 3084 
Q 2600 3084 3056 2656 
Q 3513 2228 3513 1497 
Q 3513 744 3044 326 
Q 2575 -91 1722 -91 
Q 1428 -91 1123 -41 
Q 819 9 494 109 
L 494 744 
Q 775 591 1075 516 
Q 1375 441 1709 441 
Q 2250 441 2565 725 
Q 2881 1009 2881 1497 
Q 2881 1984 2565 2268 
Q 2250 2553 1709 2553 
Q 1456 2553 1204 2497 
Q 953 2441 691 2322 
L 691 4666 
z
" transform="scale(0.015625)"/>
       </defs>
       <use xlink:href="#DejaVuSans-32"/>
       <use xlink:href="#DejaVuSans-35" transform="translate(63.623047 0)"/>
      </g>
     </g>
    </g>
    <g id="xtick_3">
     <g id="line2d_5">
      <path d="M 153.772791 307.584 
L 153.772791 41.472 
" clip-path="url(#p0021be2987)" style="fill: none; stroke: #b0b0b0; stroke-width: 0.8; stroke-linecap: square"/>
     </g>
     <g id="line2d_6">
      <g>
       <use xlink:href="#m5168c427a7" x="153.772791" y="307.584" style="stroke: #000000; stroke-width: 0.8"/>
      </g>
     </g>
     <g id="text_3">
      <!-- 50 -->
      <g transform="translate(147.410291 322.182437) scale(0.1 -0.1)">
       <use xlink:href="#DejaVuSans-35"/>
       <use xlink:href="#DejaVuSans-30" transform="translate(63.623047 0)"/>
      </g>
     </g>
    </g>
    <g id="xtick_4">
     <g id="line2d_7">
      <path d="M 194.558538 307.584 
L 194.558538 41.472 
" clip-path="url(#p0021be2987)" style="fill: none; stroke: #b0b0b0; stroke-width: 0.8; stroke-linecap: square"/>
     </g>
     <g id="line2d_8">
      <g>
       <use xlink:href="#m5168c427a7" x="194.558538" y="307.584" style="stroke: #000000; stroke-width: 0.8"/>
      </g>
     </g>
     <g id="text_4">
      <!-- 75 -->
      <g transform="translate(188.196038 322.182437) scale(0.1 -0.1)">
       <defs>
        <path id="DejaVuSans-37" d="M 525 4666 
L 3525 4666 
L 3525 4397 
L 1831 0 
L 1172 0 
L 2766 4134 
L 525 4134 
L 525 4666 
z
" transform="scale(0.015625)"/>
       </defs>
       <use xlink:href="#DejaVuSans-37"/>
       <use xlink:href="#DejaVuSans-35" transform="translate(63.623047 0)"/>
      </g>
     </g>
    </g>
    <g id="xtick_5">
     <g id="line2d_9">
      <path d="M 235.344285 307.584 
L 235.344285 41.472 
" clip-path="url(#p0021be2987)" style="fill: none; stroke: #b0b0b0; stroke-width: 0.8; stroke-linecap: square"/>
     </g>
     <g id="line2d_10">
      <g>
       <use xlink:href="#m5168c427a7" x="235.344285" y="307.584" style="stroke: #000000; stroke-width: 0.8"/>
      </g>
     </g>
     <g id="text_5">
      <!-- 100 -->
      <g transform="translate(225.800535 322.182437) scale(0.1 -0.1)">
       <defs>
        <path id="DejaVuSans-31" d="M 794 531 
L 1825 531 
L 1825 4091 
L 703 3866 
L 703 4441 
L 1819 4666 
L 2450 4666 
L 2450 531 
L 3481 531 
L 3481 0 
L 794 0 
L 794 531 
z
" transform="scale(0.015625)"/>
       </defs>
       <use xlink:href="#DejaVuSans-31"/>
       <use xlink:href="#DejaVuSans-30" transform="translate(63.623047 0)"/>
       <use xlink:href="#DejaVuSans-30" transform="translate(127.246094 0)"/>
      </g>
     </g>
    </g>
    <g id="xtick_6">
     <g id="line2d_11">
      <path d="M 276.130032 307.584 
L 276.130032 41.472 
" clip-path="url(#p0021be2987)" style="fill: none; stroke: #b0b0b0; stroke-width: 0.8; stroke-linecap: square"/>
     </g>
     <g id="line2d_12">
      <g>
       <use xlink:href="#m5168c427a7" x="276.130032" y="307.584" style="stroke: #000000; stroke-width: 0.8"/>
      </g>
     </g>
     <g id="text_6">
      <!-- 125 -->
      <g transform="translate(266.586282 322.182437) scale(0.1 -0.1)">
       <use xlink:href="#DejaVuSans-31"/>
       <use xlink:href="#DejaVuSans-32" transform="translate(63.623047 0)"/>
       <use xlink:href="#DejaVuSans-35" transform="translate(127.246094 0)"/>
      </g>
     </g>
    </g>
    <g id="xtick_7">
     <g id="line2d_13">
      <path d="M 316.915779 307.584 
L 316.915779 41.472 
" clip-path="url(#p0021be2987)" style="fill: none; stroke: #b0b0b0; stroke-width: 0.8; stroke-linecap: square"/>
     </g>
     <g id="line2d_14">
      <g>
       <use xlink:href="#m5168c427a7" x="316.915779" y="307.584" style="stroke: #000000; stroke-width: 0.8"/>
      </g>
     </g>
     <g id="text_7">
      <!-- 150 -->
      <g transform="translate(307.372029 322.182437) scale(0.1 -0.1)">
       <use xlink:href="#DejaVuSans-31"/>
       <use xlink:href="#DejaVuSans-35" transform="translate(63.623047 0)"/>
       <use xlink:href="#DejaVuSans-30" transform="translate(127.246094 0)"/>
      </g>
     </g>
    </g>
    <g id="xtick_8">
     <g id="line2d_15">
      <path d="M 357.701526 307.584 
L 357.701526 41.472 
" clip-path="url(#p0021be2987)" style="fill: none; stroke: #b0b0b0; stroke-width: 0.8; stroke-linecap: square"/>
     </g>
     <g id="line2d_16">
      <g>
       <use xlink:href="#m5168c427a7" x="357.701526" y="307.584" style="stroke: #000000; stroke-width: 0.8"/>
      </g>
     </g>
     <g id="text_8">
      <!-- 175 -->
      <g transform="translate(348.157776 322.182437) scale(0.1 -0.1)">
       <use xlink:href="#DejaVuSans-31"/>
       <use xlink:href="#DejaVuSans-37" transform="translate(63.623047 0)"/>
       <use xlink:href="#DejaVuSans-35" transform="translate(127.246094 0)"/>
      </g>
     </g>
    </g>
    <g id="xtick_9">
     <g id="line2d_17">
      <path d="M 398.487273 307.584 
L 398.487273 41.472 
" clip-path="url(#p0021be2987)" style="fill: none; stroke: #b0b0b0; stroke-width: 0.8; stroke-linecap: square"/>
     </g>
     <g id="line2d_18">
      <g>
       <use xlink:href="#m5168c427a7" x="398.487273" y="307.584" style="stroke: #000000; stroke-width: 0.8"/>
      </g>
     </g>
     <g id="text_9">
      <!-- 200 -->
      <g transform="translate(388.943523 322.182437) scale(0.1 -0.1)">
       <use xlink:href="#DejaVuSans-32"/>
       <use xlink:href="#DejaVuSans-30" transform="translate(63.623047 0)"/>
       <use xlink:href="#DejaVuSans-30" transform="translate(127.246094 0)"/>
      </g>
     </g>
    </g>
    <g id="text_10">
     <!-- Generacje -->
     <g transform="translate(210.629531 335.860562) scale(0.1 -0.1)">
      <defs>
       <path id="DejaVuSans-47" d="M 3809 666 
L 3809 1919 
L 2778 1919 
L 2778 2438 
L 4434 2438 
L 4434 434 
Q 4069 175 3628 42 
Q 3188 -91 2688 -91 
Q 1594 -91 976 548 
Q 359 1188 359 2328 
Q 359 3472 976 4111 
Q 1594 4750 2688 4750 
Q 3144 4750 3555 4637 
Q 3966 4525 4313 4306 
L 4313 3634 
Q 3963 3931 3569 4081 
Q 3175 4231 2741 4231 
Q 1884 4231 1454 3753 
Q 1025 3275 1025 2328 
Q 1025 1384 1454 906 
Q 1884 428 2741 428 
Q 3075 428 3337 486 
Q 3600 544 3809 666 
z
" transform="scale(0.015625)"/>
       <path id="DejaVuSans-65" d="M 3597 1894 
L 3597 1613 
L 953 1613 
Q 991 1019 1311 708 
Q 1631 397 2203 397 
Q 2534 397 2845 478 
Q 3156 559 3463 722 
L 3463 178 
Q 3153 47 2828 -22 
Q 2503 -91 2169 -91 
Q 1331 -91 842 396 
Q 353 884 353 1716 
Q 353 2575 817 3079 
Q 1281 3584 2069 3584 
Q 2775 3584 3186 3129 
Q 3597 2675 3597 1894 
z
M 3022 2063 
Q 3016 2534 2758 2815 
Q 2500 3097 2075 3097 
Q 1594 3097 1305 2825 
Q 1016 2553 972 2059 
L 3022 2063 
z
" transform="scale(0.015625)"/>
       <path id="DejaVuSans-6e" d="M 3513 2113 
L 3513 0 
L 2938 0 
L 2938 2094 
Q 2938 2591 2744 2837 
Q 2550 3084 2163 3084 
Q 1697 3084 1428 2787 
Q 1159 2491 1159 1978 
L 1159 0 
L 581 0 
L 581 3500 
L 1159 3500 
L 1159 2956 
Q 1366 3272 1645 3428 
Q 1925 3584 2291 3584 
Q 2894 3584 3203 3211 
Q 3513 2838 3513 2113 
z
" transform="scale(0.015625)"/>
       <path id="DejaVuSans-72" d="M 2631 2963 
Q 2534 3019 2420 3045 
Q 2306 3072 2169 3072 
Q 1681 3072 1420 2755 
Q 1159 2438 1159 1844 
L 1159 0 
L 581 0 
L 581 3500 
L 1159 3500 
L 1159 2956 
Q 1341 3275 1631 3429 
Q 1922 3584 2338 3584 
Q 2397 3584 2469 3576 
Q 2541 3569 2628 3553 
L 2631 2963 
z
" transform="scale(0.015625)"/>
       <path id="DejaVuSans-61" d="M 2194 1759 
Q 1497 1759 1228 1600 
Q 959 1441 959 1056 
Q 959 750 1161 570 
Q 1363 391 1709 391 
Q 2188 391 2477 730 
Q 2766 1069 2766 1631 
L 2766 1759 
L 2194 1759 
z
M 3341 1997 
L 3341 0 
L 2766 0 
L 2766 531 
Q 2569 213 2275 61 
Q 1981 -91 1556 -91 
Q 1019 -91 701 211 
Q 384 513 384 1019 
Q 384 1609 779 1909 
Q 1175 2209 1959 2209 
L 2766 2209 
L 2766 2266 
Q 2766 2663 2505 2880 
Q 2244 3097 1772 3097 
Q 1472 3097 1187 3025 
Q 903 2953 641 2809 
L 641 3341 
Q 956 3463 1253 3523 
Q 1550 3584 1831 3584 
Q 2591 3584 2966 3190 
Q 3341 2797 3341 1997 
z
" transform="scale(0.015625)"/>
       <path id="DejaVuSans-63" d="M 3122 3366 
L 3122 2828 
Q 2878 2963 2633 3030 
Q 2388 3097 2138 3097 
Q 1578 3097 1268 2742 
Q 959 2388 959 1747 
Q 959 1106 1268 751 
Q 1578 397 2138 397 
Q 2388 397 2633 464 
Q 2878 531 3122 666 
L 3122 134 
Q 2881 22 2623 -34 
Q 2366 -91 2075 -91 
Q 1284 -91 818 406 
Q 353 903 353 1747 
Q 353 2603 823 3093 
Q 1294 3584 2113 3584 
Q 2378 3584 2631 3529 
Q 2884 3475 3122 3366 
z
" transform="scale(0.015625)"/>
       <path id="DejaVuSans-6a" d="M 603 3500 
L 1178 3500 
L 1178 -63 
Q 1178 -731 923 -1031 
Q 669 -1331 103 -1331 
L -116 -1331 
L -116 -844 
L 38 -844 
Q 366 -844 484 -692 
Q 603 -541 603 -63 
L 603 3500 
z
M 603 4863 
L 1178 4863 
L 1178 4134 
L 603 4134 
L 603 4863 
z
" transform="scale(0.015625)"/>
      </defs>
      <use xlink:href="#DejaVuSans-47"/>
      <use xlink:href="#DejaVuSans-65" transform="translate(77.490234 0)"/>
      <use xlink:href="#DejaVuSans-6e" transform="translate(139.013672 0)"/>
      <use xlink:href="#DejaVuSans-65" transform="translate(202.392578 0)"/>
      <use xlink:href="#DejaVuSans-72" transform="translate(263.916016 0)"/>
      <use xlink:href="#DejaVuSans-61" transform="translate(305.029297 0)"/>
      <use xlink:href="#DejaVuSans-63" transform="translate(366.308594 0)"/>
      <use xlink:href="#DejaVuSans-6a" transform="translate(421.289062 0)"/>
      <use xlink:href="#DejaVuSans-65" transform="translate(449.072266 0)"/>
     </g>
    </g>
   </g>
   <g id="matplotlib.axis_2">
    <g id="ytick_1">
     <g id="line2d_19">
      <path d="M 57.6 126.02383 
L 414.72 126.02383 
" clip-path="url(#p0021be2987)" style="fill: none; stroke: #b0b0b0; stroke-width: 0.8; stroke-linecap: square"/>
     </g>
     <g id="line2d_20">
      <defs>
       <path id="m59b9e919d5" d="M 0 0 
L -3.5 0 
" style="stroke: #000000; stroke-width: 0.8"/>
      </defs>
      <g>
       <use xlink:href="#m59b9e919d5" x="57.6" y="126.02383" style="stroke: #000000; stroke-width: 0.8"/>
      </g>
     </g>
     <g id="text_11">
      <!-- $\mathdefault{10^{2}}$ -->
      <g transform="translate(33 129.823049) scale(0.1 -0.1)">
       <use xlink:href="#DejaVuSans-31" transform="translate(0 0.765625)"/>
       <use xlink:href="#DejaVuSans-30" transform="translate(63.623047 0.765625)"/>
       <use xlink:href="#DejaVuSans-32" transform="translate(128.203125 39.046875) scale(0.7)"/>
      </g>
     </g>
    </g>
    <g id="text_12">
     <!-- Przystosowanie -->
     <g transform="translate(26.920312 213.170187) rotate(-90) scale(0.1 -0.1)">
      <defs>
       <path id="DejaVuSans-50" d="M 1259 4147 
L 1259 2394 
L 2053 2394 
Q 2494 2394 2734 2622 
Q 2975 2850 2975 3272 
Q 2975 3691 2734 3919 
Q 2494 4147 2053 4147 
L 1259 4147 
z
M 628 4666 
L 2053 4666 
Q 2838 4666 3239 4311 
Q 3641 3956 3641 3272 
Q 3641 2581 3239 2228 
Q 2838 1875 2053 1875 
L 1259 1875 
L 1259 0 
L 628 0 
L 628 4666 
z
" transform="scale(0.015625)"/>
       <path id="DejaVuSans-7a" d="M 353 3500 
L 3084 3500 
L 3084 2975 
L 922 459 
L 3084 459 
L 3084 0 
L 275 0 
L 275 525 
L 2438 3041 
L 353 3041 
L 353 3500 
z
" transform="scale(0.015625)"/>
       <path id="DejaVuSans-79" d="M 2059 -325 
Q 1816 -950 1584 -1140 
Q 1353 -1331 966 -1331 
L 506 -1331 
L 506 -850 
L 844 -850 
Q 1081 -850 1212 -737 
Q 1344 -625 1503 -206 
L 1606 56 
L 191 3500 
L 800 3500 
L 1894 763 
L 2988 3500 
L 3597 3500 
L 2059 -325 
z
" transform="scale(0.015625)"/>
       <path id="DejaVuSans-73" d="M 2834 3397 
L 2834 2853 
Q 2591 2978 2328 3040 
Q 2066 3103 1784 3103 
Q 1356 3103 1142 2972 
Q 928 2841 928 2578 
Q 928 2378 1081 2264 
Q 1234 2150 1697 2047 
L 1894 2003 
Q 2506 1872 2764 1633 
Q 3022 1394 3022 966 
Q 3022 478 2636 193 
Q 2250 -91 1575 -91 
Q 1294 -91 989 -36 
Q 684 19 347 128 
L 347 722 
Q 666 556 975 473 
Q 1284 391 1588 391 
Q 1994 391 2212 530 
Q 2431 669 2431 922 
Q 2431 1156 2273 1281 
Q 2116 1406 1581 1522 
L 1381 1569 
Q 847 1681 609 1914 
Q 372 2147 372 2553 
Q 372 3047 722 3315 
Q 1072 3584 1716 3584 
Q 2034 3584 2315 3537 
Q 2597 3491 2834 3397 
z
" transform="scale(0.015625)"/>
       <path id="DejaVuSans-74" d="M 1172 4494 
L 1172 3500 
L 2356 3500 
L 2356 3053 
L 1172 3053 
L 1172 1153 
Q 1172 725 1289 603 
Q 1406 481 1766 481 
L 2356 481 
L 2356 0 
L 1766 0 
Q 1100 0 847 248 
Q 594 497 594 1153 
L 594 3053 
L 172 3053 
L 172 3500 
L 594 3500 
L 594 4494 
L 1172 4494 
z
" transform="scale(0.015625)"/>
       <path id="DejaVuSans-6f" d="M 1959 3097 
Q 1497 3097 1228 2736 
Q 959 2375 959 1747 
Q 959 1119 1226 758 
Q 1494 397 1959 397 
Q 2419 397 2687 759 
Q 2956 1122 2956 1747 
Q 2956 2369 2687 2733 
Q 2419 3097 1959 3097 
z
M 1959 3584 
Q 2709 3584 3137 3096 
Q 3566 2609 3566 1747 
Q 3566 888 3137 398 
Q 2709 -91 1959 -91 
Q 1206 -91 779 398 
Q 353 888 353 1747 
Q 353 2609 779 3096 
Q 1206 3584 1959 3584 
z
" transform="scale(0.015625)"/>
       <path id="DejaVuSans-77" d="M 269 3500 
L 844 3500 
L 1563 769 
L 2278 3500 
L 2956 3500 
L 3675 769 
L 4391 3500 
L 4966 3500 
L 4050 0 
L 3372 0 
L 2619 2869 
L 1863 0 
L 1184 0 
L 269 3500 
z
" transform="scale(0.015625)"/>
       <path id="DejaVuSans-69" d="M 603 3500 
L 1178 3500 
L 1178 0 
L 603 0 
L 603 3500 
z
M 603 4863 
L 1178 4863 
L 1178 4134 
L 603 4134 
L 603 4863 
z
" transform="scale(0.015625)"/>
      </defs>
      <use xlink:href="#DejaVuSans-50"/>
      <use xlink:href="#DejaVuSans-72" transform="translate(58.552734 0)"/>
      <use xlink:href="#DejaVuSans-7a" transform="translate(99.666016 0)"/>
      <use xlink:href="#DejaVuSans-79" transform="translate(152.15625 0)"/>
      <use xlink:href="#DejaVuSans-73" transform="translate(211.335938 0)"/>
      <use xlink:href="#DejaVuSans-74" transform="translate(263.435547 0)"/>
      <use xlink:href="#DejaVuSans-6f" transform="translate(302.644531 0)"/>
      <use xlink:href="#DejaVuSans-73" transform="translate(363.826172 0)"/>
      <use xlink:href="#DejaVuSans-6f" transform="translate(415.925781 0)"/>
      <use xlink:href="#DejaVuSans-77" transform="translate(477.107422 0)"/>
      <use xlink:href="#DejaVuSans-61" transform="translate(558.894531 0)"/>
      <use xlink:href="#DejaVuSans-6e" transform="translate(620.173828 0)"/>
      <use xlink:href="#DejaVuSans-69" transform="translate(683.552734 0)"/>
      <use xlink:href="#DejaVuSans-65" transform="translate(711.335938 0)"/>
     </g>
    </g>
   </g>
   <g id="line2d_21">
    <path d="M 73.832727 295.488 
L 75.464157 226.208524 
L 77.095587 183.658072 
L 78.727017 168.929637 
L 81.989877 147.861346 
L 83.621307 154.033081 
L 85.252736 147.155421 
L 86.884166 151.124001 
L 88.515596 146.479284 
L 90.147026 144.43955 
L 91.778456 146.128063 
L 93.409886 150.882904 
L 95.041316 145.914433 
L 96.672746 145.557483 
L 98.304175 149.573625 
L 99.935605 148.260642 
L 101.567035 149.978395 
L 103.198465 147.70687 
L 104.829895 152.31437 
L 106.461325 149.363731 
L 108.092755 151.61711 
L 109.724185 145.789373 
L 111.355614 149.367883 
L 112.987044 146.160913 
L 114.618474 152.362363 
L 116.249904 147.598219 
L 117.881334 144.691053 
L 119.512764 147.292998 
L 121.144194 145.542573 
L 122.775624 145.914398 
L 124.407053 145.060626 
L 126.038483 145.926829 
L 127.669913 144.144729 
L 129.301343 145.415037 
L 130.932773 144.137555 
L 132.564203 146.360819 
L 134.195633 145.97407 
L 135.827063 145.29719 
L 139.089922 147.660863 
L 140.721352 145.417553 
L 142.352782 144.14173 
L 143.984212 144.220795 
L 145.615642 145.132185 
L 147.247072 144.918329 
L 148.878502 145.907372 
L 150.509931 144.491243 
L 152.141361 144.544263 
L 153.772791 143.594289 
L 155.404221 144.270965 
L 157.035651 145.194262 
L 158.667081 144.947427 
L 160.298511 144.316513 
L 161.929941 144.279637 
L 163.56137 144.565322 
L 165.1928 144.149515 
L 166.82423 142.526612 
L 168.45566 142.219684 
L 170.08709 143.568196 
L 171.71852 144.186519 
L 173.34995 141.864821 
L 174.98138 142.346113 
L 176.61281 145.237483 
L 178.244239 142.109001 
L 179.875669 141.577711 
L 181.507099 142.191306 
L 183.138529 143.230886 
L 184.769959 143.683888 
L 186.401389 142.455993 
L 188.032819 143.636421 
L 189.664249 142.324562 
L 191.295678 141.608603 
L 192.927108 141.567945 
L 194.558538 143.611282 
L 196.189968 141.281727 
L 197.821398 141.431106 
L 199.452828 140.992112 
L 201.084258 143.083625 
L 202.715688 141.351326 
L 204.347117 142.513182 
L 205.978547 142.156055 
L 207.609977 140.603298 
L 209.241407 143.202712 
L 210.872837 142.08078 
L 212.504267 142.707943 
L 214.135697 144.636951 
L 215.767127 143.347165 
L 217.398556 141.78123 
L 219.029986 140.750968 
L 220.661416 141.589378 
L 222.292846 141.449544 
L 223.924276 141.961793 
L 225.555706 140.195232 
L 227.187136 140.536144 
L 228.818566 143.427689 
L 230.449995 141.148169 
L 232.081425 142.280186 
L 233.712855 142.136141 
L 235.344285 141.043667 
L 236.975715 142.459852 
L 238.607145 141.653062 
L 240.238575 142.101229 
L 241.870005 139.880021 
L 243.501434 141.754541 
L 245.132864 140.748025 
L 246.764294 141.616282 
L 248.395724 141.650991 
L 250.027154 142.090357 
L 251.658584 142.318465 
L 253.290014 140.552853 
L 254.921444 141.490332 
L 256.552873 142.106572 
L 259.815733 141.55523 
L 261.447163 141.622316 
L 263.078593 139.812323 
L 264.710023 140.271793 
L 266.341453 140.35125 
L 267.972883 139.67108 
L 269.604312 141.328703 
L 271.235742 141.57711 
L 272.867172 142.870499 
L 274.498602 142.084609 
L 276.130032 144.50673 
L 277.761462 144.16014 
L 279.392892 144.265659 
L 281.024322 144.224501 
L 282.655751 142.692027 
L 284.287181 142.027392 
L 285.918611 141.965136 
L 287.550041 141.03265 
L 289.181471 143.498774 
L 290.812901 141.56499 
L 292.444331 141.567365 
L 294.075761 141.753364 
L 295.70719 141.480541 
L 297.33862 143.584925 
L 298.97005 140.668006 
L 300.60148 142.704548 
L 302.23291 143.584123 
L 303.86434 142.048403 
L 305.49577 143.150806 
L 307.1272 142.648543 
L 308.75863 140.759242 
L 310.390059 141.388214 
L 312.021489 140.936844 
L 313.652919 142.901363 
L 316.915779 141.451504 
L 318.547209 142.219078 
L 320.178639 140.437655 
L 321.810069 142.579258 
L 323.441498 141.795265 
L 325.072928 142.837912 
L 326.704358 141.371933 
L 328.335788 141.53695 
L 329.967218 139.870112 
L 331.598648 141.464712 
L 333.230078 141.197135 
L 334.861508 141.308068 
L 336.492937 142.666408 
L 338.124367 143.131375 
L 339.755797 140.019444 
L 343.018657 141.694178 
L 344.650087 140.693449 
L 346.281517 142.24255 
L 347.912947 141.791985 
L 349.544376 140.835478 
L 351.175806 141.912203 
L 352.807236 141.894384 
L 354.438666 141.462955 
L 356.070096 142.90664 
L 357.701526 141.876376 
L 359.332956 141.285027 
L 360.964386 140.353403 
L 362.595815 140.246967 
L 364.227245 139.344756 
L 365.858675 140.953082 
L 367.490105 141.719213 
L 369.121535 141.636845 
L 370.752965 140.702538 
L 372.384395 141.434534 
L 374.015825 141.16127 
L 375.647254 141.449954 
L 377.278684 142.358341 
L 378.910114 140.152255 
L 380.541544 141.693971 
L 382.172974 141.601991 
L 383.804404 142.155137 
L 385.435834 140.417385 
L 387.067264 138.966348 
L 388.698693 142.030665 
L 390.330123 141.294452 
L 391.961553 139.511908 
L 395.224413 141.715398 
L 396.855843 139.793109 
L 398.487273 142.169465 
L 398.487273 142.169465 
" clip-path="url(#p0021be2987)" style="fill: none; stroke: #0000ff; stroke-width: 1.5; stroke-linecap: square"/>
   </g>
   <g id="line2d_22">
    <path d="M 73.832727 239.532342 
L 75.464157 170.919509 
L 77.095587 139.349906 
L 78.727017 133.812744 
L 80.358447 130.169356 
L 81.989877 124.605862 
L 83.621307 120.434207 
L 85.252736 123.727347 
L 86.884166 121.959886 
L 88.515596 125.930901 
L 90.147026 121.658589 
L 91.778456 123.536443 
L 93.409886 125.79071 
L 95.041316 125.376899 
L 96.672746 125.709579 
L 98.304175 129.729515 
L 99.935605 130.647786 
L 101.567035 127.564467 
L 103.198465 126.038122 
L 104.829895 126.472013 
L 106.461325 124.538066 
L 108.092755 126.326693 
L 109.724185 125.350039 
L 111.355614 125.968894 
L 112.987044 129.596629 
L 114.618474 126.593669 
L 116.249904 127.628279 
L 119.512764 129.410599 
L 121.144194 129.489071 
L 122.775624 128.520594 
L 124.407053 128.067887 
L 126.038483 126.969773 
L 127.669913 126.541256 
L 129.301343 130.656399 
L 130.932773 126.412894 
L 132.564203 127.37829 
L 134.195633 126.50377 
L 135.827063 128.496855 
L 137.458492 125.873248 
L 139.089922 130.231489 
L 140.721352 127.087921 
L 142.352782 128.461423 
L 143.984212 129.384961 
L 145.615642 125.819742 
L 147.247072 125.522192 
L 148.878502 129.761004 
L 150.509931 127.442797 
L 152.141361 125.964875 
L 153.772791 126.194813 
L 155.404221 126.581241 
L 157.035651 130.346572 
L 158.667081 125.846995 
L 160.298511 125.831252 
L 161.929941 127.820032 
L 163.56137 127.565063 
L 165.1928 126.227243 
L 166.82423 122.367667 
L 168.45566 125.076646 
L 170.08709 122.834764 
L 173.34995 124.035236 
L 174.98138 121.368662 
L 176.61281 128.273816 
L 178.244239 122.626934 
L 179.875669 123.158846 
L 181.507099 125.46942 
L 183.138529 128.056011 
L 184.769959 120.889671 
L 186.401389 125.029014 
L 188.032819 125.601662 
L 189.664249 123.182948 
L 191.295678 123.12114 
L 192.927108 125.793506 
L 194.558538 125.353811 
L 196.189968 124.261343 
L 197.821398 124.021728 
L 199.452828 123.186806 
L 201.084258 124.998912 
L 202.715688 123.31326 
L 204.347117 125.085879 
L 205.978547 124.542982 
L 207.609977 123.240458 
L 209.241407 125.314287 
L 210.872837 125.472152 
L 212.504267 126.768827 
L 214.135697 125.743465 
L 215.767127 122.427149 
L 217.398556 124.10425 
L 219.029986 123.411208 
L 220.661416 124.069211 
L 222.292846 123.782591 
L 223.924276 124.062467 
L 225.555706 122.79062 
L 227.187136 122.863676 
L 228.818566 123.25832 
L 230.449995 122.797905 
L 232.081425 122.662823 
L 233.712855 125.492453 
L 235.344285 122.770663 
L 236.975715 126.691783 
L 238.607145 122.078739 
L 240.238575 122.370787 
L 241.870005 121.67793 
L 243.501434 124.739057 
L 245.132864 124.066862 
L 246.764294 122.726264 
L 248.395724 125.117476 
L 250.027154 125.913152 
L 251.658584 125.367046 
L 253.290014 121.229019 
L 254.921444 122.820903 
L 256.552873 125.885515 
L 258.184303 124.847884 
L 259.815733 124.932218 
L 261.447163 124.100373 
L 263.078593 122.89701 
L 264.710023 122.039606 
L 266.341453 120.609818 
L 267.972883 121.559786 
L 269.604312 123.737803 
L 271.235742 125.084039 
L 272.867172 127.475752 
L 274.498602 123.445268 
L 276.130032 124.071029 
L 277.761462 126.00096 
L 279.392892 121.798796 
L 281.024322 124.933581 
L 282.655751 124.673978 
L 284.287181 121.010603 
L 285.918611 125.134169 
L 287.550041 122.259667 
L 289.181471 124.38045 
L 290.812901 124.238354 
L 292.444331 122.811067 
L 294.075761 124.450695 
L 295.70719 122.181064 
L 297.33862 122.55729 
L 298.97005 123.586125 
L 300.60148 124.397679 
L 302.23291 124.084316 
L 303.86434 125.004461 
L 305.49577 127.405182 
L 307.1272 125.584727 
L 308.75863 121.935296 
L 310.390059 122.758963 
L 312.021489 123.051951 
L 313.652919 124.086838 
L 315.284349 121.87963 
L 316.915779 124.097654 
L 318.547209 125.664949 
L 320.178639 123.950121 
L 321.810069 126.52618 
L 323.441498 125.08055 
L 325.072928 125.008816 
L 326.704358 124.434742 
L 328.335788 124.516926 
L 329.967218 120.882386 
L 331.598648 123.10171 
L 333.230078 122.470463 
L 334.861508 123.844245 
L 336.492937 122.898134 
L 338.124367 123.690535 
L 339.755797 123.21913 
L 341.387227 123.593332 
L 343.018657 122.571388 
L 344.650087 124.349453 
L 346.281517 125.925553 
L 347.912947 124.921217 
L 349.544376 122.370649 
L 351.175806 126.224835 
L 352.807236 125.449457 
L 354.438666 124.905405 
L 356.070096 125.646229 
L 357.701526 124.303284 
L 360.964386 121.370862 
L 362.595815 122.608363 
L 364.227245 120.808803 
L 365.858675 124.205518 
L 367.490105 125.586552 
L 369.121535 122.091563 
L 370.752965 125.098987 
L 372.384395 124.266007 
L 374.015825 124.636162 
L 375.647254 120.59208 
L 377.278684 122.794014 
L 378.910114 122.651904 
L 380.541544 123.475789 
L 382.172974 123.468473 
L 383.804404 124.406429 
L 385.435834 122.863359 
L 387.067264 120.463612 
L 388.698693 125.436845 
L 390.330123 123.124078 
L 391.961553 121.790216 
L 393.592983 122.642697 
L 395.224413 125.024971 
L 396.855843 120.686662 
L 398.487273 120.177163 
L 398.487273 120.177163 
" clip-path="url(#p0021be2987)" style="fill: none; stroke-dasharray: 9.6,2.4,1.5,2.4; stroke-dashoffset: 0; stroke: #008000; stroke-width: 1.5"/>
   </g>
   <g id="line2d_23">
    <path d="M 73.832727 132.904632 
L 75.464157 112.654013 
L 77.095587 124.646095 
L 78.727017 111.108882 
L 80.358447 112.496149 
L 81.989877 92.624616 
L 83.621307 95.524375 
L 85.252736 98.713737 
L 86.884166 94.1718 
L 88.515596 76.299976 
L 90.147026 83.577553 
L 91.778456 85.747159 
L 93.409886 100.80115 
L 95.041316 91.33125 
L 96.672746 88.873955 
L 98.304175 85.48806 
L 99.935605 94.042683 
L 101.567035 98.057247 
L 103.198465 77.645076 
L 104.829895 109.293515 
L 106.461325 95.412809 
L 108.092755 93.085713 
L 109.724185 97.982199 
L 111.355614 92.863223 
L 112.987044 98.362691 
L 114.618474 91.365126 
L 116.249904 82.696787 
L 117.881334 88.837314 
L 119.512764 95.484275 
L 121.144194 81.045083 
L 122.775624 71.60809 
L 124.407053 81.351817 
L 126.038483 100.962415 
L 127.669913 100.917336 
L 129.301343 98.214481 
L 130.932773 86.108115 
L 132.564203 87.429515 
L 134.195633 91.454978 
L 135.827063 99.492204 
L 137.458492 88.745694 
L 139.089922 106.580497 
L 140.721352 98.307794 
L 142.352782 89.030527 
L 143.984212 93.791519 
L 145.615642 91.362885 
L 147.247072 92.503752 
L 148.878502 103.541696 
L 150.509931 99.471593 
L 152.141361 88.953829 
L 153.772791 82.370311 
L 155.404221 90.4417 
L 157.035651 93.993185 
L 158.667081 91.657241 
L 160.298511 77.644738 
L 161.929941 87.656641 
L 163.56137 86.194603 
L 165.1928 94.091235 
L 166.82423 82.495962 
L 168.45566 83.960731 
L 170.08709 77.551972 
L 171.71852 69.368129 
L 173.34995 79.172133 
L 174.98138 65.814117 
L 176.61281 94.071709 
L 178.244239 82.707946 
L 179.875669 99.286338 
L 181.507099 92.765908 
L 183.138529 91.51937 
L 184.769959 78.924877 
L 186.401389 86.243953 
L 188.032819 95.199381 
L 189.664249 77.822766 
L 191.295678 79.863083 
L 192.927108 71.298126 
L 194.558538 88.274661 
L 196.189968 76.168593 
L 197.821398 73.801453 
L 199.452828 77.560618 
L 201.084258 65.646746 
L 202.715688 79.992375 
L 204.347117 87.33543 
L 205.978547 89.954653 
L 207.609977 87.829174 
L 209.241407 86.689158 
L 210.872837 82.663449 
L 212.504267 98.174707 
L 214.135697 76.26796 
L 215.767127 92.611611 
L 217.398556 92.834484 
L 219.029986 65.184327 
L 220.661416 87.583676 
L 222.292846 90.107304 
L 223.924276 90.310395 
L 225.555706 62.577614 
L 227.187136 77.659332 
L 228.818566 86.182357 
L 230.449995 76.365323 
L 232.081425 81.193121 
L 233.712855 94.181277 
L 235.344285 92.981578 
L 236.975715 87.602947 
L 238.607145 77.502647 
L 240.238575 74.038616 
L 241.870005 76.502816 
L 243.501434 78.653025 
L 245.132864 75.391134 
L 246.764294 86.510728 
L 248.395724 66.055624 
L 250.027154 82.631884 
L 251.658584 80.396323 
L 253.290014 64.758863 
L 254.921444 76.373461 
L 256.552873 96.758613 
L 258.184303 77.724196 
L 259.815733 101.035122 
L 261.447163 73.838192 
L 263.078593 91.190523 
L 264.710023 81.091607 
L 266.341453 84.942497 
L 267.972883 70.323744 
L 269.604312 88.755072 
L 271.235742 91.783027 
L 272.867172 85.035783 
L 274.498602 75.193647 
L 276.130032 81.288088 
L 277.761462 98.226127 
L 279.392892 96.559408 
L 281.024322 99.585748 
L 282.655751 82.892151 
L 284.287181 81.326391 
L 285.918611 82.65976 
L 287.550041 78.755596 
L 289.181471 84.868198 
L 290.812901 70.44139 
L 292.444331 68.349605 
L 294.075761 88.584656 
L 295.70719 75.122773 
L 297.33862 85.182763 
L 298.97005 87.751849 
L 300.60148 87.595411 
L 302.23291 84.970138 
L 303.86434 74.057742 
L 305.49577 90.201979 
L 307.1272 90.426206 
L 308.75863 71.699369 
L 310.390059 83.779181 
L 312.021489 91.710751 
L 313.652919 83.804661 
L 315.284349 67.02125 
L 316.915779 73.883218 
L 318.547209 91.310083 
L 320.178639 87.728461 
L 321.810069 80.171906 
L 323.441498 94.136063 
L 325.072928 78.500321 
L 326.704358 87.503695 
L 328.335788 81.336463 
L 329.967218 76.502883 
L 331.598648 74.275088 
L 333.230078 82.652101 
L 334.861508 94.253889 
L 336.492937 81.235244 
L 338.124367 95.361326 
L 339.755797 88.689268 
L 341.387227 72.661847 
L 343.018657 53.842239 
L 344.650087 91.665506 
L 346.281517 92.683848 
L 347.912947 90.023846 
L 349.544376 61.496378 
L 351.175806 76.836456 
L 352.807236 80.319756 
L 354.438666 92.71136 
L 356.070096 92.947329 
L 357.701526 95.303114 
L 359.332956 91.5181 
L 360.964386 77.574919 
L 362.595815 75.279464 
L 364.227245 84.700629 
L 365.858675 86.869418 
L 367.490105 92.536798 
L 369.121535 83.535091 
L 370.752965 94.362194 
L 372.384395 90.555831 
L 374.015825 90.181663 
L 375.647254 87.588423 
L 377.278684 65.627905 
L 378.910114 79.886453 
L 380.541544 90.033913 
L 382.172974 53.568 
L 383.804404 79.326361 
L 385.435834 86.088899 
L 387.067264 77.565641 
L 388.698693 93.981177 
L 390.330123 70.35612 
L 391.961553 69.13466 
L 393.592983 81.431526 
L 395.224413 84.88044 
L 396.855843 78.694197 
L 398.487273 87.565475 
L 398.487273 87.565475 
" clip-path="url(#p0021be2987)" style="fill: none; stroke: #ff0000; stroke-width: 1.5; stroke-linecap: square"/>
   </g>
   <g id="patch_3">
    <path d="M 57.6 307.584 
L 57.6 41.472 
" style="fill: none; stroke: #000000; stroke-width: 0.8; stroke-linejoin: miter; stroke-linecap: square"/>
   </g>
   <g id="patch_4">
    <path d="M 414.72 307.584 
L 414.72 41.472 
" style="fill: none; stroke: #000000; stroke-width: 0.8; stroke-linejoin: miter; stroke-linecap: square"/>
   </g>
   <g id="patch_5">
    <path d="M 57.6 307.584 
L 414.72 307.584 
" style="fill: none; stroke: #000000; stroke-width: 0.8; stroke-linejoin: miter; stroke-linecap: square"/>
   </g>
   <g id="patch_6">
    <path d="M 57.6 41.472 
L 414.72 41.472 
" style="fill: none; stroke: #000000; stroke-width: 0.8; stroke-linejoin: miter; stroke-linecap: square"/>
   </g>
   <g id="text_13">
    <!-- Średnie i najlepsze przystosowanie w każdej generacji -->
    <g transform="translate(73.26 35.472) scale(0.12 -0.12)">
     <defs>
      <path id="DejaVuSans-15a" d="M 2236 5921 
L 2814 5921 
L 2102 5096 
L 1623 5096 
L 2236 5921 
z
M 3425 4513 
L 3425 3897 
Q 3066 4069 2747 4153 
Q 2428 4238 2131 4238 
Q 1616 4238 1336 4038 
Q 1056 3838 1056 3469 
Q 1056 3159 1242 3001 
Q 1428 2844 1947 2747 
L 2328 2669 
Q 3034 2534 3370 2195 
Q 3706 1856 3706 1288 
Q 3706 609 3251 259 
Q 2797 -91 1919 -91 
Q 1588 -91 1214 -16 
Q 841 59 441 206 
L 441 856 
Q 825 641 1194 531 
Q 1563 422 1919 422 
Q 2459 422 2753 634 
Q 3047 847 3047 1241 
Q 3047 1584 2836 1778 
Q 2625 1972 2144 2069 
L 1759 2144 
Q 1053 2284 737 2584 
Q 422 2884 422 3419 
Q 422 4038 858 4394 
Q 1294 4750 2059 4750 
Q 2388 4750 2728 4690 
Q 3069 4631 3425 4513 
z
" transform="scale(0.015625)"/>
      <path id="DejaVuSans-64" d="M 2906 2969 
L 2906 4863 
L 3481 4863 
L 3481 0 
L 2906 0 
L 2906 525 
Q 2725 213 2448 61 
Q 2172 -91 1784 -91 
Q 1150 -91 751 415 
Q 353 922 353 1747 
Q 353 2572 751 3078 
Q 1150 3584 1784 3584 
Q 2172 3584 2448 3432 
Q 2725 3281 2906 2969 
z
M 947 1747 
Q 947 1113 1208 752 
Q 1469 391 1925 391 
Q 2381 391 2643 752 
Q 2906 1113 2906 1747 
Q 2906 2381 2643 2742 
Q 2381 3103 1925 3103 
Q 1469 3103 1208 2742 
Q 947 2381 947 1747 
z
" transform="scale(0.015625)"/>
      <path id="DejaVuSans-20" transform="scale(0.015625)"/>
      <path id="DejaVuSans-6c" d="M 603 4863 
L 1178 4863 
L 1178 0 
L 603 0 
L 603 4863 
z
" transform="scale(0.015625)"/>
      <path id="DejaVuSans-70" d="M 1159 525 
L 1159 -1331 
L 581 -1331 
L 581 3500 
L 1159 3500 
L 1159 2969 
Q 1341 3281 1617 3432 
Q 1894 3584 2278 3584 
Q 2916 3584 3314 3078 
Q 3713 2572 3713 1747 
Q 3713 922 3314 415 
Q 2916 -91 2278 -91 
Q 1894 -91 1617 61 
Q 1341 213 1159 525 
z
M 3116 1747 
Q 3116 2381 2855 2742 
Q 2594 3103 2138 3103 
Q 1681 3103 1420 2742 
Q 1159 2381 1159 1747 
Q 1159 1113 1420 752 
Q 1681 391 2138 391 
Q 2594 391 2855 752 
Q 3116 1113 3116 1747 
z
" transform="scale(0.015625)"/>
      <path id="DejaVuSans-6b" d="M 581 4863 
L 1159 4863 
L 1159 1991 
L 2875 3500 
L 3609 3500 
L 1753 1863 
L 3688 0 
L 2938 0 
L 1159 1709 
L 1159 0 
L 581 0 
L 581 4863 
z
" transform="scale(0.015625)"/>
      <path id="DejaVuSans-17c" d="M 1378 4863 
L 1953 4863 
L 1953 4134 
L 1378 4134 
L 1378 4863 
z
M 1672 3584 
L 1672 3584 
z
M 353 3500 
L 3084 3500 
L 3084 2975 
L 922 459 
L 3084 459 
L 3084 0 
L 275 0 
L 275 525 
L 2438 3041 
L 353 3041 
L 353 3500 
z
" transform="scale(0.015625)"/>
      <path id="DejaVuSans-67" d="M 2906 1791 
Q 2906 2416 2648 2759 
Q 2391 3103 1925 3103 
Q 1463 3103 1205 2759 
Q 947 2416 947 1791 
Q 947 1169 1205 825 
Q 1463 481 1925 481 
Q 2391 481 2648 825 
Q 2906 1169 2906 1791 
z
M 3481 434 
Q 3481 -459 3084 -895 
Q 2688 -1331 1869 -1331 
Q 1566 -1331 1297 -1286 
Q 1028 -1241 775 -1147 
L 775 -588 
Q 1028 -725 1275 -790 
Q 1522 -856 1778 -856 
Q 2344 -856 2625 -561 
Q 2906 -266 2906 331 
L 2906 616 
Q 2728 306 2450 153 
Q 2172 0 1784 0 
Q 1141 0 747 490 
Q 353 981 353 1791 
Q 353 2603 747 3093 
Q 1141 3584 1784 3584 
Q 2172 3584 2450 3431 
Q 2728 3278 2906 2969 
L 2906 3500 
L 3481 3500 
L 3481 434 
z
" transform="scale(0.015625)"/>
     </defs>
     <use xlink:href="#DejaVuSans-15a"/>
     <use xlink:href="#DejaVuSans-72" transform="translate(63.476562 0)"/>
     <use xlink:href="#DejaVuSans-65" transform="translate(102.339844 0)"/>
     <use xlink:href="#DejaVuSans-64" transform="translate(163.863281 0)"/>
     <use xlink:href="#DejaVuSans-6e" transform="translate(227.339844 0)"/>
     <use xlink:href="#DejaVuSans-69" transform="translate(290.71875 0)"/>
     <use xlink:href="#DejaVuSans-65" transform="translate(318.501953 0)"/>
     <use xlink:href="#DejaVuSans-20" transform="translate(380.025391 0)"/>
     <use xlink:href="#DejaVuSans-69" transform="translate(411.8125 0)"/>
     <use xlink:href="#DejaVuSans-20" transform="translate(439.595703 0)"/>
     <use xlink:href="#DejaVuSans-6e" transform="translate(471.382812 0)"/>
     <use xlink:href="#DejaVuSans-61" transform="translate(534.761719 0)"/>
     <use xlink:href="#DejaVuSans-6a" transform="translate(596.041016 0)"/>
     <use xlink:href="#DejaVuSans-6c" transform="translate(623.824219 0)"/>
     <use xlink:href="#DejaVuSans-65" transform="translate(651.607422 0)"/>
     <use xlink:href="#DejaVuSans-70" transform="translate(713.130859 0)"/>
     <use xlink:href="#DejaVuSans-73" transform="translate(776.607422 0)"/>
     <use xlink:href="#DejaVuSans-7a" transform="translate(828.707031 0)"/>
     <use xlink:href="#DejaVuSans-65" transform="translate(881.197266 0)"/>
     <use xlink:href="#DejaVuSans-20" transform="translate(942.720703 0)"/>
     <use xlink:href="#DejaVuSans-70" transform="translate(974.507812 0)"/>
     <use xlink:href="#DejaVuSans-72" transform="translate(1037.984375 0)"/>
     <use xlink:href="#DejaVuSans-7a" transform="translate(1079.097656 0)"/>
     <use xlink:href="#DejaVuSans-79" transform="translate(1131.587891 0)"/>
     <use xlink:href="#DejaVuSans-73" transform="translate(1190.767578 0)"/>
     <use xlink:href="#DejaVuSans-74" transform="translate(1242.867188 0)"/>
     <use xlink:href="#DejaVuSans-6f" transform="translate(1282.076172 0)"/>
     <use xlink:href="#DejaVuSans-73" transform="translate(1343.257812 0)"/>
     <use xlink:href="#DejaVuSans-6f" transform="translate(1395.357422 0)"/>
     <use xlink:href="#DejaVuSans-77" transform="translate(1456.539062 0)"/>
     <use xlink:href="#DejaVuSans-61" transform="translate(1538.326172 0)"/>
     <use xlink:href="#DejaVuSans-6e" transform="translate(1599.605469 0)"/>
     <use xlink:href="#DejaVuSans-69" transform="translate(1662.984375 0)"/>
     <use xlink:href="#DejaVuSans-65" transform="translate(1690.767578 0)"/>
     <use xlink:href="#DejaVuSans-20" transform="translate(1752.291016 0)"/>
     <use xlink:href="#DejaVuSans-77" transform="translate(1784.078125 0)"/>
     <use xlink:href="#DejaVuSans-20" transform="translate(1865.865234 0)"/>
     <use xlink:href="#DejaVuSans-6b" transform="translate(1897.652344 0)"/>
     <use xlink:href="#DejaVuSans-61" transform="translate(1953.8125 0)"/>
     <use xlink:href="#DejaVuSans-17c" transform="translate(2015.091797 0)"/>
     <use xlink:href="#DejaVuSans-64" transform="translate(2067.582031 0)"/>
     <use xlink:href="#DejaVuSans-65" transform="translate(2131.058594 0)"/>
     <use xlink:href="#DejaVuSans-6a" transform="translate(2192.582031 0)"/>
     <use xlink:href="#DejaVuSans-20" transform="translate(2220.365234 0)"/>
     <use xlink:href="#DejaVuSans-67" transform="translate(2252.152344 0)"/>
     <use xlink:href="#DejaVuSans-65" transform="translate(2315.628906 0)"/>
     <use xlink:href="#DejaVuSans-6e" transform="translate(2377.152344 0)"/>
     <use xlink:href="#DejaVuSans-65" transform="translate(2440.53125 0)"/>
     <use xlink:href="#DejaVuSans-72" transform="translate(2502.054688 0)"/>
     <use xlink:href="#DejaVuSans-61" transform="translate(2543.167969 0)"/>
     <use xlink:href="#DejaVuSans-63" transform="translate(2604.447266 0)"/>
     <use xlink:href="#DejaVuSans-6a" transform="translate(2659.427734 0)"/>
     <use xlink:href="#DejaVuSans-69" transform="translate(2687.210938 0)"/>
    </g>
   </g>
   <g id="legend_1">
    <g id="patch_7">
     <path d="M 279.790313 302.584 
L 407.72 302.584 
Q 409.72 302.584 409.72 300.584 
L 409.72 257.549625 
Q 409.72 255.549625 407.72 255.549625 
L 279.790313 255.549625 
Q 277.790313 255.549625 277.790313 257.549625 
L 277.790313 300.584 
Q 277.790313 302.584 279.790313 302.584 
z
" style="fill: #ffffff; opacity: 0.8; stroke: #cccccc; stroke-linejoin: miter"/>
    </g>
    <g id="line2d_24">
     <path d="M 281.790313 263.648062 
L 291.790313 263.648062 
L 301.790313 263.648062 
" style="fill: none; stroke: #0000ff; stroke-width: 1.5; stroke-linecap: square"/>
    </g>
    <g id="text_14">
     <!-- Średnia -->
     <g transform="translate(309.790313 267.148062) scale(0.1 -0.1)">
      <use xlink:href="#DejaVuSans-15a"/>
      <use xlink:href="#DejaVuSans-72" transform="translate(63.476562 0)"/>
      <use xlink:href="#DejaVuSans-65" transform="translate(102.339844 0)"/>
      <use xlink:href="#DejaVuSans-64" transform="translate(163.863281 0)"/>
      <use xlink:href="#DejaVuSans-6e" transform="translate(227.339844 0)"/>
      <use xlink:href="#DejaVuSans-69" transform="translate(290.71875 0)"/>
      <use xlink:href="#DejaVuSans-61" transform="translate(318.501953 0)"/>
     </g>
    </g>
    <g id="line2d_25">
     <path d="M 281.790313 278.326188 
L 291.790313 278.326188 
L 301.790313 278.326188 
" style="fill: none; stroke-dasharray: 9.6,2.4,1.5,2.4; stroke-dashoffset: 0; stroke: #008000; stroke-width: 1.5"/>
    </g>
    <g id="text_15">
     <!-- ±1 Odchylenie std. -->
     <g transform="translate(309.790313 281.826188) scale(0.1 -0.1)">
      <defs>
       <path id="DejaVuSans-b1" d="M 2944 4013 
L 2944 2803 
L 4684 2803 
L 4684 2272 
L 2944 2272 
L 2944 1063 
L 2419 1063 
L 2419 2272 
L 678 2272 
L 678 2803 
L 2419 2803 
L 2419 4013 
L 2944 4013 
z
M 678 531 
L 4684 531 
L 4684 0 
L 678 0 
L 678 531 
z
" transform="scale(0.015625)"/>
       <path id="DejaVuSans-4f" d="M 2522 4238 
Q 1834 4238 1429 3725 
Q 1025 3213 1025 2328 
Q 1025 1447 1429 934 
Q 1834 422 2522 422 
Q 3209 422 3611 934 
Q 4013 1447 4013 2328 
Q 4013 3213 3611 3725 
Q 3209 4238 2522 4238 
z
M 2522 4750 
Q 3503 4750 4090 4092 
Q 4678 3434 4678 2328 
Q 4678 1225 4090 567 
Q 3503 -91 2522 -91 
Q 1538 -91 948 565 
Q 359 1222 359 2328 
Q 359 3434 948 4092 
Q 1538 4750 2522 4750 
z
" transform="scale(0.015625)"/>
       <path id="DejaVuSans-68" d="M 3513 2113 
L 3513 0 
L 2938 0 
L 2938 2094 
Q 2938 2591 2744 2837 
Q 2550 3084 2163 3084 
Q 1697 3084 1428 2787 
Q 1159 2491 1159 1978 
L 1159 0 
L 581 0 
L 581 4863 
L 1159 4863 
L 1159 2956 
Q 1366 3272 1645 3428 
Q 1925 3584 2291 3584 
Q 2894 3584 3203 3211 
Q 3513 2838 3513 2113 
z
" transform="scale(0.015625)"/>
       <path id="DejaVuSans-2e" d="M 684 794 
L 1344 794 
L 1344 0 
L 684 0 
L 684 794 
z
" transform="scale(0.015625)"/>
      </defs>
      <use xlink:href="#DejaVuSans-b1"/>
      <use xlink:href="#DejaVuSans-31" transform="translate(83.789062 0)"/>
      <use xlink:href="#DejaVuSans-20" transform="translate(147.412109 0)"/>
      <use xlink:href="#DejaVuSans-4f" transform="translate(179.199219 0)"/>
      <use xlink:href="#DejaVuSans-64" transform="translate(257.910156 0)"/>
      <use xlink:href="#DejaVuSans-63" transform="translate(321.386719 0)"/>
      <use xlink:href="#DejaVuSans-68" transform="translate(376.367188 0)"/>
      <use xlink:href="#DejaVuSans-79" transform="translate(439.746094 0)"/>
      <use xlink:href="#DejaVuSans-6c" transform="translate(498.925781 0)"/>
      <use xlink:href="#DejaVuSans-65" transform="translate(526.708984 0)"/>
      <use xlink:href="#DejaVuSans-6e" transform="translate(588.232422 0)"/>
      <use xlink:href="#DejaVuSans-69" transform="translate(651.611328 0)"/>
      <use xlink:href="#DejaVuSans-65" transform="translate(679.394531 0)"/>
      <use xlink:href="#DejaVuSans-20" transform="translate(740.917969 0)"/>
      <use xlink:href="#DejaVuSans-73" transform="translate(772.705078 0)"/>
      <use xlink:href="#DejaVuSans-74" transform="translate(824.804688 0)"/>
      <use xlink:href="#DejaVuSans-64" transform="translate(864.013672 0)"/>
      <use xlink:href="#DejaVuSans-2e" transform="translate(927.490234 0)"/>
     </g>
    </g>
    <g id="line2d_26">
     <path d="M 281.790313 293.004312 
L 291.790313 293.004312 
L 301.790313 293.004312 
" style="fill: none; stroke: #ff0000; stroke-width: 1.5; stroke-linecap: square"/>
    </g>
    <g id="text_16">
     <!-- Najlepsze -->
     <g transform="translate(309.790313 296.504312) scale(0.1 -0.1)">
      <defs>
       <path id="DejaVuSans-4e" d="M 628 4666 
L 1478 4666 
L 3547 763 
L 3547 4666 
L 4159 4666 
L 4159 0 
L 3309 0 
L 1241 3903 
L 1241 0 
L 628 0 
L 628 4666 
z
" transform="scale(0.015625)"/>
      </defs>
      <use xlink:href="#DejaVuSans-4e"/>
      <use xlink:href="#DejaVuSans-61" transform="translate(74.804688 0)"/>
      <use xlink:href="#DejaVuSans-6a" transform="translate(136.083984 0)"/>
      <use xlink:href="#DejaVuSans-6c" transform="translate(163.867188 0)"/>
      <use xlink:href="#DejaVuSans-65" transform="translate(191.650391 0)"/>
      <use xlink:href="#DejaVuSans-70" transform="translate(253.173828 0)"/>
      <use xlink:href="#DejaVuSans-73" transform="translate(316.650391 0)"/>
      <use xlink:href="#DejaVuSans-7a" transform="translate(368.75 0)"/>
      <use xlink:href="#DejaVuSans-65" transform="translate(421.240234 0)"/>
     </g>
    </g>
   </g>
  </g>
 </g>
 <defs>
  <clipPath id="p0021be2987">
   <rect x="57.6" y="41.472" width="357.12" height="266.112"/>
  </clipPath>
 </defs>
</svg>
