<?xml version="1.0" encoding="utf-8" standalone="no"?>
<!DOCTYPE svg PUBLIC "-//W3C//DTD SVG 1.1//EN"
  "http://www.w3.org/Graphics/SVG/1.1/DTD/svg11.dtd">
<svg xmlns:xlink="http://www.w3.org/1999/xlink" width="460.8pt" height="345.6pt" viewBox="0 0 460.8 345.6" xmlns="http://www.w3.org/2000/svg" version="1.1">
 <metadata>
  <rdf:RDF xmlns:dc="http://purl.org/dc/elements/1.1/" xmlns:cc="http://creativecommons.org/ns#" xmlns:rdf="http://www.w3.org/1999/02/22-rdf-syntax-ns#">
   <cc:Work>
    <dc:type rdf:resource="http://purl.org/dc/dcmitype/StillImage"/>
    <dc:date>2026-04-23T15:37:47.402793</dc:date>
    <dc:format>image/svg+xml</dc:format>
    <dc:creator>
     <cc:Agent>
      <dc:title>Matplotlib v3.10.8, https://matplotlib.org/</dc:title>
     </cc:Agent>
    </dc:creator>
   </cc:Work>
  </rdf:RDF>
 </metadata>
 <defs>
  <style type="text/css">*{stroke-linejoin: round; stroke-linecap: butt}</style>
 </defs>
 <g id="figure_1">
  <g id="patch_1">
   <path d="M 0 345.6 
L 460.8 345.6 
L 460.8 0 
L 0 0 
z
" style="fill: #ffffff"/>
  </g>
  <g id="axes_1">
   <g id="patch_2">
    <path d="M 57.6 307.584 
L 414.72 307.584 
L 414.72 41.472 
L 57.6 41.472 
z
" style="fill: #ffffff"/>
   </g>
   <g id="matplotlib.axis_1">
    <g id="xtick_1">
     <g id="line2d_1">
      <path d="M 73.832727 307.584 
L 73.832727 41.472 
" clip-path="url(#pef374d5f5e)" style="fill: none; stroke: #b0b0b0; stroke-width: 0.8; stroke-linecap: square"/>
     </g>
     <g id="line2d_2">
      <defs>
       <path id="m0ec2ba0bb5" d="M 0 0 
L 0 3.5 
" style="stroke: #000000; stroke-width: 0.8"/>
      </defs>
      <g>
       <use xlink:href="#m0ec2ba0bb5" x="73.832727" y="307.584" style="stroke: #000000; stroke-width: 0.8"/>
      </g>
     </g>
     <g id="text_1">
      <!-- 0 -->
      <g transform="translate(70.651477 322.182437) scale(0.1 -0.1)">
       <defs>
        <path id="DejaVuSans-30" d="M 2034 4250 
Q 1547 4250 1301 3770 
Q 1056 3291 1056 2328 
Q 1056 1369 1301 889 
Q 1547 409 2034 409 
Q 2525 409 2770 889 
Q 3016 1369 3016 2328 
Q 3016 3291 2770 3770 
Q 2525 4250 2034 4250 
z
M 2034 4750 
Q 2819 4750 3233 4129 
Q 3647 3509 3647 2328 
Q 3647 1150 3233 529 
Q 2819 -91 2034 -91 
Q 1250 -91 836 529 
Q 422 1150 422 2328 
Q 422 3509 836 4129 
Q 1250 4750 2034 4750 
z
" transform="scale(0.015625)"/>
       </defs>
       <use xlink:href="#DejaVuSans-30"/>
      </g>
     </g>
    </g>
    <g id="xtick_2">
     <g id="line2d_3">
      <path d="M 114.618474 307.584 
L 114.618474 41.472 
" clip-path="url(#pef374d5f5e)" style="fill: none; stroke: #b0b0b0; stroke-width: 0.8; stroke-linecap: square"/>
     </g>
     <g id="line2d_4">
      <g>
       <use xlink:href="#m0ec2ba0bb5" x="114.618474" y="307.584" style="stroke: #000000; stroke-width: 0.8"/>
      </g>
     </g>
     <g id="text_2">
      <!-- 25 -->
      <g transform="translate(108.255974 322.182437) scale(0.1 -0.1)">
       <defs>
        <path id="DejaVuSans-32" d="M 1228 531 
L 3431 531 
L 3431 0 
L 469 0 
L 469 531 
Q 828 903 1448 1529 
Q 2069 2156 2228 2338 
Q 2531 2678 2651 2914 
Q 2772 3150 2772 3378 
Q 2772 3750 2511 3984 
Q 2250 4219 1831 4219 
Q 1534 4219 1204 4116 
Q 875 4013 500 3803 
L 500 4441 
Q 881 4594 1212 4672 
Q 1544 4750 1819 4750 
Q 2544 4750 2975 4387 
Q 3406 4025 3406 3419 
Q 3406 3131 3298 2873 
Q 3191 2616 2906 2266 
Q 2828 2175 2409 1742 
Q 1991 1309 1228 531 
z
" transform="scale(0.015625)"/>
        <path id="DejaVuSans-35" d="M 691 4666 
L 3169 4666 
L 3169 4134 
L 1269 4134 
L 1269 2991 
Q 1406 3038 1543 3061 
Q 1681 3084 1819 3084 
Q 2600 3084 3056 2656 
Q 3513 2228 3513 1497 
Q 3513 744 3044 326 
Q 2575 -91 1722 -91 
Q 1428 -91 1123 -41 
Q 819 9 494 109 
L 494 744 
Q 775 591 1075 516 
Q 1375 441 1709 441 
Q 2250 441 2565 725 
Q 2881 1009 2881 1497 
Q 2881 1984 2565 2268 
Q 2250 2553 1709 2553 
Q 1456 2553 1204 2497 
Q 953 2441 691 2322 
L 691 4666 
z
" transform="scale(0.015625)"/>
       </defs>
       <use xlink:href="#DejaVuSans-32"/>
       <use xlink:href="#DejaVuSans-35" transform="translate(63.623047 0)"/>
      </g>
     </g>
    </g>
    <g id="xtick_3">
     <g id="line2d_5">
      <path d="M 155.404221 307.584 
L 155.404221 41.472 
" clip-path="url(#pef374d5f5e)" style="fill: none; stroke: #b0b0b0; stroke-width: 0.8; stroke-linecap: square"/>
     </g>
     <g id="line2d_6">
      <g>
       <use xlink:href="#m0ec2ba0bb5" x="155.404221" y="307.584" style="stroke: #000000; stroke-width: 0.8"/>
      </g>
     </g>
     <g id="text_3">
      <!-- 50 -->
      <g transform="translate(149.041721 322.182437) scale(0.1 -0.1)">
       <use xlink:href="#DejaVuSans-35"/>
       <use xlink:href="#DejaVuSans-30" transform="translate(63.623047 0)"/>
      </g>
     </g>
    </g>
    <g id="xtick_4">
     <g id="line2d_7">
      <path d="M 196.189968 307.584 
L 196.189968 41.472 
" clip-path="url(#pef374d5f5e)" style="fill: none; stroke: #b0b0b0; stroke-width: 0.8; stroke-linecap: square"/>
     </g>
     <g id="line2d_8">
      <g>
       <use xlink:href="#m0ec2ba0bb5" x="196.189968" y="307.584" style="stroke: #000000; stroke-width: 0.8"/>
      </g>
     </g>
     <g id="text_4">
      <!-- 75 -->
      <g transform="translate(189.827468 322.182437) scale(0.1 -0.1)">
       <defs>
        <path id="DejaVuSans-37" d="M 525 4666 
L 3525 4666 
L 3525 4397 
L 1831 0 
L 1172 0 
L 2766 4134 
L 525 4134 
L 525 4666 
z
" transform="scale(0.015625)"/>
       </defs>
       <use xlink:href="#DejaVuSans-37"/>
       <use xlink:href="#DejaVuSans-35" transform="translate(63.623047 0)"/>
      </g>
     </g>
    </g>
    <g id="xtick_5">
     <g id="line2d_9">
      <path d="M 236.975715 307.584 
L 236.975715 41.472 
" clip-path="url(#pef374d5f5e)" style="fill: none; stroke: #b0b0b0; stroke-width: 0.8; stroke-linecap: square"/>
     </g>
     <g id="line2d_10">
      <g>
       <use xlink:href="#m0ec2ba0bb5" x="236.975715" y="307.584" style="stroke: #000000; stroke-width: 0.8"/>
      </g>
     </g>
     <g id="text_5">
      <!-- 100 -->
      <g transform="translate(227.431965 322.182437) scale(0.1 -0.1)">
       <defs>
        <path id="DejaVuSans-31" d="M 794 531 
L 1825 531 
L 1825 4091 
L 703 3866 
L 703 4441 
L 1819 4666 
L 2450 4666 
L 2450 531 
L 3481 531 
L 3481 0 
L 794 0 
L 794 531 
z
" transform="scale(0.015625)"/>
       </defs>
       <use xlink:href="#DejaVuSans-31"/>
       <use xlink:href="#DejaVuSans-30" transform="translate(63.623047 0)"/>
       <use xlink:href="#DejaVuSans-30" transform="translate(127.246094 0)"/>
      </g>
     </g>
    </g>
    <g id="xtick_6">
     <g id="line2d_11">
      <path d="M 277.761462 307.584 
L 277.761462 41.472 
" clip-path="url(#pef374d5f5e)" style="fill: none; stroke: #b0b0b0; stroke-width: 0.8; stroke-linecap: square"/>
     </g>
     <g id="line2d_12">
      <g>
       <use xlink:href="#m0ec2ba0bb5" x="277.761462" y="307.584" style="stroke: #000000; stroke-width: 0.8"/>
      </g>
     </g>
     <g id="text_6">
      <!-- 125 -->
      <g transform="translate(268.217712 322.182437) scale(0.1 -0.1)">
       <use xlink:href="#DejaVuSans-31"/>
       <use xlink:href="#DejaVuSans-32" transform="translate(63.623047 0)"/>
       <use xlink:href="#DejaVuSans-35" transform="translate(127.246094 0)"/>
      </g>
     </g>
    </g>
    <g id="xtick_7">
     <g id="line2d_13">
      <path d="M 318.547209 307.584 
L 318.547209 41.472 
" clip-path="url(#pef374d5f5e)" style="fill: none; stroke: #b0b0b0; stroke-width: 0.8; stroke-linecap: square"/>
     </g>
     <g id="line2d_14">
      <g>
       <use xlink:href="#m0ec2ba0bb5" x="318.547209" y="307.584" style="stroke: #000000; stroke-width: 0.8"/>
      </g>
     </g>
     <g id="text_7">
      <!-- 150 -->
      <g transform="translate(309.003459 322.182437) scale(0.1 -0.1)">
       <use xlink:href="#DejaVuSans-31"/>
       <use xlink:href="#DejaVuSans-35" transform="translate(63.623047 0)"/>
       <use xlink:href="#DejaVuSans-30" transform="translate(127.246094 0)"/>
      </g>
     </g>
    </g>
    <g id="xtick_8">
     <g id="line2d_15">
      <path d="M 359.332956 307.584 
L 359.332956 41.472 
" clip-path="url(#pef374d5f5e)" style="fill: none; stroke: #b0b0b0; stroke-width: 0.8; stroke-linecap: square"/>
     </g>
     <g id="line2d_16">
      <g>
       <use xlink:href="#m0ec2ba0bb5" x="359.332956" y="307.584" style="stroke: #000000; stroke-width: 0.8"/>
      </g>
     </g>
     <g id="text_8">
      <!-- 175 -->
      <g transform="translate(349.789206 322.182437) scale(0.1 -0.1)">
       <use xlink:href="#DejaVuSans-31"/>
       <use xlink:href="#DejaVuSans-37" transform="translate(63.623047 0)"/>
       <use xlink:href="#DejaVuSans-35" transform="translate(127.246094 0)"/>
      </g>
     </g>
    </g>
    <g id="xtick_9">
     <g id="line2d_17">
      <path d="M 400.118703 307.584 
L 400.118703 41.472 
" clip-path="url(#pef374d5f5e)" style="fill: none; stroke: #b0b0b0; stroke-width: 0.8; stroke-linecap: square"/>
     </g>
     <g id="line2d_18">
      <g>
       <use xlink:href="#m0ec2ba0bb5" x="400.118703" y="307.584" style="stroke: #000000; stroke-width: 0.8"/>
      </g>
     </g>
     <g id="text_9">
      <!-- 200 -->
      <g transform="translate(390.574953 322.182437) scale(0.1 -0.1)">
       <use xlink:href="#DejaVuSans-32"/>
       <use xlink:href="#DejaVuSans-30" transform="translate(63.623047 0)"/>
       <use xlink:href="#DejaVuSans-30" transform="translate(127.246094 0)"/>
      </g>
     </g>
    </g>
    <g id="text_10">
     <!-- Generations -->
     <g transform="translate(205.662344 335.860562) scale(0.1 -0.1)">
      <defs>
       <path id="DejaVuSans-47" d="M 3809 666 
L 3809 1919 
L 2778 1919 
L 2778 2438 
L 4434 2438 
L 4434 434 
Q 4069 175 3628 42 
Q 3188 -91 2688 -91 
Q 1594 -91 976 548 
Q 359 1188 359 2328 
Q 359 3472 976 4111 
Q 1594 4750 2688 4750 
Q 3144 4750 3555 4637 
Q 3966 4525 4313 4306 
L 4313 3634 
Q 3963 3931 3569 4081 
Q 3175 4231 2741 4231 
Q 1884 4231 1454 3753 
Q 1025 3275 1025 2328 
Q 1025 1384 1454 906 
Q 1884 428 2741 428 
Q 3075 428 3337 486 
Q 3600 544 3809 666 
z
" transform="scale(0.015625)"/>
       <path id="DejaVuSans-65" d="M 3597 1894 
L 3597 1613 
L 953 1613 
Q 991 1019 1311 708 
Q 1631 397 2203 397 
Q 2534 397 2845 478 
Q 3156 559 3463 722 
L 3463 178 
Q 3153 47 2828 -22 
Q 2503 -91 2169 -91 
Q 1331 -91 842 396 
Q 353 884 353 1716 
Q 353 2575 817 3079 
Q 1281 3584 2069 3584 
Q 2775 3584 3186 3129 
Q 3597 2675 3597 1894 
z
M 3022 2063 
Q 3016 2534 2758 2815 
Q 2500 3097 2075 3097 
Q 1594 3097 1305 2825 
Q 1016 2553 972 2059 
L 3022 2063 
z
" transform="scale(0.015625)"/>
       <path id="DejaVuSans-6e" d="M 3513 2113 
L 3513 0 
L 2938 0 
L 2938 2094 
Q 2938 2591 2744 2837 
Q 2550 3084 2163 3084 
Q 1697 3084 1428 2787 
Q 1159 2491 1159 1978 
L 1159 0 
L 581 0 
L 581 3500 
L 1159 3500 
L 1159 2956 
Q 1366 3272 1645 3428 
Q 1925 3584 2291 3584 
Q 2894 3584 3203 3211 
Q 3513 2838 3513 2113 
z
" transform="scale(0.015625)"/>
       <path id="DejaVuSans-72" d="M 2631 2963 
Q 2534 3019 2420 3045 
Q 2306 3072 2169 3072 
Q 1681 3072 1420 2755 
Q 1159 2438 1159 1844 
L 1159 0 
L 581 0 
L 581 3500 
L 1159 3500 
L 1159 2956 
Q 1341 3275 1631 3429 
Q 1922 3584 2338 3584 
Q 2397 3584 2469 3576 
Q 2541 3569 2628 3553 
L 2631 2963 
z
" transform="scale(0.015625)"/>
       <path id="DejaVuSans-61" d="M 2194 1759 
Q 1497 1759 1228 1600 
Q 959 1441 959 1056 
Q 959 750 1161 570 
Q 1363 391 1709 391 
Q 2188 391 2477 730 
Q 2766 1069 2766 1631 
L 2766 1759 
L 2194 1759 
z
M 3341 1997 
L 3341 0 
L 2766 0 
L 2766 531 
Q 2569 213 2275 61 
Q 1981 -91 1556 -91 
Q 1019 -91 701 211 
Q 384 513 384 1019 
Q 384 1609 779 1909 
Q 1175 2209 1959 2209 
L 2766 2209 
L 2766 2266 
Q 2766 2663 2505 2880 
Q 2244 3097 1772 3097 
Q 1472 3097 1187 3025 
Q 903 2953 641 2809 
L 641 3341 
Q 956 3463 1253 3523 
Q 1550 3584 1831 3584 
Q 2591 3584 2966 3190 
Q 3341 2797 3341 1997 
z
" transform="scale(0.015625)"/>
       <path id="DejaVuSans-74" d="M 1172 4494 
L 1172 3500 
L 2356 3500 
L 2356 3053 
L 1172 3053 
L 1172 1153 
Q 1172 725 1289 603 
Q 1406 481 1766 481 
L 2356 481 
L 2356 0 
L 1766 0 
Q 1100 0 847 248 
Q 594 497 594 1153 
L 594 3053 
L 172 3053 
L 172 3500 
L 594 3500 
L 594 4494 
L 1172 4494 
z
" transform="scale(0.015625)"/>
       <path id="DejaVuSans-69" d="M 603 3500 
L 1178 3500 
L 1178 0 
L 603 0 
L 603 3500 
z
M 603 4863 
L 1178 4863 
L 1178 4134 
L 603 4134 
L 603 4863 
z
" transform="scale(0.015625)"/>
       <path id="DejaVuSans-6f" d="M 1959 3097 
Q 1497 3097 1228 2736 
Q 959 2375 959 1747 
Q 959 1119 1226 758 
Q 1494 397 1959 397 
Q 2419 397 2687 759 
Q 2956 1122 2956 1747 
Q 2956 2369 2687 2733 
Q 2419 3097 1959 3097 
z
M 1959 3584 
Q 2709 3584 3137 3096 
Q 3566 2609 3566 1747 
Q 3566 888 3137 398 
Q 2709 -91 1959 -91 
Q 1206 -91 779 398 
Q 353 888 353 1747 
Q 353 2609 779 3096 
Q 1206 3584 1959 3584 
z
" transform="scale(0.015625)"/>
       <path id="DejaVuSans-73" d="M 2834 3397 
L 2834 2853 
Q 2591 2978 2328 3040 
Q 2066 3103 1784 3103 
Q 1356 3103 1142 2972 
Q 928 2841 928 2578 
Q 928 2378 1081 2264 
Q 1234 2150 1697 2047 
L 1894 2003 
Q 2506 1872 2764 1633 
Q 3022 1394 3022 966 
Q 3022 478 2636 193 
Q 2250 -91 1575 -91 
Q 1294 -91 989 -36 
Q 684 19 347 128 
L 347 722 
Q 666 556 975 473 
Q 1284 391 1588 391 
Q 1994 391 2212 530 
Q 2431 669 2431 922 
Q 2431 1156 2273 1281 
Q 2116 1406 1581 1522 
L 1381 1569 
Q 847 1681 609 1914 
Q 372 2147 372 2553 
Q 372 3047 722 3315 
Q 1072 3584 1716 3584 
Q 2034 3584 2315 3537 
Q 2597 3491 2834 3397 
z
" transform="scale(0.015625)"/>
      </defs>
      <use xlink:href="#DejaVuSans-47"/>
      <use xlink:href="#DejaVuSans-65" transform="translate(77.490234 0)"/>
      <use xlink:href="#DejaVuSans-6e" transform="translate(139.013672 0)"/>
      <use xlink:href="#DejaVuSans-65" transform="translate(202.392578 0)"/>
      <use xlink:href="#DejaVuSans-72" transform="translate(263.916016 0)"/>
      <use xlink:href="#DejaVuSans-61" transform="translate(305.029297 0)"/>
      <use xlink:href="#DejaVuSans-74" transform="translate(366.308594 0)"/>
      <use xlink:href="#DejaVuSans-69" transform="translate(405.517578 0)"/>
      <use xlink:href="#DejaVuSans-6f" transform="translate(433.300781 0)"/>
      <use xlink:href="#DejaVuSans-6e" transform="translate(494.482422 0)"/>
      <use xlink:href="#DejaVuSans-73" transform="translate(557.861328 0)"/>
     </g>
    </g>
   </g>
   <g id="matplotlib.axis_2">
    <g id="ytick_1">
     <g id="line2d_19">
      <path d="M 57.6 148.364359 
L 414.72 148.364359 
" clip-path="url(#pef374d5f5e)" style="fill: none; stroke: #b0b0b0; stroke-width: 0.8; stroke-linecap: square"/>
     </g>
     <g id="line2d_20">
      <defs>
       <path id="m22f0714ecd" d="M 0 0 
L -3.5 0 
" style="stroke: #000000; stroke-width: 0.8"/>
      </defs>
      <g>
       <use xlink:href="#m22f0714ecd" x="57.6" y="148.364359" style="stroke: #000000; stroke-width: 0.8"/>
      </g>
     </g>
     <g id="text_11">
      <!-- $\mathdefault{10^{2}}$ -->
      <g transform="translate(33 152.163578) scale(0.1 -0.1)">
       <use xlink:href="#DejaVuSans-31" transform="translate(0 0.765625)"/>
       <use xlink:href="#DejaVuSans-30" transform="translate(63.623047 0.765625)"/>
       <use xlink:href="#DejaVuSans-32" transform="translate(128.203125 39.046875) scale(0.7)"/>
      </g>
     </g>
    </g>
    <g id="text_12">
     <!-- Fitness -->
     <g transform="translate(26.920312 191.845187) rotate(-90) scale(0.1 -0.1)">
      <defs>
       <path id="DejaVuSans-46" d="M 628 4666 
L 3309 4666 
L 3309 4134 
L 1259 4134 
L 1259 2759 
L 3109 2759 
L 3109 2228 
L 1259 2228 
L 1259 0 
L 628 0 
L 628 4666 
z
" transform="scale(0.015625)"/>
      </defs>
      <use xlink:href="#DejaVuSans-46"/>
      <use xlink:href="#DejaVuSans-69" transform="translate(50.269531 0)"/>
      <use xlink:href="#DejaVuSans-74" transform="translate(78.052734 0)"/>
      <use xlink:href="#DejaVuSans-6e" transform="translate(117.261719 0)"/>
      <use xlink:href="#DejaVuSans-65" transform="translate(180.640625 0)"/>
      <use xlink:href="#DejaVuSans-73" transform="translate(242.164062 0)"/>
      <use xlink:href="#DejaVuSans-73" transform="translate(294.263672 0)"/>
     </g>
    </g>
   </g>
   <g id="line2d_21">
    <path d="M 73.832727 295.488 
L 75.464157 244.010735 
L 77.095587 214.0761 
L 78.727017 198.648846 
L 80.358447 201.612029 
L 81.989877 190.132383 
L 83.621307 184.946563 
L 85.252736 189.447982 
L 86.884166 187.933237 
L 88.515596 184.473921 
L 90.147026 185.449093 
L 91.778456 178.755379 
L 93.409886 175.099649 
L 95.041316 174.266519 
L 96.672746 176.588622 
L 98.304175 175.270654 
L 99.935605 177.141088 
L 101.567035 177.734318 
L 103.198465 179.462335 
L 104.829895 178.433306 
L 106.461325 174.72432 
L 108.092755 174.493794 
L 109.724185 178.291585 
L 111.355614 175.415117 
L 112.987044 176.665876 
L 114.618474 179.755754 
L 116.249904 179.657228 
L 117.881334 174.435136 
L 119.512764 177.233399 
L 121.144194 175.660082 
L 122.775624 178.33276 
L 124.407053 175.390101 
L 126.038483 173.831721 
L 127.669913 175.304971 
L 129.301343 174.866758 
L 130.932773 177.175011 
L 132.564203 174.865608 
L 134.195633 175.201248 
L 135.827063 175.168765 
L 137.458492 177.341829 
L 139.089922 174.954249 
L 140.721352 175.570062 
L 142.352782 177.035255 
L 143.984212 176.375281 
L 145.615642 177.502243 
L 147.247072 176.367787 
L 148.878502 177.146078 
L 150.509931 175.636795 
L 152.141361 177.025831 
L 153.772791 176.328986 
L 155.404221 176.258421 
L 157.035651 179.160871 
L 158.667081 177.440283 
L 160.298511 177.867847 
L 161.929941 179.625217 
L 163.56137 176.073677 
L 165.1928 177.354924 
L 166.82423 175.593519 
L 168.45566 178.370978 
L 170.08709 179.085702 
L 171.71852 178.212999 
L 173.34995 178.250306 
L 174.98138 178.667053 
L 176.61281 177.631315 
L 178.244239 175.855816 
L 179.875669 176.290663 
L 181.507099 175.661714 
L 183.138529 179.483845 
L 184.769959 179.871475 
L 186.401389 176.934383 
L 188.032819 179.774962 
L 189.664249 176.832295 
L 191.295678 177.422246 
L 192.927108 176.870571 
L 194.558538 180.828672 
L 196.189968 176.842585 
L 197.821398 174.378665 
L 199.452828 177.652065 
L 201.084258 178.42629 
L 202.715688 175.403728 
L 204.347117 179.255654 
L 205.978547 177.323867 
L 207.609977 176.409524 
L 209.241407 176.40308 
L 210.872837 175.687209 
L 212.504267 175.513645 
L 214.135697 177.824902 
L 215.767127 177.535152 
L 217.398556 179.362563 
L 219.029986 177.03666 
L 220.661416 177.093986 
L 222.292846 179.343556 
L 223.924276 175.64195 
L 225.555706 178.655846 
L 227.187136 176.28005 
L 228.818566 178.419119 
L 230.449995 175.881039 
L 232.081425 178.124383 
L 233.712855 177.925311 
L 236.975715 175.080883 
L 238.607145 177.18964 
L 240.238575 178.156683 
L 241.870005 177.067558 
L 243.501434 177.118904 
L 245.132864 176.906227 
L 246.764294 176.908848 
L 248.395724 178.699359 
L 250.027154 174.974525 
L 251.658584 178.853166 
L 253.290014 175.959226 
L 256.552873 179.271594 
L 258.184303 176.268126 
L 259.815733 175.599514 
L 261.447163 176.538155 
L 263.078593 173.508493 
L 264.710023 176.015595 
L 266.341453 176.509845 
L 267.972883 176.582638 
L 269.604312 177.280732 
L 271.235742 175.176782 
L 272.867172 175.468755 
L 274.498602 176.336674 
L 276.130032 172.755967 
L 277.761462 177.097888 
L 279.392892 175.526633 
L 281.024322 176.244211 
L 282.655751 176.390895 
L 284.287181 179.204444 
L 287.550041 175.742252 
L 289.181471 178.651469 
L 290.812901 173.508308 
L 292.444331 178.865429 
L 294.075761 178.546005 
L 295.70719 176.251636 
L 297.33862 176.191851 
L 298.97005 175.94579 
L 300.60148 178.18319 
L 302.23291 179.687596 
L 303.86434 178.29142 
L 305.49577 176.277834 
L 307.1272 175.218851 
L 308.75863 174.796002 
L 310.390059 179.016524 
L 312.021489 175.963479 
L 313.652919 176.590754 
L 315.284349 175.351159 
L 316.915779 177.086295 
L 318.547209 176.47537 
L 320.178639 177.093609 
L 321.810069 176.921721 
L 323.441498 175.229729 
L 325.072928 177.016434 
L 326.704358 175.881896 
L 328.335788 176.124309 
L 329.967218 175.534864 
L 331.598648 178.64189 
L 333.230078 176.236514 
L 334.861508 179.871682 
L 336.492937 178.327502 
L 338.124367 177.042061 
L 339.755797 175.036488 
L 341.387227 176.926419 
L 343.018657 177.594912 
L 344.650087 175.106723 
L 346.281517 178.284591 
L 347.912947 176.444736 
L 349.544376 176.111903 
L 351.175806 177.706277 
L 352.807236 176.452251 
L 354.438666 176.291925 
L 356.070096 175.173814 
L 357.701526 176.779531 
L 359.332956 177.906867 
L 360.964386 176.219745 
L 362.595815 176.62517 
L 364.227245 175.051232 
L 367.490105 176.50598 
L 369.121535 176.138361 
L 370.752965 174.395263 
L 372.384395 176.413959 
L 374.015825 174.805707 
L 375.647254 175.330654 
L 377.278684 175.138636 
L 378.910114 173.782662 
L 380.541544 173.923515 
L 382.172974 173.003383 
L 383.804404 175.066791 
L 385.435834 175.233554 
L 387.067264 176.218573 
L 388.698693 175.666934 
L 390.330123 174.642158 
L 391.961553 177.67731 
L 393.592983 177.676717 
L 395.224413 176.834913 
L 396.855843 178.895058 
L 398.487273 176.278082 
L 398.487273 176.278082 
" clip-path="url(#pef374d5f5e)" style="fill: none; stroke: #0000ff; stroke-width: 1.5; stroke-linecap: square"/>
   </g>
   <g id="line2d_22">
    <path d="M 73.832727 248.580045 
L 75.464157 197.613037 
L 77.095587 172.711262 
L 78.727017 166.595267 
L 80.358447 166.357191 
L 81.989877 159.056493 
L 83.621307 157.767183 
L 85.252736 161.002165 
L 86.884166 155.580738 
L 88.515596 158.900792 
L 90.147026 156.683506 
L 91.778456 153.152287 
L 93.409886 150.751992 
L 95.041316 153.27775 
L 96.672746 153.425399 
L 98.304175 155.536782 
L 99.935605 155.363571 
L 101.567035 151.717028 
L 103.198465 157.092724 
L 104.829895 151.405009 
L 108.092755 151.367738 
L 109.724185 155.961659 
L 111.355614 150.793546 
L 114.618474 157.596861 
L 116.249904 153.075418 
L 117.881334 151.646997 
L 119.512764 155.181003 
L 121.144194 153.77043 
L 122.775624 155.545194 
L 126.038483 150.599179 
L 127.669913 153.3311 
L 129.301343 151.527852 
L 130.932773 154.480808 
L 132.564203 149.134665 
L 134.195633 152.012249 
L 135.827063 152.846568 
L 137.458492 154.677729 
L 139.089922 152.277829 
L 140.721352 153.887138 
L 142.352782 155.966125 
L 143.984212 154.116598 
L 145.615642 155.889114 
L 147.247072 154.735057 
L 148.878502 155.420479 
L 150.509931 154.381285 
L 152.141361 156.280899 
L 153.772791 152.534555 
L 155.404221 155.362448 
L 157.035651 160.875473 
L 158.667081 155.017279 
L 160.298511 155.516116 
L 161.929941 157.38861 
L 163.56137 151.913411 
L 165.1928 155.230847 
L 166.82423 155.301946 
L 168.45566 156.19223 
L 170.08709 159.923917 
L 171.71852 158.219084 
L 173.34995 158.290837 
L 174.98138 159.390154 
L 176.61281 153.680607 
L 178.244239 151.24049 
L 179.875669 155.813556 
L 181.507099 153.788169 
L 183.138529 160.412981 
L 184.769959 158.897903 
L 186.401389 156.379344 
L 188.032819 157.816607 
L 189.664249 154.526804 
L 191.295678 154.180748 
L 192.927108 152.885588 
L 194.558538 159.914261 
L 197.821398 152.756586 
L 199.452828 157.231747 
L 201.084258 157.293084 
L 202.715688 154.701137 
L 204.347117 158.898792 
L 205.978547 156.243625 
L 207.609977 154.230535 
L 209.241407 154.109313 
L 212.504267 150.63238 
L 214.135697 158.855599 
L 215.767127 156.619747 
L 217.398556 158.450563 
L 219.029986 156.540784 
L 220.661416 155.761442 
L 222.292846 158.980073 
L 223.924276 153.825272 
L 225.555706 159.220489 
L 227.187136 155.676946 
L 228.818566 156.314696 
L 230.449995 154.009862 
L 232.081425 157.552712 
L 233.712855 158.013359 
L 235.344285 154.367033 
L 236.975715 153.383544 
L 238.607145 155.153742 
L 240.238575 157.873244 
L 241.870005 156.482934 
L 243.501434 156.725136 
L 245.132864 154.147289 
L 248.395724 156.966128 
L 250.027154 153.848064 
L 251.658584 157.52743 
L 253.290014 155.155436 
L 254.921444 155.489855 
L 256.552873 158.35434 
L 258.184303 154.246326 
L 259.815733 154.061221 
L 261.447163 156.699353 
L 263.078593 154.153403 
L 264.710023 156.266328 
L 266.341453 154.056432 
L 267.972883 155.480607 
L 269.604312 155.343653 
L 271.235742 156.95883 
L 272.867172 153.70646 
L 274.498602 154.432559 
L 276.130032 150.961095 
L 277.761462 156.105484 
L 279.392892 154.684232 
L 281.024322 155.607495 
L 282.655751 156.269219 
L 284.287181 158.596683 
L 285.918611 155.701559 
L 287.550041 154.294965 
L 289.181471 156.771731 
L 290.812901 150.892245 
L 292.444331 158.974928 
L 295.70719 154.233674 
L 297.33862 152.850956 
L 298.97005 152.82657 
L 300.60148 158.923554 
L 302.23291 157.686283 
L 303.86434 154.361434 
L 305.49577 154.434807 
L 307.1272 153.732244 
L 308.75863 153.955576 
L 310.390059 158.67095 
L 312.021489 153.973099 
L 313.652919 153.290767 
L 315.284349 152.294448 
L 316.915779 158.461122 
L 318.547209 156.474837 
L 320.178639 155.969661 
L 321.810069 156.9348 
L 323.441498 153.521629 
L 325.072928 159.863338 
L 326.704358 155.583255 
L 328.335788 156.035882 
L 329.967218 154.397648 
L 331.598648 154.814585 
L 333.230078 153.853845 
L 334.861508 160.83304 
L 336.492937 159.750907 
L 338.124367 154.353822 
L 339.755797 154.868132 
L 341.387227 156.517541 
L 343.018657 159.419057 
L 344.650087 153.67443 
L 346.281517 157.932087 
L 347.912947 155.399865 
L 349.544376 155.438247 
L 351.175806 158.338219 
L 352.807236 157.399651 
L 354.438666 155.152035 
L 356.070096 154.759826 
L 357.701526 156.91017 
L 359.332956 157.79936 
L 360.964386 152.418422 
L 362.595815 156.45773 
L 364.227245 151.79422 
L 367.490105 156.2536 
L 369.121535 155.999524 
L 370.752965 151.919129 
L 372.384395 156.022122 
L 374.015825 151.425613 
L 375.647254 153.898733 
L 377.278684 155.298065 
L 378.910114 152.470289 
L 380.541544 152.554221 
L 382.172974 150.399314 
L 383.804404 152.898286 
L 387.067264 155.489115 
L 388.698693 155.750495 
L 390.330123 152.627651 
L 391.961553 156.146426 
L 393.592983 157.652264 
L 395.224413 156.742939 
L 396.855843 158.434762 
L 398.487273 155.324671 
L 398.487273 155.324671 
" clip-path="url(#pef374d5f5e)" style="fill: none; stroke-dasharray: 9.6,2.4,1.5,2.4; stroke-dashoffset: 0; stroke: #008000; stroke-width: 1.5"/>
   </g>
   <g id="line2d_23">
    <path d="M 73.832727 156.971475 
L 75.464157 122.439302 
L 77.095587 121.144305 
L 78.727017 129.296524 
L 80.358447 117.376803 
L 81.989877 106.72456 
L 83.621307 117.463522 
L 85.252736 118.584955 
L 86.884166 100.228206 
L 88.515596 118.27113 
L 90.147026 110.320228 
L 91.778456 78.046291 
L 93.409886 86.655 
L 96.672746 113.994771 
L 98.304175 100.397416 
L 99.935605 99.964979 
L 101.567035 89.861952 
L 103.198465 113.800792 
L 104.829895 103.634652 
L 106.461325 110.139831 
L 108.092755 93.264018 
L 109.724185 103.72437 
L 111.355614 83.797748 
L 112.987044 113.788247 
L 114.618474 117.965823 
L 116.249904 96.510821 
L 117.881334 93.506889 
L 119.512764 117.759417 
L 121.144194 107.194188 
L 122.775624 103.904896 
L 124.407053 107.894194 
L 126.038483 96.547777 
L 127.669913 93.384702 
L 129.301343 109.950866 
L 130.932773 78.006118 
L 134.195633 107.444463 
L 135.827063 107.147145 
L 137.458492 80.606477 
L 139.089922 103.114646 
L 140.721352 106.925022 
L 142.352782 104.347841 
L 143.984212 114.054371 
L 145.615642 97.041122 
L 147.247072 106.688778 
L 148.878502 107.03334 
L 150.509931 99.771963 
L 152.141361 106.729514 
L 153.772791 84.119503 
L 155.404221 117.636615 
L 157.035651 121.84233 
L 158.667081 80.878949 
L 160.298511 110.258344 
L 161.929941 106.821784 
L 163.56137 63.698826 
L 165.1928 99.937279 
L 166.82423 107.555232 
L 168.45566 110.260269 
L 170.08709 111.405785 
L 171.71852 121.903256 
L 173.34995 110.32396 
L 174.98138 117.722497 
L 176.61281 86.803183 
L 178.244239 90.417851 
L 179.875669 96.534005 
L 181.507099 121.546145 
L 183.138529 121.551487 
L 184.769959 61.467569 
L 186.401389 106.5253 
L 188.032819 87.096281 
L 189.664249 103.462439 
L 191.295678 84.222893 
L 192.927108 96.390052 
L 194.558538 114.879308 
L 196.189968 110.727569 
L 197.821398 103.13275 
L 199.452828 107.037129 
L 201.084258 107.169867 
L 202.715688 83.655262 
L 204.347117 89.795647 
L 205.978547 103.693553 
L 207.609977 103.708375 
L 209.241407 96.24253 
L 210.872837 100.02693 
L 212.504267 53.568 
L 214.135697 110.912816 
L 215.767127 106.80572 
L 217.398556 114.059723 
L 219.029986 117.422913 
L 220.661416 110.335283 
L 222.292846 93.237307 
L 223.924276 90.269874 
L 225.555706 118.033586 
L 227.187136 102.981481 
L 228.818566 103.943706 
L 230.449995 110.519661 
L 232.081425 110.694078 
L 233.712855 121.462019 
L 235.344285 87.053119 
L 236.975715 93.350613 
L 238.607145 102.873676 
L 241.870005 110.218275 
L 243.501434 106.883858 
L 245.132864 69.290617 
L 246.764294 93.310908 
L 248.395724 75.070817 
L 250.027154 110.192067 
L 251.658584 103.253285 
L 253.290014 110.167949 
L 254.921444 96.175361 
L 256.552873 99.996829 
L 258.184303 81.220281 
L 259.815733 74.680811 
L 261.447163 117.73631 
L 263.078593 99.57788 
L 264.710023 107.330638 
L 266.341453 84.266943 
L 267.972883 96.565554 
L 269.604312 99.980293 
L 271.235742 125.982494 
L 272.867172 106.569322 
L 276.130032 93.022656 
L 277.761462 121.411196 
L 279.392892 83.673371 
L 281.024322 103.705632 
L 282.655751 110.494793 
L 284.287181 93.621853 
L 285.918611 117.790968 
L 287.550041 106.608397 
L 289.181471 121.440758 
L 290.812901 80.747882 
L 292.444331 122.009672 
L 294.075761 103.154643 
L 295.70719 106.614882 
L 297.33862 63.625682 
L 298.97005 106.773077 
L 300.60148 110.3365 
L 302.23291 117.626323 
L 303.86434 77.898885 
L 305.49577 99.950661 
L 307.1272 99.978966 
L 308.75863 90.06319 
L 310.390059 110.447542 
L 312.021489 72.384098 
L 313.652919 80.741503 
L 315.284349 72.681624 
L 316.915779 130.081006 
L 318.547209 71.909249 
L 320.178639 103.336941 
L 321.810069 103.648209 
L 323.441498 96.71063 
L 325.072928 138.063728 
L 326.704358 99.996721 
L 328.335788 114.141001 
L 329.967218 110.391572 
L 331.598648 80.784631 
L 333.230078 74.757187 
L 334.861508 133.906847 
L 336.492937 121.778949 
L 338.124367 83.711631 
L 339.755797 103.577877 
L 341.387227 107.150404 
L 343.018657 113.556231 
L 344.650087 96.369994 
L 346.281517 100.559776 
L 347.912947 100.548546 
L 349.544376 99.850225 
L 351.175806 114.375482 
L 352.807236 117.755525 
L 354.438666 106.733946 
L 356.070096 103.27118 
L 357.701526 110.981144 
L 359.332956 87.122142 
L 360.964386 69.277385 
L 362.595815 121.682198 
L 364.227245 99.55254 
L 367.490105 122.104033 
L 369.121535 96.102538 
L 370.752965 96.682524 
L 372.384395 107.011956 
L 374.015825 74.940309 
L 375.647254 100.113473 
L 377.278684 104.014622 
L 378.910114 103.367855 
L 380.541544 106.765836 
L 382.172974 103.309154 
L 383.804404 103.368657 
L 385.435834 100.445381 
L 387.067264 97.052636 
L 388.698693 110.770516 
L 390.330123 110.697253 
L 391.961553 83.7977 
L 393.592983 106.899296 
L 395.224413 103.337005 
L 396.855843 110.170004 
L 398.487273 99.563348 
L 398.487273 99.563348 
" clip-path="url(#pef374d5f5e)" style="fill: none; stroke: #ff0000; stroke-width: 1.5; stroke-linecap: square"/>
   </g>
   <g id="patch_3">
    <path d="M 57.6 307.584 
L 57.6 41.472 
" style="fill: none; stroke: #000000; stroke-width: 0.8; stroke-linejoin: miter; stroke-linecap: square"/>
   </g>
   <g id="patch_4">
    <path d="M 414.72 307.584 
L 414.72 41.472 
" style="fill: none; stroke: #000000; stroke-width: 0.8; stroke-linejoin: miter; stroke-linecap: square"/>
   </g>
   <g id="patch_5">
    <path d="M 57.6 307.584 
L 414.72 307.584 
" style="fill: none; stroke: #000000; stroke-width: 0.8; stroke-linejoin: miter; stroke-linecap: square"/>
   </g>
   <g id="patch_6">
    <path d="M 57.6 41.472 
L 414.72 41.472 
" style="fill: none; stroke: #000000; stroke-width: 0.8; stroke-linejoin: miter; stroke-linecap: square"/>
   </g>
   <g id="text_13">
    <!-- Population's average and best fitness -->
    <g transform="translate(123.529687 35.472) scale(0.12 -0.12)">
     <defs>
      <path id="DejaVuSans-50" d="M 1259 4147 
L 1259 2394 
L 2053 2394 
Q 2494 2394 2734 2622 
Q 2975 2850 2975 3272 
Q 2975 3691 2734 3919 
Q 2494 4147 2053 4147 
L 1259 4147 
z
M 628 4666 
L 2053 4666 
Q 2838 4666 3239 4311 
Q 3641 3956 3641 3272 
Q 3641 2581 3239 2228 
Q 2838 1875 2053 1875 
L 1259 1875 
L 1259 0 
L 628 0 
L 628 4666 
z
" transform="scale(0.015625)"/>
      <path id="DejaVuSans-70" d="M 1159 525 
L 1159 -1331 
L 581 -1331 
L 581 3500 
L 1159 3500 
L 1159 2969 
Q 1341 3281 1617 3432 
Q 1894 3584 2278 3584 
Q 2916 3584 3314 3078 
Q 3713 2572 3713 1747 
Q 3713 922 3314 415 
Q 2916 -91 2278 -91 
Q 1894 -91 1617 61 
Q 1341 213 1159 525 
z
M 3116 1747 
Q 3116 2381 2855 2742 
Q 2594 3103 2138 3103 
Q 1681 3103 1420 2742 
Q 1159 2381 1159 1747 
Q 1159 1113 1420 752 
Q 1681 391 2138 391 
Q 2594 391 2855 752 
Q 3116 1113 3116 1747 
z
" transform="scale(0.015625)"/>
      <path id="DejaVuSans-75" d="M 544 1381 
L 544 3500 
L 1119 3500 
L 1119 1403 
Q 1119 906 1312 657 
Q 1506 409 1894 409 
Q 2359 409 2629 706 
Q 2900 1003 2900 1516 
L 2900 3500 
L 3475 3500 
L 3475 0 
L 2900 0 
L 2900 538 
Q 2691 219 2414 64 
Q 2138 -91 1772 -91 
Q 1169 -91 856 284 
Q 544 659 544 1381 
z
M 1991 3584 
L 1991 3584 
z
" transform="scale(0.015625)"/>
      <path id="DejaVuSans-6c" d="M 603 4863 
L 1178 4863 
L 1178 0 
L 603 0 
L 603 4863 
z
" transform="scale(0.015625)"/>
      <path id="DejaVuSans-27" d="M 1147 4666 
L 1147 2931 
L 616 2931 
L 616 4666 
L 1147 4666 
z
" transform="scale(0.015625)"/>
      <path id="DejaVuSans-20" transform="scale(0.015625)"/>
      <path id="DejaVuSans-76" d="M 191 3500 
L 800 3500 
L 1894 563 
L 2988 3500 
L 3597 3500 
L 2284 0 
L 1503 0 
L 191 3500 
z
" transform="scale(0.015625)"/>
      <path id="DejaVuSans-67" d="M 2906 1791 
Q 2906 2416 2648 2759 
Q 2391 3103 1925 3103 
Q 1463 3103 1205 2759 
Q 947 2416 947 1791 
Q 947 1169 1205 825 
Q 1463 481 1925 481 
Q 2391 481 2648 825 
Q 2906 1169 2906 1791 
z
M 3481 434 
Q 3481 -459 3084 -895 
Q 2688 -1331 1869 -1331 
Q 1566 -1331 1297 -1286 
Q 1028 -1241 775 -1147 
L 775 -588 
Q 1028 -725 1275 -790 
Q 1522 -856 1778 -856 
Q 2344 -856 2625 -561 
Q 2906 -266 2906 331 
L 2906 616 
Q 2728 306 2450 153 
Q 2172 0 1784 0 
Q 1141 0 747 490 
Q 353 981 353 1791 
Q 353 2603 747 3093 
Q 1141 3584 1784 3584 
Q 2172 3584 2450 3431 
Q 2728 3278 2906 2969 
L 2906 3500 
L 3481 3500 
L 3481 434 
z
" transform="scale(0.015625)"/>
      <path id="DejaVuSans-64" d="M 2906 2969 
L 2906 4863 
L 3481 4863 
L 3481 0 
L 2906 0 
L 2906 525 
Q 2725 213 2448 61 
Q 2172 -91 1784 -91 
Q 1150 -91 751 415 
Q 353 922 353 1747 
Q 353 2572 751 3078 
Q 1150 3584 1784 3584 
Q 2172 3584 2448 3432 
Q 2725 3281 2906 2969 
z
M 947 1747 
Q 947 1113 1208 752 
Q 1469 391 1925 391 
Q 2381 391 2643 752 
Q 2906 1113 2906 1747 
Q 2906 2381 2643 2742 
Q 2381 3103 1925 3103 
Q 1469 3103 1208 2742 
Q 947 2381 947 1747 
z
" transform="scale(0.015625)"/>
      <path id="DejaVuSans-62" d="M 3116 1747 
Q 3116 2381 2855 2742 
Q 2594 3103 2138 3103 
Q 1681 3103 1420 2742 
Q 1159 2381 1159 1747 
Q 1159 1113 1420 752 
Q 1681 391 2138 391 
Q 2594 391 2855 752 
Q 3116 1113 3116 1747 
z
M 1159 2969 
Q 1341 3281 1617 3432 
Q 1894 3584 2278 3584 
Q 2916 3584 3314 3078 
Q 3713 2572 3713 1747 
Q 3713 922 3314 415 
Q 2916 -91 2278 -91 
Q 1894 -91 1617 61 
Q 1341 213 1159 525 
L 1159 0 
L 581 0 
L 581 4863 
L 1159 4863 
L 1159 2969 
z
" transform="scale(0.015625)"/>
      <path id="DejaVuSans-66" d="M 2375 4863 
L 2375 4384 
L 1825 4384 
Q 1516 4384 1395 4259 
Q 1275 4134 1275 3809 
L 1275 3500 
L 2222 3500 
L 2222 3053 
L 1275 3053 
L 1275 0 
L 697 0 
L 697 3053 
L 147 3053 
L 147 3500 
L 697 3500 
L 697 3744 
Q 697 4328 969 4595 
Q 1241 4863 1831 4863 
L 2375 4863 
z
" transform="scale(0.015625)"/>
     </defs>
     <use xlink:href="#DejaVuSans-50"/>
     <use xlink:href="#DejaVuSans-6f" transform="translate(56.677734 0)"/>
     <use xlink:href="#DejaVuSans-70" transform="translate(117.859375 0)"/>
     <use xlink:href="#DejaVuSans-75" transform="translate(181.335938 0)"/>
     <use xlink:href="#DejaVuSans-6c" transform="translate(244.714844 0)"/>
     <use xlink:href="#DejaVuSans-61" transform="translate(272.498047 0)"/>
     <use xlink:href="#DejaVuSans-74" transform="translate(333.777344 0)"/>
     <use xlink:href="#DejaVuSans-69" transform="translate(372.986328 0)"/>
     <use xlink:href="#DejaVuSans-6f" transform="translate(400.769531 0)"/>
     <use xlink:href="#DejaVuSans-6e" transform="translate(461.951172 0)"/>
     <use xlink:href="#DejaVuSans-27" transform="translate(525.330078 0)"/>
     <use xlink:href="#DejaVuSans-73" transform="translate(552.820312 0)"/>
     <use xlink:href="#DejaVuSans-20" transform="translate(604.919922 0)"/>
     <use xlink:href="#DejaVuSans-61" transform="translate(636.707031 0)"/>
     <use xlink:href="#DejaVuSans-76" transform="translate(697.986328 0)"/>
     <use xlink:href="#DejaVuSans-65" transform="translate(757.166016 0)"/>
     <use xlink:href="#DejaVuSans-72" transform="translate(818.689453 0)"/>
     <use xlink:href="#DejaVuSans-61" transform="translate(859.802734 0)"/>
     <use xlink:href="#DejaVuSans-67" transform="translate(921.082031 0)"/>
     <use xlink:href="#DejaVuSans-65" transform="translate(984.558594 0)"/>
     <use xlink:href="#DejaVuSans-20" transform="translate(1046.082031 0)"/>
     <use xlink:href="#DejaVuSans-61" transform="translate(1077.869141 0)"/>
     <use xlink:href="#DejaVuSans-6e" transform="translate(1139.148438 0)"/>
     <use xlink:href="#DejaVuSans-64" transform="translate(1202.527344 0)"/>
     <use xlink:href="#DejaVuSans-20" transform="translate(1266.003906 0)"/>
     <use xlink:href="#DejaVuSans-62" transform="translate(1297.791016 0)"/>
     <use xlink:href="#DejaVuSans-65" transform="translate(1361.267578 0)"/>
     <use xlink:href="#DejaVuSans-73" transform="translate(1422.791016 0)"/>
     <use xlink:href="#DejaVuSans-74" transform="translate(1474.890625 0)"/>
     <use xlink:href="#DejaVuSans-20" transform="translate(1514.099609 0)"/>
     <use xlink:href="#DejaVuSans-66" transform="translate(1545.886719 0)"/>
     <use xlink:href="#DejaVuSans-69" transform="translate(1581.091797 0)"/>
     <use xlink:href="#DejaVuSans-74" transform="translate(1608.875 0)"/>
     <use xlink:href="#DejaVuSans-6e" transform="translate(1648.083984 0)"/>
     <use xlink:href="#DejaVuSans-65" transform="translate(1711.462891 0)"/>
     <use xlink:href="#DejaVuSans-73" transform="translate(1772.986328 0)"/>
     <use xlink:href="#DejaVuSans-73" transform="translate(1825.085938 0)"/>
    </g>
   </g>
   <g id="legend_1">
    <g id="patch_7">
     <path d="M 334.779375 302.584 
L 407.72 302.584 
Q 409.72 302.584 409.72 300.584 
L 409.72 257.549625 
Q 409.72 255.549625 407.72 255.549625 
L 334.779375 255.549625 
Q 332.779375 255.549625 332.779375 257.549625 
L 332.779375 300.584 
Q 332.779375 302.584 334.779375 302.584 
z
" style="fill: #ffffff; opacity: 0.8; stroke: #cccccc; stroke-linejoin: miter"/>
    </g>
    <g id="line2d_24">
     <path d="M 336.779375 263.648062 
L 346.779375 263.648062 
L 356.779375 263.648062 
" style="fill: none; stroke: #0000ff; stroke-width: 1.5; stroke-linecap: square"/>
    </g>
    <g id="text_14">
     <!-- average -->
     <g transform="translate(364.779375 267.148062) scale(0.1 -0.1)">
      <use xlink:href="#DejaVuSans-61"/>
      <use xlink:href="#DejaVuSans-76" transform="translate(61.279297 0)"/>
      <use xlink:href="#DejaVuSans-65" transform="translate(120.458984 0)"/>
      <use xlink:href="#DejaVuSans-72" transform="translate(181.982422 0)"/>
      <use xlink:href="#DejaVuSans-61" transform="translate(223.095703 0)"/>
      <use xlink:href="#DejaVuSans-67" transform="translate(284.375 0)"/>
      <use xlink:href="#DejaVuSans-65" transform="translate(347.851562 0)"/>
     </g>
    </g>
    <g id="line2d_25">
     <path d="M 336.779375 278.326188 
L 346.779375 278.326188 
L 356.779375 278.326188 
" style="fill: none; stroke-dasharray: 9.6,2.4,1.5,2.4; stroke-dashoffset: 0; stroke: #008000; stroke-width: 1.5"/>
    </g>
    <g id="text_15">
     <!-- +1 sd -->
     <g transform="translate(364.779375 281.826188) scale(0.1 -0.1)">
      <defs>
       <path id="DejaVuSans-2b" d="M 2944 4013 
L 2944 2272 
L 4684 2272 
L 4684 1741 
L 2944 1741 
L 2944 0 
L 2419 0 
L 2419 1741 
L 678 1741 
L 678 2272 
L 2419 2272 
L 2419 4013 
L 2944 4013 
z
" transform="scale(0.015625)"/>
      </defs>
      <use xlink:href="#DejaVuSans-2b"/>
      <use xlink:href="#DejaVuSans-31" transform="translate(83.789062 0)"/>
      <use xlink:href="#DejaVuSans-20" transform="translate(147.412109 0)"/>
      <use xlink:href="#DejaVuSans-73" transform="translate(179.199219 0)"/>
      <use xlink:href="#DejaVuSans-64" transform="translate(231.298828 0)"/>
     </g>
    </g>
    <g id="line2d_26">
     <path d="M 336.779375 293.004312 
L 346.779375 293.004312 
L 356.779375 293.004312 
" style="fill: none; stroke: #ff0000; stroke-width: 1.5; stroke-linecap: square"/>
    </g>
    <g id="text_16">
     <!-- best -->
     <g transform="translate(364.779375 296.504312) scale(0.1 -0.1)">
      <use xlink:href="#DejaVuSans-62"/>
      <use xlink:href="#DejaVuSans-65" transform="translate(63.476562 0)"/>
      <use xlink:href="#DejaVuSans-73" transform="translate(125 0)"/>
      <use xlink:href="#DejaVuSans-74" transform="translate(177.099609 0)"/>
     </g>
    </g>
   </g>
  </g>
 </g>
 <defs>
  <clipPath id="pef374d5f5e">
   <rect x="57.6" y="41.472" width="357.12" height="266.112"/>
  </clipPath>
 </defs>
</svg>
