<?xml version="1.0" encoding="utf-8" standalone="no"?>
<!DOCTYPE svg PUBLIC "-//W3C//DTD SVG 1.1//EN"
  "http://www.w3.org/Graphics/SVG/1.1/DTD/svg11.dtd">
<svg xmlns:xlink="http://www.w3.org/1999/xlink" width="720pt" height="432pt" viewBox="0 0 720 432" xmlns="http://www.w3.org/2000/svg" version="1.1">
 <metadata>
  <rdf:RDF xmlns:dc="http://purl.org/dc/elements/1.1/" xmlns:cc="http://creativecommons.org/ns#" xmlns:rdf="http://www.w3.org/1999/02/22-rdf-syntax-ns#">
   <cc:Work>
    <dc:type rdf:resource="http://purl.org/dc/dcmitype/StillImage"/>
    <dc:date>2026-04-27T05:48:20.306845</dc:date>
    <dc:format>image/svg+xml</dc:format>
    <dc:creator>
     <cc:Agent>
      <dc:title>Matplotlib v3.10.8, https://matplotlib.org/</dc:title>
     </cc:Agent>
    </dc:creator>
   </cc:Work>
  </rdf:RDF>
 </metadata>
 <defs>
  <style type="text/css">*{stroke-linejoin: round; stroke-linecap: butt}</style>
 </defs>
 <g id="figure_1">
  <g id="patch_1">
   <path d="M 0 432 
L 720 432 
L 720 0 
L 0 0 
z
" style="fill: #ffffff"/>
  </g>
  <g id="axes_1">
   <g id="patch_2">
    <path d="M 90 384.48 
L 648 384.48 
L 648 51.84 
L 90 51.84 
z
" style="fill: #ffffff"/>
   </g>
   <g id="FillBetweenPolyCollection_1">
    <defs>
     <path id="m679d48f36f" d="M 115.363636 -360.984671 
L 115.363636 -309.519163 
L 120.487603 -334.027772 
L 125.61157 -332.845204 
L 130.735537 -331.495598 
L 135.859504 -329.807091 
L 140.983471 -329.58403 
L 146.107438 -344.059952 
L 151.231405 -340.397431 
L 156.355372 -343.815982 
L 161.479339 -343.619646 
L 166.603306 -344.090663 
L 171.727273 -346.129658 
L 176.85124 -346.266956 
L 181.975207 -347.605786 
L 187.099174 -347.0522 
L 192.22314 -348.058539 
L 197.347107 -346.608852 
L 202.471074 -346.296689 
L 207.595041 -347.702139 
L 212.719008 -348.424954 
L 217.842975 -348.188364 
L 222.966942 -348.990579 
L 228.090909 -348.24588 
L 233.214876 -347.770457 
L 238.338843 -347.632812 
L 243.46281 -346.293756 
L 248.586777 -349.272017 
L 253.710744 -349.040086 
L 258.834711 -348.048985 
L 263.958678 -348.904617 
L 269.082645 -350.540086 
L 274.206612 -346.73374 
L 279.330579 -348.141332 
L 284.454545 -348.558909 
L 289.578512 -348.114059 
L 294.702479 -348.715007 
L 299.826446 -346.723192 
L 304.950413 -348.142818 
L 310.07438 -347.742189 
L 315.198347 -349.606329 
L 320.322314 -346.22255 
L 325.446281 -342.90315 
L 330.570248 -344.907419 
L 335.694215 -346.865285 
L 340.818182 -345.735353 
L 345.942149 -347.134215 
L 351.066116 -346.279297 
L 356.190083 -346.684341 
L 361.31405 -349.17849 
L 366.438017 -346.492705 
L 371.561983 -345.710671 
L 376.68595 -348.744942 
L 381.809917 -347.815032 
L 386.933884 -346.958775 
L 392.057851 -347.469345 
L 397.181818 -348.403525 
L 402.305785 -350.262341 
L 407.429752 -347.250835 
L 412.553719 -348.960037 
L 417.677686 -350.476182 
L 422.801653 -349.770605 
L 427.92562 -349.174143 
L 433.049587 -351.727133 
L 438.173554 -346.922193 
L 443.297521 -349.748629 
L 448.421488 -347.995892 
L 453.545455 -347.316363 
L 458.669421 -346.586962 
L 463.793388 -351.106203 
L 468.917355 -346.130057 
L 474.041322 -349.216333 
L 479.165289 -348.475966 
L 484.289256 -348.519668 
L 489.413223 -351.026272 
L 494.53719 -347.412928 
L 499.661157 -347.513132 
L 504.785124 -346.700215 
L 509.909091 -349.389275 
L 515.033058 -349.554993 
L 520.157025 -347.578849 
L 525.280992 -350.226154 
L 530.404959 -350.940737 
L 535.528926 -344.442012 
L 540.652893 -348.015736 
L 545.77686 -348.602906 
L 550.900826 -348.54259 
L 556.024793 -349.33036 
L 561.14876 -348.250714 
L 566.272727 -346.213853 
L 571.396694 -347.958441 
L 576.520661 -347.482361 
L 581.644628 -347.289587 
L 586.768595 -348.711727 
L 591.892562 -349.307726 
L 597.016529 -346.431471 
L 602.140496 -348.820582 
L 607.264463 -347.262235 
L 612.38843 -350.387751 
L 617.512397 -347.068076 
L 622.636364 -348.186836 
L 622.636364 -361.991586 
L 622.636364 -361.991586 
L 617.512397 -361.81066 
L 612.38843 -359.274542 
L 607.264463 -358.003894 
L 602.140496 -360.199415 
L 597.016529 -359.825141 
L 591.892562 -360.365747 
L 586.768595 -361.449559 
L 581.644628 -359.904972 
L 576.520661 -359.965008 
L 571.396694 -360.662503 
L 566.272727 -365.04 
L 561.14876 -361.917852 
L 556.024793 -356.864405 
L 550.900826 -358.348091 
L 545.77686 -361.03236 
L 540.652893 -357.621906 
L 535.528926 -358.096108 
L 530.404959 -359.482107 
L 525.280992 -358.692267 
L 520.157025 -358.787702 
L 515.033058 -358.546806 
L 509.909091 -359.355566 
L 504.785124 -360.982991 
L 499.661157 -358.191079 
L 494.53719 -360.67761 
L 489.413223 -362.391831 
L 484.289256 -358.502089 
L 479.165289 -357.820479 
L 474.041322 -361.208752 
L 468.917355 -364.140164 
L 463.793388 -360.951118 
L 458.669421 -356.613965 
L 453.545455 -360.162102 
L 448.421488 -362.12968 
L 443.297521 -358.796366 
L 438.173554 -356.96519 
L 433.049587 -361.575704 
L 427.92562 -362.184513 
L 422.801653 -357.901657 
L 417.677686 -360.322116 
L 412.553719 -358.587369 
L 407.429752 -358.501324 
L 402.305785 -356.205857 
L 397.181818 -357.403924 
L 392.057851 -361.551131 
L 386.933884 -361.866399 
L 381.809917 -358.689208 
L 376.68595 -361.719995 
L 371.561983 -359.852798 
L 366.438017 -358.278835 
L 361.31405 -358.958648 
L 356.190083 -361.409389 
L 351.066116 -359.128067 
L 345.942149 -358.819256 
L 340.818182 -360.672316 
L 335.694215 -357.452134 
L 330.570248 -360.363639 
L 325.446281 -360.328376 
L 320.322314 -359.884975 
L 315.198347 -359.95791 
L 310.07438 -360.547443 
L 304.950413 -357.618711 
L 299.826446 -355.44905 
L 294.702479 -357.330536 
L 289.578512 -361.427389 
L 284.454545 -355.162681 
L 279.330579 -356.742991 
L 274.206612 -359.582344 
L 269.082645 -358.03713 
L 263.958678 -359.450946 
L 258.834711 -357.060159 
L 253.710744 -356.533974 
L 248.586777 -356.91872 
L 243.46281 -355.849741 
L 238.338843 -357.904088 
L 233.214876 -357.958354 
L 228.090909 -356.025414 
L 222.966942 -355.866734 
L 217.842975 -356.161375 
L 212.719008 -357.174253 
L 207.595041 -359.063896 
L 202.471074 -355.877285 
L 197.347107 -357.741804 
L 192.22314 -356.938298 
L 187.099174 -357.271052 
L 181.975207 -354.613849 
L 176.85124 -356.716384 
L 171.727273 -354.170816 
L 166.603306 -355.882532 
L 161.479339 -355.764586 
L 156.355372 -355.03659 
L 151.231405 -355.155871 
L 146.107438 -352.98056 
L 140.983471 -360.042729 
L 135.859504 -357.248063 
L 130.735537 -361.536487 
L 125.61157 -350.703441 
L 120.487603 -353.884008 
L 115.363636 -360.984671 
z
" style="stroke: #ff0000; stroke-opacity: 0.2"/>
    </defs>
    <g clip-path="url(#p6dbd13a019)">
     <use xlink:href="#m679d48f36f" x="0" y="432" style="fill: #ff0000; fill-opacity: 0.2; stroke: #ff0000; stroke-opacity: 0.2"/>
    </g>
   </g>
   <g id="matplotlib.axis_1">
    <g id="xtick_1">
     <g id="line2d_1">
      <path d="M 110.239669 384.48 
L 110.239669 51.84 
" clip-path="url(#p6dbd13a019)" style="fill: none; stroke: #b0b0b0; stroke-width: 0.8; stroke-linecap: square"/>
     </g>
     <g id="line2d_2">
      <defs>
       <path id="m49faa13341" d="M 0 0 
L 0 3.5 
" style="stroke: #000000; stroke-width: 0.8"/>
      </defs>
      <g>
       <use xlink:href="#m49faa13341" x="110.239669" y="384.48" style="stroke: #000000; stroke-width: 0.8"/>
      </g>
     </g>
     <g id="text_1">
      <!-- 0 -->
      <g transform="translate(107.058419 399.078438) scale(0.1 -0.1)">
       <defs>
        <path id="DejaVuSans-30" d="M 2034 4250 
Q 1547 4250 1301 3770 
Q 1056 3291 1056 2328 
Q 1056 1369 1301 889 
Q 1547 409 2034 409 
Q 2525 409 2770 889 
Q 3016 1369 3016 2328 
Q 3016 3291 2770 3770 
Q 2525 4250 2034 4250 
z
M 2034 4750 
Q 2819 4750 3233 4129 
Q 3647 3509 3647 2328 
Q 3647 1150 3233 529 
Q 2819 -91 2034 -91 
Q 1250 -91 836 529 
Q 422 1150 422 2328 
Q 422 3509 836 4129 
Q 1250 4750 2034 4750 
z
" transform="scale(0.015625)"/>
       </defs>
       <use xlink:href="#DejaVuSans-30"/>
      </g>
     </g>
    </g>
    <g id="xtick_2">
     <g id="line2d_3">
      <path d="M 212.719008 384.48 
L 212.719008 51.84 
" clip-path="url(#p6dbd13a019)" style="fill: none; stroke: #b0b0b0; stroke-width: 0.8; stroke-linecap: square"/>
     </g>
     <g id="line2d_4">
      <g>
       <use xlink:href="#m49faa13341" x="212.719008" y="384.48" style="stroke: #000000; stroke-width: 0.8"/>
      </g>
     </g>
     <g id="text_2">
      <!-- 20 -->
      <g transform="translate(206.356508 399.078438) scale(0.1 -0.1)">
       <defs>
        <path id="DejaVuSans-32" d="M 1228 531 
L 3431 531 
L 3431 0 
L 469 0 
L 469 531 
Q 828 903 1448 1529 
Q 2069 2156 2228 2338 
Q 2531 2678 2651 2914 
Q 2772 3150 2772 3378 
Q 2772 3750 2511 3984 
Q 2250 4219 1831 4219 
Q 1534 4219 1204 4116 
Q 875 4013 500 3803 
L 500 4441 
Q 881 4594 1212 4672 
Q 1544 4750 1819 4750 
Q 2544 4750 2975 4387 
Q 3406 4025 3406 3419 
Q 3406 3131 3298 2873 
Q 3191 2616 2906 2266 
Q 2828 2175 2409 1742 
Q 1991 1309 1228 531 
z
" transform="scale(0.015625)"/>
       </defs>
       <use xlink:href="#DejaVuSans-32"/>
       <use xlink:href="#DejaVuSans-30" transform="translate(63.623047 0)"/>
      </g>
     </g>
    </g>
    <g id="xtick_3">
     <g id="line2d_5">
      <path d="M 315.198347 384.48 
L 315.198347 51.84 
" clip-path="url(#p6dbd13a019)" style="fill: none; stroke: #b0b0b0; stroke-width: 0.8; stroke-linecap: square"/>
     </g>
     <g id="line2d_6">
      <g>
       <use xlink:href="#m49faa13341" x="315.198347" y="384.48" style="stroke: #000000; stroke-width: 0.8"/>
      </g>
     </g>
     <g id="text_3">
      <!-- 40 -->
      <g transform="translate(308.835847 399.078438) scale(0.1 -0.1)">
       <defs>
        <path id="DejaVuSans-34" d="M 2419 4116 
L 825 1625 
L 2419 1625 
L 2419 4116 
z
M 2253 4666 
L 3047 4666 
L 3047 1625 
L 3713 1625 
L 3713 1100 
L 3047 1100 
L 3047 0 
L 2419 0 
L 2419 1100 
L 313 1100 
L 313 1709 
L 2253 4666 
z
" transform="scale(0.015625)"/>
       </defs>
       <use xlink:href="#DejaVuSans-34"/>
       <use xlink:href="#DejaVuSans-30" transform="translate(63.623047 0)"/>
      </g>
     </g>
    </g>
    <g id="xtick_4">
     <g id="line2d_7">
      <path d="M 417.677686 384.48 
L 417.677686 51.84 
" clip-path="url(#p6dbd13a019)" style="fill: none; stroke: #b0b0b0; stroke-width: 0.8; stroke-linecap: square"/>
     </g>
     <g id="line2d_8">
      <g>
       <use xlink:href="#m49faa13341" x="417.677686" y="384.48" style="stroke: #000000; stroke-width: 0.8"/>
      </g>
     </g>
     <g id="text_4">
      <!-- 60 -->
      <g transform="translate(411.315186 399.078438) scale(0.1 -0.1)">
       <defs>
        <path id="DejaVuSans-36" d="M 2113 2584 
Q 1688 2584 1439 2293 
Q 1191 2003 1191 1497 
Q 1191 994 1439 701 
Q 1688 409 2113 409 
Q 2538 409 2786 701 
Q 3034 994 3034 1497 
Q 3034 2003 2786 2293 
Q 2538 2584 2113 2584 
z
M 3366 4563 
L 3366 3988 
Q 3128 4100 2886 4159 
Q 2644 4219 2406 4219 
Q 1781 4219 1451 3797 
Q 1122 3375 1075 2522 
Q 1259 2794 1537 2939 
Q 1816 3084 2150 3084 
Q 2853 3084 3261 2657 
Q 3669 2231 3669 1497 
Q 3669 778 3244 343 
Q 2819 -91 2113 -91 
Q 1303 -91 875 529 
Q 447 1150 447 2328 
Q 447 3434 972 4092 
Q 1497 4750 2381 4750 
Q 2619 4750 2861 4703 
Q 3103 4656 3366 4563 
z
" transform="scale(0.015625)"/>
       </defs>
       <use xlink:href="#DejaVuSans-36"/>
       <use xlink:href="#DejaVuSans-30" transform="translate(63.623047 0)"/>
      </g>
     </g>
    </g>
    <g id="xtick_5">
     <g id="line2d_9">
      <path d="M 520.157025 384.48 
L 520.157025 51.84 
" clip-path="url(#p6dbd13a019)" style="fill: none; stroke: #b0b0b0; stroke-width: 0.8; stroke-linecap: square"/>
     </g>
     <g id="line2d_10">
      <g>
       <use xlink:href="#m49faa13341" x="520.157025" y="384.48" style="stroke: #000000; stroke-width: 0.8"/>
      </g>
     </g>
     <g id="text_5">
      <!-- 80 -->
      <g transform="translate(513.794525 399.078438) scale(0.1 -0.1)">
       <defs>
        <path id="DejaVuSans-38" d="M 2034 2216 
Q 1584 2216 1326 1975 
Q 1069 1734 1069 1313 
Q 1069 891 1326 650 
Q 1584 409 2034 409 
Q 2484 409 2743 651 
Q 3003 894 3003 1313 
Q 3003 1734 2745 1975 
Q 2488 2216 2034 2216 
z
M 1403 2484 
Q 997 2584 770 2862 
Q 544 3141 544 3541 
Q 544 4100 942 4425 
Q 1341 4750 2034 4750 
Q 2731 4750 3128 4425 
Q 3525 4100 3525 3541 
Q 3525 3141 3298 2862 
Q 3072 2584 2669 2484 
Q 3125 2378 3379 2068 
Q 3634 1759 3634 1313 
Q 3634 634 3220 271 
Q 2806 -91 2034 -91 
Q 1263 -91 848 271 
Q 434 634 434 1313 
Q 434 1759 690 2068 
Q 947 2378 1403 2484 
z
M 1172 3481 
Q 1172 3119 1398 2916 
Q 1625 2713 2034 2713 
Q 2441 2713 2670 2916 
Q 2900 3119 2900 3481 
Q 2900 3844 2670 4047 
Q 2441 4250 2034 4250 
Q 1625 4250 1398 4047 
Q 1172 3844 1172 3481 
z
" transform="scale(0.015625)"/>
       </defs>
       <use xlink:href="#DejaVuSans-38"/>
       <use xlink:href="#DejaVuSans-30" transform="translate(63.623047 0)"/>
      </g>
     </g>
    </g>
    <g id="xtick_6">
     <g id="line2d_11">
      <path d="M 622.636364 384.48 
L 622.636364 51.84 
" clip-path="url(#p6dbd13a019)" style="fill: none; stroke: #b0b0b0; stroke-width: 0.8; stroke-linecap: square"/>
     </g>
     <g id="line2d_12">
      <g>
       <use xlink:href="#m49faa13341" x="622.636364" y="384.48" style="stroke: #000000; stroke-width: 0.8"/>
      </g>
     </g>
     <g id="text_6">
      <!-- 100 -->
      <g transform="translate(613.092614 399.078438) scale(0.1 -0.1)">
       <defs>
        <path id="DejaVuSans-31" d="M 794 531 
L 1825 531 
L 1825 4091 
L 703 3866 
L 703 4441 
L 1819 4666 
L 2450 4666 
L 2450 531 
L 3481 531 
L 3481 0 
L 794 0 
L 794 531 
z
" transform="scale(0.015625)"/>
       </defs>
       <use xlink:href="#DejaVuSans-31"/>
       <use xlink:href="#DejaVuSans-30" transform="translate(63.623047 0)"/>
       <use xlink:href="#DejaVuSans-30" transform="translate(127.246094 0)"/>
      </g>
     </g>
    </g>
    <g id="text_7">
     <!-- Generacje -->
     <g transform="translate(343.469531 412.756563) scale(0.1 -0.1)">
      <defs>
       <path id="DejaVuSans-47" d="M 3809 666 
L 3809 1919 
L 2778 1919 
L 2778 2438 
L 4434 2438 
L 4434 434 
Q 4069 175 3628 42 
Q 3188 -91 2688 -91 
Q 1594 -91 976 548 
Q 359 1188 359 2328 
Q 359 3472 976 4111 
Q 1594 4750 2688 4750 
Q 3144 4750 3555 4637 
Q 3966 4525 4313 4306 
L 4313 3634 
Q 3963 3931 3569 4081 
Q 3175 4231 2741 4231 
Q 1884 4231 1454 3753 
Q 1025 3275 1025 2328 
Q 1025 1384 1454 906 
Q 1884 428 2741 428 
Q 3075 428 3337 486 
Q 3600 544 3809 666 
z
" transform="scale(0.015625)"/>
       <path id="DejaVuSans-65" d="M 3597 1894 
L 3597 1613 
L 953 1613 
Q 991 1019 1311 708 
Q 1631 397 2203 397 
Q 2534 397 2845 478 
Q 3156 559 3463 722 
L 3463 178 
Q 3153 47 2828 -22 
Q 2503 -91 2169 -91 
Q 1331 -91 842 396 
Q 353 884 353 1716 
Q 353 2575 817 3079 
Q 1281 3584 2069 3584 
Q 2775 3584 3186 3129 
Q 3597 2675 3597 1894 
z
M 3022 2063 
Q 3016 2534 2758 2815 
Q 2500 3097 2075 3097 
Q 1594 3097 1305 2825 
Q 1016 2553 972 2059 
L 3022 2063 
z
" transform="scale(0.015625)"/>
       <path id="DejaVuSans-6e" d="M 3513 2113 
L 3513 0 
L 2938 0 
L 2938 2094 
Q 2938 2591 2744 2837 
Q 2550 3084 2163 3084 
Q 1697 3084 1428 2787 
Q 1159 2491 1159 1978 
L 1159 0 
L 581 0 
L 581 3500 
L 1159 3500 
L 1159 2956 
Q 1366 3272 1645 3428 
Q 1925 3584 2291 3584 
Q 2894 3584 3203 3211 
Q 3513 2838 3513 2113 
z
" transform="scale(0.015625)"/>
       <path id="DejaVuSans-72" d="M 2631 2963 
Q 2534 3019 2420 3045 
Q 2306 3072 2169 3072 
Q 1681 3072 1420 2755 
Q 1159 2438 1159 1844 
L 1159 0 
L 581 0 
L 581 3500 
L 1159 3500 
L 1159 2956 
Q 1341 3275 1631 3429 
Q 1922 3584 2338 3584 
Q 2397 3584 2469 3576 
Q 2541 3569 2628 3553 
L 2631 2963 
z
" transform="scale(0.015625)"/>
       <path id="DejaVuSans-61" d="M 2194 1759 
Q 1497 1759 1228 1600 
Q 959 1441 959 1056 
Q 959 750 1161 570 
Q 1363 391 1709 391 
Q 2188 391 2477 730 
Q 2766 1069 2766 1631 
L 2766 1759 
L 2194 1759 
z
M 3341 1997 
L 3341 0 
L 2766 0 
L 2766 531 
Q 2569 213 2275 61 
Q 1981 -91 1556 -91 
Q 1019 -91 701 211 
Q 384 513 384 1019 
Q 384 1609 779 1909 
Q 1175 2209 1959 2209 
L 2766 2209 
L 2766 2266 
Q 2766 2663 2505 2880 
Q 2244 3097 1772 3097 
Q 1472 3097 1187 3025 
Q 903 2953 641 2809 
L 641 3341 
Q 956 3463 1253 3523 
Q 1550 3584 1831 3584 
Q 2591 3584 2966 3190 
Q 3341 2797 3341 1997 
z
" transform="scale(0.015625)"/>
       <path id="DejaVuSans-63" d="M 3122 3366 
L 3122 2828 
Q 2878 2963 2633 3030 
Q 2388 3097 2138 3097 
Q 1578 3097 1268 2742 
Q 959 2388 959 1747 
Q 959 1106 1268 751 
Q 1578 397 2138 397 
Q 2388 397 2633 464 
Q 2878 531 3122 666 
L 3122 134 
Q 2881 22 2623 -34 
Q 2366 -91 2075 -91 
Q 1284 -91 818 406 
Q 353 903 353 1747 
Q 353 2603 823 3093 
Q 1294 3584 2113 3584 
Q 2378 3584 2631 3529 
Q 2884 3475 3122 3366 
z
" transform="scale(0.015625)"/>
       <path id="DejaVuSans-6a" d="M 603 3500 
L 1178 3500 
L 1178 -63 
Q 1178 -731 923 -1031 
Q 669 -1331 103 -1331 
L -116 -1331 
L -116 -844 
L 38 -844 
Q 366 -844 484 -692 
Q 603 -541 603 -63 
L 603 3500 
z
M 603 4863 
L 1178 4863 
L 1178 4134 
L 603 4134 
L 603 4863 
z
" transform="scale(0.015625)"/>
      </defs>
      <use xlink:href="#DejaVuSans-47"/>
      <use xlink:href="#DejaVuSans-65" transform="translate(77.490234 0)"/>
      <use xlink:href="#DejaVuSans-6e" transform="translate(139.013672 0)"/>
      <use xlink:href="#DejaVuSans-65" transform="translate(202.392578 0)"/>
      <use xlink:href="#DejaVuSans-72" transform="translate(263.916016 0)"/>
      <use xlink:href="#DejaVuSans-61" transform="translate(305.029297 0)"/>
      <use xlink:href="#DejaVuSans-63" transform="translate(366.308594 0)"/>
      <use xlink:href="#DejaVuSans-6a" transform="translate(421.289062 0)"/>
      <use xlink:href="#DejaVuSans-65" transform="translate(449.072266 0)"/>
     </g>
    </g>
   </g>
   <g id="matplotlib.axis_2">
    <g id="ytick_1">
     <g id="line2d_13">
      <path d="M 90 335.05289 
L 648 335.05289 
" clip-path="url(#p6dbd13a019)" style="fill: none; stroke: #b0b0b0; stroke-width: 0.8; stroke-linecap: square"/>
     </g>
     <g id="line2d_14">
      <defs>
       <path id="m7ee3ea96bb" d="M 0 0 
L -3.5 0 
" style="stroke: #000000; stroke-width: 0.8"/>
      </defs>
      <g>
       <use xlink:href="#m7ee3ea96bb" x="90" y="335.05289" style="stroke: #000000; stroke-width: 0.8"/>
      </g>
     </g>
     <g id="text_8">
      <!-- −600 -->
      <g transform="translate(55.532812 338.852108) scale(0.1 -0.1)">
       <defs>
        <path id="DejaVuSans-2212" d="M 678 2272 
L 4684 2272 
L 4684 1741 
L 678 1741 
L 678 2272 
z
" transform="scale(0.015625)"/>
       </defs>
       <use xlink:href="#DejaVuSans-2212"/>
       <use xlink:href="#DejaVuSans-36" transform="translate(83.789062 0)"/>
       <use xlink:href="#DejaVuSans-30" transform="translate(147.412109 0)"/>
       <use xlink:href="#DejaVuSans-30" transform="translate(211.035156 0)"/>
      </g>
     </g>
    </g>
    <g id="ytick_2">
     <g id="line2d_15">
      <path d="M 90 283.72364 
L 648 283.72364 
" clip-path="url(#p6dbd13a019)" style="fill: none; stroke: #b0b0b0; stroke-width: 0.8; stroke-linecap: square"/>
     </g>
     <g id="line2d_16">
      <g>
       <use xlink:href="#m7ee3ea96bb" x="90" y="283.72364" style="stroke: #000000; stroke-width: 0.8"/>
      </g>
     </g>
     <g id="text_9">
      <!-- −500 -->
      <g transform="translate(55.532812 287.522859) scale(0.1 -0.1)">
       <defs>
        <path id="DejaVuSans-35" d="M 691 4666 
L 3169 4666 
L 3169 4134 
L 1269 4134 
L 1269 2991 
Q 1406 3038 1543 3061 
Q 1681 3084 1819 3084 
Q 2600 3084 3056 2656 
Q 3513 2228 3513 1497 
Q 3513 744 3044 326 
Q 2575 -91 1722 -91 
Q 1428 -91 1123 -41 
Q 819 9 494 109 
L 494 744 
Q 775 591 1075 516 
Q 1375 441 1709 441 
Q 2250 441 2565 725 
Q 2881 1009 2881 1497 
Q 2881 1984 2565 2268 
Q 2250 2553 1709 2553 
Q 1456 2553 1204 2497 
Q 953 2441 691 2322 
L 691 4666 
z
" transform="scale(0.015625)"/>
       </defs>
       <use xlink:href="#DejaVuSans-2212"/>
       <use xlink:href="#DejaVuSans-35" transform="translate(83.789062 0)"/>
       <use xlink:href="#DejaVuSans-30" transform="translate(147.412109 0)"/>
       <use xlink:href="#DejaVuSans-30" transform="translate(211.035156 0)"/>
      </g>
     </g>
    </g>
    <g id="ytick_3">
     <g id="line2d_17">
      <path d="M 90 232.39439 
L 648 232.39439 
" clip-path="url(#p6dbd13a019)" style="fill: none; stroke: #b0b0b0; stroke-width: 0.8; stroke-linecap: square"/>
     </g>
     <g id="line2d_18">
      <g>
       <use xlink:href="#m7ee3ea96bb" x="90" y="232.39439" style="stroke: #000000; stroke-width: 0.8"/>
      </g>
     </g>
     <g id="text_10">
      <!-- −400 -->
      <g transform="translate(55.532812 236.193609) scale(0.1 -0.1)">
       <use xlink:href="#DejaVuSans-2212"/>
       <use xlink:href="#DejaVuSans-34" transform="translate(83.789062 0)"/>
       <use xlink:href="#DejaVuSans-30" transform="translate(147.412109 0)"/>
       <use xlink:href="#DejaVuSans-30" transform="translate(211.035156 0)"/>
      </g>
     </g>
    </g>
    <g id="ytick_4">
     <g id="line2d_19">
      <path d="M 90 181.06514 
L 648 181.06514 
" clip-path="url(#p6dbd13a019)" style="fill: none; stroke: #b0b0b0; stroke-width: 0.8; stroke-linecap: square"/>
     </g>
     <g id="line2d_20">
      <g>
       <use xlink:href="#m7ee3ea96bb" x="90" y="181.06514" style="stroke: #000000; stroke-width: 0.8"/>
      </g>
     </g>
     <g id="text_11">
      <!-- −300 -->
      <g transform="translate(55.532812 184.864359) scale(0.1 -0.1)">
       <defs>
        <path id="DejaVuSans-33" d="M 2597 2516 
Q 3050 2419 3304 2112 
Q 3559 1806 3559 1356 
Q 3559 666 3084 287 
Q 2609 -91 1734 -91 
Q 1441 -91 1130 -33 
Q 819 25 488 141 
L 488 750 
Q 750 597 1062 519 
Q 1375 441 1716 441 
Q 2309 441 2620 675 
Q 2931 909 2931 1356 
Q 2931 1769 2642 2001 
Q 2353 2234 1838 2234 
L 1294 2234 
L 1294 2753 
L 1863 2753 
Q 2328 2753 2575 2939 
Q 2822 3125 2822 3475 
Q 2822 3834 2567 4026 
Q 2313 4219 1838 4219 
Q 1578 4219 1281 4162 
Q 984 4106 628 3988 
L 628 4550 
Q 988 4650 1302 4700 
Q 1616 4750 1894 4750 
Q 2613 4750 3031 4423 
Q 3450 4097 3450 3541 
Q 3450 3153 3228 2886 
Q 3006 2619 2597 2516 
z
" transform="scale(0.015625)"/>
       </defs>
       <use xlink:href="#DejaVuSans-2212"/>
       <use xlink:href="#DejaVuSans-33" transform="translate(83.789062 0)"/>
       <use xlink:href="#DejaVuSans-30" transform="translate(147.412109 0)"/>
       <use xlink:href="#DejaVuSans-30" transform="translate(211.035156 0)"/>
      </g>
     </g>
    </g>
    <g id="ytick_5">
     <g id="line2d_21">
      <path d="M 90 129.73589 
L 648 129.73589 
" clip-path="url(#p6dbd13a019)" style="fill: none; stroke: #b0b0b0; stroke-width: 0.8; stroke-linecap: square"/>
     </g>
     <g id="line2d_22">
      <g>
       <use xlink:href="#m7ee3ea96bb" x="90" y="129.73589" style="stroke: #000000; stroke-width: 0.8"/>
      </g>
     </g>
     <g id="text_12">
      <!-- −200 -->
      <g transform="translate(55.532812 133.535109) scale(0.1 -0.1)">
       <use xlink:href="#DejaVuSans-2212"/>
       <use xlink:href="#DejaVuSans-32" transform="translate(83.789062 0)"/>
       <use xlink:href="#DejaVuSans-30" transform="translate(147.412109 0)"/>
       <use xlink:href="#DejaVuSans-30" transform="translate(211.035156 0)"/>
      </g>
     </g>
    </g>
    <g id="ytick_6">
     <g id="line2d_23">
      <path d="M 90 78.406641 
L 648 78.406641 
" clip-path="url(#p6dbd13a019)" style="fill: none; stroke: #b0b0b0; stroke-width: 0.8; stroke-linecap: square"/>
     </g>
     <g id="line2d_24">
      <g>
       <use xlink:href="#m7ee3ea96bb" x="90" y="78.406641" style="stroke: #000000; stroke-width: 0.8"/>
      </g>
     </g>
     <g id="text_13">
      <!-- −100 -->
      <g transform="translate(55.532812 82.205859) scale(0.1 -0.1)">
       <use xlink:href="#DejaVuSans-2212"/>
       <use xlink:href="#DejaVuSans-31" transform="translate(83.789062 0)"/>
       <use xlink:href="#DejaVuSans-30" transform="translate(147.412109 0)"/>
       <use xlink:href="#DejaVuSans-30" transform="translate(211.035156 0)"/>
      </g>
     </g>
    </g>
    <g id="text_14">
     <!-- Fitness -->
     <g transform="translate(49.453125 235.477187) rotate(-90) scale(0.1 -0.1)">
      <defs>
       <path id="DejaVuSans-46" d="M 628 4666 
L 3309 4666 
L 3309 4134 
L 1259 4134 
L 1259 2759 
L 3109 2759 
L 3109 2228 
L 1259 2228 
L 1259 0 
L 628 0 
L 628 4666 
z
" transform="scale(0.015625)"/>
       <path id="DejaVuSans-69" d="M 603 3500 
L 1178 3500 
L 1178 0 
L 603 0 
L 603 3500 
z
M 603 4863 
L 1178 4863 
L 1178 4134 
L 603 4134 
L 603 4863 
z
" transform="scale(0.015625)"/>
       <path id="DejaVuSans-74" d="M 1172 4494 
L 1172 3500 
L 2356 3500 
L 2356 3053 
L 1172 3053 
L 1172 1153 
Q 1172 725 1289 603 
Q 1406 481 1766 481 
L 2356 481 
L 2356 0 
L 1766 0 
Q 1100 0 847 248 
Q 594 497 594 1153 
L 594 3053 
L 172 3053 
L 172 3500 
L 594 3500 
L 594 4494 
L 1172 4494 
z
" transform="scale(0.015625)"/>
       <path id="DejaVuSans-73" d="M 2834 3397 
L 2834 2853 
Q 2591 2978 2328 3040 
Q 2066 3103 1784 3103 
Q 1356 3103 1142 2972 
Q 928 2841 928 2578 
Q 928 2378 1081 2264 
Q 1234 2150 1697 2047 
L 1894 2003 
Q 2506 1872 2764 1633 
Q 3022 1394 3022 966 
Q 3022 478 2636 193 
Q 2250 -91 1575 -91 
Q 1294 -91 989 -36 
Q 684 19 347 128 
L 347 722 
Q 666 556 975 473 
Q 1284 391 1588 391 
Q 1994 391 2212 530 
Q 2431 669 2431 922 
Q 2431 1156 2273 1281 
Q 2116 1406 1581 1522 
L 1381 1569 
Q 847 1681 609 1914 
Q 372 2147 372 2553 
Q 372 3047 722 3315 
Q 1072 3584 1716 3584 
Q 2034 3584 2315 3537 
Q 2597 3491 2834 3397 
z
" transform="scale(0.015625)"/>
      </defs>
      <use xlink:href="#DejaVuSans-46"/>
      <use xlink:href="#DejaVuSans-69" transform="translate(50.269531 0)"/>
      <use xlink:href="#DejaVuSans-74" transform="translate(78.052734 0)"/>
      <use xlink:href="#DejaVuSans-6e" transform="translate(117.261719 0)"/>
      <use xlink:href="#DejaVuSans-65" transform="translate(180.640625 0)"/>
      <use xlink:href="#DejaVuSans-73" transform="translate(242.164062 0)"/>
      <use xlink:href="#DejaVuSans-73" transform="translate(294.263672 0)"/>
     </g>
    </g>
   </g>
   <g id="line2d_25">
    <path d="M 115.363636 96.748083 
L 120.487603 88.04411 
L 125.61157 90.225677 
L 130.735537 85.483957 
L 135.859504 88.472423 
L 140.983471 87.18662 
L 146.107438 83.479744 
L 151.231405 84.223349 
L 156.355372 82.573714 
L 161.479339 82.307884 
L 166.603306 82.013403 
L 171.727273 81.849763 
L 176.85124 80.50833 
L 181.975207 80.890182 
L 187.099174 79.838374 
L 192.22314 79.501581 
L 197.347107 79.824672 
L 202.471074 80.913013 
L 207.595041 78.616982 
L 212.719008 79.200396 
L 217.842975 79.825131 
L 222.966942 79.571343 
L 228.090909 79.864353 
L 233.214876 79.135595 
L 238.338843 79.23155 
L 243.46281 80.928251 
L 248.586777 78.904632 
L 253.710744 79.21297 
L 258.834711 79.445428 
L 263.958678 77.822219 
L 269.082645 77.711392 
L 274.206612 78.841958 
L 279.330579 79.557838 
L 284.454545 80.139205 
L 289.578512 77.229276 
L 294.702479 78.977228 
L 299.826446 80.913879 
L 304.950413 79.119236 
L 310.07438 77.855184 
L 315.198347 77.21788 
L 320.322314 78.946238 
L 325.446281 80.384237 
L 330.570248 79.364471 
L 335.694215 79.841291 
L 340.818182 78.796166 
L 345.942149 79.023264 
L 351.066116 79.296318 
L 356.190083 77.953135 
L 361.31405 77.931431 
L 366.438017 79.61423 
L 371.561983 79.218265 
L 376.68595 76.767532 
L 381.809917 78.74788 
L 386.933884 77.587413 
L 392.057851 77.489762 
L 397.181818 79.096276 
L 402.305785 78.765901 
L 407.429752 79.12392 
L 412.553719 78.226297 
L 417.677686 76.600851 
L 422.801653 78.163869 
L 427.92562 76.320672 
L 433.049587 75.348581 
L 438.173554 80.056308 
L 443.297521 77.727502 
L 448.421488 76.937214 
L 453.545455 78.260767 
L 458.669421 80.399536 
L 463.793388 75.971339 
L 468.917355 76.86489 
L 474.041322 76.787458 
L 479.165289 78.851777 
L 484.289256 78.489121 
L 489.413223 75.290949 
L 494.53719 77.954731 
L 499.661157 79.147895 
L 504.785124 78.158397 
L 509.909091 77.627579 
L 515.033058 77.949101 
L 520.157025 78.816724 
L 525.280992 77.54079 
L 530.404959 76.788578 
L 535.528926 80.73094 
L 540.652893 79.181179 
L 545.77686 77.182367 
L 550.900826 78.55466 
L 556.024793 78.902617 
L 561.14876 76.915717 
L 566.272727 76.373074 
L 571.396694 77.689528 
L 576.520661 78.276316 
L 581.644628 78.40272 
L 586.768595 76.919357 
L 591.892562 77.163263 
L 597.016529 78.871694 
L 602.140496 77.490002 
L 607.264463 79.366935 
L 612.38843 77.168853 
L 617.512397 77.560632 
L 622.636364 76.910789 
" clip-path="url(#p6dbd13a019)" style="fill: none; stroke: #ff0000; stroke-width: 1.5; stroke-linecap: square"/>
   </g>
   <g id="line2d_26">
    <path d="M 115.363636 369.36 
L 120.487603 327.550621 
L 125.61157 311.299808 
L 130.735537 291.890111 
L 135.859504 278.347936 
L 140.983471 268.259982 
L 146.107438 253.393333 
L 151.231405 240.853598 
L 156.355372 225.06299 
L 161.479339 218.718306 
L 166.603306 213.987226 
L 171.727273 199.763474 
L 176.85124 196.981166 
L 181.975207 189.147755 
L 187.099174 185.376046 
L 192.22314 180.03827 
L 197.347107 177.462804 
L 202.471074 163.274178 
L 207.595041 163.886891 
L 212.719008 162.114803 
L 217.842975 157.489175 
L 222.966942 157.837097 
L 228.090909 157.972888 
L 233.214876 162.2179 
L 238.338843 154.971454 
L 243.46281 157.037354 
L 248.586777 155.43954 
L 253.710744 153.333032 
L 258.834711 152.604982 
L 263.958678 148.070208 
L 269.082645 149.453322 
L 274.206612 148.614598 
L 279.330579 150.737472 
L 284.454545 147.091398 
L 289.578512 142.561069 
L 294.702479 145.020776 
L 299.826446 140.16845 
L 304.950413 141.034848 
L 310.07438 141.529506 
L 315.198347 139.957072 
L 320.322314 138.787389 
L 325.446281 141.860755 
L 330.570248 139.133713 
L 335.694215 140.248522 
L 340.818182 140.033247 
L 345.942149 142.515108 
L 351.066116 140.285015 
L 356.190083 140.889721 
L 361.31405 138.874999 
L 366.438017 137.884904 
L 371.561983 136.628541 
L 376.68595 136.902761 
L 381.809917 136.366186 
L 386.933884 133.948234 
L 392.057851 135.953283 
L 397.181818 137.965214 
L 402.305785 134.69247 
L 407.429752 133.703296 
L 412.553719 133.987091 
L 417.677686 133.098831 
L 422.801653 135.811922 
L 427.92562 133.885997 
L 433.049587 132.720793 
L 438.173554 134.958087 
L 443.297521 134.043821 
L 448.421488 132.417003 
L 453.545455 132.710426 
L 458.669421 132.192788 
L 463.793388 131.600941 
L 468.917355 133.14763 
L 474.041322 132.603587 
L 479.165289 133.105434 
L 484.289256 131.407474 
L 489.413223 130.20343 
L 494.53719 131.335274 
L 499.661157 130.71948 
L 504.785124 129.331803 
L 509.909091 131.767437 
L 515.033058 132.290085 
L 520.157025 131.82893 
L 525.280992 130.386242 
L 530.404959 132.574594 
L 535.528926 129.4788 
L 540.652893 129.564043 
L 545.77686 129.316166 
L 550.900826 130.41981 
L 556.024793 129.426443 
L 561.14876 127.677787 
L 566.272727 128.174998 
L 571.396694 128.309684 
L 576.520661 129.252158 
L 581.644628 129.164575 
L 586.768595 128.901056 
L 591.892562 130.033598 
L 597.016529 129.21967 
L 602.140496 128.379746 
L 607.264463 127.551727 
L 612.38843 126.558952 
L 617.512397 127.106627 
L 622.636364 128.855444 
" clip-path="url(#p6dbd13a019)" style="fill: none; stroke: #0000ff; stroke-width: 1.5; stroke-linecap: square"/>
   </g>
   <g id="patch_3">
    <path d="M 90 384.48 
L 90 51.84 
" style="fill: none; stroke: #000000; stroke-width: 0.8; stroke-linejoin: miter; stroke-linecap: square"/>
   </g>
   <g id="patch_4">
    <path d="M 648 384.48 
L 648 51.84 
" style="fill: none; stroke: #000000; stroke-width: 0.8; stroke-linejoin: miter; stroke-linecap: square"/>
   </g>
   <g id="patch_5">
    <path d="M 90 384.48 
L 648 384.48 
" style="fill: none; stroke: #000000; stroke-width: 0.8; stroke-linejoin: miter; stroke-linecap: square"/>
   </g>
   <g id="patch_6">
    <path d="M 90 51.84 
L 648 51.84 
" style="fill: none; stroke: #000000; stroke-width: 0.8; stroke-linejoin: miter; stroke-linecap: square"/>
   </g>
   <g id="text_15">
    <!-- Zagregowane statystyki z 20 niezależnych ewolucji -->
    <g transform="translate(214.952812 45.84) scale(0.12 -0.12)">
     <defs>
      <path id="DejaVuSans-5a" d="M 359 4666 
L 4025 4666 
L 4025 4184 
L 1075 531 
L 4097 531 
L 4097 0 
L 288 0 
L 288 481 
L 3238 4134 
L 359 4134 
L 359 4666 
z
" transform="scale(0.015625)"/>
      <path id="DejaVuSans-67" d="M 2906 1791 
Q 2906 2416 2648 2759 
Q 2391 3103 1925 3103 
Q 1463 3103 1205 2759 
Q 947 2416 947 1791 
Q 947 1169 1205 825 
Q 1463 481 1925 481 
Q 2391 481 2648 825 
Q 2906 1169 2906 1791 
z
M 3481 434 
Q 3481 -459 3084 -895 
Q 2688 -1331 1869 -1331 
Q 1566 -1331 1297 -1286 
Q 1028 -1241 775 -1147 
L 775 -588 
Q 1028 -725 1275 -790 
Q 1522 -856 1778 -856 
Q 2344 -856 2625 -561 
Q 2906 -266 2906 331 
L 2906 616 
Q 2728 306 2450 153 
Q 2172 0 1784 0 
Q 1141 0 747 490 
Q 353 981 353 1791 
Q 353 2603 747 3093 
Q 1141 3584 1784 3584 
Q 2172 3584 2450 3431 
Q 2728 3278 2906 2969 
L 2906 3500 
L 3481 3500 
L 3481 434 
z
" transform="scale(0.015625)"/>
      <path id="DejaVuSans-6f" d="M 1959 3097 
Q 1497 3097 1228 2736 
Q 959 2375 959 1747 
Q 959 1119 1226 758 
Q 1494 397 1959 397 
Q 2419 397 2687 759 
Q 2956 1122 2956 1747 
Q 2956 2369 2687 2733 
Q 2419 3097 1959 3097 
z
M 1959 3584 
Q 2709 3584 3137 3096 
Q 3566 2609 3566 1747 
Q 3566 888 3137 398 
Q 2709 -91 1959 -91 
Q 1206 -91 779 398 
Q 353 888 353 1747 
Q 353 2609 779 3096 
Q 1206 3584 1959 3584 
z
" transform="scale(0.015625)"/>
      <path id="DejaVuSans-77" d="M 269 3500 
L 844 3500 
L 1563 769 
L 2278 3500 
L 2956 3500 
L 3675 769 
L 4391 3500 
L 4966 3500 
L 4050 0 
L 3372 0 
L 2619 2869 
L 1863 0 
L 1184 0 
L 269 3500 
z
" transform="scale(0.015625)"/>
      <path id="DejaVuSans-20" transform="scale(0.015625)"/>
      <path id="DejaVuSans-79" d="M 2059 -325 
Q 1816 -950 1584 -1140 
Q 1353 -1331 966 -1331 
L 506 -1331 
L 506 -850 
L 844 -850 
Q 1081 -850 1212 -737 
Q 1344 -625 1503 -206 
L 1606 56 
L 191 3500 
L 800 3500 
L 1894 763 
L 2988 3500 
L 3597 3500 
L 2059 -325 
z
" transform="scale(0.015625)"/>
      <path id="DejaVuSans-6b" d="M 581 4863 
L 1159 4863 
L 1159 1991 
L 2875 3500 
L 3609 3500 
L 1753 1863 
L 3688 0 
L 2938 0 
L 1159 1709 
L 1159 0 
L 581 0 
L 581 4863 
z
" transform="scale(0.015625)"/>
      <path id="DejaVuSans-7a" d="M 353 3500 
L 3084 3500 
L 3084 2975 
L 922 459 
L 3084 459 
L 3084 0 
L 275 0 
L 275 525 
L 2438 3041 
L 353 3041 
L 353 3500 
z
" transform="scale(0.015625)"/>
      <path id="DejaVuSans-6c" d="M 603 4863 
L 1178 4863 
L 1178 0 
L 603 0 
L 603 4863 
z
" transform="scale(0.015625)"/>
      <path id="DejaVuSans-17c" d="M 1378 4863 
L 1953 4863 
L 1953 4134 
L 1378 4134 
L 1378 4863 
z
M 1672 3584 
L 1672 3584 
z
M 353 3500 
L 3084 3500 
L 3084 2975 
L 922 459 
L 3084 459 
L 3084 0 
L 275 0 
L 275 525 
L 2438 3041 
L 353 3041 
L 353 3500 
z
" transform="scale(0.015625)"/>
      <path id="DejaVuSans-68" d="M 3513 2113 
L 3513 0 
L 2938 0 
L 2938 2094 
Q 2938 2591 2744 2837 
Q 2550 3084 2163 3084 
Q 1697 3084 1428 2787 
Q 1159 2491 1159 1978 
L 1159 0 
L 581 0 
L 581 4863 
L 1159 4863 
L 1159 2956 
Q 1366 3272 1645 3428 
Q 1925 3584 2291 3584 
Q 2894 3584 3203 3211 
Q 3513 2838 3513 2113 
z
" transform="scale(0.015625)"/>
      <path id="DejaVuSans-75" d="M 544 1381 
L 544 3500 
L 1119 3500 
L 1119 1403 
Q 1119 906 1312 657 
Q 1506 409 1894 409 
Q 2359 409 2629 706 
Q 2900 1003 2900 1516 
L 2900 3500 
L 3475 3500 
L 3475 0 
L 2900 0 
L 2900 538 
Q 2691 219 2414 64 
Q 2138 -91 1772 -91 
Q 1169 -91 856 284 
Q 544 659 544 1381 
z
M 1991 3584 
L 1991 3584 
z
" transform="scale(0.015625)"/>
     </defs>
     <use xlink:href="#DejaVuSans-5a"/>
     <use xlink:href="#DejaVuSans-61" transform="translate(68.505859 0)"/>
     <use xlink:href="#DejaVuSans-67" transform="translate(129.785156 0)"/>
     <use xlink:href="#DejaVuSans-72" transform="translate(193.261719 0)"/>
     <use xlink:href="#DejaVuSans-65" transform="translate(232.125 0)"/>
     <use xlink:href="#DejaVuSans-67" transform="translate(293.648438 0)"/>
     <use xlink:href="#DejaVuSans-6f" transform="translate(357.125 0)"/>
     <use xlink:href="#DejaVuSans-77" transform="translate(418.306641 0)"/>
     <use xlink:href="#DejaVuSans-61" transform="translate(500.09375 0)"/>
     <use xlink:href="#DejaVuSans-6e" transform="translate(561.373047 0)"/>
     <use xlink:href="#DejaVuSans-65" transform="translate(624.751953 0)"/>
     <use xlink:href="#DejaVuSans-20" transform="translate(686.275391 0)"/>
     <use xlink:href="#DejaVuSans-73" transform="translate(718.0625 0)"/>
     <use xlink:href="#DejaVuSans-74" transform="translate(770.162109 0)"/>
     <use xlink:href="#DejaVuSans-61" transform="translate(809.371094 0)"/>
     <use xlink:href="#DejaVuSans-74" transform="translate(870.650391 0)"/>
     <use xlink:href="#DejaVuSans-79" transform="translate(909.859375 0)"/>
     <use xlink:href="#DejaVuSans-73" transform="translate(969.039062 0)"/>
     <use xlink:href="#DejaVuSans-74" transform="translate(1021.138672 0)"/>
     <use xlink:href="#DejaVuSans-79" transform="translate(1060.347656 0)"/>
     <use xlink:href="#DejaVuSans-6b" transform="translate(1119.527344 0)"/>
     <use xlink:href="#DejaVuSans-69" transform="translate(1177.4375 0)"/>
     <use xlink:href="#DejaVuSans-20" transform="translate(1205.220703 0)"/>
     <use xlink:href="#DejaVuSans-7a" transform="translate(1237.007812 0)"/>
     <use xlink:href="#DejaVuSans-20" transform="translate(1289.498047 0)"/>
     <use xlink:href="#DejaVuSans-32" transform="translate(1321.285156 0)"/>
     <use xlink:href="#DejaVuSans-30" transform="translate(1384.908203 0)"/>
     <use xlink:href="#DejaVuSans-20" transform="translate(1448.53125 0)"/>
     <use xlink:href="#DejaVuSans-6e" transform="translate(1480.318359 0)"/>
     <use xlink:href="#DejaVuSans-69" transform="translate(1543.697266 0)"/>
     <use xlink:href="#DejaVuSans-65" transform="translate(1571.480469 0)"/>
     <use xlink:href="#DejaVuSans-7a" transform="translate(1633.003906 0)"/>
     <use xlink:href="#DejaVuSans-61" transform="translate(1685.494141 0)"/>
     <use xlink:href="#DejaVuSans-6c" transform="translate(1746.773438 0)"/>
     <use xlink:href="#DejaVuSans-65" transform="translate(1774.556641 0)"/>
     <use xlink:href="#DejaVuSans-17c" transform="translate(1836.080078 0)"/>
     <use xlink:href="#DejaVuSans-6e" transform="translate(1888.570312 0)"/>
     <use xlink:href="#DejaVuSans-79" transform="translate(1951.949219 0)"/>
     <use xlink:href="#DejaVuSans-63" transform="translate(2011.128906 0)"/>
     <use xlink:href="#DejaVuSans-68" transform="translate(2066.109375 0)"/>
     <use xlink:href="#DejaVuSans-20" transform="translate(2129.488281 0)"/>
     <use xlink:href="#DejaVuSans-65" transform="translate(2161.275391 0)"/>
     <use xlink:href="#DejaVuSans-77" transform="translate(2222.798828 0)"/>
     <use xlink:href="#DejaVuSans-6f" transform="translate(2304.585938 0)"/>
     <use xlink:href="#DejaVuSans-6c" transform="translate(2365.767578 0)"/>
     <use xlink:href="#DejaVuSans-75" transform="translate(2393.550781 0)"/>
     <use xlink:href="#DejaVuSans-63" transform="translate(2456.929688 0)"/>
     <use xlink:href="#DejaVuSans-6a" transform="translate(2511.910156 0)"/>
     <use xlink:href="#DejaVuSans-69" transform="translate(2539.693359 0)"/>
    </g>
   </g>
   <g id="legend_1">
    <g id="patch_7">
     <path d="M 379.426562 379.48 
L 641 379.48 
Q 643 379.48 643 377.48 
L 643 330.739375 
Q 643 328.739375 641 328.739375 
L 379.426562 328.739375 
Q 377.426562 328.739375 377.426562 330.739375 
L 377.426562 377.48 
Q 377.426562 379.48 379.426562 379.48 
z
" style="fill: #ffffff; opacity: 0.8; stroke: #cccccc; stroke-linejoin: miter"/>
    </g>
    <g id="line2d_27">
     <path d="M 381.426562 338.490937 
L 391.426562 338.490937 
L 401.426562 338.490937 
" style="fill: none; stroke: #ff0000; stroke-width: 1.5; stroke-linecap: square"/>
    </g>
    <g id="text_16">
     <!-- Średnie przystosowanie najlepszego osobnika -->
     <g transform="translate(409.426562 341.990937) scale(0.1 -0.1)">
      <defs>
       <path id="DejaVuSans-15a" d="M 2236 5921 
L 2814 5921 
L 2102 5096 
L 1623 5096 
L 2236 5921 
z
M 3425 4513 
L 3425 3897 
Q 3066 4069 2747 4153 
Q 2428 4238 2131 4238 
Q 1616 4238 1336 4038 
Q 1056 3838 1056 3469 
Q 1056 3159 1242 3001 
Q 1428 2844 1947 2747 
L 2328 2669 
Q 3034 2534 3370 2195 
Q 3706 1856 3706 1288 
Q 3706 609 3251 259 
Q 2797 -91 1919 -91 
Q 1588 -91 1214 -16 
Q 841 59 441 206 
L 441 856 
Q 825 641 1194 531 
Q 1563 422 1919 422 
Q 2459 422 2753 634 
Q 3047 847 3047 1241 
Q 3047 1584 2836 1778 
Q 2625 1972 2144 2069 
L 1759 2144 
Q 1053 2284 737 2584 
Q 422 2884 422 3419 
Q 422 4038 858 4394 
Q 1294 4750 2059 4750 
Q 2388 4750 2728 4690 
Q 3069 4631 3425 4513 
z
" transform="scale(0.015625)"/>
       <path id="DejaVuSans-64" d="M 2906 2969 
L 2906 4863 
L 3481 4863 
L 3481 0 
L 2906 0 
L 2906 525 
Q 2725 213 2448 61 
Q 2172 -91 1784 -91 
Q 1150 -91 751 415 
Q 353 922 353 1747 
Q 353 2572 751 3078 
Q 1150 3584 1784 3584 
Q 2172 3584 2448 3432 
Q 2725 3281 2906 2969 
z
M 947 1747 
Q 947 1113 1208 752 
Q 1469 391 1925 391 
Q 2381 391 2643 752 
Q 2906 1113 2906 1747 
Q 2906 2381 2643 2742 
Q 2381 3103 1925 3103 
Q 1469 3103 1208 2742 
Q 947 2381 947 1747 
z
" transform="scale(0.015625)"/>
       <path id="DejaVuSans-70" d="M 1159 525 
L 1159 -1331 
L 581 -1331 
L 581 3500 
L 1159 3500 
L 1159 2969 
Q 1341 3281 1617 3432 
Q 1894 3584 2278 3584 
Q 2916 3584 3314 3078 
Q 3713 2572 3713 1747 
Q 3713 922 3314 415 
Q 2916 -91 2278 -91 
Q 1894 -91 1617 61 
Q 1341 213 1159 525 
z
M 3116 1747 
Q 3116 2381 2855 2742 
Q 2594 3103 2138 3103 
Q 1681 3103 1420 2742 
Q 1159 2381 1159 1747 
Q 1159 1113 1420 752 
Q 1681 391 2138 391 
Q 2594 391 2855 752 
Q 3116 1113 3116 1747 
z
" transform="scale(0.015625)"/>
       <path id="DejaVuSans-62" d="M 3116 1747 
Q 3116 2381 2855 2742 
Q 2594 3103 2138 3103 
Q 1681 3103 1420 2742 
Q 1159 2381 1159 1747 
Q 1159 1113 1420 752 
Q 1681 391 2138 391 
Q 2594 391 2855 752 
Q 3116 1113 3116 1747 
z
M 1159 2969 
Q 1341 3281 1617 3432 
Q 1894 3584 2278 3584 
Q 2916 3584 3314 3078 
Q 3713 2572 3713 1747 
Q 3713 922 3314 415 
Q 2916 -91 2278 -91 
Q 1894 -91 1617 61 
Q 1341 213 1159 525 
L 1159 0 
L 581 0 
L 581 4863 
L 1159 4863 
L 1159 2969 
z
" transform="scale(0.015625)"/>
      </defs>
      <use xlink:href="#DejaVuSans-15a"/>
      <use xlink:href="#DejaVuSans-72" transform="translate(63.476562 0)"/>
      <use xlink:href="#DejaVuSans-65" transform="translate(102.339844 0)"/>
      <use xlink:href="#DejaVuSans-64" transform="translate(163.863281 0)"/>
      <use xlink:href="#DejaVuSans-6e" transform="translate(227.339844 0)"/>
      <use xlink:href="#DejaVuSans-69" transform="translate(290.71875 0)"/>
      <use xlink:href="#DejaVuSans-65" transform="translate(318.501953 0)"/>
      <use xlink:href="#DejaVuSans-20" transform="translate(380.025391 0)"/>
      <use xlink:href="#DejaVuSans-70" transform="translate(411.8125 0)"/>
      <use xlink:href="#DejaVuSans-72" transform="translate(475.289062 0)"/>
      <use xlink:href="#DejaVuSans-7a" transform="translate(516.402344 0)"/>
      <use xlink:href="#DejaVuSans-79" transform="translate(568.892578 0)"/>
      <use xlink:href="#DejaVuSans-73" transform="translate(628.072266 0)"/>
      <use xlink:href="#DejaVuSans-74" transform="translate(680.171875 0)"/>
      <use xlink:href="#DejaVuSans-6f" transform="translate(719.380859 0)"/>
      <use xlink:href="#DejaVuSans-73" transform="translate(780.5625 0)"/>
      <use xlink:href="#DejaVuSans-6f" transform="translate(832.662109 0)"/>
      <use xlink:href="#DejaVuSans-77" transform="translate(893.84375 0)"/>
      <use xlink:href="#DejaVuSans-61" transform="translate(975.630859 0)"/>
      <use xlink:href="#DejaVuSans-6e" transform="translate(1036.910156 0)"/>
      <use xlink:href="#DejaVuSans-69" transform="translate(1100.289062 0)"/>
      <use xlink:href="#DejaVuSans-65" transform="translate(1128.072266 0)"/>
      <use xlink:href="#DejaVuSans-20" transform="translate(1189.595703 0)"/>
      <use xlink:href="#DejaVuSans-6e" transform="translate(1221.382812 0)"/>
      <use xlink:href="#DejaVuSans-61" transform="translate(1284.761719 0)"/>
      <use xlink:href="#DejaVuSans-6a" transform="translate(1346.041016 0)"/>
      <use xlink:href="#DejaVuSans-6c" transform="translate(1373.824219 0)"/>
      <use xlink:href="#DejaVuSans-65" transform="translate(1401.607422 0)"/>
      <use xlink:href="#DejaVuSans-70" transform="translate(1463.130859 0)"/>
      <use xlink:href="#DejaVuSans-73" transform="translate(1526.607422 0)"/>
      <use xlink:href="#DejaVuSans-7a" transform="translate(1578.707031 0)"/>
      <use xlink:href="#DejaVuSans-65" transform="translate(1631.197266 0)"/>
      <use xlink:href="#DejaVuSans-67" transform="translate(1692.720703 0)"/>
      <use xlink:href="#DejaVuSans-6f" transform="translate(1756.197266 0)"/>
      <use xlink:href="#DejaVuSans-20" transform="translate(1817.378906 0)"/>
      <use xlink:href="#DejaVuSans-6f" transform="translate(1849.166016 0)"/>
      <use xlink:href="#DejaVuSans-73" transform="translate(1910.347656 0)"/>
      <use xlink:href="#DejaVuSans-6f" transform="translate(1962.447266 0)"/>
      <use xlink:href="#DejaVuSans-62" transform="translate(2023.628906 0)"/>
      <use xlink:href="#DejaVuSans-6e" transform="translate(2087.105469 0)"/>
      <use xlink:href="#DejaVuSans-69" transform="translate(2150.484375 0)"/>
      <use xlink:href="#DejaVuSans-6b" transform="translate(2178.267578 0)"/>
      <use xlink:href="#DejaVuSans-61" transform="translate(2234.427734 0)"/>
     </g>
    </g>
    <g id="patch_8">
     <path d="M 381.426562 357.069062 
L 401.426562 357.069062 
L 401.426562 350.069062 
L 381.426562 350.069062 
z
" style="fill: #ff0000; fill-opacity: 0.2; stroke: #ff0000; stroke-opacity: 0.2; stroke-linejoin: miter"/>
    </g>
    <g id="text_17">
     <!-- ±1 Odchylenie std. najlepszych osobników -->
     <g transform="translate(409.426562 357.069062) scale(0.1 -0.1)">
      <defs>
       <path id="DejaVuSans-b1" d="M 2944 4013 
L 2944 2803 
L 4684 2803 
L 4684 2272 
L 2944 2272 
L 2944 1063 
L 2419 1063 
L 2419 2272 
L 678 2272 
L 678 2803 
L 2419 2803 
L 2419 4013 
L 2944 4013 
z
M 678 531 
L 4684 531 
L 4684 0 
L 678 0 
L 678 531 
z
" transform="scale(0.015625)"/>
       <path id="DejaVuSans-4f" d="M 2522 4238 
Q 1834 4238 1429 3725 
Q 1025 3213 1025 2328 
Q 1025 1447 1429 934 
Q 1834 422 2522 422 
Q 3209 422 3611 934 
Q 4013 1447 4013 2328 
Q 4013 3213 3611 3725 
Q 3209 4238 2522 4238 
z
M 2522 4750 
Q 3503 4750 4090 4092 
Q 4678 3434 4678 2328 
Q 4678 1225 4090 567 
Q 3503 -91 2522 -91 
Q 1538 -91 948 565 
Q 359 1222 359 2328 
Q 359 3434 948 4092 
Q 1538 4750 2522 4750 
z
" transform="scale(0.015625)"/>
       <path id="DejaVuSans-2e" d="M 684 794 
L 1344 794 
L 1344 0 
L 684 0 
L 684 794 
z
" transform="scale(0.015625)"/>
       <path id="DejaVuSans-f3" d="M 1959 3097 
Q 1497 3097 1228 2736 
Q 959 2375 959 1747 
Q 959 1119 1226 758 
Q 1494 397 1959 397 
Q 2419 397 2687 759 
Q 2956 1122 2956 1747 
Q 2956 2369 2687 2733 
Q 2419 3097 1959 3097 
z
M 1959 3584 
Q 2709 3584 3137 3096 
Q 3566 2609 3566 1747 
Q 3566 888 3137 398 
Q 2709 -91 1959 -91 
Q 1206 -91 779 398 
Q 353 888 353 1747 
Q 353 2609 779 3096 
Q 1206 3584 1959 3584 
z
M 2394 5119 
L 3016 5119 
L 1998 3944 
L 1519 3944 
L 2394 5119 
z
" transform="scale(0.015625)"/>
      </defs>
      <use xlink:href="#DejaVuSans-b1"/>
      <use xlink:href="#DejaVuSans-31" transform="translate(83.789062 0)"/>
      <use xlink:href="#DejaVuSans-20" transform="translate(147.412109 0)"/>
      <use xlink:href="#DejaVuSans-4f" transform="translate(179.199219 0)"/>
      <use xlink:href="#DejaVuSans-64" transform="translate(257.910156 0)"/>
      <use xlink:href="#DejaVuSans-63" transform="translate(321.386719 0)"/>
      <use xlink:href="#DejaVuSans-68" transform="translate(376.367188 0)"/>
      <use xlink:href="#DejaVuSans-79" transform="translate(439.746094 0)"/>
      <use xlink:href="#DejaVuSans-6c" transform="translate(498.925781 0)"/>
      <use xlink:href="#DejaVuSans-65" transform="translate(526.708984 0)"/>
      <use xlink:href="#DejaVuSans-6e" transform="translate(588.232422 0)"/>
      <use xlink:href="#DejaVuSans-69" transform="translate(651.611328 0)"/>
      <use xlink:href="#DejaVuSans-65" transform="translate(679.394531 0)"/>
      <use xlink:href="#DejaVuSans-20" transform="translate(740.917969 0)"/>
      <use xlink:href="#DejaVuSans-73" transform="translate(772.705078 0)"/>
      <use xlink:href="#DejaVuSans-74" transform="translate(824.804688 0)"/>
      <use xlink:href="#DejaVuSans-64" transform="translate(864.013672 0)"/>
      <use xlink:href="#DejaVuSans-2e" transform="translate(927.490234 0)"/>
      <use xlink:href="#DejaVuSans-20" transform="translate(959.277344 0)"/>
      <use xlink:href="#DejaVuSans-6e" transform="translate(991.064453 0)"/>
      <use xlink:href="#DejaVuSans-61" transform="translate(1054.443359 0)"/>
      <use xlink:href="#DejaVuSans-6a" transform="translate(1115.722656 0)"/>
      <use xlink:href="#DejaVuSans-6c" transform="translate(1143.505859 0)"/>
      <use xlink:href="#DejaVuSans-65" transform="translate(1171.289062 0)"/>
      <use xlink:href="#DejaVuSans-70" transform="translate(1232.8125 0)"/>
      <use xlink:href="#DejaVuSans-73" transform="translate(1296.289062 0)"/>
      <use xlink:href="#DejaVuSans-7a" transform="translate(1348.388672 0)"/>
      <use xlink:href="#DejaVuSans-79" transform="translate(1400.878906 0)"/>
      <use xlink:href="#DejaVuSans-63" transform="translate(1460.058594 0)"/>
      <use xlink:href="#DejaVuSans-68" transform="translate(1515.039062 0)"/>
      <use xlink:href="#DejaVuSans-20" transform="translate(1578.417969 0)"/>
      <use xlink:href="#DejaVuSans-6f" transform="translate(1610.205078 0)"/>
      <use xlink:href="#DejaVuSans-73" transform="translate(1671.386719 0)"/>
      <use xlink:href="#DejaVuSans-6f" transform="translate(1723.486328 0)"/>
      <use xlink:href="#DejaVuSans-62" transform="translate(1784.667969 0)"/>
      <use xlink:href="#DejaVuSans-6e" transform="translate(1848.144531 0)"/>
      <use xlink:href="#DejaVuSans-69" transform="translate(1911.523438 0)"/>
      <use xlink:href="#DejaVuSans-6b" transform="translate(1939.306641 0)"/>
      <use xlink:href="#DejaVuSans-f3" transform="translate(1993.591797 0)"/>
      <use xlink:href="#DejaVuSans-77" transform="translate(2054.773438 0)"/>
     </g>
    </g>
    <g id="line2d_28">
     <path d="M 381.426562 369.900312 
L 391.426562 369.900312 
L 401.426562 369.900312 
" style="fill: none; stroke: #0000ff; stroke-width: 1.5; stroke-linecap: square"/>
    </g>
    <g id="text_18">
     <!-- Średnie przystosowanie całej populacji -->
     <g transform="translate(409.426562 373.400312) scale(0.1 -0.1)">
      <defs>
       <path id="DejaVuSans-142" d="M 622 4863 
L 1197 4863 
L 1197 2981 
L 1588 3263 
L 1825 2931 
L 1197 2491 
L 1197 0 
L 622 0 
L 622 2081 
L 238 1806 
L 6 2138 
L 622 2578 
L 622 4863 
z
" transform="scale(0.015625)"/>
      </defs>
      <use xlink:href="#DejaVuSans-15a"/>
      <use xlink:href="#DejaVuSans-72" transform="translate(63.476562 0)"/>
      <use xlink:href="#DejaVuSans-65" transform="translate(102.339844 0)"/>
      <use xlink:href="#DejaVuSans-64" transform="translate(163.863281 0)"/>
      <use xlink:href="#DejaVuSans-6e" transform="translate(227.339844 0)"/>
      <use xlink:href="#DejaVuSans-69" transform="translate(290.71875 0)"/>
      <use xlink:href="#DejaVuSans-65" transform="translate(318.501953 0)"/>
      <use xlink:href="#DejaVuSans-20" transform="translate(380.025391 0)"/>
      <use xlink:href="#DejaVuSans-70" transform="translate(411.8125 0)"/>
      <use xlink:href="#DejaVuSans-72" transform="translate(475.289062 0)"/>
      <use xlink:href="#DejaVuSans-7a" transform="translate(516.402344 0)"/>
      <use xlink:href="#DejaVuSans-79" transform="translate(568.892578 0)"/>
      <use xlink:href="#DejaVuSans-73" transform="translate(628.072266 0)"/>
      <use xlink:href="#DejaVuSans-74" transform="translate(680.171875 0)"/>
      <use xlink:href="#DejaVuSans-6f" transform="translate(719.380859 0)"/>
      <use xlink:href="#DejaVuSans-73" transform="translate(780.5625 0)"/>
      <use xlink:href="#DejaVuSans-6f" transform="translate(832.662109 0)"/>
      <use xlink:href="#DejaVuSans-77" transform="translate(893.84375 0)"/>
      <use xlink:href="#DejaVuSans-61" transform="translate(975.630859 0)"/>
      <use xlink:href="#DejaVuSans-6e" transform="translate(1036.910156 0)"/>
      <use xlink:href="#DejaVuSans-69" transform="translate(1100.289062 0)"/>
      <use xlink:href="#DejaVuSans-65" transform="translate(1128.072266 0)"/>
      <use xlink:href="#DejaVuSans-20" transform="translate(1189.595703 0)"/>
      <use xlink:href="#DejaVuSans-63" transform="translate(1221.382812 0)"/>
      <use xlink:href="#DejaVuSans-61" transform="translate(1276.363281 0)"/>
      <use xlink:href="#DejaVuSans-142" transform="translate(1337.642578 0)"/>
      <use xlink:href="#DejaVuSans-65" transform="translate(1366.060547 0)"/>
      <use xlink:href="#DejaVuSans-6a" transform="translate(1427.583984 0)"/>
      <use xlink:href="#DejaVuSans-20" transform="translate(1455.367188 0)"/>
      <use xlink:href="#DejaVuSans-70" transform="translate(1487.154297 0)"/>
      <use xlink:href="#DejaVuSans-6f" transform="translate(1550.630859 0)"/>
      <use xlink:href="#DejaVuSans-70" transform="translate(1611.8125 0)"/>
      <use xlink:href="#DejaVuSans-75" transform="translate(1675.289062 0)"/>
      <use xlink:href="#DejaVuSans-6c" transform="translate(1738.667969 0)"/>
      <use xlink:href="#DejaVuSans-61" transform="translate(1766.451172 0)"/>
      <use xlink:href="#DejaVuSans-63" transform="translate(1827.730469 0)"/>
      <use xlink:href="#DejaVuSans-6a" transform="translate(1882.710938 0)"/>
      <use xlink:href="#DejaVuSans-69" transform="translate(1910.494141 0)"/>
     </g>
    </g>
   </g>
  </g>
 </g>
 <defs>
  <clipPath id="p6dbd13a019">
   <rect x="90" y="51.84" width="558" height="332.64"/>
  </clipPath>
 </defs>
</svg>
