<?xml version="1.0" encoding="utf-8" standalone="no"?>
<!DOCTYPE svg PUBLIC "-//W3C//DTD SVG 1.1//EN"
  "http://www.w3.org/Graphics/SVG/1.1/DTD/svg11.dtd">
<svg xmlns:xlink="http://www.w3.org/1999/xlink" width="460.8pt" height="345.6pt" viewBox="0 0 460.8 345.6" xmlns="http://www.w3.org/2000/svg" version="1.1">
 <metadata>
  <rdf:RDF xmlns:dc="http://purl.org/dc/elements/1.1/" xmlns:cc="http://creativecommons.org/ns#" xmlns:rdf="http://www.w3.org/1999/02/22-rdf-syntax-ns#">
   <cc:Work>
    <dc:type rdf:resource="http://purl.org/dc/dcmitype/StillImage"/>
    <dc:date>2026-04-14T01:28:30.520420</dc:date>
    <dc:format>image/svg+xml</dc:format>
    <dc:creator>
     <cc:Agent>
      <dc:title>Matplotlib v3.10.8, https://matplotlib.org/</dc:title>
     </cc:Agent>
    </dc:creator>
   </cc:Work>
  </rdf:RDF>
 </metadata>
 <defs>
  <style type="text/css">*{stroke-linejoin: round; stroke-linecap: butt}</style>
 </defs>
 <g id="figure_1">
  <g id="patch_1">
   <path d="M 0 345.6 
L 460.8 345.6 
L 460.8 0 
L 0 0 
z
" style="fill: #ffffff"/>
  </g>
  <g id="axes_1">
   <g id="patch_2">
    <path d="M 57.6 307.584 
L 414.72 307.584 
L 414.72 41.472 
L 57.6 41.472 
z
" style="fill: #ffffff"/>
   </g>
   <g id="matplotlib.axis_1">
    <g id="xtick_1">
     <g id="line2d_1">
      <path d="M 73.832727 307.584 
L 73.832727 41.472 
" clip-path="url(#pe79b5107c4)" style="fill: none; stroke: #b0b0b0; stroke-width: 0.8; stroke-linecap: square"/>
     </g>
     <g id="line2d_2">
      <defs>
       <path id="m68619fdb66" d="M 0 0 
L 0 3.5 
" style="stroke: #000000; stroke-width: 0.8"/>
      </defs>
      <g>
       <use xlink:href="#m68619fdb66" x="73.832727" y="307.584" style="stroke: #000000; stroke-width: 0.8"/>
      </g>
     </g>
     <g id="text_1">
      <!-- 0 -->
      <g transform="translate(70.651477 322.182437) scale(0.1 -0.1)">
       <defs>
        <path id="DejaVuSans-30" d="M 2034 4250 
Q 1547 4250 1301 3770 
Q 1056 3291 1056 2328 
Q 1056 1369 1301 889 
Q 1547 409 2034 409 
Q 2525 409 2770 889 
Q 3016 1369 3016 2328 
Q 3016 3291 2770 3770 
Q 2525 4250 2034 4250 
z
M 2034 4750 
Q 2819 4750 3233 4129 
Q 3647 3509 3647 2328 
Q 3647 1150 3233 529 
Q 2819 -91 2034 -91 
Q 1250 -91 836 529 
Q 422 1150 422 2328 
Q 422 3509 836 4129 
Q 1250 4750 2034 4750 
z
" transform="scale(0.015625)"/>
       </defs>
       <use xlink:href="#DejaVuSans-30"/>
      </g>
     </g>
    </g>
    <g id="xtick_2">
     <g id="line2d_3">
      <path d="M 114.618474 307.584 
L 114.618474 41.472 
" clip-path="url(#pe79b5107c4)" style="fill: none; stroke: #b0b0b0; stroke-width: 0.8; stroke-linecap: square"/>
     </g>
     <g id="line2d_4">
      <g>
       <use xlink:href="#m68619fdb66" x="114.618474" y="307.584" style="stroke: #000000; stroke-width: 0.8"/>
      </g>
     </g>
     <g id="text_2">
      <!-- 25 -->
      <g transform="translate(108.255974 322.182437) scale(0.1 -0.1)">
       <defs>
        <path id="DejaVuSans-32" d="M 1228 531 
L 3431 531 
L 3431 0 
L 469 0 
L 469 531 
Q 828 903 1448 1529 
Q 2069 2156 2228 2338 
Q 2531 2678 2651 2914 
Q 2772 3150 2772 3378 
Q 2772 3750 2511 3984 
Q 2250 4219 1831 4219 
Q 1534 4219 1204 4116 
Q 875 4013 500 3803 
L 500 4441 
Q 881 4594 1212 4672 
Q 1544 4750 1819 4750 
Q 2544 4750 2975 4387 
Q 3406 4025 3406 3419 
Q 3406 3131 3298 2873 
Q 3191 2616 2906 2266 
Q 2828 2175 2409 1742 
Q 1991 1309 1228 531 
z
" transform="scale(0.015625)"/>
        <path id="DejaVuSans-35" d="M 691 4666 
L 3169 4666 
L 3169 4134 
L 1269 4134 
L 1269 2991 
Q 1406 3038 1543 3061 
Q 1681 3084 1819 3084 
Q 2600 3084 3056 2656 
Q 3513 2228 3513 1497 
Q 3513 744 3044 326 
Q 2575 -91 1722 -91 
Q 1428 -91 1123 -41 
Q 819 9 494 109 
L 494 744 
Q 775 591 1075 516 
Q 1375 441 1709 441 
Q 2250 441 2565 725 
Q 2881 1009 2881 1497 
Q 2881 1984 2565 2268 
Q 2250 2553 1709 2553 
Q 1456 2553 1204 2497 
Q 953 2441 691 2322 
L 691 4666 
z
" transform="scale(0.015625)"/>
       </defs>
       <use xlink:href="#DejaVuSans-32"/>
       <use xlink:href="#DejaVuSans-35" transform="translate(63.623047 0)"/>
      </g>
     </g>
    </g>
    <g id="xtick_3">
     <g id="line2d_5">
      <path d="M 155.404221 307.584 
L 155.404221 41.472 
" clip-path="url(#pe79b5107c4)" style="fill: none; stroke: #b0b0b0; stroke-width: 0.8; stroke-linecap: square"/>
     </g>
     <g id="line2d_6">
      <g>
       <use xlink:href="#m68619fdb66" x="155.404221" y="307.584" style="stroke: #000000; stroke-width: 0.8"/>
      </g>
     </g>
     <g id="text_3">
      <!-- 50 -->
      <g transform="translate(149.041721 322.182437) scale(0.1 -0.1)">
       <use xlink:href="#DejaVuSans-35"/>
       <use xlink:href="#DejaVuSans-30" transform="translate(63.623047 0)"/>
      </g>
     </g>
    </g>
    <g id="xtick_4">
     <g id="line2d_7">
      <path d="M 196.189968 307.584 
L 196.189968 41.472 
" clip-path="url(#pe79b5107c4)" style="fill: none; stroke: #b0b0b0; stroke-width: 0.8; stroke-linecap: square"/>
     </g>
     <g id="line2d_8">
      <g>
       <use xlink:href="#m68619fdb66" x="196.189968" y="307.584" style="stroke: #000000; stroke-width: 0.8"/>
      </g>
     </g>
     <g id="text_4">
      <!-- 75 -->
      <g transform="translate(189.827468 322.182437) scale(0.1 -0.1)">
       <defs>
        <path id="DejaVuSans-37" d="M 525 4666 
L 3525 4666 
L 3525 4397 
L 1831 0 
L 1172 0 
L 2766 4134 
L 525 4134 
L 525 4666 
z
" transform="scale(0.015625)"/>
       </defs>
       <use xlink:href="#DejaVuSans-37"/>
       <use xlink:href="#DejaVuSans-35" transform="translate(63.623047 0)"/>
      </g>
     </g>
    </g>
    <g id="xtick_5">
     <g id="line2d_9">
      <path d="M 236.975715 307.584 
L 236.975715 41.472 
" clip-path="url(#pe79b5107c4)" style="fill: none; stroke: #b0b0b0; stroke-width: 0.8; stroke-linecap: square"/>
     </g>
     <g id="line2d_10">
      <g>
       <use xlink:href="#m68619fdb66" x="236.975715" y="307.584" style="stroke: #000000; stroke-width: 0.8"/>
      </g>
     </g>
     <g id="text_5">
      <!-- 100 -->
      <g transform="translate(227.431965 322.182437) scale(0.1 -0.1)">
       <defs>
        <path id="DejaVuSans-31" d="M 794 531 
L 1825 531 
L 1825 4091 
L 703 3866 
L 703 4441 
L 1819 4666 
L 2450 4666 
L 2450 531 
L 3481 531 
L 3481 0 
L 794 0 
L 794 531 
z
" transform="scale(0.015625)"/>
       </defs>
       <use xlink:href="#DejaVuSans-31"/>
       <use xlink:href="#DejaVuSans-30" transform="translate(63.623047 0)"/>
       <use xlink:href="#DejaVuSans-30" transform="translate(127.246094 0)"/>
      </g>
     </g>
    </g>
    <g id="xtick_6">
     <g id="line2d_11">
      <path d="M 277.761462 307.584 
L 277.761462 41.472 
" clip-path="url(#pe79b5107c4)" style="fill: none; stroke: #b0b0b0; stroke-width: 0.8; stroke-linecap: square"/>
     </g>
     <g id="line2d_12">
      <g>
       <use xlink:href="#m68619fdb66" x="277.761462" y="307.584" style="stroke: #000000; stroke-width: 0.8"/>
      </g>
     </g>
     <g id="text_6">
      <!-- 125 -->
      <g transform="translate(268.217712 322.182437) scale(0.1 -0.1)">
       <use xlink:href="#DejaVuSans-31"/>
       <use xlink:href="#DejaVuSans-32" transform="translate(63.623047 0)"/>
       <use xlink:href="#DejaVuSans-35" transform="translate(127.246094 0)"/>
      </g>
     </g>
    </g>
    <g id="xtick_7">
     <g id="line2d_13">
      <path d="M 318.547209 307.584 
L 318.547209 41.472 
" clip-path="url(#pe79b5107c4)" style="fill: none; stroke: #b0b0b0; stroke-width: 0.8; stroke-linecap: square"/>
     </g>
     <g id="line2d_14">
      <g>
       <use xlink:href="#m68619fdb66" x="318.547209" y="307.584" style="stroke: #000000; stroke-width: 0.8"/>
      </g>
     </g>
     <g id="text_7">
      <!-- 150 -->
      <g transform="translate(309.003459 322.182437) scale(0.1 -0.1)">
       <use xlink:href="#DejaVuSans-31"/>
       <use xlink:href="#DejaVuSans-35" transform="translate(63.623047 0)"/>
       <use xlink:href="#DejaVuSans-30" transform="translate(127.246094 0)"/>
      </g>
     </g>
    </g>
    <g id="xtick_8">
     <g id="line2d_15">
      <path d="M 359.332956 307.584 
L 359.332956 41.472 
" clip-path="url(#pe79b5107c4)" style="fill: none; stroke: #b0b0b0; stroke-width: 0.8; stroke-linecap: square"/>
     </g>
     <g id="line2d_16">
      <g>
       <use xlink:href="#m68619fdb66" x="359.332956" y="307.584" style="stroke: #000000; stroke-width: 0.8"/>
      </g>
     </g>
     <g id="text_8">
      <!-- 175 -->
      <g transform="translate(349.789206 322.182437) scale(0.1 -0.1)">
       <use xlink:href="#DejaVuSans-31"/>
       <use xlink:href="#DejaVuSans-37" transform="translate(63.623047 0)"/>
       <use xlink:href="#DejaVuSans-35" transform="translate(127.246094 0)"/>
      </g>
     </g>
    </g>
    <g id="xtick_9">
     <g id="line2d_17">
      <path d="M 400.118703 307.584 
L 400.118703 41.472 
" clip-path="url(#pe79b5107c4)" style="fill: none; stroke: #b0b0b0; stroke-width: 0.8; stroke-linecap: square"/>
     </g>
     <g id="line2d_18">
      <g>
       <use xlink:href="#m68619fdb66" x="400.118703" y="307.584" style="stroke: #000000; stroke-width: 0.8"/>
      </g>
     </g>
     <g id="text_9">
      <!-- 200 -->
      <g transform="translate(390.574953 322.182437) scale(0.1 -0.1)">
       <use xlink:href="#DejaVuSans-32"/>
       <use xlink:href="#DejaVuSans-30" transform="translate(63.623047 0)"/>
       <use xlink:href="#DejaVuSans-30" transform="translate(127.246094 0)"/>
      </g>
     </g>
    </g>
    <g id="text_10">
     <!-- Generations -->
     <g transform="translate(205.662344 335.860562) scale(0.1 -0.1)">
      <defs>
       <path id="DejaVuSans-47" d="M 3809 666 
L 3809 1919 
L 2778 1919 
L 2778 2438 
L 4434 2438 
L 4434 434 
Q 4069 175 3628 42 
Q 3188 -91 2688 -91 
Q 1594 -91 976 548 
Q 359 1188 359 2328 
Q 359 3472 976 4111 
Q 1594 4750 2688 4750 
Q 3144 4750 3555 4637 
Q 3966 4525 4313 4306 
L 4313 3634 
Q 3963 3931 3569 4081 
Q 3175 4231 2741 4231 
Q 1884 4231 1454 3753 
Q 1025 3275 1025 2328 
Q 1025 1384 1454 906 
Q 1884 428 2741 428 
Q 3075 428 3337 486 
Q 3600 544 3809 666 
z
" transform="scale(0.015625)"/>
       <path id="DejaVuSans-65" d="M 3597 1894 
L 3597 1613 
L 953 1613 
Q 991 1019 1311 708 
Q 1631 397 2203 397 
Q 2534 397 2845 478 
Q 3156 559 3463 722 
L 3463 178 
Q 3153 47 2828 -22 
Q 2503 -91 2169 -91 
Q 1331 -91 842 396 
Q 353 884 353 1716 
Q 353 2575 817 3079 
Q 1281 3584 2069 3584 
Q 2775 3584 3186 3129 
Q 3597 2675 3597 1894 
z
M 3022 2063 
Q 3016 2534 2758 2815 
Q 2500 3097 2075 3097 
Q 1594 3097 1305 2825 
Q 1016 2553 972 2059 
L 3022 2063 
z
" transform="scale(0.015625)"/>
       <path id="DejaVuSans-6e" d="M 3513 2113 
L 3513 0 
L 2938 0 
L 2938 2094 
Q 2938 2591 2744 2837 
Q 2550 3084 2163 3084 
Q 1697 3084 1428 2787 
Q 1159 2491 1159 1978 
L 1159 0 
L 581 0 
L 581 3500 
L 1159 3500 
L 1159 2956 
Q 1366 3272 1645 3428 
Q 1925 3584 2291 3584 
Q 2894 3584 3203 3211 
Q 3513 2838 3513 2113 
z
" transform="scale(0.015625)"/>
       <path id="DejaVuSans-72" d="M 2631 2963 
Q 2534 3019 2420 3045 
Q 2306 3072 2169 3072 
Q 1681 3072 1420 2755 
Q 1159 2438 1159 1844 
L 1159 0 
L 581 0 
L 581 3500 
L 1159 3500 
L 1159 2956 
Q 1341 3275 1631 3429 
Q 1922 3584 2338 3584 
Q 2397 3584 2469 3576 
Q 2541 3569 2628 3553 
L 2631 2963 
z
" transform="scale(0.015625)"/>
       <path id="DejaVuSans-61" d="M 2194 1759 
Q 1497 1759 1228 1600 
Q 959 1441 959 1056 
Q 959 750 1161 570 
Q 1363 391 1709 391 
Q 2188 391 2477 730 
Q 2766 1069 2766 1631 
L 2766 1759 
L 2194 1759 
z
M 3341 1997 
L 3341 0 
L 2766 0 
L 2766 531 
Q 2569 213 2275 61 
Q 1981 -91 1556 -91 
Q 1019 -91 701 211 
Q 384 513 384 1019 
Q 384 1609 779 1909 
Q 1175 2209 1959 2209 
L 2766 2209 
L 2766 2266 
Q 2766 2663 2505 2880 
Q 2244 3097 1772 3097 
Q 1472 3097 1187 3025 
Q 903 2953 641 2809 
L 641 3341 
Q 956 3463 1253 3523 
Q 1550 3584 1831 3584 
Q 2591 3584 2966 3190 
Q 3341 2797 3341 1997 
z
" transform="scale(0.015625)"/>
       <path id="DejaVuSans-74" d="M 1172 4494 
L 1172 3500 
L 2356 3500 
L 2356 3053 
L 1172 3053 
L 1172 1153 
Q 1172 725 1289 603 
Q 1406 481 1766 481 
L 2356 481 
L 2356 0 
L 1766 0 
Q 1100 0 847 248 
Q 594 497 594 1153 
L 594 3053 
L 172 3053 
L 172 3500 
L 594 3500 
L 594 4494 
L 1172 4494 
z
" transform="scale(0.015625)"/>
       <path id="DejaVuSans-69" d="M 603 3500 
L 1178 3500 
L 1178 0 
L 603 0 
L 603 3500 
z
M 603 4863 
L 1178 4863 
L 1178 4134 
L 603 4134 
L 603 4863 
z
" transform="scale(0.015625)"/>
       <path id="DejaVuSans-6f" d="M 1959 3097 
Q 1497 3097 1228 2736 
Q 959 2375 959 1747 
Q 959 1119 1226 758 
Q 1494 397 1959 397 
Q 2419 397 2687 759 
Q 2956 1122 2956 1747 
Q 2956 2369 2687 2733 
Q 2419 3097 1959 3097 
z
M 1959 3584 
Q 2709 3584 3137 3096 
Q 3566 2609 3566 1747 
Q 3566 888 3137 398 
Q 2709 -91 1959 -91 
Q 1206 -91 779 398 
Q 353 888 353 1747 
Q 353 2609 779 3096 
Q 1206 3584 1959 3584 
z
" transform="scale(0.015625)"/>
       <path id="DejaVuSans-73" d="M 2834 3397 
L 2834 2853 
Q 2591 2978 2328 3040 
Q 2066 3103 1784 3103 
Q 1356 3103 1142 2972 
Q 928 2841 928 2578 
Q 928 2378 1081 2264 
Q 1234 2150 1697 2047 
L 1894 2003 
Q 2506 1872 2764 1633 
Q 3022 1394 3022 966 
Q 3022 478 2636 193 
Q 2250 -91 1575 -91 
Q 1294 -91 989 -36 
Q 684 19 347 128 
L 347 722 
Q 666 556 975 473 
Q 1284 391 1588 391 
Q 1994 391 2212 530 
Q 2431 669 2431 922 
Q 2431 1156 2273 1281 
Q 2116 1406 1581 1522 
L 1381 1569 
Q 847 1681 609 1914 
Q 372 2147 372 2553 
Q 372 3047 722 3315 
Q 1072 3584 1716 3584 
Q 2034 3584 2315 3537 
Q 2597 3491 2834 3397 
z
" transform="scale(0.015625)"/>
      </defs>
      <use xlink:href="#DejaVuSans-47"/>
      <use xlink:href="#DejaVuSans-65" transform="translate(77.490234 0)"/>
      <use xlink:href="#DejaVuSans-6e" transform="translate(139.013672 0)"/>
      <use xlink:href="#DejaVuSans-65" transform="translate(202.392578 0)"/>
      <use xlink:href="#DejaVuSans-72" transform="translate(263.916016 0)"/>
      <use xlink:href="#DejaVuSans-61" transform="translate(305.029297 0)"/>
      <use xlink:href="#DejaVuSans-74" transform="translate(366.308594 0)"/>
      <use xlink:href="#DejaVuSans-69" transform="translate(405.517578 0)"/>
      <use xlink:href="#DejaVuSans-6f" transform="translate(433.300781 0)"/>
      <use xlink:href="#DejaVuSans-6e" transform="translate(494.482422 0)"/>
      <use xlink:href="#DejaVuSans-73" transform="translate(557.861328 0)"/>
     </g>
    </g>
   </g>
   <g id="matplotlib.axis_2">
    <g id="ytick_1">
     <g id="line2d_19">
      <path d="M 57.6 148.476339 
L 414.72 148.476339 
" clip-path="url(#pe79b5107c4)" style="fill: none; stroke: #b0b0b0; stroke-width: 0.8; stroke-linecap: square"/>
     </g>
     <g id="line2d_20">
      <defs>
       <path id="md3389b1998" d="M 0 0 
L -3.5 0 
" style="stroke: #000000; stroke-width: 0.8"/>
      </defs>
      <g>
       <use xlink:href="#md3389b1998" x="57.6" y="148.476339" style="stroke: #000000; stroke-width: 0.8"/>
      </g>
     </g>
     <g id="text_11">
      <!-- $\mathdefault{10^{2}}$ -->
      <g transform="translate(33 152.275557) scale(0.1 -0.1)">
       <use xlink:href="#DejaVuSans-31" transform="translate(0 0.765625)"/>
       <use xlink:href="#DejaVuSans-30" transform="translate(63.623047 0.765625)"/>
       <use xlink:href="#DejaVuSans-32" transform="translate(128.203125 39.046875) scale(0.7)"/>
      </g>
     </g>
    </g>
    <g id="text_12">
     <!-- Fitness -->
     <g transform="translate(26.920312 191.845187) rotate(-90) scale(0.1 -0.1)">
      <defs>
       <path id="DejaVuSans-46" d="M 628 4666 
L 3309 4666 
L 3309 4134 
L 1259 4134 
L 1259 2759 
L 3109 2759 
L 3109 2228 
L 1259 2228 
L 1259 0 
L 628 0 
L 628 4666 
z
" transform="scale(0.015625)"/>
      </defs>
      <use xlink:href="#DejaVuSans-46"/>
      <use xlink:href="#DejaVuSans-69" transform="translate(50.269531 0)"/>
      <use xlink:href="#DejaVuSans-74" transform="translate(78.052734 0)"/>
      <use xlink:href="#DejaVuSans-6e" transform="translate(117.261719 0)"/>
      <use xlink:href="#DejaVuSans-65" transform="translate(180.640625 0)"/>
      <use xlink:href="#DejaVuSans-73" transform="translate(242.164062 0)"/>
      <use xlink:href="#DejaVuSans-73" transform="translate(294.263672 0)"/>
     </g>
    </g>
   </g>
   <g id="line2d_21">
    <path d="M 73.832727 295.488 
L 75.464157 249.428053 
L 77.095587 219.890407 
L 78.727017 214.241963 
L 80.358447 195.472022 
L 81.989877 190.04809 
L 85.252736 180.503765 
L 86.884166 188.250144 
L 88.515596 189.766148 
L 90.147026 200.212848 
L 91.778456 190.209589 
L 93.409886 185.484677 
L 95.041316 187.348298 
L 96.672746 183.114327 
L 98.304175 181.973581 
L 99.935605 180.669274 
L 101.567035 179.890284 
L 103.198465 176.34704 
L 106.461325 170.985914 
L 108.092755 171.559795 
L 109.724185 172.450472 
L 111.355614 168.941939 
L 112.987044 168.777821 
L 114.618474 166.726371 
L 116.249904 171.212606 
L 117.881334 167.751424 
L 119.512764 168.942904 
L 121.144194 168.517568 
L 122.775624 167.772384 
L 124.407053 168.738478 
L 126.038483 168.518623 
L 127.669913 168.172932 
L 129.301343 166.703228 
L 130.932773 168.85256 
L 132.564203 169.185512 
L 134.195633 168.890592 
L 135.827063 167.878972 
L 137.458492 168.740988 
L 139.089922 168.634722 
L 140.721352 168.988019 
L 142.352782 174.314319 
L 143.984212 165.492681 
L 145.615642 166.812247 
L 147.247072 169.665815 
L 148.878502 164.363803 
L 150.509931 165.57762 
L 152.141361 167.493503 
L 153.772791 165.977463 
L 155.404221 165.922599 
L 157.035651 169.660887 
L 158.667081 164.735601 
L 160.298511 167.020408 
L 161.929941 167.512099 
L 163.56137 165.733095 
L 165.1928 165.026352 
L 166.82423 164.611348 
L 168.45566 167.648188 
L 170.08709 165.426565 
L 171.71852 165.565638 
L 173.34995 163.280994 
L 174.98138 166.799975 
L 176.61281 162.047121 
L 178.244239 164.639953 
L 179.875669 164.323506 
L 181.507099 161.25189 
L 183.138529 163.375493 
L 184.769959 165.12978 
L 186.401389 165.247954 
L 188.032819 159.421793 
L 189.664249 163.292995 
L 191.295678 162.374203 
L 192.927108 163.107143 
L 194.558538 162.291125 
L 196.189968 164.233025 
L 197.821398 162.888159 
L 199.452828 162.276889 
L 201.084258 162.381499 
L 202.715688 163.812014 
L 204.347117 163.262886 
L 205.978547 164.091832 
L 207.609977 165.130745 
L 209.241407 165.659069 
L 210.872837 163.799724 
L 212.504267 161.255505 
L 214.135697 163.361927 
L 215.767127 163.327363 
L 217.398556 162.599603 
L 219.029986 164.06314 
L 220.661416 163.805717 
L 222.292846 161.925757 
L 223.924276 162.95204 
L 225.555706 163.762225 
L 227.187136 164.327669 
L 228.818566 168.559423 
L 230.449995 167.26311 
L 232.081425 164.214328 
L 233.712855 167.223363 
L 235.344285 163.324824 
L 236.975715 164.449555 
L 238.607145 164.648697 
L 241.870005 163.888076 
L 243.501434 164.269914 
L 245.132864 167.568461 
L 246.764294 164.513205 
L 248.395724 164.1308 
L 250.027154 165.204763 
L 251.658584 166.667074 
L 253.290014 162.835761 
L 254.921444 161.874383 
L 256.552873 164.737484 
L 258.184303 164.663978 
L 259.815733 165.088261 
L 261.447163 166.392897 
L 263.078593 166.494866 
L 264.710023 165.479185 
L 267.972883 165.354418 
L 269.604312 165.503603 
L 271.235742 163.641623 
L 272.867172 166.528802 
L 274.498602 165.713561 
L 276.130032 166.179852 
L 277.761462 164.103433 
L 279.392892 165.31176 
L 281.024322 166.770011 
L 282.655751 165.005292 
L 284.287181 164.490057 
L 285.918611 168.252847 
L 287.550041 162.744377 
L 289.181471 164.250381 
L 290.812901 167.799853 
L 292.444331 164.524603 
L 294.075761 164.715504 
L 295.70719 165.578998 
L 297.33862 166.626209 
L 298.97005 164.444188 
L 300.60148 165.324921 
L 302.23291 166.827831 
L 303.86434 166.359586 
L 305.49577 160.874951 
L 307.1272 166.311029 
L 310.390059 163.615725 
L 312.021489 161.069753 
L 313.652919 163.371079 
L 315.284349 164.165944 
L 316.915779 163.375261 
L 318.547209 160.912236 
L 320.178639 163.23973 
L 321.810069 162.204485 
L 325.072928 164.355028 
L 326.704358 162.738416 
L 328.335788 162.673995 
L 329.967218 160.003299 
L 331.598648 162.764412 
L 333.230078 162.227056 
L 334.861508 161.377569 
L 336.492937 162.737466 
L 338.124367 161.868529 
L 339.755797 161.358124 
L 341.387227 164.215322 
L 343.018657 163.534315 
L 344.650087 162.305485 
L 346.281517 161.27894 
L 347.912947 161.485542 
L 349.544376 163.173432 
L 351.175806 161.890675 
L 352.807236 163.917466 
L 354.438666 162.78972 
L 356.070096 163.51049 
L 357.701526 163.354633 
L 359.332956 162.011289 
L 360.964386 164.831729 
L 362.595815 163.801917 
L 364.227245 163.173407 
L 365.858675 164.70932 
L 367.490105 166.024959 
L 369.121535 163.102235 
L 370.752965 164.249486 
L 372.384395 162.605846 
L 374.015825 166.297892 
L 375.647254 163.341515 
L 377.278684 163.805944 
L 378.910114 163.915256 
L 380.541544 166.854482 
L 382.172974 162.085333 
L 383.804404 162.804525 
L 385.435834 162.255758 
L 387.067264 162.837868 
L 388.698693 160.668632 
L 390.330123 163.390905 
L 391.961553 163.714899 
L 393.592983 160.717662 
L 395.224413 164.613383 
L 396.855843 161.39553 
L 398.487273 162.439791 
L 398.487273 162.439791 
" clip-path="url(#pe79b5107c4)" style="fill: none; stroke: #0000ff; stroke-width: 1.5; stroke-linecap: square"/>
   </g>
   <g id="line2d_22">
    <path d="M 73.832727 249.310776 
L 75.464157 205.687655 
L 77.095587 177.62794 
L 78.727017 174.495316 
L 80.358447 164.693288 
L 81.989877 160.959787 
L 83.621307 155.395533 
L 85.252736 152.082701 
L 86.884166 158.222445 
L 88.515596 155.759511 
L 90.147026 160.010786 
L 91.778456 156.883347 
L 93.409886 154.439635 
L 95.041316 155.365496 
L 96.672746 154.095867 
L 98.304175 155.695683 
L 99.935605 156.80402 
L 101.567035 151.368833 
L 103.198465 151.152104 
L 104.829895 150.387569 
L 106.461325 149.300729 
L 108.092755 149.263509 
L 109.724185 149.452042 
L 111.355614 146.61058 
L 112.987044 148.542333 
L 114.618474 147.017154 
L 116.249904 148.677078 
L 117.881334 146.382222 
L 119.512764 147.629296 
L 121.144194 147.928482 
L 122.775624 148.561346 
L 124.407053 146.351691 
L 126.038483 148.897568 
L 127.669913 148.266113 
L 129.301343 147.243253 
L 130.932773 147.723837 
L 132.564203 149.889946 
L 134.195633 147.825643 
L 137.458492 146.683079 
L 139.089922 146.434234 
L 140.721352 148.38105 
L 142.352782 145.56625 
L 143.984212 144.136983 
L 145.615642 147.787559 
L 147.247072 148.771008 
L 148.878502 143.351116 
L 150.509931 145.99729 
L 152.141361 147.094056 
L 153.772791 146.806159 
L 155.404221 143.943456 
L 157.035651 150.387573 
L 158.667081 143.788975 
L 160.298511 145.464119 
L 161.929941 147.945611 
L 163.56137 143.007885 
L 166.82423 143.314431 
L 168.45566 144.644933 
L 170.08709 143.483023 
L 171.71852 143.380188 
L 173.34995 142.193361 
L 174.98138 146.061682 
L 176.61281 138.567294 
L 178.244239 143.61243 
L 179.875669 143.014491 
L 181.507099 138.763716 
L 183.138529 144.774969 
L 184.769959 146.715948 
L 186.401389 143.131034 
L 188.032819 138.548188 
L 189.664249 143.54702 
L 191.295678 141.057868 
L 192.927108 141.890714 
L 194.558538 140.574298 
L 196.189968 144.71393 
L 197.821398 140.681352 
L 199.452828 141.944197 
L 202.715688 143.76049 
L 204.347117 141.928847 
L 205.978547 142.498521 
L 207.609977 144.545055 
L 209.241407 145.874698 
L 210.872837 143.532203 
L 212.504267 139.476204 
L 214.135697 144.096267 
L 215.767127 143.66523 
L 217.398556 140.461799 
L 219.029986 143.002068 
L 220.661416 143.469919 
L 222.292846 140.697463 
L 223.924276 144.531754 
L 225.555706 141.840763 
L 227.187136 142.031142 
L 228.818566 147.800284 
L 230.449995 148.56001 
L 232.081425 142.517777 
L 233.712855 148.355219 
L 235.344285 140.917959 
L 236.975715 144.098226 
L 238.607145 143.070596 
L 240.238575 142.975783 
L 241.870005 144.232686 
L 243.501434 143.718601 
L 245.132864 148.293338 
L 246.764294 143.250914 
L 248.395724 143.650972 
L 250.027154 143.44275 
L 251.658584 145.29619 
L 253.290014 139.931086 
L 254.921444 141.073045 
L 256.552873 145.095456 
L 258.184303 144.409558 
L 259.815733 143.415793 
L 261.447163 147.19528 
L 263.078593 148.500719 
L 264.710023 146.332759 
L 266.341453 143.760268 
L 267.972883 144.24011 
L 269.604312 146.066241 
L 271.235742 142.46885 
L 272.867172 146.577097 
L 274.498602 146.493029 
L 276.130032 147.441072 
L 277.761462 144.307841 
L 279.392892 146.01199 
L 281.024322 146.221995 
L 282.655751 144.689561 
L 284.287181 145.57742 
L 285.918611 147.530794 
L 287.550041 140.467616 
L 289.181471 143.768954 
L 290.812901 147.929519 
L 292.444331 144.672784 
L 294.075761 144.804828 
L 295.70719 147.271748 
L 297.33862 146.231378 
L 298.97005 144.071084 
L 300.60148 146.590701 
L 302.23291 145.355998 
L 303.86434 148.856614 
L 305.49577 140.221771 
L 307.1272 145.915239 
L 308.75863 145.934505 
L 310.390059 143.5192 
L 312.021489 140.291217 
L 315.284349 145.89142 
L 316.915779 142.908313 
L 318.547209 139.194452 
L 320.178639 144.452242 
L 321.810069 141.040601 
L 323.441498 141.814466 
L 325.072928 143.709772 
L 326.704358 141.452229 
L 328.335788 141.415428 
L 329.967218 139.01367 
L 331.598648 143.154252 
L 333.230078 140.059918 
L 334.861508 139.8305 
L 338.124367 140.733465 
L 339.755797 139.212661 
L 343.018657 143.217303 
L 344.650087 140.55344 
L 346.281517 138.605435 
L 347.912947 139.352418 
L 349.544376 142.236568 
L 351.175806 141.239509 
L 352.807236 139.924706 
L 354.438666 141.199062 
L 356.070096 142.136121 
L 357.701526 142.003879 
L 359.332956 140.551407 
L 360.964386 145.258405 
L 362.595815 144.198393 
L 364.227245 142.240298 
L 365.858675 142.107649 
L 367.490105 143.824928 
L 369.121535 141.819372 
L 370.752965 145.081876 
L 372.384395 140.71543 
L 374.015825 148.063413 
L 375.647254 142.758042 
L 377.278684 143.522854 
L 378.910114 143.841295 
L 380.541544 146.279674 
L 382.172974 141.118912 
L 383.804404 142.537732 
L 385.435834 141.848522 
L 388.698693 140.067137 
L 390.330123 145.088819 
L 391.961553 144.131524 
L 393.592983 138.617586 
L 395.224413 145.176371 
L 396.855843 139.380053 
L 398.487273 141.508044 
L 398.487273 141.508044 
" clip-path="url(#pe79b5107c4)" style="fill: none; stroke-dasharray: 9.6,2.4,1.5,2.4; stroke-dashoffset: 0; stroke: #008000; stroke-width: 1.5"/>
   </g>
   <g id="line2d_23">
    <path d="M 73.832727 172.390531 
L 75.464157 156.906653 
L 77.095587 122.740172 
L 78.727017 130.072886 
L 80.358447 134.691483 
L 81.989877 122.440671 
L 83.621307 122.160576 
L 85.252736 107.723845 
L 86.884166 114.948743 
L 88.515596 104.949905 
L 90.147026 111.171704 
L 91.778456 108.23091 
L 93.409886 107.652987 
L 95.041316 111.929251 
L 96.672746 115.130715 
L 98.304175 115.175092 
L 99.935605 126.297301 
L 101.567035 104.594133 
L 103.198465 107.651611 
L 104.829895 101.065157 
L 106.461325 111.442775 
L 108.092755 118.565428 
L 109.724185 111.375589 
L 111.355614 98.28727 
L 112.987044 88.624782 
L 114.618474 116.120048 
L 116.249904 107.769115 
L 117.881334 88.925502 
L 119.512764 94.392014 
L 121.144194 114.766928 
L 122.775624 107.495767 
L 124.407053 107.670182 
L 126.038483 100.806014 
L 127.669913 114.622878 
L 129.301343 118.160497 
L 130.932773 114.736703 
L 132.564203 122.445312 
L 134.195633 118.478775 
L 135.827063 104.324325 
L 137.458492 107.586316 
L 139.089922 94.255958 
L 140.721352 118.493147 
L 142.352782 85.529184 
L 143.984212 98.08868 
L 145.615642 100.567366 
L 147.247072 118.29797 
L 148.878502 107.542978 
L 150.509931 107.815606 
L 152.141361 111.039295 
L 153.772791 104.153212 
L 155.404221 90.934308 
L 157.035651 114.894566 
L 158.667081 104.316359 
L 160.298511 107.691005 
L 161.929941 118.407702 
L 163.56137 91.21395 
L 165.1928 94.688774 
L 166.82423 101.337401 
L 170.08709 76.905265 
L 171.71852 88.869227 
L 173.34995 107.571477 
L 174.98138 111.333995 
L 176.61281 74.894212 
L 178.244239 112.059716 
L 179.875669 92.180047 
L 181.507099 94.630933 
L 183.138529 94.999584 
L 184.769959 91.264122 
L 186.401389 82.657583 
L 188.032819 91.453333 
L 189.664249 101.156458 
L 191.295678 88.38999 
L 192.927108 100.713621 
L 194.558538 85.083464 
L 196.189968 94.549881 
L 197.821398 92.012722 
L 199.452828 97.604861 
L 201.084258 107.831158 
L 202.715688 94.708113 
L 204.347117 100.750354 
L 205.978547 82.31505 
L 207.609977 94.28854 
L 209.241407 97.355973 
L 212.504267 85.621323 
L 214.135697 114.778443 
L 215.767127 97.547424 
L 217.398556 100.969147 
L 219.029986 97.693207 
L 220.661416 104.072918 
L 222.292846 74.227019 
L 223.924276 107.821279 
L 225.555706 94.573872 
L 227.187136 60.875194 
L 228.818566 87.823016 
L 230.449995 97.888045 
L 232.081425 88.177962 
L 233.712855 108.23228 
L 235.344285 101.024891 
L 236.975715 100.932829 
L 238.607145 85.428378 
L 240.238575 85.252274 
L 241.870005 97.78618 
L 243.501434 91.235563 
L 245.132864 94.629872 
L 246.764294 85.077557 
L 248.395724 94.925395 
L 250.027154 94.87458 
L 251.658584 94.163539 
L 253.290014 53.568 
L 254.921444 100.827095 
L 256.552873 107.581588 
L 258.184303 82.250544 
L 259.815733 82.648545 
L 261.447163 98.246105 
L 263.078593 111.566591 
L 264.710023 98.49957 
L 266.341453 77.038993 
L 267.972883 101.319759 
L 269.604312 94.791651 
L 271.235742 94.549891 
L 272.867172 88.634124 
L 274.498602 111.068417 
L 276.130032 107.659252 
L 277.761462 94.792278 
L 279.392892 107.934506 
L 281.024322 91.706052 
L 282.655751 85.658322 
L 284.287181 100.798753 
L 285.918611 97.753876 
L 287.550041 79.217205 
L 289.181471 101.057798 
L 290.812901 104.635394 
L 292.444331 88.233638 
L 294.075761 94.570696 
L 295.70719 104.605092 
L 297.33862 91.269337 
L 298.97005 82.588142 
L 300.60148 91.898988 
L 302.23291 97.856015 
L 303.86434 111.579696 
L 305.49577 92.093832 
L 307.1272 91.618622 
L 308.75863 88.821587 
L 310.390059 82.362472 
L 312.021489 94.652207 
L 313.652919 91.558083 
L 315.284349 104.256486 
L 316.915779 94.456162 
L 318.547209 97.57717 
L 320.178639 101.484081 
L 321.810069 97.248113 
L 323.441498 80.641884 
L 325.072928 88.418985 
L 326.704358 85.919585 
L 328.335788 95.173767 
L 329.967218 71.17894 
L 331.598648 79.626685 
L 333.230078 104.379756 
L 334.861508 94.314824 
L 338.124367 76.79727 
L 339.755797 88.332045 
L 341.387227 88.292117 
L 343.018657 107.816277 
L 344.650087 91.596128 
L 346.281517 58.259985 
L 347.912947 76.690102 
L 349.544376 79.570082 
L 351.175806 92.137821 
L 352.807236 71.22314 
L 354.438666 79.658308 
L 356.070096 68.122485 
L 357.701526 97.733608 
L 359.332956 85.470847 
L 360.964386 104.480085 
L 362.595815 94.706796 
L 364.227245 88.664071 
L 365.858675 72.318252 
L 367.490105 85.395906 
L 370.752965 104.573762 
L 372.384395 58.295869 
L 374.015825 119.771413 
L 375.647254 61.434992 
L 377.278684 91.360658 
L 378.910114 94.81858 
L 380.541544 101.605479 
L 382.172974 79.810614 
L 383.804404 101.323423 
L 385.435834 71.192083 
L 387.067264 88.216123 
L 388.698693 94.827145 
L 390.330123 94.397372 
L 391.961553 100.922995 
L 393.592983 88.475396 
L 395.224413 73.798913 
L 396.855843 82.85408 
L 398.487273 71.414306 
L 398.487273 71.414306 
" clip-path="url(#pe79b5107c4)" style="fill: none; stroke: #ff0000; stroke-width: 1.5; stroke-linecap: square"/>
   </g>
   <g id="patch_3">
    <path d="M 57.6 307.584 
L 57.6 41.472 
" style="fill: none; stroke: #000000; stroke-width: 0.8; stroke-linejoin: miter; stroke-linecap: square"/>
   </g>
   <g id="patch_4">
    <path d="M 414.72 307.584 
L 414.72 41.472 
" style="fill: none; stroke: #000000; stroke-width: 0.8; stroke-linejoin: miter; stroke-linecap: square"/>
   </g>
   <g id="patch_5">
    <path d="M 57.6 307.584 
L 414.72 307.584 
" style="fill: none; stroke: #000000; stroke-width: 0.8; stroke-linejoin: miter; stroke-linecap: square"/>
   </g>
   <g id="patch_6">
    <path d="M 57.6 41.472 
L 414.72 41.472 
" style="fill: none; stroke: #000000; stroke-width: 0.8; stroke-linejoin: miter; stroke-linecap: square"/>
   </g>
   <g id="text_13">
    <!-- Population's average and best fitness -->
    <g transform="translate(123.529687 35.472) scale(0.12 -0.12)">
     <defs>
      <path id="DejaVuSans-50" d="M 1259 4147 
L 1259 2394 
L 2053 2394 
Q 2494 2394 2734 2622 
Q 2975 2850 2975 3272 
Q 2975 3691 2734 3919 
Q 2494 4147 2053 4147 
L 1259 4147 
z
M 628 4666 
L 2053 4666 
Q 2838 4666 3239 4311 
Q 3641 3956 3641 3272 
Q 3641 2581 3239 2228 
Q 2838 1875 2053 1875 
L 1259 1875 
L 1259 0 
L 628 0 
L 628 4666 
z
" transform="scale(0.015625)"/>
      <path id="DejaVuSans-70" d="M 1159 525 
L 1159 -1331 
L 581 -1331 
L 581 3500 
L 1159 3500 
L 1159 2969 
Q 1341 3281 1617 3432 
Q 1894 3584 2278 3584 
Q 2916 3584 3314 3078 
Q 3713 2572 3713 1747 
Q 3713 922 3314 415 
Q 2916 -91 2278 -91 
Q 1894 -91 1617 61 
Q 1341 213 1159 525 
z
M 3116 1747 
Q 3116 2381 2855 2742 
Q 2594 3103 2138 3103 
Q 1681 3103 1420 2742 
Q 1159 2381 1159 1747 
Q 1159 1113 1420 752 
Q 1681 391 2138 391 
Q 2594 391 2855 752 
Q 3116 1113 3116 1747 
z
" transform="scale(0.015625)"/>
      <path id="DejaVuSans-75" d="M 544 1381 
L 544 3500 
L 1119 3500 
L 1119 1403 
Q 1119 906 1312 657 
Q 1506 409 1894 409 
Q 2359 409 2629 706 
Q 2900 1003 2900 1516 
L 2900 3500 
L 3475 3500 
L 3475 0 
L 2900 0 
L 2900 538 
Q 2691 219 2414 64 
Q 2138 -91 1772 -91 
Q 1169 -91 856 284 
Q 544 659 544 1381 
z
M 1991 3584 
L 1991 3584 
z
" transform="scale(0.015625)"/>
      <path id="DejaVuSans-6c" d="M 603 4863 
L 1178 4863 
L 1178 0 
L 603 0 
L 603 4863 
z
" transform="scale(0.015625)"/>
      <path id="DejaVuSans-27" d="M 1147 4666 
L 1147 2931 
L 616 2931 
L 616 4666 
L 1147 4666 
z
" transform="scale(0.015625)"/>
      <path id="DejaVuSans-20" transform="scale(0.015625)"/>
      <path id="DejaVuSans-76" d="M 191 3500 
L 800 3500 
L 1894 563 
L 2988 3500 
L 3597 3500 
L 2284 0 
L 1503 0 
L 191 3500 
z
" transform="scale(0.015625)"/>
      <path id="DejaVuSans-67" d="M 2906 1791 
Q 2906 2416 2648 2759 
Q 2391 3103 1925 3103 
Q 1463 3103 1205 2759 
Q 947 2416 947 1791 
Q 947 1169 1205 825 
Q 1463 481 1925 481 
Q 2391 481 2648 825 
Q 2906 1169 2906 1791 
z
M 3481 434 
Q 3481 -459 3084 -895 
Q 2688 -1331 1869 -1331 
Q 1566 -1331 1297 -1286 
Q 1028 -1241 775 -1147 
L 775 -588 
Q 1028 -725 1275 -790 
Q 1522 -856 1778 -856 
Q 2344 -856 2625 -561 
Q 2906 -266 2906 331 
L 2906 616 
Q 2728 306 2450 153 
Q 2172 0 1784 0 
Q 1141 0 747 490 
Q 353 981 353 1791 
Q 353 2603 747 3093 
Q 1141 3584 1784 3584 
Q 2172 3584 2450 3431 
Q 2728 3278 2906 2969 
L 2906 3500 
L 3481 3500 
L 3481 434 
z
" transform="scale(0.015625)"/>
      <path id="DejaVuSans-64" d="M 2906 2969 
L 2906 4863 
L 3481 4863 
L 3481 0 
L 2906 0 
L 2906 525 
Q 2725 213 2448 61 
Q 2172 -91 1784 -91 
Q 1150 -91 751 415 
Q 353 922 353 1747 
Q 353 2572 751 3078 
Q 1150 3584 1784 3584 
Q 2172 3584 2448 3432 
Q 2725 3281 2906 2969 
z
M 947 1747 
Q 947 1113 1208 752 
Q 1469 391 1925 391 
Q 2381 391 2643 752 
Q 2906 1113 2906 1747 
Q 2906 2381 2643 2742 
Q 2381 3103 1925 3103 
Q 1469 3103 1208 2742 
Q 947 2381 947 1747 
z
" transform="scale(0.015625)"/>
      <path id="DejaVuSans-62" d="M 3116 1747 
Q 3116 2381 2855 2742 
Q 2594 3103 2138 3103 
Q 1681 3103 1420 2742 
Q 1159 2381 1159 1747 
Q 1159 1113 1420 752 
Q 1681 391 2138 391 
Q 2594 391 2855 752 
Q 3116 1113 3116 1747 
z
M 1159 2969 
Q 1341 3281 1617 3432 
Q 1894 3584 2278 3584 
Q 2916 3584 3314 3078 
Q 3713 2572 3713 1747 
Q 3713 922 3314 415 
Q 2916 -91 2278 -91 
Q 1894 -91 1617 61 
Q 1341 213 1159 525 
L 1159 0 
L 581 0 
L 581 4863 
L 1159 4863 
L 1159 2969 
z
" transform="scale(0.015625)"/>
      <path id="DejaVuSans-66" d="M 2375 4863 
L 2375 4384 
L 1825 4384 
Q 1516 4384 1395 4259 
Q 1275 4134 1275 3809 
L 1275 3500 
L 2222 3500 
L 2222 3053 
L 1275 3053 
L 1275 0 
L 697 0 
L 697 3053 
L 147 3053 
L 147 3500 
L 697 3500 
L 697 3744 
Q 697 4328 969 4595 
Q 1241 4863 1831 4863 
L 2375 4863 
z
" transform="scale(0.015625)"/>
     </defs>
     <use xlink:href="#DejaVuSans-50"/>
     <use xlink:href="#DejaVuSans-6f" transform="translate(56.677734 0)"/>
     <use xlink:href="#DejaVuSans-70" transform="translate(117.859375 0)"/>
     <use xlink:href="#DejaVuSans-75" transform="translate(181.335938 0)"/>
     <use xlink:href="#DejaVuSans-6c" transform="translate(244.714844 0)"/>
     <use xlink:href="#DejaVuSans-61" transform="translate(272.498047 0)"/>
     <use xlink:href="#DejaVuSans-74" transform="translate(333.777344 0)"/>
     <use xlink:href="#DejaVuSans-69" transform="translate(372.986328 0)"/>
     <use xlink:href="#DejaVuSans-6f" transform="translate(400.769531 0)"/>
     <use xlink:href="#DejaVuSans-6e" transform="translate(461.951172 0)"/>
     <use xlink:href="#DejaVuSans-27" transform="translate(525.330078 0)"/>
     <use xlink:href="#DejaVuSans-73" transform="translate(552.820312 0)"/>
     <use xlink:href="#DejaVuSans-20" transform="translate(604.919922 0)"/>
     <use xlink:href="#DejaVuSans-61" transform="translate(636.707031 0)"/>
     <use xlink:href="#DejaVuSans-76" transform="translate(697.986328 0)"/>
     <use xlink:href="#DejaVuSans-65" transform="translate(757.166016 0)"/>
     <use xlink:href="#DejaVuSans-72" transform="translate(818.689453 0)"/>
     <use xlink:href="#DejaVuSans-61" transform="translate(859.802734 0)"/>
     <use xlink:href="#DejaVuSans-67" transform="translate(921.082031 0)"/>
     <use xlink:href="#DejaVuSans-65" transform="translate(984.558594 0)"/>
     <use xlink:href="#DejaVuSans-20" transform="translate(1046.082031 0)"/>
     <use xlink:href="#DejaVuSans-61" transform="translate(1077.869141 0)"/>
     <use xlink:href="#DejaVuSans-6e" transform="translate(1139.148438 0)"/>
     <use xlink:href="#DejaVuSans-64" transform="translate(1202.527344 0)"/>
     <use xlink:href="#DejaVuSans-20" transform="translate(1266.003906 0)"/>
     <use xlink:href="#DejaVuSans-62" transform="translate(1297.791016 0)"/>
     <use xlink:href="#DejaVuSans-65" transform="translate(1361.267578 0)"/>
     <use xlink:href="#DejaVuSans-73" transform="translate(1422.791016 0)"/>
     <use xlink:href="#DejaVuSans-74" transform="translate(1474.890625 0)"/>
     <use xlink:href="#DejaVuSans-20" transform="translate(1514.099609 0)"/>
     <use xlink:href="#DejaVuSans-66" transform="translate(1545.886719 0)"/>
     <use xlink:href="#DejaVuSans-69" transform="translate(1581.091797 0)"/>
     <use xlink:href="#DejaVuSans-74" transform="translate(1608.875 0)"/>
     <use xlink:href="#DejaVuSans-6e" transform="translate(1648.083984 0)"/>
     <use xlink:href="#DejaVuSans-65" transform="translate(1711.462891 0)"/>
     <use xlink:href="#DejaVuSans-73" transform="translate(1772.986328 0)"/>
     <use xlink:href="#DejaVuSans-73" transform="translate(1825.085938 0)"/>
    </g>
   </g>
   <g id="legend_1">
    <g id="patch_7">
     <path d="M 334.779375 302.584 
L 407.72 302.584 
Q 409.72 302.584 409.72 300.584 
L 409.72 257.549625 
Q 409.72 255.549625 407.72 255.549625 
L 334.779375 255.549625 
Q 332.779375 255.549625 332.779375 257.549625 
L 332.779375 300.584 
Q 332.779375 302.584 334.779375 302.584 
z
" style="fill: #ffffff; opacity: 0.8; stroke: #cccccc; stroke-linejoin: miter"/>
    </g>
    <g id="line2d_24">
     <path d="M 336.779375 263.648062 
L 346.779375 263.648062 
L 356.779375 263.648062 
" style="fill: none; stroke: #0000ff; stroke-width: 1.5; stroke-linecap: square"/>
    </g>
    <g id="text_14">
     <!-- average -->
     <g transform="translate(364.779375 267.148062) scale(0.1 -0.1)">
      <use xlink:href="#DejaVuSans-61"/>
      <use xlink:href="#DejaVuSans-76" transform="translate(61.279297 0)"/>
      <use xlink:href="#DejaVuSans-65" transform="translate(120.458984 0)"/>
      <use xlink:href="#DejaVuSans-72" transform="translate(181.982422 0)"/>
      <use xlink:href="#DejaVuSans-61" transform="translate(223.095703 0)"/>
      <use xlink:href="#DejaVuSans-67" transform="translate(284.375 0)"/>
      <use xlink:href="#DejaVuSans-65" transform="translate(347.851562 0)"/>
     </g>
    </g>
    <g id="line2d_25">
     <path d="M 336.779375 278.326188 
L 346.779375 278.326188 
L 356.779375 278.326188 
" style="fill: none; stroke-dasharray: 9.6,2.4,1.5,2.4; stroke-dashoffset: 0; stroke: #008000; stroke-width: 1.5"/>
    </g>
    <g id="text_15">
     <!-- +1 sd -->
     <g transform="translate(364.779375 281.826188) scale(0.1 -0.1)">
      <defs>
       <path id="DejaVuSans-2b" d="M 2944 4013 
L 2944 2272 
L 4684 2272 
L 4684 1741 
L 2944 1741 
L 2944 0 
L 2419 0 
L 2419 1741 
L 678 1741 
L 678 2272 
L 2419 2272 
L 2419 4013 
L 2944 4013 
z
" transform="scale(0.015625)"/>
      </defs>
      <use xlink:href="#DejaVuSans-2b"/>
      <use xlink:href="#DejaVuSans-31" transform="translate(83.789062 0)"/>
      <use xlink:href="#DejaVuSans-20" transform="translate(147.412109 0)"/>
      <use xlink:href="#DejaVuSans-73" transform="translate(179.199219 0)"/>
      <use xlink:href="#DejaVuSans-64" transform="translate(231.298828 0)"/>
     </g>
    </g>
    <g id="line2d_26">
     <path d="M 336.779375 293.004312 
L 346.779375 293.004312 
L 356.779375 293.004312 
" style="fill: none; stroke: #ff0000; stroke-width: 1.5; stroke-linecap: square"/>
    </g>
    <g id="text_16">
     <!-- best -->
     <g transform="translate(364.779375 296.504312) scale(0.1 -0.1)">
      <use xlink:href="#DejaVuSans-62"/>
      <use xlink:href="#DejaVuSans-65" transform="translate(63.476562 0)"/>
      <use xlink:href="#DejaVuSans-73" transform="translate(125 0)"/>
      <use xlink:href="#DejaVuSans-74" transform="translate(177.099609 0)"/>
     </g>
    </g>
   </g>
  </g>
 </g>
 <defs>
  <clipPath id="pe79b5107c4">
   <rect x="57.6" y="41.472" width="357.12" height="266.112"/>
  </clipPath>
 </defs>
</svg>
