<?xml version="1.0" encoding="utf-8" standalone="no"?>
<!DOCTYPE svg PUBLIC "-//W3C//DTD SVG 1.1//EN"
  "http://www.w3.org/Graphics/SVG/1.1/DTD/svg11.dtd">
<svg xmlns:xlink="http://www.w3.org/1999/xlink" width="460.8pt" height="345.6pt" viewBox="0 0 460.8 345.6" xmlns="http://www.w3.org/2000/svg" version="1.1">
 <metadata>
  <rdf:RDF xmlns:dc="http://purl.org/dc/elements/1.1/" xmlns:cc="http://creativecommons.org/ns#" xmlns:rdf="http://www.w3.org/1999/02/22-rdf-syntax-ns#">
   <cc:Work>
    <dc:type rdf:resource="http://purl.org/dc/dcmitype/StillImage"/>
    <dc:date>2026-04-26T23:42:03.656159</dc:date>
    <dc:format>image/svg+xml</dc:format>
    <dc:creator>
     <cc:Agent>
      <dc:title>Matplotlib v3.10.8, https://matplotlib.org/</dc:title>
     </cc:Agent>
    </dc:creator>
   </cc:Work>
  </rdf:RDF>
 </metadata>
 <defs>
  <style type="text/css">*{stroke-linejoin: round; stroke-linecap: butt}</style>
 </defs>
 <g id="figure_1">
  <g id="patch_1">
   <path d="M 0 345.6 
L 460.8 345.6 
L 460.8 0 
L 0 0 
z
" style="fill: #ffffff"/>
  </g>
  <g id="axes_1">
   <g id="patch_2">
    <path d="M 57.6 307.584 
L 414.72 307.584 
L 414.72 41.472 
L 57.6 41.472 
z
" style="fill: #ffffff"/>
   </g>
   <g id="matplotlib.axis_1">
    <g id="xtick_1">
     <g id="line2d_1">
      <path d="M 72.201297 307.584 
L 72.201297 41.472 
" clip-path="url(#p7913878d42)" style="fill: none; stroke: #b0b0b0; stroke-width: 0.8; stroke-linecap: square"/>
     </g>
     <g id="line2d_2">
      <defs>
       <path id="m5477904dd3" d="M 0 0 
L 0 3.5 
" style="stroke: #000000; stroke-width: 0.8"/>
      </defs>
      <g>
       <use xlink:href="#m5477904dd3" x="72.201297" y="307.584" style="stroke: #000000; stroke-width: 0.8"/>
      </g>
     </g>
     <g id="text_1">
      <!-- 0 -->
      <g transform="translate(69.020047 322.182437) scale(0.1 -0.1)">
       <defs>
        <path id="DejaVuSans-30" d="M 2034 4250 
Q 1547 4250 1301 3770 
Q 1056 3291 1056 2328 
Q 1056 1369 1301 889 
Q 1547 409 2034 409 
Q 2525 409 2770 889 
Q 3016 1369 3016 2328 
Q 3016 3291 2770 3770 
Q 2525 4250 2034 4250 
z
M 2034 4750 
Q 2819 4750 3233 4129 
Q 3647 3509 3647 2328 
Q 3647 1150 3233 529 
Q 2819 -91 2034 -91 
Q 1250 -91 836 529 
Q 422 1150 422 2328 
Q 422 3509 836 4129 
Q 1250 4750 2034 4750 
z
" transform="scale(0.015625)"/>
       </defs>
       <use xlink:href="#DejaVuSans-30"/>
      </g>
     </g>
    </g>
    <g id="xtick_2">
     <g id="line2d_3">
      <path d="M 112.987044 307.584 
L 112.987044 41.472 
" clip-path="url(#p7913878d42)" style="fill: none; stroke: #b0b0b0; stroke-width: 0.8; stroke-linecap: square"/>
     </g>
     <g id="line2d_4">
      <g>
       <use xlink:href="#m5477904dd3" x="112.987044" y="307.584" style="stroke: #000000; stroke-width: 0.8"/>
      </g>
     </g>
     <g id="text_2">
      <!-- 25 -->
      <g transform="translate(106.624544 322.182437) scale(0.1 -0.1)">
       <defs>
        <path id="DejaVuSans-32" d="M 1228 531 
L 3431 531 
L 3431 0 
L 469 0 
L 469 531 
Q 828 903 1448 1529 
Q 2069 2156 2228 2338 
Q 2531 2678 2651 2914 
Q 2772 3150 2772 3378 
Q 2772 3750 2511 3984 
Q 2250 4219 1831 4219 
Q 1534 4219 1204 4116 
Q 875 4013 500 3803 
L 500 4441 
Q 881 4594 1212 4672 
Q 1544 4750 1819 4750 
Q 2544 4750 2975 4387 
Q 3406 4025 3406 3419 
Q 3406 3131 3298 2873 
Q 3191 2616 2906 2266 
Q 2828 2175 2409 1742 
Q 1991 1309 1228 531 
z
" transform="scale(0.015625)"/>
        <path id="DejaVuSans-35" d="M 691 4666 
L 3169 4666 
L 3169 4134 
L 1269 4134 
L 1269 2991 
Q 1406 3038 1543 3061 
Q 1681 3084 1819 3084 
Q 2600 3084 3056 2656 
Q 3513 2228 3513 1497 
Q 3513 744 3044 326 
Q 2575 -91 1722 -91 
Q 1428 -91 1123 -41 
Q 819 9 494 109 
L 494 744 
Q 775 591 1075 516 
Q 1375 441 1709 441 
Q 2250 441 2565 725 
Q 2881 1009 2881 1497 
Q 2881 1984 2565 2268 
Q 2250 2553 1709 2553 
Q 1456 2553 1204 2497 
Q 953 2441 691 2322 
L 691 4666 
z
" transform="scale(0.015625)"/>
       </defs>
       <use xlink:href="#DejaVuSans-32"/>
       <use xlink:href="#DejaVuSans-35" transform="translate(63.623047 0)"/>
      </g>
     </g>
    </g>
    <g id="xtick_3">
     <g id="line2d_5">
      <path d="M 153.772791 307.584 
L 153.772791 41.472 
" clip-path="url(#p7913878d42)" style="fill: none; stroke: #b0b0b0; stroke-width: 0.8; stroke-linecap: square"/>
     </g>
     <g id="line2d_6">
      <g>
       <use xlink:href="#m5477904dd3" x="153.772791" y="307.584" style="stroke: #000000; stroke-width: 0.8"/>
      </g>
     </g>
     <g id="text_3">
      <!-- 50 -->
      <g transform="translate(147.410291 322.182437) scale(0.1 -0.1)">
       <use xlink:href="#DejaVuSans-35"/>
       <use xlink:href="#DejaVuSans-30" transform="translate(63.623047 0)"/>
      </g>
     </g>
    </g>
    <g id="xtick_4">
     <g id="line2d_7">
      <path d="M 194.558538 307.584 
L 194.558538 41.472 
" clip-path="url(#p7913878d42)" style="fill: none; stroke: #b0b0b0; stroke-width: 0.8; stroke-linecap: square"/>
     </g>
     <g id="line2d_8">
      <g>
       <use xlink:href="#m5477904dd3" x="194.558538" y="307.584" style="stroke: #000000; stroke-width: 0.8"/>
      </g>
     </g>
     <g id="text_4">
      <!-- 75 -->
      <g transform="translate(188.196038 322.182437) scale(0.1 -0.1)">
       <defs>
        <path id="DejaVuSans-37" d="M 525 4666 
L 3525 4666 
L 3525 4397 
L 1831 0 
L 1172 0 
L 2766 4134 
L 525 4134 
L 525 4666 
z
" transform="scale(0.015625)"/>
       </defs>
       <use xlink:href="#DejaVuSans-37"/>
       <use xlink:href="#DejaVuSans-35" transform="translate(63.623047 0)"/>
      </g>
     </g>
    </g>
    <g id="xtick_5">
     <g id="line2d_9">
      <path d="M 235.344285 307.584 
L 235.344285 41.472 
" clip-path="url(#p7913878d42)" style="fill: none; stroke: #b0b0b0; stroke-width: 0.8; stroke-linecap: square"/>
     </g>
     <g id="line2d_10">
      <g>
       <use xlink:href="#m5477904dd3" x="235.344285" y="307.584" style="stroke: #000000; stroke-width: 0.8"/>
      </g>
     </g>
     <g id="text_5">
      <!-- 100 -->
      <g transform="translate(225.800535 322.182437) scale(0.1 -0.1)">
       <defs>
        <path id="DejaVuSans-31" d="M 794 531 
L 1825 531 
L 1825 4091 
L 703 3866 
L 703 4441 
L 1819 4666 
L 2450 4666 
L 2450 531 
L 3481 531 
L 3481 0 
L 794 0 
L 794 531 
z
" transform="scale(0.015625)"/>
       </defs>
       <use xlink:href="#DejaVuSans-31"/>
       <use xlink:href="#DejaVuSans-30" transform="translate(63.623047 0)"/>
       <use xlink:href="#DejaVuSans-30" transform="translate(127.246094 0)"/>
      </g>
     </g>
    </g>
    <g id="xtick_6">
     <g id="line2d_11">
      <path d="M 276.130032 307.584 
L 276.130032 41.472 
" clip-path="url(#p7913878d42)" style="fill: none; stroke: #b0b0b0; stroke-width: 0.8; stroke-linecap: square"/>
     </g>
     <g id="line2d_12">
      <g>
       <use xlink:href="#m5477904dd3" x="276.130032" y="307.584" style="stroke: #000000; stroke-width: 0.8"/>
      </g>
     </g>
     <g id="text_6">
      <!-- 125 -->
      <g transform="translate(266.586282 322.182437) scale(0.1 -0.1)">
       <use xlink:href="#DejaVuSans-31"/>
       <use xlink:href="#DejaVuSans-32" transform="translate(63.623047 0)"/>
       <use xlink:href="#DejaVuSans-35" transform="translate(127.246094 0)"/>
      </g>
     </g>
    </g>
    <g id="xtick_7">
     <g id="line2d_13">
      <path d="M 316.915779 307.584 
L 316.915779 41.472 
" clip-path="url(#p7913878d42)" style="fill: none; stroke: #b0b0b0; stroke-width: 0.8; stroke-linecap: square"/>
     </g>
     <g id="line2d_14">
      <g>
       <use xlink:href="#m5477904dd3" x="316.915779" y="307.584" style="stroke: #000000; stroke-width: 0.8"/>
      </g>
     </g>
     <g id="text_7">
      <!-- 150 -->
      <g transform="translate(307.372029 322.182437) scale(0.1 -0.1)">
       <use xlink:href="#DejaVuSans-31"/>
       <use xlink:href="#DejaVuSans-35" transform="translate(63.623047 0)"/>
       <use xlink:href="#DejaVuSans-30" transform="translate(127.246094 0)"/>
      </g>
     </g>
    </g>
    <g id="xtick_8">
     <g id="line2d_15">
      <path d="M 357.701526 307.584 
L 357.701526 41.472 
" clip-path="url(#p7913878d42)" style="fill: none; stroke: #b0b0b0; stroke-width: 0.8; stroke-linecap: square"/>
     </g>
     <g id="line2d_16">
      <g>
       <use xlink:href="#m5477904dd3" x="357.701526" y="307.584" style="stroke: #000000; stroke-width: 0.8"/>
      </g>
     </g>
     <g id="text_8">
      <!-- 175 -->
      <g transform="translate(348.157776 322.182437) scale(0.1 -0.1)">
       <use xlink:href="#DejaVuSans-31"/>
       <use xlink:href="#DejaVuSans-37" transform="translate(63.623047 0)"/>
       <use xlink:href="#DejaVuSans-35" transform="translate(127.246094 0)"/>
      </g>
     </g>
    </g>
    <g id="xtick_9">
     <g id="line2d_17">
      <path d="M 398.487273 307.584 
L 398.487273 41.472 
" clip-path="url(#p7913878d42)" style="fill: none; stroke: #b0b0b0; stroke-width: 0.8; stroke-linecap: square"/>
     </g>
     <g id="line2d_18">
      <g>
       <use xlink:href="#m5477904dd3" x="398.487273" y="307.584" style="stroke: #000000; stroke-width: 0.8"/>
      </g>
     </g>
     <g id="text_9">
      <!-- 200 -->
      <g transform="translate(388.943523 322.182437) scale(0.1 -0.1)">
       <use xlink:href="#DejaVuSans-32"/>
       <use xlink:href="#DejaVuSans-30" transform="translate(63.623047 0)"/>
       <use xlink:href="#DejaVuSans-30" transform="translate(127.246094 0)"/>
      </g>
     </g>
    </g>
    <g id="text_10">
     <!-- Generacje -->
     <g transform="translate(210.629531 335.860562) scale(0.1 -0.1)">
      <defs>
       <path id="DejaVuSans-47" d="M 3809 666 
L 3809 1919 
L 2778 1919 
L 2778 2438 
L 4434 2438 
L 4434 434 
Q 4069 175 3628 42 
Q 3188 -91 2688 -91 
Q 1594 -91 976 548 
Q 359 1188 359 2328 
Q 359 3472 976 4111 
Q 1594 4750 2688 4750 
Q 3144 4750 3555 4637 
Q 3966 4525 4313 4306 
L 4313 3634 
Q 3963 3931 3569 4081 
Q 3175 4231 2741 4231 
Q 1884 4231 1454 3753 
Q 1025 3275 1025 2328 
Q 1025 1384 1454 906 
Q 1884 428 2741 428 
Q 3075 428 3337 486 
Q 3600 544 3809 666 
z
" transform="scale(0.015625)"/>
       <path id="DejaVuSans-65" d="M 3597 1894 
L 3597 1613 
L 953 1613 
Q 991 1019 1311 708 
Q 1631 397 2203 397 
Q 2534 397 2845 478 
Q 3156 559 3463 722 
L 3463 178 
Q 3153 47 2828 -22 
Q 2503 -91 2169 -91 
Q 1331 -91 842 396 
Q 353 884 353 1716 
Q 353 2575 817 3079 
Q 1281 3584 2069 3584 
Q 2775 3584 3186 3129 
Q 3597 2675 3597 1894 
z
M 3022 2063 
Q 3016 2534 2758 2815 
Q 2500 3097 2075 3097 
Q 1594 3097 1305 2825 
Q 1016 2553 972 2059 
L 3022 2063 
z
" transform="scale(0.015625)"/>
       <path id="DejaVuSans-6e" d="M 3513 2113 
L 3513 0 
L 2938 0 
L 2938 2094 
Q 2938 2591 2744 2837 
Q 2550 3084 2163 3084 
Q 1697 3084 1428 2787 
Q 1159 2491 1159 1978 
L 1159 0 
L 581 0 
L 581 3500 
L 1159 3500 
L 1159 2956 
Q 1366 3272 1645 3428 
Q 1925 3584 2291 3584 
Q 2894 3584 3203 3211 
Q 3513 2838 3513 2113 
z
" transform="scale(0.015625)"/>
       <path id="DejaVuSans-72" d="M 2631 2963 
Q 2534 3019 2420 3045 
Q 2306 3072 2169 3072 
Q 1681 3072 1420 2755 
Q 1159 2438 1159 1844 
L 1159 0 
L 581 0 
L 581 3500 
L 1159 3500 
L 1159 2956 
Q 1341 3275 1631 3429 
Q 1922 3584 2338 3584 
Q 2397 3584 2469 3576 
Q 2541 3569 2628 3553 
L 2631 2963 
z
" transform="scale(0.015625)"/>
       <path id="DejaVuSans-61" d="M 2194 1759 
Q 1497 1759 1228 1600 
Q 959 1441 959 1056 
Q 959 750 1161 570 
Q 1363 391 1709 391 
Q 2188 391 2477 730 
Q 2766 1069 2766 1631 
L 2766 1759 
L 2194 1759 
z
M 3341 1997 
L 3341 0 
L 2766 0 
L 2766 531 
Q 2569 213 2275 61 
Q 1981 -91 1556 -91 
Q 1019 -91 701 211 
Q 384 513 384 1019 
Q 384 1609 779 1909 
Q 1175 2209 1959 2209 
L 2766 2209 
L 2766 2266 
Q 2766 2663 2505 2880 
Q 2244 3097 1772 3097 
Q 1472 3097 1187 3025 
Q 903 2953 641 2809 
L 641 3341 
Q 956 3463 1253 3523 
Q 1550 3584 1831 3584 
Q 2591 3584 2966 3190 
Q 3341 2797 3341 1997 
z
" transform="scale(0.015625)"/>
       <path id="DejaVuSans-63" d="M 3122 3366 
L 3122 2828 
Q 2878 2963 2633 3030 
Q 2388 3097 2138 3097 
Q 1578 3097 1268 2742 
Q 959 2388 959 1747 
Q 959 1106 1268 751 
Q 1578 397 2138 397 
Q 2388 397 2633 464 
Q 2878 531 3122 666 
L 3122 134 
Q 2881 22 2623 -34 
Q 2366 -91 2075 -91 
Q 1284 -91 818 406 
Q 353 903 353 1747 
Q 353 2603 823 3093 
Q 1294 3584 2113 3584 
Q 2378 3584 2631 3529 
Q 2884 3475 3122 3366 
z
" transform="scale(0.015625)"/>
       <path id="DejaVuSans-6a" d="M 603 3500 
L 1178 3500 
L 1178 -63 
Q 1178 -731 923 -1031 
Q 669 -1331 103 -1331 
L -116 -1331 
L -116 -844 
L 38 -844 
Q 366 -844 484 -692 
Q 603 -541 603 -63 
L 603 3500 
z
M 603 4863 
L 1178 4863 
L 1178 4134 
L 603 4134 
L 603 4863 
z
" transform="scale(0.015625)"/>
      </defs>
      <use xlink:href="#DejaVuSans-47"/>
      <use xlink:href="#DejaVuSans-65" transform="translate(77.490234 0)"/>
      <use xlink:href="#DejaVuSans-6e" transform="translate(139.013672 0)"/>
      <use xlink:href="#DejaVuSans-65" transform="translate(202.392578 0)"/>
      <use xlink:href="#DejaVuSans-72" transform="translate(263.916016 0)"/>
      <use xlink:href="#DejaVuSans-61" transform="translate(305.029297 0)"/>
      <use xlink:href="#DejaVuSans-63" transform="translate(366.308594 0)"/>
      <use xlink:href="#DejaVuSans-6a" transform="translate(421.289062 0)"/>
      <use xlink:href="#DejaVuSans-65" transform="translate(449.072266 0)"/>
     </g>
    </g>
   </g>
   <g id="matplotlib.axis_2">
    <g id="ytick_1">
     <g id="line2d_19">
      <path d="M 57.6 133.397547 
L 414.72 133.397547 
" clip-path="url(#p7913878d42)" style="fill: none; stroke: #b0b0b0; stroke-width: 0.8; stroke-linecap: square"/>
     </g>
     <g id="line2d_20">
      <defs>
       <path id="mfae48a6def" d="M 0 0 
L -3.5 0 
" style="stroke: #000000; stroke-width: 0.8"/>
      </defs>
      <g>
       <use xlink:href="#mfae48a6def" x="57.6" y="133.397547" style="stroke: #000000; stroke-width: 0.8"/>
      </g>
     </g>
     <g id="text_11">
      <!-- $\mathdefault{10^{2}}$ -->
      <g transform="translate(33 137.196766) scale(0.1 -0.1)">
       <use xlink:href="#DejaVuSans-31" transform="translate(0 0.765625)"/>
       <use xlink:href="#DejaVuSans-30" transform="translate(63.623047 0.765625)"/>
       <use xlink:href="#DejaVuSans-32" transform="translate(128.203125 39.046875) scale(0.7)"/>
      </g>
     </g>
    </g>
    <g id="text_12">
     <!-- Przystosowanie -->
     <g transform="translate(26.920312 213.170187) rotate(-90) scale(0.1 -0.1)">
      <defs>
       <path id="DejaVuSans-50" d="M 1259 4147 
L 1259 2394 
L 2053 2394 
Q 2494 2394 2734 2622 
Q 2975 2850 2975 3272 
Q 2975 3691 2734 3919 
Q 2494 4147 2053 4147 
L 1259 4147 
z
M 628 4666 
L 2053 4666 
Q 2838 4666 3239 4311 
Q 3641 3956 3641 3272 
Q 3641 2581 3239 2228 
Q 2838 1875 2053 1875 
L 1259 1875 
L 1259 0 
L 628 0 
L 628 4666 
z
" transform="scale(0.015625)"/>
       <path id="DejaVuSans-7a" d="M 353 3500 
L 3084 3500 
L 3084 2975 
L 922 459 
L 3084 459 
L 3084 0 
L 275 0 
L 275 525 
L 2438 3041 
L 353 3041 
L 353 3500 
z
" transform="scale(0.015625)"/>
       <path id="DejaVuSans-79" d="M 2059 -325 
Q 1816 -950 1584 -1140 
Q 1353 -1331 966 -1331 
L 506 -1331 
L 506 -850 
L 844 -850 
Q 1081 -850 1212 -737 
Q 1344 -625 1503 -206 
L 1606 56 
L 191 3500 
L 800 3500 
L 1894 763 
L 2988 3500 
L 3597 3500 
L 2059 -325 
z
" transform="scale(0.015625)"/>
       <path id="DejaVuSans-73" d="M 2834 3397 
L 2834 2853 
Q 2591 2978 2328 3040 
Q 2066 3103 1784 3103 
Q 1356 3103 1142 2972 
Q 928 2841 928 2578 
Q 928 2378 1081 2264 
Q 1234 2150 1697 2047 
L 1894 2003 
Q 2506 1872 2764 1633 
Q 3022 1394 3022 966 
Q 3022 478 2636 193 
Q 2250 -91 1575 -91 
Q 1294 -91 989 -36 
Q 684 19 347 128 
L 347 722 
Q 666 556 975 473 
Q 1284 391 1588 391 
Q 1994 391 2212 530 
Q 2431 669 2431 922 
Q 2431 1156 2273 1281 
Q 2116 1406 1581 1522 
L 1381 1569 
Q 847 1681 609 1914 
Q 372 2147 372 2553 
Q 372 3047 722 3315 
Q 1072 3584 1716 3584 
Q 2034 3584 2315 3537 
Q 2597 3491 2834 3397 
z
" transform="scale(0.015625)"/>
       <path id="DejaVuSans-74" d="M 1172 4494 
L 1172 3500 
L 2356 3500 
L 2356 3053 
L 1172 3053 
L 1172 1153 
Q 1172 725 1289 603 
Q 1406 481 1766 481 
L 2356 481 
L 2356 0 
L 1766 0 
Q 1100 0 847 248 
Q 594 497 594 1153 
L 594 3053 
L 172 3053 
L 172 3500 
L 594 3500 
L 594 4494 
L 1172 4494 
z
" transform="scale(0.015625)"/>
       <path id="DejaVuSans-6f" d="M 1959 3097 
Q 1497 3097 1228 2736 
Q 959 2375 959 1747 
Q 959 1119 1226 758 
Q 1494 397 1959 397 
Q 2419 397 2687 759 
Q 2956 1122 2956 1747 
Q 2956 2369 2687 2733 
Q 2419 3097 1959 3097 
z
M 1959 3584 
Q 2709 3584 3137 3096 
Q 3566 2609 3566 1747 
Q 3566 888 3137 398 
Q 2709 -91 1959 -91 
Q 1206 -91 779 398 
Q 353 888 353 1747 
Q 353 2609 779 3096 
Q 1206 3584 1959 3584 
z
" transform="scale(0.015625)"/>
       <path id="DejaVuSans-77" d="M 269 3500 
L 844 3500 
L 1563 769 
L 2278 3500 
L 2956 3500 
L 3675 769 
L 4391 3500 
L 4966 3500 
L 4050 0 
L 3372 0 
L 2619 2869 
L 1863 0 
L 1184 0 
L 269 3500 
z
" transform="scale(0.015625)"/>
       <path id="DejaVuSans-69" d="M 603 3500 
L 1178 3500 
L 1178 0 
L 603 0 
L 603 3500 
z
M 603 4863 
L 1178 4863 
L 1178 4134 
L 603 4134 
L 603 4863 
z
" transform="scale(0.015625)"/>
      </defs>
      <use xlink:href="#DejaVuSans-50"/>
      <use xlink:href="#DejaVuSans-72" transform="translate(58.552734 0)"/>
      <use xlink:href="#DejaVuSans-7a" transform="translate(99.666016 0)"/>
      <use xlink:href="#DejaVuSans-79" transform="translate(152.15625 0)"/>
      <use xlink:href="#DejaVuSans-73" transform="translate(211.335938 0)"/>
      <use xlink:href="#DejaVuSans-74" transform="translate(263.435547 0)"/>
      <use xlink:href="#DejaVuSans-6f" transform="translate(302.644531 0)"/>
      <use xlink:href="#DejaVuSans-73" transform="translate(363.826172 0)"/>
      <use xlink:href="#DejaVuSans-6f" transform="translate(415.925781 0)"/>
      <use xlink:href="#DejaVuSans-77" transform="translate(477.107422 0)"/>
      <use xlink:href="#DejaVuSans-61" transform="translate(558.894531 0)"/>
      <use xlink:href="#DejaVuSans-6e" transform="translate(620.173828 0)"/>
      <use xlink:href="#DejaVuSans-69" transform="translate(683.552734 0)"/>
      <use xlink:href="#DejaVuSans-65" transform="translate(711.335938 0)"/>
     </g>
    </g>
   </g>
   <g id="line2d_21">
    <path d="M 73.832727 295.488 
L 75.464157 235.857716 
L 77.095587 197.903762 
L 78.727017 181.782992 
L 80.358447 185.231853 
L 81.989877 176.251792 
L 83.621307 170.970789 
L 85.252736 175.37336 
L 86.884166 176.164324 
L 90.147026 170.997447 
L 91.778456 174.383875 
L 93.409886 171.016141 
L 95.041316 170.257891 
L 96.672746 167.022617 
L 98.304175 164.149137 
L 99.935605 166.69995 
L 101.567035 165.604415 
L 103.198465 167.769528 
L 104.829895 167.045872 
L 106.461325 164.981551 
L 109.724185 167.678145 
L 111.355614 169.72331 
L 112.987044 169.249607 
L 114.618474 165.339135 
L 116.249904 167.333985 
L 117.881334 165.283896 
L 119.512764 166.181461 
L 121.144194 163.590424 
L 122.775624 165.648209 
L 124.407053 164.553863 
L 126.038483 165.73199 
L 127.669913 163.39531 
L 129.301343 166.998765 
L 130.932773 163.453103 
L 132.564203 164.512602 
L 134.195633 163.19856 
L 135.827063 163.817468 
L 137.458492 165.493039 
L 139.089922 165.272801 
L 140.721352 164.056757 
L 142.352782 163.989148 
L 143.984212 162.398749 
L 145.615642 164.622864 
L 147.247072 163.859419 
L 148.878502 164.689872 
L 150.509931 163.292674 
L 152.141361 162.408679 
L 153.772791 163.633915 
L 155.404221 164.139522 
L 157.035651 162.974058 
L 158.667081 161.428368 
L 160.298511 163.404621 
L 163.56137 163.046939 
L 165.1928 161.368225 
L 166.82423 161.765567 
L 168.45566 164.360694 
L 170.08709 160.688547 
L 171.71852 161.947872 
L 173.34995 160.857965 
L 174.98138 163.334245 
L 176.61281 163.613206 
L 178.244239 161.357785 
L 179.875669 160.831304 
L 181.507099 163.662854 
L 183.138529 159.689032 
L 184.769959 163.692042 
L 186.401389 160.146618 
L 188.032819 164.788337 
L 189.664249 163.51148 
L 191.295678 160.958038 
L 192.927108 160.845923 
L 194.558538 159.982805 
L 196.189968 158.588946 
L 197.821398 161.080254 
L 199.452828 159.541592 
L 201.084258 159.462612 
L 202.715688 162.219551 
L 204.347117 159.54939 
L 205.978547 162.994035 
L 207.609977 160.721504 
L 209.241407 160.996694 
L 210.872837 158.678465 
L 212.504267 161.669527 
L 214.135697 160.824947 
L 215.767127 160.160146 
L 217.398556 158.465872 
L 219.029986 160.543744 
L 220.661416 161.149999 
L 223.924276 161.865052 
L 225.555706 161.469497 
L 227.187136 159.834213 
L 228.818566 162.786296 
L 230.449995 161.519852 
L 232.081425 156.944048 
L 233.712855 162.120909 
L 235.344285 160.615736 
L 236.975715 161.492362 
L 238.607145 159.391147 
L 240.238575 158.304625 
L 241.870005 160.811796 
L 243.501434 160.137869 
L 245.132864 159.957367 
L 246.764294 158.640209 
L 248.395724 161.212985 
L 250.027154 157.861131 
L 251.658584 159.42006 
L 253.290014 163.09475 
L 254.921444 162.364351 
L 256.552873 162.051713 
L 258.184303 162.410865 
L 259.815733 163.194074 
L 261.447163 163.777246 
L 263.078593 161.218131 
L 264.710023 162.002074 
L 266.341453 162.200933 
L 267.972883 161.706332 
L 269.604312 162.004979 
L 271.235742 164.202724 
L 272.867172 163.408079 
L 274.498602 161.266707 
L 276.130032 161.508604 
L 277.761462 161.552282 
L 279.392892 162.231764 
L 281.024322 160.782726 
L 282.655751 162.277496 
L 284.287181 160.964146 
L 285.918611 162.684728 
L 287.550041 159.619233 
L 289.181471 160.91273 
L 290.812901 160.578605 
L 292.444331 160.635205 
L 294.075761 157.35425 
L 295.70719 155.625741 
L 297.33862 159.874367 
L 298.97005 158.288195 
L 300.60148 158.871546 
L 302.23291 158.515339 
L 303.86434 159.242228 
L 305.49577 160.475726 
L 307.1272 156.415107 
L 308.75863 157.451747 
L 310.390059 159.696205 
L 312.021489 153.635303 
L 313.652919 157.379381 
L 315.284349 156.575848 
L 316.915779 157.922997 
L 318.547209 158.071457 
L 320.178639 156.044287 
L 323.441498 156.267219 
L 325.072928 155.718718 
L 328.335788 155.607139 
L 329.967218 154.939528 
L 331.598648 157.685809 
L 333.230078 155.597309 
L 334.861508 156.864035 
L 338.124367 157.120595 
L 339.755797 155.798776 
L 341.387227 157.805471 
L 343.018657 154.544904 
L 344.650087 160.707415 
L 346.281517 160.32355 
L 347.912947 156.731855 
L 349.544376 157.47366 
L 351.175806 154.6231 
L 352.807236 158.199972 
L 354.438666 156.186009 
L 356.070096 157.033411 
L 357.701526 156.694875 
L 359.332956 156.696758 
L 360.964386 158.054077 
L 362.595815 159.744297 
L 364.227245 157.607773 
L 365.858675 156.235668 
L 367.490105 156.17865 
L 370.752965 158.224954 
L 372.384395 156.598239 
L 374.015825 159.019032 
L 375.647254 157.732451 
L 377.278684 156.713518 
L 378.910114 158.09404 
L 380.541544 156.852496 
L 382.172974 158.381524 
L 383.804404 155.325855 
L 385.435834 158.818289 
L 387.067264 155.507941 
L 388.698693 156.553318 
L 390.330123 156.610093 
L 391.961553 157.281877 
L 393.592983 158.755091 
L 395.224413 155.588971 
L 396.855843 156.949593 
L 398.487273 157.230682 
L 398.487273 157.230682 
" clip-path="url(#p7913878d42)" style="fill: none; stroke: #0000ff; stroke-width: 1.5; stroke-linecap: square"/>
   </g>
   <g id="line2d_22">
    <path d="M 73.832727 242.289983 
L 75.464157 183.972573 
L 77.095587 157.955742 
L 78.727017 145.356512 
L 80.358447 148.266303 
L 81.989877 146.249138 
L 83.621307 142.943234 
L 85.252736 148.810263 
L 86.884166 149.663933 
L 88.515596 147.255227 
L 91.778456 143.081228 
L 93.409886 142.850204 
L 95.041316 144.767628 
L 96.672746 143.328694 
L 98.304175 139.280457 
L 99.935605 143.372707 
L 103.198465 144.195353 
L 104.829895 142.618875 
L 106.461325 140.369111 
L 108.092755 143.390073 
L 109.724185 139.362673 
L 111.355614 143.724012 
L 112.987044 142.351018 
L 114.618474 138.350827 
L 116.249904 143.77343 
L 117.881334 141.811671 
L 119.512764 143.007527 
L 121.144194 139.703766 
L 122.775624 144.765668 
L 124.407053 142.038614 
L 126.038483 143.580788 
L 127.669913 140.829082 
L 129.301343 144.273131 
L 130.932773 138.047785 
L 134.195633 140.241338 
L 135.827063 142.687365 
L 137.458492 143.540463 
L 139.089922 143.05376 
L 140.721352 143.511751 
L 142.352782 141.592858 
L 143.984212 138.003871 
L 145.615642 144.306862 
L 147.247072 141.147317 
L 148.878502 141.750841 
L 150.509931 142.140064 
L 152.141361 140.861405 
L 153.772791 140.681365 
L 155.404221 143.212357 
L 157.035651 142.013088 
L 158.667081 140.960913 
L 160.298511 141.529044 
L 161.929941 141.281394 
L 163.56137 140.818585 
L 165.1928 138.057502 
L 166.82423 140.965454 
L 168.45566 142.726739 
L 170.08709 138.415418 
L 171.71852 139.198853 
L 173.34995 137.118669 
L 176.61281 143.293391 
L 178.244239 138.941531 
L 179.875669 138.129149 
L 181.507099 143.989697 
L 183.138529 136.597836 
L 184.769959 141.877908 
L 186.401389 138.330017 
L 188.032819 143.839047 
L 189.664249 142.028632 
L 191.295678 138.703283 
L 192.927108 137.9544 
L 194.558538 139.684962 
L 196.189968 137.488994 
L 197.821398 140.103997 
L 199.452828 137.185174 
L 201.084258 138.842919 
L 202.715688 140.967506 
L 204.347117 137.737826 
L 205.978547 143.08971 
L 207.609977 139.827219 
L 209.241407 140.828715 
L 210.872837 137.428399 
L 212.504267 139.394728 
L 214.135697 139.188389 
L 215.767127 139.562567 
L 217.398556 134.935954 
L 219.029986 139.069934 
L 220.661416 139.267021 
L 222.292846 140.914723 
L 223.924276 139.327534 
L 225.555706 140.904826 
L 227.187136 137.769269 
L 228.818566 142.756484 
L 230.449995 138.581012 
L 232.081425 133.368477 
L 233.712855 138.939246 
L 235.344285 138.299113 
L 236.975715 138.736506 
L 238.607145 135.99132 
L 240.238575 135.661284 
L 241.870005 140.271131 
L 243.501434 138.087106 
L 245.132864 139.546206 
L 246.764294 135.634657 
L 248.395724 139.278251 
L 250.027154 136.714816 
L 251.658584 137.761154 
L 253.290014 144.174157 
L 254.921444 139.213039 
L 256.552873 140.942279 
L 258.184303 140.609461 
L 259.815733 141.97441 
L 261.447163 143.714071 
L 263.078593 139.631362 
L 264.710023 142.209486 
L 266.341453 141.027145 
L 267.972883 137.989069 
L 269.604312 142.519898 
L 271.235742 141.115782 
L 272.867172 142.984831 
L 274.498602 138.883205 
L 276.130032 138.856753 
L 277.761462 137.856404 
L 279.392892 139.008562 
L 281.024322 138.108343 
L 282.655751 140.343785 
L 284.287181 139.447323 
L 285.918611 140.768848 
L 287.550041 137.998271 
L 289.181471 142.018826 
L 290.812901 138.555179 
L 292.444331 139.348925 
L 294.075761 137.100689 
L 295.70719 135.243922 
L 297.33862 138.408264 
L 298.97005 137.625548 
L 300.60148 138.114078 
L 302.23291 137.015658 
L 303.86434 138.283247 
L 305.49577 138.068843 
L 307.1272 134.211157 
L 308.75863 136.41387 
L 310.390059 135.645254 
L 312.021489 133.079199 
L 313.652919 138.289067 
L 315.284349 135.271431 
L 316.915779 135.189992 
L 318.547209 136.529307 
L 320.178639 135.907454 
L 321.810069 134.49451 
L 323.441498 134.734835 
L 325.072928 133.751912 
L 326.704358 133.013568 
L 328.335788 132.547089 
L 329.967218 132.734286 
L 331.598648 136.296654 
L 334.861508 133.669399 
L 336.492937 133.257381 
L 338.124367 135.313979 
L 339.755797 135.006495 
L 341.387227 135.858804 
L 343.018657 133.310954 
L 344.650087 138.477603 
L 346.281517 137.765999 
L 347.912947 133.760419 
L 349.544376 136.971959 
L 351.175806 131.66181 
L 352.807236 137.067414 
L 354.438666 134.600143 
L 356.070096 134.778583 
L 357.701526 133.79072 
L 359.332956 134.632214 
L 360.964386 134.579304 
L 362.595815 138.539499 
L 364.227245 134.289595 
L 365.858675 133.414519 
L 367.490105 134.187407 
L 369.121535 136.644874 
L 370.752965 136.380819 
L 372.384395 134.78834 
L 374.015825 139.222094 
L 375.647254 134.784789 
L 377.278684 135.53546 
L 378.910114 136.794368 
L 380.541544 134.55624 
L 382.172974 135.659305 
L 383.804404 132.499836 
L 385.435834 135.399639 
L 387.067264 130.858894 
L 388.698693 134.966627 
L 390.330123 133.43852 
L 391.961553 135.494282 
L 393.592983 139.550587 
L 395.224413 133.331714 
L 396.855843 134.43387 
L 398.487273 134.459148 
L 398.487273 134.459148 
" clip-path="url(#p7913878d42)" style="fill: none; stroke-dasharray: 9.6,2.4,1.5,2.4; stroke-dashoffset: 0; stroke: #008000; stroke-width: 1.5"/>
   </g>
   <g id="line2d_23">
    <path d="M 73.832727 122.300946 
L 75.464157 100.150394 
L 77.095587 103.954423 
L 78.727017 108.676619 
L 80.358447 117.918423 
L 81.989877 104.178949 
L 83.621307 109.095465 
L 85.252736 113.156268 
L 88.515596 113.188145 
L 90.147026 108.406396 
L 91.778456 80.273513 
L 93.409886 91.395322 
L 95.041316 117.225036 
L 96.672746 80.948087 
L 98.304175 87.674525 
L 99.935605 100.203352 
L 101.567035 87.921203 
L 103.198465 108.542604 
L 104.829895 91.654095 
L 106.461325 66.480061 
L 108.092755 92.21832 
L 109.724185 73.537949 
L 111.355614 87.838653 
L 112.987044 108.493005 
L 114.618474 80.212452 
L 116.249904 99.902789 
L 117.881334 88.571909 
L 119.512764 95.77116 
L 121.144194 84.310109 
L 122.775624 108.68541 
L 124.407053 72.660996 
L 126.038483 104.333717 
L 127.669913 69.51839 
L 129.301343 95.677578 
L 130.932773 84.322085 
L 132.564203 100.228743 
L 134.195633 100.042969 
L 135.827063 95.934121 
L 137.458492 104.773372 
L 139.089922 95.749093 
L 140.721352 92.245111 
L 142.352782 108.526557 
L 143.984212 92.738363 
L 145.615642 112.63085 
L 147.247072 80.702918 
L 148.878502 95.529164 
L 150.509931 88.239084 
L 152.141361 96.313034 
L 153.772791 95.975468 
L 155.404221 112.949407 
L 157.035651 104.3628 
L 158.667081 84.039493 
L 160.298511 84.458911 
L 161.929941 87.781574 
L 163.56137 91.937999 
L 165.1928 76.531562 
L 166.82423 92.349956 
L 168.45566 104.014114 
L 170.08709 87.888551 
L 171.71852 62.996547 
L 173.34995 76.279322 
L 174.98138 103.979875 
L 176.61281 96.068496 
L 178.244239 83.785467 
L 179.875669 81.017953 
L 181.507099 104.220883 
L 183.138529 80.42432 
L 184.769959 104.71928 
L 186.401389 76.69807 
L 188.032819 100.096508 
L 189.664249 108.692916 
L 191.295678 96.461964 
L 192.927108 87.808151 
L 194.558538 95.435785 
L 196.189968 91.985281 
L 197.821398 87.907428 
L 199.452828 96.200061 
L 202.715688 87.734173 
L 204.347117 87.875002 
L 205.978547 108.358069 
L 207.609977 104.081113 
L 209.241407 96.321779 
L 210.872837 80.412223 
L 212.504267 103.761531 
L 214.135697 89.11634 
L 215.767127 108.35952 
L 217.398556 87.814488 
L 219.029986 95.792008 
L 220.661416 91.374628 
L 222.292846 73.234358 
L 223.924276 84.302127 
L 225.555706 91.669783 
L 227.187136 92.034295 
L 228.818566 113.011929 
L 230.449995 84.623911 
L 233.712855 91.722046 
L 235.344285 95.981769 
L 236.975715 96.694795 
L 238.607145 91.796233 
L 240.238575 76.597153 
L 241.870005 87.921555 
L 243.501434 84.793928 
L 245.132864 103.971082 
L 246.764294 87.731065 
L 248.395724 76.720909 
L 250.027154 83.994333 
L 251.658584 88.519943 
L 253.290014 104.179292 
L 254.921444 80.391112 
L 256.552873 92.057734 
L 258.184303 91.889033 
L 259.815733 100.095001 
L 261.447163 104.78568 
L 263.078593 95.966186 
L 264.710023 113.146311 
L 266.341453 103.966766 
L 267.972883 56.257995 
L 269.604312 108.506817 
L 271.235742 76.296773 
L 272.867172 100.25469 
L 274.498602 83.924839 
L 276.130032 63.306733 
L 277.761462 87.91663 
L 279.392892 63.10942 
L 281.024322 91.860361 
L 282.655751 76.536323 
L 284.287181 95.902867 
L 285.918611 99.998275 
L 287.550041 96.084791 
L 289.181471 108.464396 
L 290.812901 92.479654 
L 292.444331 87.902342 
L 294.075761 72.960718 
L 295.70719 96.145154 
L 297.33862 80.881597 
L 298.97005 95.829238 
L 300.60148 80.387367 
L 302.23291 79.825111 
L 303.86434 84.485901 
L 305.49577 92.045648 
L 307.1272 59.707746 
L 308.75863 84.045172 
L 310.390059 73.430726 
L 312.021489 91.84207 
L 313.652919 104.307396 
L 315.284349 96.007138 
L 316.915779 91.65721 
L 320.178639 76.794648 
L 321.810069 73.080636 
L 323.441498 91.678877 
L 325.072928 80.454189 
L 326.704358 53.568 
L 328.335788 80.291702 
L 329.967218 100.004341 
L 331.598648 73.381893 
L 333.230078 76.826836 
L 334.861508 91.890912 
L 336.492937 76.964382 
L 338.124367 91.974586 
L 339.755797 95.487836 
L 341.387227 87.991926 
L 343.018657 92.495497 
L 344.650087 73.771218 
L 346.281517 80.402529 
L 347.912947 66.58814 
L 349.544376 80.580937 
L 351.175806 76.662072 
L 352.807236 77.164357 
L 354.438666 76.645699 
L 356.070096 88.029827 
L 357.701526 73.19998 
L 359.332956 70.012053 
L 360.964386 84.511816 
L 362.595815 83.801139 
L 364.227245 73.182719 
L 365.858675 92.512237 
L 367.490105 95.774946 
L 369.121535 91.656838 
L 370.752965 88.520455 
L 372.384395 76.999017 
L 374.015825 99.958127 
L 375.647254 87.807296 
L 377.278684 66.237015 
L 378.910114 87.734219 
L 380.541544 81.047657 
L 382.172974 92.052445 
L 383.804404 83.703541 
L 385.435834 69.277271 
L 387.067264 66.6755 
L 388.698693 80.525297 
L 390.330123 83.921541 
L 391.961553 92.49891 
L 393.592983 95.310931 
L 395.224413 62.739533 
L 396.855843 95.917981 
L 398.487273 72.72705 
L 398.487273 72.72705 
" clip-path="url(#p7913878d42)" style="fill: none; stroke: #ff0000; stroke-width: 1.5; stroke-linecap: square"/>
   </g>
   <g id="patch_3">
    <path d="M 57.6 307.584 
L 57.6 41.472 
" style="fill: none; stroke: #000000; stroke-width: 0.8; stroke-linejoin: miter; stroke-linecap: square"/>
   </g>
   <g id="patch_4">
    <path d="M 414.72 307.584 
L 414.72 41.472 
" style="fill: none; stroke: #000000; stroke-width: 0.8; stroke-linejoin: miter; stroke-linecap: square"/>
   </g>
   <g id="patch_5">
    <path d="M 57.6 307.584 
L 414.72 307.584 
" style="fill: none; stroke: #000000; stroke-width: 0.8; stroke-linejoin: miter; stroke-linecap: square"/>
   </g>
   <g id="patch_6">
    <path d="M 57.6 41.472 
L 414.72 41.472 
" style="fill: none; stroke: #000000; stroke-width: 0.8; stroke-linejoin: miter; stroke-linecap: square"/>
   </g>
   <g id="text_13">
    <!-- Średnie i najlepsze przystosowanie w każdej generacji -->
    <g transform="translate(73.26 35.472) scale(0.12 -0.12)">
     <defs>
      <path id="DejaVuSans-15a" d="M 2236 5921 
L 2814 5921 
L 2102 5096 
L 1623 5096 
L 2236 5921 
z
M 3425 4513 
L 3425 3897 
Q 3066 4069 2747 4153 
Q 2428 4238 2131 4238 
Q 1616 4238 1336 4038 
Q 1056 3838 1056 3469 
Q 1056 3159 1242 3001 
Q 1428 2844 1947 2747 
L 2328 2669 
Q 3034 2534 3370 2195 
Q 3706 1856 3706 1288 
Q 3706 609 3251 259 
Q 2797 -91 1919 -91 
Q 1588 -91 1214 -16 
Q 841 59 441 206 
L 441 856 
Q 825 641 1194 531 
Q 1563 422 1919 422 
Q 2459 422 2753 634 
Q 3047 847 3047 1241 
Q 3047 1584 2836 1778 
Q 2625 1972 2144 2069 
L 1759 2144 
Q 1053 2284 737 2584 
Q 422 2884 422 3419 
Q 422 4038 858 4394 
Q 1294 4750 2059 4750 
Q 2388 4750 2728 4690 
Q 3069 4631 3425 4513 
z
" transform="scale(0.015625)"/>
      <path id="DejaVuSans-64" d="M 2906 2969 
L 2906 4863 
L 3481 4863 
L 3481 0 
L 2906 0 
L 2906 525 
Q 2725 213 2448 61 
Q 2172 -91 1784 -91 
Q 1150 -91 751 415 
Q 353 922 353 1747 
Q 353 2572 751 3078 
Q 1150 3584 1784 3584 
Q 2172 3584 2448 3432 
Q 2725 3281 2906 2969 
z
M 947 1747 
Q 947 1113 1208 752 
Q 1469 391 1925 391 
Q 2381 391 2643 752 
Q 2906 1113 2906 1747 
Q 2906 2381 2643 2742 
Q 2381 3103 1925 3103 
Q 1469 3103 1208 2742 
Q 947 2381 947 1747 
z
" transform="scale(0.015625)"/>
      <path id="DejaVuSans-20" transform="scale(0.015625)"/>
      <path id="DejaVuSans-6c" d="M 603 4863 
L 1178 4863 
L 1178 0 
L 603 0 
L 603 4863 
z
" transform="scale(0.015625)"/>
      <path id="DejaVuSans-70" d="M 1159 525 
L 1159 -1331 
L 581 -1331 
L 581 3500 
L 1159 3500 
L 1159 2969 
Q 1341 3281 1617 3432 
Q 1894 3584 2278 3584 
Q 2916 3584 3314 3078 
Q 3713 2572 3713 1747 
Q 3713 922 3314 415 
Q 2916 -91 2278 -91 
Q 1894 -91 1617 61 
Q 1341 213 1159 525 
z
M 3116 1747 
Q 3116 2381 2855 2742 
Q 2594 3103 2138 3103 
Q 1681 3103 1420 2742 
Q 1159 2381 1159 1747 
Q 1159 1113 1420 752 
Q 1681 391 2138 391 
Q 2594 391 2855 752 
Q 3116 1113 3116 1747 
z
" transform="scale(0.015625)"/>
      <path id="DejaVuSans-6b" d="M 581 4863 
L 1159 4863 
L 1159 1991 
L 2875 3500 
L 3609 3500 
L 1753 1863 
L 3688 0 
L 2938 0 
L 1159 1709 
L 1159 0 
L 581 0 
L 581 4863 
z
" transform="scale(0.015625)"/>
      <path id="DejaVuSans-17c" d="M 1378 4863 
L 1953 4863 
L 1953 4134 
L 1378 4134 
L 1378 4863 
z
M 1672 3584 
L 1672 3584 
z
M 353 3500 
L 3084 3500 
L 3084 2975 
L 922 459 
L 3084 459 
L 3084 0 
L 275 0 
L 275 525 
L 2438 3041 
L 353 3041 
L 353 3500 
z
" transform="scale(0.015625)"/>
      <path id="DejaVuSans-67" d="M 2906 1791 
Q 2906 2416 2648 2759 
Q 2391 3103 1925 3103 
Q 1463 3103 1205 2759 
Q 947 2416 947 1791 
Q 947 1169 1205 825 
Q 1463 481 1925 481 
Q 2391 481 2648 825 
Q 2906 1169 2906 1791 
z
M 3481 434 
Q 3481 -459 3084 -895 
Q 2688 -1331 1869 -1331 
Q 1566 -1331 1297 -1286 
Q 1028 -1241 775 -1147 
L 775 -588 
Q 1028 -725 1275 -790 
Q 1522 -856 1778 -856 
Q 2344 -856 2625 -561 
Q 2906 -266 2906 331 
L 2906 616 
Q 2728 306 2450 153 
Q 2172 0 1784 0 
Q 1141 0 747 490 
Q 353 981 353 1791 
Q 353 2603 747 3093 
Q 1141 3584 1784 3584 
Q 2172 3584 2450 3431 
Q 2728 3278 2906 2969 
L 2906 3500 
L 3481 3500 
L 3481 434 
z
" transform="scale(0.015625)"/>
     </defs>
     <use xlink:href="#DejaVuSans-15a"/>
     <use xlink:href="#DejaVuSans-72" transform="translate(63.476562 0)"/>
     <use xlink:href="#DejaVuSans-65" transform="translate(102.339844 0)"/>
     <use xlink:href="#DejaVuSans-64" transform="translate(163.863281 0)"/>
     <use xlink:href="#DejaVuSans-6e" transform="translate(227.339844 0)"/>
     <use xlink:href="#DejaVuSans-69" transform="translate(290.71875 0)"/>
     <use xlink:href="#DejaVuSans-65" transform="translate(318.501953 0)"/>
     <use xlink:href="#DejaVuSans-20" transform="translate(380.025391 0)"/>
     <use xlink:href="#DejaVuSans-69" transform="translate(411.8125 0)"/>
     <use xlink:href="#DejaVuSans-20" transform="translate(439.595703 0)"/>
     <use xlink:href="#DejaVuSans-6e" transform="translate(471.382812 0)"/>
     <use xlink:href="#DejaVuSans-61" transform="translate(534.761719 0)"/>
     <use xlink:href="#DejaVuSans-6a" transform="translate(596.041016 0)"/>
     <use xlink:href="#DejaVuSans-6c" transform="translate(623.824219 0)"/>
     <use xlink:href="#DejaVuSans-65" transform="translate(651.607422 0)"/>
     <use xlink:href="#DejaVuSans-70" transform="translate(713.130859 0)"/>
     <use xlink:href="#DejaVuSans-73" transform="translate(776.607422 0)"/>
     <use xlink:href="#DejaVuSans-7a" transform="translate(828.707031 0)"/>
     <use xlink:href="#DejaVuSans-65" transform="translate(881.197266 0)"/>
     <use xlink:href="#DejaVuSans-20" transform="translate(942.720703 0)"/>
     <use xlink:href="#DejaVuSans-70" transform="translate(974.507812 0)"/>
     <use xlink:href="#DejaVuSans-72" transform="translate(1037.984375 0)"/>
     <use xlink:href="#DejaVuSans-7a" transform="translate(1079.097656 0)"/>
     <use xlink:href="#DejaVuSans-79" transform="translate(1131.587891 0)"/>
     <use xlink:href="#DejaVuSans-73" transform="translate(1190.767578 0)"/>
     <use xlink:href="#DejaVuSans-74" transform="translate(1242.867188 0)"/>
     <use xlink:href="#DejaVuSans-6f" transform="translate(1282.076172 0)"/>
     <use xlink:href="#DejaVuSans-73" transform="translate(1343.257812 0)"/>
     <use xlink:href="#DejaVuSans-6f" transform="translate(1395.357422 0)"/>
     <use xlink:href="#DejaVuSans-77" transform="translate(1456.539062 0)"/>
     <use xlink:href="#DejaVuSans-61" transform="translate(1538.326172 0)"/>
     <use xlink:href="#DejaVuSans-6e" transform="translate(1599.605469 0)"/>
     <use xlink:href="#DejaVuSans-69" transform="translate(1662.984375 0)"/>
     <use xlink:href="#DejaVuSans-65" transform="translate(1690.767578 0)"/>
     <use xlink:href="#DejaVuSans-20" transform="translate(1752.291016 0)"/>
     <use xlink:href="#DejaVuSans-77" transform="translate(1784.078125 0)"/>
     <use xlink:href="#DejaVuSans-20" transform="translate(1865.865234 0)"/>
     <use xlink:href="#DejaVuSans-6b" transform="translate(1897.652344 0)"/>
     <use xlink:href="#DejaVuSans-61" transform="translate(1953.8125 0)"/>
     <use xlink:href="#DejaVuSans-17c" transform="translate(2015.091797 0)"/>
     <use xlink:href="#DejaVuSans-64" transform="translate(2067.582031 0)"/>
     <use xlink:href="#DejaVuSans-65" transform="translate(2131.058594 0)"/>
     <use xlink:href="#DejaVuSans-6a" transform="translate(2192.582031 0)"/>
     <use xlink:href="#DejaVuSans-20" transform="translate(2220.365234 0)"/>
     <use xlink:href="#DejaVuSans-67" transform="translate(2252.152344 0)"/>
     <use xlink:href="#DejaVuSans-65" transform="translate(2315.628906 0)"/>
     <use xlink:href="#DejaVuSans-6e" transform="translate(2377.152344 0)"/>
     <use xlink:href="#DejaVuSans-65" transform="translate(2440.53125 0)"/>
     <use xlink:href="#DejaVuSans-72" transform="translate(2502.054688 0)"/>
     <use xlink:href="#DejaVuSans-61" transform="translate(2543.167969 0)"/>
     <use xlink:href="#DejaVuSans-63" transform="translate(2604.447266 0)"/>
     <use xlink:href="#DejaVuSans-6a" transform="translate(2659.427734 0)"/>
     <use xlink:href="#DejaVuSans-69" transform="translate(2687.210938 0)"/>
    </g>
   </g>
   <g id="legend_1">
    <g id="patch_7">
     <path d="M 279.790313 302.584 
L 407.72 302.584 
Q 409.72 302.584 409.72 300.584 
L 409.72 257.549625 
Q 409.72 255.549625 407.72 255.549625 
L 279.790313 255.549625 
Q 277.790313 255.549625 277.790313 257.549625 
L 277.790313 300.584 
Q 277.790313 302.584 279.790313 302.584 
z
" style="fill: #ffffff; opacity: 0.8; stroke: #cccccc; stroke-linejoin: miter"/>
    </g>
    <g id="line2d_24">
     <path d="M 281.790313 263.648062 
L 291.790313 263.648062 
L 301.790313 263.648062 
" style="fill: none; stroke: #0000ff; stroke-width: 1.5; stroke-linecap: square"/>
    </g>
    <g id="text_14">
     <!-- Średnia -->
     <g transform="translate(309.790313 267.148062) scale(0.1 -0.1)">
      <use xlink:href="#DejaVuSans-15a"/>
      <use xlink:href="#DejaVuSans-72" transform="translate(63.476562 0)"/>
      <use xlink:href="#DejaVuSans-65" transform="translate(102.339844 0)"/>
      <use xlink:href="#DejaVuSans-64" transform="translate(163.863281 0)"/>
      <use xlink:href="#DejaVuSans-6e" transform="translate(227.339844 0)"/>
      <use xlink:href="#DejaVuSans-69" transform="translate(290.71875 0)"/>
      <use xlink:href="#DejaVuSans-61" transform="translate(318.501953 0)"/>
     </g>
    </g>
    <g id="line2d_25">
     <path d="M 281.790313 278.326188 
L 291.790313 278.326188 
L 301.790313 278.326188 
" style="fill: none; stroke-dasharray: 9.6,2.4,1.5,2.4; stroke-dashoffset: 0; stroke: #008000; stroke-width: 1.5"/>
    </g>
    <g id="text_15">
     <!-- ±1 Odchylenie std. -->
     <g transform="translate(309.790313 281.826188) scale(0.1 -0.1)">
      <defs>
       <path id="DejaVuSans-b1" d="M 2944 4013 
L 2944 2803 
L 4684 2803 
L 4684 2272 
L 2944 2272 
L 2944 1063 
L 2419 1063 
L 2419 2272 
L 678 2272 
L 678 2803 
L 2419 2803 
L 2419 4013 
L 2944 4013 
z
M 678 531 
L 4684 531 
L 4684 0 
L 678 0 
L 678 531 
z
" transform="scale(0.015625)"/>
       <path id="DejaVuSans-4f" d="M 2522 4238 
Q 1834 4238 1429 3725 
Q 1025 3213 1025 2328 
Q 1025 1447 1429 934 
Q 1834 422 2522 422 
Q 3209 422 3611 934 
Q 4013 1447 4013 2328 
Q 4013 3213 3611 3725 
Q 3209 4238 2522 4238 
z
M 2522 4750 
Q 3503 4750 4090 4092 
Q 4678 3434 4678 2328 
Q 4678 1225 4090 567 
Q 3503 -91 2522 -91 
Q 1538 -91 948 565 
Q 359 1222 359 2328 
Q 359 3434 948 4092 
Q 1538 4750 2522 4750 
z
" transform="scale(0.015625)"/>
       <path id="DejaVuSans-68" d="M 3513 2113 
L 3513 0 
L 2938 0 
L 2938 2094 
Q 2938 2591 2744 2837 
Q 2550 3084 2163 3084 
Q 1697 3084 1428 2787 
Q 1159 2491 1159 1978 
L 1159 0 
L 581 0 
L 581 4863 
L 1159 4863 
L 1159 2956 
Q 1366 3272 1645 3428 
Q 1925 3584 2291 3584 
Q 2894 3584 3203 3211 
Q 3513 2838 3513 2113 
z
" transform="scale(0.015625)"/>
       <path id="DejaVuSans-2e" d="M 684 794 
L 1344 794 
L 1344 0 
L 684 0 
L 684 794 
z
" transform="scale(0.015625)"/>
      </defs>
      <use xlink:href="#DejaVuSans-b1"/>
      <use xlink:href="#DejaVuSans-31" transform="translate(83.789062 0)"/>
      <use xlink:href="#DejaVuSans-20" transform="translate(147.412109 0)"/>
      <use xlink:href="#DejaVuSans-4f" transform="translate(179.199219 0)"/>
      <use xlink:href="#DejaVuSans-64" transform="translate(257.910156 0)"/>
      <use xlink:href="#DejaVuSans-63" transform="translate(321.386719 0)"/>
      <use xlink:href="#DejaVuSans-68" transform="translate(376.367188 0)"/>
      <use xlink:href="#DejaVuSans-79" transform="translate(439.746094 0)"/>
      <use xlink:href="#DejaVuSans-6c" transform="translate(498.925781 0)"/>
      <use xlink:href="#DejaVuSans-65" transform="translate(526.708984 0)"/>
      <use xlink:href="#DejaVuSans-6e" transform="translate(588.232422 0)"/>
      <use xlink:href="#DejaVuSans-69" transform="translate(651.611328 0)"/>
      <use xlink:href="#DejaVuSans-65" transform="translate(679.394531 0)"/>
      <use xlink:href="#DejaVuSans-20" transform="translate(740.917969 0)"/>
      <use xlink:href="#DejaVuSans-73" transform="translate(772.705078 0)"/>
      <use xlink:href="#DejaVuSans-74" transform="translate(824.804688 0)"/>
      <use xlink:href="#DejaVuSans-64" transform="translate(864.013672 0)"/>
      <use xlink:href="#DejaVuSans-2e" transform="translate(927.490234 0)"/>
     </g>
    </g>
    <g id="line2d_26">
     <path d="M 281.790313 293.004312 
L 291.790313 293.004312 
L 301.790313 293.004312 
" style="fill: none; stroke: #ff0000; stroke-width: 1.5; stroke-linecap: square"/>
    </g>
    <g id="text_16">
     <!-- Najlepsze -->
     <g transform="translate(309.790313 296.504312) scale(0.1 -0.1)">
      <defs>
       <path id="DejaVuSans-4e" d="M 628 4666 
L 1478 4666 
L 3547 763 
L 3547 4666 
L 4159 4666 
L 4159 0 
L 3309 0 
L 1241 3903 
L 1241 0 
L 628 0 
L 628 4666 
z
" transform="scale(0.015625)"/>
      </defs>
      <use xlink:href="#DejaVuSans-4e"/>
      <use xlink:href="#DejaVuSans-61" transform="translate(74.804688 0)"/>
      <use xlink:href="#DejaVuSans-6a" transform="translate(136.083984 0)"/>
      <use xlink:href="#DejaVuSans-6c" transform="translate(163.867188 0)"/>
      <use xlink:href="#DejaVuSans-65" transform="translate(191.650391 0)"/>
      <use xlink:href="#DejaVuSans-70" transform="translate(253.173828 0)"/>
      <use xlink:href="#DejaVuSans-73" transform="translate(316.650391 0)"/>
      <use xlink:href="#DejaVuSans-7a" transform="translate(368.75 0)"/>
      <use xlink:href="#DejaVuSans-65" transform="translate(421.240234 0)"/>
     </g>
    </g>
   </g>
  </g>
 </g>
 <defs>
  <clipPath id="p7913878d42">
   <rect x="57.6" y="41.472" width="357.12" height="266.112"/>
  </clipPath>
 </defs>
</svg>
