<?xml version="1.0" encoding="utf-8" standalone="no"?>
<!DOCTYPE svg PUBLIC "-//W3C//DTD SVG 1.1//EN"
  "http://www.w3.org/Graphics/SVG/1.1/DTD/svg11.dtd">
<svg xmlns:xlink="http://www.w3.org/1999/xlink" width="460.8pt" height="345.6pt" viewBox="0 0 460.8 345.6" xmlns="http://www.w3.org/2000/svg" version="1.1">
 <metadata>
  <rdf:RDF xmlns:dc="http://purl.org/dc/elements/1.1/" xmlns:cc="http://creativecommons.org/ns#" xmlns:rdf="http://www.w3.org/1999/02/22-rdf-syntax-ns#">
   <cc:Work>
    <dc:type rdf:resource="http://purl.org/dc/dcmitype/StillImage"/>
    <dc:date>2026-04-26T22:48:24.505575</dc:date>
    <dc:format>image/svg+xml</dc:format>
    <dc:creator>
     <cc:Agent>
      <dc:title>Matplotlib v3.10.8, https://matplotlib.org/</dc:title>
     </cc:Agent>
    </dc:creator>
   </cc:Work>
  </rdf:RDF>
 </metadata>
 <defs>
  <style type="text/css">*{stroke-linejoin: round; stroke-linecap: butt}</style>
 </defs>
 <g id="figure_1">
  <g id="patch_1">
   <path d="M 0 345.6 
L 460.8 345.6 
L 460.8 0 
L 0 0 
z
" style="fill: #ffffff"/>
  </g>
  <g id="axes_1">
   <g id="patch_2">
    <path d="M 57.6 307.584 
L 414.72 307.584 
L 414.72 41.472 
L 57.6 41.472 
z
" style="fill: #ffffff"/>
   </g>
   <g id="matplotlib.axis_1">
    <g id="xtick_1">
     <g id="line2d_1">
      <path d="M 72.201297 307.584 
L 72.201297 41.472 
" clip-path="url(#pd9b3963e12)" style="fill: none; stroke: #b0b0b0; stroke-width: 0.8; stroke-linecap: square"/>
     </g>
     <g id="line2d_2">
      <defs>
       <path id="m8270606b01" d="M 0 0 
L 0 3.5 
" style="stroke: #000000; stroke-width: 0.8"/>
      </defs>
      <g>
       <use xlink:href="#m8270606b01" x="72.201297" y="307.584" style="stroke: #000000; stroke-width: 0.8"/>
      </g>
     </g>
     <g id="text_1">
      <!-- 0 -->
      <g transform="translate(69.020047 322.182437) scale(0.1 -0.1)">
       <defs>
        <path id="DejaVuSans-30" d="M 2034 4250 
Q 1547 4250 1301 3770 
Q 1056 3291 1056 2328 
Q 1056 1369 1301 889 
Q 1547 409 2034 409 
Q 2525 409 2770 889 
Q 3016 1369 3016 2328 
Q 3016 3291 2770 3770 
Q 2525 4250 2034 4250 
z
M 2034 4750 
Q 2819 4750 3233 4129 
Q 3647 3509 3647 2328 
Q 3647 1150 3233 529 
Q 2819 -91 2034 -91 
Q 1250 -91 836 529 
Q 422 1150 422 2328 
Q 422 3509 836 4129 
Q 1250 4750 2034 4750 
z
" transform="scale(0.015625)"/>
       </defs>
       <use xlink:href="#DejaVuSans-30"/>
      </g>
     </g>
    </g>
    <g id="xtick_2">
     <g id="line2d_3">
      <path d="M 112.987044 307.584 
L 112.987044 41.472 
" clip-path="url(#pd9b3963e12)" style="fill: none; stroke: #b0b0b0; stroke-width: 0.8; stroke-linecap: square"/>
     </g>
     <g id="line2d_4">
      <g>
       <use xlink:href="#m8270606b01" x="112.987044" y="307.584" style="stroke: #000000; stroke-width: 0.8"/>
      </g>
     </g>
     <g id="text_2">
      <!-- 25 -->
      <g transform="translate(106.624544 322.182437) scale(0.1 -0.1)">
       <defs>
        <path id="DejaVuSans-32" d="M 1228 531 
L 3431 531 
L 3431 0 
L 469 0 
L 469 531 
Q 828 903 1448 1529 
Q 2069 2156 2228 2338 
Q 2531 2678 2651 2914 
Q 2772 3150 2772 3378 
Q 2772 3750 2511 3984 
Q 2250 4219 1831 4219 
Q 1534 4219 1204 4116 
Q 875 4013 500 3803 
L 500 4441 
Q 881 4594 1212 4672 
Q 1544 4750 1819 4750 
Q 2544 4750 2975 4387 
Q 3406 4025 3406 3419 
Q 3406 3131 3298 2873 
Q 3191 2616 2906 2266 
Q 2828 2175 2409 1742 
Q 1991 1309 1228 531 
z
" transform="scale(0.015625)"/>
        <path id="DejaVuSans-35" d="M 691 4666 
L 3169 4666 
L 3169 4134 
L 1269 4134 
L 1269 2991 
Q 1406 3038 1543 3061 
Q 1681 3084 1819 3084 
Q 2600 3084 3056 2656 
Q 3513 2228 3513 1497 
Q 3513 744 3044 326 
Q 2575 -91 1722 -91 
Q 1428 -91 1123 -41 
Q 819 9 494 109 
L 494 744 
Q 775 591 1075 516 
Q 1375 441 1709 441 
Q 2250 441 2565 725 
Q 2881 1009 2881 1497 
Q 2881 1984 2565 2268 
Q 2250 2553 1709 2553 
Q 1456 2553 1204 2497 
Q 953 2441 691 2322 
L 691 4666 
z
" transform="scale(0.015625)"/>
       </defs>
       <use xlink:href="#DejaVuSans-32"/>
       <use xlink:href="#DejaVuSans-35" transform="translate(63.623047 0)"/>
      </g>
     </g>
    </g>
    <g id="xtick_3">
     <g id="line2d_5">
      <path d="M 153.772791 307.584 
L 153.772791 41.472 
" clip-path="url(#pd9b3963e12)" style="fill: none; stroke: #b0b0b0; stroke-width: 0.8; stroke-linecap: square"/>
     </g>
     <g id="line2d_6">
      <g>
       <use xlink:href="#m8270606b01" x="153.772791" y="307.584" style="stroke: #000000; stroke-width: 0.8"/>
      </g>
     </g>
     <g id="text_3">
      <!-- 50 -->
      <g transform="translate(147.410291 322.182437) scale(0.1 -0.1)">
       <use xlink:href="#DejaVuSans-35"/>
       <use xlink:href="#DejaVuSans-30" transform="translate(63.623047 0)"/>
      </g>
     </g>
    </g>
    <g id="xtick_4">
     <g id="line2d_7">
      <path d="M 194.558538 307.584 
L 194.558538 41.472 
" clip-path="url(#pd9b3963e12)" style="fill: none; stroke: #b0b0b0; stroke-width: 0.8; stroke-linecap: square"/>
     </g>
     <g id="line2d_8">
      <g>
       <use xlink:href="#m8270606b01" x="194.558538" y="307.584" style="stroke: #000000; stroke-width: 0.8"/>
      </g>
     </g>
     <g id="text_4">
      <!-- 75 -->
      <g transform="translate(188.196038 322.182437) scale(0.1 -0.1)">
       <defs>
        <path id="DejaVuSans-37" d="M 525 4666 
L 3525 4666 
L 3525 4397 
L 1831 0 
L 1172 0 
L 2766 4134 
L 525 4134 
L 525 4666 
z
" transform="scale(0.015625)"/>
       </defs>
       <use xlink:href="#DejaVuSans-37"/>
       <use xlink:href="#DejaVuSans-35" transform="translate(63.623047 0)"/>
      </g>
     </g>
    </g>
    <g id="xtick_5">
     <g id="line2d_9">
      <path d="M 235.344285 307.584 
L 235.344285 41.472 
" clip-path="url(#pd9b3963e12)" style="fill: none; stroke: #b0b0b0; stroke-width: 0.8; stroke-linecap: square"/>
     </g>
     <g id="line2d_10">
      <g>
       <use xlink:href="#m8270606b01" x="235.344285" y="307.584" style="stroke: #000000; stroke-width: 0.8"/>
      </g>
     </g>
     <g id="text_5">
      <!-- 100 -->
      <g transform="translate(225.800535 322.182437) scale(0.1 -0.1)">
       <defs>
        <path id="DejaVuSans-31" d="M 794 531 
L 1825 531 
L 1825 4091 
L 703 3866 
L 703 4441 
L 1819 4666 
L 2450 4666 
L 2450 531 
L 3481 531 
L 3481 0 
L 794 0 
L 794 531 
z
" transform="scale(0.015625)"/>
       </defs>
       <use xlink:href="#DejaVuSans-31"/>
       <use xlink:href="#DejaVuSans-30" transform="translate(63.623047 0)"/>
       <use xlink:href="#DejaVuSans-30" transform="translate(127.246094 0)"/>
      </g>
     </g>
    </g>
    <g id="xtick_6">
     <g id="line2d_11">
      <path d="M 276.130032 307.584 
L 276.130032 41.472 
" clip-path="url(#pd9b3963e12)" style="fill: none; stroke: #b0b0b0; stroke-width: 0.8; stroke-linecap: square"/>
     </g>
     <g id="line2d_12">
      <g>
       <use xlink:href="#m8270606b01" x="276.130032" y="307.584" style="stroke: #000000; stroke-width: 0.8"/>
      </g>
     </g>
     <g id="text_6">
      <!-- 125 -->
      <g transform="translate(266.586282 322.182437) scale(0.1 -0.1)">
       <use xlink:href="#DejaVuSans-31"/>
       <use xlink:href="#DejaVuSans-32" transform="translate(63.623047 0)"/>
       <use xlink:href="#DejaVuSans-35" transform="translate(127.246094 0)"/>
      </g>
     </g>
    </g>
    <g id="xtick_7">
     <g id="line2d_13">
      <path d="M 316.915779 307.584 
L 316.915779 41.472 
" clip-path="url(#pd9b3963e12)" style="fill: none; stroke: #b0b0b0; stroke-width: 0.8; stroke-linecap: square"/>
     </g>
     <g id="line2d_14">
      <g>
       <use xlink:href="#m8270606b01" x="316.915779" y="307.584" style="stroke: #000000; stroke-width: 0.8"/>
      </g>
     </g>
     <g id="text_7">
      <!-- 150 -->
      <g transform="translate(307.372029 322.182437) scale(0.1 -0.1)">
       <use xlink:href="#DejaVuSans-31"/>
       <use xlink:href="#DejaVuSans-35" transform="translate(63.623047 0)"/>
       <use xlink:href="#DejaVuSans-30" transform="translate(127.246094 0)"/>
      </g>
     </g>
    </g>
    <g id="xtick_8">
     <g id="line2d_15">
      <path d="M 357.701526 307.584 
L 357.701526 41.472 
" clip-path="url(#pd9b3963e12)" style="fill: none; stroke: #b0b0b0; stroke-width: 0.8; stroke-linecap: square"/>
     </g>
     <g id="line2d_16">
      <g>
       <use xlink:href="#m8270606b01" x="357.701526" y="307.584" style="stroke: #000000; stroke-width: 0.8"/>
      </g>
     </g>
     <g id="text_8">
      <!-- 175 -->
      <g transform="translate(348.157776 322.182437) scale(0.1 -0.1)">
       <use xlink:href="#DejaVuSans-31"/>
       <use xlink:href="#DejaVuSans-37" transform="translate(63.623047 0)"/>
       <use xlink:href="#DejaVuSans-35" transform="translate(127.246094 0)"/>
      </g>
     </g>
    </g>
    <g id="xtick_9">
     <g id="line2d_17">
      <path d="M 398.487273 307.584 
L 398.487273 41.472 
" clip-path="url(#pd9b3963e12)" style="fill: none; stroke: #b0b0b0; stroke-width: 0.8; stroke-linecap: square"/>
     </g>
     <g id="line2d_18">
      <g>
       <use xlink:href="#m8270606b01" x="398.487273" y="307.584" style="stroke: #000000; stroke-width: 0.8"/>
      </g>
     </g>
     <g id="text_9">
      <!-- 200 -->
      <g transform="translate(388.943523 322.182437) scale(0.1 -0.1)">
       <use xlink:href="#DejaVuSans-32"/>
       <use xlink:href="#DejaVuSans-30" transform="translate(63.623047 0)"/>
       <use xlink:href="#DejaVuSans-30" transform="translate(127.246094 0)"/>
      </g>
     </g>
    </g>
    <g id="text_10">
     <!-- Generacje -->
     <g transform="translate(210.629531 335.860562) scale(0.1 -0.1)">
      <defs>
       <path id="DejaVuSans-47" d="M 3809 666 
L 3809 1919 
L 2778 1919 
L 2778 2438 
L 4434 2438 
L 4434 434 
Q 4069 175 3628 42 
Q 3188 -91 2688 -91 
Q 1594 -91 976 548 
Q 359 1188 359 2328 
Q 359 3472 976 4111 
Q 1594 4750 2688 4750 
Q 3144 4750 3555 4637 
Q 3966 4525 4313 4306 
L 4313 3634 
Q 3963 3931 3569 4081 
Q 3175 4231 2741 4231 
Q 1884 4231 1454 3753 
Q 1025 3275 1025 2328 
Q 1025 1384 1454 906 
Q 1884 428 2741 428 
Q 3075 428 3337 486 
Q 3600 544 3809 666 
z
" transform="scale(0.015625)"/>
       <path id="DejaVuSans-65" d="M 3597 1894 
L 3597 1613 
L 953 1613 
Q 991 1019 1311 708 
Q 1631 397 2203 397 
Q 2534 397 2845 478 
Q 3156 559 3463 722 
L 3463 178 
Q 3153 47 2828 -22 
Q 2503 -91 2169 -91 
Q 1331 -91 842 396 
Q 353 884 353 1716 
Q 353 2575 817 3079 
Q 1281 3584 2069 3584 
Q 2775 3584 3186 3129 
Q 3597 2675 3597 1894 
z
M 3022 2063 
Q 3016 2534 2758 2815 
Q 2500 3097 2075 3097 
Q 1594 3097 1305 2825 
Q 1016 2553 972 2059 
L 3022 2063 
z
" transform="scale(0.015625)"/>
       <path id="DejaVuSans-6e" d="M 3513 2113 
L 3513 0 
L 2938 0 
L 2938 2094 
Q 2938 2591 2744 2837 
Q 2550 3084 2163 3084 
Q 1697 3084 1428 2787 
Q 1159 2491 1159 1978 
L 1159 0 
L 581 0 
L 581 3500 
L 1159 3500 
L 1159 2956 
Q 1366 3272 1645 3428 
Q 1925 3584 2291 3584 
Q 2894 3584 3203 3211 
Q 3513 2838 3513 2113 
z
" transform="scale(0.015625)"/>
       <path id="DejaVuSans-72" d="M 2631 2963 
Q 2534 3019 2420 3045 
Q 2306 3072 2169 3072 
Q 1681 3072 1420 2755 
Q 1159 2438 1159 1844 
L 1159 0 
L 581 0 
L 581 3500 
L 1159 3500 
L 1159 2956 
Q 1341 3275 1631 3429 
Q 1922 3584 2338 3584 
Q 2397 3584 2469 3576 
Q 2541 3569 2628 3553 
L 2631 2963 
z
" transform="scale(0.015625)"/>
       <path id="DejaVuSans-61" d="M 2194 1759 
Q 1497 1759 1228 1600 
Q 959 1441 959 1056 
Q 959 750 1161 570 
Q 1363 391 1709 391 
Q 2188 391 2477 730 
Q 2766 1069 2766 1631 
L 2766 1759 
L 2194 1759 
z
M 3341 1997 
L 3341 0 
L 2766 0 
L 2766 531 
Q 2569 213 2275 61 
Q 1981 -91 1556 -91 
Q 1019 -91 701 211 
Q 384 513 384 1019 
Q 384 1609 779 1909 
Q 1175 2209 1959 2209 
L 2766 2209 
L 2766 2266 
Q 2766 2663 2505 2880 
Q 2244 3097 1772 3097 
Q 1472 3097 1187 3025 
Q 903 2953 641 2809 
L 641 3341 
Q 956 3463 1253 3523 
Q 1550 3584 1831 3584 
Q 2591 3584 2966 3190 
Q 3341 2797 3341 1997 
z
" transform="scale(0.015625)"/>
       <path id="DejaVuSans-63" d="M 3122 3366 
L 3122 2828 
Q 2878 2963 2633 3030 
Q 2388 3097 2138 3097 
Q 1578 3097 1268 2742 
Q 959 2388 959 1747 
Q 959 1106 1268 751 
Q 1578 397 2138 397 
Q 2388 397 2633 464 
Q 2878 531 3122 666 
L 3122 134 
Q 2881 22 2623 -34 
Q 2366 -91 2075 -91 
Q 1284 -91 818 406 
Q 353 903 353 1747 
Q 353 2603 823 3093 
Q 1294 3584 2113 3584 
Q 2378 3584 2631 3529 
Q 2884 3475 3122 3366 
z
" transform="scale(0.015625)"/>
       <path id="DejaVuSans-6a" d="M 603 3500 
L 1178 3500 
L 1178 -63 
Q 1178 -731 923 -1031 
Q 669 -1331 103 -1331 
L -116 -1331 
L -116 -844 
L 38 -844 
Q 366 -844 484 -692 
Q 603 -541 603 -63 
L 603 3500 
z
M 603 4863 
L 1178 4863 
L 1178 4134 
L 603 4134 
L 603 4863 
z
" transform="scale(0.015625)"/>
      </defs>
      <use xlink:href="#DejaVuSans-47"/>
      <use xlink:href="#DejaVuSans-65" transform="translate(77.490234 0)"/>
      <use xlink:href="#DejaVuSans-6e" transform="translate(139.013672 0)"/>
      <use xlink:href="#DejaVuSans-65" transform="translate(202.392578 0)"/>
      <use xlink:href="#DejaVuSans-72" transform="translate(263.916016 0)"/>
      <use xlink:href="#DejaVuSans-61" transform="translate(305.029297 0)"/>
      <use xlink:href="#DejaVuSans-63" transform="translate(366.308594 0)"/>
      <use xlink:href="#DejaVuSans-6a" transform="translate(421.289062 0)"/>
      <use xlink:href="#DejaVuSans-65" transform="translate(449.072266 0)"/>
     </g>
    </g>
   </g>
   <g id="matplotlib.axis_2">
    <g id="ytick_1">
     <g id="line2d_19">
      <path d="M 57.6 143.232242 
L 414.72 143.232242 
" clip-path="url(#pd9b3963e12)" style="fill: none; stroke: #b0b0b0; stroke-width: 0.8; stroke-linecap: square"/>
     </g>
     <g id="line2d_20">
      <defs>
       <path id="m23c2837e6b" d="M 0 0 
L -3.5 0 
" style="stroke: #000000; stroke-width: 0.8"/>
      </defs>
      <g>
       <use xlink:href="#m23c2837e6b" x="57.6" y="143.232242" style="stroke: #000000; stroke-width: 0.8"/>
      </g>
     </g>
     <g id="text_11">
      <!-- $\mathdefault{10^{2}}$ -->
      <g transform="translate(33 147.031461) scale(0.1 -0.1)">
       <use xlink:href="#DejaVuSans-31" transform="translate(0 0.765625)"/>
       <use xlink:href="#DejaVuSans-30" transform="translate(63.623047 0.765625)"/>
       <use xlink:href="#DejaVuSans-32" transform="translate(128.203125 39.046875) scale(0.7)"/>
      </g>
     </g>
    </g>
    <g id="text_12">
     <!-- Przystosowanie -->
     <g transform="translate(26.920312 213.170187) rotate(-90) scale(0.1 -0.1)">
      <defs>
       <path id="DejaVuSans-50" d="M 1259 4147 
L 1259 2394 
L 2053 2394 
Q 2494 2394 2734 2622 
Q 2975 2850 2975 3272 
Q 2975 3691 2734 3919 
Q 2494 4147 2053 4147 
L 1259 4147 
z
M 628 4666 
L 2053 4666 
Q 2838 4666 3239 4311 
Q 3641 3956 3641 3272 
Q 3641 2581 3239 2228 
Q 2838 1875 2053 1875 
L 1259 1875 
L 1259 0 
L 628 0 
L 628 4666 
z
" transform="scale(0.015625)"/>
       <path id="DejaVuSans-7a" d="M 353 3500 
L 3084 3500 
L 3084 2975 
L 922 459 
L 3084 459 
L 3084 0 
L 275 0 
L 275 525 
L 2438 3041 
L 353 3041 
L 353 3500 
z
" transform="scale(0.015625)"/>
       <path id="DejaVuSans-79" d="M 2059 -325 
Q 1816 -950 1584 -1140 
Q 1353 -1331 966 -1331 
L 506 -1331 
L 506 -850 
L 844 -850 
Q 1081 -850 1212 -737 
Q 1344 -625 1503 -206 
L 1606 56 
L 191 3500 
L 800 3500 
L 1894 763 
L 2988 3500 
L 3597 3500 
L 2059 -325 
z
" transform="scale(0.015625)"/>
       <path id="DejaVuSans-73" d="M 2834 3397 
L 2834 2853 
Q 2591 2978 2328 3040 
Q 2066 3103 1784 3103 
Q 1356 3103 1142 2972 
Q 928 2841 928 2578 
Q 928 2378 1081 2264 
Q 1234 2150 1697 2047 
L 1894 2003 
Q 2506 1872 2764 1633 
Q 3022 1394 3022 966 
Q 3022 478 2636 193 
Q 2250 -91 1575 -91 
Q 1294 -91 989 -36 
Q 684 19 347 128 
L 347 722 
Q 666 556 975 473 
Q 1284 391 1588 391 
Q 1994 391 2212 530 
Q 2431 669 2431 922 
Q 2431 1156 2273 1281 
Q 2116 1406 1581 1522 
L 1381 1569 
Q 847 1681 609 1914 
Q 372 2147 372 2553 
Q 372 3047 722 3315 
Q 1072 3584 1716 3584 
Q 2034 3584 2315 3537 
Q 2597 3491 2834 3397 
z
" transform="scale(0.015625)"/>
       <path id="DejaVuSans-74" d="M 1172 4494 
L 1172 3500 
L 2356 3500 
L 2356 3053 
L 1172 3053 
L 1172 1153 
Q 1172 725 1289 603 
Q 1406 481 1766 481 
L 2356 481 
L 2356 0 
L 1766 0 
Q 1100 0 847 248 
Q 594 497 594 1153 
L 594 3053 
L 172 3053 
L 172 3500 
L 594 3500 
L 594 4494 
L 1172 4494 
z
" transform="scale(0.015625)"/>
       <path id="DejaVuSans-6f" d="M 1959 3097 
Q 1497 3097 1228 2736 
Q 959 2375 959 1747 
Q 959 1119 1226 758 
Q 1494 397 1959 397 
Q 2419 397 2687 759 
Q 2956 1122 2956 1747 
Q 2956 2369 2687 2733 
Q 2419 3097 1959 3097 
z
M 1959 3584 
Q 2709 3584 3137 3096 
Q 3566 2609 3566 1747 
Q 3566 888 3137 398 
Q 2709 -91 1959 -91 
Q 1206 -91 779 398 
Q 353 888 353 1747 
Q 353 2609 779 3096 
Q 1206 3584 1959 3584 
z
" transform="scale(0.015625)"/>
       <path id="DejaVuSans-77" d="M 269 3500 
L 844 3500 
L 1563 769 
L 2278 3500 
L 2956 3500 
L 3675 769 
L 4391 3500 
L 4966 3500 
L 4050 0 
L 3372 0 
L 2619 2869 
L 1863 0 
L 1184 0 
L 269 3500 
z
" transform="scale(0.015625)"/>
       <path id="DejaVuSans-69" d="M 603 3500 
L 1178 3500 
L 1178 0 
L 603 0 
L 603 3500 
z
M 603 4863 
L 1178 4863 
L 1178 4134 
L 603 4134 
L 603 4863 
z
" transform="scale(0.015625)"/>
      </defs>
      <use xlink:href="#DejaVuSans-50"/>
      <use xlink:href="#DejaVuSans-72" transform="translate(58.552734 0)"/>
      <use xlink:href="#DejaVuSans-7a" transform="translate(99.666016 0)"/>
      <use xlink:href="#DejaVuSans-79" transform="translate(152.15625 0)"/>
      <use xlink:href="#DejaVuSans-73" transform="translate(211.335938 0)"/>
      <use xlink:href="#DejaVuSans-74" transform="translate(263.435547 0)"/>
      <use xlink:href="#DejaVuSans-6f" transform="translate(302.644531 0)"/>
      <use xlink:href="#DejaVuSans-73" transform="translate(363.826172 0)"/>
      <use xlink:href="#DejaVuSans-6f" transform="translate(415.925781 0)"/>
      <use xlink:href="#DejaVuSans-77" transform="translate(477.107422 0)"/>
      <use xlink:href="#DejaVuSans-61" transform="translate(558.894531 0)"/>
      <use xlink:href="#DejaVuSans-6e" transform="translate(620.173828 0)"/>
      <use xlink:href="#DejaVuSans-69" transform="translate(683.552734 0)"/>
      <use xlink:href="#DejaVuSans-65" transform="translate(711.335938 0)"/>
     </g>
    </g>
   </g>
   <g id="line2d_21">
    <path d="M 73.832727 295.488 
L 75.464157 243.633303 
L 77.095587 212.432826 
L 78.727017 197.287441 
L 80.358447 191.545425 
L 81.989877 181.035351 
L 83.621307 176.029115 
L 85.252736 179.421063 
L 86.884166 173.66747 
L 88.515596 170.005503 
L 90.147026 169.538697 
L 91.778456 166.010264 
L 93.409886 172.054357 
L 95.041316 173.79525 
L 96.672746 179.280168 
L 98.304175 174.98994 
L 99.935605 176.248547 
L 101.567035 172.733248 
L 103.198465 165.694499 
L 104.829895 170.389899 
L 106.461325 173.046412 
L 108.092755 172.089328 
L 109.724185 167.798803 
L 111.355614 168.649035 
L 112.987044 169.708795 
L 114.618474 163.290586 
L 116.249904 164.211998 
L 117.881334 164.879328 
L 119.512764 165.81227 
L 121.144194 162.216541 
L 122.775624 165.725502 
L 124.407053 162.883032 
L 126.038483 163.854551 
L 127.669913 163.947745 
L 129.301343 161.552426 
L 130.932773 163.534917 
L 132.564203 161.273797 
L 134.195633 163.912307 
L 135.827063 164.323243 
L 137.458492 160.54766 
L 139.089922 162.571927 
L 140.721352 163.824656 
L 142.352782 163.408528 
L 143.984212 164.476412 
L 145.615642 167.715234 
L 147.247072 162.942657 
L 148.878502 166.617662 
L 150.509931 163.433892 
L 152.141361 161.656083 
L 153.772791 162.405997 
L 155.404221 160.126583 
L 157.035651 161.957859 
L 158.667081 162.819148 
L 160.298511 161.433805 
L 161.929941 162.109472 
L 163.56137 163.002154 
L 165.1928 161.609723 
L 166.82423 161.243478 
L 168.45566 163.288472 
L 170.08709 162.124731 
L 171.71852 164.606889 
L 173.34995 160.840262 
L 174.98138 162.643599 
L 176.61281 163.662895 
L 178.244239 161.082843 
L 179.875669 162.290396 
L 181.507099 161.004513 
L 183.138529 160.873314 
L 184.769959 161.91479 
L 186.401389 164.76948 
L 188.032819 163.642529 
L 189.664249 161.899283 
L 191.295678 161.763193 
L 192.927108 160.574168 
L 194.558538 160.191253 
L 196.189968 161.183862 
L 197.821398 162.593079 
L 199.452828 162.566217 
L 201.084258 163.543054 
L 202.715688 161.151998 
L 204.347117 159.155878 
L 205.978547 161.637316 
L 207.609977 162.474193 
L 209.241407 164.653756 
L 210.872837 164.035988 
L 212.504267 160.634899 
L 214.135697 164.811962 
L 215.767127 163.565496 
L 217.398556 163.690246 
L 219.029986 162.869093 
L 220.661416 164.295879 
L 222.292846 162.035617 
L 223.924276 163.65647 
L 225.555706 164.271408 
L 227.187136 162.843623 
L 228.818566 163.762176 
L 230.449995 163.0254 
L 232.081425 163.111959 
L 233.712855 160.994857 
L 235.344285 164.424892 
L 238.607145 160.602006 
L 240.238575 166.100835 
L 241.870005 162.636084 
L 243.501434 164.126439 
L 245.132864 162.225918 
L 246.764294 161.463198 
L 248.395724 164.013683 
L 250.027154 164.093636 
L 251.658584 164.86226 
L 253.290014 161.957178 
L 254.921444 165.037231 
L 256.552873 164.629598 
L 258.184303 164.004334 
L 259.815733 162.557472 
L 261.447163 162.640901 
L 263.078593 164.603596 
L 264.710023 163.172344 
L 266.341453 163.933114 
L 267.972883 165.4123 
L 269.604312 162.282377 
L 271.235742 162.139027 
L 272.867172 165.184484 
L 274.498602 163.352173 
L 276.130032 162.078485 
L 277.761462 161.603184 
L 279.392892 164.482513 
L 281.024322 162.232667 
L 282.655751 164.727529 
L 284.287181 162.040568 
L 285.918611 162.960927 
L 287.550041 163.083364 
L 289.181471 165.732944 
L 290.812901 162.436473 
L 292.444331 163.652485 
L 294.075761 163.945074 
L 295.70719 161.16609 
L 297.33862 163.640727 
L 298.97005 164.090983 
L 302.23291 162.937835 
L 303.86434 163.824398 
L 305.49577 164.176936 
L 307.1272 162.160396 
L 308.75863 162.210333 
L 310.390059 164.178713 
L 312.021489 163.095756 
L 313.652919 161.529721 
L 315.284349 162.149909 
L 316.915779 160.678891 
L 318.547209 163.693871 
L 320.178639 162.977673 
L 321.810069 162.682609 
L 323.441498 163.055401 
L 325.072928 164.724129 
L 326.704358 164.060582 
L 328.335788 164.46326 
L 329.967218 162.4128 
L 331.598648 164.244373 
L 333.230078 163.891533 
L 334.861508 161.70637 
L 336.492937 163.484157 
L 338.124367 163.213872 
L 339.755797 163.546637 
L 341.387227 161.407462 
L 343.018657 163.767816 
L 344.650087 162.021967 
L 346.281517 164.06961 
L 347.912947 164.255344 
L 349.544376 163.830023 
L 351.175806 164.006919 
L 352.807236 162.733924 
L 354.438666 163.61161 
L 356.070096 163.315241 
L 357.701526 163.205138 
L 359.332956 162.77469 
L 360.964386 162.920056 
L 362.595815 161.469939 
L 364.227245 162.882974 
L 365.858675 160.429553 
L 367.490105 163.491966 
L 369.121535 161.923628 
L 370.752965 163.916965 
L 372.384395 162.465347 
L 374.015825 162.847866 
L 375.647254 162.566784 
L 377.278684 161.866603 
L 378.910114 162.552226 
L 380.541544 162.413036 
L 382.172974 164.961585 
L 383.804404 163.851257 
L 385.435834 164.785915 
L 387.067264 161.83736 
L 388.698693 161.3336 
L 390.330123 164.696938 
L 391.961553 162.378492 
L 393.592983 163.094219 
L 395.224413 162.852147 
L 396.855843 161.945669 
L 398.487273 165.488491 
L 398.487273 165.488491 
" clip-path="url(#pd9b3963e12)" style="fill: none; stroke: #0000ff; stroke-width: 1.5; stroke-linecap: square"/>
   </g>
   <g id="line2d_22">
    <path d="M 73.832727 253.076739 
L 75.464157 198.254559 
L 77.095587 170.830722 
L 78.727017 162.732654 
L 80.358447 162.103656 
L 81.989877 151.437156 
L 83.621307 148.635274 
L 85.252736 149.757986 
L 86.884166 151.87401 
L 88.515596 149.893084 
L 90.147026 148.284381 
L 91.778456 142.491576 
L 93.409886 145.656608 
L 95.041316 145.714208 
L 96.672746 147.107373 
L 99.935605 147.127837 
L 101.567035 143.762308 
L 103.198465 145.797831 
L 104.829895 147.639363 
L 106.461325 148.489536 
L 108.092755 148.988614 
L 109.724185 147.711236 
L 111.355614 148.839196 
L 112.987044 148.680336 
L 114.618474 143.497346 
L 116.249904 143.519638 
L 117.881334 144.225001 
L 119.512764 144.65595 
L 121.144194 142.477559 
L 122.775624 145.113017 
L 124.407053 142.892515 
L 126.038483 143.593611 
L 127.669913 145.305035 
L 129.301343 141.322346 
L 130.932773 144.397261 
L 132.564203 142.213567 
L 134.195633 145.372121 
L 135.827063 143.352488 
L 137.458492 140.531359 
L 139.089922 141.734736 
L 140.721352 143.804319 
L 142.352782 143.258594 
L 143.984212 145.270083 
L 145.615642 147.723759 
L 147.247072 144.877925 
L 148.878502 148.800009 
L 150.509931 141.936685 
L 152.141361 140.32883 
L 153.772791 142.655982 
L 155.404221 139.266848 
L 157.035651 143.242394 
L 158.667081 143.080076 
L 160.298511 142.255213 
L 161.929941 141.959172 
L 163.56137 142.714486 
L 165.1928 140.92547 
L 166.82423 140.987451 
L 168.45566 143.110413 
L 170.08709 140.156772 
L 171.71852 143.060874 
L 173.34995 139.438345 
L 174.98138 140.905305 
L 176.61281 143.581356 
L 178.244239 141.902223 
L 179.875669 142.282102 
L 181.507099 142.094535 
L 183.138529 141.439895 
L 184.769959 141.641533 
L 186.401389 144.876392 
L 188.032819 145.421683 
L 189.664249 142.227954 
L 191.295678 142.099093 
L 192.927108 139.842292 
L 194.558538 141.279477 
L 196.189968 142.272445 
L 197.821398 142.221536 
L 199.452828 141.963515 
L 201.084258 144.775157 
L 202.715688 143.473774 
L 204.347117 138.41161 
L 205.978547 142.495113 
L 207.609977 143.054934 
L 209.241407 145.821101 
L 210.872837 146.030726 
L 212.504267 139.944353 
L 214.135697 146.169673 
L 215.767127 145.492407 
L 217.398556 144.509114 
L 219.029986 142.59345 
L 220.661416 144.171678 
L 222.292846 143.600135 
L 223.924276 143.328732 
L 225.555706 146.850145 
L 227.187136 143.179996 
L 228.818566 144.713627 
L 230.449995 144.498331 
L 232.081425 144.739078 
L 233.712855 142.614685 
L 235.344285 144.709384 
L 236.975715 141.827383 
L 238.607145 140.497132 
L 240.238575 148.0515 
L 241.870005 143.704098 
L 243.501434 143.545232 
L 245.132864 142.472211 
L 246.764294 140.73943 
L 248.395724 147.642536 
L 250.027154 145.104717 
L 251.658584 148.570538 
L 253.290014 143.669203 
L 254.921444 146.566501 
L 258.184303 144.428688 
L 259.815733 145.070788 
L 261.447163 143.002012 
L 263.078593 146.968602 
L 264.710023 143.741876 
L 266.341453 144.986248 
L 267.972883 146.629813 
L 269.604312 142.597013 
L 271.235742 140.904717 
L 272.867172 145.392456 
L 276.130032 139.632104 
L 277.761462 142.034397 
L 279.392892 144.665225 
L 281.024322 142.958283 
L 282.655751 145.772261 
L 284.287181 141.096186 
L 285.918611 142.392672 
L 287.550041 144.970728 
L 289.181471 146.408342 
L 290.812901 142.797284 
L 292.444331 145.768 
L 294.075761 145.33801 
L 295.70719 142.235755 
L 297.33862 144.338832 
L 298.97005 142.875339 
L 300.60148 143.227738 
L 302.23291 143.760886 
L 303.86434 143.504569 
L 305.49577 146.341722 
L 307.1272 142.602471 
L 312.021489 144.792607 
L 313.652919 141.538403 
L 315.284349 142.216773 
L 316.915779 140.430534 
L 318.547209 145.018344 
L 320.178639 145.005561 
L 321.810069 143.004097 
L 323.441498 143.906863 
L 326.704358 145.339498 
L 328.335788 146.365648 
L 329.967218 142.81996 
L 331.598648 145.546185 
L 333.230078 146.341609 
L 334.861508 141.8366 
L 336.492937 142.524108 
L 338.124367 143.523712 
L 341.387227 141.583703 
L 343.018657 143.780741 
L 344.650087 142.843144 
L 346.281517 143.926746 
L 347.912947 144.369986 
L 349.544376 146.033087 
L 351.175806 143.914937 
L 352.807236 143.570265 
L 354.438666 144.64455 
L 356.070096 144.665532 
L 357.701526 143.625817 
L 359.332956 143.458587 
L 360.964386 142.812981 
L 362.595815 140.981656 
L 364.227245 142.926356 
L 365.858675 140.40394 
L 367.490105 145.863978 
L 369.121535 141.979957 
L 370.752965 145.251087 
L 372.384395 144.887564 
L 374.015825 144.218111 
L 375.647254 144.218813 
L 377.278684 142.103427 
L 378.910114 143.738263 
L 380.541544 143.006036 
L 382.172974 147.037622 
L 383.804404 145.196859 
L 385.435834 147.350851 
L 387.067264 142.384004 
L 388.698693 142.135244 
L 390.330123 146.702594 
L 391.961553 142.2994 
L 393.592983 142.659971 
L 395.224413 142.714034 
L 396.855843 143.329239 
L 398.487273 148.305033 
L 398.487273 148.305033 
" clip-path="url(#pd9b3963e12)" style="fill: none; stroke-dasharray: 9.6,2.4,1.5,2.4; stroke-dashoffset: 0; stroke: #008000; stroke-width: 1.5"/>
   </g>
   <g id="line2d_23">
    <path d="M 73.832727 156.428097 
L 75.464157 141.603127 
L 77.095587 113.797322 
L 78.727017 106.33577 
L 80.358447 128.802668 
L 81.989877 85.997242 
L 83.621307 102.524025 
L 85.252736 99.618083 
L 86.884166 106.504477 
L 88.515596 107.179998 
L 90.147026 106.636785 
L 91.778456 66.386151 
L 93.409886 86.790801 
L 95.041316 113.698826 
L 96.672746 102.959822 
L 98.304175 121.093853 
L 99.935605 113.473765 
L 101.567035 102.987786 
L 103.198465 90.340109 
L 104.829895 124.458815 
L 106.461325 99.334614 
L 108.092755 113.355179 
L 109.724185 116.889745 
L 111.355614 113.263022 
L 112.987044 102.627066 
L 114.618474 99.13015 
L 116.249904 99.952055 
L 117.881334 102.986942 
L 119.512764 109.480732 
L 121.144194 103.301601 
L 122.775624 86.623297 
L 124.407053 105.829615 
L 126.038483 89.762821 
L 127.669913 102.953273 
L 129.301343 96.213659 
L 130.932773 99.055905 
L 132.564203 95.687656 
L 134.195633 106.150985 
L 135.827063 100.114169 
L 137.458492 93.100493 
L 139.089922 77.723424 
L 140.721352 110.143898 
L 142.352782 106.257954 
L 143.984212 92.715039 
L 145.615642 105.95488 
L 147.247072 103.528417 
L 148.878502 106.281219 
L 150.509931 86.8953 
L 152.141361 93.173915 
L 153.772791 106.164872 
L 155.404221 74.810949 
L 157.035651 99.671488 
L 158.667081 102.866187 
L 160.298511 86.613732 
L 161.929941 99.163708 
L 163.56137 86.062379 
L 165.1928 99.016345 
L 166.82423 96.741675 
L 168.45566 96.179063 
L 170.08709 74.332114 
L 171.71852 89.481235 
L 173.34995 58.457414 
L 174.98138 74.472036 
L 176.61281 74.610195 
L 178.244239 110.282824 
L 179.875669 92.325371 
L 181.507099 92.887113 
L 183.138529 102.596808 
L 184.769959 96.771189 
L 186.401389 92.677879 
L 189.664249 92.550536 
L 191.295678 79.914451 
L 192.927108 68.637918 
L 194.558538 92.494393 
L 196.189968 106.151303 
L 197.821398 83.472669 
L 199.452828 92.826765 
L 201.084258 109.905529 
L 202.715688 113.712332 
L 204.347117 53.568 
L 205.978547 106.430599 
L 207.609977 106.191942 
L 209.241407 113.374936 
L 210.872837 106.058086 
L 212.504267 92.675878 
L 214.135697 95.555293 
L 215.767127 107.049084 
L 217.398556 99.284255 
L 219.029986 99.931917 
L 220.661416 77.532807 
L 222.292846 99.417015 
L 223.924276 89.626644 
L 225.555706 103.135438 
L 227.187136 96.035919 
L 228.818566 89.869756 
L 230.449995 99.032901 
L 232.081425 95.8704 
L 233.712855 95.875727 
L 235.344285 92.670248 
L 236.975715 99.087121 
L 238.607145 103.162174 
L 240.238575 106.49861 
L 241.870005 109.363743 
L 243.501434 92.876868 
L 245.132864 102.691025 
L 246.764294 96.750316 
L 248.395724 113.890535 
L 250.027154 102.845494 
L 251.658584 124.608927 
L 253.290014 106.134729 
L 254.921444 113.374811 
L 256.552873 109.578055 
L 258.184303 74.664628 
L 259.815733 102.70666 
L 261.447163 92.941644 
L 263.078593 110.794426 
L 264.710023 99.81607 
L 266.341453 102.989504 
L 267.972883 102.690676 
L 269.604312 96.539833 
L 271.235742 77.407671 
L 272.867172 102.597783 
L 274.498602 89.174753 
L 276.130032 69.855898 
L 277.761462 93.526172 
L 279.392892 106.163361 
L 281.024322 89.705014 
L 282.655751 89.33366 
L 284.287181 87.064975 
L 285.918611 102.582052 
L 287.550041 102.580828 
L 289.181471 86.217801 
L 290.812901 102.648929 
L 292.444331 113.213258 
L 294.075761 109.800301 
L 295.70719 106.807903 
L 297.33862 92.90775 
L 298.97005 106.064091 
L 300.60148 109.651478 
L 302.23291 96.229395 
L 303.86434 99.033538 
L 305.49577 117.490419 
L 307.1272 99.295208 
L 308.75863 99.206356 
L 310.390059 106.433957 
L 312.021489 96.155181 
L 313.652919 99.26075 
L 315.284349 99.17927 
L 318.547209 92.465654 
L 320.178639 105.914861 
L 321.810069 102.799031 
L 323.441498 99.107048 
L 325.072928 102.323871 
L 326.704358 113.57571 
L 328.335788 96.270124 
L 329.967218 106.678054 
L 331.598648 92.832246 
L 333.230078 102.719008 
L 334.861508 95.658892 
L 336.492937 83.467292 
L 338.124367 93.170056 
L 339.755797 96.61676 
L 341.387227 99.337075 
L 343.018657 89.910988 
L 344.650087 95.650755 
L 346.281517 95.958522 
L 347.912947 106.207416 
L 349.544376 117.555175 
L 351.175806 81.171455 
L 352.807236 95.605395 
L 354.438666 102.470473 
L 356.070096 102.73488 
L 357.701526 102.488685 
L 359.332956 102.935363 
L 360.964386 98.860003 
L 362.595815 80.526351 
L 364.227245 89.405438 
L 365.858675 89.788328 
L 367.490105 96.207896 
L 369.121535 80.638563 
L 370.752965 102.65087 
L 372.384395 102.774334 
L 374.015825 113.57709 
L 375.647254 103.065801 
L 377.278684 109.659933 
L 378.910114 106.145665 
L 380.541544 92.471838 
L 382.172974 109.494006 
L 383.804404 109.708491 
L 385.435834 117.097741 
L 387.067264 95.600644 
L 388.698693 92.757778 
L 390.330123 102.343947 
L 391.961553 89.242471 
L 393.592983 71.949151 
L 395.224413 109.81152 
L 396.855843 106.759975 
L 398.487273 113.480697 
L 398.487273 113.480697 
" clip-path="url(#pd9b3963e12)" style="fill: none; stroke: #ff0000; stroke-width: 1.5; stroke-linecap: square"/>
   </g>
   <g id="patch_3">
    <path d="M 57.6 307.584 
L 57.6 41.472 
" style="fill: none; stroke: #000000; stroke-width: 0.8; stroke-linejoin: miter; stroke-linecap: square"/>
   </g>
   <g id="patch_4">
    <path d="M 414.72 307.584 
L 414.72 41.472 
" style="fill: none; stroke: #000000; stroke-width: 0.8; stroke-linejoin: miter; stroke-linecap: square"/>
   </g>
   <g id="patch_5">
    <path d="M 57.6 307.584 
L 414.72 307.584 
" style="fill: none; stroke: #000000; stroke-width: 0.8; stroke-linejoin: miter; stroke-linecap: square"/>
   </g>
   <g id="patch_6">
    <path d="M 57.6 41.472 
L 414.72 41.472 
" style="fill: none; stroke: #000000; stroke-width: 0.8; stroke-linejoin: miter; stroke-linecap: square"/>
   </g>
   <g id="text_13">
    <!-- Średnie i najlepsze przystosowanie w każdej generacji -->
    <g transform="translate(73.26 35.472) scale(0.12 -0.12)">
     <defs>
      <path id="DejaVuSans-15a" d="M 2236 5921 
L 2814 5921 
L 2102 5096 
L 1623 5096 
L 2236 5921 
z
M 3425 4513 
L 3425 3897 
Q 3066 4069 2747 4153 
Q 2428 4238 2131 4238 
Q 1616 4238 1336 4038 
Q 1056 3838 1056 3469 
Q 1056 3159 1242 3001 
Q 1428 2844 1947 2747 
L 2328 2669 
Q 3034 2534 3370 2195 
Q 3706 1856 3706 1288 
Q 3706 609 3251 259 
Q 2797 -91 1919 -91 
Q 1588 -91 1214 -16 
Q 841 59 441 206 
L 441 856 
Q 825 641 1194 531 
Q 1563 422 1919 422 
Q 2459 422 2753 634 
Q 3047 847 3047 1241 
Q 3047 1584 2836 1778 
Q 2625 1972 2144 2069 
L 1759 2144 
Q 1053 2284 737 2584 
Q 422 2884 422 3419 
Q 422 4038 858 4394 
Q 1294 4750 2059 4750 
Q 2388 4750 2728 4690 
Q 3069 4631 3425 4513 
z
" transform="scale(0.015625)"/>
      <path id="DejaVuSans-64" d="M 2906 2969 
L 2906 4863 
L 3481 4863 
L 3481 0 
L 2906 0 
L 2906 525 
Q 2725 213 2448 61 
Q 2172 -91 1784 -91 
Q 1150 -91 751 415 
Q 353 922 353 1747 
Q 353 2572 751 3078 
Q 1150 3584 1784 3584 
Q 2172 3584 2448 3432 
Q 2725 3281 2906 2969 
z
M 947 1747 
Q 947 1113 1208 752 
Q 1469 391 1925 391 
Q 2381 391 2643 752 
Q 2906 1113 2906 1747 
Q 2906 2381 2643 2742 
Q 2381 3103 1925 3103 
Q 1469 3103 1208 2742 
Q 947 2381 947 1747 
z
" transform="scale(0.015625)"/>
      <path id="DejaVuSans-20" transform="scale(0.015625)"/>
      <path id="DejaVuSans-6c" d="M 603 4863 
L 1178 4863 
L 1178 0 
L 603 0 
L 603 4863 
z
" transform="scale(0.015625)"/>
      <path id="DejaVuSans-70" d="M 1159 525 
L 1159 -1331 
L 581 -1331 
L 581 3500 
L 1159 3500 
L 1159 2969 
Q 1341 3281 1617 3432 
Q 1894 3584 2278 3584 
Q 2916 3584 3314 3078 
Q 3713 2572 3713 1747 
Q 3713 922 3314 415 
Q 2916 -91 2278 -91 
Q 1894 -91 1617 61 
Q 1341 213 1159 525 
z
M 3116 1747 
Q 3116 2381 2855 2742 
Q 2594 3103 2138 3103 
Q 1681 3103 1420 2742 
Q 1159 2381 1159 1747 
Q 1159 1113 1420 752 
Q 1681 391 2138 391 
Q 2594 391 2855 752 
Q 3116 1113 3116 1747 
z
" transform="scale(0.015625)"/>
      <path id="DejaVuSans-6b" d="M 581 4863 
L 1159 4863 
L 1159 1991 
L 2875 3500 
L 3609 3500 
L 1753 1863 
L 3688 0 
L 2938 0 
L 1159 1709 
L 1159 0 
L 581 0 
L 581 4863 
z
" transform="scale(0.015625)"/>
      <path id="DejaVuSans-17c" d="M 1378 4863 
L 1953 4863 
L 1953 4134 
L 1378 4134 
L 1378 4863 
z
M 1672 3584 
L 1672 3584 
z
M 353 3500 
L 3084 3500 
L 3084 2975 
L 922 459 
L 3084 459 
L 3084 0 
L 275 0 
L 275 525 
L 2438 3041 
L 353 3041 
L 353 3500 
z
" transform="scale(0.015625)"/>
      <path id="DejaVuSans-67" d="M 2906 1791 
Q 2906 2416 2648 2759 
Q 2391 3103 1925 3103 
Q 1463 3103 1205 2759 
Q 947 2416 947 1791 
Q 947 1169 1205 825 
Q 1463 481 1925 481 
Q 2391 481 2648 825 
Q 2906 1169 2906 1791 
z
M 3481 434 
Q 3481 -459 3084 -895 
Q 2688 -1331 1869 -1331 
Q 1566 -1331 1297 -1286 
Q 1028 -1241 775 -1147 
L 775 -588 
Q 1028 -725 1275 -790 
Q 1522 -856 1778 -856 
Q 2344 -856 2625 -561 
Q 2906 -266 2906 331 
L 2906 616 
Q 2728 306 2450 153 
Q 2172 0 1784 0 
Q 1141 0 747 490 
Q 353 981 353 1791 
Q 353 2603 747 3093 
Q 1141 3584 1784 3584 
Q 2172 3584 2450 3431 
Q 2728 3278 2906 2969 
L 2906 3500 
L 3481 3500 
L 3481 434 
z
" transform="scale(0.015625)"/>
     </defs>
     <use xlink:href="#DejaVuSans-15a"/>
     <use xlink:href="#DejaVuSans-72" transform="translate(63.476562 0)"/>
     <use xlink:href="#DejaVuSans-65" transform="translate(102.339844 0)"/>
     <use xlink:href="#DejaVuSans-64" transform="translate(163.863281 0)"/>
     <use xlink:href="#DejaVuSans-6e" transform="translate(227.339844 0)"/>
     <use xlink:href="#DejaVuSans-69" transform="translate(290.71875 0)"/>
     <use xlink:href="#DejaVuSans-65" transform="translate(318.501953 0)"/>
     <use xlink:href="#DejaVuSans-20" transform="translate(380.025391 0)"/>
     <use xlink:href="#DejaVuSans-69" transform="translate(411.8125 0)"/>
     <use xlink:href="#DejaVuSans-20" transform="translate(439.595703 0)"/>
     <use xlink:href="#DejaVuSans-6e" transform="translate(471.382812 0)"/>
     <use xlink:href="#DejaVuSans-61" transform="translate(534.761719 0)"/>
     <use xlink:href="#DejaVuSans-6a" transform="translate(596.041016 0)"/>
     <use xlink:href="#DejaVuSans-6c" transform="translate(623.824219 0)"/>
     <use xlink:href="#DejaVuSans-65" transform="translate(651.607422 0)"/>
     <use xlink:href="#DejaVuSans-70" transform="translate(713.130859 0)"/>
     <use xlink:href="#DejaVuSans-73" transform="translate(776.607422 0)"/>
     <use xlink:href="#DejaVuSans-7a" transform="translate(828.707031 0)"/>
     <use xlink:href="#DejaVuSans-65" transform="translate(881.197266 0)"/>
     <use xlink:href="#DejaVuSans-20" transform="translate(942.720703 0)"/>
     <use xlink:href="#DejaVuSans-70" transform="translate(974.507812 0)"/>
     <use xlink:href="#DejaVuSans-72" transform="translate(1037.984375 0)"/>
     <use xlink:href="#DejaVuSans-7a" transform="translate(1079.097656 0)"/>
     <use xlink:href="#DejaVuSans-79" transform="translate(1131.587891 0)"/>
     <use xlink:href="#DejaVuSans-73" transform="translate(1190.767578 0)"/>
     <use xlink:href="#DejaVuSans-74" transform="translate(1242.867188 0)"/>
     <use xlink:href="#DejaVuSans-6f" transform="translate(1282.076172 0)"/>
     <use xlink:href="#DejaVuSans-73" transform="translate(1343.257812 0)"/>
     <use xlink:href="#DejaVuSans-6f" transform="translate(1395.357422 0)"/>
     <use xlink:href="#DejaVuSans-77" transform="translate(1456.539062 0)"/>
     <use xlink:href="#DejaVuSans-61" transform="translate(1538.326172 0)"/>
     <use xlink:href="#DejaVuSans-6e" transform="translate(1599.605469 0)"/>
     <use xlink:href="#DejaVuSans-69" transform="translate(1662.984375 0)"/>
     <use xlink:href="#DejaVuSans-65" transform="translate(1690.767578 0)"/>
     <use xlink:href="#DejaVuSans-20" transform="translate(1752.291016 0)"/>
     <use xlink:href="#DejaVuSans-77" transform="translate(1784.078125 0)"/>
     <use xlink:href="#DejaVuSans-20" transform="translate(1865.865234 0)"/>
     <use xlink:href="#DejaVuSans-6b" transform="translate(1897.652344 0)"/>
     <use xlink:href="#DejaVuSans-61" transform="translate(1953.8125 0)"/>
     <use xlink:href="#DejaVuSans-17c" transform="translate(2015.091797 0)"/>
     <use xlink:href="#DejaVuSans-64" transform="translate(2067.582031 0)"/>
     <use xlink:href="#DejaVuSans-65" transform="translate(2131.058594 0)"/>
     <use xlink:href="#DejaVuSans-6a" transform="translate(2192.582031 0)"/>
     <use xlink:href="#DejaVuSans-20" transform="translate(2220.365234 0)"/>
     <use xlink:href="#DejaVuSans-67" transform="translate(2252.152344 0)"/>
     <use xlink:href="#DejaVuSans-65" transform="translate(2315.628906 0)"/>
     <use xlink:href="#DejaVuSans-6e" transform="translate(2377.152344 0)"/>
     <use xlink:href="#DejaVuSans-65" transform="translate(2440.53125 0)"/>
     <use xlink:href="#DejaVuSans-72" transform="translate(2502.054688 0)"/>
     <use xlink:href="#DejaVuSans-61" transform="translate(2543.167969 0)"/>
     <use xlink:href="#DejaVuSans-63" transform="translate(2604.447266 0)"/>
     <use xlink:href="#DejaVuSans-6a" transform="translate(2659.427734 0)"/>
     <use xlink:href="#DejaVuSans-69" transform="translate(2687.210938 0)"/>
    </g>
   </g>
   <g id="legend_1">
    <g id="patch_7">
     <path d="M 279.790313 302.584 
L 407.72 302.584 
Q 409.72 302.584 409.72 300.584 
L 409.72 257.549625 
Q 409.72 255.549625 407.72 255.549625 
L 279.790313 255.549625 
Q 277.790313 255.549625 277.790313 257.549625 
L 277.790313 300.584 
Q 277.790313 302.584 279.790313 302.584 
z
" style="fill: #ffffff; opacity: 0.8; stroke: #cccccc; stroke-linejoin: miter"/>
    </g>
    <g id="line2d_24">
     <path d="M 281.790313 263.648062 
L 291.790313 263.648062 
L 301.790313 263.648062 
" style="fill: none; stroke: #0000ff; stroke-width: 1.5; stroke-linecap: square"/>
    </g>
    <g id="text_14">
     <!-- Średnia -->
     <g transform="translate(309.790313 267.148062) scale(0.1 -0.1)">
      <use xlink:href="#DejaVuSans-15a"/>
      <use xlink:href="#DejaVuSans-72" transform="translate(63.476562 0)"/>
      <use xlink:href="#DejaVuSans-65" transform="translate(102.339844 0)"/>
      <use xlink:href="#DejaVuSans-64" transform="translate(163.863281 0)"/>
      <use xlink:href="#DejaVuSans-6e" transform="translate(227.339844 0)"/>
      <use xlink:href="#DejaVuSans-69" transform="translate(290.71875 0)"/>
      <use xlink:href="#DejaVuSans-61" transform="translate(318.501953 0)"/>
     </g>
    </g>
    <g id="line2d_25">
     <path d="M 281.790313 278.326188 
L 291.790313 278.326188 
L 301.790313 278.326188 
" style="fill: none; stroke-dasharray: 9.6,2.4,1.5,2.4; stroke-dashoffset: 0; stroke: #008000; stroke-width: 1.5"/>
    </g>
    <g id="text_15">
     <!-- ±1 Odchylenie std. -->
     <g transform="translate(309.790313 281.826188) scale(0.1 -0.1)">
      <defs>
       <path id="DejaVuSans-b1" d="M 2944 4013 
L 2944 2803 
L 4684 2803 
L 4684 2272 
L 2944 2272 
L 2944 1063 
L 2419 1063 
L 2419 2272 
L 678 2272 
L 678 2803 
L 2419 2803 
L 2419 4013 
L 2944 4013 
z
M 678 531 
L 4684 531 
L 4684 0 
L 678 0 
L 678 531 
z
" transform="scale(0.015625)"/>
       <path id="DejaVuSans-4f" d="M 2522 4238 
Q 1834 4238 1429 3725 
Q 1025 3213 1025 2328 
Q 1025 1447 1429 934 
Q 1834 422 2522 422 
Q 3209 422 3611 934 
Q 4013 1447 4013 2328 
Q 4013 3213 3611 3725 
Q 3209 4238 2522 4238 
z
M 2522 4750 
Q 3503 4750 4090 4092 
Q 4678 3434 4678 2328 
Q 4678 1225 4090 567 
Q 3503 -91 2522 -91 
Q 1538 -91 948 565 
Q 359 1222 359 2328 
Q 359 3434 948 4092 
Q 1538 4750 2522 4750 
z
" transform="scale(0.015625)"/>
       <path id="DejaVuSans-68" d="M 3513 2113 
L 3513 0 
L 2938 0 
L 2938 2094 
Q 2938 2591 2744 2837 
Q 2550 3084 2163 3084 
Q 1697 3084 1428 2787 
Q 1159 2491 1159 1978 
L 1159 0 
L 581 0 
L 581 4863 
L 1159 4863 
L 1159 2956 
Q 1366 3272 1645 3428 
Q 1925 3584 2291 3584 
Q 2894 3584 3203 3211 
Q 3513 2838 3513 2113 
z
" transform="scale(0.015625)"/>
       <path id="DejaVuSans-2e" d="M 684 794 
L 1344 794 
L 1344 0 
L 684 0 
L 684 794 
z
" transform="scale(0.015625)"/>
      </defs>
      <use xlink:href="#DejaVuSans-b1"/>
      <use xlink:href="#DejaVuSans-31" transform="translate(83.789062 0)"/>
      <use xlink:href="#DejaVuSans-20" transform="translate(147.412109 0)"/>
      <use xlink:href="#DejaVuSans-4f" transform="translate(179.199219 0)"/>
      <use xlink:href="#DejaVuSans-64" transform="translate(257.910156 0)"/>
      <use xlink:href="#DejaVuSans-63" transform="translate(321.386719 0)"/>
      <use xlink:href="#DejaVuSans-68" transform="translate(376.367188 0)"/>
      <use xlink:href="#DejaVuSans-79" transform="translate(439.746094 0)"/>
      <use xlink:href="#DejaVuSans-6c" transform="translate(498.925781 0)"/>
      <use xlink:href="#DejaVuSans-65" transform="translate(526.708984 0)"/>
      <use xlink:href="#DejaVuSans-6e" transform="translate(588.232422 0)"/>
      <use xlink:href="#DejaVuSans-69" transform="translate(651.611328 0)"/>
      <use xlink:href="#DejaVuSans-65" transform="translate(679.394531 0)"/>
      <use xlink:href="#DejaVuSans-20" transform="translate(740.917969 0)"/>
      <use xlink:href="#DejaVuSans-73" transform="translate(772.705078 0)"/>
      <use xlink:href="#DejaVuSans-74" transform="translate(824.804688 0)"/>
      <use xlink:href="#DejaVuSans-64" transform="translate(864.013672 0)"/>
      <use xlink:href="#DejaVuSans-2e" transform="translate(927.490234 0)"/>
     </g>
    </g>
    <g id="line2d_26">
     <path d="M 281.790313 293.004312 
L 291.790313 293.004312 
L 301.790313 293.004312 
" style="fill: none; stroke: #ff0000; stroke-width: 1.5; stroke-linecap: square"/>
    </g>
    <g id="text_16">
     <!-- Najlepsze -->
     <g transform="translate(309.790313 296.504312) scale(0.1 -0.1)">
      <defs>
       <path id="DejaVuSans-4e" d="M 628 4666 
L 1478 4666 
L 3547 763 
L 3547 4666 
L 4159 4666 
L 4159 0 
L 3309 0 
L 1241 3903 
L 1241 0 
L 628 0 
L 628 4666 
z
" transform="scale(0.015625)"/>
      </defs>
      <use xlink:href="#DejaVuSans-4e"/>
      <use xlink:href="#DejaVuSans-61" transform="translate(74.804688 0)"/>
      <use xlink:href="#DejaVuSans-6a" transform="translate(136.083984 0)"/>
      <use xlink:href="#DejaVuSans-6c" transform="translate(163.867188 0)"/>
      <use xlink:href="#DejaVuSans-65" transform="translate(191.650391 0)"/>
      <use xlink:href="#DejaVuSans-70" transform="translate(253.173828 0)"/>
      <use xlink:href="#DejaVuSans-73" transform="translate(316.650391 0)"/>
      <use xlink:href="#DejaVuSans-7a" transform="translate(368.75 0)"/>
      <use xlink:href="#DejaVuSans-65" transform="translate(421.240234 0)"/>
     </g>
    </g>
   </g>
  </g>
 </g>
 <defs>
  <clipPath id="pd9b3963e12">
   <rect x="57.6" y="41.472" width="357.12" height="266.112"/>
  </clipPath>
 </defs>
</svg>
