<?xml version="1.0" encoding="utf-8" standalone="no"?>
<!DOCTYPE svg PUBLIC "-//W3C//DTD SVG 1.1//EN"
  "http://www.w3.org/Graphics/SVG/1.1/DTD/svg11.dtd">
<svg xmlns:xlink="http://www.w3.org/1999/xlink" width="460.8pt" height="345.6pt" viewBox="0 0 460.8 345.6" xmlns="http://www.w3.org/2000/svg" version="1.1">
 <metadata>
  <rdf:RDF xmlns:dc="http://purl.org/dc/elements/1.1/" xmlns:cc="http://creativecommons.org/ns#" xmlns:rdf="http://www.w3.org/1999/02/22-rdf-syntax-ns#">
   <cc:Work>
    <dc:type rdf:resource="http://purl.org/dc/dcmitype/StillImage"/>
    <dc:date>2026-04-26T22:58:38.779024</dc:date>
    <dc:format>image/svg+xml</dc:format>
    <dc:creator>
     <cc:Agent>
      <dc:title>Matplotlib v3.10.8, https://matplotlib.org/</dc:title>
     </cc:Agent>
    </dc:creator>
   </cc:Work>
  </rdf:RDF>
 </metadata>
 <defs>
  <style type="text/css">*{stroke-linejoin: round; stroke-linecap: butt}</style>
 </defs>
 <g id="figure_1">
  <g id="patch_1">
   <path d="M 0 345.6 
L 460.8 345.6 
L 460.8 0 
L 0 0 
z
" style="fill: #ffffff"/>
  </g>
  <g id="axes_1">
   <g id="patch_2">
    <path d="M 57.6 307.584 
L 414.72 307.584 
L 414.72 41.472 
L 57.6 41.472 
z
" style="fill: #ffffff"/>
   </g>
   <g id="matplotlib.axis_1">
    <g id="xtick_1">
     <g id="line2d_1">
      <path d="M 72.201297 307.584 
L 72.201297 41.472 
" clip-path="url(#pb10df90ad3)" style="fill: none; stroke: #b0b0b0; stroke-width: 0.8; stroke-linecap: square"/>
     </g>
     <g id="line2d_2">
      <defs>
       <path id="m0a13fec6a5" d="M 0 0 
L 0 3.5 
" style="stroke: #000000; stroke-width: 0.8"/>
      </defs>
      <g>
       <use xlink:href="#m0a13fec6a5" x="72.201297" y="307.584" style="stroke: #000000; stroke-width: 0.8"/>
      </g>
     </g>
     <g id="text_1">
      <!-- 0 -->
      <g transform="translate(69.020047 322.182437) scale(0.1 -0.1)">
       <defs>
        <path id="DejaVuSans-30" d="M 2034 4250 
Q 1547 4250 1301 3770 
Q 1056 3291 1056 2328 
Q 1056 1369 1301 889 
Q 1547 409 2034 409 
Q 2525 409 2770 889 
Q 3016 1369 3016 2328 
Q 3016 3291 2770 3770 
Q 2525 4250 2034 4250 
z
M 2034 4750 
Q 2819 4750 3233 4129 
Q 3647 3509 3647 2328 
Q 3647 1150 3233 529 
Q 2819 -91 2034 -91 
Q 1250 -91 836 529 
Q 422 1150 422 2328 
Q 422 3509 836 4129 
Q 1250 4750 2034 4750 
z
" transform="scale(0.015625)"/>
       </defs>
       <use xlink:href="#DejaVuSans-30"/>
      </g>
     </g>
    </g>
    <g id="xtick_2">
     <g id="line2d_3">
      <path d="M 112.987044 307.584 
L 112.987044 41.472 
" clip-path="url(#pb10df90ad3)" style="fill: none; stroke: #b0b0b0; stroke-width: 0.8; stroke-linecap: square"/>
     </g>
     <g id="line2d_4">
      <g>
       <use xlink:href="#m0a13fec6a5" x="112.987044" y="307.584" style="stroke: #000000; stroke-width: 0.8"/>
      </g>
     </g>
     <g id="text_2">
      <!-- 25 -->
      <g transform="translate(106.624544 322.182437) scale(0.1 -0.1)">
       <defs>
        <path id="DejaVuSans-32" d="M 1228 531 
L 3431 531 
L 3431 0 
L 469 0 
L 469 531 
Q 828 903 1448 1529 
Q 2069 2156 2228 2338 
Q 2531 2678 2651 2914 
Q 2772 3150 2772 3378 
Q 2772 3750 2511 3984 
Q 2250 4219 1831 4219 
Q 1534 4219 1204 4116 
Q 875 4013 500 3803 
L 500 4441 
Q 881 4594 1212 4672 
Q 1544 4750 1819 4750 
Q 2544 4750 2975 4387 
Q 3406 4025 3406 3419 
Q 3406 3131 3298 2873 
Q 3191 2616 2906 2266 
Q 2828 2175 2409 1742 
Q 1991 1309 1228 531 
z
" transform="scale(0.015625)"/>
        <path id="DejaVuSans-35" d="M 691 4666 
L 3169 4666 
L 3169 4134 
L 1269 4134 
L 1269 2991 
Q 1406 3038 1543 3061 
Q 1681 3084 1819 3084 
Q 2600 3084 3056 2656 
Q 3513 2228 3513 1497 
Q 3513 744 3044 326 
Q 2575 -91 1722 -91 
Q 1428 -91 1123 -41 
Q 819 9 494 109 
L 494 744 
Q 775 591 1075 516 
Q 1375 441 1709 441 
Q 2250 441 2565 725 
Q 2881 1009 2881 1497 
Q 2881 1984 2565 2268 
Q 2250 2553 1709 2553 
Q 1456 2553 1204 2497 
Q 953 2441 691 2322 
L 691 4666 
z
" transform="scale(0.015625)"/>
       </defs>
       <use xlink:href="#DejaVuSans-32"/>
       <use xlink:href="#DejaVuSans-35" transform="translate(63.623047 0)"/>
      </g>
     </g>
    </g>
    <g id="xtick_3">
     <g id="line2d_5">
      <path d="M 153.772791 307.584 
L 153.772791 41.472 
" clip-path="url(#pb10df90ad3)" style="fill: none; stroke: #b0b0b0; stroke-width: 0.8; stroke-linecap: square"/>
     </g>
     <g id="line2d_6">
      <g>
       <use xlink:href="#m0a13fec6a5" x="153.772791" y="307.584" style="stroke: #000000; stroke-width: 0.8"/>
      </g>
     </g>
     <g id="text_3">
      <!-- 50 -->
      <g transform="translate(147.410291 322.182437) scale(0.1 -0.1)">
       <use xlink:href="#DejaVuSans-35"/>
       <use xlink:href="#DejaVuSans-30" transform="translate(63.623047 0)"/>
      </g>
     </g>
    </g>
    <g id="xtick_4">
     <g id="line2d_7">
      <path d="M 194.558538 307.584 
L 194.558538 41.472 
" clip-path="url(#pb10df90ad3)" style="fill: none; stroke: #b0b0b0; stroke-width: 0.8; stroke-linecap: square"/>
     </g>
     <g id="line2d_8">
      <g>
       <use xlink:href="#m0a13fec6a5" x="194.558538" y="307.584" style="stroke: #000000; stroke-width: 0.8"/>
      </g>
     </g>
     <g id="text_4">
      <!-- 75 -->
      <g transform="translate(188.196038 322.182437) scale(0.1 -0.1)">
       <defs>
        <path id="DejaVuSans-37" d="M 525 4666 
L 3525 4666 
L 3525 4397 
L 1831 0 
L 1172 0 
L 2766 4134 
L 525 4134 
L 525 4666 
z
" transform="scale(0.015625)"/>
       </defs>
       <use xlink:href="#DejaVuSans-37"/>
       <use xlink:href="#DejaVuSans-35" transform="translate(63.623047 0)"/>
      </g>
     </g>
    </g>
    <g id="xtick_5">
     <g id="line2d_9">
      <path d="M 235.344285 307.584 
L 235.344285 41.472 
" clip-path="url(#pb10df90ad3)" style="fill: none; stroke: #b0b0b0; stroke-width: 0.8; stroke-linecap: square"/>
     </g>
     <g id="line2d_10">
      <g>
       <use xlink:href="#m0a13fec6a5" x="235.344285" y="307.584" style="stroke: #000000; stroke-width: 0.8"/>
      </g>
     </g>
     <g id="text_5">
      <!-- 100 -->
      <g transform="translate(225.800535 322.182437) scale(0.1 -0.1)">
       <defs>
        <path id="DejaVuSans-31" d="M 794 531 
L 1825 531 
L 1825 4091 
L 703 3866 
L 703 4441 
L 1819 4666 
L 2450 4666 
L 2450 531 
L 3481 531 
L 3481 0 
L 794 0 
L 794 531 
z
" transform="scale(0.015625)"/>
       </defs>
       <use xlink:href="#DejaVuSans-31"/>
       <use xlink:href="#DejaVuSans-30" transform="translate(63.623047 0)"/>
       <use xlink:href="#DejaVuSans-30" transform="translate(127.246094 0)"/>
      </g>
     </g>
    </g>
    <g id="xtick_6">
     <g id="line2d_11">
      <path d="M 276.130032 307.584 
L 276.130032 41.472 
" clip-path="url(#pb10df90ad3)" style="fill: none; stroke: #b0b0b0; stroke-width: 0.8; stroke-linecap: square"/>
     </g>
     <g id="line2d_12">
      <g>
       <use xlink:href="#m0a13fec6a5" x="276.130032" y="307.584" style="stroke: #000000; stroke-width: 0.8"/>
      </g>
     </g>
     <g id="text_6">
      <!-- 125 -->
      <g transform="translate(266.586282 322.182437) scale(0.1 -0.1)">
       <use xlink:href="#DejaVuSans-31"/>
       <use xlink:href="#DejaVuSans-32" transform="translate(63.623047 0)"/>
       <use xlink:href="#DejaVuSans-35" transform="translate(127.246094 0)"/>
      </g>
     </g>
    </g>
    <g id="xtick_7">
     <g id="line2d_13">
      <path d="M 316.915779 307.584 
L 316.915779 41.472 
" clip-path="url(#pb10df90ad3)" style="fill: none; stroke: #b0b0b0; stroke-width: 0.8; stroke-linecap: square"/>
     </g>
     <g id="line2d_14">
      <g>
       <use xlink:href="#m0a13fec6a5" x="316.915779" y="307.584" style="stroke: #000000; stroke-width: 0.8"/>
      </g>
     </g>
     <g id="text_7">
      <!-- 150 -->
      <g transform="translate(307.372029 322.182437) scale(0.1 -0.1)">
       <use xlink:href="#DejaVuSans-31"/>
       <use xlink:href="#DejaVuSans-35" transform="translate(63.623047 0)"/>
       <use xlink:href="#DejaVuSans-30" transform="translate(127.246094 0)"/>
      </g>
     </g>
    </g>
    <g id="xtick_8">
     <g id="line2d_15">
      <path d="M 357.701526 307.584 
L 357.701526 41.472 
" clip-path="url(#pb10df90ad3)" style="fill: none; stroke: #b0b0b0; stroke-width: 0.8; stroke-linecap: square"/>
     </g>
     <g id="line2d_16">
      <g>
       <use xlink:href="#m0a13fec6a5" x="357.701526" y="307.584" style="stroke: #000000; stroke-width: 0.8"/>
      </g>
     </g>
     <g id="text_8">
      <!-- 175 -->
      <g transform="translate(348.157776 322.182437) scale(0.1 -0.1)">
       <use xlink:href="#DejaVuSans-31"/>
       <use xlink:href="#DejaVuSans-37" transform="translate(63.623047 0)"/>
       <use xlink:href="#DejaVuSans-35" transform="translate(127.246094 0)"/>
      </g>
     </g>
    </g>
    <g id="xtick_9">
     <g id="line2d_17">
      <path d="M 398.487273 307.584 
L 398.487273 41.472 
" clip-path="url(#pb10df90ad3)" style="fill: none; stroke: #b0b0b0; stroke-width: 0.8; stroke-linecap: square"/>
     </g>
     <g id="line2d_18">
      <g>
       <use xlink:href="#m0a13fec6a5" x="398.487273" y="307.584" style="stroke: #000000; stroke-width: 0.8"/>
      </g>
     </g>
     <g id="text_9">
      <!-- 200 -->
      <g transform="translate(388.943523 322.182437) scale(0.1 -0.1)">
       <use xlink:href="#DejaVuSans-32"/>
       <use xlink:href="#DejaVuSans-30" transform="translate(63.623047 0)"/>
       <use xlink:href="#DejaVuSans-30" transform="translate(127.246094 0)"/>
      </g>
     </g>
    </g>
    <g id="text_10">
     <!-- Generacje -->
     <g transform="translate(210.629531 335.860562) scale(0.1 -0.1)">
      <defs>
       <path id="DejaVuSans-47" d="M 3809 666 
L 3809 1919 
L 2778 1919 
L 2778 2438 
L 4434 2438 
L 4434 434 
Q 4069 175 3628 42 
Q 3188 -91 2688 -91 
Q 1594 -91 976 548 
Q 359 1188 359 2328 
Q 359 3472 976 4111 
Q 1594 4750 2688 4750 
Q 3144 4750 3555 4637 
Q 3966 4525 4313 4306 
L 4313 3634 
Q 3963 3931 3569 4081 
Q 3175 4231 2741 4231 
Q 1884 4231 1454 3753 
Q 1025 3275 1025 2328 
Q 1025 1384 1454 906 
Q 1884 428 2741 428 
Q 3075 428 3337 486 
Q 3600 544 3809 666 
z
" transform="scale(0.015625)"/>
       <path id="DejaVuSans-65" d="M 3597 1894 
L 3597 1613 
L 953 1613 
Q 991 1019 1311 708 
Q 1631 397 2203 397 
Q 2534 397 2845 478 
Q 3156 559 3463 722 
L 3463 178 
Q 3153 47 2828 -22 
Q 2503 -91 2169 -91 
Q 1331 -91 842 396 
Q 353 884 353 1716 
Q 353 2575 817 3079 
Q 1281 3584 2069 3584 
Q 2775 3584 3186 3129 
Q 3597 2675 3597 1894 
z
M 3022 2063 
Q 3016 2534 2758 2815 
Q 2500 3097 2075 3097 
Q 1594 3097 1305 2825 
Q 1016 2553 972 2059 
L 3022 2063 
z
" transform="scale(0.015625)"/>
       <path id="DejaVuSans-6e" d="M 3513 2113 
L 3513 0 
L 2938 0 
L 2938 2094 
Q 2938 2591 2744 2837 
Q 2550 3084 2163 3084 
Q 1697 3084 1428 2787 
Q 1159 2491 1159 1978 
L 1159 0 
L 581 0 
L 581 3500 
L 1159 3500 
L 1159 2956 
Q 1366 3272 1645 3428 
Q 1925 3584 2291 3584 
Q 2894 3584 3203 3211 
Q 3513 2838 3513 2113 
z
" transform="scale(0.015625)"/>
       <path id="DejaVuSans-72" d="M 2631 2963 
Q 2534 3019 2420 3045 
Q 2306 3072 2169 3072 
Q 1681 3072 1420 2755 
Q 1159 2438 1159 1844 
L 1159 0 
L 581 0 
L 581 3500 
L 1159 3500 
L 1159 2956 
Q 1341 3275 1631 3429 
Q 1922 3584 2338 3584 
Q 2397 3584 2469 3576 
Q 2541 3569 2628 3553 
L 2631 2963 
z
" transform="scale(0.015625)"/>
       <path id="DejaVuSans-61" d="M 2194 1759 
Q 1497 1759 1228 1600 
Q 959 1441 959 1056 
Q 959 750 1161 570 
Q 1363 391 1709 391 
Q 2188 391 2477 730 
Q 2766 1069 2766 1631 
L 2766 1759 
L 2194 1759 
z
M 3341 1997 
L 3341 0 
L 2766 0 
L 2766 531 
Q 2569 213 2275 61 
Q 1981 -91 1556 -91 
Q 1019 -91 701 211 
Q 384 513 384 1019 
Q 384 1609 779 1909 
Q 1175 2209 1959 2209 
L 2766 2209 
L 2766 2266 
Q 2766 2663 2505 2880 
Q 2244 3097 1772 3097 
Q 1472 3097 1187 3025 
Q 903 2953 641 2809 
L 641 3341 
Q 956 3463 1253 3523 
Q 1550 3584 1831 3584 
Q 2591 3584 2966 3190 
Q 3341 2797 3341 1997 
z
" transform="scale(0.015625)"/>
       <path id="DejaVuSans-63" d="M 3122 3366 
L 3122 2828 
Q 2878 2963 2633 3030 
Q 2388 3097 2138 3097 
Q 1578 3097 1268 2742 
Q 959 2388 959 1747 
Q 959 1106 1268 751 
Q 1578 397 2138 397 
Q 2388 397 2633 464 
Q 2878 531 3122 666 
L 3122 134 
Q 2881 22 2623 -34 
Q 2366 -91 2075 -91 
Q 1284 -91 818 406 
Q 353 903 353 1747 
Q 353 2603 823 3093 
Q 1294 3584 2113 3584 
Q 2378 3584 2631 3529 
Q 2884 3475 3122 3366 
z
" transform="scale(0.015625)"/>
       <path id="DejaVuSans-6a" d="M 603 3500 
L 1178 3500 
L 1178 -63 
Q 1178 -731 923 -1031 
Q 669 -1331 103 -1331 
L -116 -1331 
L -116 -844 
L 38 -844 
Q 366 -844 484 -692 
Q 603 -541 603 -63 
L 603 3500 
z
M 603 4863 
L 1178 4863 
L 1178 4134 
L 603 4134 
L 603 4863 
z
" transform="scale(0.015625)"/>
      </defs>
      <use xlink:href="#DejaVuSans-47"/>
      <use xlink:href="#DejaVuSans-65" transform="translate(77.490234 0)"/>
      <use xlink:href="#DejaVuSans-6e" transform="translate(139.013672 0)"/>
      <use xlink:href="#DejaVuSans-65" transform="translate(202.392578 0)"/>
      <use xlink:href="#DejaVuSans-72" transform="translate(263.916016 0)"/>
      <use xlink:href="#DejaVuSans-61" transform="translate(305.029297 0)"/>
      <use xlink:href="#DejaVuSans-63" transform="translate(366.308594 0)"/>
      <use xlink:href="#DejaVuSans-6a" transform="translate(421.289062 0)"/>
      <use xlink:href="#DejaVuSans-65" transform="translate(449.072266 0)"/>
     </g>
    </g>
   </g>
   <g id="matplotlib.axis_2">
    <g id="ytick_1">
     <g id="line2d_19">
      <path d="M 57.6 140.113247 
L 414.72 140.113247 
" clip-path="url(#pb10df90ad3)" style="fill: none; stroke: #b0b0b0; stroke-width: 0.8; stroke-linecap: square"/>
     </g>
     <g id="line2d_20">
      <defs>
       <path id="m3861c7c612" d="M 0 0 
L -3.5 0 
" style="stroke: #000000; stroke-width: 0.8"/>
      </defs>
      <g>
       <use xlink:href="#m3861c7c612" x="57.6" y="140.113247" style="stroke: #000000; stroke-width: 0.8"/>
      </g>
     </g>
     <g id="text_11">
      <!-- $\mathdefault{10^{2}}$ -->
      <g transform="translate(33 143.912466) scale(0.1 -0.1)">
       <use xlink:href="#DejaVuSans-31" transform="translate(0 0.765625)"/>
       <use xlink:href="#DejaVuSans-30" transform="translate(63.623047 0.765625)"/>
       <use xlink:href="#DejaVuSans-32" transform="translate(128.203125 39.046875) scale(0.7)"/>
      </g>
     </g>
    </g>
    <g id="text_12">
     <!-- Przystosowanie -->
     <g transform="translate(26.920312 213.170187) rotate(-90) scale(0.1 -0.1)">
      <defs>
       <path id="DejaVuSans-50" d="M 1259 4147 
L 1259 2394 
L 2053 2394 
Q 2494 2394 2734 2622 
Q 2975 2850 2975 3272 
Q 2975 3691 2734 3919 
Q 2494 4147 2053 4147 
L 1259 4147 
z
M 628 4666 
L 2053 4666 
Q 2838 4666 3239 4311 
Q 3641 3956 3641 3272 
Q 3641 2581 3239 2228 
Q 2838 1875 2053 1875 
L 1259 1875 
L 1259 0 
L 628 0 
L 628 4666 
z
" transform="scale(0.015625)"/>
       <path id="DejaVuSans-7a" d="M 353 3500 
L 3084 3500 
L 3084 2975 
L 922 459 
L 3084 459 
L 3084 0 
L 275 0 
L 275 525 
L 2438 3041 
L 353 3041 
L 353 3500 
z
" transform="scale(0.015625)"/>
       <path id="DejaVuSans-79" d="M 2059 -325 
Q 1816 -950 1584 -1140 
Q 1353 -1331 966 -1331 
L 506 -1331 
L 506 -850 
L 844 -850 
Q 1081 -850 1212 -737 
Q 1344 -625 1503 -206 
L 1606 56 
L 191 3500 
L 800 3500 
L 1894 763 
L 2988 3500 
L 3597 3500 
L 2059 -325 
z
" transform="scale(0.015625)"/>
       <path id="DejaVuSans-73" d="M 2834 3397 
L 2834 2853 
Q 2591 2978 2328 3040 
Q 2066 3103 1784 3103 
Q 1356 3103 1142 2972 
Q 928 2841 928 2578 
Q 928 2378 1081 2264 
Q 1234 2150 1697 2047 
L 1894 2003 
Q 2506 1872 2764 1633 
Q 3022 1394 3022 966 
Q 3022 478 2636 193 
Q 2250 -91 1575 -91 
Q 1294 -91 989 -36 
Q 684 19 347 128 
L 347 722 
Q 666 556 975 473 
Q 1284 391 1588 391 
Q 1994 391 2212 530 
Q 2431 669 2431 922 
Q 2431 1156 2273 1281 
Q 2116 1406 1581 1522 
L 1381 1569 
Q 847 1681 609 1914 
Q 372 2147 372 2553 
Q 372 3047 722 3315 
Q 1072 3584 1716 3584 
Q 2034 3584 2315 3537 
Q 2597 3491 2834 3397 
z
" transform="scale(0.015625)"/>
       <path id="DejaVuSans-74" d="M 1172 4494 
L 1172 3500 
L 2356 3500 
L 2356 3053 
L 1172 3053 
L 1172 1153 
Q 1172 725 1289 603 
Q 1406 481 1766 481 
L 2356 481 
L 2356 0 
L 1766 0 
Q 1100 0 847 248 
Q 594 497 594 1153 
L 594 3053 
L 172 3053 
L 172 3500 
L 594 3500 
L 594 4494 
L 1172 4494 
z
" transform="scale(0.015625)"/>
       <path id="DejaVuSans-6f" d="M 1959 3097 
Q 1497 3097 1228 2736 
Q 959 2375 959 1747 
Q 959 1119 1226 758 
Q 1494 397 1959 397 
Q 2419 397 2687 759 
Q 2956 1122 2956 1747 
Q 2956 2369 2687 2733 
Q 2419 3097 1959 3097 
z
M 1959 3584 
Q 2709 3584 3137 3096 
Q 3566 2609 3566 1747 
Q 3566 888 3137 398 
Q 2709 -91 1959 -91 
Q 1206 -91 779 398 
Q 353 888 353 1747 
Q 353 2609 779 3096 
Q 1206 3584 1959 3584 
z
" transform="scale(0.015625)"/>
       <path id="DejaVuSans-77" d="M 269 3500 
L 844 3500 
L 1563 769 
L 2278 3500 
L 2956 3500 
L 3675 769 
L 4391 3500 
L 4966 3500 
L 4050 0 
L 3372 0 
L 2619 2869 
L 1863 0 
L 1184 0 
L 269 3500 
z
" transform="scale(0.015625)"/>
       <path id="DejaVuSans-69" d="M 603 3500 
L 1178 3500 
L 1178 0 
L 603 0 
L 603 3500 
z
M 603 4863 
L 1178 4863 
L 1178 4134 
L 603 4134 
L 603 4863 
z
" transform="scale(0.015625)"/>
      </defs>
      <use xlink:href="#DejaVuSans-50"/>
      <use xlink:href="#DejaVuSans-72" transform="translate(58.552734 0)"/>
      <use xlink:href="#DejaVuSans-7a" transform="translate(99.666016 0)"/>
      <use xlink:href="#DejaVuSans-79" transform="translate(152.15625 0)"/>
      <use xlink:href="#DejaVuSans-73" transform="translate(211.335938 0)"/>
      <use xlink:href="#DejaVuSans-74" transform="translate(263.435547 0)"/>
      <use xlink:href="#DejaVuSans-6f" transform="translate(302.644531 0)"/>
      <use xlink:href="#DejaVuSans-73" transform="translate(363.826172 0)"/>
      <use xlink:href="#DejaVuSans-6f" transform="translate(415.925781 0)"/>
      <use xlink:href="#DejaVuSans-77" transform="translate(477.107422 0)"/>
      <use xlink:href="#DejaVuSans-61" transform="translate(558.894531 0)"/>
      <use xlink:href="#DejaVuSans-6e" transform="translate(620.173828 0)"/>
      <use xlink:href="#DejaVuSans-69" transform="translate(683.552734 0)"/>
      <use xlink:href="#DejaVuSans-65" transform="translate(711.335938 0)"/>
     </g>
    </g>
   </g>
   <g id="line2d_21">
    <path d="M 73.832727 295.488 
L 75.464157 248.268722 
L 77.095587 215.950064 
L 78.727017 186.84614 
L 80.358447 189.862274 
L 81.989877 190.64776 
L 83.621307 190.271582 
L 85.252736 181.829101 
L 86.884166 172.618013 
L 88.515596 168.436784 
L 90.147026 164.927412 
L 91.778456 167.363554 
L 93.409886 165.059496 
L 95.041316 163.342917 
L 96.672746 162.710889 
L 98.304175 162.250527 
L 99.935605 163.897916 
L 101.567035 163.906797 
L 103.198465 162.491111 
L 104.829895 165.813451 
L 106.461325 162.987836 
L 108.092755 161.989861 
L 109.724185 164.098047 
L 111.355614 163.399165 
L 112.987044 165.010754 
L 114.618474 160.401326 
L 116.249904 161.730831 
L 117.881334 161.355761 
L 119.512764 161.404915 
L 121.144194 163.124271 
L 122.775624 163.92705 
L 124.407053 165.92563 
L 126.038483 159.595301 
L 127.669913 163.338522 
L 129.301343 162.156437 
L 130.932773 160.113658 
L 132.564203 161.525901 
L 134.195633 159.617573 
L 135.827063 161.905389 
L 137.458492 161.694838 
L 139.089922 159.713599 
L 140.721352 162.681913 
L 142.352782 161.310406 
L 143.984212 160.244182 
L 145.615642 160.862689 
L 147.247072 161.900162 
L 148.878502 161.058267 
L 150.509931 160.456801 
L 152.141361 158.208602 
L 153.772791 159.349159 
L 155.404221 160.081765 
L 157.035651 160.003101 
L 158.667081 163.336597 
L 160.298511 160.135283 
L 161.929941 162.571144 
L 163.56137 160.942861 
L 165.1928 159.875018 
L 166.82423 158.093309 
L 168.45566 158.447963 
L 170.08709 160.170183 
L 171.71852 160.095087 
L 173.34995 158.947374 
L 174.98138 158.694707 
L 176.61281 157.422935 
L 178.244239 159.250741 
L 179.875669 159.461894 
L 181.507099 157.606115 
L 183.138529 160.453581 
L 184.769959 159.426878 
L 186.401389 160.651689 
L 188.032819 159.441289 
L 189.664249 158.853726 
L 191.295678 157.485151 
L 192.927108 159.727146 
L 194.558538 159.437266 
L 196.189968 157.985652 
L 197.821398 158.017058 
L 199.452828 157.785213 
L 201.084258 158.674412 
L 202.715688 158.772003 
L 204.347117 158.568319 
L 205.978547 161.340159 
L 207.609977 160.540371 
L 209.241407 156.905676 
L 210.872837 159.98911 
L 212.504267 159.45482 
L 214.135697 158.079195 
L 215.767127 161.144873 
L 217.398556 161.129059 
L 219.029986 159.292954 
L 220.661416 161.593025 
L 222.292846 159.432285 
L 223.924276 158.493191 
L 225.555706 161.275788 
L 227.187136 159.341309 
L 228.818566 161.652742 
L 230.449995 160.575639 
L 232.081425 161.30493 
L 233.712855 162.76451 
L 235.344285 161.687706 
L 236.975715 162.543052 
L 238.607145 160.785088 
L 240.238575 160.800907 
L 241.870005 159.869287 
L 243.501434 162.385473 
L 245.132864 160.11346 
L 246.764294 159.383381 
L 248.395724 160.812152 
L 250.027154 161.543272 
L 251.658584 158.923715 
L 253.290014 162.412845 
L 254.921444 161.340485 
L 256.552873 159.084887 
L 258.184303 160.925094 
L 259.815733 159.835403 
L 261.447163 161.205808 
L 263.078593 159.312613 
L 264.710023 161.444927 
L 266.341453 162.703501 
L 267.972883 159.328866 
L 269.604312 160.8987 
L 271.235742 159.771361 
L 272.867172 159.50197 
L 274.498602 160.426946 
L 276.130032 162.118477 
L 277.761462 159.456748 
L 279.392892 161.076404 
L 281.024322 162.477489 
L 282.655751 161.479804 
L 284.287181 159.826833 
L 285.918611 162.669656 
L 287.550041 162.821542 
L 289.181471 159.541629 
L 290.812901 159.853994 
L 292.444331 161.119109 
L 294.075761 163.541875 
L 295.70719 161.22972 
L 298.97005 161.734733 
L 300.60148 160.632042 
L 302.23291 160.468635 
L 303.86434 161.303691 
L 305.49577 158.424211 
L 307.1272 162.374149 
L 308.75863 160.692354 
L 310.390059 162.558129 
L 312.021489 159.115072 
L 313.652919 160.946976 
L 315.284349 161.769935 
L 316.915779 161.710605 
L 318.547209 159.781318 
L 320.178639 160.869886 
L 321.810069 161.153682 
L 323.441498 159.216079 
L 325.072928 162.323916 
L 326.704358 159.967812 
L 328.335788 162.449464 
L 329.967218 161.226361 
L 331.598648 161.846857 
L 333.230078 162.106517 
L 336.492937 160.982981 
L 338.124367 161.859918 
L 339.755797 160.162785 
L 341.387227 160.516441 
L 343.018657 163.261875 
L 344.650087 159.937897 
L 347.912947 160.658737 
L 349.544376 160.425987 
L 351.175806 163.934555 
L 352.807236 160.197354 
L 354.438666 160.22887 
L 356.070096 160.820523 
L 357.701526 160.182007 
L 359.332956 159.278299 
L 360.964386 158.594486 
L 362.595815 157.52288 
L 364.227245 161.657066 
L 365.858675 161.320243 
L 367.490105 160.645384 
L 369.121535 158.463258 
L 370.752965 160.119952 
L 372.384395 158.887013 
L 374.015825 159.149242 
L 375.647254 162.564688 
L 377.278684 161.029425 
L 378.910114 163.683091 
L 380.541544 160.563557 
L 382.172974 161.40862 
L 385.435834 160.373773 
L 387.067264 157.929637 
L 388.698693 158.95306 
L 390.330123 159.460311 
L 393.592983 162.074999 
L 395.224413 159.831581 
L 396.855843 163.721643 
L 398.487273 160.231528 
L 398.487273 160.231528 
" clip-path="url(#pb10df90ad3)" style="fill: none; stroke: #0000ff; stroke-width: 1.5; stroke-linecap: square"/>
   </g>
   <g id="line2d_22">
    <path d="M 73.832727 248.527745 
L 75.464157 201.458701 
L 77.095587 172.125885 
L 78.727017 152.994926 
L 81.989877 151.214126 
L 83.621307 152.31729 
L 86.884166 142.263632 
L 88.515596 141.194421 
L 90.147026 139.705033 
L 91.778456 144.675953 
L 93.409886 143.315091 
L 95.041316 141.451362 
L 96.672746 141.824906 
L 98.304175 141.261401 
L 99.935605 141.779774 
L 101.567035 139.66195 
L 103.198465 138.331563 
L 104.829895 143.474523 
L 106.461325 141.089307 
L 108.092755 140.629103 
L 109.724185 142.019225 
L 111.355614 142.114512 
L 112.987044 142.490039 
L 114.618474 137.50288 
L 116.249904 139.722929 
L 117.881334 141.731981 
L 119.512764 140.009902 
L 121.144194 141.390223 
L 122.775624 142.925484 
L 124.407053 144.651656 
L 126.038483 138.041192 
L 127.669913 139.7017 
L 129.301343 141.859172 
L 130.932773 136.541256 
L 132.564203 141.09969 
L 134.195633 140.550273 
L 135.827063 139.780023 
L 137.458492 141.571881 
L 139.089922 139.975137 
L 140.721352 137.902896 
L 142.352782 140.12024 
L 143.984212 141.081181 
L 145.615642 139.236042 
L 147.247072 143.889935 
L 148.878502 139.588668 
L 150.509931 140.348346 
L 152.141361 137.943958 
L 153.772791 140.664071 
L 155.404221 137.048605 
L 157.035651 138.514203 
L 158.667081 140.738338 
L 160.298511 140.301552 
L 161.929941 143.147378 
L 163.56137 142.64046 
L 165.1928 138.187844 
L 166.82423 138.618037 
L 168.45566 140.454435 
L 170.08709 139.639471 
L 171.71852 140.146529 
L 174.98138 136.947107 
L 176.61281 136.868951 
L 178.244239 140.225792 
L 179.875669 139.893684 
L 181.507099 137.548746 
L 183.138529 141.604076 
L 184.769959 138.045614 
L 186.401389 140.195029 
L 188.032819 137.497024 
L 189.664249 138.076934 
L 191.295678 137.52526 
L 192.927108 137.688557 
L 194.558538 141.054699 
L 196.189968 137.202985 
L 197.821398 138.172323 
L 199.452828 138.254521 
L 201.084258 137.236355 
L 202.715688 137.522383 
L 204.347117 138.016122 
L 205.978547 140.462171 
L 207.609977 139.495213 
L 209.241407 137.146219 
L 210.872837 139.599929 
L 212.504267 138.992565 
L 214.135697 138.158366 
L 215.767127 142.895999 
L 217.398556 140.052037 
L 219.029986 139.091134 
L 220.661416 140.678909 
L 222.292846 138.781737 
L 223.924276 139.211992 
L 225.555706 140.139196 
L 227.187136 139.616025 
L 228.818566 142.20303 
L 230.449995 140.706076 
L 232.081425 140.914397 
L 233.712855 143.798196 
L 235.344285 142.921697 
L 236.975715 142.442204 
L 238.607145 142.809309 
L 240.238575 138.713088 
L 241.870005 140.448244 
L 243.501434 140.7401 
L 245.132864 139.130956 
L 246.764294 138.112816 
L 248.395724 141.696982 
L 250.027154 142.845791 
L 251.658584 137.736866 
L 253.290014 140.818216 
L 254.921444 140.795864 
L 256.552873 135.804259 
L 258.184303 140.031369 
L 259.815733 139.106595 
L 261.447163 142.310164 
L 263.078593 138.620951 
L 264.710023 140.731714 
L 266.341453 142.657566 
L 267.972883 140.486146 
L 269.604312 138.96897 
L 271.235742 140.451043 
L 272.867172 137.865034 
L 274.498602 141.799827 
L 276.130032 142.456021 
L 277.761462 140.550594 
L 279.392892 140.511707 
L 281.024322 141.853337 
L 282.655751 142.49526 
L 284.287181 137.629212 
L 285.918611 145.139027 
L 287.550041 144.507784 
L 289.181471 139.450502 
L 290.812901 139.727385 
L 292.444331 141.518216 
L 294.075761 141.774168 
L 295.70719 140.401266 
L 297.33862 142.097285 
L 298.97005 142.085049 
L 300.60148 139.05557 
L 303.86434 141.612561 
L 305.49577 138.332681 
L 307.1272 143.947075 
L 308.75863 140.338597 
L 310.390059 144.155191 
L 312.021489 139.051585 
L 313.652919 140.581296 
L 315.284349 142.270532 
L 316.915779 140.718816 
L 318.547209 140.51146 
L 320.178639 136.71866 
L 321.810069 138.4483 
L 323.441498 136.070714 
L 325.072928 141.310484 
L 326.704358 139.229459 
L 328.335788 142.593001 
L 329.967218 137.710332 
L 331.598648 140.367589 
L 333.230078 140.464109 
L 334.861508 139.856439 
L 336.492937 140.646859 
L 338.124367 141.043601 
L 339.755797 138.945627 
L 341.387227 139.239887 
L 343.018657 144.064815 
L 344.650087 138.829707 
L 346.281517 137.309552 
L 347.912947 140.636545 
L 349.544376 138.735359 
L 351.175806 143.312097 
L 352.807236 139.967049 
L 354.438666 140.519319 
L 356.070096 140.816912 
L 357.701526 139.775839 
L 359.332956 140.082244 
L 360.964386 139.202207 
L 362.595815 138.114167 
L 364.227245 142.033788 
L 365.858675 140.081979 
L 367.490105 141.113919 
L 369.121535 135.551391 
L 370.752965 140.028609 
L 372.384395 138.539369 
L 374.015825 139.052695 
L 375.647254 141.171456 
L 377.278684 139.186719 
L 378.910114 143.69901 
L 380.541544 140.258838 
L 382.172974 141.65335 
L 385.435834 139.818786 
L 387.067264 136.204171 
L 388.698693 139.469998 
L 390.330123 138.74689 
L 391.961553 139.035008 
L 393.592983 141.570474 
L 395.224413 140.392943 
L 396.855843 141.348479 
L 398.487273 141.379677 
L 398.487273 141.379677 
" clip-path="url(#pb10df90ad3)" style="fill: none; stroke-dasharray: 9.6,2.4,1.5,2.4; stroke-dashoffset: 0; stroke: #008000; stroke-width: 1.5"/>
   </g>
   <g id="line2d_23">
    <path d="M 73.832727 129.72697 
L 75.464157 130.028909 
L 77.095587 125.392324 
L 78.727017 112.72367 
L 80.358447 101.299501 
L 83.621307 116.498374 
L 85.252736 101.763773 
L 86.884166 90.189127 
L 88.515596 91.394927 
L 90.147026 89.964286 
L 91.778456 101.661401 
L 93.409886 87.34945 
L 95.041316 108.535905 
L 96.672746 104.895303 
L 98.304175 90.239318 
L 99.935605 90.586824 
L 101.567035 77.050694 
L 103.198465 87.160307 
L 104.829895 58.851081 
L 106.461325 93.922122 
L 108.092755 84.015924 
L 109.724185 100.856878 
L 111.355614 93.725794 
L 112.987044 104.77477 
L 114.618474 84.013222 
L 116.249904 71.148922 
L 117.881334 86.993519 
L 119.512764 100.789285 
L 121.144194 98.023437 
L 122.775624 93.679933 
L 124.407053 120.647787 
L 126.038483 97.277852 
L 127.669913 77.384435 
L 129.301343 83.388618 
L 130.932773 86.945248 
L 132.564203 93.72114 
L 134.195633 87.381979 
L 135.827063 74.03529 
L 137.458492 73.912196 
L 139.089922 86.403354 
L 140.721352 83.585404 
L 142.352782 97.63431 
L 143.984212 98.188659 
L 145.615642 93.614234 
L 147.247072 86.929851 
L 148.878502 94.338331 
L 150.509931 101.137276 
L 152.141361 71.020669 
L 153.772791 120.572072 
L 155.404221 80.150838 
L 157.035651 59.233542 
L 158.667081 93.733357 
L 160.298511 108.679082 
L 161.929941 94.674608 
L 163.56137 101.309664 
L 165.1928 97.048897 
L 166.82423 93.889798 
L 168.45566 93.861422 
L 170.08709 73.688918 
L 171.71852 94.103528 
L 173.34995 104.839722 
L 174.98138 73.990307 
L 176.61281 90.83743 
L 178.244239 87.306628 
L 179.875669 87.47206 
L 181.507099 101.220837 
L 183.138529 97.045004 
L 184.769959 87.035907 
L 186.401389 83.257059 
L 188.032819 86.935192 
L 189.664249 73.727634 
L 191.295678 93.473381 
L 192.927108 59.070018 
L 194.558538 104.639396 
L 196.189968 86.951142 
L 197.821398 101.293006 
L 199.452828 97.576619 
L 201.084258 70.879717 
L 202.715688 90.43816 
L 204.347117 71.36534 
L 205.978547 90.688977 
L 207.609977 80.472803 
L 209.241407 101.242206 
L 210.872837 77.175134 
L 212.504267 90.194596 
L 214.135697 87.316527 
L 215.767127 97.391349 
L 217.398556 76.933602 
L 219.029986 80.19503 
L 220.661416 101.110137 
L 222.292846 97.392921 
L 223.924276 100.805019 
L 225.555706 93.457649 
L 227.187136 86.850787 
L 228.818566 83.493897 
L 230.449995 100.678423 
L 232.081425 64.882244 
L 233.712855 93.792708 
L 235.344285 108.955941 
L 236.975715 112.90389 
L 238.607145 101.304408 
L 240.238575 86.927167 
L 241.870005 93.950988 
L 243.501434 90.223239 
L 245.132864 83.74221 
L 246.764294 101.626205 
L 248.395724 104.831374 
L 250.027154 91.132285 
L 251.658584 90.492733 
L 253.290014 108.351558 
L 254.921444 90.217216 
L 256.552873 86.979651 
L 258.184303 94.107199 
L 259.815733 86.892845 
L 261.447163 97.351049 
L 263.078593 93.501175 
L 264.710023 105.127424 
L 266.341453 97.300326 
L 267.972883 104.941221 
L 269.604312 93.732774 
L 271.235742 91.08788 
L 272.867172 74.092498 
L 274.498602 97.932502 
L 276.130032 93.868293 
L 277.761462 101.109203 
L 279.392892 86.766434 
L 281.024322 93.494583 
L 282.655751 94.47924 
L 284.287181 97.52397 
L 285.918611 93.92005 
L 287.550041 112.652895 
L 289.181471 94.173947 
L 290.812901 93.795306 
L 292.444331 105.171768 
L 294.075761 104.841676 
L 295.70719 90.873185 
L 297.33862 100.867903 
L 298.97005 108.759634 
L 300.60148 80.476677 
L 302.23291 97.232205 
L 303.86434 97.517036 
L 305.49577 83.759013 
L 307.1272 108.91203 
L 308.75863 101.655446 
L 310.390059 101.550732 
L 312.021489 93.884553 
L 313.652919 97.545808 
L 315.284349 90.07127 
L 316.915779 90.663745 
L 318.547209 104.646786 
L 320.178639 53.568 
L 321.810069 90.225059 
L 323.441498 83.669799 
L 325.072928 73.730052 
L 328.335788 93.763559 
L 329.967218 83.383038 
L 331.598648 101.193449 
L 333.230078 80.141636 
L 334.861508 90.966717 
L 336.492937 93.878349 
L 338.124367 80.276874 
L 339.755797 67.812712 
L 341.387227 90.119864 
L 343.018657 97.77377 
L 346.281517 76.961288 
L 347.912947 105.8257 
L 349.544376 97.622324 
L 351.175806 80.470808 
L 352.807236 64.792873 
L 354.438666 90.446717 
L 356.070096 83.859174 
L 357.701526 112.773621 
L 359.332956 93.853757 
L 360.964386 94.414385 
L 362.595815 97.670293 
L 365.858675 90.390327 
L 367.490105 90.17958 
L 369.121535 74.200315 
L 370.752965 80.973729 
L 372.384395 94.167794 
L 374.015825 73.915288 
L 375.647254 80.229628 
L 377.278684 62.264515 
L 378.910114 90.476968 
L 380.541544 98.179089 
L 382.172974 101.077086 
L 383.804404 87.167979 
L 385.435834 90.310372 
L 387.067264 86.856118 
L 388.698693 93.949054 
L 390.330123 90.198118 
L 391.961553 87.077372 
L 393.592983 97.531784 
L 395.224413 90.450687 
L 396.855843 93.30704 
L 398.487273 93.741534 
L 398.487273 93.741534 
" clip-path="url(#pb10df90ad3)" style="fill: none; stroke: #ff0000; stroke-width: 1.5; stroke-linecap: square"/>
   </g>
   <g id="patch_3">
    <path d="M 57.6 307.584 
L 57.6 41.472 
" style="fill: none; stroke: #000000; stroke-width: 0.8; stroke-linejoin: miter; stroke-linecap: square"/>
   </g>
   <g id="patch_4">
    <path d="M 414.72 307.584 
L 414.72 41.472 
" style="fill: none; stroke: #000000; stroke-width: 0.8; stroke-linejoin: miter; stroke-linecap: square"/>
   </g>
   <g id="patch_5">
    <path d="M 57.6 307.584 
L 414.72 307.584 
" style="fill: none; stroke: #000000; stroke-width: 0.8; stroke-linejoin: miter; stroke-linecap: square"/>
   </g>
   <g id="patch_6">
    <path d="M 57.6 41.472 
L 414.72 41.472 
" style="fill: none; stroke: #000000; stroke-width: 0.8; stroke-linejoin: miter; stroke-linecap: square"/>
   </g>
   <g id="text_13">
    <!-- Średnie i najlepsze przystosowanie w każdej generacji -->
    <g transform="translate(73.26 35.472) scale(0.12 -0.12)">
     <defs>
      <path id="DejaVuSans-15a" d="M 2236 5921 
L 2814 5921 
L 2102 5096 
L 1623 5096 
L 2236 5921 
z
M 3425 4513 
L 3425 3897 
Q 3066 4069 2747 4153 
Q 2428 4238 2131 4238 
Q 1616 4238 1336 4038 
Q 1056 3838 1056 3469 
Q 1056 3159 1242 3001 
Q 1428 2844 1947 2747 
L 2328 2669 
Q 3034 2534 3370 2195 
Q 3706 1856 3706 1288 
Q 3706 609 3251 259 
Q 2797 -91 1919 -91 
Q 1588 -91 1214 -16 
Q 841 59 441 206 
L 441 856 
Q 825 641 1194 531 
Q 1563 422 1919 422 
Q 2459 422 2753 634 
Q 3047 847 3047 1241 
Q 3047 1584 2836 1778 
Q 2625 1972 2144 2069 
L 1759 2144 
Q 1053 2284 737 2584 
Q 422 2884 422 3419 
Q 422 4038 858 4394 
Q 1294 4750 2059 4750 
Q 2388 4750 2728 4690 
Q 3069 4631 3425 4513 
z
" transform="scale(0.015625)"/>
      <path id="DejaVuSans-64" d="M 2906 2969 
L 2906 4863 
L 3481 4863 
L 3481 0 
L 2906 0 
L 2906 525 
Q 2725 213 2448 61 
Q 2172 -91 1784 -91 
Q 1150 -91 751 415 
Q 353 922 353 1747 
Q 353 2572 751 3078 
Q 1150 3584 1784 3584 
Q 2172 3584 2448 3432 
Q 2725 3281 2906 2969 
z
M 947 1747 
Q 947 1113 1208 752 
Q 1469 391 1925 391 
Q 2381 391 2643 752 
Q 2906 1113 2906 1747 
Q 2906 2381 2643 2742 
Q 2381 3103 1925 3103 
Q 1469 3103 1208 2742 
Q 947 2381 947 1747 
z
" transform="scale(0.015625)"/>
      <path id="DejaVuSans-20" transform="scale(0.015625)"/>
      <path id="DejaVuSans-6c" d="M 603 4863 
L 1178 4863 
L 1178 0 
L 603 0 
L 603 4863 
z
" transform="scale(0.015625)"/>
      <path id="DejaVuSans-70" d="M 1159 525 
L 1159 -1331 
L 581 -1331 
L 581 3500 
L 1159 3500 
L 1159 2969 
Q 1341 3281 1617 3432 
Q 1894 3584 2278 3584 
Q 2916 3584 3314 3078 
Q 3713 2572 3713 1747 
Q 3713 922 3314 415 
Q 2916 -91 2278 -91 
Q 1894 -91 1617 61 
Q 1341 213 1159 525 
z
M 3116 1747 
Q 3116 2381 2855 2742 
Q 2594 3103 2138 3103 
Q 1681 3103 1420 2742 
Q 1159 2381 1159 1747 
Q 1159 1113 1420 752 
Q 1681 391 2138 391 
Q 2594 391 2855 752 
Q 3116 1113 3116 1747 
z
" transform="scale(0.015625)"/>
      <path id="DejaVuSans-6b" d="M 581 4863 
L 1159 4863 
L 1159 1991 
L 2875 3500 
L 3609 3500 
L 1753 1863 
L 3688 0 
L 2938 0 
L 1159 1709 
L 1159 0 
L 581 0 
L 581 4863 
z
" transform="scale(0.015625)"/>
      <path id="DejaVuSans-17c" d="M 1378 4863 
L 1953 4863 
L 1953 4134 
L 1378 4134 
L 1378 4863 
z
M 1672 3584 
L 1672 3584 
z
M 353 3500 
L 3084 3500 
L 3084 2975 
L 922 459 
L 3084 459 
L 3084 0 
L 275 0 
L 275 525 
L 2438 3041 
L 353 3041 
L 353 3500 
z
" transform="scale(0.015625)"/>
      <path id="DejaVuSans-67" d="M 2906 1791 
Q 2906 2416 2648 2759 
Q 2391 3103 1925 3103 
Q 1463 3103 1205 2759 
Q 947 2416 947 1791 
Q 947 1169 1205 825 
Q 1463 481 1925 481 
Q 2391 481 2648 825 
Q 2906 1169 2906 1791 
z
M 3481 434 
Q 3481 -459 3084 -895 
Q 2688 -1331 1869 -1331 
Q 1566 -1331 1297 -1286 
Q 1028 -1241 775 -1147 
L 775 -588 
Q 1028 -725 1275 -790 
Q 1522 -856 1778 -856 
Q 2344 -856 2625 -561 
Q 2906 -266 2906 331 
L 2906 616 
Q 2728 306 2450 153 
Q 2172 0 1784 0 
Q 1141 0 747 490 
Q 353 981 353 1791 
Q 353 2603 747 3093 
Q 1141 3584 1784 3584 
Q 2172 3584 2450 3431 
Q 2728 3278 2906 2969 
L 2906 3500 
L 3481 3500 
L 3481 434 
z
" transform="scale(0.015625)"/>
     </defs>
     <use xlink:href="#DejaVuSans-15a"/>
     <use xlink:href="#DejaVuSans-72" transform="translate(63.476562 0)"/>
     <use xlink:href="#DejaVuSans-65" transform="translate(102.339844 0)"/>
     <use xlink:href="#DejaVuSans-64" transform="translate(163.863281 0)"/>
     <use xlink:href="#DejaVuSans-6e" transform="translate(227.339844 0)"/>
     <use xlink:href="#DejaVuSans-69" transform="translate(290.71875 0)"/>
     <use xlink:href="#DejaVuSans-65" transform="translate(318.501953 0)"/>
     <use xlink:href="#DejaVuSans-20" transform="translate(380.025391 0)"/>
     <use xlink:href="#DejaVuSans-69" transform="translate(411.8125 0)"/>
     <use xlink:href="#DejaVuSans-20" transform="translate(439.595703 0)"/>
     <use xlink:href="#DejaVuSans-6e" transform="translate(471.382812 0)"/>
     <use xlink:href="#DejaVuSans-61" transform="translate(534.761719 0)"/>
     <use xlink:href="#DejaVuSans-6a" transform="translate(596.041016 0)"/>
     <use xlink:href="#DejaVuSans-6c" transform="translate(623.824219 0)"/>
     <use xlink:href="#DejaVuSans-65" transform="translate(651.607422 0)"/>
     <use xlink:href="#DejaVuSans-70" transform="translate(713.130859 0)"/>
     <use xlink:href="#DejaVuSans-73" transform="translate(776.607422 0)"/>
     <use xlink:href="#DejaVuSans-7a" transform="translate(828.707031 0)"/>
     <use xlink:href="#DejaVuSans-65" transform="translate(881.197266 0)"/>
     <use xlink:href="#DejaVuSans-20" transform="translate(942.720703 0)"/>
     <use xlink:href="#DejaVuSans-70" transform="translate(974.507812 0)"/>
     <use xlink:href="#DejaVuSans-72" transform="translate(1037.984375 0)"/>
     <use xlink:href="#DejaVuSans-7a" transform="translate(1079.097656 0)"/>
     <use xlink:href="#DejaVuSans-79" transform="translate(1131.587891 0)"/>
     <use xlink:href="#DejaVuSans-73" transform="translate(1190.767578 0)"/>
     <use xlink:href="#DejaVuSans-74" transform="translate(1242.867188 0)"/>
     <use xlink:href="#DejaVuSans-6f" transform="translate(1282.076172 0)"/>
     <use xlink:href="#DejaVuSans-73" transform="translate(1343.257812 0)"/>
     <use xlink:href="#DejaVuSans-6f" transform="translate(1395.357422 0)"/>
     <use xlink:href="#DejaVuSans-77" transform="translate(1456.539062 0)"/>
     <use xlink:href="#DejaVuSans-61" transform="translate(1538.326172 0)"/>
     <use xlink:href="#DejaVuSans-6e" transform="translate(1599.605469 0)"/>
     <use xlink:href="#DejaVuSans-69" transform="translate(1662.984375 0)"/>
     <use xlink:href="#DejaVuSans-65" transform="translate(1690.767578 0)"/>
     <use xlink:href="#DejaVuSans-20" transform="translate(1752.291016 0)"/>
     <use xlink:href="#DejaVuSans-77" transform="translate(1784.078125 0)"/>
     <use xlink:href="#DejaVuSans-20" transform="translate(1865.865234 0)"/>
     <use xlink:href="#DejaVuSans-6b" transform="translate(1897.652344 0)"/>
     <use xlink:href="#DejaVuSans-61" transform="translate(1953.8125 0)"/>
     <use xlink:href="#DejaVuSans-17c" transform="translate(2015.091797 0)"/>
     <use xlink:href="#DejaVuSans-64" transform="translate(2067.582031 0)"/>
     <use xlink:href="#DejaVuSans-65" transform="translate(2131.058594 0)"/>
     <use xlink:href="#DejaVuSans-6a" transform="translate(2192.582031 0)"/>
     <use xlink:href="#DejaVuSans-20" transform="translate(2220.365234 0)"/>
     <use xlink:href="#DejaVuSans-67" transform="translate(2252.152344 0)"/>
     <use xlink:href="#DejaVuSans-65" transform="translate(2315.628906 0)"/>
     <use xlink:href="#DejaVuSans-6e" transform="translate(2377.152344 0)"/>
     <use xlink:href="#DejaVuSans-65" transform="translate(2440.53125 0)"/>
     <use xlink:href="#DejaVuSans-72" transform="translate(2502.054688 0)"/>
     <use xlink:href="#DejaVuSans-61" transform="translate(2543.167969 0)"/>
     <use xlink:href="#DejaVuSans-63" transform="translate(2604.447266 0)"/>
     <use xlink:href="#DejaVuSans-6a" transform="translate(2659.427734 0)"/>
     <use xlink:href="#DejaVuSans-69" transform="translate(2687.210938 0)"/>
    </g>
   </g>
   <g id="legend_1">
    <g id="patch_7">
     <path d="M 279.790313 302.584 
L 407.72 302.584 
Q 409.72 302.584 409.72 300.584 
L 409.72 257.549625 
Q 409.72 255.549625 407.72 255.549625 
L 279.790313 255.549625 
Q 277.790313 255.549625 277.790313 257.549625 
L 277.790313 300.584 
Q 277.790313 302.584 279.790313 302.584 
z
" style="fill: #ffffff; opacity: 0.8; stroke: #cccccc; stroke-linejoin: miter"/>
    </g>
    <g id="line2d_24">
     <path d="M 281.790313 263.648062 
L 291.790313 263.648062 
L 301.790313 263.648062 
" style="fill: none; stroke: #0000ff; stroke-width: 1.5; stroke-linecap: square"/>
    </g>
    <g id="text_14">
     <!-- Średnia -->
     <g transform="translate(309.790313 267.148062) scale(0.1 -0.1)">
      <use xlink:href="#DejaVuSans-15a"/>
      <use xlink:href="#DejaVuSans-72" transform="translate(63.476562 0)"/>
      <use xlink:href="#DejaVuSans-65" transform="translate(102.339844 0)"/>
      <use xlink:href="#DejaVuSans-64" transform="translate(163.863281 0)"/>
      <use xlink:href="#DejaVuSans-6e" transform="translate(227.339844 0)"/>
      <use xlink:href="#DejaVuSans-69" transform="translate(290.71875 0)"/>
      <use xlink:href="#DejaVuSans-61" transform="translate(318.501953 0)"/>
     </g>
    </g>
    <g id="line2d_25">
     <path d="M 281.790313 278.326188 
L 291.790313 278.326188 
L 301.790313 278.326188 
" style="fill: none; stroke-dasharray: 9.6,2.4,1.5,2.4; stroke-dashoffset: 0; stroke: #008000; stroke-width: 1.5"/>
    </g>
    <g id="text_15">
     <!-- ±1 Odchylenie std. -->
     <g transform="translate(309.790313 281.826188) scale(0.1 -0.1)">
      <defs>
       <path id="DejaVuSans-b1" d="M 2944 4013 
L 2944 2803 
L 4684 2803 
L 4684 2272 
L 2944 2272 
L 2944 1063 
L 2419 1063 
L 2419 2272 
L 678 2272 
L 678 2803 
L 2419 2803 
L 2419 4013 
L 2944 4013 
z
M 678 531 
L 4684 531 
L 4684 0 
L 678 0 
L 678 531 
z
" transform="scale(0.015625)"/>
       <path id="DejaVuSans-4f" d="M 2522 4238 
Q 1834 4238 1429 3725 
Q 1025 3213 1025 2328 
Q 1025 1447 1429 934 
Q 1834 422 2522 422 
Q 3209 422 3611 934 
Q 4013 1447 4013 2328 
Q 4013 3213 3611 3725 
Q 3209 4238 2522 4238 
z
M 2522 4750 
Q 3503 4750 4090 4092 
Q 4678 3434 4678 2328 
Q 4678 1225 4090 567 
Q 3503 -91 2522 -91 
Q 1538 -91 948 565 
Q 359 1222 359 2328 
Q 359 3434 948 4092 
Q 1538 4750 2522 4750 
z
" transform="scale(0.015625)"/>
       <path id="DejaVuSans-68" d="M 3513 2113 
L 3513 0 
L 2938 0 
L 2938 2094 
Q 2938 2591 2744 2837 
Q 2550 3084 2163 3084 
Q 1697 3084 1428 2787 
Q 1159 2491 1159 1978 
L 1159 0 
L 581 0 
L 581 4863 
L 1159 4863 
L 1159 2956 
Q 1366 3272 1645 3428 
Q 1925 3584 2291 3584 
Q 2894 3584 3203 3211 
Q 3513 2838 3513 2113 
z
" transform="scale(0.015625)"/>
       <path id="DejaVuSans-2e" d="M 684 794 
L 1344 794 
L 1344 0 
L 684 0 
L 684 794 
z
" transform="scale(0.015625)"/>
      </defs>
      <use xlink:href="#DejaVuSans-b1"/>
      <use xlink:href="#DejaVuSans-31" transform="translate(83.789062 0)"/>
      <use xlink:href="#DejaVuSans-20" transform="translate(147.412109 0)"/>
      <use xlink:href="#DejaVuSans-4f" transform="translate(179.199219 0)"/>
      <use xlink:href="#DejaVuSans-64" transform="translate(257.910156 0)"/>
      <use xlink:href="#DejaVuSans-63" transform="translate(321.386719 0)"/>
      <use xlink:href="#DejaVuSans-68" transform="translate(376.367188 0)"/>
      <use xlink:href="#DejaVuSans-79" transform="translate(439.746094 0)"/>
      <use xlink:href="#DejaVuSans-6c" transform="translate(498.925781 0)"/>
      <use xlink:href="#DejaVuSans-65" transform="translate(526.708984 0)"/>
      <use xlink:href="#DejaVuSans-6e" transform="translate(588.232422 0)"/>
      <use xlink:href="#DejaVuSans-69" transform="translate(651.611328 0)"/>
      <use xlink:href="#DejaVuSans-65" transform="translate(679.394531 0)"/>
      <use xlink:href="#DejaVuSans-20" transform="translate(740.917969 0)"/>
      <use xlink:href="#DejaVuSans-73" transform="translate(772.705078 0)"/>
      <use xlink:href="#DejaVuSans-74" transform="translate(824.804688 0)"/>
      <use xlink:href="#DejaVuSans-64" transform="translate(864.013672 0)"/>
      <use xlink:href="#DejaVuSans-2e" transform="translate(927.490234 0)"/>
     </g>
    </g>
    <g id="line2d_26">
     <path d="M 281.790313 293.004312 
L 291.790313 293.004312 
L 301.790313 293.004312 
" style="fill: none; stroke: #ff0000; stroke-width: 1.5; stroke-linecap: square"/>
    </g>
    <g id="text_16">
     <!-- Najlepsze -->
     <g transform="translate(309.790313 296.504312) scale(0.1 -0.1)">
      <defs>
       <path id="DejaVuSans-4e" d="M 628 4666 
L 1478 4666 
L 3547 763 
L 3547 4666 
L 4159 4666 
L 4159 0 
L 3309 0 
L 1241 3903 
L 1241 0 
L 628 0 
L 628 4666 
z
" transform="scale(0.015625)"/>
      </defs>
      <use xlink:href="#DejaVuSans-4e"/>
      <use xlink:href="#DejaVuSans-61" transform="translate(74.804688 0)"/>
      <use xlink:href="#DejaVuSans-6a" transform="translate(136.083984 0)"/>
      <use xlink:href="#DejaVuSans-6c" transform="translate(163.867188 0)"/>
      <use xlink:href="#DejaVuSans-65" transform="translate(191.650391 0)"/>
      <use xlink:href="#DejaVuSans-70" transform="translate(253.173828 0)"/>
      <use xlink:href="#DejaVuSans-73" transform="translate(316.650391 0)"/>
      <use xlink:href="#DejaVuSans-7a" transform="translate(368.75 0)"/>
      <use xlink:href="#DejaVuSans-65" transform="translate(421.240234 0)"/>
     </g>
    </g>
   </g>
  </g>
 </g>
 <defs>
  <clipPath id="pb10df90ad3">
   <rect x="57.6" y="41.472" width="357.12" height="266.112"/>
  </clipPath>
 </defs>
</svg>
