<?xml version="1.0" encoding="utf-8" standalone="no"?>
<!DOCTYPE svg PUBLIC "-//W3C//DTD SVG 1.1//EN"
  "http://www.w3.org/Graphics/SVG/1.1/DTD/svg11.dtd">
<svg xmlns:xlink="http://www.w3.org/1999/xlink" width="460.8pt" height="345.6pt" viewBox="0 0 460.8 345.6" xmlns="http://www.w3.org/2000/svg" version="1.1">
 <metadata>
  <rdf:RDF xmlns:dc="http://purl.org/dc/elements/1.1/" xmlns:cc="http://creativecommons.org/ns#" xmlns:rdf="http://www.w3.org/1999/02/22-rdf-syntax-ns#">
   <cc:Work>
    <dc:type rdf:resource="http://purl.org/dc/dcmitype/StillImage"/>
    <dc:date>2026-04-26T22:45:13.029915</dc:date>
    <dc:format>image/svg+xml</dc:format>
    <dc:creator>
     <cc:Agent>
      <dc:title>Matplotlib v3.10.8, https://matplotlib.org/</dc:title>
     </cc:Agent>
    </dc:creator>
   </cc:Work>
  </rdf:RDF>
 </metadata>
 <defs>
  <style type="text/css">*{stroke-linejoin: round; stroke-linecap: butt}</style>
 </defs>
 <g id="figure_1">
  <g id="patch_1">
   <path d="M 0 345.6 
L 460.8 345.6 
L 460.8 0 
L 0 0 
z
" style="fill: #ffffff"/>
  </g>
  <g id="axes_1">
   <g id="patch_2">
    <path d="M 57.6 307.584 
L 414.72 307.584 
L 414.72 41.472 
L 57.6 41.472 
z
" style="fill: #ffffff"/>
   </g>
   <g id="matplotlib.axis_1">
    <g id="xtick_1">
     <g id="line2d_1">
      <path d="M 72.201297 307.584 
L 72.201297 41.472 
" clip-path="url(#p112bf9fb88)" style="fill: none; stroke: #b0b0b0; stroke-width: 0.8; stroke-linecap: square"/>
     </g>
     <g id="line2d_2">
      <defs>
       <path id="m8e92499de6" d="M 0 0 
L 0 3.5 
" style="stroke: #000000; stroke-width: 0.8"/>
      </defs>
      <g>
       <use xlink:href="#m8e92499de6" x="72.201297" y="307.584" style="stroke: #000000; stroke-width: 0.8"/>
      </g>
     </g>
     <g id="text_1">
      <!-- 0 -->
      <g transform="translate(69.020047 322.182437) scale(0.1 -0.1)">
       <defs>
        <path id="DejaVuSans-30" d="M 2034 4250 
Q 1547 4250 1301 3770 
Q 1056 3291 1056 2328 
Q 1056 1369 1301 889 
Q 1547 409 2034 409 
Q 2525 409 2770 889 
Q 3016 1369 3016 2328 
Q 3016 3291 2770 3770 
Q 2525 4250 2034 4250 
z
M 2034 4750 
Q 2819 4750 3233 4129 
Q 3647 3509 3647 2328 
Q 3647 1150 3233 529 
Q 2819 -91 2034 -91 
Q 1250 -91 836 529 
Q 422 1150 422 2328 
Q 422 3509 836 4129 
Q 1250 4750 2034 4750 
z
" transform="scale(0.015625)"/>
       </defs>
       <use xlink:href="#DejaVuSans-30"/>
      </g>
     </g>
    </g>
    <g id="xtick_2">
     <g id="line2d_3">
      <path d="M 112.987044 307.584 
L 112.987044 41.472 
" clip-path="url(#p112bf9fb88)" style="fill: none; stroke: #b0b0b0; stroke-width: 0.8; stroke-linecap: square"/>
     </g>
     <g id="line2d_4">
      <g>
       <use xlink:href="#m8e92499de6" x="112.987044" y="307.584" style="stroke: #000000; stroke-width: 0.8"/>
      </g>
     </g>
     <g id="text_2">
      <!-- 25 -->
      <g transform="translate(106.624544 322.182437) scale(0.1 -0.1)">
       <defs>
        <path id="DejaVuSans-32" d="M 1228 531 
L 3431 531 
L 3431 0 
L 469 0 
L 469 531 
Q 828 903 1448 1529 
Q 2069 2156 2228 2338 
Q 2531 2678 2651 2914 
Q 2772 3150 2772 3378 
Q 2772 3750 2511 3984 
Q 2250 4219 1831 4219 
Q 1534 4219 1204 4116 
Q 875 4013 500 3803 
L 500 4441 
Q 881 4594 1212 4672 
Q 1544 4750 1819 4750 
Q 2544 4750 2975 4387 
Q 3406 4025 3406 3419 
Q 3406 3131 3298 2873 
Q 3191 2616 2906 2266 
Q 2828 2175 2409 1742 
Q 1991 1309 1228 531 
z
" transform="scale(0.015625)"/>
        <path id="DejaVuSans-35" d="M 691 4666 
L 3169 4666 
L 3169 4134 
L 1269 4134 
L 1269 2991 
Q 1406 3038 1543 3061 
Q 1681 3084 1819 3084 
Q 2600 3084 3056 2656 
Q 3513 2228 3513 1497 
Q 3513 744 3044 326 
Q 2575 -91 1722 -91 
Q 1428 -91 1123 -41 
Q 819 9 494 109 
L 494 744 
Q 775 591 1075 516 
Q 1375 441 1709 441 
Q 2250 441 2565 725 
Q 2881 1009 2881 1497 
Q 2881 1984 2565 2268 
Q 2250 2553 1709 2553 
Q 1456 2553 1204 2497 
Q 953 2441 691 2322 
L 691 4666 
z
" transform="scale(0.015625)"/>
       </defs>
       <use xlink:href="#DejaVuSans-32"/>
       <use xlink:href="#DejaVuSans-35" transform="translate(63.623047 0)"/>
      </g>
     </g>
    </g>
    <g id="xtick_3">
     <g id="line2d_5">
      <path d="M 153.772791 307.584 
L 153.772791 41.472 
" clip-path="url(#p112bf9fb88)" style="fill: none; stroke: #b0b0b0; stroke-width: 0.8; stroke-linecap: square"/>
     </g>
     <g id="line2d_6">
      <g>
       <use xlink:href="#m8e92499de6" x="153.772791" y="307.584" style="stroke: #000000; stroke-width: 0.8"/>
      </g>
     </g>
     <g id="text_3">
      <!-- 50 -->
      <g transform="translate(147.410291 322.182437) scale(0.1 -0.1)">
       <use xlink:href="#DejaVuSans-35"/>
       <use xlink:href="#DejaVuSans-30" transform="translate(63.623047 0)"/>
      </g>
     </g>
    </g>
    <g id="xtick_4">
     <g id="line2d_7">
      <path d="M 194.558538 307.584 
L 194.558538 41.472 
" clip-path="url(#p112bf9fb88)" style="fill: none; stroke: #b0b0b0; stroke-width: 0.8; stroke-linecap: square"/>
     </g>
     <g id="line2d_8">
      <g>
       <use xlink:href="#m8e92499de6" x="194.558538" y="307.584" style="stroke: #000000; stroke-width: 0.8"/>
      </g>
     </g>
     <g id="text_4">
      <!-- 75 -->
      <g transform="translate(188.196038 322.182437) scale(0.1 -0.1)">
       <defs>
        <path id="DejaVuSans-37" d="M 525 4666 
L 3525 4666 
L 3525 4397 
L 1831 0 
L 1172 0 
L 2766 4134 
L 525 4134 
L 525 4666 
z
" transform="scale(0.015625)"/>
       </defs>
       <use xlink:href="#DejaVuSans-37"/>
       <use xlink:href="#DejaVuSans-35" transform="translate(63.623047 0)"/>
      </g>
     </g>
    </g>
    <g id="xtick_5">
     <g id="line2d_9">
      <path d="M 235.344285 307.584 
L 235.344285 41.472 
" clip-path="url(#p112bf9fb88)" style="fill: none; stroke: #b0b0b0; stroke-width: 0.8; stroke-linecap: square"/>
     </g>
     <g id="line2d_10">
      <g>
       <use xlink:href="#m8e92499de6" x="235.344285" y="307.584" style="stroke: #000000; stroke-width: 0.8"/>
      </g>
     </g>
     <g id="text_5">
      <!-- 100 -->
      <g transform="translate(225.800535 322.182437) scale(0.1 -0.1)">
       <defs>
        <path id="DejaVuSans-31" d="M 794 531 
L 1825 531 
L 1825 4091 
L 703 3866 
L 703 4441 
L 1819 4666 
L 2450 4666 
L 2450 531 
L 3481 531 
L 3481 0 
L 794 0 
L 794 531 
z
" transform="scale(0.015625)"/>
       </defs>
       <use xlink:href="#DejaVuSans-31"/>
       <use xlink:href="#DejaVuSans-30" transform="translate(63.623047 0)"/>
       <use xlink:href="#DejaVuSans-30" transform="translate(127.246094 0)"/>
      </g>
     </g>
    </g>
    <g id="xtick_6">
     <g id="line2d_11">
      <path d="M 276.130032 307.584 
L 276.130032 41.472 
" clip-path="url(#p112bf9fb88)" style="fill: none; stroke: #b0b0b0; stroke-width: 0.8; stroke-linecap: square"/>
     </g>
     <g id="line2d_12">
      <g>
       <use xlink:href="#m8e92499de6" x="276.130032" y="307.584" style="stroke: #000000; stroke-width: 0.8"/>
      </g>
     </g>
     <g id="text_6">
      <!-- 125 -->
      <g transform="translate(266.586282 322.182437) scale(0.1 -0.1)">
       <use xlink:href="#DejaVuSans-31"/>
       <use xlink:href="#DejaVuSans-32" transform="translate(63.623047 0)"/>
       <use xlink:href="#DejaVuSans-35" transform="translate(127.246094 0)"/>
      </g>
     </g>
    </g>
    <g id="xtick_7">
     <g id="line2d_13">
      <path d="M 316.915779 307.584 
L 316.915779 41.472 
" clip-path="url(#p112bf9fb88)" style="fill: none; stroke: #b0b0b0; stroke-width: 0.8; stroke-linecap: square"/>
     </g>
     <g id="line2d_14">
      <g>
       <use xlink:href="#m8e92499de6" x="316.915779" y="307.584" style="stroke: #000000; stroke-width: 0.8"/>
      </g>
     </g>
     <g id="text_7">
      <!-- 150 -->
      <g transform="translate(307.372029 322.182437) scale(0.1 -0.1)">
       <use xlink:href="#DejaVuSans-31"/>
       <use xlink:href="#DejaVuSans-35" transform="translate(63.623047 0)"/>
       <use xlink:href="#DejaVuSans-30" transform="translate(127.246094 0)"/>
      </g>
     </g>
    </g>
    <g id="xtick_8">
     <g id="line2d_15">
      <path d="M 357.701526 307.584 
L 357.701526 41.472 
" clip-path="url(#p112bf9fb88)" style="fill: none; stroke: #b0b0b0; stroke-width: 0.8; stroke-linecap: square"/>
     </g>
     <g id="line2d_16">
      <g>
       <use xlink:href="#m8e92499de6" x="357.701526" y="307.584" style="stroke: #000000; stroke-width: 0.8"/>
      </g>
     </g>
     <g id="text_8">
      <!-- 175 -->
      <g transform="translate(348.157776 322.182437) scale(0.1 -0.1)">
       <use xlink:href="#DejaVuSans-31"/>
       <use xlink:href="#DejaVuSans-37" transform="translate(63.623047 0)"/>
       <use xlink:href="#DejaVuSans-35" transform="translate(127.246094 0)"/>
      </g>
     </g>
    </g>
    <g id="xtick_9">
     <g id="line2d_17">
      <path d="M 398.487273 307.584 
L 398.487273 41.472 
" clip-path="url(#p112bf9fb88)" style="fill: none; stroke: #b0b0b0; stroke-width: 0.8; stroke-linecap: square"/>
     </g>
     <g id="line2d_18">
      <g>
       <use xlink:href="#m8e92499de6" x="398.487273" y="307.584" style="stroke: #000000; stroke-width: 0.8"/>
      </g>
     </g>
     <g id="text_9">
      <!-- 200 -->
      <g transform="translate(388.943523 322.182437) scale(0.1 -0.1)">
       <use xlink:href="#DejaVuSans-32"/>
       <use xlink:href="#DejaVuSans-30" transform="translate(63.623047 0)"/>
       <use xlink:href="#DejaVuSans-30" transform="translate(127.246094 0)"/>
      </g>
     </g>
    </g>
    <g id="text_10">
     <!-- Generacje -->
     <g transform="translate(210.629531 335.860562) scale(0.1 -0.1)">
      <defs>
       <path id="DejaVuSans-47" d="M 3809 666 
L 3809 1919 
L 2778 1919 
L 2778 2438 
L 4434 2438 
L 4434 434 
Q 4069 175 3628 42 
Q 3188 -91 2688 -91 
Q 1594 -91 976 548 
Q 359 1188 359 2328 
Q 359 3472 976 4111 
Q 1594 4750 2688 4750 
Q 3144 4750 3555 4637 
Q 3966 4525 4313 4306 
L 4313 3634 
Q 3963 3931 3569 4081 
Q 3175 4231 2741 4231 
Q 1884 4231 1454 3753 
Q 1025 3275 1025 2328 
Q 1025 1384 1454 906 
Q 1884 428 2741 428 
Q 3075 428 3337 486 
Q 3600 544 3809 666 
z
" transform="scale(0.015625)"/>
       <path id="DejaVuSans-65" d="M 3597 1894 
L 3597 1613 
L 953 1613 
Q 991 1019 1311 708 
Q 1631 397 2203 397 
Q 2534 397 2845 478 
Q 3156 559 3463 722 
L 3463 178 
Q 3153 47 2828 -22 
Q 2503 -91 2169 -91 
Q 1331 -91 842 396 
Q 353 884 353 1716 
Q 353 2575 817 3079 
Q 1281 3584 2069 3584 
Q 2775 3584 3186 3129 
Q 3597 2675 3597 1894 
z
M 3022 2063 
Q 3016 2534 2758 2815 
Q 2500 3097 2075 3097 
Q 1594 3097 1305 2825 
Q 1016 2553 972 2059 
L 3022 2063 
z
" transform="scale(0.015625)"/>
       <path id="DejaVuSans-6e" d="M 3513 2113 
L 3513 0 
L 2938 0 
L 2938 2094 
Q 2938 2591 2744 2837 
Q 2550 3084 2163 3084 
Q 1697 3084 1428 2787 
Q 1159 2491 1159 1978 
L 1159 0 
L 581 0 
L 581 3500 
L 1159 3500 
L 1159 2956 
Q 1366 3272 1645 3428 
Q 1925 3584 2291 3584 
Q 2894 3584 3203 3211 
Q 3513 2838 3513 2113 
z
" transform="scale(0.015625)"/>
       <path id="DejaVuSans-72" d="M 2631 2963 
Q 2534 3019 2420 3045 
Q 2306 3072 2169 3072 
Q 1681 3072 1420 2755 
Q 1159 2438 1159 1844 
L 1159 0 
L 581 0 
L 581 3500 
L 1159 3500 
L 1159 2956 
Q 1341 3275 1631 3429 
Q 1922 3584 2338 3584 
Q 2397 3584 2469 3576 
Q 2541 3569 2628 3553 
L 2631 2963 
z
" transform="scale(0.015625)"/>
       <path id="DejaVuSans-61" d="M 2194 1759 
Q 1497 1759 1228 1600 
Q 959 1441 959 1056 
Q 959 750 1161 570 
Q 1363 391 1709 391 
Q 2188 391 2477 730 
Q 2766 1069 2766 1631 
L 2766 1759 
L 2194 1759 
z
M 3341 1997 
L 3341 0 
L 2766 0 
L 2766 531 
Q 2569 213 2275 61 
Q 1981 -91 1556 -91 
Q 1019 -91 701 211 
Q 384 513 384 1019 
Q 384 1609 779 1909 
Q 1175 2209 1959 2209 
L 2766 2209 
L 2766 2266 
Q 2766 2663 2505 2880 
Q 2244 3097 1772 3097 
Q 1472 3097 1187 3025 
Q 903 2953 641 2809 
L 641 3341 
Q 956 3463 1253 3523 
Q 1550 3584 1831 3584 
Q 2591 3584 2966 3190 
Q 3341 2797 3341 1997 
z
" transform="scale(0.015625)"/>
       <path id="DejaVuSans-63" d="M 3122 3366 
L 3122 2828 
Q 2878 2963 2633 3030 
Q 2388 3097 2138 3097 
Q 1578 3097 1268 2742 
Q 959 2388 959 1747 
Q 959 1106 1268 751 
Q 1578 397 2138 397 
Q 2388 397 2633 464 
Q 2878 531 3122 666 
L 3122 134 
Q 2881 22 2623 -34 
Q 2366 -91 2075 -91 
Q 1284 -91 818 406 
Q 353 903 353 1747 
Q 353 2603 823 3093 
Q 1294 3584 2113 3584 
Q 2378 3584 2631 3529 
Q 2884 3475 3122 3366 
z
" transform="scale(0.015625)"/>
       <path id="DejaVuSans-6a" d="M 603 3500 
L 1178 3500 
L 1178 -63 
Q 1178 -731 923 -1031 
Q 669 -1331 103 -1331 
L -116 -1331 
L -116 -844 
L 38 -844 
Q 366 -844 484 -692 
Q 603 -541 603 -63 
L 603 3500 
z
M 603 4863 
L 1178 4863 
L 1178 4134 
L 603 4134 
L 603 4863 
z
" transform="scale(0.015625)"/>
      </defs>
      <use xlink:href="#DejaVuSans-47"/>
      <use xlink:href="#DejaVuSans-65" transform="translate(77.490234 0)"/>
      <use xlink:href="#DejaVuSans-6e" transform="translate(139.013672 0)"/>
      <use xlink:href="#DejaVuSans-65" transform="translate(202.392578 0)"/>
      <use xlink:href="#DejaVuSans-72" transform="translate(263.916016 0)"/>
      <use xlink:href="#DejaVuSans-61" transform="translate(305.029297 0)"/>
      <use xlink:href="#DejaVuSans-63" transform="translate(366.308594 0)"/>
      <use xlink:href="#DejaVuSans-6a" transform="translate(421.289062 0)"/>
      <use xlink:href="#DejaVuSans-65" transform="translate(449.072266 0)"/>
     </g>
    </g>
   </g>
   <g id="matplotlib.axis_2">
    <g id="ytick_1">
     <g id="line2d_19">
      <path d="M 57.6 152.253811 
L 414.72 152.253811 
" clip-path="url(#p112bf9fb88)" style="fill: none; stroke: #b0b0b0; stroke-width: 0.8; stroke-linecap: square"/>
     </g>
     <g id="line2d_20">
      <defs>
       <path id="mb9a2ff8944" d="M 0 0 
L -3.5 0 
" style="stroke: #000000; stroke-width: 0.8"/>
      </defs>
      <g>
       <use xlink:href="#mb9a2ff8944" x="57.6" y="152.253811" style="stroke: #000000; stroke-width: 0.8"/>
      </g>
     </g>
     <g id="text_11">
      <!-- $\mathdefault{10^{2}}$ -->
      <g transform="translate(33 156.053029) scale(0.1 -0.1)">
       <use xlink:href="#DejaVuSans-31" transform="translate(0 0.765625)"/>
       <use xlink:href="#DejaVuSans-30" transform="translate(63.623047 0.765625)"/>
       <use xlink:href="#DejaVuSans-32" transform="translate(128.203125 39.046875) scale(0.7)"/>
      </g>
     </g>
    </g>
    <g id="text_12">
     <!-- Przystosowanie -->
     <g transform="translate(26.920312 213.170187) rotate(-90) scale(0.1 -0.1)">
      <defs>
       <path id="DejaVuSans-50" d="M 1259 4147 
L 1259 2394 
L 2053 2394 
Q 2494 2394 2734 2622 
Q 2975 2850 2975 3272 
Q 2975 3691 2734 3919 
Q 2494 4147 2053 4147 
L 1259 4147 
z
M 628 4666 
L 2053 4666 
Q 2838 4666 3239 4311 
Q 3641 3956 3641 3272 
Q 3641 2581 3239 2228 
Q 2838 1875 2053 1875 
L 1259 1875 
L 1259 0 
L 628 0 
L 628 4666 
z
" transform="scale(0.015625)"/>
       <path id="DejaVuSans-7a" d="M 353 3500 
L 3084 3500 
L 3084 2975 
L 922 459 
L 3084 459 
L 3084 0 
L 275 0 
L 275 525 
L 2438 3041 
L 353 3041 
L 353 3500 
z
" transform="scale(0.015625)"/>
       <path id="DejaVuSans-79" d="M 2059 -325 
Q 1816 -950 1584 -1140 
Q 1353 -1331 966 -1331 
L 506 -1331 
L 506 -850 
L 844 -850 
Q 1081 -850 1212 -737 
Q 1344 -625 1503 -206 
L 1606 56 
L 191 3500 
L 800 3500 
L 1894 763 
L 2988 3500 
L 3597 3500 
L 2059 -325 
z
" transform="scale(0.015625)"/>
       <path id="DejaVuSans-73" d="M 2834 3397 
L 2834 2853 
Q 2591 2978 2328 3040 
Q 2066 3103 1784 3103 
Q 1356 3103 1142 2972 
Q 928 2841 928 2578 
Q 928 2378 1081 2264 
Q 1234 2150 1697 2047 
L 1894 2003 
Q 2506 1872 2764 1633 
Q 3022 1394 3022 966 
Q 3022 478 2636 193 
Q 2250 -91 1575 -91 
Q 1294 -91 989 -36 
Q 684 19 347 128 
L 347 722 
Q 666 556 975 473 
Q 1284 391 1588 391 
Q 1994 391 2212 530 
Q 2431 669 2431 922 
Q 2431 1156 2273 1281 
Q 2116 1406 1581 1522 
L 1381 1569 
Q 847 1681 609 1914 
Q 372 2147 372 2553 
Q 372 3047 722 3315 
Q 1072 3584 1716 3584 
Q 2034 3584 2315 3537 
Q 2597 3491 2834 3397 
z
" transform="scale(0.015625)"/>
       <path id="DejaVuSans-74" d="M 1172 4494 
L 1172 3500 
L 2356 3500 
L 2356 3053 
L 1172 3053 
L 1172 1153 
Q 1172 725 1289 603 
Q 1406 481 1766 481 
L 2356 481 
L 2356 0 
L 1766 0 
Q 1100 0 847 248 
Q 594 497 594 1153 
L 594 3053 
L 172 3053 
L 172 3500 
L 594 3500 
L 594 4494 
L 1172 4494 
z
" transform="scale(0.015625)"/>
       <path id="DejaVuSans-6f" d="M 1959 3097 
Q 1497 3097 1228 2736 
Q 959 2375 959 1747 
Q 959 1119 1226 758 
Q 1494 397 1959 397 
Q 2419 397 2687 759 
Q 2956 1122 2956 1747 
Q 2956 2369 2687 2733 
Q 2419 3097 1959 3097 
z
M 1959 3584 
Q 2709 3584 3137 3096 
Q 3566 2609 3566 1747 
Q 3566 888 3137 398 
Q 2709 -91 1959 -91 
Q 1206 -91 779 398 
Q 353 888 353 1747 
Q 353 2609 779 3096 
Q 1206 3584 1959 3584 
z
" transform="scale(0.015625)"/>
       <path id="DejaVuSans-77" d="M 269 3500 
L 844 3500 
L 1563 769 
L 2278 3500 
L 2956 3500 
L 3675 769 
L 4391 3500 
L 4966 3500 
L 4050 0 
L 3372 0 
L 2619 2869 
L 1863 0 
L 1184 0 
L 269 3500 
z
" transform="scale(0.015625)"/>
       <path id="DejaVuSans-69" d="M 603 3500 
L 1178 3500 
L 1178 0 
L 603 0 
L 603 3500 
z
M 603 4863 
L 1178 4863 
L 1178 4134 
L 603 4134 
L 603 4863 
z
" transform="scale(0.015625)"/>
      </defs>
      <use xlink:href="#DejaVuSans-50"/>
      <use xlink:href="#DejaVuSans-72" transform="translate(58.552734 0)"/>
      <use xlink:href="#DejaVuSans-7a" transform="translate(99.666016 0)"/>
      <use xlink:href="#DejaVuSans-79" transform="translate(152.15625 0)"/>
      <use xlink:href="#DejaVuSans-73" transform="translate(211.335938 0)"/>
      <use xlink:href="#DejaVuSans-74" transform="translate(263.435547 0)"/>
      <use xlink:href="#DejaVuSans-6f" transform="translate(302.644531 0)"/>
      <use xlink:href="#DejaVuSans-73" transform="translate(363.826172 0)"/>
      <use xlink:href="#DejaVuSans-6f" transform="translate(415.925781 0)"/>
      <use xlink:href="#DejaVuSans-77" transform="translate(477.107422 0)"/>
      <use xlink:href="#DejaVuSans-61" transform="translate(558.894531 0)"/>
      <use xlink:href="#DejaVuSans-6e" transform="translate(620.173828 0)"/>
      <use xlink:href="#DejaVuSans-69" transform="translate(683.552734 0)"/>
      <use xlink:href="#DejaVuSans-65" transform="translate(711.335938 0)"/>
     </g>
    </g>
   </g>
   <g id="line2d_21">
    <path d="M 73.832727 295.488 
L 75.464157 249.303838 
L 77.095587 212.929537 
L 78.727017 206.841285 
L 80.358447 204.678111 
L 81.989877 194.891841 
L 83.621307 185.862708 
L 85.252736 184.520699 
L 86.884166 183.957818 
L 88.515596 179.984934 
L 91.778456 180.293085 
L 93.409886 181.61399 
L 95.041316 177.212268 
L 96.672746 176.764742 
L 98.304175 178.127867 
L 99.935605 183.349434 
L 101.567035 181.022115 
L 103.198465 175.634059 
L 104.829895 177.555834 
L 106.461325 178.834122 
L 108.092755 177.799376 
L 109.724185 177.207756 
L 111.355614 180.268241 
L 112.987044 180.623884 
L 114.618474 179.266939 
L 116.249904 177.013344 
L 117.881334 175.32651 
L 119.512764 175.163506 
L 121.144194 173.123558 
L 122.775624 175.215244 
L 124.407053 173.825085 
L 126.038483 175.137684 
L 127.669913 174.159318 
L 129.301343 175.035452 
L 130.932773 175.39575 
L 132.564203 177.095277 
L 134.195633 175.049344 
L 135.827063 173.675162 
L 137.458492 174.776134 
L 139.089922 173.000164 
L 140.721352 174.1169 
L 142.352782 176.056538 
L 143.984212 175.001543 
L 145.615642 175.516107 
L 147.247072 173.856283 
L 148.878502 173.94515 
L 150.509931 174.157176 
L 152.141361 176.078939 
L 153.772791 175.518495 
L 155.404221 176.92569 
L 157.035651 175.394187 
L 158.667081 174.205346 
L 160.298511 175.524975 
L 161.929941 175.857622 
L 163.56137 172.320641 
L 165.1928 176.997323 
L 166.82423 176.54289 
L 168.45566 175.490963 
L 170.08709 174.876613 
L 171.71852 173.991152 
L 173.34995 174.195274 
L 174.98138 173.769635 
L 176.61281 175.675867 
L 178.244239 176.899028 
L 181.507099 172.844515 
L 183.138529 174.238396 
L 186.401389 175.811853 
L 188.032819 173.337831 
L 189.664249 175.678939 
L 191.295678 174.846402 
L 192.927108 175.269176 
L 194.558538 173.238479 
L 196.189968 177.143053 
L 197.821398 173.780159 
L 199.452828 174.455042 
L 201.084258 175.608635 
L 202.715688 175.273761 
L 204.347117 174.687928 
L 205.978547 173.35896 
L 207.609977 175.489597 
L 209.241407 173.097885 
L 210.872837 174.869879 
L 212.504267 176.425751 
L 214.135697 172.030306 
L 215.767127 175.301328 
L 217.398556 172.951389 
L 219.029986 173.839166 
L 220.661416 175.80837 
L 222.292846 173.789611 
L 223.924276 175.205205 
L 225.555706 175.644418 
L 227.187136 173.660337 
L 228.818566 176.116756 
L 230.449995 174.722624 
L 232.081425 173.9196 
L 233.712855 174.444888 
L 235.344285 175.352904 
L 236.975715 173.957897 
L 238.607145 173.784705 
L 240.238575 172.990954 
L 241.870005 174.473718 
L 243.501434 175.611697 
L 245.132864 176.172744 
L 246.764294 175.870109 
L 248.395724 174.295292 
L 250.027154 173.859411 
L 251.658584 172.530015 
L 253.290014 172.708411 
L 254.921444 174.122314 
L 256.552873 175.018672 
L 258.184303 171.6079 
L 259.815733 172.497141 
L 261.447163 173.830632 
L 263.078593 171.092555 
L 264.710023 175.332757 
L 266.341453 173.529443 
L 267.972883 174.508118 
L 269.604312 173.58755 
L 271.235742 171.222468 
L 272.867172 174.463324 
L 274.498602 175.110578 
L 276.130032 174.220881 
L 277.761462 174.833295 
L 279.392892 175.120127 
L 281.024322 171.767074 
L 282.655751 173.136534 
L 284.287181 175.285847 
L 285.918611 173.421362 
L 287.550041 173.39902 
L 289.181471 175.178787 
L 290.812901 174.651294 
L 292.444331 173.606704 
L 294.075761 175.443153 
L 295.70719 174.427831 
L 297.33862 174.771115 
L 298.97005 175.62114 
L 300.60148 172.539023 
L 302.23291 172.082249 
L 303.86434 175.911474 
L 305.49577 176.723749 
L 307.1272 174.450133 
L 308.75863 173.883522 
L 310.390059 175.782107 
L 312.021489 170.785557 
L 313.652919 175.945271 
L 315.284349 173.613193 
L 316.915779 174.330641 
L 318.547209 177.528313 
L 320.178639 174.815214 
L 321.810069 174.174739 
L 323.441498 173.74037 
L 325.072928 174.310356 
L 326.704358 172.840201 
L 328.335788 174.721397 
L 329.967218 173.784452 
L 331.598648 173.914548 
L 333.230078 172.746134 
L 334.861508 174.73962 
L 338.124367 172.617227 
L 339.755797 171.794829 
L 341.387227 174.418559 
L 343.018657 176.488104 
L 344.650087 172.57724 
L 346.281517 174.06489 
L 347.912947 173.029964 
L 351.175806 173.857617 
L 352.807236 171.47313 
L 354.438666 173.488281 
L 356.070096 171.99222 
L 357.701526 173.191928 
L 359.332956 171.648637 
L 360.964386 173.904166 
L 362.595815 173.828542 
L 364.227245 174.56801 
L 365.858675 174.109457 
L 367.490105 173.463094 
L 369.121535 173.576745 
L 370.752965 171.833918 
L 372.384395 173.896308 
L 374.015825 173.706983 
L 375.647254 172.640998 
L 377.278684 173.224221 
L 378.910114 173.950021 
L 380.541544 174.192095 
L 382.172974 172.892637 
L 383.804404 175.353377 
L 385.435834 174.068351 
L 387.067264 174.236495 
L 388.698693 175.86005 
L 390.330123 174.301275 
L 391.961553 174.313429 
L 393.592983 175.056909 
L 395.224413 174.944503 
L 396.855843 176.508413 
L 398.487273 173.575882 
L 398.487273 173.575882 
" clip-path="url(#p112bf9fb88)" style="fill: none; stroke: #0000ff; stroke-width: 1.5; stroke-linecap: square"/>
   </g>
   <g id="line2d_22">
    <path d="M 73.832727 250.099323 
L 75.464157 210.092811 
L 77.095587 178.408207 
L 78.727017 174.942566 
L 80.358447 172.110275 
L 81.989877 165.947317 
L 83.621307 160.716049 
L 85.252736 161.496688 
L 86.884166 158.431945 
L 88.515596 155.763442 
L 90.147026 158.133275 
L 91.778456 153.770921 
L 93.409886 157.785457 
L 96.672746 152.273927 
L 98.304175 153.580651 
L 99.935605 154.3481 
L 101.567035 156.992159 
L 103.198465 154.195378 
L 104.829895 157.602501 
L 106.461325 155.851723 
L 108.092755 155.524231 
L 109.724185 154.091859 
L 111.355614 157.460456 
L 112.987044 152.980406 
L 114.618474 152.080535 
L 116.249904 154.004389 
L 117.881334 153.849963 
L 119.512764 153.268083 
L 121.144194 149.549523 
L 122.775624 152.295538 
L 124.407053 151.374742 
L 126.038483 153.976139 
L 127.669913 152.663482 
L 129.301343 154.053721 
L 130.932773 154.755111 
L 132.564203 155.77513 
L 134.195633 154.645197 
L 135.827063 151.658222 
L 137.458492 154.315293 
L 139.089922 151.787167 
L 140.721352 152.635835 
L 142.352782 153.216904 
L 143.984212 154.413357 
L 145.615642 156.716094 
L 147.247072 154.217905 
L 148.878502 153.779345 
L 150.509931 153.616094 
L 152.141361 154.426034 
L 153.772791 154.833097 
L 155.404221 155.356514 
L 157.035651 154.558028 
L 158.667081 151.652253 
L 160.298511 155.310039 
L 161.929941 155.637962 
L 163.56137 150.545457 
L 166.82423 157.576512 
L 168.45566 155.439759 
L 170.08709 156.649262 
L 171.71852 152.375136 
L 173.34995 151.436492 
L 174.98138 151.914075 
L 176.61281 155.398931 
L 178.244239 158.50515 
L 179.875669 153.732374 
L 181.507099 151.4621 
L 183.138529 153.75353 
L 184.769959 154.763789 
L 186.401389 155.210596 
L 188.032819 153.834962 
L 189.664249 156.300809 
L 191.295678 154.596542 
L 192.927108 153.122942 
L 194.558538 154.044521 
L 196.189968 157.237352 
L 197.821398 152.38415 
L 199.452828 153.197906 
L 201.084258 156.417139 
L 202.715688 154.494055 
L 204.347117 154.993638 
L 205.978547 153.885504 
L 207.609977 155.014089 
L 209.241407 152.608128 
L 210.872837 154.765389 
L 212.504267 156.492185 
L 214.135697 151.941919 
L 215.767127 155.610899 
L 217.398556 154.520166 
L 219.029986 154.565742 
L 220.661416 156.751066 
L 222.292846 153.765057 
L 223.924276 153.710515 
L 225.555706 155.707607 
L 227.187136 151.176827 
L 228.818566 155.055845 
L 230.449995 155.212841 
L 233.712855 153.438294 
L 235.344285 154.142157 
L 236.975715 153.788583 
L 238.607145 154.235129 
L 240.238575 153.544349 
L 245.132864 157.629198 
L 246.764294 157.242848 
L 248.395724 154.399601 
L 250.027154 153.952179 
L 251.658584 153.247003 
L 253.290014 152.213428 
L 254.921444 154.353954 
L 256.552873 155.895584 
L 258.184303 151.701096 
L 259.815733 152.58515 
L 261.447163 153.77526 
L 263.078593 150.25915 
L 264.710023 155.052383 
L 266.341453 155.167326 
L 267.972883 154.494964 
L 269.604312 154.641353 
L 271.235742 151.095572 
L 272.867172 154.623493 
L 274.498602 154.540488 
L 276.130032 156.15355 
L 277.761462 155.077748 
L 279.392892 155.644487 
L 281.024322 152.236493 
L 282.655751 153.294555 
L 284.287181 156.071507 
L 285.918611 156.081772 
L 287.550041 155.155929 
L 289.181471 157.261007 
L 290.812901 155.132121 
L 292.444331 154.855021 
L 294.075761 157.250559 
L 295.70719 155.234454 
L 297.33862 155.087665 
L 298.97005 157.255822 
L 300.60148 152.254695 
L 302.23291 151.900575 
L 303.86434 156.827254 
L 305.49577 158.143944 
L 307.1272 153.654968 
L 308.75863 155.13402 
L 310.390059 157.006946 
L 312.021489 151.287876 
L 313.652919 156.94718 
L 315.284349 154.633227 
L 316.915779 156.597779 
L 318.547209 157.761478 
L 320.178639 155.380325 
L 321.810069 153.721161 
L 323.441498 156.066808 
L 325.072928 153.465999 
L 326.704358 153.277206 
L 328.335788 154.303486 
L 329.967218 154.357161 
L 331.598648 154.986934 
L 333.230078 153.242728 
L 334.861508 156.308356 
L 336.492937 154.587254 
L 338.124367 154.062159 
L 339.755797 151.172017 
L 341.387227 155.877888 
L 343.018657 158.844701 
L 344.650087 152.382353 
L 346.281517 153.893396 
L 347.912947 154.118871 
L 349.544376 155.094908 
L 351.175806 154.093487 
L 352.807236 150.144478 
L 354.438666 154.205982 
L 356.070096 152.374281 
L 357.701526 152.381257 
L 359.332956 150.704789 
L 360.964386 153.679358 
L 362.595815 153.07676 
L 364.227245 153.546473 
L 365.858675 154.560672 
L 367.490105 153.417242 
L 369.121535 153.459422 
L 370.752965 152.170253 
L 372.384395 152.981692 
L 374.015825 153.146969 
L 375.647254 152.622086 
L 377.278684 153.209216 
L 378.910114 154.936145 
L 380.541544 154.178541 
L 382.172974 153.144221 
L 383.804404 156.077819 
L 385.435834 155.484516 
L 387.067264 154.205327 
L 388.698693 157.253735 
L 390.330123 156.099223 
L 391.961553 154.16198 
L 393.592983 155.42937 
L 395.224413 155.194435 
L 396.855843 159.166337 
L 398.487273 152.053562 
L 398.487273 152.053562 
" clip-path="url(#p112bf9fb88)" style="fill: none; stroke-dasharray: 9.6,2.4,1.5,2.4; stroke-dashoffset: 0; stroke: #008000; stroke-width: 1.5"/>
   </g>
   <g id="line2d_23">
    <path d="M 73.832727 164.99108 
L 75.464157 142.502659 
L 77.095587 138.612741 
L 78.727017 119.429493 
L 80.358447 127.529994 
L 81.989877 126.749317 
L 83.621307 103.249879 
L 85.252736 123.366163 
L 86.884166 119.886497 
L 88.515596 126.955272 
L 90.147026 126.831781 
L 91.778456 126.89498 
L 93.409886 119.731025 
L 95.041316 116.248306 
L 96.672746 119.331912 
L 98.304175 116.23338 
L 99.935605 112.317632 
L 101.567035 94.052942 
L 103.198465 115.943193 
L 104.829895 123.33424 
L 106.461325 112.773662 
L 108.092755 112.996902 
L 109.724185 116.047361 
L 111.355614 99.650589 
L 112.987044 103.563284 
L 114.618474 116.48214 
L 116.249904 115.984927 
L 117.881334 116.215459 
L 119.512764 109.688509 
L 121.144194 106.214597 
L 122.775624 106.172245 
L 124.407053 97.005251 
L 126.038483 116.333217 
L 127.669913 93.683103 
L 129.301343 116.178352 
L 130.932773 127.165057 
L 132.564203 119.629876 
L 134.195633 119.786725 
L 135.827063 106.439348 
L 137.458492 119.565463 
L 139.089922 113.011152 
L 140.721352 94.309829 
L 142.352782 112.635198 
L 143.984212 113.270655 
L 145.615642 112.833428 
L 148.878502 100.175897 
L 150.509931 119.633358 
L 152.141361 88.591884 
L 153.772791 102.910193 
L 155.404221 103.474102 
L 157.035651 112.837305 
L 158.667081 94.463356 
L 160.298511 126.623853 
L 161.929941 116.416857 
L 163.56137 116.248937 
L 165.1928 123.382035 
L 166.82423 123.436361 
L 168.45566 123.312619 
L 170.08709 113.269161 
L 171.71852 112.832541 
L 173.34995 79.895517 
L 174.98138 96.999859 
L 176.61281 105.988075 
L 178.244239 119.817261 
L 179.875669 112.871871 
L 181.507099 100.444638 
L 183.138529 109.398067 
L 184.769959 115.992214 
L 186.401389 126.732994 
L 189.664249 106.208596 
L 191.295678 119.634794 
L 192.927108 112.664739 
L 194.558538 116.047016 
L 196.189968 112.834634 
L 197.821398 112.719833 
L 199.452828 96.889058 
L 201.084258 130.513984 
L 202.715688 119.259272 
L 204.347117 130.794406 
L 205.978547 123.41639 
L 207.609977 103.091737 
L 210.872837 122.983021 
L 212.504267 123.507457 
L 214.135697 106.099478 
L 215.767127 105.992223 
L 217.398556 110.005581 
L 219.029986 116.172533 
L 220.661416 123.143096 
L 222.292846 112.806379 
L 223.924276 113.054868 
L 225.555706 116.165074 
L 227.187136 53.568 
L 228.818566 109.937655 
L 230.449995 103.014129 
L 232.081425 109.403402 
L 233.712855 100.049685 
L 235.344285 96.899612 
L 236.975715 116.23972 
L 238.607145 100.094862 
L 240.238575 123.696989 
L 241.870005 113.100157 
L 243.501434 110.15769 
L 245.132864 134.181097 
L 246.764294 109.613424 
L 250.027154 123.093105 
L 251.658584 119.530616 
L 253.290014 109.743204 
L 254.921444 113.407123 
L 256.552873 105.944837 
L 258.184303 99.943415 
L 259.815733 109.197268 
L 261.447163 106.262042 
L 263.078593 106.340009 
L 264.710023 112.672839 
L 266.341453 119.881315 
L 267.972883 112.748592 
L 269.604312 123.586324 
L 271.235742 106.236467 
L 272.867172 109.704375 
L 274.498602 103.420785 
L 276.130032 116.426212 
L 277.761462 116.62623 
L 279.392892 103.126145 
L 281.024322 103.130445 
L 282.655751 116.455787 
L 284.287181 115.956313 
L 285.918611 119.567988 
L 287.550041 112.682849 
L 289.181471 119.737375 
L 290.812901 109.404983 
L 292.444331 96.63935 
L 294.075761 116.246869 
L 295.70719 87.998598 
L 297.33862 126.770847 
L 298.97005 127.300076 
L 300.60148 112.790026 
L 302.23291 113.332108 
L 303.86434 127.240723 
L 305.49577 127.015997 
L 307.1272 115.934443 
L 308.75863 127.181426 
L 310.390059 123.158266 
L 312.021489 105.924829 
L 313.652919 116.06422 
L 315.284349 109.308721 
L 316.915779 130.424622 
L 318.547209 91.093746 
L 320.178639 116.242612 
L 321.810069 119.446935 
L 323.441498 119.237026 
L 325.072928 94.353781 
L 326.704358 102.935503 
L 328.335788 112.974605 
L 329.967218 103.262002 
L 331.598648 106.685567 
L 333.230078 109.30483 
L 334.861508 123.028916 
L 336.492937 109.311229 
L 338.124367 109.997366 
L 339.755797 103.156545 
L 341.387227 113.049927 
L 343.018657 134.296339 
L 344.650087 113.069972 
L 346.281517 106.532408 
L 347.912947 112.722441 
L 349.544376 112.943575 
L 351.175806 113.045285 
L 352.807236 91.732107 
L 354.438666 106.253634 
L 356.070096 113.185476 
L 357.701526 91.322521 
L 359.332956 110.141982 
L 360.964386 103.12659 
L 362.595815 106.244531 
L 364.227245 119.797192 
L 365.858675 119.45755 
L 367.490105 115.969489 
L 369.121535 119.421483 
L 370.752965 99.850248 
L 372.384395 105.997854 
L 374.015825 110.035461 
L 375.647254 102.892143 
L 377.278684 107.030179 
L 378.910114 122.865223 
L 380.541544 123.058424 
L 382.172974 100.38973 
L 383.804404 102.916419 
L 385.435834 123.353459 
L 387.067264 106.150254 
L 388.698693 119.390923 
L 390.330123 130.724117 
L 391.961553 112.604422 
L 393.592983 116.506003 
L 395.224413 116.489679 
L 396.855843 119.62758 
L 398.487273 88.2364 
L 398.487273 88.2364 
" clip-path="url(#p112bf9fb88)" style="fill: none; stroke: #ff0000; stroke-width: 1.5; stroke-linecap: square"/>
   </g>
   <g id="patch_3">
    <path d="M 57.6 307.584 
L 57.6 41.472 
" style="fill: none; stroke: #000000; stroke-width: 0.8; stroke-linejoin: miter; stroke-linecap: square"/>
   </g>
   <g id="patch_4">
    <path d="M 414.72 307.584 
L 414.72 41.472 
" style="fill: none; stroke: #000000; stroke-width: 0.8; stroke-linejoin: miter; stroke-linecap: square"/>
   </g>
   <g id="patch_5">
    <path d="M 57.6 307.584 
L 414.72 307.584 
" style="fill: none; stroke: #000000; stroke-width: 0.8; stroke-linejoin: miter; stroke-linecap: square"/>
   </g>
   <g id="patch_6">
    <path d="M 57.6 41.472 
L 414.72 41.472 
" style="fill: none; stroke: #000000; stroke-width: 0.8; stroke-linejoin: miter; stroke-linecap: square"/>
   </g>
   <g id="text_13">
    <!-- Średnie i najlepsze przystosowanie w każdej generacji -->
    <g transform="translate(73.26 35.472) scale(0.12 -0.12)">
     <defs>
      <path id="DejaVuSans-15a" d="M 2236 5921 
L 2814 5921 
L 2102 5096 
L 1623 5096 
L 2236 5921 
z
M 3425 4513 
L 3425 3897 
Q 3066 4069 2747 4153 
Q 2428 4238 2131 4238 
Q 1616 4238 1336 4038 
Q 1056 3838 1056 3469 
Q 1056 3159 1242 3001 
Q 1428 2844 1947 2747 
L 2328 2669 
Q 3034 2534 3370 2195 
Q 3706 1856 3706 1288 
Q 3706 609 3251 259 
Q 2797 -91 1919 -91 
Q 1588 -91 1214 -16 
Q 841 59 441 206 
L 441 856 
Q 825 641 1194 531 
Q 1563 422 1919 422 
Q 2459 422 2753 634 
Q 3047 847 3047 1241 
Q 3047 1584 2836 1778 
Q 2625 1972 2144 2069 
L 1759 2144 
Q 1053 2284 737 2584 
Q 422 2884 422 3419 
Q 422 4038 858 4394 
Q 1294 4750 2059 4750 
Q 2388 4750 2728 4690 
Q 3069 4631 3425 4513 
z
" transform="scale(0.015625)"/>
      <path id="DejaVuSans-64" d="M 2906 2969 
L 2906 4863 
L 3481 4863 
L 3481 0 
L 2906 0 
L 2906 525 
Q 2725 213 2448 61 
Q 2172 -91 1784 -91 
Q 1150 -91 751 415 
Q 353 922 353 1747 
Q 353 2572 751 3078 
Q 1150 3584 1784 3584 
Q 2172 3584 2448 3432 
Q 2725 3281 2906 2969 
z
M 947 1747 
Q 947 1113 1208 752 
Q 1469 391 1925 391 
Q 2381 391 2643 752 
Q 2906 1113 2906 1747 
Q 2906 2381 2643 2742 
Q 2381 3103 1925 3103 
Q 1469 3103 1208 2742 
Q 947 2381 947 1747 
z
" transform="scale(0.015625)"/>
      <path id="DejaVuSans-20" transform="scale(0.015625)"/>
      <path id="DejaVuSans-6c" d="M 603 4863 
L 1178 4863 
L 1178 0 
L 603 0 
L 603 4863 
z
" transform="scale(0.015625)"/>
      <path id="DejaVuSans-70" d="M 1159 525 
L 1159 -1331 
L 581 -1331 
L 581 3500 
L 1159 3500 
L 1159 2969 
Q 1341 3281 1617 3432 
Q 1894 3584 2278 3584 
Q 2916 3584 3314 3078 
Q 3713 2572 3713 1747 
Q 3713 922 3314 415 
Q 2916 -91 2278 -91 
Q 1894 -91 1617 61 
Q 1341 213 1159 525 
z
M 3116 1747 
Q 3116 2381 2855 2742 
Q 2594 3103 2138 3103 
Q 1681 3103 1420 2742 
Q 1159 2381 1159 1747 
Q 1159 1113 1420 752 
Q 1681 391 2138 391 
Q 2594 391 2855 752 
Q 3116 1113 3116 1747 
z
" transform="scale(0.015625)"/>
      <path id="DejaVuSans-6b" d="M 581 4863 
L 1159 4863 
L 1159 1991 
L 2875 3500 
L 3609 3500 
L 1753 1863 
L 3688 0 
L 2938 0 
L 1159 1709 
L 1159 0 
L 581 0 
L 581 4863 
z
" transform="scale(0.015625)"/>
      <path id="DejaVuSans-17c" d="M 1378 4863 
L 1953 4863 
L 1953 4134 
L 1378 4134 
L 1378 4863 
z
M 1672 3584 
L 1672 3584 
z
M 353 3500 
L 3084 3500 
L 3084 2975 
L 922 459 
L 3084 459 
L 3084 0 
L 275 0 
L 275 525 
L 2438 3041 
L 353 3041 
L 353 3500 
z
" transform="scale(0.015625)"/>
      <path id="DejaVuSans-67" d="M 2906 1791 
Q 2906 2416 2648 2759 
Q 2391 3103 1925 3103 
Q 1463 3103 1205 2759 
Q 947 2416 947 1791 
Q 947 1169 1205 825 
Q 1463 481 1925 481 
Q 2391 481 2648 825 
Q 2906 1169 2906 1791 
z
M 3481 434 
Q 3481 -459 3084 -895 
Q 2688 -1331 1869 -1331 
Q 1566 -1331 1297 -1286 
Q 1028 -1241 775 -1147 
L 775 -588 
Q 1028 -725 1275 -790 
Q 1522 -856 1778 -856 
Q 2344 -856 2625 -561 
Q 2906 -266 2906 331 
L 2906 616 
Q 2728 306 2450 153 
Q 2172 0 1784 0 
Q 1141 0 747 490 
Q 353 981 353 1791 
Q 353 2603 747 3093 
Q 1141 3584 1784 3584 
Q 2172 3584 2450 3431 
Q 2728 3278 2906 2969 
L 2906 3500 
L 3481 3500 
L 3481 434 
z
" transform="scale(0.015625)"/>
     </defs>
     <use xlink:href="#DejaVuSans-15a"/>
     <use xlink:href="#DejaVuSans-72" transform="translate(63.476562 0)"/>
     <use xlink:href="#DejaVuSans-65" transform="translate(102.339844 0)"/>
     <use xlink:href="#DejaVuSans-64" transform="translate(163.863281 0)"/>
     <use xlink:href="#DejaVuSans-6e" transform="translate(227.339844 0)"/>
     <use xlink:href="#DejaVuSans-69" transform="translate(290.71875 0)"/>
     <use xlink:href="#DejaVuSans-65" transform="translate(318.501953 0)"/>
     <use xlink:href="#DejaVuSans-20" transform="translate(380.025391 0)"/>
     <use xlink:href="#DejaVuSans-69" transform="translate(411.8125 0)"/>
     <use xlink:href="#DejaVuSans-20" transform="translate(439.595703 0)"/>
     <use xlink:href="#DejaVuSans-6e" transform="translate(471.382812 0)"/>
     <use xlink:href="#DejaVuSans-61" transform="translate(534.761719 0)"/>
     <use xlink:href="#DejaVuSans-6a" transform="translate(596.041016 0)"/>
     <use xlink:href="#DejaVuSans-6c" transform="translate(623.824219 0)"/>
     <use xlink:href="#DejaVuSans-65" transform="translate(651.607422 0)"/>
     <use xlink:href="#DejaVuSans-70" transform="translate(713.130859 0)"/>
     <use xlink:href="#DejaVuSans-73" transform="translate(776.607422 0)"/>
     <use xlink:href="#DejaVuSans-7a" transform="translate(828.707031 0)"/>
     <use xlink:href="#DejaVuSans-65" transform="translate(881.197266 0)"/>
     <use xlink:href="#DejaVuSans-20" transform="translate(942.720703 0)"/>
     <use xlink:href="#DejaVuSans-70" transform="translate(974.507812 0)"/>
     <use xlink:href="#DejaVuSans-72" transform="translate(1037.984375 0)"/>
     <use xlink:href="#DejaVuSans-7a" transform="translate(1079.097656 0)"/>
     <use xlink:href="#DejaVuSans-79" transform="translate(1131.587891 0)"/>
     <use xlink:href="#DejaVuSans-73" transform="translate(1190.767578 0)"/>
     <use xlink:href="#DejaVuSans-74" transform="translate(1242.867188 0)"/>
     <use xlink:href="#DejaVuSans-6f" transform="translate(1282.076172 0)"/>
     <use xlink:href="#DejaVuSans-73" transform="translate(1343.257812 0)"/>
     <use xlink:href="#DejaVuSans-6f" transform="translate(1395.357422 0)"/>
     <use xlink:href="#DejaVuSans-77" transform="translate(1456.539062 0)"/>
     <use xlink:href="#DejaVuSans-61" transform="translate(1538.326172 0)"/>
     <use xlink:href="#DejaVuSans-6e" transform="translate(1599.605469 0)"/>
     <use xlink:href="#DejaVuSans-69" transform="translate(1662.984375 0)"/>
     <use xlink:href="#DejaVuSans-65" transform="translate(1690.767578 0)"/>
     <use xlink:href="#DejaVuSans-20" transform="translate(1752.291016 0)"/>
     <use xlink:href="#DejaVuSans-77" transform="translate(1784.078125 0)"/>
     <use xlink:href="#DejaVuSans-20" transform="translate(1865.865234 0)"/>
     <use xlink:href="#DejaVuSans-6b" transform="translate(1897.652344 0)"/>
     <use xlink:href="#DejaVuSans-61" transform="translate(1953.8125 0)"/>
     <use xlink:href="#DejaVuSans-17c" transform="translate(2015.091797 0)"/>
     <use xlink:href="#DejaVuSans-64" transform="translate(2067.582031 0)"/>
     <use xlink:href="#DejaVuSans-65" transform="translate(2131.058594 0)"/>
     <use xlink:href="#DejaVuSans-6a" transform="translate(2192.582031 0)"/>
     <use xlink:href="#DejaVuSans-20" transform="translate(2220.365234 0)"/>
     <use xlink:href="#DejaVuSans-67" transform="translate(2252.152344 0)"/>
     <use xlink:href="#DejaVuSans-65" transform="translate(2315.628906 0)"/>
     <use xlink:href="#DejaVuSans-6e" transform="translate(2377.152344 0)"/>
     <use xlink:href="#DejaVuSans-65" transform="translate(2440.53125 0)"/>
     <use xlink:href="#DejaVuSans-72" transform="translate(2502.054688 0)"/>
     <use xlink:href="#DejaVuSans-61" transform="translate(2543.167969 0)"/>
     <use xlink:href="#DejaVuSans-63" transform="translate(2604.447266 0)"/>
     <use xlink:href="#DejaVuSans-6a" transform="translate(2659.427734 0)"/>
     <use xlink:href="#DejaVuSans-69" transform="translate(2687.210938 0)"/>
    </g>
   </g>
   <g id="legend_1">
    <g id="patch_7">
     <path d="M 279.790313 302.584 
L 407.72 302.584 
Q 409.72 302.584 409.72 300.584 
L 409.72 257.549625 
Q 409.72 255.549625 407.72 255.549625 
L 279.790313 255.549625 
Q 277.790313 255.549625 277.790313 257.549625 
L 277.790313 300.584 
Q 277.790313 302.584 279.790313 302.584 
z
" style="fill: #ffffff; opacity: 0.8; stroke: #cccccc; stroke-linejoin: miter"/>
    </g>
    <g id="line2d_24">
     <path d="M 281.790313 263.648062 
L 291.790313 263.648062 
L 301.790313 263.648062 
" style="fill: none; stroke: #0000ff; stroke-width: 1.5; stroke-linecap: square"/>
    </g>
    <g id="text_14">
     <!-- Średnia -->
     <g transform="translate(309.790313 267.148062) scale(0.1 -0.1)">
      <use xlink:href="#DejaVuSans-15a"/>
      <use xlink:href="#DejaVuSans-72" transform="translate(63.476562 0)"/>
      <use xlink:href="#DejaVuSans-65" transform="translate(102.339844 0)"/>
      <use xlink:href="#DejaVuSans-64" transform="translate(163.863281 0)"/>
      <use xlink:href="#DejaVuSans-6e" transform="translate(227.339844 0)"/>
      <use xlink:href="#DejaVuSans-69" transform="translate(290.71875 0)"/>
      <use xlink:href="#DejaVuSans-61" transform="translate(318.501953 0)"/>
     </g>
    </g>
    <g id="line2d_25">
     <path d="M 281.790313 278.326188 
L 291.790313 278.326188 
L 301.790313 278.326188 
" style="fill: none; stroke-dasharray: 9.6,2.4,1.5,2.4; stroke-dashoffset: 0; stroke: #008000; stroke-width: 1.5"/>
    </g>
    <g id="text_15">
     <!-- ±1 Odchylenie std. -->
     <g transform="translate(309.790313 281.826188) scale(0.1 -0.1)">
      <defs>
       <path id="DejaVuSans-b1" d="M 2944 4013 
L 2944 2803 
L 4684 2803 
L 4684 2272 
L 2944 2272 
L 2944 1063 
L 2419 1063 
L 2419 2272 
L 678 2272 
L 678 2803 
L 2419 2803 
L 2419 4013 
L 2944 4013 
z
M 678 531 
L 4684 531 
L 4684 0 
L 678 0 
L 678 531 
z
" transform="scale(0.015625)"/>
       <path id="DejaVuSans-4f" d="M 2522 4238 
Q 1834 4238 1429 3725 
Q 1025 3213 1025 2328 
Q 1025 1447 1429 934 
Q 1834 422 2522 422 
Q 3209 422 3611 934 
Q 4013 1447 4013 2328 
Q 4013 3213 3611 3725 
Q 3209 4238 2522 4238 
z
M 2522 4750 
Q 3503 4750 4090 4092 
Q 4678 3434 4678 2328 
Q 4678 1225 4090 567 
Q 3503 -91 2522 -91 
Q 1538 -91 948 565 
Q 359 1222 359 2328 
Q 359 3434 948 4092 
Q 1538 4750 2522 4750 
z
" transform="scale(0.015625)"/>
       <path id="DejaVuSans-68" d="M 3513 2113 
L 3513 0 
L 2938 0 
L 2938 2094 
Q 2938 2591 2744 2837 
Q 2550 3084 2163 3084 
Q 1697 3084 1428 2787 
Q 1159 2491 1159 1978 
L 1159 0 
L 581 0 
L 581 4863 
L 1159 4863 
L 1159 2956 
Q 1366 3272 1645 3428 
Q 1925 3584 2291 3584 
Q 2894 3584 3203 3211 
Q 3513 2838 3513 2113 
z
" transform="scale(0.015625)"/>
       <path id="DejaVuSans-2e" d="M 684 794 
L 1344 794 
L 1344 0 
L 684 0 
L 684 794 
z
" transform="scale(0.015625)"/>
      </defs>
      <use xlink:href="#DejaVuSans-b1"/>
      <use xlink:href="#DejaVuSans-31" transform="translate(83.789062 0)"/>
      <use xlink:href="#DejaVuSans-20" transform="translate(147.412109 0)"/>
      <use xlink:href="#DejaVuSans-4f" transform="translate(179.199219 0)"/>
      <use xlink:href="#DejaVuSans-64" transform="translate(257.910156 0)"/>
      <use xlink:href="#DejaVuSans-63" transform="translate(321.386719 0)"/>
      <use xlink:href="#DejaVuSans-68" transform="translate(376.367188 0)"/>
      <use xlink:href="#DejaVuSans-79" transform="translate(439.746094 0)"/>
      <use xlink:href="#DejaVuSans-6c" transform="translate(498.925781 0)"/>
      <use xlink:href="#DejaVuSans-65" transform="translate(526.708984 0)"/>
      <use xlink:href="#DejaVuSans-6e" transform="translate(588.232422 0)"/>
      <use xlink:href="#DejaVuSans-69" transform="translate(651.611328 0)"/>
      <use xlink:href="#DejaVuSans-65" transform="translate(679.394531 0)"/>
      <use xlink:href="#DejaVuSans-20" transform="translate(740.917969 0)"/>
      <use xlink:href="#DejaVuSans-73" transform="translate(772.705078 0)"/>
      <use xlink:href="#DejaVuSans-74" transform="translate(824.804688 0)"/>
      <use xlink:href="#DejaVuSans-64" transform="translate(864.013672 0)"/>
      <use xlink:href="#DejaVuSans-2e" transform="translate(927.490234 0)"/>
     </g>
    </g>
    <g id="line2d_26">
     <path d="M 281.790313 293.004312 
L 291.790313 293.004312 
L 301.790313 293.004312 
" style="fill: none; stroke: #ff0000; stroke-width: 1.5; stroke-linecap: square"/>
    </g>
    <g id="text_16">
     <!-- Najlepsze -->
     <g transform="translate(309.790313 296.504312) scale(0.1 -0.1)">
      <defs>
       <path id="DejaVuSans-4e" d="M 628 4666 
L 1478 4666 
L 3547 763 
L 3547 4666 
L 4159 4666 
L 4159 0 
L 3309 0 
L 1241 3903 
L 1241 0 
L 628 0 
L 628 4666 
z
" transform="scale(0.015625)"/>
      </defs>
      <use xlink:href="#DejaVuSans-4e"/>
      <use xlink:href="#DejaVuSans-61" transform="translate(74.804688 0)"/>
      <use xlink:href="#DejaVuSans-6a" transform="translate(136.083984 0)"/>
      <use xlink:href="#DejaVuSans-6c" transform="translate(163.867188 0)"/>
      <use xlink:href="#DejaVuSans-65" transform="translate(191.650391 0)"/>
      <use xlink:href="#DejaVuSans-70" transform="translate(253.173828 0)"/>
      <use xlink:href="#DejaVuSans-73" transform="translate(316.650391 0)"/>
      <use xlink:href="#DejaVuSans-7a" transform="translate(368.75 0)"/>
      <use xlink:href="#DejaVuSans-65" transform="translate(421.240234 0)"/>
     </g>
    </g>
   </g>
  </g>
 </g>
 <defs>
  <clipPath id="p112bf9fb88">
   <rect x="57.6" y="41.472" width="357.12" height="266.112"/>
  </clipPath>
 </defs>
</svg>
