<?xml version="1.0" encoding="utf-8" standalone="no"?>
<!DOCTYPE svg PUBLIC "-//W3C//DTD SVG 1.1//EN"
  "http://www.w3.org/Graphics/SVG/1.1/DTD/svg11.dtd">
<svg xmlns:xlink="http://www.w3.org/1999/xlink" width="460.8pt" height="345.6pt" viewBox="0 0 460.8 345.6" xmlns="http://www.w3.org/2000/svg" version="1.1">
 <metadata>
  <rdf:RDF xmlns:dc="http://purl.org/dc/elements/1.1/" xmlns:cc="http://creativecommons.org/ns#" xmlns:rdf="http://www.w3.org/1999/02/22-rdf-syntax-ns#">
   <cc:Work>
    <dc:type rdf:resource="http://purl.org/dc/dcmitype/StillImage"/>
    <dc:date>2026-04-26T22:52:00.616911</dc:date>
    <dc:format>image/svg+xml</dc:format>
    <dc:creator>
     <cc:Agent>
      <dc:title>Matplotlib v3.10.8, https://matplotlib.org/</dc:title>
     </cc:Agent>
    </dc:creator>
   </cc:Work>
  </rdf:RDF>
 </metadata>
 <defs>
  <style type="text/css">*{stroke-linejoin: round; stroke-linecap: butt}</style>
 </defs>
 <g id="figure_1">
  <g id="patch_1">
   <path d="M 0 345.6 
L 460.8 345.6 
L 460.8 0 
L 0 0 
z
" style="fill: #ffffff"/>
  </g>
  <g id="axes_1">
   <g id="patch_2">
    <path d="M 57.6 307.584 
L 414.72 307.584 
L 414.72 41.472 
L 57.6 41.472 
z
" style="fill: #ffffff"/>
   </g>
   <g id="matplotlib.axis_1">
    <g id="xtick_1">
     <g id="line2d_1">
      <path d="M 72.201297 307.584 
L 72.201297 41.472 
" clip-path="url(#pbb58a7b2ca)" style="fill: none; stroke: #b0b0b0; stroke-width: 0.8; stroke-linecap: square"/>
     </g>
     <g id="line2d_2">
      <defs>
       <path id="m8a8edd1f67" d="M 0 0 
L 0 3.5 
" style="stroke: #000000; stroke-width: 0.8"/>
      </defs>
      <g>
       <use xlink:href="#m8a8edd1f67" x="72.201297" y="307.584" style="stroke: #000000; stroke-width: 0.8"/>
      </g>
     </g>
     <g id="text_1">
      <!-- 0 -->
      <g transform="translate(69.020047 322.182437) scale(0.1 -0.1)">
       <defs>
        <path id="DejaVuSans-30" d="M 2034 4250 
Q 1547 4250 1301 3770 
Q 1056 3291 1056 2328 
Q 1056 1369 1301 889 
Q 1547 409 2034 409 
Q 2525 409 2770 889 
Q 3016 1369 3016 2328 
Q 3016 3291 2770 3770 
Q 2525 4250 2034 4250 
z
M 2034 4750 
Q 2819 4750 3233 4129 
Q 3647 3509 3647 2328 
Q 3647 1150 3233 529 
Q 2819 -91 2034 -91 
Q 1250 -91 836 529 
Q 422 1150 422 2328 
Q 422 3509 836 4129 
Q 1250 4750 2034 4750 
z
" transform="scale(0.015625)"/>
       </defs>
       <use xlink:href="#DejaVuSans-30"/>
      </g>
     </g>
    </g>
    <g id="xtick_2">
     <g id="line2d_3">
      <path d="M 112.987044 307.584 
L 112.987044 41.472 
" clip-path="url(#pbb58a7b2ca)" style="fill: none; stroke: #b0b0b0; stroke-width: 0.8; stroke-linecap: square"/>
     </g>
     <g id="line2d_4">
      <g>
       <use xlink:href="#m8a8edd1f67" x="112.987044" y="307.584" style="stroke: #000000; stroke-width: 0.8"/>
      </g>
     </g>
     <g id="text_2">
      <!-- 25 -->
      <g transform="translate(106.624544 322.182437) scale(0.1 -0.1)">
       <defs>
        <path id="DejaVuSans-32" d="M 1228 531 
L 3431 531 
L 3431 0 
L 469 0 
L 469 531 
Q 828 903 1448 1529 
Q 2069 2156 2228 2338 
Q 2531 2678 2651 2914 
Q 2772 3150 2772 3378 
Q 2772 3750 2511 3984 
Q 2250 4219 1831 4219 
Q 1534 4219 1204 4116 
Q 875 4013 500 3803 
L 500 4441 
Q 881 4594 1212 4672 
Q 1544 4750 1819 4750 
Q 2544 4750 2975 4387 
Q 3406 4025 3406 3419 
Q 3406 3131 3298 2873 
Q 3191 2616 2906 2266 
Q 2828 2175 2409 1742 
Q 1991 1309 1228 531 
z
" transform="scale(0.015625)"/>
        <path id="DejaVuSans-35" d="M 691 4666 
L 3169 4666 
L 3169 4134 
L 1269 4134 
L 1269 2991 
Q 1406 3038 1543 3061 
Q 1681 3084 1819 3084 
Q 2600 3084 3056 2656 
Q 3513 2228 3513 1497 
Q 3513 744 3044 326 
Q 2575 -91 1722 -91 
Q 1428 -91 1123 -41 
Q 819 9 494 109 
L 494 744 
Q 775 591 1075 516 
Q 1375 441 1709 441 
Q 2250 441 2565 725 
Q 2881 1009 2881 1497 
Q 2881 1984 2565 2268 
Q 2250 2553 1709 2553 
Q 1456 2553 1204 2497 
Q 953 2441 691 2322 
L 691 4666 
z
" transform="scale(0.015625)"/>
       </defs>
       <use xlink:href="#DejaVuSans-32"/>
       <use xlink:href="#DejaVuSans-35" transform="translate(63.623047 0)"/>
      </g>
     </g>
    </g>
    <g id="xtick_3">
     <g id="line2d_5">
      <path d="M 153.772791 307.584 
L 153.772791 41.472 
" clip-path="url(#pbb58a7b2ca)" style="fill: none; stroke: #b0b0b0; stroke-width: 0.8; stroke-linecap: square"/>
     </g>
     <g id="line2d_6">
      <g>
       <use xlink:href="#m8a8edd1f67" x="153.772791" y="307.584" style="stroke: #000000; stroke-width: 0.8"/>
      </g>
     </g>
     <g id="text_3">
      <!-- 50 -->
      <g transform="translate(147.410291 322.182437) scale(0.1 -0.1)">
       <use xlink:href="#DejaVuSans-35"/>
       <use xlink:href="#DejaVuSans-30" transform="translate(63.623047 0)"/>
      </g>
     </g>
    </g>
    <g id="xtick_4">
     <g id="line2d_7">
      <path d="M 194.558538 307.584 
L 194.558538 41.472 
" clip-path="url(#pbb58a7b2ca)" style="fill: none; stroke: #b0b0b0; stroke-width: 0.8; stroke-linecap: square"/>
     </g>
     <g id="line2d_8">
      <g>
       <use xlink:href="#m8a8edd1f67" x="194.558538" y="307.584" style="stroke: #000000; stroke-width: 0.8"/>
      </g>
     </g>
     <g id="text_4">
      <!-- 75 -->
      <g transform="translate(188.196038 322.182437) scale(0.1 -0.1)">
       <defs>
        <path id="DejaVuSans-37" d="M 525 4666 
L 3525 4666 
L 3525 4397 
L 1831 0 
L 1172 0 
L 2766 4134 
L 525 4134 
L 525 4666 
z
" transform="scale(0.015625)"/>
       </defs>
       <use xlink:href="#DejaVuSans-37"/>
       <use xlink:href="#DejaVuSans-35" transform="translate(63.623047 0)"/>
      </g>
     </g>
    </g>
    <g id="xtick_5">
     <g id="line2d_9">
      <path d="M 235.344285 307.584 
L 235.344285 41.472 
" clip-path="url(#pbb58a7b2ca)" style="fill: none; stroke: #b0b0b0; stroke-width: 0.8; stroke-linecap: square"/>
     </g>
     <g id="line2d_10">
      <g>
       <use xlink:href="#m8a8edd1f67" x="235.344285" y="307.584" style="stroke: #000000; stroke-width: 0.8"/>
      </g>
     </g>
     <g id="text_5">
      <!-- 100 -->
      <g transform="translate(225.800535 322.182437) scale(0.1 -0.1)">
       <defs>
        <path id="DejaVuSans-31" d="M 794 531 
L 1825 531 
L 1825 4091 
L 703 3866 
L 703 4441 
L 1819 4666 
L 2450 4666 
L 2450 531 
L 3481 531 
L 3481 0 
L 794 0 
L 794 531 
z
" transform="scale(0.015625)"/>
       </defs>
       <use xlink:href="#DejaVuSans-31"/>
       <use xlink:href="#DejaVuSans-30" transform="translate(63.623047 0)"/>
       <use xlink:href="#DejaVuSans-30" transform="translate(127.246094 0)"/>
      </g>
     </g>
    </g>
    <g id="xtick_6">
     <g id="line2d_11">
      <path d="M 276.130032 307.584 
L 276.130032 41.472 
" clip-path="url(#pbb58a7b2ca)" style="fill: none; stroke: #b0b0b0; stroke-width: 0.8; stroke-linecap: square"/>
     </g>
     <g id="line2d_12">
      <g>
       <use xlink:href="#m8a8edd1f67" x="276.130032" y="307.584" style="stroke: #000000; stroke-width: 0.8"/>
      </g>
     </g>
     <g id="text_6">
      <!-- 125 -->
      <g transform="translate(266.586282 322.182437) scale(0.1 -0.1)">
       <use xlink:href="#DejaVuSans-31"/>
       <use xlink:href="#DejaVuSans-32" transform="translate(63.623047 0)"/>
       <use xlink:href="#DejaVuSans-35" transform="translate(127.246094 0)"/>
      </g>
     </g>
    </g>
    <g id="xtick_7">
     <g id="line2d_13">
      <path d="M 316.915779 307.584 
L 316.915779 41.472 
" clip-path="url(#pbb58a7b2ca)" style="fill: none; stroke: #b0b0b0; stroke-width: 0.8; stroke-linecap: square"/>
     </g>
     <g id="line2d_14">
      <g>
       <use xlink:href="#m8a8edd1f67" x="316.915779" y="307.584" style="stroke: #000000; stroke-width: 0.8"/>
      </g>
     </g>
     <g id="text_7">
      <!-- 150 -->
      <g transform="translate(307.372029 322.182437) scale(0.1 -0.1)">
       <use xlink:href="#DejaVuSans-31"/>
       <use xlink:href="#DejaVuSans-35" transform="translate(63.623047 0)"/>
       <use xlink:href="#DejaVuSans-30" transform="translate(127.246094 0)"/>
      </g>
     </g>
    </g>
    <g id="xtick_8">
     <g id="line2d_15">
      <path d="M 357.701526 307.584 
L 357.701526 41.472 
" clip-path="url(#pbb58a7b2ca)" style="fill: none; stroke: #b0b0b0; stroke-width: 0.8; stroke-linecap: square"/>
     </g>
     <g id="line2d_16">
      <g>
       <use xlink:href="#m8a8edd1f67" x="357.701526" y="307.584" style="stroke: #000000; stroke-width: 0.8"/>
      </g>
     </g>
     <g id="text_8">
      <!-- 175 -->
      <g transform="translate(348.157776 322.182437) scale(0.1 -0.1)">
       <use xlink:href="#DejaVuSans-31"/>
       <use xlink:href="#DejaVuSans-37" transform="translate(63.623047 0)"/>
       <use xlink:href="#DejaVuSans-35" transform="translate(127.246094 0)"/>
      </g>
     </g>
    </g>
    <g id="xtick_9">
     <g id="line2d_17">
      <path d="M 398.487273 307.584 
L 398.487273 41.472 
" clip-path="url(#pbb58a7b2ca)" style="fill: none; stroke: #b0b0b0; stroke-width: 0.8; stroke-linecap: square"/>
     </g>
     <g id="line2d_18">
      <g>
       <use xlink:href="#m8a8edd1f67" x="398.487273" y="307.584" style="stroke: #000000; stroke-width: 0.8"/>
      </g>
     </g>
     <g id="text_9">
      <!-- 200 -->
      <g transform="translate(388.943523 322.182437) scale(0.1 -0.1)">
       <use xlink:href="#DejaVuSans-32"/>
       <use xlink:href="#DejaVuSans-30" transform="translate(63.623047 0)"/>
       <use xlink:href="#DejaVuSans-30" transform="translate(127.246094 0)"/>
      </g>
     </g>
    </g>
    <g id="text_10">
     <!-- Generacje -->
     <g transform="translate(210.629531 335.860562) scale(0.1 -0.1)">
      <defs>
       <path id="DejaVuSans-47" d="M 3809 666 
L 3809 1919 
L 2778 1919 
L 2778 2438 
L 4434 2438 
L 4434 434 
Q 4069 175 3628 42 
Q 3188 -91 2688 -91 
Q 1594 -91 976 548 
Q 359 1188 359 2328 
Q 359 3472 976 4111 
Q 1594 4750 2688 4750 
Q 3144 4750 3555 4637 
Q 3966 4525 4313 4306 
L 4313 3634 
Q 3963 3931 3569 4081 
Q 3175 4231 2741 4231 
Q 1884 4231 1454 3753 
Q 1025 3275 1025 2328 
Q 1025 1384 1454 906 
Q 1884 428 2741 428 
Q 3075 428 3337 486 
Q 3600 544 3809 666 
z
" transform="scale(0.015625)"/>
       <path id="DejaVuSans-65" d="M 3597 1894 
L 3597 1613 
L 953 1613 
Q 991 1019 1311 708 
Q 1631 397 2203 397 
Q 2534 397 2845 478 
Q 3156 559 3463 722 
L 3463 178 
Q 3153 47 2828 -22 
Q 2503 -91 2169 -91 
Q 1331 -91 842 396 
Q 353 884 353 1716 
Q 353 2575 817 3079 
Q 1281 3584 2069 3584 
Q 2775 3584 3186 3129 
Q 3597 2675 3597 1894 
z
M 3022 2063 
Q 3016 2534 2758 2815 
Q 2500 3097 2075 3097 
Q 1594 3097 1305 2825 
Q 1016 2553 972 2059 
L 3022 2063 
z
" transform="scale(0.015625)"/>
       <path id="DejaVuSans-6e" d="M 3513 2113 
L 3513 0 
L 2938 0 
L 2938 2094 
Q 2938 2591 2744 2837 
Q 2550 3084 2163 3084 
Q 1697 3084 1428 2787 
Q 1159 2491 1159 1978 
L 1159 0 
L 581 0 
L 581 3500 
L 1159 3500 
L 1159 2956 
Q 1366 3272 1645 3428 
Q 1925 3584 2291 3584 
Q 2894 3584 3203 3211 
Q 3513 2838 3513 2113 
z
" transform="scale(0.015625)"/>
       <path id="DejaVuSans-72" d="M 2631 2963 
Q 2534 3019 2420 3045 
Q 2306 3072 2169 3072 
Q 1681 3072 1420 2755 
Q 1159 2438 1159 1844 
L 1159 0 
L 581 0 
L 581 3500 
L 1159 3500 
L 1159 2956 
Q 1341 3275 1631 3429 
Q 1922 3584 2338 3584 
Q 2397 3584 2469 3576 
Q 2541 3569 2628 3553 
L 2631 2963 
z
" transform="scale(0.015625)"/>
       <path id="DejaVuSans-61" d="M 2194 1759 
Q 1497 1759 1228 1600 
Q 959 1441 959 1056 
Q 959 750 1161 570 
Q 1363 391 1709 391 
Q 2188 391 2477 730 
Q 2766 1069 2766 1631 
L 2766 1759 
L 2194 1759 
z
M 3341 1997 
L 3341 0 
L 2766 0 
L 2766 531 
Q 2569 213 2275 61 
Q 1981 -91 1556 -91 
Q 1019 -91 701 211 
Q 384 513 384 1019 
Q 384 1609 779 1909 
Q 1175 2209 1959 2209 
L 2766 2209 
L 2766 2266 
Q 2766 2663 2505 2880 
Q 2244 3097 1772 3097 
Q 1472 3097 1187 3025 
Q 903 2953 641 2809 
L 641 3341 
Q 956 3463 1253 3523 
Q 1550 3584 1831 3584 
Q 2591 3584 2966 3190 
Q 3341 2797 3341 1997 
z
" transform="scale(0.015625)"/>
       <path id="DejaVuSans-63" d="M 3122 3366 
L 3122 2828 
Q 2878 2963 2633 3030 
Q 2388 3097 2138 3097 
Q 1578 3097 1268 2742 
Q 959 2388 959 1747 
Q 959 1106 1268 751 
Q 1578 397 2138 397 
Q 2388 397 2633 464 
Q 2878 531 3122 666 
L 3122 134 
Q 2881 22 2623 -34 
Q 2366 -91 2075 -91 
Q 1284 -91 818 406 
Q 353 903 353 1747 
Q 353 2603 823 3093 
Q 1294 3584 2113 3584 
Q 2378 3584 2631 3529 
Q 2884 3475 3122 3366 
z
" transform="scale(0.015625)"/>
       <path id="DejaVuSans-6a" d="M 603 3500 
L 1178 3500 
L 1178 -63 
Q 1178 -731 923 -1031 
Q 669 -1331 103 -1331 
L -116 -1331 
L -116 -844 
L 38 -844 
Q 366 -844 484 -692 
Q 603 -541 603 -63 
L 603 3500 
z
M 603 4863 
L 1178 4863 
L 1178 4134 
L 603 4134 
L 603 4863 
z
" transform="scale(0.015625)"/>
      </defs>
      <use xlink:href="#DejaVuSans-47"/>
      <use xlink:href="#DejaVuSans-65" transform="translate(77.490234 0)"/>
      <use xlink:href="#DejaVuSans-6e" transform="translate(139.013672 0)"/>
      <use xlink:href="#DejaVuSans-65" transform="translate(202.392578 0)"/>
      <use xlink:href="#DejaVuSans-72" transform="translate(263.916016 0)"/>
      <use xlink:href="#DejaVuSans-61" transform="translate(305.029297 0)"/>
      <use xlink:href="#DejaVuSans-63" transform="translate(366.308594 0)"/>
      <use xlink:href="#DejaVuSans-6a" transform="translate(421.289062 0)"/>
      <use xlink:href="#DejaVuSans-65" transform="translate(449.072266 0)"/>
     </g>
    </g>
   </g>
   <g id="matplotlib.axis_2">
    <g id="ytick_1">
     <g id="line2d_19">
      <path d="M 57.6 143.784726 
L 414.72 143.784726 
" clip-path="url(#pbb58a7b2ca)" style="fill: none; stroke: #b0b0b0; stroke-width: 0.8; stroke-linecap: square"/>
     </g>
     <g id="line2d_20">
      <defs>
       <path id="m6ed8bbbda7" d="M 0 0 
L -3.5 0 
" style="stroke: #000000; stroke-width: 0.8"/>
      </defs>
      <g>
       <use xlink:href="#m6ed8bbbda7" x="57.6" y="143.784726" style="stroke: #000000; stroke-width: 0.8"/>
      </g>
     </g>
     <g id="text_11">
      <!-- $\mathdefault{10^{2}}$ -->
      <g transform="translate(33 147.583945) scale(0.1 -0.1)">
       <use xlink:href="#DejaVuSans-31" transform="translate(0 0.765625)"/>
       <use xlink:href="#DejaVuSans-30" transform="translate(63.623047 0.765625)"/>
       <use xlink:href="#DejaVuSans-32" transform="translate(128.203125 39.046875) scale(0.7)"/>
      </g>
     </g>
    </g>
    <g id="text_12">
     <!-- Przystosowanie -->
     <g transform="translate(26.920312 213.170187) rotate(-90) scale(0.1 -0.1)">
      <defs>
       <path id="DejaVuSans-50" d="M 1259 4147 
L 1259 2394 
L 2053 2394 
Q 2494 2394 2734 2622 
Q 2975 2850 2975 3272 
Q 2975 3691 2734 3919 
Q 2494 4147 2053 4147 
L 1259 4147 
z
M 628 4666 
L 2053 4666 
Q 2838 4666 3239 4311 
Q 3641 3956 3641 3272 
Q 3641 2581 3239 2228 
Q 2838 1875 2053 1875 
L 1259 1875 
L 1259 0 
L 628 0 
L 628 4666 
z
" transform="scale(0.015625)"/>
       <path id="DejaVuSans-7a" d="M 353 3500 
L 3084 3500 
L 3084 2975 
L 922 459 
L 3084 459 
L 3084 0 
L 275 0 
L 275 525 
L 2438 3041 
L 353 3041 
L 353 3500 
z
" transform="scale(0.015625)"/>
       <path id="DejaVuSans-79" d="M 2059 -325 
Q 1816 -950 1584 -1140 
Q 1353 -1331 966 -1331 
L 506 -1331 
L 506 -850 
L 844 -850 
Q 1081 -850 1212 -737 
Q 1344 -625 1503 -206 
L 1606 56 
L 191 3500 
L 800 3500 
L 1894 763 
L 2988 3500 
L 3597 3500 
L 2059 -325 
z
" transform="scale(0.015625)"/>
       <path id="DejaVuSans-73" d="M 2834 3397 
L 2834 2853 
Q 2591 2978 2328 3040 
Q 2066 3103 1784 3103 
Q 1356 3103 1142 2972 
Q 928 2841 928 2578 
Q 928 2378 1081 2264 
Q 1234 2150 1697 2047 
L 1894 2003 
Q 2506 1872 2764 1633 
Q 3022 1394 3022 966 
Q 3022 478 2636 193 
Q 2250 -91 1575 -91 
Q 1294 -91 989 -36 
Q 684 19 347 128 
L 347 722 
Q 666 556 975 473 
Q 1284 391 1588 391 
Q 1994 391 2212 530 
Q 2431 669 2431 922 
Q 2431 1156 2273 1281 
Q 2116 1406 1581 1522 
L 1381 1569 
Q 847 1681 609 1914 
Q 372 2147 372 2553 
Q 372 3047 722 3315 
Q 1072 3584 1716 3584 
Q 2034 3584 2315 3537 
Q 2597 3491 2834 3397 
z
" transform="scale(0.015625)"/>
       <path id="DejaVuSans-74" d="M 1172 4494 
L 1172 3500 
L 2356 3500 
L 2356 3053 
L 1172 3053 
L 1172 1153 
Q 1172 725 1289 603 
Q 1406 481 1766 481 
L 2356 481 
L 2356 0 
L 1766 0 
Q 1100 0 847 248 
Q 594 497 594 1153 
L 594 3053 
L 172 3053 
L 172 3500 
L 594 3500 
L 594 4494 
L 1172 4494 
z
" transform="scale(0.015625)"/>
       <path id="DejaVuSans-6f" d="M 1959 3097 
Q 1497 3097 1228 2736 
Q 959 2375 959 1747 
Q 959 1119 1226 758 
Q 1494 397 1959 397 
Q 2419 397 2687 759 
Q 2956 1122 2956 1747 
Q 2956 2369 2687 2733 
Q 2419 3097 1959 3097 
z
M 1959 3584 
Q 2709 3584 3137 3096 
Q 3566 2609 3566 1747 
Q 3566 888 3137 398 
Q 2709 -91 1959 -91 
Q 1206 -91 779 398 
Q 353 888 353 1747 
Q 353 2609 779 3096 
Q 1206 3584 1959 3584 
z
" transform="scale(0.015625)"/>
       <path id="DejaVuSans-77" d="M 269 3500 
L 844 3500 
L 1563 769 
L 2278 3500 
L 2956 3500 
L 3675 769 
L 4391 3500 
L 4966 3500 
L 4050 0 
L 3372 0 
L 2619 2869 
L 1863 0 
L 1184 0 
L 269 3500 
z
" transform="scale(0.015625)"/>
       <path id="DejaVuSans-69" d="M 603 3500 
L 1178 3500 
L 1178 0 
L 603 0 
L 603 3500 
z
M 603 4863 
L 1178 4863 
L 1178 4134 
L 603 4134 
L 603 4863 
z
" transform="scale(0.015625)"/>
      </defs>
      <use xlink:href="#DejaVuSans-50"/>
      <use xlink:href="#DejaVuSans-72" transform="translate(58.552734 0)"/>
      <use xlink:href="#DejaVuSans-7a" transform="translate(99.666016 0)"/>
      <use xlink:href="#DejaVuSans-79" transform="translate(152.15625 0)"/>
      <use xlink:href="#DejaVuSans-73" transform="translate(211.335938 0)"/>
      <use xlink:href="#DejaVuSans-74" transform="translate(263.435547 0)"/>
      <use xlink:href="#DejaVuSans-6f" transform="translate(302.644531 0)"/>
      <use xlink:href="#DejaVuSans-73" transform="translate(363.826172 0)"/>
      <use xlink:href="#DejaVuSans-6f" transform="translate(415.925781 0)"/>
      <use xlink:href="#DejaVuSans-77" transform="translate(477.107422 0)"/>
      <use xlink:href="#DejaVuSans-61" transform="translate(558.894531 0)"/>
      <use xlink:href="#DejaVuSans-6e" transform="translate(620.173828 0)"/>
      <use xlink:href="#DejaVuSans-69" transform="translate(683.552734 0)"/>
      <use xlink:href="#DejaVuSans-65" transform="translate(711.335938 0)"/>
     </g>
    </g>
   </g>
   <g id="line2d_21">
    <path d="M 73.832727 295.488 
L 75.464157 242.028194 
L 77.095587 211.952947 
L 78.727017 198.790464 
L 80.358447 193.695513 
L 81.989877 177.078609 
L 83.621307 184.110231 
L 85.252736 177.623746 
L 88.515596 182.100536 
L 91.778456 169.952859 
L 93.409886 172.26858 
L 95.041316 170.097761 
L 96.672746 172.014253 
L 98.304175 174.912384 
L 99.935605 169.762811 
L 101.567035 168.916443 
L 103.198465 168.705023 
L 104.829895 168.323607 
L 106.461325 169.143869 
L 108.092755 167.650832 
L 109.724185 165.029141 
L 111.355614 165.486808 
L 112.987044 163.939342 
L 114.618474 166.698118 
L 116.249904 166.773969 
L 117.881334 167.714029 
L 119.512764 168.140746 
L 121.144194 167.155716 
L 122.775624 166.406927 
L 124.407053 165.505635 
L 126.038483 166.19123 
L 127.669913 167.398642 
L 129.301343 165.885844 
L 130.932773 164.620116 
L 132.564203 166.904104 
L 134.195633 167.616468 
L 135.827063 167.057413 
L 137.458492 166.234284 
L 139.089922 163.968208 
L 140.721352 167.021223 
L 142.352782 167.377519 
L 143.984212 166.135948 
L 145.615642 166.43575 
L 147.247072 166.129664 
L 148.878502 167.175933 
L 150.509931 163.800034 
L 153.772791 166.739713 
L 155.404221 164.247865 
L 157.035651 164.007288 
L 158.667081 166.608696 
L 160.298511 166.164618 
L 161.929941 164.575002 
L 163.56137 162.095083 
L 165.1928 160.840269 
L 166.82423 163.904549 
L 168.45566 166.445073 
L 170.08709 165.301897 
L 171.71852 163.965983 
L 174.98138 166.277353 
L 176.61281 164.353797 
L 178.244239 164.618839 
L 179.875669 165.444577 
L 181.507099 161.974604 
L 183.138529 165.425092 
L 184.769959 164.966092 
L 186.401389 165.952012 
L 188.032819 164.59361 
L 189.664249 164.5498 
L 191.295678 164.283184 
L 192.927108 164.198287 
L 194.558538 163.025946 
L 196.189968 162.36186 
L 197.821398 166.757628 
L 199.452828 163.522789 
L 201.084258 160.651472 
L 202.715688 164.240591 
L 204.347117 164.560282 
L 205.978547 162.453091 
L 207.609977 163.018683 
L 209.241407 166.344386 
L 210.872837 163.345831 
L 212.504267 163.884693 
L 214.135697 166.760815 
L 215.767127 163.855416 
L 217.398556 162.802646 
L 219.029986 162.789103 
L 220.661416 163.401109 
L 222.292846 163.734653 
L 223.924276 161.859113 
L 225.555706 164.223812 
L 227.187136 167.736373 
L 228.818566 162.577001 
L 230.449995 165.241908 
L 233.712855 164.223674 
L 235.344285 160.975108 
L 236.975715 163.864229 
L 238.607145 162.48712 
L 240.238575 165.808047 
L 241.870005 164.728738 
L 243.501434 164.865556 
L 245.132864 161.84856 
L 246.764294 166.87564 
L 248.395724 164.623919 
L 250.027154 164.351386 
L 251.658584 163.849697 
L 253.290014 162.512602 
L 254.921444 164.507631 
L 256.552873 161.89127 
L 258.184303 164.664602 
L 259.815733 164.207133 
L 261.447163 165.147431 
L 263.078593 161.300364 
L 264.710023 164.0994 
L 266.341453 163.532414 
L 267.972883 166.874064 
L 269.604312 163.648392 
L 271.235742 163.823064 
L 272.867172 163.000189 
L 274.498602 165.720141 
L 276.130032 162.938198 
L 277.761462 163.642714 
L 279.392892 163.591285 
L 281.024322 162.834489 
L 282.655751 161.432425 
L 284.287181 164.752182 
L 285.918611 163.92068 
L 287.550041 164.62061 
L 289.181471 166.474419 
L 290.812901 165.860469 
L 292.444331 167.357501 
L 294.075761 164.841672 
L 295.70719 162.868337 
L 297.33862 166.104647 
L 298.97005 164.112989 
L 300.60148 164.385655 
L 302.23291 164.963907 
L 303.86434 166.572389 
L 305.49577 163.416139 
L 307.1272 164.093475 
L 308.75863 164.014586 
L 310.390059 164.21007 
L 312.021489 165.443988 
L 313.652919 165.006172 
L 315.284349 165.878373 
L 316.915779 166.351575 
L 318.547209 164.458765 
L 320.178639 165.604704 
L 321.810069 166.383102 
L 323.441498 167.521539 
L 325.072928 164.364345 
L 328.335788 166.497008 
L 329.967218 165.844906 
L 331.598648 164.562297 
L 333.230078 165.602273 
L 334.861508 165.290976 
L 336.492937 163.518707 
L 338.124367 164.125181 
L 339.755797 165.27275 
L 341.387227 163.299182 
L 343.018657 165.73787 
L 344.650087 163.132134 
L 346.281517 161.986088 
L 347.912947 164.18171 
L 349.544376 163.837724 
L 351.175806 164.269709 
L 352.807236 164.8328 
L 354.438666 165.835367 
L 356.070096 163.836172 
L 357.701526 164.242874 
L 359.332956 165.440884 
L 360.964386 167.74423 
L 362.595815 162.895324 
L 364.227245 167.143812 
L 365.858675 164.517239 
L 367.490105 164.990169 
L 369.121535 163.811157 
L 370.752965 164.327731 
L 372.384395 165.059323 
L 374.015825 163.118738 
L 375.647254 165.131844 
L 377.278684 163.759344 
L 378.910114 165.993147 
L 380.541544 166.08402 
L 382.172974 165.78895 
L 383.804404 164.846948 
L 387.067264 165.111558 
L 388.698693 167.001879 
L 390.330123 164.221661 
L 391.961553 167.019955 
L 393.592983 165.120561 
L 395.224413 166.314055 
L 396.855843 163.030984 
L 398.487273 165.035904 
L 398.487273 165.035904 
" clip-path="url(#pbb58a7b2ca)" style="fill: none; stroke: #0000ff; stroke-width: 1.5; stroke-linecap: square"/>
   </g>
   <g id="line2d_22">
    <path d="M 73.832727 252.904229 
L 75.464157 198.119246 
L 77.095587 175.932124 
L 78.727017 164.857607 
L 80.358447 161.675207 
L 81.989877 152.109066 
L 83.621307 155.441539 
L 86.884166 148.02295 
L 88.515596 148.201887 
L 90.147026 147.953003 
L 91.778456 143.486518 
L 93.409886 146.676138 
L 95.041316 148.516894 
L 96.672746 150.876527 
L 98.304175 152.413759 
L 99.935605 145.96258 
L 101.567035 146.131701 
L 103.198465 148.442265 
L 104.829895 147.00053 
L 106.461325 145.844152 
L 108.092755 144.096301 
L 109.724185 144.969914 
L 111.355614 145.602338 
L 112.987044 142.081704 
L 114.618474 146.922969 
L 116.249904 144.709621 
L 117.881334 147.456768 
L 119.512764 145.537935 
L 121.144194 145.503964 
L 122.775624 143.538893 
L 124.407053 144.959465 
L 126.038483 145.121759 
L 127.669913 145.568656 
L 129.301343 147.166955 
L 130.932773 143.686842 
L 132.564203 145.848759 
L 134.195633 147.134397 
L 135.827063 145.488654 
L 137.458492 144.900977 
L 139.089922 143.033639 
L 140.721352 147.789188 
L 142.352782 147.423514 
L 143.984212 146.832251 
L 145.615642 148.072798 
L 147.247072 145.426221 
L 148.878502 146.052191 
L 150.509931 143.37173 
L 152.141361 146.757208 
L 153.772791 146.291437 
L 155.404221 142.588298 
L 157.035651 143.681447 
L 158.667081 145.953959 
L 160.298511 146.149267 
L 161.929941 145.333126 
L 163.56137 140.600404 
L 165.1928 139.292966 
L 166.82423 142.195297 
L 168.45566 147.041412 
L 170.08709 145.017989 
L 171.71852 143.551303 
L 173.34995 144.438754 
L 174.98138 144.312961 
L 176.61281 142.942853 
L 178.244239 144.376835 
L 179.875669 145.209325 
L 181.507099 140.900315 
L 183.138529 144.414476 
L 184.769959 146.326869 
L 186.401389 145.208724 
L 188.032819 143.484861 
L 189.664249 142.224204 
L 191.295678 144.931241 
L 192.927108 142.800757 
L 194.558538 141.958309 
L 196.189968 142.24012 
L 197.821398 149.239052 
L 199.452828 142.380442 
L 201.084258 139.595072 
L 202.715688 144.374092 
L 204.347117 144.846768 
L 205.978547 142.361308 
L 209.241407 146.626919 
L 210.872837 143.042365 
L 212.504267 142.82918 
L 214.135697 146.426056 
L 215.767127 143.476742 
L 219.029986 142.172755 
L 220.661416 142.922054 
L 222.292846 143.403989 
L 223.924276 141.620407 
L 225.555706 143.747964 
L 227.187136 148.307998 
L 228.818566 140.988385 
L 230.449995 146.016496 
L 232.081425 145.030871 
L 233.712855 143.353265 
L 235.344285 142.006335 
L 236.975715 143.491626 
L 238.607145 141.035305 
L 240.238575 145.503934 
L 241.870005 145.038824 
L 243.501434 144.730407 
L 245.132864 140.824487 
L 246.764294 146.844623 
L 248.395724 144.868734 
L 250.027154 142.335711 
L 251.658584 142.202888 
L 253.290014 142.403355 
L 254.921444 142.898618 
L 256.552873 141.86795 
L 258.184303 145.094418 
L 259.815733 144.110405 
L 261.447163 145.013029 
L 263.078593 138.972586 
L 264.710023 141.924019 
L 266.341453 142.717135 
L 267.972883 145.867034 
L 269.604312 142.822256 
L 271.235742 143.323354 
L 272.867172 139.626926 
L 274.498602 147.262944 
L 276.130032 141.465877 
L 277.761462 144.294503 
L 279.392892 140.9779 
L 281.024322 142.134317 
L 282.655751 137.238966 
L 284.287181 144.572314 
L 285.918611 144.130206 
L 287.550041 144.227323 
L 289.181471 146.805761 
L 290.812901 145.91333 
L 292.444331 146.126362 
L 294.075761 145.864631 
L 295.70719 142.49361 
L 297.33862 144.789766 
L 298.97005 146.011057 
L 300.60148 144.246915 
L 302.23291 144.303313 
L 303.86434 146.972406 
L 305.49577 142.824514 
L 307.1272 144.000297 
L 308.75863 143.382837 
L 310.390059 144.613708 
L 312.021489 146.739599 
L 313.652919 144.494209 
L 315.284349 145.116129 
L 316.915779 146.423581 
L 318.547209 144.267358 
L 320.178639 145.107978 
L 321.810069 146.966864 
L 323.441498 147.484979 
L 325.072928 144.817183 
L 326.704358 144.920234 
L 328.335788 148.638797 
L 329.967218 146.524754 
L 331.598648 142.801181 
L 333.230078 145.054804 
L 334.861508 145.325933 
L 336.492937 143.045333 
L 338.124367 143.576698 
L 339.755797 145.752289 
L 341.387227 141.635996 
L 343.018657 146.238785 
L 344.650087 143.064199 
L 346.281517 141.038692 
L 347.912947 143.596059 
L 349.544376 143.367738 
L 351.175806 145.128909 
L 352.807236 144.396797 
L 354.438666 147.38946 
L 356.070096 145.252967 
L 357.701526 143.681694 
L 359.332956 145.660465 
L 360.964386 148.473627 
L 362.595815 143.619929 
L 364.227245 148.211581 
L 365.858675 144.799332 
L 367.490105 145.132801 
L 369.121535 144.573364 
L 370.752965 144.702981 
L 372.384395 145.516353 
L 374.015825 142.628638 
L 375.647254 143.918855 
L 377.278684 143.897667 
L 378.910114 147.48595 
L 380.541544 146.371036 
L 382.172974 147.401646 
L 383.804404 146.055001 
L 385.435834 146.581788 
L 387.067264 145.265345 
L 388.698693 147.107268 
L 390.330123 144.122108 
L 391.961553 147.827612 
L 393.592983 146.292464 
L 395.224413 147.013457 
L 396.855843 140.292151 
L 398.487273 146.7936 
L 398.487273 146.7936 
" clip-path="url(#pbb58a7b2ca)" style="fill: none; stroke-dasharray: 9.6,2.4,1.5,2.4; stroke-dashoffset: 0; stroke: #008000; stroke-width: 1.5"/>
   </g>
   <g id="line2d_23">
    <path d="M 73.832727 157.136203 
L 75.464157 129.511784 
L 77.095587 129.79113 
L 78.727017 103.290085 
L 80.358447 113.949783 
L 81.989877 110.261283 
L 83.621307 121.559694 
L 85.252736 89.5542 
L 86.884166 106.736353 
L 88.515596 93.307383 
L 90.147026 89.738133 
L 91.778456 93.020152 
L 93.409886 103.662254 
L 95.041316 94.215292 
L 96.672746 117.656432 
L 98.304175 117.444323 
L 99.935605 100.167654 
L 101.567035 53.568 
L 103.198465 110.267834 
L 104.829895 99.321687 
L 106.461325 109.752926 
L 108.092755 86.506977 
L 109.724185 106.282525 
L 111.355614 103.087221 
L 112.987044 89.56122 
L 114.618474 114.065121 
L 116.249904 106.655551 
L 117.881334 114.200357 
L 119.512764 86.954389 
L 121.144194 110.099937 
L 122.775624 80.658593 
L 124.407053 102.790057 
L 126.038483 86.800164 
L 127.669913 103.048968 
L 129.301343 102.979579 
L 130.932773 77.881481 
L 132.564203 109.919401 
L 134.195633 99.415293 
L 135.827063 110.113558 
L 137.458492 96.135093 
L 139.089922 53.775174 
L 140.721352 103.158624 
L 142.352782 117.461342 
L 143.984212 103.104478 
L 145.615642 99.822865 
L 147.247072 110.401009 
L 148.878502 96.934415 
L 150.509931 90.235376 
L 152.141361 106.0127 
L 153.772791 99.498906 
L 155.404221 102.605856 
L 158.667081 110.183857 
L 160.298511 103.105749 
L 161.929941 110.182695 
L 163.56137 86.459613 
L 165.1928 99.922234 
L 166.82423 77.714406 
L 168.45566 99.600974 
L 170.08709 90.553237 
L 171.71852 96.300502 
L 173.34995 87.404454 
L 174.98138 102.922762 
L 176.61281 93.136748 
L 178.244239 106.57941 
L 179.875669 96.058818 
L 181.507099 103.140861 
L 183.138529 96.922916 
L 184.769959 103.455447 
L 186.401389 99.249972 
L 188.032819 96.522343 
L 189.664249 96.588944 
L 191.295678 81.235972 
L 192.927108 83.50595 
L 194.558538 83.607456 
L 196.189968 106.323207 
L 197.821398 113.997449 
L 199.452828 61.485881 
L 201.084258 78.305195 
L 202.715688 103.054734 
L 205.978547 89.57487 
L 207.609977 99.520279 
L 209.241407 106.31557 
L 210.872837 96.115788 
L 212.504267 89.788012 
L 214.135697 96.527177 
L 215.767127 110.251264 
L 217.398556 110.0565 
L 219.029986 92.81595 
L 220.661416 93.504738 
L 222.292846 103.245808 
L 223.924276 92.669164 
L 225.555706 83.506736 
L 227.187136 109.966824 
L 228.818566 77.651843 
L 230.449995 109.784042 
L 232.081425 99.895126 
L 233.712855 77.768261 
L 235.344285 99.480012 
L 236.975715 102.992459 
L 238.607145 77.704708 
L 240.238575 96.799046 
L 241.870005 96.35985 
L 243.501434 92.916378 
L 245.132864 77.790677 
L 246.764294 77.851526 
L 248.395724 110.171309 
L 250.027154 96.219203 
L 251.658584 99.560527 
L 253.290014 96.474466 
L 254.921444 89.917971 
L 256.552873 96.168443 
L 258.184303 99.729865 
L 259.815733 102.799698 
L 261.447163 99.589244 
L 263.078593 99.260495 
L 264.710023 96.423156 
L 266.341453 96.300391 
L 267.972883 99.575533 
L 269.604312 86.825415 
L 271.235742 99.629224 
L 272.867172 99.732119 
L 274.498602 102.965029 
L 276.130032 93.273004 
L 277.761462 109.884181 
L 279.392892 80.788178 
L 281.024322 109.931655 
L 282.655751 77.686197 
L 284.287181 103.196194 
L 285.918611 96.479048 
L 287.550041 96.209384 
L 289.181471 99.827189 
L 290.812901 109.933194 
L 292.444331 92.909389 
L 294.075761 99.586156 
L 295.70719 96.622638 
L 297.33862 107.213155 
L 298.97005 121.162269 
L 300.60148 99.466485 
L 302.23291 96.199353 
L 303.86434 109.910004 
L 305.49577 81.016626 
L 307.1272 102.60844 
L 308.75863 77.465017 
L 310.390059 110.37768 
L 312.021489 110.293391 
L 313.652919 96.282583 
L 315.284349 109.981485 
L 316.915779 117.672098 
L 318.547209 102.912081 
L 320.178639 109.925909 
L 321.810069 99.626254 
L 323.441498 110.227297 
L 325.072928 113.746262 
L 326.704358 92.752758 
L 328.335788 114.03794 
L 329.967218 110.46726 
L 331.598648 96.064777 
L 333.230078 103.051432 
L 334.861508 95.795791 
L 336.492937 107.058096 
L 338.124367 83.330665 
L 339.755797 110.268302 
L 341.387227 96.437061 
L 343.018657 109.85795 
L 344.650087 86.523888 
L 346.281517 99.351975 
L 347.912947 96.145493 
L 349.544376 106.550661 
L 351.175806 102.813445 
L 352.807236 89.808921 
L 354.438666 110.608037 
L 356.070096 96.002329 
L 357.701526 110.440335 
L 359.332956 113.598806 
L 360.964386 110.904682 
L 362.595815 110.066203 
L 364.227245 93.31014 
L 365.858675 106.098333 
L 367.490105 95.928981 
L 369.121535 102.8543 
L 370.752965 102.755851 
L 372.384395 113.680437 
L 374.015825 99.884584 
L 375.647254 92.727363 
L 377.278684 83.486399 
L 378.910114 106.725478 
L 380.541544 102.920258 
L 382.172974 103.495587 
L 383.804404 93.063052 
L 385.435834 117.321456 
L 387.067264 95.983581 
L 388.698693 110.946773 
L 390.330123 99.35458 
L 391.961553 106.809429 
L 393.592983 106.896423 
L 395.224413 106.461299 
L 396.855843 86.72927 
L 398.487273 107.200023 
L 398.487273 107.200023 
" clip-path="url(#pbb58a7b2ca)" style="fill: none; stroke: #ff0000; stroke-width: 1.5; stroke-linecap: square"/>
   </g>
   <g id="patch_3">
    <path d="M 57.6 307.584 
L 57.6 41.472 
" style="fill: none; stroke: #000000; stroke-width: 0.8; stroke-linejoin: miter; stroke-linecap: square"/>
   </g>
   <g id="patch_4">
    <path d="M 414.72 307.584 
L 414.72 41.472 
" style="fill: none; stroke: #000000; stroke-width: 0.8; stroke-linejoin: miter; stroke-linecap: square"/>
   </g>
   <g id="patch_5">
    <path d="M 57.6 307.584 
L 414.72 307.584 
" style="fill: none; stroke: #000000; stroke-width: 0.8; stroke-linejoin: miter; stroke-linecap: square"/>
   </g>
   <g id="patch_6">
    <path d="M 57.6 41.472 
L 414.72 41.472 
" style="fill: none; stroke: #000000; stroke-width: 0.8; stroke-linejoin: miter; stroke-linecap: square"/>
   </g>
   <g id="text_13">
    <!-- Średnie i najlepsze przystosowanie w każdej generacji -->
    <g transform="translate(73.26 35.472) scale(0.12 -0.12)">
     <defs>
      <path id="DejaVuSans-15a" d="M 2236 5921 
L 2814 5921 
L 2102 5096 
L 1623 5096 
L 2236 5921 
z
M 3425 4513 
L 3425 3897 
Q 3066 4069 2747 4153 
Q 2428 4238 2131 4238 
Q 1616 4238 1336 4038 
Q 1056 3838 1056 3469 
Q 1056 3159 1242 3001 
Q 1428 2844 1947 2747 
L 2328 2669 
Q 3034 2534 3370 2195 
Q 3706 1856 3706 1288 
Q 3706 609 3251 259 
Q 2797 -91 1919 -91 
Q 1588 -91 1214 -16 
Q 841 59 441 206 
L 441 856 
Q 825 641 1194 531 
Q 1563 422 1919 422 
Q 2459 422 2753 634 
Q 3047 847 3047 1241 
Q 3047 1584 2836 1778 
Q 2625 1972 2144 2069 
L 1759 2144 
Q 1053 2284 737 2584 
Q 422 2884 422 3419 
Q 422 4038 858 4394 
Q 1294 4750 2059 4750 
Q 2388 4750 2728 4690 
Q 3069 4631 3425 4513 
z
" transform="scale(0.015625)"/>
      <path id="DejaVuSans-64" d="M 2906 2969 
L 2906 4863 
L 3481 4863 
L 3481 0 
L 2906 0 
L 2906 525 
Q 2725 213 2448 61 
Q 2172 -91 1784 -91 
Q 1150 -91 751 415 
Q 353 922 353 1747 
Q 353 2572 751 3078 
Q 1150 3584 1784 3584 
Q 2172 3584 2448 3432 
Q 2725 3281 2906 2969 
z
M 947 1747 
Q 947 1113 1208 752 
Q 1469 391 1925 391 
Q 2381 391 2643 752 
Q 2906 1113 2906 1747 
Q 2906 2381 2643 2742 
Q 2381 3103 1925 3103 
Q 1469 3103 1208 2742 
Q 947 2381 947 1747 
z
" transform="scale(0.015625)"/>
      <path id="DejaVuSans-20" transform="scale(0.015625)"/>
      <path id="DejaVuSans-6c" d="M 603 4863 
L 1178 4863 
L 1178 0 
L 603 0 
L 603 4863 
z
" transform="scale(0.015625)"/>
      <path id="DejaVuSans-70" d="M 1159 525 
L 1159 -1331 
L 581 -1331 
L 581 3500 
L 1159 3500 
L 1159 2969 
Q 1341 3281 1617 3432 
Q 1894 3584 2278 3584 
Q 2916 3584 3314 3078 
Q 3713 2572 3713 1747 
Q 3713 922 3314 415 
Q 2916 -91 2278 -91 
Q 1894 -91 1617 61 
Q 1341 213 1159 525 
z
M 3116 1747 
Q 3116 2381 2855 2742 
Q 2594 3103 2138 3103 
Q 1681 3103 1420 2742 
Q 1159 2381 1159 1747 
Q 1159 1113 1420 752 
Q 1681 391 2138 391 
Q 2594 391 2855 752 
Q 3116 1113 3116 1747 
z
" transform="scale(0.015625)"/>
      <path id="DejaVuSans-6b" d="M 581 4863 
L 1159 4863 
L 1159 1991 
L 2875 3500 
L 3609 3500 
L 1753 1863 
L 3688 0 
L 2938 0 
L 1159 1709 
L 1159 0 
L 581 0 
L 581 4863 
z
" transform="scale(0.015625)"/>
      <path id="DejaVuSans-17c" d="M 1378 4863 
L 1953 4863 
L 1953 4134 
L 1378 4134 
L 1378 4863 
z
M 1672 3584 
L 1672 3584 
z
M 353 3500 
L 3084 3500 
L 3084 2975 
L 922 459 
L 3084 459 
L 3084 0 
L 275 0 
L 275 525 
L 2438 3041 
L 353 3041 
L 353 3500 
z
" transform="scale(0.015625)"/>
      <path id="DejaVuSans-67" d="M 2906 1791 
Q 2906 2416 2648 2759 
Q 2391 3103 1925 3103 
Q 1463 3103 1205 2759 
Q 947 2416 947 1791 
Q 947 1169 1205 825 
Q 1463 481 1925 481 
Q 2391 481 2648 825 
Q 2906 1169 2906 1791 
z
M 3481 434 
Q 3481 -459 3084 -895 
Q 2688 -1331 1869 -1331 
Q 1566 -1331 1297 -1286 
Q 1028 -1241 775 -1147 
L 775 -588 
Q 1028 -725 1275 -790 
Q 1522 -856 1778 -856 
Q 2344 -856 2625 -561 
Q 2906 -266 2906 331 
L 2906 616 
Q 2728 306 2450 153 
Q 2172 0 1784 0 
Q 1141 0 747 490 
Q 353 981 353 1791 
Q 353 2603 747 3093 
Q 1141 3584 1784 3584 
Q 2172 3584 2450 3431 
Q 2728 3278 2906 2969 
L 2906 3500 
L 3481 3500 
L 3481 434 
z
" transform="scale(0.015625)"/>
     </defs>
     <use xlink:href="#DejaVuSans-15a"/>
     <use xlink:href="#DejaVuSans-72" transform="translate(63.476562 0)"/>
     <use xlink:href="#DejaVuSans-65" transform="translate(102.339844 0)"/>
     <use xlink:href="#DejaVuSans-64" transform="translate(163.863281 0)"/>
     <use xlink:href="#DejaVuSans-6e" transform="translate(227.339844 0)"/>
     <use xlink:href="#DejaVuSans-69" transform="translate(290.71875 0)"/>
     <use xlink:href="#DejaVuSans-65" transform="translate(318.501953 0)"/>
     <use xlink:href="#DejaVuSans-20" transform="translate(380.025391 0)"/>
     <use xlink:href="#DejaVuSans-69" transform="translate(411.8125 0)"/>
     <use xlink:href="#DejaVuSans-20" transform="translate(439.595703 0)"/>
     <use xlink:href="#DejaVuSans-6e" transform="translate(471.382812 0)"/>
     <use xlink:href="#DejaVuSans-61" transform="translate(534.761719 0)"/>
     <use xlink:href="#DejaVuSans-6a" transform="translate(596.041016 0)"/>
     <use xlink:href="#DejaVuSans-6c" transform="translate(623.824219 0)"/>
     <use xlink:href="#DejaVuSans-65" transform="translate(651.607422 0)"/>
     <use xlink:href="#DejaVuSans-70" transform="translate(713.130859 0)"/>
     <use xlink:href="#DejaVuSans-73" transform="translate(776.607422 0)"/>
     <use xlink:href="#DejaVuSans-7a" transform="translate(828.707031 0)"/>
     <use xlink:href="#DejaVuSans-65" transform="translate(881.197266 0)"/>
     <use xlink:href="#DejaVuSans-20" transform="translate(942.720703 0)"/>
     <use xlink:href="#DejaVuSans-70" transform="translate(974.507812 0)"/>
     <use xlink:href="#DejaVuSans-72" transform="translate(1037.984375 0)"/>
     <use xlink:href="#DejaVuSans-7a" transform="translate(1079.097656 0)"/>
     <use xlink:href="#DejaVuSans-79" transform="translate(1131.587891 0)"/>
     <use xlink:href="#DejaVuSans-73" transform="translate(1190.767578 0)"/>
     <use xlink:href="#DejaVuSans-74" transform="translate(1242.867188 0)"/>
     <use xlink:href="#DejaVuSans-6f" transform="translate(1282.076172 0)"/>
     <use xlink:href="#DejaVuSans-73" transform="translate(1343.257812 0)"/>
     <use xlink:href="#DejaVuSans-6f" transform="translate(1395.357422 0)"/>
     <use xlink:href="#DejaVuSans-77" transform="translate(1456.539062 0)"/>
     <use xlink:href="#DejaVuSans-61" transform="translate(1538.326172 0)"/>
     <use xlink:href="#DejaVuSans-6e" transform="translate(1599.605469 0)"/>
     <use xlink:href="#DejaVuSans-69" transform="translate(1662.984375 0)"/>
     <use xlink:href="#DejaVuSans-65" transform="translate(1690.767578 0)"/>
     <use xlink:href="#DejaVuSans-20" transform="translate(1752.291016 0)"/>
     <use xlink:href="#DejaVuSans-77" transform="translate(1784.078125 0)"/>
     <use xlink:href="#DejaVuSans-20" transform="translate(1865.865234 0)"/>
     <use xlink:href="#DejaVuSans-6b" transform="translate(1897.652344 0)"/>
     <use xlink:href="#DejaVuSans-61" transform="translate(1953.8125 0)"/>
     <use xlink:href="#DejaVuSans-17c" transform="translate(2015.091797 0)"/>
     <use xlink:href="#DejaVuSans-64" transform="translate(2067.582031 0)"/>
     <use xlink:href="#DejaVuSans-65" transform="translate(2131.058594 0)"/>
     <use xlink:href="#DejaVuSans-6a" transform="translate(2192.582031 0)"/>
     <use xlink:href="#DejaVuSans-20" transform="translate(2220.365234 0)"/>
     <use xlink:href="#DejaVuSans-67" transform="translate(2252.152344 0)"/>
     <use xlink:href="#DejaVuSans-65" transform="translate(2315.628906 0)"/>
     <use xlink:href="#DejaVuSans-6e" transform="translate(2377.152344 0)"/>
     <use xlink:href="#DejaVuSans-65" transform="translate(2440.53125 0)"/>
     <use xlink:href="#DejaVuSans-72" transform="translate(2502.054688 0)"/>
     <use xlink:href="#DejaVuSans-61" transform="translate(2543.167969 0)"/>
     <use xlink:href="#DejaVuSans-63" transform="translate(2604.447266 0)"/>
     <use xlink:href="#DejaVuSans-6a" transform="translate(2659.427734 0)"/>
     <use xlink:href="#DejaVuSans-69" transform="translate(2687.210938 0)"/>
    </g>
   </g>
   <g id="legend_1">
    <g id="patch_7">
     <path d="M 279.790313 302.584 
L 407.72 302.584 
Q 409.72 302.584 409.72 300.584 
L 409.72 257.549625 
Q 409.72 255.549625 407.72 255.549625 
L 279.790313 255.549625 
Q 277.790313 255.549625 277.790313 257.549625 
L 277.790313 300.584 
Q 277.790313 302.584 279.790313 302.584 
z
" style="fill: #ffffff; opacity: 0.8; stroke: #cccccc; stroke-linejoin: miter"/>
    </g>
    <g id="line2d_24">
     <path d="M 281.790313 263.648062 
L 291.790313 263.648062 
L 301.790313 263.648062 
" style="fill: none; stroke: #0000ff; stroke-width: 1.5; stroke-linecap: square"/>
    </g>
    <g id="text_14">
     <!-- Średnia -->
     <g transform="translate(309.790313 267.148062) scale(0.1 -0.1)">
      <use xlink:href="#DejaVuSans-15a"/>
      <use xlink:href="#DejaVuSans-72" transform="translate(63.476562 0)"/>
      <use xlink:href="#DejaVuSans-65" transform="translate(102.339844 0)"/>
      <use xlink:href="#DejaVuSans-64" transform="translate(163.863281 0)"/>
      <use xlink:href="#DejaVuSans-6e" transform="translate(227.339844 0)"/>
      <use xlink:href="#DejaVuSans-69" transform="translate(290.71875 0)"/>
      <use xlink:href="#DejaVuSans-61" transform="translate(318.501953 0)"/>
     </g>
    </g>
    <g id="line2d_25">
     <path d="M 281.790313 278.326188 
L 291.790313 278.326188 
L 301.790313 278.326188 
" style="fill: none; stroke-dasharray: 9.6,2.4,1.5,2.4; stroke-dashoffset: 0; stroke: #008000; stroke-width: 1.5"/>
    </g>
    <g id="text_15">
     <!-- ±1 Odchylenie std. -->
     <g transform="translate(309.790313 281.826188) scale(0.1 -0.1)">
      <defs>
       <path id="DejaVuSans-b1" d="M 2944 4013 
L 2944 2803 
L 4684 2803 
L 4684 2272 
L 2944 2272 
L 2944 1063 
L 2419 1063 
L 2419 2272 
L 678 2272 
L 678 2803 
L 2419 2803 
L 2419 4013 
L 2944 4013 
z
M 678 531 
L 4684 531 
L 4684 0 
L 678 0 
L 678 531 
z
" transform="scale(0.015625)"/>
       <path id="DejaVuSans-4f" d="M 2522 4238 
Q 1834 4238 1429 3725 
Q 1025 3213 1025 2328 
Q 1025 1447 1429 934 
Q 1834 422 2522 422 
Q 3209 422 3611 934 
Q 4013 1447 4013 2328 
Q 4013 3213 3611 3725 
Q 3209 4238 2522 4238 
z
M 2522 4750 
Q 3503 4750 4090 4092 
Q 4678 3434 4678 2328 
Q 4678 1225 4090 567 
Q 3503 -91 2522 -91 
Q 1538 -91 948 565 
Q 359 1222 359 2328 
Q 359 3434 948 4092 
Q 1538 4750 2522 4750 
z
" transform="scale(0.015625)"/>
       <path id="DejaVuSans-68" d="M 3513 2113 
L 3513 0 
L 2938 0 
L 2938 2094 
Q 2938 2591 2744 2837 
Q 2550 3084 2163 3084 
Q 1697 3084 1428 2787 
Q 1159 2491 1159 1978 
L 1159 0 
L 581 0 
L 581 4863 
L 1159 4863 
L 1159 2956 
Q 1366 3272 1645 3428 
Q 1925 3584 2291 3584 
Q 2894 3584 3203 3211 
Q 3513 2838 3513 2113 
z
" transform="scale(0.015625)"/>
       <path id="DejaVuSans-2e" d="M 684 794 
L 1344 794 
L 1344 0 
L 684 0 
L 684 794 
z
" transform="scale(0.015625)"/>
      </defs>
      <use xlink:href="#DejaVuSans-b1"/>
      <use xlink:href="#DejaVuSans-31" transform="translate(83.789062 0)"/>
      <use xlink:href="#DejaVuSans-20" transform="translate(147.412109 0)"/>
      <use xlink:href="#DejaVuSans-4f" transform="translate(179.199219 0)"/>
      <use xlink:href="#DejaVuSans-64" transform="translate(257.910156 0)"/>
      <use xlink:href="#DejaVuSans-63" transform="translate(321.386719 0)"/>
      <use xlink:href="#DejaVuSans-68" transform="translate(376.367188 0)"/>
      <use xlink:href="#DejaVuSans-79" transform="translate(439.746094 0)"/>
      <use xlink:href="#DejaVuSans-6c" transform="translate(498.925781 0)"/>
      <use xlink:href="#DejaVuSans-65" transform="translate(526.708984 0)"/>
      <use xlink:href="#DejaVuSans-6e" transform="translate(588.232422 0)"/>
      <use xlink:href="#DejaVuSans-69" transform="translate(651.611328 0)"/>
      <use xlink:href="#DejaVuSans-65" transform="translate(679.394531 0)"/>
      <use xlink:href="#DejaVuSans-20" transform="translate(740.917969 0)"/>
      <use xlink:href="#DejaVuSans-73" transform="translate(772.705078 0)"/>
      <use xlink:href="#DejaVuSans-74" transform="translate(824.804688 0)"/>
      <use xlink:href="#DejaVuSans-64" transform="translate(864.013672 0)"/>
      <use xlink:href="#DejaVuSans-2e" transform="translate(927.490234 0)"/>
     </g>
    </g>
    <g id="line2d_26">
     <path d="M 281.790313 293.004312 
L 291.790313 293.004312 
L 301.790313 293.004312 
" style="fill: none; stroke: #ff0000; stroke-width: 1.5; stroke-linecap: square"/>
    </g>
    <g id="text_16">
     <!-- Najlepsze -->
     <g transform="translate(309.790313 296.504312) scale(0.1 -0.1)">
      <defs>
       <path id="DejaVuSans-4e" d="M 628 4666 
L 1478 4666 
L 3547 763 
L 3547 4666 
L 4159 4666 
L 4159 0 
L 3309 0 
L 1241 3903 
L 1241 0 
L 628 0 
L 628 4666 
z
" transform="scale(0.015625)"/>
      </defs>
      <use xlink:href="#DejaVuSans-4e"/>
      <use xlink:href="#DejaVuSans-61" transform="translate(74.804688 0)"/>
      <use xlink:href="#DejaVuSans-6a" transform="translate(136.083984 0)"/>
      <use xlink:href="#DejaVuSans-6c" transform="translate(163.867188 0)"/>
      <use xlink:href="#DejaVuSans-65" transform="translate(191.650391 0)"/>
      <use xlink:href="#DejaVuSans-70" transform="translate(253.173828 0)"/>
      <use xlink:href="#DejaVuSans-73" transform="translate(316.650391 0)"/>
      <use xlink:href="#DejaVuSans-7a" transform="translate(368.75 0)"/>
      <use xlink:href="#DejaVuSans-65" transform="translate(421.240234 0)"/>
     </g>
    </g>
   </g>
  </g>
 </g>
 <defs>
  <clipPath id="pbb58a7b2ca">
   <rect x="57.6" y="41.472" width="357.12" height="266.112"/>
  </clipPath>
 </defs>
</svg>
