<?xml version="1.0" encoding="utf-8" standalone="no"?>
<!DOCTYPE svg PUBLIC "-//W3C//DTD SVG 1.1//EN"
  "http://www.w3.org/Graphics/SVG/1.1/DTD/svg11.dtd">
<svg xmlns:xlink="http://www.w3.org/1999/xlink" width="460.8pt" height="345.6pt" viewBox="0 0 460.8 345.6" xmlns="http://www.w3.org/2000/svg" version="1.1">
 <metadata>
  <rdf:RDF xmlns:dc="http://purl.org/dc/elements/1.1/" xmlns:cc="http://creativecommons.org/ns#" xmlns:rdf="http://www.w3.org/1999/02/22-rdf-syntax-ns#">
   <cc:Work>
    <dc:type rdf:resource="http://purl.org/dc/dcmitype/StillImage"/>
    <dc:date>2026-04-26T23:22:57.875381</dc:date>
    <dc:format>image/svg+xml</dc:format>
    <dc:creator>
     <cc:Agent>
      <dc:title>Matplotlib v3.10.8, https://matplotlib.org/</dc:title>
     </cc:Agent>
    </dc:creator>
   </cc:Work>
  </rdf:RDF>
 </metadata>
 <defs>
  <style type="text/css">*{stroke-linejoin: round; stroke-linecap: butt}</style>
 </defs>
 <g id="figure_1">
  <g id="patch_1">
   <path d="M 0 345.6 
L 460.8 345.6 
L 460.8 0 
L 0 0 
z
" style="fill: #ffffff"/>
  </g>
  <g id="axes_1">
   <g id="patch_2">
    <path d="M 57.6 307.584 
L 414.72 307.584 
L 414.72 41.472 
L 57.6 41.472 
z
" style="fill: #ffffff"/>
   </g>
   <g id="matplotlib.axis_1">
    <g id="xtick_1">
     <g id="line2d_1">
      <path d="M 72.201297 307.584 
L 72.201297 41.472 
" clip-path="url(#pdb6a3574b0)" style="fill: none; stroke: #b0b0b0; stroke-width: 0.8; stroke-linecap: square"/>
     </g>
     <g id="line2d_2">
      <defs>
       <path id="m621092bce8" d="M 0 0 
L 0 3.5 
" style="stroke: #000000; stroke-width: 0.8"/>
      </defs>
      <g>
       <use xlink:href="#m621092bce8" x="72.201297" y="307.584" style="stroke: #000000; stroke-width: 0.8"/>
      </g>
     </g>
     <g id="text_1">
      <!-- 0 -->
      <g transform="translate(69.020047 322.182437) scale(0.1 -0.1)">
       <defs>
        <path id="DejaVuSans-30" d="M 2034 4250 
Q 1547 4250 1301 3770 
Q 1056 3291 1056 2328 
Q 1056 1369 1301 889 
Q 1547 409 2034 409 
Q 2525 409 2770 889 
Q 3016 1369 3016 2328 
Q 3016 3291 2770 3770 
Q 2525 4250 2034 4250 
z
M 2034 4750 
Q 2819 4750 3233 4129 
Q 3647 3509 3647 2328 
Q 3647 1150 3233 529 
Q 2819 -91 2034 -91 
Q 1250 -91 836 529 
Q 422 1150 422 2328 
Q 422 3509 836 4129 
Q 1250 4750 2034 4750 
z
" transform="scale(0.015625)"/>
       </defs>
       <use xlink:href="#DejaVuSans-30"/>
      </g>
     </g>
    </g>
    <g id="xtick_2">
     <g id="line2d_3">
      <path d="M 112.987044 307.584 
L 112.987044 41.472 
" clip-path="url(#pdb6a3574b0)" style="fill: none; stroke: #b0b0b0; stroke-width: 0.8; stroke-linecap: square"/>
     </g>
     <g id="line2d_4">
      <g>
       <use xlink:href="#m621092bce8" x="112.987044" y="307.584" style="stroke: #000000; stroke-width: 0.8"/>
      </g>
     </g>
     <g id="text_2">
      <!-- 25 -->
      <g transform="translate(106.624544 322.182437) scale(0.1 -0.1)">
       <defs>
        <path id="DejaVuSans-32" d="M 1228 531 
L 3431 531 
L 3431 0 
L 469 0 
L 469 531 
Q 828 903 1448 1529 
Q 2069 2156 2228 2338 
Q 2531 2678 2651 2914 
Q 2772 3150 2772 3378 
Q 2772 3750 2511 3984 
Q 2250 4219 1831 4219 
Q 1534 4219 1204 4116 
Q 875 4013 500 3803 
L 500 4441 
Q 881 4594 1212 4672 
Q 1544 4750 1819 4750 
Q 2544 4750 2975 4387 
Q 3406 4025 3406 3419 
Q 3406 3131 3298 2873 
Q 3191 2616 2906 2266 
Q 2828 2175 2409 1742 
Q 1991 1309 1228 531 
z
" transform="scale(0.015625)"/>
        <path id="DejaVuSans-35" d="M 691 4666 
L 3169 4666 
L 3169 4134 
L 1269 4134 
L 1269 2991 
Q 1406 3038 1543 3061 
Q 1681 3084 1819 3084 
Q 2600 3084 3056 2656 
Q 3513 2228 3513 1497 
Q 3513 744 3044 326 
Q 2575 -91 1722 -91 
Q 1428 -91 1123 -41 
Q 819 9 494 109 
L 494 744 
Q 775 591 1075 516 
Q 1375 441 1709 441 
Q 2250 441 2565 725 
Q 2881 1009 2881 1497 
Q 2881 1984 2565 2268 
Q 2250 2553 1709 2553 
Q 1456 2553 1204 2497 
Q 953 2441 691 2322 
L 691 4666 
z
" transform="scale(0.015625)"/>
       </defs>
       <use xlink:href="#DejaVuSans-32"/>
       <use xlink:href="#DejaVuSans-35" transform="translate(63.623047 0)"/>
      </g>
     </g>
    </g>
    <g id="xtick_3">
     <g id="line2d_5">
      <path d="M 153.772791 307.584 
L 153.772791 41.472 
" clip-path="url(#pdb6a3574b0)" style="fill: none; stroke: #b0b0b0; stroke-width: 0.8; stroke-linecap: square"/>
     </g>
     <g id="line2d_6">
      <g>
       <use xlink:href="#m621092bce8" x="153.772791" y="307.584" style="stroke: #000000; stroke-width: 0.8"/>
      </g>
     </g>
     <g id="text_3">
      <!-- 50 -->
      <g transform="translate(147.410291 322.182437) scale(0.1 -0.1)">
       <use xlink:href="#DejaVuSans-35"/>
       <use xlink:href="#DejaVuSans-30" transform="translate(63.623047 0)"/>
      </g>
     </g>
    </g>
    <g id="xtick_4">
     <g id="line2d_7">
      <path d="M 194.558538 307.584 
L 194.558538 41.472 
" clip-path="url(#pdb6a3574b0)" style="fill: none; stroke: #b0b0b0; stroke-width: 0.8; stroke-linecap: square"/>
     </g>
     <g id="line2d_8">
      <g>
       <use xlink:href="#m621092bce8" x="194.558538" y="307.584" style="stroke: #000000; stroke-width: 0.8"/>
      </g>
     </g>
     <g id="text_4">
      <!-- 75 -->
      <g transform="translate(188.196038 322.182437) scale(0.1 -0.1)">
       <defs>
        <path id="DejaVuSans-37" d="M 525 4666 
L 3525 4666 
L 3525 4397 
L 1831 0 
L 1172 0 
L 2766 4134 
L 525 4134 
L 525 4666 
z
" transform="scale(0.015625)"/>
       </defs>
       <use xlink:href="#DejaVuSans-37"/>
       <use xlink:href="#DejaVuSans-35" transform="translate(63.623047 0)"/>
      </g>
     </g>
    </g>
    <g id="xtick_5">
     <g id="line2d_9">
      <path d="M 235.344285 307.584 
L 235.344285 41.472 
" clip-path="url(#pdb6a3574b0)" style="fill: none; stroke: #b0b0b0; stroke-width: 0.8; stroke-linecap: square"/>
     </g>
     <g id="line2d_10">
      <g>
       <use xlink:href="#m621092bce8" x="235.344285" y="307.584" style="stroke: #000000; stroke-width: 0.8"/>
      </g>
     </g>
     <g id="text_5">
      <!-- 100 -->
      <g transform="translate(225.800535 322.182437) scale(0.1 -0.1)">
       <defs>
        <path id="DejaVuSans-31" d="M 794 531 
L 1825 531 
L 1825 4091 
L 703 3866 
L 703 4441 
L 1819 4666 
L 2450 4666 
L 2450 531 
L 3481 531 
L 3481 0 
L 794 0 
L 794 531 
z
" transform="scale(0.015625)"/>
       </defs>
       <use xlink:href="#DejaVuSans-31"/>
       <use xlink:href="#DejaVuSans-30" transform="translate(63.623047 0)"/>
       <use xlink:href="#DejaVuSans-30" transform="translate(127.246094 0)"/>
      </g>
     </g>
    </g>
    <g id="xtick_6">
     <g id="line2d_11">
      <path d="M 276.130032 307.584 
L 276.130032 41.472 
" clip-path="url(#pdb6a3574b0)" style="fill: none; stroke: #b0b0b0; stroke-width: 0.8; stroke-linecap: square"/>
     </g>
     <g id="line2d_12">
      <g>
       <use xlink:href="#m621092bce8" x="276.130032" y="307.584" style="stroke: #000000; stroke-width: 0.8"/>
      </g>
     </g>
     <g id="text_6">
      <!-- 125 -->
      <g transform="translate(266.586282 322.182437) scale(0.1 -0.1)">
       <use xlink:href="#DejaVuSans-31"/>
       <use xlink:href="#DejaVuSans-32" transform="translate(63.623047 0)"/>
       <use xlink:href="#DejaVuSans-35" transform="translate(127.246094 0)"/>
      </g>
     </g>
    </g>
    <g id="xtick_7">
     <g id="line2d_13">
      <path d="M 316.915779 307.584 
L 316.915779 41.472 
" clip-path="url(#pdb6a3574b0)" style="fill: none; stroke: #b0b0b0; stroke-width: 0.8; stroke-linecap: square"/>
     </g>
     <g id="line2d_14">
      <g>
       <use xlink:href="#m621092bce8" x="316.915779" y="307.584" style="stroke: #000000; stroke-width: 0.8"/>
      </g>
     </g>
     <g id="text_7">
      <!-- 150 -->
      <g transform="translate(307.372029 322.182437) scale(0.1 -0.1)">
       <use xlink:href="#DejaVuSans-31"/>
       <use xlink:href="#DejaVuSans-35" transform="translate(63.623047 0)"/>
       <use xlink:href="#DejaVuSans-30" transform="translate(127.246094 0)"/>
      </g>
     </g>
    </g>
    <g id="xtick_8">
     <g id="line2d_15">
      <path d="M 357.701526 307.584 
L 357.701526 41.472 
" clip-path="url(#pdb6a3574b0)" style="fill: none; stroke: #b0b0b0; stroke-width: 0.8; stroke-linecap: square"/>
     </g>
     <g id="line2d_16">
      <g>
       <use xlink:href="#m621092bce8" x="357.701526" y="307.584" style="stroke: #000000; stroke-width: 0.8"/>
      </g>
     </g>
     <g id="text_8">
      <!-- 175 -->
      <g transform="translate(348.157776 322.182437) scale(0.1 -0.1)">
       <use xlink:href="#DejaVuSans-31"/>
       <use xlink:href="#DejaVuSans-37" transform="translate(63.623047 0)"/>
       <use xlink:href="#DejaVuSans-35" transform="translate(127.246094 0)"/>
      </g>
     </g>
    </g>
    <g id="xtick_9">
     <g id="line2d_17">
      <path d="M 398.487273 307.584 
L 398.487273 41.472 
" clip-path="url(#pdb6a3574b0)" style="fill: none; stroke: #b0b0b0; stroke-width: 0.8; stroke-linecap: square"/>
     </g>
     <g id="line2d_18">
      <g>
       <use xlink:href="#m621092bce8" x="398.487273" y="307.584" style="stroke: #000000; stroke-width: 0.8"/>
      </g>
     </g>
     <g id="text_9">
      <!-- 200 -->
      <g transform="translate(388.943523 322.182437) scale(0.1 -0.1)">
       <use xlink:href="#DejaVuSans-32"/>
       <use xlink:href="#DejaVuSans-30" transform="translate(63.623047 0)"/>
       <use xlink:href="#DejaVuSans-30" transform="translate(127.246094 0)"/>
      </g>
     </g>
    </g>
    <g id="text_10">
     <!-- Generacje -->
     <g transform="translate(210.629531 335.860562) scale(0.1 -0.1)">
      <defs>
       <path id="DejaVuSans-47" d="M 3809 666 
L 3809 1919 
L 2778 1919 
L 2778 2438 
L 4434 2438 
L 4434 434 
Q 4069 175 3628 42 
Q 3188 -91 2688 -91 
Q 1594 -91 976 548 
Q 359 1188 359 2328 
Q 359 3472 976 4111 
Q 1594 4750 2688 4750 
Q 3144 4750 3555 4637 
Q 3966 4525 4313 4306 
L 4313 3634 
Q 3963 3931 3569 4081 
Q 3175 4231 2741 4231 
Q 1884 4231 1454 3753 
Q 1025 3275 1025 2328 
Q 1025 1384 1454 906 
Q 1884 428 2741 428 
Q 3075 428 3337 486 
Q 3600 544 3809 666 
z
" transform="scale(0.015625)"/>
       <path id="DejaVuSans-65" d="M 3597 1894 
L 3597 1613 
L 953 1613 
Q 991 1019 1311 708 
Q 1631 397 2203 397 
Q 2534 397 2845 478 
Q 3156 559 3463 722 
L 3463 178 
Q 3153 47 2828 -22 
Q 2503 -91 2169 -91 
Q 1331 -91 842 396 
Q 353 884 353 1716 
Q 353 2575 817 3079 
Q 1281 3584 2069 3584 
Q 2775 3584 3186 3129 
Q 3597 2675 3597 1894 
z
M 3022 2063 
Q 3016 2534 2758 2815 
Q 2500 3097 2075 3097 
Q 1594 3097 1305 2825 
Q 1016 2553 972 2059 
L 3022 2063 
z
" transform="scale(0.015625)"/>
       <path id="DejaVuSans-6e" d="M 3513 2113 
L 3513 0 
L 2938 0 
L 2938 2094 
Q 2938 2591 2744 2837 
Q 2550 3084 2163 3084 
Q 1697 3084 1428 2787 
Q 1159 2491 1159 1978 
L 1159 0 
L 581 0 
L 581 3500 
L 1159 3500 
L 1159 2956 
Q 1366 3272 1645 3428 
Q 1925 3584 2291 3584 
Q 2894 3584 3203 3211 
Q 3513 2838 3513 2113 
z
" transform="scale(0.015625)"/>
       <path id="DejaVuSans-72" d="M 2631 2963 
Q 2534 3019 2420 3045 
Q 2306 3072 2169 3072 
Q 1681 3072 1420 2755 
Q 1159 2438 1159 1844 
L 1159 0 
L 581 0 
L 581 3500 
L 1159 3500 
L 1159 2956 
Q 1341 3275 1631 3429 
Q 1922 3584 2338 3584 
Q 2397 3584 2469 3576 
Q 2541 3569 2628 3553 
L 2631 2963 
z
" transform="scale(0.015625)"/>
       <path id="DejaVuSans-61" d="M 2194 1759 
Q 1497 1759 1228 1600 
Q 959 1441 959 1056 
Q 959 750 1161 570 
Q 1363 391 1709 391 
Q 2188 391 2477 730 
Q 2766 1069 2766 1631 
L 2766 1759 
L 2194 1759 
z
M 3341 1997 
L 3341 0 
L 2766 0 
L 2766 531 
Q 2569 213 2275 61 
Q 1981 -91 1556 -91 
Q 1019 -91 701 211 
Q 384 513 384 1019 
Q 384 1609 779 1909 
Q 1175 2209 1959 2209 
L 2766 2209 
L 2766 2266 
Q 2766 2663 2505 2880 
Q 2244 3097 1772 3097 
Q 1472 3097 1187 3025 
Q 903 2953 641 2809 
L 641 3341 
Q 956 3463 1253 3523 
Q 1550 3584 1831 3584 
Q 2591 3584 2966 3190 
Q 3341 2797 3341 1997 
z
" transform="scale(0.015625)"/>
       <path id="DejaVuSans-63" d="M 3122 3366 
L 3122 2828 
Q 2878 2963 2633 3030 
Q 2388 3097 2138 3097 
Q 1578 3097 1268 2742 
Q 959 2388 959 1747 
Q 959 1106 1268 751 
Q 1578 397 2138 397 
Q 2388 397 2633 464 
Q 2878 531 3122 666 
L 3122 134 
Q 2881 22 2623 -34 
Q 2366 -91 2075 -91 
Q 1284 -91 818 406 
Q 353 903 353 1747 
Q 353 2603 823 3093 
Q 1294 3584 2113 3584 
Q 2378 3584 2631 3529 
Q 2884 3475 3122 3366 
z
" transform="scale(0.015625)"/>
       <path id="DejaVuSans-6a" d="M 603 3500 
L 1178 3500 
L 1178 -63 
Q 1178 -731 923 -1031 
Q 669 -1331 103 -1331 
L -116 -1331 
L -116 -844 
L 38 -844 
Q 366 -844 484 -692 
Q 603 -541 603 -63 
L 603 3500 
z
M 603 4863 
L 1178 4863 
L 1178 4134 
L 603 4134 
L 603 4863 
z
" transform="scale(0.015625)"/>
      </defs>
      <use xlink:href="#DejaVuSans-47"/>
      <use xlink:href="#DejaVuSans-65" transform="translate(77.490234 0)"/>
      <use xlink:href="#DejaVuSans-6e" transform="translate(139.013672 0)"/>
      <use xlink:href="#DejaVuSans-65" transform="translate(202.392578 0)"/>
      <use xlink:href="#DejaVuSans-72" transform="translate(263.916016 0)"/>
      <use xlink:href="#DejaVuSans-61" transform="translate(305.029297 0)"/>
      <use xlink:href="#DejaVuSans-63" transform="translate(366.308594 0)"/>
      <use xlink:href="#DejaVuSans-6a" transform="translate(421.289062 0)"/>
      <use xlink:href="#DejaVuSans-65" transform="translate(449.072266 0)"/>
     </g>
    </g>
   </g>
   <g id="matplotlib.axis_2">
    <g id="ytick_1">
     <g id="line2d_19">
      <path d="M 57.6 138.574962 
L 414.72 138.574962 
" clip-path="url(#pdb6a3574b0)" style="fill: none; stroke: #b0b0b0; stroke-width: 0.8; stroke-linecap: square"/>
     </g>
     <g id="line2d_20">
      <defs>
       <path id="mb5a807f32b" d="M 0 0 
L -3.5 0 
" style="stroke: #000000; stroke-width: 0.8"/>
      </defs>
      <g>
       <use xlink:href="#mb5a807f32b" x="57.6" y="138.574962" style="stroke: #000000; stroke-width: 0.8"/>
      </g>
     </g>
     <g id="text_11">
      <!-- $\mathdefault{10^{2}}$ -->
      <g transform="translate(33 142.374181) scale(0.1 -0.1)">
       <use xlink:href="#DejaVuSans-31" transform="translate(0 0.765625)"/>
       <use xlink:href="#DejaVuSans-30" transform="translate(63.623047 0.765625)"/>
       <use xlink:href="#DejaVuSans-32" transform="translate(128.203125 39.046875) scale(0.7)"/>
      </g>
     </g>
    </g>
    <g id="text_12">
     <!-- Przystosowanie -->
     <g transform="translate(26.920312 213.170187) rotate(-90) scale(0.1 -0.1)">
      <defs>
       <path id="DejaVuSans-50" d="M 1259 4147 
L 1259 2394 
L 2053 2394 
Q 2494 2394 2734 2622 
Q 2975 2850 2975 3272 
Q 2975 3691 2734 3919 
Q 2494 4147 2053 4147 
L 1259 4147 
z
M 628 4666 
L 2053 4666 
Q 2838 4666 3239 4311 
Q 3641 3956 3641 3272 
Q 3641 2581 3239 2228 
Q 2838 1875 2053 1875 
L 1259 1875 
L 1259 0 
L 628 0 
L 628 4666 
z
" transform="scale(0.015625)"/>
       <path id="DejaVuSans-7a" d="M 353 3500 
L 3084 3500 
L 3084 2975 
L 922 459 
L 3084 459 
L 3084 0 
L 275 0 
L 275 525 
L 2438 3041 
L 353 3041 
L 353 3500 
z
" transform="scale(0.015625)"/>
       <path id="DejaVuSans-79" d="M 2059 -325 
Q 1816 -950 1584 -1140 
Q 1353 -1331 966 -1331 
L 506 -1331 
L 506 -850 
L 844 -850 
Q 1081 -850 1212 -737 
Q 1344 -625 1503 -206 
L 1606 56 
L 191 3500 
L 800 3500 
L 1894 763 
L 2988 3500 
L 3597 3500 
L 2059 -325 
z
" transform="scale(0.015625)"/>
       <path id="DejaVuSans-73" d="M 2834 3397 
L 2834 2853 
Q 2591 2978 2328 3040 
Q 2066 3103 1784 3103 
Q 1356 3103 1142 2972 
Q 928 2841 928 2578 
Q 928 2378 1081 2264 
Q 1234 2150 1697 2047 
L 1894 2003 
Q 2506 1872 2764 1633 
Q 3022 1394 3022 966 
Q 3022 478 2636 193 
Q 2250 -91 1575 -91 
Q 1294 -91 989 -36 
Q 684 19 347 128 
L 347 722 
Q 666 556 975 473 
Q 1284 391 1588 391 
Q 1994 391 2212 530 
Q 2431 669 2431 922 
Q 2431 1156 2273 1281 
Q 2116 1406 1581 1522 
L 1381 1569 
Q 847 1681 609 1914 
Q 372 2147 372 2553 
Q 372 3047 722 3315 
Q 1072 3584 1716 3584 
Q 2034 3584 2315 3537 
Q 2597 3491 2834 3397 
z
" transform="scale(0.015625)"/>
       <path id="DejaVuSans-74" d="M 1172 4494 
L 1172 3500 
L 2356 3500 
L 2356 3053 
L 1172 3053 
L 1172 1153 
Q 1172 725 1289 603 
Q 1406 481 1766 481 
L 2356 481 
L 2356 0 
L 1766 0 
Q 1100 0 847 248 
Q 594 497 594 1153 
L 594 3053 
L 172 3053 
L 172 3500 
L 594 3500 
L 594 4494 
L 1172 4494 
z
" transform="scale(0.015625)"/>
       <path id="DejaVuSans-6f" d="M 1959 3097 
Q 1497 3097 1228 2736 
Q 959 2375 959 1747 
Q 959 1119 1226 758 
Q 1494 397 1959 397 
Q 2419 397 2687 759 
Q 2956 1122 2956 1747 
Q 2956 2369 2687 2733 
Q 2419 3097 1959 3097 
z
M 1959 3584 
Q 2709 3584 3137 3096 
Q 3566 2609 3566 1747 
Q 3566 888 3137 398 
Q 2709 -91 1959 -91 
Q 1206 -91 779 398 
Q 353 888 353 1747 
Q 353 2609 779 3096 
Q 1206 3584 1959 3584 
z
" transform="scale(0.015625)"/>
       <path id="DejaVuSans-77" d="M 269 3500 
L 844 3500 
L 1563 769 
L 2278 3500 
L 2956 3500 
L 3675 769 
L 4391 3500 
L 4966 3500 
L 4050 0 
L 3372 0 
L 2619 2869 
L 1863 0 
L 1184 0 
L 269 3500 
z
" transform="scale(0.015625)"/>
       <path id="DejaVuSans-69" d="M 603 3500 
L 1178 3500 
L 1178 0 
L 603 0 
L 603 3500 
z
M 603 4863 
L 1178 4863 
L 1178 4134 
L 603 4134 
L 603 4863 
z
" transform="scale(0.015625)"/>
      </defs>
      <use xlink:href="#DejaVuSans-50"/>
      <use xlink:href="#DejaVuSans-72" transform="translate(58.552734 0)"/>
      <use xlink:href="#DejaVuSans-7a" transform="translate(99.666016 0)"/>
      <use xlink:href="#DejaVuSans-79" transform="translate(152.15625 0)"/>
      <use xlink:href="#DejaVuSans-73" transform="translate(211.335938 0)"/>
      <use xlink:href="#DejaVuSans-74" transform="translate(263.435547 0)"/>
      <use xlink:href="#DejaVuSans-6f" transform="translate(302.644531 0)"/>
      <use xlink:href="#DejaVuSans-73" transform="translate(363.826172 0)"/>
      <use xlink:href="#DejaVuSans-6f" transform="translate(415.925781 0)"/>
      <use xlink:href="#DejaVuSans-77" transform="translate(477.107422 0)"/>
      <use xlink:href="#DejaVuSans-61" transform="translate(558.894531 0)"/>
      <use xlink:href="#DejaVuSans-6e" transform="translate(620.173828 0)"/>
      <use xlink:href="#DejaVuSans-69" transform="translate(683.552734 0)"/>
      <use xlink:href="#DejaVuSans-65" transform="translate(711.335938 0)"/>
     </g>
    </g>
   </g>
   <g id="line2d_21">
    <path d="M 73.832727 295.488 
L 75.464157 245.048897 
L 77.095587 206.768738 
L 78.727017 204.807785 
L 80.358447 203.191365 
L 81.989877 190.69203 
L 83.621307 180.723847 
L 85.252736 179.021594 
L 86.884166 181.379909 
L 88.515596 177.434909 
L 90.147026 174.865236 
L 91.778456 173.761404 
L 93.409886 173.111823 
L 95.041316 171.155723 
L 96.672746 173.434605 
L 98.304175 167.844729 
L 99.935605 170.015267 
L 101.567035 166.398869 
L 103.198465 165.352416 
L 104.829895 164.441113 
L 106.461325 167.361316 
L 108.092755 167.89117 
L 109.724185 167.514382 
L 111.355614 165.695514 
L 112.987044 163.244572 
L 116.249904 167.29561 
L 117.881334 167.711104 
L 119.512764 162.881521 
L 122.775624 163.874113 
L 124.407053 166.037435 
L 126.038483 164.626397 
L 127.669913 164.085562 
L 129.301343 162.328575 
L 130.932773 162.973875 
L 132.564203 162.472891 
L 134.195633 160.732508 
L 135.827063 159.334508 
L 137.458492 162.7908 
L 139.089922 163.358078 
L 140.721352 159.954926 
L 142.352782 163.800299 
L 143.984212 161.87465 
L 145.615642 163.224483 
L 147.247072 159.819526 
L 148.878502 161.615952 
L 150.509931 162.24693 
L 152.141361 160.761643 
L 153.772791 161.721012 
L 155.404221 161.510761 
L 157.035651 159.221545 
L 158.667081 159.720716 
L 160.298511 158.465055 
L 161.929941 157.680179 
L 163.56137 160.648347 
L 165.1928 159.688696 
L 166.82423 157.450379 
L 168.45566 160.056508 
L 170.08709 157.636419 
L 171.71852 160.887335 
L 173.34995 160.358479 
L 174.98138 161.107324 
L 176.61281 158.871411 
L 178.244239 162.143299 
L 179.875669 157.259515 
L 181.507099 158.498027 
L 183.138529 160.768069 
L 184.769959 157.002087 
L 186.401389 157.655341 
L 188.032819 162.581642 
L 189.664249 161.602864 
L 191.295678 159.918662 
L 192.927108 160.356194 
L 194.558538 158.284144 
L 196.189968 158.881705 
L 197.821398 159.359272 
L 199.452828 159.001388 
L 201.084258 161.981955 
L 202.715688 159.065685 
L 204.347117 162.720389 
L 205.978547 160.472228 
L 207.609977 160.387805 
L 209.241407 161.289763 
L 210.872837 159.675868 
L 212.504267 159.707903 
L 214.135697 158.916083 
L 215.767127 161.608825 
L 217.398556 158.651369 
L 219.029986 157.611963 
L 220.661416 158.476899 
L 223.924276 159.824851 
L 225.555706 157.981851 
L 227.187136 162.35998 
L 230.449995 160.425874 
L 232.081425 156.897781 
L 233.712855 159.359563 
L 235.344285 158.27468 
L 236.975715 161.206273 
L 238.607145 160.427445 
L 240.238575 160.805832 
L 241.870005 159.831169 
L 243.501434 155.493951 
L 245.132864 158.478343 
L 246.764294 158.297675 
L 248.395724 159.17066 
L 250.027154 158.798009 
L 251.658584 158.702904 
L 253.290014 159.434868 
L 254.921444 159.811186 
L 256.552873 158.174236 
L 258.184303 158.44535 
L 259.815733 158.152312 
L 261.447163 159.988274 
L 263.078593 158.896771 
L 264.710023 160.021351 
L 266.341453 159.700771 
L 267.972883 158.666391 
L 271.235742 162.023947 
L 272.867172 158.585879 
L 274.498602 158.486435 
L 276.130032 158.975191 
L 277.761462 159.107246 
L 279.392892 158.604117 
L 281.024322 162.27256 
L 282.655751 160.687733 
L 284.287181 157.892686 
L 285.918611 161.063953 
L 287.550041 159.277306 
L 289.181471 162.737391 
L 290.812901 162.19484 
L 292.444331 163.550417 
L 294.075761 161.24263 
L 295.70719 159.520432 
L 297.33862 157.356902 
L 298.97005 159.398714 
L 300.60148 160.207546 
L 302.23291 159.852596 
L 303.86434 158.850339 
L 305.49577 160.251851 
L 307.1272 158.006274 
L 308.75863 158.900856 
L 310.390059 159.359898 
L 312.021489 158.533553 
L 313.652919 158.740705 
L 316.915779 160.69597 
L 318.547209 160.651703 
L 320.178639 157.901091 
L 321.810069 159.276755 
L 323.441498 163.416667 
L 325.072928 161.881316 
L 326.704358 158.746909 
L 328.335788 159.556687 
L 329.967218 161.019328 
L 331.598648 159.297325 
L 333.230078 159.487577 
L 334.861508 159.057235 
L 336.492937 159.704759 
L 338.124367 160.95855 
L 339.755797 162.551597 
L 341.387227 160.579736 
L 343.018657 159.44782 
L 344.650087 157.656023 
L 346.281517 158.762794 
L 347.912947 160.734451 
L 349.544376 162.920925 
L 351.175806 160.038419 
L 352.807236 159.452953 
L 354.438666 161.177021 
L 356.070096 160.31371 
L 357.701526 158.940148 
L 359.332956 161.034946 
L 360.964386 158.449634 
L 362.595815 160.128202 
L 364.227245 158.277454 
L 365.858675 158.944291 
L 367.490105 157.732062 
L 369.121535 159.009897 
L 370.752965 162.121666 
L 372.384395 158.333577 
L 374.015825 159.557913 
L 375.647254 158.981462 
L 377.278684 159.570468 
L 378.910114 160.653913 
L 380.541544 158.749996 
L 382.172974 161.305543 
L 383.804404 156.288417 
L 385.435834 159.937251 
L 387.067264 161.726914 
L 388.698693 160.32931 
L 390.330123 156.18716 
L 391.961553 158.137019 
L 393.592983 158.842476 
L 395.224413 157.704699 
L 396.855843 159.74366 
L 398.487273 162.115024 
L 398.487273 162.115024 
" clip-path="url(#pdb6a3574b0)" style="fill: none; stroke: #0000ff; stroke-width: 1.5; stroke-linecap: square"/>
   </g>
   <g id="line2d_22">
    <path d="M 73.832727 250.421474 
L 75.464157 201.030265 
L 77.095587 166.830152 
L 78.727017 166.982065 
L 80.358447 166.258123 
L 81.989877 156.252581 
L 83.621307 153.403535 
L 85.252736 147.336801 
L 86.884166 153.566316 
L 88.515596 150.08189 
L 90.147026 144.759801 
L 91.778456 143.775429 
L 93.409886 144.539692 
L 95.041316 142.041006 
L 96.672746 143.717849 
L 98.304175 146.256942 
L 99.935605 144.348255 
L 101.567035 144.39734 
L 103.198465 144.884673 
L 104.829895 142.26284 
L 106.461325 145.247847 
L 108.092755 146.642081 
L 109.724185 143.536706 
L 111.355614 143.920071 
L 112.987044 141.740325 
L 114.618474 143.024286 
L 116.249904 146.213725 
L 117.881334 147.034162 
L 119.512764 141.488352 
L 121.144194 143.436107 
L 122.775624 141.721903 
L 124.407053 147.408888 
L 126.038483 144.20727 
L 127.669913 141.33606 
L 129.301343 142.064547 
L 130.932773 142.666655 
L 132.564203 141.008362 
L 134.195633 139.152101 
L 135.827063 138.708106 
L 137.458492 140.844737 
L 139.089922 140.702655 
L 140.721352 138.666661 
L 142.352782 142.025527 
L 145.615642 141.288849 
L 147.247072 138.270021 
L 148.878502 140.32474 
L 152.141361 141.064636 
L 153.772791 141.243991 
L 155.404221 139.665128 
L 157.035651 137.055734 
L 158.667081 138.66294 
L 160.298511 137.059883 
L 161.929941 136.950409 
L 163.56137 138.015443 
L 165.1928 138.191636 
L 166.82423 137.311061 
L 168.45566 139.594034 
L 170.08709 135.333379 
L 171.71852 141.80771 
L 173.34995 139.224956 
L 174.98138 139.109867 
L 176.61281 137.953996 
L 178.244239 141.072958 
L 179.875669 134.903822 
L 181.507099 137.274134 
L 183.138529 140.925448 
L 184.769959 134.812358 
L 186.401389 138.461965 
L 188.032819 142.44186 
L 189.664249 139.807222 
L 191.295678 139.615616 
L 192.927108 138.248336 
L 194.558538 136.245753 
L 196.189968 138.728202 
L 197.821398 139.7467 
L 199.452828 138.104531 
L 201.084258 141.633118 
L 202.715688 137.355994 
L 204.347117 140.453936 
L 205.978547 141.38744 
L 207.609977 139.712458 
L 209.241407 142.394906 
L 210.872837 136.625721 
L 212.504267 139.391278 
L 214.135697 137.051708 
L 215.767127 140.88822 
L 217.398556 138.556546 
L 219.029986 134.584905 
L 220.661416 136.54277 
L 222.292846 136.788463 
L 223.924276 139.313779 
L 225.555706 136.996427 
L 227.187136 143.097709 
L 228.818566 141.544408 
L 230.449995 139.756996 
L 232.081425 134.804055 
L 233.712855 137.099323 
L 235.344285 137.149904 
L 236.975715 139.516199 
L 238.607145 138.26828 
L 240.238575 139.330381 
L 241.870005 139.635192 
L 243.501434 134.077057 
L 245.132864 137.965103 
L 246.764294 136.642304 
L 248.395724 137.293915 
L 250.027154 139.554842 
L 251.658584 136.989567 
L 253.290014 139.192206 
L 254.921444 139.149856 
L 256.552873 136.387643 
L 258.184303 138.506437 
L 259.815733 135.911164 
L 261.447163 139.814899 
L 263.078593 138.333466 
L 264.710023 138.701702 
L 266.341453 138.850011 
L 267.972883 136.90042 
L 269.604312 140.661782 
L 271.235742 140.05982 
L 272.867172 137.688836 
L 274.498602 137.250332 
L 276.130032 137.224429 
L 277.761462 138.262597 
L 279.392892 137.156447 
L 281.024322 141.562043 
L 282.655751 140.563481 
L 284.287181 134.204386 
L 285.918611 141.940821 
L 287.550041 138.057808 
L 289.181471 141.426844 
L 290.812901 140.911851 
L 292.444331 141.51499 
L 294.075761 138.111906 
L 295.70719 136.33655 
L 297.33862 136.05277 
L 298.97005 137.492236 
L 300.60148 141.840105 
L 302.23291 138.43588 
L 303.86434 140.503879 
L 305.49577 139.397507 
L 307.1272 135.668931 
L 308.75863 136.45839 
L 310.390059 137.819777 
L 312.021489 136.834538 
L 313.652919 138.907004 
L 315.284349 138.317668 
L 316.915779 139.63546 
L 318.547209 138.761836 
L 320.178639 136.578786 
L 321.810069 138.247534 
L 323.441498 141.58793 
L 325.072928 142.202043 
L 326.704358 136.687233 
L 328.335788 138.52628 
L 329.967218 140.668079 
L 331.598648 137.854759 
L 333.230078 138.398128 
L 334.861508 137.027479 
L 336.492937 140.434399 
L 338.124367 140.663046 
L 339.755797 142.101606 
L 341.387227 138.415045 
L 343.018657 138.32393 
L 344.650087 134.251393 
L 346.281517 136.743521 
L 347.912947 139.749737 
L 349.544376 141.364924 
L 352.807236 137.91906 
L 354.438666 140.428841 
L 356.070096 139.45512 
L 357.701526 136.224154 
L 359.332956 140.363602 
L 360.964386 136.126 
L 362.595815 139.858315 
L 364.227245 137.635782 
L 365.858675 138.41494 
L 367.490105 137.419889 
L 369.121535 135.974605 
L 370.752965 143.947211 
L 372.384395 135.149518 
L 374.015825 138.786644 
L 375.647254 139.041884 
L 377.278684 139.04235 
L 378.910114 139.952102 
L 380.541544 137.761865 
L 382.172974 139.04483 
L 383.804404 136.38312 
L 385.435834 138.375054 
L 387.067264 141.917695 
L 388.698693 141.184628 
L 390.330123 136.656997 
L 391.961553 135.952643 
L 393.592983 138.847441 
L 395.224413 135.689329 
L 396.855843 138.291393 
L 398.487273 140.41138 
L 398.487273 140.41138 
" clip-path="url(#pdb6a3574b0)" style="fill: none; stroke-dasharray: 9.6,2.4,1.5,2.4; stroke-dashoffset: 0; stroke: #008000; stroke-width: 1.5"/>
   </g>
   <g id="line2d_23">
    <path d="M 73.832727 147.302474 
L 75.464157 137.850079 
L 77.095587 114.988097 
L 78.727017 95.459043 
L 80.358447 119.313113 
L 81.989877 111.021138 
L 83.621307 110.557536 
L 85.252736 92.37187 
L 86.884166 103.053174 
L 88.515596 115.366836 
L 90.147026 102.82808 
L 91.778456 99.05101 
L 93.409886 110.946724 
L 95.041316 72.224047 
L 96.672746 110.841764 
L 98.304175 103.168254 
L 99.935605 98.959261 
L 101.567035 99.333835 
L 103.198465 78.153107 
L 104.829895 103.192294 
L 106.461325 102.579483 
L 108.092755 95.31304 
L 109.724185 91.913897 
L 111.355614 87.922902 
L 112.987044 106.993438 
L 114.618474 92.499341 
L 116.249904 119.511739 
L 117.881334 114.880632 
L 119.512764 91.674548 
L 121.144194 107.174545 
L 124.407053 99.202751 
L 126.038483 95.354622 
L 127.669913 56.85323 
L 129.301343 95.79649 
L 130.932773 98.942358 
L 132.564203 106.463064 
L 134.195633 91.822854 
L 135.827063 99.0378 
L 137.458492 95.187662 
L 139.089922 78.115231 
L 140.721352 81.294834 
L 142.352782 91.124649 
L 143.984212 95.558644 
L 145.615642 71.60739 
L 147.247072 102.651688 
L 148.878502 102.620984 
L 150.509931 78.71601 
L 152.141361 106.344384 
L 153.772791 110.376965 
L 155.404221 88.9905 
L 157.035651 77.953457 
L 158.667081 91.605487 
L 160.298511 91.581811 
L 161.929941 81.155738 
L 163.56137 84.386361 
L 165.1928 98.623133 
L 166.82423 99.185429 
L 168.45566 81.300516 
L 170.08709 81.725666 
L 171.71852 102.75173 
L 173.34995 92.724428 
L 174.98138 81.236123 
L 176.61281 95.541954 
L 178.244239 102.477155 
L 179.875669 78.468322 
L 181.507099 84.987047 
L 183.138529 102.770086 
L 184.769959 68.713866 
L 186.401389 99.525181 
L 188.032819 81.314691 
L 189.664249 95.276224 
L 191.295678 99.303633 
L 192.927108 71.847563 
L 194.558538 81.409114 
L 196.189968 95.223526 
L 197.821398 102.448687 
L 199.452828 91.646284 
L 201.084258 84.695832 
L 202.715688 102.571474 
L 204.347117 88.0446 
L 205.978547 106.333801 
L 207.609977 81.350377 
L 209.241407 99.042748 
L 210.872837 84.732699 
L 212.504267 87.715049 
L 214.135697 88.587409 
L 215.767127 91.816195 
L 217.398556 95.875833 
L 219.029986 71.621825 
L 220.661416 82.218607 
L 222.292846 62.952342 
L 223.924276 84.384637 
L 225.555706 77.783513 
L 227.187136 98.869336 
L 228.818566 89.155441 
L 230.449995 99.057711 
L 232.081425 91.980018 
L 233.712855 74.349941 
L 235.344285 89.056935 
L 236.975715 99.495723 
L 238.607145 69.048609 
L 240.238575 99.514673 
L 241.870005 107.189566 
L 243.501434 87.974631 
L 245.132864 78.043545 
L 246.764294 88.249484 
L 248.395724 102.890201 
L 250.027154 103.346526 
L 251.658584 59.741513 
L 253.290014 102.955871 
L 254.921444 95.009388 
L 256.552873 81.078737 
L 258.184303 75.029851 
L 259.815733 81.744044 
L 261.447163 87.876542 
L 263.078593 81.403244 
L 264.710023 74.306314 
L 266.341453 84.620945 
L 267.972883 84.587427 
L 269.604312 103.569094 
L 271.235742 103.039534 
L 272.867172 88.232498 
L 274.498602 91.582339 
L 276.130032 92.023009 
L 277.761462 84.979668 
L 279.392892 92.174519 
L 281.024322 91.525368 
L 282.655751 92.273577 
L 284.287181 74.562289 
L 285.918611 106.682419 
L 287.550041 95.573638 
L 289.181471 91.247888 
L 290.812901 80.984755 
L 292.444331 95.740133 
L 294.075761 77.795141 
L 295.70719 85.111502 
L 297.33862 103.019959 
L 298.97005 84.726496 
L 300.60148 111.551646 
L 302.23291 88.125162 
L 303.86434 102.858085 
L 305.49577 98.735751 
L 307.1272 87.938439 
L 308.75863 87.938355 
L 310.390059 88.257584 
L 312.021489 74.423305 
L 313.652919 78.973744 
L 315.284349 74.304244 
L 316.915779 88.02246 
L 318.547209 88.469876 
L 320.178639 91.587481 
L 321.810069 95.049332 
L 323.441498 87.745799 
L 325.072928 103.383809 
L 326.704358 88.0976 
L 328.335788 74.947275 
L 329.967218 99.331609 
L 331.598648 91.486955 
L 333.230078 77.835886 
L 334.861508 71.41922 
L 336.492937 91.140467 
L 338.124367 81.435819 
L 339.755797 103.407257 
L 341.387227 88.232035 
L 343.018657 99.055408 
L 344.650087 74.503974 
L 346.281517 84.644266 
L 347.912947 77.853174 
L 349.544376 75.335617 
L 351.175806 84.400844 
L 352.807236 88.751657 
L 354.438666 82.66247 
L 356.070096 96.302865 
L 357.701526 85.465713 
L 359.332956 81.319237 
L 360.964386 85.080252 
L 362.595815 95.200612 
L 364.227245 95.306376 
L 365.858675 91.211863 
L 367.490105 95.434615 
L 369.121535 88.170126 
L 370.752965 106.923307 
L 372.384395 71.141242 
L 374.015825 81.302834 
L 375.647254 103.674308 
L 377.278684 91.472641 
L 378.910114 84.428969 
L 380.541544 99.635021 
L 382.172974 91.827471 
L 383.804404 98.563254 
L 385.435834 84.959335 
L 387.067264 102.669828 
L 388.698693 81.39446 
L 390.330123 99.212395 
L 391.961553 87.981617 
L 393.592983 87.855213 
L 395.224413 53.568 
L 396.855843 95.12922 
L 398.487273 88.28496 
L 398.487273 88.28496 
" clip-path="url(#pdb6a3574b0)" style="fill: none; stroke: #ff0000; stroke-width: 1.5; stroke-linecap: square"/>
   </g>
   <g id="patch_3">
    <path d="M 57.6 307.584 
L 57.6 41.472 
" style="fill: none; stroke: #000000; stroke-width: 0.8; stroke-linejoin: miter; stroke-linecap: square"/>
   </g>
   <g id="patch_4">
    <path d="M 414.72 307.584 
L 414.72 41.472 
" style="fill: none; stroke: #000000; stroke-width: 0.8; stroke-linejoin: miter; stroke-linecap: square"/>
   </g>
   <g id="patch_5">
    <path d="M 57.6 307.584 
L 414.72 307.584 
" style="fill: none; stroke: #000000; stroke-width: 0.8; stroke-linejoin: miter; stroke-linecap: square"/>
   </g>
   <g id="patch_6">
    <path d="M 57.6 41.472 
L 414.72 41.472 
" style="fill: none; stroke: #000000; stroke-width: 0.8; stroke-linejoin: miter; stroke-linecap: square"/>
   </g>
   <g id="text_13">
    <!-- Średnie i najlepsze przystosowanie w każdej generacji -->
    <g transform="translate(73.26 35.472) scale(0.12 -0.12)">
     <defs>
      <path id="DejaVuSans-15a" d="M 2236 5921 
L 2814 5921 
L 2102 5096 
L 1623 5096 
L 2236 5921 
z
M 3425 4513 
L 3425 3897 
Q 3066 4069 2747 4153 
Q 2428 4238 2131 4238 
Q 1616 4238 1336 4038 
Q 1056 3838 1056 3469 
Q 1056 3159 1242 3001 
Q 1428 2844 1947 2747 
L 2328 2669 
Q 3034 2534 3370 2195 
Q 3706 1856 3706 1288 
Q 3706 609 3251 259 
Q 2797 -91 1919 -91 
Q 1588 -91 1214 -16 
Q 841 59 441 206 
L 441 856 
Q 825 641 1194 531 
Q 1563 422 1919 422 
Q 2459 422 2753 634 
Q 3047 847 3047 1241 
Q 3047 1584 2836 1778 
Q 2625 1972 2144 2069 
L 1759 2144 
Q 1053 2284 737 2584 
Q 422 2884 422 3419 
Q 422 4038 858 4394 
Q 1294 4750 2059 4750 
Q 2388 4750 2728 4690 
Q 3069 4631 3425 4513 
z
" transform="scale(0.015625)"/>
      <path id="DejaVuSans-64" d="M 2906 2969 
L 2906 4863 
L 3481 4863 
L 3481 0 
L 2906 0 
L 2906 525 
Q 2725 213 2448 61 
Q 2172 -91 1784 -91 
Q 1150 -91 751 415 
Q 353 922 353 1747 
Q 353 2572 751 3078 
Q 1150 3584 1784 3584 
Q 2172 3584 2448 3432 
Q 2725 3281 2906 2969 
z
M 947 1747 
Q 947 1113 1208 752 
Q 1469 391 1925 391 
Q 2381 391 2643 752 
Q 2906 1113 2906 1747 
Q 2906 2381 2643 2742 
Q 2381 3103 1925 3103 
Q 1469 3103 1208 2742 
Q 947 2381 947 1747 
z
" transform="scale(0.015625)"/>
      <path id="DejaVuSans-20" transform="scale(0.015625)"/>
      <path id="DejaVuSans-6c" d="M 603 4863 
L 1178 4863 
L 1178 0 
L 603 0 
L 603 4863 
z
" transform="scale(0.015625)"/>
      <path id="DejaVuSans-70" d="M 1159 525 
L 1159 -1331 
L 581 -1331 
L 581 3500 
L 1159 3500 
L 1159 2969 
Q 1341 3281 1617 3432 
Q 1894 3584 2278 3584 
Q 2916 3584 3314 3078 
Q 3713 2572 3713 1747 
Q 3713 922 3314 415 
Q 2916 -91 2278 -91 
Q 1894 -91 1617 61 
Q 1341 213 1159 525 
z
M 3116 1747 
Q 3116 2381 2855 2742 
Q 2594 3103 2138 3103 
Q 1681 3103 1420 2742 
Q 1159 2381 1159 1747 
Q 1159 1113 1420 752 
Q 1681 391 2138 391 
Q 2594 391 2855 752 
Q 3116 1113 3116 1747 
z
" transform="scale(0.015625)"/>
      <path id="DejaVuSans-6b" d="M 581 4863 
L 1159 4863 
L 1159 1991 
L 2875 3500 
L 3609 3500 
L 1753 1863 
L 3688 0 
L 2938 0 
L 1159 1709 
L 1159 0 
L 581 0 
L 581 4863 
z
" transform="scale(0.015625)"/>
      <path id="DejaVuSans-17c" d="M 1378 4863 
L 1953 4863 
L 1953 4134 
L 1378 4134 
L 1378 4863 
z
M 1672 3584 
L 1672 3584 
z
M 353 3500 
L 3084 3500 
L 3084 2975 
L 922 459 
L 3084 459 
L 3084 0 
L 275 0 
L 275 525 
L 2438 3041 
L 353 3041 
L 353 3500 
z
" transform="scale(0.015625)"/>
      <path id="DejaVuSans-67" d="M 2906 1791 
Q 2906 2416 2648 2759 
Q 2391 3103 1925 3103 
Q 1463 3103 1205 2759 
Q 947 2416 947 1791 
Q 947 1169 1205 825 
Q 1463 481 1925 481 
Q 2391 481 2648 825 
Q 2906 1169 2906 1791 
z
M 3481 434 
Q 3481 -459 3084 -895 
Q 2688 -1331 1869 -1331 
Q 1566 -1331 1297 -1286 
Q 1028 -1241 775 -1147 
L 775 -588 
Q 1028 -725 1275 -790 
Q 1522 -856 1778 -856 
Q 2344 -856 2625 -561 
Q 2906 -266 2906 331 
L 2906 616 
Q 2728 306 2450 153 
Q 2172 0 1784 0 
Q 1141 0 747 490 
Q 353 981 353 1791 
Q 353 2603 747 3093 
Q 1141 3584 1784 3584 
Q 2172 3584 2450 3431 
Q 2728 3278 2906 2969 
L 2906 3500 
L 3481 3500 
L 3481 434 
z
" transform="scale(0.015625)"/>
     </defs>
     <use xlink:href="#DejaVuSans-15a"/>
     <use xlink:href="#DejaVuSans-72" transform="translate(63.476562 0)"/>
     <use xlink:href="#DejaVuSans-65" transform="translate(102.339844 0)"/>
     <use xlink:href="#DejaVuSans-64" transform="translate(163.863281 0)"/>
     <use xlink:href="#DejaVuSans-6e" transform="translate(227.339844 0)"/>
     <use xlink:href="#DejaVuSans-69" transform="translate(290.71875 0)"/>
     <use xlink:href="#DejaVuSans-65" transform="translate(318.501953 0)"/>
     <use xlink:href="#DejaVuSans-20" transform="translate(380.025391 0)"/>
     <use xlink:href="#DejaVuSans-69" transform="translate(411.8125 0)"/>
     <use xlink:href="#DejaVuSans-20" transform="translate(439.595703 0)"/>
     <use xlink:href="#DejaVuSans-6e" transform="translate(471.382812 0)"/>
     <use xlink:href="#DejaVuSans-61" transform="translate(534.761719 0)"/>
     <use xlink:href="#DejaVuSans-6a" transform="translate(596.041016 0)"/>
     <use xlink:href="#DejaVuSans-6c" transform="translate(623.824219 0)"/>
     <use xlink:href="#DejaVuSans-65" transform="translate(651.607422 0)"/>
     <use xlink:href="#DejaVuSans-70" transform="translate(713.130859 0)"/>
     <use xlink:href="#DejaVuSans-73" transform="translate(776.607422 0)"/>
     <use xlink:href="#DejaVuSans-7a" transform="translate(828.707031 0)"/>
     <use xlink:href="#DejaVuSans-65" transform="translate(881.197266 0)"/>
     <use xlink:href="#DejaVuSans-20" transform="translate(942.720703 0)"/>
     <use xlink:href="#DejaVuSans-70" transform="translate(974.507812 0)"/>
     <use xlink:href="#DejaVuSans-72" transform="translate(1037.984375 0)"/>
     <use xlink:href="#DejaVuSans-7a" transform="translate(1079.097656 0)"/>
     <use xlink:href="#DejaVuSans-79" transform="translate(1131.587891 0)"/>
     <use xlink:href="#DejaVuSans-73" transform="translate(1190.767578 0)"/>
     <use xlink:href="#DejaVuSans-74" transform="translate(1242.867188 0)"/>
     <use xlink:href="#DejaVuSans-6f" transform="translate(1282.076172 0)"/>
     <use xlink:href="#DejaVuSans-73" transform="translate(1343.257812 0)"/>
     <use xlink:href="#DejaVuSans-6f" transform="translate(1395.357422 0)"/>
     <use xlink:href="#DejaVuSans-77" transform="translate(1456.539062 0)"/>
     <use xlink:href="#DejaVuSans-61" transform="translate(1538.326172 0)"/>
     <use xlink:href="#DejaVuSans-6e" transform="translate(1599.605469 0)"/>
     <use xlink:href="#DejaVuSans-69" transform="translate(1662.984375 0)"/>
     <use xlink:href="#DejaVuSans-65" transform="translate(1690.767578 0)"/>
     <use xlink:href="#DejaVuSans-20" transform="translate(1752.291016 0)"/>
     <use xlink:href="#DejaVuSans-77" transform="translate(1784.078125 0)"/>
     <use xlink:href="#DejaVuSans-20" transform="translate(1865.865234 0)"/>
     <use xlink:href="#DejaVuSans-6b" transform="translate(1897.652344 0)"/>
     <use xlink:href="#DejaVuSans-61" transform="translate(1953.8125 0)"/>
     <use xlink:href="#DejaVuSans-17c" transform="translate(2015.091797 0)"/>
     <use xlink:href="#DejaVuSans-64" transform="translate(2067.582031 0)"/>
     <use xlink:href="#DejaVuSans-65" transform="translate(2131.058594 0)"/>
     <use xlink:href="#DejaVuSans-6a" transform="translate(2192.582031 0)"/>
     <use xlink:href="#DejaVuSans-20" transform="translate(2220.365234 0)"/>
     <use xlink:href="#DejaVuSans-67" transform="translate(2252.152344 0)"/>
     <use xlink:href="#DejaVuSans-65" transform="translate(2315.628906 0)"/>
     <use xlink:href="#DejaVuSans-6e" transform="translate(2377.152344 0)"/>
     <use xlink:href="#DejaVuSans-65" transform="translate(2440.53125 0)"/>
     <use xlink:href="#DejaVuSans-72" transform="translate(2502.054688 0)"/>
     <use xlink:href="#DejaVuSans-61" transform="translate(2543.167969 0)"/>
     <use xlink:href="#DejaVuSans-63" transform="translate(2604.447266 0)"/>
     <use xlink:href="#DejaVuSans-6a" transform="translate(2659.427734 0)"/>
     <use xlink:href="#DejaVuSans-69" transform="translate(2687.210938 0)"/>
    </g>
   </g>
   <g id="legend_1">
    <g id="patch_7">
     <path d="M 279.790313 302.584 
L 407.72 302.584 
Q 409.72 302.584 409.72 300.584 
L 409.72 257.549625 
Q 409.72 255.549625 407.72 255.549625 
L 279.790313 255.549625 
Q 277.790313 255.549625 277.790313 257.549625 
L 277.790313 300.584 
Q 277.790313 302.584 279.790313 302.584 
z
" style="fill: #ffffff; opacity: 0.8; stroke: #cccccc; stroke-linejoin: miter"/>
    </g>
    <g id="line2d_24">
     <path d="M 281.790313 263.648062 
L 291.790313 263.648062 
L 301.790313 263.648062 
" style="fill: none; stroke: #0000ff; stroke-width: 1.5; stroke-linecap: square"/>
    </g>
    <g id="text_14">
     <!-- Średnia -->
     <g transform="translate(309.790313 267.148062) scale(0.1 -0.1)">
      <use xlink:href="#DejaVuSans-15a"/>
      <use xlink:href="#DejaVuSans-72" transform="translate(63.476562 0)"/>
      <use xlink:href="#DejaVuSans-65" transform="translate(102.339844 0)"/>
      <use xlink:href="#DejaVuSans-64" transform="translate(163.863281 0)"/>
      <use xlink:href="#DejaVuSans-6e" transform="translate(227.339844 0)"/>
      <use xlink:href="#DejaVuSans-69" transform="translate(290.71875 0)"/>
      <use xlink:href="#DejaVuSans-61" transform="translate(318.501953 0)"/>
     </g>
    </g>
    <g id="line2d_25">
     <path d="M 281.790313 278.326188 
L 291.790313 278.326188 
L 301.790313 278.326188 
" style="fill: none; stroke-dasharray: 9.6,2.4,1.5,2.4; stroke-dashoffset: 0; stroke: #008000; stroke-width: 1.5"/>
    </g>
    <g id="text_15">
     <!-- ±1 Odchylenie std. -->
     <g transform="translate(309.790313 281.826188) scale(0.1 -0.1)">
      <defs>
       <path id="DejaVuSans-b1" d="M 2944 4013 
L 2944 2803 
L 4684 2803 
L 4684 2272 
L 2944 2272 
L 2944 1063 
L 2419 1063 
L 2419 2272 
L 678 2272 
L 678 2803 
L 2419 2803 
L 2419 4013 
L 2944 4013 
z
M 678 531 
L 4684 531 
L 4684 0 
L 678 0 
L 678 531 
z
" transform="scale(0.015625)"/>
       <path id="DejaVuSans-4f" d="M 2522 4238 
Q 1834 4238 1429 3725 
Q 1025 3213 1025 2328 
Q 1025 1447 1429 934 
Q 1834 422 2522 422 
Q 3209 422 3611 934 
Q 4013 1447 4013 2328 
Q 4013 3213 3611 3725 
Q 3209 4238 2522 4238 
z
M 2522 4750 
Q 3503 4750 4090 4092 
Q 4678 3434 4678 2328 
Q 4678 1225 4090 567 
Q 3503 -91 2522 -91 
Q 1538 -91 948 565 
Q 359 1222 359 2328 
Q 359 3434 948 4092 
Q 1538 4750 2522 4750 
z
" transform="scale(0.015625)"/>
       <path id="DejaVuSans-68" d="M 3513 2113 
L 3513 0 
L 2938 0 
L 2938 2094 
Q 2938 2591 2744 2837 
Q 2550 3084 2163 3084 
Q 1697 3084 1428 2787 
Q 1159 2491 1159 1978 
L 1159 0 
L 581 0 
L 581 4863 
L 1159 4863 
L 1159 2956 
Q 1366 3272 1645 3428 
Q 1925 3584 2291 3584 
Q 2894 3584 3203 3211 
Q 3513 2838 3513 2113 
z
" transform="scale(0.015625)"/>
       <path id="DejaVuSans-2e" d="M 684 794 
L 1344 794 
L 1344 0 
L 684 0 
L 684 794 
z
" transform="scale(0.015625)"/>
      </defs>
      <use xlink:href="#DejaVuSans-b1"/>
      <use xlink:href="#DejaVuSans-31" transform="translate(83.789062 0)"/>
      <use xlink:href="#DejaVuSans-20" transform="translate(147.412109 0)"/>
      <use xlink:href="#DejaVuSans-4f" transform="translate(179.199219 0)"/>
      <use xlink:href="#DejaVuSans-64" transform="translate(257.910156 0)"/>
      <use xlink:href="#DejaVuSans-63" transform="translate(321.386719 0)"/>
      <use xlink:href="#DejaVuSans-68" transform="translate(376.367188 0)"/>
      <use xlink:href="#DejaVuSans-79" transform="translate(439.746094 0)"/>
      <use xlink:href="#DejaVuSans-6c" transform="translate(498.925781 0)"/>
      <use xlink:href="#DejaVuSans-65" transform="translate(526.708984 0)"/>
      <use xlink:href="#DejaVuSans-6e" transform="translate(588.232422 0)"/>
      <use xlink:href="#DejaVuSans-69" transform="translate(651.611328 0)"/>
      <use xlink:href="#DejaVuSans-65" transform="translate(679.394531 0)"/>
      <use xlink:href="#DejaVuSans-20" transform="translate(740.917969 0)"/>
      <use xlink:href="#DejaVuSans-73" transform="translate(772.705078 0)"/>
      <use xlink:href="#DejaVuSans-74" transform="translate(824.804688 0)"/>
      <use xlink:href="#DejaVuSans-64" transform="translate(864.013672 0)"/>
      <use xlink:href="#DejaVuSans-2e" transform="translate(927.490234 0)"/>
     </g>
    </g>
    <g id="line2d_26">
     <path d="M 281.790313 293.004312 
L 291.790313 293.004312 
L 301.790313 293.004312 
" style="fill: none; stroke: #ff0000; stroke-width: 1.5; stroke-linecap: square"/>
    </g>
    <g id="text_16">
     <!-- Najlepsze -->
     <g transform="translate(309.790313 296.504312) scale(0.1 -0.1)">
      <defs>
       <path id="DejaVuSans-4e" d="M 628 4666 
L 1478 4666 
L 3547 763 
L 3547 4666 
L 4159 4666 
L 4159 0 
L 3309 0 
L 1241 3903 
L 1241 0 
L 628 0 
L 628 4666 
z
" transform="scale(0.015625)"/>
      </defs>
      <use xlink:href="#DejaVuSans-4e"/>
      <use xlink:href="#DejaVuSans-61" transform="translate(74.804688 0)"/>
      <use xlink:href="#DejaVuSans-6a" transform="translate(136.083984 0)"/>
      <use xlink:href="#DejaVuSans-6c" transform="translate(163.867188 0)"/>
      <use xlink:href="#DejaVuSans-65" transform="translate(191.650391 0)"/>
      <use xlink:href="#DejaVuSans-70" transform="translate(253.173828 0)"/>
      <use xlink:href="#DejaVuSans-73" transform="translate(316.650391 0)"/>
      <use xlink:href="#DejaVuSans-7a" transform="translate(368.75 0)"/>
      <use xlink:href="#DejaVuSans-65" transform="translate(421.240234 0)"/>
     </g>
    </g>
   </g>
  </g>
 </g>
 <defs>
  <clipPath id="pdb6a3574b0">
   <rect x="57.6" y="41.472" width="357.12" height="266.112"/>
  </clipPath>
 </defs>
</svg>
