<?xml version="1.0" encoding="utf-8" standalone="no"?>
<!DOCTYPE svg PUBLIC "-//W3C//DTD SVG 1.1//EN"
  "http://www.w3.org/Graphics/SVG/1.1/DTD/svg11.dtd">
<svg xmlns:xlink="http://www.w3.org/1999/xlink" width="460.8pt" height="345.6pt" viewBox="0 0 460.8 345.6" xmlns="http://www.w3.org/2000/svg" version="1.1">
 <metadata>
  <rdf:RDF xmlns:dc="http://purl.org/dc/elements/1.1/" xmlns:cc="http://creativecommons.org/ns#" xmlns:rdf="http://www.w3.org/1999/02/22-rdf-syntax-ns#">
   <cc:Work>
    <dc:type rdf:resource="http://purl.org/dc/dcmitype/StillImage"/>
    <dc:date>2026-04-26T22:35:15.304338</dc:date>
    <dc:format>image/svg+xml</dc:format>
    <dc:creator>
     <cc:Agent>
      <dc:title>Matplotlib v3.10.8, https://matplotlib.org/</dc:title>
     </cc:Agent>
    </dc:creator>
   </cc:Work>
  </rdf:RDF>
 </metadata>
 <defs>
  <style type="text/css">*{stroke-linejoin: round; stroke-linecap: butt}</style>
 </defs>
 <g id="figure_1">
  <g id="patch_1">
   <path d="M 0 345.6 
L 460.8 345.6 
L 460.8 0 
L 0 0 
z
" style="fill: #ffffff"/>
  </g>
  <g id="axes_1">
   <g id="patch_2">
    <path d="M 57.6 307.584 
L 414.72 307.584 
L 414.72 41.472 
L 57.6 41.472 
z
" style="fill: #ffffff"/>
   </g>
   <g id="matplotlib.axis_1">
    <g id="xtick_1">
     <g id="line2d_1">
      <path d="M 72.201297 307.584 
L 72.201297 41.472 
" clip-path="url(#paf7402f613)" style="fill: none; stroke: #b0b0b0; stroke-width: 0.8; stroke-linecap: square"/>
     </g>
     <g id="line2d_2">
      <defs>
       <path id="me95f9b610e" d="M 0 0 
L 0 3.5 
" style="stroke: #000000; stroke-width: 0.8"/>
      </defs>
      <g>
       <use xlink:href="#me95f9b610e" x="72.201297" y="307.584" style="stroke: #000000; stroke-width: 0.8"/>
      </g>
     </g>
     <g id="text_1">
      <!-- 0 -->
      <g transform="translate(69.020047 322.182437) scale(0.1 -0.1)">
       <defs>
        <path id="DejaVuSans-30" d="M 2034 4250 
Q 1547 4250 1301 3770 
Q 1056 3291 1056 2328 
Q 1056 1369 1301 889 
Q 1547 409 2034 409 
Q 2525 409 2770 889 
Q 3016 1369 3016 2328 
Q 3016 3291 2770 3770 
Q 2525 4250 2034 4250 
z
M 2034 4750 
Q 2819 4750 3233 4129 
Q 3647 3509 3647 2328 
Q 3647 1150 3233 529 
Q 2819 -91 2034 -91 
Q 1250 -91 836 529 
Q 422 1150 422 2328 
Q 422 3509 836 4129 
Q 1250 4750 2034 4750 
z
" transform="scale(0.015625)"/>
       </defs>
       <use xlink:href="#DejaVuSans-30"/>
      </g>
     </g>
    </g>
    <g id="xtick_2">
     <g id="line2d_3">
      <path d="M 112.987044 307.584 
L 112.987044 41.472 
" clip-path="url(#paf7402f613)" style="fill: none; stroke: #b0b0b0; stroke-width: 0.8; stroke-linecap: square"/>
     </g>
     <g id="line2d_4">
      <g>
       <use xlink:href="#me95f9b610e" x="112.987044" y="307.584" style="stroke: #000000; stroke-width: 0.8"/>
      </g>
     </g>
     <g id="text_2">
      <!-- 25 -->
      <g transform="translate(106.624544 322.182437) scale(0.1 -0.1)">
       <defs>
        <path id="DejaVuSans-32" d="M 1228 531 
L 3431 531 
L 3431 0 
L 469 0 
L 469 531 
Q 828 903 1448 1529 
Q 2069 2156 2228 2338 
Q 2531 2678 2651 2914 
Q 2772 3150 2772 3378 
Q 2772 3750 2511 3984 
Q 2250 4219 1831 4219 
Q 1534 4219 1204 4116 
Q 875 4013 500 3803 
L 500 4441 
Q 881 4594 1212 4672 
Q 1544 4750 1819 4750 
Q 2544 4750 2975 4387 
Q 3406 4025 3406 3419 
Q 3406 3131 3298 2873 
Q 3191 2616 2906 2266 
Q 2828 2175 2409 1742 
Q 1991 1309 1228 531 
z
" transform="scale(0.015625)"/>
        <path id="DejaVuSans-35" d="M 691 4666 
L 3169 4666 
L 3169 4134 
L 1269 4134 
L 1269 2991 
Q 1406 3038 1543 3061 
Q 1681 3084 1819 3084 
Q 2600 3084 3056 2656 
Q 3513 2228 3513 1497 
Q 3513 744 3044 326 
Q 2575 -91 1722 -91 
Q 1428 -91 1123 -41 
Q 819 9 494 109 
L 494 744 
Q 775 591 1075 516 
Q 1375 441 1709 441 
Q 2250 441 2565 725 
Q 2881 1009 2881 1497 
Q 2881 1984 2565 2268 
Q 2250 2553 1709 2553 
Q 1456 2553 1204 2497 
Q 953 2441 691 2322 
L 691 4666 
z
" transform="scale(0.015625)"/>
       </defs>
       <use xlink:href="#DejaVuSans-32"/>
       <use xlink:href="#DejaVuSans-35" transform="translate(63.623047 0)"/>
      </g>
     </g>
    </g>
    <g id="xtick_3">
     <g id="line2d_5">
      <path d="M 153.772791 307.584 
L 153.772791 41.472 
" clip-path="url(#paf7402f613)" style="fill: none; stroke: #b0b0b0; stroke-width: 0.8; stroke-linecap: square"/>
     </g>
     <g id="line2d_6">
      <g>
       <use xlink:href="#me95f9b610e" x="153.772791" y="307.584" style="stroke: #000000; stroke-width: 0.8"/>
      </g>
     </g>
     <g id="text_3">
      <!-- 50 -->
      <g transform="translate(147.410291 322.182437) scale(0.1 -0.1)">
       <use xlink:href="#DejaVuSans-35"/>
       <use xlink:href="#DejaVuSans-30" transform="translate(63.623047 0)"/>
      </g>
     </g>
    </g>
    <g id="xtick_4">
     <g id="line2d_7">
      <path d="M 194.558538 307.584 
L 194.558538 41.472 
" clip-path="url(#paf7402f613)" style="fill: none; stroke: #b0b0b0; stroke-width: 0.8; stroke-linecap: square"/>
     </g>
     <g id="line2d_8">
      <g>
       <use xlink:href="#me95f9b610e" x="194.558538" y="307.584" style="stroke: #000000; stroke-width: 0.8"/>
      </g>
     </g>
     <g id="text_4">
      <!-- 75 -->
      <g transform="translate(188.196038 322.182437) scale(0.1 -0.1)">
       <defs>
        <path id="DejaVuSans-37" d="M 525 4666 
L 3525 4666 
L 3525 4397 
L 1831 0 
L 1172 0 
L 2766 4134 
L 525 4134 
L 525 4666 
z
" transform="scale(0.015625)"/>
       </defs>
       <use xlink:href="#DejaVuSans-37"/>
       <use xlink:href="#DejaVuSans-35" transform="translate(63.623047 0)"/>
      </g>
     </g>
    </g>
    <g id="xtick_5">
     <g id="line2d_9">
      <path d="M 235.344285 307.584 
L 235.344285 41.472 
" clip-path="url(#paf7402f613)" style="fill: none; stroke: #b0b0b0; stroke-width: 0.8; stroke-linecap: square"/>
     </g>
     <g id="line2d_10">
      <g>
       <use xlink:href="#me95f9b610e" x="235.344285" y="307.584" style="stroke: #000000; stroke-width: 0.8"/>
      </g>
     </g>
     <g id="text_5">
      <!-- 100 -->
      <g transform="translate(225.800535 322.182437) scale(0.1 -0.1)">
       <defs>
        <path id="DejaVuSans-31" d="M 794 531 
L 1825 531 
L 1825 4091 
L 703 3866 
L 703 4441 
L 1819 4666 
L 2450 4666 
L 2450 531 
L 3481 531 
L 3481 0 
L 794 0 
L 794 531 
z
" transform="scale(0.015625)"/>
       </defs>
       <use xlink:href="#DejaVuSans-31"/>
       <use xlink:href="#DejaVuSans-30" transform="translate(63.623047 0)"/>
       <use xlink:href="#DejaVuSans-30" transform="translate(127.246094 0)"/>
      </g>
     </g>
    </g>
    <g id="xtick_6">
     <g id="line2d_11">
      <path d="M 276.130032 307.584 
L 276.130032 41.472 
" clip-path="url(#paf7402f613)" style="fill: none; stroke: #b0b0b0; stroke-width: 0.8; stroke-linecap: square"/>
     </g>
     <g id="line2d_12">
      <g>
       <use xlink:href="#me95f9b610e" x="276.130032" y="307.584" style="stroke: #000000; stroke-width: 0.8"/>
      </g>
     </g>
     <g id="text_6">
      <!-- 125 -->
      <g transform="translate(266.586282 322.182437) scale(0.1 -0.1)">
       <use xlink:href="#DejaVuSans-31"/>
       <use xlink:href="#DejaVuSans-32" transform="translate(63.623047 0)"/>
       <use xlink:href="#DejaVuSans-35" transform="translate(127.246094 0)"/>
      </g>
     </g>
    </g>
    <g id="xtick_7">
     <g id="line2d_13">
      <path d="M 316.915779 307.584 
L 316.915779 41.472 
" clip-path="url(#paf7402f613)" style="fill: none; stroke: #b0b0b0; stroke-width: 0.8; stroke-linecap: square"/>
     </g>
     <g id="line2d_14">
      <g>
       <use xlink:href="#me95f9b610e" x="316.915779" y="307.584" style="stroke: #000000; stroke-width: 0.8"/>
      </g>
     </g>
     <g id="text_7">
      <!-- 150 -->
      <g transform="translate(307.372029 322.182437) scale(0.1 -0.1)">
       <use xlink:href="#DejaVuSans-31"/>
       <use xlink:href="#DejaVuSans-35" transform="translate(63.623047 0)"/>
       <use xlink:href="#DejaVuSans-30" transform="translate(127.246094 0)"/>
      </g>
     </g>
    </g>
    <g id="xtick_8">
     <g id="line2d_15">
      <path d="M 357.701526 307.584 
L 357.701526 41.472 
" clip-path="url(#paf7402f613)" style="fill: none; stroke: #b0b0b0; stroke-width: 0.8; stroke-linecap: square"/>
     </g>
     <g id="line2d_16">
      <g>
       <use xlink:href="#me95f9b610e" x="357.701526" y="307.584" style="stroke: #000000; stroke-width: 0.8"/>
      </g>
     </g>
     <g id="text_8">
      <!-- 175 -->
      <g transform="translate(348.157776 322.182437) scale(0.1 -0.1)">
       <use xlink:href="#DejaVuSans-31"/>
       <use xlink:href="#DejaVuSans-37" transform="translate(63.623047 0)"/>
       <use xlink:href="#DejaVuSans-35" transform="translate(127.246094 0)"/>
      </g>
     </g>
    </g>
    <g id="xtick_9">
     <g id="line2d_17">
      <path d="M 398.487273 307.584 
L 398.487273 41.472 
" clip-path="url(#paf7402f613)" style="fill: none; stroke: #b0b0b0; stroke-width: 0.8; stroke-linecap: square"/>
     </g>
     <g id="line2d_18">
      <g>
       <use xlink:href="#me95f9b610e" x="398.487273" y="307.584" style="stroke: #000000; stroke-width: 0.8"/>
      </g>
     </g>
     <g id="text_9">
      <!-- 200 -->
      <g transform="translate(388.943523 322.182437) scale(0.1 -0.1)">
       <use xlink:href="#DejaVuSans-32"/>
       <use xlink:href="#DejaVuSans-30" transform="translate(63.623047 0)"/>
       <use xlink:href="#DejaVuSans-30" transform="translate(127.246094 0)"/>
      </g>
     </g>
    </g>
    <g id="text_10">
     <!-- Generacje -->
     <g transform="translate(210.629531 335.860562) scale(0.1 -0.1)">
      <defs>
       <path id="DejaVuSans-47" d="M 3809 666 
L 3809 1919 
L 2778 1919 
L 2778 2438 
L 4434 2438 
L 4434 434 
Q 4069 175 3628 42 
Q 3188 -91 2688 -91 
Q 1594 -91 976 548 
Q 359 1188 359 2328 
Q 359 3472 976 4111 
Q 1594 4750 2688 4750 
Q 3144 4750 3555 4637 
Q 3966 4525 4313 4306 
L 4313 3634 
Q 3963 3931 3569 4081 
Q 3175 4231 2741 4231 
Q 1884 4231 1454 3753 
Q 1025 3275 1025 2328 
Q 1025 1384 1454 906 
Q 1884 428 2741 428 
Q 3075 428 3337 486 
Q 3600 544 3809 666 
z
" transform="scale(0.015625)"/>
       <path id="DejaVuSans-65" d="M 3597 1894 
L 3597 1613 
L 953 1613 
Q 991 1019 1311 708 
Q 1631 397 2203 397 
Q 2534 397 2845 478 
Q 3156 559 3463 722 
L 3463 178 
Q 3153 47 2828 -22 
Q 2503 -91 2169 -91 
Q 1331 -91 842 396 
Q 353 884 353 1716 
Q 353 2575 817 3079 
Q 1281 3584 2069 3584 
Q 2775 3584 3186 3129 
Q 3597 2675 3597 1894 
z
M 3022 2063 
Q 3016 2534 2758 2815 
Q 2500 3097 2075 3097 
Q 1594 3097 1305 2825 
Q 1016 2553 972 2059 
L 3022 2063 
z
" transform="scale(0.015625)"/>
       <path id="DejaVuSans-6e" d="M 3513 2113 
L 3513 0 
L 2938 0 
L 2938 2094 
Q 2938 2591 2744 2837 
Q 2550 3084 2163 3084 
Q 1697 3084 1428 2787 
Q 1159 2491 1159 1978 
L 1159 0 
L 581 0 
L 581 3500 
L 1159 3500 
L 1159 2956 
Q 1366 3272 1645 3428 
Q 1925 3584 2291 3584 
Q 2894 3584 3203 3211 
Q 3513 2838 3513 2113 
z
" transform="scale(0.015625)"/>
       <path id="DejaVuSans-72" d="M 2631 2963 
Q 2534 3019 2420 3045 
Q 2306 3072 2169 3072 
Q 1681 3072 1420 2755 
Q 1159 2438 1159 1844 
L 1159 0 
L 581 0 
L 581 3500 
L 1159 3500 
L 1159 2956 
Q 1341 3275 1631 3429 
Q 1922 3584 2338 3584 
Q 2397 3584 2469 3576 
Q 2541 3569 2628 3553 
L 2631 2963 
z
" transform="scale(0.015625)"/>
       <path id="DejaVuSans-61" d="M 2194 1759 
Q 1497 1759 1228 1600 
Q 959 1441 959 1056 
Q 959 750 1161 570 
Q 1363 391 1709 391 
Q 2188 391 2477 730 
Q 2766 1069 2766 1631 
L 2766 1759 
L 2194 1759 
z
M 3341 1997 
L 3341 0 
L 2766 0 
L 2766 531 
Q 2569 213 2275 61 
Q 1981 -91 1556 -91 
Q 1019 -91 701 211 
Q 384 513 384 1019 
Q 384 1609 779 1909 
Q 1175 2209 1959 2209 
L 2766 2209 
L 2766 2266 
Q 2766 2663 2505 2880 
Q 2244 3097 1772 3097 
Q 1472 3097 1187 3025 
Q 903 2953 641 2809 
L 641 3341 
Q 956 3463 1253 3523 
Q 1550 3584 1831 3584 
Q 2591 3584 2966 3190 
Q 3341 2797 3341 1997 
z
" transform="scale(0.015625)"/>
       <path id="DejaVuSans-63" d="M 3122 3366 
L 3122 2828 
Q 2878 2963 2633 3030 
Q 2388 3097 2138 3097 
Q 1578 3097 1268 2742 
Q 959 2388 959 1747 
Q 959 1106 1268 751 
Q 1578 397 2138 397 
Q 2388 397 2633 464 
Q 2878 531 3122 666 
L 3122 134 
Q 2881 22 2623 -34 
Q 2366 -91 2075 -91 
Q 1284 -91 818 406 
Q 353 903 353 1747 
Q 353 2603 823 3093 
Q 1294 3584 2113 3584 
Q 2378 3584 2631 3529 
Q 2884 3475 3122 3366 
z
" transform="scale(0.015625)"/>
       <path id="DejaVuSans-6a" d="M 603 3500 
L 1178 3500 
L 1178 -63 
Q 1178 -731 923 -1031 
Q 669 -1331 103 -1331 
L -116 -1331 
L -116 -844 
L 38 -844 
Q 366 -844 484 -692 
Q 603 -541 603 -63 
L 603 3500 
z
M 603 4863 
L 1178 4863 
L 1178 4134 
L 603 4134 
L 603 4863 
z
" transform="scale(0.015625)"/>
      </defs>
      <use xlink:href="#DejaVuSans-47"/>
      <use xlink:href="#DejaVuSans-65" transform="translate(77.490234 0)"/>
      <use xlink:href="#DejaVuSans-6e" transform="translate(139.013672 0)"/>
      <use xlink:href="#DejaVuSans-65" transform="translate(202.392578 0)"/>
      <use xlink:href="#DejaVuSans-72" transform="translate(263.916016 0)"/>
      <use xlink:href="#DejaVuSans-61" transform="translate(305.029297 0)"/>
      <use xlink:href="#DejaVuSans-63" transform="translate(366.308594 0)"/>
      <use xlink:href="#DejaVuSans-6a" transform="translate(421.289062 0)"/>
      <use xlink:href="#DejaVuSans-65" transform="translate(449.072266 0)"/>
     </g>
    </g>
   </g>
   <g id="matplotlib.axis_2">
    <g id="ytick_1">
     <g id="line2d_19">
      <path d="M 57.6 147.91688 
L 414.72 147.91688 
" clip-path="url(#paf7402f613)" style="fill: none; stroke: #b0b0b0; stroke-width: 0.8; stroke-linecap: square"/>
     </g>
     <g id="line2d_20">
      <defs>
       <path id="m8b382122a9" d="M 0 0 
L -3.5 0 
" style="stroke: #000000; stroke-width: 0.8"/>
      </defs>
      <g>
       <use xlink:href="#m8b382122a9" x="57.6" y="147.91688" style="stroke: #000000; stroke-width: 0.8"/>
      </g>
     </g>
     <g id="text_11">
      <!-- $\mathdefault{10^{2}}$ -->
      <g transform="translate(33 151.716099) scale(0.1 -0.1)">
       <use xlink:href="#DejaVuSans-31" transform="translate(0 0.765625)"/>
       <use xlink:href="#DejaVuSans-30" transform="translate(63.623047 0.765625)"/>
       <use xlink:href="#DejaVuSans-32" transform="translate(128.203125 39.046875) scale(0.7)"/>
      </g>
     </g>
    </g>
    <g id="text_12">
     <!-- Przystosowanie -->
     <g transform="translate(26.920312 213.170187) rotate(-90) scale(0.1 -0.1)">
      <defs>
       <path id="DejaVuSans-50" d="M 1259 4147 
L 1259 2394 
L 2053 2394 
Q 2494 2394 2734 2622 
Q 2975 2850 2975 3272 
Q 2975 3691 2734 3919 
Q 2494 4147 2053 4147 
L 1259 4147 
z
M 628 4666 
L 2053 4666 
Q 2838 4666 3239 4311 
Q 3641 3956 3641 3272 
Q 3641 2581 3239 2228 
Q 2838 1875 2053 1875 
L 1259 1875 
L 1259 0 
L 628 0 
L 628 4666 
z
" transform="scale(0.015625)"/>
       <path id="DejaVuSans-7a" d="M 353 3500 
L 3084 3500 
L 3084 2975 
L 922 459 
L 3084 459 
L 3084 0 
L 275 0 
L 275 525 
L 2438 3041 
L 353 3041 
L 353 3500 
z
" transform="scale(0.015625)"/>
       <path id="DejaVuSans-79" d="M 2059 -325 
Q 1816 -950 1584 -1140 
Q 1353 -1331 966 -1331 
L 506 -1331 
L 506 -850 
L 844 -850 
Q 1081 -850 1212 -737 
Q 1344 -625 1503 -206 
L 1606 56 
L 191 3500 
L 800 3500 
L 1894 763 
L 2988 3500 
L 3597 3500 
L 2059 -325 
z
" transform="scale(0.015625)"/>
       <path id="DejaVuSans-73" d="M 2834 3397 
L 2834 2853 
Q 2591 2978 2328 3040 
Q 2066 3103 1784 3103 
Q 1356 3103 1142 2972 
Q 928 2841 928 2578 
Q 928 2378 1081 2264 
Q 1234 2150 1697 2047 
L 1894 2003 
Q 2506 1872 2764 1633 
Q 3022 1394 3022 966 
Q 3022 478 2636 193 
Q 2250 -91 1575 -91 
Q 1294 -91 989 -36 
Q 684 19 347 128 
L 347 722 
Q 666 556 975 473 
Q 1284 391 1588 391 
Q 1994 391 2212 530 
Q 2431 669 2431 922 
Q 2431 1156 2273 1281 
Q 2116 1406 1581 1522 
L 1381 1569 
Q 847 1681 609 1914 
Q 372 2147 372 2553 
Q 372 3047 722 3315 
Q 1072 3584 1716 3584 
Q 2034 3584 2315 3537 
Q 2597 3491 2834 3397 
z
" transform="scale(0.015625)"/>
       <path id="DejaVuSans-74" d="M 1172 4494 
L 1172 3500 
L 2356 3500 
L 2356 3053 
L 1172 3053 
L 1172 1153 
Q 1172 725 1289 603 
Q 1406 481 1766 481 
L 2356 481 
L 2356 0 
L 1766 0 
Q 1100 0 847 248 
Q 594 497 594 1153 
L 594 3053 
L 172 3053 
L 172 3500 
L 594 3500 
L 594 4494 
L 1172 4494 
z
" transform="scale(0.015625)"/>
       <path id="DejaVuSans-6f" d="M 1959 3097 
Q 1497 3097 1228 2736 
Q 959 2375 959 1747 
Q 959 1119 1226 758 
Q 1494 397 1959 397 
Q 2419 397 2687 759 
Q 2956 1122 2956 1747 
Q 2956 2369 2687 2733 
Q 2419 3097 1959 3097 
z
M 1959 3584 
Q 2709 3584 3137 3096 
Q 3566 2609 3566 1747 
Q 3566 888 3137 398 
Q 2709 -91 1959 -91 
Q 1206 -91 779 398 
Q 353 888 353 1747 
Q 353 2609 779 3096 
Q 1206 3584 1959 3584 
z
" transform="scale(0.015625)"/>
       <path id="DejaVuSans-77" d="M 269 3500 
L 844 3500 
L 1563 769 
L 2278 3500 
L 2956 3500 
L 3675 769 
L 4391 3500 
L 4966 3500 
L 4050 0 
L 3372 0 
L 2619 2869 
L 1863 0 
L 1184 0 
L 269 3500 
z
" transform="scale(0.015625)"/>
       <path id="DejaVuSans-69" d="M 603 3500 
L 1178 3500 
L 1178 0 
L 603 0 
L 603 3500 
z
M 603 4863 
L 1178 4863 
L 1178 4134 
L 603 4134 
L 603 4863 
z
" transform="scale(0.015625)"/>
      </defs>
      <use xlink:href="#DejaVuSans-50"/>
      <use xlink:href="#DejaVuSans-72" transform="translate(58.552734 0)"/>
      <use xlink:href="#DejaVuSans-7a" transform="translate(99.666016 0)"/>
      <use xlink:href="#DejaVuSans-79" transform="translate(152.15625 0)"/>
      <use xlink:href="#DejaVuSans-73" transform="translate(211.335938 0)"/>
      <use xlink:href="#DejaVuSans-74" transform="translate(263.435547 0)"/>
      <use xlink:href="#DejaVuSans-6f" transform="translate(302.644531 0)"/>
      <use xlink:href="#DejaVuSans-73" transform="translate(363.826172 0)"/>
      <use xlink:href="#DejaVuSans-6f" transform="translate(415.925781 0)"/>
      <use xlink:href="#DejaVuSans-77" transform="translate(477.107422 0)"/>
      <use xlink:href="#DejaVuSans-61" transform="translate(558.894531 0)"/>
      <use xlink:href="#DejaVuSans-6e" transform="translate(620.173828 0)"/>
      <use xlink:href="#DejaVuSans-69" transform="translate(683.552734 0)"/>
      <use xlink:href="#DejaVuSans-65" transform="translate(711.335938 0)"/>
     </g>
    </g>
   </g>
   <g id="line2d_21">
    <path d="M 73.832727 295.488 
L 75.464157 246.248335 
L 77.095587 212.832834 
L 78.727017 194.394051 
L 80.358447 209.858625 
L 81.989877 202.519054 
L 83.621307 201.937624 
L 85.252736 192.16716 
L 86.884166 180.270757 
L 88.515596 183.865859 
L 90.147026 183.83391 
L 91.778456 179.83341 
L 95.041316 177.562153 
L 96.672746 177.855033 
L 98.304175 173.977608 
L 99.935605 173.602451 
L 101.567035 174.050718 
L 103.198465 175.339272 
L 104.829895 175.097575 
L 106.461325 181.903539 
L 108.092755 176.506797 
L 109.724185 175.922679 
L 111.355614 175.476817 
L 112.987044 173.382426 
L 114.618474 172.152775 
L 116.249904 174.703689 
L 119.512764 174.135349 
L 121.144194 172.602003 
L 122.775624 169.870909 
L 124.407053 171.256512 
L 126.038483 174.701157 
L 127.669913 173.78952 
L 129.301343 172.085735 
L 130.932773 173.578875 
L 132.564203 174.334916 
L 134.195633 173.892637 
L 135.827063 170.921306 
L 137.458492 171.300895 
L 139.089922 170.953371 
L 140.721352 169.894504 
L 142.352782 170.398815 
L 143.984212 171.411667 
L 145.615642 169.859587 
L 147.247072 170.078834 
L 148.878502 172.043701 
L 150.509931 170.373222 
L 152.141361 169.154763 
L 153.772791 171.382015 
L 155.404221 169.574086 
L 157.035651 172.317771 
L 158.667081 167.629598 
L 160.298511 170.416095 
L 161.929941 168.154152 
L 163.56137 167.868081 
L 165.1928 168.281841 
L 166.82423 169.728816 
L 168.45566 168.395708 
L 170.08709 168.538518 
L 171.71852 167.933713 
L 173.34995 168.014762 
L 176.61281 167.38219 
L 178.244239 168.454338 
L 179.875669 171.488622 
L 181.507099 168.699239 
L 184.769959 171.12388 
L 186.401389 168.735543 
L 188.032819 167.532216 
L 189.664249 169.080505 
L 191.295678 167.226504 
L 192.927108 166.371354 
L 194.558538 166.205269 
L 196.189968 170.278445 
L 197.821398 166.223398 
L 199.452828 165.729465 
L 201.084258 166.714638 
L 202.715688 169.305297 
L 204.347117 164.425248 
L 205.978547 166.430992 
L 207.609977 167.539918 
L 209.241407 167.443616 
L 210.872837 168.649903 
L 212.504267 168.08661 
L 214.135697 166.986104 
L 215.767127 169.521638 
L 217.398556 166.936219 
L 219.029986 165.980867 
L 220.661416 168.174947 
L 222.292846 164.264438 
L 223.924276 168.722072 
L 225.555706 167.005614 
L 227.187136 168.40935 
L 228.818566 168.245616 
L 232.081425 166.161602 
L 233.712855 168.076297 
L 235.344285 165.500103 
L 236.975715 166.185852 
L 238.607145 165.370995 
L 240.238575 166.427677 
L 241.870005 167.143175 
L 243.501434 166.300125 
L 245.132864 168.522809 
L 246.764294 166.7365 
L 248.395724 167.519403 
L 250.027154 167.927358 
L 251.658584 168.608064 
L 253.290014 167.087346 
L 254.921444 167.738184 
L 256.552873 166.999435 
L 258.184303 165.651794 
L 259.815733 168.520337 
L 261.447163 169.057889 
L 263.078593 165.412014 
L 264.710023 169.196135 
L 266.341453 166.831815 
L 267.972883 167.210071 
L 269.604312 167.117822 
L 271.235742 166.518929 
L 272.867172 168.944286 
L 274.498602 169.83583 
L 276.130032 167.935482 
L 277.761462 165.632395 
L 279.392892 171.067981 
L 281.024322 166.056597 
L 282.655751 168.272565 
L 285.918611 168.989679 
L 287.550041 169.885344 
L 289.181471 166.190854 
L 290.812901 165.410491 
L 292.444331 166.496788 
L 294.075761 169.145598 
L 295.70719 169.264287 
L 297.33862 167.109706 
L 298.97005 169.382407 
L 300.60148 168.708794 
L 302.23291 169.800002 
L 303.86434 166.770459 
L 305.49577 168.048903 
L 307.1272 166.867279 
L 308.75863 169.603649 
L 310.390059 166.418384 
L 312.021489 167.593178 
L 313.652919 167.415469 
L 315.284349 169.442263 
L 316.915779 169.121761 
L 318.547209 166.428985 
L 320.178639 167.50634 
L 321.810069 167.409416 
L 323.441498 170.029678 
L 325.072928 167.054976 
L 326.704358 165.612903 
L 328.335788 166.810341 
L 329.967218 165.905669 
L 331.598648 167.294412 
L 333.230078 167.870021 
L 334.861508 165.323743 
L 336.492937 166.739994 
L 338.124367 166.169587 
L 339.755797 168.175051 
L 341.387227 167.919121 
L 343.018657 169.87339 
L 344.650087 167.520222 
L 346.281517 165.634157 
L 347.912947 166.482647 
L 349.544376 168.560522 
L 351.175806 167.671304 
L 352.807236 168.135277 
L 354.438666 167.162137 
L 356.070096 166.7429 
L 357.701526 167.264055 
L 359.332956 166.849722 
L 360.964386 167.425649 
L 362.595815 168.698516 
L 364.227245 166.365325 
L 365.858675 166.892078 
L 367.490105 164.919448 
L 369.121535 168.616473 
L 370.752965 167.880507 
L 374.015825 167.17595 
L 375.647254 169.608424 
L 377.278684 166.974684 
L 378.910114 166.684407 
L 380.541544 169.291051 
L 382.172974 167.847595 
L 383.804404 167.035487 
L 385.435834 169.346939 
L 387.067264 164.770607 
L 388.698693 167.248003 
L 390.330123 168.160493 
L 391.961553 165.258007 
L 393.592983 165.109132 
L 395.224413 165.143511 
L 396.855843 167.277392 
L 398.487273 167.014585 
L 398.487273 167.014585 
" clip-path="url(#paf7402f613)" style="fill: none; stroke: #0000ff; stroke-width: 1.5; stroke-linecap: square"/>
   </g>
   <g id="line2d_22">
    <path d="M 73.832727 243.91981 
L 75.464157 195.437663 
L 77.095587 168.606972 
L 78.727017 151.115838 
L 80.358447 166.80667 
L 81.989877 163.654617 
L 83.621307 170.083177 
L 85.252736 160.006943 
L 86.884166 152.365798 
L 88.515596 149.438274 
L 90.147026 152.437828 
L 91.778456 150.533933 
L 93.409886 150.262056 
L 95.041316 152.146745 
L 96.672746 154.622743 
L 98.304175 150.525683 
L 99.935605 150.095549 
L 101.567035 153.490337 
L 103.198465 152.311519 
L 104.829895 152.260739 
L 106.461325 155.917392 
L 108.092755 152.980848 
L 109.724185 149.807494 
L 111.355614 151.411084 
L 112.987044 150.017235 
L 114.618474 150.743281 
L 116.249904 151.237609 
L 117.881334 150.60797 
L 119.512764 152.049179 
L 121.144194 149.380828 
L 122.775624 145.365595 
L 124.407053 144.97177 
L 126.038483 152.251027 
L 127.669913 149.445165 
L 129.301343 148.228044 
L 130.932773 151.610239 
L 132.564203 153.176508 
L 134.195633 153.736267 
L 135.827063 148.988812 
L 137.458492 151.297947 
L 139.089922 148.991815 
L 140.721352 148.801267 
L 142.352782 147.154119 
L 143.984212 149.897288 
L 145.615642 146.73414 
L 147.247072 149.794725 
L 148.878502 152.578536 
L 150.509931 148.735725 
L 152.141361 145.862586 
L 153.772791 150.779807 
L 155.404221 147.704372 
L 157.035651 151.32928 
L 158.667081 148.131948 
L 160.298511 151.122076 
L 161.929941 146.562786 
L 163.56137 147.723994 
L 165.1928 146.055923 
L 166.82423 148.5922 
L 168.45566 148.229324 
L 170.08709 150.193861 
L 171.71852 147.713856 
L 173.34995 145.952916 
L 174.98138 147.01365 
L 176.61281 147.469738 
L 178.244239 148.264318 
L 179.875669 151.292234 
L 181.507099 150.400502 
L 183.138529 148.169908 
L 184.769959 151.555589 
L 186.401389 149.524446 
L 188.032819 148.042996 
L 189.664249 149.351468 
L 191.295678 149.090837 
L 192.927108 146.877162 
L 194.558538 145.42662 
L 196.189968 148.174431 
L 199.452828 144.097815 
L 201.084258 146.099195 
L 202.715688 150.379433 
L 204.347117 143.374466 
L 205.978547 145.392995 
L 207.609977 148.034084 
L 209.241407 146.43335 
L 212.504267 148.193441 
L 214.135697 146.803924 
L 215.767127 148.647857 
L 217.398556 146.801727 
L 219.029986 145.725618 
L 220.661416 147.223061 
L 222.292846 144.256593 
L 223.924276 147.594662 
L 225.555706 146.41331 
L 227.187136 149.782554 
L 228.818566 149.278181 
L 230.449995 148.484304 
L 232.081425 147.237798 
L 233.712855 147.072288 
L 235.344285 146.593907 
L 236.975715 146.575626 
L 238.607145 143.797191 
L 240.238575 146.022001 
L 241.870005 146.842832 
L 243.501434 146.018989 
L 245.132864 149.269677 
L 246.764294 147.717693 
L 248.395724 149.026511 
L 250.027154 147.79081 
L 251.658584 148.198691 
L 253.290014 147.875316 
L 254.921444 146.710904 
L 256.552873 146.988572 
L 258.184303 146.504119 
L 259.815733 148.497317 
L 261.447163 150.007036 
L 263.078593 145.552198 
L 264.710023 150.448005 
L 266.341453 147.072734 
L 267.972883 146.789789 
L 269.604312 148.640597 
L 271.235742 149.271528 
L 272.867172 151.000078 
L 274.498602 148.756917 
L 276.130032 150.624148 
L 277.761462 146.432312 
L 279.392892 153.780059 
L 281.024322 145.298195 
L 282.655751 149.157588 
L 284.287181 147.120464 
L 285.918611 151.779672 
L 287.550041 150.798867 
L 289.181471 145.573453 
L 290.812901 145.278631 
L 292.444331 147.059784 
L 294.075761 149.637402 
L 295.70719 150.069272 
L 297.33862 148.297056 
L 298.97005 148.835106 
L 300.60148 149.552642 
L 302.23291 151.504897 
L 303.86434 144.713767 
L 305.49577 148.445202 
L 307.1272 146.838998 
L 308.75863 149.673791 
L 310.390059 146.718726 
L 312.021489 146.132597 
L 313.652919 147.940159 
L 315.284349 148.261443 
L 316.915779 149.636263 
L 318.547209 148.39275 
L 320.178639 148.784267 
L 321.810069 148.040211 
L 323.441498 151.501252 
L 325.072928 147.376757 
L 326.704358 144.393592 
L 328.335788 145.167132 
L 329.967218 144.578353 
L 331.598648 148.377095 
L 333.230078 148.232173 
L 334.861508 146.492376 
L 336.492937 145.767601 
L 339.755797 149.613651 
L 341.387227 148.676381 
L 343.018657 148.540438 
L 344.650087 147.050761 
L 346.281517 145.329563 
L 347.912947 146.813001 
L 349.544376 149.211408 
L 351.175806 148.115999 
L 352.807236 147.767962 
L 354.438666 148.553537 
L 357.701526 146.465513 
L 359.332956 144.305292 
L 360.964386 147.776151 
L 362.595815 150.071694 
L 364.227245 147.165921 
L 365.858675 146.432784 
L 367.490105 143.273981 
L 369.121535 147.895823 
L 370.752965 147.338194 
L 372.384395 147.688437 
L 374.015825 147.05496 
L 375.647254 151.464635 
L 377.278684 147.586909 
L 378.910114 147.706898 
L 380.541544 150.657521 
L 382.172974 148.324454 
L 383.804404 146.67889 
L 385.435834 148.406049 
L 387.067264 144.294123 
L 388.698693 147.461248 
L 390.330123 149.740804 
L 391.961553 144.140238 
L 393.592983 142.7494 
L 395.224413 145.427488 
L 396.855843 149.060251 
L 398.487273 148.28589 
L 398.487273 148.28589 
" clip-path="url(#paf7402f613)" style="fill: none; stroke-dasharray: 9.6,2.4,1.5,2.4; stroke-dashoffset: 0; stroke: #008000; stroke-width: 1.5"/>
   </g>
   <g id="line2d_23">
    <path d="M 73.832727 138.185022 
L 75.464157 138.459731 
L 77.095587 121.056841 
L 78.727017 77.454388 
L 80.358447 117.709759 
L 81.989877 103.11068 
L 83.621307 110.072968 
L 85.252736 103.332299 
L 86.884166 106.267373 
L 88.515596 113.327933 
L 90.147026 117.20338 
L 91.778456 121.947049 
L 93.409886 66.425048 
L 95.041316 96.5287 
L 96.672746 113.80148 
L 98.304175 109.812061 
L 99.935605 106.703601 
L 101.567035 113.226349 
L 103.198465 106.502135 
L 104.829895 117.284909 
L 106.461325 114.033763 
L 108.092755 96.091796 
L 109.724185 113.715405 
L 111.355614 102.568041 
L 112.987044 109.80964 
L 114.618474 110.089785 
L 116.249904 106.0747 
L 117.881334 89.956155 
L 119.512764 106.44077 
L 121.144194 106.408936 
L 122.775624 86.508985 
L 124.407053 53.889361 
L 126.038483 103.266155 
L 127.669913 99.43641 
L 129.301343 71.630295 
L 130.932773 113.923444 
L 132.564203 103.145388 
L 134.195633 114.115521 
L 135.827063 102.940966 
L 137.458492 105.963231 
L 139.089922 106.820562 
L 140.721352 117.292714 
L 142.352782 93.289191 
L 143.984212 96.962991 
L 145.615642 63.72917 
L 147.247072 102.821792 
L 148.878502 103.158816 
L 150.509931 102.963484 
L 152.141361 109.684206 
L 153.772791 102.640224 
L 155.404221 102.646315 
L 157.035651 117.181468 
L 158.667081 93.01332 
L 160.298511 103.513855 
L 161.929941 86.45244 
L 163.56137 93.311806 
L 165.1928 86.597306 
L 166.82423 89.460407 
L 168.45566 93.431212 
L 170.08709 102.639923 
L 171.71852 99.441675 
L 173.34995 93.038542 
L 174.98138 83.743114 
L 176.61281 109.781999 
L 178.244239 74.937963 
L 179.875669 106.625824 
L 181.507099 106.637082 
L 183.138529 80.645967 
L 184.769959 113.352596 
L 186.401389 96.700472 
L 188.032819 103.103467 
L 189.664249 106.134305 
L 191.295678 121.163274 
L 192.927108 89.569397 
L 194.558538 93.382111 
L 196.189968 109.808499 
L 197.821398 83.849772 
L 199.452828 80.819336 
L 202.715688 92.346922 
L 204.347117 96.681571 
L 205.978547 89.642206 
L 207.609977 102.658623 
L 209.241407 113.42322 
L 210.872837 104.176345 
L 212.504267 86.183547 
L 214.135697 103.160071 
L 215.767127 69.592645 
L 217.398556 81.175032 
L 219.029986 89.548329 
L 220.661416 102.972394 
L 222.292846 81.079545 
L 223.924276 92.973729 
L 225.555706 86.475486 
L 227.187136 121.197417 
L 228.818566 103.626459 
L 230.449995 107.123401 
L 232.081425 102.649051 
L 233.712855 92.901441 
L 235.344285 106.154876 
L 236.975715 86.198936 
L 238.607145 109.559431 
L 240.238575 99.407551 
L 241.870005 92.752763 
L 243.501434 99.868717 
L 245.132864 99.371782 
L 246.764294 113.538183 
L 248.395724 113.715733 
L 250.027154 93.167624 
L 251.658584 113.367424 
L 253.290014 99.53532 
L 254.921444 77.386849 
L 256.552873 81.040917 
L 258.184303 93.086286 
L 259.815733 90.369744 
L 261.447163 103.674098 
L 263.078593 102.939867 
L 264.710023 110.124026 
L 266.341453 100.046573 
L 267.972883 83.546304 
L 269.604312 92.955826 
L 271.235742 106.784663 
L 272.867172 102.366273 
L 274.498602 78.009365 
L 276.130032 117.346771 
L 277.761462 113.490893 
L 279.392892 106.181515 
L 281.024322 99.903651 
L 282.655751 109.900218 
L 284.287181 89.678711 
L 285.918611 121.111478 
L 287.550041 109.784236 
L 289.181471 99.352728 
L 290.812901 87.104545 
L 292.444331 103.474663 
L 294.075761 113.420173 
L 295.70719 93.208393 
L 297.33862 83.371384 
L 298.97005 93.019106 
L 300.60148 106.311862 
L 302.23291 102.697306 
L 303.86434 86.576734 
L 307.1272 106.138875 
L 308.75863 99.532711 
L 310.390059 99.149715 
L 312.021489 106.057192 
L 313.652919 106.473094 
L 315.284349 77.600384 
L 316.915779 78.45199 
L 318.547209 113.748582 
L 320.178639 113.708487 
L 321.810069 117.469076 
L 323.441498 117.284324 
L 325.072928 80.948139 
L 326.704358 86.960228 
L 328.335788 83.426612 
L 329.967218 86.442198 
L 331.598648 92.735039 
L 333.230078 96.132609 
L 334.861508 89.845164 
L 336.492937 89.741805 
L 338.124367 96.060036 
L 339.755797 100.260652 
L 341.387227 80.879592 
L 343.018657 53.75289 
L 344.650087 106.361744 
L 346.281517 99.715589 
L 347.912947 96.840634 
L 349.544376 89.791367 
L 351.175806 109.840586 
L 352.807236 110.108554 
L 354.438666 99.306421 
L 356.070096 109.640391 
L 357.701526 89.510145 
L 359.332956 53.568 
L 360.964386 100.224345 
L 362.595815 106.582944 
L 364.227245 103.481621 
L 365.858675 99.700923 
L 367.490105 64.163789 
L 369.121535 102.857816 
L 370.752965 75.386891 
L 372.384395 99.706466 
L 374.015825 86.550389 
L 375.647254 106.606534 
L 377.278684 106.618576 
L 378.910114 103.669658 
L 380.541544 102.818916 
L 382.172974 106.402488 
L 383.804404 102.941126 
L 385.435834 93.198015 
L 387.067264 80.787551 
L 388.698693 80.730938 
L 390.330123 92.753466 
L 391.961553 92.979208 
L 393.592983 100.035734 
L 395.224413 95.982825 
L 396.855843 106.544763 
L 398.487273 89.376816 
L 398.487273 89.376816 
" clip-path="url(#paf7402f613)" style="fill: none; stroke: #ff0000; stroke-width: 1.5; stroke-linecap: square"/>
   </g>
   <g id="patch_3">
    <path d="M 57.6 307.584 
L 57.6 41.472 
" style="fill: none; stroke: #000000; stroke-width: 0.8; stroke-linejoin: miter; stroke-linecap: square"/>
   </g>
   <g id="patch_4">
    <path d="M 414.72 307.584 
L 414.72 41.472 
" style="fill: none; stroke: #000000; stroke-width: 0.8; stroke-linejoin: miter; stroke-linecap: square"/>
   </g>
   <g id="patch_5">
    <path d="M 57.6 307.584 
L 414.72 307.584 
" style="fill: none; stroke: #000000; stroke-width: 0.8; stroke-linejoin: miter; stroke-linecap: square"/>
   </g>
   <g id="patch_6">
    <path d="M 57.6 41.472 
L 414.72 41.472 
" style="fill: none; stroke: #000000; stroke-width: 0.8; stroke-linejoin: miter; stroke-linecap: square"/>
   </g>
   <g id="text_13">
    <!-- Średnie i najlepsze przystosowanie w każdej generacji -->
    <g transform="translate(73.26 35.472) scale(0.12 -0.12)">
     <defs>
      <path id="DejaVuSans-15a" d="M 2236 5921 
L 2814 5921 
L 2102 5096 
L 1623 5096 
L 2236 5921 
z
M 3425 4513 
L 3425 3897 
Q 3066 4069 2747 4153 
Q 2428 4238 2131 4238 
Q 1616 4238 1336 4038 
Q 1056 3838 1056 3469 
Q 1056 3159 1242 3001 
Q 1428 2844 1947 2747 
L 2328 2669 
Q 3034 2534 3370 2195 
Q 3706 1856 3706 1288 
Q 3706 609 3251 259 
Q 2797 -91 1919 -91 
Q 1588 -91 1214 -16 
Q 841 59 441 206 
L 441 856 
Q 825 641 1194 531 
Q 1563 422 1919 422 
Q 2459 422 2753 634 
Q 3047 847 3047 1241 
Q 3047 1584 2836 1778 
Q 2625 1972 2144 2069 
L 1759 2144 
Q 1053 2284 737 2584 
Q 422 2884 422 3419 
Q 422 4038 858 4394 
Q 1294 4750 2059 4750 
Q 2388 4750 2728 4690 
Q 3069 4631 3425 4513 
z
" transform="scale(0.015625)"/>
      <path id="DejaVuSans-64" d="M 2906 2969 
L 2906 4863 
L 3481 4863 
L 3481 0 
L 2906 0 
L 2906 525 
Q 2725 213 2448 61 
Q 2172 -91 1784 -91 
Q 1150 -91 751 415 
Q 353 922 353 1747 
Q 353 2572 751 3078 
Q 1150 3584 1784 3584 
Q 2172 3584 2448 3432 
Q 2725 3281 2906 2969 
z
M 947 1747 
Q 947 1113 1208 752 
Q 1469 391 1925 391 
Q 2381 391 2643 752 
Q 2906 1113 2906 1747 
Q 2906 2381 2643 2742 
Q 2381 3103 1925 3103 
Q 1469 3103 1208 2742 
Q 947 2381 947 1747 
z
" transform="scale(0.015625)"/>
      <path id="DejaVuSans-20" transform="scale(0.015625)"/>
      <path id="DejaVuSans-6c" d="M 603 4863 
L 1178 4863 
L 1178 0 
L 603 0 
L 603 4863 
z
" transform="scale(0.015625)"/>
      <path id="DejaVuSans-70" d="M 1159 525 
L 1159 -1331 
L 581 -1331 
L 581 3500 
L 1159 3500 
L 1159 2969 
Q 1341 3281 1617 3432 
Q 1894 3584 2278 3584 
Q 2916 3584 3314 3078 
Q 3713 2572 3713 1747 
Q 3713 922 3314 415 
Q 2916 -91 2278 -91 
Q 1894 -91 1617 61 
Q 1341 213 1159 525 
z
M 3116 1747 
Q 3116 2381 2855 2742 
Q 2594 3103 2138 3103 
Q 1681 3103 1420 2742 
Q 1159 2381 1159 1747 
Q 1159 1113 1420 752 
Q 1681 391 2138 391 
Q 2594 391 2855 752 
Q 3116 1113 3116 1747 
z
" transform="scale(0.015625)"/>
      <path id="DejaVuSans-6b" d="M 581 4863 
L 1159 4863 
L 1159 1991 
L 2875 3500 
L 3609 3500 
L 1753 1863 
L 3688 0 
L 2938 0 
L 1159 1709 
L 1159 0 
L 581 0 
L 581 4863 
z
" transform="scale(0.015625)"/>
      <path id="DejaVuSans-17c" d="M 1378 4863 
L 1953 4863 
L 1953 4134 
L 1378 4134 
L 1378 4863 
z
M 1672 3584 
L 1672 3584 
z
M 353 3500 
L 3084 3500 
L 3084 2975 
L 922 459 
L 3084 459 
L 3084 0 
L 275 0 
L 275 525 
L 2438 3041 
L 353 3041 
L 353 3500 
z
" transform="scale(0.015625)"/>
      <path id="DejaVuSans-67" d="M 2906 1791 
Q 2906 2416 2648 2759 
Q 2391 3103 1925 3103 
Q 1463 3103 1205 2759 
Q 947 2416 947 1791 
Q 947 1169 1205 825 
Q 1463 481 1925 481 
Q 2391 481 2648 825 
Q 2906 1169 2906 1791 
z
M 3481 434 
Q 3481 -459 3084 -895 
Q 2688 -1331 1869 -1331 
Q 1566 -1331 1297 -1286 
Q 1028 -1241 775 -1147 
L 775 -588 
Q 1028 -725 1275 -790 
Q 1522 -856 1778 -856 
Q 2344 -856 2625 -561 
Q 2906 -266 2906 331 
L 2906 616 
Q 2728 306 2450 153 
Q 2172 0 1784 0 
Q 1141 0 747 490 
Q 353 981 353 1791 
Q 353 2603 747 3093 
Q 1141 3584 1784 3584 
Q 2172 3584 2450 3431 
Q 2728 3278 2906 2969 
L 2906 3500 
L 3481 3500 
L 3481 434 
z
" transform="scale(0.015625)"/>
     </defs>
     <use xlink:href="#DejaVuSans-15a"/>
     <use xlink:href="#DejaVuSans-72" transform="translate(63.476562 0)"/>
     <use xlink:href="#DejaVuSans-65" transform="translate(102.339844 0)"/>
     <use xlink:href="#DejaVuSans-64" transform="translate(163.863281 0)"/>
     <use xlink:href="#DejaVuSans-6e" transform="translate(227.339844 0)"/>
     <use xlink:href="#DejaVuSans-69" transform="translate(290.71875 0)"/>
     <use xlink:href="#DejaVuSans-65" transform="translate(318.501953 0)"/>
     <use xlink:href="#DejaVuSans-20" transform="translate(380.025391 0)"/>
     <use xlink:href="#DejaVuSans-69" transform="translate(411.8125 0)"/>
     <use xlink:href="#DejaVuSans-20" transform="translate(439.595703 0)"/>
     <use xlink:href="#DejaVuSans-6e" transform="translate(471.382812 0)"/>
     <use xlink:href="#DejaVuSans-61" transform="translate(534.761719 0)"/>
     <use xlink:href="#DejaVuSans-6a" transform="translate(596.041016 0)"/>
     <use xlink:href="#DejaVuSans-6c" transform="translate(623.824219 0)"/>
     <use xlink:href="#DejaVuSans-65" transform="translate(651.607422 0)"/>
     <use xlink:href="#DejaVuSans-70" transform="translate(713.130859 0)"/>
     <use xlink:href="#DejaVuSans-73" transform="translate(776.607422 0)"/>
     <use xlink:href="#DejaVuSans-7a" transform="translate(828.707031 0)"/>
     <use xlink:href="#DejaVuSans-65" transform="translate(881.197266 0)"/>
     <use xlink:href="#DejaVuSans-20" transform="translate(942.720703 0)"/>
     <use xlink:href="#DejaVuSans-70" transform="translate(974.507812 0)"/>
     <use xlink:href="#DejaVuSans-72" transform="translate(1037.984375 0)"/>
     <use xlink:href="#DejaVuSans-7a" transform="translate(1079.097656 0)"/>
     <use xlink:href="#DejaVuSans-79" transform="translate(1131.587891 0)"/>
     <use xlink:href="#DejaVuSans-73" transform="translate(1190.767578 0)"/>
     <use xlink:href="#DejaVuSans-74" transform="translate(1242.867188 0)"/>
     <use xlink:href="#DejaVuSans-6f" transform="translate(1282.076172 0)"/>
     <use xlink:href="#DejaVuSans-73" transform="translate(1343.257812 0)"/>
     <use xlink:href="#DejaVuSans-6f" transform="translate(1395.357422 0)"/>
     <use xlink:href="#DejaVuSans-77" transform="translate(1456.539062 0)"/>
     <use xlink:href="#DejaVuSans-61" transform="translate(1538.326172 0)"/>
     <use xlink:href="#DejaVuSans-6e" transform="translate(1599.605469 0)"/>
     <use xlink:href="#DejaVuSans-69" transform="translate(1662.984375 0)"/>
     <use xlink:href="#DejaVuSans-65" transform="translate(1690.767578 0)"/>
     <use xlink:href="#DejaVuSans-20" transform="translate(1752.291016 0)"/>
     <use xlink:href="#DejaVuSans-77" transform="translate(1784.078125 0)"/>
     <use xlink:href="#DejaVuSans-20" transform="translate(1865.865234 0)"/>
     <use xlink:href="#DejaVuSans-6b" transform="translate(1897.652344 0)"/>
     <use xlink:href="#DejaVuSans-61" transform="translate(1953.8125 0)"/>
     <use xlink:href="#DejaVuSans-17c" transform="translate(2015.091797 0)"/>
     <use xlink:href="#DejaVuSans-64" transform="translate(2067.582031 0)"/>
     <use xlink:href="#DejaVuSans-65" transform="translate(2131.058594 0)"/>
     <use xlink:href="#DejaVuSans-6a" transform="translate(2192.582031 0)"/>
     <use xlink:href="#DejaVuSans-20" transform="translate(2220.365234 0)"/>
     <use xlink:href="#DejaVuSans-67" transform="translate(2252.152344 0)"/>
     <use xlink:href="#DejaVuSans-65" transform="translate(2315.628906 0)"/>
     <use xlink:href="#DejaVuSans-6e" transform="translate(2377.152344 0)"/>
     <use xlink:href="#DejaVuSans-65" transform="translate(2440.53125 0)"/>
     <use xlink:href="#DejaVuSans-72" transform="translate(2502.054688 0)"/>
     <use xlink:href="#DejaVuSans-61" transform="translate(2543.167969 0)"/>
     <use xlink:href="#DejaVuSans-63" transform="translate(2604.447266 0)"/>
     <use xlink:href="#DejaVuSans-6a" transform="translate(2659.427734 0)"/>
     <use xlink:href="#DejaVuSans-69" transform="translate(2687.210938 0)"/>
    </g>
   </g>
   <g id="legend_1">
    <g id="patch_7">
     <path d="M 279.790313 302.584 
L 407.72 302.584 
Q 409.72 302.584 409.72 300.584 
L 409.72 257.549625 
Q 409.72 255.549625 407.72 255.549625 
L 279.790313 255.549625 
Q 277.790313 255.549625 277.790313 257.549625 
L 277.790313 300.584 
Q 277.790313 302.584 279.790313 302.584 
z
" style="fill: #ffffff; opacity: 0.8; stroke: #cccccc; stroke-linejoin: miter"/>
    </g>
    <g id="line2d_24">
     <path d="M 281.790313 263.648062 
L 291.790313 263.648062 
L 301.790313 263.648062 
" style="fill: none; stroke: #0000ff; stroke-width: 1.5; stroke-linecap: square"/>
    </g>
    <g id="text_14">
     <!-- Średnia -->
     <g transform="translate(309.790313 267.148062) scale(0.1 -0.1)">
      <use xlink:href="#DejaVuSans-15a"/>
      <use xlink:href="#DejaVuSans-72" transform="translate(63.476562 0)"/>
      <use xlink:href="#DejaVuSans-65" transform="translate(102.339844 0)"/>
      <use xlink:href="#DejaVuSans-64" transform="translate(163.863281 0)"/>
      <use xlink:href="#DejaVuSans-6e" transform="translate(227.339844 0)"/>
      <use xlink:href="#DejaVuSans-69" transform="translate(290.71875 0)"/>
      <use xlink:href="#DejaVuSans-61" transform="translate(318.501953 0)"/>
     </g>
    </g>
    <g id="line2d_25">
     <path d="M 281.790313 278.326188 
L 291.790313 278.326188 
L 301.790313 278.326188 
" style="fill: none; stroke-dasharray: 9.6,2.4,1.5,2.4; stroke-dashoffset: 0; stroke: #008000; stroke-width: 1.5"/>
    </g>
    <g id="text_15">
     <!-- ±1 Odchylenie std. -->
     <g transform="translate(309.790313 281.826188) scale(0.1 -0.1)">
      <defs>
       <path id="DejaVuSans-b1" d="M 2944 4013 
L 2944 2803 
L 4684 2803 
L 4684 2272 
L 2944 2272 
L 2944 1063 
L 2419 1063 
L 2419 2272 
L 678 2272 
L 678 2803 
L 2419 2803 
L 2419 4013 
L 2944 4013 
z
M 678 531 
L 4684 531 
L 4684 0 
L 678 0 
L 678 531 
z
" transform="scale(0.015625)"/>
       <path id="DejaVuSans-4f" d="M 2522 4238 
Q 1834 4238 1429 3725 
Q 1025 3213 1025 2328 
Q 1025 1447 1429 934 
Q 1834 422 2522 422 
Q 3209 422 3611 934 
Q 4013 1447 4013 2328 
Q 4013 3213 3611 3725 
Q 3209 4238 2522 4238 
z
M 2522 4750 
Q 3503 4750 4090 4092 
Q 4678 3434 4678 2328 
Q 4678 1225 4090 567 
Q 3503 -91 2522 -91 
Q 1538 -91 948 565 
Q 359 1222 359 2328 
Q 359 3434 948 4092 
Q 1538 4750 2522 4750 
z
" transform="scale(0.015625)"/>
       <path id="DejaVuSans-68" d="M 3513 2113 
L 3513 0 
L 2938 0 
L 2938 2094 
Q 2938 2591 2744 2837 
Q 2550 3084 2163 3084 
Q 1697 3084 1428 2787 
Q 1159 2491 1159 1978 
L 1159 0 
L 581 0 
L 581 4863 
L 1159 4863 
L 1159 2956 
Q 1366 3272 1645 3428 
Q 1925 3584 2291 3584 
Q 2894 3584 3203 3211 
Q 3513 2838 3513 2113 
z
" transform="scale(0.015625)"/>
       <path id="DejaVuSans-2e" d="M 684 794 
L 1344 794 
L 1344 0 
L 684 0 
L 684 794 
z
" transform="scale(0.015625)"/>
      </defs>
      <use xlink:href="#DejaVuSans-b1"/>
      <use xlink:href="#DejaVuSans-31" transform="translate(83.789062 0)"/>
      <use xlink:href="#DejaVuSans-20" transform="translate(147.412109 0)"/>
      <use xlink:href="#DejaVuSans-4f" transform="translate(179.199219 0)"/>
      <use xlink:href="#DejaVuSans-64" transform="translate(257.910156 0)"/>
      <use xlink:href="#DejaVuSans-63" transform="translate(321.386719 0)"/>
      <use xlink:href="#DejaVuSans-68" transform="translate(376.367188 0)"/>
      <use xlink:href="#DejaVuSans-79" transform="translate(439.746094 0)"/>
      <use xlink:href="#DejaVuSans-6c" transform="translate(498.925781 0)"/>
      <use xlink:href="#DejaVuSans-65" transform="translate(526.708984 0)"/>
      <use xlink:href="#DejaVuSans-6e" transform="translate(588.232422 0)"/>
      <use xlink:href="#DejaVuSans-69" transform="translate(651.611328 0)"/>
      <use xlink:href="#DejaVuSans-65" transform="translate(679.394531 0)"/>
      <use xlink:href="#DejaVuSans-20" transform="translate(740.917969 0)"/>
      <use xlink:href="#DejaVuSans-73" transform="translate(772.705078 0)"/>
      <use xlink:href="#DejaVuSans-74" transform="translate(824.804688 0)"/>
      <use xlink:href="#DejaVuSans-64" transform="translate(864.013672 0)"/>
      <use xlink:href="#DejaVuSans-2e" transform="translate(927.490234 0)"/>
     </g>
    </g>
    <g id="line2d_26">
     <path d="M 281.790313 293.004312 
L 291.790313 293.004312 
L 301.790313 293.004312 
" style="fill: none; stroke: #ff0000; stroke-width: 1.5; stroke-linecap: square"/>
    </g>
    <g id="text_16">
     <!-- Najlepsze -->
     <g transform="translate(309.790313 296.504312) scale(0.1 -0.1)">
      <defs>
       <path id="DejaVuSans-4e" d="M 628 4666 
L 1478 4666 
L 3547 763 
L 3547 4666 
L 4159 4666 
L 4159 0 
L 3309 0 
L 1241 3903 
L 1241 0 
L 628 0 
L 628 4666 
z
" transform="scale(0.015625)"/>
      </defs>
      <use xlink:href="#DejaVuSans-4e"/>
      <use xlink:href="#DejaVuSans-61" transform="translate(74.804688 0)"/>
      <use xlink:href="#DejaVuSans-6a" transform="translate(136.083984 0)"/>
      <use xlink:href="#DejaVuSans-6c" transform="translate(163.867188 0)"/>
      <use xlink:href="#DejaVuSans-65" transform="translate(191.650391 0)"/>
      <use xlink:href="#DejaVuSans-70" transform="translate(253.173828 0)"/>
      <use xlink:href="#DejaVuSans-73" transform="translate(316.650391 0)"/>
      <use xlink:href="#DejaVuSans-7a" transform="translate(368.75 0)"/>
      <use xlink:href="#DejaVuSans-65" transform="translate(421.240234 0)"/>
     </g>
    </g>
   </g>
  </g>
 </g>
 <defs>
  <clipPath id="paf7402f613">
   <rect x="57.6" y="41.472" width="357.12" height="266.112"/>
  </clipPath>
 </defs>
</svg>
