<?xml version="1.0" encoding="utf-8" standalone="no"?>
<!DOCTYPE svg PUBLIC "-//W3C//DTD SVG 1.1//EN"
  "http://www.w3.org/Graphics/SVG/1.1/DTD/svg11.dtd">
<svg xmlns:xlink="http://www.w3.org/1999/xlink" width="460.8pt" height="345.6pt" viewBox="0 0 460.8 345.6" xmlns="http://www.w3.org/2000/svg" version="1.1">
 <metadata>
  <rdf:RDF xmlns:dc="http://purl.org/dc/elements/1.1/" xmlns:cc="http://creativecommons.org/ns#" xmlns:rdf="http://www.w3.org/1999/02/22-rdf-syntax-ns#">
   <cc:Work>
    <dc:type rdf:resource="http://purl.org/dc/dcmitype/StillImage"/>
    <dc:date>2026-04-26T18:43:26.258076</dc:date>
    <dc:format>image/svg+xml</dc:format>
    <dc:creator>
     <cc:Agent>
      <dc:title>Matplotlib v3.10.8, https://matplotlib.org/</dc:title>
     </cc:Agent>
    </dc:creator>
   </cc:Work>
  </rdf:RDF>
 </metadata>
 <defs>
  <style type="text/css">*{stroke-linejoin: round; stroke-linecap: butt}</style>
 </defs>
 <g id="figure_1">
  <g id="patch_1">
   <path d="M 0 345.6 
L 460.8 345.6 
L 460.8 0 
L 0 0 
z
" style="fill: #ffffff"/>
  </g>
  <g id="axes_1">
   <g id="patch_2">
    <path d="M 57.6 307.584 
L 414.72 307.584 
L 414.72 41.472 
L 57.6 41.472 
z
" style="fill: #ffffff"/>
   </g>
   <g id="matplotlib.axis_1">
    <g id="xtick_1">
     <g id="line2d_1">
      <path d="M 72.201297 307.584 
L 72.201297 41.472 
" clip-path="url(#p3f1c3ff7ec)" style="fill: none; stroke: #b0b0b0; stroke-width: 0.8; stroke-linecap: square"/>
     </g>
     <g id="line2d_2">
      <defs>
       <path id="mffaaa503cf" d="M 0 0 
L 0 3.5 
" style="stroke: #000000; stroke-width: 0.8"/>
      </defs>
      <g>
       <use xlink:href="#mffaaa503cf" x="72.201297" y="307.584" style="stroke: #000000; stroke-width: 0.8"/>
      </g>
     </g>
     <g id="text_1">
      <!-- 0 -->
      <g transform="translate(69.020047 322.182437) scale(0.1 -0.1)">
       <defs>
        <path id="DejaVuSans-30" d="M 2034 4250 
Q 1547 4250 1301 3770 
Q 1056 3291 1056 2328 
Q 1056 1369 1301 889 
Q 1547 409 2034 409 
Q 2525 409 2770 889 
Q 3016 1369 3016 2328 
Q 3016 3291 2770 3770 
Q 2525 4250 2034 4250 
z
M 2034 4750 
Q 2819 4750 3233 4129 
Q 3647 3509 3647 2328 
Q 3647 1150 3233 529 
Q 2819 -91 2034 -91 
Q 1250 -91 836 529 
Q 422 1150 422 2328 
Q 422 3509 836 4129 
Q 1250 4750 2034 4750 
z
" transform="scale(0.015625)"/>
       </defs>
       <use xlink:href="#DejaVuSans-30"/>
      </g>
     </g>
    </g>
    <g id="xtick_2">
     <g id="line2d_3">
      <path d="M 112.987044 307.584 
L 112.987044 41.472 
" clip-path="url(#p3f1c3ff7ec)" style="fill: none; stroke: #b0b0b0; stroke-width: 0.8; stroke-linecap: square"/>
     </g>
     <g id="line2d_4">
      <g>
       <use xlink:href="#mffaaa503cf" x="112.987044" y="307.584" style="stroke: #000000; stroke-width: 0.8"/>
      </g>
     </g>
     <g id="text_2">
      <!-- 25 -->
      <g transform="translate(106.624544 322.182437) scale(0.1 -0.1)">
       <defs>
        <path id="DejaVuSans-32" d="M 1228 531 
L 3431 531 
L 3431 0 
L 469 0 
L 469 531 
Q 828 903 1448 1529 
Q 2069 2156 2228 2338 
Q 2531 2678 2651 2914 
Q 2772 3150 2772 3378 
Q 2772 3750 2511 3984 
Q 2250 4219 1831 4219 
Q 1534 4219 1204 4116 
Q 875 4013 500 3803 
L 500 4441 
Q 881 4594 1212 4672 
Q 1544 4750 1819 4750 
Q 2544 4750 2975 4387 
Q 3406 4025 3406 3419 
Q 3406 3131 3298 2873 
Q 3191 2616 2906 2266 
Q 2828 2175 2409 1742 
Q 1991 1309 1228 531 
z
" transform="scale(0.015625)"/>
        <path id="DejaVuSans-35" d="M 691 4666 
L 3169 4666 
L 3169 4134 
L 1269 4134 
L 1269 2991 
Q 1406 3038 1543 3061 
Q 1681 3084 1819 3084 
Q 2600 3084 3056 2656 
Q 3513 2228 3513 1497 
Q 3513 744 3044 326 
Q 2575 -91 1722 -91 
Q 1428 -91 1123 -41 
Q 819 9 494 109 
L 494 744 
Q 775 591 1075 516 
Q 1375 441 1709 441 
Q 2250 441 2565 725 
Q 2881 1009 2881 1497 
Q 2881 1984 2565 2268 
Q 2250 2553 1709 2553 
Q 1456 2553 1204 2497 
Q 953 2441 691 2322 
L 691 4666 
z
" transform="scale(0.015625)"/>
       </defs>
       <use xlink:href="#DejaVuSans-32"/>
       <use xlink:href="#DejaVuSans-35" transform="translate(63.623047 0)"/>
      </g>
     </g>
    </g>
    <g id="xtick_3">
     <g id="line2d_5">
      <path d="M 153.772791 307.584 
L 153.772791 41.472 
" clip-path="url(#p3f1c3ff7ec)" style="fill: none; stroke: #b0b0b0; stroke-width: 0.8; stroke-linecap: square"/>
     </g>
     <g id="line2d_6">
      <g>
       <use xlink:href="#mffaaa503cf" x="153.772791" y="307.584" style="stroke: #000000; stroke-width: 0.8"/>
      </g>
     </g>
     <g id="text_3">
      <!-- 50 -->
      <g transform="translate(147.410291 322.182437) scale(0.1 -0.1)">
       <use xlink:href="#DejaVuSans-35"/>
       <use xlink:href="#DejaVuSans-30" transform="translate(63.623047 0)"/>
      </g>
     </g>
    </g>
    <g id="xtick_4">
     <g id="line2d_7">
      <path d="M 194.558538 307.584 
L 194.558538 41.472 
" clip-path="url(#p3f1c3ff7ec)" style="fill: none; stroke: #b0b0b0; stroke-width: 0.8; stroke-linecap: square"/>
     </g>
     <g id="line2d_8">
      <g>
       <use xlink:href="#mffaaa503cf" x="194.558538" y="307.584" style="stroke: #000000; stroke-width: 0.8"/>
      </g>
     </g>
     <g id="text_4">
      <!-- 75 -->
      <g transform="translate(188.196038 322.182437) scale(0.1 -0.1)">
       <defs>
        <path id="DejaVuSans-37" d="M 525 4666 
L 3525 4666 
L 3525 4397 
L 1831 0 
L 1172 0 
L 2766 4134 
L 525 4134 
L 525 4666 
z
" transform="scale(0.015625)"/>
       </defs>
       <use xlink:href="#DejaVuSans-37"/>
       <use xlink:href="#DejaVuSans-35" transform="translate(63.623047 0)"/>
      </g>
     </g>
    </g>
    <g id="xtick_5">
     <g id="line2d_9">
      <path d="M 235.344285 307.584 
L 235.344285 41.472 
" clip-path="url(#p3f1c3ff7ec)" style="fill: none; stroke: #b0b0b0; stroke-width: 0.8; stroke-linecap: square"/>
     </g>
     <g id="line2d_10">
      <g>
       <use xlink:href="#mffaaa503cf" x="235.344285" y="307.584" style="stroke: #000000; stroke-width: 0.8"/>
      </g>
     </g>
     <g id="text_5">
      <!-- 100 -->
      <g transform="translate(225.800535 322.182437) scale(0.1 -0.1)">
       <defs>
        <path id="DejaVuSans-31" d="M 794 531 
L 1825 531 
L 1825 4091 
L 703 3866 
L 703 4441 
L 1819 4666 
L 2450 4666 
L 2450 531 
L 3481 531 
L 3481 0 
L 794 0 
L 794 531 
z
" transform="scale(0.015625)"/>
       </defs>
       <use xlink:href="#DejaVuSans-31"/>
       <use xlink:href="#DejaVuSans-30" transform="translate(63.623047 0)"/>
       <use xlink:href="#DejaVuSans-30" transform="translate(127.246094 0)"/>
      </g>
     </g>
    </g>
    <g id="xtick_6">
     <g id="line2d_11">
      <path d="M 276.130032 307.584 
L 276.130032 41.472 
" clip-path="url(#p3f1c3ff7ec)" style="fill: none; stroke: #b0b0b0; stroke-width: 0.8; stroke-linecap: square"/>
     </g>
     <g id="line2d_12">
      <g>
       <use xlink:href="#mffaaa503cf" x="276.130032" y="307.584" style="stroke: #000000; stroke-width: 0.8"/>
      </g>
     </g>
     <g id="text_6">
      <!-- 125 -->
      <g transform="translate(266.586282 322.182437) scale(0.1 -0.1)">
       <use xlink:href="#DejaVuSans-31"/>
       <use xlink:href="#DejaVuSans-32" transform="translate(63.623047 0)"/>
       <use xlink:href="#DejaVuSans-35" transform="translate(127.246094 0)"/>
      </g>
     </g>
    </g>
    <g id="xtick_7">
     <g id="line2d_13">
      <path d="M 316.915779 307.584 
L 316.915779 41.472 
" clip-path="url(#p3f1c3ff7ec)" style="fill: none; stroke: #b0b0b0; stroke-width: 0.8; stroke-linecap: square"/>
     </g>
     <g id="line2d_14">
      <g>
       <use xlink:href="#mffaaa503cf" x="316.915779" y="307.584" style="stroke: #000000; stroke-width: 0.8"/>
      </g>
     </g>
     <g id="text_7">
      <!-- 150 -->
      <g transform="translate(307.372029 322.182437) scale(0.1 -0.1)">
       <use xlink:href="#DejaVuSans-31"/>
       <use xlink:href="#DejaVuSans-35" transform="translate(63.623047 0)"/>
       <use xlink:href="#DejaVuSans-30" transform="translate(127.246094 0)"/>
      </g>
     </g>
    </g>
    <g id="xtick_8">
     <g id="line2d_15">
      <path d="M 357.701526 307.584 
L 357.701526 41.472 
" clip-path="url(#p3f1c3ff7ec)" style="fill: none; stroke: #b0b0b0; stroke-width: 0.8; stroke-linecap: square"/>
     </g>
     <g id="line2d_16">
      <g>
       <use xlink:href="#mffaaa503cf" x="357.701526" y="307.584" style="stroke: #000000; stroke-width: 0.8"/>
      </g>
     </g>
     <g id="text_8">
      <!-- 175 -->
      <g transform="translate(348.157776 322.182437) scale(0.1 -0.1)">
       <use xlink:href="#DejaVuSans-31"/>
       <use xlink:href="#DejaVuSans-37" transform="translate(63.623047 0)"/>
       <use xlink:href="#DejaVuSans-35" transform="translate(127.246094 0)"/>
      </g>
     </g>
    </g>
    <g id="xtick_9">
     <g id="line2d_17">
      <path d="M 398.487273 307.584 
L 398.487273 41.472 
" clip-path="url(#p3f1c3ff7ec)" style="fill: none; stroke: #b0b0b0; stroke-width: 0.8; stroke-linecap: square"/>
     </g>
     <g id="line2d_18">
      <g>
       <use xlink:href="#mffaaa503cf" x="398.487273" y="307.584" style="stroke: #000000; stroke-width: 0.8"/>
      </g>
     </g>
     <g id="text_9">
      <!-- 200 -->
      <g transform="translate(388.943523 322.182437) scale(0.1 -0.1)">
       <use xlink:href="#DejaVuSans-32"/>
       <use xlink:href="#DejaVuSans-30" transform="translate(63.623047 0)"/>
       <use xlink:href="#DejaVuSans-30" transform="translate(127.246094 0)"/>
      </g>
     </g>
    </g>
    <g id="text_10">
     <!-- Generacje -->
     <g transform="translate(210.629531 335.860562) scale(0.1 -0.1)">
      <defs>
       <path id="DejaVuSans-47" d="M 3809 666 
L 3809 1919 
L 2778 1919 
L 2778 2438 
L 4434 2438 
L 4434 434 
Q 4069 175 3628 42 
Q 3188 -91 2688 -91 
Q 1594 -91 976 548 
Q 359 1188 359 2328 
Q 359 3472 976 4111 
Q 1594 4750 2688 4750 
Q 3144 4750 3555 4637 
Q 3966 4525 4313 4306 
L 4313 3634 
Q 3963 3931 3569 4081 
Q 3175 4231 2741 4231 
Q 1884 4231 1454 3753 
Q 1025 3275 1025 2328 
Q 1025 1384 1454 906 
Q 1884 428 2741 428 
Q 3075 428 3337 486 
Q 3600 544 3809 666 
z
" transform="scale(0.015625)"/>
       <path id="DejaVuSans-65" d="M 3597 1894 
L 3597 1613 
L 953 1613 
Q 991 1019 1311 708 
Q 1631 397 2203 397 
Q 2534 397 2845 478 
Q 3156 559 3463 722 
L 3463 178 
Q 3153 47 2828 -22 
Q 2503 -91 2169 -91 
Q 1331 -91 842 396 
Q 353 884 353 1716 
Q 353 2575 817 3079 
Q 1281 3584 2069 3584 
Q 2775 3584 3186 3129 
Q 3597 2675 3597 1894 
z
M 3022 2063 
Q 3016 2534 2758 2815 
Q 2500 3097 2075 3097 
Q 1594 3097 1305 2825 
Q 1016 2553 972 2059 
L 3022 2063 
z
" transform="scale(0.015625)"/>
       <path id="DejaVuSans-6e" d="M 3513 2113 
L 3513 0 
L 2938 0 
L 2938 2094 
Q 2938 2591 2744 2837 
Q 2550 3084 2163 3084 
Q 1697 3084 1428 2787 
Q 1159 2491 1159 1978 
L 1159 0 
L 581 0 
L 581 3500 
L 1159 3500 
L 1159 2956 
Q 1366 3272 1645 3428 
Q 1925 3584 2291 3584 
Q 2894 3584 3203 3211 
Q 3513 2838 3513 2113 
z
" transform="scale(0.015625)"/>
       <path id="DejaVuSans-72" d="M 2631 2963 
Q 2534 3019 2420 3045 
Q 2306 3072 2169 3072 
Q 1681 3072 1420 2755 
Q 1159 2438 1159 1844 
L 1159 0 
L 581 0 
L 581 3500 
L 1159 3500 
L 1159 2956 
Q 1341 3275 1631 3429 
Q 1922 3584 2338 3584 
Q 2397 3584 2469 3576 
Q 2541 3569 2628 3553 
L 2631 2963 
z
" transform="scale(0.015625)"/>
       <path id="DejaVuSans-61" d="M 2194 1759 
Q 1497 1759 1228 1600 
Q 959 1441 959 1056 
Q 959 750 1161 570 
Q 1363 391 1709 391 
Q 2188 391 2477 730 
Q 2766 1069 2766 1631 
L 2766 1759 
L 2194 1759 
z
M 3341 1997 
L 3341 0 
L 2766 0 
L 2766 531 
Q 2569 213 2275 61 
Q 1981 -91 1556 -91 
Q 1019 -91 701 211 
Q 384 513 384 1019 
Q 384 1609 779 1909 
Q 1175 2209 1959 2209 
L 2766 2209 
L 2766 2266 
Q 2766 2663 2505 2880 
Q 2244 3097 1772 3097 
Q 1472 3097 1187 3025 
Q 903 2953 641 2809 
L 641 3341 
Q 956 3463 1253 3523 
Q 1550 3584 1831 3584 
Q 2591 3584 2966 3190 
Q 3341 2797 3341 1997 
z
" transform="scale(0.015625)"/>
       <path id="DejaVuSans-63" d="M 3122 3366 
L 3122 2828 
Q 2878 2963 2633 3030 
Q 2388 3097 2138 3097 
Q 1578 3097 1268 2742 
Q 959 2388 959 1747 
Q 959 1106 1268 751 
Q 1578 397 2138 397 
Q 2388 397 2633 464 
Q 2878 531 3122 666 
L 3122 134 
Q 2881 22 2623 -34 
Q 2366 -91 2075 -91 
Q 1284 -91 818 406 
Q 353 903 353 1747 
Q 353 2603 823 3093 
Q 1294 3584 2113 3584 
Q 2378 3584 2631 3529 
Q 2884 3475 3122 3366 
z
" transform="scale(0.015625)"/>
       <path id="DejaVuSans-6a" d="M 603 3500 
L 1178 3500 
L 1178 -63 
Q 1178 -731 923 -1031 
Q 669 -1331 103 -1331 
L -116 -1331 
L -116 -844 
L 38 -844 
Q 366 -844 484 -692 
Q 603 -541 603 -63 
L 603 3500 
z
M 603 4863 
L 1178 4863 
L 1178 4134 
L 603 4134 
L 603 4863 
z
" transform="scale(0.015625)"/>
      </defs>
      <use xlink:href="#DejaVuSans-47"/>
      <use xlink:href="#DejaVuSans-65" transform="translate(77.490234 0)"/>
      <use xlink:href="#DejaVuSans-6e" transform="translate(139.013672 0)"/>
      <use xlink:href="#DejaVuSans-65" transform="translate(202.392578 0)"/>
      <use xlink:href="#DejaVuSans-72" transform="translate(263.916016 0)"/>
      <use xlink:href="#DejaVuSans-61" transform="translate(305.029297 0)"/>
      <use xlink:href="#DejaVuSans-63" transform="translate(366.308594 0)"/>
      <use xlink:href="#DejaVuSans-6a" transform="translate(421.289062 0)"/>
      <use xlink:href="#DejaVuSans-65" transform="translate(449.072266 0)"/>
     </g>
    </g>
   </g>
   <g id="matplotlib.axis_2">
    <g id="ytick_1">
     <g id="line2d_19">
      <path d="M 57.6 116.778381 
L 414.72 116.778381 
" clip-path="url(#p3f1c3ff7ec)" style="fill: none; stroke: #b0b0b0; stroke-width: 0.8; stroke-linecap: square"/>
     </g>
     <g id="line2d_20">
      <defs>
       <path id="me3bbe87c08" d="M 0 0 
L -3.5 0 
" style="stroke: #000000; stroke-width: 0.8"/>
      </defs>
      <g>
       <use xlink:href="#me3bbe87c08" x="57.6" y="116.778381" style="stroke: #000000; stroke-width: 0.8"/>
      </g>
     </g>
     <g id="text_11">
      <!-- $\mathdefault{10^{2}}$ -->
      <g transform="translate(33 120.5776) scale(0.1 -0.1)">
       <use xlink:href="#DejaVuSans-31" transform="translate(0 0.765625)"/>
       <use xlink:href="#DejaVuSans-30" transform="translate(63.623047 0.765625)"/>
       <use xlink:href="#DejaVuSans-32" transform="translate(128.203125 39.046875) scale(0.7)"/>
      </g>
     </g>
    </g>
    <g id="text_12">
     <!-- Przystosowanie -->
     <g transform="translate(26.920312 213.170187) rotate(-90) scale(0.1 -0.1)">
      <defs>
       <path id="DejaVuSans-50" d="M 1259 4147 
L 1259 2394 
L 2053 2394 
Q 2494 2394 2734 2622 
Q 2975 2850 2975 3272 
Q 2975 3691 2734 3919 
Q 2494 4147 2053 4147 
L 1259 4147 
z
M 628 4666 
L 2053 4666 
Q 2838 4666 3239 4311 
Q 3641 3956 3641 3272 
Q 3641 2581 3239 2228 
Q 2838 1875 2053 1875 
L 1259 1875 
L 1259 0 
L 628 0 
L 628 4666 
z
" transform="scale(0.015625)"/>
       <path id="DejaVuSans-7a" d="M 353 3500 
L 3084 3500 
L 3084 2975 
L 922 459 
L 3084 459 
L 3084 0 
L 275 0 
L 275 525 
L 2438 3041 
L 353 3041 
L 353 3500 
z
" transform="scale(0.015625)"/>
       <path id="DejaVuSans-79" d="M 2059 -325 
Q 1816 -950 1584 -1140 
Q 1353 -1331 966 -1331 
L 506 -1331 
L 506 -850 
L 844 -850 
Q 1081 -850 1212 -737 
Q 1344 -625 1503 -206 
L 1606 56 
L 191 3500 
L 800 3500 
L 1894 763 
L 2988 3500 
L 3597 3500 
L 2059 -325 
z
" transform="scale(0.015625)"/>
       <path id="DejaVuSans-73" d="M 2834 3397 
L 2834 2853 
Q 2591 2978 2328 3040 
Q 2066 3103 1784 3103 
Q 1356 3103 1142 2972 
Q 928 2841 928 2578 
Q 928 2378 1081 2264 
Q 1234 2150 1697 2047 
L 1894 2003 
Q 2506 1872 2764 1633 
Q 3022 1394 3022 966 
Q 3022 478 2636 193 
Q 2250 -91 1575 -91 
Q 1294 -91 989 -36 
Q 684 19 347 128 
L 347 722 
Q 666 556 975 473 
Q 1284 391 1588 391 
Q 1994 391 2212 530 
Q 2431 669 2431 922 
Q 2431 1156 2273 1281 
Q 2116 1406 1581 1522 
L 1381 1569 
Q 847 1681 609 1914 
Q 372 2147 372 2553 
Q 372 3047 722 3315 
Q 1072 3584 1716 3584 
Q 2034 3584 2315 3537 
Q 2597 3491 2834 3397 
z
" transform="scale(0.015625)"/>
       <path id="DejaVuSans-74" d="M 1172 4494 
L 1172 3500 
L 2356 3500 
L 2356 3053 
L 1172 3053 
L 1172 1153 
Q 1172 725 1289 603 
Q 1406 481 1766 481 
L 2356 481 
L 2356 0 
L 1766 0 
Q 1100 0 847 248 
Q 594 497 594 1153 
L 594 3053 
L 172 3053 
L 172 3500 
L 594 3500 
L 594 4494 
L 1172 4494 
z
" transform="scale(0.015625)"/>
       <path id="DejaVuSans-6f" d="M 1959 3097 
Q 1497 3097 1228 2736 
Q 959 2375 959 1747 
Q 959 1119 1226 758 
Q 1494 397 1959 397 
Q 2419 397 2687 759 
Q 2956 1122 2956 1747 
Q 2956 2369 2687 2733 
Q 2419 3097 1959 3097 
z
M 1959 3584 
Q 2709 3584 3137 3096 
Q 3566 2609 3566 1747 
Q 3566 888 3137 398 
Q 2709 -91 1959 -91 
Q 1206 -91 779 398 
Q 353 888 353 1747 
Q 353 2609 779 3096 
Q 1206 3584 1959 3584 
z
" transform="scale(0.015625)"/>
       <path id="DejaVuSans-77" d="M 269 3500 
L 844 3500 
L 1563 769 
L 2278 3500 
L 2956 3500 
L 3675 769 
L 4391 3500 
L 4966 3500 
L 4050 0 
L 3372 0 
L 2619 2869 
L 1863 0 
L 1184 0 
L 269 3500 
z
" transform="scale(0.015625)"/>
       <path id="DejaVuSans-69" d="M 603 3500 
L 1178 3500 
L 1178 0 
L 603 0 
L 603 3500 
z
M 603 4863 
L 1178 4863 
L 1178 4134 
L 603 4134 
L 603 4863 
z
" transform="scale(0.015625)"/>
      </defs>
      <use xlink:href="#DejaVuSans-50"/>
      <use xlink:href="#DejaVuSans-72" transform="translate(58.552734 0)"/>
      <use xlink:href="#DejaVuSans-7a" transform="translate(99.666016 0)"/>
      <use xlink:href="#DejaVuSans-79" transform="translate(152.15625 0)"/>
      <use xlink:href="#DejaVuSans-73" transform="translate(211.335938 0)"/>
      <use xlink:href="#DejaVuSans-74" transform="translate(263.435547 0)"/>
      <use xlink:href="#DejaVuSans-6f" transform="translate(302.644531 0)"/>
      <use xlink:href="#DejaVuSans-73" transform="translate(363.826172 0)"/>
      <use xlink:href="#DejaVuSans-6f" transform="translate(415.925781 0)"/>
      <use xlink:href="#DejaVuSans-77" transform="translate(477.107422 0)"/>
      <use xlink:href="#DejaVuSans-61" transform="translate(558.894531 0)"/>
      <use xlink:href="#DejaVuSans-6e" transform="translate(620.173828 0)"/>
      <use xlink:href="#DejaVuSans-69" transform="translate(683.552734 0)"/>
      <use xlink:href="#DejaVuSans-65" transform="translate(711.335938 0)"/>
     </g>
    </g>
   </g>
   <g id="line2d_21">
    <path d="M 73.832727 295.488 
L 75.464157 231.342547 
L 77.095587 212.783098 
L 78.727017 181.532083 
L 80.358447 181.382355 
L 81.989877 157.610533 
L 83.621307 153.515125 
L 85.252736 148.477437 
L 86.884166 150.426437 
L 88.515596 143.882176 
L 90.147026 141.283061 
L 91.778456 140.768901 
L 93.409886 141.462036 
L 95.041316 142.593025 
L 96.672746 141.215583 
L 98.304175 144.692812 
L 99.935605 140.138762 
L 101.567035 140.631582 
L 103.198465 137.891225 
L 104.829895 137.66796 
L 106.461325 136.93524 
L 108.092755 136.810663 
L 109.724185 136.872234 
L 111.355614 133.941842 
L 112.987044 132.105261 
L 114.618474 134.696941 
L 116.249904 132.654787 
L 117.881334 131.278667 
L 119.512764 133.902965 
L 121.144194 134.572815 
L 122.775624 137.888955 
L 124.407053 134.030136 
L 126.038483 133.94291 
L 127.669913 130.748451 
L 129.301343 132.39052 
L 130.932773 132.639683 
L 132.564203 131.366991 
L 134.195633 130.515829 
L 135.827063 131.332593 
L 137.458492 133.430787 
L 139.089922 129.19918 
L 140.721352 130.968968 
L 142.352782 130.73743 
L 143.984212 133.564564 
L 145.615642 130.320535 
L 147.247072 129.630419 
L 150.509931 131.034097 
L 152.141361 130.724517 
L 153.772791 131.04921 
L 155.404221 132.442606 
L 157.035651 130.3198 
L 158.667081 130.0848 
L 160.298511 131.040241 
L 161.929941 131.737256 
L 163.56137 133.114162 
L 165.1928 131.275977 
L 166.82423 131.285507 
L 168.45566 132.035241 
L 170.08709 129.978618 
L 171.71852 130.069753 
L 173.34995 130.440072 
L 174.98138 131.840156 
L 176.61281 130.898452 
L 178.244239 132.11472 
L 179.875669 131.237048 
L 181.507099 133.775634 
L 183.138529 131.661328 
L 184.769959 133.757862 
L 188.032819 132.615166 
L 189.664249 134.91092 
L 191.295678 133.557777 
L 192.927108 134.418022 
L 194.558538 134.439969 
L 196.189968 133.729523 
L 197.821398 132.699757 
L 199.452828 133.254702 
L 201.084258 133.449545 
L 202.715688 132.104585 
L 204.347117 133.404939 
L 205.978547 132.988152 
L 207.609977 134.717405 
L 209.241407 132.988551 
L 210.872837 134.148247 
L 212.504267 134.33068 
L 214.135697 135.446087 
L 215.767127 133.712369 
L 217.398556 135.06117 
L 219.029986 132.694935 
L 220.661416 132.396937 
L 222.292846 132.767236 
L 223.924276 134.688026 
L 225.555706 132.907167 
L 227.187136 132.914792 
L 228.818566 132.393017 
L 230.449995 132.286788 
L 232.081425 131.900055 
L 233.712855 134.01884 
L 235.344285 132.204677 
L 236.975715 132.32524 
L 238.607145 133.87122 
L 240.238575 132.435722 
L 241.870005 133.060363 
L 243.501434 132.073526 
L 245.132864 130.745138 
L 246.764294 129.97194 
L 248.395724 130.125218 
L 250.027154 132.684366 
L 251.658584 130.549693 
L 253.290014 133.182724 
L 254.921444 130.677535 
L 256.552873 131.413765 
L 258.184303 133.297493 
L 259.815733 132.449267 
L 261.447163 133.112078 
L 263.078593 131.153532 
L 264.710023 132.77217 
L 266.341453 130.497234 
L 267.972883 131.996704 
L 269.604312 131.792835 
L 272.867172 131.740601 
L 274.498602 130.484724 
L 276.130032 132.189412 
L 277.761462 133.14342 
L 279.392892 131.483371 
L 282.655751 129.548735 
L 284.287181 133.924222 
L 285.918611 131.014933 
L 287.550041 131.657084 
L 289.181471 129.290245 
L 290.812901 131.806999 
L 292.444331 131.013645 
L 294.075761 130.704259 
L 295.70719 131.701315 
L 298.97005 131.702261 
L 300.60148 132.058957 
L 302.23291 133.382483 
L 303.86434 131.662371 
L 305.49577 129.612678 
L 307.1272 131.381562 
L 308.75863 132.654024 
L 310.390059 131.607476 
L 312.021489 131.052482 
L 313.652919 131.992357 
L 315.284349 132.177127 
L 316.915779 133.237692 
L 318.547209 133.063576 
L 320.178639 130.074679 
L 321.810069 133.559942 
L 323.441498 130.493425 
L 325.072928 132.718447 
L 326.704358 131.503553 
L 328.335788 133.849549 
L 329.967218 131.758664 
L 331.598648 132.137575 
L 333.230078 132.890304 
L 334.861508 131.832697 
L 336.492937 132.262235 
L 338.124367 131.937564 
L 339.755797 132.487295 
L 341.387227 131.170092 
L 343.018657 132.120465 
L 344.650087 133.480863 
L 346.281517 132.704504 
L 347.912947 131.688527 
L 349.544376 132.917195 
L 351.175806 132.176202 
L 352.807236 132.471684 
L 354.438666 132.965818 
L 356.070096 131.401731 
L 357.701526 131.950459 
L 359.332956 130.747372 
L 360.964386 130.596089 
L 362.595815 131.331011 
L 364.227245 132.963442 
L 365.858675 131.631337 
L 367.490105 132.09502 
L 369.121535 131.495689 
L 370.752965 132.691954 
L 372.384395 131.166692 
L 374.015825 131.871879 
L 375.647254 133.20083 
L 377.278684 129.724722 
L 378.910114 132.421098 
L 380.541544 130.210836 
L 383.804404 131.039422 
L 385.435834 132.269784 
L 387.067264 131.645571 
L 388.698693 131.347859 
L 390.330123 131.597711 
L 391.961553 130.267435 
L 393.592983 129.885842 
L 395.224413 131.41739 
L 398.487273 132.267845 
L 398.487273 132.267845 
" clip-path="url(#p3f1c3ff7ec)" style="fill: none; stroke: #0000ff; stroke-width: 1.5; stroke-linecap: square"/>
   </g>
   <g id="line2d_22">
    <path d="M 73.832727 241.567629 
L 75.464157 178.733445 
L 77.095587 162.21178 
L 78.727017 139.658414 
L 80.358447 134.749101 
L 81.989877 123.423118 
L 83.621307 122.598788 
L 85.252736 124.695716 
L 86.884166 123.237788 
L 88.515596 124.366484 
L 90.147026 121.690818 
L 91.778456 122.48088 
L 93.409886 122.924734 
L 95.041316 121.568541 
L 96.672746 121.428456 
L 98.304175 123.451232 
L 99.935605 119.021234 
L 101.567035 123.003523 
L 103.198465 120.398317 
L 104.829895 120.591999 
L 106.461325 117.877245 
L 108.092755 121.456639 
L 109.724185 121.335078 
L 111.355614 117.986621 
L 112.987044 113.751991 
L 114.618474 118.916197 
L 116.249904 115.166837 
L 117.881334 114.911448 
L 119.512764 115.448053 
L 121.144194 118.22767 
L 122.775624 107.822866 
L 124.407053 116.866991 
L 126.038483 116.510235 
L 127.669913 115.718752 
L 130.932773 118.087176 
L 132.564203 117.472127 
L 134.195633 113.718405 
L 135.827063 113.202735 
L 137.458492 117.045025 
L 139.089922 114.499109 
L 140.721352 115.139175 
L 142.352782 115.486892 
L 143.984212 116.351117 
L 145.615642 113.801942 
L 147.247072 115.071299 
L 148.878502 113.46825 
L 150.509931 116.416329 
L 152.141361 115.129276 
L 153.772791 115.653537 
L 155.404221 118.162604 
L 157.035651 113.682131 
L 158.667081 113.587786 
L 160.298511 114.205595 
L 161.929941 116.897397 
L 163.56137 117.85332 
L 165.1928 114.981759 
L 166.82423 114.915366 
L 168.45566 116.150516 
L 170.08709 116.132229 
L 171.71852 114.825681 
L 173.34995 115.061531 
L 174.98138 116.483772 
L 176.61281 115.731517 
L 178.244239 116.350678 
L 179.875669 116.065907 
L 181.507099 117.715879 
L 183.138529 116.475925 
L 186.401389 119.288561 
L 188.032819 117.45975 
L 189.664249 117.413145 
L 191.295678 118.202811 
L 192.927108 120.609298 
L 194.558538 119.934844 
L 196.189968 118.601586 
L 197.821398 117.709247 
L 199.452828 118.005155 
L 201.084258 120.68379 
L 202.715688 118.233698 
L 204.347117 118.653863 
L 205.978547 118.709278 
L 207.609977 119.846672 
L 209.241407 116.705509 
L 210.872837 120.121503 
L 212.504267 120.352243 
L 214.135697 119.435756 
L 215.767127 118.05977 
L 217.398556 117.963723 
L 219.029986 116.667425 
L 220.661416 116.521813 
L 222.292846 116.950096 
L 223.924276 120.436837 
L 225.555706 116.015505 
L 227.187136 118.268445 
L 228.818566 116.275508 
L 230.449995 117.067768 
L 232.081425 116.254505 
L 233.712855 118.617276 
L 235.344285 116.565058 
L 236.975715 116.869222 
L 238.607145 116.827068 
L 240.238575 117.620746 
L 241.870005 117.568293 
L 243.501434 115.348073 
L 245.132864 114.606665 
L 246.764294 113.52805 
L 248.395724 114.509684 
L 250.027154 115.159667 
L 251.658584 115.137887 
L 253.290014 116.350231 
L 254.921444 115.181682 
L 256.552873 115.013217 
L 258.184303 118.04179 
L 259.815733 116.544293 
L 261.447163 117.932211 
L 263.078593 114.175445 
L 264.710023 117.553933 
L 266.341453 112.752403 
L 267.972883 115.461119 
L 269.604312 114.334631 
L 271.235742 115.060835 
L 272.867172 114.560418 
L 274.498602 113.079317 
L 276.130032 116.219425 
L 277.761462 116.600098 
L 279.392892 115.904723 
L 281.024322 113.254128 
L 282.655751 113.291729 
L 284.287181 117.446085 
L 285.918611 115.218856 
L 287.550041 116.957069 
L 289.181471 113.252897 
L 290.812901 116.703894 
L 292.444331 113.968934 
L 294.075761 114.064232 
L 295.70719 113.650252 
L 297.33862 114.340103 
L 298.97005 116.229468 
L 300.60148 117.937776 
L 302.23291 118.733895 
L 303.86434 115.974049 
L 305.49577 113.564636 
L 307.1272 115.368808 
L 308.75863 116.151565 
L 310.390059 114.669396 
L 312.021489 114.918676 
L 313.652919 116.635418 
L 316.915779 117.949006 
L 318.547209 116.857421 
L 320.178639 112.450023 
L 321.810069 116.896605 
L 323.441498 113.37953 
L 325.072928 116.494376 
L 326.704358 115.281535 
L 328.335788 117.106274 
L 329.967218 115.121992 
L 331.598648 115.294218 
L 333.230078 117.02141 
L 334.861508 117.61452 
L 336.492937 115.893067 
L 338.124367 115.877723 
L 339.755797 115.497309 
L 341.387227 115.002682 
L 343.018657 117.09747 
L 346.281517 117.909076 
L 347.912947 114.667224 
L 349.544376 117.018659 
L 351.175806 116.765957 
L 352.807236 116.815133 
L 354.438666 115.145041 
L 356.070096 116.118485 
L 357.701526 115.622862 
L 359.332956 114.209947 
L 360.964386 111.959795 
L 362.595815 113.930189 
L 364.227245 117.542376 
L 365.858675 114.469571 
L 367.490105 117.059624 
L 369.121535 116.067435 
L 370.752965 116.704556 
L 372.384395 114.844604 
L 374.015825 116.821153 
L 375.647254 116.121039 
L 377.278684 111.7647 
L 378.910114 117.011747 
L 380.541544 113.231746 
L 382.172974 113.618207 
L 383.804404 114.589364 
L 385.435834 116.908867 
L 387.067264 114.043011 
L 388.698693 115.206092 
L 390.330123 113.947368 
L 391.961553 115.878429 
L 393.592983 113.200206 
L 395.224413 115.287519 
L 396.855843 116.560635 
L 398.487273 116.335143 
L 398.487273 116.335143 
" clip-path="url(#p3f1c3ff7ec)" style="fill: none; stroke-dasharray: 9.6,2.4,1.5,2.4; stroke-dashoffset: 0; stroke: #008000; stroke-width: 1.5"/>
   </g>
   <g id="line2d_23">
    <path d="M 73.832727 140.275124 
L 75.464157 101.037548 
L 77.095587 104.319598 
L 80.358447 107.468955 
L 81.989877 86.58441 
L 83.621307 96.632569 
L 85.252736 101.135913 
L 86.884166 99.72585 
L 88.515596 104.085573 
L 90.147026 96.543171 
L 91.778456 69.453042 
L 93.409886 96.824132 
L 95.041316 95.798192 
L 96.672746 93.926763 
L 98.304175 92.320738 
L 99.935605 81.054113 
L 101.567035 98.020322 
L 103.198465 94.986126 
L 104.829895 99.437759 
L 106.461325 87.955409 
L 108.092755 94.810364 
L 109.724185 93.790905 
L 111.355614 86.57392 
L 112.987044 80.895292 
L 114.618474 90.83219 
L 116.249904 69.398953 
L 117.881334 90.74695 
L 119.512764 86.53715 
L 121.144194 92.197428 
L 122.775624 77.377779 
L 124.407053 87.942495 
L 126.038483 88.025688 
L 127.669913 73.312024 
L 129.301343 92.188972 
L 130.932773 92.311101 
L 132.564203 92.321029 
L 134.195633 74.217088 
L 135.827063 75.515831 
L 137.458492 93.898935 
L 139.089922 82.437186 
L 140.721352 83.644225 
L 142.352782 89.214614 
L 143.984212 82.419519 
L 145.615642 76.878192 
L 147.247072 86.552747 
L 148.878502 71.673296 
L 150.509931 86.107346 
L 152.141361 93.690872 
L 153.772791 70.619168 
L 155.404221 78.019617 
L 157.035651 79.580512 
L 158.667081 65.336352 
L 160.298511 83.407206 
L 161.929941 78.182232 
L 163.56137 76.793989 
L 165.1928 91.402054 
L 166.82423 75.561908 
L 168.45566 84.948083 
L 170.08709 80.963334 
L 171.71852 81.43631 
L 173.34995 79.622485 
L 174.98138 89.212757 
L 176.61281 69.340226 
L 178.244239 83.671224 
L 179.875669 89.559656 
L 181.507099 87.925422 
L 183.138529 79.398778 
L 184.769959 95.219437 
L 186.401389 90.842149 
L 188.032819 84.74288 
L 189.664249 88.235815 
L 191.295678 86.660669 
L 192.927108 99.605474 
L 194.558538 91.984291 
L 196.189968 93.565041 
L 197.821398 83.762151 
L 199.452828 93.74036 
L 201.084258 93.949741 
L 202.715688 97.797697 
L 204.347117 87.875464 
L 205.978547 87.974241 
L 207.609977 90.586037 
L 209.241407 73.428625 
L 210.872837 93.484501 
L 212.504267 89.134584 
L 214.135697 83.823265 
L 215.767127 90.569477 
L 217.398556 90.36856 
L 219.029986 84.945146 
L 222.292846 79.46696 
L 223.924276 92.366907 
L 225.555706 71.847739 
L 227.187136 87.915907 
L 228.818566 79.402865 
L 230.449995 82.413657 
L 232.081425 54.423619 
L 233.712855 82.446454 
L 235.344285 80.847218 
L 236.975715 82.344657 
L 238.607145 86.55749 
L 240.238575 80.82288 
L 241.870005 85.143829 
L 243.501434 86.232645 
L 245.132864 87.89102 
L 246.764294 82.393748 
L 248.395724 83.848938 
L 250.027154 69.30613 
L 251.658584 78.358352 
L 253.290014 83.448987 
L 254.921444 82.372321 
L 256.552873 79.775054 
L 258.184303 67.880329 
L 259.815733 74.612399 
L 261.447163 74.361782 
L 263.078593 76.663863 
L 264.710023 87.901265 
L 266.341453 65.457108 
L 267.972883 64.274704 
L 269.604312 86.178997 
L 271.235742 71.846203 
L 272.867172 83.637836 
L 274.498602 87.696227 
L 276.130032 62.883597 
L 277.761462 82.373179 
L 279.392892 82.710336 
L 281.024322 75.374047 
L 282.655751 84.01136 
L 284.287181 75.635187 
L 285.918611 83.814717 
L 287.550041 89.026809 
L 289.181471 75.605581 
L 290.812901 90.847229 
L 292.444331 79.991289 
L 294.075761 78.330705 
L 295.70719 53.568 
L 297.33862 75.54403 
L 298.97005 83.623285 
L 300.60148 88.160739 
L 302.23291 95.007561 
L 303.86434 89.659254 
L 305.49577 86.235922 
L 307.1272 74.464929 
L 308.75863 74.303996 
L 310.390059 73.155753 
L 312.021489 79.612463 
L 313.652919 85.196136 
L 315.284349 89.42811 
L 316.915779 82.580202 
L 318.547209 89.531953 
L 320.178639 69.134603 
L 321.810069 78.259277 
L 323.441498 69.116046 
L 325.072928 82.147365 
L 326.704358 73.022989 
L 328.335788 77.01991 
L 329.967218 70.497128 
L 331.598648 79.366227 
L 333.230078 86.438612 
L 334.861508 89.463086 
L 336.492937 83.406773 
L 338.124367 83.597952 
L 339.755797 86.432221 
L 341.387227 76.974601 
L 343.018657 83.456312 
L 344.650087 82.297458 
L 346.281517 91.11155 
L 347.912947 73.106058 
L 349.544376 90.669677 
L 351.175806 83.711551 
L 352.807236 89.391582 
L 354.438666 69.02943 
L 356.070096 75.705977 
L 357.701526 79.839842 
L 359.332956 70.397578 
L 360.964386 66.353391 
L 362.595815 70.507738 
L 364.227245 89.061974 
L 365.858675 69.211671 
L 367.490105 88.025377 
L 369.121535 85.150029 
L 370.752965 89.606946 
L 372.384395 83.643573 
L 374.015825 93.593648 
L 375.647254 86.479799 
L 377.278684 75.93514 
L 378.910114 86.512469 
L 380.541544 69.129897 
L 382.172974 54.517009 
L 383.804404 79.671136 
L 385.435834 87.826949 
L 387.067264 81.326727 
L 388.698693 81.066431 
L 390.330123 56.986218 
L 391.961553 85.394823 
L 393.592983 74.126822 
L 395.224413 75.40262 
L 396.855843 90.472601 
L 398.487273 85.148496 
L 398.487273 85.148496 
" clip-path="url(#p3f1c3ff7ec)" style="fill: none; stroke: #ff0000; stroke-width: 1.5; stroke-linecap: square"/>
   </g>
   <g id="patch_3">
    <path d="M 57.6 307.584 
L 57.6 41.472 
" style="fill: none; stroke: #000000; stroke-width: 0.8; stroke-linejoin: miter; stroke-linecap: square"/>
   </g>
   <g id="patch_4">
    <path d="M 414.72 307.584 
L 414.72 41.472 
" style="fill: none; stroke: #000000; stroke-width: 0.8; stroke-linejoin: miter; stroke-linecap: square"/>
   </g>
   <g id="patch_5">
    <path d="M 57.6 307.584 
L 414.72 307.584 
" style="fill: none; stroke: #000000; stroke-width: 0.8; stroke-linejoin: miter; stroke-linecap: square"/>
   </g>
   <g id="patch_6">
    <path d="M 57.6 41.472 
L 414.72 41.472 
" style="fill: none; stroke: #000000; stroke-width: 0.8; stroke-linejoin: miter; stroke-linecap: square"/>
   </g>
   <g id="text_13">
    <!-- Średnie i najlepsze przystosowanie w każdej generacji -->
    <g transform="translate(73.26 35.472) scale(0.12 -0.12)">
     <defs>
      <path id="DejaVuSans-15a" d="M 2236 5921 
L 2814 5921 
L 2102 5096 
L 1623 5096 
L 2236 5921 
z
M 3425 4513 
L 3425 3897 
Q 3066 4069 2747 4153 
Q 2428 4238 2131 4238 
Q 1616 4238 1336 4038 
Q 1056 3838 1056 3469 
Q 1056 3159 1242 3001 
Q 1428 2844 1947 2747 
L 2328 2669 
Q 3034 2534 3370 2195 
Q 3706 1856 3706 1288 
Q 3706 609 3251 259 
Q 2797 -91 1919 -91 
Q 1588 -91 1214 -16 
Q 841 59 441 206 
L 441 856 
Q 825 641 1194 531 
Q 1563 422 1919 422 
Q 2459 422 2753 634 
Q 3047 847 3047 1241 
Q 3047 1584 2836 1778 
Q 2625 1972 2144 2069 
L 1759 2144 
Q 1053 2284 737 2584 
Q 422 2884 422 3419 
Q 422 4038 858 4394 
Q 1294 4750 2059 4750 
Q 2388 4750 2728 4690 
Q 3069 4631 3425 4513 
z
" transform="scale(0.015625)"/>
      <path id="DejaVuSans-64" d="M 2906 2969 
L 2906 4863 
L 3481 4863 
L 3481 0 
L 2906 0 
L 2906 525 
Q 2725 213 2448 61 
Q 2172 -91 1784 -91 
Q 1150 -91 751 415 
Q 353 922 353 1747 
Q 353 2572 751 3078 
Q 1150 3584 1784 3584 
Q 2172 3584 2448 3432 
Q 2725 3281 2906 2969 
z
M 947 1747 
Q 947 1113 1208 752 
Q 1469 391 1925 391 
Q 2381 391 2643 752 
Q 2906 1113 2906 1747 
Q 2906 2381 2643 2742 
Q 2381 3103 1925 3103 
Q 1469 3103 1208 2742 
Q 947 2381 947 1747 
z
" transform="scale(0.015625)"/>
      <path id="DejaVuSans-20" transform="scale(0.015625)"/>
      <path id="DejaVuSans-6c" d="M 603 4863 
L 1178 4863 
L 1178 0 
L 603 0 
L 603 4863 
z
" transform="scale(0.015625)"/>
      <path id="DejaVuSans-70" d="M 1159 525 
L 1159 -1331 
L 581 -1331 
L 581 3500 
L 1159 3500 
L 1159 2969 
Q 1341 3281 1617 3432 
Q 1894 3584 2278 3584 
Q 2916 3584 3314 3078 
Q 3713 2572 3713 1747 
Q 3713 922 3314 415 
Q 2916 -91 2278 -91 
Q 1894 -91 1617 61 
Q 1341 213 1159 525 
z
M 3116 1747 
Q 3116 2381 2855 2742 
Q 2594 3103 2138 3103 
Q 1681 3103 1420 2742 
Q 1159 2381 1159 1747 
Q 1159 1113 1420 752 
Q 1681 391 2138 391 
Q 2594 391 2855 752 
Q 3116 1113 3116 1747 
z
" transform="scale(0.015625)"/>
      <path id="DejaVuSans-6b" d="M 581 4863 
L 1159 4863 
L 1159 1991 
L 2875 3500 
L 3609 3500 
L 1753 1863 
L 3688 0 
L 2938 0 
L 1159 1709 
L 1159 0 
L 581 0 
L 581 4863 
z
" transform="scale(0.015625)"/>
      <path id="DejaVuSans-17c" d="M 1378 4863 
L 1953 4863 
L 1953 4134 
L 1378 4134 
L 1378 4863 
z
M 1672 3584 
L 1672 3584 
z
M 353 3500 
L 3084 3500 
L 3084 2975 
L 922 459 
L 3084 459 
L 3084 0 
L 275 0 
L 275 525 
L 2438 3041 
L 353 3041 
L 353 3500 
z
" transform="scale(0.015625)"/>
      <path id="DejaVuSans-67" d="M 2906 1791 
Q 2906 2416 2648 2759 
Q 2391 3103 1925 3103 
Q 1463 3103 1205 2759 
Q 947 2416 947 1791 
Q 947 1169 1205 825 
Q 1463 481 1925 481 
Q 2391 481 2648 825 
Q 2906 1169 2906 1791 
z
M 3481 434 
Q 3481 -459 3084 -895 
Q 2688 -1331 1869 -1331 
Q 1566 -1331 1297 -1286 
Q 1028 -1241 775 -1147 
L 775 -588 
Q 1028 -725 1275 -790 
Q 1522 -856 1778 -856 
Q 2344 -856 2625 -561 
Q 2906 -266 2906 331 
L 2906 616 
Q 2728 306 2450 153 
Q 2172 0 1784 0 
Q 1141 0 747 490 
Q 353 981 353 1791 
Q 353 2603 747 3093 
Q 1141 3584 1784 3584 
Q 2172 3584 2450 3431 
Q 2728 3278 2906 2969 
L 2906 3500 
L 3481 3500 
L 3481 434 
z
" transform="scale(0.015625)"/>
     </defs>
     <use xlink:href="#DejaVuSans-15a"/>
     <use xlink:href="#DejaVuSans-72" transform="translate(63.476562 0)"/>
     <use xlink:href="#DejaVuSans-65" transform="translate(102.339844 0)"/>
     <use xlink:href="#DejaVuSans-64" transform="translate(163.863281 0)"/>
     <use xlink:href="#DejaVuSans-6e" transform="translate(227.339844 0)"/>
     <use xlink:href="#DejaVuSans-69" transform="translate(290.71875 0)"/>
     <use xlink:href="#DejaVuSans-65" transform="translate(318.501953 0)"/>
     <use xlink:href="#DejaVuSans-20" transform="translate(380.025391 0)"/>
     <use xlink:href="#DejaVuSans-69" transform="translate(411.8125 0)"/>
     <use xlink:href="#DejaVuSans-20" transform="translate(439.595703 0)"/>
     <use xlink:href="#DejaVuSans-6e" transform="translate(471.382812 0)"/>
     <use xlink:href="#DejaVuSans-61" transform="translate(534.761719 0)"/>
     <use xlink:href="#DejaVuSans-6a" transform="translate(596.041016 0)"/>
     <use xlink:href="#DejaVuSans-6c" transform="translate(623.824219 0)"/>
     <use xlink:href="#DejaVuSans-65" transform="translate(651.607422 0)"/>
     <use xlink:href="#DejaVuSans-70" transform="translate(713.130859 0)"/>
     <use xlink:href="#DejaVuSans-73" transform="translate(776.607422 0)"/>
     <use xlink:href="#DejaVuSans-7a" transform="translate(828.707031 0)"/>
     <use xlink:href="#DejaVuSans-65" transform="translate(881.197266 0)"/>
     <use xlink:href="#DejaVuSans-20" transform="translate(942.720703 0)"/>
     <use xlink:href="#DejaVuSans-70" transform="translate(974.507812 0)"/>
     <use xlink:href="#DejaVuSans-72" transform="translate(1037.984375 0)"/>
     <use xlink:href="#DejaVuSans-7a" transform="translate(1079.097656 0)"/>
     <use xlink:href="#DejaVuSans-79" transform="translate(1131.587891 0)"/>
     <use xlink:href="#DejaVuSans-73" transform="translate(1190.767578 0)"/>
     <use xlink:href="#DejaVuSans-74" transform="translate(1242.867188 0)"/>
     <use xlink:href="#DejaVuSans-6f" transform="translate(1282.076172 0)"/>
     <use xlink:href="#DejaVuSans-73" transform="translate(1343.257812 0)"/>
     <use xlink:href="#DejaVuSans-6f" transform="translate(1395.357422 0)"/>
     <use xlink:href="#DejaVuSans-77" transform="translate(1456.539062 0)"/>
     <use xlink:href="#DejaVuSans-61" transform="translate(1538.326172 0)"/>
     <use xlink:href="#DejaVuSans-6e" transform="translate(1599.605469 0)"/>
     <use xlink:href="#DejaVuSans-69" transform="translate(1662.984375 0)"/>
     <use xlink:href="#DejaVuSans-65" transform="translate(1690.767578 0)"/>
     <use xlink:href="#DejaVuSans-20" transform="translate(1752.291016 0)"/>
     <use xlink:href="#DejaVuSans-77" transform="translate(1784.078125 0)"/>
     <use xlink:href="#DejaVuSans-20" transform="translate(1865.865234 0)"/>
     <use xlink:href="#DejaVuSans-6b" transform="translate(1897.652344 0)"/>
     <use xlink:href="#DejaVuSans-61" transform="translate(1953.8125 0)"/>
     <use xlink:href="#DejaVuSans-17c" transform="translate(2015.091797 0)"/>
     <use xlink:href="#DejaVuSans-64" transform="translate(2067.582031 0)"/>
     <use xlink:href="#DejaVuSans-65" transform="translate(2131.058594 0)"/>
     <use xlink:href="#DejaVuSans-6a" transform="translate(2192.582031 0)"/>
     <use xlink:href="#DejaVuSans-20" transform="translate(2220.365234 0)"/>
     <use xlink:href="#DejaVuSans-67" transform="translate(2252.152344 0)"/>
     <use xlink:href="#DejaVuSans-65" transform="translate(2315.628906 0)"/>
     <use xlink:href="#DejaVuSans-6e" transform="translate(2377.152344 0)"/>
     <use xlink:href="#DejaVuSans-65" transform="translate(2440.53125 0)"/>
     <use xlink:href="#DejaVuSans-72" transform="translate(2502.054688 0)"/>
     <use xlink:href="#DejaVuSans-61" transform="translate(2543.167969 0)"/>
     <use xlink:href="#DejaVuSans-63" transform="translate(2604.447266 0)"/>
     <use xlink:href="#DejaVuSans-6a" transform="translate(2659.427734 0)"/>
     <use xlink:href="#DejaVuSans-69" transform="translate(2687.210938 0)"/>
    </g>
   </g>
   <g id="legend_1">
    <g id="patch_7">
     <path d="M 279.790313 302.584 
L 407.72 302.584 
Q 409.72 302.584 409.72 300.584 
L 409.72 257.549625 
Q 409.72 255.549625 407.72 255.549625 
L 279.790313 255.549625 
Q 277.790313 255.549625 277.790313 257.549625 
L 277.790313 300.584 
Q 277.790313 302.584 279.790313 302.584 
z
" style="fill: #ffffff; opacity: 0.8; stroke: #cccccc; stroke-linejoin: miter"/>
    </g>
    <g id="line2d_24">
     <path d="M 281.790313 263.648062 
L 291.790313 263.648062 
L 301.790313 263.648062 
" style="fill: none; stroke: #0000ff; stroke-width: 1.5; stroke-linecap: square"/>
    </g>
    <g id="text_14">
     <!-- Średnia -->
     <g transform="translate(309.790313 267.148062) scale(0.1 -0.1)">
      <use xlink:href="#DejaVuSans-15a"/>
      <use xlink:href="#DejaVuSans-72" transform="translate(63.476562 0)"/>
      <use xlink:href="#DejaVuSans-65" transform="translate(102.339844 0)"/>
      <use xlink:href="#DejaVuSans-64" transform="translate(163.863281 0)"/>
      <use xlink:href="#DejaVuSans-6e" transform="translate(227.339844 0)"/>
      <use xlink:href="#DejaVuSans-69" transform="translate(290.71875 0)"/>
      <use xlink:href="#DejaVuSans-61" transform="translate(318.501953 0)"/>
     </g>
    </g>
    <g id="line2d_25">
     <path d="M 281.790313 278.326188 
L 291.790313 278.326188 
L 301.790313 278.326188 
" style="fill: none; stroke-dasharray: 9.6,2.4,1.5,2.4; stroke-dashoffset: 0; stroke: #008000; stroke-width: 1.5"/>
    </g>
    <g id="text_15">
     <!-- ±1 Odchylenie std. -->
     <g transform="translate(309.790313 281.826188) scale(0.1 -0.1)">
      <defs>
       <path id="DejaVuSans-b1" d="M 2944 4013 
L 2944 2803 
L 4684 2803 
L 4684 2272 
L 2944 2272 
L 2944 1063 
L 2419 1063 
L 2419 2272 
L 678 2272 
L 678 2803 
L 2419 2803 
L 2419 4013 
L 2944 4013 
z
M 678 531 
L 4684 531 
L 4684 0 
L 678 0 
L 678 531 
z
" transform="scale(0.015625)"/>
       <path id="DejaVuSans-4f" d="M 2522 4238 
Q 1834 4238 1429 3725 
Q 1025 3213 1025 2328 
Q 1025 1447 1429 934 
Q 1834 422 2522 422 
Q 3209 422 3611 934 
Q 4013 1447 4013 2328 
Q 4013 3213 3611 3725 
Q 3209 4238 2522 4238 
z
M 2522 4750 
Q 3503 4750 4090 4092 
Q 4678 3434 4678 2328 
Q 4678 1225 4090 567 
Q 3503 -91 2522 -91 
Q 1538 -91 948 565 
Q 359 1222 359 2328 
Q 359 3434 948 4092 
Q 1538 4750 2522 4750 
z
" transform="scale(0.015625)"/>
       <path id="DejaVuSans-68" d="M 3513 2113 
L 3513 0 
L 2938 0 
L 2938 2094 
Q 2938 2591 2744 2837 
Q 2550 3084 2163 3084 
Q 1697 3084 1428 2787 
Q 1159 2491 1159 1978 
L 1159 0 
L 581 0 
L 581 4863 
L 1159 4863 
L 1159 2956 
Q 1366 3272 1645 3428 
Q 1925 3584 2291 3584 
Q 2894 3584 3203 3211 
Q 3513 2838 3513 2113 
z
" transform="scale(0.015625)"/>
       <path id="DejaVuSans-2e" d="M 684 794 
L 1344 794 
L 1344 0 
L 684 0 
L 684 794 
z
" transform="scale(0.015625)"/>
      </defs>
      <use xlink:href="#DejaVuSans-b1"/>
      <use xlink:href="#DejaVuSans-31" transform="translate(83.789062 0)"/>
      <use xlink:href="#DejaVuSans-20" transform="translate(147.412109 0)"/>
      <use xlink:href="#DejaVuSans-4f" transform="translate(179.199219 0)"/>
      <use xlink:href="#DejaVuSans-64" transform="translate(257.910156 0)"/>
      <use xlink:href="#DejaVuSans-63" transform="translate(321.386719 0)"/>
      <use xlink:href="#DejaVuSans-68" transform="translate(376.367188 0)"/>
      <use xlink:href="#DejaVuSans-79" transform="translate(439.746094 0)"/>
      <use xlink:href="#DejaVuSans-6c" transform="translate(498.925781 0)"/>
      <use xlink:href="#DejaVuSans-65" transform="translate(526.708984 0)"/>
      <use xlink:href="#DejaVuSans-6e" transform="translate(588.232422 0)"/>
      <use xlink:href="#DejaVuSans-69" transform="translate(651.611328 0)"/>
      <use xlink:href="#DejaVuSans-65" transform="translate(679.394531 0)"/>
      <use xlink:href="#DejaVuSans-20" transform="translate(740.917969 0)"/>
      <use xlink:href="#DejaVuSans-73" transform="translate(772.705078 0)"/>
      <use xlink:href="#DejaVuSans-74" transform="translate(824.804688 0)"/>
      <use xlink:href="#DejaVuSans-64" transform="translate(864.013672 0)"/>
      <use xlink:href="#DejaVuSans-2e" transform="translate(927.490234 0)"/>
     </g>
    </g>
    <g id="line2d_26">
     <path d="M 281.790313 293.004312 
L 291.790313 293.004312 
L 301.790313 293.004312 
" style="fill: none; stroke: #ff0000; stroke-width: 1.5; stroke-linecap: square"/>
    </g>
    <g id="text_16">
     <!-- Najlepsze -->
     <g transform="translate(309.790313 296.504312) scale(0.1 -0.1)">
      <defs>
       <path id="DejaVuSans-4e" d="M 628 4666 
L 1478 4666 
L 3547 763 
L 3547 4666 
L 4159 4666 
L 4159 0 
L 3309 0 
L 1241 3903 
L 1241 0 
L 628 0 
L 628 4666 
z
" transform="scale(0.015625)"/>
      </defs>
      <use xlink:href="#DejaVuSans-4e"/>
      <use xlink:href="#DejaVuSans-61" transform="translate(74.804688 0)"/>
      <use xlink:href="#DejaVuSans-6a" transform="translate(136.083984 0)"/>
      <use xlink:href="#DejaVuSans-6c" transform="translate(163.867188 0)"/>
      <use xlink:href="#DejaVuSans-65" transform="translate(191.650391 0)"/>
      <use xlink:href="#DejaVuSans-70" transform="translate(253.173828 0)"/>
      <use xlink:href="#DejaVuSans-73" transform="translate(316.650391 0)"/>
      <use xlink:href="#DejaVuSans-7a" transform="translate(368.75 0)"/>
      <use xlink:href="#DejaVuSans-65" transform="translate(421.240234 0)"/>
     </g>
    </g>
   </g>
  </g>
 </g>
 <defs>
  <clipPath id="p3f1c3ff7ec">
   <rect x="57.6" y="41.472" width="357.12" height="266.112"/>
  </clipPath>
 </defs>
</svg>
