<?xml version="1.0" encoding="utf-8" standalone="no"?>
<!DOCTYPE svg PUBLIC "-//W3C//DTD SVG 1.1//EN"
  "http://www.w3.org/Graphics/SVG/1.1/DTD/svg11.dtd">
<svg xmlns:xlink="http://www.w3.org/1999/xlink" width="460.8pt" height="345.6pt" viewBox="0 0 460.8 345.6" xmlns="http://www.w3.org/2000/svg" version="1.1">
 <metadata>
  <rdf:RDF xmlns:dc="http://purl.org/dc/elements/1.1/" xmlns:cc="http://creativecommons.org/ns#" xmlns:rdf="http://www.w3.org/1999/02/22-rdf-syntax-ns#">
   <cc:Work>
    <dc:type rdf:resource="http://purl.org/dc/dcmitype/StillImage"/>
    <dc:date>2026-04-26T19:30:05.325716</dc:date>
    <dc:format>image/svg+xml</dc:format>
    <dc:creator>
     <cc:Agent>
      <dc:title>Matplotlib v3.10.8, https://matplotlib.org/</dc:title>
     </cc:Agent>
    </dc:creator>
   </cc:Work>
  </rdf:RDF>
 </metadata>
 <defs>
  <style type="text/css">*{stroke-linejoin: round; stroke-linecap: butt}</style>
 </defs>
 <g id="figure_1">
  <g id="patch_1">
   <path d="M 0 345.6 
L 460.8 345.6 
L 460.8 0 
L 0 0 
z
" style="fill: #ffffff"/>
  </g>
  <g id="axes_1">
   <g id="patch_2">
    <path d="M 57.6 307.584 
L 414.72 307.584 
L 414.72 41.472 
L 57.6 41.472 
z
" style="fill: #ffffff"/>
   </g>
   <g id="matplotlib.axis_1">
    <g id="xtick_1">
     <g id="line2d_1">
      <path d="M 72.201297 307.584 
L 72.201297 41.472 
" clip-path="url(#pf8adf2cea8)" style="fill: none; stroke: #b0b0b0; stroke-width: 0.8; stroke-linecap: square"/>
     </g>
     <g id="line2d_2">
      <defs>
       <path id="me04e4776e0" d="M 0 0 
L 0 3.5 
" style="stroke: #000000; stroke-width: 0.8"/>
      </defs>
      <g>
       <use xlink:href="#me04e4776e0" x="72.201297" y="307.584" style="stroke: #000000; stroke-width: 0.8"/>
      </g>
     </g>
     <g id="text_1">
      <!-- 0 -->
      <g transform="translate(69.020047 322.182437) scale(0.1 -0.1)">
       <defs>
        <path id="DejaVuSans-30" d="M 2034 4250 
Q 1547 4250 1301 3770 
Q 1056 3291 1056 2328 
Q 1056 1369 1301 889 
Q 1547 409 2034 409 
Q 2525 409 2770 889 
Q 3016 1369 3016 2328 
Q 3016 3291 2770 3770 
Q 2525 4250 2034 4250 
z
M 2034 4750 
Q 2819 4750 3233 4129 
Q 3647 3509 3647 2328 
Q 3647 1150 3233 529 
Q 2819 -91 2034 -91 
Q 1250 -91 836 529 
Q 422 1150 422 2328 
Q 422 3509 836 4129 
Q 1250 4750 2034 4750 
z
" transform="scale(0.015625)"/>
       </defs>
       <use xlink:href="#DejaVuSans-30"/>
      </g>
     </g>
    </g>
    <g id="xtick_2">
     <g id="line2d_3">
      <path d="M 112.987044 307.584 
L 112.987044 41.472 
" clip-path="url(#pf8adf2cea8)" style="fill: none; stroke: #b0b0b0; stroke-width: 0.8; stroke-linecap: square"/>
     </g>
     <g id="line2d_4">
      <g>
       <use xlink:href="#me04e4776e0" x="112.987044" y="307.584" style="stroke: #000000; stroke-width: 0.8"/>
      </g>
     </g>
     <g id="text_2">
      <!-- 25 -->
      <g transform="translate(106.624544 322.182437) scale(0.1 -0.1)">
       <defs>
        <path id="DejaVuSans-32" d="M 1228 531 
L 3431 531 
L 3431 0 
L 469 0 
L 469 531 
Q 828 903 1448 1529 
Q 2069 2156 2228 2338 
Q 2531 2678 2651 2914 
Q 2772 3150 2772 3378 
Q 2772 3750 2511 3984 
Q 2250 4219 1831 4219 
Q 1534 4219 1204 4116 
Q 875 4013 500 3803 
L 500 4441 
Q 881 4594 1212 4672 
Q 1544 4750 1819 4750 
Q 2544 4750 2975 4387 
Q 3406 4025 3406 3419 
Q 3406 3131 3298 2873 
Q 3191 2616 2906 2266 
Q 2828 2175 2409 1742 
Q 1991 1309 1228 531 
z
" transform="scale(0.015625)"/>
        <path id="DejaVuSans-35" d="M 691 4666 
L 3169 4666 
L 3169 4134 
L 1269 4134 
L 1269 2991 
Q 1406 3038 1543 3061 
Q 1681 3084 1819 3084 
Q 2600 3084 3056 2656 
Q 3513 2228 3513 1497 
Q 3513 744 3044 326 
Q 2575 -91 1722 -91 
Q 1428 -91 1123 -41 
Q 819 9 494 109 
L 494 744 
Q 775 591 1075 516 
Q 1375 441 1709 441 
Q 2250 441 2565 725 
Q 2881 1009 2881 1497 
Q 2881 1984 2565 2268 
Q 2250 2553 1709 2553 
Q 1456 2553 1204 2497 
Q 953 2441 691 2322 
L 691 4666 
z
" transform="scale(0.015625)"/>
       </defs>
       <use xlink:href="#DejaVuSans-32"/>
       <use xlink:href="#DejaVuSans-35" transform="translate(63.623047 0)"/>
      </g>
     </g>
    </g>
    <g id="xtick_3">
     <g id="line2d_5">
      <path d="M 153.772791 307.584 
L 153.772791 41.472 
" clip-path="url(#pf8adf2cea8)" style="fill: none; stroke: #b0b0b0; stroke-width: 0.8; stroke-linecap: square"/>
     </g>
     <g id="line2d_6">
      <g>
       <use xlink:href="#me04e4776e0" x="153.772791" y="307.584" style="stroke: #000000; stroke-width: 0.8"/>
      </g>
     </g>
     <g id="text_3">
      <!-- 50 -->
      <g transform="translate(147.410291 322.182437) scale(0.1 -0.1)">
       <use xlink:href="#DejaVuSans-35"/>
       <use xlink:href="#DejaVuSans-30" transform="translate(63.623047 0)"/>
      </g>
     </g>
    </g>
    <g id="xtick_4">
     <g id="line2d_7">
      <path d="M 194.558538 307.584 
L 194.558538 41.472 
" clip-path="url(#pf8adf2cea8)" style="fill: none; stroke: #b0b0b0; stroke-width: 0.8; stroke-linecap: square"/>
     </g>
     <g id="line2d_8">
      <g>
       <use xlink:href="#me04e4776e0" x="194.558538" y="307.584" style="stroke: #000000; stroke-width: 0.8"/>
      </g>
     </g>
     <g id="text_4">
      <!-- 75 -->
      <g transform="translate(188.196038 322.182437) scale(0.1 -0.1)">
       <defs>
        <path id="DejaVuSans-37" d="M 525 4666 
L 3525 4666 
L 3525 4397 
L 1831 0 
L 1172 0 
L 2766 4134 
L 525 4134 
L 525 4666 
z
" transform="scale(0.015625)"/>
       </defs>
       <use xlink:href="#DejaVuSans-37"/>
       <use xlink:href="#DejaVuSans-35" transform="translate(63.623047 0)"/>
      </g>
     </g>
    </g>
    <g id="xtick_5">
     <g id="line2d_9">
      <path d="M 235.344285 307.584 
L 235.344285 41.472 
" clip-path="url(#pf8adf2cea8)" style="fill: none; stroke: #b0b0b0; stroke-width: 0.8; stroke-linecap: square"/>
     </g>
     <g id="line2d_10">
      <g>
       <use xlink:href="#me04e4776e0" x="235.344285" y="307.584" style="stroke: #000000; stroke-width: 0.8"/>
      </g>
     </g>
     <g id="text_5">
      <!-- 100 -->
      <g transform="translate(225.800535 322.182437) scale(0.1 -0.1)">
       <defs>
        <path id="DejaVuSans-31" d="M 794 531 
L 1825 531 
L 1825 4091 
L 703 3866 
L 703 4441 
L 1819 4666 
L 2450 4666 
L 2450 531 
L 3481 531 
L 3481 0 
L 794 0 
L 794 531 
z
" transform="scale(0.015625)"/>
       </defs>
       <use xlink:href="#DejaVuSans-31"/>
       <use xlink:href="#DejaVuSans-30" transform="translate(63.623047 0)"/>
       <use xlink:href="#DejaVuSans-30" transform="translate(127.246094 0)"/>
      </g>
     </g>
    </g>
    <g id="xtick_6">
     <g id="line2d_11">
      <path d="M 276.130032 307.584 
L 276.130032 41.472 
" clip-path="url(#pf8adf2cea8)" style="fill: none; stroke: #b0b0b0; stroke-width: 0.8; stroke-linecap: square"/>
     </g>
     <g id="line2d_12">
      <g>
       <use xlink:href="#me04e4776e0" x="276.130032" y="307.584" style="stroke: #000000; stroke-width: 0.8"/>
      </g>
     </g>
     <g id="text_6">
      <!-- 125 -->
      <g transform="translate(266.586282 322.182437) scale(0.1 -0.1)">
       <use xlink:href="#DejaVuSans-31"/>
       <use xlink:href="#DejaVuSans-32" transform="translate(63.623047 0)"/>
       <use xlink:href="#DejaVuSans-35" transform="translate(127.246094 0)"/>
      </g>
     </g>
    </g>
    <g id="xtick_7">
     <g id="line2d_13">
      <path d="M 316.915779 307.584 
L 316.915779 41.472 
" clip-path="url(#pf8adf2cea8)" style="fill: none; stroke: #b0b0b0; stroke-width: 0.8; stroke-linecap: square"/>
     </g>
     <g id="line2d_14">
      <g>
       <use xlink:href="#me04e4776e0" x="316.915779" y="307.584" style="stroke: #000000; stroke-width: 0.8"/>
      </g>
     </g>
     <g id="text_7">
      <!-- 150 -->
      <g transform="translate(307.372029 322.182437) scale(0.1 -0.1)">
       <use xlink:href="#DejaVuSans-31"/>
       <use xlink:href="#DejaVuSans-35" transform="translate(63.623047 0)"/>
       <use xlink:href="#DejaVuSans-30" transform="translate(127.246094 0)"/>
      </g>
     </g>
    </g>
    <g id="xtick_8">
     <g id="line2d_15">
      <path d="M 357.701526 307.584 
L 357.701526 41.472 
" clip-path="url(#pf8adf2cea8)" style="fill: none; stroke: #b0b0b0; stroke-width: 0.8; stroke-linecap: square"/>
     </g>
     <g id="line2d_16">
      <g>
       <use xlink:href="#me04e4776e0" x="357.701526" y="307.584" style="stroke: #000000; stroke-width: 0.8"/>
      </g>
     </g>
     <g id="text_8">
      <!-- 175 -->
      <g transform="translate(348.157776 322.182437) scale(0.1 -0.1)">
       <use xlink:href="#DejaVuSans-31"/>
       <use xlink:href="#DejaVuSans-37" transform="translate(63.623047 0)"/>
       <use xlink:href="#DejaVuSans-35" transform="translate(127.246094 0)"/>
      </g>
     </g>
    </g>
    <g id="xtick_9">
     <g id="line2d_17">
      <path d="M 398.487273 307.584 
L 398.487273 41.472 
" clip-path="url(#pf8adf2cea8)" style="fill: none; stroke: #b0b0b0; stroke-width: 0.8; stroke-linecap: square"/>
     </g>
     <g id="line2d_18">
      <g>
       <use xlink:href="#me04e4776e0" x="398.487273" y="307.584" style="stroke: #000000; stroke-width: 0.8"/>
      </g>
     </g>
     <g id="text_9">
      <!-- 200 -->
      <g transform="translate(388.943523 322.182437) scale(0.1 -0.1)">
       <use xlink:href="#DejaVuSans-32"/>
       <use xlink:href="#DejaVuSans-30" transform="translate(63.623047 0)"/>
       <use xlink:href="#DejaVuSans-30" transform="translate(127.246094 0)"/>
      </g>
     </g>
    </g>
    <g id="text_10">
     <!-- Generacje -->
     <g transform="translate(210.629531 335.860562) scale(0.1 -0.1)">
      <defs>
       <path id="DejaVuSans-47" d="M 3809 666 
L 3809 1919 
L 2778 1919 
L 2778 2438 
L 4434 2438 
L 4434 434 
Q 4069 175 3628 42 
Q 3188 -91 2688 -91 
Q 1594 -91 976 548 
Q 359 1188 359 2328 
Q 359 3472 976 4111 
Q 1594 4750 2688 4750 
Q 3144 4750 3555 4637 
Q 3966 4525 4313 4306 
L 4313 3634 
Q 3963 3931 3569 4081 
Q 3175 4231 2741 4231 
Q 1884 4231 1454 3753 
Q 1025 3275 1025 2328 
Q 1025 1384 1454 906 
Q 1884 428 2741 428 
Q 3075 428 3337 486 
Q 3600 544 3809 666 
z
" transform="scale(0.015625)"/>
       <path id="DejaVuSans-65" d="M 3597 1894 
L 3597 1613 
L 953 1613 
Q 991 1019 1311 708 
Q 1631 397 2203 397 
Q 2534 397 2845 478 
Q 3156 559 3463 722 
L 3463 178 
Q 3153 47 2828 -22 
Q 2503 -91 2169 -91 
Q 1331 -91 842 396 
Q 353 884 353 1716 
Q 353 2575 817 3079 
Q 1281 3584 2069 3584 
Q 2775 3584 3186 3129 
Q 3597 2675 3597 1894 
z
M 3022 2063 
Q 3016 2534 2758 2815 
Q 2500 3097 2075 3097 
Q 1594 3097 1305 2825 
Q 1016 2553 972 2059 
L 3022 2063 
z
" transform="scale(0.015625)"/>
       <path id="DejaVuSans-6e" d="M 3513 2113 
L 3513 0 
L 2938 0 
L 2938 2094 
Q 2938 2591 2744 2837 
Q 2550 3084 2163 3084 
Q 1697 3084 1428 2787 
Q 1159 2491 1159 1978 
L 1159 0 
L 581 0 
L 581 3500 
L 1159 3500 
L 1159 2956 
Q 1366 3272 1645 3428 
Q 1925 3584 2291 3584 
Q 2894 3584 3203 3211 
Q 3513 2838 3513 2113 
z
" transform="scale(0.015625)"/>
       <path id="DejaVuSans-72" d="M 2631 2963 
Q 2534 3019 2420 3045 
Q 2306 3072 2169 3072 
Q 1681 3072 1420 2755 
Q 1159 2438 1159 1844 
L 1159 0 
L 581 0 
L 581 3500 
L 1159 3500 
L 1159 2956 
Q 1341 3275 1631 3429 
Q 1922 3584 2338 3584 
Q 2397 3584 2469 3576 
Q 2541 3569 2628 3553 
L 2631 2963 
z
" transform="scale(0.015625)"/>
       <path id="DejaVuSans-61" d="M 2194 1759 
Q 1497 1759 1228 1600 
Q 959 1441 959 1056 
Q 959 750 1161 570 
Q 1363 391 1709 391 
Q 2188 391 2477 730 
Q 2766 1069 2766 1631 
L 2766 1759 
L 2194 1759 
z
M 3341 1997 
L 3341 0 
L 2766 0 
L 2766 531 
Q 2569 213 2275 61 
Q 1981 -91 1556 -91 
Q 1019 -91 701 211 
Q 384 513 384 1019 
Q 384 1609 779 1909 
Q 1175 2209 1959 2209 
L 2766 2209 
L 2766 2266 
Q 2766 2663 2505 2880 
Q 2244 3097 1772 3097 
Q 1472 3097 1187 3025 
Q 903 2953 641 2809 
L 641 3341 
Q 956 3463 1253 3523 
Q 1550 3584 1831 3584 
Q 2591 3584 2966 3190 
Q 3341 2797 3341 1997 
z
" transform="scale(0.015625)"/>
       <path id="DejaVuSans-63" d="M 3122 3366 
L 3122 2828 
Q 2878 2963 2633 3030 
Q 2388 3097 2138 3097 
Q 1578 3097 1268 2742 
Q 959 2388 959 1747 
Q 959 1106 1268 751 
Q 1578 397 2138 397 
Q 2388 397 2633 464 
Q 2878 531 3122 666 
L 3122 134 
Q 2881 22 2623 -34 
Q 2366 -91 2075 -91 
Q 1284 -91 818 406 
Q 353 903 353 1747 
Q 353 2603 823 3093 
Q 1294 3584 2113 3584 
Q 2378 3584 2631 3529 
Q 2884 3475 3122 3366 
z
" transform="scale(0.015625)"/>
       <path id="DejaVuSans-6a" d="M 603 3500 
L 1178 3500 
L 1178 -63 
Q 1178 -731 923 -1031 
Q 669 -1331 103 -1331 
L -116 -1331 
L -116 -844 
L 38 -844 
Q 366 -844 484 -692 
Q 603 -541 603 -63 
L 603 3500 
z
M 603 4863 
L 1178 4863 
L 1178 4134 
L 603 4134 
L 603 4863 
z
" transform="scale(0.015625)"/>
      </defs>
      <use xlink:href="#DejaVuSans-47"/>
      <use xlink:href="#DejaVuSans-65" transform="translate(77.490234 0)"/>
      <use xlink:href="#DejaVuSans-6e" transform="translate(139.013672 0)"/>
      <use xlink:href="#DejaVuSans-65" transform="translate(202.392578 0)"/>
      <use xlink:href="#DejaVuSans-72" transform="translate(263.916016 0)"/>
      <use xlink:href="#DejaVuSans-61" transform="translate(305.029297 0)"/>
      <use xlink:href="#DejaVuSans-63" transform="translate(366.308594 0)"/>
      <use xlink:href="#DejaVuSans-6a" transform="translate(421.289062 0)"/>
      <use xlink:href="#DejaVuSans-65" transform="translate(449.072266 0)"/>
     </g>
    </g>
   </g>
   <g id="matplotlib.axis_2">
    <g id="ytick_1">
     <g id="line2d_19">
      <path d="M 57.6 118.400561 
L 414.72 118.400561 
" clip-path="url(#pf8adf2cea8)" style="fill: none; stroke: #b0b0b0; stroke-width: 0.8; stroke-linecap: square"/>
     </g>
     <g id="line2d_20">
      <defs>
       <path id="m9a37a933aa" d="M 0 0 
L -3.5 0 
" style="stroke: #000000; stroke-width: 0.8"/>
      </defs>
      <g>
       <use xlink:href="#m9a37a933aa" x="57.6" y="118.400561" style="stroke: #000000; stroke-width: 0.8"/>
      </g>
     </g>
     <g id="text_11">
      <!-- $\mathdefault{10^{2}}$ -->
      <g transform="translate(33 122.19978) scale(0.1 -0.1)">
       <use xlink:href="#DejaVuSans-31" transform="translate(0 0.765625)"/>
       <use xlink:href="#DejaVuSans-30" transform="translate(63.623047 0.765625)"/>
       <use xlink:href="#DejaVuSans-32" transform="translate(128.203125 39.046875) scale(0.7)"/>
      </g>
     </g>
    </g>
    <g id="text_12">
     <!-- Przystosowanie -->
     <g transform="translate(26.920312 213.170187) rotate(-90) scale(0.1 -0.1)">
      <defs>
       <path id="DejaVuSans-50" d="M 1259 4147 
L 1259 2394 
L 2053 2394 
Q 2494 2394 2734 2622 
Q 2975 2850 2975 3272 
Q 2975 3691 2734 3919 
Q 2494 4147 2053 4147 
L 1259 4147 
z
M 628 4666 
L 2053 4666 
Q 2838 4666 3239 4311 
Q 3641 3956 3641 3272 
Q 3641 2581 3239 2228 
Q 2838 1875 2053 1875 
L 1259 1875 
L 1259 0 
L 628 0 
L 628 4666 
z
" transform="scale(0.015625)"/>
       <path id="DejaVuSans-7a" d="M 353 3500 
L 3084 3500 
L 3084 2975 
L 922 459 
L 3084 459 
L 3084 0 
L 275 0 
L 275 525 
L 2438 3041 
L 353 3041 
L 353 3500 
z
" transform="scale(0.015625)"/>
       <path id="DejaVuSans-79" d="M 2059 -325 
Q 1816 -950 1584 -1140 
Q 1353 -1331 966 -1331 
L 506 -1331 
L 506 -850 
L 844 -850 
Q 1081 -850 1212 -737 
Q 1344 -625 1503 -206 
L 1606 56 
L 191 3500 
L 800 3500 
L 1894 763 
L 2988 3500 
L 3597 3500 
L 2059 -325 
z
" transform="scale(0.015625)"/>
       <path id="DejaVuSans-73" d="M 2834 3397 
L 2834 2853 
Q 2591 2978 2328 3040 
Q 2066 3103 1784 3103 
Q 1356 3103 1142 2972 
Q 928 2841 928 2578 
Q 928 2378 1081 2264 
Q 1234 2150 1697 2047 
L 1894 2003 
Q 2506 1872 2764 1633 
Q 3022 1394 3022 966 
Q 3022 478 2636 193 
Q 2250 -91 1575 -91 
Q 1294 -91 989 -36 
Q 684 19 347 128 
L 347 722 
Q 666 556 975 473 
Q 1284 391 1588 391 
Q 1994 391 2212 530 
Q 2431 669 2431 922 
Q 2431 1156 2273 1281 
Q 2116 1406 1581 1522 
L 1381 1569 
Q 847 1681 609 1914 
Q 372 2147 372 2553 
Q 372 3047 722 3315 
Q 1072 3584 1716 3584 
Q 2034 3584 2315 3537 
Q 2597 3491 2834 3397 
z
" transform="scale(0.015625)"/>
       <path id="DejaVuSans-74" d="M 1172 4494 
L 1172 3500 
L 2356 3500 
L 2356 3053 
L 1172 3053 
L 1172 1153 
Q 1172 725 1289 603 
Q 1406 481 1766 481 
L 2356 481 
L 2356 0 
L 1766 0 
Q 1100 0 847 248 
Q 594 497 594 1153 
L 594 3053 
L 172 3053 
L 172 3500 
L 594 3500 
L 594 4494 
L 1172 4494 
z
" transform="scale(0.015625)"/>
       <path id="DejaVuSans-6f" d="M 1959 3097 
Q 1497 3097 1228 2736 
Q 959 2375 959 1747 
Q 959 1119 1226 758 
Q 1494 397 1959 397 
Q 2419 397 2687 759 
Q 2956 1122 2956 1747 
Q 2956 2369 2687 2733 
Q 2419 3097 1959 3097 
z
M 1959 3584 
Q 2709 3584 3137 3096 
Q 3566 2609 3566 1747 
Q 3566 888 3137 398 
Q 2709 -91 1959 -91 
Q 1206 -91 779 398 
Q 353 888 353 1747 
Q 353 2609 779 3096 
Q 1206 3584 1959 3584 
z
" transform="scale(0.015625)"/>
       <path id="DejaVuSans-77" d="M 269 3500 
L 844 3500 
L 1563 769 
L 2278 3500 
L 2956 3500 
L 3675 769 
L 4391 3500 
L 4966 3500 
L 4050 0 
L 3372 0 
L 2619 2869 
L 1863 0 
L 1184 0 
L 269 3500 
z
" transform="scale(0.015625)"/>
       <path id="DejaVuSans-69" d="M 603 3500 
L 1178 3500 
L 1178 0 
L 603 0 
L 603 3500 
z
M 603 4863 
L 1178 4863 
L 1178 4134 
L 603 4134 
L 603 4863 
z
" transform="scale(0.015625)"/>
      </defs>
      <use xlink:href="#DejaVuSans-50"/>
      <use xlink:href="#DejaVuSans-72" transform="translate(58.552734 0)"/>
      <use xlink:href="#DejaVuSans-7a" transform="translate(99.666016 0)"/>
      <use xlink:href="#DejaVuSans-79" transform="translate(152.15625 0)"/>
      <use xlink:href="#DejaVuSans-73" transform="translate(211.335938 0)"/>
      <use xlink:href="#DejaVuSans-74" transform="translate(263.435547 0)"/>
      <use xlink:href="#DejaVuSans-6f" transform="translate(302.644531 0)"/>
      <use xlink:href="#DejaVuSans-73" transform="translate(363.826172 0)"/>
      <use xlink:href="#DejaVuSans-6f" transform="translate(415.925781 0)"/>
      <use xlink:href="#DejaVuSans-77" transform="translate(477.107422 0)"/>
      <use xlink:href="#DejaVuSans-61" transform="translate(558.894531 0)"/>
      <use xlink:href="#DejaVuSans-6e" transform="translate(620.173828 0)"/>
      <use xlink:href="#DejaVuSans-69" transform="translate(683.552734 0)"/>
      <use xlink:href="#DejaVuSans-65" transform="translate(711.335938 0)"/>
     </g>
    </g>
   </g>
   <g id="line2d_21">
    <path d="M 73.832727 295.488 
L 75.464157 229.499705 
L 77.095587 186.814788 
L 78.727017 197.227666 
L 80.358447 184.980356 
L 81.989877 158.945487 
L 83.621307 171.482521 
L 85.252736 154.018806 
L 86.884166 151.88162 
L 88.515596 153.984168 
L 90.147026 157.551106 
L 91.778456 160.218188 
L 93.409886 148.689744 
L 95.041316 142.720889 
L 96.672746 147.821738 
L 98.304175 144.047623 
L 99.935605 142.653556 
L 101.567035 145.71621 
L 103.198465 143.584272 
L 104.829895 142.300326 
L 106.461325 142.303463 
L 108.092755 143.798592 
L 109.724185 143.856218 
L 111.355614 142.090321 
L 112.987044 144.248248 
L 114.618474 143.794743 
L 116.249904 148.170073 
L 117.881334 141.878222 
L 119.512764 145.298779 
L 121.144194 140.960356 
L 122.775624 141.225198 
L 126.038483 144.068535 
L 127.669913 142.181166 
L 129.301343 137.179561 
L 130.932773 140.619828 
L 132.564203 139.832067 
L 134.195633 138.512075 
L 135.827063 141.384084 
L 137.458492 139.091199 
L 139.089922 139.5121 
L 140.721352 137.977473 
L 143.984212 140.581708 
L 145.615642 139.389845 
L 147.247072 138.020535 
L 148.878502 138.828661 
L 150.509931 138.607289 
L 152.141361 134.797879 
L 153.772791 136.642746 
L 155.404221 138.055551 
L 157.035651 139.254759 
L 158.667081 137.405895 
L 160.298511 138.189175 
L 161.929941 137.319729 
L 163.56137 139.250901 
L 165.1928 136.65479 
L 166.82423 137.449758 
L 168.45566 135.859188 
L 170.08709 138.855105 
L 171.71852 137.796887 
L 173.34995 136.25616 
L 174.98138 135.307322 
L 176.61281 136.91124 
L 178.244239 137.894375 
L 179.875669 138.572393 
L 181.507099 136.456905 
L 183.138529 136.471028 
L 184.769959 134.752867 
L 186.401389 138.869541 
L 188.032819 137.351296 
L 189.664249 140.641969 
L 191.295678 139.439416 
L 192.927108 138.64991 
L 194.558538 139.414656 
L 196.189968 138.5388 
L 197.821398 138.767536 
L 199.452828 138.073366 
L 201.084258 138.91198 
L 202.715688 136.583197 
L 204.347117 136.836827 
L 205.978547 136.406011 
L 207.609977 138.347775 
L 209.241407 138.924306 
L 210.872837 137.658089 
L 212.504267 138.343691 
L 214.135697 136.593799 
L 215.767127 138.068415 
L 217.398556 138.223552 
L 219.029986 137.658589 
L 220.661416 137.357026 
L 222.292846 137.899167 
L 223.924276 137.882131 
L 225.555706 138.303302 
L 227.187136 135.008637 
L 228.818566 138.116244 
L 230.449995 138.665028 
L 232.081425 135.378004 
L 233.712855 138.51907 
L 235.344285 137.079714 
L 236.975715 138.099567 
L 238.607145 138.779169 
L 240.238575 137.720258 
L 241.870005 136.130297 
L 243.501434 136.582325 
L 245.132864 138.592542 
L 246.764294 137.536531 
L 248.395724 137.188747 
L 250.027154 137.702127 
L 251.658584 137.72654 
L 253.290014 136.041887 
L 254.921444 137.962959 
L 256.552873 136.735051 
L 258.184303 137.490652 
L 259.815733 136.087055 
L 261.447163 137.506964 
L 263.078593 137.963491 
L 264.710023 137.641041 
L 266.341453 137.034879 
L 267.972883 136.644321 
L 269.604312 137.197197 
L 271.235742 136.117831 
L 272.867172 136.372632 
L 274.498602 136.50636 
L 276.130032 136.49333 
L 277.761462 137.400262 
L 279.392892 137.372267 
L 281.024322 134.905412 
L 282.655751 136.104686 
L 284.287181 136.290352 
L 285.918611 138.589466 
L 287.550041 136.934904 
L 289.181471 137.069652 
L 290.812901 136.852505 
L 292.444331 139.163015 
L 294.075761 134.988202 
L 295.70719 136.264106 
L 297.33862 137.911554 
L 298.97005 136.690378 
L 300.60148 137.976237 
L 302.23291 136.682355 
L 303.86434 137.824275 
L 305.49577 135.637295 
L 307.1272 138.085828 
L 308.75863 136.901012 
L 310.390059 136.200556 
L 312.021489 136.946118 
L 313.652919 135.984127 
L 315.284349 138.678932 
L 316.915779 136.189017 
L 318.547209 136.609241 
L 320.178639 136.452197 
L 321.810069 136.629476 
L 323.441498 135.062357 
L 325.072928 136.348635 
L 326.704358 137.104612 
L 328.335788 137.121402 
L 329.967218 136.112633 
L 331.598648 135.376524 
L 333.230078 136.821668 
L 334.861508 136.440717 
L 336.492937 135.836905 
L 338.124367 137.002121 
L 339.755797 136.602361 
L 341.387227 137.078745 
L 343.018657 135.565324 
L 344.650087 134.687326 
L 347.912947 137.065079 
L 349.544376 135.819279 
L 351.175806 136.107612 
L 352.807236 137.012131 
L 354.438666 136.617446 
L 356.070096 138.055196 
L 357.701526 135.562753 
L 359.332956 137.32966 
L 360.964386 136.791648 
L 362.595815 136.905162 
L 364.227245 135.914503 
L 365.858675 137.69755 
L 367.490105 135.995925 
L 369.121535 136.494036 
L 370.752965 137.606014 
L 372.384395 137.009307 
L 374.015825 137.419056 
L 375.647254 137.554742 
L 377.278684 136.426736 
L 378.910114 136.318736 
L 380.541544 136.985503 
L 382.172974 136.460659 
L 383.804404 138.278256 
L 385.435834 135.400487 
L 387.067264 137.579097 
L 388.698693 135.65724 
L 390.330123 136.632318 
L 391.961553 135.768595 
L 393.592983 136.007435 
L 395.224413 137.304577 
L 396.855843 136.43393 
L 398.487273 137.509466 
L 398.487273 137.509466 
" clip-path="url(#pf8adf2cea8)" style="fill: none; stroke: #0000ff; stroke-width: 1.5; stroke-linecap: square"/>
   </g>
   <g id="line2d_22">
    <path d="M 73.832727 240.883454 
L 75.464157 170.255251 
L 77.095587 137.13508 
L 78.727017 145.157401 
L 81.989877 120.993159 
L 83.621307 130.41707 
L 85.252736 120.306831 
L 86.884166 119.966503 
L 88.515596 121.586512 
L 90.147026 120.233124 
L 95.041316 125.739557 
L 96.672746 120.871007 
L 98.304175 121.456936 
L 99.935605 122.979048 
L 101.567035 121.976829 
L 103.198465 124.562958 
L 104.829895 120.104582 
L 106.461325 122.085742 
L 108.092755 122.496304 
L 109.724185 122.637162 
L 111.355614 119.621969 
L 112.987044 118.932006 
L 114.618474 120.785571 
L 116.249904 119.005001 
L 117.881334 120.992231 
L 119.512764 116.2147 
L 121.144194 116.56394 
L 122.775624 117.973333 
L 124.407053 122.018107 
L 126.038483 119.906852 
L 127.669913 121.442799 
L 129.301343 122.750589 
L 130.932773 122.284413 
L 132.564203 119.750337 
L 134.195633 121.40001 
L 135.827063 123.453872 
L 137.458492 121.700718 
L 139.089922 123.258053 
L 140.721352 122.690494 
L 142.352782 123.301969 
L 143.984212 122.322931 
L 145.615642 119.788686 
L 147.247072 120.749744 
L 148.878502 122.841578 
L 150.509931 120.141048 
L 152.141361 119.499212 
L 155.404221 123.484752 
L 157.035651 119.638793 
L 158.667081 119.453992 
L 160.298511 123.690104 
L 161.929941 120.015688 
L 163.56137 121.426831 
L 165.1928 120.786605 
L 166.82423 123.134597 
L 168.45566 119.496997 
L 170.08709 119.395586 
L 171.71852 120.356312 
L 173.34995 118.358629 
L 174.98138 120.063743 
L 176.61281 120.2853 
L 178.244239 115.229531 
L 179.875669 117.675643 
L 181.507099 119.613406 
L 183.138529 116.84005 
L 184.769959 116.21758 
L 186.401389 117.913118 
L 188.032819 116.973405 
L 189.664249 122.160146 
L 191.295678 120.987715 
L 192.927108 120.822832 
L 194.558538 125.965303 
L 196.189968 123.03262 
L 197.821398 123.417917 
L 199.452828 123.24038 
L 201.084258 125.117908 
L 202.715688 121.697942 
L 204.347117 121.269337 
L 205.978547 121.235482 
L 207.609977 123.23168 
L 210.872837 120.787354 
L 212.504267 120.728529 
L 214.135697 122.508169 
L 215.767127 123.697965 
L 217.398556 123.032153 
L 219.029986 119.830238 
L 222.292846 124.275301 
L 223.924276 122.202731 
L 225.555706 123.46798 
L 227.187136 118.843855 
L 228.818566 121.876943 
L 230.449995 123.234673 
L 232.081425 120.151794 
L 233.712855 123.730186 
L 235.344285 121.225444 
L 236.975715 119.626023 
L 238.607145 120.143018 
L 240.238575 121.38776 
L 241.870005 122.093821 
L 243.501434 121.785587 
L 245.132864 121.890374 
L 246.764294 121.270806 
L 248.395724 122.084693 
L 250.027154 121.243181 
L 251.658584 122.491754 
L 253.290014 119.242145 
L 254.921444 121.399351 
L 256.552873 120.33983 
L 258.184303 122.505108 
L 259.815733 120.246236 
L 261.447163 121.52865 
L 263.078593 123.815751 
L 264.710023 122.385618 
L 266.341453 121.693087 
L 267.972883 118.12939 
L 269.604312 121.47432 
L 271.235742 119.8504 
L 272.867172 120.691924 
L 274.498602 118.954178 
L 276.130032 119.433206 
L 277.761462 123.396812 
L 279.392892 121.852875 
L 281.024322 118.912738 
L 282.655751 120.118167 
L 284.287181 120.469155 
L 285.918611 118.129367 
L 287.550041 121.617371 
L 290.812901 120.945407 
L 292.444331 124.536935 
L 294.075761 118.510734 
L 295.70719 121.609567 
L 297.33862 120.907258 
L 298.97005 121.255863 
L 300.60148 122.582882 
L 302.23291 121.603825 
L 303.86434 122.568362 
L 305.49577 121.286874 
L 307.1272 124.781017 
L 308.75863 120.807204 
L 310.390059 120.662188 
L 312.021489 120.330947 
L 313.652919 122.394531 
L 315.284349 121.587259 
L 316.915779 118.546936 
L 318.547209 120.185709 
L 320.178639 120.595705 
L 321.810069 121.541234 
L 323.441498 118.29489 
L 326.704358 122.584677 
L 328.335788 121.967495 
L 329.967218 121.856649 
L 331.598648 119.409129 
L 333.230078 121.485531 
L 336.492937 119.896085 
L 338.124367 121.229659 
L 339.755797 120.783671 
L 341.387227 122.341829 
L 343.018657 120.454616 
L 344.650087 118.776135 
L 346.281517 119.17436 
L 347.912947 121.553592 
L 349.544376 119.684406 
L 351.175806 120.950727 
L 352.807236 121.759997 
L 354.438666 121.034561 
L 356.070096 123.188521 
L 357.701526 119.55179 
L 359.332956 121.903526 
L 360.964386 121.576708 
L 362.595815 122.375479 
L 364.227245 120.562391 
L 365.858675 122.739535 
L 367.490105 120.287818 
L 369.121535 123.144529 
L 370.752965 122.722261 
L 372.384395 122.095527 
L 374.015825 122.701128 
L 375.647254 122.585578 
L 377.278684 121.699792 
L 378.910114 121.186418 
L 380.541544 122.565817 
L 382.172974 122.164264 
L 383.804404 120.532084 
L 385.435834 119.413465 
L 387.067264 123.544033 
L 388.698693 120.181935 
L 390.330123 120.919082 
L 391.961553 118.023368 
L 393.592983 120.651835 
L 395.224413 122.662462 
L 396.855843 121.000454 
L 398.487273 122.861875 
L 398.487273 122.861875 
" clip-path="url(#pf8adf2cea8)" style="fill: none; stroke-dasharray: 9.6,2.4,1.5,2.4; stroke-dashoffset: 0; stroke: #008000; stroke-width: 1.5"/>
   </g>
   <g id="line2d_23">
    <path d="M 73.832727 117.081316 
L 75.464157 103.446213 
L 77.095587 107.660783 
L 78.727017 97.116194 
L 80.358447 68.736868 
L 81.989877 94.475724 
L 83.621307 103.168355 
L 85.252736 98.443288 
L 86.884166 83.110472 
L 88.515596 94.647051 
L 90.147026 98.522671 
L 91.778456 94.068576 
L 93.409886 104.341619 
L 95.041316 93.617195 
L 96.672746 101.738709 
L 98.304175 100.082636 
L 99.935605 76.402899 
L 101.567035 104.258578 
L 103.198465 95.623546 
L 104.829895 104.576167 
L 106.461325 95.65391 
L 108.092755 92.575076 
L 109.724185 90.268641 
L 111.355614 87.193291 
L 112.987044 87.550634 
L 114.618474 92.726653 
L 116.249904 96.875757 
L 117.881334 81.997555 
L 119.512764 90.063747 
L 121.144194 85.817612 
L 122.775624 87.146465 
L 124.407053 95.529792 
L 126.038483 88.774959 
L 127.669913 102.852583 
L 129.301343 94.320291 
L 130.932773 94.080932 
L 132.564203 87.120951 
L 134.195633 83.066937 
L 135.827063 91.477743 
L 137.458492 91.658651 
L 139.089922 100.299321 
L 140.721352 97.058134 
L 142.352782 87.127881 
L 143.984212 97.013601 
L 145.615642 101.685699 
L 147.247072 86.979914 
L 148.878502 90.052697 
L 150.509931 97.499512 
L 152.141361 75.677677 
L 153.772791 91.107542 
L 155.404221 91.347364 
L 157.035651 83.200286 
L 158.667081 73.782405 
L 160.298511 81.669514 
L 161.929941 87.43675 
L 163.56137 88.465157 
L 165.1928 79.163464 
L 166.82423 96.829914 
L 168.45566 84.528752 
L 170.08709 83.113099 
L 171.71852 81.955967 
L 173.34995 76.457202 
L 174.98138 89.828666 
L 176.61281 79.149193 
L 178.244239 84.440972 
L 179.875669 85.679289 
L 181.507099 80.328964 
L 183.138529 85.689528 
L 184.769959 82.871238 
L 186.401389 68.126047 
L 189.664249 90.508465 
L 191.295678 87.399705 
L 192.927108 98.206593 
L 194.558538 95.487318 
L 196.189968 87.08836 
L 197.821398 88.356582 
L 199.452828 91.328527 
L 201.084258 96.727192 
L 202.715688 84.941909 
L 204.347117 81.784662 
L 205.978547 81.664732 
L 207.609977 90.866918 
L 209.241407 77.875825 
L 210.872837 85.696021 
L 212.504267 83.948151 
L 214.135697 91.152652 
L 215.767127 95.52567 
L 217.398556 92.473457 
L 219.029986 77.529302 
L 220.661416 81.795174 
L 222.292846 91.243838 
L 223.924276 92.52305 
L 225.555706 102.762039 
L 227.187136 76.793386 
L 228.818566 88.40449 
L 230.449995 97.290176 
L 232.081425 72.63509 
L 233.712855 91.151198 
L 235.344285 85.028706 
L 236.975715 80.717609 
L 238.607145 83.493457 
L 240.238575 88.601542 
L 241.870005 88.667591 
L 243.501434 87.19376 
L 246.764294 89.85492 
L 248.395724 76.474887 
L 250.027154 77.681871 
L 251.658584 88.530205 
L 253.290014 75.716199 
L 254.921444 94.619101 
L 256.552873 79.110611 
L 258.184303 92.606806 
L 259.815733 71.616883 
L 261.447163 90.983981 
L 263.078593 89.698055 
L 264.710023 79.012884 
L 266.341453 92.951284 
L 267.972883 83.10461 
L 269.604312 91.381617 
L 271.235742 88.727408 
L 272.867172 75.446664 
L 274.498602 87.097415 
L 276.130032 87.18228 
L 277.761462 98.270817 
L 279.392892 84.336487 
L 281.024322 85.370109 
L 282.655751 80.150911 
L 284.287181 75.481671 
L 285.918611 86.879254 
L 287.550041 88.605244 
L 289.181471 75.146514 
L 290.812901 81.549604 
L 292.444331 87.014794 
L 294.075761 96.950954 
L 295.70719 85.574411 
L 297.33862 88.14186 
L 298.97005 80.133475 
L 300.60148 92.911716 
L 302.23291 89.605907 
L 303.86434 92.243772 
L 305.49577 99.767033 
L 307.1272 97.023128 
L 308.75863 76.312673 
L 310.390059 84.611803 
L 312.021489 81.843188 
L 313.652919 88.488251 
L 315.284349 85.85031 
L 316.915779 85.798543 
L 318.547209 92.60429 
L 320.178639 81.647787 
L 321.810069 88.664737 
L 323.441498 81.800461 
L 325.072928 73.98144 
L 326.704358 92.664031 
L 328.335788 96.822138 
L 329.967218 99.781877 
L 331.598648 91.38871 
L 333.230078 85.964125 
L 334.861508 84.337381 
L 336.492937 60.902181 
L 338.124367 86.959539 
L 339.755797 87.257205 
L 341.387227 84.35884 
L 343.018657 81.886626 
L 344.650087 71.20013 
L 346.281517 84.263556 
L 347.912947 83.355429 
L 349.544376 53.568 
L 351.175806 85.817153 
L 352.807236 80.397797 
L 354.438666 74.021737 
L 356.070096 85.709227 
L 357.701526 86.992992 
L 359.332956 80.697719 
L 360.964386 89.939899 
L 362.595815 95.62265 
L 364.227245 80.316818 
L 365.858675 79.209822 
L 367.490105 80.586425 
L 369.121535 95.413107 
L 370.752965 90.207467 
L 372.384395 75.297027 
L 374.015825 95.987261 
L 375.647254 85.56811 
L 377.278684 88.387503 
L 378.910114 83.231263 
L 380.541544 87.25781 
L 382.172974 92.931748 
L 383.804404 92.438811 
L 385.435834 65.245377 
L 387.067264 95.450099 
L 388.698693 67.417139 
L 390.330123 66.54612 
L 391.961553 75.163504 
L 393.592983 69.059955 
L 395.224413 88.465639 
L 396.855843 88.256351 
L 398.487273 92.63104 
L 398.487273 92.63104 
" clip-path="url(#pf8adf2cea8)" style="fill: none; stroke: #ff0000; stroke-width: 1.5; stroke-linecap: square"/>
   </g>
   <g id="patch_3">
    <path d="M 57.6 307.584 
L 57.6 41.472 
" style="fill: none; stroke: #000000; stroke-width: 0.8; stroke-linejoin: miter; stroke-linecap: square"/>
   </g>
   <g id="patch_4">
    <path d="M 414.72 307.584 
L 414.72 41.472 
" style="fill: none; stroke: #000000; stroke-width: 0.8; stroke-linejoin: miter; stroke-linecap: square"/>
   </g>
   <g id="patch_5">
    <path d="M 57.6 307.584 
L 414.72 307.584 
" style="fill: none; stroke: #000000; stroke-width: 0.8; stroke-linejoin: miter; stroke-linecap: square"/>
   </g>
   <g id="patch_6">
    <path d="M 57.6 41.472 
L 414.72 41.472 
" style="fill: none; stroke: #000000; stroke-width: 0.8; stroke-linejoin: miter; stroke-linecap: square"/>
   </g>
   <g id="text_13">
    <!-- Średnie i najlepsze przystosowanie w każdej generacji -->
    <g transform="translate(73.26 35.472) scale(0.12 -0.12)">
     <defs>
      <path id="DejaVuSans-15a" d="M 2236 5921 
L 2814 5921 
L 2102 5096 
L 1623 5096 
L 2236 5921 
z
M 3425 4513 
L 3425 3897 
Q 3066 4069 2747 4153 
Q 2428 4238 2131 4238 
Q 1616 4238 1336 4038 
Q 1056 3838 1056 3469 
Q 1056 3159 1242 3001 
Q 1428 2844 1947 2747 
L 2328 2669 
Q 3034 2534 3370 2195 
Q 3706 1856 3706 1288 
Q 3706 609 3251 259 
Q 2797 -91 1919 -91 
Q 1588 -91 1214 -16 
Q 841 59 441 206 
L 441 856 
Q 825 641 1194 531 
Q 1563 422 1919 422 
Q 2459 422 2753 634 
Q 3047 847 3047 1241 
Q 3047 1584 2836 1778 
Q 2625 1972 2144 2069 
L 1759 2144 
Q 1053 2284 737 2584 
Q 422 2884 422 3419 
Q 422 4038 858 4394 
Q 1294 4750 2059 4750 
Q 2388 4750 2728 4690 
Q 3069 4631 3425 4513 
z
" transform="scale(0.015625)"/>
      <path id="DejaVuSans-64" d="M 2906 2969 
L 2906 4863 
L 3481 4863 
L 3481 0 
L 2906 0 
L 2906 525 
Q 2725 213 2448 61 
Q 2172 -91 1784 -91 
Q 1150 -91 751 415 
Q 353 922 353 1747 
Q 353 2572 751 3078 
Q 1150 3584 1784 3584 
Q 2172 3584 2448 3432 
Q 2725 3281 2906 2969 
z
M 947 1747 
Q 947 1113 1208 752 
Q 1469 391 1925 391 
Q 2381 391 2643 752 
Q 2906 1113 2906 1747 
Q 2906 2381 2643 2742 
Q 2381 3103 1925 3103 
Q 1469 3103 1208 2742 
Q 947 2381 947 1747 
z
" transform="scale(0.015625)"/>
      <path id="DejaVuSans-20" transform="scale(0.015625)"/>
      <path id="DejaVuSans-6c" d="M 603 4863 
L 1178 4863 
L 1178 0 
L 603 0 
L 603 4863 
z
" transform="scale(0.015625)"/>
      <path id="DejaVuSans-70" d="M 1159 525 
L 1159 -1331 
L 581 -1331 
L 581 3500 
L 1159 3500 
L 1159 2969 
Q 1341 3281 1617 3432 
Q 1894 3584 2278 3584 
Q 2916 3584 3314 3078 
Q 3713 2572 3713 1747 
Q 3713 922 3314 415 
Q 2916 -91 2278 -91 
Q 1894 -91 1617 61 
Q 1341 213 1159 525 
z
M 3116 1747 
Q 3116 2381 2855 2742 
Q 2594 3103 2138 3103 
Q 1681 3103 1420 2742 
Q 1159 2381 1159 1747 
Q 1159 1113 1420 752 
Q 1681 391 2138 391 
Q 2594 391 2855 752 
Q 3116 1113 3116 1747 
z
" transform="scale(0.015625)"/>
      <path id="DejaVuSans-6b" d="M 581 4863 
L 1159 4863 
L 1159 1991 
L 2875 3500 
L 3609 3500 
L 1753 1863 
L 3688 0 
L 2938 0 
L 1159 1709 
L 1159 0 
L 581 0 
L 581 4863 
z
" transform="scale(0.015625)"/>
      <path id="DejaVuSans-17c" d="M 1378 4863 
L 1953 4863 
L 1953 4134 
L 1378 4134 
L 1378 4863 
z
M 1672 3584 
L 1672 3584 
z
M 353 3500 
L 3084 3500 
L 3084 2975 
L 922 459 
L 3084 459 
L 3084 0 
L 275 0 
L 275 525 
L 2438 3041 
L 353 3041 
L 353 3500 
z
" transform="scale(0.015625)"/>
      <path id="DejaVuSans-67" d="M 2906 1791 
Q 2906 2416 2648 2759 
Q 2391 3103 1925 3103 
Q 1463 3103 1205 2759 
Q 947 2416 947 1791 
Q 947 1169 1205 825 
Q 1463 481 1925 481 
Q 2391 481 2648 825 
Q 2906 1169 2906 1791 
z
M 3481 434 
Q 3481 -459 3084 -895 
Q 2688 -1331 1869 -1331 
Q 1566 -1331 1297 -1286 
Q 1028 -1241 775 -1147 
L 775 -588 
Q 1028 -725 1275 -790 
Q 1522 -856 1778 -856 
Q 2344 -856 2625 -561 
Q 2906 -266 2906 331 
L 2906 616 
Q 2728 306 2450 153 
Q 2172 0 1784 0 
Q 1141 0 747 490 
Q 353 981 353 1791 
Q 353 2603 747 3093 
Q 1141 3584 1784 3584 
Q 2172 3584 2450 3431 
Q 2728 3278 2906 2969 
L 2906 3500 
L 3481 3500 
L 3481 434 
z
" transform="scale(0.015625)"/>
     </defs>
     <use xlink:href="#DejaVuSans-15a"/>
     <use xlink:href="#DejaVuSans-72" transform="translate(63.476562 0)"/>
     <use xlink:href="#DejaVuSans-65" transform="translate(102.339844 0)"/>
     <use xlink:href="#DejaVuSans-64" transform="translate(163.863281 0)"/>
     <use xlink:href="#DejaVuSans-6e" transform="translate(227.339844 0)"/>
     <use xlink:href="#DejaVuSans-69" transform="translate(290.71875 0)"/>
     <use xlink:href="#DejaVuSans-65" transform="translate(318.501953 0)"/>
     <use xlink:href="#DejaVuSans-20" transform="translate(380.025391 0)"/>
     <use xlink:href="#DejaVuSans-69" transform="translate(411.8125 0)"/>
     <use xlink:href="#DejaVuSans-20" transform="translate(439.595703 0)"/>
     <use xlink:href="#DejaVuSans-6e" transform="translate(471.382812 0)"/>
     <use xlink:href="#DejaVuSans-61" transform="translate(534.761719 0)"/>
     <use xlink:href="#DejaVuSans-6a" transform="translate(596.041016 0)"/>
     <use xlink:href="#DejaVuSans-6c" transform="translate(623.824219 0)"/>
     <use xlink:href="#DejaVuSans-65" transform="translate(651.607422 0)"/>
     <use xlink:href="#DejaVuSans-70" transform="translate(713.130859 0)"/>
     <use xlink:href="#DejaVuSans-73" transform="translate(776.607422 0)"/>
     <use xlink:href="#DejaVuSans-7a" transform="translate(828.707031 0)"/>
     <use xlink:href="#DejaVuSans-65" transform="translate(881.197266 0)"/>
     <use xlink:href="#DejaVuSans-20" transform="translate(942.720703 0)"/>
     <use xlink:href="#DejaVuSans-70" transform="translate(974.507812 0)"/>
     <use xlink:href="#DejaVuSans-72" transform="translate(1037.984375 0)"/>
     <use xlink:href="#DejaVuSans-7a" transform="translate(1079.097656 0)"/>
     <use xlink:href="#DejaVuSans-79" transform="translate(1131.587891 0)"/>
     <use xlink:href="#DejaVuSans-73" transform="translate(1190.767578 0)"/>
     <use xlink:href="#DejaVuSans-74" transform="translate(1242.867188 0)"/>
     <use xlink:href="#DejaVuSans-6f" transform="translate(1282.076172 0)"/>
     <use xlink:href="#DejaVuSans-73" transform="translate(1343.257812 0)"/>
     <use xlink:href="#DejaVuSans-6f" transform="translate(1395.357422 0)"/>
     <use xlink:href="#DejaVuSans-77" transform="translate(1456.539062 0)"/>
     <use xlink:href="#DejaVuSans-61" transform="translate(1538.326172 0)"/>
     <use xlink:href="#DejaVuSans-6e" transform="translate(1599.605469 0)"/>
     <use xlink:href="#DejaVuSans-69" transform="translate(1662.984375 0)"/>
     <use xlink:href="#DejaVuSans-65" transform="translate(1690.767578 0)"/>
     <use xlink:href="#DejaVuSans-20" transform="translate(1752.291016 0)"/>
     <use xlink:href="#DejaVuSans-77" transform="translate(1784.078125 0)"/>
     <use xlink:href="#DejaVuSans-20" transform="translate(1865.865234 0)"/>
     <use xlink:href="#DejaVuSans-6b" transform="translate(1897.652344 0)"/>
     <use xlink:href="#DejaVuSans-61" transform="translate(1953.8125 0)"/>
     <use xlink:href="#DejaVuSans-17c" transform="translate(2015.091797 0)"/>
     <use xlink:href="#DejaVuSans-64" transform="translate(2067.582031 0)"/>
     <use xlink:href="#DejaVuSans-65" transform="translate(2131.058594 0)"/>
     <use xlink:href="#DejaVuSans-6a" transform="translate(2192.582031 0)"/>
     <use xlink:href="#DejaVuSans-20" transform="translate(2220.365234 0)"/>
     <use xlink:href="#DejaVuSans-67" transform="translate(2252.152344 0)"/>
     <use xlink:href="#DejaVuSans-65" transform="translate(2315.628906 0)"/>
     <use xlink:href="#DejaVuSans-6e" transform="translate(2377.152344 0)"/>
     <use xlink:href="#DejaVuSans-65" transform="translate(2440.53125 0)"/>
     <use xlink:href="#DejaVuSans-72" transform="translate(2502.054688 0)"/>
     <use xlink:href="#DejaVuSans-61" transform="translate(2543.167969 0)"/>
     <use xlink:href="#DejaVuSans-63" transform="translate(2604.447266 0)"/>
     <use xlink:href="#DejaVuSans-6a" transform="translate(2659.427734 0)"/>
     <use xlink:href="#DejaVuSans-69" transform="translate(2687.210938 0)"/>
    </g>
   </g>
   <g id="legend_1">
    <g id="patch_7">
     <path d="M 279.790313 302.584 
L 407.72 302.584 
Q 409.72 302.584 409.72 300.584 
L 409.72 257.549625 
Q 409.72 255.549625 407.72 255.549625 
L 279.790313 255.549625 
Q 277.790313 255.549625 277.790313 257.549625 
L 277.790313 300.584 
Q 277.790313 302.584 279.790313 302.584 
z
" style="fill: #ffffff; opacity: 0.8; stroke: #cccccc; stroke-linejoin: miter"/>
    </g>
    <g id="line2d_24">
     <path d="M 281.790313 263.648062 
L 291.790313 263.648062 
L 301.790313 263.648062 
" style="fill: none; stroke: #0000ff; stroke-width: 1.5; stroke-linecap: square"/>
    </g>
    <g id="text_14">
     <!-- Średnia -->
     <g transform="translate(309.790313 267.148062) scale(0.1 -0.1)">
      <use xlink:href="#DejaVuSans-15a"/>
      <use xlink:href="#DejaVuSans-72" transform="translate(63.476562 0)"/>
      <use xlink:href="#DejaVuSans-65" transform="translate(102.339844 0)"/>
      <use xlink:href="#DejaVuSans-64" transform="translate(163.863281 0)"/>
      <use xlink:href="#DejaVuSans-6e" transform="translate(227.339844 0)"/>
      <use xlink:href="#DejaVuSans-69" transform="translate(290.71875 0)"/>
      <use xlink:href="#DejaVuSans-61" transform="translate(318.501953 0)"/>
     </g>
    </g>
    <g id="line2d_25">
     <path d="M 281.790313 278.326188 
L 291.790313 278.326188 
L 301.790313 278.326188 
" style="fill: none; stroke-dasharray: 9.6,2.4,1.5,2.4; stroke-dashoffset: 0; stroke: #008000; stroke-width: 1.5"/>
    </g>
    <g id="text_15">
     <!-- ±1 Odchylenie std. -->
     <g transform="translate(309.790313 281.826188) scale(0.1 -0.1)">
      <defs>
       <path id="DejaVuSans-b1" d="M 2944 4013 
L 2944 2803 
L 4684 2803 
L 4684 2272 
L 2944 2272 
L 2944 1063 
L 2419 1063 
L 2419 2272 
L 678 2272 
L 678 2803 
L 2419 2803 
L 2419 4013 
L 2944 4013 
z
M 678 531 
L 4684 531 
L 4684 0 
L 678 0 
L 678 531 
z
" transform="scale(0.015625)"/>
       <path id="DejaVuSans-4f" d="M 2522 4238 
Q 1834 4238 1429 3725 
Q 1025 3213 1025 2328 
Q 1025 1447 1429 934 
Q 1834 422 2522 422 
Q 3209 422 3611 934 
Q 4013 1447 4013 2328 
Q 4013 3213 3611 3725 
Q 3209 4238 2522 4238 
z
M 2522 4750 
Q 3503 4750 4090 4092 
Q 4678 3434 4678 2328 
Q 4678 1225 4090 567 
Q 3503 -91 2522 -91 
Q 1538 -91 948 565 
Q 359 1222 359 2328 
Q 359 3434 948 4092 
Q 1538 4750 2522 4750 
z
" transform="scale(0.015625)"/>
       <path id="DejaVuSans-68" d="M 3513 2113 
L 3513 0 
L 2938 0 
L 2938 2094 
Q 2938 2591 2744 2837 
Q 2550 3084 2163 3084 
Q 1697 3084 1428 2787 
Q 1159 2491 1159 1978 
L 1159 0 
L 581 0 
L 581 4863 
L 1159 4863 
L 1159 2956 
Q 1366 3272 1645 3428 
Q 1925 3584 2291 3584 
Q 2894 3584 3203 3211 
Q 3513 2838 3513 2113 
z
" transform="scale(0.015625)"/>
       <path id="DejaVuSans-2e" d="M 684 794 
L 1344 794 
L 1344 0 
L 684 0 
L 684 794 
z
" transform="scale(0.015625)"/>
      </defs>
      <use xlink:href="#DejaVuSans-b1"/>
      <use xlink:href="#DejaVuSans-31" transform="translate(83.789062 0)"/>
      <use xlink:href="#DejaVuSans-20" transform="translate(147.412109 0)"/>
      <use xlink:href="#DejaVuSans-4f" transform="translate(179.199219 0)"/>
      <use xlink:href="#DejaVuSans-64" transform="translate(257.910156 0)"/>
      <use xlink:href="#DejaVuSans-63" transform="translate(321.386719 0)"/>
      <use xlink:href="#DejaVuSans-68" transform="translate(376.367188 0)"/>
      <use xlink:href="#DejaVuSans-79" transform="translate(439.746094 0)"/>
      <use xlink:href="#DejaVuSans-6c" transform="translate(498.925781 0)"/>
      <use xlink:href="#DejaVuSans-65" transform="translate(526.708984 0)"/>
      <use xlink:href="#DejaVuSans-6e" transform="translate(588.232422 0)"/>
      <use xlink:href="#DejaVuSans-69" transform="translate(651.611328 0)"/>
      <use xlink:href="#DejaVuSans-65" transform="translate(679.394531 0)"/>
      <use xlink:href="#DejaVuSans-20" transform="translate(740.917969 0)"/>
      <use xlink:href="#DejaVuSans-73" transform="translate(772.705078 0)"/>
      <use xlink:href="#DejaVuSans-74" transform="translate(824.804688 0)"/>
      <use xlink:href="#DejaVuSans-64" transform="translate(864.013672 0)"/>
      <use xlink:href="#DejaVuSans-2e" transform="translate(927.490234 0)"/>
     </g>
    </g>
    <g id="line2d_26">
     <path d="M 281.790313 293.004312 
L 291.790313 293.004312 
L 301.790313 293.004312 
" style="fill: none; stroke: #ff0000; stroke-width: 1.5; stroke-linecap: square"/>
    </g>
    <g id="text_16">
     <!-- Najlepsze -->
     <g transform="translate(309.790313 296.504312) scale(0.1 -0.1)">
      <defs>
       <path id="DejaVuSans-4e" d="M 628 4666 
L 1478 4666 
L 3547 763 
L 3547 4666 
L 4159 4666 
L 4159 0 
L 3309 0 
L 1241 3903 
L 1241 0 
L 628 0 
L 628 4666 
z
" transform="scale(0.015625)"/>
      </defs>
      <use xlink:href="#DejaVuSans-4e"/>
      <use xlink:href="#DejaVuSans-61" transform="translate(74.804688 0)"/>
      <use xlink:href="#DejaVuSans-6a" transform="translate(136.083984 0)"/>
      <use xlink:href="#DejaVuSans-6c" transform="translate(163.867188 0)"/>
      <use xlink:href="#DejaVuSans-65" transform="translate(191.650391 0)"/>
      <use xlink:href="#DejaVuSans-70" transform="translate(253.173828 0)"/>
      <use xlink:href="#DejaVuSans-73" transform="translate(316.650391 0)"/>
      <use xlink:href="#DejaVuSans-7a" transform="translate(368.75 0)"/>
      <use xlink:href="#DejaVuSans-65" transform="translate(421.240234 0)"/>
     </g>
    </g>
   </g>
  </g>
 </g>
 <defs>
  <clipPath id="pf8adf2cea8">
   <rect x="57.6" y="41.472" width="357.12" height="266.112"/>
  </clipPath>
 </defs>
</svg>
