<?xml version="1.0" encoding="utf-8" standalone="no"?>
<!DOCTYPE svg PUBLIC "-//W3C//DTD SVG 1.1//EN"
  "http://www.w3.org/Graphics/SVG/1.1/DTD/svg11.dtd">
<svg xmlns:xlink="http://www.w3.org/1999/xlink" width="460.8pt" height="345.6pt" viewBox="0 0 460.8 345.6" xmlns="http://www.w3.org/2000/svg" version="1.1">
 <metadata>
  <rdf:RDF xmlns:dc="http://purl.org/dc/elements/1.1/" xmlns:cc="http://creativecommons.org/ns#" xmlns:rdf="http://www.w3.org/1999/02/22-rdf-syntax-ns#">
   <cc:Work>
    <dc:type rdf:resource="http://purl.org/dc/dcmitype/StillImage"/>
    <dc:date>2026-04-26T18:47:07.781764</dc:date>
    <dc:format>image/svg+xml</dc:format>
    <dc:creator>
     <cc:Agent>
      <dc:title>Matplotlib v3.10.8, https://matplotlib.org/</dc:title>
     </cc:Agent>
    </dc:creator>
   </cc:Work>
  </rdf:RDF>
 </metadata>
 <defs>
  <style type="text/css">*{stroke-linejoin: round; stroke-linecap: butt}</style>
 </defs>
 <g id="figure_1">
  <g id="patch_1">
   <path d="M 0 345.6 
L 460.8 345.6 
L 460.8 0 
L 0 0 
z
" style="fill: #ffffff"/>
  </g>
  <g id="axes_1">
   <g id="patch_2">
    <path d="M 57.6 307.584 
L 414.72 307.584 
L 414.72 41.472 
L 57.6 41.472 
z
" style="fill: #ffffff"/>
   </g>
   <g id="matplotlib.axis_1">
    <g id="xtick_1">
     <g id="line2d_1">
      <path d="M 72.201297 307.584 
L 72.201297 41.472 
" clip-path="url(#pd3d35a8569)" style="fill: none; stroke: #b0b0b0; stroke-width: 0.8; stroke-linecap: square"/>
     </g>
     <g id="line2d_2">
      <defs>
       <path id="m6d54ece829" d="M 0 0 
L 0 3.5 
" style="stroke: #000000; stroke-width: 0.8"/>
      </defs>
      <g>
       <use xlink:href="#m6d54ece829" x="72.201297" y="307.584" style="stroke: #000000; stroke-width: 0.8"/>
      </g>
     </g>
     <g id="text_1">
      <!-- 0 -->
      <g transform="translate(69.020047 322.182437) scale(0.1 -0.1)">
       <defs>
        <path id="DejaVuSans-30" d="M 2034 4250 
Q 1547 4250 1301 3770 
Q 1056 3291 1056 2328 
Q 1056 1369 1301 889 
Q 1547 409 2034 409 
Q 2525 409 2770 889 
Q 3016 1369 3016 2328 
Q 3016 3291 2770 3770 
Q 2525 4250 2034 4250 
z
M 2034 4750 
Q 2819 4750 3233 4129 
Q 3647 3509 3647 2328 
Q 3647 1150 3233 529 
Q 2819 -91 2034 -91 
Q 1250 -91 836 529 
Q 422 1150 422 2328 
Q 422 3509 836 4129 
Q 1250 4750 2034 4750 
z
" transform="scale(0.015625)"/>
       </defs>
       <use xlink:href="#DejaVuSans-30"/>
      </g>
     </g>
    </g>
    <g id="xtick_2">
     <g id="line2d_3">
      <path d="M 112.987044 307.584 
L 112.987044 41.472 
" clip-path="url(#pd3d35a8569)" style="fill: none; stroke: #b0b0b0; stroke-width: 0.8; stroke-linecap: square"/>
     </g>
     <g id="line2d_4">
      <g>
       <use xlink:href="#m6d54ece829" x="112.987044" y="307.584" style="stroke: #000000; stroke-width: 0.8"/>
      </g>
     </g>
     <g id="text_2">
      <!-- 25 -->
      <g transform="translate(106.624544 322.182437) scale(0.1 -0.1)">
       <defs>
        <path id="DejaVuSans-32" d="M 1228 531 
L 3431 531 
L 3431 0 
L 469 0 
L 469 531 
Q 828 903 1448 1529 
Q 2069 2156 2228 2338 
Q 2531 2678 2651 2914 
Q 2772 3150 2772 3378 
Q 2772 3750 2511 3984 
Q 2250 4219 1831 4219 
Q 1534 4219 1204 4116 
Q 875 4013 500 3803 
L 500 4441 
Q 881 4594 1212 4672 
Q 1544 4750 1819 4750 
Q 2544 4750 2975 4387 
Q 3406 4025 3406 3419 
Q 3406 3131 3298 2873 
Q 3191 2616 2906 2266 
Q 2828 2175 2409 1742 
Q 1991 1309 1228 531 
z
" transform="scale(0.015625)"/>
        <path id="DejaVuSans-35" d="M 691 4666 
L 3169 4666 
L 3169 4134 
L 1269 4134 
L 1269 2991 
Q 1406 3038 1543 3061 
Q 1681 3084 1819 3084 
Q 2600 3084 3056 2656 
Q 3513 2228 3513 1497 
Q 3513 744 3044 326 
Q 2575 -91 1722 -91 
Q 1428 -91 1123 -41 
Q 819 9 494 109 
L 494 744 
Q 775 591 1075 516 
Q 1375 441 1709 441 
Q 2250 441 2565 725 
Q 2881 1009 2881 1497 
Q 2881 1984 2565 2268 
Q 2250 2553 1709 2553 
Q 1456 2553 1204 2497 
Q 953 2441 691 2322 
L 691 4666 
z
" transform="scale(0.015625)"/>
       </defs>
       <use xlink:href="#DejaVuSans-32"/>
       <use xlink:href="#DejaVuSans-35" transform="translate(63.623047 0)"/>
      </g>
     </g>
    </g>
    <g id="xtick_3">
     <g id="line2d_5">
      <path d="M 153.772791 307.584 
L 153.772791 41.472 
" clip-path="url(#pd3d35a8569)" style="fill: none; stroke: #b0b0b0; stroke-width: 0.8; stroke-linecap: square"/>
     </g>
     <g id="line2d_6">
      <g>
       <use xlink:href="#m6d54ece829" x="153.772791" y="307.584" style="stroke: #000000; stroke-width: 0.8"/>
      </g>
     </g>
     <g id="text_3">
      <!-- 50 -->
      <g transform="translate(147.410291 322.182437) scale(0.1 -0.1)">
       <use xlink:href="#DejaVuSans-35"/>
       <use xlink:href="#DejaVuSans-30" transform="translate(63.623047 0)"/>
      </g>
     </g>
    </g>
    <g id="xtick_4">
     <g id="line2d_7">
      <path d="M 194.558538 307.584 
L 194.558538 41.472 
" clip-path="url(#pd3d35a8569)" style="fill: none; stroke: #b0b0b0; stroke-width: 0.8; stroke-linecap: square"/>
     </g>
     <g id="line2d_8">
      <g>
       <use xlink:href="#m6d54ece829" x="194.558538" y="307.584" style="stroke: #000000; stroke-width: 0.8"/>
      </g>
     </g>
     <g id="text_4">
      <!-- 75 -->
      <g transform="translate(188.196038 322.182437) scale(0.1 -0.1)">
       <defs>
        <path id="DejaVuSans-37" d="M 525 4666 
L 3525 4666 
L 3525 4397 
L 1831 0 
L 1172 0 
L 2766 4134 
L 525 4134 
L 525 4666 
z
" transform="scale(0.015625)"/>
       </defs>
       <use xlink:href="#DejaVuSans-37"/>
       <use xlink:href="#DejaVuSans-35" transform="translate(63.623047 0)"/>
      </g>
     </g>
    </g>
    <g id="xtick_5">
     <g id="line2d_9">
      <path d="M 235.344285 307.584 
L 235.344285 41.472 
" clip-path="url(#pd3d35a8569)" style="fill: none; stroke: #b0b0b0; stroke-width: 0.8; stroke-linecap: square"/>
     </g>
     <g id="line2d_10">
      <g>
       <use xlink:href="#m6d54ece829" x="235.344285" y="307.584" style="stroke: #000000; stroke-width: 0.8"/>
      </g>
     </g>
     <g id="text_5">
      <!-- 100 -->
      <g transform="translate(225.800535 322.182437) scale(0.1 -0.1)">
       <defs>
        <path id="DejaVuSans-31" d="M 794 531 
L 1825 531 
L 1825 4091 
L 703 3866 
L 703 4441 
L 1819 4666 
L 2450 4666 
L 2450 531 
L 3481 531 
L 3481 0 
L 794 0 
L 794 531 
z
" transform="scale(0.015625)"/>
       </defs>
       <use xlink:href="#DejaVuSans-31"/>
       <use xlink:href="#DejaVuSans-30" transform="translate(63.623047 0)"/>
       <use xlink:href="#DejaVuSans-30" transform="translate(127.246094 0)"/>
      </g>
     </g>
    </g>
    <g id="xtick_6">
     <g id="line2d_11">
      <path d="M 276.130032 307.584 
L 276.130032 41.472 
" clip-path="url(#pd3d35a8569)" style="fill: none; stroke: #b0b0b0; stroke-width: 0.8; stroke-linecap: square"/>
     </g>
     <g id="line2d_12">
      <g>
       <use xlink:href="#m6d54ece829" x="276.130032" y="307.584" style="stroke: #000000; stroke-width: 0.8"/>
      </g>
     </g>
     <g id="text_6">
      <!-- 125 -->
      <g transform="translate(266.586282 322.182437) scale(0.1 -0.1)">
       <use xlink:href="#DejaVuSans-31"/>
       <use xlink:href="#DejaVuSans-32" transform="translate(63.623047 0)"/>
       <use xlink:href="#DejaVuSans-35" transform="translate(127.246094 0)"/>
      </g>
     </g>
    </g>
    <g id="xtick_7">
     <g id="line2d_13">
      <path d="M 316.915779 307.584 
L 316.915779 41.472 
" clip-path="url(#pd3d35a8569)" style="fill: none; stroke: #b0b0b0; stroke-width: 0.8; stroke-linecap: square"/>
     </g>
     <g id="line2d_14">
      <g>
       <use xlink:href="#m6d54ece829" x="316.915779" y="307.584" style="stroke: #000000; stroke-width: 0.8"/>
      </g>
     </g>
     <g id="text_7">
      <!-- 150 -->
      <g transform="translate(307.372029 322.182437) scale(0.1 -0.1)">
       <use xlink:href="#DejaVuSans-31"/>
       <use xlink:href="#DejaVuSans-35" transform="translate(63.623047 0)"/>
       <use xlink:href="#DejaVuSans-30" transform="translate(127.246094 0)"/>
      </g>
     </g>
    </g>
    <g id="xtick_8">
     <g id="line2d_15">
      <path d="M 357.701526 307.584 
L 357.701526 41.472 
" clip-path="url(#pd3d35a8569)" style="fill: none; stroke: #b0b0b0; stroke-width: 0.8; stroke-linecap: square"/>
     </g>
     <g id="line2d_16">
      <g>
       <use xlink:href="#m6d54ece829" x="357.701526" y="307.584" style="stroke: #000000; stroke-width: 0.8"/>
      </g>
     </g>
     <g id="text_8">
      <!-- 175 -->
      <g transform="translate(348.157776 322.182437) scale(0.1 -0.1)">
       <use xlink:href="#DejaVuSans-31"/>
       <use xlink:href="#DejaVuSans-37" transform="translate(63.623047 0)"/>
       <use xlink:href="#DejaVuSans-35" transform="translate(127.246094 0)"/>
      </g>
     </g>
    </g>
    <g id="xtick_9">
     <g id="line2d_17">
      <path d="M 398.487273 307.584 
L 398.487273 41.472 
" clip-path="url(#pd3d35a8569)" style="fill: none; stroke: #b0b0b0; stroke-width: 0.8; stroke-linecap: square"/>
     </g>
     <g id="line2d_18">
      <g>
       <use xlink:href="#m6d54ece829" x="398.487273" y="307.584" style="stroke: #000000; stroke-width: 0.8"/>
      </g>
     </g>
     <g id="text_9">
      <!-- 200 -->
      <g transform="translate(388.943523 322.182437) scale(0.1 -0.1)">
       <use xlink:href="#DejaVuSans-32"/>
       <use xlink:href="#DejaVuSans-30" transform="translate(63.623047 0)"/>
       <use xlink:href="#DejaVuSans-30" transform="translate(127.246094 0)"/>
      </g>
     </g>
    </g>
    <g id="text_10">
     <!-- Generacje -->
     <g transform="translate(210.629531 335.860562) scale(0.1 -0.1)">
      <defs>
       <path id="DejaVuSans-47" d="M 3809 666 
L 3809 1919 
L 2778 1919 
L 2778 2438 
L 4434 2438 
L 4434 434 
Q 4069 175 3628 42 
Q 3188 -91 2688 -91 
Q 1594 -91 976 548 
Q 359 1188 359 2328 
Q 359 3472 976 4111 
Q 1594 4750 2688 4750 
Q 3144 4750 3555 4637 
Q 3966 4525 4313 4306 
L 4313 3634 
Q 3963 3931 3569 4081 
Q 3175 4231 2741 4231 
Q 1884 4231 1454 3753 
Q 1025 3275 1025 2328 
Q 1025 1384 1454 906 
Q 1884 428 2741 428 
Q 3075 428 3337 486 
Q 3600 544 3809 666 
z
" transform="scale(0.015625)"/>
       <path id="DejaVuSans-65" d="M 3597 1894 
L 3597 1613 
L 953 1613 
Q 991 1019 1311 708 
Q 1631 397 2203 397 
Q 2534 397 2845 478 
Q 3156 559 3463 722 
L 3463 178 
Q 3153 47 2828 -22 
Q 2503 -91 2169 -91 
Q 1331 -91 842 396 
Q 353 884 353 1716 
Q 353 2575 817 3079 
Q 1281 3584 2069 3584 
Q 2775 3584 3186 3129 
Q 3597 2675 3597 1894 
z
M 3022 2063 
Q 3016 2534 2758 2815 
Q 2500 3097 2075 3097 
Q 1594 3097 1305 2825 
Q 1016 2553 972 2059 
L 3022 2063 
z
" transform="scale(0.015625)"/>
       <path id="DejaVuSans-6e" d="M 3513 2113 
L 3513 0 
L 2938 0 
L 2938 2094 
Q 2938 2591 2744 2837 
Q 2550 3084 2163 3084 
Q 1697 3084 1428 2787 
Q 1159 2491 1159 1978 
L 1159 0 
L 581 0 
L 581 3500 
L 1159 3500 
L 1159 2956 
Q 1366 3272 1645 3428 
Q 1925 3584 2291 3584 
Q 2894 3584 3203 3211 
Q 3513 2838 3513 2113 
z
" transform="scale(0.015625)"/>
       <path id="DejaVuSans-72" d="M 2631 2963 
Q 2534 3019 2420 3045 
Q 2306 3072 2169 3072 
Q 1681 3072 1420 2755 
Q 1159 2438 1159 1844 
L 1159 0 
L 581 0 
L 581 3500 
L 1159 3500 
L 1159 2956 
Q 1341 3275 1631 3429 
Q 1922 3584 2338 3584 
Q 2397 3584 2469 3576 
Q 2541 3569 2628 3553 
L 2631 2963 
z
" transform="scale(0.015625)"/>
       <path id="DejaVuSans-61" d="M 2194 1759 
Q 1497 1759 1228 1600 
Q 959 1441 959 1056 
Q 959 750 1161 570 
Q 1363 391 1709 391 
Q 2188 391 2477 730 
Q 2766 1069 2766 1631 
L 2766 1759 
L 2194 1759 
z
M 3341 1997 
L 3341 0 
L 2766 0 
L 2766 531 
Q 2569 213 2275 61 
Q 1981 -91 1556 -91 
Q 1019 -91 701 211 
Q 384 513 384 1019 
Q 384 1609 779 1909 
Q 1175 2209 1959 2209 
L 2766 2209 
L 2766 2266 
Q 2766 2663 2505 2880 
Q 2244 3097 1772 3097 
Q 1472 3097 1187 3025 
Q 903 2953 641 2809 
L 641 3341 
Q 956 3463 1253 3523 
Q 1550 3584 1831 3584 
Q 2591 3584 2966 3190 
Q 3341 2797 3341 1997 
z
" transform="scale(0.015625)"/>
       <path id="DejaVuSans-63" d="M 3122 3366 
L 3122 2828 
Q 2878 2963 2633 3030 
Q 2388 3097 2138 3097 
Q 1578 3097 1268 2742 
Q 959 2388 959 1747 
Q 959 1106 1268 751 
Q 1578 397 2138 397 
Q 2388 397 2633 464 
Q 2878 531 3122 666 
L 3122 134 
Q 2881 22 2623 -34 
Q 2366 -91 2075 -91 
Q 1284 -91 818 406 
Q 353 903 353 1747 
Q 353 2603 823 3093 
Q 1294 3584 2113 3584 
Q 2378 3584 2631 3529 
Q 2884 3475 3122 3366 
z
" transform="scale(0.015625)"/>
       <path id="DejaVuSans-6a" d="M 603 3500 
L 1178 3500 
L 1178 -63 
Q 1178 -731 923 -1031 
Q 669 -1331 103 -1331 
L -116 -1331 
L -116 -844 
L 38 -844 
Q 366 -844 484 -692 
Q 603 -541 603 -63 
L 603 3500 
z
M 603 4863 
L 1178 4863 
L 1178 4134 
L 603 4134 
L 603 4863 
z
" transform="scale(0.015625)"/>
      </defs>
      <use xlink:href="#DejaVuSans-47"/>
      <use xlink:href="#DejaVuSans-65" transform="translate(77.490234 0)"/>
      <use xlink:href="#DejaVuSans-6e" transform="translate(139.013672 0)"/>
      <use xlink:href="#DejaVuSans-65" transform="translate(202.392578 0)"/>
      <use xlink:href="#DejaVuSans-72" transform="translate(263.916016 0)"/>
      <use xlink:href="#DejaVuSans-61" transform="translate(305.029297 0)"/>
      <use xlink:href="#DejaVuSans-63" transform="translate(366.308594 0)"/>
      <use xlink:href="#DejaVuSans-6a" transform="translate(421.289062 0)"/>
      <use xlink:href="#DejaVuSans-65" transform="translate(449.072266 0)"/>
     </g>
    </g>
   </g>
   <g id="matplotlib.axis_2">
    <g id="ytick_1">
     <g id="line2d_19">
      <path d="M 57.6 113.88495 
L 414.72 113.88495 
" clip-path="url(#pd3d35a8569)" style="fill: none; stroke: #b0b0b0; stroke-width: 0.8; stroke-linecap: square"/>
     </g>
     <g id="line2d_20">
      <defs>
       <path id="m09e41854fa" d="M 0 0 
L -3.5 0 
" style="stroke: #000000; stroke-width: 0.8"/>
      </defs>
      <g>
       <use xlink:href="#m09e41854fa" x="57.6" y="113.88495" style="stroke: #000000; stroke-width: 0.8"/>
      </g>
     </g>
     <g id="text_11">
      <!-- $\mathdefault{10^{2}}$ -->
      <g transform="translate(33 117.684169) scale(0.1 -0.1)">
       <use xlink:href="#DejaVuSans-31" transform="translate(0 0.765625)"/>
       <use xlink:href="#DejaVuSans-30" transform="translate(63.623047 0.765625)"/>
       <use xlink:href="#DejaVuSans-32" transform="translate(128.203125 39.046875) scale(0.7)"/>
      </g>
     </g>
    </g>
    <g id="text_12">
     <!-- Przystosowanie -->
     <g transform="translate(26.920312 213.170187) rotate(-90) scale(0.1 -0.1)">
      <defs>
       <path id="DejaVuSans-50" d="M 1259 4147 
L 1259 2394 
L 2053 2394 
Q 2494 2394 2734 2622 
Q 2975 2850 2975 3272 
Q 2975 3691 2734 3919 
Q 2494 4147 2053 4147 
L 1259 4147 
z
M 628 4666 
L 2053 4666 
Q 2838 4666 3239 4311 
Q 3641 3956 3641 3272 
Q 3641 2581 3239 2228 
Q 2838 1875 2053 1875 
L 1259 1875 
L 1259 0 
L 628 0 
L 628 4666 
z
" transform="scale(0.015625)"/>
       <path id="DejaVuSans-7a" d="M 353 3500 
L 3084 3500 
L 3084 2975 
L 922 459 
L 3084 459 
L 3084 0 
L 275 0 
L 275 525 
L 2438 3041 
L 353 3041 
L 353 3500 
z
" transform="scale(0.015625)"/>
       <path id="DejaVuSans-79" d="M 2059 -325 
Q 1816 -950 1584 -1140 
Q 1353 -1331 966 -1331 
L 506 -1331 
L 506 -850 
L 844 -850 
Q 1081 -850 1212 -737 
Q 1344 -625 1503 -206 
L 1606 56 
L 191 3500 
L 800 3500 
L 1894 763 
L 2988 3500 
L 3597 3500 
L 2059 -325 
z
" transform="scale(0.015625)"/>
       <path id="DejaVuSans-73" d="M 2834 3397 
L 2834 2853 
Q 2591 2978 2328 3040 
Q 2066 3103 1784 3103 
Q 1356 3103 1142 2972 
Q 928 2841 928 2578 
Q 928 2378 1081 2264 
Q 1234 2150 1697 2047 
L 1894 2003 
Q 2506 1872 2764 1633 
Q 3022 1394 3022 966 
Q 3022 478 2636 193 
Q 2250 -91 1575 -91 
Q 1294 -91 989 -36 
Q 684 19 347 128 
L 347 722 
Q 666 556 975 473 
Q 1284 391 1588 391 
Q 1994 391 2212 530 
Q 2431 669 2431 922 
Q 2431 1156 2273 1281 
Q 2116 1406 1581 1522 
L 1381 1569 
Q 847 1681 609 1914 
Q 372 2147 372 2553 
Q 372 3047 722 3315 
Q 1072 3584 1716 3584 
Q 2034 3584 2315 3537 
Q 2597 3491 2834 3397 
z
" transform="scale(0.015625)"/>
       <path id="DejaVuSans-74" d="M 1172 4494 
L 1172 3500 
L 2356 3500 
L 2356 3053 
L 1172 3053 
L 1172 1153 
Q 1172 725 1289 603 
Q 1406 481 1766 481 
L 2356 481 
L 2356 0 
L 1766 0 
Q 1100 0 847 248 
Q 594 497 594 1153 
L 594 3053 
L 172 3053 
L 172 3500 
L 594 3500 
L 594 4494 
L 1172 4494 
z
" transform="scale(0.015625)"/>
       <path id="DejaVuSans-6f" d="M 1959 3097 
Q 1497 3097 1228 2736 
Q 959 2375 959 1747 
Q 959 1119 1226 758 
Q 1494 397 1959 397 
Q 2419 397 2687 759 
Q 2956 1122 2956 1747 
Q 2956 2369 2687 2733 
Q 2419 3097 1959 3097 
z
M 1959 3584 
Q 2709 3584 3137 3096 
Q 3566 2609 3566 1747 
Q 3566 888 3137 398 
Q 2709 -91 1959 -91 
Q 1206 -91 779 398 
Q 353 888 353 1747 
Q 353 2609 779 3096 
Q 1206 3584 1959 3584 
z
" transform="scale(0.015625)"/>
       <path id="DejaVuSans-77" d="M 269 3500 
L 844 3500 
L 1563 769 
L 2278 3500 
L 2956 3500 
L 3675 769 
L 4391 3500 
L 4966 3500 
L 4050 0 
L 3372 0 
L 2619 2869 
L 1863 0 
L 1184 0 
L 269 3500 
z
" transform="scale(0.015625)"/>
       <path id="DejaVuSans-69" d="M 603 3500 
L 1178 3500 
L 1178 0 
L 603 0 
L 603 3500 
z
M 603 4863 
L 1178 4863 
L 1178 4134 
L 603 4134 
L 603 4863 
z
" transform="scale(0.015625)"/>
      </defs>
      <use xlink:href="#DejaVuSans-50"/>
      <use xlink:href="#DejaVuSans-72" transform="translate(58.552734 0)"/>
      <use xlink:href="#DejaVuSans-7a" transform="translate(99.666016 0)"/>
      <use xlink:href="#DejaVuSans-79" transform="translate(152.15625 0)"/>
      <use xlink:href="#DejaVuSans-73" transform="translate(211.335938 0)"/>
      <use xlink:href="#DejaVuSans-74" transform="translate(263.435547 0)"/>
      <use xlink:href="#DejaVuSans-6f" transform="translate(302.644531 0)"/>
      <use xlink:href="#DejaVuSans-73" transform="translate(363.826172 0)"/>
      <use xlink:href="#DejaVuSans-6f" transform="translate(415.925781 0)"/>
      <use xlink:href="#DejaVuSans-77" transform="translate(477.107422 0)"/>
      <use xlink:href="#DejaVuSans-61" transform="translate(558.894531 0)"/>
      <use xlink:href="#DejaVuSans-6e" transform="translate(620.173828 0)"/>
      <use xlink:href="#DejaVuSans-69" transform="translate(683.552734 0)"/>
      <use xlink:href="#DejaVuSans-65" transform="translate(711.335938 0)"/>
     </g>
    </g>
   </g>
   <g id="line2d_21">
    <path d="M 73.832727 295.488 
L 75.464157 226.04151 
L 77.095587 189.663311 
L 78.727017 180.404769 
L 80.358447 157.502801 
L 81.989877 146.884635 
L 83.621307 147.826532 
L 85.252736 142.284477 
L 86.884166 141.75824 
L 88.515596 141.795157 
L 90.147026 140.076249 
L 91.778456 141.487743 
L 93.409886 141.596879 
L 95.041316 136.736128 
L 96.672746 134.900305 
L 98.304175 135.287853 
L 99.935605 137.957149 
L 101.567035 136.633589 
L 103.198465 136.610382 
L 104.829895 133.387141 
L 106.461325 132.364145 
L 108.092755 135.587227 
L 109.724185 133.485085 
L 111.355614 133.0347 
L 112.987044 132.039142 
L 114.618474 134.644231 
L 116.249904 133.398659 
L 117.881334 133.809366 
L 119.512764 132.509426 
L 121.144194 134.50582 
L 122.775624 131.118503 
L 124.407053 132.717251 
L 126.038483 131.44802 
L 127.669913 133.513132 
L 129.301343 131.334192 
L 130.932773 132.084404 
L 132.564203 131.401077 
L 134.195633 130.44734 
L 135.827063 129.181146 
L 137.458492 130.150027 
L 139.089922 130.436966 
L 140.721352 129.947516 
L 142.352782 129.783752 
L 143.984212 132.461254 
L 145.615642 128.184722 
L 147.247072 129.948598 
L 148.878502 129.957778 
L 150.509931 128.833589 
L 152.141361 128.596361 
L 153.772791 127.883127 
L 155.404221 128.107561 
L 157.035651 131.669349 
L 160.298511 128.607374 
L 161.929941 132.639144 
L 163.56137 130.262525 
L 165.1928 132.180442 
L 166.82423 130.132944 
L 168.45566 132.737656 
L 170.08709 129.698501 
L 171.71852 129.149016 
L 173.34995 131.175278 
L 174.98138 129.745069 
L 176.61281 129.706136 
L 178.244239 128.177822 
L 179.875669 128.461351 
L 181.507099 130.281065 
L 183.138529 128.943999 
L 184.769959 129.75984 
L 186.401389 127.995205 
L 188.032819 132.257831 
L 189.664249 129.044315 
L 191.295678 131.062692 
L 192.927108 130.654853 
L 194.558538 128.560318 
L 196.189968 128.714241 
L 197.821398 129.089213 
L 199.452828 130.802044 
L 201.084258 130.649398 
L 202.715688 130.30976 
L 204.347117 128.791674 
L 205.978547 130.142549 
L 207.609977 128.461177 
L 209.241407 133.200696 
L 210.872837 130.279449 
L 212.504267 128.884745 
L 214.135697 127.81865 
L 215.767127 129.367742 
L 217.398556 131.324799 
L 219.029986 128.777267 
L 220.661416 129.654705 
L 222.292846 129.303061 
L 223.924276 128.039783 
L 225.555706 129.095861 
L 227.187136 128.124053 
L 228.818566 129.045518 
L 230.449995 127.276785 
L 232.081425 130.181732 
L 233.712855 130.760544 
L 235.344285 128.793375 
L 236.975715 127.545867 
L 238.607145 129.950338 
L 240.238575 128.202495 
L 241.870005 129.331245 
L 243.501434 129.276674 
L 245.132864 130.189492 
L 246.764294 129.825211 
L 248.395724 128.884871 
L 250.027154 131.103231 
L 251.658584 127.398272 
L 253.290014 128.376843 
L 254.921444 128.179473 
L 256.552873 128.422046 
L 258.184303 127.583047 
L 259.815733 128.628661 
L 261.447163 127.560127 
L 263.078593 128.238876 
L 264.710023 130.273598 
L 266.341453 129.741019 
L 267.972883 129.088852 
L 269.604312 128.19495 
L 271.235742 128.703951 
L 272.867172 128.976852 
L 274.498602 132.223875 
L 276.130032 129.063278 
L 277.761462 129.214117 
L 281.024322 128.664753 
L 282.655751 127.058996 
L 284.287181 129.858493 
L 285.918611 128.575989 
L 287.550041 128.476895 
L 289.181471 129.183661 
L 290.812901 128.262431 
L 292.444331 129.201894 
L 294.075761 127.710009 
L 295.70719 128.861647 
L 297.33862 127.225455 
L 298.97005 127.291093 
L 300.60148 129.533728 
L 302.23291 128.905803 
L 303.86434 127.208431 
L 305.49577 129.513603 
L 307.1272 129.851053 
L 308.75863 129.501109 
L 310.390059 128.87235 
L 312.021489 127.760562 
L 313.652919 127.960728 
L 315.284349 127.299819 
L 318.547209 128.969125 
L 320.178639 126.766362 
L 321.810069 127.45852 
L 323.441498 127.060594 
L 326.704358 126.915011 
L 328.335788 128.153379 
L 331.598648 126.716976 
L 333.230078 127.691927 
L 334.861508 126.790712 
L 336.492937 126.392424 
L 338.124367 129.070738 
L 339.755797 127.746445 
L 341.387227 128.572805 
L 343.018657 125.872285 
L 344.650087 126.948027 
L 346.281517 128.495666 
L 347.912947 128.943593 
L 349.544376 125.491831 
L 351.175806 125.972816 
L 352.807236 128.910282 
L 354.438666 127.967884 
L 356.070096 127.830918 
L 357.701526 129.111439 
L 359.332956 127.82251 
L 360.964386 126.678864 
L 362.595815 125.125394 
L 364.227245 127.408786 
L 365.858675 128.266522 
L 367.490105 126.629022 
L 370.752965 128.948105 
L 372.384395 126.259551 
L 374.015825 126.274957 
L 375.647254 128.162184 
L 377.278684 126.591179 
L 378.910114 128.383603 
L 380.541544 128.987345 
L 382.172974 127.804469 
L 383.804404 127.1691 
L 385.435834 127.274298 
L 387.067264 126.691139 
L 388.698693 127.350827 
L 390.330123 128.611832 
L 391.961553 127.605483 
L 393.592983 128.515259 
L 395.224413 127.089039 
L 396.855843 129.839675 
L 398.487273 127.947615 
L 398.487273 127.947615 
" clip-path="url(#pd3d35a8569)" style="fill: none; stroke: #0000ff; stroke-width: 1.5; stroke-linecap: square"/>
   </g>
   <g id="line2d_22">
    <path d="M 73.832727 235.441592 
L 75.464157 166.340867 
L 77.095587 139.054801 
L 78.727017 133.480728 
L 80.358447 122.280417 
L 81.989877 117.678502 
L 83.621307 117.122846 
L 85.252736 117.142833 
L 86.884166 118.943299 
L 88.515596 119.039143 
L 90.147026 118.639318 
L 91.778456 117.940654 
L 93.409886 118.5929 
L 95.041316 119.028977 
L 96.672746 113.970167 
L 98.304175 119.365088 
L 99.935605 116.776789 
L 101.567035 112.503304 
L 103.198465 116.950254 
L 104.829895 115.332453 
L 106.461325 113.403522 
L 108.092755 117.388088 
L 109.724185 117.412888 
L 111.355614 115.51733 
L 112.987044 115.898462 
L 114.618474 113.026505 
L 116.249904 114.212859 
L 117.881334 113.88423 
L 119.512764 117.161725 
L 121.144194 111.919518 
L 122.775624 112.304471 
L 124.407053 115.350957 
L 126.038483 113.57437 
L 127.669913 116.196508 
L 129.301343 112.946543 
L 130.932773 116.21502 
L 132.564203 116.257942 
L 134.195633 111.231044 
L 135.827063 111.404028 
L 137.458492 114.24246 
L 139.089922 112.5585 
L 140.721352 113.926422 
L 142.352782 113.760029 
L 143.984212 114.907579 
L 145.615642 111.869752 
L 147.247072 113.763485 
L 148.878502 113.824203 
L 150.509931 114.714121 
L 152.141361 113.824974 
L 153.772791 110.902854 
L 155.404221 111.661689 
L 157.035651 114.65276 
L 158.667081 111.820412 
L 160.298511 112.636381 
L 161.929941 112.200144 
L 163.56137 113.507251 
L 165.1928 114.028243 
L 166.82423 109.07253 
L 168.45566 110.213924 
L 170.08709 113.557325 
L 171.71852 110.431278 
L 173.34995 110.562074 
L 174.98138 113.544556 
L 176.61281 111.702993 
L 178.244239 111.979909 
L 179.875669 113.300826 
L 181.507099 112.678765 
L 183.138529 111.467768 
L 184.769959 107.801818 
L 186.401389 111.310616 
L 188.032819 110.252331 
L 189.664249 114.759902 
L 191.295678 113.634691 
L 192.927108 111.325101 
L 194.558538 109.942392 
L 196.189968 111.97157 
L 197.821398 112.99425 
L 199.452828 113.135089 
L 201.084258 110.807694 
L 202.715688 114.114815 
L 204.347117 112.567227 
L 205.978547 113.85689 
L 207.609977 109.662217 
L 209.241407 108.330499 
L 210.872837 111.137642 
L 212.504267 115.071229 
L 214.135697 111.998155 
L 215.767127 113.872339 
L 217.398556 115.054107 
L 219.029986 111.814658 
L 220.661416 113.276898 
L 222.292846 113.666485 
L 223.924276 112.276068 
L 225.555706 113.39976 
L 227.187136 112.54668 
L 228.818566 115.792074 
L 230.449995 112.530814 
L 232.081425 115.356002 
L 233.712855 112.685905 
L 235.344285 114.234041 
L 236.975715 111.077067 
L 238.607145 113.332116 
L 240.238575 112.863258 
L 241.870005 114.398383 
L 243.501434 114.78365 
L 245.132864 114.99299 
L 246.764294 113.945944 
L 248.395724 114.054471 
L 250.027154 115.672727 
L 251.658584 112.255065 
L 253.290014 113.822113 
L 254.921444 111.752723 
L 256.552873 113.077241 
L 258.184303 113.29219 
L 259.815733 113.736047 
L 261.447163 112.173319 
L 263.078593 113.10102 
L 264.710023 114.602901 
L 266.341453 114.292863 
L 267.972883 114.720311 
L 269.604312 112.239699 
L 271.235742 113.989275 
L 272.867172 113.749609 
L 274.498602 114.439593 
L 276.130032 114.495962 
L 277.761462 113.008589 
L 279.392892 114.192124 
L 281.024322 112.688467 
L 282.655751 112.178973 
L 284.287181 116.578119 
L 285.918611 113.643775 
L 287.550041 113.258761 
L 289.181471 114.674274 
L 290.812901 114.197703 
L 292.444331 114.44853 
L 294.075761 113.913505 
L 295.70719 114.682876 
L 297.33862 111.621371 
L 298.97005 111.48173 
L 300.60148 113.758759 
L 302.23291 112.83209 
L 303.86434 112.688564 
L 305.49577 114.774993 
L 307.1272 113.137339 
L 308.75863 113.796971 
L 310.390059 113.882102 
L 312.021489 112.259219 
L 313.652919 112.378115 
L 315.284349 113.936239 
L 316.915779 112.920254 
L 318.547209 111.606133 
L 320.178639 112.117364 
L 321.810069 108.045116 
L 323.441498 112.108922 
L 326.704358 111.758437 
L 328.335788 113.701586 
L 329.967218 111.949273 
L 331.598648 111.294679 
L 333.230078 112.72206 
L 334.861508 109.848518 
L 336.492937 111.337343 
L 338.124367 114.110854 
L 339.755797 112.50897 
L 341.387227 113.28833 
L 343.018657 108.992226 
L 344.650087 111.351217 
L 346.281517 113.990453 
L 347.912947 113.983128 
L 349.544376 109.812489 
L 351.175806 111.152619 
L 352.807236 112.75662 
L 354.438666 109.804648 
L 357.701526 111.672703 
L 359.332956 112.995048 
L 360.964386 109.758751 
L 362.595815 109.505595 
L 364.227245 111.588091 
L 365.858675 112.707268 
L 367.490105 110.748621 
L 369.121535 111.705688 
L 370.752965 111.778646 
L 372.384395 109.451049 
L 374.015825 110.754819 
L 375.647254 111.613396 
L 377.278684 110.519848 
L 378.910114 112.29829 
L 380.541544 111.438729 
L 382.172974 112.135101 
L 383.804404 111.093062 
L 385.435834 111.883491 
L 387.067264 109.781699 
L 390.330123 112.813555 
L 391.961553 110.404366 
L 393.592983 113.021914 
L 395.224413 111.678004 
L 396.855843 114.544858 
L 398.487273 112.780559 
L 398.487273 112.780559 
" clip-path="url(#pd3d35a8569)" style="fill: none; stroke-dasharray: 9.6,2.4,1.5,2.4; stroke-dashoffset: 0; stroke: #008000; stroke-width: 1.5"/>
   </g>
   <g id="line2d_23">
    <path d="M 73.832727 134.222124 
L 75.464157 102.53602 
L 77.095587 102.96137 
L 78.727017 100.8347 
L 80.358447 105.647143 
L 81.989877 97.696241 
L 83.621307 99.449064 
L 85.252736 97.706939 
L 86.884166 96.392183 
L 88.515596 97.676052 
L 90.147026 77.043066 
L 91.778456 75.859826 
L 93.409886 85.666813 
L 95.041316 91.642793 
L 96.672746 81.665625 
L 98.304175 87.372603 
L 99.935605 88.791868 
L 101.567035 72.74494 
L 103.198465 87.106179 
L 104.829895 79.880825 
L 106.461325 76.294448 
L 108.092755 81.713695 
L 109.724185 87.522534 
L 111.355614 87.498991 
L 112.987044 85.729138 
L 114.618474 83.047646 
L 116.249904 88.903484 
L 117.881334 81.226525 
L 119.512764 93.09072 
L 121.144194 78.549115 
L 122.775624 88.47224 
L 124.407053 81.712104 
L 126.038483 69.161209 
L 127.669913 83.027204 
L 129.301343 85.875834 
L 130.932773 81.535551 
L 132.564203 93.072357 
L 134.195633 82.871035 
L 135.827063 74.17912 
L 137.458492 79.348425 
L 139.089922 61.405577 
L 140.721352 81.38002 
L 142.352782 88.724712 
L 143.984212 84.372817 
L 145.615642 70.185057 
L 147.247072 81.606883 
L 148.878502 85.834271 
L 150.509931 84.110659 
L 152.141361 80.133384 
L 153.772791 76.871661 
L 155.404221 84.185738 
L 157.035651 78.297692 
L 158.667081 79.976884 
L 160.298511 86.092883 
L 161.929941 61.034415 
L 163.56137 78.980325 
L 165.1928 85.668055 
L 166.82423 76.873747 
L 168.45566 87.350192 
L 171.71852 78.918031 
L 173.34995 63.860111 
L 174.98138 86.843673 
L 176.61281 81.596955 
L 178.244239 86.240044 
L 179.875669 85.676662 
L 181.507099 71.436707 
L 183.138529 78.92023 
L 184.769959 83.062349 
L 186.401389 61.046647 
L 188.032819 67.590644 
L 189.664249 88.682248 
L 191.295678 70.482373 
L 192.927108 53.568 
L 194.558538 77.124221 
L 196.189968 87.181008 
L 197.821398 70.355302 
L 199.452828 90.303224 
L 201.084258 82.509886 
L 202.715688 97.852491 
L 204.347117 85.436882 
L 205.978547 85.808091 
L 207.609977 85.803836 
L 209.241407 85.593494 
L 210.872837 79.754366 
L 212.504267 94.855197 
L 214.135697 72.014001 
L 215.767127 82.532102 
L 217.398556 82.801692 
L 219.029986 75.813151 
L 220.661416 77.223172 
L 222.292846 85.750368 
L 223.924276 85.598388 
L 225.555706 91.777344 
L 227.187136 78.680897 
L 228.818566 94.553072 
L 230.449995 73.988555 
L 232.081425 92.833218 
L 233.712855 88.385199 
L 235.344285 90.066386 
L 236.975715 71.570585 
L 238.607145 88.813498 
L 240.238575 88.501029 
L 241.870005 81.321275 
L 243.501434 82.798751 
L 245.132864 82.694129 
L 246.764294 88.252442 
L 248.395724 77.335482 
L 250.027154 90.403133 
L 251.658584 82.945915 
L 253.290014 85.626944 
L 254.921444 84.258719 
L 256.552873 80.00562 
L 258.184303 81.450922 
L 259.815733 87.217765 
L 261.447163 74.755541 
L 263.078593 85.508894 
L 264.710023 82.904815 
L 266.341453 80.045352 
L 267.972883 88.489848 
L 269.604312 84.149874 
L 271.235742 81.475684 
L 272.867172 95.866155 
L 274.498602 96.256254 
L 276.130032 66.202236 
L 277.761462 88.24261 
L 279.392892 94.497979 
L 281.024322 80.166601 
L 282.655751 90.129212 
L 284.287181 79.832773 
L 285.918611 77.240522 
L 287.550041 66.636708 
L 289.181471 77.05663 
L 290.812901 82.613015 
L 292.444331 82.728319 
L 294.075761 75.84787 
L 295.70719 85.894942 
L 297.33862 80.020769 
L 298.97005 81.320887 
L 300.60148 71.783985 
L 302.23291 79.706245 
L 303.86434 87.010305 
L 305.49577 77.022884 
L 307.1272 69.259918 
L 308.75863 87.451746 
L 310.390059 87.159365 
L 312.021489 74.853939 
L 313.652919 78.567689 
L 315.284349 87.287021 
L 316.915779 80.220118 
L 318.547209 75.982481 
L 320.178639 75.505875 
L 321.810069 83.073192 
L 323.441498 81.804514 
L 325.072928 86.97208 
L 326.704358 71.493475 
L 328.335788 81.258453 
L 329.967218 86.881989 
L 331.598648 81.582424 
L 333.230078 82.740937 
L 334.861508 69.121346 
L 336.492937 83.174151 
L 338.124367 81.522222 
L 339.755797 84.254951 
L 341.387227 88.577282 
L 343.018657 67.759484 
L 344.650087 69.220802 
L 346.281517 87.239505 
L 347.912947 85.821607 
L 349.544376 70.468951 
L 351.175806 84.49208 
L 352.807236 71.8217 
L 354.438666 70.43922 
L 356.070096 81.611073 
L 357.701526 79.796734 
L 359.332956 90.068117 
L 360.964386 81.189132 
L 362.595815 85.716966 
L 364.227245 69.102363 
L 365.858675 79.841484 
L 367.490105 77.253131 
L 369.121535 80.245435 
L 370.752965 81.753424 
L 372.384395 71.80016 
L 374.015825 84.13069 
L 375.647254 78.710921 
L 377.278684 80.197069 
L 378.910114 82.780257 
L 380.541544 75.755622 
L 382.172974 81.330605 
L 383.804404 64.927796 
L 385.435834 63.872033 
L 387.067264 81.61645 
L 388.698693 79.829839 
L 390.330123 81.590187 
L 391.961553 73.152939 
L 393.592983 81.718726 
L 395.224413 82.158159 
L 396.855843 77.374093 
L 398.487273 77.168945 
L 398.487273 77.168945 
" clip-path="url(#pd3d35a8569)" style="fill: none; stroke: #ff0000; stroke-width: 1.5; stroke-linecap: square"/>
   </g>
   <g id="patch_3">
    <path d="M 57.6 307.584 
L 57.6 41.472 
" style="fill: none; stroke: #000000; stroke-width: 0.8; stroke-linejoin: miter; stroke-linecap: square"/>
   </g>
   <g id="patch_4">
    <path d="M 414.72 307.584 
L 414.72 41.472 
" style="fill: none; stroke: #000000; stroke-width: 0.8; stroke-linejoin: miter; stroke-linecap: square"/>
   </g>
   <g id="patch_5">
    <path d="M 57.6 307.584 
L 414.72 307.584 
" style="fill: none; stroke: #000000; stroke-width: 0.8; stroke-linejoin: miter; stroke-linecap: square"/>
   </g>
   <g id="patch_6">
    <path d="M 57.6 41.472 
L 414.72 41.472 
" style="fill: none; stroke: #000000; stroke-width: 0.8; stroke-linejoin: miter; stroke-linecap: square"/>
   </g>
   <g id="text_13">
    <!-- Średnie i najlepsze przystosowanie w każdej generacji -->
    <g transform="translate(73.26 35.472) scale(0.12 -0.12)">
     <defs>
      <path id="DejaVuSans-15a" d="M 2236 5921 
L 2814 5921 
L 2102 5096 
L 1623 5096 
L 2236 5921 
z
M 3425 4513 
L 3425 3897 
Q 3066 4069 2747 4153 
Q 2428 4238 2131 4238 
Q 1616 4238 1336 4038 
Q 1056 3838 1056 3469 
Q 1056 3159 1242 3001 
Q 1428 2844 1947 2747 
L 2328 2669 
Q 3034 2534 3370 2195 
Q 3706 1856 3706 1288 
Q 3706 609 3251 259 
Q 2797 -91 1919 -91 
Q 1588 -91 1214 -16 
Q 841 59 441 206 
L 441 856 
Q 825 641 1194 531 
Q 1563 422 1919 422 
Q 2459 422 2753 634 
Q 3047 847 3047 1241 
Q 3047 1584 2836 1778 
Q 2625 1972 2144 2069 
L 1759 2144 
Q 1053 2284 737 2584 
Q 422 2884 422 3419 
Q 422 4038 858 4394 
Q 1294 4750 2059 4750 
Q 2388 4750 2728 4690 
Q 3069 4631 3425 4513 
z
" transform="scale(0.015625)"/>
      <path id="DejaVuSans-64" d="M 2906 2969 
L 2906 4863 
L 3481 4863 
L 3481 0 
L 2906 0 
L 2906 525 
Q 2725 213 2448 61 
Q 2172 -91 1784 -91 
Q 1150 -91 751 415 
Q 353 922 353 1747 
Q 353 2572 751 3078 
Q 1150 3584 1784 3584 
Q 2172 3584 2448 3432 
Q 2725 3281 2906 2969 
z
M 947 1747 
Q 947 1113 1208 752 
Q 1469 391 1925 391 
Q 2381 391 2643 752 
Q 2906 1113 2906 1747 
Q 2906 2381 2643 2742 
Q 2381 3103 1925 3103 
Q 1469 3103 1208 2742 
Q 947 2381 947 1747 
z
" transform="scale(0.015625)"/>
      <path id="DejaVuSans-20" transform="scale(0.015625)"/>
      <path id="DejaVuSans-6c" d="M 603 4863 
L 1178 4863 
L 1178 0 
L 603 0 
L 603 4863 
z
" transform="scale(0.015625)"/>
      <path id="DejaVuSans-70" d="M 1159 525 
L 1159 -1331 
L 581 -1331 
L 581 3500 
L 1159 3500 
L 1159 2969 
Q 1341 3281 1617 3432 
Q 1894 3584 2278 3584 
Q 2916 3584 3314 3078 
Q 3713 2572 3713 1747 
Q 3713 922 3314 415 
Q 2916 -91 2278 -91 
Q 1894 -91 1617 61 
Q 1341 213 1159 525 
z
M 3116 1747 
Q 3116 2381 2855 2742 
Q 2594 3103 2138 3103 
Q 1681 3103 1420 2742 
Q 1159 2381 1159 1747 
Q 1159 1113 1420 752 
Q 1681 391 2138 391 
Q 2594 391 2855 752 
Q 3116 1113 3116 1747 
z
" transform="scale(0.015625)"/>
      <path id="DejaVuSans-6b" d="M 581 4863 
L 1159 4863 
L 1159 1991 
L 2875 3500 
L 3609 3500 
L 1753 1863 
L 3688 0 
L 2938 0 
L 1159 1709 
L 1159 0 
L 581 0 
L 581 4863 
z
" transform="scale(0.015625)"/>
      <path id="DejaVuSans-17c" d="M 1378 4863 
L 1953 4863 
L 1953 4134 
L 1378 4134 
L 1378 4863 
z
M 1672 3584 
L 1672 3584 
z
M 353 3500 
L 3084 3500 
L 3084 2975 
L 922 459 
L 3084 459 
L 3084 0 
L 275 0 
L 275 525 
L 2438 3041 
L 353 3041 
L 353 3500 
z
" transform="scale(0.015625)"/>
      <path id="DejaVuSans-67" d="M 2906 1791 
Q 2906 2416 2648 2759 
Q 2391 3103 1925 3103 
Q 1463 3103 1205 2759 
Q 947 2416 947 1791 
Q 947 1169 1205 825 
Q 1463 481 1925 481 
Q 2391 481 2648 825 
Q 2906 1169 2906 1791 
z
M 3481 434 
Q 3481 -459 3084 -895 
Q 2688 -1331 1869 -1331 
Q 1566 -1331 1297 -1286 
Q 1028 -1241 775 -1147 
L 775 -588 
Q 1028 -725 1275 -790 
Q 1522 -856 1778 -856 
Q 2344 -856 2625 -561 
Q 2906 -266 2906 331 
L 2906 616 
Q 2728 306 2450 153 
Q 2172 0 1784 0 
Q 1141 0 747 490 
Q 353 981 353 1791 
Q 353 2603 747 3093 
Q 1141 3584 1784 3584 
Q 2172 3584 2450 3431 
Q 2728 3278 2906 2969 
L 2906 3500 
L 3481 3500 
L 3481 434 
z
" transform="scale(0.015625)"/>
     </defs>
     <use xlink:href="#DejaVuSans-15a"/>
     <use xlink:href="#DejaVuSans-72" transform="translate(63.476562 0)"/>
     <use xlink:href="#DejaVuSans-65" transform="translate(102.339844 0)"/>
     <use xlink:href="#DejaVuSans-64" transform="translate(163.863281 0)"/>
     <use xlink:href="#DejaVuSans-6e" transform="translate(227.339844 0)"/>
     <use xlink:href="#DejaVuSans-69" transform="translate(290.71875 0)"/>
     <use xlink:href="#DejaVuSans-65" transform="translate(318.501953 0)"/>
     <use xlink:href="#DejaVuSans-20" transform="translate(380.025391 0)"/>
     <use xlink:href="#DejaVuSans-69" transform="translate(411.8125 0)"/>
     <use xlink:href="#DejaVuSans-20" transform="translate(439.595703 0)"/>
     <use xlink:href="#DejaVuSans-6e" transform="translate(471.382812 0)"/>
     <use xlink:href="#DejaVuSans-61" transform="translate(534.761719 0)"/>
     <use xlink:href="#DejaVuSans-6a" transform="translate(596.041016 0)"/>
     <use xlink:href="#DejaVuSans-6c" transform="translate(623.824219 0)"/>
     <use xlink:href="#DejaVuSans-65" transform="translate(651.607422 0)"/>
     <use xlink:href="#DejaVuSans-70" transform="translate(713.130859 0)"/>
     <use xlink:href="#DejaVuSans-73" transform="translate(776.607422 0)"/>
     <use xlink:href="#DejaVuSans-7a" transform="translate(828.707031 0)"/>
     <use xlink:href="#DejaVuSans-65" transform="translate(881.197266 0)"/>
     <use xlink:href="#DejaVuSans-20" transform="translate(942.720703 0)"/>
     <use xlink:href="#DejaVuSans-70" transform="translate(974.507812 0)"/>
     <use xlink:href="#DejaVuSans-72" transform="translate(1037.984375 0)"/>
     <use xlink:href="#DejaVuSans-7a" transform="translate(1079.097656 0)"/>
     <use xlink:href="#DejaVuSans-79" transform="translate(1131.587891 0)"/>
     <use xlink:href="#DejaVuSans-73" transform="translate(1190.767578 0)"/>
     <use xlink:href="#DejaVuSans-74" transform="translate(1242.867188 0)"/>
     <use xlink:href="#DejaVuSans-6f" transform="translate(1282.076172 0)"/>
     <use xlink:href="#DejaVuSans-73" transform="translate(1343.257812 0)"/>
     <use xlink:href="#DejaVuSans-6f" transform="translate(1395.357422 0)"/>
     <use xlink:href="#DejaVuSans-77" transform="translate(1456.539062 0)"/>
     <use xlink:href="#DejaVuSans-61" transform="translate(1538.326172 0)"/>
     <use xlink:href="#DejaVuSans-6e" transform="translate(1599.605469 0)"/>
     <use xlink:href="#DejaVuSans-69" transform="translate(1662.984375 0)"/>
     <use xlink:href="#DejaVuSans-65" transform="translate(1690.767578 0)"/>
     <use xlink:href="#DejaVuSans-20" transform="translate(1752.291016 0)"/>
     <use xlink:href="#DejaVuSans-77" transform="translate(1784.078125 0)"/>
     <use xlink:href="#DejaVuSans-20" transform="translate(1865.865234 0)"/>
     <use xlink:href="#DejaVuSans-6b" transform="translate(1897.652344 0)"/>
     <use xlink:href="#DejaVuSans-61" transform="translate(1953.8125 0)"/>
     <use xlink:href="#DejaVuSans-17c" transform="translate(2015.091797 0)"/>
     <use xlink:href="#DejaVuSans-64" transform="translate(2067.582031 0)"/>
     <use xlink:href="#DejaVuSans-65" transform="translate(2131.058594 0)"/>
     <use xlink:href="#DejaVuSans-6a" transform="translate(2192.582031 0)"/>
     <use xlink:href="#DejaVuSans-20" transform="translate(2220.365234 0)"/>
     <use xlink:href="#DejaVuSans-67" transform="translate(2252.152344 0)"/>
     <use xlink:href="#DejaVuSans-65" transform="translate(2315.628906 0)"/>
     <use xlink:href="#DejaVuSans-6e" transform="translate(2377.152344 0)"/>
     <use xlink:href="#DejaVuSans-65" transform="translate(2440.53125 0)"/>
     <use xlink:href="#DejaVuSans-72" transform="translate(2502.054688 0)"/>
     <use xlink:href="#DejaVuSans-61" transform="translate(2543.167969 0)"/>
     <use xlink:href="#DejaVuSans-63" transform="translate(2604.447266 0)"/>
     <use xlink:href="#DejaVuSans-6a" transform="translate(2659.427734 0)"/>
     <use xlink:href="#DejaVuSans-69" transform="translate(2687.210938 0)"/>
    </g>
   </g>
   <g id="legend_1">
    <g id="patch_7">
     <path d="M 279.790313 302.584 
L 407.72 302.584 
Q 409.72 302.584 409.72 300.584 
L 409.72 257.549625 
Q 409.72 255.549625 407.72 255.549625 
L 279.790313 255.549625 
Q 277.790313 255.549625 277.790313 257.549625 
L 277.790313 300.584 
Q 277.790313 302.584 279.790313 302.584 
z
" style="fill: #ffffff; opacity: 0.8; stroke: #cccccc; stroke-linejoin: miter"/>
    </g>
    <g id="line2d_24">
     <path d="M 281.790313 263.648062 
L 291.790313 263.648062 
L 301.790313 263.648062 
" style="fill: none; stroke: #0000ff; stroke-width: 1.5; stroke-linecap: square"/>
    </g>
    <g id="text_14">
     <!-- Średnia -->
     <g transform="translate(309.790313 267.148062) scale(0.1 -0.1)">
      <use xlink:href="#DejaVuSans-15a"/>
      <use xlink:href="#DejaVuSans-72" transform="translate(63.476562 0)"/>
      <use xlink:href="#DejaVuSans-65" transform="translate(102.339844 0)"/>
      <use xlink:href="#DejaVuSans-64" transform="translate(163.863281 0)"/>
      <use xlink:href="#DejaVuSans-6e" transform="translate(227.339844 0)"/>
      <use xlink:href="#DejaVuSans-69" transform="translate(290.71875 0)"/>
      <use xlink:href="#DejaVuSans-61" transform="translate(318.501953 0)"/>
     </g>
    </g>
    <g id="line2d_25">
     <path d="M 281.790313 278.326188 
L 291.790313 278.326188 
L 301.790313 278.326188 
" style="fill: none; stroke-dasharray: 9.6,2.4,1.5,2.4; stroke-dashoffset: 0; stroke: #008000; stroke-width: 1.5"/>
    </g>
    <g id="text_15">
     <!-- ±1 Odchylenie std. -->
     <g transform="translate(309.790313 281.826188) scale(0.1 -0.1)">
      <defs>
       <path id="DejaVuSans-b1" d="M 2944 4013 
L 2944 2803 
L 4684 2803 
L 4684 2272 
L 2944 2272 
L 2944 1063 
L 2419 1063 
L 2419 2272 
L 678 2272 
L 678 2803 
L 2419 2803 
L 2419 4013 
L 2944 4013 
z
M 678 531 
L 4684 531 
L 4684 0 
L 678 0 
L 678 531 
z
" transform="scale(0.015625)"/>
       <path id="DejaVuSans-4f" d="M 2522 4238 
Q 1834 4238 1429 3725 
Q 1025 3213 1025 2328 
Q 1025 1447 1429 934 
Q 1834 422 2522 422 
Q 3209 422 3611 934 
Q 4013 1447 4013 2328 
Q 4013 3213 3611 3725 
Q 3209 4238 2522 4238 
z
M 2522 4750 
Q 3503 4750 4090 4092 
Q 4678 3434 4678 2328 
Q 4678 1225 4090 567 
Q 3503 -91 2522 -91 
Q 1538 -91 948 565 
Q 359 1222 359 2328 
Q 359 3434 948 4092 
Q 1538 4750 2522 4750 
z
" transform="scale(0.015625)"/>
       <path id="DejaVuSans-68" d="M 3513 2113 
L 3513 0 
L 2938 0 
L 2938 2094 
Q 2938 2591 2744 2837 
Q 2550 3084 2163 3084 
Q 1697 3084 1428 2787 
Q 1159 2491 1159 1978 
L 1159 0 
L 581 0 
L 581 4863 
L 1159 4863 
L 1159 2956 
Q 1366 3272 1645 3428 
Q 1925 3584 2291 3584 
Q 2894 3584 3203 3211 
Q 3513 2838 3513 2113 
z
" transform="scale(0.015625)"/>
       <path id="DejaVuSans-2e" d="M 684 794 
L 1344 794 
L 1344 0 
L 684 0 
L 684 794 
z
" transform="scale(0.015625)"/>
      </defs>
      <use xlink:href="#DejaVuSans-b1"/>
      <use xlink:href="#DejaVuSans-31" transform="translate(83.789062 0)"/>
      <use xlink:href="#DejaVuSans-20" transform="translate(147.412109 0)"/>
      <use xlink:href="#DejaVuSans-4f" transform="translate(179.199219 0)"/>
      <use xlink:href="#DejaVuSans-64" transform="translate(257.910156 0)"/>
      <use xlink:href="#DejaVuSans-63" transform="translate(321.386719 0)"/>
      <use xlink:href="#DejaVuSans-68" transform="translate(376.367188 0)"/>
      <use xlink:href="#DejaVuSans-79" transform="translate(439.746094 0)"/>
      <use xlink:href="#DejaVuSans-6c" transform="translate(498.925781 0)"/>
      <use xlink:href="#DejaVuSans-65" transform="translate(526.708984 0)"/>
      <use xlink:href="#DejaVuSans-6e" transform="translate(588.232422 0)"/>
      <use xlink:href="#DejaVuSans-69" transform="translate(651.611328 0)"/>
      <use xlink:href="#DejaVuSans-65" transform="translate(679.394531 0)"/>
      <use xlink:href="#DejaVuSans-20" transform="translate(740.917969 0)"/>
      <use xlink:href="#DejaVuSans-73" transform="translate(772.705078 0)"/>
      <use xlink:href="#DejaVuSans-74" transform="translate(824.804688 0)"/>
      <use xlink:href="#DejaVuSans-64" transform="translate(864.013672 0)"/>
      <use xlink:href="#DejaVuSans-2e" transform="translate(927.490234 0)"/>
     </g>
    </g>
    <g id="line2d_26">
     <path d="M 281.790313 293.004312 
L 291.790313 293.004312 
L 301.790313 293.004312 
" style="fill: none; stroke: #ff0000; stroke-width: 1.5; stroke-linecap: square"/>
    </g>
    <g id="text_16">
     <!-- Najlepsze -->
     <g transform="translate(309.790313 296.504312) scale(0.1 -0.1)">
      <defs>
       <path id="DejaVuSans-4e" d="M 628 4666 
L 1478 4666 
L 3547 763 
L 3547 4666 
L 4159 4666 
L 4159 0 
L 3309 0 
L 1241 3903 
L 1241 0 
L 628 0 
L 628 4666 
z
" transform="scale(0.015625)"/>
      </defs>
      <use xlink:href="#DejaVuSans-4e"/>
      <use xlink:href="#DejaVuSans-61" transform="translate(74.804688 0)"/>
      <use xlink:href="#DejaVuSans-6a" transform="translate(136.083984 0)"/>
      <use xlink:href="#DejaVuSans-6c" transform="translate(163.867188 0)"/>
      <use xlink:href="#DejaVuSans-65" transform="translate(191.650391 0)"/>
      <use xlink:href="#DejaVuSans-70" transform="translate(253.173828 0)"/>
      <use xlink:href="#DejaVuSans-73" transform="translate(316.650391 0)"/>
      <use xlink:href="#DejaVuSans-7a" transform="translate(368.75 0)"/>
      <use xlink:href="#DejaVuSans-65" transform="translate(421.240234 0)"/>
     </g>
    </g>
   </g>
  </g>
 </g>
 <defs>
  <clipPath id="pd3d35a8569">
   <rect x="57.6" y="41.472" width="357.12" height="266.112"/>
  </clipPath>
 </defs>
</svg>
