<?xml version="1.0" encoding="utf-8" standalone="no"?>
<!DOCTYPE svg PUBLIC "-//W3C//DTD SVG 1.1//EN"
  "http://www.w3.org/Graphics/SVG/1.1/DTD/svg11.dtd">
<svg xmlns:xlink="http://www.w3.org/1999/xlink" width="460.8pt" height="345.6pt" viewBox="0 0 460.8 345.6" xmlns="http://www.w3.org/2000/svg" version="1.1">
 <metadata>
  <rdf:RDF xmlns:dc="http://purl.org/dc/elements/1.1/" xmlns:cc="http://creativecommons.org/ns#" xmlns:rdf="http://www.w3.org/1999/02/22-rdf-syntax-ns#">
   <cc:Work>
    <dc:type rdf:resource="http://purl.org/dc/dcmitype/StillImage"/>
    <dc:date>2026-04-26T19:01:58.021865</dc:date>
    <dc:format>image/svg+xml</dc:format>
    <dc:creator>
     <cc:Agent>
      <dc:title>Matplotlib v3.10.8, https://matplotlib.org/</dc:title>
     </cc:Agent>
    </dc:creator>
   </cc:Work>
  </rdf:RDF>
 </metadata>
 <defs>
  <style type="text/css">*{stroke-linejoin: round; stroke-linecap: butt}</style>
 </defs>
 <g id="figure_1">
  <g id="patch_1">
   <path d="M 0 345.6 
L 460.8 345.6 
L 460.8 0 
L 0 0 
z
" style="fill: #ffffff"/>
  </g>
  <g id="axes_1">
   <g id="patch_2">
    <path d="M 57.6 307.584 
L 414.72 307.584 
L 414.72 41.472 
L 57.6 41.472 
z
" style="fill: #ffffff"/>
   </g>
   <g id="matplotlib.axis_1">
    <g id="xtick_1">
     <g id="line2d_1">
      <path d="M 72.201297 307.584 
L 72.201297 41.472 
" clip-path="url(#p26f0192dff)" style="fill: none; stroke: #b0b0b0; stroke-width: 0.8; stroke-linecap: square"/>
     </g>
     <g id="line2d_2">
      <defs>
       <path id="m2b081f5033" d="M 0 0 
L 0 3.5 
" style="stroke: #000000; stroke-width: 0.8"/>
      </defs>
      <g>
       <use xlink:href="#m2b081f5033" x="72.201297" y="307.584" style="stroke: #000000; stroke-width: 0.8"/>
      </g>
     </g>
     <g id="text_1">
      <!-- 0 -->
      <g transform="translate(69.020047 322.182437) scale(0.1 -0.1)">
       <defs>
        <path id="DejaVuSans-30" d="M 2034 4250 
Q 1547 4250 1301 3770 
Q 1056 3291 1056 2328 
Q 1056 1369 1301 889 
Q 1547 409 2034 409 
Q 2525 409 2770 889 
Q 3016 1369 3016 2328 
Q 3016 3291 2770 3770 
Q 2525 4250 2034 4250 
z
M 2034 4750 
Q 2819 4750 3233 4129 
Q 3647 3509 3647 2328 
Q 3647 1150 3233 529 
Q 2819 -91 2034 -91 
Q 1250 -91 836 529 
Q 422 1150 422 2328 
Q 422 3509 836 4129 
Q 1250 4750 2034 4750 
z
" transform="scale(0.015625)"/>
       </defs>
       <use xlink:href="#DejaVuSans-30"/>
      </g>
     </g>
    </g>
    <g id="xtick_2">
     <g id="line2d_3">
      <path d="M 112.987044 307.584 
L 112.987044 41.472 
" clip-path="url(#p26f0192dff)" style="fill: none; stroke: #b0b0b0; stroke-width: 0.8; stroke-linecap: square"/>
     </g>
     <g id="line2d_4">
      <g>
       <use xlink:href="#m2b081f5033" x="112.987044" y="307.584" style="stroke: #000000; stroke-width: 0.8"/>
      </g>
     </g>
     <g id="text_2">
      <!-- 25 -->
      <g transform="translate(106.624544 322.182437) scale(0.1 -0.1)">
       <defs>
        <path id="DejaVuSans-32" d="M 1228 531 
L 3431 531 
L 3431 0 
L 469 0 
L 469 531 
Q 828 903 1448 1529 
Q 2069 2156 2228 2338 
Q 2531 2678 2651 2914 
Q 2772 3150 2772 3378 
Q 2772 3750 2511 3984 
Q 2250 4219 1831 4219 
Q 1534 4219 1204 4116 
Q 875 4013 500 3803 
L 500 4441 
Q 881 4594 1212 4672 
Q 1544 4750 1819 4750 
Q 2544 4750 2975 4387 
Q 3406 4025 3406 3419 
Q 3406 3131 3298 2873 
Q 3191 2616 2906 2266 
Q 2828 2175 2409 1742 
Q 1991 1309 1228 531 
z
" transform="scale(0.015625)"/>
        <path id="DejaVuSans-35" d="M 691 4666 
L 3169 4666 
L 3169 4134 
L 1269 4134 
L 1269 2991 
Q 1406 3038 1543 3061 
Q 1681 3084 1819 3084 
Q 2600 3084 3056 2656 
Q 3513 2228 3513 1497 
Q 3513 744 3044 326 
Q 2575 -91 1722 -91 
Q 1428 -91 1123 -41 
Q 819 9 494 109 
L 494 744 
Q 775 591 1075 516 
Q 1375 441 1709 441 
Q 2250 441 2565 725 
Q 2881 1009 2881 1497 
Q 2881 1984 2565 2268 
Q 2250 2553 1709 2553 
Q 1456 2553 1204 2497 
Q 953 2441 691 2322 
L 691 4666 
z
" transform="scale(0.015625)"/>
       </defs>
       <use xlink:href="#DejaVuSans-32"/>
       <use xlink:href="#DejaVuSans-35" transform="translate(63.623047 0)"/>
      </g>
     </g>
    </g>
    <g id="xtick_3">
     <g id="line2d_5">
      <path d="M 153.772791 307.584 
L 153.772791 41.472 
" clip-path="url(#p26f0192dff)" style="fill: none; stroke: #b0b0b0; stroke-width: 0.8; stroke-linecap: square"/>
     </g>
     <g id="line2d_6">
      <g>
       <use xlink:href="#m2b081f5033" x="153.772791" y="307.584" style="stroke: #000000; stroke-width: 0.8"/>
      </g>
     </g>
     <g id="text_3">
      <!-- 50 -->
      <g transform="translate(147.410291 322.182437) scale(0.1 -0.1)">
       <use xlink:href="#DejaVuSans-35"/>
       <use xlink:href="#DejaVuSans-30" transform="translate(63.623047 0)"/>
      </g>
     </g>
    </g>
    <g id="xtick_4">
     <g id="line2d_7">
      <path d="M 194.558538 307.584 
L 194.558538 41.472 
" clip-path="url(#p26f0192dff)" style="fill: none; stroke: #b0b0b0; stroke-width: 0.8; stroke-linecap: square"/>
     </g>
     <g id="line2d_8">
      <g>
       <use xlink:href="#m2b081f5033" x="194.558538" y="307.584" style="stroke: #000000; stroke-width: 0.8"/>
      </g>
     </g>
     <g id="text_4">
      <!-- 75 -->
      <g transform="translate(188.196038 322.182437) scale(0.1 -0.1)">
       <defs>
        <path id="DejaVuSans-37" d="M 525 4666 
L 3525 4666 
L 3525 4397 
L 1831 0 
L 1172 0 
L 2766 4134 
L 525 4134 
L 525 4666 
z
" transform="scale(0.015625)"/>
       </defs>
       <use xlink:href="#DejaVuSans-37"/>
       <use xlink:href="#DejaVuSans-35" transform="translate(63.623047 0)"/>
      </g>
     </g>
    </g>
    <g id="xtick_5">
     <g id="line2d_9">
      <path d="M 235.344285 307.584 
L 235.344285 41.472 
" clip-path="url(#p26f0192dff)" style="fill: none; stroke: #b0b0b0; stroke-width: 0.8; stroke-linecap: square"/>
     </g>
     <g id="line2d_10">
      <g>
       <use xlink:href="#m2b081f5033" x="235.344285" y="307.584" style="stroke: #000000; stroke-width: 0.8"/>
      </g>
     </g>
     <g id="text_5">
      <!-- 100 -->
      <g transform="translate(225.800535 322.182437) scale(0.1 -0.1)">
       <defs>
        <path id="DejaVuSans-31" d="M 794 531 
L 1825 531 
L 1825 4091 
L 703 3866 
L 703 4441 
L 1819 4666 
L 2450 4666 
L 2450 531 
L 3481 531 
L 3481 0 
L 794 0 
L 794 531 
z
" transform="scale(0.015625)"/>
       </defs>
       <use xlink:href="#DejaVuSans-31"/>
       <use xlink:href="#DejaVuSans-30" transform="translate(63.623047 0)"/>
       <use xlink:href="#DejaVuSans-30" transform="translate(127.246094 0)"/>
      </g>
     </g>
    </g>
    <g id="xtick_6">
     <g id="line2d_11">
      <path d="M 276.130032 307.584 
L 276.130032 41.472 
" clip-path="url(#p26f0192dff)" style="fill: none; stroke: #b0b0b0; stroke-width: 0.8; stroke-linecap: square"/>
     </g>
     <g id="line2d_12">
      <g>
       <use xlink:href="#m2b081f5033" x="276.130032" y="307.584" style="stroke: #000000; stroke-width: 0.8"/>
      </g>
     </g>
     <g id="text_6">
      <!-- 125 -->
      <g transform="translate(266.586282 322.182437) scale(0.1 -0.1)">
       <use xlink:href="#DejaVuSans-31"/>
       <use xlink:href="#DejaVuSans-32" transform="translate(63.623047 0)"/>
       <use xlink:href="#DejaVuSans-35" transform="translate(127.246094 0)"/>
      </g>
     </g>
    </g>
    <g id="xtick_7">
     <g id="line2d_13">
      <path d="M 316.915779 307.584 
L 316.915779 41.472 
" clip-path="url(#p26f0192dff)" style="fill: none; stroke: #b0b0b0; stroke-width: 0.8; stroke-linecap: square"/>
     </g>
     <g id="line2d_14">
      <g>
       <use xlink:href="#m2b081f5033" x="316.915779" y="307.584" style="stroke: #000000; stroke-width: 0.8"/>
      </g>
     </g>
     <g id="text_7">
      <!-- 150 -->
      <g transform="translate(307.372029 322.182437) scale(0.1 -0.1)">
       <use xlink:href="#DejaVuSans-31"/>
       <use xlink:href="#DejaVuSans-35" transform="translate(63.623047 0)"/>
       <use xlink:href="#DejaVuSans-30" transform="translate(127.246094 0)"/>
      </g>
     </g>
    </g>
    <g id="xtick_8">
     <g id="line2d_15">
      <path d="M 357.701526 307.584 
L 357.701526 41.472 
" clip-path="url(#p26f0192dff)" style="fill: none; stroke: #b0b0b0; stroke-width: 0.8; stroke-linecap: square"/>
     </g>
     <g id="line2d_16">
      <g>
       <use xlink:href="#m2b081f5033" x="357.701526" y="307.584" style="stroke: #000000; stroke-width: 0.8"/>
      </g>
     </g>
     <g id="text_8">
      <!-- 175 -->
      <g transform="translate(348.157776 322.182437) scale(0.1 -0.1)">
       <use xlink:href="#DejaVuSans-31"/>
       <use xlink:href="#DejaVuSans-37" transform="translate(63.623047 0)"/>
       <use xlink:href="#DejaVuSans-35" transform="translate(127.246094 0)"/>
      </g>
     </g>
    </g>
    <g id="xtick_9">
     <g id="line2d_17">
      <path d="M 398.487273 307.584 
L 398.487273 41.472 
" clip-path="url(#p26f0192dff)" style="fill: none; stroke: #b0b0b0; stroke-width: 0.8; stroke-linecap: square"/>
     </g>
     <g id="line2d_18">
      <g>
       <use xlink:href="#m2b081f5033" x="398.487273" y="307.584" style="stroke: #000000; stroke-width: 0.8"/>
      </g>
     </g>
     <g id="text_9">
      <!-- 200 -->
      <g transform="translate(388.943523 322.182437) scale(0.1 -0.1)">
       <use xlink:href="#DejaVuSans-32"/>
       <use xlink:href="#DejaVuSans-30" transform="translate(63.623047 0)"/>
       <use xlink:href="#DejaVuSans-30" transform="translate(127.246094 0)"/>
      </g>
     </g>
    </g>
    <g id="text_10">
     <!-- Generacje -->
     <g transform="translate(210.629531 335.860562) scale(0.1 -0.1)">
      <defs>
       <path id="DejaVuSans-47" d="M 3809 666 
L 3809 1919 
L 2778 1919 
L 2778 2438 
L 4434 2438 
L 4434 434 
Q 4069 175 3628 42 
Q 3188 -91 2688 -91 
Q 1594 -91 976 548 
Q 359 1188 359 2328 
Q 359 3472 976 4111 
Q 1594 4750 2688 4750 
Q 3144 4750 3555 4637 
Q 3966 4525 4313 4306 
L 4313 3634 
Q 3963 3931 3569 4081 
Q 3175 4231 2741 4231 
Q 1884 4231 1454 3753 
Q 1025 3275 1025 2328 
Q 1025 1384 1454 906 
Q 1884 428 2741 428 
Q 3075 428 3337 486 
Q 3600 544 3809 666 
z
" transform="scale(0.015625)"/>
       <path id="DejaVuSans-65" d="M 3597 1894 
L 3597 1613 
L 953 1613 
Q 991 1019 1311 708 
Q 1631 397 2203 397 
Q 2534 397 2845 478 
Q 3156 559 3463 722 
L 3463 178 
Q 3153 47 2828 -22 
Q 2503 -91 2169 -91 
Q 1331 -91 842 396 
Q 353 884 353 1716 
Q 353 2575 817 3079 
Q 1281 3584 2069 3584 
Q 2775 3584 3186 3129 
Q 3597 2675 3597 1894 
z
M 3022 2063 
Q 3016 2534 2758 2815 
Q 2500 3097 2075 3097 
Q 1594 3097 1305 2825 
Q 1016 2553 972 2059 
L 3022 2063 
z
" transform="scale(0.015625)"/>
       <path id="DejaVuSans-6e" d="M 3513 2113 
L 3513 0 
L 2938 0 
L 2938 2094 
Q 2938 2591 2744 2837 
Q 2550 3084 2163 3084 
Q 1697 3084 1428 2787 
Q 1159 2491 1159 1978 
L 1159 0 
L 581 0 
L 581 3500 
L 1159 3500 
L 1159 2956 
Q 1366 3272 1645 3428 
Q 1925 3584 2291 3584 
Q 2894 3584 3203 3211 
Q 3513 2838 3513 2113 
z
" transform="scale(0.015625)"/>
       <path id="DejaVuSans-72" d="M 2631 2963 
Q 2534 3019 2420 3045 
Q 2306 3072 2169 3072 
Q 1681 3072 1420 2755 
Q 1159 2438 1159 1844 
L 1159 0 
L 581 0 
L 581 3500 
L 1159 3500 
L 1159 2956 
Q 1341 3275 1631 3429 
Q 1922 3584 2338 3584 
Q 2397 3584 2469 3576 
Q 2541 3569 2628 3553 
L 2631 2963 
z
" transform="scale(0.015625)"/>
       <path id="DejaVuSans-61" d="M 2194 1759 
Q 1497 1759 1228 1600 
Q 959 1441 959 1056 
Q 959 750 1161 570 
Q 1363 391 1709 391 
Q 2188 391 2477 730 
Q 2766 1069 2766 1631 
L 2766 1759 
L 2194 1759 
z
M 3341 1997 
L 3341 0 
L 2766 0 
L 2766 531 
Q 2569 213 2275 61 
Q 1981 -91 1556 -91 
Q 1019 -91 701 211 
Q 384 513 384 1019 
Q 384 1609 779 1909 
Q 1175 2209 1959 2209 
L 2766 2209 
L 2766 2266 
Q 2766 2663 2505 2880 
Q 2244 3097 1772 3097 
Q 1472 3097 1187 3025 
Q 903 2953 641 2809 
L 641 3341 
Q 956 3463 1253 3523 
Q 1550 3584 1831 3584 
Q 2591 3584 2966 3190 
Q 3341 2797 3341 1997 
z
" transform="scale(0.015625)"/>
       <path id="DejaVuSans-63" d="M 3122 3366 
L 3122 2828 
Q 2878 2963 2633 3030 
Q 2388 3097 2138 3097 
Q 1578 3097 1268 2742 
Q 959 2388 959 1747 
Q 959 1106 1268 751 
Q 1578 397 2138 397 
Q 2388 397 2633 464 
Q 2878 531 3122 666 
L 3122 134 
Q 2881 22 2623 -34 
Q 2366 -91 2075 -91 
Q 1284 -91 818 406 
Q 353 903 353 1747 
Q 353 2603 823 3093 
Q 1294 3584 2113 3584 
Q 2378 3584 2631 3529 
Q 2884 3475 3122 3366 
z
" transform="scale(0.015625)"/>
       <path id="DejaVuSans-6a" d="M 603 3500 
L 1178 3500 
L 1178 -63 
Q 1178 -731 923 -1031 
Q 669 -1331 103 -1331 
L -116 -1331 
L -116 -844 
L 38 -844 
Q 366 -844 484 -692 
Q 603 -541 603 -63 
L 603 3500 
z
M 603 4863 
L 1178 4863 
L 1178 4134 
L 603 4134 
L 603 4863 
z
" transform="scale(0.015625)"/>
      </defs>
      <use xlink:href="#DejaVuSans-47"/>
      <use xlink:href="#DejaVuSans-65" transform="translate(77.490234 0)"/>
      <use xlink:href="#DejaVuSans-6e" transform="translate(139.013672 0)"/>
      <use xlink:href="#DejaVuSans-65" transform="translate(202.392578 0)"/>
      <use xlink:href="#DejaVuSans-72" transform="translate(263.916016 0)"/>
      <use xlink:href="#DejaVuSans-61" transform="translate(305.029297 0)"/>
      <use xlink:href="#DejaVuSans-63" transform="translate(366.308594 0)"/>
      <use xlink:href="#DejaVuSans-6a" transform="translate(421.289062 0)"/>
      <use xlink:href="#DejaVuSans-65" transform="translate(449.072266 0)"/>
     </g>
    </g>
   </g>
   <g id="matplotlib.axis_2">
    <g id="ytick_1">
     <g id="line2d_19">
      <path d="M 57.6 122.352805 
L 414.72 122.352805 
" clip-path="url(#p26f0192dff)" style="fill: none; stroke: #b0b0b0; stroke-width: 0.8; stroke-linecap: square"/>
     </g>
     <g id="line2d_20">
      <defs>
       <path id="mb0b7899c5b" d="M 0 0 
L -3.5 0 
" style="stroke: #000000; stroke-width: 0.8"/>
      </defs>
      <g>
       <use xlink:href="#mb0b7899c5b" x="57.6" y="122.352805" style="stroke: #000000; stroke-width: 0.8"/>
      </g>
     </g>
     <g id="text_11">
      <!-- $\mathdefault{10^{2}}$ -->
      <g transform="translate(33 126.152023) scale(0.1 -0.1)">
       <use xlink:href="#DejaVuSans-31" transform="translate(0 0.765625)"/>
       <use xlink:href="#DejaVuSans-30" transform="translate(63.623047 0.765625)"/>
       <use xlink:href="#DejaVuSans-32" transform="translate(128.203125 39.046875) scale(0.7)"/>
      </g>
     </g>
    </g>
    <g id="text_12">
     <!-- Przystosowanie -->
     <g transform="translate(26.920312 213.170187) rotate(-90) scale(0.1 -0.1)">
      <defs>
       <path id="DejaVuSans-50" d="M 1259 4147 
L 1259 2394 
L 2053 2394 
Q 2494 2394 2734 2622 
Q 2975 2850 2975 3272 
Q 2975 3691 2734 3919 
Q 2494 4147 2053 4147 
L 1259 4147 
z
M 628 4666 
L 2053 4666 
Q 2838 4666 3239 4311 
Q 3641 3956 3641 3272 
Q 3641 2581 3239 2228 
Q 2838 1875 2053 1875 
L 1259 1875 
L 1259 0 
L 628 0 
L 628 4666 
z
" transform="scale(0.015625)"/>
       <path id="DejaVuSans-7a" d="M 353 3500 
L 3084 3500 
L 3084 2975 
L 922 459 
L 3084 459 
L 3084 0 
L 275 0 
L 275 525 
L 2438 3041 
L 353 3041 
L 353 3500 
z
" transform="scale(0.015625)"/>
       <path id="DejaVuSans-79" d="M 2059 -325 
Q 1816 -950 1584 -1140 
Q 1353 -1331 966 -1331 
L 506 -1331 
L 506 -850 
L 844 -850 
Q 1081 -850 1212 -737 
Q 1344 -625 1503 -206 
L 1606 56 
L 191 3500 
L 800 3500 
L 1894 763 
L 2988 3500 
L 3597 3500 
L 2059 -325 
z
" transform="scale(0.015625)"/>
       <path id="DejaVuSans-73" d="M 2834 3397 
L 2834 2853 
Q 2591 2978 2328 3040 
Q 2066 3103 1784 3103 
Q 1356 3103 1142 2972 
Q 928 2841 928 2578 
Q 928 2378 1081 2264 
Q 1234 2150 1697 2047 
L 1894 2003 
Q 2506 1872 2764 1633 
Q 3022 1394 3022 966 
Q 3022 478 2636 193 
Q 2250 -91 1575 -91 
Q 1294 -91 989 -36 
Q 684 19 347 128 
L 347 722 
Q 666 556 975 473 
Q 1284 391 1588 391 
Q 1994 391 2212 530 
Q 2431 669 2431 922 
Q 2431 1156 2273 1281 
Q 2116 1406 1581 1522 
L 1381 1569 
Q 847 1681 609 1914 
Q 372 2147 372 2553 
Q 372 3047 722 3315 
Q 1072 3584 1716 3584 
Q 2034 3584 2315 3537 
Q 2597 3491 2834 3397 
z
" transform="scale(0.015625)"/>
       <path id="DejaVuSans-74" d="M 1172 4494 
L 1172 3500 
L 2356 3500 
L 2356 3053 
L 1172 3053 
L 1172 1153 
Q 1172 725 1289 603 
Q 1406 481 1766 481 
L 2356 481 
L 2356 0 
L 1766 0 
Q 1100 0 847 248 
Q 594 497 594 1153 
L 594 3053 
L 172 3053 
L 172 3500 
L 594 3500 
L 594 4494 
L 1172 4494 
z
" transform="scale(0.015625)"/>
       <path id="DejaVuSans-6f" d="M 1959 3097 
Q 1497 3097 1228 2736 
Q 959 2375 959 1747 
Q 959 1119 1226 758 
Q 1494 397 1959 397 
Q 2419 397 2687 759 
Q 2956 1122 2956 1747 
Q 2956 2369 2687 2733 
Q 2419 3097 1959 3097 
z
M 1959 3584 
Q 2709 3584 3137 3096 
Q 3566 2609 3566 1747 
Q 3566 888 3137 398 
Q 2709 -91 1959 -91 
Q 1206 -91 779 398 
Q 353 888 353 1747 
Q 353 2609 779 3096 
Q 1206 3584 1959 3584 
z
" transform="scale(0.015625)"/>
       <path id="DejaVuSans-77" d="M 269 3500 
L 844 3500 
L 1563 769 
L 2278 3500 
L 2956 3500 
L 3675 769 
L 4391 3500 
L 4966 3500 
L 4050 0 
L 3372 0 
L 2619 2869 
L 1863 0 
L 1184 0 
L 269 3500 
z
" transform="scale(0.015625)"/>
       <path id="DejaVuSans-69" d="M 603 3500 
L 1178 3500 
L 1178 0 
L 603 0 
L 603 3500 
z
M 603 4863 
L 1178 4863 
L 1178 4134 
L 603 4134 
L 603 4863 
z
" transform="scale(0.015625)"/>
      </defs>
      <use xlink:href="#DejaVuSans-50"/>
      <use xlink:href="#DejaVuSans-72" transform="translate(58.552734 0)"/>
      <use xlink:href="#DejaVuSans-7a" transform="translate(99.666016 0)"/>
      <use xlink:href="#DejaVuSans-79" transform="translate(152.15625 0)"/>
      <use xlink:href="#DejaVuSans-73" transform="translate(211.335938 0)"/>
      <use xlink:href="#DejaVuSans-74" transform="translate(263.435547 0)"/>
      <use xlink:href="#DejaVuSans-6f" transform="translate(302.644531 0)"/>
      <use xlink:href="#DejaVuSans-73" transform="translate(363.826172 0)"/>
      <use xlink:href="#DejaVuSans-6f" transform="translate(415.925781 0)"/>
      <use xlink:href="#DejaVuSans-77" transform="translate(477.107422 0)"/>
      <use xlink:href="#DejaVuSans-61" transform="translate(558.894531 0)"/>
      <use xlink:href="#DejaVuSans-6e" transform="translate(620.173828 0)"/>
      <use xlink:href="#DejaVuSans-69" transform="translate(683.552734 0)"/>
      <use xlink:href="#DejaVuSans-65" transform="translate(711.335938 0)"/>
     </g>
    </g>
   </g>
   <g id="line2d_21">
    <path d="M 73.832727 295.488 
L 75.464157 236.152321 
L 78.727017 166.6588 
L 80.358447 163.417645 
L 81.989877 171.700554 
L 83.621307 175.33074 
L 85.252736 162.5337 
L 86.884166 168.748751 
L 88.515596 162.780207 
L 90.147026 151.548668 
L 91.778456 149.820458 
L 93.409886 149.336897 
L 95.041316 144.933703 
L 96.672746 143.950996 
L 98.304175 146.420502 
L 99.935605 141.88776 
L 101.567035 143.151114 
L 103.198465 142.042 
L 104.829895 141.258834 
L 106.461325 140.868251 
L 108.092755 143.434605 
L 109.724185 142.310204 
L 111.355614 140.727785 
L 112.987044 138.559664 
L 114.618474 140.952888 
L 116.249904 137.882549 
L 117.881334 140.073532 
L 119.512764 138.427323 
L 121.144194 137.225607 
L 122.775624 140.286576 
L 124.407053 141.450208 
L 126.038483 138.499533 
L 127.669913 136.926362 
L 129.301343 133.1465 
L 130.932773 134.260131 
L 132.564203 132.681442 
L 134.195633 134.536877 
L 135.827063 132.677251 
L 137.458492 134.734697 
L 139.089922 133.987315 
L 140.721352 133.372781 
L 142.352782 133.225146 
L 143.984212 133.730559 
L 145.615642 138.946044 
L 147.247072 132.405601 
L 148.878502 134.415502 
L 150.509931 132.251549 
L 152.141361 133.861197 
L 153.772791 132.622128 
L 155.404221 133.54981 
L 157.035651 135.475285 
L 158.667081 133.779986 
L 160.298511 133.81241 
L 161.929941 133.290151 
L 163.56137 136.48202 
L 165.1928 133.789964 
L 166.82423 134.012874 
L 168.45566 134.712878 
L 170.08709 135.596659 
L 173.34995 134.218585 
L 174.98138 134.90928 
L 176.61281 135.033051 
L 178.244239 134.170906 
L 181.507099 134.269835 
L 183.138529 133.361329 
L 184.769959 133.797904 
L 186.401389 134.475576 
L 188.032819 134.614162 
L 189.664249 133.402362 
L 191.295678 133.666689 
L 192.927108 132.420575 
L 194.558538 131.746352 
L 196.189968 133.66356 
L 199.452828 134.577045 
L 201.084258 133.335166 
L 202.715688 133.202079 
L 204.347117 134.291831 
L 205.978547 132.687808 
L 207.609977 132.429058 
L 209.241407 134.364314 
L 210.872837 132.704551 
L 212.504267 135.673911 
L 214.135697 132.598028 
L 217.398556 133.796982 
L 219.029986 132.262276 
L 220.661416 134.251299 
L 222.292846 133.11634 
L 223.924276 130.88309 
L 225.555706 131.404383 
L 227.187136 131.715988 
L 228.818566 131.285719 
L 230.449995 133.670357 
L 232.081425 134.028797 
L 233.712855 131.884436 
L 235.344285 132.093847 
L 236.975715 134.470141 
L 238.607145 132.279909 
L 240.238575 131.68125 
L 241.870005 133.776234 
L 243.501434 132.018553 
L 245.132864 131.976631 
L 246.764294 133.179431 
L 248.395724 131.923169 
L 251.658584 133.737618 
L 253.290014 131.895656 
L 254.921444 133.317085 
L 256.552873 132.271174 
L 258.184303 133.662179 
L 259.815733 131.066523 
L 261.447163 132.581301 
L 263.078593 131.460818 
L 264.710023 132.730951 
L 266.341453 132.094828 
L 267.972883 131.177659 
L 269.604312 132.821751 
L 271.235742 131.270626 
L 272.867172 131.738717 
L 274.498602 133.262311 
L 276.130032 130.977534 
L 277.761462 132.765541 
L 279.392892 131.268516 
L 281.024322 132.143357 
L 282.655751 133.810044 
L 284.287181 132.92549 
L 285.918611 133.077449 
L 287.550041 131.743722 
L 289.181471 132.627621 
L 290.812901 132.663258 
L 292.444331 133.141089 
L 294.075761 133.155567 
L 295.70719 133.696039 
L 298.97005 133.304671 
L 300.60148 132.189163 
L 302.23291 131.318192 
L 303.86434 131.917608 
L 305.49577 133.990377 
L 307.1272 132.989881 
L 308.75863 132.684621 
L 310.390059 132.141028 
L 312.021489 132.571415 
L 313.652919 132.838253 
L 315.284349 131.658579 
L 316.915779 132.499932 
L 318.547209 133.776703 
L 320.178639 134.215957 
L 321.810069 132.464802 
L 323.441498 134.756147 
L 325.072928 135.777466 
L 326.704358 133.249476 
L 328.335788 136.328513 
L 329.967218 132.858301 
L 331.598648 132.796332 
L 333.230078 133.142343 
L 334.861508 133.687962 
L 336.492937 134.649289 
L 338.124367 132.777784 
L 339.755797 131.47606 
L 341.387227 134.404595 
L 343.018657 133.405695 
L 344.650087 133.966616 
L 346.281517 132.605304 
L 347.912947 132.914994 
L 349.544376 132.2917 
L 351.175806 131.311645 
L 352.807236 131.843309 
L 354.438666 133.188957 
L 356.070096 132.307351 
L 357.701526 132.018594 
L 359.332956 133.088044 
L 360.964386 133.908411 
L 362.595815 134.518875 
L 364.227245 131.802133 
L 365.858675 131.745307 
L 367.490105 133.278281 
L 369.121535 132.360466 
L 370.752965 133.180176 
L 372.384395 133.148752 
L 374.015825 134.551906 
L 375.647254 133.742795 
L 377.278684 133.301557 
L 378.910114 133.098492 
L 380.541544 132.644016 
L 382.172974 134.814512 
L 383.804404 132.818525 
L 385.435834 132.900813 
L 387.067264 134.082612 
L 388.698693 133.587935 
L 390.330123 133.557133 
L 391.961553 135.437242 
L 393.592983 133.832085 
L 395.224413 133.71338 
L 396.855843 131.009049 
L 398.487273 132.800473 
L 398.487273 132.800473 
" clip-path="url(#p26f0192dff)" style="fill: none; stroke: #0000ff; stroke-width: 1.5; stroke-linecap: square"/>
   </g>
   <g id="line2d_22">
    <path d="M 73.832727 242.439334 
L 75.464157 191.486238 
L 77.095587 155.818719 
L 78.727017 130.921584 
L 80.358447 125.22078 
L 81.989877 126.791883 
L 83.621307 134.450283 
L 85.252736 128.648496 
L 86.884166 128.296733 
L 88.515596 126.144935 
L 90.147026 124.428087 
L 91.778456 122.061757 
L 95.041316 118.1111 
L 96.672746 118.30375 
L 98.304175 118.943366 
L 99.935605 116.798045 
L 101.567035 120.73831 
L 103.198465 123.690251 
L 104.829895 123.564985 
L 106.461325 123.612624 
L 108.092755 122.018905 
L 109.724185 126.106445 
L 111.355614 125.222998 
L 112.987044 121.021395 
L 114.618474 124.698714 
L 116.249904 121.539128 
L 117.881334 122.095413 
L 119.512764 122.802703 
L 121.144194 117.023595 
L 122.775624 116.926423 
L 124.407053 121.105863 
L 126.038483 120.893884 
L 127.669913 116.618269 
L 129.301343 117.400208 
L 130.932773 117.663336 
L 132.564203 116.735634 
L 134.195633 118.642237 
L 135.827063 117.123953 
L 137.458492 118.173132 
L 139.089922 117.404112 
L 140.721352 119.031427 
L 142.352782 117.821647 
L 143.984212 117.452045 
L 145.615642 115.491085 
L 147.247072 116.268568 
L 148.878502 118.106392 
L 150.509931 116.246053 
L 152.141361 117.21429 
L 153.772791 115.785581 
L 157.035651 120.414961 
L 158.667081 118.884698 
L 160.298511 118.599692 
L 161.929941 116.39883 
L 163.56137 121.866707 
L 165.1928 117.630779 
L 166.82423 117.12644 
L 168.45566 118.958043 
L 170.08709 118.608553 
L 171.71852 118.0421 
L 173.34995 119.41582 
L 174.98138 119.407383 
L 176.61281 117.924272 
L 178.244239 117.492376 
L 179.875669 115.478668 
L 181.507099 119.813715 
L 183.138529 118.158457 
L 184.769959 118.940506 
L 186.401389 117.008879 
L 188.032819 118.986893 
L 189.664249 117.573763 
L 191.295678 117.388027 
L 192.927108 117.485878 
L 194.558538 115.260343 
L 196.189968 115.914729 
L 197.821398 118.521725 
L 199.452828 119.175604 
L 201.084258 117.361523 
L 202.715688 117.907886 
L 204.347117 119.487125 
L 205.978547 117.774446 
L 207.609977 116.847909 
L 209.241407 114.724656 
L 210.872837 117.898496 
L 212.504267 117.717429 
L 214.135697 116.916773 
L 215.767127 115.891444 
L 217.398556 118.914911 
L 219.029986 115.054602 
L 220.661416 119.423204 
L 222.292846 116.07904 
L 223.924276 114.695563 
L 225.555706 117.818573 
L 227.187136 114.65599 
L 228.818566 115.431283 
L 230.449995 118.972987 
L 232.081425 119.695215 
L 233.712855 116.629996 
L 235.344285 117.64586 
L 236.975715 116.272707 
L 238.607145 116.132039 
L 240.238575 113.904886 
L 241.870005 118.447807 
L 243.501434 116.657142 
L 245.132864 115.560413 
L 246.764294 116.378294 
L 248.395724 116.618269 
L 250.027154 117.493746 
L 251.658584 118.834968 
L 253.290014 114.238096 
L 254.921444 118.174273 
L 256.552873 116.292253 
L 258.184303 116.761226 
L 259.815733 115.628713 
L 261.447163 117.916844 
L 263.078593 116.678137 
L 264.710023 116.911836 
L 266.341453 116.006782 
L 267.972883 116.211846 
L 269.604312 118.040729 
L 271.235742 116.100475 
L 272.867172 117.180338 
L 274.498602 118.919461 
L 276.130032 115.062854 
L 277.761462 117.197891 
L 279.392892 116.33953 
L 281.024322 118.958518 
L 282.655751 119.958871 
L 284.287181 117.924267 
L 285.918611 118.163089 
L 287.550041 114.854094 
L 289.181471 117.711745 
L 292.444331 118.231864 
L 294.075761 116.602716 
L 295.70719 119.305956 
L 297.33862 117.140512 
L 298.97005 117.204519 
L 300.60148 116.006398 
L 302.23291 115.595148 
L 305.49577 119.223149 
L 307.1272 117.777385 
L 308.75863 117.54085 
L 310.390059 117.119452 
L 312.021489 117.342861 
L 313.652919 117.870478 
L 315.284349 116.026563 
L 316.915779 115.285272 
L 320.178639 118.70037 
L 321.810069 116.897533 
L 323.441498 116.966528 
L 325.072928 115.708444 
L 326.704358 116.070784 
L 328.335788 117.021574 
L 329.967218 116.105602 
L 331.598648 117.345257 
L 333.230078 114.497691 
L 334.861508 117.230459 
L 336.492937 119.621178 
L 338.124367 116.197764 
L 339.755797 115.94857 
L 341.387227 117.709849 
L 343.018657 117.181973 
L 344.650087 118.228141 
L 347.912947 117.338397 
L 349.544376 115.130837 
L 351.175806 116.355335 
L 352.807236 115.740433 
L 354.438666 117.535625 
L 356.070096 116.076125 
L 357.701526 115.112066 
L 359.332956 115.426071 
L 360.964386 118.1768 
L 362.595815 118.495879 
L 364.227245 116.173112 
L 365.858675 114.745237 
L 367.490105 115.767275 
L 369.121535 116.11647 
L 372.384395 115.58726 
L 374.015825 117.435611 
L 375.647254 117.463554 
L 377.278684 118.023921 
L 378.910114 115.749854 
L 380.541544 117.023408 
L 382.172974 117.039913 
L 383.804404 116.700482 
L 385.435834 116.566595 
L 387.067264 118.184083 
L 388.698693 118.659933 
L 390.330123 118.353731 
L 391.961553 119.911344 
L 393.592983 119.214435 
L 395.224413 119.360451 
L 396.855843 115.065736 
L 398.487273 118.208971 
L 398.487273 118.208971 
" clip-path="url(#p26f0192dff)" style="fill: none; stroke-dasharray: 9.6,2.4,1.5,2.4; stroke-dashoffset: 0; stroke: #008000; stroke-width: 1.5"/>
   </g>
   <g id="line2d_23">
    <path d="M 73.832727 119.673631 
L 75.464157 130.93557 
L 77.095587 121.14974 
L 78.727017 101.623756 
L 80.358447 85.654781 
L 81.989877 103.053531 
L 83.621307 105.757493 
L 85.252736 108.86544 
L 86.884166 105.732082 
L 88.515596 106.927479 
L 90.147026 101.737148 
L 91.778456 103.083017 
L 93.409886 94.505161 
L 95.041316 94.55368 
L 96.672746 85.742225 
L 98.304175 91.956914 
L 99.935605 96.296154 
L 101.567035 95.188305 
L 103.198465 98.937956 
L 104.829895 92.974078 
L 106.461325 89.192999 
L 109.724185 100.101934 
L 111.355614 90.921728 
L 112.987044 93.030816 
L 114.618474 94.593576 
L 116.249904 89.68046 
L 117.881334 89.28913 
L 119.512764 90.212432 
L 121.144194 82.486278 
L 122.775624 96.022502 
L 124.407053 94.504545 
L 126.038483 82.608036 
L 127.669913 89.063342 
L 129.301343 82.85229 
L 130.932773 93.338472 
L 132.564203 76.617896 
L 134.195633 91.463163 
L 135.827063 81.797476 
L 137.458492 86.617823 
L 139.089922 86.830901 
L 140.721352 90.420956 
L 142.352782 74.833095 
L 143.984212 68.174344 
L 145.615642 81.701736 
L 147.247072 89.115589 
L 148.878502 70.668062 
L 150.509931 85.481099 
L 152.141361 85.275314 
L 153.772791 80.218806 
L 155.404221 94.381914 
L 157.035651 93.302258 
L 158.667081 89.377611 
L 160.298511 88.067425 
L 161.929941 61.563194 
L 163.56137 82.684075 
L 165.1928 89.523005 
L 166.82423 92.174984 
L 168.45566 90.949513 
L 170.08709 90.698319 
L 171.71852 91.742467 
L 173.34995 85.370259 
L 174.98138 84.468069 
L 176.61281 76.763323 
L 178.244239 90.322267 
L 179.875669 88.924321 
L 181.507099 92.55234 
L 183.138529 87.554721 
L 184.769959 87.723203 
L 186.401389 82.502928 
L 188.032819 89.469923 
L 189.664249 90.392166 
L 191.295678 87.960765 
L 192.927108 94.705713 
L 194.558538 83.720077 
L 196.189968 85.090268 
L 197.821398 88.425504 
L 199.452828 86.553205 
L 201.084258 86.526765 
L 202.715688 86.66107 
L 204.347117 83.299577 
L 205.978547 88.098282 
L 207.609977 91.596245 
L 209.241407 82.919042 
L 210.872837 83.954879 
L 212.504267 76.838229 
L 214.135697 84.047711 
L 215.767127 82.826319 
L 217.398556 92.785634 
L 219.029986 89.572425 
L 220.661416 86.650037 
L 222.292846 90.684852 
L 223.924276 86.97931 
L 225.555706 89.369534 
L 227.187136 76.669335 
L 228.818566 80.242402 
L 230.449995 82.807043 
L 232.081425 93.371285 
L 233.712855 83.110711 
L 235.344285 83.860211 
L 236.975715 78.716225 
L 238.607145 79.017699 
L 240.238575 79.623933 
L 241.870005 84.103691 
L 243.501434 90.736661 
L 245.132864 75.128098 
L 246.764294 80.616306 
L 248.395724 86.74788 
L 250.027154 84.116728 
L 251.658584 93.210824 
L 253.290014 84.976379 
L 254.921444 90.622976 
L 256.552873 81.431816 
L 258.184303 79.246324 
L 259.815733 75.157079 
L 261.447163 79.087985 
L 263.078593 86.814593 
L 264.710023 75.113851 
L 266.341453 54.94567 
L 267.972883 85.501513 
L 269.604312 97.346791 
L 271.235742 73.434154 
L 272.867172 94.235167 
L 274.498602 88.314916 
L 276.130032 79.658969 
L 277.761462 81.79962 
L 279.392892 93.078111 
L 281.024322 94.616706 
L 282.655751 93.112687 
L 284.287181 88.268657 
L 285.918611 83.877588 
L 287.550041 76.640273 
L 289.181471 75.405104 
L 290.812901 85.327687 
L 292.444331 86.814863 
L 294.075761 90.637861 
L 295.70719 79.642842 
L 297.33862 82.655918 
L 298.97005 64.655341 
L 300.60148 84.426463 
L 302.23291 85.622915 
L 303.86434 90.825222 
L 305.49577 91.6706 
L 307.1272 92.930088 
L 308.75863 76.637029 
L 310.390059 83.970937 
L 312.021489 95.815025 
L 313.652919 93.403671 
L 315.284349 89.262753 
L 316.915779 74.931565 
L 318.547209 53.568 
L 320.178639 81.239391 
L 321.810069 87.769456 
L 323.441498 88.000139 
L 325.072928 80.424274 
L 326.704358 90.255659 
L 328.335788 91.660239 
L 329.967218 84.401491 
L 331.598648 79.024638 
L 333.230078 69.394446 
L 334.861508 85.255139 
L 336.492937 77.831447 
L 338.124367 85.503963 
L 339.755797 79.059068 
L 341.387227 85.587601 
L 343.018657 88.02119 
L 344.650087 89.306806 
L 346.281517 95.928444 
L 347.912947 90.617394 
L 349.544376 70.494526 
L 351.175806 92.025529 
L 352.807236 64.970529 
L 354.438666 88.016982 
L 356.070096 81.461435 
L 357.701526 88.114361 
L 359.332956 68.566164 
L 360.964386 80.699397 
L 362.595815 88.011375 
L 364.227245 80.378145 
L 365.858675 74.07347 
L 367.490105 86.608549 
L 369.121535 87.816976 
L 370.752965 80.620362 
L 372.384395 85.277088 
L 374.015825 80.484856 
L 375.647254 82.677421 
L 377.278684 91.973977 
L 378.910114 81.526461 
L 380.541544 79.099134 
L 382.172974 80.326047 
L 383.804404 87.758897 
L 385.435834 76.50601 
L 387.067264 80.109061 
L 388.698693 92.0313 
L 390.330123 82.951014 
L 391.961553 85.468179 
L 393.592983 86.878286 
L 395.224413 93.31979 
L 396.855843 74.397879 
L 398.487273 88.38664 
L 398.487273 88.38664 
" clip-path="url(#p26f0192dff)" style="fill: none; stroke: #ff0000; stroke-width: 1.5; stroke-linecap: square"/>
   </g>
   <g id="patch_3">
    <path d="M 57.6 307.584 
L 57.6 41.472 
" style="fill: none; stroke: #000000; stroke-width: 0.8; stroke-linejoin: miter; stroke-linecap: square"/>
   </g>
   <g id="patch_4">
    <path d="M 414.72 307.584 
L 414.72 41.472 
" style="fill: none; stroke: #000000; stroke-width: 0.8; stroke-linejoin: miter; stroke-linecap: square"/>
   </g>
   <g id="patch_5">
    <path d="M 57.6 307.584 
L 414.72 307.584 
" style="fill: none; stroke: #000000; stroke-width: 0.8; stroke-linejoin: miter; stroke-linecap: square"/>
   </g>
   <g id="patch_6">
    <path d="M 57.6 41.472 
L 414.72 41.472 
" style="fill: none; stroke: #000000; stroke-width: 0.8; stroke-linejoin: miter; stroke-linecap: square"/>
   </g>
   <g id="text_13">
    <!-- Średnie i najlepsze przystosowanie w każdej generacji -->
    <g transform="translate(73.26 35.472) scale(0.12 -0.12)">
     <defs>
      <path id="DejaVuSans-15a" d="M 2236 5921 
L 2814 5921 
L 2102 5096 
L 1623 5096 
L 2236 5921 
z
M 3425 4513 
L 3425 3897 
Q 3066 4069 2747 4153 
Q 2428 4238 2131 4238 
Q 1616 4238 1336 4038 
Q 1056 3838 1056 3469 
Q 1056 3159 1242 3001 
Q 1428 2844 1947 2747 
L 2328 2669 
Q 3034 2534 3370 2195 
Q 3706 1856 3706 1288 
Q 3706 609 3251 259 
Q 2797 -91 1919 -91 
Q 1588 -91 1214 -16 
Q 841 59 441 206 
L 441 856 
Q 825 641 1194 531 
Q 1563 422 1919 422 
Q 2459 422 2753 634 
Q 3047 847 3047 1241 
Q 3047 1584 2836 1778 
Q 2625 1972 2144 2069 
L 1759 2144 
Q 1053 2284 737 2584 
Q 422 2884 422 3419 
Q 422 4038 858 4394 
Q 1294 4750 2059 4750 
Q 2388 4750 2728 4690 
Q 3069 4631 3425 4513 
z
" transform="scale(0.015625)"/>
      <path id="DejaVuSans-64" d="M 2906 2969 
L 2906 4863 
L 3481 4863 
L 3481 0 
L 2906 0 
L 2906 525 
Q 2725 213 2448 61 
Q 2172 -91 1784 -91 
Q 1150 -91 751 415 
Q 353 922 353 1747 
Q 353 2572 751 3078 
Q 1150 3584 1784 3584 
Q 2172 3584 2448 3432 
Q 2725 3281 2906 2969 
z
M 947 1747 
Q 947 1113 1208 752 
Q 1469 391 1925 391 
Q 2381 391 2643 752 
Q 2906 1113 2906 1747 
Q 2906 2381 2643 2742 
Q 2381 3103 1925 3103 
Q 1469 3103 1208 2742 
Q 947 2381 947 1747 
z
" transform="scale(0.015625)"/>
      <path id="DejaVuSans-20" transform="scale(0.015625)"/>
      <path id="DejaVuSans-6c" d="M 603 4863 
L 1178 4863 
L 1178 0 
L 603 0 
L 603 4863 
z
" transform="scale(0.015625)"/>
      <path id="DejaVuSans-70" d="M 1159 525 
L 1159 -1331 
L 581 -1331 
L 581 3500 
L 1159 3500 
L 1159 2969 
Q 1341 3281 1617 3432 
Q 1894 3584 2278 3584 
Q 2916 3584 3314 3078 
Q 3713 2572 3713 1747 
Q 3713 922 3314 415 
Q 2916 -91 2278 -91 
Q 1894 -91 1617 61 
Q 1341 213 1159 525 
z
M 3116 1747 
Q 3116 2381 2855 2742 
Q 2594 3103 2138 3103 
Q 1681 3103 1420 2742 
Q 1159 2381 1159 1747 
Q 1159 1113 1420 752 
Q 1681 391 2138 391 
Q 2594 391 2855 752 
Q 3116 1113 3116 1747 
z
" transform="scale(0.015625)"/>
      <path id="DejaVuSans-6b" d="M 581 4863 
L 1159 4863 
L 1159 1991 
L 2875 3500 
L 3609 3500 
L 1753 1863 
L 3688 0 
L 2938 0 
L 1159 1709 
L 1159 0 
L 581 0 
L 581 4863 
z
" transform="scale(0.015625)"/>
      <path id="DejaVuSans-17c" d="M 1378 4863 
L 1953 4863 
L 1953 4134 
L 1378 4134 
L 1378 4863 
z
M 1672 3584 
L 1672 3584 
z
M 353 3500 
L 3084 3500 
L 3084 2975 
L 922 459 
L 3084 459 
L 3084 0 
L 275 0 
L 275 525 
L 2438 3041 
L 353 3041 
L 353 3500 
z
" transform="scale(0.015625)"/>
      <path id="DejaVuSans-67" d="M 2906 1791 
Q 2906 2416 2648 2759 
Q 2391 3103 1925 3103 
Q 1463 3103 1205 2759 
Q 947 2416 947 1791 
Q 947 1169 1205 825 
Q 1463 481 1925 481 
Q 2391 481 2648 825 
Q 2906 1169 2906 1791 
z
M 3481 434 
Q 3481 -459 3084 -895 
Q 2688 -1331 1869 -1331 
Q 1566 -1331 1297 -1286 
Q 1028 -1241 775 -1147 
L 775 -588 
Q 1028 -725 1275 -790 
Q 1522 -856 1778 -856 
Q 2344 -856 2625 -561 
Q 2906 -266 2906 331 
L 2906 616 
Q 2728 306 2450 153 
Q 2172 0 1784 0 
Q 1141 0 747 490 
Q 353 981 353 1791 
Q 353 2603 747 3093 
Q 1141 3584 1784 3584 
Q 2172 3584 2450 3431 
Q 2728 3278 2906 2969 
L 2906 3500 
L 3481 3500 
L 3481 434 
z
" transform="scale(0.015625)"/>
     </defs>
     <use xlink:href="#DejaVuSans-15a"/>
     <use xlink:href="#DejaVuSans-72" transform="translate(63.476562 0)"/>
     <use xlink:href="#DejaVuSans-65" transform="translate(102.339844 0)"/>
     <use xlink:href="#DejaVuSans-64" transform="translate(163.863281 0)"/>
     <use xlink:href="#DejaVuSans-6e" transform="translate(227.339844 0)"/>
     <use xlink:href="#DejaVuSans-69" transform="translate(290.71875 0)"/>
     <use xlink:href="#DejaVuSans-65" transform="translate(318.501953 0)"/>
     <use xlink:href="#DejaVuSans-20" transform="translate(380.025391 0)"/>
     <use xlink:href="#DejaVuSans-69" transform="translate(411.8125 0)"/>
     <use xlink:href="#DejaVuSans-20" transform="translate(439.595703 0)"/>
     <use xlink:href="#DejaVuSans-6e" transform="translate(471.382812 0)"/>
     <use xlink:href="#DejaVuSans-61" transform="translate(534.761719 0)"/>
     <use xlink:href="#DejaVuSans-6a" transform="translate(596.041016 0)"/>
     <use xlink:href="#DejaVuSans-6c" transform="translate(623.824219 0)"/>
     <use xlink:href="#DejaVuSans-65" transform="translate(651.607422 0)"/>
     <use xlink:href="#DejaVuSans-70" transform="translate(713.130859 0)"/>
     <use xlink:href="#DejaVuSans-73" transform="translate(776.607422 0)"/>
     <use xlink:href="#DejaVuSans-7a" transform="translate(828.707031 0)"/>
     <use xlink:href="#DejaVuSans-65" transform="translate(881.197266 0)"/>
     <use xlink:href="#DejaVuSans-20" transform="translate(942.720703 0)"/>
     <use xlink:href="#DejaVuSans-70" transform="translate(974.507812 0)"/>
     <use xlink:href="#DejaVuSans-72" transform="translate(1037.984375 0)"/>
     <use xlink:href="#DejaVuSans-7a" transform="translate(1079.097656 0)"/>
     <use xlink:href="#DejaVuSans-79" transform="translate(1131.587891 0)"/>
     <use xlink:href="#DejaVuSans-73" transform="translate(1190.767578 0)"/>
     <use xlink:href="#DejaVuSans-74" transform="translate(1242.867188 0)"/>
     <use xlink:href="#DejaVuSans-6f" transform="translate(1282.076172 0)"/>
     <use xlink:href="#DejaVuSans-73" transform="translate(1343.257812 0)"/>
     <use xlink:href="#DejaVuSans-6f" transform="translate(1395.357422 0)"/>
     <use xlink:href="#DejaVuSans-77" transform="translate(1456.539062 0)"/>
     <use xlink:href="#DejaVuSans-61" transform="translate(1538.326172 0)"/>
     <use xlink:href="#DejaVuSans-6e" transform="translate(1599.605469 0)"/>
     <use xlink:href="#DejaVuSans-69" transform="translate(1662.984375 0)"/>
     <use xlink:href="#DejaVuSans-65" transform="translate(1690.767578 0)"/>
     <use xlink:href="#DejaVuSans-20" transform="translate(1752.291016 0)"/>
     <use xlink:href="#DejaVuSans-77" transform="translate(1784.078125 0)"/>
     <use xlink:href="#DejaVuSans-20" transform="translate(1865.865234 0)"/>
     <use xlink:href="#DejaVuSans-6b" transform="translate(1897.652344 0)"/>
     <use xlink:href="#DejaVuSans-61" transform="translate(1953.8125 0)"/>
     <use xlink:href="#DejaVuSans-17c" transform="translate(2015.091797 0)"/>
     <use xlink:href="#DejaVuSans-64" transform="translate(2067.582031 0)"/>
     <use xlink:href="#DejaVuSans-65" transform="translate(2131.058594 0)"/>
     <use xlink:href="#DejaVuSans-6a" transform="translate(2192.582031 0)"/>
     <use xlink:href="#DejaVuSans-20" transform="translate(2220.365234 0)"/>
     <use xlink:href="#DejaVuSans-67" transform="translate(2252.152344 0)"/>
     <use xlink:href="#DejaVuSans-65" transform="translate(2315.628906 0)"/>
     <use xlink:href="#DejaVuSans-6e" transform="translate(2377.152344 0)"/>
     <use xlink:href="#DejaVuSans-65" transform="translate(2440.53125 0)"/>
     <use xlink:href="#DejaVuSans-72" transform="translate(2502.054688 0)"/>
     <use xlink:href="#DejaVuSans-61" transform="translate(2543.167969 0)"/>
     <use xlink:href="#DejaVuSans-63" transform="translate(2604.447266 0)"/>
     <use xlink:href="#DejaVuSans-6a" transform="translate(2659.427734 0)"/>
     <use xlink:href="#DejaVuSans-69" transform="translate(2687.210938 0)"/>
    </g>
   </g>
   <g id="legend_1">
    <g id="patch_7">
     <path d="M 279.790313 302.584 
L 407.72 302.584 
Q 409.72 302.584 409.72 300.584 
L 409.72 257.549625 
Q 409.72 255.549625 407.72 255.549625 
L 279.790313 255.549625 
Q 277.790313 255.549625 277.790313 257.549625 
L 277.790313 300.584 
Q 277.790313 302.584 279.790313 302.584 
z
" style="fill: #ffffff; opacity: 0.8; stroke: #cccccc; stroke-linejoin: miter"/>
    </g>
    <g id="line2d_24">
     <path d="M 281.790313 263.648062 
L 291.790313 263.648062 
L 301.790313 263.648062 
" style="fill: none; stroke: #0000ff; stroke-width: 1.5; stroke-linecap: square"/>
    </g>
    <g id="text_14">
     <!-- Średnia -->
     <g transform="translate(309.790313 267.148062) scale(0.1 -0.1)">
      <use xlink:href="#DejaVuSans-15a"/>
      <use xlink:href="#DejaVuSans-72" transform="translate(63.476562 0)"/>
      <use xlink:href="#DejaVuSans-65" transform="translate(102.339844 0)"/>
      <use xlink:href="#DejaVuSans-64" transform="translate(163.863281 0)"/>
      <use xlink:href="#DejaVuSans-6e" transform="translate(227.339844 0)"/>
      <use xlink:href="#DejaVuSans-69" transform="translate(290.71875 0)"/>
      <use xlink:href="#DejaVuSans-61" transform="translate(318.501953 0)"/>
     </g>
    </g>
    <g id="line2d_25">
     <path d="M 281.790313 278.326188 
L 291.790313 278.326188 
L 301.790313 278.326188 
" style="fill: none; stroke-dasharray: 9.6,2.4,1.5,2.4; stroke-dashoffset: 0; stroke: #008000; stroke-width: 1.5"/>
    </g>
    <g id="text_15">
     <!-- ±1 Odchylenie std. -->
     <g transform="translate(309.790313 281.826188) scale(0.1 -0.1)">
      <defs>
       <path id="DejaVuSans-b1" d="M 2944 4013 
L 2944 2803 
L 4684 2803 
L 4684 2272 
L 2944 2272 
L 2944 1063 
L 2419 1063 
L 2419 2272 
L 678 2272 
L 678 2803 
L 2419 2803 
L 2419 4013 
L 2944 4013 
z
M 678 531 
L 4684 531 
L 4684 0 
L 678 0 
L 678 531 
z
" transform="scale(0.015625)"/>
       <path id="DejaVuSans-4f" d="M 2522 4238 
Q 1834 4238 1429 3725 
Q 1025 3213 1025 2328 
Q 1025 1447 1429 934 
Q 1834 422 2522 422 
Q 3209 422 3611 934 
Q 4013 1447 4013 2328 
Q 4013 3213 3611 3725 
Q 3209 4238 2522 4238 
z
M 2522 4750 
Q 3503 4750 4090 4092 
Q 4678 3434 4678 2328 
Q 4678 1225 4090 567 
Q 3503 -91 2522 -91 
Q 1538 -91 948 565 
Q 359 1222 359 2328 
Q 359 3434 948 4092 
Q 1538 4750 2522 4750 
z
" transform="scale(0.015625)"/>
       <path id="DejaVuSans-68" d="M 3513 2113 
L 3513 0 
L 2938 0 
L 2938 2094 
Q 2938 2591 2744 2837 
Q 2550 3084 2163 3084 
Q 1697 3084 1428 2787 
Q 1159 2491 1159 1978 
L 1159 0 
L 581 0 
L 581 4863 
L 1159 4863 
L 1159 2956 
Q 1366 3272 1645 3428 
Q 1925 3584 2291 3584 
Q 2894 3584 3203 3211 
Q 3513 2838 3513 2113 
z
" transform="scale(0.015625)"/>
       <path id="DejaVuSans-2e" d="M 684 794 
L 1344 794 
L 1344 0 
L 684 0 
L 684 794 
z
" transform="scale(0.015625)"/>
      </defs>
      <use xlink:href="#DejaVuSans-b1"/>
      <use xlink:href="#DejaVuSans-31" transform="translate(83.789062 0)"/>
      <use xlink:href="#DejaVuSans-20" transform="translate(147.412109 0)"/>
      <use xlink:href="#DejaVuSans-4f" transform="translate(179.199219 0)"/>
      <use xlink:href="#DejaVuSans-64" transform="translate(257.910156 0)"/>
      <use xlink:href="#DejaVuSans-63" transform="translate(321.386719 0)"/>
      <use xlink:href="#DejaVuSans-68" transform="translate(376.367188 0)"/>
      <use xlink:href="#DejaVuSans-79" transform="translate(439.746094 0)"/>
      <use xlink:href="#DejaVuSans-6c" transform="translate(498.925781 0)"/>
      <use xlink:href="#DejaVuSans-65" transform="translate(526.708984 0)"/>
      <use xlink:href="#DejaVuSans-6e" transform="translate(588.232422 0)"/>
      <use xlink:href="#DejaVuSans-69" transform="translate(651.611328 0)"/>
      <use xlink:href="#DejaVuSans-65" transform="translate(679.394531 0)"/>
      <use xlink:href="#DejaVuSans-20" transform="translate(740.917969 0)"/>
      <use xlink:href="#DejaVuSans-73" transform="translate(772.705078 0)"/>
      <use xlink:href="#DejaVuSans-74" transform="translate(824.804688 0)"/>
      <use xlink:href="#DejaVuSans-64" transform="translate(864.013672 0)"/>
      <use xlink:href="#DejaVuSans-2e" transform="translate(927.490234 0)"/>
     </g>
    </g>
    <g id="line2d_26">
     <path d="M 281.790313 293.004312 
L 291.790313 293.004312 
L 301.790313 293.004312 
" style="fill: none; stroke: #ff0000; stroke-width: 1.5; stroke-linecap: square"/>
    </g>
    <g id="text_16">
     <!-- Najlepsze -->
     <g transform="translate(309.790313 296.504312) scale(0.1 -0.1)">
      <defs>
       <path id="DejaVuSans-4e" d="M 628 4666 
L 1478 4666 
L 3547 763 
L 3547 4666 
L 4159 4666 
L 4159 0 
L 3309 0 
L 1241 3903 
L 1241 0 
L 628 0 
L 628 4666 
z
" transform="scale(0.015625)"/>
      </defs>
      <use xlink:href="#DejaVuSans-4e"/>
      <use xlink:href="#DejaVuSans-61" transform="translate(74.804688 0)"/>
      <use xlink:href="#DejaVuSans-6a" transform="translate(136.083984 0)"/>
      <use xlink:href="#DejaVuSans-6c" transform="translate(163.867188 0)"/>
      <use xlink:href="#DejaVuSans-65" transform="translate(191.650391 0)"/>
      <use xlink:href="#DejaVuSans-70" transform="translate(253.173828 0)"/>
      <use xlink:href="#DejaVuSans-73" transform="translate(316.650391 0)"/>
      <use xlink:href="#DejaVuSans-7a" transform="translate(368.75 0)"/>
      <use xlink:href="#DejaVuSans-65" transform="translate(421.240234 0)"/>
     </g>
    </g>
   </g>
  </g>
 </g>
 <defs>
  <clipPath id="p26f0192dff">
   <rect x="57.6" y="41.472" width="357.12" height="266.112"/>
  </clipPath>
 </defs>
</svg>
