<?xml version="1.0" encoding="utf-8" standalone="no"?>
<!DOCTYPE svg PUBLIC "-//W3C//DTD SVG 1.1//EN"
  "http://www.w3.org/Graphics/SVG/1.1/DTD/svg11.dtd">
<svg xmlns:xlink="http://www.w3.org/1999/xlink" width="460.8pt" height="345.6pt" viewBox="0 0 460.8 345.6" xmlns="http://www.w3.org/2000/svg" version="1.1">
 <metadata>
  <rdf:RDF xmlns:dc="http://purl.org/dc/elements/1.1/" xmlns:cc="http://creativecommons.org/ns#" xmlns:rdf="http://www.w3.org/1999/02/22-rdf-syntax-ns#">
   <cc:Work>
    <dc:type rdf:resource="http://purl.org/dc/dcmitype/StillImage"/>
    <dc:date>2026-04-26T18:50:51.034395</dc:date>
    <dc:format>image/svg+xml</dc:format>
    <dc:creator>
     <cc:Agent>
      <dc:title>Matplotlib v3.10.8, https://matplotlib.org/</dc:title>
     </cc:Agent>
    </dc:creator>
   </cc:Work>
  </rdf:RDF>
 </metadata>
 <defs>
  <style type="text/css">*{stroke-linejoin: round; stroke-linecap: butt}</style>
 </defs>
 <g id="figure_1">
  <g id="patch_1">
   <path d="M 0 345.6 
L 460.8 345.6 
L 460.8 0 
L 0 0 
z
" style="fill: #ffffff"/>
  </g>
  <g id="axes_1">
   <g id="patch_2">
    <path d="M 57.6 307.584 
L 414.72 307.584 
L 414.72 41.472 
L 57.6 41.472 
z
" style="fill: #ffffff"/>
   </g>
   <g id="matplotlib.axis_1">
    <g id="xtick_1">
     <g id="line2d_1">
      <path d="M 72.201297 307.584 
L 72.201297 41.472 
" clip-path="url(#p1343dad295)" style="fill: none; stroke: #b0b0b0; stroke-width: 0.8; stroke-linecap: square"/>
     </g>
     <g id="line2d_2">
      <defs>
       <path id="m68f10c9cc6" d="M 0 0 
L 0 3.5 
" style="stroke: #000000; stroke-width: 0.8"/>
      </defs>
      <g>
       <use xlink:href="#m68f10c9cc6" x="72.201297" y="307.584" style="stroke: #000000; stroke-width: 0.8"/>
      </g>
     </g>
     <g id="text_1">
      <!-- 0 -->
      <g transform="translate(69.020047 322.182437) scale(0.1 -0.1)">
       <defs>
        <path id="DejaVuSans-30" d="M 2034 4250 
Q 1547 4250 1301 3770 
Q 1056 3291 1056 2328 
Q 1056 1369 1301 889 
Q 1547 409 2034 409 
Q 2525 409 2770 889 
Q 3016 1369 3016 2328 
Q 3016 3291 2770 3770 
Q 2525 4250 2034 4250 
z
M 2034 4750 
Q 2819 4750 3233 4129 
Q 3647 3509 3647 2328 
Q 3647 1150 3233 529 
Q 2819 -91 2034 -91 
Q 1250 -91 836 529 
Q 422 1150 422 2328 
Q 422 3509 836 4129 
Q 1250 4750 2034 4750 
z
" transform="scale(0.015625)"/>
       </defs>
       <use xlink:href="#DejaVuSans-30"/>
      </g>
     </g>
    </g>
    <g id="xtick_2">
     <g id="line2d_3">
      <path d="M 112.987044 307.584 
L 112.987044 41.472 
" clip-path="url(#p1343dad295)" style="fill: none; stroke: #b0b0b0; stroke-width: 0.8; stroke-linecap: square"/>
     </g>
     <g id="line2d_4">
      <g>
       <use xlink:href="#m68f10c9cc6" x="112.987044" y="307.584" style="stroke: #000000; stroke-width: 0.8"/>
      </g>
     </g>
     <g id="text_2">
      <!-- 25 -->
      <g transform="translate(106.624544 322.182437) scale(0.1 -0.1)">
       <defs>
        <path id="DejaVuSans-32" d="M 1228 531 
L 3431 531 
L 3431 0 
L 469 0 
L 469 531 
Q 828 903 1448 1529 
Q 2069 2156 2228 2338 
Q 2531 2678 2651 2914 
Q 2772 3150 2772 3378 
Q 2772 3750 2511 3984 
Q 2250 4219 1831 4219 
Q 1534 4219 1204 4116 
Q 875 4013 500 3803 
L 500 4441 
Q 881 4594 1212 4672 
Q 1544 4750 1819 4750 
Q 2544 4750 2975 4387 
Q 3406 4025 3406 3419 
Q 3406 3131 3298 2873 
Q 3191 2616 2906 2266 
Q 2828 2175 2409 1742 
Q 1991 1309 1228 531 
z
" transform="scale(0.015625)"/>
        <path id="DejaVuSans-35" d="M 691 4666 
L 3169 4666 
L 3169 4134 
L 1269 4134 
L 1269 2991 
Q 1406 3038 1543 3061 
Q 1681 3084 1819 3084 
Q 2600 3084 3056 2656 
Q 3513 2228 3513 1497 
Q 3513 744 3044 326 
Q 2575 -91 1722 -91 
Q 1428 -91 1123 -41 
Q 819 9 494 109 
L 494 744 
Q 775 591 1075 516 
Q 1375 441 1709 441 
Q 2250 441 2565 725 
Q 2881 1009 2881 1497 
Q 2881 1984 2565 2268 
Q 2250 2553 1709 2553 
Q 1456 2553 1204 2497 
Q 953 2441 691 2322 
L 691 4666 
z
" transform="scale(0.015625)"/>
       </defs>
       <use xlink:href="#DejaVuSans-32"/>
       <use xlink:href="#DejaVuSans-35" transform="translate(63.623047 0)"/>
      </g>
     </g>
    </g>
    <g id="xtick_3">
     <g id="line2d_5">
      <path d="M 153.772791 307.584 
L 153.772791 41.472 
" clip-path="url(#p1343dad295)" style="fill: none; stroke: #b0b0b0; stroke-width: 0.8; stroke-linecap: square"/>
     </g>
     <g id="line2d_6">
      <g>
       <use xlink:href="#m68f10c9cc6" x="153.772791" y="307.584" style="stroke: #000000; stroke-width: 0.8"/>
      </g>
     </g>
     <g id="text_3">
      <!-- 50 -->
      <g transform="translate(147.410291 322.182437) scale(0.1 -0.1)">
       <use xlink:href="#DejaVuSans-35"/>
       <use xlink:href="#DejaVuSans-30" transform="translate(63.623047 0)"/>
      </g>
     </g>
    </g>
    <g id="xtick_4">
     <g id="line2d_7">
      <path d="M 194.558538 307.584 
L 194.558538 41.472 
" clip-path="url(#p1343dad295)" style="fill: none; stroke: #b0b0b0; stroke-width: 0.8; stroke-linecap: square"/>
     </g>
     <g id="line2d_8">
      <g>
       <use xlink:href="#m68f10c9cc6" x="194.558538" y="307.584" style="stroke: #000000; stroke-width: 0.8"/>
      </g>
     </g>
     <g id="text_4">
      <!-- 75 -->
      <g transform="translate(188.196038 322.182437) scale(0.1 -0.1)">
       <defs>
        <path id="DejaVuSans-37" d="M 525 4666 
L 3525 4666 
L 3525 4397 
L 1831 0 
L 1172 0 
L 2766 4134 
L 525 4134 
L 525 4666 
z
" transform="scale(0.015625)"/>
       </defs>
       <use xlink:href="#DejaVuSans-37"/>
       <use xlink:href="#DejaVuSans-35" transform="translate(63.623047 0)"/>
      </g>
     </g>
    </g>
    <g id="xtick_5">
     <g id="line2d_9">
      <path d="M 235.344285 307.584 
L 235.344285 41.472 
" clip-path="url(#p1343dad295)" style="fill: none; stroke: #b0b0b0; stroke-width: 0.8; stroke-linecap: square"/>
     </g>
     <g id="line2d_10">
      <g>
       <use xlink:href="#m68f10c9cc6" x="235.344285" y="307.584" style="stroke: #000000; stroke-width: 0.8"/>
      </g>
     </g>
     <g id="text_5">
      <!-- 100 -->
      <g transform="translate(225.800535 322.182437) scale(0.1 -0.1)">
       <defs>
        <path id="DejaVuSans-31" d="M 794 531 
L 1825 531 
L 1825 4091 
L 703 3866 
L 703 4441 
L 1819 4666 
L 2450 4666 
L 2450 531 
L 3481 531 
L 3481 0 
L 794 0 
L 794 531 
z
" transform="scale(0.015625)"/>
       </defs>
       <use xlink:href="#DejaVuSans-31"/>
       <use xlink:href="#DejaVuSans-30" transform="translate(63.623047 0)"/>
       <use xlink:href="#DejaVuSans-30" transform="translate(127.246094 0)"/>
      </g>
     </g>
    </g>
    <g id="xtick_6">
     <g id="line2d_11">
      <path d="M 276.130032 307.584 
L 276.130032 41.472 
" clip-path="url(#p1343dad295)" style="fill: none; stroke: #b0b0b0; stroke-width: 0.8; stroke-linecap: square"/>
     </g>
     <g id="line2d_12">
      <g>
       <use xlink:href="#m68f10c9cc6" x="276.130032" y="307.584" style="stroke: #000000; stroke-width: 0.8"/>
      </g>
     </g>
     <g id="text_6">
      <!-- 125 -->
      <g transform="translate(266.586282 322.182437) scale(0.1 -0.1)">
       <use xlink:href="#DejaVuSans-31"/>
       <use xlink:href="#DejaVuSans-32" transform="translate(63.623047 0)"/>
       <use xlink:href="#DejaVuSans-35" transform="translate(127.246094 0)"/>
      </g>
     </g>
    </g>
    <g id="xtick_7">
     <g id="line2d_13">
      <path d="M 316.915779 307.584 
L 316.915779 41.472 
" clip-path="url(#p1343dad295)" style="fill: none; stroke: #b0b0b0; stroke-width: 0.8; stroke-linecap: square"/>
     </g>
     <g id="line2d_14">
      <g>
       <use xlink:href="#m68f10c9cc6" x="316.915779" y="307.584" style="stroke: #000000; stroke-width: 0.8"/>
      </g>
     </g>
     <g id="text_7">
      <!-- 150 -->
      <g transform="translate(307.372029 322.182437) scale(0.1 -0.1)">
       <use xlink:href="#DejaVuSans-31"/>
       <use xlink:href="#DejaVuSans-35" transform="translate(63.623047 0)"/>
       <use xlink:href="#DejaVuSans-30" transform="translate(127.246094 0)"/>
      </g>
     </g>
    </g>
    <g id="xtick_8">
     <g id="line2d_15">
      <path d="M 357.701526 307.584 
L 357.701526 41.472 
" clip-path="url(#p1343dad295)" style="fill: none; stroke: #b0b0b0; stroke-width: 0.8; stroke-linecap: square"/>
     </g>
     <g id="line2d_16">
      <g>
       <use xlink:href="#m68f10c9cc6" x="357.701526" y="307.584" style="stroke: #000000; stroke-width: 0.8"/>
      </g>
     </g>
     <g id="text_8">
      <!-- 175 -->
      <g transform="translate(348.157776 322.182437) scale(0.1 -0.1)">
       <use xlink:href="#DejaVuSans-31"/>
       <use xlink:href="#DejaVuSans-37" transform="translate(63.623047 0)"/>
       <use xlink:href="#DejaVuSans-35" transform="translate(127.246094 0)"/>
      </g>
     </g>
    </g>
    <g id="xtick_9">
     <g id="line2d_17">
      <path d="M 398.487273 307.584 
L 398.487273 41.472 
" clip-path="url(#p1343dad295)" style="fill: none; stroke: #b0b0b0; stroke-width: 0.8; stroke-linecap: square"/>
     </g>
     <g id="line2d_18">
      <g>
       <use xlink:href="#m68f10c9cc6" x="398.487273" y="307.584" style="stroke: #000000; stroke-width: 0.8"/>
      </g>
     </g>
     <g id="text_9">
      <!-- 200 -->
      <g transform="translate(388.943523 322.182437) scale(0.1 -0.1)">
       <use xlink:href="#DejaVuSans-32"/>
       <use xlink:href="#DejaVuSans-30" transform="translate(63.623047 0)"/>
       <use xlink:href="#DejaVuSans-30" transform="translate(127.246094 0)"/>
      </g>
     </g>
    </g>
    <g id="text_10">
     <!-- Generacje -->
     <g transform="translate(210.629531 335.860562) scale(0.1 -0.1)">
      <defs>
       <path id="DejaVuSans-47" d="M 3809 666 
L 3809 1919 
L 2778 1919 
L 2778 2438 
L 4434 2438 
L 4434 434 
Q 4069 175 3628 42 
Q 3188 -91 2688 -91 
Q 1594 -91 976 548 
Q 359 1188 359 2328 
Q 359 3472 976 4111 
Q 1594 4750 2688 4750 
Q 3144 4750 3555 4637 
Q 3966 4525 4313 4306 
L 4313 3634 
Q 3963 3931 3569 4081 
Q 3175 4231 2741 4231 
Q 1884 4231 1454 3753 
Q 1025 3275 1025 2328 
Q 1025 1384 1454 906 
Q 1884 428 2741 428 
Q 3075 428 3337 486 
Q 3600 544 3809 666 
z
" transform="scale(0.015625)"/>
       <path id="DejaVuSans-65" d="M 3597 1894 
L 3597 1613 
L 953 1613 
Q 991 1019 1311 708 
Q 1631 397 2203 397 
Q 2534 397 2845 478 
Q 3156 559 3463 722 
L 3463 178 
Q 3153 47 2828 -22 
Q 2503 -91 2169 -91 
Q 1331 -91 842 396 
Q 353 884 353 1716 
Q 353 2575 817 3079 
Q 1281 3584 2069 3584 
Q 2775 3584 3186 3129 
Q 3597 2675 3597 1894 
z
M 3022 2063 
Q 3016 2534 2758 2815 
Q 2500 3097 2075 3097 
Q 1594 3097 1305 2825 
Q 1016 2553 972 2059 
L 3022 2063 
z
" transform="scale(0.015625)"/>
       <path id="DejaVuSans-6e" d="M 3513 2113 
L 3513 0 
L 2938 0 
L 2938 2094 
Q 2938 2591 2744 2837 
Q 2550 3084 2163 3084 
Q 1697 3084 1428 2787 
Q 1159 2491 1159 1978 
L 1159 0 
L 581 0 
L 581 3500 
L 1159 3500 
L 1159 2956 
Q 1366 3272 1645 3428 
Q 1925 3584 2291 3584 
Q 2894 3584 3203 3211 
Q 3513 2838 3513 2113 
z
" transform="scale(0.015625)"/>
       <path id="DejaVuSans-72" d="M 2631 2963 
Q 2534 3019 2420 3045 
Q 2306 3072 2169 3072 
Q 1681 3072 1420 2755 
Q 1159 2438 1159 1844 
L 1159 0 
L 581 0 
L 581 3500 
L 1159 3500 
L 1159 2956 
Q 1341 3275 1631 3429 
Q 1922 3584 2338 3584 
Q 2397 3584 2469 3576 
Q 2541 3569 2628 3553 
L 2631 2963 
z
" transform="scale(0.015625)"/>
       <path id="DejaVuSans-61" d="M 2194 1759 
Q 1497 1759 1228 1600 
Q 959 1441 959 1056 
Q 959 750 1161 570 
Q 1363 391 1709 391 
Q 2188 391 2477 730 
Q 2766 1069 2766 1631 
L 2766 1759 
L 2194 1759 
z
M 3341 1997 
L 3341 0 
L 2766 0 
L 2766 531 
Q 2569 213 2275 61 
Q 1981 -91 1556 -91 
Q 1019 -91 701 211 
Q 384 513 384 1019 
Q 384 1609 779 1909 
Q 1175 2209 1959 2209 
L 2766 2209 
L 2766 2266 
Q 2766 2663 2505 2880 
Q 2244 3097 1772 3097 
Q 1472 3097 1187 3025 
Q 903 2953 641 2809 
L 641 3341 
Q 956 3463 1253 3523 
Q 1550 3584 1831 3584 
Q 2591 3584 2966 3190 
Q 3341 2797 3341 1997 
z
" transform="scale(0.015625)"/>
       <path id="DejaVuSans-63" d="M 3122 3366 
L 3122 2828 
Q 2878 2963 2633 3030 
Q 2388 3097 2138 3097 
Q 1578 3097 1268 2742 
Q 959 2388 959 1747 
Q 959 1106 1268 751 
Q 1578 397 2138 397 
Q 2388 397 2633 464 
Q 2878 531 3122 666 
L 3122 134 
Q 2881 22 2623 -34 
Q 2366 -91 2075 -91 
Q 1284 -91 818 406 
Q 353 903 353 1747 
Q 353 2603 823 3093 
Q 1294 3584 2113 3584 
Q 2378 3584 2631 3529 
Q 2884 3475 3122 3366 
z
" transform="scale(0.015625)"/>
       <path id="DejaVuSans-6a" d="M 603 3500 
L 1178 3500 
L 1178 -63 
Q 1178 -731 923 -1031 
Q 669 -1331 103 -1331 
L -116 -1331 
L -116 -844 
L 38 -844 
Q 366 -844 484 -692 
Q 603 -541 603 -63 
L 603 3500 
z
M 603 4863 
L 1178 4863 
L 1178 4134 
L 603 4134 
L 603 4863 
z
" transform="scale(0.015625)"/>
      </defs>
      <use xlink:href="#DejaVuSans-47"/>
      <use xlink:href="#DejaVuSans-65" transform="translate(77.490234 0)"/>
      <use xlink:href="#DejaVuSans-6e" transform="translate(139.013672 0)"/>
      <use xlink:href="#DejaVuSans-65" transform="translate(202.392578 0)"/>
      <use xlink:href="#DejaVuSans-72" transform="translate(263.916016 0)"/>
      <use xlink:href="#DejaVuSans-61" transform="translate(305.029297 0)"/>
      <use xlink:href="#DejaVuSans-63" transform="translate(366.308594 0)"/>
      <use xlink:href="#DejaVuSans-6a" transform="translate(421.289062 0)"/>
      <use xlink:href="#DejaVuSans-65" transform="translate(449.072266 0)"/>
     </g>
    </g>
   </g>
   <g id="matplotlib.axis_2">
    <g id="ytick_1">
     <g id="line2d_19">
      <path d="M 57.6 122.065296 
L 414.72 122.065296 
" clip-path="url(#p1343dad295)" style="fill: none; stroke: #b0b0b0; stroke-width: 0.8; stroke-linecap: square"/>
     </g>
     <g id="line2d_20">
      <defs>
       <path id="m70027f8370" d="M 0 0 
L -3.5 0 
" style="stroke: #000000; stroke-width: 0.8"/>
      </defs>
      <g>
       <use xlink:href="#m70027f8370" x="57.6" y="122.065296" style="stroke: #000000; stroke-width: 0.8"/>
      </g>
     </g>
     <g id="text_11">
      <!-- $\mathdefault{10^{2}}$ -->
      <g transform="translate(33 125.864515) scale(0.1 -0.1)">
       <use xlink:href="#DejaVuSans-31" transform="translate(0 0.765625)"/>
       <use xlink:href="#DejaVuSans-30" transform="translate(63.623047 0.765625)"/>
       <use xlink:href="#DejaVuSans-32" transform="translate(128.203125 39.046875) scale(0.7)"/>
      </g>
     </g>
    </g>
    <g id="text_12">
     <!-- Przystosowanie -->
     <g transform="translate(26.920312 213.170187) rotate(-90) scale(0.1 -0.1)">
      <defs>
       <path id="DejaVuSans-50" d="M 1259 4147 
L 1259 2394 
L 2053 2394 
Q 2494 2394 2734 2622 
Q 2975 2850 2975 3272 
Q 2975 3691 2734 3919 
Q 2494 4147 2053 4147 
L 1259 4147 
z
M 628 4666 
L 2053 4666 
Q 2838 4666 3239 4311 
Q 3641 3956 3641 3272 
Q 3641 2581 3239 2228 
Q 2838 1875 2053 1875 
L 1259 1875 
L 1259 0 
L 628 0 
L 628 4666 
z
" transform="scale(0.015625)"/>
       <path id="DejaVuSans-7a" d="M 353 3500 
L 3084 3500 
L 3084 2975 
L 922 459 
L 3084 459 
L 3084 0 
L 275 0 
L 275 525 
L 2438 3041 
L 353 3041 
L 353 3500 
z
" transform="scale(0.015625)"/>
       <path id="DejaVuSans-79" d="M 2059 -325 
Q 1816 -950 1584 -1140 
Q 1353 -1331 966 -1331 
L 506 -1331 
L 506 -850 
L 844 -850 
Q 1081 -850 1212 -737 
Q 1344 -625 1503 -206 
L 1606 56 
L 191 3500 
L 800 3500 
L 1894 763 
L 2988 3500 
L 3597 3500 
L 2059 -325 
z
" transform="scale(0.015625)"/>
       <path id="DejaVuSans-73" d="M 2834 3397 
L 2834 2853 
Q 2591 2978 2328 3040 
Q 2066 3103 1784 3103 
Q 1356 3103 1142 2972 
Q 928 2841 928 2578 
Q 928 2378 1081 2264 
Q 1234 2150 1697 2047 
L 1894 2003 
Q 2506 1872 2764 1633 
Q 3022 1394 3022 966 
Q 3022 478 2636 193 
Q 2250 -91 1575 -91 
Q 1294 -91 989 -36 
Q 684 19 347 128 
L 347 722 
Q 666 556 975 473 
Q 1284 391 1588 391 
Q 1994 391 2212 530 
Q 2431 669 2431 922 
Q 2431 1156 2273 1281 
Q 2116 1406 1581 1522 
L 1381 1569 
Q 847 1681 609 1914 
Q 372 2147 372 2553 
Q 372 3047 722 3315 
Q 1072 3584 1716 3584 
Q 2034 3584 2315 3537 
Q 2597 3491 2834 3397 
z
" transform="scale(0.015625)"/>
       <path id="DejaVuSans-74" d="M 1172 4494 
L 1172 3500 
L 2356 3500 
L 2356 3053 
L 1172 3053 
L 1172 1153 
Q 1172 725 1289 603 
Q 1406 481 1766 481 
L 2356 481 
L 2356 0 
L 1766 0 
Q 1100 0 847 248 
Q 594 497 594 1153 
L 594 3053 
L 172 3053 
L 172 3500 
L 594 3500 
L 594 4494 
L 1172 4494 
z
" transform="scale(0.015625)"/>
       <path id="DejaVuSans-6f" d="M 1959 3097 
Q 1497 3097 1228 2736 
Q 959 2375 959 1747 
Q 959 1119 1226 758 
Q 1494 397 1959 397 
Q 2419 397 2687 759 
Q 2956 1122 2956 1747 
Q 2956 2369 2687 2733 
Q 2419 3097 1959 3097 
z
M 1959 3584 
Q 2709 3584 3137 3096 
Q 3566 2609 3566 1747 
Q 3566 888 3137 398 
Q 2709 -91 1959 -91 
Q 1206 -91 779 398 
Q 353 888 353 1747 
Q 353 2609 779 3096 
Q 1206 3584 1959 3584 
z
" transform="scale(0.015625)"/>
       <path id="DejaVuSans-77" d="M 269 3500 
L 844 3500 
L 1563 769 
L 2278 3500 
L 2956 3500 
L 3675 769 
L 4391 3500 
L 4966 3500 
L 4050 0 
L 3372 0 
L 2619 2869 
L 1863 0 
L 1184 0 
L 269 3500 
z
" transform="scale(0.015625)"/>
       <path id="DejaVuSans-69" d="M 603 3500 
L 1178 3500 
L 1178 0 
L 603 0 
L 603 3500 
z
M 603 4863 
L 1178 4863 
L 1178 4134 
L 603 4134 
L 603 4863 
z
" transform="scale(0.015625)"/>
      </defs>
      <use xlink:href="#DejaVuSans-50"/>
      <use xlink:href="#DejaVuSans-72" transform="translate(58.552734 0)"/>
      <use xlink:href="#DejaVuSans-7a" transform="translate(99.666016 0)"/>
      <use xlink:href="#DejaVuSans-79" transform="translate(152.15625 0)"/>
      <use xlink:href="#DejaVuSans-73" transform="translate(211.335938 0)"/>
      <use xlink:href="#DejaVuSans-74" transform="translate(263.435547 0)"/>
      <use xlink:href="#DejaVuSans-6f" transform="translate(302.644531 0)"/>
      <use xlink:href="#DejaVuSans-73" transform="translate(363.826172 0)"/>
      <use xlink:href="#DejaVuSans-6f" transform="translate(415.925781 0)"/>
      <use xlink:href="#DejaVuSans-77" transform="translate(477.107422 0)"/>
      <use xlink:href="#DejaVuSans-61" transform="translate(558.894531 0)"/>
      <use xlink:href="#DejaVuSans-6e" transform="translate(620.173828 0)"/>
      <use xlink:href="#DejaVuSans-69" transform="translate(683.552734 0)"/>
      <use xlink:href="#DejaVuSans-65" transform="translate(711.335938 0)"/>
     </g>
    </g>
   </g>
   <g id="line2d_21">
    <path d="M 73.832727 295.488 
L 75.464157 254.983381 
L 77.095587 206.854454 
L 78.727017 184.837436 
L 80.358447 171.222415 
L 81.989877 169.016502 
L 83.621307 158.661604 
L 85.252736 159.592882 
L 86.884166 159.795192 
L 88.515596 166.527778 
L 90.147026 165.737703 
L 91.778456 154.725202 
L 93.409886 154.339351 
L 95.041316 149.233256 
L 96.672746 145.679125 
L 99.935605 143.817038 
L 103.198465 145.36863 
L 104.829895 145.393719 
L 106.461325 144.165284 
L 108.092755 143.179291 
L 109.724185 141.6628 
L 111.355614 140.979981 
L 112.987044 141.628122 
L 114.618474 142.017444 
L 116.249904 143.075548 
L 117.881334 139.6767 
L 119.512764 140.283979 
L 121.144194 139.985463 
L 122.775624 140.988847 
L 124.407053 140.493996 
L 126.038483 141.23519 
L 127.669913 140.380353 
L 129.301343 137.777325 
L 130.932773 139.672614 
L 132.564203 140.142461 
L 135.827063 138.759113 
L 137.458492 139.989429 
L 139.089922 138.748152 
L 140.721352 139.074717 
L 142.352782 138.561079 
L 143.984212 140.272136 
L 145.615642 137.322749 
L 147.247072 137.633856 
L 148.878502 141.822439 
L 150.509931 138.354153 
L 152.141361 138.739167 
L 153.772791 138.054112 
L 155.404221 138.654724 
L 157.035651 137.818292 
L 158.667081 137.722529 
L 160.298511 137.818645 
L 161.929941 137.332053 
L 163.56137 137.538004 
L 165.1928 136.644865 
L 166.82423 136.692414 
L 168.45566 136.982651 
L 170.08709 136.498315 
L 171.71852 137.598417 
L 173.34995 136.486334 
L 174.98138 137.743734 
L 176.61281 135.586996 
L 178.244239 137.012428 
L 179.875669 136.483947 
L 181.507099 137.179437 
L 183.138529 136.963216 
L 184.769959 136.129703 
L 186.401389 139.815014 
L 188.032819 137.370044 
L 189.664249 138.129362 
L 191.295678 137.405449 
L 192.927108 135.4931 
L 194.558538 136.757293 
L 196.189968 135.643729 
L 197.821398 138.224229 
L 199.452828 135.843685 
L 201.084258 135.914061 
L 204.347117 135.39442 
L 205.978547 134.669602 
L 207.609977 135.982074 
L 209.241407 136.934387 
L 210.872837 135.384092 
L 212.504267 135.195946 
L 214.135697 136.820239 
L 215.767127 137.214396 
L 217.398556 135.27149 
L 219.029986 136.961416 
L 220.661416 135.870743 
L 222.292846 136.781499 
L 223.924276 137.166203 
L 225.555706 135.799374 
L 227.187136 137.839486 
L 228.818566 135.148287 
L 230.449995 137.610914 
L 232.081425 137.503628 
L 233.712855 136.221753 
L 235.344285 136.112612 
L 236.975715 134.165689 
L 238.607145 135.45814 
L 240.238575 136.319597 
L 241.870005 136.440131 
L 243.501434 135.73601 
L 245.132864 136.911719 
L 246.764294 135.625598 
L 248.395724 137.1744 
L 250.027154 136.889581 
L 251.658584 136.059145 
L 254.921444 137.725401 
L 256.552873 136.745366 
L 258.184303 135.89907 
L 259.815733 135.500611 
L 263.078593 136.341434 
L 264.710023 135.276989 
L 266.341453 134.580636 
L 267.972883 133.727084 
L 269.604312 136.452616 
L 271.235742 136.992622 
L 272.867172 137.244544 
L 274.498602 139.269398 
L 276.130032 135.502394 
L 279.392892 136.358975 
L 281.024322 135.133217 
L 282.655751 135.8331 
L 284.287181 135.285836 
L 285.918611 135.235483 
L 287.550041 133.969218 
L 289.181471 136.155466 
L 290.812901 136.38882 
L 292.444331 136.20659 
L 294.075761 135.66444 
L 295.70719 135.615337 
L 297.33862 134.868877 
L 298.97005 135.371181 
L 300.60148 134.469822 
L 302.23291 133.827844 
L 303.86434 134.169062 
L 305.49577 133.9064 
L 307.1272 135.357438 
L 308.75863 135.580284 
L 310.390059 135.444921 
L 312.021489 134.869708 
L 313.652919 137.638794 
L 315.284349 135.093898 
L 316.915779 136.069516 
L 318.547209 136.876022 
L 320.178639 136.012213 
L 321.810069 133.571525 
L 323.441498 135.33654 
L 325.072928 133.300938 
L 326.704358 134.792728 
L 328.335788 135.782753 
L 329.967218 134.781779 
L 331.598648 133.612605 
L 333.230078 132.688558 
L 334.861508 135.032473 
L 336.492937 133.774276 
L 338.124367 136.188425 
L 339.755797 134.033194 
L 341.387227 133.562606 
L 343.018657 134.098629 
L 344.650087 134.174504 
L 346.281517 135.193019 
L 347.912947 136.428258 
L 349.544376 135.532974 
L 351.175806 137.20681 
L 352.807236 134.739451 
L 354.438666 135.042463 
L 356.070096 134.64378 
L 357.701526 133.287538 
L 359.332956 133.97393 
L 360.964386 134.401601 
L 362.595815 135.620357 
L 364.227245 134.482591 
L 365.858675 134.907936 
L 367.490105 135.106792 
L 369.121535 134.718393 
L 370.752965 135.161346 
L 372.384395 133.300337 
L 374.015825 134.284356 
L 375.647254 132.692421 
L 377.278684 135.754468 
L 378.910114 133.980293 
L 380.541544 133.887156 
L 382.172974 133.535192 
L 383.804404 135.524959 
L 385.435834 134.587313 
L 387.067264 136.485514 
L 388.698693 133.597829 
L 390.330123 134.506617 
L 391.961553 132.622076 
L 393.592983 135.323917 
L 395.224413 132.061202 
L 396.855843 134.237664 
L 398.487273 134.335958 
L 398.487273 134.335958 
" clip-path="url(#p1343dad295)" style="fill: none; stroke: #0000ff; stroke-width: 1.5; stroke-linecap: square"/>
   </g>
   <g id="line2d_22">
    <path d="M 73.832727 243.117344 
L 75.464157 200.831368 
L 77.095587 162.569879 
L 78.727017 145.442832 
L 80.358447 132.121479 
L 81.989877 130.49476 
L 83.621307 125.01387 
L 85.252736 127.762845 
L 86.884166 132.275394 
L 88.515596 132.612424 
L 90.147026 134.31451 
L 91.778456 132.052821 
L 93.409886 132.742417 
L 95.041316 132.323349 
L 96.672746 128.119083 
L 98.304175 124.396728 
L 99.935605 127.096364 
L 101.567035 126.2742 
L 103.198465 126.658948 
L 104.829895 120.604613 
L 106.461325 129.143974 
L 108.092755 127.037944 
L 109.724185 124.414245 
L 111.355614 126.131078 
L 112.987044 124.418192 
L 114.618474 125.475633 
L 116.249904 125.854506 
L 117.881334 124.442679 
L 119.512764 124.073892 
L 121.144194 123.536646 
L 122.775624 124.224831 
L 124.407053 120.514084 
L 126.038483 125.288835 
L 127.669913 127.307101 
L 129.301343 122.594063 
L 130.932773 126.31387 
L 132.564203 125.587239 
L 134.195633 122.877458 
L 135.827063 124.942592 
L 137.458492 124.566395 
L 140.721352 123.00753 
L 142.352782 122.474906 
L 143.984212 123.712153 
L 145.615642 122.150673 
L 147.247072 121.964075 
L 148.878502 124.320785 
L 150.509931 122.693992 
L 152.141361 123.008875 
L 153.772791 124.274792 
L 155.404221 122.970108 
L 157.035651 122.265202 
L 158.667081 123.281906 
L 160.298511 121.558752 
L 161.929941 120.738815 
L 163.56137 124.155789 
L 165.1928 120.809746 
L 166.82423 121.573215 
L 168.45566 120.32735 
L 170.08709 119.735406 
L 171.71852 120.840265 
L 173.34995 119.360404 
L 174.98138 121.642908 
L 176.61281 119.861407 
L 178.244239 122.640045 
L 179.875669 121.379059 
L 181.507099 121.274993 
L 183.138529 120.572035 
L 184.769959 121.784882 
L 186.401389 125.672937 
L 188.032819 119.694705 
L 189.664249 118.899993 
L 191.295678 120.82409 
L 192.927108 117.543275 
L 194.558538 122.617396 
L 196.189968 120.177638 
L 197.821398 123.321439 
L 199.452828 120.090676 
L 201.084258 119.335172 
L 202.715688 119.731547 
L 205.978547 119.515422 
L 207.609977 120.543546 
L 209.241407 120.267367 
L 210.872837 118.701228 
L 212.504267 118.921741 
L 214.135697 121.168942 
L 215.767127 122.834295 
L 217.398556 119.214689 
L 219.029986 122.329233 
L 220.661416 120.516706 
L 222.292846 121.415916 
L 223.924276 120.409862 
L 225.555706 120.366334 
L 227.187136 121.389776 
L 228.818566 117.855594 
L 230.449995 122.2007 
L 232.081425 121.314938 
L 233.712855 120.973087 
L 235.344285 120.969559 
L 236.975715 118.966064 
L 238.607145 117.326388 
L 240.238575 119.432216 
L 241.870005 116.874203 
L 243.501434 119.901597 
L 245.132864 119.087607 
L 246.764294 118.435434 
L 248.395724 116.542766 
L 250.027154 115.567644 
L 251.658584 118.948216 
L 253.290014 116.958122 
L 254.921444 116.133042 
L 256.552873 117.206247 
L 258.184303 120.171859 
L 259.815733 118.942822 
L 261.447163 118.310267 
L 263.078593 120.887019 
L 264.710023 121.042767 
L 266.341453 118.913006 
L 267.972883 115.931164 
L 269.604312 121.443598 
L 271.235742 120.567144 
L 272.867172 119.969587 
L 274.498602 118.880734 
L 276.130032 119.783903 
L 277.761462 118.378903 
L 279.392892 116.303814 
L 281.024322 115.582926 
L 282.655751 119.024723 
L 284.287181 118.402123 
L 285.918611 119.163782 
L 287.550041 116.528817 
L 289.181471 120.450614 
L 290.812901 120.466657 
L 292.444331 120.341454 
L 294.075761 119.899223 
L 295.70719 118.642318 
L 297.33862 120.033205 
L 298.97005 117.724398 
L 300.60148 117.969585 
L 302.23291 118.745842 
L 303.86434 118.036666 
L 305.49577 116.939069 
L 308.75863 119.965783 
L 310.390059 118.402462 
L 312.021489 115.211943 
L 313.652919 119.64342 
L 315.284349 118.003591 
L 318.547209 120.761216 
L 320.178639 121.115071 
L 321.810069 115.3504 
L 323.441498 118.267268 
L 325.072928 115.503631 
L 326.704358 120.403904 
L 328.335788 120.670224 
L 329.967218 118.944592 
L 331.598648 116.32047 
L 333.230078 116.671586 
L 334.861508 118.828393 
L 336.492937 116.284268 
L 338.124367 119.260568 
L 339.755797 116.847544 
L 341.387227 117.16862 
L 343.018657 118.505477 
L 344.650087 117.278434 
L 346.281517 119.30766 
L 347.912947 120.003196 
L 349.544376 118.494885 
L 351.175806 120.87069 
L 352.807236 117.828516 
L 354.438666 118.330046 
L 356.070096 119.920422 
L 357.701526 117.794188 
L 359.332956 117.532513 
L 360.964386 118.26531 
L 362.595815 119.284609 
L 364.227245 117.645598 
L 365.858675 119.218068 
L 369.121535 118.339557 
L 370.752965 118.652211 
L 372.384395 116.642916 
L 374.015825 117.47121 
L 375.647254 116.749049 
L 377.278684 119.447974 
L 378.910114 117.528805 
L 380.541544 117.567352 
L 382.172974 116.428481 
L 383.804404 120.065421 
L 385.435834 118.226754 
L 387.067264 119.452486 
L 388.698693 117.742099 
L 390.330123 118.044967 
L 391.961553 115.99991 
L 393.592983 117.666737 
L 395.224413 113.008168 
L 396.855843 116.733605 
L 398.487273 118.430692 
L 398.487273 118.430692 
" clip-path="url(#p1343dad295)" style="fill: none; stroke-dasharray: 9.6,2.4,1.5,2.4; stroke-dashoffset: 0; stroke: #008000; stroke-width: 1.5"/>
   </g>
   <g id="line2d_23">
    <path d="M 73.832727 144.731243 
L 75.464157 132.481057 
L 77.095587 124.133425 
L 78.727017 117.415276 
L 80.358447 109.614285 
L 81.989877 94.998736 
L 83.621307 94.115017 
L 85.252736 95.740258 
L 86.884166 114.324277 
L 88.515596 99.977576 
L 90.147026 112.923109 
L 91.778456 102.652045 
L 93.409886 104.419494 
L 95.041316 114.524616 
L 96.672746 93.138233 
L 98.304175 82.389475 
L 99.935605 101.291632 
L 101.567035 92.937157 
L 103.198465 102.826551 
L 104.829895 102.41939 
L 106.461325 102.662561 
L 108.092755 95.377325 
L 109.724185 92.672624 
L 111.355614 97.201121 
L 112.987044 99.534536 
L 114.618474 97.061156 
L 116.249904 91.765012 
L 117.881334 94.232591 
L 119.512764 105.838592 
L 121.144194 95.607417 
L 122.775624 97.076531 
L 124.407053 82.435326 
L 126.038483 103.860312 
L 127.669913 101.251836 
L 129.301343 91.415889 
L 130.932773 105.779382 
L 132.564203 88.996481 
L 134.195633 96.810114 
L 135.827063 101.04275 
L 137.458492 90.280737 
L 139.089922 91.335579 
L 140.721352 82.291708 
L 142.352782 70.342261 
L 143.984212 88.934766 
L 145.615642 89.022597 
L 147.247072 87.408673 
L 148.878502 105.305758 
L 150.509931 95.535 
L 152.141361 97.208046 
L 153.772791 93.095447 
L 155.404221 86.404372 
L 157.035651 95.594028 
L 158.667081 93.909542 
L 160.298511 88.857642 
L 161.929941 85.389288 
L 163.56137 98.529617 
L 165.1928 84.834056 
L 166.82423 99.550049 
L 168.45566 91.602504 
L 170.08709 89.866745 
L 171.71852 88.60937 
L 173.34995 82.664502 
L 174.98138 99.895871 
L 176.61281 79.59732 
L 178.244239 72.356051 
L 179.875669 82.160157 
L 181.507099 80.017693 
L 183.138529 83.749197 
L 184.769959 94.386491 
L 186.401389 98.812405 
L 188.032819 79.776155 
L 189.664249 82.345466 
L 191.295678 91.579079 
L 192.927108 69.179522 
L 194.558538 102.289553 
L 196.189968 89.026861 
L 197.821398 85.377735 
L 199.452828 83.895795 
L 201.084258 90.302605 
L 202.715688 82.472159 
L 204.347117 91.662215 
L 205.978547 89.148894 
L 207.609977 80.224565 
L 209.241407 79.800952 
L 210.872837 80.858685 
L 212.504267 79.91907 
L 214.135697 84.995491 
L 215.767127 96.97027 
L 217.398556 95.456341 
L 219.029986 92.820552 
L 220.661416 81.350786 
L 222.292846 83.818847 
L 223.924276 90.403705 
L 225.555706 91.396268 
L 227.187136 81.008024 
L 228.818566 87.299334 
L 230.449995 93.101495 
L 232.081425 91.256481 
L 233.712855 90.416996 
L 235.344285 96.829983 
L 236.975715 82.244667 
L 238.607145 83.849797 
L 240.238575 90.35989 
L 241.870005 82.395317 
L 243.501434 81.096277 
L 245.132864 85.026379 
L 246.764294 93.962948 
L 248.395724 89.216824 
L 250.027154 87.411376 
L 251.658584 88.847746 
L 253.290014 74.846484 
L 254.921444 72.557768 
L 256.552873 74.914161 
L 258.184303 74.434597 
L 259.815733 80.00089 
L 261.447163 72.49101 
L 263.078593 94.124737 
L 264.710023 102.465302 
L 266.341453 73.709845 
L 267.972883 77.166476 
L 269.604312 88.720824 
L 271.235742 83.424969 
L 272.867172 82.527991 
L 274.498602 87.966303 
L 276.130032 92.821091 
L 277.761462 79.084641 
L 279.392892 76.035893 
L 281.024322 78.630279 
L 282.655751 89.184508 
L 284.287181 86.946078 
L 285.918611 91.992846 
L 287.550041 87.846432 
L 289.181471 75.179697 
L 290.812901 82.268116 
L 292.444331 88.187601 
L 294.075761 86.261962 
L 295.70719 75.126975 
L 297.33862 74.912011 
L 298.97005 77.471925 
L 300.60148 78.905145 
L 302.23291 89.186917 
L 303.86434 66.660892 
L 305.49577 87.860371 
L 307.1272 64.43898 
L 310.390059 85.978168 
L 312.021489 53.568 
L 313.652919 90.208739 
L 315.284349 96.78528 
L 316.915779 76.382377 
L 318.547209 83.676867 
L 320.178639 86.102971 
L 321.810069 75.038264 
L 323.441498 77.792676 
L 325.072928 74.078313 
L 326.704358 99.426089 
L 328.335788 76.313722 
L 329.967218 81.600048 
L 331.598648 71.07895 
L 333.230078 84.086233 
L 334.861508 84.73053 
L 336.492937 69.192957 
L 338.124367 85.265262 
L 339.755797 71.273097 
L 341.387227 77.473179 
L 343.018657 76.274066 
L 344.650087 77.126401 
L 346.281517 87.906678 
L 347.912947 86.442706 
L 351.175806 86.34825 
L 352.807236 75.099805 
L 354.438666 74.788441 
L 356.070096 99.54988 
L 357.701526 89.239138 
L 359.332956 76.75366 
L 360.964386 90.312858 
L 362.595815 86.410355 
L 364.227245 81.495992 
L 365.858675 95.434927 
L 367.490105 87.810701 
L 369.121535 76.232846 
L 370.752965 91.734071 
L 372.384395 81.565309 
L 374.015825 89.961166 
L 375.647254 78.440599 
L 377.278684 83.561216 
L 378.910114 86.349055 
L 380.541544 84.256657 
L 382.172974 85.090925 
L 383.804404 87.392422 
L 385.435834 85.12228 
L 387.067264 75.907294 
L 388.698693 84.602593 
L 390.330123 91.571496 
L 391.961553 65.905526 
L 393.592983 81.503434 
L 395.224413 63.383432 
L 396.855843 80.062384 
L 398.487273 86.673537 
L 398.487273 86.673537 
" clip-path="url(#p1343dad295)" style="fill: none; stroke: #ff0000; stroke-width: 1.5; stroke-linecap: square"/>
   </g>
   <g id="patch_3">
    <path d="M 57.6 307.584 
L 57.6 41.472 
" style="fill: none; stroke: #000000; stroke-width: 0.8; stroke-linejoin: miter; stroke-linecap: square"/>
   </g>
   <g id="patch_4">
    <path d="M 414.72 307.584 
L 414.72 41.472 
" style="fill: none; stroke: #000000; stroke-width: 0.8; stroke-linejoin: miter; stroke-linecap: square"/>
   </g>
   <g id="patch_5">
    <path d="M 57.6 307.584 
L 414.72 307.584 
" style="fill: none; stroke: #000000; stroke-width: 0.8; stroke-linejoin: miter; stroke-linecap: square"/>
   </g>
   <g id="patch_6">
    <path d="M 57.6 41.472 
L 414.72 41.472 
" style="fill: none; stroke: #000000; stroke-width: 0.8; stroke-linejoin: miter; stroke-linecap: square"/>
   </g>
   <g id="text_13">
    <!-- Średnie i najlepsze przystosowanie w każdej generacji -->
    <g transform="translate(73.26 35.472) scale(0.12 -0.12)">
     <defs>
      <path id="DejaVuSans-15a" d="M 2236 5921 
L 2814 5921 
L 2102 5096 
L 1623 5096 
L 2236 5921 
z
M 3425 4513 
L 3425 3897 
Q 3066 4069 2747 4153 
Q 2428 4238 2131 4238 
Q 1616 4238 1336 4038 
Q 1056 3838 1056 3469 
Q 1056 3159 1242 3001 
Q 1428 2844 1947 2747 
L 2328 2669 
Q 3034 2534 3370 2195 
Q 3706 1856 3706 1288 
Q 3706 609 3251 259 
Q 2797 -91 1919 -91 
Q 1588 -91 1214 -16 
Q 841 59 441 206 
L 441 856 
Q 825 641 1194 531 
Q 1563 422 1919 422 
Q 2459 422 2753 634 
Q 3047 847 3047 1241 
Q 3047 1584 2836 1778 
Q 2625 1972 2144 2069 
L 1759 2144 
Q 1053 2284 737 2584 
Q 422 2884 422 3419 
Q 422 4038 858 4394 
Q 1294 4750 2059 4750 
Q 2388 4750 2728 4690 
Q 3069 4631 3425 4513 
z
" transform="scale(0.015625)"/>
      <path id="DejaVuSans-64" d="M 2906 2969 
L 2906 4863 
L 3481 4863 
L 3481 0 
L 2906 0 
L 2906 525 
Q 2725 213 2448 61 
Q 2172 -91 1784 -91 
Q 1150 -91 751 415 
Q 353 922 353 1747 
Q 353 2572 751 3078 
Q 1150 3584 1784 3584 
Q 2172 3584 2448 3432 
Q 2725 3281 2906 2969 
z
M 947 1747 
Q 947 1113 1208 752 
Q 1469 391 1925 391 
Q 2381 391 2643 752 
Q 2906 1113 2906 1747 
Q 2906 2381 2643 2742 
Q 2381 3103 1925 3103 
Q 1469 3103 1208 2742 
Q 947 2381 947 1747 
z
" transform="scale(0.015625)"/>
      <path id="DejaVuSans-20" transform="scale(0.015625)"/>
      <path id="DejaVuSans-6c" d="M 603 4863 
L 1178 4863 
L 1178 0 
L 603 0 
L 603 4863 
z
" transform="scale(0.015625)"/>
      <path id="DejaVuSans-70" d="M 1159 525 
L 1159 -1331 
L 581 -1331 
L 581 3500 
L 1159 3500 
L 1159 2969 
Q 1341 3281 1617 3432 
Q 1894 3584 2278 3584 
Q 2916 3584 3314 3078 
Q 3713 2572 3713 1747 
Q 3713 922 3314 415 
Q 2916 -91 2278 -91 
Q 1894 -91 1617 61 
Q 1341 213 1159 525 
z
M 3116 1747 
Q 3116 2381 2855 2742 
Q 2594 3103 2138 3103 
Q 1681 3103 1420 2742 
Q 1159 2381 1159 1747 
Q 1159 1113 1420 752 
Q 1681 391 2138 391 
Q 2594 391 2855 752 
Q 3116 1113 3116 1747 
z
" transform="scale(0.015625)"/>
      <path id="DejaVuSans-6b" d="M 581 4863 
L 1159 4863 
L 1159 1991 
L 2875 3500 
L 3609 3500 
L 1753 1863 
L 3688 0 
L 2938 0 
L 1159 1709 
L 1159 0 
L 581 0 
L 581 4863 
z
" transform="scale(0.015625)"/>
      <path id="DejaVuSans-17c" d="M 1378 4863 
L 1953 4863 
L 1953 4134 
L 1378 4134 
L 1378 4863 
z
M 1672 3584 
L 1672 3584 
z
M 353 3500 
L 3084 3500 
L 3084 2975 
L 922 459 
L 3084 459 
L 3084 0 
L 275 0 
L 275 525 
L 2438 3041 
L 353 3041 
L 353 3500 
z
" transform="scale(0.015625)"/>
      <path id="DejaVuSans-67" d="M 2906 1791 
Q 2906 2416 2648 2759 
Q 2391 3103 1925 3103 
Q 1463 3103 1205 2759 
Q 947 2416 947 1791 
Q 947 1169 1205 825 
Q 1463 481 1925 481 
Q 2391 481 2648 825 
Q 2906 1169 2906 1791 
z
M 3481 434 
Q 3481 -459 3084 -895 
Q 2688 -1331 1869 -1331 
Q 1566 -1331 1297 -1286 
Q 1028 -1241 775 -1147 
L 775 -588 
Q 1028 -725 1275 -790 
Q 1522 -856 1778 -856 
Q 2344 -856 2625 -561 
Q 2906 -266 2906 331 
L 2906 616 
Q 2728 306 2450 153 
Q 2172 0 1784 0 
Q 1141 0 747 490 
Q 353 981 353 1791 
Q 353 2603 747 3093 
Q 1141 3584 1784 3584 
Q 2172 3584 2450 3431 
Q 2728 3278 2906 2969 
L 2906 3500 
L 3481 3500 
L 3481 434 
z
" transform="scale(0.015625)"/>
     </defs>
     <use xlink:href="#DejaVuSans-15a"/>
     <use xlink:href="#DejaVuSans-72" transform="translate(63.476562 0)"/>
     <use xlink:href="#DejaVuSans-65" transform="translate(102.339844 0)"/>
     <use xlink:href="#DejaVuSans-64" transform="translate(163.863281 0)"/>
     <use xlink:href="#DejaVuSans-6e" transform="translate(227.339844 0)"/>
     <use xlink:href="#DejaVuSans-69" transform="translate(290.71875 0)"/>
     <use xlink:href="#DejaVuSans-65" transform="translate(318.501953 0)"/>
     <use xlink:href="#DejaVuSans-20" transform="translate(380.025391 0)"/>
     <use xlink:href="#DejaVuSans-69" transform="translate(411.8125 0)"/>
     <use xlink:href="#DejaVuSans-20" transform="translate(439.595703 0)"/>
     <use xlink:href="#DejaVuSans-6e" transform="translate(471.382812 0)"/>
     <use xlink:href="#DejaVuSans-61" transform="translate(534.761719 0)"/>
     <use xlink:href="#DejaVuSans-6a" transform="translate(596.041016 0)"/>
     <use xlink:href="#DejaVuSans-6c" transform="translate(623.824219 0)"/>
     <use xlink:href="#DejaVuSans-65" transform="translate(651.607422 0)"/>
     <use xlink:href="#DejaVuSans-70" transform="translate(713.130859 0)"/>
     <use xlink:href="#DejaVuSans-73" transform="translate(776.607422 0)"/>
     <use xlink:href="#DejaVuSans-7a" transform="translate(828.707031 0)"/>
     <use xlink:href="#DejaVuSans-65" transform="translate(881.197266 0)"/>
     <use xlink:href="#DejaVuSans-20" transform="translate(942.720703 0)"/>
     <use xlink:href="#DejaVuSans-70" transform="translate(974.507812 0)"/>
     <use xlink:href="#DejaVuSans-72" transform="translate(1037.984375 0)"/>
     <use xlink:href="#DejaVuSans-7a" transform="translate(1079.097656 0)"/>
     <use xlink:href="#DejaVuSans-79" transform="translate(1131.587891 0)"/>
     <use xlink:href="#DejaVuSans-73" transform="translate(1190.767578 0)"/>
     <use xlink:href="#DejaVuSans-74" transform="translate(1242.867188 0)"/>
     <use xlink:href="#DejaVuSans-6f" transform="translate(1282.076172 0)"/>
     <use xlink:href="#DejaVuSans-73" transform="translate(1343.257812 0)"/>
     <use xlink:href="#DejaVuSans-6f" transform="translate(1395.357422 0)"/>
     <use xlink:href="#DejaVuSans-77" transform="translate(1456.539062 0)"/>
     <use xlink:href="#DejaVuSans-61" transform="translate(1538.326172 0)"/>
     <use xlink:href="#DejaVuSans-6e" transform="translate(1599.605469 0)"/>
     <use xlink:href="#DejaVuSans-69" transform="translate(1662.984375 0)"/>
     <use xlink:href="#DejaVuSans-65" transform="translate(1690.767578 0)"/>
     <use xlink:href="#DejaVuSans-20" transform="translate(1752.291016 0)"/>
     <use xlink:href="#DejaVuSans-77" transform="translate(1784.078125 0)"/>
     <use xlink:href="#DejaVuSans-20" transform="translate(1865.865234 0)"/>
     <use xlink:href="#DejaVuSans-6b" transform="translate(1897.652344 0)"/>
     <use xlink:href="#DejaVuSans-61" transform="translate(1953.8125 0)"/>
     <use xlink:href="#DejaVuSans-17c" transform="translate(2015.091797 0)"/>
     <use xlink:href="#DejaVuSans-64" transform="translate(2067.582031 0)"/>
     <use xlink:href="#DejaVuSans-65" transform="translate(2131.058594 0)"/>
     <use xlink:href="#DejaVuSans-6a" transform="translate(2192.582031 0)"/>
     <use xlink:href="#DejaVuSans-20" transform="translate(2220.365234 0)"/>
     <use xlink:href="#DejaVuSans-67" transform="translate(2252.152344 0)"/>
     <use xlink:href="#DejaVuSans-65" transform="translate(2315.628906 0)"/>
     <use xlink:href="#DejaVuSans-6e" transform="translate(2377.152344 0)"/>
     <use xlink:href="#DejaVuSans-65" transform="translate(2440.53125 0)"/>
     <use xlink:href="#DejaVuSans-72" transform="translate(2502.054688 0)"/>
     <use xlink:href="#DejaVuSans-61" transform="translate(2543.167969 0)"/>
     <use xlink:href="#DejaVuSans-63" transform="translate(2604.447266 0)"/>
     <use xlink:href="#DejaVuSans-6a" transform="translate(2659.427734 0)"/>
     <use xlink:href="#DejaVuSans-69" transform="translate(2687.210938 0)"/>
    </g>
   </g>
   <g id="legend_1">
    <g id="patch_7">
     <path d="M 279.790313 302.584 
L 407.72 302.584 
Q 409.72 302.584 409.72 300.584 
L 409.72 257.549625 
Q 409.72 255.549625 407.72 255.549625 
L 279.790313 255.549625 
Q 277.790313 255.549625 277.790313 257.549625 
L 277.790313 300.584 
Q 277.790313 302.584 279.790313 302.584 
z
" style="fill: #ffffff; opacity: 0.8; stroke: #cccccc; stroke-linejoin: miter"/>
    </g>
    <g id="line2d_24">
     <path d="M 281.790313 263.648062 
L 291.790313 263.648062 
L 301.790313 263.648062 
" style="fill: none; stroke: #0000ff; stroke-width: 1.5; stroke-linecap: square"/>
    </g>
    <g id="text_14">
     <!-- Średnia -->
     <g transform="translate(309.790313 267.148062) scale(0.1 -0.1)">
      <use xlink:href="#DejaVuSans-15a"/>
      <use xlink:href="#DejaVuSans-72" transform="translate(63.476562 0)"/>
      <use xlink:href="#DejaVuSans-65" transform="translate(102.339844 0)"/>
      <use xlink:href="#DejaVuSans-64" transform="translate(163.863281 0)"/>
      <use xlink:href="#DejaVuSans-6e" transform="translate(227.339844 0)"/>
      <use xlink:href="#DejaVuSans-69" transform="translate(290.71875 0)"/>
      <use xlink:href="#DejaVuSans-61" transform="translate(318.501953 0)"/>
     </g>
    </g>
    <g id="line2d_25">
     <path d="M 281.790313 278.326188 
L 291.790313 278.326188 
L 301.790313 278.326188 
" style="fill: none; stroke-dasharray: 9.6,2.4,1.5,2.4; stroke-dashoffset: 0; stroke: #008000; stroke-width: 1.5"/>
    </g>
    <g id="text_15">
     <!-- ±1 Odchylenie std. -->
     <g transform="translate(309.790313 281.826188) scale(0.1 -0.1)">
      <defs>
       <path id="DejaVuSans-b1" d="M 2944 4013 
L 2944 2803 
L 4684 2803 
L 4684 2272 
L 2944 2272 
L 2944 1063 
L 2419 1063 
L 2419 2272 
L 678 2272 
L 678 2803 
L 2419 2803 
L 2419 4013 
L 2944 4013 
z
M 678 531 
L 4684 531 
L 4684 0 
L 678 0 
L 678 531 
z
" transform="scale(0.015625)"/>
       <path id="DejaVuSans-4f" d="M 2522 4238 
Q 1834 4238 1429 3725 
Q 1025 3213 1025 2328 
Q 1025 1447 1429 934 
Q 1834 422 2522 422 
Q 3209 422 3611 934 
Q 4013 1447 4013 2328 
Q 4013 3213 3611 3725 
Q 3209 4238 2522 4238 
z
M 2522 4750 
Q 3503 4750 4090 4092 
Q 4678 3434 4678 2328 
Q 4678 1225 4090 567 
Q 3503 -91 2522 -91 
Q 1538 -91 948 565 
Q 359 1222 359 2328 
Q 359 3434 948 4092 
Q 1538 4750 2522 4750 
z
" transform="scale(0.015625)"/>
       <path id="DejaVuSans-68" d="M 3513 2113 
L 3513 0 
L 2938 0 
L 2938 2094 
Q 2938 2591 2744 2837 
Q 2550 3084 2163 3084 
Q 1697 3084 1428 2787 
Q 1159 2491 1159 1978 
L 1159 0 
L 581 0 
L 581 4863 
L 1159 4863 
L 1159 2956 
Q 1366 3272 1645 3428 
Q 1925 3584 2291 3584 
Q 2894 3584 3203 3211 
Q 3513 2838 3513 2113 
z
" transform="scale(0.015625)"/>
       <path id="DejaVuSans-2e" d="M 684 794 
L 1344 794 
L 1344 0 
L 684 0 
L 684 794 
z
" transform="scale(0.015625)"/>
      </defs>
      <use xlink:href="#DejaVuSans-b1"/>
      <use xlink:href="#DejaVuSans-31" transform="translate(83.789062 0)"/>
      <use xlink:href="#DejaVuSans-20" transform="translate(147.412109 0)"/>
      <use xlink:href="#DejaVuSans-4f" transform="translate(179.199219 0)"/>
      <use xlink:href="#DejaVuSans-64" transform="translate(257.910156 0)"/>
      <use xlink:href="#DejaVuSans-63" transform="translate(321.386719 0)"/>
      <use xlink:href="#DejaVuSans-68" transform="translate(376.367188 0)"/>
      <use xlink:href="#DejaVuSans-79" transform="translate(439.746094 0)"/>
      <use xlink:href="#DejaVuSans-6c" transform="translate(498.925781 0)"/>
      <use xlink:href="#DejaVuSans-65" transform="translate(526.708984 0)"/>
      <use xlink:href="#DejaVuSans-6e" transform="translate(588.232422 0)"/>
      <use xlink:href="#DejaVuSans-69" transform="translate(651.611328 0)"/>
      <use xlink:href="#DejaVuSans-65" transform="translate(679.394531 0)"/>
      <use xlink:href="#DejaVuSans-20" transform="translate(740.917969 0)"/>
      <use xlink:href="#DejaVuSans-73" transform="translate(772.705078 0)"/>
      <use xlink:href="#DejaVuSans-74" transform="translate(824.804688 0)"/>
      <use xlink:href="#DejaVuSans-64" transform="translate(864.013672 0)"/>
      <use xlink:href="#DejaVuSans-2e" transform="translate(927.490234 0)"/>
     </g>
    </g>
    <g id="line2d_26">
     <path d="M 281.790313 293.004312 
L 291.790313 293.004312 
L 301.790313 293.004312 
" style="fill: none; stroke: #ff0000; stroke-width: 1.5; stroke-linecap: square"/>
    </g>
    <g id="text_16">
     <!-- Najlepsze -->
     <g transform="translate(309.790313 296.504312) scale(0.1 -0.1)">
      <defs>
       <path id="DejaVuSans-4e" d="M 628 4666 
L 1478 4666 
L 3547 763 
L 3547 4666 
L 4159 4666 
L 4159 0 
L 3309 0 
L 1241 3903 
L 1241 0 
L 628 0 
L 628 4666 
z
" transform="scale(0.015625)"/>
      </defs>
      <use xlink:href="#DejaVuSans-4e"/>
      <use xlink:href="#DejaVuSans-61" transform="translate(74.804688 0)"/>
      <use xlink:href="#DejaVuSans-6a" transform="translate(136.083984 0)"/>
      <use xlink:href="#DejaVuSans-6c" transform="translate(163.867188 0)"/>
      <use xlink:href="#DejaVuSans-65" transform="translate(191.650391 0)"/>
      <use xlink:href="#DejaVuSans-70" transform="translate(253.173828 0)"/>
      <use xlink:href="#DejaVuSans-73" transform="translate(316.650391 0)"/>
      <use xlink:href="#DejaVuSans-7a" transform="translate(368.75 0)"/>
      <use xlink:href="#DejaVuSans-65" transform="translate(421.240234 0)"/>
     </g>
    </g>
   </g>
  </g>
 </g>
 <defs>
  <clipPath id="p1343dad295">
   <rect x="57.6" y="41.472" width="357.12" height="266.112"/>
  </clipPath>
 </defs>
</svg>
