<?xml version="1.0" encoding="utf-8" standalone="no"?>
<!DOCTYPE svg PUBLIC "-//W3C//DTD SVG 1.1//EN"
  "http://www.w3.org/Graphics/SVG/1.1/DTD/svg11.dtd">
<svg xmlns:xlink="http://www.w3.org/1999/xlink" width="720pt" height="432pt" viewBox="0 0 720 432" xmlns="http://www.w3.org/2000/svg" version="1.1">
 <metadata>
  <rdf:RDF xmlns:dc="http://purl.org/dc/elements/1.1/" xmlns:cc="http://creativecommons.org/ns#" xmlns:rdf="http://www.w3.org/1999/02/22-rdf-syntax-ns#">
   <cc:Work>
    <dc:type rdf:resource="http://purl.org/dc/dcmitype/StillImage"/>
    <dc:date>2026-04-26T22:23:15.552221</dc:date>
    <dc:format>image/svg+xml</dc:format>
    <dc:creator>
     <cc:Agent>
      <dc:title>Matplotlib v3.10.8, https://matplotlib.org/</dc:title>
     </cc:Agent>
    </dc:creator>
   </cc:Work>
  </rdf:RDF>
 </metadata>
 <defs>
  <style type="text/css">*{stroke-linejoin: round; stroke-linecap: butt}</style>
 </defs>
 <g id="figure_1">
  <g id="patch_1">
   <path d="M 0 432 
L 720 432 
L 720 0 
L 0 0 
z
" style="fill: #ffffff"/>
  </g>
  <g id="axes_1">
   <g id="patch_2">
    <path d="M 90 384.48 
L 648 384.48 
L 648 51.84 
L 90 51.84 
z
" style="fill: #ffffff"/>
   </g>
   <g id="FillBetweenPolyCollection_1">
    <defs>
     <path id="m71373b75db" d="M 115.363636 -250.436703 
L 115.363636 -192.420601 
L 117.912746 -238.155905 
L 120.461855 -256.635843 
L 123.010964 -256.430361 
L 125.560073 -259.628873 
L 128.109182 -271.426287 
L 130.658291 -269.222274 
L 133.207401 -271.347825 
L 135.75651 -278.843387 
L 138.305619 -276.222394 
L 140.854728 -280.80223 
L 143.403837 -278.135231 
L 145.952947 -279.700045 
L 148.502056 -278.186407 
L 151.051165 -284.66826 
L 153.600274 -265.146648 
L 156.149383 -279.483593 
L 158.698492 -285.467319 
L 161.247602 -282.242179 
L 163.796711 -278.301914 
L 166.34582 -288.643128 
L 168.894929 -290.770604 
L 171.444038 -283.99729 
L 173.993148 -283.913807 
L 176.542257 -278.10229 
L 179.091366 -283.790355 
L 181.640475 -280.794416 
L 184.189584 -288.812681 
L 186.738693 -283.335971 
L 189.287803 -282.111899 
L 191.836912 -289.124514 
L 194.386021 -274.133748 
L 196.93513 -281.568884 
L 199.484239 -289.511242 
L 202.033349 -282.604266 
L 204.582458 -283.133004 
L 207.131567 -286.578599 
L 209.680676 -289.703937 
L 212.229785 -286.369823 
L 214.778894 -295.915443 
L 217.328004 -286.518849 
L 219.877113 -293.133467 
L 222.426222 -286.470977 
L 224.975331 -282.369301 
L 227.52444 -278.068164 
L 230.07355 -295.611438 
L 232.622659 -298.379796 
L 235.171768 -286.575512 
L 237.720877 -289.89837 
L 240.269986 -284.2642 
L 242.819095 -290.756029 
L 245.368205 -283.728509 
L 247.917314 -287.132145 
L 250.466423 -271.284072 
L 253.015532 -284.323515 
L 255.564641 -290.618184 
L 258.113751 -291.146794 
L 260.66286 -283.413006 
L 263.211969 -281.935836 
L 265.761078 -275.094835 
L 268.310187 -291.462443 
L 270.859296 -277.121065 
L 273.408406 -290.825463 
L 275.957515 -288.380078 
L 278.506624 -283.929645 
L 281.055733 -287.44296 
L 283.604842 -287.917377 
L 286.153952 -290.296253 
L 288.703061 -298.94277 
L 291.25217 -288.580575 
L 293.801279 -291.869312 
L 296.350388 -298.941183 
L 298.899497 -287.667951 
L 301.448607 -291.619155 
L 303.997716 -286.859809 
L 306.546825 -289.605146 
L 309.095934 -290.028501 
L 311.645043 -284.395273 
L 314.194153 -292.017427 
L 316.743262 -282.731111 
L 319.292371 -286.685819 
L 321.84148 -292.202586 
L 324.390589 -281.343929 
L 326.939698 -284.453673 
L 329.488808 -281.544451 
L 332.037917 -284.553399 
L 334.587026 -288.670677 
L 337.136135 -287.444588 
L 339.685244 -279.230389 
L 342.234354 -284.270063 
L 344.783463 -284.853434 
L 347.332572 -289.195642 
L 349.881681 -285.044797 
L 352.43079 -289.307508 
L 354.979899 -292.345041 
L 357.529009 -289.768254 
L 360.078118 -287.585363 
L 362.627227 -285.125818 
L 365.176336 -291.747001 
L 367.725445 -283.714747 
L 370.274555 -299.273457 
L 372.823664 -294.969423 
L 375.372773 -294.057309 
L 377.921882 -280.864789 
L 380.470991 -301.759789 
L 383.020101 -284.534883 
L 385.56921 -286.459589 
L 388.118319 -288.557914 
L 390.667428 -294.969574 
L 393.216537 -284.54821 
L 395.765646 -308.259551 
L 398.314756 -285.991885 
L 400.863865 -283.590844 
L 403.412974 -288.056096 
L 405.962083 -286.545066 
L 408.511192 -291.851783 
L 411.060302 -280.894632 
L 413.609411 -281.837939 
L 416.15852 -289.909549 
L 418.707629 -282.23279 
L 421.256738 -288.958472 
L 423.805847 -283.041542 
L 426.354957 -281.782679 
L 428.904066 -279.596172 
L 431.453175 -276.448266 
L 434.002284 -289.567843 
L 436.551393 -286.875331 
L 439.100503 -271.633613 
L 441.649612 -292.652178 
L 444.198721 -283.22686 
L 446.74783 -297.08185 
L 449.296939 -290.775371 
L 451.846048 -300.359237 
L 454.395158 -287.719259 
L 456.944267 -286.779307 
L 459.493376 -287.701854 
L 462.042485 -285.768426 
L 464.591594 -291.030107 
L 467.140704 -289.577871 
L 469.689813 -285.192441 
L 472.238922 -294.035681 
L 474.788031 -280.775944 
L 477.33714 -282.871599 
L 479.886249 -287.227019 
L 482.435359 -278.668974 
L 484.984468 -289.97065 
L 487.533577 -280.965674 
L 490.082686 -281.153491 
L 492.631795 -283.950855 
L 495.180905 -283.989839 
L 497.730014 -288.238914 
L 500.279123 -279.861479 
L 502.828232 -287.261971 
L 505.377341 -286.510192 
L 507.92645 -277.989886 
L 510.47556 -286.347597 
L 513.024669 -287.152132 
L 515.573778 -285.850348 
L 518.122887 -273.607595 
L 520.671996 -283.594112 
L 523.221106 -291.178436 
L 525.770215 -280.075907 
L 528.319324 -279.198439 
L 530.868433 -288.834008 
L 533.417542 -277.70505 
L 535.966651 -268.202664 
L 538.515761 -292.607885 
L 541.06487 -283.443513 
L 543.613979 -286.120989 
L 546.163088 -276.237801 
L 548.712197 -285.820805 
L 551.261307 -290.607974 
L 553.810416 -287.759966 
L 556.359525 -286.724996 
L 558.908634 -283.728555 
L 561.457743 -282.286051 
L 564.006852 -285.246648 
L 566.555962 -280.550606 
L 569.105071 -286.150981 
L 571.65418 -288.185422 
L 574.203289 -287.266276 
L 576.752398 -281.393516 
L 579.301508 -283.000971 
L 581.850617 -284.7856 
L 584.399726 -274.464019 
L 586.948835 -287.774061 
L 589.497944 -286.9714 
L 592.047053 -283.557946 
L 594.596163 -288.171862 
L 597.145272 -280.398259 
L 599.694381 -290.923552 
L 602.24349 -286.80392 
L 604.792599 -284.185463 
L 607.341709 -278.720572 
L 609.890818 -285.108348 
L 612.439927 -286.703302 
L 614.989036 -289.366207 
L 617.538145 -287.347906 
L 620.087254 -282.04311 
L 622.636364 -282.456132 
L 622.636364 -324.772853 
L 622.636364 -324.772853 
L 620.087254 -333.215679 
L 617.538145 -343.373566 
L 614.989036 -342.443587 
L 612.439927 -335.147981 
L 609.890818 -331.261356 
L 607.341709 -343.082459 
L 604.792599 -324.735634 
L 602.24349 -334.443995 
L 599.694381 -327.288651 
L 597.145272 -338.827038 
L 594.596163 -349.516744 
L 592.047053 -326.194885 
L 589.497944 -348.431231 
L 586.948835 -341.095543 
L 584.399726 -337.66835 
L 581.850617 -343.617373 
L 579.301508 -345.635842 
L 576.752398 -345.642421 
L 574.203289 -332.105868 
L 571.65418 -337.366839 
L 569.105071 -336.446091 
L 566.555962 -330.706779 
L 564.006852 -338.383118 
L 561.457743 -349.736562 
L 558.908634 -322.026973 
L 556.359525 -327.098334 
L 553.810416 -344.992616 
L 551.261307 -330.153267 
L 548.712197 -328.931069 
L 546.163088 -328.642883 
L 543.613979 -337.521664 
L 541.06487 -326.757199 
L 538.515761 -345.162004 
L 535.966651 -333.391328 
L 533.417542 -354.303198 
L 530.868433 -331.646169 
L 528.319324 -348.995713 
L 525.770215 -334.963371 
L 523.221106 -347.922821 
L 520.671996 -332.860439 
L 518.122887 -322.694522 
L 515.573778 -331.113842 
L 513.024669 -328.692093 
L 510.47556 -333.459249 
L 507.92645 -336.242942 
L 505.377341 -336.570938 
L 502.828232 -347.652053 
L 500.279123 -336.578625 
L 497.730014 -332.51669 
L 495.180905 -327.463414 
L 492.631795 -356.781753 
L 490.082686 -316.547421 
L 487.533577 -329.01588 
L 484.984468 -330.623404 
L 482.435359 -342.108943 
L 479.886249 -353.528791 
L 477.33714 -330.020373 
L 474.788031 -343.762056 
L 472.238922 -344.358798 
L 469.689813 -335.230026 
L 467.140704 -329.27822 
L 464.591594 -361.471166 
L 462.042485 -350.523493 
L 459.493376 -341.996575 
L 456.944267 -339.791414 
L 454.395158 -336.163125 
L 451.846048 -344.979962 
L 449.296939 -334.782697 
L 446.74783 -346.752613 
L 444.198721 -350.545654 
L 441.649612 -334.449877 
L 439.100503 -359.370875 
L 436.551393 -348.913815 
L 434.002284 -349.337657 
L 431.453175 -327.789954 
L 428.904066 -343.031192 
L 426.354957 -353.197948 
L 423.805847 -329.20158 
L 421.256738 -333.448847 
L 418.707629 -338.345507 
L 416.15852 -332.139251 
L 413.609411 -339.740789 
L 411.060302 -337.600139 
L 408.511192 -344.579969 
L 405.962083 -326.692151 
L 403.412974 -334.095528 
L 400.863865 -335.873884 
L 398.314756 -329.159709 
L 395.765646 -358.232059 
L 393.216537 -337.589259 
L 390.667428 -335.651463 
L 388.118319 -340.893528 
L 385.56921 -330.757779 
L 383.020101 -336.903094 
L 380.470991 -338.720281 
L 377.921882 -340.515658 
L 375.372773 -335.234882 
L 372.823664 -347.342528 
L 370.274555 -338.448028 
L 367.725445 -349.284265 
L 365.176336 -345.3455 
L 362.627227 -349.360606 
L 360.078118 -324.791389 
L 357.529009 -341.8021 
L 354.979899 -346.233213 
L 352.43079 -365.04 
L 349.881681 -333.999129 
L 347.332572 -342.30115 
L 344.783463 -348.296407 
L 342.234354 -333.529501 
L 339.685244 -334.346863 
L 337.136135 -345.274468 
L 334.587026 -332.689049 
L 332.037917 -355.140574 
L 329.488808 -328.039745 
L 326.939698 -319.494047 
L 324.390589 -339.039952 
L 321.84148 -345.254115 
L 319.292371 -351.279565 
L 316.743262 -356.150332 
L 314.194153 -345.905511 
L 311.645043 -361.087789 
L 309.095934 -341.723697 
L 306.546825 -319.470959 
L 303.997716 -335.958211 
L 301.448607 -333.62244 
L 298.899497 -331.600006 
L 296.350388 -336.344704 
L 293.801279 -339.019598 
L 291.25217 -338.650597 
L 288.703061 -350.995571 
L 286.153952 -352.286552 
L 283.604842 -332.597215 
L 281.055733 -350.932828 
L 278.506624 -336.82497 
L 275.957515 -343.810728 
L 273.408406 -342.992683 
L 270.859296 -346.089902 
L 268.310187 -331.07521 
L 265.761078 -321.260237 
L 263.211969 -342.297079 
L 260.66286 -339.416158 
L 258.113751 -349.092578 
L 255.564641 -325.259607 
L 253.015532 -321.55576 
L 250.466423 -361.317335 
L 247.917314 -340.147527 
L 245.368205 -332.162277 
L 242.819095 -346.499179 
L 240.269986 -332.006579 
L 237.720877 -331.579185 
L 235.171768 -352.4645 
L 232.622659 -352.506354 
L 230.07355 -336.38907 
L 227.52444 -340.833018 
L 224.975331 -342.725452 
L 222.426222 -340.572189 
L 219.877113 -355.559898 
L 217.328004 -350.754843 
L 214.778894 -329.063648 
L 212.229785 -346.458485 
L 209.680676 -327.984222 
L 207.131567 -333.098249 
L 204.582458 -338.853326 
L 202.033349 -331.433936 
L 199.484239 -348.450053 
L 196.93513 -346.464084 
L 194.386021 -343.574726 
L 191.836912 -338.766821 
L 189.287803 -334.372973 
L 186.738693 -335.738552 
L 184.189584 -341.504482 
L 181.640475 -324.190825 
L 179.091366 -326.131547 
L 176.542257 -345.492928 
L 173.993148 -331.624886 
L 171.444038 -342.781986 
L 168.894929 -325.110151 
L 166.34582 -330.98505 
L 163.796711 -328.091154 
L 161.247602 -310.671613 
L 158.698492 -322.790409 
L 156.149383 -330.260035 
L 153.600274 -345.420241 
L 151.051165 -333.103905 
L 148.502056 -332.797996 
L 145.952947 -329.478254 
L 143.403837 -331.823163 
L 140.854728 -333.098112 
L 138.305619 -320.72903 
L 135.75651 -323.759768 
L 133.207401 -322.968655 
L 130.658291 -315.333574 
L 128.109182 -310.710506 
L 125.560073 -315.194482 
L 123.010964 -292.011056 
L 120.461855 -292.814381 
L 117.912746 -287.285684 
L 115.363636 -250.436703 
z
" style="stroke: #ff0000; stroke-opacity: 0.2"/>
    </defs>
    <g clip-path="url(#p3da81abe18)">
     <use xlink:href="#m71373b75db" x="0" y="432" style="fill: #ff0000; fill-opacity: 0.2; stroke: #ff0000; stroke-opacity: 0.2"/>
    </g>
   </g>
   <g id="matplotlib.axis_1">
    <g id="xtick_1">
     <g id="line2d_1">
      <path d="M 112.814527 384.48 
L 112.814527 51.84 
" clip-path="url(#p3da81abe18)" style="fill: none; stroke: #b0b0b0; stroke-width: 0.8; stroke-linecap: square"/>
     </g>
     <g id="line2d_2">
      <defs>
       <path id="m86b165f79b" d="M 0 0 
L 0 3.5 
" style="stroke: #000000; stroke-width: 0.8"/>
      </defs>
      <g>
       <use xlink:href="#m86b165f79b" x="112.814527" y="384.48" style="stroke: #000000; stroke-width: 0.8"/>
      </g>
     </g>
     <g id="text_1">
      <!-- 0 -->
      <g transform="translate(109.633277 399.078438) scale(0.1 -0.1)">
       <defs>
        <path id="DejaVuSans-30" d="M 2034 4250 
Q 1547 4250 1301 3770 
Q 1056 3291 1056 2328 
Q 1056 1369 1301 889 
Q 1547 409 2034 409 
Q 2525 409 2770 889 
Q 3016 1369 3016 2328 
Q 3016 3291 2770 3770 
Q 2525 4250 2034 4250 
z
M 2034 4750 
Q 2819 4750 3233 4129 
Q 3647 3509 3647 2328 
Q 3647 1150 3233 529 
Q 2819 -91 2034 -91 
Q 1250 -91 836 529 
Q 422 1150 422 2328 
Q 422 3509 836 4129 
Q 1250 4750 2034 4750 
z
" transform="scale(0.015625)"/>
       </defs>
       <use xlink:href="#DejaVuSans-30"/>
      </g>
     </g>
    </g>
    <g id="xtick_2">
     <g id="line2d_3">
      <path d="M 176.542257 384.48 
L 176.542257 51.84 
" clip-path="url(#p3da81abe18)" style="fill: none; stroke: #b0b0b0; stroke-width: 0.8; stroke-linecap: square"/>
     </g>
     <g id="line2d_4">
      <g>
       <use xlink:href="#m86b165f79b" x="176.542257" y="384.48" style="stroke: #000000; stroke-width: 0.8"/>
      </g>
     </g>
     <g id="text_2">
      <!-- 25 -->
      <g transform="translate(170.179757 399.078438) scale(0.1 -0.1)">
       <defs>
        <path id="DejaVuSans-32" d="M 1228 531 
L 3431 531 
L 3431 0 
L 469 0 
L 469 531 
Q 828 903 1448 1529 
Q 2069 2156 2228 2338 
Q 2531 2678 2651 2914 
Q 2772 3150 2772 3378 
Q 2772 3750 2511 3984 
Q 2250 4219 1831 4219 
Q 1534 4219 1204 4116 
Q 875 4013 500 3803 
L 500 4441 
Q 881 4594 1212 4672 
Q 1544 4750 1819 4750 
Q 2544 4750 2975 4387 
Q 3406 4025 3406 3419 
Q 3406 3131 3298 2873 
Q 3191 2616 2906 2266 
Q 2828 2175 2409 1742 
Q 1991 1309 1228 531 
z
" transform="scale(0.015625)"/>
        <path id="DejaVuSans-35" d="M 691 4666 
L 3169 4666 
L 3169 4134 
L 1269 4134 
L 1269 2991 
Q 1406 3038 1543 3061 
Q 1681 3084 1819 3084 
Q 2600 3084 3056 2656 
Q 3513 2228 3513 1497 
Q 3513 744 3044 326 
Q 2575 -91 1722 -91 
Q 1428 -91 1123 -41 
Q 819 9 494 109 
L 494 744 
Q 775 591 1075 516 
Q 1375 441 1709 441 
Q 2250 441 2565 725 
Q 2881 1009 2881 1497 
Q 2881 1984 2565 2268 
Q 2250 2553 1709 2553 
Q 1456 2553 1204 2497 
Q 953 2441 691 2322 
L 691 4666 
z
" transform="scale(0.015625)"/>
       </defs>
       <use xlink:href="#DejaVuSans-32"/>
       <use xlink:href="#DejaVuSans-35" transform="translate(63.623047 0)"/>
      </g>
     </g>
    </g>
    <g id="xtick_3">
     <g id="line2d_5">
      <path d="M 240.269986 384.48 
L 240.269986 51.84 
" clip-path="url(#p3da81abe18)" style="fill: none; stroke: #b0b0b0; stroke-width: 0.8; stroke-linecap: square"/>
     </g>
     <g id="line2d_6">
      <g>
       <use xlink:href="#m86b165f79b" x="240.269986" y="384.48" style="stroke: #000000; stroke-width: 0.8"/>
      </g>
     </g>
     <g id="text_3">
      <!-- 50 -->
      <g transform="translate(233.907486 399.078438) scale(0.1 -0.1)">
       <use xlink:href="#DejaVuSans-35"/>
       <use xlink:href="#DejaVuSans-30" transform="translate(63.623047 0)"/>
      </g>
     </g>
    </g>
    <g id="xtick_4">
     <g id="line2d_7">
      <path d="M 303.997716 384.48 
L 303.997716 51.84 
" clip-path="url(#p3da81abe18)" style="fill: none; stroke: #b0b0b0; stroke-width: 0.8; stroke-linecap: square"/>
     </g>
     <g id="line2d_8">
      <g>
       <use xlink:href="#m86b165f79b" x="303.997716" y="384.48" style="stroke: #000000; stroke-width: 0.8"/>
      </g>
     </g>
     <g id="text_4">
      <!-- 75 -->
      <g transform="translate(297.635216 399.078438) scale(0.1 -0.1)">
       <defs>
        <path id="DejaVuSans-37" d="M 525 4666 
L 3525 4666 
L 3525 4397 
L 1831 0 
L 1172 0 
L 2766 4134 
L 525 4134 
L 525 4666 
z
" transform="scale(0.015625)"/>
       </defs>
       <use xlink:href="#DejaVuSans-37"/>
       <use xlink:href="#DejaVuSans-35" transform="translate(63.623047 0)"/>
      </g>
     </g>
    </g>
    <g id="xtick_5">
     <g id="line2d_9">
      <path d="M 367.725445 384.48 
L 367.725445 51.84 
" clip-path="url(#p3da81abe18)" style="fill: none; stroke: #b0b0b0; stroke-width: 0.8; stroke-linecap: square"/>
     </g>
     <g id="line2d_10">
      <g>
       <use xlink:href="#m86b165f79b" x="367.725445" y="384.48" style="stroke: #000000; stroke-width: 0.8"/>
      </g>
     </g>
     <g id="text_5">
      <!-- 100 -->
      <g transform="translate(358.181695 399.078438) scale(0.1 -0.1)">
       <defs>
        <path id="DejaVuSans-31" d="M 794 531 
L 1825 531 
L 1825 4091 
L 703 3866 
L 703 4441 
L 1819 4666 
L 2450 4666 
L 2450 531 
L 3481 531 
L 3481 0 
L 794 0 
L 794 531 
z
" transform="scale(0.015625)"/>
       </defs>
       <use xlink:href="#DejaVuSans-31"/>
       <use xlink:href="#DejaVuSans-30" transform="translate(63.623047 0)"/>
       <use xlink:href="#DejaVuSans-30" transform="translate(127.246094 0)"/>
      </g>
     </g>
    </g>
    <g id="xtick_6">
     <g id="line2d_11">
      <path d="M 431.453175 384.48 
L 431.453175 51.84 
" clip-path="url(#p3da81abe18)" style="fill: none; stroke: #b0b0b0; stroke-width: 0.8; stroke-linecap: square"/>
     </g>
     <g id="line2d_12">
      <g>
       <use xlink:href="#m86b165f79b" x="431.453175" y="384.48" style="stroke: #000000; stroke-width: 0.8"/>
      </g>
     </g>
     <g id="text_6">
      <!-- 125 -->
      <g transform="translate(421.909425 399.078438) scale(0.1 -0.1)">
       <use xlink:href="#DejaVuSans-31"/>
       <use xlink:href="#DejaVuSans-32" transform="translate(63.623047 0)"/>
       <use xlink:href="#DejaVuSans-35" transform="translate(127.246094 0)"/>
      </g>
     </g>
    </g>
    <g id="xtick_7">
     <g id="line2d_13">
      <path d="M 495.180905 384.48 
L 495.180905 51.84 
" clip-path="url(#p3da81abe18)" style="fill: none; stroke: #b0b0b0; stroke-width: 0.8; stroke-linecap: square"/>
     </g>
     <g id="line2d_14">
      <g>
       <use xlink:href="#m86b165f79b" x="495.180905" y="384.48" style="stroke: #000000; stroke-width: 0.8"/>
      </g>
     </g>
     <g id="text_7">
      <!-- 150 -->
      <g transform="translate(485.637155 399.078438) scale(0.1 -0.1)">
       <use xlink:href="#DejaVuSans-31"/>
       <use xlink:href="#DejaVuSans-35" transform="translate(63.623047 0)"/>
       <use xlink:href="#DejaVuSans-30" transform="translate(127.246094 0)"/>
      </g>
     </g>
    </g>
    <g id="xtick_8">
     <g id="line2d_15">
      <path d="M 558.908634 384.48 
L 558.908634 51.84 
" clip-path="url(#p3da81abe18)" style="fill: none; stroke: #b0b0b0; stroke-width: 0.8; stroke-linecap: square"/>
     </g>
     <g id="line2d_16">
      <g>
       <use xlink:href="#m86b165f79b" x="558.908634" y="384.48" style="stroke: #000000; stroke-width: 0.8"/>
      </g>
     </g>
     <g id="text_8">
      <!-- 175 -->
      <g transform="translate(549.364884 399.078438) scale(0.1 -0.1)">
       <use xlink:href="#DejaVuSans-31"/>
       <use xlink:href="#DejaVuSans-37" transform="translate(63.623047 0)"/>
       <use xlink:href="#DejaVuSans-35" transform="translate(127.246094 0)"/>
      </g>
     </g>
    </g>
    <g id="xtick_9">
     <g id="line2d_17">
      <path d="M 622.636364 384.48 
L 622.636364 51.84 
" clip-path="url(#p3da81abe18)" style="fill: none; stroke: #b0b0b0; stroke-width: 0.8; stroke-linecap: square"/>
     </g>
     <g id="line2d_18">
      <g>
       <use xlink:href="#m86b165f79b" x="622.636364" y="384.48" style="stroke: #000000; stroke-width: 0.8"/>
      </g>
     </g>
     <g id="text_9">
      <!-- 200 -->
      <g transform="translate(613.092614 399.078438) scale(0.1 -0.1)">
       <use xlink:href="#DejaVuSans-32"/>
       <use xlink:href="#DejaVuSans-30" transform="translate(63.623047 0)"/>
       <use xlink:href="#DejaVuSans-30" transform="translate(127.246094 0)"/>
      </g>
     </g>
    </g>
    <g id="text_10">
     <!-- Generacje -->
     <g transform="translate(343.469531 412.756563) scale(0.1 -0.1)">
      <defs>
       <path id="DejaVuSans-47" d="M 3809 666 
L 3809 1919 
L 2778 1919 
L 2778 2438 
L 4434 2438 
L 4434 434 
Q 4069 175 3628 42 
Q 3188 -91 2688 -91 
Q 1594 -91 976 548 
Q 359 1188 359 2328 
Q 359 3472 976 4111 
Q 1594 4750 2688 4750 
Q 3144 4750 3555 4637 
Q 3966 4525 4313 4306 
L 4313 3634 
Q 3963 3931 3569 4081 
Q 3175 4231 2741 4231 
Q 1884 4231 1454 3753 
Q 1025 3275 1025 2328 
Q 1025 1384 1454 906 
Q 1884 428 2741 428 
Q 3075 428 3337 486 
Q 3600 544 3809 666 
z
" transform="scale(0.015625)"/>
       <path id="DejaVuSans-65" d="M 3597 1894 
L 3597 1613 
L 953 1613 
Q 991 1019 1311 708 
Q 1631 397 2203 397 
Q 2534 397 2845 478 
Q 3156 559 3463 722 
L 3463 178 
Q 3153 47 2828 -22 
Q 2503 -91 2169 -91 
Q 1331 -91 842 396 
Q 353 884 353 1716 
Q 353 2575 817 3079 
Q 1281 3584 2069 3584 
Q 2775 3584 3186 3129 
Q 3597 2675 3597 1894 
z
M 3022 2063 
Q 3016 2534 2758 2815 
Q 2500 3097 2075 3097 
Q 1594 3097 1305 2825 
Q 1016 2553 972 2059 
L 3022 2063 
z
" transform="scale(0.015625)"/>
       <path id="DejaVuSans-6e" d="M 3513 2113 
L 3513 0 
L 2938 0 
L 2938 2094 
Q 2938 2591 2744 2837 
Q 2550 3084 2163 3084 
Q 1697 3084 1428 2787 
Q 1159 2491 1159 1978 
L 1159 0 
L 581 0 
L 581 3500 
L 1159 3500 
L 1159 2956 
Q 1366 3272 1645 3428 
Q 1925 3584 2291 3584 
Q 2894 3584 3203 3211 
Q 3513 2838 3513 2113 
z
" transform="scale(0.015625)"/>
       <path id="DejaVuSans-72" d="M 2631 2963 
Q 2534 3019 2420 3045 
Q 2306 3072 2169 3072 
Q 1681 3072 1420 2755 
Q 1159 2438 1159 1844 
L 1159 0 
L 581 0 
L 581 3500 
L 1159 3500 
L 1159 2956 
Q 1341 3275 1631 3429 
Q 1922 3584 2338 3584 
Q 2397 3584 2469 3576 
Q 2541 3569 2628 3553 
L 2631 2963 
z
" transform="scale(0.015625)"/>
       <path id="DejaVuSans-61" d="M 2194 1759 
Q 1497 1759 1228 1600 
Q 959 1441 959 1056 
Q 959 750 1161 570 
Q 1363 391 1709 391 
Q 2188 391 2477 730 
Q 2766 1069 2766 1631 
L 2766 1759 
L 2194 1759 
z
M 3341 1997 
L 3341 0 
L 2766 0 
L 2766 531 
Q 2569 213 2275 61 
Q 1981 -91 1556 -91 
Q 1019 -91 701 211 
Q 384 513 384 1019 
Q 384 1609 779 1909 
Q 1175 2209 1959 2209 
L 2766 2209 
L 2766 2266 
Q 2766 2663 2505 2880 
Q 2244 3097 1772 3097 
Q 1472 3097 1187 3025 
Q 903 2953 641 2809 
L 641 3341 
Q 956 3463 1253 3523 
Q 1550 3584 1831 3584 
Q 2591 3584 2966 3190 
Q 3341 2797 3341 1997 
z
" transform="scale(0.015625)"/>
       <path id="DejaVuSans-63" d="M 3122 3366 
L 3122 2828 
Q 2878 2963 2633 3030 
Q 2388 3097 2138 3097 
Q 1578 3097 1268 2742 
Q 959 2388 959 1747 
Q 959 1106 1268 751 
Q 1578 397 2138 397 
Q 2388 397 2633 464 
Q 2878 531 3122 666 
L 3122 134 
Q 2881 22 2623 -34 
Q 2366 -91 2075 -91 
Q 1284 -91 818 406 
Q 353 903 353 1747 
Q 353 2603 823 3093 
Q 1294 3584 2113 3584 
Q 2378 3584 2631 3529 
Q 2884 3475 3122 3366 
z
" transform="scale(0.015625)"/>
       <path id="DejaVuSans-6a" d="M 603 3500 
L 1178 3500 
L 1178 -63 
Q 1178 -731 923 -1031 
Q 669 -1331 103 -1331 
L -116 -1331 
L -116 -844 
L 38 -844 
Q 366 -844 484 -692 
Q 603 -541 603 -63 
L 603 3500 
z
M 603 4863 
L 1178 4863 
L 1178 4134 
L 603 4134 
L 603 4863 
z
" transform="scale(0.015625)"/>
      </defs>
      <use xlink:href="#DejaVuSans-47"/>
      <use xlink:href="#DejaVuSans-65" transform="translate(77.490234 0)"/>
      <use xlink:href="#DejaVuSans-6e" transform="translate(139.013672 0)"/>
      <use xlink:href="#DejaVuSans-65" transform="translate(202.392578 0)"/>
      <use xlink:href="#DejaVuSans-72" transform="translate(263.916016 0)"/>
      <use xlink:href="#DejaVuSans-61" transform="translate(305.029297 0)"/>
      <use xlink:href="#DejaVuSans-63" transform="translate(366.308594 0)"/>
      <use xlink:href="#DejaVuSans-6a" transform="translate(421.289062 0)"/>
      <use xlink:href="#DejaVuSans-65" transform="translate(449.072266 0)"/>
     </g>
    </g>
   </g>
   <g id="matplotlib.axis_2">
    <g id="ytick_1">
     <g id="line2d_19">
      <path d="M 90 359.29178 
L 648 359.29178 
" clip-path="url(#p3da81abe18)" style="fill: none; stroke: #b0b0b0; stroke-width: 0.8; stroke-linecap: square"/>
     </g>
     <g id="line2d_20">
      <defs>
       <path id="mdb9685985d" d="M 0 0 
L -3.5 0 
" style="stroke: #000000; stroke-width: 0.8"/>
      </defs>
      <g>
       <use xlink:href="#mdb9685985d" x="90" y="359.29178" style="stroke: #000000; stroke-width: 0.8"/>
      </g>
     </g>
     <g id="text_11">
      <!-- 40 -->
      <g transform="translate(70.275 363.090998) scale(0.1 -0.1)">
       <defs>
        <path id="DejaVuSans-34" d="M 2419 4116 
L 825 1625 
L 2419 1625 
L 2419 4116 
z
M 2253 4666 
L 3047 4666 
L 3047 1625 
L 3713 1625 
L 3713 1100 
L 3047 1100 
L 3047 0 
L 2419 0 
L 2419 1100 
L 313 1100 
L 313 1709 
L 2253 4666 
z
" transform="scale(0.015625)"/>
       </defs>
       <use xlink:href="#DejaVuSans-34"/>
       <use xlink:href="#DejaVuSans-30" transform="translate(63.623047 0)"/>
      </g>
     </g>
    </g>
    <g id="ytick_2">
     <g id="line2d_21">
      <path d="M 90 306.781865 
L 648 306.781865 
" clip-path="url(#p3da81abe18)" style="fill: none; stroke: #b0b0b0; stroke-width: 0.8; stroke-linecap: square"/>
     </g>
     <g id="line2d_22">
      <g>
       <use xlink:href="#mdb9685985d" x="90" y="306.781865" style="stroke: #000000; stroke-width: 0.8"/>
      </g>
     </g>
     <g id="text_12">
      <!-- 60 -->
      <g transform="translate(70.275 310.581084) scale(0.1 -0.1)">
       <defs>
        <path id="DejaVuSans-36" d="M 2113 2584 
Q 1688 2584 1439 2293 
Q 1191 2003 1191 1497 
Q 1191 994 1439 701 
Q 1688 409 2113 409 
Q 2538 409 2786 701 
Q 3034 994 3034 1497 
Q 3034 2003 2786 2293 
Q 2538 2584 2113 2584 
z
M 3366 4563 
L 3366 3988 
Q 3128 4100 2886 4159 
Q 2644 4219 2406 4219 
Q 1781 4219 1451 3797 
Q 1122 3375 1075 2522 
Q 1259 2794 1537 2939 
Q 1816 3084 2150 3084 
Q 2853 3084 3261 2657 
Q 3669 2231 3669 1497 
Q 3669 778 3244 343 
Q 2819 -91 2113 -91 
Q 1303 -91 875 529 
Q 447 1150 447 2328 
Q 447 3434 972 4092 
Q 1497 4750 2381 4750 
Q 2619 4750 2861 4703 
Q 3103 4656 3366 4563 
z
" transform="scale(0.015625)"/>
       </defs>
       <use xlink:href="#DejaVuSans-36"/>
       <use xlink:href="#DejaVuSans-30" transform="translate(63.623047 0)"/>
      </g>
     </g>
    </g>
    <g id="ytick_3">
     <g id="line2d_23">
      <path d="M 90 254.271951 
L 648 254.271951 
" clip-path="url(#p3da81abe18)" style="fill: none; stroke: #b0b0b0; stroke-width: 0.8; stroke-linecap: square"/>
     </g>
     <g id="line2d_24">
      <g>
       <use xlink:href="#mdb9685985d" x="90" y="254.271951" style="stroke: #000000; stroke-width: 0.8"/>
      </g>
     </g>
     <g id="text_13">
      <!-- 80 -->
      <g transform="translate(70.275 258.071169) scale(0.1 -0.1)">
       <defs>
        <path id="DejaVuSans-38" d="M 2034 2216 
Q 1584 2216 1326 1975 
Q 1069 1734 1069 1313 
Q 1069 891 1326 650 
Q 1584 409 2034 409 
Q 2484 409 2743 651 
Q 3003 894 3003 1313 
Q 3003 1734 2745 1975 
Q 2488 2216 2034 2216 
z
M 1403 2484 
Q 997 2584 770 2862 
Q 544 3141 544 3541 
Q 544 4100 942 4425 
Q 1341 4750 2034 4750 
Q 2731 4750 3128 4425 
Q 3525 4100 3525 3541 
Q 3525 3141 3298 2862 
Q 3072 2584 2669 2484 
Q 3125 2378 3379 2068 
Q 3634 1759 3634 1313 
Q 3634 634 3220 271 
Q 2806 -91 2034 -91 
Q 1263 -91 848 271 
Q 434 634 434 1313 
Q 434 1759 690 2068 
Q 947 2378 1403 2484 
z
M 1172 3481 
Q 1172 3119 1398 2916 
Q 1625 2713 2034 2713 
Q 2441 2713 2670 2916 
Q 2900 3119 2900 3481 
Q 2900 3844 2670 4047 
Q 2441 4250 2034 4250 
Q 1625 4250 1398 4047 
Q 1172 3844 1172 3481 
z
" transform="scale(0.015625)"/>
       </defs>
       <use xlink:href="#DejaVuSans-38"/>
       <use xlink:href="#DejaVuSans-30" transform="translate(63.623047 0)"/>
      </g>
     </g>
    </g>
    <g id="ytick_4">
     <g id="line2d_25">
      <path d="M 90 201.762036 
L 648 201.762036 
" clip-path="url(#p3da81abe18)" style="fill: none; stroke: #b0b0b0; stroke-width: 0.8; stroke-linecap: square"/>
     </g>
     <g id="line2d_26">
      <g>
       <use xlink:href="#mdb9685985d" x="90" y="201.762036" style="stroke: #000000; stroke-width: 0.8"/>
      </g>
     </g>
     <g id="text_14">
      <!-- 100 -->
      <g transform="translate(63.9125 205.561255) scale(0.1 -0.1)">
       <use xlink:href="#DejaVuSans-31"/>
       <use xlink:href="#DejaVuSans-30" transform="translate(63.623047 0)"/>
       <use xlink:href="#DejaVuSans-30" transform="translate(127.246094 0)"/>
      </g>
     </g>
    </g>
    <g id="ytick_5">
     <g id="line2d_27">
      <path d="M 90 149.252122 
L 648 149.252122 
" clip-path="url(#p3da81abe18)" style="fill: none; stroke: #b0b0b0; stroke-width: 0.8; stroke-linecap: square"/>
     </g>
     <g id="line2d_28">
      <g>
       <use xlink:href="#mdb9685985d" x="90" y="149.252122" style="stroke: #000000; stroke-width: 0.8"/>
      </g>
     </g>
     <g id="text_15">
      <!-- 120 -->
      <g transform="translate(63.9125 153.05134) scale(0.1 -0.1)">
       <use xlink:href="#DejaVuSans-31"/>
       <use xlink:href="#DejaVuSans-32" transform="translate(63.623047 0)"/>
       <use xlink:href="#DejaVuSans-30" transform="translate(127.246094 0)"/>
      </g>
     </g>
    </g>
    <g id="ytick_6">
     <g id="line2d_29">
      <path d="M 90 96.742207 
L 648 96.742207 
" clip-path="url(#p3da81abe18)" style="fill: none; stroke: #b0b0b0; stroke-width: 0.8; stroke-linecap: square"/>
     </g>
     <g id="line2d_30">
      <g>
       <use xlink:href="#mdb9685985d" x="90" y="96.742207" style="stroke: #000000; stroke-width: 0.8"/>
      </g>
     </g>
     <g id="text_16">
      <!-- 140 -->
      <g transform="translate(63.9125 100.541426) scale(0.1 -0.1)">
       <use xlink:href="#DejaVuSans-31"/>
       <use xlink:href="#DejaVuSans-34" transform="translate(63.623047 0)"/>
       <use xlink:href="#DejaVuSans-30" transform="translate(127.246094 0)"/>
      </g>
     </g>
    </g>
    <g id="text_17">
     <!-- Fitness -->
     <g transform="translate(57.832812 235.477187) rotate(-90) scale(0.1 -0.1)">
      <defs>
       <path id="DejaVuSans-46" d="M 628 4666 
L 3309 4666 
L 3309 4134 
L 1259 4134 
L 1259 2759 
L 3109 2759 
L 3109 2228 
L 1259 2228 
L 1259 0 
L 628 0 
L 628 4666 
z
" transform="scale(0.015625)"/>
       <path id="DejaVuSans-69" d="M 603 3500 
L 1178 3500 
L 1178 0 
L 603 0 
L 603 3500 
z
M 603 4863 
L 1178 4863 
L 1178 4134 
L 603 4134 
L 603 4863 
z
" transform="scale(0.015625)"/>
       <path id="DejaVuSans-74" d="M 1172 4494 
L 1172 3500 
L 2356 3500 
L 2356 3053 
L 1172 3053 
L 1172 1153 
Q 1172 725 1289 603 
Q 1406 481 1766 481 
L 2356 481 
L 2356 0 
L 1766 0 
Q 1100 0 847 248 
Q 594 497 594 1153 
L 594 3053 
L 172 3053 
L 172 3500 
L 594 3500 
L 594 4494 
L 1172 4494 
z
" transform="scale(0.015625)"/>
       <path id="DejaVuSans-73" d="M 2834 3397 
L 2834 2853 
Q 2591 2978 2328 3040 
Q 2066 3103 1784 3103 
Q 1356 3103 1142 2972 
Q 928 2841 928 2578 
Q 928 2378 1081 2264 
Q 1234 2150 1697 2047 
L 1894 2003 
Q 2506 1872 2764 1633 
Q 3022 1394 3022 966 
Q 3022 478 2636 193 
Q 2250 -91 1575 -91 
Q 1294 -91 989 -36 
Q 684 19 347 128 
L 347 722 
Q 666 556 975 473 
Q 1284 391 1588 391 
Q 1994 391 2212 530 
Q 2431 669 2431 922 
Q 2431 1156 2273 1281 
Q 2116 1406 1581 1522 
L 1381 1569 
Q 847 1681 609 1914 
Q 372 2147 372 2553 
Q 372 3047 722 3315 
Q 1072 3584 1716 3584 
Q 2034 3584 2315 3537 
Q 2597 3491 2834 3397 
z
" transform="scale(0.015625)"/>
      </defs>
      <use xlink:href="#DejaVuSans-46"/>
      <use xlink:href="#DejaVuSans-69" transform="translate(50.269531 0)"/>
      <use xlink:href="#DejaVuSans-74" transform="translate(78.052734 0)"/>
      <use xlink:href="#DejaVuSans-6e" transform="translate(117.261719 0)"/>
      <use xlink:href="#DejaVuSans-65" transform="translate(180.640625 0)"/>
      <use xlink:href="#DejaVuSans-73" transform="translate(242.164062 0)"/>
      <use xlink:href="#DejaVuSans-73" transform="translate(294.263672 0)"/>
     </g>
    </g>
   </g>
   <g id="line2d_31">
    <path d="M 115.363636 210.571348 
L 117.912746 169.279205 
L 120.461855 157.274888 
L 123.010964 157.779291 
L 125.560073 144.588323 
L 128.109182 140.931604 
L 130.658291 139.722076 
L 133.207401 134.84176 
L 135.75651 130.698422 
L 138.305619 133.524288 
L 140.854728 125.049829 
L 143.403837 127.020803 
L 145.952947 127.410851 
L 148.502056 126.507799 
L 151.051165 123.113917 
L 153.600274 126.716556 
L 156.149383 127.128186 
L 158.698492 127.871136 
L 161.247602 135.543104 
L 166.34582 122.185911 
L 168.894929 124.059623 
L 171.444038 118.610362 
L 173.993148 124.230653 
L 176.542257 120.202391 
L 179.091366 127.039049 
L 181.640475 129.50738 
L 184.189584 116.841419 
L 186.738693 122.462739 
L 189.287803 123.757564 
L 191.836912 118.054332 
L 194.386021 123.145763 
L 199.484239 113.019353 
L 202.033349 124.980899 
L 204.582458 121.006835 
L 207.131567 122.161576 
L 209.680676 123.15592 
L 212.229785 115.585846 
L 214.778894 119.510455 
L 217.328004 113.363154 
L 219.877113 107.653317 
L 222.426222 118.478417 
L 224.975331 119.452623 
L 227.52444 122.549409 
L 230.07355 115.999746 
L 232.622659 106.556925 
L 235.171768 112.479994 
L 237.720877 121.261223 
L 240.269986 123.864611 
L 242.819095 113.372396 
L 245.368205 124.054607 
L 247.917314 118.360164 
L 250.466423 115.699297 
L 253.015532 129.060363 
L 255.564641 124.061105 
L 258.113751 111.880314 
L 260.66286 120.585418 
L 263.211969 119.883543 
L 265.761078 133.822464 
L 268.310187 120.731174 
L 270.859296 120.394517 
L 273.408406 115.090927 
L 275.957515 115.904597 
L 278.506624 121.622693 
L 281.055733 112.812106 
L 283.604842 121.742704 
L 286.153952 110.708597 
L 288.703061 107.030829 
L 291.25217 118.384414 
L 293.801279 116.555545 
L 296.350388 114.357056 
L 298.899497 122.366021 
L 301.448607 119.379202 
L 303.997716 120.59099 
L 306.546825 127.461948 
L 309.095934 116.123901 
L 311.645043 109.258469 
L 314.194153 113.038531 
L 316.743262 112.559279 
L 319.292371 113.017308 
L 321.84148 113.27165 
L 326.939698 130.02614 
L 329.488808 127.207902 
L 332.037917 112.153014 
L 334.587026 121.320137 
L 337.136135 115.640472 
L 339.685244 125.211374 
L 342.234354 123.100218 
L 344.783463 115.425079 
L 347.332572 116.251604 
L 349.881681 122.478037 
L 352.43079 104.826246 
L 354.979899 112.710873 
L 357.529009 116.214823 
L 360.078118 125.811624 
L 362.627227 114.756788 
L 365.176336 113.453749 
L 367.725445 115.500494 
L 372.823664 110.844024 
L 375.372773 117.353904 
L 377.921882 121.309777 
L 380.470991 111.759965 
L 383.020101 121.281011 
L 385.56921 123.391316 
L 388.118319 117.274279 
L 390.667428 116.689481 
L 393.216537 120.931266 
L 395.765646 98.754195 
L 398.314756 124.424203 
L 400.863865 122.267636 
L 403.412974 120.924188 
L 405.962083 125.381391 
L 408.511192 113.784124 
L 411.060302 122.752615 
L 413.609411 121.210636 
L 416.15852 120.9756 
L 418.707629 121.710852 
L 421.256738 120.796341 
L 423.805847 125.878439 
L 426.354957 114.509687 
L 428.904066 120.686318 
L 431.453175 129.88089 
L 434.002284 112.54725 
L 436.551393 114.105427 
L 439.100503 116.497756 
L 441.649612 118.448973 
L 444.198721 115.113743 
L 446.74783 110.082768 
L 449.296939 119.220966 
L 451.846048 109.330401 
L 454.395158 120.058808 
L 456.944267 118.71464 
L 459.493376 117.150785 
L 462.042485 113.854041 
L 464.591594 105.749363 
L 467.140704 122.571954 
L 469.689813 121.788766 
L 472.238922 112.802761 
L 474.788031 119.731 
L 477.33714 125.554014 
L 479.886249 111.622095 
L 482.435359 121.611042 
L 484.984468 121.702973 
L 487.533577 127.009223 
L 490.082686 133.149544 
L 492.631795 111.633696 
L 495.180905 126.273374 
L 497.730014 121.622198 
L 500.279123 123.779948 
L 502.828232 114.542988 
L 505.377341 120.459435 
L 507.92645 124.883586 
L 510.47556 122.096577 
L 513.024669 124.077887 
L 515.573778 123.517905 
L 518.122887 133.848941 
L 520.671996 123.772725 
L 523.221106 112.449372 
L 525.770215 124.480361 
L 528.319324 117.902924 
L 530.868433 121.759912 
L 533.417542 115.995876 
L 535.966651 131.203004 
L 538.515761 113.115056 
L 541.06487 126.899644 
L 543.613979 120.178674 
L 546.163088 129.559658 
L 548.712197 124.624063 
L 551.261307 121.61938 
L 553.810416 115.623709 
L 556.359525 125.088335 
L 558.908634 129.122236 
L 561.457743 115.988693 
L 564.006852 120.185117 
L 566.555962 126.371307 
L 569.105071 120.701464 
L 571.65418 119.223869 
L 574.203289 122.313928 
L 576.752398 118.482031 
L 579.301508 117.681593 
L 581.850617 117.798514 
L 584.399726 125.933816 
L 586.948835 117.565198 
L 589.497944 114.298685 
L 592.047053 127.123585 
L 594.596163 113.155697 
L 597.145272 122.387352 
L 599.694381 122.893898 
L 602.24349 121.376043 
L 604.792599 127.539452 
L 607.341709 121.098485 
L 609.890818 123.815148 
L 612.439927 121.074358 
L 614.989036 116.095103 
L 617.538145 116.639264 
L 620.087254 124.370605 
L 622.636364 128.385508 
L 622.636364 128.385508 
" clip-path="url(#p3da81abe18)" style="fill: none; stroke: #ff0000; stroke-width: 1.5; stroke-linecap: square"/>
   </g>
   <g id="line2d_32">
    <path d="M 115.363636 369.36 
L 117.912746 330.255788 
L 120.461855 294.513126 
L 123.010964 278.203074 
L 128.109182 263.92884 
L 130.658291 260.916324 
L 135.75651 257.286068 
L 138.305619 254.598965 
L 140.854728 253.109617 
L 143.403837 252.471517 
L 145.952947 251.240714 
L 148.502056 250.151836 
L 151.051165 249.267612 
L 153.600274 248.781284 
L 156.149383 249.457242 
L 158.698492 248.44181 
L 161.247602 246.724189 
L 163.796711 247.150455 
L 166.34582 247.005421 
L 168.894929 246.621384 
L 171.444038 245.466118 
L 173.993148 245.949931 
L 176.542257 245.888678 
L 179.091366 245.679782 
L 181.640475 244.847992 
L 184.189584 244.302475 
L 186.738693 243.605381 
L 189.287803 244.475724 
L 191.836912 243.959187 
L 194.386021 244.574994 
L 196.93513 243.538793 
L 199.484239 242.963956 
L 202.033349 243.093599 
L 204.582458 242.620175 
L 207.131567 242.487309 
L 209.680676 242.596029 
L 212.229785 241.693957 
L 214.778894 242.098778 
L 217.328004 241.391524 
L 219.877113 242.28538 
L 222.426222 242.005931 
L 224.975331 242.26055 
L 227.52444 241.78027 
L 230.07355 242.243007 
L 232.622659 241.550045 
L 235.171768 241.800095 
L 237.720877 241.848711 
L 240.269986 241.378462 
L 242.819095 241.318376 
L 245.368205 240.095289 
L 247.917314 241.247851 
L 250.466423 240.856845 
L 253.015532 241.06319 
L 255.564641 240.805898 
L 260.66286 241.19748 
L 263.211969 241.846383 
L 265.761078 241.245832 
L 268.310187 240.86762 
L 270.859296 241.703937 
L 273.408406 240.775615 
L 275.957515 241.086078 
L 278.506624 240.833882 
L 281.055733 241.103597 
L 283.604842 241.005968 
L 286.153952 240.520312 
L 288.703061 239.896331 
L 291.25217 241.187248 
L 293.801279 240.623446 
L 296.350388 241.454153 
L 298.899497 241.068529 
L 301.448607 241.287437 
L 303.997716 241.805629 
L 306.546825 240.900922 
L 309.095934 240.419932 
L 311.645043 240.408189 
L 314.194153 241.255027 
L 316.743262 240.800424 
L 319.292371 240.976398 
L 321.84148 240.998492 
L 324.390589 241.457773 
L 326.939698 240.504066 
L 329.488808 240.754404 
L 332.037917 241.818625 
L 334.587026 240.84532 
L 337.136135 240.080538 
L 339.685244 241.267118 
L 342.234354 241.13415 
L 344.783463 239.930839 
L 347.332572 240.825545 
L 349.881681 240.341038 
L 357.529009 240.652885 
L 360.078118 241.00993 
L 362.627227 241.25469 
L 365.176336 241.72696 
L 367.725445 241.344477 
L 370.274555 240.590527 
L 372.823664 240.651061 
L 375.372773 240.222681 
L 377.921882 240.209785 
L 380.470991 239.90942 
L 383.020101 241.147258 
L 385.56921 240.394064 
L 388.118319 240.018822 
L 390.667428 240.865584 
L 393.216537 241.10611 
L 395.765646 240.577618 
L 398.314756 240.228403 
L 403.412974 240.168285 
L 405.962083 241.187382 
L 408.511192 240.143984 
L 411.060302 240.878465 
L 413.609411 240.660639 
L 416.15852 240.296826 
L 418.707629 240.536349 
L 421.256738 240.109965 
L 423.805847 240.235495 
L 426.354957 239.695597 
L 428.904066 240.374804 
L 431.453175 240.740419 
L 434.002284 239.856587 
L 436.551393 239.115226 
L 439.100503 240.276179 
L 441.649612 239.55907 
L 444.198721 239.891583 
L 446.74783 240.057379 
L 449.296939 240.703736 
L 451.846048 239.416026 
L 454.395158 240.314822 
L 456.944267 239.788449 
L 459.493376 240.202477 
L 462.042485 240.109849 
L 464.591594 239.888929 
L 467.140704 240.923097 
L 469.689813 239.929114 
L 472.238922 240.291611 
L 474.788031 240.972616 
L 479.886249 240.465769 
L 482.435359 241.161547 
L 484.984468 240.462235 
L 490.082686 240.826502 
L 495.180905 240.495197 
L 497.730014 241.003718 
L 500.279123 240.703651 
L 502.828232 240.019753 
L 505.377341 241.206383 
L 507.92645 240.36292 
L 510.47556 240.18496 
L 513.024669 240.368591 
L 515.573778 239.925758 
L 518.122887 241.291547 
L 520.671996 240.290757 
L 523.221106 240.010106 
L 525.770215 240.409959 
L 528.319324 240.251862 
L 530.868433 240.403209 
L 533.417542 239.814155 
L 538.515761 240.516083 
L 541.06487 241.058587 
L 543.613979 240.21546 
L 546.163088 240.795191 
L 551.261307 240.464858 
L 553.810416 241.125424 
L 556.359525 240.394378 
L 558.908634 240.67787 
L 561.457743 240.524695 
L 564.006852 240.035819 
L 566.555962 240.875771 
L 569.105071 240.040379 
L 571.65418 240.230057 
L 574.203289 240.988137 
L 576.752398 240.239328 
L 579.301508 240.247 
L 581.850617 240.400952 
L 584.399726 240.27363 
L 592.047053 240.543757 
L 594.596163 240.152899 
L 599.694381 240.548555 
L 607.341709 240.252594 
L 609.890818 239.758813 
L 612.439927 240.687895 
L 614.989036 239.809602 
L 617.538145 240.44406 
L 620.087254 240.330764 
L 622.636364 240.838607 
L 622.636364 240.838607 
" clip-path="url(#p3da81abe18)" style="fill: none; stroke: #0000ff; stroke-width: 1.5; stroke-linecap: square"/>
   </g>
   <g id="patch_3">
    <path d="M 90 384.48 
L 90 51.84 
" style="fill: none; stroke: #000000; stroke-width: 0.8; stroke-linejoin: miter; stroke-linecap: square"/>
   </g>
   <g id="patch_4">
    <path d="M 648 384.48 
L 648 51.84 
" style="fill: none; stroke: #000000; stroke-width: 0.8; stroke-linejoin: miter; stroke-linecap: square"/>
   </g>
   <g id="patch_5">
    <path d="M 90 384.48 
L 648 384.48 
" style="fill: none; stroke: #000000; stroke-width: 0.8; stroke-linejoin: miter; stroke-linecap: square"/>
   </g>
   <g id="patch_6">
    <path d="M 90 51.84 
L 648 51.84 
" style="fill: none; stroke: #000000; stroke-width: 0.8; stroke-linejoin: miter; stroke-linecap: square"/>
   </g>
   <g id="text_18">
    <!-- Zagregowane statystyki z 20 niezależnych ewolucji -->
    <g transform="translate(214.952812 45.84) scale(0.12 -0.12)">
     <defs>
      <path id="DejaVuSans-5a" d="M 359 4666 
L 4025 4666 
L 4025 4184 
L 1075 531 
L 4097 531 
L 4097 0 
L 288 0 
L 288 481 
L 3238 4134 
L 359 4134 
L 359 4666 
z
" transform="scale(0.015625)"/>
      <path id="DejaVuSans-67" d="M 2906 1791 
Q 2906 2416 2648 2759 
Q 2391 3103 1925 3103 
Q 1463 3103 1205 2759 
Q 947 2416 947 1791 
Q 947 1169 1205 825 
Q 1463 481 1925 481 
Q 2391 481 2648 825 
Q 2906 1169 2906 1791 
z
M 3481 434 
Q 3481 -459 3084 -895 
Q 2688 -1331 1869 -1331 
Q 1566 -1331 1297 -1286 
Q 1028 -1241 775 -1147 
L 775 -588 
Q 1028 -725 1275 -790 
Q 1522 -856 1778 -856 
Q 2344 -856 2625 -561 
Q 2906 -266 2906 331 
L 2906 616 
Q 2728 306 2450 153 
Q 2172 0 1784 0 
Q 1141 0 747 490 
Q 353 981 353 1791 
Q 353 2603 747 3093 
Q 1141 3584 1784 3584 
Q 2172 3584 2450 3431 
Q 2728 3278 2906 2969 
L 2906 3500 
L 3481 3500 
L 3481 434 
z
" transform="scale(0.015625)"/>
      <path id="DejaVuSans-6f" d="M 1959 3097 
Q 1497 3097 1228 2736 
Q 959 2375 959 1747 
Q 959 1119 1226 758 
Q 1494 397 1959 397 
Q 2419 397 2687 759 
Q 2956 1122 2956 1747 
Q 2956 2369 2687 2733 
Q 2419 3097 1959 3097 
z
M 1959 3584 
Q 2709 3584 3137 3096 
Q 3566 2609 3566 1747 
Q 3566 888 3137 398 
Q 2709 -91 1959 -91 
Q 1206 -91 779 398 
Q 353 888 353 1747 
Q 353 2609 779 3096 
Q 1206 3584 1959 3584 
z
" transform="scale(0.015625)"/>
      <path id="DejaVuSans-77" d="M 269 3500 
L 844 3500 
L 1563 769 
L 2278 3500 
L 2956 3500 
L 3675 769 
L 4391 3500 
L 4966 3500 
L 4050 0 
L 3372 0 
L 2619 2869 
L 1863 0 
L 1184 0 
L 269 3500 
z
" transform="scale(0.015625)"/>
      <path id="DejaVuSans-20" transform="scale(0.015625)"/>
      <path id="DejaVuSans-79" d="M 2059 -325 
Q 1816 -950 1584 -1140 
Q 1353 -1331 966 -1331 
L 506 -1331 
L 506 -850 
L 844 -850 
Q 1081 -850 1212 -737 
Q 1344 -625 1503 -206 
L 1606 56 
L 191 3500 
L 800 3500 
L 1894 763 
L 2988 3500 
L 3597 3500 
L 2059 -325 
z
" transform="scale(0.015625)"/>
      <path id="DejaVuSans-6b" d="M 581 4863 
L 1159 4863 
L 1159 1991 
L 2875 3500 
L 3609 3500 
L 1753 1863 
L 3688 0 
L 2938 0 
L 1159 1709 
L 1159 0 
L 581 0 
L 581 4863 
z
" transform="scale(0.015625)"/>
      <path id="DejaVuSans-7a" d="M 353 3500 
L 3084 3500 
L 3084 2975 
L 922 459 
L 3084 459 
L 3084 0 
L 275 0 
L 275 525 
L 2438 3041 
L 353 3041 
L 353 3500 
z
" transform="scale(0.015625)"/>
      <path id="DejaVuSans-6c" d="M 603 4863 
L 1178 4863 
L 1178 0 
L 603 0 
L 603 4863 
z
" transform="scale(0.015625)"/>
      <path id="DejaVuSans-17c" d="M 1378 4863 
L 1953 4863 
L 1953 4134 
L 1378 4134 
L 1378 4863 
z
M 1672 3584 
L 1672 3584 
z
M 353 3500 
L 3084 3500 
L 3084 2975 
L 922 459 
L 3084 459 
L 3084 0 
L 275 0 
L 275 525 
L 2438 3041 
L 353 3041 
L 353 3500 
z
" transform="scale(0.015625)"/>
      <path id="DejaVuSans-68" d="M 3513 2113 
L 3513 0 
L 2938 0 
L 2938 2094 
Q 2938 2591 2744 2837 
Q 2550 3084 2163 3084 
Q 1697 3084 1428 2787 
Q 1159 2491 1159 1978 
L 1159 0 
L 581 0 
L 581 4863 
L 1159 4863 
L 1159 2956 
Q 1366 3272 1645 3428 
Q 1925 3584 2291 3584 
Q 2894 3584 3203 3211 
Q 3513 2838 3513 2113 
z
" transform="scale(0.015625)"/>
      <path id="DejaVuSans-75" d="M 544 1381 
L 544 3500 
L 1119 3500 
L 1119 1403 
Q 1119 906 1312 657 
Q 1506 409 1894 409 
Q 2359 409 2629 706 
Q 2900 1003 2900 1516 
L 2900 3500 
L 3475 3500 
L 3475 0 
L 2900 0 
L 2900 538 
Q 2691 219 2414 64 
Q 2138 -91 1772 -91 
Q 1169 -91 856 284 
Q 544 659 544 1381 
z
M 1991 3584 
L 1991 3584 
z
" transform="scale(0.015625)"/>
     </defs>
     <use xlink:href="#DejaVuSans-5a"/>
     <use xlink:href="#DejaVuSans-61" transform="translate(68.505859 0)"/>
     <use xlink:href="#DejaVuSans-67" transform="translate(129.785156 0)"/>
     <use xlink:href="#DejaVuSans-72" transform="translate(193.261719 0)"/>
     <use xlink:href="#DejaVuSans-65" transform="translate(232.125 0)"/>
     <use xlink:href="#DejaVuSans-67" transform="translate(293.648438 0)"/>
     <use xlink:href="#DejaVuSans-6f" transform="translate(357.125 0)"/>
     <use xlink:href="#DejaVuSans-77" transform="translate(418.306641 0)"/>
     <use xlink:href="#DejaVuSans-61" transform="translate(500.09375 0)"/>
     <use xlink:href="#DejaVuSans-6e" transform="translate(561.373047 0)"/>
     <use xlink:href="#DejaVuSans-65" transform="translate(624.751953 0)"/>
     <use xlink:href="#DejaVuSans-20" transform="translate(686.275391 0)"/>
     <use xlink:href="#DejaVuSans-73" transform="translate(718.0625 0)"/>
     <use xlink:href="#DejaVuSans-74" transform="translate(770.162109 0)"/>
     <use xlink:href="#DejaVuSans-61" transform="translate(809.371094 0)"/>
     <use xlink:href="#DejaVuSans-74" transform="translate(870.650391 0)"/>
     <use xlink:href="#DejaVuSans-79" transform="translate(909.859375 0)"/>
     <use xlink:href="#DejaVuSans-73" transform="translate(969.039062 0)"/>
     <use xlink:href="#DejaVuSans-74" transform="translate(1021.138672 0)"/>
     <use xlink:href="#DejaVuSans-79" transform="translate(1060.347656 0)"/>
     <use xlink:href="#DejaVuSans-6b" transform="translate(1119.527344 0)"/>
     <use xlink:href="#DejaVuSans-69" transform="translate(1177.4375 0)"/>
     <use xlink:href="#DejaVuSans-20" transform="translate(1205.220703 0)"/>
     <use xlink:href="#DejaVuSans-7a" transform="translate(1237.007812 0)"/>
     <use xlink:href="#DejaVuSans-20" transform="translate(1289.498047 0)"/>
     <use xlink:href="#DejaVuSans-32" transform="translate(1321.285156 0)"/>
     <use xlink:href="#DejaVuSans-30" transform="translate(1384.908203 0)"/>
     <use xlink:href="#DejaVuSans-20" transform="translate(1448.53125 0)"/>
     <use xlink:href="#DejaVuSans-6e" transform="translate(1480.318359 0)"/>
     <use xlink:href="#DejaVuSans-69" transform="translate(1543.697266 0)"/>
     <use xlink:href="#DejaVuSans-65" transform="translate(1571.480469 0)"/>
     <use xlink:href="#DejaVuSans-7a" transform="translate(1633.003906 0)"/>
     <use xlink:href="#DejaVuSans-61" transform="translate(1685.494141 0)"/>
     <use xlink:href="#DejaVuSans-6c" transform="translate(1746.773438 0)"/>
     <use xlink:href="#DejaVuSans-65" transform="translate(1774.556641 0)"/>
     <use xlink:href="#DejaVuSans-17c" transform="translate(1836.080078 0)"/>
     <use xlink:href="#DejaVuSans-6e" transform="translate(1888.570312 0)"/>
     <use xlink:href="#DejaVuSans-79" transform="translate(1951.949219 0)"/>
     <use xlink:href="#DejaVuSans-63" transform="translate(2011.128906 0)"/>
     <use xlink:href="#DejaVuSans-68" transform="translate(2066.109375 0)"/>
     <use xlink:href="#DejaVuSans-20" transform="translate(2129.488281 0)"/>
     <use xlink:href="#DejaVuSans-65" transform="translate(2161.275391 0)"/>
     <use xlink:href="#DejaVuSans-77" transform="translate(2222.798828 0)"/>
     <use xlink:href="#DejaVuSans-6f" transform="translate(2304.585938 0)"/>
     <use xlink:href="#DejaVuSans-6c" transform="translate(2365.767578 0)"/>
     <use xlink:href="#DejaVuSans-75" transform="translate(2393.550781 0)"/>
     <use xlink:href="#DejaVuSans-63" transform="translate(2456.929688 0)"/>
     <use xlink:href="#DejaVuSans-6a" transform="translate(2511.910156 0)"/>
     <use xlink:href="#DejaVuSans-69" transform="translate(2539.693359 0)"/>
    </g>
   </g>
   <g id="legend_1">
    <g id="patch_7">
     <path d="M 379.426562 379.48 
L 641 379.48 
Q 643 379.48 643 377.48 
L 643 330.739375 
Q 643 328.739375 641 328.739375 
L 379.426562 328.739375 
Q 377.426562 328.739375 377.426562 330.739375 
L 377.426562 377.48 
Q 377.426562 379.48 379.426562 379.48 
z
" style="fill: #ffffff; opacity: 0.8; stroke: #cccccc; stroke-linejoin: miter"/>
    </g>
    <g id="line2d_33">
     <path d="M 381.426562 338.490937 
L 391.426562 338.490937 
L 401.426562 338.490937 
" style="fill: none; stroke: #ff0000; stroke-width: 1.5; stroke-linecap: square"/>
    </g>
    <g id="text_19">
     <!-- Średnie przystosowanie najlepszego osobnika -->
     <g transform="translate(409.426562 341.990937) scale(0.1 -0.1)">
      <defs>
       <path id="DejaVuSans-15a" d="M 2236 5921 
L 2814 5921 
L 2102 5096 
L 1623 5096 
L 2236 5921 
z
M 3425 4513 
L 3425 3897 
Q 3066 4069 2747 4153 
Q 2428 4238 2131 4238 
Q 1616 4238 1336 4038 
Q 1056 3838 1056 3469 
Q 1056 3159 1242 3001 
Q 1428 2844 1947 2747 
L 2328 2669 
Q 3034 2534 3370 2195 
Q 3706 1856 3706 1288 
Q 3706 609 3251 259 
Q 2797 -91 1919 -91 
Q 1588 -91 1214 -16 
Q 841 59 441 206 
L 441 856 
Q 825 641 1194 531 
Q 1563 422 1919 422 
Q 2459 422 2753 634 
Q 3047 847 3047 1241 
Q 3047 1584 2836 1778 
Q 2625 1972 2144 2069 
L 1759 2144 
Q 1053 2284 737 2584 
Q 422 2884 422 3419 
Q 422 4038 858 4394 
Q 1294 4750 2059 4750 
Q 2388 4750 2728 4690 
Q 3069 4631 3425 4513 
z
" transform="scale(0.015625)"/>
       <path id="DejaVuSans-64" d="M 2906 2969 
L 2906 4863 
L 3481 4863 
L 3481 0 
L 2906 0 
L 2906 525 
Q 2725 213 2448 61 
Q 2172 -91 1784 -91 
Q 1150 -91 751 415 
Q 353 922 353 1747 
Q 353 2572 751 3078 
Q 1150 3584 1784 3584 
Q 2172 3584 2448 3432 
Q 2725 3281 2906 2969 
z
M 947 1747 
Q 947 1113 1208 752 
Q 1469 391 1925 391 
Q 2381 391 2643 752 
Q 2906 1113 2906 1747 
Q 2906 2381 2643 2742 
Q 2381 3103 1925 3103 
Q 1469 3103 1208 2742 
Q 947 2381 947 1747 
z
" transform="scale(0.015625)"/>
       <path id="DejaVuSans-70" d="M 1159 525 
L 1159 -1331 
L 581 -1331 
L 581 3500 
L 1159 3500 
L 1159 2969 
Q 1341 3281 1617 3432 
Q 1894 3584 2278 3584 
Q 2916 3584 3314 3078 
Q 3713 2572 3713 1747 
Q 3713 922 3314 415 
Q 2916 -91 2278 -91 
Q 1894 -91 1617 61 
Q 1341 213 1159 525 
z
M 3116 1747 
Q 3116 2381 2855 2742 
Q 2594 3103 2138 3103 
Q 1681 3103 1420 2742 
Q 1159 2381 1159 1747 
Q 1159 1113 1420 752 
Q 1681 391 2138 391 
Q 2594 391 2855 752 
Q 3116 1113 3116 1747 
z
" transform="scale(0.015625)"/>
       <path id="DejaVuSans-62" d="M 3116 1747 
Q 3116 2381 2855 2742 
Q 2594 3103 2138 3103 
Q 1681 3103 1420 2742 
Q 1159 2381 1159 1747 
Q 1159 1113 1420 752 
Q 1681 391 2138 391 
Q 2594 391 2855 752 
Q 3116 1113 3116 1747 
z
M 1159 2969 
Q 1341 3281 1617 3432 
Q 1894 3584 2278 3584 
Q 2916 3584 3314 3078 
Q 3713 2572 3713 1747 
Q 3713 922 3314 415 
Q 2916 -91 2278 -91 
Q 1894 -91 1617 61 
Q 1341 213 1159 525 
L 1159 0 
L 581 0 
L 581 4863 
L 1159 4863 
L 1159 2969 
z
" transform="scale(0.015625)"/>
      </defs>
      <use xlink:href="#DejaVuSans-15a"/>
      <use xlink:href="#DejaVuSans-72" transform="translate(63.476562 0)"/>
      <use xlink:href="#DejaVuSans-65" transform="translate(102.339844 0)"/>
      <use xlink:href="#DejaVuSans-64" transform="translate(163.863281 0)"/>
      <use xlink:href="#DejaVuSans-6e" transform="translate(227.339844 0)"/>
      <use xlink:href="#DejaVuSans-69" transform="translate(290.71875 0)"/>
      <use xlink:href="#DejaVuSans-65" transform="translate(318.501953 0)"/>
      <use xlink:href="#DejaVuSans-20" transform="translate(380.025391 0)"/>
      <use xlink:href="#DejaVuSans-70" transform="translate(411.8125 0)"/>
      <use xlink:href="#DejaVuSans-72" transform="translate(475.289062 0)"/>
      <use xlink:href="#DejaVuSans-7a" transform="translate(516.402344 0)"/>
      <use xlink:href="#DejaVuSans-79" transform="translate(568.892578 0)"/>
      <use xlink:href="#DejaVuSans-73" transform="translate(628.072266 0)"/>
      <use xlink:href="#DejaVuSans-74" transform="translate(680.171875 0)"/>
      <use xlink:href="#DejaVuSans-6f" transform="translate(719.380859 0)"/>
      <use xlink:href="#DejaVuSans-73" transform="translate(780.5625 0)"/>
      <use xlink:href="#DejaVuSans-6f" transform="translate(832.662109 0)"/>
      <use xlink:href="#DejaVuSans-77" transform="translate(893.84375 0)"/>
      <use xlink:href="#DejaVuSans-61" transform="translate(975.630859 0)"/>
      <use xlink:href="#DejaVuSans-6e" transform="translate(1036.910156 0)"/>
      <use xlink:href="#DejaVuSans-69" transform="translate(1100.289062 0)"/>
      <use xlink:href="#DejaVuSans-65" transform="translate(1128.072266 0)"/>
      <use xlink:href="#DejaVuSans-20" transform="translate(1189.595703 0)"/>
      <use xlink:href="#DejaVuSans-6e" transform="translate(1221.382812 0)"/>
      <use xlink:href="#DejaVuSans-61" transform="translate(1284.761719 0)"/>
      <use xlink:href="#DejaVuSans-6a" transform="translate(1346.041016 0)"/>
      <use xlink:href="#DejaVuSans-6c" transform="translate(1373.824219 0)"/>
      <use xlink:href="#DejaVuSans-65" transform="translate(1401.607422 0)"/>
      <use xlink:href="#DejaVuSans-70" transform="translate(1463.130859 0)"/>
      <use xlink:href="#DejaVuSans-73" transform="translate(1526.607422 0)"/>
      <use xlink:href="#DejaVuSans-7a" transform="translate(1578.707031 0)"/>
      <use xlink:href="#DejaVuSans-65" transform="translate(1631.197266 0)"/>
      <use xlink:href="#DejaVuSans-67" transform="translate(1692.720703 0)"/>
      <use xlink:href="#DejaVuSans-6f" transform="translate(1756.197266 0)"/>
      <use xlink:href="#DejaVuSans-20" transform="translate(1817.378906 0)"/>
      <use xlink:href="#DejaVuSans-6f" transform="translate(1849.166016 0)"/>
      <use xlink:href="#DejaVuSans-73" transform="translate(1910.347656 0)"/>
      <use xlink:href="#DejaVuSans-6f" transform="translate(1962.447266 0)"/>
      <use xlink:href="#DejaVuSans-62" transform="translate(2023.628906 0)"/>
      <use xlink:href="#DejaVuSans-6e" transform="translate(2087.105469 0)"/>
      <use xlink:href="#DejaVuSans-69" transform="translate(2150.484375 0)"/>
      <use xlink:href="#DejaVuSans-6b" transform="translate(2178.267578 0)"/>
      <use xlink:href="#DejaVuSans-61" transform="translate(2234.427734 0)"/>
     </g>
    </g>
    <g id="patch_8">
     <path d="M 381.426562 357.069062 
L 401.426562 357.069062 
L 401.426562 350.069062 
L 381.426562 350.069062 
z
" style="fill: #ff0000; fill-opacity: 0.2; stroke: #ff0000; stroke-opacity: 0.2; stroke-linejoin: miter"/>
    </g>
    <g id="text_20">
     <!-- ±1 Odchylenie std. najlepszych osobników -->
     <g transform="translate(409.426562 357.069062) scale(0.1 -0.1)">
      <defs>
       <path id="DejaVuSans-b1" d="M 2944 4013 
L 2944 2803 
L 4684 2803 
L 4684 2272 
L 2944 2272 
L 2944 1063 
L 2419 1063 
L 2419 2272 
L 678 2272 
L 678 2803 
L 2419 2803 
L 2419 4013 
L 2944 4013 
z
M 678 531 
L 4684 531 
L 4684 0 
L 678 0 
L 678 531 
z
" transform="scale(0.015625)"/>
       <path id="DejaVuSans-4f" d="M 2522 4238 
Q 1834 4238 1429 3725 
Q 1025 3213 1025 2328 
Q 1025 1447 1429 934 
Q 1834 422 2522 422 
Q 3209 422 3611 934 
Q 4013 1447 4013 2328 
Q 4013 3213 3611 3725 
Q 3209 4238 2522 4238 
z
M 2522 4750 
Q 3503 4750 4090 4092 
Q 4678 3434 4678 2328 
Q 4678 1225 4090 567 
Q 3503 -91 2522 -91 
Q 1538 -91 948 565 
Q 359 1222 359 2328 
Q 359 3434 948 4092 
Q 1538 4750 2522 4750 
z
" transform="scale(0.015625)"/>
       <path id="DejaVuSans-2e" d="M 684 794 
L 1344 794 
L 1344 0 
L 684 0 
L 684 794 
z
" transform="scale(0.015625)"/>
       <path id="DejaVuSans-f3" d="M 1959 3097 
Q 1497 3097 1228 2736 
Q 959 2375 959 1747 
Q 959 1119 1226 758 
Q 1494 397 1959 397 
Q 2419 397 2687 759 
Q 2956 1122 2956 1747 
Q 2956 2369 2687 2733 
Q 2419 3097 1959 3097 
z
M 1959 3584 
Q 2709 3584 3137 3096 
Q 3566 2609 3566 1747 
Q 3566 888 3137 398 
Q 2709 -91 1959 -91 
Q 1206 -91 779 398 
Q 353 888 353 1747 
Q 353 2609 779 3096 
Q 1206 3584 1959 3584 
z
M 2394 5119 
L 3016 5119 
L 1998 3944 
L 1519 3944 
L 2394 5119 
z
" transform="scale(0.015625)"/>
      </defs>
      <use xlink:href="#DejaVuSans-b1"/>
      <use xlink:href="#DejaVuSans-31" transform="translate(83.789062 0)"/>
      <use xlink:href="#DejaVuSans-20" transform="translate(147.412109 0)"/>
      <use xlink:href="#DejaVuSans-4f" transform="translate(179.199219 0)"/>
      <use xlink:href="#DejaVuSans-64" transform="translate(257.910156 0)"/>
      <use xlink:href="#DejaVuSans-63" transform="translate(321.386719 0)"/>
      <use xlink:href="#DejaVuSans-68" transform="translate(376.367188 0)"/>
      <use xlink:href="#DejaVuSans-79" transform="translate(439.746094 0)"/>
      <use xlink:href="#DejaVuSans-6c" transform="translate(498.925781 0)"/>
      <use xlink:href="#DejaVuSans-65" transform="translate(526.708984 0)"/>
      <use xlink:href="#DejaVuSans-6e" transform="translate(588.232422 0)"/>
      <use xlink:href="#DejaVuSans-69" transform="translate(651.611328 0)"/>
      <use xlink:href="#DejaVuSans-65" transform="translate(679.394531 0)"/>
      <use xlink:href="#DejaVuSans-20" transform="translate(740.917969 0)"/>
      <use xlink:href="#DejaVuSans-73" transform="translate(772.705078 0)"/>
      <use xlink:href="#DejaVuSans-74" transform="translate(824.804688 0)"/>
      <use xlink:href="#DejaVuSans-64" transform="translate(864.013672 0)"/>
      <use xlink:href="#DejaVuSans-2e" transform="translate(927.490234 0)"/>
      <use xlink:href="#DejaVuSans-20" transform="translate(959.277344 0)"/>
      <use xlink:href="#DejaVuSans-6e" transform="translate(991.064453 0)"/>
      <use xlink:href="#DejaVuSans-61" transform="translate(1054.443359 0)"/>
      <use xlink:href="#DejaVuSans-6a" transform="translate(1115.722656 0)"/>
      <use xlink:href="#DejaVuSans-6c" transform="translate(1143.505859 0)"/>
      <use xlink:href="#DejaVuSans-65" transform="translate(1171.289062 0)"/>
      <use xlink:href="#DejaVuSans-70" transform="translate(1232.8125 0)"/>
      <use xlink:href="#DejaVuSans-73" transform="translate(1296.289062 0)"/>
      <use xlink:href="#DejaVuSans-7a" transform="translate(1348.388672 0)"/>
      <use xlink:href="#DejaVuSans-79" transform="translate(1400.878906 0)"/>
      <use xlink:href="#DejaVuSans-63" transform="translate(1460.058594 0)"/>
      <use xlink:href="#DejaVuSans-68" transform="translate(1515.039062 0)"/>
      <use xlink:href="#DejaVuSans-20" transform="translate(1578.417969 0)"/>
      <use xlink:href="#DejaVuSans-6f" transform="translate(1610.205078 0)"/>
      <use xlink:href="#DejaVuSans-73" transform="translate(1671.386719 0)"/>
      <use xlink:href="#DejaVuSans-6f" transform="translate(1723.486328 0)"/>
      <use xlink:href="#DejaVuSans-62" transform="translate(1784.667969 0)"/>
      <use xlink:href="#DejaVuSans-6e" transform="translate(1848.144531 0)"/>
      <use xlink:href="#DejaVuSans-69" transform="translate(1911.523438 0)"/>
      <use xlink:href="#DejaVuSans-6b" transform="translate(1939.306641 0)"/>
      <use xlink:href="#DejaVuSans-f3" transform="translate(1993.591797 0)"/>
      <use xlink:href="#DejaVuSans-77" transform="translate(2054.773438 0)"/>
     </g>
    </g>
    <g id="line2d_34">
     <path d="M 381.426562 369.900312 
L 391.426562 369.900312 
L 401.426562 369.900312 
" style="fill: none; stroke: #0000ff; stroke-width: 1.5; stroke-linecap: square"/>
    </g>
    <g id="text_21">
     <!-- Średnie przystosowanie całej populacji -->
     <g transform="translate(409.426562 373.400312) scale(0.1 -0.1)">
      <defs>
       <path id="DejaVuSans-142" d="M 622 4863 
L 1197 4863 
L 1197 2981 
L 1588 3263 
L 1825 2931 
L 1197 2491 
L 1197 0 
L 622 0 
L 622 2081 
L 238 1806 
L 6 2138 
L 622 2578 
L 622 4863 
z
" transform="scale(0.015625)"/>
      </defs>
      <use xlink:href="#DejaVuSans-15a"/>
      <use xlink:href="#DejaVuSans-72" transform="translate(63.476562 0)"/>
      <use xlink:href="#DejaVuSans-65" transform="translate(102.339844 0)"/>
      <use xlink:href="#DejaVuSans-64" transform="translate(163.863281 0)"/>
      <use xlink:href="#DejaVuSans-6e" transform="translate(227.339844 0)"/>
      <use xlink:href="#DejaVuSans-69" transform="translate(290.71875 0)"/>
      <use xlink:href="#DejaVuSans-65" transform="translate(318.501953 0)"/>
      <use xlink:href="#DejaVuSans-20" transform="translate(380.025391 0)"/>
      <use xlink:href="#DejaVuSans-70" transform="translate(411.8125 0)"/>
      <use xlink:href="#DejaVuSans-72" transform="translate(475.289062 0)"/>
      <use xlink:href="#DejaVuSans-7a" transform="translate(516.402344 0)"/>
      <use xlink:href="#DejaVuSans-79" transform="translate(568.892578 0)"/>
      <use xlink:href="#DejaVuSans-73" transform="translate(628.072266 0)"/>
      <use xlink:href="#DejaVuSans-74" transform="translate(680.171875 0)"/>
      <use xlink:href="#DejaVuSans-6f" transform="translate(719.380859 0)"/>
      <use xlink:href="#DejaVuSans-73" transform="translate(780.5625 0)"/>
      <use xlink:href="#DejaVuSans-6f" transform="translate(832.662109 0)"/>
      <use xlink:href="#DejaVuSans-77" transform="translate(893.84375 0)"/>
      <use xlink:href="#DejaVuSans-61" transform="translate(975.630859 0)"/>
      <use xlink:href="#DejaVuSans-6e" transform="translate(1036.910156 0)"/>
      <use xlink:href="#DejaVuSans-69" transform="translate(1100.289062 0)"/>
      <use xlink:href="#DejaVuSans-65" transform="translate(1128.072266 0)"/>
      <use xlink:href="#DejaVuSans-20" transform="translate(1189.595703 0)"/>
      <use xlink:href="#DejaVuSans-63" transform="translate(1221.382812 0)"/>
      <use xlink:href="#DejaVuSans-61" transform="translate(1276.363281 0)"/>
      <use xlink:href="#DejaVuSans-142" transform="translate(1337.642578 0)"/>
      <use xlink:href="#DejaVuSans-65" transform="translate(1366.060547 0)"/>
      <use xlink:href="#DejaVuSans-6a" transform="translate(1427.583984 0)"/>
      <use xlink:href="#DejaVuSans-20" transform="translate(1455.367188 0)"/>
      <use xlink:href="#DejaVuSans-70" transform="translate(1487.154297 0)"/>
      <use xlink:href="#DejaVuSans-6f" transform="translate(1550.630859 0)"/>
      <use xlink:href="#DejaVuSans-70" transform="translate(1611.8125 0)"/>
      <use xlink:href="#DejaVuSans-75" transform="translate(1675.289062 0)"/>
      <use xlink:href="#DejaVuSans-6c" transform="translate(1738.667969 0)"/>
      <use xlink:href="#DejaVuSans-61" transform="translate(1766.451172 0)"/>
      <use xlink:href="#DejaVuSans-63" transform="translate(1827.730469 0)"/>
      <use xlink:href="#DejaVuSans-6a" transform="translate(1882.710938 0)"/>
      <use xlink:href="#DejaVuSans-69" transform="translate(1910.494141 0)"/>
     </g>
    </g>
   </g>
  </g>
 </g>
 <defs>
  <clipPath id="p3da81abe18">
   <rect x="90" y="51.84" width="558" height="332.64"/>
  </clipPath>
 </defs>
</svg>
