<?xml version="1.0" encoding="utf-8" standalone="no"?>
<!DOCTYPE svg PUBLIC "-//W3C//DTD SVG 1.1//EN"
  "http://www.w3.org/Graphics/SVG/1.1/DTD/svg11.dtd">
<svg xmlns:xlink="http://www.w3.org/1999/xlink" width="460.8pt" height="345.6pt" viewBox="0 0 460.8 345.6" xmlns="http://www.w3.org/2000/svg" version="1.1">
 <metadata>
  <rdf:RDF xmlns:dc="http://purl.org/dc/elements/1.1/" xmlns:cc="http://creativecommons.org/ns#" xmlns:rdf="http://www.w3.org/1999/02/22-rdf-syntax-ns#">
   <cc:Work>
    <dc:type rdf:resource="http://purl.org/dc/dcmitype/StillImage"/>
    <dc:date>2026-04-26T22:07:17.755658</dc:date>
    <dc:format>image/svg+xml</dc:format>
    <dc:creator>
     <cc:Agent>
      <dc:title>Matplotlib v3.10.8, https://matplotlib.org/</dc:title>
     </cc:Agent>
    </dc:creator>
   </cc:Work>
  </rdf:RDF>
 </metadata>
 <defs>
  <style type="text/css">*{stroke-linejoin: round; stroke-linecap: butt}</style>
 </defs>
 <g id="figure_1">
  <g id="patch_1">
   <path d="M 0 345.6 
L 460.8 345.6 
L 460.8 0 
L 0 0 
z
" style="fill: #ffffff"/>
  </g>
  <g id="axes_1">
   <g id="patch_2">
    <path d="M 57.6 307.584 
L 414.72 307.584 
L 414.72 41.472 
L 57.6 41.472 
z
" style="fill: #ffffff"/>
   </g>
   <g id="matplotlib.axis_1">
    <g id="xtick_1">
     <g id="line2d_1">
      <path d="M 72.201297 307.584 
L 72.201297 41.472 
" clip-path="url(#p5a17e94040)" style="fill: none; stroke: #b0b0b0; stroke-width: 0.8; stroke-linecap: square"/>
     </g>
     <g id="line2d_2">
      <defs>
       <path id="mc797f1bb11" d="M 0 0 
L 0 3.5 
" style="stroke: #000000; stroke-width: 0.8"/>
      </defs>
      <g>
       <use xlink:href="#mc797f1bb11" x="72.201297" y="307.584" style="stroke: #000000; stroke-width: 0.8"/>
      </g>
     </g>
     <g id="text_1">
      <!-- 0 -->
      <g transform="translate(69.020047 322.182437) scale(0.1 -0.1)">
       <defs>
        <path id="DejaVuSans-30" d="M 2034 4250 
Q 1547 4250 1301 3770 
Q 1056 3291 1056 2328 
Q 1056 1369 1301 889 
Q 1547 409 2034 409 
Q 2525 409 2770 889 
Q 3016 1369 3016 2328 
Q 3016 3291 2770 3770 
Q 2525 4250 2034 4250 
z
M 2034 4750 
Q 2819 4750 3233 4129 
Q 3647 3509 3647 2328 
Q 3647 1150 3233 529 
Q 2819 -91 2034 -91 
Q 1250 -91 836 529 
Q 422 1150 422 2328 
Q 422 3509 836 4129 
Q 1250 4750 2034 4750 
z
" transform="scale(0.015625)"/>
       </defs>
       <use xlink:href="#DejaVuSans-30"/>
      </g>
     </g>
    </g>
    <g id="xtick_2">
     <g id="line2d_3">
      <path d="M 112.987044 307.584 
L 112.987044 41.472 
" clip-path="url(#p5a17e94040)" style="fill: none; stroke: #b0b0b0; stroke-width: 0.8; stroke-linecap: square"/>
     </g>
     <g id="line2d_4">
      <g>
       <use xlink:href="#mc797f1bb11" x="112.987044" y="307.584" style="stroke: #000000; stroke-width: 0.8"/>
      </g>
     </g>
     <g id="text_2">
      <!-- 25 -->
      <g transform="translate(106.624544 322.182437) scale(0.1 -0.1)">
       <defs>
        <path id="DejaVuSans-32" d="M 1228 531 
L 3431 531 
L 3431 0 
L 469 0 
L 469 531 
Q 828 903 1448 1529 
Q 2069 2156 2228 2338 
Q 2531 2678 2651 2914 
Q 2772 3150 2772 3378 
Q 2772 3750 2511 3984 
Q 2250 4219 1831 4219 
Q 1534 4219 1204 4116 
Q 875 4013 500 3803 
L 500 4441 
Q 881 4594 1212 4672 
Q 1544 4750 1819 4750 
Q 2544 4750 2975 4387 
Q 3406 4025 3406 3419 
Q 3406 3131 3298 2873 
Q 3191 2616 2906 2266 
Q 2828 2175 2409 1742 
Q 1991 1309 1228 531 
z
" transform="scale(0.015625)"/>
        <path id="DejaVuSans-35" d="M 691 4666 
L 3169 4666 
L 3169 4134 
L 1269 4134 
L 1269 2991 
Q 1406 3038 1543 3061 
Q 1681 3084 1819 3084 
Q 2600 3084 3056 2656 
Q 3513 2228 3513 1497 
Q 3513 744 3044 326 
Q 2575 -91 1722 -91 
Q 1428 -91 1123 -41 
Q 819 9 494 109 
L 494 744 
Q 775 591 1075 516 
Q 1375 441 1709 441 
Q 2250 441 2565 725 
Q 2881 1009 2881 1497 
Q 2881 1984 2565 2268 
Q 2250 2553 1709 2553 
Q 1456 2553 1204 2497 
Q 953 2441 691 2322 
L 691 4666 
z
" transform="scale(0.015625)"/>
       </defs>
       <use xlink:href="#DejaVuSans-32"/>
       <use xlink:href="#DejaVuSans-35" transform="translate(63.623047 0)"/>
      </g>
     </g>
    </g>
    <g id="xtick_3">
     <g id="line2d_5">
      <path d="M 153.772791 307.584 
L 153.772791 41.472 
" clip-path="url(#p5a17e94040)" style="fill: none; stroke: #b0b0b0; stroke-width: 0.8; stroke-linecap: square"/>
     </g>
     <g id="line2d_6">
      <g>
       <use xlink:href="#mc797f1bb11" x="153.772791" y="307.584" style="stroke: #000000; stroke-width: 0.8"/>
      </g>
     </g>
     <g id="text_3">
      <!-- 50 -->
      <g transform="translate(147.410291 322.182437) scale(0.1 -0.1)">
       <use xlink:href="#DejaVuSans-35"/>
       <use xlink:href="#DejaVuSans-30" transform="translate(63.623047 0)"/>
      </g>
     </g>
    </g>
    <g id="xtick_4">
     <g id="line2d_7">
      <path d="M 194.558538 307.584 
L 194.558538 41.472 
" clip-path="url(#p5a17e94040)" style="fill: none; stroke: #b0b0b0; stroke-width: 0.8; stroke-linecap: square"/>
     </g>
     <g id="line2d_8">
      <g>
       <use xlink:href="#mc797f1bb11" x="194.558538" y="307.584" style="stroke: #000000; stroke-width: 0.8"/>
      </g>
     </g>
     <g id="text_4">
      <!-- 75 -->
      <g transform="translate(188.196038 322.182437) scale(0.1 -0.1)">
       <defs>
        <path id="DejaVuSans-37" d="M 525 4666 
L 3525 4666 
L 3525 4397 
L 1831 0 
L 1172 0 
L 2766 4134 
L 525 4134 
L 525 4666 
z
" transform="scale(0.015625)"/>
       </defs>
       <use xlink:href="#DejaVuSans-37"/>
       <use xlink:href="#DejaVuSans-35" transform="translate(63.623047 0)"/>
      </g>
     </g>
    </g>
    <g id="xtick_5">
     <g id="line2d_9">
      <path d="M 235.344285 307.584 
L 235.344285 41.472 
" clip-path="url(#p5a17e94040)" style="fill: none; stroke: #b0b0b0; stroke-width: 0.8; stroke-linecap: square"/>
     </g>
     <g id="line2d_10">
      <g>
       <use xlink:href="#mc797f1bb11" x="235.344285" y="307.584" style="stroke: #000000; stroke-width: 0.8"/>
      </g>
     </g>
     <g id="text_5">
      <!-- 100 -->
      <g transform="translate(225.800535 322.182437) scale(0.1 -0.1)">
       <defs>
        <path id="DejaVuSans-31" d="M 794 531 
L 1825 531 
L 1825 4091 
L 703 3866 
L 703 4441 
L 1819 4666 
L 2450 4666 
L 2450 531 
L 3481 531 
L 3481 0 
L 794 0 
L 794 531 
z
" transform="scale(0.015625)"/>
       </defs>
       <use xlink:href="#DejaVuSans-31"/>
       <use xlink:href="#DejaVuSans-30" transform="translate(63.623047 0)"/>
       <use xlink:href="#DejaVuSans-30" transform="translate(127.246094 0)"/>
      </g>
     </g>
    </g>
    <g id="xtick_6">
     <g id="line2d_11">
      <path d="M 276.130032 307.584 
L 276.130032 41.472 
" clip-path="url(#p5a17e94040)" style="fill: none; stroke: #b0b0b0; stroke-width: 0.8; stroke-linecap: square"/>
     </g>
     <g id="line2d_12">
      <g>
       <use xlink:href="#mc797f1bb11" x="276.130032" y="307.584" style="stroke: #000000; stroke-width: 0.8"/>
      </g>
     </g>
     <g id="text_6">
      <!-- 125 -->
      <g transform="translate(266.586282 322.182437) scale(0.1 -0.1)">
       <use xlink:href="#DejaVuSans-31"/>
       <use xlink:href="#DejaVuSans-32" transform="translate(63.623047 0)"/>
       <use xlink:href="#DejaVuSans-35" transform="translate(127.246094 0)"/>
      </g>
     </g>
    </g>
    <g id="xtick_7">
     <g id="line2d_13">
      <path d="M 316.915779 307.584 
L 316.915779 41.472 
" clip-path="url(#p5a17e94040)" style="fill: none; stroke: #b0b0b0; stroke-width: 0.8; stroke-linecap: square"/>
     </g>
     <g id="line2d_14">
      <g>
       <use xlink:href="#mc797f1bb11" x="316.915779" y="307.584" style="stroke: #000000; stroke-width: 0.8"/>
      </g>
     </g>
     <g id="text_7">
      <!-- 150 -->
      <g transform="translate(307.372029 322.182437) scale(0.1 -0.1)">
       <use xlink:href="#DejaVuSans-31"/>
       <use xlink:href="#DejaVuSans-35" transform="translate(63.623047 0)"/>
       <use xlink:href="#DejaVuSans-30" transform="translate(127.246094 0)"/>
      </g>
     </g>
    </g>
    <g id="xtick_8">
     <g id="line2d_15">
      <path d="M 357.701526 307.584 
L 357.701526 41.472 
" clip-path="url(#p5a17e94040)" style="fill: none; stroke: #b0b0b0; stroke-width: 0.8; stroke-linecap: square"/>
     </g>
     <g id="line2d_16">
      <g>
       <use xlink:href="#mc797f1bb11" x="357.701526" y="307.584" style="stroke: #000000; stroke-width: 0.8"/>
      </g>
     </g>
     <g id="text_8">
      <!-- 175 -->
      <g transform="translate(348.157776 322.182437) scale(0.1 -0.1)">
       <use xlink:href="#DejaVuSans-31"/>
       <use xlink:href="#DejaVuSans-37" transform="translate(63.623047 0)"/>
       <use xlink:href="#DejaVuSans-35" transform="translate(127.246094 0)"/>
      </g>
     </g>
    </g>
    <g id="xtick_9">
     <g id="line2d_17">
      <path d="M 398.487273 307.584 
L 398.487273 41.472 
" clip-path="url(#p5a17e94040)" style="fill: none; stroke: #b0b0b0; stroke-width: 0.8; stroke-linecap: square"/>
     </g>
     <g id="line2d_18">
      <g>
       <use xlink:href="#mc797f1bb11" x="398.487273" y="307.584" style="stroke: #000000; stroke-width: 0.8"/>
      </g>
     </g>
     <g id="text_9">
      <!-- 200 -->
      <g transform="translate(388.943523 322.182437) scale(0.1 -0.1)">
       <use xlink:href="#DejaVuSans-32"/>
       <use xlink:href="#DejaVuSans-30" transform="translate(63.623047 0)"/>
       <use xlink:href="#DejaVuSans-30" transform="translate(127.246094 0)"/>
      </g>
     </g>
    </g>
    <g id="text_10">
     <!-- Generacje -->
     <g transform="translate(210.629531 335.860562) scale(0.1 -0.1)">
      <defs>
       <path id="DejaVuSans-47" d="M 3809 666 
L 3809 1919 
L 2778 1919 
L 2778 2438 
L 4434 2438 
L 4434 434 
Q 4069 175 3628 42 
Q 3188 -91 2688 -91 
Q 1594 -91 976 548 
Q 359 1188 359 2328 
Q 359 3472 976 4111 
Q 1594 4750 2688 4750 
Q 3144 4750 3555 4637 
Q 3966 4525 4313 4306 
L 4313 3634 
Q 3963 3931 3569 4081 
Q 3175 4231 2741 4231 
Q 1884 4231 1454 3753 
Q 1025 3275 1025 2328 
Q 1025 1384 1454 906 
Q 1884 428 2741 428 
Q 3075 428 3337 486 
Q 3600 544 3809 666 
z
" transform="scale(0.015625)"/>
       <path id="DejaVuSans-65" d="M 3597 1894 
L 3597 1613 
L 953 1613 
Q 991 1019 1311 708 
Q 1631 397 2203 397 
Q 2534 397 2845 478 
Q 3156 559 3463 722 
L 3463 178 
Q 3153 47 2828 -22 
Q 2503 -91 2169 -91 
Q 1331 -91 842 396 
Q 353 884 353 1716 
Q 353 2575 817 3079 
Q 1281 3584 2069 3584 
Q 2775 3584 3186 3129 
Q 3597 2675 3597 1894 
z
M 3022 2063 
Q 3016 2534 2758 2815 
Q 2500 3097 2075 3097 
Q 1594 3097 1305 2825 
Q 1016 2553 972 2059 
L 3022 2063 
z
" transform="scale(0.015625)"/>
       <path id="DejaVuSans-6e" d="M 3513 2113 
L 3513 0 
L 2938 0 
L 2938 2094 
Q 2938 2591 2744 2837 
Q 2550 3084 2163 3084 
Q 1697 3084 1428 2787 
Q 1159 2491 1159 1978 
L 1159 0 
L 581 0 
L 581 3500 
L 1159 3500 
L 1159 2956 
Q 1366 3272 1645 3428 
Q 1925 3584 2291 3584 
Q 2894 3584 3203 3211 
Q 3513 2838 3513 2113 
z
" transform="scale(0.015625)"/>
       <path id="DejaVuSans-72" d="M 2631 2963 
Q 2534 3019 2420 3045 
Q 2306 3072 2169 3072 
Q 1681 3072 1420 2755 
Q 1159 2438 1159 1844 
L 1159 0 
L 581 0 
L 581 3500 
L 1159 3500 
L 1159 2956 
Q 1341 3275 1631 3429 
Q 1922 3584 2338 3584 
Q 2397 3584 2469 3576 
Q 2541 3569 2628 3553 
L 2631 2963 
z
" transform="scale(0.015625)"/>
       <path id="DejaVuSans-61" d="M 2194 1759 
Q 1497 1759 1228 1600 
Q 959 1441 959 1056 
Q 959 750 1161 570 
Q 1363 391 1709 391 
Q 2188 391 2477 730 
Q 2766 1069 2766 1631 
L 2766 1759 
L 2194 1759 
z
M 3341 1997 
L 3341 0 
L 2766 0 
L 2766 531 
Q 2569 213 2275 61 
Q 1981 -91 1556 -91 
Q 1019 -91 701 211 
Q 384 513 384 1019 
Q 384 1609 779 1909 
Q 1175 2209 1959 2209 
L 2766 2209 
L 2766 2266 
Q 2766 2663 2505 2880 
Q 2244 3097 1772 3097 
Q 1472 3097 1187 3025 
Q 903 2953 641 2809 
L 641 3341 
Q 956 3463 1253 3523 
Q 1550 3584 1831 3584 
Q 2591 3584 2966 3190 
Q 3341 2797 3341 1997 
z
" transform="scale(0.015625)"/>
       <path id="DejaVuSans-63" d="M 3122 3366 
L 3122 2828 
Q 2878 2963 2633 3030 
Q 2388 3097 2138 3097 
Q 1578 3097 1268 2742 
Q 959 2388 959 1747 
Q 959 1106 1268 751 
Q 1578 397 2138 397 
Q 2388 397 2633 464 
Q 2878 531 3122 666 
L 3122 134 
Q 2881 22 2623 -34 
Q 2366 -91 2075 -91 
Q 1284 -91 818 406 
Q 353 903 353 1747 
Q 353 2603 823 3093 
Q 1294 3584 2113 3584 
Q 2378 3584 2631 3529 
Q 2884 3475 3122 3366 
z
" transform="scale(0.015625)"/>
       <path id="DejaVuSans-6a" d="M 603 3500 
L 1178 3500 
L 1178 -63 
Q 1178 -731 923 -1031 
Q 669 -1331 103 -1331 
L -116 -1331 
L -116 -844 
L 38 -844 
Q 366 -844 484 -692 
Q 603 -541 603 -63 
L 603 3500 
z
M 603 4863 
L 1178 4863 
L 1178 4134 
L 603 4134 
L 603 4863 
z
" transform="scale(0.015625)"/>
      </defs>
      <use xlink:href="#DejaVuSans-47"/>
      <use xlink:href="#DejaVuSans-65" transform="translate(77.490234 0)"/>
      <use xlink:href="#DejaVuSans-6e" transform="translate(139.013672 0)"/>
      <use xlink:href="#DejaVuSans-65" transform="translate(202.392578 0)"/>
      <use xlink:href="#DejaVuSans-72" transform="translate(263.916016 0)"/>
      <use xlink:href="#DejaVuSans-61" transform="translate(305.029297 0)"/>
      <use xlink:href="#DejaVuSans-63" transform="translate(366.308594 0)"/>
      <use xlink:href="#DejaVuSans-6a" transform="translate(421.289062 0)"/>
      <use xlink:href="#DejaVuSans-65" transform="translate(449.072266 0)"/>
     </g>
    </g>
   </g>
   <g id="matplotlib.axis_2">
    <g id="ytick_1">
     <g id="line2d_19">
      <path d="M 57.6 137.956291 
L 414.72 137.956291 
" clip-path="url(#p5a17e94040)" style="fill: none; stroke: #b0b0b0; stroke-width: 0.8; stroke-linecap: square"/>
     </g>
     <g id="line2d_20">
      <defs>
       <path id="md321948413" d="M 0 0 
L -3.5 0 
" style="stroke: #000000; stroke-width: 0.8"/>
      </defs>
      <g>
       <use xlink:href="#md321948413" x="57.6" y="137.956291" style="stroke: #000000; stroke-width: 0.8"/>
      </g>
     </g>
     <g id="text_11">
      <!-- $\mathdefault{10^{2}}$ -->
      <g transform="translate(33 141.75551) scale(0.1 -0.1)">
       <use xlink:href="#DejaVuSans-31" transform="translate(0 0.765625)"/>
       <use xlink:href="#DejaVuSans-30" transform="translate(63.623047 0.765625)"/>
       <use xlink:href="#DejaVuSans-32" transform="translate(128.203125 39.046875) scale(0.7)"/>
      </g>
     </g>
    </g>
    <g id="text_12">
     <!-- Przystosowanie -->
     <g transform="translate(26.920312 213.170187) rotate(-90) scale(0.1 -0.1)">
      <defs>
       <path id="DejaVuSans-50" d="M 1259 4147 
L 1259 2394 
L 2053 2394 
Q 2494 2394 2734 2622 
Q 2975 2850 2975 3272 
Q 2975 3691 2734 3919 
Q 2494 4147 2053 4147 
L 1259 4147 
z
M 628 4666 
L 2053 4666 
Q 2838 4666 3239 4311 
Q 3641 3956 3641 3272 
Q 3641 2581 3239 2228 
Q 2838 1875 2053 1875 
L 1259 1875 
L 1259 0 
L 628 0 
L 628 4666 
z
" transform="scale(0.015625)"/>
       <path id="DejaVuSans-7a" d="M 353 3500 
L 3084 3500 
L 3084 2975 
L 922 459 
L 3084 459 
L 3084 0 
L 275 0 
L 275 525 
L 2438 3041 
L 353 3041 
L 353 3500 
z
" transform="scale(0.015625)"/>
       <path id="DejaVuSans-79" d="M 2059 -325 
Q 1816 -950 1584 -1140 
Q 1353 -1331 966 -1331 
L 506 -1331 
L 506 -850 
L 844 -850 
Q 1081 -850 1212 -737 
Q 1344 -625 1503 -206 
L 1606 56 
L 191 3500 
L 800 3500 
L 1894 763 
L 2988 3500 
L 3597 3500 
L 2059 -325 
z
" transform="scale(0.015625)"/>
       <path id="DejaVuSans-73" d="M 2834 3397 
L 2834 2853 
Q 2591 2978 2328 3040 
Q 2066 3103 1784 3103 
Q 1356 3103 1142 2972 
Q 928 2841 928 2578 
Q 928 2378 1081 2264 
Q 1234 2150 1697 2047 
L 1894 2003 
Q 2506 1872 2764 1633 
Q 3022 1394 3022 966 
Q 3022 478 2636 193 
Q 2250 -91 1575 -91 
Q 1294 -91 989 -36 
Q 684 19 347 128 
L 347 722 
Q 666 556 975 473 
Q 1284 391 1588 391 
Q 1994 391 2212 530 
Q 2431 669 2431 922 
Q 2431 1156 2273 1281 
Q 2116 1406 1581 1522 
L 1381 1569 
Q 847 1681 609 1914 
Q 372 2147 372 2553 
Q 372 3047 722 3315 
Q 1072 3584 1716 3584 
Q 2034 3584 2315 3537 
Q 2597 3491 2834 3397 
z
" transform="scale(0.015625)"/>
       <path id="DejaVuSans-74" d="M 1172 4494 
L 1172 3500 
L 2356 3500 
L 2356 3053 
L 1172 3053 
L 1172 1153 
Q 1172 725 1289 603 
Q 1406 481 1766 481 
L 2356 481 
L 2356 0 
L 1766 0 
Q 1100 0 847 248 
Q 594 497 594 1153 
L 594 3053 
L 172 3053 
L 172 3500 
L 594 3500 
L 594 4494 
L 1172 4494 
z
" transform="scale(0.015625)"/>
       <path id="DejaVuSans-6f" d="M 1959 3097 
Q 1497 3097 1228 2736 
Q 959 2375 959 1747 
Q 959 1119 1226 758 
Q 1494 397 1959 397 
Q 2419 397 2687 759 
Q 2956 1122 2956 1747 
Q 2956 2369 2687 2733 
Q 2419 3097 1959 3097 
z
M 1959 3584 
Q 2709 3584 3137 3096 
Q 3566 2609 3566 1747 
Q 3566 888 3137 398 
Q 2709 -91 1959 -91 
Q 1206 -91 779 398 
Q 353 888 353 1747 
Q 353 2609 779 3096 
Q 1206 3584 1959 3584 
z
" transform="scale(0.015625)"/>
       <path id="DejaVuSans-77" d="M 269 3500 
L 844 3500 
L 1563 769 
L 2278 3500 
L 2956 3500 
L 3675 769 
L 4391 3500 
L 4966 3500 
L 4050 0 
L 3372 0 
L 2619 2869 
L 1863 0 
L 1184 0 
L 269 3500 
z
" transform="scale(0.015625)"/>
       <path id="DejaVuSans-69" d="M 603 3500 
L 1178 3500 
L 1178 0 
L 603 0 
L 603 3500 
z
M 603 4863 
L 1178 4863 
L 1178 4134 
L 603 4134 
L 603 4863 
z
" transform="scale(0.015625)"/>
      </defs>
      <use xlink:href="#DejaVuSans-50"/>
      <use xlink:href="#DejaVuSans-72" transform="translate(58.552734 0)"/>
      <use xlink:href="#DejaVuSans-7a" transform="translate(99.666016 0)"/>
      <use xlink:href="#DejaVuSans-79" transform="translate(152.15625 0)"/>
      <use xlink:href="#DejaVuSans-73" transform="translate(211.335938 0)"/>
      <use xlink:href="#DejaVuSans-74" transform="translate(263.435547 0)"/>
      <use xlink:href="#DejaVuSans-6f" transform="translate(302.644531 0)"/>
      <use xlink:href="#DejaVuSans-73" transform="translate(363.826172 0)"/>
      <use xlink:href="#DejaVuSans-6f" transform="translate(415.925781 0)"/>
      <use xlink:href="#DejaVuSans-77" transform="translate(477.107422 0)"/>
      <use xlink:href="#DejaVuSans-61" transform="translate(558.894531 0)"/>
      <use xlink:href="#DejaVuSans-6e" transform="translate(620.173828 0)"/>
      <use xlink:href="#DejaVuSans-69" transform="translate(683.552734 0)"/>
      <use xlink:href="#DejaVuSans-65" transform="translate(711.335938 0)"/>
     </g>
    </g>
   </g>
   <g id="line2d_21">
    <path d="M 73.832727 295.488 
L 75.464157 236.645085 
L 77.095587 215.90499 
L 78.727017 188.360699 
L 80.358447 185.227812 
L 83.621307 172.326319 
L 85.252736 172.844833 
L 86.884166 171.791694 
L 88.515596 167.967789 
L 90.147026 168.68594 
L 91.778456 165.328715 
L 93.409886 163.955832 
L 95.041316 162.098369 
L 96.672746 164.608565 
L 98.304175 164.996866 
L 99.935605 161.408113 
L 101.567035 164.050149 
L 103.198465 164.556302 
L 104.829895 164.780176 
L 108.092755 162.264276 
L 109.724185 162.474325 
L 111.355614 161.352177 
L 112.987044 162.581422 
L 114.618474 162.252705 
L 116.249904 165.176792 
L 117.881334 162.715678 
L 119.512764 166.192476 
L 121.144194 165.846888 
L 122.775624 165.183128 
L 124.407053 166.372011 
L 126.038483 163.566396 
L 127.669913 162.776158 
L 129.301343 164.442211 
L 132.564203 162.180134 
L 134.195633 163.413323 
L 135.827063 161.689985 
L 139.089922 160.994596 
L 140.721352 164.33862 
L 142.352782 161.937836 
L 143.984212 163.100345 
L 145.615642 161.228526 
L 147.247072 164.666261 
L 148.878502 165.141229 
L 150.509931 165.05712 
L 152.141361 164.290125 
L 153.772791 162.035471 
L 155.404221 163.429721 
L 157.035651 161.319487 
L 158.667081 163.533838 
L 160.298511 162.887767 
L 161.929941 164.967066 
L 163.56137 165.662713 
L 165.1928 162.474957 
L 168.45566 165.392252 
L 170.08709 161.104342 
L 171.71852 161.65455 
L 173.34995 164.303296 
L 174.98138 162.838847 
L 176.61281 163.693646 
L 178.244239 164.295067 
L 179.875669 160.428783 
L 181.507099 158.736173 
L 183.138529 160.634951 
L 184.769959 161.820857 
L 186.401389 161.282332 
L 188.032819 159.54377 
L 189.664249 163.567072 
L 191.295678 161.646509 
L 192.927108 160.250923 
L 194.558538 160.197662 
L 196.189968 163.535542 
L 197.821398 161.97927 
L 199.452828 160.157711 
L 201.084258 164.506755 
L 202.715688 161.884616 
L 204.347117 163.408163 
L 205.978547 161.890611 
L 207.609977 161.765088 
L 209.241407 159.830841 
L 210.872837 163.893074 
L 212.504267 161.328996 
L 214.135697 161.08858 
L 215.767127 162.302547 
L 217.398556 161.761245 
L 219.029986 163.614846 
L 220.661416 160.209112 
L 222.292846 161.335166 
L 223.924276 160.192645 
L 225.555706 160.295731 
L 227.187136 159.819324 
L 228.818566 161.998161 
L 230.449995 163.407751 
L 232.081425 161.843352 
L 233.712855 158.923456 
L 235.344285 159.830341 
L 236.975715 159.999699 
L 238.607145 158.107227 
L 240.238575 159.698579 
L 241.870005 161.496288 
L 243.501434 160.594056 
L 245.132864 162.398409 
L 246.764294 162.708503 
L 248.395724 160.741162 
L 250.027154 160.501968 
L 251.658584 163.439022 
L 253.290014 159.085279 
L 254.921444 159.76437 
L 256.552873 159.894154 
L 258.184303 158.00947 
L 259.815733 161.500232 
L 261.447163 159.848311 
L 263.078593 160.614101 
L 266.341453 159.681607 
L 267.972883 161.712058 
L 269.604312 160.074417 
L 271.235742 161.139359 
L 272.867172 161.544863 
L 274.498602 160.133118 
L 276.130032 159.101692 
L 277.761462 159.179597 
L 279.392892 159.082461 
L 281.024322 160.773093 
L 282.655751 160.547107 
L 284.287181 160.030189 
L 285.918611 161.225057 
L 287.550041 160.744178 
L 289.181471 158.909892 
L 290.812901 159.770405 
L 292.444331 157.697567 
L 294.075761 159.858156 
L 295.70719 160.057387 
L 297.33862 160.620117 
L 298.97005 159.113667 
L 300.60148 161.244781 
L 302.23291 162.845134 
L 303.86434 161.037831 
L 305.49577 161.631875 
L 307.1272 158.976591 
L 308.75863 158.271339 
L 310.390059 160.026594 
L 312.021489 159.301496 
L 313.652919 160.405166 
L 315.284349 161.364335 
L 316.915779 160.447823 
L 318.547209 160.490097 
L 320.178639 160.748934 
L 321.810069 159.541684 
L 323.441498 164.03958 
L 325.072928 161.293362 
L 326.704358 162.662887 
L 328.335788 161.903368 
L 329.967218 159.263809 
L 331.598648 160.302762 
L 333.230078 159.449174 
L 334.861508 160.59717 
L 336.492937 158.623294 
L 338.124367 159.628013 
L 339.755797 159.56907 
L 341.387227 161.696572 
L 343.018657 159.015443 
L 344.650087 160.921839 
L 346.281517 159.922514 
L 347.912947 162.645557 
L 349.544376 162.072797 
L 352.807236 161.370832 
L 354.438666 161.296099 
L 356.070096 161.930593 
L 357.701526 160.495827 
L 359.332956 162.087297 
L 360.964386 160.938851 
L 362.595815 164.380892 
L 364.227245 159.371303 
L 365.858675 162.929011 
L 367.490105 161.787529 
L 369.121535 160.097395 
L 370.752965 161.167257 
L 372.384395 159.720538 
L 374.015825 159.943245 
L 375.647254 160.55723 
L 377.278684 159.130705 
L 378.910114 159.796441 
L 380.541544 159.176482 
L 382.172974 161.927334 
L 383.804404 160.373534 
L 385.435834 161.51776 
L 387.067264 160.095183 
L 388.698693 161.167861 
L 390.330123 160.857898 
L 391.961553 160.062363 
L 393.592983 162.60801 
L 395.224413 160.758123 
L 398.487273 161.228175 
L 398.487273 161.228175 
" clip-path="url(#p5a17e94040)" style="fill: none; stroke: #0000ff; stroke-width: 1.5; stroke-linecap: square"/>
   </g>
   <g id="line2d_22">
    <path d="M 73.832727 245.259057 
L 75.464157 186.124454 
L 77.095587 171.531534 
L 78.727017 150.713546 
L 80.358447 152.158833 
L 81.989877 148.090814 
L 83.621307 145.214803 
L 85.252736 143.426165 
L 86.884166 140.323385 
L 88.515596 139.033914 
L 90.147026 143.713492 
L 91.778456 139.511388 
L 95.041316 139.49897 
L 96.672746 141.216503 
L 98.304175 140.336407 
L 99.935605 140.863068 
L 101.567035 140.479303 
L 103.198465 143.616176 
L 104.829895 141.345696 
L 106.461325 139.476796 
L 108.092755 140.172332 
L 109.724185 140.253786 
L 111.355614 138.011948 
L 112.987044 140.352286 
L 114.618474 140.690797 
L 116.249904 142.745285 
L 117.881334 140.812368 
L 119.512764 141.240059 
L 121.144194 138.445675 
L 122.775624 142.113834 
L 124.407053 144.869758 
L 126.038483 138.308148 
L 127.669913 138.326187 
L 129.301343 141.564375 
L 130.932773 140.067869 
L 132.564203 139.707266 
L 134.195633 142.774302 
L 135.827063 138.527867 
L 137.458492 140.805085 
L 139.089922 135.59388 
L 140.721352 141.870212 
L 142.352782 141.549347 
L 143.984212 138.888062 
L 145.615642 139.493147 
L 147.247072 141.252114 
L 148.878502 144.306343 
L 150.509931 143.742248 
L 152.141361 141.617096 
L 153.772791 139.717687 
L 155.404221 138.694689 
L 157.035651 140.527022 
L 160.298511 141.033781 
L 161.929941 141.923558 
L 163.56137 140.859273 
L 165.1928 141.820363 
L 166.82423 143.155367 
L 168.45566 144.031427 
L 170.08709 139.571572 
L 171.71852 140.75288 
L 173.34995 144.872142 
L 174.98138 142.574915 
L 176.61281 140.020277 
L 178.244239 141.075081 
L 179.875669 139.649649 
L 181.507099 137.000978 
L 183.138529 137.745336 
L 184.769959 140.852598 
L 186.401389 135.952303 
L 188.032819 137.707958 
L 189.664249 144.524365 
L 191.295678 137.835913 
L 192.927108 138.935988 
L 196.189968 139.384837 
L 197.821398 140.722219 
L 199.452828 139.136182 
L 201.084258 142.3889 
L 202.715688 138.572519 
L 204.347117 143.854185 
L 205.978547 139.79443 
L 207.609977 143.987137 
L 209.241407 140.123562 
L 210.872837 143.962955 
L 212.504267 140.992311 
L 214.135697 139.692385 
L 215.767127 141.955972 
L 217.398556 138.028622 
L 219.029986 140.072641 
L 220.661416 138.762924 
L 222.292846 139.190017 
L 223.924276 140.369079 
L 225.555706 137.534493 
L 227.187136 138.765262 
L 228.818566 139.369393 
L 230.449995 142.714109 
L 232.081425 139.622846 
L 233.712855 136.052517 
L 235.344285 136.094667 
L 236.975715 137.796283 
L 238.607145 135.159775 
L 240.238575 138.164262 
L 241.870005 139.312005 
L 243.501434 138.500929 
L 245.132864 140.55078 
L 246.764294 142.23949 
L 248.395724 139.24944 
L 250.027154 139.881915 
L 251.658584 140.076929 
L 253.290014 135.317031 
L 254.921444 138.096456 
L 256.552873 139.676938 
L 258.184303 136.308607 
L 259.815733 140.476048 
L 261.447163 137.896335 
L 263.078593 138.918655 
L 264.710023 138.873742 
L 266.341453 135.639105 
L 267.972883 140.017282 
L 269.604312 139.903847 
L 271.235742 138.735614 
L 272.867172 141.514479 
L 276.130032 137.947301 
L 277.761462 136.740258 
L 279.392892 137.989759 
L 281.024322 138.996699 
L 282.655751 138.51877 
L 284.287181 137.502548 
L 285.918611 141.193113 
L 287.550041 140.167621 
L 289.181471 137.151758 
L 290.812901 137.29929 
L 292.444331 137.087667 
L 294.075761 138.497687 
L 295.70719 137.648569 
L 297.33862 140.944667 
L 298.97005 139.26199 
L 300.60148 138.061588 
L 302.23291 140.413886 
L 303.86434 139.839964 
L 305.49577 143.310498 
L 307.1272 138.027857 
L 308.75863 138.171072 
L 310.390059 140.079754 
L 312.021489 139.227917 
L 313.652919 139.880418 
L 315.284349 138.306643 
L 316.915779 139.269256 
L 318.547209 139.320954 
L 320.178639 139.885319 
L 321.810069 140.142307 
L 323.441498 144.569079 
L 325.072928 140.810474 
L 326.704358 142.706334 
L 329.967218 136.819855 
L 331.598648 137.003934 
L 333.230078 138.252172 
L 334.861508 138.048988 
L 336.492937 135.305153 
L 338.124367 134.985155 
L 341.387227 142.169746 
L 343.018657 139.017735 
L 344.650087 141.439097 
L 346.281517 139.090709 
L 347.912947 142.136419 
L 349.544376 141.375633 
L 351.175806 142.420617 
L 352.807236 140.789749 
L 354.438666 139.338196 
L 356.070096 141.502434 
L 357.701526 140.43722 
L 359.332956 142.056244 
L 360.964386 139.322508 
L 362.595815 144.0368 
L 364.227245 137.467372 
L 365.858675 142.842375 
L 367.490105 142.098782 
L 369.121535 139.326663 
L 370.752965 140.059123 
L 372.384395 139.746327 
L 374.015825 140.537134 
L 375.647254 138.580165 
L 377.278684 138.559679 
L 378.910114 138.976978 
L 380.541544 137.31688 
L 382.172974 140.86982 
L 383.804404 139.341717 
L 385.435834 141.691947 
L 387.067264 140.279335 
L 388.698693 140.178319 
L 390.330123 140.709829 
L 391.961553 137.50483 
L 393.592983 140.641214 
L 395.224413 140.092816 
L 396.855843 140.785834 
L 398.487273 138.132968 
L 398.487273 138.132968 
" clip-path="url(#p5a17e94040)" style="fill: none; stroke-dasharray: 9.6,2.4,1.5,2.4; stroke-dashoffset: 0; stroke: #008000; stroke-width: 1.5"/>
   </g>
   <g id="line2d_23">
    <path d="M 73.832727 106.614571 
L 75.464157 92.166354 
L 77.095587 114.422084 
L 78.727017 106.964146 
L 80.358447 98.891625 
L 81.989877 103.051283 
L 83.621307 95.117148 
L 85.252736 110.548197 
L 86.884166 84.909966 
L 88.515596 98.725593 
L 90.147026 74.88843 
L 91.778456 91.926741 
L 93.409886 84.32867 
L 95.041316 84.603977 
L 96.672746 91.527232 
L 98.304175 71.338211 
L 99.935605 95.60255 
L 101.567035 92.162382 
L 103.198465 98.788735 
L 104.829895 114.080697 
L 106.461325 91.740639 
L 108.092755 98.909634 
L 109.724185 77.99594 
L 111.355614 88.180663 
L 114.618474 102.770853 
L 116.249904 98.974726 
L 117.881334 102.386887 
L 119.512764 102.383559 
L 121.144194 68.718043 
L 122.775624 74.668759 
L 124.407053 98.621006 
L 126.038483 102.886379 
L 127.669913 78.548528 
L 129.301343 106.15186 
L 132.564203 91.697302 
L 134.195633 110.136044 
L 135.827063 77.741946 
L 137.458492 98.737568 
L 139.089922 81.320655 
L 140.721352 71.672142 
L 142.352782 77.832827 
L 143.984212 77.889994 
L 145.615642 54.388726 
L 147.247072 95.646252 
L 148.878502 102.917631 
L 150.509931 91.254877 
L 152.141361 98.571878 
L 153.772791 95.352582 
L 155.404221 72.865672 
L 157.035651 110.778527 
L 158.667081 91.442082 
L 160.298511 102.528022 
L 161.929941 110.246617 
L 163.56137 87.75773 
L 165.1928 84.49577 
L 166.82423 84.551399 
L 168.45566 106.090353 
L 170.08709 95.025225 
L 171.71852 102.506751 
L 173.34995 110.557762 
L 174.98138 98.451481 
L 176.61281 71.623728 
L 178.244239 95.264807 
L 179.875669 74.569351 
L 181.507099 102.622874 
L 183.138529 84.662529 
L 184.769959 91.332558 
L 186.401389 84.968641 
L 188.032819 94.765344 
L 189.664249 98.62785 
L 191.295678 80.988713 
L 192.927108 95.362484 
L 194.558538 98.906462 
L 196.189968 95.158232 
L 197.821398 71.574223 
L 199.452828 77.857573 
L 201.084258 102.328565 
L 202.715688 53.568 
L 204.347117 88.038446 
L 205.978547 98.628886 
L 207.609977 110.611593 
L 209.241407 106.291914 
L 210.872837 114.214089 
L 212.504267 102.792168 
L 214.135697 88.361563 
L 215.767127 94.768291 
L 217.398556 98.538846 
L 219.029986 84.461369 
L 220.661416 110.513437 
L 222.292846 85.342055 
L 223.924276 96.326748 
L 225.555706 84.734173 
L 227.187136 98.511959 
L 228.818566 87.901225 
L 230.449995 106.556909 
L 232.081425 62.684362 
L 233.712855 84.503896 
L 235.344285 77.798973 
L 236.975715 87.99148 
L 238.607145 68.465263 
L 240.238575 95.410652 
L 241.870005 102.240491 
L 243.501434 94.853853 
L 245.132864 91.245244 
L 246.764294 102.689558 
L 248.395724 78.347733 
L 250.027154 81.382611 
L 251.658584 81.431269 
L 253.290014 85.093853 
L 254.921444 95.0675 
L 256.552873 91.806357 
L 258.184303 88.053479 
L 259.815733 87.554495 
L 263.078593 103.047052 
L 264.710023 95.268321 
L 266.341453 88.150014 
L 267.972883 91.835944 
L 269.604312 94.64671 
L 271.235742 102.488327 
L 272.867172 106.617969 
L 276.130032 84.573182 
L 277.761462 81.390908 
L 279.392892 91.289392 
L 281.024322 94.878511 
L 282.655751 84.35025 
L 284.287181 77.611174 
L 285.918611 102.687126 
L 287.550041 102.721616 
L 289.181471 78.416326 
L 290.812901 81.154857 
L 292.444331 84.415135 
L 294.075761 106.541715 
L 295.70719 102.132158 
L 298.97005 88.136347 
L 300.60148 88.172542 
L 302.23291 84.833554 
L 303.86434 102.599147 
L 305.49577 106.587766 
L 307.1272 95.294881 
L 308.75863 98.464171 
L 310.390059 106.49959 
L 312.021489 98.805708 
L 313.652919 98.418921 
L 315.284349 84.45022 
L 316.915779 84.852521 
L 318.547209 102.487367 
L 320.178639 95.018052 
L 321.810069 84.861996 
L 323.441498 98.350386 
L 325.072928 98.850536 
L 326.704358 106.546384 
L 328.335788 84.913784 
L 329.967218 95.557916 
L 331.598648 84.48495 
L 333.230078 98.688457 
L 334.861508 77.916645 
L 336.492937 91.880388 
L 338.124367 62.556989 
L 339.755797 77.76538 
L 341.387227 102.289935 
L 343.018657 98.619896 
L 344.650087 88.76252 
L 346.281517 91.551721 
L 347.912947 106.235912 
L 349.544376 96.097605 
L 351.175806 95.732071 
L 352.807236 102.277404 
L 354.438666 91.492656 
L 356.070096 106.222872 
L 357.701526 84.413044 
L 359.332956 106.490952 
L 360.964386 92.173212 
L 362.595815 102.247669 
L 364.227245 88.064892 
L 365.858675 102.136956 
L 367.490105 110.213848 
L 369.121535 78.583012 
L 370.752965 91.560455 
L 372.384395 91.733848 
L 374.015825 95.836707 
L 375.647254 81.040433 
L 377.278684 95.415443 
L 378.910114 84.458489 
L 380.541544 74.821811 
L 382.172974 91.36806 
L 383.804404 91.149333 
L 385.435834 91.813361 
L 387.067264 95.021296 
L 388.698693 95.099433 
L 390.330123 102.586797 
L 391.961553 87.706126 
L 393.592983 84.53189 
L 395.224413 94.879589 
L 396.855843 99.064546 
L 398.487273 91.681499 
L 398.487273 91.681499 
" clip-path="url(#p5a17e94040)" style="fill: none; stroke: #ff0000; stroke-width: 1.5; stroke-linecap: square"/>
   </g>
   <g id="patch_3">
    <path d="M 57.6 307.584 
L 57.6 41.472 
" style="fill: none; stroke: #000000; stroke-width: 0.8; stroke-linejoin: miter; stroke-linecap: square"/>
   </g>
   <g id="patch_4">
    <path d="M 414.72 307.584 
L 414.72 41.472 
" style="fill: none; stroke: #000000; stroke-width: 0.8; stroke-linejoin: miter; stroke-linecap: square"/>
   </g>
   <g id="patch_5">
    <path d="M 57.6 307.584 
L 414.72 307.584 
" style="fill: none; stroke: #000000; stroke-width: 0.8; stroke-linejoin: miter; stroke-linecap: square"/>
   </g>
   <g id="patch_6">
    <path d="M 57.6 41.472 
L 414.72 41.472 
" style="fill: none; stroke: #000000; stroke-width: 0.8; stroke-linejoin: miter; stroke-linecap: square"/>
   </g>
   <g id="text_13">
    <!-- Średnie i najlepsze przystosowanie w każdej generacji -->
    <g transform="translate(73.26 35.472) scale(0.12 -0.12)">
     <defs>
      <path id="DejaVuSans-15a" d="M 2236 5921 
L 2814 5921 
L 2102 5096 
L 1623 5096 
L 2236 5921 
z
M 3425 4513 
L 3425 3897 
Q 3066 4069 2747 4153 
Q 2428 4238 2131 4238 
Q 1616 4238 1336 4038 
Q 1056 3838 1056 3469 
Q 1056 3159 1242 3001 
Q 1428 2844 1947 2747 
L 2328 2669 
Q 3034 2534 3370 2195 
Q 3706 1856 3706 1288 
Q 3706 609 3251 259 
Q 2797 -91 1919 -91 
Q 1588 -91 1214 -16 
Q 841 59 441 206 
L 441 856 
Q 825 641 1194 531 
Q 1563 422 1919 422 
Q 2459 422 2753 634 
Q 3047 847 3047 1241 
Q 3047 1584 2836 1778 
Q 2625 1972 2144 2069 
L 1759 2144 
Q 1053 2284 737 2584 
Q 422 2884 422 3419 
Q 422 4038 858 4394 
Q 1294 4750 2059 4750 
Q 2388 4750 2728 4690 
Q 3069 4631 3425 4513 
z
" transform="scale(0.015625)"/>
      <path id="DejaVuSans-64" d="M 2906 2969 
L 2906 4863 
L 3481 4863 
L 3481 0 
L 2906 0 
L 2906 525 
Q 2725 213 2448 61 
Q 2172 -91 1784 -91 
Q 1150 -91 751 415 
Q 353 922 353 1747 
Q 353 2572 751 3078 
Q 1150 3584 1784 3584 
Q 2172 3584 2448 3432 
Q 2725 3281 2906 2969 
z
M 947 1747 
Q 947 1113 1208 752 
Q 1469 391 1925 391 
Q 2381 391 2643 752 
Q 2906 1113 2906 1747 
Q 2906 2381 2643 2742 
Q 2381 3103 1925 3103 
Q 1469 3103 1208 2742 
Q 947 2381 947 1747 
z
" transform="scale(0.015625)"/>
      <path id="DejaVuSans-20" transform="scale(0.015625)"/>
      <path id="DejaVuSans-6c" d="M 603 4863 
L 1178 4863 
L 1178 0 
L 603 0 
L 603 4863 
z
" transform="scale(0.015625)"/>
      <path id="DejaVuSans-70" d="M 1159 525 
L 1159 -1331 
L 581 -1331 
L 581 3500 
L 1159 3500 
L 1159 2969 
Q 1341 3281 1617 3432 
Q 1894 3584 2278 3584 
Q 2916 3584 3314 3078 
Q 3713 2572 3713 1747 
Q 3713 922 3314 415 
Q 2916 -91 2278 -91 
Q 1894 -91 1617 61 
Q 1341 213 1159 525 
z
M 3116 1747 
Q 3116 2381 2855 2742 
Q 2594 3103 2138 3103 
Q 1681 3103 1420 2742 
Q 1159 2381 1159 1747 
Q 1159 1113 1420 752 
Q 1681 391 2138 391 
Q 2594 391 2855 752 
Q 3116 1113 3116 1747 
z
" transform="scale(0.015625)"/>
      <path id="DejaVuSans-6b" d="M 581 4863 
L 1159 4863 
L 1159 1991 
L 2875 3500 
L 3609 3500 
L 1753 1863 
L 3688 0 
L 2938 0 
L 1159 1709 
L 1159 0 
L 581 0 
L 581 4863 
z
" transform="scale(0.015625)"/>
      <path id="DejaVuSans-17c" d="M 1378 4863 
L 1953 4863 
L 1953 4134 
L 1378 4134 
L 1378 4863 
z
M 1672 3584 
L 1672 3584 
z
M 353 3500 
L 3084 3500 
L 3084 2975 
L 922 459 
L 3084 459 
L 3084 0 
L 275 0 
L 275 525 
L 2438 3041 
L 353 3041 
L 353 3500 
z
" transform="scale(0.015625)"/>
      <path id="DejaVuSans-67" d="M 2906 1791 
Q 2906 2416 2648 2759 
Q 2391 3103 1925 3103 
Q 1463 3103 1205 2759 
Q 947 2416 947 1791 
Q 947 1169 1205 825 
Q 1463 481 1925 481 
Q 2391 481 2648 825 
Q 2906 1169 2906 1791 
z
M 3481 434 
Q 3481 -459 3084 -895 
Q 2688 -1331 1869 -1331 
Q 1566 -1331 1297 -1286 
Q 1028 -1241 775 -1147 
L 775 -588 
Q 1028 -725 1275 -790 
Q 1522 -856 1778 -856 
Q 2344 -856 2625 -561 
Q 2906 -266 2906 331 
L 2906 616 
Q 2728 306 2450 153 
Q 2172 0 1784 0 
Q 1141 0 747 490 
Q 353 981 353 1791 
Q 353 2603 747 3093 
Q 1141 3584 1784 3584 
Q 2172 3584 2450 3431 
Q 2728 3278 2906 2969 
L 2906 3500 
L 3481 3500 
L 3481 434 
z
" transform="scale(0.015625)"/>
     </defs>
     <use xlink:href="#DejaVuSans-15a"/>
     <use xlink:href="#DejaVuSans-72" transform="translate(63.476562 0)"/>
     <use xlink:href="#DejaVuSans-65" transform="translate(102.339844 0)"/>
     <use xlink:href="#DejaVuSans-64" transform="translate(163.863281 0)"/>
     <use xlink:href="#DejaVuSans-6e" transform="translate(227.339844 0)"/>
     <use xlink:href="#DejaVuSans-69" transform="translate(290.71875 0)"/>
     <use xlink:href="#DejaVuSans-65" transform="translate(318.501953 0)"/>
     <use xlink:href="#DejaVuSans-20" transform="translate(380.025391 0)"/>
     <use xlink:href="#DejaVuSans-69" transform="translate(411.8125 0)"/>
     <use xlink:href="#DejaVuSans-20" transform="translate(439.595703 0)"/>
     <use xlink:href="#DejaVuSans-6e" transform="translate(471.382812 0)"/>
     <use xlink:href="#DejaVuSans-61" transform="translate(534.761719 0)"/>
     <use xlink:href="#DejaVuSans-6a" transform="translate(596.041016 0)"/>
     <use xlink:href="#DejaVuSans-6c" transform="translate(623.824219 0)"/>
     <use xlink:href="#DejaVuSans-65" transform="translate(651.607422 0)"/>
     <use xlink:href="#DejaVuSans-70" transform="translate(713.130859 0)"/>
     <use xlink:href="#DejaVuSans-73" transform="translate(776.607422 0)"/>
     <use xlink:href="#DejaVuSans-7a" transform="translate(828.707031 0)"/>
     <use xlink:href="#DejaVuSans-65" transform="translate(881.197266 0)"/>
     <use xlink:href="#DejaVuSans-20" transform="translate(942.720703 0)"/>
     <use xlink:href="#DejaVuSans-70" transform="translate(974.507812 0)"/>
     <use xlink:href="#DejaVuSans-72" transform="translate(1037.984375 0)"/>
     <use xlink:href="#DejaVuSans-7a" transform="translate(1079.097656 0)"/>
     <use xlink:href="#DejaVuSans-79" transform="translate(1131.587891 0)"/>
     <use xlink:href="#DejaVuSans-73" transform="translate(1190.767578 0)"/>
     <use xlink:href="#DejaVuSans-74" transform="translate(1242.867188 0)"/>
     <use xlink:href="#DejaVuSans-6f" transform="translate(1282.076172 0)"/>
     <use xlink:href="#DejaVuSans-73" transform="translate(1343.257812 0)"/>
     <use xlink:href="#DejaVuSans-6f" transform="translate(1395.357422 0)"/>
     <use xlink:href="#DejaVuSans-77" transform="translate(1456.539062 0)"/>
     <use xlink:href="#DejaVuSans-61" transform="translate(1538.326172 0)"/>
     <use xlink:href="#DejaVuSans-6e" transform="translate(1599.605469 0)"/>
     <use xlink:href="#DejaVuSans-69" transform="translate(1662.984375 0)"/>
     <use xlink:href="#DejaVuSans-65" transform="translate(1690.767578 0)"/>
     <use xlink:href="#DejaVuSans-20" transform="translate(1752.291016 0)"/>
     <use xlink:href="#DejaVuSans-77" transform="translate(1784.078125 0)"/>
     <use xlink:href="#DejaVuSans-20" transform="translate(1865.865234 0)"/>
     <use xlink:href="#DejaVuSans-6b" transform="translate(1897.652344 0)"/>
     <use xlink:href="#DejaVuSans-61" transform="translate(1953.8125 0)"/>
     <use xlink:href="#DejaVuSans-17c" transform="translate(2015.091797 0)"/>
     <use xlink:href="#DejaVuSans-64" transform="translate(2067.582031 0)"/>
     <use xlink:href="#DejaVuSans-65" transform="translate(2131.058594 0)"/>
     <use xlink:href="#DejaVuSans-6a" transform="translate(2192.582031 0)"/>
     <use xlink:href="#DejaVuSans-20" transform="translate(2220.365234 0)"/>
     <use xlink:href="#DejaVuSans-67" transform="translate(2252.152344 0)"/>
     <use xlink:href="#DejaVuSans-65" transform="translate(2315.628906 0)"/>
     <use xlink:href="#DejaVuSans-6e" transform="translate(2377.152344 0)"/>
     <use xlink:href="#DejaVuSans-65" transform="translate(2440.53125 0)"/>
     <use xlink:href="#DejaVuSans-72" transform="translate(2502.054688 0)"/>
     <use xlink:href="#DejaVuSans-61" transform="translate(2543.167969 0)"/>
     <use xlink:href="#DejaVuSans-63" transform="translate(2604.447266 0)"/>
     <use xlink:href="#DejaVuSans-6a" transform="translate(2659.427734 0)"/>
     <use xlink:href="#DejaVuSans-69" transform="translate(2687.210938 0)"/>
    </g>
   </g>
   <g id="legend_1">
    <g id="patch_7">
     <path d="M 279.790313 302.584 
L 407.72 302.584 
Q 409.72 302.584 409.72 300.584 
L 409.72 257.549625 
Q 409.72 255.549625 407.72 255.549625 
L 279.790313 255.549625 
Q 277.790313 255.549625 277.790313 257.549625 
L 277.790313 300.584 
Q 277.790313 302.584 279.790313 302.584 
z
" style="fill: #ffffff; opacity: 0.8; stroke: #cccccc; stroke-linejoin: miter"/>
    </g>
    <g id="line2d_24">
     <path d="M 281.790313 263.648062 
L 291.790313 263.648062 
L 301.790313 263.648062 
" style="fill: none; stroke: #0000ff; stroke-width: 1.5; stroke-linecap: square"/>
    </g>
    <g id="text_14">
     <!-- Średnia -->
     <g transform="translate(309.790313 267.148062) scale(0.1 -0.1)">
      <use xlink:href="#DejaVuSans-15a"/>
      <use xlink:href="#DejaVuSans-72" transform="translate(63.476562 0)"/>
      <use xlink:href="#DejaVuSans-65" transform="translate(102.339844 0)"/>
      <use xlink:href="#DejaVuSans-64" transform="translate(163.863281 0)"/>
      <use xlink:href="#DejaVuSans-6e" transform="translate(227.339844 0)"/>
      <use xlink:href="#DejaVuSans-69" transform="translate(290.71875 0)"/>
      <use xlink:href="#DejaVuSans-61" transform="translate(318.501953 0)"/>
     </g>
    </g>
    <g id="line2d_25">
     <path d="M 281.790313 278.326188 
L 291.790313 278.326188 
L 301.790313 278.326188 
" style="fill: none; stroke-dasharray: 9.6,2.4,1.5,2.4; stroke-dashoffset: 0; stroke: #008000; stroke-width: 1.5"/>
    </g>
    <g id="text_15">
     <!-- ±1 Odchylenie std. -->
     <g transform="translate(309.790313 281.826188) scale(0.1 -0.1)">
      <defs>
       <path id="DejaVuSans-b1" d="M 2944 4013 
L 2944 2803 
L 4684 2803 
L 4684 2272 
L 2944 2272 
L 2944 1063 
L 2419 1063 
L 2419 2272 
L 678 2272 
L 678 2803 
L 2419 2803 
L 2419 4013 
L 2944 4013 
z
M 678 531 
L 4684 531 
L 4684 0 
L 678 0 
L 678 531 
z
" transform="scale(0.015625)"/>
       <path id="DejaVuSans-4f" d="M 2522 4238 
Q 1834 4238 1429 3725 
Q 1025 3213 1025 2328 
Q 1025 1447 1429 934 
Q 1834 422 2522 422 
Q 3209 422 3611 934 
Q 4013 1447 4013 2328 
Q 4013 3213 3611 3725 
Q 3209 4238 2522 4238 
z
M 2522 4750 
Q 3503 4750 4090 4092 
Q 4678 3434 4678 2328 
Q 4678 1225 4090 567 
Q 3503 -91 2522 -91 
Q 1538 -91 948 565 
Q 359 1222 359 2328 
Q 359 3434 948 4092 
Q 1538 4750 2522 4750 
z
" transform="scale(0.015625)"/>
       <path id="DejaVuSans-68" d="M 3513 2113 
L 3513 0 
L 2938 0 
L 2938 2094 
Q 2938 2591 2744 2837 
Q 2550 3084 2163 3084 
Q 1697 3084 1428 2787 
Q 1159 2491 1159 1978 
L 1159 0 
L 581 0 
L 581 4863 
L 1159 4863 
L 1159 2956 
Q 1366 3272 1645 3428 
Q 1925 3584 2291 3584 
Q 2894 3584 3203 3211 
Q 3513 2838 3513 2113 
z
" transform="scale(0.015625)"/>
       <path id="DejaVuSans-2e" d="M 684 794 
L 1344 794 
L 1344 0 
L 684 0 
L 684 794 
z
" transform="scale(0.015625)"/>
      </defs>
      <use xlink:href="#DejaVuSans-b1"/>
      <use xlink:href="#DejaVuSans-31" transform="translate(83.789062 0)"/>
      <use xlink:href="#DejaVuSans-20" transform="translate(147.412109 0)"/>
      <use xlink:href="#DejaVuSans-4f" transform="translate(179.199219 0)"/>
      <use xlink:href="#DejaVuSans-64" transform="translate(257.910156 0)"/>
      <use xlink:href="#DejaVuSans-63" transform="translate(321.386719 0)"/>
      <use xlink:href="#DejaVuSans-68" transform="translate(376.367188 0)"/>
      <use xlink:href="#DejaVuSans-79" transform="translate(439.746094 0)"/>
      <use xlink:href="#DejaVuSans-6c" transform="translate(498.925781 0)"/>
      <use xlink:href="#DejaVuSans-65" transform="translate(526.708984 0)"/>
      <use xlink:href="#DejaVuSans-6e" transform="translate(588.232422 0)"/>
      <use xlink:href="#DejaVuSans-69" transform="translate(651.611328 0)"/>
      <use xlink:href="#DejaVuSans-65" transform="translate(679.394531 0)"/>
      <use xlink:href="#DejaVuSans-20" transform="translate(740.917969 0)"/>
      <use xlink:href="#DejaVuSans-73" transform="translate(772.705078 0)"/>
      <use xlink:href="#DejaVuSans-74" transform="translate(824.804688 0)"/>
      <use xlink:href="#DejaVuSans-64" transform="translate(864.013672 0)"/>
      <use xlink:href="#DejaVuSans-2e" transform="translate(927.490234 0)"/>
     </g>
    </g>
    <g id="line2d_26">
     <path d="M 281.790313 293.004312 
L 291.790313 293.004312 
L 301.790313 293.004312 
" style="fill: none; stroke: #ff0000; stroke-width: 1.5; stroke-linecap: square"/>
    </g>
    <g id="text_16">
     <!-- Najlepsze -->
     <g transform="translate(309.790313 296.504312) scale(0.1 -0.1)">
      <defs>
       <path id="DejaVuSans-4e" d="M 628 4666 
L 1478 4666 
L 3547 763 
L 3547 4666 
L 4159 4666 
L 4159 0 
L 3309 0 
L 1241 3903 
L 1241 0 
L 628 0 
L 628 4666 
z
" transform="scale(0.015625)"/>
      </defs>
      <use xlink:href="#DejaVuSans-4e"/>
      <use xlink:href="#DejaVuSans-61" transform="translate(74.804688 0)"/>
      <use xlink:href="#DejaVuSans-6a" transform="translate(136.083984 0)"/>
      <use xlink:href="#DejaVuSans-6c" transform="translate(163.867188 0)"/>
      <use xlink:href="#DejaVuSans-65" transform="translate(191.650391 0)"/>
      <use xlink:href="#DejaVuSans-70" transform="translate(253.173828 0)"/>
      <use xlink:href="#DejaVuSans-73" transform="translate(316.650391 0)"/>
      <use xlink:href="#DejaVuSans-7a" transform="translate(368.75 0)"/>
      <use xlink:href="#DejaVuSans-65" transform="translate(421.240234 0)"/>
     </g>
    </g>
   </g>
  </g>
 </g>
 <defs>
  <clipPath id="p5a17e94040">
   <rect x="57.6" y="41.472" width="357.12" height="266.112"/>
  </clipPath>
 </defs>
</svg>
