<?xml version="1.0" encoding="utf-8" standalone="no"?>
<!DOCTYPE svg PUBLIC "-//W3C//DTD SVG 1.1//EN"
  "http://www.w3.org/Graphics/SVG/1.1/DTD/svg11.dtd">
<svg xmlns:xlink="http://www.w3.org/1999/xlink" width="460.8pt" height="345.6pt" viewBox="0 0 460.8 345.6" xmlns="http://www.w3.org/2000/svg" version="1.1">
 <metadata>
  <rdf:RDF xmlns:dc="http://purl.org/dc/elements/1.1/" xmlns:cc="http://creativecommons.org/ns#" xmlns:rdf="http://www.w3.org/1999/02/22-rdf-syntax-ns#">
   <cc:Work>
    <dc:type rdf:resource="http://purl.org/dc/dcmitype/StillImage"/>
    <dc:date>2026-04-26T22:11:21.000647</dc:date>
    <dc:format>image/svg+xml</dc:format>
    <dc:creator>
     <cc:Agent>
      <dc:title>Matplotlib v3.10.8, https://matplotlib.org/</dc:title>
     </cc:Agent>
    </dc:creator>
   </cc:Work>
  </rdf:RDF>
 </metadata>
 <defs>
  <style type="text/css">*{stroke-linejoin: round; stroke-linecap: butt}</style>
 </defs>
 <g id="figure_1">
  <g id="patch_1">
   <path d="M 0 345.6 
L 460.8 345.6 
L 460.8 0 
L 0 0 
z
" style="fill: #ffffff"/>
  </g>
  <g id="axes_1">
   <g id="patch_2">
    <path d="M 57.6 307.584 
L 414.72 307.584 
L 414.72 41.472 
L 57.6 41.472 
z
" style="fill: #ffffff"/>
   </g>
   <g id="matplotlib.axis_1">
    <g id="xtick_1">
     <g id="line2d_1">
      <path d="M 72.201297 307.584 
L 72.201297 41.472 
" clip-path="url(#pc652772377)" style="fill: none; stroke: #b0b0b0; stroke-width: 0.8; stroke-linecap: square"/>
     </g>
     <g id="line2d_2">
      <defs>
       <path id="mb08da35d8d" d="M 0 0 
L 0 3.5 
" style="stroke: #000000; stroke-width: 0.8"/>
      </defs>
      <g>
       <use xlink:href="#mb08da35d8d" x="72.201297" y="307.584" style="stroke: #000000; stroke-width: 0.8"/>
      </g>
     </g>
     <g id="text_1">
      <!-- 0 -->
      <g transform="translate(69.020047 322.182437) scale(0.1 -0.1)">
       <defs>
        <path id="DejaVuSans-30" d="M 2034 4250 
Q 1547 4250 1301 3770 
Q 1056 3291 1056 2328 
Q 1056 1369 1301 889 
Q 1547 409 2034 409 
Q 2525 409 2770 889 
Q 3016 1369 3016 2328 
Q 3016 3291 2770 3770 
Q 2525 4250 2034 4250 
z
M 2034 4750 
Q 2819 4750 3233 4129 
Q 3647 3509 3647 2328 
Q 3647 1150 3233 529 
Q 2819 -91 2034 -91 
Q 1250 -91 836 529 
Q 422 1150 422 2328 
Q 422 3509 836 4129 
Q 1250 4750 2034 4750 
z
" transform="scale(0.015625)"/>
       </defs>
       <use xlink:href="#DejaVuSans-30"/>
      </g>
     </g>
    </g>
    <g id="xtick_2">
     <g id="line2d_3">
      <path d="M 112.987044 307.584 
L 112.987044 41.472 
" clip-path="url(#pc652772377)" style="fill: none; stroke: #b0b0b0; stroke-width: 0.8; stroke-linecap: square"/>
     </g>
     <g id="line2d_4">
      <g>
       <use xlink:href="#mb08da35d8d" x="112.987044" y="307.584" style="stroke: #000000; stroke-width: 0.8"/>
      </g>
     </g>
     <g id="text_2">
      <!-- 25 -->
      <g transform="translate(106.624544 322.182437) scale(0.1 -0.1)">
       <defs>
        <path id="DejaVuSans-32" d="M 1228 531 
L 3431 531 
L 3431 0 
L 469 0 
L 469 531 
Q 828 903 1448 1529 
Q 2069 2156 2228 2338 
Q 2531 2678 2651 2914 
Q 2772 3150 2772 3378 
Q 2772 3750 2511 3984 
Q 2250 4219 1831 4219 
Q 1534 4219 1204 4116 
Q 875 4013 500 3803 
L 500 4441 
Q 881 4594 1212 4672 
Q 1544 4750 1819 4750 
Q 2544 4750 2975 4387 
Q 3406 4025 3406 3419 
Q 3406 3131 3298 2873 
Q 3191 2616 2906 2266 
Q 2828 2175 2409 1742 
Q 1991 1309 1228 531 
z
" transform="scale(0.015625)"/>
        <path id="DejaVuSans-35" d="M 691 4666 
L 3169 4666 
L 3169 4134 
L 1269 4134 
L 1269 2991 
Q 1406 3038 1543 3061 
Q 1681 3084 1819 3084 
Q 2600 3084 3056 2656 
Q 3513 2228 3513 1497 
Q 3513 744 3044 326 
Q 2575 -91 1722 -91 
Q 1428 -91 1123 -41 
Q 819 9 494 109 
L 494 744 
Q 775 591 1075 516 
Q 1375 441 1709 441 
Q 2250 441 2565 725 
Q 2881 1009 2881 1497 
Q 2881 1984 2565 2268 
Q 2250 2553 1709 2553 
Q 1456 2553 1204 2497 
Q 953 2441 691 2322 
L 691 4666 
z
" transform="scale(0.015625)"/>
       </defs>
       <use xlink:href="#DejaVuSans-32"/>
       <use xlink:href="#DejaVuSans-35" transform="translate(63.623047 0)"/>
      </g>
     </g>
    </g>
    <g id="xtick_3">
     <g id="line2d_5">
      <path d="M 153.772791 307.584 
L 153.772791 41.472 
" clip-path="url(#pc652772377)" style="fill: none; stroke: #b0b0b0; stroke-width: 0.8; stroke-linecap: square"/>
     </g>
     <g id="line2d_6">
      <g>
       <use xlink:href="#mb08da35d8d" x="153.772791" y="307.584" style="stroke: #000000; stroke-width: 0.8"/>
      </g>
     </g>
     <g id="text_3">
      <!-- 50 -->
      <g transform="translate(147.410291 322.182437) scale(0.1 -0.1)">
       <use xlink:href="#DejaVuSans-35"/>
       <use xlink:href="#DejaVuSans-30" transform="translate(63.623047 0)"/>
      </g>
     </g>
    </g>
    <g id="xtick_4">
     <g id="line2d_7">
      <path d="M 194.558538 307.584 
L 194.558538 41.472 
" clip-path="url(#pc652772377)" style="fill: none; stroke: #b0b0b0; stroke-width: 0.8; stroke-linecap: square"/>
     </g>
     <g id="line2d_8">
      <g>
       <use xlink:href="#mb08da35d8d" x="194.558538" y="307.584" style="stroke: #000000; stroke-width: 0.8"/>
      </g>
     </g>
     <g id="text_4">
      <!-- 75 -->
      <g transform="translate(188.196038 322.182437) scale(0.1 -0.1)">
       <defs>
        <path id="DejaVuSans-37" d="M 525 4666 
L 3525 4666 
L 3525 4397 
L 1831 0 
L 1172 0 
L 2766 4134 
L 525 4134 
L 525 4666 
z
" transform="scale(0.015625)"/>
       </defs>
       <use xlink:href="#DejaVuSans-37"/>
       <use xlink:href="#DejaVuSans-35" transform="translate(63.623047 0)"/>
      </g>
     </g>
    </g>
    <g id="xtick_5">
     <g id="line2d_9">
      <path d="M 235.344285 307.584 
L 235.344285 41.472 
" clip-path="url(#pc652772377)" style="fill: none; stroke: #b0b0b0; stroke-width: 0.8; stroke-linecap: square"/>
     </g>
     <g id="line2d_10">
      <g>
       <use xlink:href="#mb08da35d8d" x="235.344285" y="307.584" style="stroke: #000000; stroke-width: 0.8"/>
      </g>
     </g>
     <g id="text_5">
      <!-- 100 -->
      <g transform="translate(225.800535 322.182437) scale(0.1 -0.1)">
       <defs>
        <path id="DejaVuSans-31" d="M 794 531 
L 1825 531 
L 1825 4091 
L 703 3866 
L 703 4441 
L 1819 4666 
L 2450 4666 
L 2450 531 
L 3481 531 
L 3481 0 
L 794 0 
L 794 531 
z
" transform="scale(0.015625)"/>
       </defs>
       <use xlink:href="#DejaVuSans-31"/>
       <use xlink:href="#DejaVuSans-30" transform="translate(63.623047 0)"/>
       <use xlink:href="#DejaVuSans-30" transform="translate(127.246094 0)"/>
      </g>
     </g>
    </g>
    <g id="xtick_6">
     <g id="line2d_11">
      <path d="M 276.130032 307.584 
L 276.130032 41.472 
" clip-path="url(#pc652772377)" style="fill: none; stroke: #b0b0b0; stroke-width: 0.8; stroke-linecap: square"/>
     </g>
     <g id="line2d_12">
      <g>
       <use xlink:href="#mb08da35d8d" x="276.130032" y="307.584" style="stroke: #000000; stroke-width: 0.8"/>
      </g>
     </g>
     <g id="text_6">
      <!-- 125 -->
      <g transform="translate(266.586282 322.182437) scale(0.1 -0.1)">
       <use xlink:href="#DejaVuSans-31"/>
       <use xlink:href="#DejaVuSans-32" transform="translate(63.623047 0)"/>
       <use xlink:href="#DejaVuSans-35" transform="translate(127.246094 0)"/>
      </g>
     </g>
    </g>
    <g id="xtick_7">
     <g id="line2d_13">
      <path d="M 316.915779 307.584 
L 316.915779 41.472 
" clip-path="url(#pc652772377)" style="fill: none; stroke: #b0b0b0; stroke-width: 0.8; stroke-linecap: square"/>
     </g>
     <g id="line2d_14">
      <g>
       <use xlink:href="#mb08da35d8d" x="316.915779" y="307.584" style="stroke: #000000; stroke-width: 0.8"/>
      </g>
     </g>
     <g id="text_7">
      <!-- 150 -->
      <g transform="translate(307.372029 322.182437) scale(0.1 -0.1)">
       <use xlink:href="#DejaVuSans-31"/>
       <use xlink:href="#DejaVuSans-35" transform="translate(63.623047 0)"/>
       <use xlink:href="#DejaVuSans-30" transform="translate(127.246094 0)"/>
      </g>
     </g>
    </g>
    <g id="xtick_8">
     <g id="line2d_15">
      <path d="M 357.701526 307.584 
L 357.701526 41.472 
" clip-path="url(#pc652772377)" style="fill: none; stroke: #b0b0b0; stroke-width: 0.8; stroke-linecap: square"/>
     </g>
     <g id="line2d_16">
      <g>
       <use xlink:href="#mb08da35d8d" x="357.701526" y="307.584" style="stroke: #000000; stroke-width: 0.8"/>
      </g>
     </g>
     <g id="text_8">
      <!-- 175 -->
      <g transform="translate(348.157776 322.182437) scale(0.1 -0.1)">
       <use xlink:href="#DejaVuSans-31"/>
       <use xlink:href="#DejaVuSans-37" transform="translate(63.623047 0)"/>
       <use xlink:href="#DejaVuSans-35" transform="translate(127.246094 0)"/>
      </g>
     </g>
    </g>
    <g id="xtick_9">
     <g id="line2d_17">
      <path d="M 398.487273 307.584 
L 398.487273 41.472 
" clip-path="url(#pc652772377)" style="fill: none; stroke: #b0b0b0; stroke-width: 0.8; stroke-linecap: square"/>
     </g>
     <g id="line2d_18">
      <g>
       <use xlink:href="#mb08da35d8d" x="398.487273" y="307.584" style="stroke: #000000; stroke-width: 0.8"/>
      </g>
     </g>
     <g id="text_9">
      <!-- 200 -->
      <g transform="translate(388.943523 322.182437) scale(0.1 -0.1)">
       <use xlink:href="#DejaVuSans-32"/>
       <use xlink:href="#DejaVuSans-30" transform="translate(63.623047 0)"/>
       <use xlink:href="#DejaVuSans-30" transform="translate(127.246094 0)"/>
      </g>
     </g>
    </g>
    <g id="text_10">
     <!-- Generacje -->
     <g transform="translate(210.629531 335.860562) scale(0.1 -0.1)">
      <defs>
       <path id="DejaVuSans-47" d="M 3809 666 
L 3809 1919 
L 2778 1919 
L 2778 2438 
L 4434 2438 
L 4434 434 
Q 4069 175 3628 42 
Q 3188 -91 2688 -91 
Q 1594 -91 976 548 
Q 359 1188 359 2328 
Q 359 3472 976 4111 
Q 1594 4750 2688 4750 
Q 3144 4750 3555 4637 
Q 3966 4525 4313 4306 
L 4313 3634 
Q 3963 3931 3569 4081 
Q 3175 4231 2741 4231 
Q 1884 4231 1454 3753 
Q 1025 3275 1025 2328 
Q 1025 1384 1454 906 
Q 1884 428 2741 428 
Q 3075 428 3337 486 
Q 3600 544 3809 666 
z
" transform="scale(0.015625)"/>
       <path id="DejaVuSans-65" d="M 3597 1894 
L 3597 1613 
L 953 1613 
Q 991 1019 1311 708 
Q 1631 397 2203 397 
Q 2534 397 2845 478 
Q 3156 559 3463 722 
L 3463 178 
Q 3153 47 2828 -22 
Q 2503 -91 2169 -91 
Q 1331 -91 842 396 
Q 353 884 353 1716 
Q 353 2575 817 3079 
Q 1281 3584 2069 3584 
Q 2775 3584 3186 3129 
Q 3597 2675 3597 1894 
z
M 3022 2063 
Q 3016 2534 2758 2815 
Q 2500 3097 2075 3097 
Q 1594 3097 1305 2825 
Q 1016 2553 972 2059 
L 3022 2063 
z
" transform="scale(0.015625)"/>
       <path id="DejaVuSans-6e" d="M 3513 2113 
L 3513 0 
L 2938 0 
L 2938 2094 
Q 2938 2591 2744 2837 
Q 2550 3084 2163 3084 
Q 1697 3084 1428 2787 
Q 1159 2491 1159 1978 
L 1159 0 
L 581 0 
L 581 3500 
L 1159 3500 
L 1159 2956 
Q 1366 3272 1645 3428 
Q 1925 3584 2291 3584 
Q 2894 3584 3203 3211 
Q 3513 2838 3513 2113 
z
" transform="scale(0.015625)"/>
       <path id="DejaVuSans-72" d="M 2631 2963 
Q 2534 3019 2420 3045 
Q 2306 3072 2169 3072 
Q 1681 3072 1420 2755 
Q 1159 2438 1159 1844 
L 1159 0 
L 581 0 
L 581 3500 
L 1159 3500 
L 1159 2956 
Q 1341 3275 1631 3429 
Q 1922 3584 2338 3584 
Q 2397 3584 2469 3576 
Q 2541 3569 2628 3553 
L 2631 2963 
z
" transform="scale(0.015625)"/>
       <path id="DejaVuSans-61" d="M 2194 1759 
Q 1497 1759 1228 1600 
Q 959 1441 959 1056 
Q 959 750 1161 570 
Q 1363 391 1709 391 
Q 2188 391 2477 730 
Q 2766 1069 2766 1631 
L 2766 1759 
L 2194 1759 
z
M 3341 1997 
L 3341 0 
L 2766 0 
L 2766 531 
Q 2569 213 2275 61 
Q 1981 -91 1556 -91 
Q 1019 -91 701 211 
Q 384 513 384 1019 
Q 384 1609 779 1909 
Q 1175 2209 1959 2209 
L 2766 2209 
L 2766 2266 
Q 2766 2663 2505 2880 
Q 2244 3097 1772 3097 
Q 1472 3097 1187 3025 
Q 903 2953 641 2809 
L 641 3341 
Q 956 3463 1253 3523 
Q 1550 3584 1831 3584 
Q 2591 3584 2966 3190 
Q 3341 2797 3341 1997 
z
" transform="scale(0.015625)"/>
       <path id="DejaVuSans-63" d="M 3122 3366 
L 3122 2828 
Q 2878 2963 2633 3030 
Q 2388 3097 2138 3097 
Q 1578 3097 1268 2742 
Q 959 2388 959 1747 
Q 959 1106 1268 751 
Q 1578 397 2138 397 
Q 2388 397 2633 464 
Q 2878 531 3122 666 
L 3122 134 
Q 2881 22 2623 -34 
Q 2366 -91 2075 -91 
Q 1284 -91 818 406 
Q 353 903 353 1747 
Q 353 2603 823 3093 
Q 1294 3584 2113 3584 
Q 2378 3584 2631 3529 
Q 2884 3475 3122 3366 
z
" transform="scale(0.015625)"/>
       <path id="DejaVuSans-6a" d="M 603 3500 
L 1178 3500 
L 1178 -63 
Q 1178 -731 923 -1031 
Q 669 -1331 103 -1331 
L -116 -1331 
L -116 -844 
L 38 -844 
Q 366 -844 484 -692 
Q 603 -541 603 -63 
L 603 3500 
z
M 603 4863 
L 1178 4863 
L 1178 4134 
L 603 4134 
L 603 4863 
z
" transform="scale(0.015625)"/>
      </defs>
      <use xlink:href="#DejaVuSans-47"/>
      <use xlink:href="#DejaVuSans-65" transform="translate(77.490234 0)"/>
      <use xlink:href="#DejaVuSans-6e" transform="translate(139.013672 0)"/>
      <use xlink:href="#DejaVuSans-65" transform="translate(202.392578 0)"/>
      <use xlink:href="#DejaVuSans-72" transform="translate(263.916016 0)"/>
      <use xlink:href="#DejaVuSans-61" transform="translate(305.029297 0)"/>
      <use xlink:href="#DejaVuSans-63" transform="translate(366.308594 0)"/>
      <use xlink:href="#DejaVuSans-6a" transform="translate(421.289062 0)"/>
      <use xlink:href="#DejaVuSans-65" transform="translate(449.072266 0)"/>
     </g>
    </g>
   </g>
   <g id="matplotlib.axis_2">
    <g id="ytick_1">
     <g id="line2d_19">
      <path d="M 57.6 138.043062 
L 414.72 138.043062 
" clip-path="url(#pc652772377)" style="fill: none; stroke: #b0b0b0; stroke-width: 0.8; stroke-linecap: square"/>
     </g>
     <g id="line2d_20">
      <defs>
       <path id="m7b7849ee69" d="M 0 0 
L -3.5 0 
" style="stroke: #000000; stroke-width: 0.8"/>
      </defs>
      <g>
       <use xlink:href="#m7b7849ee69" x="57.6" y="138.043062" style="stroke: #000000; stroke-width: 0.8"/>
      </g>
     </g>
     <g id="text_11">
      <!-- $\mathdefault{10^{2}}$ -->
      <g transform="translate(33 141.84228) scale(0.1 -0.1)">
       <use xlink:href="#DejaVuSans-31" transform="translate(0 0.765625)"/>
       <use xlink:href="#DejaVuSans-30" transform="translate(63.623047 0.765625)"/>
       <use xlink:href="#DejaVuSans-32" transform="translate(128.203125 39.046875) scale(0.7)"/>
      </g>
     </g>
    </g>
    <g id="text_12">
     <!-- Przystosowanie -->
     <g transform="translate(26.920312 213.170187) rotate(-90) scale(0.1 -0.1)">
      <defs>
       <path id="DejaVuSans-50" d="M 1259 4147 
L 1259 2394 
L 2053 2394 
Q 2494 2394 2734 2622 
Q 2975 2850 2975 3272 
Q 2975 3691 2734 3919 
Q 2494 4147 2053 4147 
L 1259 4147 
z
M 628 4666 
L 2053 4666 
Q 2838 4666 3239 4311 
Q 3641 3956 3641 3272 
Q 3641 2581 3239 2228 
Q 2838 1875 2053 1875 
L 1259 1875 
L 1259 0 
L 628 0 
L 628 4666 
z
" transform="scale(0.015625)"/>
       <path id="DejaVuSans-7a" d="M 353 3500 
L 3084 3500 
L 3084 2975 
L 922 459 
L 3084 459 
L 3084 0 
L 275 0 
L 275 525 
L 2438 3041 
L 353 3041 
L 353 3500 
z
" transform="scale(0.015625)"/>
       <path id="DejaVuSans-79" d="M 2059 -325 
Q 1816 -950 1584 -1140 
Q 1353 -1331 966 -1331 
L 506 -1331 
L 506 -850 
L 844 -850 
Q 1081 -850 1212 -737 
Q 1344 -625 1503 -206 
L 1606 56 
L 191 3500 
L 800 3500 
L 1894 763 
L 2988 3500 
L 3597 3500 
L 2059 -325 
z
" transform="scale(0.015625)"/>
       <path id="DejaVuSans-73" d="M 2834 3397 
L 2834 2853 
Q 2591 2978 2328 3040 
Q 2066 3103 1784 3103 
Q 1356 3103 1142 2972 
Q 928 2841 928 2578 
Q 928 2378 1081 2264 
Q 1234 2150 1697 2047 
L 1894 2003 
Q 2506 1872 2764 1633 
Q 3022 1394 3022 966 
Q 3022 478 2636 193 
Q 2250 -91 1575 -91 
Q 1294 -91 989 -36 
Q 684 19 347 128 
L 347 722 
Q 666 556 975 473 
Q 1284 391 1588 391 
Q 1994 391 2212 530 
Q 2431 669 2431 922 
Q 2431 1156 2273 1281 
Q 2116 1406 1581 1522 
L 1381 1569 
Q 847 1681 609 1914 
Q 372 2147 372 2553 
Q 372 3047 722 3315 
Q 1072 3584 1716 3584 
Q 2034 3584 2315 3537 
Q 2597 3491 2834 3397 
z
" transform="scale(0.015625)"/>
       <path id="DejaVuSans-74" d="M 1172 4494 
L 1172 3500 
L 2356 3500 
L 2356 3053 
L 1172 3053 
L 1172 1153 
Q 1172 725 1289 603 
Q 1406 481 1766 481 
L 2356 481 
L 2356 0 
L 1766 0 
Q 1100 0 847 248 
Q 594 497 594 1153 
L 594 3053 
L 172 3053 
L 172 3500 
L 594 3500 
L 594 4494 
L 1172 4494 
z
" transform="scale(0.015625)"/>
       <path id="DejaVuSans-6f" d="M 1959 3097 
Q 1497 3097 1228 2736 
Q 959 2375 959 1747 
Q 959 1119 1226 758 
Q 1494 397 1959 397 
Q 2419 397 2687 759 
Q 2956 1122 2956 1747 
Q 2956 2369 2687 2733 
Q 2419 3097 1959 3097 
z
M 1959 3584 
Q 2709 3584 3137 3096 
Q 3566 2609 3566 1747 
Q 3566 888 3137 398 
Q 2709 -91 1959 -91 
Q 1206 -91 779 398 
Q 353 888 353 1747 
Q 353 2609 779 3096 
Q 1206 3584 1959 3584 
z
" transform="scale(0.015625)"/>
       <path id="DejaVuSans-77" d="M 269 3500 
L 844 3500 
L 1563 769 
L 2278 3500 
L 2956 3500 
L 3675 769 
L 4391 3500 
L 4966 3500 
L 4050 0 
L 3372 0 
L 2619 2869 
L 1863 0 
L 1184 0 
L 269 3500 
z
" transform="scale(0.015625)"/>
       <path id="DejaVuSans-69" d="M 603 3500 
L 1178 3500 
L 1178 0 
L 603 0 
L 603 3500 
z
M 603 4863 
L 1178 4863 
L 1178 4134 
L 603 4134 
L 603 4863 
z
" transform="scale(0.015625)"/>
      </defs>
      <use xlink:href="#DejaVuSans-50"/>
      <use xlink:href="#DejaVuSans-72" transform="translate(58.552734 0)"/>
      <use xlink:href="#DejaVuSans-7a" transform="translate(99.666016 0)"/>
      <use xlink:href="#DejaVuSans-79" transform="translate(152.15625 0)"/>
      <use xlink:href="#DejaVuSans-73" transform="translate(211.335938 0)"/>
      <use xlink:href="#DejaVuSans-74" transform="translate(263.435547 0)"/>
      <use xlink:href="#DejaVuSans-6f" transform="translate(302.644531 0)"/>
      <use xlink:href="#DejaVuSans-73" transform="translate(363.826172 0)"/>
      <use xlink:href="#DejaVuSans-6f" transform="translate(415.925781 0)"/>
      <use xlink:href="#DejaVuSans-77" transform="translate(477.107422 0)"/>
      <use xlink:href="#DejaVuSans-61" transform="translate(558.894531 0)"/>
      <use xlink:href="#DejaVuSans-6e" transform="translate(620.173828 0)"/>
      <use xlink:href="#DejaVuSans-69" transform="translate(683.552734 0)"/>
      <use xlink:href="#DejaVuSans-65" transform="translate(711.335938 0)"/>
     </g>
    </g>
   </g>
   <g id="line2d_21">
    <path d="M 73.832727 295.488 
L 75.464157 258.85466 
L 77.095587 215.774435 
L 78.727017 197.97933 
L 80.358447 182.771331 
L 81.989877 182.622397 
L 83.621307 187.93319 
L 85.252736 177.593663 
L 86.884166 176.289445 
L 88.515596 179.695245 
L 90.147026 177.476014 
L 91.778456 172.462988 
L 93.409886 174.238445 
L 95.041316 175.722964 
L 96.672746 178.439227 
L 98.304175 180.809613 
L 99.935605 174.943951 
L 101.567035 172.569125 
L 103.198465 173.043314 
L 104.829895 169.906507 
L 106.461325 173.222399 
L 108.092755 170.390762 
L 109.724185 169.593675 
L 111.355614 168.921585 
L 112.987044 167.996003 
L 114.618474 167.297232 
L 116.249904 169.699302 
L 117.881334 168.618584 
L 119.512764 167.231682 
L 121.144194 168.308905 
L 122.775624 167.320857 
L 124.407053 167.81216 
L 126.038483 167.799599 
L 127.669913 166.527879 
L 129.301343 166.400252 
L 130.932773 165.406048 
L 132.564203 165.197618 
L 134.195633 165.950969 
L 135.827063 165.046111 
L 137.458492 166.419885 
L 139.089922 168.521214 
L 140.721352 168.480141 
L 142.352782 166.731576 
L 143.984212 165.976739 
L 145.615642 164.403757 
L 147.247072 163.714311 
L 148.878502 164.171467 
L 150.509931 165.751183 
L 152.141361 167.68267 
L 153.772791 167.398413 
L 155.404221 166.508257 
L 157.035651 164.831064 
L 158.667081 165.935633 
L 160.298511 167.259706 
L 161.929941 163.432136 
L 163.56137 167.187233 
L 165.1928 164.474476 
L 166.82423 166.14118 
L 168.45566 166.592524 
L 170.08709 165.426733 
L 171.71852 165.000153 
L 173.34995 167.151334 
L 174.98138 165.991851 
L 176.61281 164.989093 
L 178.244239 164.764152 
L 179.875669 167.208145 
L 181.507099 165.253096 
L 183.138529 166.533327 
L 184.769959 163.922879 
L 186.401389 165.815776 
L 188.032819 167.392975 
L 189.664249 164.921946 
L 191.295678 166.425899 
L 192.927108 165.955651 
L 194.558538 167.444023 
L 196.189968 164.191413 
L 197.821398 166.449202 
L 199.452828 165.999749 
L 201.084258 167.042611 
L 202.715688 164.663951 
L 204.347117 163.258689 
L 205.978547 165.035043 
L 207.609977 164.269304 
L 210.872837 164.921084 
L 212.504267 166.419175 
L 214.135697 164.179399 
L 215.767127 164.19876 
L 217.398556 166.276871 
L 219.029986 167.281852 
L 220.661416 165.353261 
L 222.292846 166.907624 
L 223.924276 167.293795 
L 225.555706 165.910732 
L 227.187136 166.399383 
L 228.818566 164.15862 
L 230.449995 166.154175 
L 232.081425 164.304402 
L 233.712855 166.549459 
L 236.975715 163.580665 
L 238.607145 167.398155 
L 240.238575 164.480831 
L 241.870005 161.943617 
L 243.501434 165.223726 
L 245.132864 166.961316 
L 246.764294 165.404575 
L 248.395724 164.476325 
L 250.027154 162.911441 
L 251.658584 166.13181 
L 253.290014 164.853067 
L 254.921444 165.491786 
L 256.552873 163.093684 
L 258.184303 165.29497 
L 259.815733 166.112347 
L 261.447163 163.228292 
L 263.078593 164.809119 
L 264.710023 164.345416 
L 266.341453 165.774431 
L 267.972883 166.559034 
L 269.604312 164.702518 
L 271.235742 164.777962 
L 274.498602 166.00285 
L 276.130032 164.962995 
L 277.761462 165.355719 
L 279.392892 164.40597 
L 281.024322 165.45617 
L 282.655751 163.598701 
L 284.287181 165.375847 
L 285.918611 167.361211 
L 287.550041 165.707773 
L 289.181471 164.602236 
L 290.812901 167.853276 
L 294.075761 165.087787 
L 295.70719 165.564829 
L 297.33862 164.884461 
L 298.97005 166.483191 
L 300.60148 164.554922 
L 302.23291 164.515025 
L 303.86434 168.801299 
L 305.49577 165.005681 
L 307.1272 164.381453 
L 308.75863 166.164782 
L 310.390059 164.166216 
L 312.021489 167.723643 
L 313.652919 164.362538 
L 315.284349 165.140551 
L 316.915779 165.053884 
L 318.547209 165.958428 
L 320.178639 167.858764 
L 321.810069 162.12677 
L 323.441498 164.406531 
L 325.072928 167.38246 
L 326.704358 165.497091 
L 328.335788 166.036212 
L 329.967218 165.226495 
L 331.598648 166.587675 
L 333.230078 167.145012 
L 334.861508 164.95315 
L 336.492937 166.702977 
L 338.124367 165.798841 
L 339.755797 164.628928 
L 341.387227 166.953578 
L 343.018657 165.155431 
L 344.650087 165.724096 
L 346.281517 165.286375 
L 347.912947 166.54012 
L 349.544376 163.487185 
L 351.175806 167.565377 
L 352.807236 167.594165 
L 354.438666 165.577331 
L 356.070096 165.697192 
L 357.701526 166.984899 
L 359.332956 167.020853 
L 360.964386 166.130507 
L 362.595815 166.266189 
L 364.227245 169.179702 
L 365.858675 166.312219 
L 367.490105 165.886316 
L 369.121535 167.207526 
L 370.752965 166.251812 
L 372.384395 166.526338 
L 374.015825 166.516512 
L 375.647254 166.813006 
L 377.278684 163.405795 
L 378.910114 167.985797 
L 380.541544 165.071122 
L 383.804404 167.698563 
L 385.435834 167.575286 
L 387.067264 166.539778 
L 388.698693 167.618619 
L 390.330123 167.687906 
L 391.961553 166.781695 
L 393.592983 164.99376 
L 396.855843 168.558309 
L 398.487273 167.744674 
L 398.487273 167.744674 
" clip-path="url(#pc652772377)" style="fill: none; stroke: #0000ff; stroke-width: 1.5; stroke-linecap: square"/>
   </g>
   <g id="line2d_22">
    <path d="M 73.832727 247.444889 
L 75.464157 205.490268 
L 77.095587 170.050466 
L 78.727017 158.549824 
L 80.358447 149.940854 
L 81.989877 152.795366 
L 83.621307 161.782848 
L 85.252736 152.462897 
L 86.884166 148.883059 
L 88.515596 151.839021 
L 90.147026 150.486446 
L 91.778456 146.895911 
L 93.409886 150.227612 
L 95.041316 149.836194 
L 96.672746 149.121545 
L 98.304175 148.990391 
L 99.935605 146.500981 
L 101.567035 148.142553 
L 103.198465 149.965248 
L 104.829895 143.897545 
L 106.461325 149.688691 
L 108.092755 145.686615 
L 109.724185 147.082712 
L 111.355614 147.591762 
L 112.987044 143.763844 
L 114.618474 143.090952 
L 116.249904 148.626015 
L 117.881334 148.805168 
L 119.512764 144.705474 
L 121.144194 146.407893 
L 122.775624 143.680816 
L 124.407053 144.453486 
L 126.038483 143.981646 
L 127.669913 141.981764 
L 129.301343 145.739133 
L 130.932773 143.0844 
L 132.564203 144.019008 
L 134.195633 143.863546 
L 135.827063 143.281129 
L 137.458492 145.771878 
L 139.089922 149.204372 
L 140.721352 145.212768 
L 142.352782 143.667953 
L 143.984212 145.702048 
L 145.615642 141.803281 
L 147.247072 140.899533 
L 148.878502 141.235548 
L 150.509931 144.996856 
L 152.141361 146.376024 
L 153.772791 146.789383 
L 155.404221 143.670908 
L 157.035651 143.856235 
L 158.667081 143.179418 
L 160.298511 148.031089 
L 161.929941 140.800713 
L 163.56137 146.105702 
L 165.1928 141.738118 
L 166.82423 145.183975 
L 168.45566 145.145539 
L 170.08709 142.556179 
L 171.71852 142.257585 
L 173.34995 144.183871 
L 174.98138 143.624768 
L 176.61281 143.889424 
L 178.244239 143.888161 
L 179.875669 146.623891 
L 181.507099 142.975049 
L 183.138529 146.587415 
L 184.769959 141.345269 
L 186.401389 145.486533 
L 188.032819 143.927326 
L 189.664249 142.9713 
L 191.295678 145.514389 
L 192.927108 142.56021 
L 194.558538 145.491445 
L 196.189968 140.817964 
L 197.821398 145.213612 
L 199.452828 145.410167 
L 201.084258 146.922968 
L 202.715688 143.319365 
L 204.347117 142.571213 
L 205.978547 144.317073 
L 207.609977 142.977726 
L 209.241407 141.230179 
L 210.872837 142.63514 
L 212.504267 146.815422 
L 214.135697 142.788651 
L 215.767127 142.25018 
L 217.398556 144.81188 
L 219.029986 146.84204 
L 220.661416 142.73538 
L 222.292846 146.732863 
L 223.924276 147.42185 
L 225.555706 145.444615 
L 227.187136 143.284432 
L 228.818566 142.47617 
L 230.449995 144.531657 
L 232.081425 142.564377 
L 233.712855 146.022004 
L 235.344285 142.5258 
L 236.975715 140.514025 
L 238.607145 147.529515 
L 240.238575 142.153108 
L 241.870005 139.868532 
L 243.501434 141.826952 
L 245.132864 144.649456 
L 246.764294 142.669189 
L 248.395724 141.8931 
L 250.027154 139.567554 
L 251.658584 143.602421 
L 253.290014 144.37378 
L 256.552873 141.667094 
L 258.184303 143.266324 
L 259.815733 145.648041 
L 261.447163 140.501276 
L 263.078593 141.836157 
L 264.710023 144.000872 
L 266.341453 143.74808 
L 267.972883 145.063314 
L 269.604312 142.421825 
L 271.235742 142.180113 
L 272.867172 143.213261 
L 274.498602 142.924908 
L 276.130032 142.116409 
L 277.761462 145.698222 
L 279.392892 143.1959 
L 281.024322 146.018892 
L 282.655751 140.682277 
L 284.287181 143.514667 
L 287.550041 147.289165 
L 289.181471 144.142043 
L 290.812901 144.19974 
L 292.444331 145.433048 
L 294.075761 143.758008 
L 295.70719 144.475737 
L 297.33862 142.872781 
L 298.97005 144.595093 
L 300.60148 142.686257 
L 302.23291 141.863702 
L 303.86434 144.562212 
L 305.49577 144.013264 
L 307.1272 142.394281 
L 308.75863 142.112858 
L 310.390059 142.237722 
L 312.021489 146.425079 
L 313.652919 144.599157 
L 316.915779 142.893284 
L 318.547209 145.745903 
L 320.178639 147.876799 
L 321.810069 140.734186 
L 323.441498 142.91919 
L 325.072928 149.277784 
L 326.704358 144.814791 
L 328.335788 144.380007 
L 329.967218 143.359944 
L 331.598648 146.288365 
L 333.230078 145.544077 
L 334.861508 142.252813 
L 336.492937 148.235271 
L 338.124367 144.244515 
L 339.755797 144.293907 
L 341.387227 147.041759 
L 343.018657 144.125637 
L 344.650087 143.975011 
L 346.281517 144.641749 
L 347.912947 146.785522 
L 349.544376 143.532427 
L 351.175806 148.544735 
L 352.807236 146.958048 
L 354.438666 144.873347 
L 356.070096 145.027316 
L 357.701526 147.216813 
L 359.332956 146.580484 
L 360.964386 143.411704 
L 362.595815 145.616062 
L 364.227245 146.63669 
L 365.858675 146.761526 
L 367.490105 145.533097 
L 369.121535 146.299969 
L 370.752965 143.932849 
L 372.384395 145.568584 
L 374.015825 146.151749 
L 375.647254 147.124554 
L 377.278684 141.900441 
L 378.910114 148.187606 
L 380.541544 144.932659 
L 382.172974 147.329245 
L 385.435834 145.736903 
L 387.067264 144.655296 
L 388.698693 146.390483 
L 390.330123 148.416203 
L 391.961553 144.417626 
L 393.592983 143.838893 
L 396.855843 149.734316 
L 398.487273 147.775589 
L 398.487273 147.775589 
" clip-path="url(#pc652772377)" style="fill: none; stroke-dasharray: 9.6,2.4,1.5,2.4; stroke-dashoffset: 0; stroke: #008000; stroke-width: 1.5"/>
   </g>
   <g id="line2d_23">
    <path d="M 73.832727 157.556689 
L 75.464157 141.398345 
L 77.095587 118.760976 
L 78.727017 98.596418 
L 80.358447 102.587063 
L 81.989877 98.727908 
L 83.621307 106.53924 
L 85.252736 110.350852 
L 86.884166 118.771962 
L 88.515596 110.291036 
L 90.147026 98.282253 
L 91.778456 110.748706 
L 93.409886 102.730961 
L 95.041316 118.465888 
L 96.672746 106.295175 
L 98.304175 114.732003 
L 99.935605 106.547588 
L 103.198465 114.901222 
L 104.829895 91.433286 
L 106.461325 103.08808 
L 108.092755 99.241373 
L 109.724185 114.500137 
L 111.355614 98.776186 
L 112.987044 77.73578 
L 114.618474 94.997996 
L 116.249904 106.216968 
L 117.881334 106.339633 
L 119.512764 68.211768 
L 121.144194 98.740633 
L 122.775624 91.204882 
L 124.407053 98.700272 
L 126.038483 53.568 
L 127.669913 65.449619 
L 129.301343 95.203751 
L 130.932773 98.703305 
L 132.564203 94.57025 
L 134.195633 98.714252 
L 135.827063 98.751597 
L 137.458492 102.241786 
L 139.089922 102.248104 
L 140.721352 114.180911 
L 142.352782 91.713142 
L 143.984212 95.159523 
L 145.615642 106.077368 
L 147.247072 95.171192 
L 148.878502 59.219087 
L 150.509931 98.755507 
L 152.141361 102.553163 
L 153.772791 92.1076 
L 155.404221 102.708665 
L 157.035651 77.715204 
L 158.667081 95.183849 
L 160.298511 102.409723 
L 161.929941 94.978145 
L 163.56137 102.181731 
L 165.1928 84.381671 
L 166.82423 78.404987 
L 168.45566 110.688784 
L 170.08709 98.368023 
L 171.71852 94.540074 
L 173.34995 110.294952 
L 174.98138 95.149108 
L 176.61281 105.86395 
L 178.244239 74.547058 
L 179.875669 110.460969 
L 181.507099 92.492096 
L 183.138529 102.478823 
L 184.769959 68.341139 
L 186.401389 91.17863 
L 188.032819 91.930616 
L 189.664249 94.612576 
L 191.295678 110.614668 
L 192.927108 94.82246 
L 194.558538 84.5544 
L 196.189968 102.152861 
L 197.821398 74.751753 
L 199.452828 94.867687 
L 201.084258 102.477311 
L 202.715688 98.862797 
L 204.347117 102.482117 
L 205.978547 106.95609 
L 207.609977 71.117599 
L 209.241407 77.406343 
L 210.872837 78.240955 
L 212.504267 94.945447 
L 214.135697 98.398625 
L 215.767127 102.314741 
L 217.398556 106.69595 
L 219.029986 114.857123 
L 220.661416 88.148859 
L 222.292846 106.206069 
L 223.924276 114.224076 
L 225.555706 95.033588 
L 227.187136 110.534346 
L 228.818566 87.980983 
L 230.449995 99.099927 
L 232.081425 91.982591 
L 233.712855 98.835966 
L 235.344285 95.49645 
L 236.975715 84.434243 
L 238.607145 110.382446 
L 241.870005 59.675881 
L 243.501434 77.550461 
L 245.132864 111.093033 
L 246.764294 91.515788 
L 248.395724 98.938686 
L 250.027154 90.94455 
L 251.658584 87.813622 
L 253.290014 95.265779 
L 254.921444 84.483925 
L 256.552873 68.21958 
L 258.184303 74.535168 
L 259.815733 91.284808 
L 261.447163 91.140715 
L 263.078593 77.994622 
L 264.710023 95.352116 
L 266.341453 110.27227 
L 267.972883 106.096633 
L 269.604312 71.334694 
L 271.235742 91.441313 
L 274.498602 98.365 
L 276.130032 102.22744 
L 277.761462 114.21324 
L 279.392892 98.687429 
L 281.024322 110.548208 
L 282.655751 78.371706 
L 284.287181 70.85225 
L 285.918611 91.190714 
L 287.550041 106.237802 
L 289.181471 91.892173 
L 290.812901 94.844759 
L 292.444331 98.897709 
L 294.075761 106.802338 
L 295.70719 94.595846 
L 297.33862 88.253997 
L 298.97005 98.785166 
L 300.60148 102.692021 
L 302.23291 64.912289 
L 303.86434 102.291421 
L 305.49577 95.431706 
L 307.1272 83.949474 
L 308.75863 87.71584 
L 310.390059 94.676707 
L 312.021489 87.719454 
L 313.652919 106.404033 
L 315.284349 106.757533 
L 316.915779 91.458953 
L 318.547209 99.160814 
L 320.178639 102.793763 
L 321.810069 77.97828 
L 323.441498 98.820469 
L 325.072928 114.604107 
L 326.704358 91.365155 
L 328.335788 87.958849 
L 329.967218 106.315219 
L 331.598648 114.501734 
L 333.230078 94.814563 
L 334.861508 71.389968 
L 336.492937 102.885689 
L 338.124367 84.786968 
L 339.755797 95.41013 
L 341.387227 98.718023 
L 343.018657 102.552701 
L 344.650087 91.082428 
L 346.281517 98.398046 
L 347.912947 110.68905 
L 349.544376 94.920163 
L 351.175806 102.350421 
L 352.807236 102.123903 
L 354.438666 91.433214 
L 356.070096 102.694882 
L 357.701526 95.020636 
L 359.332956 102.647348 
L 360.964386 102.605176 
L 362.595815 110.468319 
L 364.227245 110.737276 
L 365.858675 98.386372 
L 367.490105 102.557074 
L 369.121535 114.623694 
L 370.752965 95.312831 
L 372.384395 95.160318 
L 374.015825 114.064181 
L 375.647254 110.35886 
L 377.278684 77.299039 
L 378.910114 102.45521 
L 380.541544 102.744555 
L 382.172974 98.885231 
L 383.804404 114.49105 
L 385.435834 98.60685 
L 387.067264 102.746477 
L 388.698693 98.974555 
L 390.330123 110.62693 
L 391.961553 95.132425 
L 393.592983 106.096253 
L 395.224413 80.73565 
L 396.855843 110.542313 
L 398.487273 110.234093 
L 398.487273 110.234093 
" clip-path="url(#pc652772377)" style="fill: none; stroke: #ff0000; stroke-width: 1.5; stroke-linecap: square"/>
   </g>
   <g id="patch_3">
    <path d="M 57.6 307.584 
L 57.6 41.472 
" style="fill: none; stroke: #000000; stroke-width: 0.8; stroke-linejoin: miter; stroke-linecap: square"/>
   </g>
   <g id="patch_4">
    <path d="M 414.72 307.584 
L 414.72 41.472 
" style="fill: none; stroke: #000000; stroke-width: 0.8; stroke-linejoin: miter; stroke-linecap: square"/>
   </g>
   <g id="patch_5">
    <path d="M 57.6 307.584 
L 414.72 307.584 
" style="fill: none; stroke: #000000; stroke-width: 0.8; stroke-linejoin: miter; stroke-linecap: square"/>
   </g>
   <g id="patch_6">
    <path d="M 57.6 41.472 
L 414.72 41.472 
" style="fill: none; stroke: #000000; stroke-width: 0.8; stroke-linejoin: miter; stroke-linecap: square"/>
   </g>
   <g id="text_13">
    <!-- Średnie i najlepsze przystosowanie w każdej generacji -->
    <g transform="translate(73.26 35.472) scale(0.12 -0.12)">
     <defs>
      <path id="DejaVuSans-15a" d="M 2236 5921 
L 2814 5921 
L 2102 5096 
L 1623 5096 
L 2236 5921 
z
M 3425 4513 
L 3425 3897 
Q 3066 4069 2747 4153 
Q 2428 4238 2131 4238 
Q 1616 4238 1336 4038 
Q 1056 3838 1056 3469 
Q 1056 3159 1242 3001 
Q 1428 2844 1947 2747 
L 2328 2669 
Q 3034 2534 3370 2195 
Q 3706 1856 3706 1288 
Q 3706 609 3251 259 
Q 2797 -91 1919 -91 
Q 1588 -91 1214 -16 
Q 841 59 441 206 
L 441 856 
Q 825 641 1194 531 
Q 1563 422 1919 422 
Q 2459 422 2753 634 
Q 3047 847 3047 1241 
Q 3047 1584 2836 1778 
Q 2625 1972 2144 2069 
L 1759 2144 
Q 1053 2284 737 2584 
Q 422 2884 422 3419 
Q 422 4038 858 4394 
Q 1294 4750 2059 4750 
Q 2388 4750 2728 4690 
Q 3069 4631 3425 4513 
z
" transform="scale(0.015625)"/>
      <path id="DejaVuSans-64" d="M 2906 2969 
L 2906 4863 
L 3481 4863 
L 3481 0 
L 2906 0 
L 2906 525 
Q 2725 213 2448 61 
Q 2172 -91 1784 -91 
Q 1150 -91 751 415 
Q 353 922 353 1747 
Q 353 2572 751 3078 
Q 1150 3584 1784 3584 
Q 2172 3584 2448 3432 
Q 2725 3281 2906 2969 
z
M 947 1747 
Q 947 1113 1208 752 
Q 1469 391 1925 391 
Q 2381 391 2643 752 
Q 2906 1113 2906 1747 
Q 2906 2381 2643 2742 
Q 2381 3103 1925 3103 
Q 1469 3103 1208 2742 
Q 947 2381 947 1747 
z
" transform="scale(0.015625)"/>
      <path id="DejaVuSans-20" transform="scale(0.015625)"/>
      <path id="DejaVuSans-6c" d="M 603 4863 
L 1178 4863 
L 1178 0 
L 603 0 
L 603 4863 
z
" transform="scale(0.015625)"/>
      <path id="DejaVuSans-70" d="M 1159 525 
L 1159 -1331 
L 581 -1331 
L 581 3500 
L 1159 3500 
L 1159 2969 
Q 1341 3281 1617 3432 
Q 1894 3584 2278 3584 
Q 2916 3584 3314 3078 
Q 3713 2572 3713 1747 
Q 3713 922 3314 415 
Q 2916 -91 2278 -91 
Q 1894 -91 1617 61 
Q 1341 213 1159 525 
z
M 3116 1747 
Q 3116 2381 2855 2742 
Q 2594 3103 2138 3103 
Q 1681 3103 1420 2742 
Q 1159 2381 1159 1747 
Q 1159 1113 1420 752 
Q 1681 391 2138 391 
Q 2594 391 2855 752 
Q 3116 1113 3116 1747 
z
" transform="scale(0.015625)"/>
      <path id="DejaVuSans-6b" d="M 581 4863 
L 1159 4863 
L 1159 1991 
L 2875 3500 
L 3609 3500 
L 1753 1863 
L 3688 0 
L 2938 0 
L 1159 1709 
L 1159 0 
L 581 0 
L 581 4863 
z
" transform="scale(0.015625)"/>
      <path id="DejaVuSans-17c" d="M 1378 4863 
L 1953 4863 
L 1953 4134 
L 1378 4134 
L 1378 4863 
z
M 1672 3584 
L 1672 3584 
z
M 353 3500 
L 3084 3500 
L 3084 2975 
L 922 459 
L 3084 459 
L 3084 0 
L 275 0 
L 275 525 
L 2438 3041 
L 353 3041 
L 353 3500 
z
" transform="scale(0.015625)"/>
      <path id="DejaVuSans-67" d="M 2906 1791 
Q 2906 2416 2648 2759 
Q 2391 3103 1925 3103 
Q 1463 3103 1205 2759 
Q 947 2416 947 1791 
Q 947 1169 1205 825 
Q 1463 481 1925 481 
Q 2391 481 2648 825 
Q 2906 1169 2906 1791 
z
M 3481 434 
Q 3481 -459 3084 -895 
Q 2688 -1331 1869 -1331 
Q 1566 -1331 1297 -1286 
Q 1028 -1241 775 -1147 
L 775 -588 
Q 1028 -725 1275 -790 
Q 1522 -856 1778 -856 
Q 2344 -856 2625 -561 
Q 2906 -266 2906 331 
L 2906 616 
Q 2728 306 2450 153 
Q 2172 0 1784 0 
Q 1141 0 747 490 
Q 353 981 353 1791 
Q 353 2603 747 3093 
Q 1141 3584 1784 3584 
Q 2172 3584 2450 3431 
Q 2728 3278 2906 2969 
L 2906 3500 
L 3481 3500 
L 3481 434 
z
" transform="scale(0.015625)"/>
     </defs>
     <use xlink:href="#DejaVuSans-15a"/>
     <use xlink:href="#DejaVuSans-72" transform="translate(63.476562 0)"/>
     <use xlink:href="#DejaVuSans-65" transform="translate(102.339844 0)"/>
     <use xlink:href="#DejaVuSans-64" transform="translate(163.863281 0)"/>
     <use xlink:href="#DejaVuSans-6e" transform="translate(227.339844 0)"/>
     <use xlink:href="#DejaVuSans-69" transform="translate(290.71875 0)"/>
     <use xlink:href="#DejaVuSans-65" transform="translate(318.501953 0)"/>
     <use xlink:href="#DejaVuSans-20" transform="translate(380.025391 0)"/>
     <use xlink:href="#DejaVuSans-69" transform="translate(411.8125 0)"/>
     <use xlink:href="#DejaVuSans-20" transform="translate(439.595703 0)"/>
     <use xlink:href="#DejaVuSans-6e" transform="translate(471.382812 0)"/>
     <use xlink:href="#DejaVuSans-61" transform="translate(534.761719 0)"/>
     <use xlink:href="#DejaVuSans-6a" transform="translate(596.041016 0)"/>
     <use xlink:href="#DejaVuSans-6c" transform="translate(623.824219 0)"/>
     <use xlink:href="#DejaVuSans-65" transform="translate(651.607422 0)"/>
     <use xlink:href="#DejaVuSans-70" transform="translate(713.130859 0)"/>
     <use xlink:href="#DejaVuSans-73" transform="translate(776.607422 0)"/>
     <use xlink:href="#DejaVuSans-7a" transform="translate(828.707031 0)"/>
     <use xlink:href="#DejaVuSans-65" transform="translate(881.197266 0)"/>
     <use xlink:href="#DejaVuSans-20" transform="translate(942.720703 0)"/>
     <use xlink:href="#DejaVuSans-70" transform="translate(974.507812 0)"/>
     <use xlink:href="#DejaVuSans-72" transform="translate(1037.984375 0)"/>
     <use xlink:href="#DejaVuSans-7a" transform="translate(1079.097656 0)"/>
     <use xlink:href="#DejaVuSans-79" transform="translate(1131.587891 0)"/>
     <use xlink:href="#DejaVuSans-73" transform="translate(1190.767578 0)"/>
     <use xlink:href="#DejaVuSans-74" transform="translate(1242.867188 0)"/>
     <use xlink:href="#DejaVuSans-6f" transform="translate(1282.076172 0)"/>
     <use xlink:href="#DejaVuSans-73" transform="translate(1343.257812 0)"/>
     <use xlink:href="#DejaVuSans-6f" transform="translate(1395.357422 0)"/>
     <use xlink:href="#DejaVuSans-77" transform="translate(1456.539062 0)"/>
     <use xlink:href="#DejaVuSans-61" transform="translate(1538.326172 0)"/>
     <use xlink:href="#DejaVuSans-6e" transform="translate(1599.605469 0)"/>
     <use xlink:href="#DejaVuSans-69" transform="translate(1662.984375 0)"/>
     <use xlink:href="#DejaVuSans-65" transform="translate(1690.767578 0)"/>
     <use xlink:href="#DejaVuSans-20" transform="translate(1752.291016 0)"/>
     <use xlink:href="#DejaVuSans-77" transform="translate(1784.078125 0)"/>
     <use xlink:href="#DejaVuSans-20" transform="translate(1865.865234 0)"/>
     <use xlink:href="#DejaVuSans-6b" transform="translate(1897.652344 0)"/>
     <use xlink:href="#DejaVuSans-61" transform="translate(1953.8125 0)"/>
     <use xlink:href="#DejaVuSans-17c" transform="translate(2015.091797 0)"/>
     <use xlink:href="#DejaVuSans-64" transform="translate(2067.582031 0)"/>
     <use xlink:href="#DejaVuSans-65" transform="translate(2131.058594 0)"/>
     <use xlink:href="#DejaVuSans-6a" transform="translate(2192.582031 0)"/>
     <use xlink:href="#DejaVuSans-20" transform="translate(2220.365234 0)"/>
     <use xlink:href="#DejaVuSans-67" transform="translate(2252.152344 0)"/>
     <use xlink:href="#DejaVuSans-65" transform="translate(2315.628906 0)"/>
     <use xlink:href="#DejaVuSans-6e" transform="translate(2377.152344 0)"/>
     <use xlink:href="#DejaVuSans-65" transform="translate(2440.53125 0)"/>
     <use xlink:href="#DejaVuSans-72" transform="translate(2502.054688 0)"/>
     <use xlink:href="#DejaVuSans-61" transform="translate(2543.167969 0)"/>
     <use xlink:href="#DejaVuSans-63" transform="translate(2604.447266 0)"/>
     <use xlink:href="#DejaVuSans-6a" transform="translate(2659.427734 0)"/>
     <use xlink:href="#DejaVuSans-69" transform="translate(2687.210938 0)"/>
    </g>
   </g>
   <g id="legend_1">
    <g id="patch_7">
     <path d="M 279.790313 302.584 
L 407.72 302.584 
Q 409.72 302.584 409.72 300.584 
L 409.72 257.549625 
Q 409.72 255.549625 407.72 255.549625 
L 279.790313 255.549625 
Q 277.790313 255.549625 277.790313 257.549625 
L 277.790313 300.584 
Q 277.790313 302.584 279.790313 302.584 
z
" style="fill: #ffffff; opacity: 0.8; stroke: #cccccc; stroke-linejoin: miter"/>
    </g>
    <g id="line2d_24">
     <path d="M 281.790313 263.648062 
L 291.790313 263.648062 
L 301.790313 263.648062 
" style="fill: none; stroke: #0000ff; stroke-width: 1.5; stroke-linecap: square"/>
    </g>
    <g id="text_14">
     <!-- Średnia -->
     <g transform="translate(309.790313 267.148062) scale(0.1 -0.1)">
      <use xlink:href="#DejaVuSans-15a"/>
      <use xlink:href="#DejaVuSans-72" transform="translate(63.476562 0)"/>
      <use xlink:href="#DejaVuSans-65" transform="translate(102.339844 0)"/>
      <use xlink:href="#DejaVuSans-64" transform="translate(163.863281 0)"/>
      <use xlink:href="#DejaVuSans-6e" transform="translate(227.339844 0)"/>
      <use xlink:href="#DejaVuSans-69" transform="translate(290.71875 0)"/>
      <use xlink:href="#DejaVuSans-61" transform="translate(318.501953 0)"/>
     </g>
    </g>
    <g id="line2d_25">
     <path d="M 281.790313 278.326188 
L 291.790313 278.326188 
L 301.790313 278.326188 
" style="fill: none; stroke-dasharray: 9.6,2.4,1.5,2.4; stroke-dashoffset: 0; stroke: #008000; stroke-width: 1.5"/>
    </g>
    <g id="text_15">
     <!-- ±1 Odchylenie std. -->
     <g transform="translate(309.790313 281.826188) scale(0.1 -0.1)">
      <defs>
       <path id="DejaVuSans-b1" d="M 2944 4013 
L 2944 2803 
L 4684 2803 
L 4684 2272 
L 2944 2272 
L 2944 1063 
L 2419 1063 
L 2419 2272 
L 678 2272 
L 678 2803 
L 2419 2803 
L 2419 4013 
L 2944 4013 
z
M 678 531 
L 4684 531 
L 4684 0 
L 678 0 
L 678 531 
z
" transform="scale(0.015625)"/>
       <path id="DejaVuSans-4f" d="M 2522 4238 
Q 1834 4238 1429 3725 
Q 1025 3213 1025 2328 
Q 1025 1447 1429 934 
Q 1834 422 2522 422 
Q 3209 422 3611 934 
Q 4013 1447 4013 2328 
Q 4013 3213 3611 3725 
Q 3209 4238 2522 4238 
z
M 2522 4750 
Q 3503 4750 4090 4092 
Q 4678 3434 4678 2328 
Q 4678 1225 4090 567 
Q 3503 -91 2522 -91 
Q 1538 -91 948 565 
Q 359 1222 359 2328 
Q 359 3434 948 4092 
Q 1538 4750 2522 4750 
z
" transform="scale(0.015625)"/>
       <path id="DejaVuSans-68" d="M 3513 2113 
L 3513 0 
L 2938 0 
L 2938 2094 
Q 2938 2591 2744 2837 
Q 2550 3084 2163 3084 
Q 1697 3084 1428 2787 
Q 1159 2491 1159 1978 
L 1159 0 
L 581 0 
L 581 4863 
L 1159 4863 
L 1159 2956 
Q 1366 3272 1645 3428 
Q 1925 3584 2291 3584 
Q 2894 3584 3203 3211 
Q 3513 2838 3513 2113 
z
" transform="scale(0.015625)"/>
       <path id="DejaVuSans-2e" d="M 684 794 
L 1344 794 
L 1344 0 
L 684 0 
L 684 794 
z
" transform="scale(0.015625)"/>
      </defs>
      <use xlink:href="#DejaVuSans-b1"/>
      <use xlink:href="#DejaVuSans-31" transform="translate(83.789062 0)"/>
      <use xlink:href="#DejaVuSans-20" transform="translate(147.412109 0)"/>
      <use xlink:href="#DejaVuSans-4f" transform="translate(179.199219 0)"/>
      <use xlink:href="#DejaVuSans-64" transform="translate(257.910156 0)"/>
      <use xlink:href="#DejaVuSans-63" transform="translate(321.386719 0)"/>
      <use xlink:href="#DejaVuSans-68" transform="translate(376.367188 0)"/>
      <use xlink:href="#DejaVuSans-79" transform="translate(439.746094 0)"/>
      <use xlink:href="#DejaVuSans-6c" transform="translate(498.925781 0)"/>
      <use xlink:href="#DejaVuSans-65" transform="translate(526.708984 0)"/>
      <use xlink:href="#DejaVuSans-6e" transform="translate(588.232422 0)"/>
      <use xlink:href="#DejaVuSans-69" transform="translate(651.611328 0)"/>
      <use xlink:href="#DejaVuSans-65" transform="translate(679.394531 0)"/>
      <use xlink:href="#DejaVuSans-20" transform="translate(740.917969 0)"/>
      <use xlink:href="#DejaVuSans-73" transform="translate(772.705078 0)"/>
      <use xlink:href="#DejaVuSans-74" transform="translate(824.804688 0)"/>
      <use xlink:href="#DejaVuSans-64" transform="translate(864.013672 0)"/>
      <use xlink:href="#DejaVuSans-2e" transform="translate(927.490234 0)"/>
     </g>
    </g>
    <g id="line2d_26">
     <path d="M 281.790313 293.004312 
L 291.790313 293.004312 
L 301.790313 293.004312 
" style="fill: none; stroke: #ff0000; stroke-width: 1.5; stroke-linecap: square"/>
    </g>
    <g id="text_16">
     <!-- Najlepsze -->
     <g transform="translate(309.790313 296.504312) scale(0.1 -0.1)">
      <defs>
       <path id="DejaVuSans-4e" d="M 628 4666 
L 1478 4666 
L 3547 763 
L 3547 4666 
L 4159 4666 
L 4159 0 
L 3309 0 
L 1241 3903 
L 1241 0 
L 628 0 
L 628 4666 
z
" transform="scale(0.015625)"/>
      </defs>
      <use xlink:href="#DejaVuSans-4e"/>
      <use xlink:href="#DejaVuSans-61" transform="translate(74.804688 0)"/>
      <use xlink:href="#DejaVuSans-6a" transform="translate(136.083984 0)"/>
      <use xlink:href="#DejaVuSans-6c" transform="translate(163.867188 0)"/>
      <use xlink:href="#DejaVuSans-65" transform="translate(191.650391 0)"/>
      <use xlink:href="#DejaVuSans-70" transform="translate(253.173828 0)"/>
      <use xlink:href="#DejaVuSans-73" transform="translate(316.650391 0)"/>
      <use xlink:href="#DejaVuSans-7a" transform="translate(368.75 0)"/>
      <use xlink:href="#DejaVuSans-65" transform="translate(421.240234 0)"/>
     </g>
    </g>
   </g>
  </g>
 </g>
 <defs>
  <clipPath id="pc652772377">
   <rect x="57.6" y="41.472" width="357.12" height="266.112"/>
  </clipPath>
 </defs>
</svg>
