<?xml version="1.0" encoding="utf-8" standalone="no"?>
<!DOCTYPE svg PUBLIC "-//W3C//DTD SVG 1.1//EN"
  "http://www.w3.org/Graphics/SVG/1.1/DTD/svg11.dtd">
<svg xmlns:xlink="http://www.w3.org/1999/xlink" width="460.8pt" height="345.6pt" viewBox="0 0 460.8 345.6" xmlns="http://www.w3.org/2000/svg" version="1.1">
 <metadata>
  <rdf:RDF xmlns:dc="http://purl.org/dc/elements/1.1/" xmlns:cc="http://creativecommons.org/ns#" xmlns:rdf="http://www.w3.org/1999/02/22-rdf-syntax-ns#">
   <cc:Work>
    <dc:type rdf:resource="http://purl.org/dc/dcmitype/StillImage"/>
    <dc:date>2026-04-26T21:50:23.517306</dc:date>
    <dc:format>image/svg+xml</dc:format>
    <dc:creator>
     <cc:Agent>
      <dc:title>Matplotlib v3.10.8, https://matplotlib.org/</dc:title>
     </cc:Agent>
    </dc:creator>
   </cc:Work>
  </rdf:RDF>
 </metadata>
 <defs>
  <style type="text/css">*{stroke-linejoin: round; stroke-linecap: butt}</style>
 </defs>
 <g id="figure_1">
  <g id="patch_1">
   <path d="M 0 345.6 
L 460.8 345.6 
L 460.8 0 
L 0 0 
z
" style="fill: #ffffff"/>
  </g>
  <g id="axes_1">
   <g id="patch_2">
    <path d="M 57.6 307.584 
L 414.72 307.584 
L 414.72 41.472 
L 57.6 41.472 
z
" style="fill: #ffffff"/>
   </g>
   <g id="matplotlib.axis_1">
    <g id="xtick_1">
     <g id="line2d_1">
      <path d="M 72.201297 307.584 
L 72.201297 41.472 
" clip-path="url(#pf5a47ab9c7)" style="fill: none; stroke: #b0b0b0; stroke-width: 0.8; stroke-linecap: square"/>
     </g>
     <g id="line2d_2">
      <defs>
       <path id="m201f8a7ada" d="M 0 0 
L 0 3.5 
" style="stroke: #000000; stroke-width: 0.8"/>
      </defs>
      <g>
       <use xlink:href="#m201f8a7ada" x="72.201297" y="307.584" style="stroke: #000000; stroke-width: 0.8"/>
      </g>
     </g>
     <g id="text_1">
      <!-- 0 -->
      <g transform="translate(69.020047 322.182437) scale(0.1 -0.1)">
       <defs>
        <path id="DejaVuSans-30" d="M 2034 4250 
Q 1547 4250 1301 3770 
Q 1056 3291 1056 2328 
Q 1056 1369 1301 889 
Q 1547 409 2034 409 
Q 2525 409 2770 889 
Q 3016 1369 3016 2328 
Q 3016 3291 2770 3770 
Q 2525 4250 2034 4250 
z
M 2034 4750 
Q 2819 4750 3233 4129 
Q 3647 3509 3647 2328 
Q 3647 1150 3233 529 
Q 2819 -91 2034 -91 
Q 1250 -91 836 529 
Q 422 1150 422 2328 
Q 422 3509 836 4129 
Q 1250 4750 2034 4750 
z
" transform="scale(0.015625)"/>
       </defs>
       <use xlink:href="#DejaVuSans-30"/>
      </g>
     </g>
    </g>
    <g id="xtick_2">
     <g id="line2d_3">
      <path d="M 112.987044 307.584 
L 112.987044 41.472 
" clip-path="url(#pf5a47ab9c7)" style="fill: none; stroke: #b0b0b0; stroke-width: 0.8; stroke-linecap: square"/>
     </g>
     <g id="line2d_4">
      <g>
       <use xlink:href="#m201f8a7ada" x="112.987044" y="307.584" style="stroke: #000000; stroke-width: 0.8"/>
      </g>
     </g>
     <g id="text_2">
      <!-- 25 -->
      <g transform="translate(106.624544 322.182437) scale(0.1 -0.1)">
       <defs>
        <path id="DejaVuSans-32" d="M 1228 531 
L 3431 531 
L 3431 0 
L 469 0 
L 469 531 
Q 828 903 1448 1529 
Q 2069 2156 2228 2338 
Q 2531 2678 2651 2914 
Q 2772 3150 2772 3378 
Q 2772 3750 2511 3984 
Q 2250 4219 1831 4219 
Q 1534 4219 1204 4116 
Q 875 4013 500 3803 
L 500 4441 
Q 881 4594 1212 4672 
Q 1544 4750 1819 4750 
Q 2544 4750 2975 4387 
Q 3406 4025 3406 3419 
Q 3406 3131 3298 2873 
Q 3191 2616 2906 2266 
Q 2828 2175 2409 1742 
Q 1991 1309 1228 531 
z
" transform="scale(0.015625)"/>
        <path id="DejaVuSans-35" d="M 691 4666 
L 3169 4666 
L 3169 4134 
L 1269 4134 
L 1269 2991 
Q 1406 3038 1543 3061 
Q 1681 3084 1819 3084 
Q 2600 3084 3056 2656 
Q 3513 2228 3513 1497 
Q 3513 744 3044 326 
Q 2575 -91 1722 -91 
Q 1428 -91 1123 -41 
Q 819 9 494 109 
L 494 744 
Q 775 591 1075 516 
Q 1375 441 1709 441 
Q 2250 441 2565 725 
Q 2881 1009 2881 1497 
Q 2881 1984 2565 2268 
Q 2250 2553 1709 2553 
Q 1456 2553 1204 2497 
Q 953 2441 691 2322 
L 691 4666 
z
" transform="scale(0.015625)"/>
       </defs>
       <use xlink:href="#DejaVuSans-32"/>
       <use xlink:href="#DejaVuSans-35" transform="translate(63.623047 0)"/>
      </g>
     </g>
    </g>
    <g id="xtick_3">
     <g id="line2d_5">
      <path d="M 153.772791 307.584 
L 153.772791 41.472 
" clip-path="url(#pf5a47ab9c7)" style="fill: none; stroke: #b0b0b0; stroke-width: 0.8; stroke-linecap: square"/>
     </g>
     <g id="line2d_6">
      <g>
       <use xlink:href="#m201f8a7ada" x="153.772791" y="307.584" style="stroke: #000000; stroke-width: 0.8"/>
      </g>
     </g>
     <g id="text_3">
      <!-- 50 -->
      <g transform="translate(147.410291 322.182437) scale(0.1 -0.1)">
       <use xlink:href="#DejaVuSans-35"/>
       <use xlink:href="#DejaVuSans-30" transform="translate(63.623047 0)"/>
      </g>
     </g>
    </g>
    <g id="xtick_4">
     <g id="line2d_7">
      <path d="M 194.558538 307.584 
L 194.558538 41.472 
" clip-path="url(#pf5a47ab9c7)" style="fill: none; stroke: #b0b0b0; stroke-width: 0.8; stroke-linecap: square"/>
     </g>
     <g id="line2d_8">
      <g>
       <use xlink:href="#m201f8a7ada" x="194.558538" y="307.584" style="stroke: #000000; stroke-width: 0.8"/>
      </g>
     </g>
     <g id="text_4">
      <!-- 75 -->
      <g transform="translate(188.196038 322.182437) scale(0.1 -0.1)">
       <defs>
        <path id="DejaVuSans-37" d="M 525 4666 
L 3525 4666 
L 3525 4397 
L 1831 0 
L 1172 0 
L 2766 4134 
L 525 4134 
L 525 4666 
z
" transform="scale(0.015625)"/>
       </defs>
       <use xlink:href="#DejaVuSans-37"/>
       <use xlink:href="#DejaVuSans-35" transform="translate(63.623047 0)"/>
      </g>
     </g>
    </g>
    <g id="xtick_5">
     <g id="line2d_9">
      <path d="M 235.344285 307.584 
L 235.344285 41.472 
" clip-path="url(#pf5a47ab9c7)" style="fill: none; stroke: #b0b0b0; stroke-width: 0.8; stroke-linecap: square"/>
     </g>
     <g id="line2d_10">
      <g>
       <use xlink:href="#m201f8a7ada" x="235.344285" y="307.584" style="stroke: #000000; stroke-width: 0.8"/>
      </g>
     </g>
     <g id="text_5">
      <!-- 100 -->
      <g transform="translate(225.800535 322.182437) scale(0.1 -0.1)">
       <defs>
        <path id="DejaVuSans-31" d="M 794 531 
L 1825 531 
L 1825 4091 
L 703 3866 
L 703 4441 
L 1819 4666 
L 2450 4666 
L 2450 531 
L 3481 531 
L 3481 0 
L 794 0 
L 794 531 
z
" transform="scale(0.015625)"/>
       </defs>
       <use xlink:href="#DejaVuSans-31"/>
       <use xlink:href="#DejaVuSans-30" transform="translate(63.623047 0)"/>
       <use xlink:href="#DejaVuSans-30" transform="translate(127.246094 0)"/>
      </g>
     </g>
    </g>
    <g id="xtick_6">
     <g id="line2d_11">
      <path d="M 276.130032 307.584 
L 276.130032 41.472 
" clip-path="url(#pf5a47ab9c7)" style="fill: none; stroke: #b0b0b0; stroke-width: 0.8; stroke-linecap: square"/>
     </g>
     <g id="line2d_12">
      <g>
       <use xlink:href="#m201f8a7ada" x="276.130032" y="307.584" style="stroke: #000000; stroke-width: 0.8"/>
      </g>
     </g>
     <g id="text_6">
      <!-- 125 -->
      <g transform="translate(266.586282 322.182437) scale(0.1 -0.1)">
       <use xlink:href="#DejaVuSans-31"/>
       <use xlink:href="#DejaVuSans-32" transform="translate(63.623047 0)"/>
       <use xlink:href="#DejaVuSans-35" transform="translate(127.246094 0)"/>
      </g>
     </g>
    </g>
    <g id="xtick_7">
     <g id="line2d_13">
      <path d="M 316.915779 307.584 
L 316.915779 41.472 
" clip-path="url(#pf5a47ab9c7)" style="fill: none; stroke: #b0b0b0; stroke-width: 0.8; stroke-linecap: square"/>
     </g>
     <g id="line2d_14">
      <g>
       <use xlink:href="#m201f8a7ada" x="316.915779" y="307.584" style="stroke: #000000; stroke-width: 0.8"/>
      </g>
     </g>
     <g id="text_7">
      <!-- 150 -->
      <g transform="translate(307.372029 322.182437) scale(0.1 -0.1)">
       <use xlink:href="#DejaVuSans-31"/>
       <use xlink:href="#DejaVuSans-35" transform="translate(63.623047 0)"/>
       <use xlink:href="#DejaVuSans-30" transform="translate(127.246094 0)"/>
      </g>
     </g>
    </g>
    <g id="xtick_8">
     <g id="line2d_15">
      <path d="M 357.701526 307.584 
L 357.701526 41.472 
" clip-path="url(#pf5a47ab9c7)" style="fill: none; stroke: #b0b0b0; stroke-width: 0.8; stroke-linecap: square"/>
     </g>
     <g id="line2d_16">
      <g>
       <use xlink:href="#m201f8a7ada" x="357.701526" y="307.584" style="stroke: #000000; stroke-width: 0.8"/>
      </g>
     </g>
     <g id="text_8">
      <!-- 175 -->
      <g transform="translate(348.157776 322.182437) scale(0.1 -0.1)">
       <use xlink:href="#DejaVuSans-31"/>
       <use xlink:href="#DejaVuSans-37" transform="translate(63.623047 0)"/>
       <use xlink:href="#DejaVuSans-35" transform="translate(127.246094 0)"/>
      </g>
     </g>
    </g>
    <g id="xtick_9">
     <g id="line2d_17">
      <path d="M 398.487273 307.584 
L 398.487273 41.472 
" clip-path="url(#pf5a47ab9c7)" style="fill: none; stroke: #b0b0b0; stroke-width: 0.8; stroke-linecap: square"/>
     </g>
     <g id="line2d_18">
      <g>
       <use xlink:href="#m201f8a7ada" x="398.487273" y="307.584" style="stroke: #000000; stroke-width: 0.8"/>
      </g>
     </g>
     <g id="text_9">
      <!-- 200 -->
      <g transform="translate(388.943523 322.182437) scale(0.1 -0.1)">
       <use xlink:href="#DejaVuSans-32"/>
       <use xlink:href="#DejaVuSans-30" transform="translate(63.623047 0)"/>
       <use xlink:href="#DejaVuSans-30" transform="translate(127.246094 0)"/>
      </g>
     </g>
    </g>
    <g id="text_10">
     <!-- Generacje -->
     <g transform="translate(210.629531 335.860562) scale(0.1 -0.1)">
      <defs>
       <path id="DejaVuSans-47" d="M 3809 666 
L 3809 1919 
L 2778 1919 
L 2778 2438 
L 4434 2438 
L 4434 434 
Q 4069 175 3628 42 
Q 3188 -91 2688 -91 
Q 1594 -91 976 548 
Q 359 1188 359 2328 
Q 359 3472 976 4111 
Q 1594 4750 2688 4750 
Q 3144 4750 3555 4637 
Q 3966 4525 4313 4306 
L 4313 3634 
Q 3963 3931 3569 4081 
Q 3175 4231 2741 4231 
Q 1884 4231 1454 3753 
Q 1025 3275 1025 2328 
Q 1025 1384 1454 906 
Q 1884 428 2741 428 
Q 3075 428 3337 486 
Q 3600 544 3809 666 
z
" transform="scale(0.015625)"/>
       <path id="DejaVuSans-65" d="M 3597 1894 
L 3597 1613 
L 953 1613 
Q 991 1019 1311 708 
Q 1631 397 2203 397 
Q 2534 397 2845 478 
Q 3156 559 3463 722 
L 3463 178 
Q 3153 47 2828 -22 
Q 2503 -91 2169 -91 
Q 1331 -91 842 396 
Q 353 884 353 1716 
Q 353 2575 817 3079 
Q 1281 3584 2069 3584 
Q 2775 3584 3186 3129 
Q 3597 2675 3597 1894 
z
M 3022 2063 
Q 3016 2534 2758 2815 
Q 2500 3097 2075 3097 
Q 1594 3097 1305 2825 
Q 1016 2553 972 2059 
L 3022 2063 
z
" transform="scale(0.015625)"/>
       <path id="DejaVuSans-6e" d="M 3513 2113 
L 3513 0 
L 2938 0 
L 2938 2094 
Q 2938 2591 2744 2837 
Q 2550 3084 2163 3084 
Q 1697 3084 1428 2787 
Q 1159 2491 1159 1978 
L 1159 0 
L 581 0 
L 581 3500 
L 1159 3500 
L 1159 2956 
Q 1366 3272 1645 3428 
Q 1925 3584 2291 3584 
Q 2894 3584 3203 3211 
Q 3513 2838 3513 2113 
z
" transform="scale(0.015625)"/>
       <path id="DejaVuSans-72" d="M 2631 2963 
Q 2534 3019 2420 3045 
Q 2306 3072 2169 3072 
Q 1681 3072 1420 2755 
Q 1159 2438 1159 1844 
L 1159 0 
L 581 0 
L 581 3500 
L 1159 3500 
L 1159 2956 
Q 1341 3275 1631 3429 
Q 1922 3584 2338 3584 
Q 2397 3584 2469 3576 
Q 2541 3569 2628 3553 
L 2631 2963 
z
" transform="scale(0.015625)"/>
       <path id="DejaVuSans-61" d="M 2194 1759 
Q 1497 1759 1228 1600 
Q 959 1441 959 1056 
Q 959 750 1161 570 
Q 1363 391 1709 391 
Q 2188 391 2477 730 
Q 2766 1069 2766 1631 
L 2766 1759 
L 2194 1759 
z
M 3341 1997 
L 3341 0 
L 2766 0 
L 2766 531 
Q 2569 213 2275 61 
Q 1981 -91 1556 -91 
Q 1019 -91 701 211 
Q 384 513 384 1019 
Q 384 1609 779 1909 
Q 1175 2209 1959 2209 
L 2766 2209 
L 2766 2266 
Q 2766 2663 2505 2880 
Q 2244 3097 1772 3097 
Q 1472 3097 1187 3025 
Q 903 2953 641 2809 
L 641 3341 
Q 956 3463 1253 3523 
Q 1550 3584 1831 3584 
Q 2591 3584 2966 3190 
Q 3341 2797 3341 1997 
z
" transform="scale(0.015625)"/>
       <path id="DejaVuSans-63" d="M 3122 3366 
L 3122 2828 
Q 2878 2963 2633 3030 
Q 2388 3097 2138 3097 
Q 1578 3097 1268 2742 
Q 959 2388 959 1747 
Q 959 1106 1268 751 
Q 1578 397 2138 397 
Q 2388 397 2633 464 
Q 2878 531 3122 666 
L 3122 134 
Q 2881 22 2623 -34 
Q 2366 -91 2075 -91 
Q 1284 -91 818 406 
Q 353 903 353 1747 
Q 353 2603 823 3093 
Q 1294 3584 2113 3584 
Q 2378 3584 2631 3529 
Q 2884 3475 3122 3366 
z
" transform="scale(0.015625)"/>
       <path id="DejaVuSans-6a" d="M 603 3500 
L 1178 3500 
L 1178 -63 
Q 1178 -731 923 -1031 
Q 669 -1331 103 -1331 
L -116 -1331 
L -116 -844 
L 38 -844 
Q 366 -844 484 -692 
Q 603 -541 603 -63 
L 603 3500 
z
M 603 4863 
L 1178 4863 
L 1178 4134 
L 603 4134 
L 603 4863 
z
" transform="scale(0.015625)"/>
      </defs>
      <use xlink:href="#DejaVuSans-47"/>
      <use xlink:href="#DejaVuSans-65" transform="translate(77.490234 0)"/>
      <use xlink:href="#DejaVuSans-6e" transform="translate(139.013672 0)"/>
      <use xlink:href="#DejaVuSans-65" transform="translate(202.392578 0)"/>
      <use xlink:href="#DejaVuSans-72" transform="translate(263.916016 0)"/>
      <use xlink:href="#DejaVuSans-61" transform="translate(305.029297 0)"/>
      <use xlink:href="#DejaVuSans-63" transform="translate(366.308594 0)"/>
      <use xlink:href="#DejaVuSans-6a" transform="translate(421.289062 0)"/>
      <use xlink:href="#DejaVuSans-65" transform="translate(449.072266 0)"/>
     </g>
    </g>
   </g>
   <g id="matplotlib.axis_2">
    <g id="ytick_1">
     <g id="line2d_19">
      <path d="M 57.6 128.616459 
L 414.72 128.616459 
" clip-path="url(#pf5a47ab9c7)" style="fill: none; stroke: #b0b0b0; stroke-width: 0.8; stroke-linecap: square"/>
     </g>
     <g id="line2d_20">
      <defs>
       <path id="m0784f78f41" d="M 0 0 
L -3.5 0 
" style="stroke: #000000; stroke-width: 0.8"/>
      </defs>
      <g>
       <use xlink:href="#m0784f78f41" x="57.6" y="128.616459" style="stroke: #000000; stroke-width: 0.8"/>
      </g>
     </g>
     <g id="text_11">
      <!-- $\mathdefault{10^{2}}$ -->
      <g transform="translate(33 132.415678) scale(0.1 -0.1)">
       <use xlink:href="#DejaVuSans-31" transform="translate(0 0.765625)"/>
       <use xlink:href="#DejaVuSans-30" transform="translate(63.623047 0.765625)"/>
       <use xlink:href="#DejaVuSans-32" transform="translate(128.203125 39.046875) scale(0.7)"/>
      </g>
     </g>
    </g>
    <g id="text_12">
     <!-- Przystosowanie -->
     <g transform="translate(26.920312 213.170187) rotate(-90) scale(0.1 -0.1)">
      <defs>
       <path id="DejaVuSans-50" d="M 1259 4147 
L 1259 2394 
L 2053 2394 
Q 2494 2394 2734 2622 
Q 2975 2850 2975 3272 
Q 2975 3691 2734 3919 
Q 2494 4147 2053 4147 
L 1259 4147 
z
M 628 4666 
L 2053 4666 
Q 2838 4666 3239 4311 
Q 3641 3956 3641 3272 
Q 3641 2581 3239 2228 
Q 2838 1875 2053 1875 
L 1259 1875 
L 1259 0 
L 628 0 
L 628 4666 
z
" transform="scale(0.015625)"/>
       <path id="DejaVuSans-7a" d="M 353 3500 
L 3084 3500 
L 3084 2975 
L 922 459 
L 3084 459 
L 3084 0 
L 275 0 
L 275 525 
L 2438 3041 
L 353 3041 
L 353 3500 
z
" transform="scale(0.015625)"/>
       <path id="DejaVuSans-79" d="M 2059 -325 
Q 1816 -950 1584 -1140 
Q 1353 -1331 966 -1331 
L 506 -1331 
L 506 -850 
L 844 -850 
Q 1081 -850 1212 -737 
Q 1344 -625 1503 -206 
L 1606 56 
L 191 3500 
L 800 3500 
L 1894 763 
L 2988 3500 
L 3597 3500 
L 2059 -325 
z
" transform="scale(0.015625)"/>
       <path id="DejaVuSans-73" d="M 2834 3397 
L 2834 2853 
Q 2591 2978 2328 3040 
Q 2066 3103 1784 3103 
Q 1356 3103 1142 2972 
Q 928 2841 928 2578 
Q 928 2378 1081 2264 
Q 1234 2150 1697 2047 
L 1894 2003 
Q 2506 1872 2764 1633 
Q 3022 1394 3022 966 
Q 3022 478 2636 193 
Q 2250 -91 1575 -91 
Q 1294 -91 989 -36 
Q 684 19 347 128 
L 347 722 
Q 666 556 975 473 
Q 1284 391 1588 391 
Q 1994 391 2212 530 
Q 2431 669 2431 922 
Q 2431 1156 2273 1281 
Q 2116 1406 1581 1522 
L 1381 1569 
Q 847 1681 609 1914 
Q 372 2147 372 2553 
Q 372 3047 722 3315 
Q 1072 3584 1716 3584 
Q 2034 3584 2315 3537 
Q 2597 3491 2834 3397 
z
" transform="scale(0.015625)"/>
       <path id="DejaVuSans-74" d="M 1172 4494 
L 1172 3500 
L 2356 3500 
L 2356 3053 
L 1172 3053 
L 1172 1153 
Q 1172 725 1289 603 
Q 1406 481 1766 481 
L 2356 481 
L 2356 0 
L 1766 0 
Q 1100 0 847 248 
Q 594 497 594 1153 
L 594 3053 
L 172 3053 
L 172 3500 
L 594 3500 
L 594 4494 
L 1172 4494 
z
" transform="scale(0.015625)"/>
       <path id="DejaVuSans-6f" d="M 1959 3097 
Q 1497 3097 1228 2736 
Q 959 2375 959 1747 
Q 959 1119 1226 758 
Q 1494 397 1959 397 
Q 2419 397 2687 759 
Q 2956 1122 2956 1747 
Q 2956 2369 2687 2733 
Q 2419 3097 1959 3097 
z
M 1959 3584 
Q 2709 3584 3137 3096 
Q 3566 2609 3566 1747 
Q 3566 888 3137 398 
Q 2709 -91 1959 -91 
Q 1206 -91 779 398 
Q 353 888 353 1747 
Q 353 2609 779 3096 
Q 1206 3584 1959 3584 
z
" transform="scale(0.015625)"/>
       <path id="DejaVuSans-77" d="M 269 3500 
L 844 3500 
L 1563 769 
L 2278 3500 
L 2956 3500 
L 3675 769 
L 4391 3500 
L 4966 3500 
L 4050 0 
L 3372 0 
L 2619 2869 
L 1863 0 
L 1184 0 
L 269 3500 
z
" transform="scale(0.015625)"/>
       <path id="DejaVuSans-69" d="M 603 3500 
L 1178 3500 
L 1178 0 
L 603 0 
L 603 3500 
z
M 603 4863 
L 1178 4863 
L 1178 4134 
L 603 4134 
L 603 4863 
z
" transform="scale(0.015625)"/>
      </defs>
      <use xlink:href="#DejaVuSans-50"/>
      <use xlink:href="#DejaVuSans-72" transform="translate(58.552734 0)"/>
      <use xlink:href="#DejaVuSans-7a" transform="translate(99.666016 0)"/>
      <use xlink:href="#DejaVuSans-79" transform="translate(152.15625 0)"/>
      <use xlink:href="#DejaVuSans-73" transform="translate(211.335938 0)"/>
      <use xlink:href="#DejaVuSans-74" transform="translate(263.435547 0)"/>
      <use xlink:href="#DejaVuSans-6f" transform="translate(302.644531 0)"/>
      <use xlink:href="#DejaVuSans-73" transform="translate(363.826172 0)"/>
      <use xlink:href="#DejaVuSans-6f" transform="translate(415.925781 0)"/>
      <use xlink:href="#DejaVuSans-77" transform="translate(477.107422 0)"/>
      <use xlink:href="#DejaVuSans-61" transform="translate(558.894531 0)"/>
      <use xlink:href="#DejaVuSans-6e" transform="translate(620.173828 0)"/>
      <use xlink:href="#DejaVuSans-69" transform="translate(683.552734 0)"/>
      <use xlink:href="#DejaVuSans-65" transform="translate(711.335938 0)"/>
     </g>
    </g>
   </g>
   <g id="line2d_21">
    <path d="M 73.832727 295.488 
L 75.464157 236.647569 
L 77.095587 198.951607 
L 78.727017 182.711344 
L 80.358447 178.207065 
L 81.989877 171.031249 
L 83.621307 171.805685 
L 85.252736 166.97751 
L 86.884166 167.439857 
L 88.515596 163.961711 
L 90.147026 161.632824 
L 91.778456 161.747968 
L 93.409886 159.957399 
L 95.041316 159.145602 
L 96.672746 162.579 
L 98.304175 163.775278 
L 99.935605 161.832637 
L 103.198465 159.128026 
L 104.829895 161.86372 
L 106.461325 160.968347 
L 108.092755 161.381124 
L 109.724185 162.335107 
L 111.355614 161.782199 
L 114.618474 163.495476 
L 117.881334 162.135042 
L 119.512764 162.204203 
L 121.144194 161.165212 
L 122.775624 161.77312 
L 124.407053 162.900013 
L 126.038483 159.530717 
L 127.669913 163.383031 
L 129.301343 164.627883 
L 130.932773 162.16835 
L 132.564203 161.605366 
L 134.195633 161.240746 
L 135.827063 159.840871 
L 137.458492 160.055586 
L 139.089922 161.35355 
L 140.721352 158.596526 
L 142.352782 160.013825 
L 143.984212 160.487759 
L 145.615642 159.612279 
L 147.247072 162.90563 
L 148.878502 160.492783 
L 150.509931 159.874953 
L 152.141361 162.017455 
L 153.772791 159.412758 
L 155.404221 157.842896 
L 157.035651 156.906128 
L 158.667081 157.467669 
L 160.298511 156.93999 
L 161.929941 159.002762 
L 163.56137 159.145301 
L 165.1928 159.726017 
L 166.82423 156.460177 
L 168.45566 157.69353 
L 170.08709 158.413816 
L 171.71852 155.043793 
L 173.34995 158.224239 
L 174.98138 159.21518 
L 176.61281 159.18012 
L 178.244239 158.655354 
L 179.875669 159.459297 
L 181.507099 156.111791 
L 183.138529 159.050348 
L 184.769959 157.34973 
L 186.401389 158.550037 
L 188.032819 158.982597 
L 189.664249 159.010474 
L 191.295678 158.150473 
L 192.927108 158.864735 
L 194.558538 161.215858 
L 196.189968 157.417574 
L 197.821398 155.363614 
L 199.452828 159.801698 
L 201.084258 160.160876 
L 202.715688 157.654132 
L 204.347117 159.211798 
L 205.978547 160.486691 
L 207.609977 160.997161 
L 209.241407 158.046804 
L 210.872837 158.86384 
L 212.504267 159.452296 
L 214.135697 156.255349 
L 215.767127 157.161978 
L 217.398556 157.896407 
L 219.029986 156.349921 
L 220.661416 156.688346 
L 222.292846 157.222972 
L 223.924276 157.495369 
L 225.555706 159.679704 
L 227.187136 159.631059 
L 228.818566 158.68828 
L 230.449995 158.61691 
L 232.081425 161.261766 
L 233.712855 158.78115 
L 235.344285 160.285963 
L 236.975715 158.719672 
L 238.607145 158.406289 
L 240.238575 160.685619 
L 241.870005 159.287455 
L 243.501434 157.46618 
L 245.132864 158.320925 
L 246.764294 161.337524 
L 248.395724 158.602317 
L 250.027154 159.751476 
L 251.658584 158.865113 
L 253.290014 159.862913 
L 254.921444 157.210812 
L 256.552873 159.378115 
L 258.184303 157.051717 
L 259.815733 160.776159 
L 261.447163 159.418285 
L 263.078593 158.936017 
L 264.710023 161.238324 
L 266.341453 157.880297 
L 269.604312 156.997748 
L 271.235742 158.654189 
L 272.867172 159.2323 
L 274.498602 155.731778 
L 276.130032 156.957245 
L 277.761462 156.638395 
L 279.392892 158.087405 
L 281.024322 159.383392 
L 282.655751 160.313919 
L 284.287181 158.498207 
L 285.918611 158.423199 
L 287.550041 160.994542 
L 289.181471 156.222932 
L 290.812901 157.672027 
L 292.444331 156.045752 
L 294.075761 158.309107 
L 295.70719 156.050881 
L 297.33862 157.323664 
L 298.97005 161.398185 
L 300.60148 157.762525 
L 303.86434 158.558183 
L 305.49577 159.92327 
L 307.1272 158.835216 
L 308.75863 155.811229 
L 310.390059 157.043287 
L 312.021489 159.452086 
L 313.652919 159.07114 
L 315.284349 156.037235 
L 316.915779 158.682909 
L 320.178639 158.41544 
L 321.810069 156.60016 
L 323.441498 158.535277 
L 325.072928 156.244503 
L 326.704358 155.981549 
L 328.335788 156.162376 
L 329.967218 158.328499 
L 331.598648 156.80072 
L 333.230078 157.466377 
L 334.861508 156.706217 
L 336.492937 155.126816 
L 338.124367 156.097131 
L 339.755797 159.362214 
L 341.387227 156.312894 
L 343.018657 158.192025 
L 344.650087 156.894832 
L 346.281517 157.778572 
L 347.912947 157.656135 
L 349.544376 156.205828 
L 351.175806 159.498258 
L 352.807236 158.440303 
L 354.438666 159.580068 
L 356.070096 156.05313 
L 357.701526 156.498275 
L 359.332956 159.50078 
L 360.964386 159.456803 
L 362.595815 158.904477 
L 364.227245 157.630092 
L 365.858675 157.847928 
L 367.490105 159.407079 
L 369.121535 156.872764 
L 370.752965 160.868603 
L 372.384395 157.950902 
L 374.015825 157.897336 
L 375.647254 158.69201 
L 377.278684 158.57716 
L 378.910114 159.667115 
L 380.541544 156.429271 
L 382.172974 159.077482 
L 383.804404 158.569956 
L 385.435834 157.859981 
L 387.067264 158.969749 
L 388.698693 157.513691 
L 390.330123 160.041753 
L 391.961553 160.872957 
L 393.592983 156.489248 
L 395.224413 156.658559 
L 396.855843 156.486004 
L 398.487273 159.602354 
L 398.487273 159.602354 
" clip-path="url(#pf5a47ab9c7)" style="fill: none; stroke: #0000ff; stroke-width: 1.5; stroke-linecap: square"/>
   </g>
   <g id="line2d_22">
    <path d="M 73.832727 246.578926 
L 75.464157 177.811423 
L 77.095587 151.236426 
L 78.727017 149.279853 
L 80.358447 144.687386 
L 81.989877 140.944788 
L 83.621307 143.500229 
L 85.252736 139.361164 
L 86.884166 137.803273 
L 88.515596 135.709646 
L 90.147026 138.607063 
L 91.778456 136.164933 
L 93.409886 134.433912 
L 95.041316 133.521359 
L 96.672746 139.726667 
L 98.304175 135.674001 
L 99.935605 137.256541 
L 101.567035 136.128541 
L 103.198465 137.009669 
L 104.829895 142.236903 
L 106.461325 135.655334 
L 108.092755 136.19395 
L 109.724185 138.467646 
L 112.987044 139.154168 
L 114.618474 140.640392 
L 116.249904 135.630011 
L 117.881334 139.106281 
L 119.512764 139.412686 
L 121.144194 135.546014 
L 122.775624 139.214765 
L 124.407053 137.396451 
L 126.038483 136.914894 
L 127.669913 137.319778 
L 129.301343 140.465384 
L 130.932773 139.030284 
L 132.564203 136.891575 
L 134.195633 133.815853 
L 135.827063 136.815572 
L 137.458492 138.345957 
L 139.089922 138.513951 
L 140.721352 135.123495 
L 142.352782 137.017849 
L 143.984212 135.242576 
L 145.615642 136.322402 
L 147.247072 137.902905 
L 148.878502 138.423904 
L 150.509931 136.822774 
L 152.141361 140.282199 
L 153.772791 136.082262 
L 155.404221 134.027498 
L 157.035651 133.957564 
L 158.667081 135.667174 
L 160.298511 134.468619 
L 161.929941 137.528035 
L 163.56137 136.977631 
L 165.1928 138.864269 
L 166.82423 133.331427 
L 168.45566 132.891704 
L 170.08709 134.576546 
L 171.71852 131.799554 
L 173.34995 135.993732 
L 176.61281 135.507667 
L 178.244239 136.657919 
L 179.875669 136.722852 
L 181.507099 132.892812 
L 183.138529 137.575667 
L 184.769959 133.955015 
L 186.401389 137.974277 
L 188.032819 136.09711 
L 189.664249 134.800302 
L 191.295678 137.596166 
L 192.927108 135.595877 
L 194.558538 140.191065 
L 196.189968 136.939224 
L 197.821398 130.014899 
L 199.452828 135.912897 
L 201.084258 138.03257 
L 202.715688 135.73312 
L 204.347117 136.461754 
L 205.978547 139.089432 
L 207.609977 139.432819 
L 209.241407 137.914968 
L 210.872837 138.374519 
L 212.504267 134.798624 
L 214.135697 133.086273 
L 215.767127 135.511848 
L 217.398556 134.868218 
L 219.029986 132.198007 
L 220.661416 135.650735 
L 223.924276 135.697058 
L 225.555706 137.645097 
L 227.187136 136.846202 
L 228.818566 136.624631 
L 230.449995 134.534082 
L 232.081425 135.252002 
L 233.712855 134.213134 
L 235.344285 139.090725 
L 236.975715 137.811498 
L 238.607145 136.684382 
L 240.238575 139.15222 
L 241.870005 137.167382 
L 243.501434 136.549551 
L 245.132864 136.790152 
L 246.764294 140.241392 
L 248.395724 137.06405 
L 250.027154 138.441693 
L 251.658584 134.801226 
L 253.290014 136.787237 
L 254.921444 136.163783 
L 256.552873 139.744452 
L 258.184303 135.144833 
L 259.815733 135.744511 
L 261.447163 135.773164 
L 263.078593 136.152502 
L 264.710023 138.780786 
L 266.341453 135.290711 
L 267.972883 134.356243 
L 269.604312 134.506065 
L 271.235742 138.084135 
L 272.867172 137.48112 
L 274.498602 133.613724 
L 276.130032 133.997561 
L 277.761462 135.319445 
L 279.392892 136.955615 
L 281.024322 136.879873 
L 282.655751 137.360973 
L 284.287181 136.718758 
L 285.918611 135.285384 
L 287.550041 138.27684 
L 289.181471 134.036877 
L 290.812901 135.60189 
L 292.444331 132.81773 
L 294.075761 136.907354 
L 295.70719 132.637322 
L 297.33862 133.634246 
L 298.97005 140.952445 
L 300.60148 135.021635 
L 302.23291 134.480985 
L 305.49577 139.269968 
L 307.1272 136.528957 
L 308.75863 132.488277 
L 312.021489 140.239794 
L 313.652919 137.700618 
L 315.284349 134.379204 
L 316.915779 137.626144 
L 318.547209 137.617064 
L 320.178639 136.607415 
L 321.810069 134.608253 
L 323.441498 136.138519 
L 325.072928 134.327594 
L 326.704358 133.894025 
L 328.335788 134.48621 
L 329.967218 137.237006 
L 331.598648 136.319975 
L 333.230078 135.106389 
L 334.861508 135.34014 
L 336.492937 129.554175 
L 339.755797 137.139833 
L 341.387227 133.405973 
L 343.018657 138.469713 
L 344.650087 135.138696 
L 346.281517 135.752322 
L 347.912947 136.491073 
L 349.544376 134.057407 
L 351.175806 139.402548 
L 352.807236 138.126578 
L 356.070096 135.172216 
L 357.701526 134.983622 
L 359.332956 137.714808 
L 360.964386 137.887745 
L 362.595815 138.85242 
L 364.227245 136.464654 
L 365.858675 133.69011 
L 367.490105 137.737807 
L 369.121535 137.040083 
L 370.752965 139.848823 
L 372.384395 135.61225 
L 374.015825 134.451222 
L 375.647254 137.54054 
L 377.278684 139.253807 
L 378.910114 137.383561 
L 380.541544 135.878995 
L 382.172974 138.930136 
L 383.804404 137.23686 
L 385.435834 136.46049 
L 387.067264 137.1909 
L 388.698693 135.329873 
L 390.330123 136.042778 
L 391.961553 136.546996 
L 393.592983 133.070086 
L 395.224413 135.569841 
L 396.855843 135.580488 
L 398.487273 135.855886 
L 398.487273 135.855886 
" clip-path="url(#pf5a47ab9c7)" style="fill: none; stroke-dasharray: 9.6,2.4,1.5,2.4; stroke-dashoffset: 0; stroke: #008000; stroke-width: 1.5"/>
   </g>
   <g id="line2d_23">
    <path d="M 73.832727 137.76845 
L 75.464157 95.959289 
L 77.095587 100.088014 
L 78.727017 122.898023 
L 80.358447 99.864205 
L 81.989877 80.275942 
L 83.621307 117.489832 
L 85.252736 95.913134 
L 86.884166 91.646678 
L 88.515596 95.719026 
L 90.147026 91.877788 
L 91.778456 96.038902 
L 93.409886 91.460071 
L 95.041316 88.007868 
L 96.672746 83.831931 
L 98.304175 66.147037 
L 99.935605 99.576417 
L 101.567035 81.197292 
L 103.198465 87.654889 
L 104.829895 96.057785 
L 106.461325 80.150594 
L 108.092755 95.693493 
L 109.724185 84.051014 
L 111.355614 91.434429 
L 112.987044 104.281956 
L 114.618474 108.425848 
L 116.249904 62.726097 
L 117.881334 95.983545 
L 119.512764 83.833963 
L 121.144194 66.372882 
L 122.775624 76.922241 
L 124.407053 92.221025 
L 126.038483 84.520585 
L 127.669913 73.129661 
L 129.301343 91.495557 
L 130.932773 96.122214 
L 132.564203 72.621812 
L 134.195633 72.675399 
L 135.827063 95.863466 
L 137.458492 104.488267 
L 139.089922 91.77041 
L 142.352782 53.568 
L 143.984212 88.315168 
L 145.615642 99.985935 
L 147.247072 76.540164 
L 148.878502 83.973885 
L 150.509931 88.098065 
L 152.141361 84.318732 
L 153.772791 95.76161 
L 155.404221 80.276269 
L 157.035651 87.726392 
L 158.667081 95.887699 
L 161.929941 80.75901 
L 163.56137 84.680862 
L 165.1928 104.43032 
L 166.82423 88.785021 
L 168.45566 62.446217 
L 170.08709 92.047144 
L 171.71852 87.864293 
L 173.34995 91.498805 
L 174.98138 96.0518 
L 176.61281 96.790163 
L 178.244239 95.907816 
L 181.507099 87.930002 
L 183.138529 103.903624 
L 184.769959 87.893368 
L 186.401389 95.989943 
L 188.032819 87.912902 
L 189.664249 73.355486 
L 191.295678 79.849011 
L 192.927108 95.677348 
L 194.558538 112.948108 
L 196.189968 105.041284 
L 197.821398 84.001267 
L 199.452828 99.93118 
L 201.084258 103.909306 
L 202.715688 87.921643 
L 204.347117 70.05579 
L 205.978547 76.708861 
L 207.609977 104.998106 
L 209.241407 95.454036 
L 210.872837 103.95977 
L 212.504267 87.858487 
L 214.135697 87.42922 
L 215.767127 69.268133 
L 217.398556 84.208009 
L 219.029986 63.581676 
L 220.661416 84.290364 
L 222.292846 83.731618 
L 223.924276 104.244101 
L 225.555706 84.063406 
L 227.187136 83.722005 
L 228.818566 84.015429 
L 230.449995 80.21099 
L 232.081425 83.904851 
L 233.712855 80.345915 
L 235.344285 92.116667 
L 238.607145 83.601825 
L 240.238575 95.718226 
L 241.870005 104.32879 
L 243.501434 83.782172 
L 245.132864 104.462671 
L 246.764294 96.084448 
L 248.395724 91.727932 
L 250.027154 107.92777 
L 251.658584 91.609443 
L 254.921444 76.445445 
L 256.552873 104.246775 
L 258.184303 80.526023 
L 259.815733 84.372629 
L 261.447163 83.921149 
L 263.078593 92.064685 
L 264.710023 95.499983 
L 266.341453 95.799293 
L 267.972883 76.306697 
L 269.604312 84.511211 
L 271.235742 108.335607 
L 274.498602 84.172545 
L 276.130032 80.032693 
L 277.761462 80.087191 
L 279.392892 92.258356 
L 281.024322 95.604664 
L 282.655751 91.895965 
L 284.287181 76.73763 
L 285.918611 96.848305 
L 287.550041 84.163525 
L 289.181471 100.060497 
L 290.812901 88.526568 
L 292.444331 80.222818 
L 294.075761 91.819733 
L 295.70719 79.99359 
L 297.33862 84.036164 
L 298.97005 91.972503 
L 300.60148 87.835304 
L 302.23291 77.201174 
L 303.86434 95.612956 
L 305.49577 95.686667 
L 307.1272 100.234878 
L 308.75863 72.716555 
L 310.390059 83.549766 
L 312.021489 100.208464 
L 313.652919 104.149455 
L 315.284349 95.740489 
L 316.915779 76.46606 
L 318.547209 100.056717 
L 320.178639 100.139034 
L 321.810069 95.977996 
L 323.441498 88.79672 
L 325.072928 92.1479 
L 326.704358 87.530455 
L 328.335788 99.795482 
L 329.967218 91.901418 
L 331.598648 92.369299 
L 333.230078 95.70511 
L 334.861508 80.121582 
L 336.492937 69.330893 
L 338.124367 96.145581 
L 339.755797 88.267548 
L 341.387227 95.345811 
L 343.018657 100.597671 
L 344.650087 99.746917 
L 346.281517 100.390905 
L 347.912947 95.85359 
L 349.544376 87.742153 
L 351.175806 92.182154 
L 352.807236 91.736927 
L 354.438666 62.613046 
L 356.070096 100.701786 
L 357.701526 96.280559 
L 359.332956 72.951398 
L 360.964386 76.605551 
L 362.595815 87.717796 
L 364.227245 99.767005 
L 365.858675 99.956768 
L 367.490105 95.694124 
L 369.121535 99.755293 
L 370.752965 100.284678 
L 372.384395 76.32145 
L 374.015825 59.315691 
L 375.647254 83.79907 
L 377.278684 104.504513 
L 378.910114 84.208033 
L 380.541544 91.709243 
L 382.172974 99.961451 
L 383.804404 76.514691 
L 385.435834 87.70348 
L 387.067264 95.871076 
L 388.698693 96.305622 
L 390.330123 79.964707 
L 391.961553 91.863289 
L 393.592983 76.588316 
L 395.224413 65.763536 
L 396.855843 91.982704 
L 398.487273 96.025307 
L 398.487273 96.025307 
" clip-path="url(#pf5a47ab9c7)" style="fill: none; stroke: #ff0000; stroke-width: 1.5; stroke-linecap: square"/>
   </g>
   <g id="patch_3">
    <path d="M 57.6 307.584 
L 57.6 41.472 
" style="fill: none; stroke: #000000; stroke-width: 0.8; stroke-linejoin: miter; stroke-linecap: square"/>
   </g>
   <g id="patch_4">
    <path d="M 414.72 307.584 
L 414.72 41.472 
" style="fill: none; stroke: #000000; stroke-width: 0.8; stroke-linejoin: miter; stroke-linecap: square"/>
   </g>
   <g id="patch_5">
    <path d="M 57.6 307.584 
L 414.72 307.584 
" style="fill: none; stroke: #000000; stroke-width: 0.8; stroke-linejoin: miter; stroke-linecap: square"/>
   </g>
   <g id="patch_6">
    <path d="M 57.6 41.472 
L 414.72 41.472 
" style="fill: none; stroke: #000000; stroke-width: 0.8; stroke-linejoin: miter; stroke-linecap: square"/>
   </g>
   <g id="text_13">
    <!-- Średnie i najlepsze przystosowanie w każdej generacji -->
    <g transform="translate(73.26 35.472) scale(0.12 -0.12)">
     <defs>
      <path id="DejaVuSans-15a" d="M 2236 5921 
L 2814 5921 
L 2102 5096 
L 1623 5096 
L 2236 5921 
z
M 3425 4513 
L 3425 3897 
Q 3066 4069 2747 4153 
Q 2428 4238 2131 4238 
Q 1616 4238 1336 4038 
Q 1056 3838 1056 3469 
Q 1056 3159 1242 3001 
Q 1428 2844 1947 2747 
L 2328 2669 
Q 3034 2534 3370 2195 
Q 3706 1856 3706 1288 
Q 3706 609 3251 259 
Q 2797 -91 1919 -91 
Q 1588 -91 1214 -16 
Q 841 59 441 206 
L 441 856 
Q 825 641 1194 531 
Q 1563 422 1919 422 
Q 2459 422 2753 634 
Q 3047 847 3047 1241 
Q 3047 1584 2836 1778 
Q 2625 1972 2144 2069 
L 1759 2144 
Q 1053 2284 737 2584 
Q 422 2884 422 3419 
Q 422 4038 858 4394 
Q 1294 4750 2059 4750 
Q 2388 4750 2728 4690 
Q 3069 4631 3425 4513 
z
" transform="scale(0.015625)"/>
      <path id="DejaVuSans-64" d="M 2906 2969 
L 2906 4863 
L 3481 4863 
L 3481 0 
L 2906 0 
L 2906 525 
Q 2725 213 2448 61 
Q 2172 -91 1784 -91 
Q 1150 -91 751 415 
Q 353 922 353 1747 
Q 353 2572 751 3078 
Q 1150 3584 1784 3584 
Q 2172 3584 2448 3432 
Q 2725 3281 2906 2969 
z
M 947 1747 
Q 947 1113 1208 752 
Q 1469 391 1925 391 
Q 2381 391 2643 752 
Q 2906 1113 2906 1747 
Q 2906 2381 2643 2742 
Q 2381 3103 1925 3103 
Q 1469 3103 1208 2742 
Q 947 2381 947 1747 
z
" transform="scale(0.015625)"/>
      <path id="DejaVuSans-20" transform="scale(0.015625)"/>
      <path id="DejaVuSans-6c" d="M 603 4863 
L 1178 4863 
L 1178 0 
L 603 0 
L 603 4863 
z
" transform="scale(0.015625)"/>
      <path id="DejaVuSans-70" d="M 1159 525 
L 1159 -1331 
L 581 -1331 
L 581 3500 
L 1159 3500 
L 1159 2969 
Q 1341 3281 1617 3432 
Q 1894 3584 2278 3584 
Q 2916 3584 3314 3078 
Q 3713 2572 3713 1747 
Q 3713 922 3314 415 
Q 2916 -91 2278 -91 
Q 1894 -91 1617 61 
Q 1341 213 1159 525 
z
M 3116 1747 
Q 3116 2381 2855 2742 
Q 2594 3103 2138 3103 
Q 1681 3103 1420 2742 
Q 1159 2381 1159 1747 
Q 1159 1113 1420 752 
Q 1681 391 2138 391 
Q 2594 391 2855 752 
Q 3116 1113 3116 1747 
z
" transform="scale(0.015625)"/>
      <path id="DejaVuSans-6b" d="M 581 4863 
L 1159 4863 
L 1159 1991 
L 2875 3500 
L 3609 3500 
L 1753 1863 
L 3688 0 
L 2938 0 
L 1159 1709 
L 1159 0 
L 581 0 
L 581 4863 
z
" transform="scale(0.015625)"/>
      <path id="DejaVuSans-17c" d="M 1378 4863 
L 1953 4863 
L 1953 4134 
L 1378 4134 
L 1378 4863 
z
M 1672 3584 
L 1672 3584 
z
M 353 3500 
L 3084 3500 
L 3084 2975 
L 922 459 
L 3084 459 
L 3084 0 
L 275 0 
L 275 525 
L 2438 3041 
L 353 3041 
L 353 3500 
z
" transform="scale(0.015625)"/>
      <path id="DejaVuSans-67" d="M 2906 1791 
Q 2906 2416 2648 2759 
Q 2391 3103 1925 3103 
Q 1463 3103 1205 2759 
Q 947 2416 947 1791 
Q 947 1169 1205 825 
Q 1463 481 1925 481 
Q 2391 481 2648 825 
Q 2906 1169 2906 1791 
z
M 3481 434 
Q 3481 -459 3084 -895 
Q 2688 -1331 1869 -1331 
Q 1566 -1331 1297 -1286 
Q 1028 -1241 775 -1147 
L 775 -588 
Q 1028 -725 1275 -790 
Q 1522 -856 1778 -856 
Q 2344 -856 2625 -561 
Q 2906 -266 2906 331 
L 2906 616 
Q 2728 306 2450 153 
Q 2172 0 1784 0 
Q 1141 0 747 490 
Q 353 981 353 1791 
Q 353 2603 747 3093 
Q 1141 3584 1784 3584 
Q 2172 3584 2450 3431 
Q 2728 3278 2906 2969 
L 2906 3500 
L 3481 3500 
L 3481 434 
z
" transform="scale(0.015625)"/>
     </defs>
     <use xlink:href="#DejaVuSans-15a"/>
     <use xlink:href="#DejaVuSans-72" transform="translate(63.476562 0)"/>
     <use xlink:href="#DejaVuSans-65" transform="translate(102.339844 0)"/>
     <use xlink:href="#DejaVuSans-64" transform="translate(163.863281 0)"/>
     <use xlink:href="#DejaVuSans-6e" transform="translate(227.339844 0)"/>
     <use xlink:href="#DejaVuSans-69" transform="translate(290.71875 0)"/>
     <use xlink:href="#DejaVuSans-65" transform="translate(318.501953 0)"/>
     <use xlink:href="#DejaVuSans-20" transform="translate(380.025391 0)"/>
     <use xlink:href="#DejaVuSans-69" transform="translate(411.8125 0)"/>
     <use xlink:href="#DejaVuSans-20" transform="translate(439.595703 0)"/>
     <use xlink:href="#DejaVuSans-6e" transform="translate(471.382812 0)"/>
     <use xlink:href="#DejaVuSans-61" transform="translate(534.761719 0)"/>
     <use xlink:href="#DejaVuSans-6a" transform="translate(596.041016 0)"/>
     <use xlink:href="#DejaVuSans-6c" transform="translate(623.824219 0)"/>
     <use xlink:href="#DejaVuSans-65" transform="translate(651.607422 0)"/>
     <use xlink:href="#DejaVuSans-70" transform="translate(713.130859 0)"/>
     <use xlink:href="#DejaVuSans-73" transform="translate(776.607422 0)"/>
     <use xlink:href="#DejaVuSans-7a" transform="translate(828.707031 0)"/>
     <use xlink:href="#DejaVuSans-65" transform="translate(881.197266 0)"/>
     <use xlink:href="#DejaVuSans-20" transform="translate(942.720703 0)"/>
     <use xlink:href="#DejaVuSans-70" transform="translate(974.507812 0)"/>
     <use xlink:href="#DejaVuSans-72" transform="translate(1037.984375 0)"/>
     <use xlink:href="#DejaVuSans-7a" transform="translate(1079.097656 0)"/>
     <use xlink:href="#DejaVuSans-79" transform="translate(1131.587891 0)"/>
     <use xlink:href="#DejaVuSans-73" transform="translate(1190.767578 0)"/>
     <use xlink:href="#DejaVuSans-74" transform="translate(1242.867188 0)"/>
     <use xlink:href="#DejaVuSans-6f" transform="translate(1282.076172 0)"/>
     <use xlink:href="#DejaVuSans-73" transform="translate(1343.257812 0)"/>
     <use xlink:href="#DejaVuSans-6f" transform="translate(1395.357422 0)"/>
     <use xlink:href="#DejaVuSans-77" transform="translate(1456.539062 0)"/>
     <use xlink:href="#DejaVuSans-61" transform="translate(1538.326172 0)"/>
     <use xlink:href="#DejaVuSans-6e" transform="translate(1599.605469 0)"/>
     <use xlink:href="#DejaVuSans-69" transform="translate(1662.984375 0)"/>
     <use xlink:href="#DejaVuSans-65" transform="translate(1690.767578 0)"/>
     <use xlink:href="#DejaVuSans-20" transform="translate(1752.291016 0)"/>
     <use xlink:href="#DejaVuSans-77" transform="translate(1784.078125 0)"/>
     <use xlink:href="#DejaVuSans-20" transform="translate(1865.865234 0)"/>
     <use xlink:href="#DejaVuSans-6b" transform="translate(1897.652344 0)"/>
     <use xlink:href="#DejaVuSans-61" transform="translate(1953.8125 0)"/>
     <use xlink:href="#DejaVuSans-17c" transform="translate(2015.091797 0)"/>
     <use xlink:href="#DejaVuSans-64" transform="translate(2067.582031 0)"/>
     <use xlink:href="#DejaVuSans-65" transform="translate(2131.058594 0)"/>
     <use xlink:href="#DejaVuSans-6a" transform="translate(2192.582031 0)"/>
     <use xlink:href="#DejaVuSans-20" transform="translate(2220.365234 0)"/>
     <use xlink:href="#DejaVuSans-67" transform="translate(2252.152344 0)"/>
     <use xlink:href="#DejaVuSans-65" transform="translate(2315.628906 0)"/>
     <use xlink:href="#DejaVuSans-6e" transform="translate(2377.152344 0)"/>
     <use xlink:href="#DejaVuSans-65" transform="translate(2440.53125 0)"/>
     <use xlink:href="#DejaVuSans-72" transform="translate(2502.054688 0)"/>
     <use xlink:href="#DejaVuSans-61" transform="translate(2543.167969 0)"/>
     <use xlink:href="#DejaVuSans-63" transform="translate(2604.447266 0)"/>
     <use xlink:href="#DejaVuSans-6a" transform="translate(2659.427734 0)"/>
     <use xlink:href="#DejaVuSans-69" transform="translate(2687.210938 0)"/>
    </g>
   </g>
   <g id="legend_1">
    <g id="patch_7">
     <path d="M 279.790313 302.584 
L 407.72 302.584 
Q 409.72 302.584 409.72 300.584 
L 409.72 257.549625 
Q 409.72 255.549625 407.72 255.549625 
L 279.790313 255.549625 
Q 277.790313 255.549625 277.790313 257.549625 
L 277.790313 300.584 
Q 277.790313 302.584 279.790313 302.584 
z
" style="fill: #ffffff; opacity: 0.8; stroke: #cccccc; stroke-linejoin: miter"/>
    </g>
    <g id="line2d_24">
     <path d="M 281.790313 263.648062 
L 291.790313 263.648062 
L 301.790313 263.648062 
" style="fill: none; stroke: #0000ff; stroke-width: 1.5; stroke-linecap: square"/>
    </g>
    <g id="text_14">
     <!-- Średnia -->
     <g transform="translate(309.790313 267.148062) scale(0.1 -0.1)">
      <use xlink:href="#DejaVuSans-15a"/>
      <use xlink:href="#DejaVuSans-72" transform="translate(63.476562 0)"/>
      <use xlink:href="#DejaVuSans-65" transform="translate(102.339844 0)"/>
      <use xlink:href="#DejaVuSans-64" transform="translate(163.863281 0)"/>
      <use xlink:href="#DejaVuSans-6e" transform="translate(227.339844 0)"/>
      <use xlink:href="#DejaVuSans-69" transform="translate(290.71875 0)"/>
      <use xlink:href="#DejaVuSans-61" transform="translate(318.501953 0)"/>
     </g>
    </g>
    <g id="line2d_25">
     <path d="M 281.790313 278.326188 
L 291.790313 278.326188 
L 301.790313 278.326188 
" style="fill: none; stroke-dasharray: 9.6,2.4,1.5,2.4; stroke-dashoffset: 0; stroke: #008000; stroke-width: 1.5"/>
    </g>
    <g id="text_15">
     <!-- ±1 Odchylenie std. -->
     <g transform="translate(309.790313 281.826188) scale(0.1 -0.1)">
      <defs>
       <path id="DejaVuSans-b1" d="M 2944 4013 
L 2944 2803 
L 4684 2803 
L 4684 2272 
L 2944 2272 
L 2944 1063 
L 2419 1063 
L 2419 2272 
L 678 2272 
L 678 2803 
L 2419 2803 
L 2419 4013 
L 2944 4013 
z
M 678 531 
L 4684 531 
L 4684 0 
L 678 0 
L 678 531 
z
" transform="scale(0.015625)"/>
       <path id="DejaVuSans-4f" d="M 2522 4238 
Q 1834 4238 1429 3725 
Q 1025 3213 1025 2328 
Q 1025 1447 1429 934 
Q 1834 422 2522 422 
Q 3209 422 3611 934 
Q 4013 1447 4013 2328 
Q 4013 3213 3611 3725 
Q 3209 4238 2522 4238 
z
M 2522 4750 
Q 3503 4750 4090 4092 
Q 4678 3434 4678 2328 
Q 4678 1225 4090 567 
Q 3503 -91 2522 -91 
Q 1538 -91 948 565 
Q 359 1222 359 2328 
Q 359 3434 948 4092 
Q 1538 4750 2522 4750 
z
" transform="scale(0.015625)"/>
       <path id="DejaVuSans-68" d="M 3513 2113 
L 3513 0 
L 2938 0 
L 2938 2094 
Q 2938 2591 2744 2837 
Q 2550 3084 2163 3084 
Q 1697 3084 1428 2787 
Q 1159 2491 1159 1978 
L 1159 0 
L 581 0 
L 581 4863 
L 1159 4863 
L 1159 2956 
Q 1366 3272 1645 3428 
Q 1925 3584 2291 3584 
Q 2894 3584 3203 3211 
Q 3513 2838 3513 2113 
z
" transform="scale(0.015625)"/>
       <path id="DejaVuSans-2e" d="M 684 794 
L 1344 794 
L 1344 0 
L 684 0 
L 684 794 
z
" transform="scale(0.015625)"/>
      </defs>
      <use xlink:href="#DejaVuSans-b1"/>
      <use xlink:href="#DejaVuSans-31" transform="translate(83.789062 0)"/>
      <use xlink:href="#DejaVuSans-20" transform="translate(147.412109 0)"/>
      <use xlink:href="#DejaVuSans-4f" transform="translate(179.199219 0)"/>
      <use xlink:href="#DejaVuSans-64" transform="translate(257.910156 0)"/>
      <use xlink:href="#DejaVuSans-63" transform="translate(321.386719 0)"/>
      <use xlink:href="#DejaVuSans-68" transform="translate(376.367188 0)"/>
      <use xlink:href="#DejaVuSans-79" transform="translate(439.746094 0)"/>
      <use xlink:href="#DejaVuSans-6c" transform="translate(498.925781 0)"/>
      <use xlink:href="#DejaVuSans-65" transform="translate(526.708984 0)"/>
      <use xlink:href="#DejaVuSans-6e" transform="translate(588.232422 0)"/>
      <use xlink:href="#DejaVuSans-69" transform="translate(651.611328 0)"/>
      <use xlink:href="#DejaVuSans-65" transform="translate(679.394531 0)"/>
      <use xlink:href="#DejaVuSans-20" transform="translate(740.917969 0)"/>
      <use xlink:href="#DejaVuSans-73" transform="translate(772.705078 0)"/>
      <use xlink:href="#DejaVuSans-74" transform="translate(824.804688 0)"/>
      <use xlink:href="#DejaVuSans-64" transform="translate(864.013672 0)"/>
      <use xlink:href="#DejaVuSans-2e" transform="translate(927.490234 0)"/>
     </g>
    </g>
    <g id="line2d_26">
     <path d="M 281.790313 293.004312 
L 291.790313 293.004312 
L 301.790313 293.004312 
" style="fill: none; stroke: #ff0000; stroke-width: 1.5; stroke-linecap: square"/>
    </g>
    <g id="text_16">
     <!-- Najlepsze -->
     <g transform="translate(309.790313 296.504312) scale(0.1 -0.1)">
      <defs>
       <path id="DejaVuSans-4e" d="M 628 4666 
L 1478 4666 
L 3547 763 
L 3547 4666 
L 4159 4666 
L 4159 0 
L 3309 0 
L 1241 3903 
L 1241 0 
L 628 0 
L 628 4666 
z
" transform="scale(0.015625)"/>
      </defs>
      <use xlink:href="#DejaVuSans-4e"/>
      <use xlink:href="#DejaVuSans-61" transform="translate(74.804688 0)"/>
      <use xlink:href="#DejaVuSans-6a" transform="translate(136.083984 0)"/>
      <use xlink:href="#DejaVuSans-6c" transform="translate(163.867188 0)"/>
      <use xlink:href="#DejaVuSans-65" transform="translate(191.650391 0)"/>
      <use xlink:href="#DejaVuSans-70" transform="translate(253.173828 0)"/>
      <use xlink:href="#DejaVuSans-73" transform="translate(316.650391 0)"/>
      <use xlink:href="#DejaVuSans-7a" transform="translate(368.75 0)"/>
      <use xlink:href="#DejaVuSans-65" transform="translate(421.240234 0)"/>
     </g>
    </g>
   </g>
  </g>
 </g>
 <defs>
  <clipPath id="pf5a47ab9c7">
   <rect x="57.6" y="41.472" width="357.12" height="266.112"/>
  </clipPath>
 </defs>
</svg>
