<?xml version="1.0" encoding="utf-8" standalone="no"?>
<!DOCTYPE svg PUBLIC "-//W3C//DTD SVG 1.1//EN"
  "http://www.w3.org/Graphics/SVG/1.1/DTD/svg11.dtd">
<svg xmlns:xlink="http://www.w3.org/1999/xlink" width="460.8pt" height="345.6pt" viewBox="0 0 460.8 345.6" xmlns="http://www.w3.org/2000/svg" version="1.1">
 <metadata>
  <rdf:RDF xmlns:dc="http://purl.org/dc/elements/1.1/" xmlns:cc="http://creativecommons.org/ns#" xmlns:rdf="http://www.w3.org/1999/02/22-rdf-syntax-ns#">
   <cc:Work>
    <dc:type rdf:resource="http://purl.org/dc/dcmitype/StillImage"/>
    <dc:date>2026-04-26T21:59:29.408927</dc:date>
    <dc:format>image/svg+xml</dc:format>
    <dc:creator>
     <cc:Agent>
      <dc:title>Matplotlib v3.10.8, https://matplotlib.org/</dc:title>
     </cc:Agent>
    </dc:creator>
   </cc:Work>
  </rdf:RDF>
 </metadata>
 <defs>
  <style type="text/css">*{stroke-linejoin: round; stroke-linecap: butt}</style>
 </defs>
 <g id="figure_1">
  <g id="patch_1">
   <path d="M 0 345.6 
L 460.8 345.6 
L 460.8 0 
L 0 0 
z
" style="fill: #ffffff"/>
  </g>
  <g id="axes_1">
   <g id="patch_2">
    <path d="M 57.6 307.584 
L 414.72 307.584 
L 414.72 41.472 
L 57.6 41.472 
z
" style="fill: #ffffff"/>
   </g>
   <g id="matplotlib.axis_1">
    <g id="xtick_1">
     <g id="line2d_1">
      <path d="M 72.201297 307.584 
L 72.201297 41.472 
" clip-path="url(#p07a5d34267)" style="fill: none; stroke: #b0b0b0; stroke-width: 0.8; stroke-linecap: square"/>
     </g>
     <g id="line2d_2">
      <defs>
       <path id="m9acf523e2c" d="M 0 0 
L 0 3.5 
" style="stroke: #000000; stroke-width: 0.8"/>
      </defs>
      <g>
       <use xlink:href="#m9acf523e2c" x="72.201297" y="307.584" style="stroke: #000000; stroke-width: 0.8"/>
      </g>
     </g>
     <g id="text_1">
      <!-- 0 -->
      <g transform="translate(69.020047 322.182437) scale(0.1 -0.1)">
       <defs>
        <path id="DejaVuSans-30" d="M 2034 4250 
Q 1547 4250 1301 3770 
Q 1056 3291 1056 2328 
Q 1056 1369 1301 889 
Q 1547 409 2034 409 
Q 2525 409 2770 889 
Q 3016 1369 3016 2328 
Q 3016 3291 2770 3770 
Q 2525 4250 2034 4250 
z
M 2034 4750 
Q 2819 4750 3233 4129 
Q 3647 3509 3647 2328 
Q 3647 1150 3233 529 
Q 2819 -91 2034 -91 
Q 1250 -91 836 529 
Q 422 1150 422 2328 
Q 422 3509 836 4129 
Q 1250 4750 2034 4750 
z
" transform="scale(0.015625)"/>
       </defs>
       <use xlink:href="#DejaVuSans-30"/>
      </g>
     </g>
    </g>
    <g id="xtick_2">
     <g id="line2d_3">
      <path d="M 112.987044 307.584 
L 112.987044 41.472 
" clip-path="url(#p07a5d34267)" style="fill: none; stroke: #b0b0b0; stroke-width: 0.8; stroke-linecap: square"/>
     </g>
     <g id="line2d_4">
      <g>
       <use xlink:href="#m9acf523e2c" x="112.987044" y="307.584" style="stroke: #000000; stroke-width: 0.8"/>
      </g>
     </g>
     <g id="text_2">
      <!-- 25 -->
      <g transform="translate(106.624544 322.182437) scale(0.1 -0.1)">
       <defs>
        <path id="DejaVuSans-32" d="M 1228 531 
L 3431 531 
L 3431 0 
L 469 0 
L 469 531 
Q 828 903 1448 1529 
Q 2069 2156 2228 2338 
Q 2531 2678 2651 2914 
Q 2772 3150 2772 3378 
Q 2772 3750 2511 3984 
Q 2250 4219 1831 4219 
Q 1534 4219 1204 4116 
Q 875 4013 500 3803 
L 500 4441 
Q 881 4594 1212 4672 
Q 1544 4750 1819 4750 
Q 2544 4750 2975 4387 
Q 3406 4025 3406 3419 
Q 3406 3131 3298 2873 
Q 3191 2616 2906 2266 
Q 2828 2175 2409 1742 
Q 1991 1309 1228 531 
z
" transform="scale(0.015625)"/>
        <path id="DejaVuSans-35" d="M 691 4666 
L 3169 4666 
L 3169 4134 
L 1269 4134 
L 1269 2991 
Q 1406 3038 1543 3061 
Q 1681 3084 1819 3084 
Q 2600 3084 3056 2656 
Q 3513 2228 3513 1497 
Q 3513 744 3044 326 
Q 2575 -91 1722 -91 
Q 1428 -91 1123 -41 
Q 819 9 494 109 
L 494 744 
Q 775 591 1075 516 
Q 1375 441 1709 441 
Q 2250 441 2565 725 
Q 2881 1009 2881 1497 
Q 2881 1984 2565 2268 
Q 2250 2553 1709 2553 
Q 1456 2553 1204 2497 
Q 953 2441 691 2322 
L 691 4666 
z
" transform="scale(0.015625)"/>
       </defs>
       <use xlink:href="#DejaVuSans-32"/>
       <use xlink:href="#DejaVuSans-35" transform="translate(63.623047 0)"/>
      </g>
     </g>
    </g>
    <g id="xtick_3">
     <g id="line2d_5">
      <path d="M 153.772791 307.584 
L 153.772791 41.472 
" clip-path="url(#p07a5d34267)" style="fill: none; stroke: #b0b0b0; stroke-width: 0.8; stroke-linecap: square"/>
     </g>
     <g id="line2d_6">
      <g>
       <use xlink:href="#m9acf523e2c" x="153.772791" y="307.584" style="stroke: #000000; stroke-width: 0.8"/>
      </g>
     </g>
     <g id="text_3">
      <!-- 50 -->
      <g transform="translate(147.410291 322.182437) scale(0.1 -0.1)">
       <use xlink:href="#DejaVuSans-35"/>
       <use xlink:href="#DejaVuSans-30" transform="translate(63.623047 0)"/>
      </g>
     </g>
    </g>
    <g id="xtick_4">
     <g id="line2d_7">
      <path d="M 194.558538 307.584 
L 194.558538 41.472 
" clip-path="url(#p07a5d34267)" style="fill: none; stroke: #b0b0b0; stroke-width: 0.8; stroke-linecap: square"/>
     </g>
     <g id="line2d_8">
      <g>
       <use xlink:href="#m9acf523e2c" x="194.558538" y="307.584" style="stroke: #000000; stroke-width: 0.8"/>
      </g>
     </g>
     <g id="text_4">
      <!-- 75 -->
      <g transform="translate(188.196038 322.182437) scale(0.1 -0.1)">
       <defs>
        <path id="DejaVuSans-37" d="M 525 4666 
L 3525 4666 
L 3525 4397 
L 1831 0 
L 1172 0 
L 2766 4134 
L 525 4134 
L 525 4666 
z
" transform="scale(0.015625)"/>
       </defs>
       <use xlink:href="#DejaVuSans-37"/>
       <use xlink:href="#DejaVuSans-35" transform="translate(63.623047 0)"/>
      </g>
     </g>
    </g>
    <g id="xtick_5">
     <g id="line2d_9">
      <path d="M 235.344285 307.584 
L 235.344285 41.472 
" clip-path="url(#p07a5d34267)" style="fill: none; stroke: #b0b0b0; stroke-width: 0.8; stroke-linecap: square"/>
     </g>
     <g id="line2d_10">
      <g>
       <use xlink:href="#m9acf523e2c" x="235.344285" y="307.584" style="stroke: #000000; stroke-width: 0.8"/>
      </g>
     </g>
     <g id="text_5">
      <!-- 100 -->
      <g transform="translate(225.800535 322.182437) scale(0.1 -0.1)">
       <defs>
        <path id="DejaVuSans-31" d="M 794 531 
L 1825 531 
L 1825 4091 
L 703 3866 
L 703 4441 
L 1819 4666 
L 2450 4666 
L 2450 531 
L 3481 531 
L 3481 0 
L 794 0 
L 794 531 
z
" transform="scale(0.015625)"/>
       </defs>
       <use xlink:href="#DejaVuSans-31"/>
       <use xlink:href="#DejaVuSans-30" transform="translate(63.623047 0)"/>
       <use xlink:href="#DejaVuSans-30" transform="translate(127.246094 0)"/>
      </g>
     </g>
    </g>
    <g id="xtick_6">
     <g id="line2d_11">
      <path d="M 276.130032 307.584 
L 276.130032 41.472 
" clip-path="url(#p07a5d34267)" style="fill: none; stroke: #b0b0b0; stroke-width: 0.8; stroke-linecap: square"/>
     </g>
     <g id="line2d_12">
      <g>
       <use xlink:href="#m9acf523e2c" x="276.130032" y="307.584" style="stroke: #000000; stroke-width: 0.8"/>
      </g>
     </g>
     <g id="text_6">
      <!-- 125 -->
      <g transform="translate(266.586282 322.182437) scale(0.1 -0.1)">
       <use xlink:href="#DejaVuSans-31"/>
       <use xlink:href="#DejaVuSans-32" transform="translate(63.623047 0)"/>
       <use xlink:href="#DejaVuSans-35" transform="translate(127.246094 0)"/>
      </g>
     </g>
    </g>
    <g id="xtick_7">
     <g id="line2d_13">
      <path d="M 316.915779 307.584 
L 316.915779 41.472 
" clip-path="url(#p07a5d34267)" style="fill: none; stroke: #b0b0b0; stroke-width: 0.8; stroke-linecap: square"/>
     </g>
     <g id="line2d_14">
      <g>
       <use xlink:href="#m9acf523e2c" x="316.915779" y="307.584" style="stroke: #000000; stroke-width: 0.8"/>
      </g>
     </g>
     <g id="text_7">
      <!-- 150 -->
      <g transform="translate(307.372029 322.182437) scale(0.1 -0.1)">
       <use xlink:href="#DejaVuSans-31"/>
       <use xlink:href="#DejaVuSans-35" transform="translate(63.623047 0)"/>
       <use xlink:href="#DejaVuSans-30" transform="translate(127.246094 0)"/>
      </g>
     </g>
    </g>
    <g id="xtick_8">
     <g id="line2d_15">
      <path d="M 357.701526 307.584 
L 357.701526 41.472 
" clip-path="url(#p07a5d34267)" style="fill: none; stroke: #b0b0b0; stroke-width: 0.8; stroke-linecap: square"/>
     </g>
     <g id="line2d_16">
      <g>
       <use xlink:href="#m9acf523e2c" x="357.701526" y="307.584" style="stroke: #000000; stroke-width: 0.8"/>
      </g>
     </g>
     <g id="text_8">
      <!-- 175 -->
      <g transform="translate(348.157776 322.182437) scale(0.1 -0.1)">
       <use xlink:href="#DejaVuSans-31"/>
       <use xlink:href="#DejaVuSans-37" transform="translate(63.623047 0)"/>
       <use xlink:href="#DejaVuSans-35" transform="translate(127.246094 0)"/>
      </g>
     </g>
    </g>
    <g id="xtick_9">
     <g id="line2d_17">
      <path d="M 398.487273 307.584 
L 398.487273 41.472 
" clip-path="url(#p07a5d34267)" style="fill: none; stroke: #b0b0b0; stroke-width: 0.8; stroke-linecap: square"/>
     </g>
     <g id="line2d_18">
      <g>
       <use xlink:href="#m9acf523e2c" x="398.487273" y="307.584" style="stroke: #000000; stroke-width: 0.8"/>
      </g>
     </g>
     <g id="text_9">
      <!-- 200 -->
      <g transform="translate(388.943523 322.182437) scale(0.1 -0.1)">
       <use xlink:href="#DejaVuSans-32"/>
       <use xlink:href="#DejaVuSans-30" transform="translate(63.623047 0)"/>
       <use xlink:href="#DejaVuSans-30" transform="translate(127.246094 0)"/>
      </g>
     </g>
    </g>
    <g id="text_10">
     <!-- Generacje -->
     <g transform="translate(210.629531 335.860562) scale(0.1 -0.1)">
      <defs>
       <path id="DejaVuSans-47" d="M 3809 666 
L 3809 1919 
L 2778 1919 
L 2778 2438 
L 4434 2438 
L 4434 434 
Q 4069 175 3628 42 
Q 3188 -91 2688 -91 
Q 1594 -91 976 548 
Q 359 1188 359 2328 
Q 359 3472 976 4111 
Q 1594 4750 2688 4750 
Q 3144 4750 3555 4637 
Q 3966 4525 4313 4306 
L 4313 3634 
Q 3963 3931 3569 4081 
Q 3175 4231 2741 4231 
Q 1884 4231 1454 3753 
Q 1025 3275 1025 2328 
Q 1025 1384 1454 906 
Q 1884 428 2741 428 
Q 3075 428 3337 486 
Q 3600 544 3809 666 
z
" transform="scale(0.015625)"/>
       <path id="DejaVuSans-65" d="M 3597 1894 
L 3597 1613 
L 953 1613 
Q 991 1019 1311 708 
Q 1631 397 2203 397 
Q 2534 397 2845 478 
Q 3156 559 3463 722 
L 3463 178 
Q 3153 47 2828 -22 
Q 2503 -91 2169 -91 
Q 1331 -91 842 396 
Q 353 884 353 1716 
Q 353 2575 817 3079 
Q 1281 3584 2069 3584 
Q 2775 3584 3186 3129 
Q 3597 2675 3597 1894 
z
M 3022 2063 
Q 3016 2534 2758 2815 
Q 2500 3097 2075 3097 
Q 1594 3097 1305 2825 
Q 1016 2553 972 2059 
L 3022 2063 
z
" transform="scale(0.015625)"/>
       <path id="DejaVuSans-6e" d="M 3513 2113 
L 3513 0 
L 2938 0 
L 2938 2094 
Q 2938 2591 2744 2837 
Q 2550 3084 2163 3084 
Q 1697 3084 1428 2787 
Q 1159 2491 1159 1978 
L 1159 0 
L 581 0 
L 581 3500 
L 1159 3500 
L 1159 2956 
Q 1366 3272 1645 3428 
Q 1925 3584 2291 3584 
Q 2894 3584 3203 3211 
Q 3513 2838 3513 2113 
z
" transform="scale(0.015625)"/>
       <path id="DejaVuSans-72" d="M 2631 2963 
Q 2534 3019 2420 3045 
Q 2306 3072 2169 3072 
Q 1681 3072 1420 2755 
Q 1159 2438 1159 1844 
L 1159 0 
L 581 0 
L 581 3500 
L 1159 3500 
L 1159 2956 
Q 1341 3275 1631 3429 
Q 1922 3584 2338 3584 
Q 2397 3584 2469 3576 
Q 2541 3569 2628 3553 
L 2631 2963 
z
" transform="scale(0.015625)"/>
       <path id="DejaVuSans-61" d="M 2194 1759 
Q 1497 1759 1228 1600 
Q 959 1441 959 1056 
Q 959 750 1161 570 
Q 1363 391 1709 391 
Q 2188 391 2477 730 
Q 2766 1069 2766 1631 
L 2766 1759 
L 2194 1759 
z
M 3341 1997 
L 3341 0 
L 2766 0 
L 2766 531 
Q 2569 213 2275 61 
Q 1981 -91 1556 -91 
Q 1019 -91 701 211 
Q 384 513 384 1019 
Q 384 1609 779 1909 
Q 1175 2209 1959 2209 
L 2766 2209 
L 2766 2266 
Q 2766 2663 2505 2880 
Q 2244 3097 1772 3097 
Q 1472 3097 1187 3025 
Q 903 2953 641 2809 
L 641 3341 
Q 956 3463 1253 3523 
Q 1550 3584 1831 3584 
Q 2591 3584 2966 3190 
Q 3341 2797 3341 1997 
z
" transform="scale(0.015625)"/>
       <path id="DejaVuSans-63" d="M 3122 3366 
L 3122 2828 
Q 2878 2963 2633 3030 
Q 2388 3097 2138 3097 
Q 1578 3097 1268 2742 
Q 959 2388 959 1747 
Q 959 1106 1268 751 
Q 1578 397 2138 397 
Q 2388 397 2633 464 
Q 2878 531 3122 666 
L 3122 134 
Q 2881 22 2623 -34 
Q 2366 -91 2075 -91 
Q 1284 -91 818 406 
Q 353 903 353 1747 
Q 353 2603 823 3093 
Q 1294 3584 2113 3584 
Q 2378 3584 2631 3529 
Q 2884 3475 3122 3366 
z
" transform="scale(0.015625)"/>
       <path id="DejaVuSans-6a" d="M 603 3500 
L 1178 3500 
L 1178 -63 
Q 1178 -731 923 -1031 
Q 669 -1331 103 -1331 
L -116 -1331 
L -116 -844 
L 38 -844 
Q 366 -844 484 -692 
Q 603 -541 603 -63 
L 603 3500 
z
M 603 4863 
L 1178 4863 
L 1178 4134 
L 603 4134 
L 603 4863 
z
" transform="scale(0.015625)"/>
      </defs>
      <use xlink:href="#DejaVuSans-47"/>
      <use xlink:href="#DejaVuSans-65" transform="translate(77.490234 0)"/>
      <use xlink:href="#DejaVuSans-6e" transform="translate(139.013672 0)"/>
      <use xlink:href="#DejaVuSans-65" transform="translate(202.392578 0)"/>
      <use xlink:href="#DejaVuSans-72" transform="translate(263.916016 0)"/>
      <use xlink:href="#DejaVuSans-61" transform="translate(305.029297 0)"/>
      <use xlink:href="#DejaVuSans-63" transform="translate(366.308594 0)"/>
      <use xlink:href="#DejaVuSans-6a" transform="translate(421.289062 0)"/>
      <use xlink:href="#DejaVuSans-65" transform="translate(449.072266 0)"/>
     </g>
    </g>
   </g>
   <g id="matplotlib.axis_2">
    <g id="ytick_1">
     <g id="line2d_19">
      <path d="M 57.6 138.241625 
L 414.72 138.241625 
" clip-path="url(#p07a5d34267)" style="fill: none; stroke: #b0b0b0; stroke-width: 0.8; stroke-linecap: square"/>
     </g>
     <g id="line2d_20">
      <defs>
       <path id="m6a0f87c27c" d="M 0 0 
L -3.5 0 
" style="stroke: #000000; stroke-width: 0.8"/>
      </defs>
      <g>
       <use xlink:href="#m6a0f87c27c" x="57.6" y="138.241625" style="stroke: #000000; stroke-width: 0.8"/>
      </g>
     </g>
     <g id="text_11">
      <!-- $\mathdefault{10^{2}}$ -->
      <g transform="translate(33 142.040844) scale(0.1 -0.1)">
       <use xlink:href="#DejaVuSans-31" transform="translate(0 0.765625)"/>
       <use xlink:href="#DejaVuSans-30" transform="translate(63.623047 0.765625)"/>
       <use xlink:href="#DejaVuSans-32" transform="translate(128.203125 39.046875) scale(0.7)"/>
      </g>
     </g>
    </g>
    <g id="text_12">
     <!-- Przystosowanie -->
     <g transform="translate(26.920312 213.170187) rotate(-90) scale(0.1 -0.1)">
      <defs>
       <path id="DejaVuSans-50" d="M 1259 4147 
L 1259 2394 
L 2053 2394 
Q 2494 2394 2734 2622 
Q 2975 2850 2975 3272 
Q 2975 3691 2734 3919 
Q 2494 4147 2053 4147 
L 1259 4147 
z
M 628 4666 
L 2053 4666 
Q 2838 4666 3239 4311 
Q 3641 3956 3641 3272 
Q 3641 2581 3239 2228 
Q 2838 1875 2053 1875 
L 1259 1875 
L 1259 0 
L 628 0 
L 628 4666 
z
" transform="scale(0.015625)"/>
       <path id="DejaVuSans-7a" d="M 353 3500 
L 3084 3500 
L 3084 2975 
L 922 459 
L 3084 459 
L 3084 0 
L 275 0 
L 275 525 
L 2438 3041 
L 353 3041 
L 353 3500 
z
" transform="scale(0.015625)"/>
       <path id="DejaVuSans-79" d="M 2059 -325 
Q 1816 -950 1584 -1140 
Q 1353 -1331 966 -1331 
L 506 -1331 
L 506 -850 
L 844 -850 
Q 1081 -850 1212 -737 
Q 1344 -625 1503 -206 
L 1606 56 
L 191 3500 
L 800 3500 
L 1894 763 
L 2988 3500 
L 3597 3500 
L 2059 -325 
z
" transform="scale(0.015625)"/>
       <path id="DejaVuSans-73" d="M 2834 3397 
L 2834 2853 
Q 2591 2978 2328 3040 
Q 2066 3103 1784 3103 
Q 1356 3103 1142 2972 
Q 928 2841 928 2578 
Q 928 2378 1081 2264 
Q 1234 2150 1697 2047 
L 1894 2003 
Q 2506 1872 2764 1633 
Q 3022 1394 3022 966 
Q 3022 478 2636 193 
Q 2250 -91 1575 -91 
Q 1294 -91 989 -36 
Q 684 19 347 128 
L 347 722 
Q 666 556 975 473 
Q 1284 391 1588 391 
Q 1994 391 2212 530 
Q 2431 669 2431 922 
Q 2431 1156 2273 1281 
Q 2116 1406 1581 1522 
L 1381 1569 
Q 847 1681 609 1914 
Q 372 2147 372 2553 
Q 372 3047 722 3315 
Q 1072 3584 1716 3584 
Q 2034 3584 2315 3537 
Q 2597 3491 2834 3397 
z
" transform="scale(0.015625)"/>
       <path id="DejaVuSans-74" d="M 1172 4494 
L 1172 3500 
L 2356 3500 
L 2356 3053 
L 1172 3053 
L 1172 1153 
Q 1172 725 1289 603 
Q 1406 481 1766 481 
L 2356 481 
L 2356 0 
L 1766 0 
Q 1100 0 847 248 
Q 594 497 594 1153 
L 594 3053 
L 172 3053 
L 172 3500 
L 594 3500 
L 594 4494 
L 1172 4494 
z
" transform="scale(0.015625)"/>
       <path id="DejaVuSans-6f" d="M 1959 3097 
Q 1497 3097 1228 2736 
Q 959 2375 959 1747 
Q 959 1119 1226 758 
Q 1494 397 1959 397 
Q 2419 397 2687 759 
Q 2956 1122 2956 1747 
Q 2956 2369 2687 2733 
Q 2419 3097 1959 3097 
z
M 1959 3584 
Q 2709 3584 3137 3096 
Q 3566 2609 3566 1747 
Q 3566 888 3137 398 
Q 2709 -91 1959 -91 
Q 1206 -91 779 398 
Q 353 888 353 1747 
Q 353 2609 779 3096 
Q 1206 3584 1959 3584 
z
" transform="scale(0.015625)"/>
       <path id="DejaVuSans-77" d="M 269 3500 
L 844 3500 
L 1563 769 
L 2278 3500 
L 2956 3500 
L 3675 769 
L 4391 3500 
L 4966 3500 
L 4050 0 
L 3372 0 
L 2619 2869 
L 1863 0 
L 1184 0 
L 269 3500 
z
" transform="scale(0.015625)"/>
       <path id="DejaVuSans-69" d="M 603 3500 
L 1178 3500 
L 1178 0 
L 603 0 
L 603 3500 
z
M 603 4863 
L 1178 4863 
L 1178 4134 
L 603 4134 
L 603 4863 
z
" transform="scale(0.015625)"/>
      </defs>
      <use xlink:href="#DejaVuSans-50"/>
      <use xlink:href="#DejaVuSans-72" transform="translate(58.552734 0)"/>
      <use xlink:href="#DejaVuSans-7a" transform="translate(99.666016 0)"/>
      <use xlink:href="#DejaVuSans-79" transform="translate(152.15625 0)"/>
      <use xlink:href="#DejaVuSans-73" transform="translate(211.335938 0)"/>
      <use xlink:href="#DejaVuSans-74" transform="translate(263.435547 0)"/>
      <use xlink:href="#DejaVuSans-6f" transform="translate(302.644531 0)"/>
      <use xlink:href="#DejaVuSans-73" transform="translate(363.826172 0)"/>
      <use xlink:href="#DejaVuSans-6f" transform="translate(415.925781 0)"/>
      <use xlink:href="#DejaVuSans-77" transform="translate(477.107422 0)"/>
      <use xlink:href="#DejaVuSans-61" transform="translate(558.894531 0)"/>
      <use xlink:href="#DejaVuSans-6e" transform="translate(620.173828 0)"/>
      <use xlink:href="#DejaVuSans-69" transform="translate(683.552734 0)"/>
      <use xlink:href="#DejaVuSans-65" transform="translate(711.335938 0)"/>
     </g>
    </g>
   </g>
   <g id="line2d_21">
    <path d="M 73.832727 295.488 
L 75.464157 234.349598 
L 77.095587 198.413564 
L 78.727017 192.228416 
L 80.358447 187.724481 
L 81.989877 187.527323 
L 83.621307 183.86884 
L 85.252736 181.683757 
L 86.884166 182.648051 
L 88.515596 175.447931 
L 90.147026 180.922746 
L 91.778456 178.299631 
L 93.409886 176.550228 
L 95.041316 171.959414 
L 96.672746 169.49069 
L 98.304175 175.547358 
L 99.935605 173.557179 
L 101.567035 169.230144 
L 103.198465 167.408022 
L 104.829895 168.754564 
L 106.461325 168.518618 
L 108.092755 167.461893 
L 109.724185 166.540865 
L 111.355614 169.355577 
L 112.987044 167.014365 
L 114.618474 167.323547 
L 116.249904 165.715294 
L 117.881334 166.115333 
L 119.512764 168.779832 
L 121.144194 167.865594 
L 122.775624 165.802251 
L 126.038483 170.885729 
L 127.669913 166.894391 
L 129.301343 168.192768 
L 130.932773 167.085629 
L 132.564203 165.470297 
L 134.195633 165.459091 
L 135.827063 165.573334 
L 137.458492 170.67646 
L 139.089922 166.687205 
L 140.721352 166.977123 
L 142.352782 168.367448 
L 143.984212 168.946147 
L 145.615642 168.208746 
L 147.247072 168.850055 
L 150.509931 164.049438 
L 152.141361 166.267834 
L 153.772791 165.569052 
L 155.404221 169.455828 
L 157.035651 168.513473 
L 158.667081 165.27689 
L 160.298511 164.789395 
L 161.929941 165.86791 
L 163.56137 166.670312 
L 165.1928 166.911973 
L 166.82423 165.015416 
L 168.45566 168.743906 
L 170.08709 164.552463 
L 171.71852 166.18267 
L 173.34995 167.425637 
L 174.98138 162.556631 
L 176.61281 164.801598 
L 178.244239 164.283886 
L 179.875669 164.752147 
L 181.507099 167.75716 
L 183.138529 168.143767 
L 184.769959 165.346359 
L 186.401389 164.651024 
L 188.032819 164.957664 
L 189.664249 165.145574 
L 191.295678 164.645174 
L 192.927108 166.935938 
L 194.558538 167.27509 
L 196.189968 163.821943 
L 197.821398 168.018506 
L 199.452828 165.78274 
L 201.084258 167.576715 
L 202.715688 166.523311 
L 204.347117 164.816679 
L 205.978547 168.151076 
L 207.609977 165.485467 
L 209.241407 168.266221 
L 210.872837 164.499081 
L 212.504267 167.056545 
L 214.135697 167.404946 
L 215.767127 165.393619 
L 217.398556 166.321497 
L 219.029986 166.922063 
L 220.661416 167.062212 
L 222.292846 165.694907 
L 223.924276 168.198752 
L 227.187136 164.735942 
L 228.818566 164.718268 
L 230.449995 164.897498 
L 232.081425 166.589504 
L 233.712855 164.570954 
L 235.344285 166.204391 
L 236.975715 168.589587 
L 238.607145 166.897418 
L 240.238575 164.335761 
L 243.501434 166.067661 
L 245.132864 166.275486 
L 246.764294 164.592007 
L 248.395724 165.186094 
L 250.027154 168.027714 
L 251.658584 166.506859 
L 253.290014 167.901356 
L 254.921444 166.203662 
L 256.552873 165.359321 
L 258.184303 168.169292 
L 259.815733 165.999847 
L 261.447163 165.020481 
L 263.078593 166.320238 
L 264.710023 165.868906 
L 266.341453 164.043515 
L 267.972883 165.558425 
L 269.604312 165.84825 
L 271.235742 165.713921 
L 272.867172 163.950102 
L 274.498602 165.953563 
L 276.130032 164.967656 
L 277.761462 165.229686 
L 279.392892 163.634297 
L 281.024322 164.78641 
L 282.655751 165.615763 
L 284.287181 165.128214 
L 285.918611 165.072909 
L 287.550041 165.466718 
L 289.181471 164.662256 
L 290.812901 164.162968 
L 292.444331 163.373241 
L 294.075761 163.452603 
L 295.70719 165.961322 
L 297.33862 164.520631 
L 298.97005 165.061459 
L 300.60148 162.517337 
L 302.23291 163.506371 
L 303.86434 163.63397 
L 305.49577 164.106787 
L 307.1272 166.647678 
L 308.75863 166.897607 
L 310.390059 166.360894 
L 312.021489 164.099439 
L 313.652919 166.783882 
L 315.284349 165.938991 
L 316.915779 164.567168 
L 318.547209 166.680038 
L 320.178639 165.125352 
L 321.810069 165.616679 
L 323.441498 163.550815 
L 325.072928 165.823773 
L 326.704358 161.252981 
L 328.335788 164.979664 
L 331.598648 164.568677 
L 333.230078 163.018747 
L 334.861508 162.244192 
L 336.492937 163.58309 
L 338.124367 164.750899 
L 339.755797 164.721538 
L 341.387227 163.943469 
L 343.018657 166.272993 
L 344.650087 166.271783 
L 346.281517 165.376137 
L 347.912947 165.92122 
L 349.544376 163.953483 
L 351.175806 165.499222 
L 352.807236 166.592033 
L 356.070096 163.412691 
L 357.701526 163.711517 
L 359.332956 163.860124 
L 360.964386 163.169619 
L 362.595815 164.515005 
L 364.227245 164.079051 
L 365.858675 164.044749 
L 367.490105 163.08895 
L 369.121535 163.212495 
L 370.752965 164.179456 
L 372.384395 166.345478 
L 374.015825 162.776232 
L 375.647254 162.110626 
L 378.910114 163.44279 
L 380.541544 166.95686 
L 382.172974 165.877693 
L 383.804404 164.228939 
L 385.435834 162.216084 
L 387.067264 164.526349 
L 388.698693 165.880708 
L 390.330123 162.978102 
L 391.961553 162.102506 
L 393.592983 164.591633 
L 395.224413 165.094376 
L 396.855843 163.442483 
L 398.487273 163.881606 
L 398.487273 163.881606 
" clip-path="url(#p07a5d34267)" style="fill: none; stroke: #0000ff; stroke-width: 1.5; stroke-linecap: square"/>
   </g>
   <g id="line2d_22">
    <path d="M 73.832727 245.313846 
L 75.464157 182.75605 
L 77.095587 156.915421 
L 78.727017 152.918884 
L 80.358447 154.37533 
L 81.989877 152.742636 
L 85.252736 145.401086 
L 86.884166 147.773605 
L 88.515596 140.613389 
L 90.147026 148.495433 
L 91.778456 148.405922 
L 95.041316 141.842303 
L 96.672746 144.818208 
L 98.304175 144.475804 
L 99.935605 147.938406 
L 101.567035 143.618674 
L 103.198465 142.001348 
L 104.829895 142.918365 
L 106.461325 143.28559 
L 108.092755 141.435456 
L 109.724185 141.08204 
L 111.355614 145.487616 
L 112.987044 143.250933 
L 114.618474 143.784732 
L 116.249904 140.652053 
L 117.881334 141.547589 
L 119.512764 144.695291 
L 121.144194 145.261427 
L 122.775624 141.191627 
L 124.407053 145.819458 
L 126.038483 146.703326 
L 127.669913 142.676235 
L 129.301343 146.731225 
L 130.932773 142.507571 
L 134.195633 143.963958 
L 135.827063 141.614811 
L 137.458492 147.090253 
L 139.089922 141.876634 
L 140.721352 146.191564 
L 142.352782 148.181674 
L 143.984212 147.577462 
L 145.615642 143.808634 
L 147.247072 145.968385 
L 148.878502 144.491855 
L 150.509931 139.756043 
L 152.141361 145.224374 
L 153.772791 140.703852 
L 155.404221 146.058776 
L 157.035651 144.870647 
L 158.667081 141.093841 
L 160.298511 141.496791 
L 161.929941 142.370257 
L 163.56137 144.821822 
L 165.1928 143.710393 
L 166.82423 142.224355 
L 168.45566 144.136629 
L 170.08709 142.039726 
L 171.71852 145.092871 
L 173.34995 140.900478 
L 174.98138 138.999056 
L 176.61281 143.564251 
L 178.244239 140.037542 
L 179.875669 142.442495 
L 181.507099 146.991545 
L 183.138529 144.758944 
L 184.769959 143.115146 
L 186.401389 144.603541 
L 188.032819 143.161828 
L 189.664249 142.775197 
L 191.295678 142.728006 
L 192.927108 145.810392 
L 194.558538 145.915336 
L 196.189968 142.25944 
L 197.821398 144.972115 
L 199.452828 143.108047 
L 201.084258 145.060083 
L 202.715688 144.325496 
L 204.347117 142.823243 
L 205.978547 146.623493 
L 207.609977 144.351868 
L 209.241407 146.94226 
L 210.872837 142.112284 
L 212.504267 144.871549 
L 214.135697 145.542165 
L 215.767127 141.961897 
L 217.398556 144.641587 
L 219.029986 146.91493 
L 220.661416 147.529191 
L 222.292846 144.2517 
L 223.924276 146.761417 
L 225.555706 144.924524 
L 227.187136 141.613055 
L 228.818566 142.767321 
L 230.449995 142.207262 
L 232.081425 144.489299 
L 233.712855 141.780403 
L 235.344285 143.241406 
L 236.975715 147.923063 
L 238.607145 145.598714 
L 240.238575 140.881759 
L 241.870005 141.998834 
L 243.501434 142.860985 
L 245.132864 142.20295 
L 246.764294 143.262707 
L 248.395724 142.497905 
L 250.027154 147.94852 
L 251.658584 144.980233 
L 253.290014 145.099567 
L 254.921444 145.706831 
L 256.552873 143.582585 
L 258.184303 146.12358 
L 259.815733 145.200004 
L 261.447163 143.527173 
L 263.078593 147.057378 
L 264.710023 143.733777 
L 266.341453 141.081671 
L 267.972883 142.257737 
L 269.604312 143.151604 
L 271.235742 144.932477 
L 272.867172 139.030134 
L 274.498602 141.104882 
L 276.130032 142.280486 
L 277.761462 144.064258 
L 279.392892 140.834498 
L 281.024322 143.05414 
L 282.655751 145.593298 
L 284.287181 144.567546 
L 285.918611 142.711182 
L 287.550041 142.987359 
L 289.181471 141.078152 
L 290.812901 143.220148 
L 292.444331 141.454331 
L 294.075761 142.551388 
L 295.70719 147.182915 
L 297.33862 141.197031 
L 298.97005 143.302912 
L 300.60148 139.694041 
L 302.23291 139.381613 
L 303.86434 141.767208 
L 305.49577 143.465216 
L 307.1272 144.512898 
L 308.75863 141.998111 
L 310.390059 145.56658 
L 312.021489 141.506123 
L 313.652919 145.58398 
L 315.284349 141.480692 
L 316.915779 142.798046 
L 318.547209 144.488469 
L 321.810069 142.431116 
L 323.441498 140.346989 
L 325.072928 145.57445 
L 326.704358 140.247223 
L 328.335788 144.467362 
L 329.967218 143.917452 
L 331.598648 141.697125 
L 333.230078 141.831652 
L 334.861508 139.302313 
L 336.492937 140.033098 
L 338.124367 142.82343 
L 339.755797 142.37316 
L 341.387227 141.237717 
L 343.018657 147.925777 
L 344.650087 144.563476 
L 346.281517 144.150707 
L 347.912947 143.35411 
L 349.544376 141.954194 
L 351.175806 145.798865 
L 352.807236 145.259776 
L 356.070096 142.552112 
L 357.701526 142.387501 
L 359.332956 143.105142 
L 360.964386 141.228296 
L 362.595815 143.156877 
L 364.227245 143.755799 
L 365.858675 141.707657 
L 367.490105 142.293835 
L 369.121535 139.081032 
L 370.752965 144.098337 
L 372.384395 144.770522 
L 374.015825 140.704679 
L 375.647254 138.726362 
L 377.278684 141.422124 
L 378.910114 140.880171 
L 380.541544 146.822258 
L 382.172974 145.512823 
L 383.804404 142.798529 
L 385.435834 140.99829 
L 387.067264 143.499529 
L 388.698693 146.542424 
L 390.330123 140.712579 
L 391.961553 140.815494 
L 393.592983 144.612344 
L 395.224413 144.09302 
L 396.855843 141.568327 
L 398.487273 141.367136 
L 398.487273 141.367136 
" clip-path="url(#p07a5d34267)" style="fill: none; stroke-dasharray: 9.6,2.4,1.5,2.4; stroke-dashoffset: 0; stroke: #008000; stroke-width: 1.5"/>
   </g>
   <g id="line2d_23">
    <path d="M 73.832727 136.926921 
L 75.464157 110.661702 
L 77.095587 106.543647 
L 78.727017 114.399536 
L 80.358447 114.194121 
L 81.989877 114.826051 
L 83.621307 87.786919 
L 85.252736 88.040095 
L 86.884166 102.460471 
L 88.515596 95.27435 
L 90.147026 94.697647 
L 91.778456 98.407092 
L 93.409886 84.450605 
L 95.041316 91.235609 
L 96.672746 106.854231 
L 98.304175 88.491203 
L 99.935605 102.250218 
L 101.567035 87.849355 
L 103.198465 106.782698 
L 104.829895 106.331974 
L 106.461325 94.895952 
L 108.092755 91.12693 
L 109.724185 77.487455 
L 111.355614 99.095537 
L 112.987044 91.932691 
L 114.618474 102.648588 
L 116.249904 98.715311 
L 117.881334 88.52435 
L 119.512764 110.213337 
L 121.144194 106.92748 
L 122.775624 94.78386 
L 124.407053 106.855553 
L 126.038483 110.402214 
L 127.669913 102.81059 
L 129.301343 91.790663 
L 130.932773 74.318728 
L 132.564203 98.995533 
L 134.195633 98.510124 
L 135.827063 74.50071 
L 137.458492 91.049951 
L 139.089922 88.15642 
L 140.721352 95.200065 
L 142.352782 114.336944 
L 143.984212 114.905524 
L 145.615642 102.535985 
L 147.247072 83.942126 
L 148.878502 95.074626 
L 150.509931 87.914898 
L 152.141361 102.557795 
L 153.772791 78.350082 
L 155.404221 99.884519 
L 157.035651 87.681715 
L 158.667081 92.000908 
L 160.298511 80.82336 
L 161.929941 84.482407 
L 163.56137 95.341078 
L 165.1928 95.175089 
L 166.82423 88.347996 
L 168.45566 64.623212 
L 170.08709 107.385835 
L 171.71852 84.53098 
L 173.34995 84.362809 
L 174.98138 84.318429 
L 176.61281 98.437062 
L 178.244239 78.037349 
L 179.875669 94.793028 
L 181.507099 102.15841 
L 183.138529 71.161839 
L 184.769959 88.415833 
L 186.401389 102.679846 
L 188.032819 91.813004 
L 189.664249 99.078221 
L 191.295678 110.359575 
L 192.927108 91.132405 
L 194.558538 105.882354 
L 196.189968 84.221871 
L 197.821398 84.464706 
L 199.452828 88.766896 
L 201.084258 77.972206 
L 202.715688 59.565158 
L 204.347117 84.297585 
L 205.978547 102.474471 
L 207.609977 102.41954 
L 209.241407 110.536071 
L 210.872837 95.525873 
L 212.504267 106.297866 
L 214.135697 87.663859 
L 215.767127 98.510009 
L 217.398556 80.575797 
L 219.029986 106.730827 
L 220.661416 110.029828 
L 222.292846 107.375517 
L 223.924276 98.504142 
L 225.555706 71.166697 
L 227.187136 78.134671 
L 228.818566 91.498736 
L 230.449995 99.066754 
L 232.081425 94.931987 
L 233.712855 87.605569 
L 235.344285 53.568 
L 236.975715 98.984431 
L 238.607145 98.782733 
L 240.238575 80.827641 
L 241.870005 71.238205 
L 243.501434 88.017982 
L 245.132864 70.831688 
L 246.764294 98.96432 
L 248.395724 99.221562 
L 250.027154 98.851391 
L 251.658584 98.776957 
L 253.290014 78.237403 
L 254.921444 98.700909 
L 256.552873 91.493053 
L 258.184303 95.250511 
L 259.815733 110.592337 
L 261.447163 87.772217 
L 263.078593 106.94153 
L 264.710023 102.350898 
L 266.341453 102.868046 
L 267.972883 102.359389 
L 269.604312 98.50442 
L 271.235742 102.258991 
L 272.867172 62.258638 
L 276.130032 87.299288 
L 277.761462 106.227081 
L 279.392892 65.798752 
L 281.024322 102.63002 
L 282.655751 110.380014 
L 284.287181 94.950969 
L 285.918611 77.899632 
L 287.550041 85.368624 
L 289.181471 95.731436 
L 290.812901 84.37741 
L 292.444331 91.301771 
L 294.075761 88.001307 
L 295.70719 102.54955 
L 297.33862 95.005879 
L 298.97005 78.483958 
L 300.60148 75.088258 
L 302.23291 77.349729 
L 303.86434 91.561321 
L 305.49577 91.773936 
L 307.1272 98.544311 
L 308.75863 84.271448 
L 310.390059 102.445478 
L 312.021489 87.737652 
L 313.652919 91.563649 
L 315.284349 94.745022 
L 316.915779 78.248313 
L 318.547209 84.432963 
L 320.178639 95.223628 
L 321.810069 91.618827 
L 323.441498 77.688044 
L 325.072928 106.684753 
L 326.704358 106.501174 
L 328.335788 94.629415 
L 329.967218 95.33169 
L 331.598648 77.307996 
L 333.230078 91.26441 
L 334.861508 77.807603 
L 336.492937 87.533744 
L 338.124367 68.534708 
L 339.755797 95.468476 
L 341.387227 80.619806 
L 343.018657 114.582893 
L 344.650087 74.040717 
L 346.281517 102.473977 
L 347.912947 81.231406 
L 349.544376 84.467949 
L 351.175806 98.955012 
L 352.807236 91.068061 
L 354.438666 91.384135 
L 356.070096 91.937392 
L 357.701526 98.910821 
L 359.332956 102.199353 
L 360.964386 103.401551 
L 362.595815 91.58687 
L 364.227245 95.280703 
L 365.858675 71.782758 
L 367.490105 98.608363 
L 369.121535 68.083168 
L 370.752965 98.573435 
L 372.384395 65.613512 
L 374.015825 98.420047 
L 375.647254 77.441749 
L 377.278684 78.302915 
L 378.910114 94.717445 
L 380.541544 80.806448 
L 382.172974 103.031961 
L 383.804404 102.13423 
L 385.435834 99.001545 
L 387.067264 88.182353 
L 388.698693 114.876934 
L 390.330123 77.311851 
L 391.961553 87.686132 
L 393.592983 98.882738 
L 395.224413 94.720805 
L 396.855843 87.776016 
L 398.487273 95.505641 
L 398.487273 95.505641 
" clip-path="url(#p07a5d34267)" style="fill: none; stroke: #ff0000; stroke-width: 1.5; stroke-linecap: square"/>
   </g>
   <g id="patch_3">
    <path d="M 57.6 307.584 
L 57.6 41.472 
" style="fill: none; stroke: #000000; stroke-width: 0.8; stroke-linejoin: miter; stroke-linecap: square"/>
   </g>
   <g id="patch_4">
    <path d="M 414.72 307.584 
L 414.72 41.472 
" style="fill: none; stroke: #000000; stroke-width: 0.8; stroke-linejoin: miter; stroke-linecap: square"/>
   </g>
   <g id="patch_5">
    <path d="M 57.6 307.584 
L 414.72 307.584 
" style="fill: none; stroke: #000000; stroke-width: 0.8; stroke-linejoin: miter; stroke-linecap: square"/>
   </g>
   <g id="patch_6">
    <path d="M 57.6 41.472 
L 414.72 41.472 
" style="fill: none; stroke: #000000; stroke-width: 0.8; stroke-linejoin: miter; stroke-linecap: square"/>
   </g>
   <g id="text_13">
    <!-- Średnie i najlepsze przystosowanie w każdej generacji -->
    <g transform="translate(73.26 35.472) scale(0.12 -0.12)">
     <defs>
      <path id="DejaVuSans-15a" d="M 2236 5921 
L 2814 5921 
L 2102 5096 
L 1623 5096 
L 2236 5921 
z
M 3425 4513 
L 3425 3897 
Q 3066 4069 2747 4153 
Q 2428 4238 2131 4238 
Q 1616 4238 1336 4038 
Q 1056 3838 1056 3469 
Q 1056 3159 1242 3001 
Q 1428 2844 1947 2747 
L 2328 2669 
Q 3034 2534 3370 2195 
Q 3706 1856 3706 1288 
Q 3706 609 3251 259 
Q 2797 -91 1919 -91 
Q 1588 -91 1214 -16 
Q 841 59 441 206 
L 441 856 
Q 825 641 1194 531 
Q 1563 422 1919 422 
Q 2459 422 2753 634 
Q 3047 847 3047 1241 
Q 3047 1584 2836 1778 
Q 2625 1972 2144 2069 
L 1759 2144 
Q 1053 2284 737 2584 
Q 422 2884 422 3419 
Q 422 4038 858 4394 
Q 1294 4750 2059 4750 
Q 2388 4750 2728 4690 
Q 3069 4631 3425 4513 
z
" transform="scale(0.015625)"/>
      <path id="DejaVuSans-64" d="M 2906 2969 
L 2906 4863 
L 3481 4863 
L 3481 0 
L 2906 0 
L 2906 525 
Q 2725 213 2448 61 
Q 2172 -91 1784 -91 
Q 1150 -91 751 415 
Q 353 922 353 1747 
Q 353 2572 751 3078 
Q 1150 3584 1784 3584 
Q 2172 3584 2448 3432 
Q 2725 3281 2906 2969 
z
M 947 1747 
Q 947 1113 1208 752 
Q 1469 391 1925 391 
Q 2381 391 2643 752 
Q 2906 1113 2906 1747 
Q 2906 2381 2643 2742 
Q 2381 3103 1925 3103 
Q 1469 3103 1208 2742 
Q 947 2381 947 1747 
z
" transform="scale(0.015625)"/>
      <path id="DejaVuSans-20" transform="scale(0.015625)"/>
      <path id="DejaVuSans-6c" d="M 603 4863 
L 1178 4863 
L 1178 0 
L 603 0 
L 603 4863 
z
" transform="scale(0.015625)"/>
      <path id="DejaVuSans-70" d="M 1159 525 
L 1159 -1331 
L 581 -1331 
L 581 3500 
L 1159 3500 
L 1159 2969 
Q 1341 3281 1617 3432 
Q 1894 3584 2278 3584 
Q 2916 3584 3314 3078 
Q 3713 2572 3713 1747 
Q 3713 922 3314 415 
Q 2916 -91 2278 -91 
Q 1894 -91 1617 61 
Q 1341 213 1159 525 
z
M 3116 1747 
Q 3116 2381 2855 2742 
Q 2594 3103 2138 3103 
Q 1681 3103 1420 2742 
Q 1159 2381 1159 1747 
Q 1159 1113 1420 752 
Q 1681 391 2138 391 
Q 2594 391 2855 752 
Q 3116 1113 3116 1747 
z
" transform="scale(0.015625)"/>
      <path id="DejaVuSans-6b" d="M 581 4863 
L 1159 4863 
L 1159 1991 
L 2875 3500 
L 3609 3500 
L 1753 1863 
L 3688 0 
L 2938 0 
L 1159 1709 
L 1159 0 
L 581 0 
L 581 4863 
z
" transform="scale(0.015625)"/>
      <path id="DejaVuSans-17c" d="M 1378 4863 
L 1953 4863 
L 1953 4134 
L 1378 4134 
L 1378 4863 
z
M 1672 3584 
L 1672 3584 
z
M 353 3500 
L 3084 3500 
L 3084 2975 
L 922 459 
L 3084 459 
L 3084 0 
L 275 0 
L 275 525 
L 2438 3041 
L 353 3041 
L 353 3500 
z
" transform="scale(0.015625)"/>
      <path id="DejaVuSans-67" d="M 2906 1791 
Q 2906 2416 2648 2759 
Q 2391 3103 1925 3103 
Q 1463 3103 1205 2759 
Q 947 2416 947 1791 
Q 947 1169 1205 825 
Q 1463 481 1925 481 
Q 2391 481 2648 825 
Q 2906 1169 2906 1791 
z
M 3481 434 
Q 3481 -459 3084 -895 
Q 2688 -1331 1869 -1331 
Q 1566 -1331 1297 -1286 
Q 1028 -1241 775 -1147 
L 775 -588 
Q 1028 -725 1275 -790 
Q 1522 -856 1778 -856 
Q 2344 -856 2625 -561 
Q 2906 -266 2906 331 
L 2906 616 
Q 2728 306 2450 153 
Q 2172 0 1784 0 
Q 1141 0 747 490 
Q 353 981 353 1791 
Q 353 2603 747 3093 
Q 1141 3584 1784 3584 
Q 2172 3584 2450 3431 
Q 2728 3278 2906 2969 
L 2906 3500 
L 3481 3500 
L 3481 434 
z
" transform="scale(0.015625)"/>
     </defs>
     <use xlink:href="#DejaVuSans-15a"/>
     <use xlink:href="#DejaVuSans-72" transform="translate(63.476562 0)"/>
     <use xlink:href="#DejaVuSans-65" transform="translate(102.339844 0)"/>
     <use xlink:href="#DejaVuSans-64" transform="translate(163.863281 0)"/>
     <use xlink:href="#DejaVuSans-6e" transform="translate(227.339844 0)"/>
     <use xlink:href="#DejaVuSans-69" transform="translate(290.71875 0)"/>
     <use xlink:href="#DejaVuSans-65" transform="translate(318.501953 0)"/>
     <use xlink:href="#DejaVuSans-20" transform="translate(380.025391 0)"/>
     <use xlink:href="#DejaVuSans-69" transform="translate(411.8125 0)"/>
     <use xlink:href="#DejaVuSans-20" transform="translate(439.595703 0)"/>
     <use xlink:href="#DejaVuSans-6e" transform="translate(471.382812 0)"/>
     <use xlink:href="#DejaVuSans-61" transform="translate(534.761719 0)"/>
     <use xlink:href="#DejaVuSans-6a" transform="translate(596.041016 0)"/>
     <use xlink:href="#DejaVuSans-6c" transform="translate(623.824219 0)"/>
     <use xlink:href="#DejaVuSans-65" transform="translate(651.607422 0)"/>
     <use xlink:href="#DejaVuSans-70" transform="translate(713.130859 0)"/>
     <use xlink:href="#DejaVuSans-73" transform="translate(776.607422 0)"/>
     <use xlink:href="#DejaVuSans-7a" transform="translate(828.707031 0)"/>
     <use xlink:href="#DejaVuSans-65" transform="translate(881.197266 0)"/>
     <use xlink:href="#DejaVuSans-20" transform="translate(942.720703 0)"/>
     <use xlink:href="#DejaVuSans-70" transform="translate(974.507812 0)"/>
     <use xlink:href="#DejaVuSans-72" transform="translate(1037.984375 0)"/>
     <use xlink:href="#DejaVuSans-7a" transform="translate(1079.097656 0)"/>
     <use xlink:href="#DejaVuSans-79" transform="translate(1131.587891 0)"/>
     <use xlink:href="#DejaVuSans-73" transform="translate(1190.767578 0)"/>
     <use xlink:href="#DejaVuSans-74" transform="translate(1242.867188 0)"/>
     <use xlink:href="#DejaVuSans-6f" transform="translate(1282.076172 0)"/>
     <use xlink:href="#DejaVuSans-73" transform="translate(1343.257812 0)"/>
     <use xlink:href="#DejaVuSans-6f" transform="translate(1395.357422 0)"/>
     <use xlink:href="#DejaVuSans-77" transform="translate(1456.539062 0)"/>
     <use xlink:href="#DejaVuSans-61" transform="translate(1538.326172 0)"/>
     <use xlink:href="#DejaVuSans-6e" transform="translate(1599.605469 0)"/>
     <use xlink:href="#DejaVuSans-69" transform="translate(1662.984375 0)"/>
     <use xlink:href="#DejaVuSans-65" transform="translate(1690.767578 0)"/>
     <use xlink:href="#DejaVuSans-20" transform="translate(1752.291016 0)"/>
     <use xlink:href="#DejaVuSans-77" transform="translate(1784.078125 0)"/>
     <use xlink:href="#DejaVuSans-20" transform="translate(1865.865234 0)"/>
     <use xlink:href="#DejaVuSans-6b" transform="translate(1897.652344 0)"/>
     <use xlink:href="#DejaVuSans-61" transform="translate(1953.8125 0)"/>
     <use xlink:href="#DejaVuSans-17c" transform="translate(2015.091797 0)"/>
     <use xlink:href="#DejaVuSans-64" transform="translate(2067.582031 0)"/>
     <use xlink:href="#DejaVuSans-65" transform="translate(2131.058594 0)"/>
     <use xlink:href="#DejaVuSans-6a" transform="translate(2192.582031 0)"/>
     <use xlink:href="#DejaVuSans-20" transform="translate(2220.365234 0)"/>
     <use xlink:href="#DejaVuSans-67" transform="translate(2252.152344 0)"/>
     <use xlink:href="#DejaVuSans-65" transform="translate(2315.628906 0)"/>
     <use xlink:href="#DejaVuSans-6e" transform="translate(2377.152344 0)"/>
     <use xlink:href="#DejaVuSans-65" transform="translate(2440.53125 0)"/>
     <use xlink:href="#DejaVuSans-72" transform="translate(2502.054688 0)"/>
     <use xlink:href="#DejaVuSans-61" transform="translate(2543.167969 0)"/>
     <use xlink:href="#DejaVuSans-63" transform="translate(2604.447266 0)"/>
     <use xlink:href="#DejaVuSans-6a" transform="translate(2659.427734 0)"/>
     <use xlink:href="#DejaVuSans-69" transform="translate(2687.210938 0)"/>
    </g>
   </g>
   <g id="legend_1">
    <g id="patch_7">
     <path d="M 279.790313 302.584 
L 407.72 302.584 
Q 409.72 302.584 409.72 300.584 
L 409.72 257.549625 
Q 409.72 255.549625 407.72 255.549625 
L 279.790313 255.549625 
Q 277.790313 255.549625 277.790313 257.549625 
L 277.790313 300.584 
Q 277.790313 302.584 279.790313 302.584 
z
" style="fill: #ffffff; opacity: 0.8; stroke: #cccccc; stroke-linejoin: miter"/>
    </g>
    <g id="line2d_24">
     <path d="M 281.790313 263.648062 
L 291.790313 263.648062 
L 301.790313 263.648062 
" style="fill: none; stroke: #0000ff; stroke-width: 1.5; stroke-linecap: square"/>
    </g>
    <g id="text_14">
     <!-- Średnia -->
     <g transform="translate(309.790313 267.148062) scale(0.1 -0.1)">
      <use xlink:href="#DejaVuSans-15a"/>
      <use xlink:href="#DejaVuSans-72" transform="translate(63.476562 0)"/>
      <use xlink:href="#DejaVuSans-65" transform="translate(102.339844 0)"/>
      <use xlink:href="#DejaVuSans-64" transform="translate(163.863281 0)"/>
      <use xlink:href="#DejaVuSans-6e" transform="translate(227.339844 0)"/>
      <use xlink:href="#DejaVuSans-69" transform="translate(290.71875 0)"/>
      <use xlink:href="#DejaVuSans-61" transform="translate(318.501953 0)"/>
     </g>
    </g>
    <g id="line2d_25">
     <path d="M 281.790313 278.326188 
L 291.790313 278.326188 
L 301.790313 278.326188 
" style="fill: none; stroke-dasharray: 9.6,2.4,1.5,2.4; stroke-dashoffset: 0; stroke: #008000; stroke-width: 1.5"/>
    </g>
    <g id="text_15">
     <!-- ±1 Odchylenie std. -->
     <g transform="translate(309.790313 281.826188) scale(0.1 -0.1)">
      <defs>
       <path id="DejaVuSans-b1" d="M 2944 4013 
L 2944 2803 
L 4684 2803 
L 4684 2272 
L 2944 2272 
L 2944 1063 
L 2419 1063 
L 2419 2272 
L 678 2272 
L 678 2803 
L 2419 2803 
L 2419 4013 
L 2944 4013 
z
M 678 531 
L 4684 531 
L 4684 0 
L 678 0 
L 678 531 
z
" transform="scale(0.015625)"/>
       <path id="DejaVuSans-4f" d="M 2522 4238 
Q 1834 4238 1429 3725 
Q 1025 3213 1025 2328 
Q 1025 1447 1429 934 
Q 1834 422 2522 422 
Q 3209 422 3611 934 
Q 4013 1447 4013 2328 
Q 4013 3213 3611 3725 
Q 3209 4238 2522 4238 
z
M 2522 4750 
Q 3503 4750 4090 4092 
Q 4678 3434 4678 2328 
Q 4678 1225 4090 567 
Q 3503 -91 2522 -91 
Q 1538 -91 948 565 
Q 359 1222 359 2328 
Q 359 3434 948 4092 
Q 1538 4750 2522 4750 
z
" transform="scale(0.015625)"/>
       <path id="DejaVuSans-68" d="M 3513 2113 
L 3513 0 
L 2938 0 
L 2938 2094 
Q 2938 2591 2744 2837 
Q 2550 3084 2163 3084 
Q 1697 3084 1428 2787 
Q 1159 2491 1159 1978 
L 1159 0 
L 581 0 
L 581 4863 
L 1159 4863 
L 1159 2956 
Q 1366 3272 1645 3428 
Q 1925 3584 2291 3584 
Q 2894 3584 3203 3211 
Q 3513 2838 3513 2113 
z
" transform="scale(0.015625)"/>
       <path id="DejaVuSans-2e" d="M 684 794 
L 1344 794 
L 1344 0 
L 684 0 
L 684 794 
z
" transform="scale(0.015625)"/>
      </defs>
      <use xlink:href="#DejaVuSans-b1"/>
      <use xlink:href="#DejaVuSans-31" transform="translate(83.789062 0)"/>
      <use xlink:href="#DejaVuSans-20" transform="translate(147.412109 0)"/>
      <use xlink:href="#DejaVuSans-4f" transform="translate(179.199219 0)"/>
      <use xlink:href="#DejaVuSans-64" transform="translate(257.910156 0)"/>
      <use xlink:href="#DejaVuSans-63" transform="translate(321.386719 0)"/>
      <use xlink:href="#DejaVuSans-68" transform="translate(376.367188 0)"/>
      <use xlink:href="#DejaVuSans-79" transform="translate(439.746094 0)"/>
      <use xlink:href="#DejaVuSans-6c" transform="translate(498.925781 0)"/>
      <use xlink:href="#DejaVuSans-65" transform="translate(526.708984 0)"/>
      <use xlink:href="#DejaVuSans-6e" transform="translate(588.232422 0)"/>
      <use xlink:href="#DejaVuSans-69" transform="translate(651.611328 0)"/>
      <use xlink:href="#DejaVuSans-65" transform="translate(679.394531 0)"/>
      <use xlink:href="#DejaVuSans-20" transform="translate(740.917969 0)"/>
      <use xlink:href="#DejaVuSans-73" transform="translate(772.705078 0)"/>
      <use xlink:href="#DejaVuSans-74" transform="translate(824.804688 0)"/>
      <use xlink:href="#DejaVuSans-64" transform="translate(864.013672 0)"/>
      <use xlink:href="#DejaVuSans-2e" transform="translate(927.490234 0)"/>
     </g>
    </g>
    <g id="line2d_26">
     <path d="M 281.790313 293.004312 
L 291.790313 293.004312 
L 301.790313 293.004312 
" style="fill: none; stroke: #ff0000; stroke-width: 1.5; stroke-linecap: square"/>
    </g>
    <g id="text_16">
     <!-- Najlepsze -->
     <g transform="translate(309.790313 296.504312) scale(0.1 -0.1)">
      <defs>
       <path id="DejaVuSans-4e" d="M 628 4666 
L 1478 4666 
L 3547 763 
L 3547 4666 
L 4159 4666 
L 4159 0 
L 3309 0 
L 1241 3903 
L 1241 0 
L 628 0 
L 628 4666 
z
" transform="scale(0.015625)"/>
      </defs>
      <use xlink:href="#DejaVuSans-4e"/>
      <use xlink:href="#DejaVuSans-61" transform="translate(74.804688 0)"/>
      <use xlink:href="#DejaVuSans-6a" transform="translate(136.083984 0)"/>
      <use xlink:href="#DejaVuSans-6c" transform="translate(163.867188 0)"/>
      <use xlink:href="#DejaVuSans-65" transform="translate(191.650391 0)"/>
      <use xlink:href="#DejaVuSans-70" transform="translate(253.173828 0)"/>
      <use xlink:href="#DejaVuSans-73" transform="translate(316.650391 0)"/>
      <use xlink:href="#DejaVuSans-7a" transform="translate(368.75 0)"/>
      <use xlink:href="#DejaVuSans-65" transform="translate(421.240234 0)"/>
     </g>
    </g>
   </g>
  </g>
 </g>
 <defs>
  <clipPath id="p07a5d34267">
   <rect x="57.6" y="41.472" width="357.12" height="266.112"/>
  </clipPath>
 </defs>
</svg>
