<?xml version="1.0" encoding="utf-8" standalone="no"?>
<!DOCTYPE svg PUBLIC "-//W3C//DTD SVG 1.1//EN"
  "http://www.w3.org/Graphics/SVG/1.1/DTD/svg11.dtd">
<svg xmlns:xlink="http://www.w3.org/1999/xlink" width="460.8pt" height="345.6pt" viewBox="0 0 460.8 345.6" xmlns="http://www.w3.org/2000/svg" version="1.1">
 <metadata>
  <rdf:RDF xmlns:dc="http://purl.org/dc/elements/1.1/" xmlns:cc="http://creativecommons.org/ns#" xmlns:rdf="http://www.w3.org/1999/02/22-rdf-syntax-ns#">
   <cc:Work>
    <dc:type rdf:resource="http://purl.org/dc/dcmitype/StillImage"/>
    <dc:date>2026-04-26T21:30:47.210037</dc:date>
    <dc:format>image/svg+xml</dc:format>
    <dc:creator>
     <cc:Agent>
      <dc:title>Matplotlib v3.10.8, https://matplotlib.org/</dc:title>
     </cc:Agent>
    </dc:creator>
   </cc:Work>
  </rdf:RDF>
 </metadata>
 <defs>
  <style type="text/css">*{stroke-linejoin: round; stroke-linecap: butt}</style>
 </defs>
 <g id="figure_1">
  <g id="patch_1">
   <path d="M 0 345.6 
L 460.8 345.6 
L 460.8 0 
L 0 0 
z
" style="fill: #ffffff"/>
  </g>
  <g id="axes_1">
   <g id="patch_2">
    <path d="M 57.6 307.584 
L 414.72 307.584 
L 414.72 41.472 
L 57.6 41.472 
z
" style="fill: #ffffff"/>
   </g>
   <g id="matplotlib.axis_1">
    <g id="xtick_1">
     <g id="line2d_1">
      <path d="M 72.201297 307.584 
L 72.201297 41.472 
" clip-path="url(#p748a223737)" style="fill: none; stroke: #b0b0b0; stroke-width: 0.8; stroke-linecap: square"/>
     </g>
     <g id="line2d_2">
      <defs>
       <path id="md66a6e6518" d="M 0 0 
L 0 3.5 
" style="stroke: #000000; stroke-width: 0.8"/>
      </defs>
      <g>
       <use xlink:href="#md66a6e6518" x="72.201297" y="307.584" style="stroke: #000000; stroke-width: 0.8"/>
      </g>
     </g>
     <g id="text_1">
      <!-- 0 -->
      <g transform="translate(69.020047 322.182437) scale(0.1 -0.1)">
       <defs>
        <path id="DejaVuSans-30" d="M 2034 4250 
Q 1547 4250 1301 3770 
Q 1056 3291 1056 2328 
Q 1056 1369 1301 889 
Q 1547 409 2034 409 
Q 2525 409 2770 889 
Q 3016 1369 3016 2328 
Q 3016 3291 2770 3770 
Q 2525 4250 2034 4250 
z
M 2034 4750 
Q 2819 4750 3233 4129 
Q 3647 3509 3647 2328 
Q 3647 1150 3233 529 
Q 2819 -91 2034 -91 
Q 1250 -91 836 529 
Q 422 1150 422 2328 
Q 422 3509 836 4129 
Q 1250 4750 2034 4750 
z
" transform="scale(0.015625)"/>
       </defs>
       <use xlink:href="#DejaVuSans-30"/>
      </g>
     </g>
    </g>
    <g id="xtick_2">
     <g id="line2d_3">
      <path d="M 112.987044 307.584 
L 112.987044 41.472 
" clip-path="url(#p748a223737)" style="fill: none; stroke: #b0b0b0; stroke-width: 0.8; stroke-linecap: square"/>
     </g>
     <g id="line2d_4">
      <g>
       <use xlink:href="#md66a6e6518" x="112.987044" y="307.584" style="stroke: #000000; stroke-width: 0.8"/>
      </g>
     </g>
     <g id="text_2">
      <!-- 25 -->
      <g transform="translate(106.624544 322.182437) scale(0.1 -0.1)">
       <defs>
        <path id="DejaVuSans-32" d="M 1228 531 
L 3431 531 
L 3431 0 
L 469 0 
L 469 531 
Q 828 903 1448 1529 
Q 2069 2156 2228 2338 
Q 2531 2678 2651 2914 
Q 2772 3150 2772 3378 
Q 2772 3750 2511 3984 
Q 2250 4219 1831 4219 
Q 1534 4219 1204 4116 
Q 875 4013 500 3803 
L 500 4441 
Q 881 4594 1212 4672 
Q 1544 4750 1819 4750 
Q 2544 4750 2975 4387 
Q 3406 4025 3406 3419 
Q 3406 3131 3298 2873 
Q 3191 2616 2906 2266 
Q 2828 2175 2409 1742 
Q 1991 1309 1228 531 
z
" transform="scale(0.015625)"/>
        <path id="DejaVuSans-35" d="M 691 4666 
L 3169 4666 
L 3169 4134 
L 1269 4134 
L 1269 2991 
Q 1406 3038 1543 3061 
Q 1681 3084 1819 3084 
Q 2600 3084 3056 2656 
Q 3513 2228 3513 1497 
Q 3513 744 3044 326 
Q 2575 -91 1722 -91 
Q 1428 -91 1123 -41 
Q 819 9 494 109 
L 494 744 
Q 775 591 1075 516 
Q 1375 441 1709 441 
Q 2250 441 2565 725 
Q 2881 1009 2881 1497 
Q 2881 1984 2565 2268 
Q 2250 2553 1709 2553 
Q 1456 2553 1204 2497 
Q 953 2441 691 2322 
L 691 4666 
z
" transform="scale(0.015625)"/>
       </defs>
       <use xlink:href="#DejaVuSans-32"/>
       <use xlink:href="#DejaVuSans-35" transform="translate(63.623047 0)"/>
      </g>
     </g>
    </g>
    <g id="xtick_3">
     <g id="line2d_5">
      <path d="M 153.772791 307.584 
L 153.772791 41.472 
" clip-path="url(#p748a223737)" style="fill: none; stroke: #b0b0b0; stroke-width: 0.8; stroke-linecap: square"/>
     </g>
     <g id="line2d_6">
      <g>
       <use xlink:href="#md66a6e6518" x="153.772791" y="307.584" style="stroke: #000000; stroke-width: 0.8"/>
      </g>
     </g>
     <g id="text_3">
      <!-- 50 -->
      <g transform="translate(147.410291 322.182437) scale(0.1 -0.1)">
       <use xlink:href="#DejaVuSans-35"/>
       <use xlink:href="#DejaVuSans-30" transform="translate(63.623047 0)"/>
      </g>
     </g>
    </g>
    <g id="xtick_4">
     <g id="line2d_7">
      <path d="M 194.558538 307.584 
L 194.558538 41.472 
" clip-path="url(#p748a223737)" style="fill: none; stroke: #b0b0b0; stroke-width: 0.8; stroke-linecap: square"/>
     </g>
     <g id="line2d_8">
      <g>
       <use xlink:href="#md66a6e6518" x="194.558538" y="307.584" style="stroke: #000000; stroke-width: 0.8"/>
      </g>
     </g>
     <g id="text_4">
      <!-- 75 -->
      <g transform="translate(188.196038 322.182437) scale(0.1 -0.1)">
       <defs>
        <path id="DejaVuSans-37" d="M 525 4666 
L 3525 4666 
L 3525 4397 
L 1831 0 
L 1172 0 
L 2766 4134 
L 525 4134 
L 525 4666 
z
" transform="scale(0.015625)"/>
       </defs>
       <use xlink:href="#DejaVuSans-37"/>
       <use xlink:href="#DejaVuSans-35" transform="translate(63.623047 0)"/>
      </g>
     </g>
    </g>
    <g id="xtick_5">
     <g id="line2d_9">
      <path d="M 235.344285 307.584 
L 235.344285 41.472 
" clip-path="url(#p748a223737)" style="fill: none; stroke: #b0b0b0; stroke-width: 0.8; stroke-linecap: square"/>
     </g>
     <g id="line2d_10">
      <g>
       <use xlink:href="#md66a6e6518" x="235.344285" y="307.584" style="stroke: #000000; stroke-width: 0.8"/>
      </g>
     </g>
     <g id="text_5">
      <!-- 100 -->
      <g transform="translate(225.800535 322.182437) scale(0.1 -0.1)">
       <defs>
        <path id="DejaVuSans-31" d="M 794 531 
L 1825 531 
L 1825 4091 
L 703 3866 
L 703 4441 
L 1819 4666 
L 2450 4666 
L 2450 531 
L 3481 531 
L 3481 0 
L 794 0 
L 794 531 
z
" transform="scale(0.015625)"/>
       </defs>
       <use xlink:href="#DejaVuSans-31"/>
       <use xlink:href="#DejaVuSans-30" transform="translate(63.623047 0)"/>
       <use xlink:href="#DejaVuSans-30" transform="translate(127.246094 0)"/>
      </g>
     </g>
    </g>
    <g id="xtick_6">
     <g id="line2d_11">
      <path d="M 276.130032 307.584 
L 276.130032 41.472 
" clip-path="url(#p748a223737)" style="fill: none; stroke: #b0b0b0; stroke-width: 0.8; stroke-linecap: square"/>
     </g>
     <g id="line2d_12">
      <g>
       <use xlink:href="#md66a6e6518" x="276.130032" y="307.584" style="stroke: #000000; stroke-width: 0.8"/>
      </g>
     </g>
     <g id="text_6">
      <!-- 125 -->
      <g transform="translate(266.586282 322.182437) scale(0.1 -0.1)">
       <use xlink:href="#DejaVuSans-31"/>
       <use xlink:href="#DejaVuSans-32" transform="translate(63.623047 0)"/>
       <use xlink:href="#DejaVuSans-35" transform="translate(127.246094 0)"/>
      </g>
     </g>
    </g>
    <g id="xtick_7">
     <g id="line2d_13">
      <path d="M 316.915779 307.584 
L 316.915779 41.472 
" clip-path="url(#p748a223737)" style="fill: none; stroke: #b0b0b0; stroke-width: 0.8; stroke-linecap: square"/>
     </g>
     <g id="line2d_14">
      <g>
       <use xlink:href="#md66a6e6518" x="316.915779" y="307.584" style="stroke: #000000; stroke-width: 0.8"/>
      </g>
     </g>
     <g id="text_7">
      <!-- 150 -->
      <g transform="translate(307.372029 322.182437) scale(0.1 -0.1)">
       <use xlink:href="#DejaVuSans-31"/>
       <use xlink:href="#DejaVuSans-35" transform="translate(63.623047 0)"/>
       <use xlink:href="#DejaVuSans-30" transform="translate(127.246094 0)"/>
      </g>
     </g>
    </g>
    <g id="xtick_8">
     <g id="line2d_15">
      <path d="M 357.701526 307.584 
L 357.701526 41.472 
" clip-path="url(#p748a223737)" style="fill: none; stroke: #b0b0b0; stroke-width: 0.8; stroke-linecap: square"/>
     </g>
     <g id="line2d_16">
      <g>
       <use xlink:href="#md66a6e6518" x="357.701526" y="307.584" style="stroke: #000000; stroke-width: 0.8"/>
      </g>
     </g>
     <g id="text_8">
      <!-- 175 -->
      <g transform="translate(348.157776 322.182437) scale(0.1 -0.1)">
       <use xlink:href="#DejaVuSans-31"/>
       <use xlink:href="#DejaVuSans-37" transform="translate(63.623047 0)"/>
       <use xlink:href="#DejaVuSans-35" transform="translate(127.246094 0)"/>
      </g>
     </g>
    </g>
    <g id="xtick_9">
     <g id="line2d_17">
      <path d="M 398.487273 307.584 
L 398.487273 41.472 
" clip-path="url(#p748a223737)" style="fill: none; stroke: #b0b0b0; stroke-width: 0.8; stroke-linecap: square"/>
     </g>
     <g id="line2d_18">
      <g>
       <use xlink:href="#md66a6e6518" x="398.487273" y="307.584" style="stroke: #000000; stroke-width: 0.8"/>
      </g>
     </g>
     <g id="text_9">
      <!-- 200 -->
      <g transform="translate(388.943523 322.182437) scale(0.1 -0.1)">
       <use xlink:href="#DejaVuSans-32"/>
       <use xlink:href="#DejaVuSans-30" transform="translate(63.623047 0)"/>
       <use xlink:href="#DejaVuSans-30" transform="translate(127.246094 0)"/>
      </g>
     </g>
    </g>
    <g id="text_10">
     <!-- Generacje -->
     <g transform="translate(210.629531 335.860562) scale(0.1 -0.1)">
      <defs>
       <path id="DejaVuSans-47" d="M 3809 666 
L 3809 1919 
L 2778 1919 
L 2778 2438 
L 4434 2438 
L 4434 434 
Q 4069 175 3628 42 
Q 3188 -91 2688 -91 
Q 1594 -91 976 548 
Q 359 1188 359 2328 
Q 359 3472 976 4111 
Q 1594 4750 2688 4750 
Q 3144 4750 3555 4637 
Q 3966 4525 4313 4306 
L 4313 3634 
Q 3963 3931 3569 4081 
Q 3175 4231 2741 4231 
Q 1884 4231 1454 3753 
Q 1025 3275 1025 2328 
Q 1025 1384 1454 906 
Q 1884 428 2741 428 
Q 3075 428 3337 486 
Q 3600 544 3809 666 
z
" transform="scale(0.015625)"/>
       <path id="DejaVuSans-65" d="M 3597 1894 
L 3597 1613 
L 953 1613 
Q 991 1019 1311 708 
Q 1631 397 2203 397 
Q 2534 397 2845 478 
Q 3156 559 3463 722 
L 3463 178 
Q 3153 47 2828 -22 
Q 2503 -91 2169 -91 
Q 1331 -91 842 396 
Q 353 884 353 1716 
Q 353 2575 817 3079 
Q 1281 3584 2069 3584 
Q 2775 3584 3186 3129 
Q 3597 2675 3597 1894 
z
M 3022 2063 
Q 3016 2534 2758 2815 
Q 2500 3097 2075 3097 
Q 1594 3097 1305 2825 
Q 1016 2553 972 2059 
L 3022 2063 
z
" transform="scale(0.015625)"/>
       <path id="DejaVuSans-6e" d="M 3513 2113 
L 3513 0 
L 2938 0 
L 2938 2094 
Q 2938 2591 2744 2837 
Q 2550 3084 2163 3084 
Q 1697 3084 1428 2787 
Q 1159 2491 1159 1978 
L 1159 0 
L 581 0 
L 581 3500 
L 1159 3500 
L 1159 2956 
Q 1366 3272 1645 3428 
Q 1925 3584 2291 3584 
Q 2894 3584 3203 3211 
Q 3513 2838 3513 2113 
z
" transform="scale(0.015625)"/>
       <path id="DejaVuSans-72" d="M 2631 2963 
Q 2534 3019 2420 3045 
Q 2306 3072 2169 3072 
Q 1681 3072 1420 2755 
Q 1159 2438 1159 1844 
L 1159 0 
L 581 0 
L 581 3500 
L 1159 3500 
L 1159 2956 
Q 1341 3275 1631 3429 
Q 1922 3584 2338 3584 
Q 2397 3584 2469 3576 
Q 2541 3569 2628 3553 
L 2631 2963 
z
" transform="scale(0.015625)"/>
       <path id="DejaVuSans-61" d="M 2194 1759 
Q 1497 1759 1228 1600 
Q 959 1441 959 1056 
Q 959 750 1161 570 
Q 1363 391 1709 391 
Q 2188 391 2477 730 
Q 2766 1069 2766 1631 
L 2766 1759 
L 2194 1759 
z
M 3341 1997 
L 3341 0 
L 2766 0 
L 2766 531 
Q 2569 213 2275 61 
Q 1981 -91 1556 -91 
Q 1019 -91 701 211 
Q 384 513 384 1019 
Q 384 1609 779 1909 
Q 1175 2209 1959 2209 
L 2766 2209 
L 2766 2266 
Q 2766 2663 2505 2880 
Q 2244 3097 1772 3097 
Q 1472 3097 1187 3025 
Q 903 2953 641 2809 
L 641 3341 
Q 956 3463 1253 3523 
Q 1550 3584 1831 3584 
Q 2591 3584 2966 3190 
Q 3341 2797 3341 1997 
z
" transform="scale(0.015625)"/>
       <path id="DejaVuSans-63" d="M 3122 3366 
L 3122 2828 
Q 2878 2963 2633 3030 
Q 2388 3097 2138 3097 
Q 1578 3097 1268 2742 
Q 959 2388 959 1747 
Q 959 1106 1268 751 
Q 1578 397 2138 397 
Q 2388 397 2633 464 
Q 2878 531 3122 666 
L 3122 134 
Q 2881 22 2623 -34 
Q 2366 -91 2075 -91 
Q 1284 -91 818 406 
Q 353 903 353 1747 
Q 353 2603 823 3093 
Q 1294 3584 2113 3584 
Q 2378 3584 2631 3529 
Q 2884 3475 3122 3366 
z
" transform="scale(0.015625)"/>
       <path id="DejaVuSans-6a" d="M 603 3500 
L 1178 3500 
L 1178 -63 
Q 1178 -731 923 -1031 
Q 669 -1331 103 -1331 
L -116 -1331 
L -116 -844 
L 38 -844 
Q 366 -844 484 -692 
Q 603 -541 603 -63 
L 603 3500 
z
M 603 4863 
L 1178 4863 
L 1178 4134 
L 603 4134 
L 603 4863 
z
" transform="scale(0.015625)"/>
      </defs>
      <use xlink:href="#DejaVuSans-47"/>
      <use xlink:href="#DejaVuSans-65" transform="translate(77.490234 0)"/>
      <use xlink:href="#DejaVuSans-6e" transform="translate(139.013672 0)"/>
      <use xlink:href="#DejaVuSans-65" transform="translate(202.392578 0)"/>
      <use xlink:href="#DejaVuSans-72" transform="translate(263.916016 0)"/>
      <use xlink:href="#DejaVuSans-61" transform="translate(305.029297 0)"/>
      <use xlink:href="#DejaVuSans-63" transform="translate(366.308594 0)"/>
      <use xlink:href="#DejaVuSans-6a" transform="translate(421.289062 0)"/>
      <use xlink:href="#DejaVuSans-65" transform="translate(449.072266 0)"/>
     </g>
    </g>
   </g>
   <g id="matplotlib.axis_2">
    <g id="ytick_1">
     <g id="line2d_19">
      <path d="M 57.6 146.833439 
L 414.72 146.833439 
" clip-path="url(#p748a223737)" style="fill: none; stroke: #b0b0b0; stroke-width: 0.8; stroke-linecap: square"/>
     </g>
     <g id="line2d_20">
      <defs>
       <path id="mf9b66fcb1b" d="M 0 0 
L -3.5 0 
" style="stroke: #000000; stroke-width: 0.8"/>
      </defs>
      <g>
       <use xlink:href="#mf9b66fcb1b" x="57.6" y="146.833439" style="stroke: #000000; stroke-width: 0.8"/>
      </g>
     </g>
     <g id="text_11">
      <!-- $\mathdefault{10^{2}}$ -->
      <g transform="translate(33 150.632658) scale(0.1 -0.1)">
       <use xlink:href="#DejaVuSans-31" transform="translate(0 0.765625)"/>
       <use xlink:href="#DejaVuSans-30" transform="translate(63.623047 0.765625)"/>
       <use xlink:href="#DejaVuSans-32" transform="translate(128.203125 39.046875) scale(0.7)"/>
      </g>
     </g>
    </g>
    <g id="text_12">
     <!-- Przystosowanie -->
     <g transform="translate(26.920312 213.170187) rotate(-90) scale(0.1 -0.1)">
      <defs>
       <path id="DejaVuSans-50" d="M 1259 4147 
L 1259 2394 
L 2053 2394 
Q 2494 2394 2734 2622 
Q 2975 2850 2975 3272 
Q 2975 3691 2734 3919 
Q 2494 4147 2053 4147 
L 1259 4147 
z
M 628 4666 
L 2053 4666 
Q 2838 4666 3239 4311 
Q 3641 3956 3641 3272 
Q 3641 2581 3239 2228 
Q 2838 1875 2053 1875 
L 1259 1875 
L 1259 0 
L 628 0 
L 628 4666 
z
" transform="scale(0.015625)"/>
       <path id="DejaVuSans-7a" d="M 353 3500 
L 3084 3500 
L 3084 2975 
L 922 459 
L 3084 459 
L 3084 0 
L 275 0 
L 275 525 
L 2438 3041 
L 353 3041 
L 353 3500 
z
" transform="scale(0.015625)"/>
       <path id="DejaVuSans-79" d="M 2059 -325 
Q 1816 -950 1584 -1140 
Q 1353 -1331 966 -1331 
L 506 -1331 
L 506 -850 
L 844 -850 
Q 1081 -850 1212 -737 
Q 1344 -625 1503 -206 
L 1606 56 
L 191 3500 
L 800 3500 
L 1894 763 
L 2988 3500 
L 3597 3500 
L 2059 -325 
z
" transform="scale(0.015625)"/>
       <path id="DejaVuSans-73" d="M 2834 3397 
L 2834 2853 
Q 2591 2978 2328 3040 
Q 2066 3103 1784 3103 
Q 1356 3103 1142 2972 
Q 928 2841 928 2578 
Q 928 2378 1081 2264 
Q 1234 2150 1697 2047 
L 1894 2003 
Q 2506 1872 2764 1633 
Q 3022 1394 3022 966 
Q 3022 478 2636 193 
Q 2250 -91 1575 -91 
Q 1294 -91 989 -36 
Q 684 19 347 128 
L 347 722 
Q 666 556 975 473 
Q 1284 391 1588 391 
Q 1994 391 2212 530 
Q 2431 669 2431 922 
Q 2431 1156 2273 1281 
Q 2116 1406 1581 1522 
L 1381 1569 
Q 847 1681 609 1914 
Q 372 2147 372 2553 
Q 372 3047 722 3315 
Q 1072 3584 1716 3584 
Q 2034 3584 2315 3537 
Q 2597 3491 2834 3397 
z
" transform="scale(0.015625)"/>
       <path id="DejaVuSans-74" d="M 1172 4494 
L 1172 3500 
L 2356 3500 
L 2356 3053 
L 1172 3053 
L 1172 1153 
Q 1172 725 1289 603 
Q 1406 481 1766 481 
L 2356 481 
L 2356 0 
L 1766 0 
Q 1100 0 847 248 
Q 594 497 594 1153 
L 594 3053 
L 172 3053 
L 172 3500 
L 594 3500 
L 594 4494 
L 1172 4494 
z
" transform="scale(0.015625)"/>
       <path id="DejaVuSans-6f" d="M 1959 3097 
Q 1497 3097 1228 2736 
Q 959 2375 959 1747 
Q 959 1119 1226 758 
Q 1494 397 1959 397 
Q 2419 397 2687 759 
Q 2956 1122 2956 1747 
Q 2956 2369 2687 2733 
Q 2419 3097 1959 3097 
z
M 1959 3584 
Q 2709 3584 3137 3096 
Q 3566 2609 3566 1747 
Q 3566 888 3137 398 
Q 2709 -91 1959 -91 
Q 1206 -91 779 398 
Q 353 888 353 1747 
Q 353 2609 779 3096 
Q 1206 3584 1959 3584 
z
" transform="scale(0.015625)"/>
       <path id="DejaVuSans-77" d="M 269 3500 
L 844 3500 
L 1563 769 
L 2278 3500 
L 2956 3500 
L 3675 769 
L 4391 3500 
L 4966 3500 
L 4050 0 
L 3372 0 
L 2619 2869 
L 1863 0 
L 1184 0 
L 269 3500 
z
" transform="scale(0.015625)"/>
       <path id="DejaVuSans-69" d="M 603 3500 
L 1178 3500 
L 1178 0 
L 603 0 
L 603 3500 
z
M 603 4863 
L 1178 4863 
L 1178 4134 
L 603 4134 
L 603 4863 
z
" transform="scale(0.015625)"/>
      </defs>
      <use xlink:href="#DejaVuSans-50"/>
      <use xlink:href="#DejaVuSans-72" transform="translate(58.552734 0)"/>
      <use xlink:href="#DejaVuSans-7a" transform="translate(99.666016 0)"/>
      <use xlink:href="#DejaVuSans-79" transform="translate(152.15625 0)"/>
      <use xlink:href="#DejaVuSans-73" transform="translate(211.335938 0)"/>
      <use xlink:href="#DejaVuSans-74" transform="translate(263.435547 0)"/>
      <use xlink:href="#DejaVuSans-6f" transform="translate(302.644531 0)"/>
      <use xlink:href="#DejaVuSans-73" transform="translate(363.826172 0)"/>
      <use xlink:href="#DejaVuSans-6f" transform="translate(415.925781 0)"/>
      <use xlink:href="#DejaVuSans-77" transform="translate(477.107422 0)"/>
      <use xlink:href="#DejaVuSans-61" transform="translate(558.894531 0)"/>
      <use xlink:href="#DejaVuSans-6e" transform="translate(620.173828 0)"/>
      <use xlink:href="#DejaVuSans-69" transform="translate(683.552734 0)"/>
      <use xlink:href="#DejaVuSans-65" transform="translate(711.335938 0)"/>
     </g>
    </g>
   </g>
   <g id="line2d_21">
    <path d="M 73.832727 295.488 
L 75.464157 247.561972 
L 77.095587 204.0968 
L 78.727017 190.572793 
L 80.358447 179.78073 
L 81.989877 179.205612 
L 83.621307 179.031387 
L 85.252736 177.347169 
L 86.884166 177.474391 
L 88.515596 172.836326 
L 90.147026 173.703952 
L 91.778456 172.647993 
L 93.409886 173.472063 
L 95.041316 171.75182 
L 98.304175 171.249874 
L 99.935605 171.242433 
L 101.567035 172.851026 
L 103.198465 170.468738 
L 104.829895 174.901062 
L 106.461325 172.06826 
L 108.092755 174.656012 
L 109.724185 173.442871 
L 111.355614 170.159791 
L 112.987044 171.145094 
L 114.618474 170.203734 
L 116.249904 168.342235 
L 117.881334 171.35549 
L 119.512764 169.245819 
L 121.144194 169.628315 
L 122.775624 168.834483 
L 124.407053 169.475002 
L 126.038483 167.696378 
L 127.669913 167.296323 
L 129.301343 167.243713 
L 130.932773 169.932767 
L 132.564203 168.92014 
L 134.195633 169.761849 
L 135.827063 167.334893 
L 137.458492 169.302184 
L 139.089922 166.432542 
L 140.721352 168.474013 
L 142.352782 167.225774 
L 143.984212 167.660057 
L 145.615642 168.499396 
L 147.247072 167.516283 
L 148.878502 167.016333 
L 150.509931 167.252207 
L 152.141361 168.466733 
L 153.772791 168.020661 
L 155.404221 168.064947 
L 157.035651 166.462338 
L 158.667081 167.701605 
L 160.298511 170.820897 
L 161.929941 170.04984 
L 163.56137 167.749974 
L 165.1928 168.177986 
L 166.82423 170.411236 
L 168.45566 170.998282 
L 170.08709 168.388599 
L 171.71852 169.994174 
L 173.34995 169.619597 
L 174.98138 167.513615 
L 176.61281 171.131188 
L 178.244239 167.816507 
L 179.875669 170.217604 
L 181.507099 169.176665 
L 183.138529 169.299902 
L 184.769959 166.841029 
L 186.401389 168.790398 
L 188.032819 169.08701 
L 189.664249 168.274413 
L 191.295678 169.236756 
L 192.927108 168.12888 
L 194.558538 167.681018 
L 196.189968 169.369337 
L 197.821398 168.93287 
L 199.452828 167.339117 
L 201.084258 168.630567 
L 204.347117 168.629364 
L 205.978547 168.189233 
L 207.609977 169.259533 
L 209.241407 169.439698 
L 210.872837 167.445028 
L 212.504267 167.103581 
L 214.135697 169.169366 
L 215.767127 169.326335 
L 217.398556 171.263125 
L 219.029986 170.059998 
L 220.661416 167.233774 
L 223.924276 168.852941 
L 225.555706 168.604207 
L 227.187136 169.72168 
L 228.818566 169.004289 
L 230.449995 169.631537 
L 232.081425 169.500306 
L 233.712855 168.840588 
L 235.344285 170.010598 
L 236.975715 168.999459 
L 238.607145 169.25146 
L 240.238575 168.324109 
L 241.870005 170.104255 
L 245.132864 169.301721 
L 246.764294 168.59786 
L 248.395724 168.802843 
L 250.027154 168.535003 
L 251.658584 170.430849 
L 254.921444 169.512075 
L 256.552873 168.777893 
L 258.184303 172.4276 
L 259.815733 174.552798 
L 261.447163 171.311598 
L 263.078593 170.279421 
L 264.710023 168.594873 
L 266.341453 172.165421 
L 267.972883 168.267246 
L 269.604312 167.210637 
L 271.235742 171.414314 
L 272.867172 170.392524 
L 274.498602 166.39426 
L 276.130032 171.008342 
L 277.761462 169.912774 
L 279.392892 169.611627 
L 281.024322 169.123991 
L 282.655751 166.310726 
L 284.287181 170.216188 
L 285.918611 168.840264 
L 287.550041 170.402063 
L 289.181471 168.676404 
L 290.812901 168.632003 
L 292.444331 167.899329 
L 294.075761 170.267715 
L 295.70719 168.365964 
L 297.33862 170.534311 
L 298.97005 169.877237 
L 302.23291 170.984656 
L 303.86434 169.075308 
L 305.49577 170.021967 
L 307.1272 168.567157 
L 308.75863 173.011704 
L 310.390059 170.639653 
L 312.021489 170.217479 
L 313.652919 169.603386 
L 315.284349 168.814117 
L 316.915779 166.509709 
L 318.547209 168.990772 
L 320.178639 169.265103 
L 321.810069 167.318785 
L 323.441498 169.147827 
L 325.072928 168.268462 
L 326.704358 170.421167 
L 328.335788 168.37313 
L 329.967218 169.491749 
L 331.598648 171.377222 
L 333.230078 168.098712 
L 334.861508 169.625946 
L 336.492937 169.066474 
L 338.124367 167.878359 
L 339.755797 168.037718 
L 343.018657 169.583508 
L 344.650087 168.606604 
L 346.281517 170.872581 
L 347.912947 170.182779 
L 349.544376 169.006867 
L 351.175806 169.090147 
L 352.807236 168.175176 
L 354.438666 169.166591 
L 356.070096 169.838513 
L 357.701526 167.895402 
L 359.332956 169.307912 
L 360.964386 168.841165 
L 362.595815 168.673678 
L 364.227245 168.056819 
L 365.858675 169.948524 
L 367.490105 169.278817 
L 369.121535 168.892286 
L 370.752965 168.027757 
L 372.384395 173.214532 
L 374.015825 168.464213 
L 375.647254 170.124465 
L 377.278684 169.603057 
L 378.910114 170.348747 
L 380.541544 169.869488 
L 382.172974 167.467958 
L 383.804404 167.96896 
L 385.435834 169.418744 
L 387.067264 169.053058 
L 388.698693 168.539907 
L 390.330123 169.015983 
L 391.961553 167.851953 
L 393.592983 169.482458 
L 395.224413 168.500001 
L 396.855843 169.034701 
L 398.487273 170.275585 
L 398.487273 170.275585 
" clip-path="url(#p748a223737)" style="fill: none; stroke: #0000ff; stroke-width: 1.5; stroke-linecap: square"/>
   </g>
   <g id="line2d_22">
    <path d="M 73.832727 249.982562 
L 75.464157 198.190852 
L 77.095587 166.241281 
L 78.727017 160.476299 
L 80.358447 153.922354 
L 81.989877 156.666235 
L 83.621307 152.498217 
L 85.252736 151.209876 
L 86.884166 152.717573 
L 88.515596 151.352969 
L 90.147026 152.725318 
L 91.778456 150.978026 
L 93.409886 153.199746 
L 95.041316 150.328802 
L 96.672746 150.928806 
L 98.304175 149.053726 
L 99.935605 150.569274 
L 101.567035 150.310879 
L 103.198465 147.144917 
L 104.829895 152.77574 
L 106.461325 151.046891 
L 108.092755 152.648206 
L 109.724185 150.989406 
L 111.355614 150.440613 
L 112.987044 151.995979 
L 114.618474 149.926659 
L 116.249904 149.000105 
L 117.881334 152.191752 
L 119.512764 150.002109 
L 121.144194 151.51154 
L 122.775624 149.926973 
L 124.407053 151.776312 
L 126.038483 148.005657 
L 127.669913 147.217399 
L 129.301343 146.220505 
L 130.932773 150.372471 
L 132.564203 150.051052 
L 134.195633 151.024912 
L 135.827063 150.594431 
L 137.458492 149.648736 
L 139.089922 149.137371 
L 140.721352 148.49163 
L 142.352782 146.513788 
L 143.984212 148.611409 
L 145.615642 150.07021 
L 147.247072 149.552867 
L 148.878502 148.347115 
L 150.509931 148.715385 
L 152.141361 150.338343 
L 153.772791 149.874599 
L 155.404221 148.90199 
L 157.035651 147.565625 
L 158.667081 149.887881 
L 160.298511 151.459822 
L 161.929941 150.442495 
L 163.56137 148.771834 
L 165.1928 148.462001 
L 166.82423 152.556497 
L 168.45566 151.067314 
L 170.08709 151.429363 
L 171.71852 150.382145 
L 173.34995 151.948408 
L 174.98138 148.029538 
L 176.61281 153.047916 
L 178.244239 147.360146 
L 179.875669 149.669444 
L 181.507099 149.010951 
L 183.138529 151.763912 
L 184.769959 148.152045 
L 186.401389 150.190749 
L 189.664249 149.309353 
L 191.295678 149.637488 
L 192.927108 148.05727 
L 194.558538 148.630155 
L 197.821398 150.516694 
L 199.452828 148.478493 
L 201.084258 149.476296 
L 202.715688 148.152995 
L 204.347117 150.568372 
L 205.978547 149.724983 
L 207.609977 151.176041 
L 209.241407 151.605722 
L 210.872837 149.048777 
L 212.504267 146.923219 
L 214.135697 151.012317 
L 215.767127 152.348822 
L 217.398556 154.075236 
L 220.661416 148.938151 
L 222.292846 150.998602 
L 223.924276 151.143239 
L 225.555706 151.548219 
L 227.187136 151.399243 
L 228.818566 151.882602 
L 230.449995 151.634564 
L 232.081425 150.263444 
L 233.712855 150.868387 
L 235.344285 152.551524 
L 236.975715 152.188639 
L 238.607145 149.621352 
L 240.238575 149.965325 
L 241.870005 152.115852 
L 243.501434 151.965591 
L 245.132864 150.048355 
L 246.764294 149.22968 
L 248.395724 150.531614 
L 250.027154 150.090542 
L 251.658584 153.785406 
L 253.290014 152.336103 
L 254.921444 149.901973 
L 256.552873 149.061082 
L 258.184303 150.951595 
L 259.815733 149.663838 
L 261.447163 151.905346 
L 264.710023 150.589379 
L 266.341453 155.721615 
L 267.972883 150.52048 
L 269.604312 147.119405 
L 271.235742 153.602676 
L 272.867172 151.490631 
L 274.498602 146.183279 
L 276.130032 152.970224 
L 277.761462 150.046415 
L 279.392892 149.912471 
L 281.024322 151.598123 
L 282.655751 146.983453 
L 284.287181 152.406345 
L 285.918611 148.239313 
L 287.550041 152.035054 
L 289.181471 147.758529 
L 290.812901 149.654184 
L 292.444331 148.732303 
L 294.075761 153.033388 
L 295.70719 149.931127 
L 297.33862 152.61907 
L 298.97005 150.560864 
L 300.60148 150.640371 
L 302.23291 153.016293 
L 303.86434 149.563203 
L 305.49577 150.701934 
L 307.1272 147.864557 
L 308.75863 152.698856 
L 310.390059 152.205789 
L 312.021489 150.691633 
L 313.652919 149.408812 
L 315.284349 149.847737 
L 316.915779 148.857476 
L 318.547209 151.711782 
L 320.178639 150.452078 
L 321.810069 148.918531 
L 323.441498 152.412503 
L 325.072928 148.918018 
L 326.704358 151.421405 
L 328.335788 150.523087 
L 329.967218 152.556253 
L 331.598648 153.865543 
L 333.230078 149.661905 
L 334.861508 151.877816 
L 336.492937 151.754682 
L 338.124367 150.406054 
L 339.755797 150.415566 
L 341.387227 151.42444 
L 343.018657 150.81266 
L 344.650087 149.795588 
L 346.281517 151.971571 
L 347.912947 152.053573 
L 349.544376 150.584201 
L 351.175806 152.283837 
L 352.807236 150.30248 
L 354.438666 151.080682 
L 356.070096 149.507989 
L 357.701526 150.332805 
L 359.332956 153.610234 
L 360.964386 148.779186 
L 362.595815 150.427232 
L 364.227245 150.268607 
L 365.858675 151.627708 
L 367.490105 150.19287 
L 369.121535 146.866261 
L 370.752965 150.295151 
L 372.384395 158.184569 
L 374.015825 150.141484 
L 375.647254 152.253051 
L 377.278684 152.022615 
L 378.910114 151.970481 
L 380.541544 152.211118 
L 382.172974 149.371834 
L 383.804404 149.9226 
L 385.435834 152.959616 
L 387.067264 151.763433 
L 388.698693 151.078377 
L 390.330123 149.933803 
L 391.961553 149.605071 
L 393.592983 153.173104 
L 395.224413 149.508911 
L 396.855843 150.39335 
L 398.487273 152.660509 
L 398.487273 152.660509 
" clip-path="url(#p748a223737)" style="fill: none; stroke-dasharray: 9.6,2.4,1.5,2.4; stroke-dashoffset: 0; stroke: #008000; stroke-width: 1.5"/>
   </g>
   <g id="line2d_23">
    <path d="M 73.832727 150.740591 
L 75.464157 117.195511 
L 77.095587 117.289665 
L 78.727017 118.009308 
L 80.358447 106.662013 
L 81.989877 117.298677 
L 83.621307 103.242224 
L 85.252736 106.669265 
L 86.884166 103.371393 
L 88.515596 103.255079 
L 90.147026 87.820781 
L 91.778456 106.757412 
L 93.409886 121.31161 
L 95.041316 117.011892 
L 96.672746 97.101333 
L 98.304175 99.703894 
L 99.935605 113.666188 
L 101.567035 113.932232 
L 103.198465 110.1573 
L 104.829895 110.159629 
L 106.461325 121.106248 
L 108.092755 109.841388 
L 111.355614 103.506716 
L 112.987044 106.798566 
L 114.618474 106.871461 
L 116.249904 106.627534 
L 117.881334 88.331132 
L 119.512764 107.006162 
L 121.144194 100.634142 
L 122.775624 117.180295 
L 124.407053 113.905358 
L 126.038483 100.00926 
L 127.669913 91.020018 
L 129.301343 97.129404 
L 130.932773 124.911656 
L 132.564203 101.105867 
L 134.195633 121.285541 
L 135.827063 121.471435 
L 137.458492 106.476926 
L 139.089922 117.667184 
L 140.721352 96.919337 
L 142.352782 97.032017 
L 143.984212 106.926042 
L 145.615642 93.639761 
L 147.247072 96.665767 
L 148.878502 117.369588 
L 150.509931 113.901193 
L 152.141361 103.549214 
L 153.772791 113.383179 
L 155.404221 113.89098 
L 157.035651 117.308855 
L 158.667081 107.018083 
L 160.298511 117.191869 
L 161.929941 113.907074 
L 163.56137 99.924178 
L 165.1928 84.722024 
L 166.82423 132.879527 
L 168.45566 121.139973 
L 170.08709 120.626019 
L 171.71852 99.724986 
L 173.34995 100.186732 
L 174.98138 106.406275 
L 176.61281 110.332115 
L 178.244239 97.281899 
L 179.875669 93.825336 
L 181.507099 97.186566 
L 183.138529 113.489468 
L 184.769959 106.858202 
L 186.401389 110.160867 
L 188.032819 124.957913 
L 189.664249 107.233778 
L 191.295678 93.790551 
L 194.558538 106.934468 
L 196.189968 110.364774 
L 197.821398 109.908939 
L 199.452828 53.568 
L 201.084258 113.845737 
L 202.715688 96.891706 
L 204.347117 107.174215 
L 205.978547 106.606259 
L 207.609977 117.798575 
L 209.241407 103.32805 
L 210.872837 106.654646 
L 212.504267 74.045198 
L 214.135697 106.680597 
L 215.767127 114.302458 
L 217.398556 120.958196 
L 219.029986 103.411814 
L 220.661416 113.598374 
L 222.292846 110.364697 
L 223.924276 114.01314 
L 225.555706 113.851221 
L 227.187136 100.117994 
L 228.818566 103.52023 
L 230.449995 113.712765 
L 232.081425 121.19655 
L 233.712855 96.943921 
L 235.344285 117.285875 
L 236.975715 110.417261 
L 238.607145 96.790356 
L 241.870005 117.413065 
L 243.501434 100.354596 
L 245.132864 87.969185 
L 246.764294 120.820778 
L 248.395724 103.202906 
L 250.027154 106.712419 
L 251.658584 113.841541 
L 253.290014 96.622082 
L 254.921444 117.53301 
L 256.552873 113.807382 
L 258.184303 113.786184 
L 259.815733 103.296896 
L 261.447163 118.171242 
L 263.078593 113.711047 
L 264.710023 84.429344 
L 266.341453 129.109221 
L 267.972883 113.561417 
L 269.604312 96.680636 
L 271.235742 109.801456 
L 272.867172 84.680007 
L 274.498602 87.62158 
L 276.130032 121.621581 
L 277.761462 84.595048 
L 279.392892 94.370961 
L 281.024322 103.468732 
L 282.655751 113.887071 
L 284.287181 88.17934 
L 285.918611 100.501116 
L 287.550041 117.383637 
L 289.181471 93.832784 
L 290.812901 110.43664 
L 292.444331 120.870465 
L 294.075761 113.511609 
L 295.70719 110.071278 
L 297.33862 100.276442 
L 298.97005 110.034983 
L 300.60148 124.834649 
L 302.23291 113.946624 
L 303.86434 97.003782 
L 305.49577 100.132462 
L 307.1272 100.071321 
L 308.75863 110.328683 
L 310.390059 113.849582 
L 312.021489 102.869514 
L 313.652919 103.608865 
L 315.284349 96.516463 
L 316.915779 113.624409 
L 318.547209 103.22489 
L 320.178639 100.260123 
L 321.810069 110.075101 
L 323.441498 110.297099 
L 325.072928 103.576509 
L 326.704358 103.869451 
L 328.335788 117.337584 
L 329.967218 114.249312 
L 331.598648 121.076845 
L 333.230078 113.754756 
L 334.861508 110.418259 
L 336.492937 124.40098 
L 338.124367 117.333342 
L 339.755797 106.874714 
L 341.387227 117.684345 
L 343.018657 113.7761 
L 344.650087 96.967595 
L 346.281517 103.217155 
L 347.912947 114.034513 
L 349.544376 121.448231 
L 351.175806 100.02012 
L 352.807236 113.945936 
L 354.438666 110.298493 
L 356.070096 110.29987 
L 357.701526 100.24552 
L 359.332956 121.270262 
L 360.964386 100.219603 
L 362.595815 110.372375 
L 364.227245 106.368279 
L 365.858675 97.228336 
L 367.490105 100.430691 
L 369.121535 90.635163 
L 370.752965 94.484965 
L 372.384395 113.789712 
L 374.015825 107.632634 
L 375.647254 117.529197 
L 377.278684 113.984304 
L 378.910114 117.573684 
L 380.541544 110.742301 
L 382.172974 113.382878 
L 383.804404 113.217469 
L 385.435834 107.325604 
L 387.067264 107.137734 
L 388.698693 106.788704 
L 390.330123 110.365511 
L 391.961553 103.462704 
L 393.592983 117.404841 
L 395.224413 96.637477 
L 396.855843 100.14679 
L 398.487273 106.96862 
L 398.487273 106.96862 
" clip-path="url(#p748a223737)" style="fill: none; stroke: #ff0000; stroke-width: 1.5; stroke-linecap: square"/>
   </g>
   <g id="patch_3">
    <path d="M 57.6 307.584 
L 57.6 41.472 
" style="fill: none; stroke: #000000; stroke-width: 0.8; stroke-linejoin: miter; stroke-linecap: square"/>
   </g>
   <g id="patch_4">
    <path d="M 414.72 307.584 
L 414.72 41.472 
" style="fill: none; stroke: #000000; stroke-width: 0.8; stroke-linejoin: miter; stroke-linecap: square"/>
   </g>
   <g id="patch_5">
    <path d="M 57.6 307.584 
L 414.72 307.584 
" style="fill: none; stroke: #000000; stroke-width: 0.8; stroke-linejoin: miter; stroke-linecap: square"/>
   </g>
   <g id="patch_6">
    <path d="M 57.6 41.472 
L 414.72 41.472 
" style="fill: none; stroke: #000000; stroke-width: 0.8; stroke-linejoin: miter; stroke-linecap: square"/>
   </g>
   <g id="text_13">
    <!-- Średnie i najlepsze przystosowanie w każdej generacji -->
    <g transform="translate(73.26 35.472) scale(0.12 -0.12)">
     <defs>
      <path id="DejaVuSans-15a" d="M 2236 5921 
L 2814 5921 
L 2102 5096 
L 1623 5096 
L 2236 5921 
z
M 3425 4513 
L 3425 3897 
Q 3066 4069 2747 4153 
Q 2428 4238 2131 4238 
Q 1616 4238 1336 4038 
Q 1056 3838 1056 3469 
Q 1056 3159 1242 3001 
Q 1428 2844 1947 2747 
L 2328 2669 
Q 3034 2534 3370 2195 
Q 3706 1856 3706 1288 
Q 3706 609 3251 259 
Q 2797 -91 1919 -91 
Q 1588 -91 1214 -16 
Q 841 59 441 206 
L 441 856 
Q 825 641 1194 531 
Q 1563 422 1919 422 
Q 2459 422 2753 634 
Q 3047 847 3047 1241 
Q 3047 1584 2836 1778 
Q 2625 1972 2144 2069 
L 1759 2144 
Q 1053 2284 737 2584 
Q 422 2884 422 3419 
Q 422 4038 858 4394 
Q 1294 4750 2059 4750 
Q 2388 4750 2728 4690 
Q 3069 4631 3425 4513 
z
" transform="scale(0.015625)"/>
      <path id="DejaVuSans-64" d="M 2906 2969 
L 2906 4863 
L 3481 4863 
L 3481 0 
L 2906 0 
L 2906 525 
Q 2725 213 2448 61 
Q 2172 -91 1784 -91 
Q 1150 -91 751 415 
Q 353 922 353 1747 
Q 353 2572 751 3078 
Q 1150 3584 1784 3584 
Q 2172 3584 2448 3432 
Q 2725 3281 2906 2969 
z
M 947 1747 
Q 947 1113 1208 752 
Q 1469 391 1925 391 
Q 2381 391 2643 752 
Q 2906 1113 2906 1747 
Q 2906 2381 2643 2742 
Q 2381 3103 1925 3103 
Q 1469 3103 1208 2742 
Q 947 2381 947 1747 
z
" transform="scale(0.015625)"/>
      <path id="DejaVuSans-20" transform="scale(0.015625)"/>
      <path id="DejaVuSans-6c" d="M 603 4863 
L 1178 4863 
L 1178 0 
L 603 0 
L 603 4863 
z
" transform="scale(0.015625)"/>
      <path id="DejaVuSans-70" d="M 1159 525 
L 1159 -1331 
L 581 -1331 
L 581 3500 
L 1159 3500 
L 1159 2969 
Q 1341 3281 1617 3432 
Q 1894 3584 2278 3584 
Q 2916 3584 3314 3078 
Q 3713 2572 3713 1747 
Q 3713 922 3314 415 
Q 2916 -91 2278 -91 
Q 1894 -91 1617 61 
Q 1341 213 1159 525 
z
M 3116 1747 
Q 3116 2381 2855 2742 
Q 2594 3103 2138 3103 
Q 1681 3103 1420 2742 
Q 1159 2381 1159 1747 
Q 1159 1113 1420 752 
Q 1681 391 2138 391 
Q 2594 391 2855 752 
Q 3116 1113 3116 1747 
z
" transform="scale(0.015625)"/>
      <path id="DejaVuSans-6b" d="M 581 4863 
L 1159 4863 
L 1159 1991 
L 2875 3500 
L 3609 3500 
L 1753 1863 
L 3688 0 
L 2938 0 
L 1159 1709 
L 1159 0 
L 581 0 
L 581 4863 
z
" transform="scale(0.015625)"/>
      <path id="DejaVuSans-17c" d="M 1378 4863 
L 1953 4863 
L 1953 4134 
L 1378 4134 
L 1378 4863 
z
M 1672 3584 
L 1672 3584 
z
M 353 3500 
L 3084 3500 
L 3084 2975 
L 922 459 
L 3084 459 
L 3084 0 
L 275 0 
L 275 525 
L 2438 3041 
L 353 3041 
L 353 3500 
z
" transform="scale(0.015625)"/>
      <path id="DejaVuSans-67" d="M 2906 1791 
Q 2906 2416 2648 2759 
Q 2391 3103 1925 3103 
Q 1463 3103 1205 2759 
Q 947 2416 947 1791 
Q 947 1169 1205 825 
Q 1463 481 1925 481 
Q 2391 481 2648 825 
Q 2906 1169 2906 1791 
z
M 3481 434 
Q 3481 -459 3084 -895 
Q 2688 -1331 1869 -1331 
Q 1566 -1331 1297 -1286 
Q 1028 -1241 775 -1147 
L 775 -588 
Q 1028 -725 1275 -790 
Q 1522 -856 1778 -856 
Q 2344 -856 2625 -561 
Q 2906 -266 2906 331 
L 2906 616 
Q 2728 306 2450 153 
Q 2172 0 1784 0 
Q 1141 0 747 490 
Q 353 981 353 1791 
Q 353 2603 747 3093 
Q 1141 3584 1784 3584 
Q 2172 3584 2450 3431 
Q 2728 3278 2906 2969 
L 2906 3500 
L 3481 3500 
L 3481 434 
z
" transform="scale(0.015625)"/>
     </defs>
     <use xlink:href="#DejaVuSans-15a"/>
     <use xlink:href="#DejaVuSans-72" transform="translate(63.476562 0)"/>
     <use xlink:href="#DejaVuSans-65" transform="translate(102.339844 0)"/>
     <use xlink:href="#DejaVuSans-64" transform="translate(163.863281 0)"/>
     <use xlink:href="#DejaVuSans-6e" transform="translate(227.339844 0)"/>
     <use xlink:href="#DejaVuSans-69" transform="translate(290.71875 0)"/>
     <use xlink:href="#DejaVuSans-65" transform="translate(318.501953 0)"/>
     <use xlink:href="#DejaVuSans-20" transform="translate(380.025391 0)"/>
     <use xlink:href="#DejaVuSans-69" transform="translate(411.8125 0)"/>
     <use xlink:href="#DejaVuSans-20" transform="translate(439.595703 0)"/>
     <use xlink:href="#DejaVuSans-6e" transform="translate(471.382812 0)"/>
     <use xlink:href="#DejaVuSans-61" transform="translate(534.761719 0)"/>
     <use xlink:href="#DejaVuSans-6a" transform="translate(596.041016 0)"/>
     <use xlink:href="#DejaVuSans-6c" transform="translate(623.824219 0)"/>
     <use xlink:href="#DejaVuSans-65" transform="translate(651.607422 0)"/>
     <use xlink:href="#DejaVuSans-70" transform="translate(713.130859 0)"/>
     <use xlink:href="#DejaVuSans-73" transform="translate(776.607422 0)"/>
     <use xlink:href="#DejaVuSans-7a" transform="translate(828.707031 0)"/>
     <use xlink:href="#DejaVuSans-65" transform="translate(881.197266 0)"/>
     <use xlink:href="#DejaVuSans-20" transform="translate(942.720703 0)"/>
     <use xlink:href="#DejaVuSans-70" transform="translate(974.507812 0)"/>
     <use xlink:href="#DejaVuSans-72" transform="translate(1037.984375 0)"/>
     <use xlink:href="#DejaVuSans-7a" transform="translate(1079.097656 0)"/>
     <use xlink:href="#DejaVuSans-79" transform="translate(1131.587891 0)"/>
     <use xlink:href="#DejaVuSans-73" transform="translate(1190.767578 0)"/>
     <use xlink:href="#DejaVuSans-74" transform="translate(1242.867188 0)"/>
     <use xlink:href="#DejaVuSans-6f" transform="translate(1282.076172 0)"/>
     <use xlink:href="#DejaVuSans-73" transform="translate(1343.257812 0)"/>
     <use xlink:href="#DejaVuSans-6f" transform="translate(1395.357422 0)"/>
     <use xlink:href="#DejaVuSans-77" transform="translate(1456.539062 0)"/>
     <use xlink:href="#DejaVuSans-61" transform="translate(1538.326172 0)"/>
     <use xlink:href="#DejaVuSans-6e" transform="translate(1599.605469 0)"/>
     <use xlink:href="#DejaVuSans-69" transform="translate(1662.984375 0)"/>
     <use xlink:href="#DejaVuSans-65" transform="translate(1690.767578 0)"/>
     <use xlink:href="#DejaVuSans-20" transform="translate(1752.291016 0)"/>
     <use xlink:href="#DejaVuSans-77" transform="translate(1784.078125 0)"/>
     <use xlink:href="#DejaVuSans-20" transform="translate(1865.865234 0)"/>
     <use xlink:href="#DejaVuSans-6b" transform="translate(1897.652344 0)"/>
     <use xlink:href="#DejaVuSans-61" transform="translate(1953.8125 0)"/>
     <use xlink:href="#DejaVuSans-17c" transform="translate(2015.091797 0)"/>
     <use xlink:href="#DejaVuSans-64" transform="translate(2067.582031 0)"/>
     <use xlink:href="#DejaVuSans-65" transform="translate(2131.058594 0)"/>
     <use xlink:href="#DejaVuSans-6a" transform="translate(2192.582031 0)"/>
     <use xlink:href="#DejaVuSans-20" transform="translate(2220.365234 0)"/>
     <use xlink:href="#DejaVuSans-67" transform="translate(2252.152344 0)"/>
     <use xlink:href="#DejaVuSans-65" transform="translate(2315.628906 0)"/>
     <use xlink:href="#DejaVuSans-6e" transform="translate(2377.152344 0)"/>
     <use xlink:href="#DejaVuSans-65" transform="translate(2440.53125 0)"/>
     <use xlink:href="#DejaVuSans-72" transform="translate(2502.054688 0)"/>
     <use xlink:href="#DejaVuSans-61" transform="translate(2543.167969 0)"/>
     <use xlink:href="#DejaVuSans-63" transform="translate(2604.447266 0)"/>
     <use xlink:href="#DejaVuSans-6a" transform="translate(2659.427734 0)"/>
     <use xlink:href="#DejaVuSans-69" transform="translate(2687.210938 0)"/>
    </g>
   </g>
   <g id="legend_1">
    <g id="patch_7">
     <path d="M 279.790313 302.584 
L 407.72 302.584 
Q 409.72 302.584 409.72 300.584 
L 409.72 257.549625 
Q 409.72 255.549625 407.72 255.549625 
L 279.790313 255.549625 
Q 277.790313 255.549625 277.790313 257.549625 
L 277.790313 300.584 
Q 277.790313 302.584 279.790313 302.584 
z
" style="fill: #ffffff; opacity: 0.8; stroke: #cccccc; stroke-linejoin: miter"/>
    </g>
    <g id="line2d_24">
     <path d="M 281.790313 263.648062 
L 291.790313 263.648062 
L 301.790313 263.648062 
" style="fill: none; stroke: #0000ff; stroke-width: 1.5; stroke-linecap: square"/>
    </g>
    <g id="text_14">
     <!-- Średnia -->
     <g transform="translate(309.790313 267.148062) scale(0.1 -0.1)">
      <use xlink:href="#DejaVuSans-15a"/>
      <use xlink:href="#DejaVuSans-72" transform="translate(63.476562 0)"/>
      <use xlink:href="#DejaVuSans-65" transform="translate(102.339844 0)"/>
      <use xlink:href="#DejaVuSans-64" transform="translate(163.863281 0)"/>
      <use xlink:href="#DejaVuSans-6e" transform="translate(227.339844 0)"/>
      <use xlink:href="#DejaVuSans-69" transform="translate(290.71875 0)"/>
      <use xlink:href="#DejaVuSans-61" transform="translate(318.501953 0)"/>
     </g>
    </g>
    <g id="line2d_25">
     <path d="M 281.790313 278.326188 
L 291.790313 278.326188 
L 301.790313 278.326188 
" style="fill: none; stroke-dasharray: 9.6,2.4,1.5,2.4; stroke-dashoffset: 0; stroke: #008000; stroke-width: 1.5"/>
    </g>
    <g id="text_15">
     <!-- ±1 Odchylenie std. -->
     <g transform="translate(309.790313 281.826188) scale(0.1 -0.1)">
      <defs>
       <path id="DejaVuSans-b1" d="M 2944 4013 
L 2944 2803 
L 4684 2803 
L 4684 2272 
L 2944 2272 
L 2944 1063 
L 2419 1063 
L 2419 2272 
L 678 2272 
L 678 2803 
L 2419 2803 
L 2419 4013 
L 2944 4013 
z
M 678 531 
L 4684 531 
L 4684 0 
L 678 0 
L 678 531 
z
" transform="scale(0.015625)"/>
       <path id="DejaVuSans-4f" d="M 2522 4238 
Q 1834 4238 1429 3725 
Q 1025 3213 1025 2328 
Q 1025 1447 1429 934 
Q 1834 422 2522 422 
Q 3209 422 3611 934 
Q 4013 1447 4013 2328 
Q 4013 3213 3611 3725 
Q 3209 4238 2522 4238 
z
M 2522 4750 
Q 3503 4750 4090 4092 
Q 4678 3434 4678 2328 
Q 4678 1225 4090 567 
Q 3503 -91 2522 -91 
Q 1538 -91 948 565 
Q 359 1222 359 2328 
Q 359 3434 948 4092 
Q 1538 4750 2522 4750 
z
" transform="scale(0.015625)"/>
       <path id="DejaVuSans-68" d="M 3513 2113 
L 3513 0 
L 2938 0 
L 2938 2094 
Q 2938 2591 2744 2837 
Q 2550 3084 2163 3084 
Q 1697 3084 1428 2787 
Q 1159 2491 1159 1978 
L 1159 0 
L 581 0 
L 581 4863 
L 1159 4863 
L 1159 2956 
Q 1366 3272 1645 3428 
Q 1925 3584 2291 3584 
Q 2894 3584 3203 3211 
Q 3513 2838 3513 2113 
z
" transform="scale(0.015625)"/>
       <path id="DejaVuSans-2e" d="M 684 794 
L 1344 794 
L 1344 0 
L 684 0 
L 684 794 
z
" transform="scale(0.015625)"/>
      </defs>
      <use xlink:href="#DejaVuSans-b1"/>
      <use xlink:href="#DejaVuSans-31" transform="translate(83.789062 0)"/>
      <use xlink:href="#DejaVuSans-20" transform="translate(147.412109 0)"/>
      <use xlink:href="#DejaVuSans-4f" transform="translate(179.199219 0)"/>
      <use xlink:href="#DejaVuSans-64" transform="translate(257.910156 0)"/>
      <use xlink:href="#DejaVuSans-63" transform="translate(321.386719 0)"/>
      <use xlink:href="#DejaVuSans-68" transform="translate(376.367188 0)"/>
      <use xlink:href="#DejaVuSans-79" transform="translate(439.746094 0)"/>
      <use xlink:href="#DejaVuSans-6c" transform="translate(498.925781 0)"/>
      <use xlink:href="#DejaVuSans-65" transform="translate(526.708984 0)"/>
      <use xlink:href="#DejaVuSans-6e" transform="translate(588.232422 0)"/>
      <use xlink:href="#DejaVuSans-69" transform="translate(651.611328 0)"/>
      <use xlink:href="#DejaVuSans-65" transform="translate(679.394531 0)"/>
      <use xlink:href="#DejaVuSans-20" transform="translate(740.917969 0)"/>
      <use xlink:href="#DejaVuSans-73" transform="translate(772.705078 0)"/>
      <use xlink:href="#DejaVuSans-74" transform="translate(824.804688 0)"/>
      <use xlink:href="#DejaVuSans-64" transform="translate(864.013672 0)"/>
      <use xlink:href="#DejaVuSans-2e" transform="translate(927.490234 0)"/>
     </g>
    </g>
    <g id="line2d_26">
     <path d="M 281.790313 293.004312 
L 291.790313 293.004312 
L 301.790313 293.004312 
" style="fill: none; stroke: #ff0000; stroke-width: 1.5; stroke-linecap: square"/>
    </g>
    <g id="text_16">
     <!-- Najlepsze -->
     <g transform="translate(309.790313 296.504312) scale(0.1 -0.1)">
      <defs>
       <path id="DejaVuSans-4e" d="M 628 4666 
L 1478 4666 
L 3547 763 
L 3547 4666 
L 4159 4666 
L 4159 0 
L 3309 0 
L 1241 3903 
L 1241 0 
L 628 0 
L 628 4666 
z
" transform="scale(0.015625)"/>
      </defs>
      <use xlink:href="#DejaVuSans-4e"/>
      <use xlink:href="#DejaVuSans-61" transform="translate(74.804688 0)"/>
      <use xlink:href="#DejaVuSans-6a" transform="translate(136.083984 0)"/>
      <use xlink:href="#DejaVuSans-6c" transform="translate(163.867188 0)"/>
      <use xlink:href="#DejaVuSans-65" transform="translate(191.650391 0)"/>
      <use xlink:href="#DejaVuSans-70" transform="translate(253.173828 0)"/>
      <use xlink:href="#DejaVuSans-73" transform="translate(316.650391 0)"/>
      <use xlink:href="#DejaVuSans-7a" transform="translate(368.75 0)"/>
      <use xlink:href="#DejaVuSans-65" transform="translate(421.240234 0)"/>
     </g>
    </g>
   </g>
  </g>
 </g>
 <defs>
  <clipPath id="p748a223737">
   <rect x="57.6" y="41.472" width="357.12" height="266.112"/>
  </clipPath>
 </defs>
</svg>
