<?xml version="1.0" encoding="utf-8" standalone="no"?>
<!DOCTYPE svg PUBLIC "-//W3C//DTD SVG 1.1//EN"
  "http://www.w3.org/Graphics/SVG/1.1/DTD/svg11.dtd">
<svg xmlns:xlink="http://www.w3.org/1999/xlink" width="460.8pt" height="345.6pt" viewBox="0 0 460.8 345.6" xmlns="http://www.w3.org/2000/svg" version="1.1">
 <metadata>
  <rdf:RDF xmlns:dc="http://purl.org/dc/elements/1.1/" xmlns:cc="http://creativecommons.org/ns#" xmlns:rdf="http://www.w3.org/1999/02/22-rdf-syntax-ns#">
   <cc:Work>
    <dc:type rdf:resource="http://purl.org/dc/dcmitype/StillImage"/>
    <dc:date>2026-04-11T23:48:12.495878</dc:date>
    <dc:format>image/svg+xml</dc:format>
    <dc:creator>
     <cc:Agent>
      <dc:title>Matplotlib v3.10.8, https://matplotlib.org/</dc:title>
     </cc:Agent>
    </dc:creator>
   </cc:Work>
  </rdf:RDF>
 </metadata>
 <defs>
  <style type="text/css">*{stroke-linejoin: round; stroke-linecap: butt}</style>
 </defs>
 <g id="figure_1">
  <g id="patch_1">
   <path d="M 0 345.6 
L 460.8 345.6 
L 460.8 0 
L 0 0 
z
" style="fill: #ffffff"/>
  </g>
  <g id="axes_1">
   <g id="patch_2">
    <path d="M 57.6 307.584 
L 414.72 307.584 
L 414.72 41.472 
L 57.6 41.472 
z
" style="fill: #ffffff"/>
   </g>
   <g id="matplotlib.axis_1">
    <g id="xtick_1">
     <g id="line2d_1">
      <path d="M 73.832727 307.584 
L 73.832727 41.472 
" clip-path="url(#p6207514137)" style="fill: none; stroke: #b0b0b0; stroke-width: 0.8; stroke-linecap: square"/>
     </g>
     <g id="line2d_2">
      <defs>
       <path id="m9e8874f958" d="M 0 0 
L 0 3.5 
" style="stroke: #000000; stroke-width: 0.8"/>
      </defs>
      <g>
       <use xlink:href="#m9e8874f958" x="73.832727" y="307.584" style="stroke: #000000; stroke-width: 0.8"/>
      </g>
     </g>
     <g id="text_1">
      <!-- 0 -->
      <g transform="translate(70.651477 322.182437) scale(0.1 -0.1)">
       <defs>
        <path id="DejaVuSans-30" d="M 2034 4250 
Q 1547 4250 1301 3770 
Q 1056 3291 1056 2328 
Q 1056 1369 1301 889 
Q 1547 409 2034 409 
Q 2525 409 2770 889 
Q 3016 1369 3016 2328 
Q 3016 3291 2770 3770 
Q 2525 4250 2034 4250 
z
M 2034 4750 
Q 2819 4750 3233 4129 
Q 3647 3509 3647 2328 
Q 3647 1150 3233 529 
Q 2819 -91 2034 -91 
Q 1250 -91 836 529 
Q 422 1150 422 2328 
Q 422 3509 836 4129 
Q 1250 4750 2034 4750 
z
" transform="scale(0.015625)"/>
       </defs>
       <use xlink:href="#DejaVuSans-30"/>
      </g>
     </g>
    </g>
    <g id="xtick_2">
     <g id="line2d_3">
      <path d="M 114.618474 307.584 
L 114.618474 41.472 
" clip-path="url(#p6207514137)" style="fill: none; stroke: #b0b0b0; stroke-width: 0.8; stroke-linecap: square"/>
     </g>
     <g id="line2d_4">
      <g>
       <use xlink:href="#m9e8874f958" x="114.618474" y="307.584" style="stroke: #000000; stroke-width: 0.8"/>
      </g>
     </g>
     <g id="text_2">
      <!-- 25 -->
      <g transform="translate(108.255974 322.182437) scale(0.1 -0.1)">
       <defs>
        <path id="DejaVuSans-32" d="M 1228 531 
L 3431 531 
L 3431 0 
L 469 0 
L 469 531 
Q 828 903 1448 1529 
Q 2069 2156 2228 2338 
Q 2531 2678 2651 2914 
Q 2772 3150 2772 3378 
Q 2772 3750 2511 3984 
Q 2250 4219 1831 4219 
Q 1534 4219 1204 4116 
Q 875 4013 500 3803 
L 500 4441 
Q 881 4594 1212 4672 
Q 1544 4750 1819 4750 
Q 2544 4750 2975 4387 
Q 3406 4025 3406 3419 
Q 3406 3131 3298 2873 
Q 3191 2616 2906 2266 
Q 2828 2175 2409 1742 
Q 1991 1309 1228 531 
z
" transform="scale(0.015625)"/>
        <path id="DejaVuSans-35" d="M 691 4666 
L 3169 4666 
L 3169 4134 
L 1269 4134 
L 1269 2991 
Q 1406 3038 1543 3061 
Q 1681 3084 1819 3084 
Q 2600 3084 3056 2656 
Q 3513 2228 3513 1497 
Q 3513 744 3044 326 
Q 2575 -91 1722 -91 
Q 1428 -91 1123 -41 
Q 819 9 494 109 
L 494 744 
Q 775 591 1075 516 
Q 1375 441 1709 441 
Q 2250 441 2565 725 
Q 2881 1009 2881 1497 
Q 2881 1984 2565 2268 
Q 2250 2553 1709 2553 
Q 1456 2553 1204 2497 
Q 953 2441 691 2322 
L 691 4666 
z
" transform="scale(0.015625)"/>
       </defs>
       <use xlink:href="#DejaVuSans-32"/>
       <use xlink:href="#DejaVuSans-35" transform="translate(63.623047 0)"/>
      </g>
     </g>
    </g>
    <g id="xtick_3">
     <g id="line2d_5">
      <path d="M 155.404221 307.584 
L 155.404221 41.472 
" clip-path="url(#p6207514137)" style="fill: none; stroke: #b0b0b0; stroke-width: 0.8; stroke-linecap: square"/>
     </g>
     <g id="line2d_6">
      <g>
       <use xlink:href="#m9e8874f958" x="155.404221" y="307.584" style="stroke: #000000; stroke-width: 0.8"/>
      </g>
     </g>
     <g id="text_3">
      <!-- 50 -->
      <g transform="translate(149.041721 322.182437) scale(0.1 -0.1)">
       <use xlink:href="#DejaVuSans-35"/>
       <use xlink:href="#DejaVuSans-30" transform="translate(63.623047 0)"/>
      </g>
     </g>
    </g>
    <g id="xtick_4">
     <g id="line2d_7">
      <path d="M 196.189968 307.584 
L 196.189968 41.472 
" clip-path="url(#p6207514137)" style="fill: none; stroke: #b0b0b0; stroke-width: 0.8; stroke-linecap: square"/>
     </g>
     <g id="line2d_8">
      <g>
       <use xlink:href="#m9e8874f958" x="196.189968" y="307.584" style="stroke: #000000; stroke-width: 0.8"/>
      </g>
     </g>
     <g id="text_4">
      <!-- 75 -->
      <g transform="translate(189.827468 322.182437) scale(0.1 -0.1)">
       <defs>
        <path id="DejaVuSans-37" d="M 525 4666 
L 3525 4666 
L 3525 4397 
L 1831 0 
L 1172 0 
L 2766 4134 
L 525 4134 
L 525 4666 
z
" transform="scale(0.015625)"/>
       </defs>
       <use xlink:href="#DejaVuSans-37"/>
       <use xlink:href="#DejaVuSans-35" transform="translate(63.623047 0)"/>
      </g>
     </g>
    </g>
    <g id="xtick_5">
     <g id="line2d_9">
      <path d="M 236.975715 307.584 
L 236.975715 41.472 
" clip-path="url(#p6207514137)" style="fill: none; stroke: #b0b0b0; stroke-width: 0.8; stroke-linecap: square"/>
     </g>
     <g id="line2d_10">
      <g>
       <use xlink:href="#m9e8874f958" x="236.975715" y="307.584" style="stroke: #000000; stroke-width: 0.8"/>
      </g>
     </g>
     <g id="text_5">
      <!-- 100 -->
      <g transform="translate(227.431965 322.182437) scale(0.1 -0.1)">
       <defs>
        <path id="DejaVuSans-31" d="M 794 531 
L 1825 531 
L 1825 4091 
L 703 3866 
L 703 4441 
L 1819 4666 
L 2450 4666 
L 2450 531 
L 3481 531 
L 3481 0 
L 794 0 
L 794 531 
z
" transform="scale(0.015625)"/>
       </defs>
       <use xlink:href="#DejaVuSans-31"/>
       <use xlink:href="#DejaVuSans-30" transform="translate(63.623047 0)"/>
       <use xlink:href="#DejaVuSans-30" transform="translate(127.246094 0)"/>
      </g>
     </g>
    </g>
    <g id="xtick_6">
     <g id="line2d_11">
      <path d="M 277.761462 307.584 
L 277.761462 41.472 
" clip-path="url(#p6207514137)" style="fill: none; stroke: #b0b0b0; stroke-width: 0.8; stroke-linecap: square"/>
     </g>
     <g id="line2d_12">
      <g>
       <use xlink:href="#m9e8874f958" x="277.761462" y="307.584" style="stroke: #000000; stroke-width: 0.8"/>
      </g>
     </g>
     <g id="text_6">
      <!-- 125 -->
      <g transform="translate(268.217712 322.182437) scale(0.1 -0.1)">
       <use xlink:href="#DejaVuSans-31"/>
       <use xlink:href="#DejaVuSans-32" transform="translate(63.623047 0)"/>
       <use xlink:href="#DejaVuSans-35" transform="translate(127.246094 0)"/>
      </g>
     </g>
    </g>
    <g id="xtick_7">
     <g id="line2d_13">
      <path d="M 318.547209 307.584 
L 318.547209 41.472 
" clip-path="url(#p6207514137)" style="fill: none; stroke: #b0b0b0; stroke-width: 0.8; stroke-linecap: square"/>
     </g>
     <g id="line2d_14">
      <g>
       <use xlink:href="#m9e8874f958" x="318.547209" y="307.584" style="stroke: #000000; stroke-width: 0.8"/>
      </g>
     </g>
     <g id="text_7">
      <!-- 150 -->
      <g transform="translate(309.003459 322.182437) scale(0.1 -0.1)">
       <use xlink:href="#DejaVuSans-31"/>
       <use xlink:href="#DejaVuSans-35" transform="translate(63.623047 0)"/>
       <use xlink:href="#DejaVuSans-30" transform="translate(127.246094 0)"/>
      </g>
     </g>
    </g>
    <g id="xtick_8">
     <g id="line2d_15">
      <path d="M 359.332956 307.584 
L 359.332956 41.472 
" clip-path="url(#p6207514137)" style="fill: none; stroke: #b0b0b0; stroke-width: 0.8; stroke-linecap: square"/>
     </g>
     <g id="line2d_16">
      <g>
       <use xlink:href="#m9e8874f958" x="359.332956" y="307.584" style="stroke: #000000; stroke-width: 0.8"/>
      </g>
     </g>
     <g id="text_8">
      <!-- 175 -->
      <g transform="translate(349.789206 322.182437) scale(0.1 -0.1)">
       <use xlink:href="#DejaVuSans-31"/>
       <use xlink:href="#DejaVuSans-37" transform="translate(63.623047 0)"/>
       <use xlink:href="#DejaVuSans-35" transform="translate(127.246094 0)"/>
      </g>
     </g>
    </g>
    <g id="xtick_9">
     <g id="line2d_17">
      <path d="M 400.118703 307.584 
L 400.118703 41.472 
" clip-path="url(#p6207514137)" style="fill: none; stroke: #b0b0b0; stroke-width: 0.8; stroke-linecap: square"/>
     </g>
     <g id="line2d_18">
      <g>
       <use xlink:href="#m9e8874f958" x="400.118703" y="307.584" style="stroke: #000000; stroke-width: 0.8"/>
      </g>
     </g>
     <g id="text_9">
      <!-- 200 -->
      <g transform="translate(390.574953 322.182437) scale(0.1 -0.1)">
       <use xlink:href="#DejaVuSans-32"/>
       <use xlink:href="#DejaVuSans-30" transform="translate(63.623047 0)"/>
       <use xlink:href="#DejaVuSans-30" transform="translate(127.246094 0)"/>
      </g>
     </g>
    </g>
    <g id="text_10">
     <!-- Generations -->
     <g transform="translate(205.662344 335.860562) scale(0.1 -0.1)">
      <defs>
       <path id="DejaVuSans-47" d="M 3809 666 
L 3809 1919 
L 2778 1919 
L 2778 2438 
L 4434 2438 
L 4434 434 
Q 4069 175 3628 42 
Q 3188 -91 2688 -91 
Q 1594 -91 976 548 
Q 359 1188 359 2328 
Q 359 3472 976 4111 
Q 1594 4750 2688 4750 
Q 3144 4750 3555 4637 
Q 3966 4525 4313 4306 
L 4313 3634 
Q 3963 3931 3569 4081 
Q 3175 4231 2741 4231 
Q 1884 4231 1454 3753 
Q 1025 3275 1025 2328 
Q 1025 1384 1454 906 
Q 1884 428 2741 428 
Q 3075 428 3337 486 
Q 3600 544 3809 666 
z
" transform="scale(0.015625)"/>
       <path id="DejaVuSans-65" d="M 3597 1894 
L 3597 1613 
L 953 1613 
Q 991 1019 1311 708 
Q 1631 397 2203 397 
Q 2534 397 2845 478 
Q 3156 559 3463 722 
L 3463 178 
Q 3153 47 2828 -22 
Q 2503 -91 2169 -91 
Q 1331 -91 842 396 
Q 353 884 353 1716 
Q 353 2575 817 3079 
Q 1281 3584 2069 3584 
Q 2775 3584 3186 3129 
Q 3597 2675 3597 1894 
z
M 3022 2063 
Q 3016 2534 2758 2815 
Q 2500 3097 2075 3097 
Q 1594 3097 1305 2825 
Q 1016 2553 972 2059 
L 3022 2063 
z
" transform="scale(0.015625)"/>
       <path id="DejaVuSans-6e" d="M 3513 2113 
L 3513 0 
L 2938 0 
L 2938 2094 
Q 2938 2591 2744 2837 
Q 2550 3084 2163 3084 
Q 1697 3084 1428 2787 
Q 1159 2491 1159 1978 
L 1159 0 
L 581 0 
L 581 3500 
L 1159 3500 
L 1159 2956 
Q 1366 3272 1645 3428 
Q 1925 3584 2291 3584 
Q 2894 3584 3203 3211 
Q 3513 2838 3513 2113 
z
" transform="scale(0.015625)"/>
       <path id="DejaVuSans-72" d="M 2631 2963 
Q 2534 3019 2420 3045 
Q 2306 3072 2169 3072 
Q 1681 3072 1420 2755 
Q 1159 2438 1159 1844 
L 1159 0 
L 581 0 
L 581 3500 
L 1159 3500 
L 1159 2956 
Q 1341 3275 1631 3429 
Q 1922 3584 2338 3584 
Q 2397 3584 2469 3576 
Q 2541 3569 2628 3553 
L 2631 2963 
z
" transform="scale(0.015625)"/>
       <path id="DejaVuSans-61" d="M 2194 1759 
Q 1497 1759 1228 1600 
Q 959 1441 959 1056 
Q 959 750 1161 570 
Q 1363 391 1709 391 
Q 2188 391 2477 730 
Q 2766 1069 2766 1631 
L 2766 1759 
L 2194 1759 
z
M 3341 1997 
L 3341 0 
L 2766 0 
L 2766 531 
Q 2569 213 2275 61 
Q 1981 -91 1556 -91 
Q 1019 -91 701 211 
Q 384 513 384 1019 
Q 384 1609 779 1909 
Q 1175 2209 1959 2209 
L 2766 2209 
L 2766 2266 
Q 2766 2663 2505 2880 
Q 2244 3097 1772 3097 
Q 1472 3097 1187 3025 
Q 903 2953 641 2809 
L 641 3341 
Q 956 3463 1253 3523 
Q 1550 3584 1831 3584 
Q 2591 3584 2966 3190 
Q 3341 2797 3341 1997 
z
" transform="scale(0.015625)"/>
       <path id="DejaVuSans-74" d="M 1172 4494 
L 1172 3500 
L 2356 3500 
L 2356 3053 
L 1172 3053 
L 1172 1153 
Q 1172 725 1289 603 
Q 1406 481 1766 481 
L 2356 481 
L 2356 0 
L 1766 0 
Q 1100 0 847 248 
Q 594 497 594 1153 
L 594 3053 
L 172 3053 
L 172 3500 
L 594 3500 
L 594 4494 
L 1172 4494 
z
" transform="scale(0.015625)"/>
       <path id="DejaVuSans-69" d="M 603 3500 
L 1178 3500 
L 1178 0 
L 603 0 
L 603 3500 
z
M 603 4863 
L 1178 4863 
L 1178 4134 
L 603 4134 
L 603 4863 
z
" transform="scale(0.015625)"/>
       <path id="DejaVuSans-6f" d="M 1959 3097 
Q 1497 3097 1228 2736 
Q 959 2375 959 1747 
Q 959 1119 1226 758 
Q 1494 397 1959 397 
Q 2419 397 2687 759 
Q 2956 1122 2956 1747 
Q 2956 2369 2687 2733 
Q 2419 3097 1959 3097 
z
M 1959 3584 
Q 2709 3584 3137 3096 
Q 3566 2609 3566 1747 
Q 3566 888 3137 398 
Q 2709 -91 1959 -91 
Q 1206 -91 779 398 
Q 353 888 353 1747 
Q 353 2609 779 3096 
Q 1206 3584 1959 3584 
z
" transform="scale(0.015625)"/>
       <path id="DejaVuSans-73" d="M 2834 3397 
L 2834 2853 
Q 2591 2978 2328 3040 
Q 2066 3103 1784 3103 
Q 1356 3103 1142 2972 
Q 928 2841 928 2578 
Q 928 2378 1081 2264 
Q 1234 2150 1697 2047 
L 1894 2003 
Q 2506 1872 2764 1633 
Q 3022 1394 3022 966 
Q 3022 478 2636 193 
Q 2250 -91 1575 -91 
Q 1294 -91 989 -36 
Q 684 19 347 128 
L 347 722 
Q 666 556 975 473 
Q 1284 391 1588 391 
Q 1994 391 2212 530 
Q 2431 669 2431 922 
Q 2431 1156 2273 1281 
Q 2116 1406 1581 1522 
L 1381 1569 
Q 847 1681 609 1914 
Q 372 2147 372 2553 
Q 372 3047 722 3315 
Q 1072 3584 1716 3584 
Q 2034 3584 2315 3537 
Q 2597 3491 2834 3397 
z
" transform="scale(0.015625)"/>
      </defs>
      <use xlink:href="#DejaVuSans-47"/>
      <use xlink:href="#DejaVuSans-65" transform="translate(77.490234 0)"/>
      <use xlink:href="#DejaVuSans-6e" transform="translate(139.013672 0)"/>
      <use xlink:href="#DejaVuSans-65" transform="translate(202.392578 0)"/>
      <use xlink:href="#DejaVuSans-72" transform="translate(263.916016 0)"/>
      <use xlink:href="#DejaVuSans-61" transform="translate(305.029297 0)"/>
      <use xlink:href="#DejaVuSans-74" transform="translate(366.308594 0)"/>
      <use xlink:href="#DejaVuSans-69" transform="translate(405.517578 0)"/>
      <use xlink:href="#DejaVuSans-6f" transform="translate(433.300781 0)"/>
      <use xlink:href="#DejaVuSans-6e" transform="translate(494.482422 0)"/>
      <use xlink:href="#DejaVuSans-73" transform="translate(557.861328 0)"/>
     </g>
    </g>
   </g>
   <g id="matplotlib.axis_2">
    <g id="ytick_1">
     <g id="line2d_19">
      <path d="M 57.6 114.376959 
L 414.72 114.376959 
" clip-path="url(#p6207514137)" style="fill: none; stroke: #b0b0b0; stroke-width: 0.8; stroke-linecap: square"/>
     </g>
     <g id="line2d_20">
      <defs>
       <path id="m125c1ee704" d="M 0 0 
L -3.5 0 
" style="stroke: #000000; stroke-width: 0.8"/>
      </defs>
      <g>
       <use xlink:href="#m125c1ee704" x="57.6" y="114.376959" style="stroke: #000000; stroke-width: 0.8"/>
      </g>
     </g>
     <g id="text_11">
      <!-- $\mathdefault{10^{2}}$ -->
      <g transform="translate(33 118.176178) scale(0.1 -0.1)">
       <use xlink:href="#DejaVuSans-31" transform="translate(0 0.765625)"/>
       <use xlink:href="#DejaVuSans-30" transform="translate(63.623047 0.765625)"/>
       <use xlink:href="#DejaVuSans-32" transform="translate(128.203125 39.046875) scale(0.7)"/>
      </g>
     </g>
    </g>
    <g id="text_12">
     <!-- Fitness -->
     <g transform="translate(26.920312 191.845187) rotate(-90) scale(0.1 -0.1)">
      <defs>
       <path id="DejaVuSans-46" d="M 628 4666 
L 3309 4666 
L 3309 4134 
L 1259 4134 
L 1259 2759 
L 3109 2759 
L 3109 2228 
L 1259 2228 
L 1259 0 
L 628 0 
L 628 4666 
z
" transform="scale(0.015625)"/>
      </defs>
      <use xlink:href="#DejaVuSans-46"/>
      <use xlink:href="#DejaVuSans-69" transform="translate(50.269531 0)"/>
      <use xlink:href="#DejaVuSans-74" transform="translate(78.052734 0)"/>
      <use xlink:href="#DejaVuSans-6e" transform="translate(117.261719 0)"/>
      <use xlink:href="#DejaVuSans-65" transform="translate(180.640625 0)"/>
      <use xlink:href="#DejaVuSans-73" transform="translate(242.164062 0)"/>
      <use xlink:href="#DejaVuSans-73" transform="translate(294.263672 0)"/>
     </g>
    </g>
   </g>
   <g id="line2d_21">
    <path d="M 73.832727 295.488 
L 75.464157 281.669026 
L 77.095587 279.852538 
L 78.727017 277.55622 
L 80.358447 271.528813 
L 81.989877 274.723709 
L 83.621307 265.182423 
L 85.252736 262.924368 
L 86.884166 264.762837 
L 88.515596 263.902131 
L 90.147026 263.311106 
L 91.778456 255.60236 
L 93.409886 261.72231 
L 95.041316 258.208473 
L 96.672746 258.236813 
L 98.304175 256.482939 
L 99.935605 255.333114 
L 101.567035 253.241979 
L 104.829895 255.342964 
L 106.461325 253.461008 
L 108.092755 258.559296 
L 109.724185 258.032881 
L 111.355614 253.782106 
L 112.987044 252.866263 
L 114.618474 254.528866 
L 116.249904 252.398345 
L 117.881334 253.017297 
L 119.512764 255.277844 
L 121.144194 252.884353 
L 122.775624 250.055054 
L 124.407053 250.294484 
L 126.038483 251.04968 
L 127.669913 250.95821 
L 129.301343 252.481057 
L 130.932773 248.972167 
L 132.564203 247.829165 
L 134.195633 251.157601 
L 135.827063 248.219618 
L 137.458492 249.884057 
L 139.089922 245.340881 
L 140.721352 249.243274 
L 142.352782 249.155619 
L 143.984212 247.260404 
L 145.615642 249.388364 
L 147.247072 242.552812 
L 148.878502 242.002642 
L 150.509931 238.798234 
L 152.141361 245.078709 
L 153.772791 243.888537 
L 155.404221 243.57728 
L 157.035651 247.383801 
L 158.667081 242.209627 
L 160.298511 241.253592 
L 161.929941 244.581333 
L 163.56137 240.685012 
L 165.1928 245.393547 
L 166.82423 242.679808 
L 168.45566 247.657569 
L 170.08709 242.151177 
L 171.71852 244.011374 
L 173.34995 243.780586 
L 174.98138 240.866049 
L 176.61281 245.552584 
L 178.244239 244.164405 
L 179.875669 240.740977 
L 181.507099 241.492283 
L 183.138529 242.972968 
L 186.401389 244.972686 
L 188.032819 246.147847 
L 189.664249 241.975241 
L 191.295678 244.384371 
L 192.927108 238.508442 
L 194.558538 241.145496 
L 196.189968 238.025169 
L 197.821398 236.157729 
L 199.452828 237.329039 
L 201.084258 240.367434 
L 202.715688 238.415298 
L 204.347117 239.496039 
L 205.978547 237.48504 
L 207.609977 237.07115 
L 209.241407 237.57043 
L 210.872837 238.426097 
L 212.504267 243.682061 
L 214.135697 236.10278 
L 215.767127 240.222311 
L 217.398556 240.004796 
L 219.029986 240.950738 
L 220.661416 235.931255 
L 222.292846 238.523838 
L 223.924276 235.942921 
L 225.555706 239.415395 
L 227.187136 240.114393 
L 228.818566 238.470532 
L 230.449995 239.790056 
L 232.081425 240.681307 
L 233.712855 242.167925 
L 235.344285 239.533886 
L 236.975715 238.351484 
L 238.607145 239.528699 
L 240.238575 239.019865 
L 241.870005 239.669309 
L 243.501434 237.756096 
L 245.132864 240.998501 
L 246.764294 241.158263 
L 248.395724 238.228631 
L 250.027154 236.723036 
L 251.658584 240.30634 
L 253.290014 238.925047 
L 254.921444 240.470299 
L 256.552873 240.029698 
L 258.184303 237.251322 
L 259.815733 239.876933 
L 261.447163 236.225684 
L 263.078593 238.911299 
L 264.710023 237.300535 
L 266.341453 236.142502 
L 267.972883 234.81857 
L 269.604312 232.955159 
L 271.235742 237.183444 
L 272.867172 233.478519 
L 274.498602 235.216651 
L 276.130032 234.913849 
L 277.761462 238.941314 
L 279.392892 237.198441 
L 281.024322 236.072353 
L 282.655751 237.473472 
L 284.287181 237.712604 
L 285.918611 233.521921 
L 287.550041 235.520743 
L 289.181471 235.719219 
L 290.812901 237.448352 
L 292.444331 238.570577 
L 294.075761 237.576427 
L 295.70719 237.975265 
L 297.33862 236.854737 
L 298.97005 236.598149 
L 300.60148 240.368867 
L 302.23291 235.522535 
L 303.86434 236.059738 
L 305.49577 237.421833 
L 307.1272 236.857353 
L 308.75863 236.066177 
L 310.390059 237.809649 
L 312.021489 236.721005 
L 313.652919 234.467099 
L 315.284349 232.932918 
L 316.915779 234.452603 
L 318.547209 234.084285 
L 320.178639 234.696054 
L 321.810069 234.624918 
L 323.441498 234.156413 
L 325.072928 234.537021 
L 326.704358 232.27004 
L 328.335788 235.333114 
L 329.967218 233.465931 
L 331.598648 234.417855 
L 333.230078 234.966803 
L 334.861508 234.684203 
L 336.492937 234.736385 
L 338.124367 238.073322 
L 339.755797 238.858862 
L 343.018657 231.620893 
L 344.650087 232.215648 
L 346.281517 236.797436 
L 347.912947 234.523906 
L 349.544376 235.913486 
L 351.175806 234.513445 
L 352.807236 236.875506 
L 354.438666 235.02202 
L 356.070096 238.897779 
L 357.701526 233.805302 
L 359.332956 235.236095 
L 360.964386 235.818594 
L 362.595815 236.683331 
L 364.227245 236.431583 
L 365.858675 230.708224 
L 367.490105 235.051904 
L 369.121535 236.283127 
L 370.752965 235.47659 
L 372.384395 236.759836 
L 374.015825 234.481479 
L 375.647254 235.300158 
L 377.278684 234.219923 
L 378.910114 233.392505 
L 380.541544 237.484548 
L 382.172974 233.826532 
L 383.804404 235.622942 
L 387.067264 235.469889 
L 388.698693 236.54813 
L 390.330123 236.7326 
L 391.961553 233.745206 
L 393.592983 237.694955 
L 395.224413 235.170232 
L 398.487273 235.80929 
L 398.487273 235.80929 
" clip-path="url(#p6207514137)" style="fill: none; stroke: #0000ff; stroke-width: 1.5; stroke-linecap: square"/>
   </g>
   <g id="line2d_22">
    <path d="M 73.832727 243.36197 
L 75.464157 221.605014 
L 77.095587 219.602168 
L 78.727017 216.814403 
L 80.358447 211.817616 
L 81.989877 212.273396 
L 83.621307 200.942204 
L 85.252736 199.373884 
L 86.884166 199.417652 
L 88.515596 201.044306 
L 90.147026 197.153857 
L 91.778456 189.469512 
L 93.409886 198.392634 
L 95.041316 194.664192 
L 96.672746 196.221301 
L 98.304175 192.233994 
L 99.935605 191.323074 
L 101.567035 188.174354 
L 103.198465 189.704117 
L 104.829895 192.797775 
L 106.461325 188.938059 
L 108.092755 196.150993 
L 109.724185 193.547797 
L 111.355614 191.461582 
L 112.987044 190.916009 
L 114.618474 191.695208 
L 116.249904 187.551344 
L 117.881334 190.327045 
L 119.512764 192.262317 
L 122.775624 186.972675 
L 124.407053 186.234283 
L 126.038483 187.905017 
L 127.669913 187.869753 
L 129.301343 190.492565 
L 130.932773 185.326527 
L 132.564203 184.918796 
L 134.195633 187.165555 
L 135.827063 184.761848 
L 137.458492 186.530402 
L 139.089922 184.458497 
L 140.721352 187.342749 
L 142.352782 186.924912 
L 143.984212 184.6347 
L 145.615642 188.400144 
L 147.247072 180.807707 
L 148.878502 180.20481 
L 150.509931 178.234138 
L 152.141361 183.078527 
L 153.772791 182.9338 
L 155.404221 180.465261 
L 157.035651 186.825726 
L 158.667081 176.615782 
L 160.298511 178.784444 
L 161.929941 183.731624 
L 163.56137 178.958282 
L 165.1928 181.461717 
L 166.82423 181.640095 
L 168.45566 185.504636 
L 170.08709 181.532167 
L 171.71852 183.526026 
L 173.34995 182.109396 
L 174.98138 177.431021 
L 176.61281 185.328755 
L 178.244239 183.054069 
L 179.875669 180.047065 
L 181.507099 181.227377 
L 183.138529 180.770548 
L 184.769959 184.124546 
L 186.401389 184.247388 
L 188.032819 185.542688 
L 189.664249 181.809301 
L 191.295678 184.964429 
L 192.927108 177.054838 
L 194.558538 180.300987 
L 196.189968 175.778549 
L 197.821398 175.632921 
L 199.452828 178.436978 
L 201.084258 180.417474 
L 202.715688 178.177432 
L 204.347117 179.537508 
L 205.978547 176.02258 
L 207.609977 174.407969 
L 209.241407 178.246335 
L 210.872837 178.680337 
L 212.504267 183.04409 
L 214.135697 176.731662 
L 215.767127 182.964743 
L 217.398556 180.834162 
L 219.029986 182.560967 
L 220.661416 175.82405 
L 222.292846 180.119639 
L 223.924276 177.29294 
L 225.555706 177.779633 
L 227.187136 180.449882 
L 228.818566 180.488753 
L 230.449995 180.6453 
L 232.081425 183.010365 
L 233.712855 184.763009 
L 235.344285 180.297063 
L 236.975715 178.301724 
L 238.607145 180.890119 
L 240.238575 179.265395 
L 241.870005 179.011692 
L 243.501434 178.027546 
L 245.132864 182.478546 
L 248.395724 179.372437 
L 250.027154 176.573636 
L 251.658584 180.724639 
L 253.290014 180.706433 
L 254.921444 181.044735 
L 256.552873 181.231397 
L 258.184303 177.091798 
L 259.815733 182.539042 
L 261.447163 176.293065 
L 263.078593 180.271695 
L 264.710023 178.81333 
L 266.341453 177.049668 
L 267.972883 175.067229 
L 269.604312 173.635659 
L 271.235742 179.508107 
L 272.867172 173.473098 
L 276.130032 176.526298 
L 277.761462 180.930419 
L 279.392892 178.476005 
L 281.024322 177.39234 
L 282.655751 179.060399 
L 284.287181 178.043302 
L 285.918611 172.010847 
L 287.550041 177.758584 
L 289.181471 176.898619 
L 290.812901 179.934761 
L 292.444331 179.561863 
L 294.075761 178.006529 
L 295.70719 179.739345 
L 297.33862 178.705366 
L 298.97005 177.359929 
L 300.60148 184.2979 
L 302.23291 176.042555 
L 303.86434 179.005896 
L 305.49577 179.867172 
L 307.1272 177.111936 
L 308.75863 176.441857 
L 310.390059 179.960973 
L 312.021489 179.463589 
L 313.652919 176.174696 
L 315.284349 173.522181 
L 316.915779 176.605406 
L 318.547209 176.136382 
L 320.178639 176.713161 
L 321.810069 177.057038 
L 323.441498 176.354746 
L 325.072928 176.568986 
L 326.704358 171.400671 
L 328.335788 177.0405 
L 329.967218 176.189473 
L 331.598648 175.508074 
L 333.230078 178.593094 
L 334.861508 176.299976 
L 336.492937 177.062077 
L 338.124367 181.180401 
L 339.755797 181.784066 
L 343.018657 172.44752 
L 344.650087 173.72991 
L 346.281517 179.734832 
L 347.912947 177.779068 
L 349.544376 178.069423 
L 351.175806 176.974374 
L 352.807236 178.136974 
L 354.438666 177.218554 
L 356.070096 182.615316 
L 357.701526 175.554058 
L 359.332956 175.817659 
L 360.964386 176.886949 
L 362.595815 178.821577 
L 364.227245 179.217238 
L 365.858675 170.512327 
L 367.490105 175.141429 
L 370.752965 176.96048 
L 372.384395 177.854458 
L 374.015825 175.445456 
L 375.647254 176.801702 
L 377.278684 174.599026 
L 378.910114 174.142503 
L 380.541544 178.674586 
L 382.172974 174.542332 
L 383.804404 175.960248 
L 385.435834 176.874797 
L 387.067264 177.274284 
L 388.698693 178.779434 
L 390.330123 178.50028 
L 391.961553 174.545273 
L 393.592983 179.290821 
L 395.224413 176.174752 
L 396.855843 176.709701 
L 398.487273 177.003296 
L 398.487273 177.003296 
" clip-path="url(#p6207514137)" style="fill: none; stroke-dasharray: 9.6,2.4,1.5,2.4; stroke-dashoffset: 0; stroke: #008000; stroke-width: 1.5"/>
   </g>
   <g id="line2d_23">
    <path d="M 73.832727 124.595736 
L 75.464157 83.303276 
L 77.095587 113.033152 
L 78.727017 113.219872 
L 80.358447 130.349667 
L 81.989877 118.230746 
L 83.621307 87.873977 
L 85.252736 107.331913 
L 86.884166 87.638327 
L 88.515596 97.128773 
L 90.147026 87.500693 
L 91.778456 83.12259 
L 93.409886 102.63458 
L 95.041316 97.714587 
L 96.672746 124.28774 
L 98.304175 87.909631 
L 99.935605 57.263658 
L 101.567035 97.583267 
L 103.198465 97.372386 
L 104.829895 97.838784 
L 106.461325 107.956971 
L 108.092755 82.958982 
L 109.724185 78.520747 
L 111.355614 124.365463 
L 112.987044 107.284666 
L 114.618474 118.495362 
L 116.249904 87.800887 
L 117.881334 92.843422 
L 119.512764 107.837995 
L 121.144194 107.723867 
L 122.775624 118.703959 
L 124.407053 88.145278 
L 126.038483 107.554278 
L 127.669913 102.710588 
L 129.301343 118.268172 
L 130.932773 92.796572 
L 132.564203 107.593191 
L 134.195633 92.990239 
L 137.458492 102.512995 
L 139.089922 97.403365 
L 142.352782 107.599764 
L 143.984212 107.109736 
L 145.615642 113.044001 
L 147.247072 107.787447 
L 148.878502 108.044284 
L 150.509931 92.382114 
L 152.141361 92.903439 
L 153.772791 112.872495 
L 155.404221 87.744079 
L 157.035651 113.062698 
L 158.667081 70.094652 
L 160.298511 102.514933 
L 161.929941 102.096505 
L 163.56137 102.417567 
L 165.1928 74.321582 
L 166.82423 92.484343 
L 168.45566 107.572179 
L 170.08709 97.236951 
L 171.71852 97.390627 
L 173.34995 102.839255 
L 174.98138 97.592035 
L 176.61281 118.600161 
L 178.244239 118.520182 
L 179.875669 102.770599 
L 181.507099 107.627774 
L 183.138529 61.30589 
L 184.769959 87.715606 
L 186.401389 93.29758 
L 188.032819 108.210968 
L 189.664249 92.820617 
L 191.295678 113.246247 
L 192.927108 118.884547 
L 194.558538 107.526184 
L 196.189968 107.999314 
L 197.821398 97.675464 
L 199.452828 118.531 
L 201.084258 88.040322 
L 202.715688 69.768739 
L 204.347117 97.312718 
L 205.978547 92.171029 
L 207.609977 74.141264 
L 209.241407 107.957173 
L 210.872837 101.941457 
L 212.504267 112.735763 
L 214.135697 118.064392 
L 215.767127 107.536636 
L 217.398556 92.280787 
L 219.029986 97.287896 
L 220.661416 87.560987 
L 222.292846 113.210592 
L 223.924276 107.71048 
L 227.187136 87.758262 
L 228.818566 108.076134 
L 230.449995 82.896132 
L 232.081425 112.976177 
L 233.712855 102.789969 
L 235.344285 103.308181 
L 236.975715 82.821282 
L 238.607145 113.373133 
L 240.238575 66.085723 
L 241.870005 87.87904 
L 243.501434 69.56728 
L 245.132864 113.091581 
L 246.764294 103.029493 
L 248.395724 102.346786 
L 250.027154 107.540292 
L 251.658584 107.662691 
L 253.290014 107.617122 
L 254.921444 102.583084 
L 256.552873 92.923724 
L 258.184303 102.631261 
L 259.815733 107.785597 
L 261.447163 78.349909 
L 263.078593 107.494684 
L 264.710023 102.841097 
L 266.341453 70.109682 
L 267.972883 92.495748 
L 269.604312 102.48514 
L 272.867172 112.812045 
L 274.498602 92.546209 
L 276.130032 78.372782 
L 277.761462 112.990123 
L 279.392892 119.139733 
L 281.024322 82.671068 
L 282.655751 97.821671 
L 284.287181 92.337099 
L 285.918611 83.094302 
L 287.550041 102.332803 
L 289.181471 108.097063 
L 290.812901 113.125153 
L 292.444331 107.673924 
L 294.075761 69.469227 
L 295.70719 113.364191 
L 297.33862 112.959872 
L 298.97005 102.821823 
L 300.60148 112.946156 
L 302.23291 92.621727 
L 303.86434 123.755974 
L 305.49577 107.511409 
L 307.1272 97.518722 
L 308.75863 74.050541 
L 310.390059 102.517237 
L 312.021489 92.913172 
L 313.652919 92.427315 
L 315.284349 83.018507 
L 316.915779 108.168755 
L 318.547209 87.752393 
L 320.178639 87.976012 
L 321.810069 97.575631 
L 323.441498 97.334166 
L 325.072928 102.725097 
L 326.704358 53.568 
L 328.335788 97.069793 
L 329.967218 107.526153 
L 331.598648 83.470659 
L 333.230078 102.486588 
L 334.861508 97.066471 
L 336.492937 107.204007 
L 338.124367 124.743114 
L 339.755797 118.754939 
L 341.387227 107.344735 
L 343.018657 87.854668 
L 344.650087 113.305446 
L 346.281517 108.16609 
L 347.912947 108.087237 
L 349.544376 92.529587 
L 351.175806 102.186281 
L 352.807236 92.990371 
L 354.438666 102.588569 
L 356.070096 113.0506 
L 357.701526 112.896698 
L 359.332956 87.861155 
L 360.964386 92.587257 
L 362.595815 118.46309 
L 364.227245 97.618695 
L 365.858675 73.983397 
L 367.490105 92.252187 
L 369.121535 107.872135 
L 370.752965 107.621176 
L 372.384395 107.224165 
L 374.015825 83.552993 
L 375.647254 70.147363 
L 377.278684 88.067116 
L 378.910114 92.537399 
L 380.541544 83.400131 
L 382.172974 102.368948 
L 383.804404 74.006547 
L 385.435834 107.76206 
L 387.067264 113.048698 
L 388.698693 87.361527 
L 390.330123 107.586175 
L 391.961553 118.742264 
L 393.592983 107.90807 
L 395.224413 118.766507 
L 396.855843 103.426282 
L 398.487273 78.447239 
L 398.487273 78.447239 
" clip-path="url(#p6207514137)" style="fill: none; stroke: #ff0000; stroke-width: 1.5; stroke-linecap: square"/>
   </g>
   <g id="patch_3">
    <path d="M 57.6 307.584 
L 57.6 41.472 
" style="fill: none; stroke: #000000; stroke-width: 0.8; stroke-linejoin: miter; stroke-linecap: square"/>
   </g>
   <g id="patch_4">
    <path d="M 414.72 307.584 
L 414.72 41.472 
" style="fill: none; stroke: #000000; stroke-width: 0.8; stroke-linejoin: miter; stroke-linecap: square"/>
   </g>
   <g id="patch_5">
    <path d="M 57.6 307.584 
L 414.72 307.584 
" style="fill: none; stroke: #000000; stroke-width: 0.8; stroke-linejoin: miter; stroke-linecap: square"/>
   </g>
   <g id="patch_6">
    <path d="M 57.6 41.472 
L 414.72 41.472 
" style="fill: none; stroke: #000000; stroke-width: 0.8; stroke-linejoin: miter; stroke-linecap: square"/>
   </g>
   <g id="text_13">
    <!-- Population's average and best fitness -->
    <g transform="translate(123.529687 35.472) scale(0.12 -0.12)">
     <defs>
      <path id="DejaVuSans-50" d="M 1259 4147 
L 1259 2394 
L 2053 2394 
Q 2494 2394 2734 2622 
Q 2975 2850 2975 3272 
Q 2975 3691 2734 3919 
Q 2494 4147 2053 4147 
L 1259 4147 
z
M 628 4666 
L 2053 4666 
Q 2838 4666 3239 4311 
Q 3641 3956 3641 3272 
Q 3641 2581 3239 2228 
Q 2838 1875 2053 1875 
L 1259 1875 
L 1259 0 
L 628 0 
L 628 4666 
z
" transform="scale(0.015625)"/>
      <path id="DejaVuSans-70" d="M 1159 525 
L 1159 -1331 
L 581 -1331 
L 581 3500 
L 1159 3500 
L 1159 2969 
Q 1341 3281 1617 3432 
Q 1894 3584 2278 3584 
Q 2916 3584 3314 3078 
Q 3713 2572 3713 1747 
Q 3713 922 3314 415 
Q 2916 -91 2278 -91 
Q 1894 -91 1617 61 
Q 1341 213 1159 525 
z
M 3116 1747 
Q 3116 2381 2855 2742 
Q 2594 3103 2138 3103 
Q 1681 3103 1420 2742 
Q 1159 2381 1159 1747 
Q 1159 1113 1420 752 
Q 1681 391 2138 391 
Q 2594 391 2855 752 
Q 3116 1113 3116 1747 
z
" transform="scale(0.015625)"/>
      <path id="DejaVuSans-75" d="M 544 1381 
L 544 3500 
L 1119 3500 
L 1119 1403 
Q 1119 906 1312 657 
Q 1506 409 1894 409 
Q 2359 409 2629 706 
Q 2900 1003 2900 1516 
L 2900 3500 
L 3475 3500 
L 3475 0 
L 2900 0 
L 2900 538 
Q 2691 219 2414 64 
Q 2138 -91 1772 -91 
Q 1169 -91 856 284 
Q 544 659 544 1381 
z
M 1991 3584 
L 1991 3584 
z
" transform="scale(0.015625)"/>
      <path id="DejaVuSans-6c" d="M 603 4863 
L 1178 4863 
L 1178 0 
L 603 0 
L 603 4863 
z
" transform="scale(0.015625)"/>
      <path id="DejaVuSans-27" d="M 1147 4666 
L 1147 2931 
L 616 2931 
L 616 4666 
L 1147 4666 
z
" transform="scale(0.015625)"/>
      <path id="DejaVuSans-20" transform="scale(0.015625)"/>
      <path id="DejaVuSans-76" d="M 191 3500 
L 800 3500 
L 1894 563 
L 2988 3500 
L 3597 3500 
L 2284 0 
L 1503 0 
L 191 3500 
z
" transform="scale(0.015625)"/>
      <path id="DejaVuSans-67" d="M 2906 1791 
Q 2906 2416 2648 2759 
Q 2391 3103 1925 3103 
Q 1463 3103 1205 2759 
Q 947 2416 947 1791 
Q 947 1169 1205 825 
Q 1463 481 1925 481 
Q 2391 481 2648 825 
Q 2906 1169 2906 1791 
z
M 3481 434 
Q 3481 -459 3084 -895 
Q 2688 -1331 1869 -1331 
Q 1566 -1331 1297 -1286 
Q 1028 -1241 775 -1147 
L 775 -588 
Q 1028 -725 1275 -790 
Q 1522 -856 1778 -856 
Q 2344 -856 2625 -561 
Q 2906 -266 2906 331 
L 2906 616 
Q 2728 306 2450 153 
Q 2172 0 1784 0 
Q 1141 0 747 490 
Q 353 981 353 1791 
Q 353 2603 747 3093 
Q 1141 3584 1784 3584 
Q 2172 3584 2450 3431 
Q 2728 3278 2906 2969 
L 2906 3500 
L 3481 3500 
L 3481 434 
z
" transform="scale(0.015625)"/>
      <path id="DejaVuSans-64" d="M 2906 2969 
L 2906 4863 
L 3481 4863 
L 3481 0 
L 2906 0 
L 2906 525 
Q 2725 213 2448 61 
Q 2172 -91 1784 -91 
Q 1150 -91 751 415 
Q 353 922 353 1747 
Q 353 2572 751 3078 
Q 1150 3584 1784 3584 
Q 2172 3584 2448 3432 
Q 2725 3281 2906 2969 
z
M 947 1747 
Q 947 1113 1208 752 
Q 1469 391 1925 391 
Q 2381 391 2643 752 
Q 2906 1113 2906 1747 
Q 2906 2381 2643 2742 
Q 2381 3103 1925 3103 
Q 1469 3103 1208 2742 
Q 947 2381 947 1747 
z
" transform="scale(0.015625)"/>
      <path id="DejaVuSans-62" d="M 3116 1747 
Q 3116 2381 2855 2742 
Q 2594 3103 2138 3103 
Q 1681 3103 1420 2742 
Q 1159 2381 1159 1747 
Q 1159 1113 1420 752 
Q 1681 391 2138 391 
Q 2594 391 2855 752 
Q 3116 1113 3116 1747 
z
M 1159 2969 
Q 1341 3281 1617 3432 
Q 1894 3584 2278 3584 
Q 2916 3584 3314 3078 
Q 3713 2572 3713 1747 
Q 3713 922 3314 415 
Q 2916 -91 2278 -91 
Q 1894 -91 1617 61 
Q 1341 213 1159 525 
L 1159 0 
L 581 0 
L 581 4863 
L 1159 4863 
L 1159 2969 
z
" transform="scale(0.015625)"/>
      <path id="DejaVuSans-66" d="M 2375 4863 
L 2375 4384 
L 1825 4384 
Q 1516 4384 1395 4259 
Q 1275 4134 1275 3809 
L 1275 3500 
L 2222 3500 
L 2222 3053 
L 1275 3053 
L 1275 0 
L 697 0 
L 697 3053 
L 147 3053 
L 147 3500 
L 697 3500 
L 697 3744 
Q 697 4328 969 4595 
Q 1241 4863 1831 4863 
L 2375 4863 
z
" transform="scale(0.015625)"/>
     </defs>
     <use xlink:href="#DejaVuSans-50"/>
     <use xlink:href="#DejaVuSans-6f" transform="translate(56.677734 0)"/>
     <use xlink:href="#DejaVuSans-70" transform="translate(117.859375 0)"/>
     <use xlink:href="#DejaVuSans-75" transform="translate(181.335938 0)"/>
     <use xlink:href="#DejaVuSans-6c" transform="translate(244.714844 0)"/>
     <use xlink:href="#DejaVuSans-61" transform="translate(272.498047 0)"/>
     <use xlink:href="#DejaVuSans-74" transform="translate(333.777344 0)"/>
     <use xlink:href="#DejaVuSans-69" transform="translate(372.986328 0)"/>
     <use xlink:href="#DejaVuSans-6f" transform="translate(400.769531 0)"/>
     <use xlink:href="#DejaVuSans-6e" transform="translate(461.951172 0)"/>
     <use xlink:href="#DejaVuSans-27" transform="translate(525.330078 0)"/>
     <use xlink:href="#DejaVuSans-73" transform="translate(552.820312 0)"/>
     <use xlink:href="#DejaVuSans-20" transform="translate(604.919922 0)"/>
     <use xlink:href="#DejaVuSans-61" transform="translate(636.707031 0)"/>
     <use xlink:href="#DejaVuSans-76" transform="translate(697.986328 0)"/>
     <use xlink:href="#DejaVuSans-65" transform="translate(757.166016 0)"/>
     <use xlink:href="#DejaVuSans-72" transform="translate(818.689453 0)"/>
     <use xlink:href="#DejaVuSans-61" transform="translate(859.802734 0)"/>
     <use xlink:href="#DejaVuSans-67" transform="translate(921.082031 0)"/>
     <use xlink:href="#DejaVuSans-65" transform="translate(984.558594 0)"/>
     <use xlink:href="#DejaVuSans-20" transform="translate(1046.082031 0)"/>
     <use xlink:href="#DejaVuSans-61" transform="translate(1077.869141 0)"/>
     <use xlink:href="#DejaVuSans-6e" transform="translate(1139.148438 0)"/>
     <use xlink:href="#DejaVuSans-64" transform="translate(1202.527344 0)"/>
     <use xlink:href="#DejaVuSans-20" transform="translate(1266.003906 0)"/>
     <use xlink:href="#DejaVuSans-62" transform="translate(1297.791016 0)"/>
     <use xlink:href="#DejaVuSans-65" transform="translate(1361.267578 0)"/>
     <use xlink:href="#DejaVuSans-73" transform="translate(1422.791016 0)"/>
     <use xlink:href="#DejaVuSans-74" transform="translate(1474.890625 0)"/>
     <use xlink:href="#DejaVuSans-20" transform="translate(1514.099609 0)"/>
     <use xlink:href="#DejaVuSans-66" transform="translate(1545.886719 0)"/>
     <use xlink:href="#DejaVuSans-69" transform="translate(1581.091797 0)"/>
     <use xlink:href="#DejaVuSans-74" transform="translate(1608.875 0)"/>
     <use xlink:href="#DejaVuSans-6e" transform="translate(1648.083984 0)"/>
     <use xlink:href="#DejaVuSans-65" transform="translate(1711.462891 0)"/>
     <use xlink:href="#DejaVuSans-73" transform="translate(1772.986328 0)"/>
     <use xlink:href="#DejaVuSans-73" transform="translate(1825.085938 0)"/>
    </g>
   </g>
   <g id="legend_1">
    <g id="patch_7">
     <path d="M 334.779375 302.584 
L 407.72 302.584 
Q 409.72 302.584 409.72 300.584 
L 409.72 257.549625 
Q 409.72 255.549625 407.72 255.549625 
L 334.779375 255.549625 
Q 332.779375 255.549625 332.779375 257.549625 
L 332.779375 300.584 
Q 332.779375 302.584 334.779375 302.584 
z
" style="fill: #ffffff; opacity: 0.8; stroke: #cccccc; stroke-linejoin: miter"/>
    </g>
    <g id="line2d_24">
     <path d="M 336.779375 263.648062 
L 346.779375 263.648062 
L 356.779375 263.648062 
" style="fill: none; stroke: #0000ff; stroke-width: 1.5; stroke-linecap: square"/>
    </g>
    <g id="text_14">
     <!-- average -->
     <g transform="translate(364.779375 267.148062) scale(0.1 -0.1)">
      <use xlink:href="#DejaVuSans-61"/>
      <use xlink:href="#DejaVuSans-76" transform="translate(61.279297 0)"/>
      <use xlink:href="#DejaVuSans-65" transform="translate(120.458984 0)"/>
      <use xlink:href="#DejaVuSans-72" transform="translate(181.982422 0)"/>
      <use xlink:href="#DejaVuSans-61" transform="translate(223.095703 0)"/>
      <use xlink:href="#DejaVuSans-67" transform="translate(284.375 0)"/>
      <use xlink:href="#DejaVuSans-65" transform="translate(347.851562 0)"/>
     </g>
    </g>
    <g id="line2d_25">
     <path d="M 336.779375 278.326188 
L 346.779375 278.326188 
L 356.779375 278.326188 
" style="fill: none; stroke-dasharray: 9.6,2.4,1.5,2.4; stroke-dashoffset: 0; stroke: #008000; stroke-width: 1.5"/>
    </g>
    <g id="text_15">
     <!-- +1 sd -->
     <g transform="translate(364.779375 281.826188) scale(0.1 -0.1)">
      <defs>
       <path id="DejaVuSans-2b" d="M 2944 4013 
L 2944 2272 
L 4684 2272 
L 4684 1741 
L 2944 1741 
L 2944 0 
L 2419 0 
L 2419 1741 
L 678 1741 
L 678 2272 
L 2419 2272 
L 2419 4013 
L 2944 4013 
z
" transform="scale(0.015625)"/>
      </defs>
      <use xlink:href="#DejaVuSans-2b"/>
      <use xlink:href="#DejaVuSans-31" transform="translate(83.789062 0)"/>
      <use xlink:href="#DejaVuSans-20" transform="translate(147.412109 0)"/>
      <use xlink:href="#DejaVuSans-73" transform="translate(179.199219 0)"/>
      <use xlink:href="#DejaVuSans-64" transform="translate(231.298828 0)"/>
     </g>
    </g>
    <g id="line2d_26">
     <path d="M 336.779375 293.004312 
L 346.779375 293.004312 
L 356.779375 293.004312 
" style="fill: none; stroke: #ff0000; stroke-width: 1.5; stroke-linecap: square"/>
    </g>
    <g id="text_16">
     <!-- best -->
     <g transform="translate(364.779375 296.504312) scale(0.1 -0.1)">
      <use xlink:href="#DejaVuSans-62"/>
      <use xlink:href="#DejaVuSans-65" transform="translate(63.476562 0)"/>
      <use xlink:href="#DejaVuSans-73" transform="translate(125 0)"/>
      <use xlink:href="#DejaVuSans-74" transform="translate(177.099609 0)"/>
     </g>
    </g>
   </g>
  </g>
 </g>
 <defs>
  <clipPath id="p6207514137">
   <rect x="57.6" y="41.472" width="357.12" height="266.112"/>
  </clipPath>
 </defs>
</svg>
