<?xml version="1.0" encoding="utf-8" standalone="no"?>
<!DOCTYPE svg PUBLIC "-//W3C//DTD SVG 1.1//EN"
  "http://www.w3.org/Graphics/SVG/1.1/DTD/svg11.dtd">
<svg xmlns:xlink="http://www.w3.org/1999/xlink" width="460.8pt" height="345.6pt" viewBox="0 0 460.8 345.6" xmlns="http://www.w3.org/2000/svg" version="1.1">
 <metadata>
  <rdf:RDF xmlns:dc="http://purl.org/dc/elements/1.1/" xmlns:cc="http://creativecommons.org/ns#" xmlns:rdf="http://www.w3.org/1999/02/22-rdf-syntax-ns#">
   <cc:Work>
    <dc:type rdf:resource="http://purl.org/dc/dcmitype/StillImage"/>
    <dc:date>2026-04-11T23:40:27.720553</dc:date>
    <dc:format>image/svg+xml</dc:format>
    <dc:creator>
     <cc:Agent>
      <dc:title>Matplotlib v3.10.8, https://matplotlib.org/</dc:title>
     </cc:Agent>
    </dc:creator>
   </cc:Work>
  </rdf:RDF>
 </metadata>
 <defs>
  <style type="text/css">*{stroke-linejoin: round; stroke-linecap: butt}</style>
 </defs>
 <g id="figure_1">
  <g id="patch_1">
   <path d="M 0 345.6 
L 460.8 345.6 
L 460.8 0 
L 0 0 
z
" style="fill: #ffffff"/>
  </g>
  <g id="axes_1">
   <g id="patch_2">
    <path d="M 57.6 307.584 
L 414.72 307.584 
L 414.72 41.472 
L 57.6 41.472 
z
" style="fill: #ffffff"/>
   </g>
   <g id="matplotlib.axis_1">
    <g id="xtick_1">
     <g id="line2d_1">
      <path d="M 73.832727 307.584 
L 73.832727 41.472 
" clip-path="url(#pb806fa98d2)" style="fill: none; stroke: #b0b0b0; stroke-width: 0.8; stroke-linecap: square"/>
     </g>
     <g id="line2d_2">
      <defs>
       <path id="m02b1480765" d="M 0 0 
L 0 3.5 
" style="stroke: #000000; stroke-width: 0.8"/>
      </defs>
      <g>
       <use xlink:href="#m02b1480765" x="73.832727" y="307.584" style="stroke: #000000; stroke-width: 0.8"/>
      </g>
     </g>
     <g id="text_1">
      <!-- 0 -->
      <g transform="translate(70.651477 322.182437) scale(0.1 -0.1)">
       <defs>
        <path id="DejaVuSans-30" d="M 2034 4250 
Q 1547 4250 1301 3770 
Q 1056 3291 1056 2328 
Q 1056 1369 1301 889 
Q 1547 409 2034 409 
Q 2525 409 2770 889 
Q 3016 1369 3016 2328 
Q 3016 3291 2770 3770 
Q 2525 4250 2034 4250 
z
M 2034 4750 
Q 2819 4750 3233 4129 
Q 3647 3509 3647 2328 
Q 3647 1150 3233 529 
Q 2819 -91 2034 -91 
Q 1250 -91 836 529 
Q 422 1150 422 2328 
Q 422 3509 836 4129 
Q 1250 4750 2034 4750 
z
" transform="scale(0.015625)"/>
       </defs>
       <use xlink:href="#DejaVuSans-30"/>
      </g>
     </g>
    </g>
    <g id="xtick_2">
     <g id="line2d_3">
      <path d="M 114.618474 307.584 
L 114.618474 41.472 
" clip-path="url(#pb806fa98d2)" style="fill: none; stroke: #b0b0b0; stroke-width: 0.8; stroke-linecap: square"/>
     </g>
     <g id="line2d_4">
      <g>
       <use xlink:href="#m02b1480765" x="114.618474" y="307.584" style="stroke: #000000; stroke-width: 0.8"/>
      </g>
     </g>
     <g id="text_2">
      <!-- 25 -->
      <g transform="translate(108.255974 322.182437) scale(0.1 -0.1)">
       <defs>
        <path id="DejaVuSans-32" d="M 1228 531 
L 3431 531 
L 3431 0 
L 469 0 
L 469 531 
Q 828 903 1448 1529 
Q 2069 2156 2228 2338 
Q 2531 2678 2651 2914 
Q 2772 3150 2772 3378 
Q 2772 3750 2511 3984 
Q 2250 4219 1831 4219 
Q 1534 4219 1204 4116 
Q 875 4013 500 3803 
L 500 4441 
Q 881 4594 1212 4672 
Q 1544 4750 1819 4750 
Q 2544 4750 2975 4387 
Q 3406 4025 3406 3419 
Q 3406 3131 3298 2873 
Q 3191 2616 2906 2266 
Q 2828 2175 2409 1742 
Q 1991 1309 1228 531 
z
" transform="scale(0.015625)"/>
        <path id="DejaVuSans-35" d="M 691 4666 
L 3169 4666 
L 3169 4134 
L 1269 4134 
L 1269 2991 
Q 1406 3038 1543 3061 
Q 1681 3084 1819 3084 
Q 2600 3084 3056 2656 
Q 3513 2228 3513 1497 
Q 3513 744 3044 326 
Q 2575 -91 1722 -91 
Q 1428 -91 1123 -41 
Q 819 9 494 109 
L 494 744 
Q 775 591 1075 516 
Q 1375 441 1709 441 
Q 2250 441 2565 725 
Q 2881 1009 2881 1497 
Q 2881 1984 2565 2268 
Q 2250 2553 1709 2553 
Q 1456 2553 1204 2497 
Q 953 2441 691 2322 
L 691 4666 
z
" transform="scale(0.015625)"/>
       </defs>
       <use xlink:href="#DejaVuSans-32"/>
       <use xlink:href="#DejaVuSans-35" transform="translate(63.623047 0)"/>
      </g>
     </g>
    </g>
    <g id="xtick_3">
     <g id="line2d_5">
      <path d="M 155.404221 307.584 
L 155.404221 41.472 
" clip-path="url(#pb806fa98d2)" style="fill: none; stroke: #b0b0b0; stroke-width: 0.8; stroke-linecap: square"/>
     </g>
     <g id="line2d_6">
      <g>
       <use xlink:href="#m02b1480765" x="155.404221" y="307.584" style="stroke: #000000; stroke-width: 0.8"/>
      </g>
     </g>
     <g id="text_3">
      <!-- 50 -->
      <g transform="translate(149.041721 322.182437) scale(0.1 -0.1)">
       <use xlink:href="#DejaVuSans-35"/>
       <use xlink:href="#DejaVuSans-30" transform="translate(63.623047 0)"/>
      </g>
     </g>
    </g>
    <g id="xtick_4">
     <g id="line2d_7">
      <path d="M 196.189968 307.584 
L 196.189968 41.472 
" clip-path="url(#pb806fa98d2)" style="fill: none; stroke: #b0b0b0; stroke-width: 0.8; stroke-linecap: square"/>
     </g>
     <g id="line2d_8">
      <g>
       <use xlink:href="#m02b1480765" x="196.189968" y="307.584" style="stroke: #000000; stroke-width: 0.8"/>
      </g>
     </g>
     <g id="text_4">
      <!-- 75 -->
      <g transform="translate(189.827468 322.182437) scale(0.1 -0.1)">
       <defs>
        <path id="DejaVuSans-37" d="M 525 4666 
L 3525 4666 
L 3525 4397 
L 1831 0 
L 1172 0 
L 2766 4134 
L 525 4134 
L 525 4666 
z
" transform="scale(0.015625)"/>
       </defs>
       <use xlink:href="#DejaVuSans-37"/>
       <use xlink:href="#DejaVuSans-35" transform="translate(63.623047 0)"/>
      </g>
     </g>
    </g>
    <g id="xtick_5">
     <g id="line2d_9">
      <path d="M 236.975715 307.584 
L 236.975715 41.472 
" clip-path="url(#pb806fa98d2)" style="fill: none; stroke: #b0b0b0; stroke-width: 0.8; stroke-linecap: square"/>
     </g>
     <g id="line2d_10">
      <g>
       <use xlink:href="#m02b1480765" x="236.975715" y="307.584" style="stroke: #000000; stroke-width: 0.8"/>
      </g>
     </g>
     <g id="text_5">
      <!-- 100 -->
      <g transform="translate(227.431965 322.182437) scale(0.1 -0.1)">
       <defs>
        <path id="DejaVuSans-31" d="M 794 531 
L 1825 531 
L 1825 4091 
L 703 3866 
L 703 4441 
L 1819 4666 
L 2450 4666 
L 2450 531 
L 3481 531 
L 3481 0 
L 794 0 
L 794 531 
z
" transform="scale(0.015625)"/>
       </defs>
       <use xlink:href="#DejaVuSans-31"/>
       <use xlink:href="#DejaVuSans-30" transform="translate(63.623047 0)"/>
       <use xlink:href="#DejaVuSans-30" transform="translate(127.246094 0)"/>
      </g>
     </g>
    </g>
    <g id="xtick_6">
     <g id="line2d_11">
      <path d="M 277.761462 307.584 
L 277.761462 41.472 
" clip-path="url(#pb806fa98d2)" style="fill: none; stroke: #b0b0b0; stroke-width: 0.8; stroke-linecap: square"/>
     </g>
     <g id="line2d_12">
      <g>
       <use xlink:href="#m02b1480765" x="277.761462" y="307.584" style="stroke: #000000; stroke-width: 0.8"/>
      </g>
     </g>
     <g id="text_6">
      <!-- 125 -->
      <g transform="translate(268.217712 322.182437) scale(0.1 -0.1)">
       <use xlink:href="#DejaVuSans-31"/>
       <use xlink:href="#DejaVuSans-32" transform="translate(63.623047 0)"/>
       <use xlink:href="#DejaVuSans-35" transform="translate(127.246094 0)"/>
      </g>
     </g>
    </g>
    <g id="xtick_7">
     <g id="line2d_13">
      <path d="M 318.547209 307.584 
L 318.547209 41.472 
" clip-path="url(#pb806fa98d2)" style="fill: none; stroke: #b0b0b0; stroke-width: 0.8; stroke-linecap: square"/>
     </g>
     <g id="line2d_14">
      <g>
       <use xlink:href="#m02b1480765" x="318.547209" y="307.584" style="stroke: #000000; stroke-width: 0.8"/>
      </g>
     </g>
     <g id="text_7">
      <!-- 150 -->
      <g transform="translate(309.003459 322.182437) scale(0.1 -0.1)">
       <use xlink:href="#DejaVuSans-31"/>
       <use xlink:href="#DejaVuSans-35" transform="translate(63.623047 0)"/>
       <use xlink:href="#DejaVuSans-30" transform="translate(127.246094 0)"/>
      </g>
     </g>
    </g>
    <g id="xtick_8">
     <g id="line2d_15">
      <path d="M 359.332956 307.584 
L 359.332956 41.472 
" clip-path="url(#pb806fa98d2)" style="fill: none; stroke: #b0b0b0; stroke-width: 0.8; stroke-linecap: square"/>
     </g>
     <g id="line2d_16">
      <g>
       <use xlink:href="#m02b1480765" x="359.332956" y="307.584" style="stroke: #000000; stroke-width: 0.8"/>
      </g>
     </g>
     <g id="text_8">
      <!-- 175 -->
      <g transform="translate(349.789206 322.182437) scale(0.1 -0.1)">
       <use xlink:href="#DejaVuSans-31"/>
       <use xlink:href="#DejaVuSans-37" transform="translate(63.623047 0)"/>
       <use xlink:href="#DejaVuSans-35" transform="translate(127.246094 0)"/>
      </g>
     </g>
    </g>
    <g id="xtick_9">
     <g id="line2d_17">
      <path d="M 400.118703 307.584 
L 400.118703 41.472 
" clip-path="url(#pb806fa98d2)" style="fill: none; stroke: #b0b0b0; stroke-width: 0.8; stroke-linecap: square"/>
     </g>
     <g id="line2d_18">
      <g>
       <use xlink:href="#m02b1480765" x="400.118703" y="307.584" style="stroke: #000000; stroke-width: 0.8"/>
      </g>
     </g>
     <g id="text_9">
      <!-- 200 -->
      <g transform="translate(390.574953 322.182437) scale(0.1 -0.1)">
       <use xlink:href="#DejaVuSans-32"/>
       <use xlink:href="#DejaVuSans-30" transform="translate(63.623047 0)"/>
       <use xlink:href="#DejaVuSans-30" transform="translate(127.246094 0)"/>
      </g>
     </g>
    </g>
    <g id="text_10">
     <!-- Generations -->
     <g transform="translate(205.662344 335.860562) scale(0.1 -0.1)">
      <defs>
       <path id="DejaVuSans-47" d="M 3809 666 
L 3809 1919 
L 2778 1919 
L 2778 2438 
L 4434 2438 
L 4434 434 
Q 4069 175 3628 42 
Q 3188 -91 2688 -91 
Q 1594 -91 976 548 
Q 359 1188 359 2328 
Q 359 3472 976 4111 
Q 1594 4750 2688 4750 
Q 3144 4750 3555 4637 
Q 3966 4525 4313 4306 
L 4313 3634 
Q 3963 3931 3569 4081 
Q 3175 4231 2741 4231 
Q 1884 4231 1454 3753 
Q 1025 3275 1025 2328 
Q 1025 1384 1454 906 
Q 1884 428 2741 428 
Q 3075 428 3337 486 
Q 3600 544 3809 666 
z
" transform="scale(0.015625)"/>
       <path id="DejaVuSans-65" d="M 3597 1894 
L 3597 1613 
L 953 1613 
Q 991 1019 1311 708 
Q 1631 397 2203 397 
Q 2534 397 2845 478 
Q 3156 559 3463 722 
L 3463 178 
Q 3153 47 2828 -22 
Q 2503 -91 2169 -91 
Q 1331 -91 842 396 
Q 353 884 353 1716 
Q 353 2575 817 3079 
Q 1281 3584 2069 3584 
Q 2775 3584 3186 3129 
Q 3597 2675 3597 1894 
z
M 3022 2063 
Q 3016 2534 2758 2815 
Q 2500 3097 2075 3097 
Q 1594 3097 1305 2825 
Q 1016 2553 972 2059 
L 3022 2063 
z
" transform="scale(0.015625)"/>
       <path id="DejaVuSans-6e" d="M 3513 2113 
L 3513 0 
L 2938 0 
L 2938 2094 
Q 2938 2591 2744 2837 
Q 2550 3084 2163 3084 
Q 1697 3084 1428 2787 
Q 1159 2491 1159 1978 
L 1159 0 
L 581 0 
L 581 3500 
L 1159 3500 
L 1159 2956 
Q 1366 3272 1645 3428 
Q 1925 3584 2291 3584 
Q 2894 3584 3203 3211 
Q 3513 2838 3513 2113 
z
" transform="scale(0.015625)"/>
       <path id="DejaVuSans-72" d="M 2631 2963 
Q 2534 3019 2420 3045 
Q 2306 3072 2169 3072 
Q 1681 3072 1420 2755 
Q 1159 2438 1159 1844 
L 1159 0 
L 581 0 
L 581 3500 
L 1159 3500 
L 1159 2956 
Q 1341 3275 1631 3429 
Q 1922 3584 2338 3584 
Q 2397 3584 2469 3576 
Q 2541 3569 2628 3553 
L 2631 2963 
z
" transform="scale(0.015625)"/>
       <path id="DejaVuSans-61" d="M 2194 1759 
Q 1497 1759 1228 1600 
Q 959 1441 959 1056 
Q 959 750 1161 570 
Q 1363 391 1709 391 
Q 2188 391 2477 730 
Q 2766 1069 2766 1631 
L 2766 1759 
L 2194 1759 
z
M 3341 1997 
L 3341 0 
L 2766 0 
L 2766 531 
Q 2569 213 2275 61 
Q 1981 -91 1556 -91 
Q 1019 -91 701 211 
Q 384 513 384 1019 
Q 384 1609 779 1909 
Q 1175 2209 1959 2209 
L 2766 2209 
L 2766 2266 
Q 2766 2663 2505 2880 
Q 2244 3097 1772 3097 
Q 1472 3097 1187 3025 
Q 903 2953 641 2809 
L 641 3341 
Q 956 3463 1253 3523 
Q 1550 3584 1831 3584 
Q 2591 3584 2966 3190 
Q 3341 2797 3341 1997 
z
" transform="scale(0.015625)"/>
       <path id="DejaVuSans-74" d="M 1172 4494 
L 1172 3500 
L 2356 3500 
L 2356 3053 
L 1172 3053 
L 1172 1153 
Q 1172 725 1289 603 
Q 1406 481 1766 481 
L 2356 481 
L 2356 0 
L 1766 0 
Q 1100 0 847 248 
Q 594 497 594 1153 
L 594 3053 
L 172 3053 
L 172 3500 
L 594 3500 
L 594 4494 
L 1172 4494 
z
" transform="scale(0.015625)"/>
       <path id="DejaVuSans-69" d="M 603 3500 
L 1178 3500 
L 1178 0 
L 603 0 
L 603 3500 
z
M 603 4863 
L 1178 4863 
L 1178 4134 
L 603 4134 
L 603 4863 
z
" transform="scale(0.015625)"/>
       <path id="DejaVuSans-6f" d="M 1959 3097 
Q 1497 3097 1228 2736 
Q 959 2375 959 1747 
Q 959 1119 1226 758 
Q 1494 397 1959 397 
Q 2419 397 2687 759 
Q 2956 1122 2956 1747 
Q 2956 2369 2687 2733 
Q 2419 3097 1959 3097 
z
M 1959 3584 
Q 2709 3584 3137 3096 
Q 3566 2609 3566 1747 
Q 3566 888 3137 398 
Q 2709 -91 1959 -91 
Q 1206 -91 779 398 
Q 353 888 353 1747 
Q 353 2609 779 3096 
Q 1206 3584 1959 3584 
z
" transform="scale(0.015625)"/>
       <path id="DejaVuSans-73" d="M 2834 3397 
L 2834 2853 
Q 2591 2978 2328 3040 
Q 2066 3103 1784 3103 
Q 1356 3103 1142 2972 
Q 928 2841 928 2578 
Q 928 2378 1081 2264 
Q 1234 2150 1697 2047 
L 1894 2003 
Q 2506 1872 2764 1633 
Q 3022 1394 3022 966 
Q 3022 478 2636 193 
Q 2250 -91 1575 -91 
Q 1294 -91 989 -36 
Q 684 19 347 128 
L 347 722 
Q 666 556 975 473 
Q 1284 391 1588 391 
Q 1994 391 2212 530 
Q 2431 669 2431 922 
Q 2431 1156 2273 1281 
Q 2116 1406 1581 1522 
L 1381 1569 
Q 847 1681 609 1914 
Q 372 2147 372 2553 
Q 372 3047 722 3315 
Q 1072 3584 1716 3584 
Q 2034 3584 2315 3537 
Q 2597 3491 2834 3397 
z
" transform="scale(0.015625)"/>
      </defs>
      <use xlink:href="#DejaVuSans-47"/>
      <use xlink:href="#DejaVuSans-65" transform="translate(77.490234 0)"/>
      <use xlink:href="#DejaVuSans-6e" transform="translate(139.013672 0)"/>
      <use xlink:href="#DejaVuSans-65" transform="translate(202.392578 0)"/>
      <use xlink:href="#DejaVuSans-72" transform="translate(263.916016 0)"/>
      <use xlink:href="#DejaVuSans-61" transform="translate(305.029297 0)"/>
      <use xlink:href="#DejaVuSans-74" transform="translate(366.308594 0)"/>
      <use xlink:href="#DejaVuSans-69" transform="translate(405.517578 0)"/>
      <use xlink:href="#DejaVuSans-6f" transform="translate(433.300781 0)"/>
      <use xlink:href="#DejaVuSans-6e" transform="translate(494.482422 0)"/>
      <use xlink:href="#DejaVuSans-73" transform="translate(557.861328 0)"/>
     </g>
    </g>
   </g>
   <g id="matplotlib.axis_2">
    <g id="ytick_1">
     <g id="line2d_19">
      <path d="M 57.6 119.104077 
L 414.72 119.104077 
" clip-path="url(#pb806fa98d2)" style="fill: none; stroke: #b0b0b0; stroke-width: 0.8; stroke-linecap: square"/>
     </g>
     <g id="line2d_20">
      <defs>
       <path id="mbdfb2e3c9f" d="M 0 0 
L -3.5 0 
" style="stroke: #000000; stroke-width: 0.8"/>
      </defs>
      <g>
       <use xlink:href="#mbdfb2e3c9f" x="57.6" y="119.104077" style="stroke: #000000; stroke-width: 0.8"/>
      </g>
     </g>
     <g id="text_11">
      <!-- $\mathdefault{10^{2}}$ -->
      <g transform="translate(33 122.903296) scale(0.1 -0.1)">
       <use xlink:href="#DejaVuSans-31" transform="translate(0 0.765625)"/>
       <use xlink:href="#DejaVuSans-30" transform="translate(63.623047 0.765625)"/>
       <use xlink:href="#DejaVuSans-32" transform="translate(128.203125 39.046875) scale(0.7)"/>
      </g>
     </g>
    </g>
    <g id="text_12">
     <!-- Fitness -->
     <g transform="translate(26.920312 191.845187) rotate(-90) scale(0.1 -0.1)">
      <defs>
       <path id="DejaVuSans-46" d="M 628 4666 
L 3309 4666 
L 3309 4134 
L 1259 4134 
L 1259 2759 
L 3109 2759 
L 3109 2228 
L 1259 2228 
L 1259 0 
L 628 0 
L 628 4666 
z
" transform="scale(0.015625)"/>
      </defs>
      <use xlink:href="#DejaVuSans-46"/>
      <use xlink:href="#DejaVuSans-69" transform="translate(50.269531 0)"/>
      <use xlink:href="#DejaVuSans-74" transform="translate(78.052734 0)"/>
      <use xlink:href="#DejaVuSans-6e" transform="translate(117.261719 0)"/>
      <use xlink:href="#DejaVuSans-65" transform="translate(180.640625 0)"/>
      <use xlink:href="#DejaVuSans-73" transform="translate(242.164062 0)"/>
      <use xlink:href="#DejaVuSans-73" transform="translate(294.263672 0)"/>
     </g>
    </g>
   </g>
   <g id="line2d_21">
    <path d="M 73.832727 295.488 
L 75.464157 280.385218 
L 77.095587 281.640409 
L 78.727017 273.47728 
L 80.358447 272.018065 
L 81.989877 270.042418 
L 83.621307 269.496933 
L 85.252736 265.207333 
L 86.884166 267.657486 
L 88.515596 262.311473 
L 90.147026 255.671962 
L 91.778456 253.065369 
L 93.409886 256.764206 
L 95.041316 249.685684 
L 96.672746 250.969393 
L 98.304175 253.724575 
L 99.935605 250.62315 
L 101.567035 256.081725 
L 103.198465 254.828627 
L 104.829895 251.539096 
L 106.461325 250.708354 
L 108.092755 252.602259 
L 109.724185 251.680505 
L 111.355614 249.038945 
L 112.987044 250.783707 
L 114.618474 251.272173 
L 116.249904 244.581553 
L 117.881334 247.349598 
L 119.512764 249.337314 
L 121.144194 247.157573 
L 122.775624 245.84843 
L 124.407053 243.524075 
L 126.038483 244.009375 
L 127.669913 243.936819 
L 129.301343 245.562377 
L 130.932773 241.273061 
L 132.564203 243.622455 
L 134.195633 248.351655 
L 135.827063 244.569114 
L 137.458492 238.662442 
L 139.089922 245.237532 
L 140.721352 239.813599 
L 142.352782 243.317557 
L 143.984212 241.521382 
L 145.615642 240.498643 
L 147.247072 238.546169 
L 148.878502 243.224715 
L 150.509931 240.911436 
L 152.141361 240.472417 
L 153.772791 236.462923 
L 155.404221 236.887425 
L 157.035651 238.194677 
L 158.667081 241.413724 
L 160.298511 236.192247 
L 161.929941 236.668245 
L 163.56137 237.436662 
L 165.1928 235.214919 
L 166.82423 238.605645 
L 168.45566 242.89225 
L 170.08709 237.427349 
L 171.71852 241.204612 
L 173.34995 239.910968 
L 174.98138 239.734603 
L 176.61281 242.205353 
L 178.244239 239.86036 
L 179.875669 238.171688 
L 181.507099 240.930376 
L 183.138529 237.854443 
L 184.769959 238.285006 
L 186.401389 237.206284 
L 188.032819 237.974352 
L 191.295678 238.720996 
L 192.927108 236.535357 
L 194.558538 239.601142 
L 196.189968 242.243548 
L 197.821398 239.88362 
L 199.452828 241.690316 
L 202.715688 237.828895 
L 204.347117 239.517019 
L 205.978547 239.41965 
L 207.609977 239.021804 
L 209.241407 237.535725 
L 210.872837 242.54646 
L 212.504267 238.356991 
L 214.135697 241.808201 
L 215.767127 241.005619 
L 217.398556 241.371488 
L 219.029986 238.461761 
L 220.661416 239.476561 
L 222.292846 242.543022 
L 223.924276 241.399883 
L 225.555706 238.603188 
L 227.187136 238.152499 
L 228.818566 239.952073 
L 230.449995 240.550168 
L 232.081425 238.862952 
L 233.712855 239.977447 
L 235.344285 238.127293 
L 236.975715 241.46215 
L 238.607145 240.832824 
L 240.238575 240.581902 
L 241.870005 242.133356 
L 243.501434 242.004148 
L 245.132864 238.706145 
L 246.764294 238.538519 
L 248.395724 240.526312 
L 250.027154 237.567166 
L 251.658584 238.943697 
L 253.290014 242.04321 
L 254.921444 240.075314 
L 256.552873 238.604977 
L 258.184303 239.574059 
L 259.815733 238.366467 
L 261.447163 240.42655 
L 263.078593 238.97952 
L 264.710023 239.41142 
L 266.341453 240.080417 
L 267.972883 241.95613 
L 269.604312 241.317136 
L 271.235742 239.300202 
L 272.867172 239.082434 
L 274.498602 239.470044 
L 276.130032 238.911275 
L 277.761462 238.917151 
L 279.392892 239.62485 
L 281.024322 239.362914 
L 282.655751 238.782838 
L 284.287181 240.59218 
L 285.918611 237.60337 
L 287.550041 240.464715 
L 289.181471 240.83049 
L 290.812901 240.311565 
L 292.444331 238.323633 
L 294.075761 237.758299 
L 295.70719 238.075845 
L 297.33862 238.655678 
L 298.97005 242.218995 
L 300.60148 238.381063 
L 302.23291 238.365109 
L 303.86434 241.418896 
L 305.49577 237.153321 
L 307.1272 240.142789 
L 308.75863 241.412439 
L 310.390059 239.581885 
L 312.021489 241.148449 
L 313.652919 240.42189 
L 315.284349 239.201151 
L 316.915779 240.497183 
L 318.547209 238.233851 
L 320.178639 238.272451 
L 321.810069 241.419585 
L 323.441498 238.830565 
L 325.072928 240.727397 
L 326.704358 240.930404 
L 328.335788 238.158819 
L 329.967218 242.922039 
L 331.598648 240.696347 
L 333.230078 239.272558 
L 336.492937 242.485017 
L 338.124367 241.115372 
L 339.755797 240.552654 
L 341.387227 241.306797 
L 343.018657 240.36147 
L 344.650087 241.539312 
L 346.281517 241.24185 
L 347.912947 240.332605 
L 349.544376 240.532543 
L 351.175806 241.659676 
L 352.807236 239.635201 
L 354.438666 240.090219 
L 356.070096 242.70341 
L 357.701526 242.209723 
L 360.964386 238.714015 
L 362.595815 238.736775 
L 364.227245 241.123817 
L 365.858675 239.682759 
L 367.490105 239.31161 
L 369.121535 240.650185 
L 370.752965 240.024757 
L 372.384395 240.911831 
L 377.278684 240.203321 
L 378.910114 240.093768 
L 380.541544 242.032407 
L 382.172974 239.740396 
L 383.804404 240.541793 
L 385.435834 240.8279 
L 387.067264 241.61885 
L 388.698693 240.594073 
L 390.330123 240.996446 
L 391.961553 240.676779 
L 393.592983 241.135179 
L 395.224413 241.373315 
L 396.855843 239.696657 
L 398.487273 240.066491 
L 398.487273 240.066491 
" clip-path="url(#pb806fa98d2)" style="fill: none; stroke: #0000ff; stroke-width: 1.5; stroke-linecap: square"/>
   </g>
   <g id="line2d_22">
    <path d="M 73.832727 239.433078 
L 75.464157 217.931847 
L 77.095587 219.820519 
L 78.727017 211.290793 
L 80.358447 210.533505 
L 81.989877 207.168233 
L 83.621307 210.415102 
L 85.252736 203.958406 
L 86.884166 203.048778 
L 88.515596 194.213472 
L 90.147026 188.762302 
L 91.778456 188.932633 
L 93.409886 192.888393 
L 95.041316 181.743304 
L 96.672746 186.868938 
L 98.304175 189.844935 
L 99.935605 185.576583 
L 101.567035 191.914956 
L 103.198465 191.880838 
L 104.829895 186.451949 
L 106.461325 187.600233 
L 108.092755 191.61939 
L 109.724185 188.378106 
L 111.355614 183.664456 
L 112.987044 188.526105 
L 114.618474 188.238739 
L 116.249904 179.807017 
L 117.881334 186.462623 
L 119.512764 186.860725 
L 121.144194 184.35632 
L 122.775624 180.319149 
L 124.407053 179.635985 
L 126.038483 181.274816 
L 127.669913 183.098974 
L 129.301343 182.610835 
L 130.932773 179.375628 
L 132.564203 182.83056 
L 134.195633 187.62932 
L 135.827063 183.383449 
L 137.458492 176.245974 
L 139.089922 183.175435 
L 140.721352 175.328506 
L 142.352782 181.775079 
L 143.984212 179.029317 
L 145.615642 179.129576 
L 147.247072 175.130544 
L 148.878502 179.708544 
L 150.509931 180.543687 
L 152.141361 179.96381 
L 153.772791 177.31215 
L 155.404221 175.046476 
L 157.035651 178.562073 
L 158.667081 180.033394 
L 160.298511 175.880024 
L 161.929941 174.104824 
L 163.56137 175.034542 
L 165.1928 174.082783 
L 166.82423 179.682421 
L 168.45566 183.075374 
L 170.08709 175.759946 
L 171.71852 180.239268 
L 173.34995 179.723089 
L 174.98138 179.756021 
L 176.61281 182.403455 
L 178.244239 179.833944 
L 179.875669 177.881944 
L 181.507099 180.426498 
L 183.138529 177.037205 
L 184.769959 179.513117 
L 186.401389 175.755461 
L 188.032819 177.928862 
L 189.664249 177.132793 
L 191.295678 178.54697 
L 192.927108 176.225048 
L 194.558538 182.769173 
L 196.189968 183.685898 
L 197.821398 180.293615 
L 199.452828 182.696147 
L 201.084258 178.771994 
L 202.715688 177.377046 
L 204.347117 179.285532 
L 207.609977 180.104307 
L 209.241407 177.823631 
L 210.872837 183.477935 
L 212.504267 179.038373 
L 214.135697 182.533558 
L 215.767127 180.429983 
L 217.398556 181.907695 
L 219.029986 178.687656 
L 220.661416 180.032062 
L 222.292846 184.004124 
L 223.924276 181.916593 
L 225.555706 177.945228 
L 227.187136 176.575382 
L 228.818566 181.899889 
L 230.449995 181.881426 
L 232.081425 177.393934 
L 233.712855 180.436973 
L 235.344285 177.773669 
L 236.975715 183.248377 
L 240.238575 181.230895 
L 241.870005 185.015942 
L 243.501434 183.022968 
L 245.132864 176.589024 
L 246.764294 178.261723 
L 248.395724 182.015351 
L 250.027154 178.004396 
L 251.658584 179.60518 
L 253.290014 183.665807 
L 254.921444 180.780649 
L 256.552873 180.003925 
L 258.184303 180.124477 
L 259.815733 179.289687 
L 261.447163 183.452386 
L 263.078593 179.715768 
L 264.710023 181.554878 
L 266.341453 183.126136 
L 267.972883 184.129804 
L 269.604312 181.970527 
L 271.235742 181.016627 
L 272.867172 181.061726 
L 274.498602 179.283031 
L 276.130032 180.010712 
L 277.761462 179.605694 
L 279.392892 181.04101 
L 281.024322 181.265251 
L 282.655751 179.470224 
L 284.287181 182.523935 
L 285.918611 176.492848 
L 287.550041 182.129344 
L 289.181471 183.815427 
L 290.812901 180.949714 
L 292.444331 178.357034 
L 294.075761 178.841844 
L 295.70719 177.330654 
L 297.33862 179.462474 
L 298.97005 184.63078 
L 300.60148 179.743159 
L 302.23291 179.563881 
L 303.86434 183.480265 
L 305.49577 177.823177 
L 307.1272 181.301578 
L 308.75863 183.924235 
L 310.390059 181.211239 
L 312.021489 182.080359 
L 313.652919 181.000578 
L 315.284349 178.697245 
L 316.915779 181.86159 
L 318.547209 177.088251 
L 320.178639 177.233792 
L 321.810069 182.758741 
L 323.441498 179.890867 
L 325.072928 181.311989 
L 326.704358 181.630821 
L 328.335788 178.439183 
L 329.967218 183.958516 
L 331.598648 181.185958 
L 333.230078 179.289687 
L 334.861508 181.830415 
L 336.492937 183.67361 
L 338.124367 181.84 
L 339.755797 181.276804 
L 341.387227 181.910733 
L 343.018657 180.5893 
L 344.650087 182.770804 
L 346.281517 181.892074 
L 347.912947 180.603223 
L 349.544376 180.542531 
L 351.175806 182.7012 
L 352.807236 180.642824 
L 354.438666 179.618517 
L 356.070096 185.924715 
L 357.701526 183.382738 
L 359.332956 181.376815 
L 360.964386 178.814244 
L 362.595815 177.265377 
L 364.227245 180.677865 
L 365.858675 180.867952 
L 367.490105 179.245235 
L 369.121535 181.014789 
L 370.752965 181.135015 
L 372.384395 182.179443 
L 374.015825 182.248181 
L 375.647254 181.157221 
L 377.278684 181.04091 
L 378.910114 180.498196 
L 380.541544 184.786517 
L 382.172974 179.274408 
L 383.804404 181.859997 
L 385.435834 181.601252 
L 387.067264 182.106493 
L 388.698693 180.695325 
L 390.330123 183.2746 
L 391.961553 181.7423 
L 393.592983 183.536429 
L 395.224413 181.04711 
L 396.855843 179.186636 
L 398.487273 180.476601 
L 398.487273 180.476601 
" clip-path="url(#pb806fa98d2)" style="fill: none; stroke-dasharray: 9.6,2.4,1.5,2.4; stroke-dashoffset: 0; stroke: #008000; stroke-width: 1.5"/>
   </g>
   <g id="line2d_23">
    <path d="M 73.832727 112.447671 
L 75.464157 102.088082 
L 77.095587 106.623643 
L 78.727017 96.883574 
L 80.358447 91.851632 
L 81.989877 101.700861 
L 83.621307 112.369563 
L 85.252736 107.1229 
L 86.884166 87.472481 
L 88.515596 56.917562 
L 90.147026 87.329717 
L 91.778456 107.009863 
L 93.409886 96.73695 
L 95.041316 78.551602 
L 96.672746 111.879636 
L 98.304175 92.587838 
L 99.935605 82.850507 
L 101.567035 97.16035 
L 103.198465 102.115661 
L 104.829895 96.91976 
L 106.461325 107.277086 
L 108.092755 112.254037 
L 109.724185 112.449984 
L 111.355614 96.893262 
L 112.987044 106.62121 
L 114.618474 97.135522 
L 116.249904 107.011835 
L 117.881334 112.451211 
L 119.512764 107.088749 
L 121.144194 117.942924 
L 122.775624 83.1957 
L 124.407053 106.665114 
L 126.038483 112.35047 
L 127.669913 112.365073 
L 129.301343 92.731067 
L 130.932773 101.939463 
L 132.564203 107.308593 
L 134.195633 118.040002 
L 135.827063 112.86309 
L 137.458492 92.319231 
L 139.089922 92.35979 
L 140.721352 92.186626 
L 142.352782 101.971085 
L 143.984212 87.999331 
L 145.615642 112.253534 
L 147.247072 87.147898 
L 148.878502 78.509195 
L 150.509931 107.353179 
L 152.141361 82.660028 
L 153.772791 112.979427 
L 155.404221 82.866041 
L 157.035651 87.353172 
L 158.667081 106.884487 
L 161.929941 87.852161 
L 163.56137 87.460257 
L 165.1928 97.199829 
L 166.82423 97.345619 
L 168.45566 101.953389 
L 170.08709 96.827433 
L 171.71852 107.241996 
L 173.34995 106.727102 
L 174.98138 97.588937 
L 176.61281 92.352462 
L 178.244239 102.752138 
L 179.875669 92.218127 
L 181.507099 87.370844 
L 183.138529 97.052823 
L 184.769959 112.436273 
L 186.401389 83.186271 
L 188.032819 92.445579 
L 189.664249 106.991805 
L 191.295678 102.076491 
L 192.927108 57.431933 
L 194.558538 107.177257 
L 196.189968 107.167036 
L 197.821398 82.692476 
L 199.452828 87.129408 
L 201.084258 101.739289 
L 202.715688 82.898265 
L 204.347117 102.01565 
L 205.978547 92.419253 
L 207.609977 117.553966 
L 209.241407 101.830272 
L 210.872837 102.273989 
L 212.504267 91.673784 
L 215.767127 101.593037 
L 217.398556 102.055292 
L 219.029986 92.076929 
L 220.661416 101.681476 
L 222.292846 82.50889 
L 223.924276 112.344787 
L 225.555706 78.285454 
L 227.187136 74.229136 
L 228.818566 101.348446 
L 230.449995 112.617477 
L 232.081425 97.619547 
L 233.712855 101.948834 
L 235.344285 87.55858 
L 236.975715 102.225408 
L 238.607145 106.585076 
L 240.238575 92.265822 
L 241.870005 111.935614 
L 243.501434 96.853536 
L 245.132864 74.130121 
L 246.764294 107.442814 
L 248.395724 102.369625 
L 250.027154 112.231904 
L 251.658584 92.582414 
L 253.290014 111.925232 
L 254.921444 78.420761 
L 256.552873 101.824103 
L 258.184303 91.822326 
L 259.815733 92.494667 
L 261.447163 112.470961 
L 263.078593 97.301717 
L 266.341453 117.907163 
L 267.972883 123.515501 
L 269.604312 97.269155 
L 271.235742 86.981455 
L 272.867172 113.160267 
L 274.498602 106.96214 
L 276.130032 111.944132 
L 277.761462 111.831608 
L 279.392892 91.852559 
L 281.024322 82.749876 
L 282.655751 101.407465 
L 284.287181 106.875711 
L 285.918611 102.382844 
L 287.550041 107.232165 
L 289.181471 123.535979 
L 292.444331 101.471716 
L 294.075761 106.723358 
L 295.70719 78.29644 
L 297.33862 91.950622 
L 298.97005 118.360988 
L 300.60148 107.373431 
L 302.23291 112.488111 
L 303.86434 87.406829 
L 305.49577 107.266793 
L 307.1272 78.739063 
L 308.75863 112.311532 
L 310.390059 112.207846 
L 312.021489 102.186268 
L 313.652919 102.467334 
L 315.284349 78.461107 
L 316.915779 112.495276 
L 318.547209 96.753796 
L 320.178639 97.105922 
L 321.810069 83.004633 
L 323.441498 82.845752 
L 325.072928 78.417458 
L 326.704358 101.791393 
L 328.335788 112.992684 
L 329.967218 112.244425 
L 331.598648 74.120852 
L 333.230078 101.917349 
L 334.861508 102.195699 
L 336.492937 92.049082 
L 338.124367 107.071202 
L 339.755797 106.817903 
L 341.387227 97.300563 
L 343.018657 61.226609 
L 344.650087 96.832967 
L 346.281517 102.086475 
L 347.912947 96.862851 
L 349.544376 107.393343 
L 351.175806 69.62088 
L 352.807236 102.60537 
L 354.438666 107.257841 
L 356.070096 117.476909 
L 357.701526 112.52722 
L 359.332956 101.555218 
L 360.964386 102.27333 
L 362.595815 82.813497 
L 364.227245 92.554966 
L 365.858675 117.898461 
L 367.490105 82.620438 
L 369.121535 78.599305 
L 370.752965 106.632208 
L 372.384395 96.797028 
L 374.015825 91.637355 
L 375.647254 107.21751 
L 377.278684 101.930201 
L 378.910114 107.012771 
L 380.541544 123.798352 
L 382.172974 96.840815 
L 383.804404 112.490097 
L 385.435834 112.366803 
L 387.067264 101.965965 
L 390.330123 112.723359 
L 391.961553 101.680351 
L 393.592983 118.195121 
L 395.224413 53.568 
L 396.855843 101.342225 
L 398.487273 97.334531 
L 398.487273 97.334531 
" clip-path="url(#pb806fa98d2)" style="fill: none; stroke: #ff0000; stroke-width: 1.5; stroke-linecap: square"/>
   </g>
   <g id="patch_3">
    <path d="M 57.6 307.584 
L 57.6 41.472 
" style="fill: none; stroke: #000000; stroke-width: 0.8; stroke-linejoin: miter; stroke-linecap: square"/>
   </g>
   <g id="patch_4">
    <path d="M 414.72 307.584 
L 414.72 41.472 
" style="fill: none; stroke: #000000; stroke-width: 0.8; stroke-linejoin: miter; stroke-linecap: square"/>
   </g>
   <g id="patch_5">
    <path d="M 57.6 307.584 
L 414.72 307.584 
" style="fill: none; stroke: #000000; stroke-width: 0.8; stroke-linejoin: miter; stroke-linecap: square"/>
   </g>
   <g id="patch_6">
    <path d="M 57.6 41.472 
L 414.72 41.472 
" style="fill: none; stroke: #000000; stroke-width: 0.8; stroke-linejoin: miter; stroke-linecap: square"/>
   </g>
   <g id="text_13">
    <!-- Population's average and best fitness -->
    <g transform="translate(123.529687 35.472) scale(0.12 -0.12)">
     <defs>
      <path id="DejaVuSans-50" d="M 1259 4147 
L 1259 2394 
L 2053 2394 
Q 2494 2394 2734 2622 
Q 2975 2850 2975 3272 
Q 2975 3691 2734 3919 
Q 2494 4147 2053 4147 
L 1259 4147 
z
M 628 4666 
L 2053 4666 
Q 2838 4666 3239 4311 
Q 3641 3956 3641 3272 
Q 3641 2581 3239 2228 
Q 2838 1875 2053 1875 
L 1259 1875 
L 1259 0 
L 628 0 
L 628 4666 
z
" transform="scale(0.015625)"/>
      <path id="DejaVuSans-70" d="M 1159 525 
L 1159 -1331 
L 581 -1331 
L 581 3500 
L 1159 3500 
L 1159 2969 
Q 1341 3281 1617 3432 
Q 1894 3584 2278 3584 
Q 2916 3584 3314 3078 
Q 3713 2572 3713 1747 
Q 3713 922 3314 415 
Q 2916 -91 2278 -91 
Q 1894 -91 1617 61 
Q 1341 213 1159 525 
z
M 3116 1747 
Q 3116 2381 2855 2742 
Q 2594 3103 2138 3103 
Q 1681 3103 1420 2742 
Q 1159 2381 1159 1747 
Q 1159 1113 1420 752 
Q 1681 391 2138 391 
Q 2594 391 2855 752 
Q 3116 1113 3116 1747 
z
" transform="scale(0.015625)"/>
      <path id="DejaVuSans-75" d="M 544 1381 
L 544 3500 
L 1119 3500 
L 1119 1403 
Q 1119 906 1312 657 
Q 1506 409 1894 409 
Q 2359 409 2629 706 
Q 2900 1003 2900 1516 
L 2900 3500 
L 3475 3500 
L 3475 0 
L 2900 0 
L 2900 538 
Q 2691 219 2414 64 
Q 2138 -91 1772 -91 
Q 1169 -91 856 284 
Q 544 659 544 1381 
z
M 1991 3584 
L 1991 3584 
z
" transform="scale(0.015625)"/>
      <path id="DejaVuSans-6c" d="M 603 4863 
L 1178 4863 
L 1178 0 
L 603 0 
L 603 4863 
z
" transform="scale(0.015625)"/>
      <path id="DejaVuSans-27" d="M 1147 4666 
L 1147 2931 
L 616 2931 
L 616 4666 
L 1147 4666 
z
" transform="scale(0.015625)"/>
      <path id="DejaVuSans-20" transform="scale(0.015625)"/>
      <path id="DejaVuSans-76" d="M 191 3500 
L 800 3500 
L 1894 563 
L 2988 3500 
L 3597 3500 
L 2284 0 
L 1503 0 
L 191 3500 
z
" transform="scale(0.015625)"/>
      <path id="DejaVuSans-67" d="M 2906 1791 
Q 2906 2416 2648 2759 
Q 2391 3103 1925 3103 
Q 1463 3103 1205 2759 
Q 947 2416 947 1791 
Q 947 1169 1205 825 
Q 1463 481 1925 481 
Q 2391 481 2648 825 
Q 2906 1169 2906 1791 
z
M 3481 434 
Q 3481 -459 3084 -895 
Q 2688 -1331 1869 -1331 
Q 1566 -1331 1297 -1286 
Q 1028 -1241 775 -1147 
L 775 -588 
Q 1028 -725 1275 -790 
Q 1522 -856 1778 -856 
Q 2344 -856 2625 -561 
Q 2906 -266 2906 331 
L 2906 616 
Q 2728 306 2450 153 
Q 2172 0 1784 0 
Q 1141 0 747 490 
Q 353 981 353 1791 
Q 353 2603 747 3093 
Q 1141 3584 1784 3584 
Q 2172 3584 2450 3431 
Q 2728 3278 2906 2969 
L 2906 3500 
L 3481 3500 
L 3481 434 
z
" transform="scale(0.015625)"/>
      <path id="DejaVuSans-64" d="M 2906 2969 
L 2906 4863 
L 3481 4863 
L 3481 0 
L 2906 0 
L 2906 525 
Q 2725 213 2448 61 
Q 2172 -91 1784 -91 
Q 1150 -91 751 415 
Q 353 922 353 1747 
Q 353 2572 751 3078 
Q 1150 3584 1784 3584 
Q 2172 3584 2448 3432 
Q 2725 3281 2906 2969 
z
M 947 1747 
Q 947 1113 1208 752 
Q 1469 391 1925 391 
Q 2381 391 2643 752 
Q 2906 1113 2906 1747 
Q 2906 2381 2643 2742 
Q 2381 3103 1925 3103 
Q 1469 3103 1208 2742 
Q 947 2381 947 1747 
z
" transform="scale(0.015625)"/>
      <path id="DejaVuSans-62" d="M 3116 1747 
Q 3116 2381 2855 2742 
Q 2594 3103 2138 3103 
Q 1681 3103 1420 2742 
Q 1159 2381 1159 1747 
Q 1159 1113 1420 752 
Q 1681 391 2138 391 
Q 2594 391 2855 752 
Q 3116 1113 3116 1747 
z
M 1159 2969 
Q 1341 3281 1617 3432 
Q 1894 3584 2278 3584 
Q 2916 3584 3314 3078 
Q 3713 2572 3713 1747 
Q 3713 922 3314 415 
Q 2916 -91 2278 -91 
Q 1894 -91 1617 61 
Q 1341 213 1159 525 
L 1159 0 
L 581 0 
L 581 4863 
L 1159 4863 
L 1159 2969 
z
" transform="scale(0.015625)"/>
      <path id="DejaVuSans-66" d="M 2375 4863 
L 2375 4384 
L 1825 4384 
Q 1516 4384 1395 4259 
Q 1275 4134 1275 3809 
L 1275 3500 
L 2222 3500 
L 2222 3053 
L 1275 3053 
L 1275 0 
L 697 0 
L 697 3053 
L 147 3053 
L 147 3500 
L 697 3500 
L 697 3744 
Q 697 4328 969 4595 
Q 1241 4863 1831 4863 
L 2375 4863 
z
" transform="scale(0.015625)"/>
     </defs>
     <use xlink:href="#DejaVuSans-50"/>
     <use xlink:href="#DejaVuSans-6f" transform="translate(56.677734 0)"/>
     <use xlink:href="#DejaVuSans-70" transform="translate(117.859375 0)"/>
     <use xlink:href="#DejaVuSans-75" transform="translate(181.335938 0)"/>
     <use xlink:href="#DejaVuSans-6c" transform="translate(244.714844 0)"/>
     <use xlink:href="#DejaVuSans-61" transform="translate(272.498047 0)"/>
     <use xlink:href="#DejaVuSans-74" transform="translate(333.777344 0)"/>
     <use xlink:href="#DejaVuSans-69" transform="translate(372.986328 0)"/>
     <use xlink:href="#DejaVuSans-6f" transform="translate(400.769531 0)"/>
     <use xlink:href="#DejaVuSans-6e" transform="translate(461.951172 0)"/>
     <use xlink:href="#DejaVuSans-27" transform="translate(525.330078 0)"/>
     <use xlink:href="#DejaVuSans-73" transform="translate(552.820312 0)"/>
     <use xlink:href="#DejaVuSans-20" transform="translate(604.919922 0)"/>
     <use xlink:href="#DejaVuSans-61" transform="translate(636.707031 0)"/>
     <use xlink:href="#DejaVuSans-76" transform="translate(697.986328 0)"/>
     <use xlink:href="#DejaVuSans-65" transform="translate(757.166016 0)"/>
     <use xlink:href="#DejaVuSans-72" transform="translate(818.689453 0)"/>
     <use xlink:href="#DejaVuSans-61" transform="translate(859.802734 0)"/>
     <use xlink:href="#DejaVuSans-67" transform="translate(921.082031 0)"/>
     <use xlink:href="#DejaVuSans-65" transform="translate(984.558594 0)"/>
     <use xlink:href="#DejaVuSans-20" transform="translate(1046.082031 0)"/>
     <use xlink:href="#DejaVuSans-61" transform="translate(1077.869141 0)"/>
     <use xlink:href="#DejaVuSans-6e" transform="translate(1139.148438 0)"/>
     <use xlink:href="#DejaVuSans-64" transform="translate(1202.527344 0)"/>
     <use xlink:href="#DejaVuSans-20" transform="translate(1266.003906 0)"/>
     <use xlink:href="#DejaVuSans-62" transform="translate(1297.791016 0)"/>
     <use xlink:href="#DejaVuSans-65" transform="translate(1361.267578 0)"/>
     <use xlink:href="#DejaVuSans-73" transform="translate(1422.791016 0)"/>
     <use xlink:href="#DejaVuSans-74" transform="translate(1474.890625 0)"/>
     <use xlink:href="#DejaVuSans-20" transform="translate(1514.099609 0)"/>
     <use xlink:href="#DejaVuSans-66" transform="translate(1545.886719 0)"/>
     <use xlink:href="#DejaVuSans-69" transform="translate(1581.091797 0)"/>
     <use xlink:href="#DejaVuSans-74" transform="translate(1608.875 0)"/>
     <use xlink:href="#DejaVuSans-6e" transform="translate(1648.083984 0)"/>
     <use xlink:href="#DejaVuSans-65" transform="translate(1711.462891 0)"/>
     <use xlink:href="#DejaVuSans-73" transform="translate(1772.986328 0)"/>
     <use xlink:href="#DejaVuSans-73" transform="translate(1825.085938 0)"/>
    </g>
   </g>
   <g id="legend_1">
    <g id="patch_7">
     <path d="M 334.779375 302.584 
L 407.72 302.584 
Q 409.72 302.584 409.72 300.584 
L 409.72 257.549625 
Q 409.72 255.549625 407.72 255.549625 
L 334.779375 255.549625 
Q 332.779375 255.549625 332.779375 257.549625 
L 332.779375 300.584 
Q 332.779375 302.584 334.779375 302.584 
z
" style="fill: #ffffff; opacity: 0.8; stroke: #cccccc; stroke-linejoin: miter"/>
    </g>
    <g id="line2d_24">
     <path d="M 336.779375 263.648062 
L 346.779375 263.648062 
L 356.779375 263.648062 
" style="fill: none; stroke: #0000ff; stroke-width: 1.5; stroke-linecap: square"/>
    </g>
    <g id="text_14">
     <!-- average -->
     <g transform="translate(364.779375 267.148062) scale(0.1 -0.1)">
      <use xlink:href="#DejaVuSans-61"/>
      <use xlink:href="#DejaVuSans-76" transform="translate(61.279297 0)"/>
      <use xlink:href="#DejaVuSans-65" transform="translate(120.458984 0)"/>
      <use xlink:href="#DejaVuSans-72" transform="translate(181.982422 0)"/>
      <use xlink:href="#DejaVuSans-61" transform="translate(223.095703 0)"/>
      <use xlink:href="#DejaVuSans-67" transform="translate(284.375 0)"/>
      <use xlink:href="#DejaVuSans-65" transform="translate(347.851562 0)"/>
     </g>
    </g>
    <g id="line2d_25">
     <path d="M 336.779375 278.326188 
L 346.779375 278.326188 
L 356.779375 278.326188 
" style="fill: none; stroke-dasharray: 9.6,2.4,1.5,2.4; stroke-dashoffset: 0; stroke: #008000; stroke-width: 1.5"/>
    </g>
    <g id="text_15">
     <!-- +1 sd -->
     <g transform="translate(364.779375 281.826188) scale(0.1 -0.1)">
      <defs>
       <path id="DejaVuSans-2b" d="M 2944 4013 
L 2944 2272 
L 4684 2272 
L 4684 1741 
L 2944 1741 
L 2944 0 
L 2419 0 
L 2419 1741 
L 678 1741 
L 678 2272 
L 2419 2272 
L 2419 4013 
L 2944 4013 
z
" transform="scale(0.015625)"/>
      </defs>
      <use xlink:href="#DejaVuSans-2b"/>
      <use xlink:href="#DejaVuSans-31" transform="translate(83.789062 0)"/>
      <use xlink:href="#DejaVuSans-20" transform="translate(147.412109 0)"/>
      <use xlink:href="#DejaVuSans-73" transform="translate(179.199219 0)"/>
      <use xlink:href="#DejaVuSans-64" transform="translate(231.298828 0)"/>
     </g>
    </g>
    <g id="line2d_26">
     <path d="M 336.779375 293.004312 
L 346.779375 293.004312 
L 356.779375 293.004312 
" style="fill: none; stroke: #ff0000; stroke-width: 1.5; stroke-linecap: square"/>
    </g>
    <g id="text_16">
     <!-- best -->
     <g transform="translate(364.779375 296.504312) scale(0.1 -0.1)">
      <use xlink:href="#DejaVuSans-62"/>
      <use xlink:href="#DejaVuSans-65" transform="translate(63.476562 0)"/>
      <use xlink:href="#DejaVuSans-73" transform="translate(125 0)"/>
      <use xlink:href="#DejaVuSans-74" transform="translate(177.099609 0)"/>
     </g>
    </g>
   </g>
  </g>
 </g>
 <defs>
  <clipPath id="pb806fa98d2">
   <rect x="57.6" y="41.472" width="357.12" height="266.112"/>
  </clipPath>
 </defs>
</svg>
