<?xml version="1.0" encoding="utf-8" standalone="no"?>
<!DOCTYPE svg PUBLIC "-//W3C//DTD SVG 1.1//EN"
  "http://www.w3.org/Graphics/SVG/1.1/DTD/svg11.dtd">
<svg xmlns:xlink="http://www.w3.org/1999/xlink" width="460.8pt" height="345.6pt" viewBox="0 0 460.8 345.6" xmlns="http://www.w3.org/2000/svg" version="1.1">
 <metadata>
  <rdf:RDF xmlns:dc="http://purl.org/dc/elements/1.1/" xmlns:cc="http://creativecommons.org/ns#" xmlns:rdf="http://www.w3.org/1999/02/22-rdf-syntax-ns#">
   <cc:Work>
    <dc:type rdf:resource="http://purl.org/dc/dcmitype/StillImage"/>
    <dc:date>2026-04-12T00:00:15.212527</dc:date>
    <dc:format>image/svg+xml</dc:format>
    <dc:creator>
     <cc:Agent>
      <dc:title>Matplotlib v3.10.8, https://matplotlib.org/</dc:title>
     </cc:Agent>
    </dc:creator>
   </cc:Work>
  </rdf:RDF>
 </metadata>
 <defs>
  <style type="text/css">*{stroke-linejoin: round; stroke-linecap: butt}</style>
 </defs>
 <g id="figure_1">
  <g id="patch_1">
   <path d="M 0 345.6 
L 460.8 345.6 
L 460.8 0 
L 0 0 
z
" style="fill: #ffffff"/>
  </g>
  <g id="axes_1">
   <g id="patch_2">
    <path d="M 57.6 307.584 
L 414.72 307.584 
L 414.72 41.472 
L 57.6 41.472 
z
" style="fill: #ffffff"/>
   </g>
   <g id="matplotlib.axis_1">
    <g id="xtick_1">
     <g id="line2d_1">
      <path d="M 73.832727 307.584 
L 73.832727 41.472 
" clip-path="url(#pd3fe3d49bd)" style="fill: none; stroke: #b0b0b0; stroke-width: 0.8; stroke-linecap: square"/>
     </g>
     <g id="line2d_2">
      <defs>
       <path id="m126c7455ff" d="M 0 0 
L 0 3.5 
" style="stroke: #000000; stroke-width: 0.8"/>
      </defs>
      <g>
       <use xlink:href="#m126c7455ff" x="73.832727" y="307.584" style="stroke: #000000; stroke-width: 0.8"/>
      </g>
     </g>
     <g id="text_1">
      <!-- 0 -->
      <g transform="translate(70.651477 322.182437) scale(0.1 -0.1)">
       <defs>
        <path id="DejaVuSans-30" d="M 2034 4250 
Q 1547 4250 1301 3770 
Q 1056 3291 1056 2328 
Q 1056 1369 1301 889 
Q 1547 409 2034 409 
Q 2525 409 2770 889 
Q 3016 1369 3016 2328 
Q 3016 3291 2770 3770 
Q 2525 4250 2034 4250 
z
M 2034 4750 
Q 2819 4750 3233 4129 
Q 3647 3509 3647 2328 
Q 3647 1150 3233 529 
Q 2819 -91 2034 -91 
Q 1250 -91 836 529 
Q 422 1150 422 2328 
Q 422 3509 836 4129 
Q 1250 4750 2034 4750 
z
" transform="scale(0.015625)"/>
       </defs>
       <use xlink:href="#DejaVuSans-30"/>
      </g>
     </g>
    </g>
    <g id="xtick_2">
     <g id="line2d_3">
      <path d="M 114.618474 307.584 
L 114.618474 41.472 
" clip-path="url(#pd3fe3d49bd)" style="fill: none; stroke: #b0b0b0; stroke-width: 0.8; stroke-linecap: square"/>
     </g>
     <g id="line2d_4">
      <g>
       <use xlink:href="#m126c7455ff" x="114.618474" y="307.584" style="stroke: #000000; stroke-width: 0.8"/>
      </g>
     </g>
     <g id="text_2">
      <!-- 25 -->
      <g transform="translate(108.255974 322.182437) scale(0.1 -0.1)">
       <defs>
        <path id="DejaVuSans-32" d="M 1228 531 
L 3431 531 
L 3431 0 
L 469 0 
L 469 531 
Q 828 903 1448 1529 
Q 2069 2156 2228 2338 
Q 2531 2678 2651 2914 
Q 2772 3150 2772 3378 
Q 2772 3750 2511 3984 
Q 2250 4219 1831 4219 
Q 1534 4219 1204 4116 
Q 875 4013 500 3803 
L 500 4441 
Q 881 4594 1212 4672 
Q 1544 4750 1819 4750 
Q 2544 4750 2975 4387 
Q 3406 4025 3406 3419 
Q 3406 3131 3298 2873 
Q 3191 2616 2906 2266 
Q 2828 2175 2409 1742 
Q 1991 1309 1228 531 
z
" transform="scale(0.015625)"/>
        <path id="DejaVuSans-35" d="M 691 4666 
L 3169 4666 
L 3169 4134 
L 1269 4134 
L 1269 2991 
Q 1406 3038 1543 3061 
Q 1681 3084 1819 3084 
Q 2600 3084 3056 2656 
Q 3513 2228 3513 1497 
Q 3513 744 3044 326 
Q 2575 -91 1722 -91 
Q 1428 -91 1123 -41 
Q 819 9 494 109 
L 494 744 
Q 775 591 1075 516 
Q 1375 441 1709 441 
Q 2250 441 2565 725 
Q 2881 1009 2881 1497 
Q 2881 1984 2565 2268 
Q 2250 2553 1709 2553 
Q 1456 2553 1204 2497 
Q 953 2441 691 2322 
L 691 4666 
z
" transform="scale(0.015625)"/>
       </defs>
       <use xlink:href="#DejaVuSans-32"/>
       <use xlink:href="#DejaVuSans-35" transform="translate(63.623047 0)"/>
      </g>
     </g>
    </g>
    <g id="xtick_3">
     <g id="line2d_5">
      <path d="M 155.404221 307.584 
L 155.404221 41.472 
" clip-path="url(#pd3fe3d49bd)" style="fill: none; stroke: #b0b0b0; stroke-width: 0.8; stroke-linecap: square"/>
     </g>
     <g id="line2d_6">
      <g>
       <use xlink:href="#m126c7455ff" x="155.404221" y="307.584" style="stroke: #000000; stroke-width: 0.8"/>
      </g>
     </g>
     <g id="text_3">
      <!-- 50 -->
      <g transform="translate(149.041721 322.182437) scale(0.1 -0.1)">
       <use xlink:href="#DejaVuSans-35"/>
       <use xlink:href="#DejaVuSans-30" transform="translate(63.623047 0)"/>
      </g>
     </g>
    </g>
    <g id="xtick_4">
     <g id="line2d_7">
      <path d="M 196.189968 307.584 
L 196.189968 41.472 
" clip-path="url(#pd3fe3d49bd)" style="fill: none; stroke: #b0b0b0; stroke-width: 0.8; stroke-linecap: square"/>
     </g>
     <g id="line2d_8">
      <g>
       <use xlink:href="#m126c7455ff" x="196.189968" y="307.584" style="stroke: #000000; stroke-width: 0.8"/>
      </g>
     </g>
     <g id="text_4">
      <!-- 75 -->
      <g transform="translate(189.827468 322.182437) scale(0.1 -0.1)">
       <defs>
        <path id="DejaVuSans-37" d="M 525 4666 
L 3525 4666 
L 3525 4397 
L 1831 0 
L 1172 0 
L 2766 4134 
L 525 4134 
L 525 4666 
z
" transform="scale(0.015625)"/>
       </defs>
       <use xlink:href="#DejaVuSans-37"/>
       <use xlink:href="#DejaVuSans-35" transform="translate(63.623047 0)"/>
      </g>
     </g>
    </g>
    <g id="xtick_5">
     <g id="line2d_9">
      <path d="M 236.975715 307.584 
L 236.975715 41.472 
" clip-path="url(#pd3fe3d49bd)" style="fill: none; stroke: #b0b0b0; stroke-width: 0.8; stroke-linecap: square"/>
     </g>
     <g id="line2d_10">
      <g>
       <use xlink:href="#m126c7455ff" x="236.975715" y="307.584" style="stroke: #000000; stroke-width: 0.8"/>
      </g>
     </g>
     <g id="text_5">
      <!-- 100 -->
      <g transform="translate(227.431965 322.182437) scale(0.1 -0.1)">
       <defs>
        <path id="DejaVuSans-31" d="M 794 531 
L 1825 531 
L 1825 4091 
L 703 3866 
L 703 4441 
L 1819 4666 
L 2450 4666 
L 2450 531 
L 3481 531 
L 3481 0 
L 794 0 
L 794 531 
z
" transform="scale(0.015625)"/>
       </defs>
       <use xlink:href="#DejaVuSans-31"/>
       <use xlink:href="#DejaVuSans-30" transform="translate(63.623047 0)"/>
       <use xlink:href="#DejaVuSans-30" transform="translate(127.246094 0)"/>
      </g>
     </g>
    </g>
    <g id="xtick_6">
     <g id="line2d_11">
      <path d="M 277.761462 307.584 
L 277.761462 41.472 
" clip-path="url(#pd3fe3d49bd)" style="fill: none; stroke: #b0b0b0; stroke-width: 0.8; stroke-linecap: square"/>
     </g>
     <g id="line2d_12">
      <g>
       <use xlink:href="#m126c7455ff" x="277.761462" y="307.584" style="stroke: #000000; stroke-width: 0.8"/>
      </g>
     </g>
     <g id="text_6">
      <!-- 125 -->
      <g transform="translate(268.217712 322.182437) scale(0.1 -0.1)">
       <use xlink:href="#DejaVuSans-31"/>
       <use xlink:href="#DejaVuSans-32" transform="translate(63.623047 0)"/>
       <use xlink:href="#DejaVuSans-35" transform="translate(127.246094 0)"/>
      </g>
     </g>
    </g>
    <g id="xtick_7">
     <g id="line2d_13">
      <path d="M 318.547209 307.584 
L 318.547209 41.472 
" clip-path="url(#pd3fe3d49bd)" style="fill: none; stroke: #b0b0b0; stroke-width: 0.8; stroke-linecap: square"/>
     </g>
     <g id="line2d_14">
      <g>
       <use xlink:href="#m126c7455ff" x="318.547209" y="307.584" style="stroke: #000000; stroke-width: 0.8"/>
      </g>
     </g>
     <g id="text_7">
      <!-- 150 -->
      <g transform="translate(309.003459 322.182437) scale(0.1 -0.1)">
       <use xlink:href="#DejaVuSans-31"/>
       <use xlink:href="#DejaVuSans-35" transform="translate(63.623047 0)"/>
       <use xlink:href="#DejaVuSans-30" transform="translate(127.246094 0)"/>
      </g>
     </g>
    </g>
    <g id="xtick_8">
     <g id="line2d_15">
      <path d="M 359.332956 307.584 
L 359.332956 41.472 
" clip-path="url(#pd3fe3d49bd)" style="fill: none; stroke: #b0b0b0; stroke-width: 0.8; stroke-linecap: square"/>
     </g>
     <g id="line2d_16">
      <g>
       <use xlink:href="#m126c7455ff" x="359.332956" y="307.584" style="stroke: #000000; stroke-width: 0.8"/>
      </g>
     </g>
     <g id="text_8">
      <!-- 175 -->
      <g transform="translate(349.789206 322.182437) scale(0.1 -0.1)">
       <use xlink:href="#DejaVuSans-31"/>
       <use xlink:href="#DejaVuSans-37" transform="translate(63.623047 0)"/>
       <use xlink:href="#DejaVuSans-35" transform="translate(127.246094 0)"/>
      </g>
     </g>
    </g>
    <g id="xtick_9">
     <g id="line2d_17">
      <path d="M 400.118703 307.584 
L 400.118703 41.472 
" clip-path="url(#pd3fe3d49bd)" style="fill: none; stroke: #b0b0b0; stroke-width: 0.8; stroke-linecap: square"/>
     </g>
     <g id="line2d_18">
      <g>
       <use xlink:href="#m126c7455ff" x="400.118703" y="307.584" style="stroke: #000000; stroke-width: 0.8"/>
      </g>
     </g>
     <g id="text_9">
      <!-- 200 -->
      <g transform="translate(390.574953 322.182437) scale(0.1 -0.1)">
       <use xlink:href="#DejaVuSans-32"/>
       <use xlink:href="#DejaVuSans-30" transform="translate(63.623047 0)"/>
       <use xlink:href="#DejaVuSans-30" transform="translate(127.246094 0)"/>
      </g>
     </g>
    </g>
    <g id="text_10">
     <!-- Generations -->
     <g transform="translate(205.662344 335.860562) scale(0.1 -0.1)">
      <defs>
       <path id="DejaVuSans-47" d="M 3809 666 
L 3809 1919 
L 2778 1919 
L 2778 2438 
L 4434 2438 
L 4434 434 
Q 4069 175 3628 42 
Q 3188 -91 2688 -91 
Q 1594 -91 976 548 
Q 359 1188 359 2328 
Q 359 3472 976 4111 
Q 1594 4750 2688 4750 
Q 3144 4750 3555 4637 
Q 3966 4525 4313 4306 
L 4313 3634 
Q 3963 3931 3569 4081 
Q 3175 4231 2741 4231 
Q 1884 4231 1454 3753 
Q 1025 3275 1025 2328 
Q 1025 1384 1454 906 
Q 1884 428 2741 428 
Q 3075 428 3337 486 
Q 3600 544 3809 666 
z
" transform="scale(0.015625)"/>
       <path id="DejaVuSans-65" d="M 3597 1894 
L 3597 1613 
L 953 1613 
Q 991 1019 1311 708 
Q 1631 397 2203 397 
Q 2534 397 2845 478 
Q 3156 559 3463 722 
L 3463 178 
Q 3153 47 2828 -22 
Q 2503 -91 2169 -91 
Q 1331 -91 842 396 
Q 353 884 353 1716 
Q 353 2575 817 3079 
Q 1281 3584 2069 3584 
Q 2775 3584 3186 3129 
Q 3597 2675 3597 1894 
z
M 3022 2063 
Q 3016 2534 2758 2815 
Q 2500 3097 2075 3097 
Q 1594 3097 1305 2825 
Q 1016 2553 972 2059 
L 3022 2063 
z
" transform="scale(0.015625)"/>
       <path id="DejaVuSans-6e" d="M 3513 2113 
L 3513 0 
L 2938 0 
L 2938 2094 
Q 2938 2591 2744 2837 
Q 2550 3084 2163 3084 
Q 1697 3084 1428 2787 
Q 1159 2491 1159 1978 
L 1159 0 
L 581 0 
L 581 3500 
L 1159 3500 
L 1159 2956 
Q 1366 3272 1645 3428 
Q 1925 3584 2291 3584 
Q 2894 3584 3203 3211 
Q 3513 2838 3513 2113 
z
" transform="scale(0.015625)"/>
       <path id="DejaVuSans-72" d="M 2631 2963 
Q 2534 3019 2420 3045 
Q 2306 3072 2169 3072 
Q 1681 3072 1420 2755 
Q 1159 2438 1159 1844 
L 1159 0 
L 581 0 
L 581 3500 
L 1159 3500 
L 1159 2956 
Q 1341 3275 1631 3429 
Q 1922 3584 2338 3584 
Q 2397 3584 2469 3576 
Q 2541 3569 2628 3553 
L 2631 2963 
z
" transform="scale(0.015625)"/>
       <path id="DejaVuSans-61" d="M 2194 1759 
Q 1497 1759 1228 1600 
Q 959 1441 959 1056 
Q 959 750 1161 570 
Q 1363 391 1709 391 
Q 2188 391 2477 730 
Q 2766 1069 2766 1631 
L 2766 1759 
L 2194 1759 
z
M 3341 1997 
L 3341 0 
L 2766 0 
L 2766 531 
Q 2569 213 2275 61 
Q 1981 -91 1556 -91 
Q 1019 -91 701 211 
Q 384 513 384 1019 
Q 384 1609 779 1909 
Q 1175 2209 1959 2209 
L 2766 2209 
L 2766 2266 
Q 2766 2663 2505 2880 
Q 2244 3097 1772 3097 
Q 1472 3097 1187 3025 
Q 903 2953 641 2809 
L 641 3341 
Q 956 3463 1253 3523 
Q 1550 3584 1831 3584 
Q 2591 3584 2966 3190 
Q 3341 2797 3341 1997 
z
" transform="scale(0.015625)"/>
       <path id="DejaVuSans-74" d="M 1172 4494 
L 1172 3500 
L 2356 3500 
L 2356 3053 
L 1172 3053 
L 1172 1153 
Q 1172 725 1289 603 
Q 1406 481 1766 481 
L 2356 481 
L 2356 0 
L 1766 0 
Q 1100 0 847 248 
Q 594 497 594 1153 
L 594 3053 
L 172 3053 
L 172 3500 
L 594 3500 
L 594 4494 
L 1172 4494 
z
" transform="scale(0.015625)"/>
       <path id="DejaVuSans-69" d="M 603 3500 
L 1178 3500 
L 1178 0 
L 603 0 
L 603 3500 
z
M 603 4863 
L 1178 4863 
L 1178 4134 
L 603 4134 
L 603 4863 
z
" transform="scale(0.015625)"/>
       <path id="DejaVuSans-6f" d="M 1959 3097 
Q 1497 3097 1228 2736 
Q 959 2375 959 1747 
Q 959 1119 1226 758 
Q 1494 397 1959 397 
Q 2419 397 2687 759 
Q 2956 1122 2956 1747 
Q 2956 2369 2687 2733 
Q 2419 3097 1959 3097 
z
M 1959 3584 
Q 2709 3584 3137 3096 
Q 3566 2609 3566 1747 
Q 3566 888 3137 398 
Q 2709 -91 1959 -91 
Q 1206 -91 779 398 
Q 353 888 353 1747 
Q 353 2609 779 3096 
Q 1206 3584 1959 3584 
z
" transform="scale(0.015625)"/>
       <path id="DejaVuSans-73" d="M 2834 3397 
L 2834 2853 
Q 2591 2978 2328 3040 
Q 2066 3103 1784 3103 
Q 1356 3103 1142 2972 
Q 928 2841 928 2578 
Q 928 2378 1081 2264 
Q 1234 2150 1697 2047 
L 1894 2003 
Q 2506 1872 2764 1633 
Q 3022 1394 3022 966 
Q 3022 478 2636 193 
Q 2250 -91 1575 -91 
Q 1294 -91 989 -36 
Q 684 19 347 128 
L 347 722 
Q 666 556 975 473 
Q 1284 391 1588 391 
Q 1994 391 2212 530 
Q 2431 669 2431 922 
Q 2431 1156 2273 1281 
Q 2116 1406 1581 1522 
L 1381 1569 
Q 847 1681 609 1914 
Q 372 2147 372 2553 
Q 372 3047 722 3315 
Q 1072 3584 1716 3584 
Q 2034 3584 2315 3537 
Q 2597 3491 2834 3397 
z
" transform="scale(0.015625)"/>
      </defs>
      <use xlink:href="#DejaVuSans-47"/>
      <use xlink:href="#DejaVuSans-65" transform="translate(77.490234 0)"/>
      <use xlink:href="#DejaVuSans-6e" transform="translate(139.013672 0)"/>
      <use xlink:href="#DejaVuSans-65" transform="translate(202.392578 0)"/>
      <use xlink:href="#DejaVuSans-72" transform="translate(263.916016 0)"/>
      <use xlink:href="#DejaVuSans-61" transform="translate(305.029297 0)"/>
      <use xlink:href="#DejaVuSans-74" transform="translate(366.308594 0)"/>
      <use xlink:href="#DejaVuSans-69" transform="translate(405.517578 0)"/>
      <use xlink:href="#DejaVuSans-6f" transform="translate(433.300781 0)"/>
      <use xlink:href="#DejaVuSans-6e" transform="translate(494.482422 0)"/>
      <use xlink:href="#DejaVuSans-73" transform="translate(557.861328 0)"/>
     </g>
    </g>
   </g>
   <g id="matplotlib.axis_2">
    <g id="ytick_1">
     <g id="line2d_19">
      <path d="M 57.6 117.359251 
L 414.72 117.359251 
" clip-path="url(#pd3fe3d49bd)" style="fill: none; stroke: #b0b0b0; stroke-width: 0.8; stroke-linecap: square"/>
     </g>
     <g id="line2d_20">
      <defs>
       <path id="mc3d8746f9d" d="M 0 0 
L -3.5 0 
" style="stroke: #000000; stroke-width: 0.8"/>
      </defs>
      <g>
       <use xlink:href="#mc3d8746f9d" x="57.6" y="117.359251" style="stroke: #000000; stroke-width: 0.8"/>
      </g>
     </g>
     <g id="text_11">
      <!-- $\mathdefault{10^{2}}$ -->
      <g transform="translate(33 121.15847) scale(0.1 -0.1)">
       <use xlink:href="#DejaVuSans-31" transform="translate(0 0.765625)"/>
       <use xlink:href="#DejaVuSans-30" transform="translate(63.623047 0.765625)"/>
       <use xlink:href="#DejaVuSans-32" transform="translate(128.203125 39.046875) scale(0.7)"/>
      </g>
     </g>
    </g>
    <g id="text_12">
     <!-- Fitness -->
     <g transform="translate(26.920312 191.845187) rotate(-90) scale(0.1 -0.1)">
      <defs>
       <path id="DejaVuSans-46" d="M 628 4666 
L 3309 4666 
L 3309 4134 
L 1259 4134 
L 1259 2759 
L 3109 2759 
L 3109 2228 
L 1259 2228 
L 1259 0 
L 628 0 
L 628 4666 
z
" transform="scale(0.015625)"/>
      </defs>
      <use xlink:href="#DejaVuSans-46"/>
      <use xlink:href="#DejaVuSans-69" transform="translate(50.269531 0)"/>
      <use xlink:href="#DejaVuSans-74" transform="translate(78.052734 0)"/>
      <use xlink:href="#DejaVuSans-6e" transform="translate(117.261719 0)"/>
      <use xlink:href="#DejaVuSans-65" transform="translate(180.640625 0)"/>
      <use xlink:href="#DejaVuSans-73" transform="translate(242.164062 0)"/>
      <use xlink:href="#DejaVuSans-73" transform="translate(294.263672 0)"/>
     </g>
    </g>
   </g>
   <g id="line2d_21">
    <path d="M 73.832727 295.488 
L 75.464157 282.682144 
L 77.095587 273.812745 
L 78.727017 278.254489 
L 80.358447 276.070173 
L 81.989877 273.694802 
L 85.252736 270.939538 
L 86.884166 268.996268 
L 88.515596 272.527555 
L 90.147026 267.289576 
L 91.778456 266.233203 
L 93.409886 267.119001 
L 95.041316 265.172499 
L 96.672746 264.558276 
L 98.304175 264.165114 
L 99.935605 265.502708 
L 101.567035 260.283562 
L 103.198465 259.361108 
L 106.461325 261.857766 
L 108.092755 264.841758 
L 109.724185 261.147028 
L 111.355614 259.196376 
L 112.987044 254.249544 
L 114.618474 252.357583 
L 116.249904 248.809983 
L 117.881334 255.598659 
L 119.512764 253.572698 
L 121.144194 250.764023 
L 122.775624 255.977886 
L 124.407053 255.942807 
L 126.038483 253.157962 
L 127.669913 251.025315 
L 129.301343 247.503181 
L 130.932773 250.807251 
L 132.564203 246.310989 
L 134.195633 248.269605 
L 135.827063 246.680055 
L 137.458492 245.413525 
L 139.089922 253.953201 
L 140.721352 249.510217 
L 142.352782 249.394861 
L 143.984212 251.051446 
L 145.615642 245.809451 
L 147.247072 248.04183 
L 148.878502 247.811997 
L 150.509931 247.336917 
L 152.141361 247.791398 
L 153.772791 244.064131 
L 155.404221 245.211448 
L 157.035651 244.674048 
L 158.667081 243.227735 
L 160.298511 246.362762 
L 161.929941 243.788148 
L 163.56137 242.818591 
L 165.1928 246.68239 
L 166.82423 238.059586 
L 168.45566 240.271474 
L 171.71852 237.911057 
L 173.34995 240.135305 
L 174.98138 234.219349 
L 176.61281 236.108907 
L 178.244239 239.983051 
L 179.875669 236.416287 
L 181.507099 236.697552 
L 183.138529 239.185214 
L 184.769959 240.093593 
L 186.401389 236.095026 
L 188.032819 238.672871 
L 189.664249 236.424698 
L 191.295678 239.855691 
L 192.927108 237.41385 
L 194.558538 237.494839 
L 196.189968 233.878055 
L 197.821398 234.333664 
L 201.084258 237.375132 
L 202.715688 237.557743 
L 204.347117 238.547154 
L 205.978547 237.675804 
L 207.609977 234.011105 
L 209.241407 235.90388 
L 210.872837 238.991531 
L 212.504267 237.96496 
L 214.135697 234.295655 
L 215.767127 231.366537 
L 217.398556 236.545777 
L 219.029986 234.769248 
L 220.661416 237.422532 
L 222.292846 232.611457 
L 223.924276 236.419382 
L 225.555706 235.487614 
L 227.187136 235.606325 
L 228.818566 233.277475 
L 230.449995 232.496252 
L 232.081425 230.573921 
L 233.712855 230.675005 
L 235.344285 229.928269 
L 236.975715 230.625564 
L 238.607145 230.362284 
L 240.238575 232.457419 
L 241.870005 230.631529 
L 243.501434 233.957621 
L 245.132864 230.070595 
L 246.764294 232.31661 
L 248.395724 228.809657 
L 250.027154 231.305713 
L 251.658584 228.154377 
L 253.290014 230.424886 
L 254.921444 231.197386 
L 256.552873 226.912697 
L 258.184303 229.774762 
L 259.815733 234.086684 
L 261.447163 233.084446 
L 263.078593 230.140185 
L 264.710023 232.160342 
L 266.341453 230.545134 
L 267.972883 230.767551 
L 269.604312 228.443136 
L 271.235742 229.82936 
L 272.867172 228.863284 
L 274.498602 231.083768 
L 276.130032 231.548429 
L 277.761462 228.524096 
L 279.392892 228.517353 
L 281.024322 231.116141 
L 282.655751 230.538636 
L 284.287181 231.990333 
L 285.918611 229.05294 
L 287.550041 230.929346 
L 289.181471 229.18747 
L 290.812901 229.611017 
L 292.444331 226.047327 
L 294.075761 227.313725 
L 295.70719 228.950774 
L 297.33862 228.200526 
L 298.97005 226.443196 
L 300.60148 229.073852 
L 302.23291 225.285339 
L 303.86434 226.723401 
L 305.49577 225.204619 
L 307.1272 226.160648 
L 308.75863 227.603084 
L 310.390059 226.257676 
L 312.021489 227.161005 
L 313.652919 226.035233 
L 315.284349 224.471308 
L 316.915779 229.801063 
L 320.178639 224.977233 
L 321.810069 228.175313 
L 323.441498 225.701782 
L 325.072928 225.717069 
L 326.704358 224.698368 
L 328.335788 225.830398 
L 329.967218 227.427258 
L 331.598648 226.573106 
L 333.230078 223.502565 
L 334.861508 225.947303 
L 336.492937 223.34927 
L 338.124367 222.984713 
L 339.755797 226.886654 
L 341.387227 224.015646 
L 343.018657 225.076768 
L 344.650087 226.820496 
L 346.281517 226.44353 
L 347.912947 223.794466 
L 349.544376 223.840023 
L 351.175806 227.666731 
L 352.807236 225.013325 
L 354.438666 226.834697 
L 356.070096 225.13132 
L 357.701526 223.659405 
L 359.332956 225.079211 
L 360.964386 225.891467 
L 362.595815 226.229545 
L 364.227245 221.89368 
L 365.858675 223.467298 
L 367.490105 227.391362 
L 369.121535 225.069854 
L 370.752965 223.491725 
L 372.384395 226.245506 
L 374.015825 222.895517 
L 375.647254 226.050827 
L 377.278684 225.206177 
L 378.910114 223.485198 
L 380.541544 224.238513 
L 382.172974 224.553552 
L 383.804404 220.986369 
L 385.435834 222.06705 
L 387.067264 224.625655 
L 388.698693 222.794337 
L 390.330123 223.833781 
L 391.961553 224.576189 
L 393.592983 222.177959 
L 395.224413 221.302326 
L 396.855843 222.334513 
L 398.487273 222.035395 
L 398.487273 222.035395 
" clip-path="url(#pd3fe3d49bd)" style="fill: none; stroke: #0000ff; stroke-width: 1.5; stroke-linecap: square"/>
   </g>
   <g id="line2d_22">
    <path d="M 73.832727 241.45032 
L 75.464157 222.255023 
L 77.095587 210.47567 
L 78.727017 217.155777 
L 80.358447 212.578359 
L 81.989877 212.345744 
L 83.621307 207.171551 
L 85.252736 206.841078 
L 86.884166 202.830855 
L 88.515596 209.246799 
L 90.147026 199.309384 
L 91.778456 199.849709 
L 93.409886 201.199504 
L 95.041316 198.600341 
L 96.672746 198.874482 
L 98.304175 194.542188 
L 99.935605 199.282173 
L 101.567035 190.795941 
L 103.198465 192.208959 
L 104.829895 195.211694 
L 106.461325 197.826704 
L 108.092755 199.361194 
L 109.724185 196.931862 
L 111.355614 192.187902 
L 112.987044 188.347083 
L 114.618474 183.992711 
L 116.249904 181.22517 
L 117.881334 190.220072 
L 119.512764 190.787942 
L 121.144194 186.850781 
L 122.775624 191.228988 
L 124.407053 192.120175 
L 126.038483 187.175731 
L 127.669913 184.330645 
L 129.301343 181.887754 
L 130.932773 185.982648 
L 132.564203 183.476353 
L 134.195633 185.603682 
L 135.827063 181.94323 
L 137.458492 181.079569 
L 139.089922 191.222479 
L 140.721352 186.623965 
L 142.352782 186.103016 
L 143.984212 187.078245 
L 145.615642 180.672601 
L 147.247072 183.805394 
L 148.878502 185.588534 
L 150.509931 185.437594 
L 152.141361 185.428149 
L 153.772791 180.660482 
L 155.404221 182.632248 
L 157.035651 182.866222 
L 158.667081 181.172614 
L 160.298511 183.184105 
L 161.929941 180.099806 
L 165.1928 180.428129 
L 166.82423 174.545049 
L 168.45566 177.636498 
L 170.08709 173.952561 
L 171.71852 174.654872 
L 173.34995 176.60289 
L 174.98138 169.69915 
L 176.61281 170.719605 
L 178.244239 177.750542 
L 179.875669 172.950204 
L 181.507099 174.066847 
L 183.138529 176.641613 
L 184.769959 176.758953 
L 186.401389 173.22672 
L 188.032819 175.764616 
L 189.664249 172.697144 
L 191.295678 176.514854 
L 194.558538 174.488822 
L 196.189968 171.39667 
L 197.821398 170.951579 
L 199.452828 173.31721 
L 201.084258 175.264502 
L 202.715688 175.066997 
L 204.347117 176.230461 
L 205.978547 177.653299 
L 207.609977 170.624013 
L 209.241407 175.61508 
L 210.872837 179.770812 
L 212.504267 177.082897 
L 214.135697 173.041289 
L 215.767127 170.298869 
L 217.398556 175.607526 
L 219.029986 173.988208 
L 220.661416 176.180078 
L 222.292846 172.613155 
L 223.924276 176.178113 
L 225.555706 173.426964 
L 227.187136 176.731944 
L 228.818566 173.152587 
L 230.449995 172.385656 
L 232.081425 168.426288 
L 233.712855 171.825697 
L 235.344285 170.477536 
L 236.975715 170.504911 
L 238.607145 172.002601 
L 240.238575 172.68927 
L 241.870005 172.324077 
L 243.501434 174.314672 
L 245.132864 170.758768 
L 246.764294 172.892973 
L 248.395724 169.576389 
L 250.027154 173.329785 
L 251.658584 169.47684 
L 253.290014 171.18759 
L 254.921444 173.524364 
L 256.552873 167.677948 
L 258.184303 170.874349 
L 259.815733 175.077844 
L 261.447163 174.711863 
L 263.078593 171.087775 
L 264.710023 173.003116 
L 266.341453 171.898808 
L 269.604312 168.666622 
L 271.235742 171.673074 
L 272.867172 169.038435 
L 274.498602 173.298607 
L 276.130032 172.742273 
L 277.761462 169.939733 
L 279.392892 169.40894 
L 281.024322 172.927318 
L 282.655751 171.695698 
L 284.287181 172.449753 
L 285.918611 169.112901 
L 287.550041 173.281907 
L 289.181471 171.611559 
L 290.812901 169.777449 
L 292.444331 166.768942 
L 294.075761 168.877479 
L 295.70719 170.401364 
L 297.33862 168.331167 
L 298.97005 168.380421 
L 300.60148 172.292353 
L 302.23291 167.030587 
L 303.86434 166.843253 
L 305.49577 167.73825 
L 307.1272 168.233243 
L 308.75863 170.360175 
L 310.390059 169.938029 
L 312.021489 168.774496 
L 313.652919 168.352665 
L 315.284349 166.631041 
L 316.915779 172.116065 
L 318.547209 171.761192 
L 320.178639 168.285214 
L 321.810069 172.635928 
L 323.441498 167.557181 
L 325.072928 169.675811 
L 326.704358 166.750522 
L 328.335788 170.236478 
L 329.967218 171.757618 
L 331.598648 169.768092 
L 333.230078 166.02483 
L 334.861508 169.029668 
L 336.492937 164.350364 
L 338.124367 165.500607 
L 339.755797 170.532288 
L 341.387227 167.011224 
L 343.018657 168.622559 
L 344.650087 169.364724 
L 346.281517 168.050514 
L 347.912947 165.185363 
L 349.544376 166.822695 
L 351.175806 171.030354 
L 352.807236 167.817119 
L 354.438666 170.904349 
L 356.070096 168.434671 
L 357.701526 166.599038 
L 359.332956 168.275216 
L 360.964386 168.434607 
L 362.595815 170.625852 
L 364.227245 162.393915 
L 365.858675 167.34062 
L 367.490105 171.787331 
L 369.121535 169.213556 
L 370.752965 165.282945 
L 372.384395 171.560146 
L 374.015825 164.845476 
L 375.647254 170.018351 
L 377.278684 168.686144 
L 378.910114 166.99976 
L 380.541544 167.70303 
L 382.172974 167.821916 
L 383.804404 162.78528 
L 385.435834 166.473608 
L 387.067264 167.790969 
L 388.698693 166.571576 
L 390.330123 168.704807 
L 391.961553 168.44874 
L 395.224413 164.072208 
L 396.855843 167.018061 
L 398.487273 165.48534 
L 398.487273 165.48534 
" clip-path="url(#pd3fe3d49bd)" style="fill: none; stroke-dasharray: 9.6,2.4,1.5,2.4; stroke-dashoffset: 0; stroke: #008000; stroke-width: 1.5"/>
   </g>
   <g id="line2d_23">
    <path d="M 73.832727 139.592154 
L 75.464157 116.890158 
L 77.095587 100.652447 
L 78.727017 115.597502 
L 80.358447 115.944855 
L 81.989877 105.645903 
L 83.621307 115.792662 
L 85.252736 121.660815 
L 86.884166 100.213344 
L 88.515596 126.928545 
L 90.147026 57.661641 
L 91.778456 73.421504 
L 93.409886 86.452614 
L 95.041316 96.211936 
L 96.672746 101.071429 
L 98.304175 91.216119 
L 99.935605 105.585467 
L 101.567035 91.136791 
L 103.198465 86.319275 
L 104.829895 116.367458 
L 106.461325 100.611237 
L 108.092755 100.551309 
L 109.724185 110.963731 
L 111.355614 86.149406 
L 112.987044 86.803117 
L 114.618474 68.670917 
L 116.249904 57.217018 
L 117.881334 95.645251 
L 119.512764 111.141586 
L 121.144194 111.143322 
L 122.775624 101.094357 
L 124.407053 95.788691 
L 126.038483 86.599124 
L 127.669913 91.049993 
L 129.301343 81.929609 
L 130.932773 105.573201 
L 132.564203 69.401314 
L 134.195633 86.272102 
L 135.827063 91.244056 
L 137.458492 100.646318 
L 139.089922 116.358253 
L 140.721352 110.550984 
L 142.352782 91.024496 
L 143.984212 86.340514 
L 145.615642 110.778381 
L 147.247072 81.97496 
L 148.878502 105.646604 
L 150.509931 100.567167 
L 152.141361 105.525302 
L 153.772791 82.479234 
L 155.404221 77.958664 
L 157.035651 110.738353 
L 158.667081 96.205599 
L 160.298511 111.041951 
L 161.929941 105.975504 
L 163.56137 74.133163 
L 165.1928 85.839334 
L 166.82423 101.461951 
L 168.45566 86.892802 
L 170.08709 77.334691 
L 171.71852 96.33956 
L 173.34995 95.951213 
L 174.98138 81.900562 
L 178.244239 91.157313 
L 179.875669 90.632414 
L 181.507099 100.530512 
L 183.138529 105.510645 
L 184.769959 91.234737 
L 186.401389 100.939088 
L 188.032819 77.891969 
L 189.664249 82.497397 
L 191.295678 110.383439 
L 192.927108 96.346007 
L 194.558538 95.216429 
L 196.189968 91.353261 
L 197.821398 90.896932 
L 199.452828 105.840576 
L 201.084258 100.663206 
L 202.715688 69.542417 
L 204.347117 91.056316 
L 205.978547 77.825126 
L 207.609977 86.868556 
L 209.241407 82.675285 
L 210.872837 115.98918 
L 212.504267 95.663002 
L 214.135697 95.37606 
L 215.767127 87.255675 
L 217.398556 77.70999 
L 219.029986 86.463551 
L 220.661416 82.19008 
L 222.292846 95.854777 
L 223.924276 82.018985 
L 225.555706 53.568 
L 227.187136 127.118025 
L 228.818566 105.734731 
L 230.449995 77.647945 
L 232.081425 69.831102 
L 233.712855 115.875451 
L 235.344285 91.076665 
L 236.975715 86.339305 
L 238.607145 105.795324 
L 240.238575 90.793802 
L 241.870005 105.719814 
L 243.501434 100.64863 
L 245.132864 82.245987 
L 246.764294 100.543123 
L 248.395724 82.153864 
L 250.027154 91.159714 
L 251.658584 86.400692 
L 253.290014 91.048243 
L 254.921444 73.509476 
L 256.552873 73.199372 
L 259.815733 91.258647 
L 261.447163 86.766542 
L 263.078593 81.884244 
L 264.710023 96.255872 
L 266.341453 91.352195 
L 267.972883 65.715471 
L 269.604312 61.531191 
L 271.235742 90.801238 
L 272.867172 81.969147 
L 274.498602 95.81315 
L 276.130032 86.900389 
L 277.761462 95.705355 
L 279.392892 73.814464 
L 281.024322 91.232818 
L 282.655751 105.790189 
L 284.287181 92.700209 
L 285.918611 95.630054 
L 287.550041 87.044491 
L 289.181471 100.910891 
L 290.812901 66.269148 
L 292.444331 77.334145 
L 294.075761 95.537244 
L 295.70719 105.678551 
L 297.33862 100.929995 
L 298.97005 101.010467 
L 300.60148 115.865982 
L 302.23291 95.879123 
L 303.86434 95.647332 
L 305.49577 105.53672 
L 307.1272 57.759646 
L 308.75863 110.379648 
L 310.390059 91.45234 
L 312.021489 82.701119 
L 313.652919 82.083237 
L 315.284349 91.172402 
L 316.915779 115.570473 
L 318.547209 105.525528 
L 320.178639 82.950323 
L 321.810069 100.589458 
L 323.441498 90.934116 
L 325.072928 105.468147 
L 326.704358 86.644791 
L 328.335788 116.293107 
L 329.967218 100.611451 
L 331.598648 95.276555 
L 333.230078 91.164782 
L 334.861508 95.958493 
L 336.492937 77.799951 
L 338.124367 100.674093 
L 339.755797 105.682067 
L 341.387227 96.207887 
L 343.018657 90.757567 
L 344.650087 105.259045 
L 346.281517 105.561446 
L 347.912947 81.878244 
L 349.544376 81.817243 
L 351.175806 90.913715 
L 352.807236 110.391165 
L 354.438666 110.997058 
L 356.070096 81.838114 
L 357.701526 95.788987 
L 359.332956 111.256063 
L 360.964386 86.560266 
L 362.595815 116.283754 
L 364.227245 87.762406 
L 365.858675 96.064373 
L 367.490105 100.673346 
L 369.121535 110.453853 
L 370.752965 91.096038 
L 372.384395 95.88039 
L 374.015825 61.068456 
L 375.647254 116.052941 
L 377.278684 95.982546 
L 378.910114 95.825239 
L 380.541544 74.150115 
L 382.172974 96.66634 
L 383.804404 78.264261 
L 385.435834 91.164061 
L 387.067264 73.669086 
L 388.698693 95.974674 
L 390.330123 86.458146 
L 391.961553 110.877716 
L 393.592983 91.104306 
L 395.224413 91.346645 
L 396.855843 91.332322 
L 398.487273 82.09497 
L 398.487273 82.09497 
" clip-path="url(#pd3fe3d49bd)" style="fill: none; stroke: #ff0000; stroke-width: 1.5; stroke-linecap: square"/>
   </g>
   <g id="patch_3">
    <path d="M 57.6 307.584 
L 57.6 41.472 
" style="fill: none; stroke: #000000; stroke-width: 0.8; stroke-linejoin: miter; stroke-linecap: square"/>
   </g>
   <g id="patch_4">
    <path d="M 414.72 307.584 
L 414.72 41.472 
" style="fill: none; stroke: #000000; stroke-width: 0.8; stroke-linejoin: miter; stroke-linecap: square"/>
   </g>
   <g id="patch_5">
    <path d="M 57.6 307.584 
L 414.72 307.584 
" style="fill: none; stroke: #000000; stroke-width: 0.8; stroke-linejoin: miter; stroke-linecap: square"/>
   </g>
   <g id="patch_6">
    <path d="M 57.6 41.472 
L 414.72 41.472 
" style="fill: none; stroke: #000000; stroke-width: 0.8; stroke-linejoin: miter; stroke-linecap: square"/>
   </g>
   <g id="text_13">
    <!-- Population's average and best fitness -->
    <g transform="translate(123.529687 35.472) scale(0.12 -0.12)">
     <defs>
      <path id="DejaVuSans-50" d="M 1259 4147 
L 1259 2394 
L 2053 2394 
Q 2494 2394 2734 2622 
Q 2975 2850 2975 3272 
Q 2975 3691 2734 3919 
Q 2494 4147 2053 4147 
L 1259 4147 
z
M 628 4666 
L 2053 4666 
Q 2838 4666 3239 4311 
Q 3641 3956 3641 3272 
Q 3641 2581 3239 2228 
Q 2838 1875 2053 1875 
L 1259 1875 
L 1259 0 
L 628 0 
L 628 4666 
z
" transform="scale(0.015625)"/>
      <path id="DejaVuSans-70" d="M 1159 525 
L 1159 -1331 
L 581 -1331 
L 581 3500 
L 1159 3500 
L 1159 2969 
Q 1341 3281 1617 3432 
Q 1894 3584 2278 3584 
Q 2916 3584 3314 3078 
Q 3713 2572 3713 1747 
Q 3713 922 3314 415 
Q 2916 -91 2278 -91 
Q 1894 -91 1617 61 
Q 1341 213 1159 525 
z
M 3116 1747 
Q 3116 2381 2855 2742 
Q 2594 3103 2138 3103 
Q 1681 3103 1420 2742 
Q 1159 2381 1159 1747 
Q 1159 1113 1420 752 
Q 1681 391 2138 391 
Q 2594 391 2855 752 
Q 3116 1113 3116 1747 
z
" transform="scale(0.015625)"/>
      <path id="DejaVuSans-75" d="M 544 1381 
L 544 3500 
L 1119 3500 
L 1119 1403 
Q 1119 906 1312 657 
Q 1506 409 1894 409 
Q 2359 409 2629 706 
Q 2900 1003 2900 1516 
L 2900 3500 
L 3475 3500 
L 3475 0 
L 2900 0 
L 2900 538 
Q 2691 219 2414 64 
Q 2138 -91 1772 -91 
Q 1169 -91 856 284 
Q 544 659 544 1381 
z
M 1991 3584 
L 1991 3584 
z
" transform="scale(0.015625)"/>
      <path id="DejaVuSans-6c" d="M 603 4863 
L 1178 4863 
L 1178 0 
L 603 0 
L 603 4863 
z
" transform="scale(0.015625)"/>
      <path id="DejaVuSans-27" d="M 1147 4666 
L 1147 2931 
L 616 2931 
L 616 4666 
L 1147 4666 
z
" transform="scale(0.015625)"/>
      <path id="DejaVuSans-20" transform="scale(0.015625)"/>
      <path id="DejaVuSans-76" d="M 191 3500 
L 800 3500 
L 1894 563 
L 2988 3500 
L 3597 3500 
L 2284 0 
L 1503 0 
L 191 3500 
z
" transform="scale(0.015625)"/>
      <path id="DejaVuSans-67" d="M 2906 1791 
Q 2906 2416 2648 2759 
Q 2391 3103 1925 3103 
Q 1463 3103 1205 2759 
Q 947 2416 947 1791 
Q 947 1169 1205 825 
Q 1463 481 1925 481 
Q 2391 481 2648 825 
Q 2906 1169 2906 1791 
z
M 3481 434 
Q 3481 -459 3084 -895 
Q 2688 -1331 1869 -1331 
Q 1566 -1331 1297 -1286 
Q 1028 -1241 775 -1147 
L 775 -588 
Q 1028 -725 1275 -790 
Q 1522 -856 1778 -856 
Q 2344 -856 2625 -561 
Q 2906 -266 2906 331 
L 2906 616 
Q 2728 306 2450 153 
Q 2172 0 1784 0 
Q 1141 0 747 490 
Q 353 981 353 1791 
Q 353 2603 747 3093 
Q 1141 3584 1784 3584 
Q 2172 3584 2450 3431 
Q 2728 3278 2906 2969 
L 2906 3500 
L 3481 3500 
L 3481 434 
z
" transform="scale(0.015625)"/>
      <path id="DejaVuSans-64" d="M 2906 2969 
L 2906 4863 
L 3481 4863 
L 3481 0 
L 2906 0 
L 2906 525 
Q 2725 213 2448 61 
Q 2172 -91 1784 -91 
Q 1150 -91 751 415 
Q 353 922 353 1747 
Q 353 2572 751 3078 
Q 1150 3584 1784 3584 
Q 2172 3584 2448 3432 
Q 2725 3281 2906 2969 
z
M 947 1747 
Q 947 1113 1208 752 
Q 1469 391 1925 391 
Q 2381 391 2643 752 
Q 2906 1113 2906 1747 
Q 2906 2381 2643 2742 
Q 2381 3103 1925 3103 
Q 1469 3103 1208 2742 
Q 947 2381 947 1747 
z
" transform="scale(0.015625)"/>
      <path id="DejaVuSans-62" d="M 3116 1747 
Q 3116 2381 2855 2742 
Q 2594 3103 2138 3103 
Q 1681 3103 1420 2742 
Q 1159 2381 1159 1747 
Q 1159 1113 1420 752 
Q 1681 391 2138 391 
Q 2594 391 2855 752 
Q 3116 1113 3116 1747 
z
M 1159 2969 
Q 1341 3281 1617 3432 
Q 1894 3584 2278 3584 
Q 2916 3584 3314 3078 
Q 3713 2572 3713 1747 
Q 3713 922 3314 415 
Q 2916 -91 2278 -91 
Q 1894 -91 1617 61 
Q 1341 213 1159 525 
L 1159 0 
L 581 0 
L 581 4863 
L 1159 4863 
L 1159 2969 
z
" transform="scale(0.015625)"/>
      <path id="DejaVuSans-66" d="M 2375 4863 
L 2375 4384 
L 1825 4384 
Q 1516 4384 1395 4259 
Q 1275 4134 1275 3809 
L 1275 3500 
L 2222 3500 
L 2222 3053 
L 1275 3053 
L 1275 0 
L 697 0 
L 697 3053 
L 147 3053 
L 147 3500 
L 697 3500 
L 697 3744 
Q 697 4328 969 4595 
Q 1241 4863 1831 4863 
L 2375 4863 
z
" transform="scale(0.015625)"/>
     </defs>
     <use xlink:href="#DejaVuSans-50"/>
     <use xlink:href="#DejaVuSans-6f" transform="translate(56.677734 0)"/>
     <use xlink:href="#DejaVuSans-70" transform="translate(117.859375 0)"/>
     <use xlink:href="#DejaVuSans-75" transform="translate(181.335938 0)"/>
     <use xlink:href="#DejaVuSans-6c" transform="translate(244.714844 0)"/>
     <use xlink:href="#DejaVuSans-61" transform="translate(272.498047 0)"/>
     <use xlink:href="#DejaVuSans-74" transform="translate(333.777344 0)"/>
     <use xlink:href="#DejaVuSans-69" transform="translate(372.986328 0)"/>
     <use xlink:href="#DejaVuSans-6f" transform="translate(400.769531 0)"/>
     <use xlink:href="#DejaVuSans-6e" transform="translate(461.951172 0)"/>
     <use xlink:href="#DejaVuSans-27" transform="translate(525.330078 0)"/>
     <use xlink:href="#DejaVuSans-73" transform="translate(552.820312 0)"/>
     <use xlink:href="#DejaVuSans-20" transform="translate(604.919922 0)"/>
     <use xlink:href="#DejaVuSans-61" transform="translate(636.707031 0)"/>
     <use xlink:href="#DejaVuSans-76" transform="translate(697.986328 0)"/>
     <use xlink:href="#DejaVuSans-65" transform="translate(757.166016 0)"/>
     <use xlink:href="#DejaVuSans-72" transform="translate(818.689453 0)"/>
     <use xlink:href="#DejaVuSans-61" transform="translate(859.802734 0)"/>
     <use xlink:href="#DejaVuSans-67" transform="translate(921.082031 0)"/>
     <use xlink:href="#DejaVuSans-65" transform="translate(984.558594 0)"/>
     <use xlink:href="#DejaVuSans-20" transform="translate(1046.082031 0)"/>
     <use xlink:href="#DejaVuSans-61" transform="translate(1077.869141 0)"/>
     <use xlink:href="#DejaVuSans-6e" transform="translate(1139.148438 0)"/>
     <use xlink:href="#DejaVuSans-64" transform="translate(1202.527344 0)"/>
     <use xlink:href="#DejaVuSans-20" transform="translate(1266.003906 0)"/>
     <use xlink:href="#DejaVuSans-62" transform="translate(1297.791016 0)"/>
     <use xlink:href="#DejaVuSans-65" transform="translate(1361.267578 0)"/>
     <use xlink:href="#DejaVuSans-73" transform="translate(1422.791016 0)"/>
     <use xlink:href="#DejaVuSans-74" transform="translate(1474.890625 0)"/>
     <use xlink:href="#DejaVuSans-20" transform="translate(1514.099609 0)"/>
     <use xlink:href="#DejaVuSans-66" transform="translate(1545.886719 0)"/>
     <use xlink:href="#DejaVuSans-69" transform="translate(1581.091797 0)"/>
     <use xlink:href="#DejaVuSans-74" transform="translate(1608.875 0)"/>
     <use xlink:href="#DejaVuSans-6e" transform="translate(1648.083984 0)"/>
     <use xlink:href="#DejaVuSans-65" transform="translate(1711.462891 0)"/>
     <use xlink:href="#DejaVuSans-73" transform="translate(1772.986328 0)"/>
     <use xlink:href="#DejaVuSans-73" transform="translate(1825.085938 0)"/>
    </g>
   </g>
   <g id="legend_1">
    <g id="patch_7">
     <path d="M 334.779375 302.584 
L 407.72 302.584 
Q 409.72 302.584 409.72 300.584 
L 409.72 257.549625 
Q 409.72 255.549625 407.72 255.549625 
L 334.779375 255.549625 
Q 332.779375 255.549625 332.779375 257.549625 
L 332.779375 300.584 
Q 332.779375 302.584 334.779375 302.584 
z
" style="fill: #ffffff; opacity: 0.8; stroke: #cccccc; stroke-linejoin: miter"/>
    </g>
    <g id="line2d_24">
     <path d="M 336.779375 263.648062 
L 346.779375 263.648062 
L 356.779375 263.648062 
" style="fill: none; stroke: #0000ff; stroke-width: 1.5; stroke-linecap: square"/>
    </g>
    <g id="text_14">
     <!-- average -->
     <g transform="translate(364.779375 267.148062) scale(0.1 -0.1)">
      <use xlink:href="#DejaVuSans-61"/>
      <use xlink:href="#DejaVuSans-76" transform="translate(61.279297 0)"/>
      <use xlink:href="#DejaVuSans-65" transform="translate(120.458984 0)"/>
      <use xlink:href="#DejaVuSans-72" transform="translate(181.982422 0)"/>
      <use xlink:href="#DejaVuSans-61" transform="translate(223.095703 0)"/>
      <use xlink:href="#DejaVuSans-67" transform="translate(284.375 0)"/>
      <use xlink:href="#DejaVuSans-65" transform="translate(347.851562 0)"/>
     </g>
    </g>
    <g id="line2d_25">
     <path d="M 336.779375 278.326188 
L 346.779375 278.326188 
L 356.779375 278.326188 
" style="fill: none; stroke-dasharray: 9.6,2.4,1.5,2.4; stroke-dashoffset: 0; stroke: #008000; stroke-width: 1.5"/>
    </g>
    <g id="text_15">
     <!-- +1 sd -->
     <g transform="translate(364.779375 281.826188) scale(0.1 -0.1)">
      <defs>
       <path id="DejaVuSans-2b" d="M 2944 4013 
L 2944 2272 
L 4684 2272 
L 4684 1741 
L 2944 1741 
L 2944 0 
L 2419 0 
L 2419 1741 
L 678 1741 
L 678 2272 
L 2419 2272 
L 2419 4013 
L 2944 4013 
z
" transform="scale(0.015625)"/>
      </defs>
      <use xlink:href="#DejaVuSans-2b"/>
      <use xlink:href="#DejaVuSans-31" transform="translate(83.789062 0)"/>
      <use xlink:href="#DejaVuSans-20" transform="translate(147.412109 0)"/>
      <use xlink:href="#DejaVuSans-73" transform="translate(179.199219 0)"/>
      <use xlink:href="#DejaVuSans-64" transform="translate(231.298828 0)"/>
     </g>
    </g>
    <g id="line2d_26">
     <path d="M 336.779375 293.004312 
L 346.779375 293.004312 
L 356.779375 293.004312 
" style="fill: none; stroke: #ff0000; stroke-width: 1.5; stroke-linecap: square"/>
    </g>
    <g id="text_16">
     <!-- best -->
     <g transform="translate(364.779375 296.504312) scale(0.1 -0.1)">
      <use xlink:href="#DejaVuSans-62"/>
      <use xlink:href="#DejaVuSans-65" transform="translate(63.476562 0)"/>
      <use xlink:href="#DejaVuSans-73" transform="translate(125 0)"/>
      <use xlink:href="#DejaVuSans-74" transform="translate(177.099609 0)"/>
     </g>
    </g>
   </g>
  </g>
 </g>
 <defs>
  <clipPath id="pd3fe3d49bd">
   <rect x="57.6" y="41.472" width="357.12" height="266.112"/>
  </clipPath>
 </defs>
</svg>
