<?xml version="1.0" encoding="utf-8" standalone="no"?>
<!DOCTYPE svg PUBLIC "-//W3C//DTD SVG 1.1//EN"
  "http://www.w3.org/Graphics/SVG/1.1/DTD/svg11.dtd">
<svg xmlns:xlink="http://www.w3.org/1999/xlink" width="460.8pt" height="345.6pt" viewBox="0 0 460.8 345.6" xmlns="http://www.w3.org/2000/svg" version="1.1">
 <metadata>
  <rdf:RDF xmlns:dc="http://purl.org/dc/elements/1.1/" xmlns:cc="http://creativecommons.org/ns#" xmlns:rdf="http://www.w3.org/1999/02/22-rdf-syntax-ns#">
   <cc:Work>
    <dc:type rdf:resource="http://purl.org/dc/dcmitype/StillImage"/>
    <dc:date>2026-04-14T00:33:01.668268</dc:date>
    <dc:format>image/svg+xml</dc:format>
    <dc:creator>
     <cc:Agent>
      <dc:title>Matplotlib v3.10.8, https://matplotlib.org/</dc:title>
     </cc:Agent>
    </dc:creator>
   </cc:Work>
  </rdf:RDF>
 </metadata>
 <defs>
  <style type="text/css">*{stroke-linejoin: round; stroke-linecap: butt}</style>
 </defs>
 <g id="figure_1">
  <g id="patch_1">
   <path d="M 0 345.6 
L 460.8 345.6 
L 460.8 0 
L 0 0 
z
" style="fill: #ffffff"/>
  </g>
  <g id="axes_1">
   <g id="patch_2">
    <path d="M 57.6 307.584 
L 414.72 307.584 
L 414.72 41.472 
L 57.6 41.472 
z
" style="fill: #ffffff"/>
   </g>
   <g id="matplotlib.axis_1">
    <g id="xtick_1">
     <g id="line2d_1">
      <path d="M 73.832727 307.584 
L 73.832727 41.472 
" clip-path="url(#p82f8212de1)" style="fill: none; stroke: #b0b0b0; stroke-width: 0.8; stroke-linecap: square"/>
     </g>
     <g id="line2d_2">
      <defs>
       <path id="m1d45b9f2d7" d="M 0 0 
L 0 3.5 
" style="stroke: #000000; stroke-width: 0.8"/>
      </defs>
      <g>
       <use xlink:href="#m1d45b9f2d7" x="73.832727" y="307.584" style="stroke: #000000; stroke-width: 0.8"/>
      </g>
     </g>
     <g id="text_1">
      <!-- 0 -->
      <g transform="translate(70.651477 322.182437) scale(0.1 -0.1)">
       <defs>
        <path id="DejaVuSans-30" d="M 2034 4250 
Q 1547 4250 1301 3770 
Q 1056 3291 1056 2328 
Q 1056 1369 1301 889 
Q 1547 409 2034 409 
Q 2525 409 2770 889 
Q 3016 1369 3016 2328 
Q 3016 3291 2770 3770 
Q 2525 4250 2034 4250 
z
M 2034 4750 
Q 2819 4750 3233 4129 
Q 3647 3509 3647 2328 
Q 3647 1150 3233 529 
Q 2819 -91 2034 -91 
Q 1250 -91 836 529 
Q 422 1150 422 2328 
Q 422 3509 836 4129 
Q 1250 4750 2034 4750 
z
" transform="scale(0.015625)"/>
       </defs>
       <use xlink:href="#DejaVuSans-30"/>
      </g>
     </g>
    </g>
    <g id="xtick_2">
     <g id="line2d_3">
      <path d="M 114.618474 307.584 
L 114.618474 41.472 
" clip-path="url(#p82f8212de1)" style="fill: none; stroke: #b0b0b0; stroke-width: 0.8; stroke-linecap: square"/>
     </g>
     <g id="line2d_4">
      <g>
       <use xlink:href="#m1d45b9f2d7" x="114.618474" y="307.584" style="stroke: #000000; stroke-width: 0.8"/>
      </g>
     </g>
     <g id="text_2">
      <!-- 25 -->
      <g transform="translate(108.255974 322.182437) scale(0.1 -0.1)">
       <defs>
        <path id="DejaVuSans-32" d="M 1228 531 
L 3431 531 
L 3431 0 
L 469 0 
L 469 531 
Q 828 903 1448 1529 
Q 2069 2156 2228 2338 
Q 2531 2678 2651 2914 
Q 2772 3150 2772 3378 
Q 2772 3750 2511 3984 
Q 2250 4219 1831 4219 
Q 1534 4219 1204 4116 
Q 875 4013 500 3803 
L 500 4441 
Q 881 4594 1212 4672 
Q 1544 4750 1819 4750 
Q 2544 4750 2975 4387 
Q 3406 4025 3406 3419 
Q 3406 3131 3298 2873 
Q 3191 2616 2906 2266 
Q 2828 2175 2409 1742 
Q 1991 1309 1228 531 
z
" transform="scale(0.015625)"/>
        <path id="DejaVuSans-35" d="M 691 4666 
L 3169 4666 
L 3169 4134 
L 1269 4134 
L 1269 2991 
Q 1406 3038 1543 3061 
Q 1681 3084 1819 3084 
Q 2600 3084 3056 2656 
Q 3513 2228 3513 1497 
Q 3513 744 3044 326 
Q 2575 -91 1722 -91 
Q 1428 -91 1123 -41 
Q 819 9 494 109 
L 494 744 
Q 775 591 1075 516 
Q 1375 441 1709 441 
Q 2250 441 2565 725 
Q 2881 1009 2881 1497 
Q 2881 1984 2565 2268 
Q 2250 2553 1709 2553 
Q 1456 2553 1204 2497 
Q 953 2441 691 2322 
L 691 4666 
z
" transform="scale(0.015625)"/>
       </defs>
       <use xlink:href="#DejaVuSans-32"/>
       <use xlink:href="#DejaVuSans-35" transform="translate(63.623047 0)"/>
      </g>
     </g>
    </g>
    <g id="xtick_3">
     <g id="line2d_5">
      <path d="M 155.404221 307.584 
L 155.404221 41.472 
" clip-path="url(#p82f8212de1)" style="fill: none; stroke: #b0b0b0; stroke-width: 0.8; stroke-linecap: square"/>
     </g>
     <g id="line2d_6">
      <g>
       <use xlink:href="#m1d45b9f2d7" x="155.404221" y="307.584" style="stroke: #000000; stroke-width: 0.8"/>
      </g>
     </g>
     <g id="text_3">
      <!-- 50 -->
      <g transform="translate(149.041721 322.182437) scale(0.1 -0.1)">
       <use xlink:href="#DejaVuSans-35"/>
       <use xlink:href="#DejaVuSans-30" transform="translate(63.623047 0)"/>
      </g>
     </g>
    </g>
    <g id="xtick_4">
     <g id="line2d_7">
      <path d="M 196.189968 307.584 
L 196.189968 41.472 
" clip-path="url(#p82f8212de1)" style="fill: none; stroke: #b0b0b0; stroke-width: 0.8; stroke-linecap: square"/>
     </g>
     <g id="line2d_8">
      <g>
       <use xlink:href="#m1d45b9f2d7" x="196.189968" y="307.584" style="stroke: #000000; stroke-width: 0.8"/>
      </g>
     </g>
     <g id="text_4">
      <!-- 75 -->
      <g transform="translate(189.827468 322.182437) scale(0.1 -0.1)">
       <defs>
        <path id="DejaVuSans-37" d="M 525 4666 
L 3525 4666 
L 3525 4397 
L 1831 0 
L 1172 0 
L 2766 4134 
L 525 4134 
L 525 4666 
z
" transform="scale(0.015625)"/>
       </defs>
       <use xlink:href="#DejaVuSans-37"/>
       <use xlink:href="#DejaVuSans-35" transform="translate(63.623047 0)"/>
      </g>
     </g>
    </g>
    <g id="xtick_5">
     <g id="line2d_9">
      <path d="M 236.975715 307.584 
L 236.975715 41.472 
" clip-path="url(#p82f8212de1)" style="fill: none; stroke: #b0b0b0; stroke-width: 0.8; stroke-linecap: square"/>
     </g>
     <g id="line2d_10">
      <g>
       <use xlink:href="#m1d45b9f2d7" x="236.975715" y="307.584" style="stroke: #000000; stroke-width: 0.8"/>
      </g>
     </g>
     <g id="text_5">
      <!-- 100 -->
      <g transform="translate(227.431965 322.182437) scale(0.1 -0.1)">
       <defs>
        <path id="DejaVuSans-31" d="M 794 531 
L 1825 531 
L 1825 4091 
L 703 3866 
L 703 4441 
L 1819 4666 
L 2450 4666 
L 2450 531 
L 3481 531 
L 3481 0 
L 794 0 
L 794 531 
z
" transform="scale(0.015625)"/>
       </defs>
       <use xlink:href="#DejaVuSans-31"/>
       <use xlink:href="#DejaVuSans-30" transform="translate(63.623047 0)"/>
       <use xlink:href="#DejaVuSans-30" transform="translate(127.246094 0)"/>
      </g>
     </g>
    </g>
    <g id="xtick_6">
     <g id="line2d_11">
      <path d="M 277.761462 307.584 
L 277.761462 41.472 
" clip-path="url(#p82f8212de1)" style="fill: none; stroke: #b0b0b0; stroke-width: 0.8; stroke-linecap: square"/>
     </g>
     <g id="line2d_12">
      <g>
       <use xlink:href="#m1d45b9f2d7" x="277.761462" y="307.584" style="stroke: #000000; stroke-width: 0.8"/>
      </g>
     </g>
     <g id="text_6">
      <!-- 125 -->
      <g transform="translate(268.217712 322.182437) scale(0.1 -0.1)">
       <use xlink:href="#DejaVuSans-31"/>
       <use xlink:href="#DejaVuSans-32" transform="translate(63.623047 0)"/>
       <use xlink:href="#DejaVuSans-35" transform="translate(127.246094 0)"/>
      </g>
     </g>
    </g>
    <g id="xtick_7">
     <g id="line2d_13">
      <path d="M 318.547209 307.584 
L 318.547209 41.472 
" clip-path="url(#p82f8212de1)" style="fill: none; stroke: #b0b0b0; stroke-width: 0.8; stroke-linecap: square"/>
     </g>
     <g id="line2d_14">
      <g>
       <use xlink:href="#m1d45b9f2d7" x="318.547209" y="307.584" style="stroke: #000000; stroke-width: 0.8"/>
      </g>
     </g>
     <g id="text_7">
      <!-- 150 -->
      <g transform="translate(309.003459 322.182437) scale(0.1 -0.1)">
       <use xlink:href="#DejaVuSans-31"/>
       <use xlink:href="#DejaVuSans-35" transform="translate(63.623047 0)"/>
       <use xlink:href="#DejaVuSans-30" transform="translate(127.246094 0)"/>
      </g>
     </g>
    </g>
    <g id="xtick_8">
     <g id="line2d_15">
      <path d="M 359.332956 307.584 
L 359.332956 41.472 
" clip-path="url(#p82f8212de1)" style="fill: none; stroke: #b0b0b0; stroke-width: 0.8; stroke-linecap: square"/>
     </g>
     <g id="line2d_16">
      <g>
       <use xlink:href="#m1d45b9f2d7" x="359.332956" y="307.584" style="stroke: #000000; stroke-width: 0.8"/>
      </g>
     </g>
     <g id="text_8">
      <!-- 175 -->
      <g transform="translate(349.789206 322.182437) scale(0.1 -0.1)">
       <use xlink:href="#DejaVuSans-31"/>
       <use xlink:href="#DejaVuSans-37" transform="translate(63.623047 0)"/>
       <use xlink:href="#DejaVuSans-35" transform="translate(127.246094 0)"/>
      </g>
     </g>
    </g>
    <g id="xtick_9">
     <g id="line2d_17">
      <path d="M 400.118703 307.584 
L 400.118703 41.472 
" clip-path="url(#p82f8212de1)" style="fill: none; stroke: #b0b0b0; stroke-width: 0.8; stroke-linecap: square"/>
     </g>
     <g id="line2d_18">
      <g>
       <use xlink:href="#m1d45b9f2d7" x="400.118703" y="307.584" style="stroke: #000000; stroke-width: 0.8"/>
      </g>
     </g>
     <g id="text_9">
      <!-- 200 -->
      <g transform="translate(390.574953 322.182437) scale(0.1 -0.1)">
       <use xlink:href="#DejaVuSans-32"/>
       <use xlink:href="#DejaVuSans-30" transform="translate(63.623047 0)"/>
       <use xlink:href="#DejaVuSans-30" transform="translate(127.246094 0)"/>
      </g>
     </g>
    </g>
    <g id="text_10">
     <!-- Generations -->
     <g transform="translate(205.662344 335.860562) scale(0.1 -0.1)">
      <defs>
       <path id="DejaVuSans-47" d="M 3809 666 
L 3809 1919 
L 2778 1919 
L 2778 2438 
L 4434 2438 
L 4434 434 
Q 4069 175 3628 42 
Q 3188 -91 2688 -91 
Q 1594 -91 976 548 
Q 359 1188 359 2328 
Q 359 3472 976 4111 
Q 1594 4750 2688 4750 
Q 3144 4750 3555 4637 
Q 3966 4525 4313 4306 
L 4313 3634 
Q 3963 3931 3569 4081 
Q 3175 4231 2741 4231 
Q 1884 4231 1454 3753 
Q 1025 3275 1025 2328 
Q 1025 1384 1454 906 
Q 1884 428 2741 428 
Q 3075 428 3337 486 
Q 3600 544 3809 666 
z
" transform="scale(0.015625)"/>
       <path id="DejaVuSans-65" d="M 3597 1894 
L 3597 1613 
L 953 1613 
Q 991 1019 1311 708 
Q 1631 397 2203 397 
Q 2534 397 2845 478 
Q 3156 559 3463 722 
L 3463 178 
Q 3153 47 2828 -22 
Q 2503 -91 2169 -91 
Q 1331 -91 842 396 
Q 353 884 353 1716 
Q 353 2575 817 3079 
Q 1281 3584 2069 3584 
Q 2775 3584 3186 3129 
Q 3597 2675 3597 1894 
z
M 3022 2063 
Q 3016 2534 2758 2815 
Q 2500 3097 2075 3097 
Q 1594 3097 1305 2825 
Q 1016 2553 972 2059 
L 3022 2063 
z
" transform="scale(0.015625)"/>
       <path id="DejaVuSans-6e" d="M 3513 2113 
L 3513 0 
L 2938 0 
L 2938 2094 
Q 2938 2591 2744 2837 
Q 2550 3084 2163 3084 
Q 1697 3084 1428 2787 
Q 1159 2491 1159 1978 
L 1159 0 
L 581 0 
L 581 3500 
L 1159 3500 
L 1159 2956 
Q 1366 3272 1645 3428 
Q 1925 3584 2291 3584 
Q 2894 3584 3203 3211 
Q 3513 2838 3513 2113 
z
" transform="scale(0.015625)"/>
       <path id="DejaVuSans-72" d="M 2631 2963 
Q 2534 3019 2420 3045 
Q 2306 3072 2169 3072 
Q 1681 3072 1420 2755 
Q 1159 2438 1159 1844 
L 1159 0 
L 581 0 
L 581 3500 
L 1159 3500 
L 1159 2956 
Q 1341 3275 1631 3429 
Q 1922 3584 2338 3584 
Q 2397 3584 2469 3576 
Q 2541 3569 2628 3553 
L 2631 2963 
z
" transform="scale(0.015625)"/>
       <path id="DejaVuSans-61" d="M 2194 1759 
Q 1497 1759 1228 1600 
Q 959 1441 959 1056 
Q 959 750 1161 570 
Q 1363 391 1709 391 
Q 2188 391 2477 730 
Q 2766 1069 2766 1631 
L 2766 1759 
L 2194 1759 
z
M 3341 1997 
L 3341 0 
L 2766 0 
L 2766 531 
Q 2569 213 2275 61 
Q 1981 -91 1556 -91 
Q 1019 -91 701 211 
Q 384 513 384 1019 
Q 384 1609 779 1909 
Q 1175 2209 1959 2209 
L 2766 2209 
L 2766 2266 
Q 2766 2663 2505 2880 
Q 2244 3097 1772 3097 
Q 1472 3097 1187 3025 
Q 903 2953 641 2809 
L 641 3341 
Q 956 3463 1253 3523 
Q 1550 3584 1831 3584 
Q 2591 3584 2966 3190 
Q 3341 2797 3341 1997 
z
" transform="scale(0.015625)"/>
       <path id="DejaVuSans-74" d="M 1172 4494 
L 1172 3500 
L 2356 3500 
L 2356 3053 
L 1172 3053 
L 1172 1153 
Q 1172 725 1289 603 
Q 1406 481 1766 481 
L 2356 481 
L 2356 0 
L 1766 0 
Q 1100 0 847 248 
Q 594 497 594 1153 
L 594 3053 
L 172 3053 
L 172 3500 
L 594 3500 
L 594 4494 
L 1172 4494 
z
" transform="scale(0.015625)"/>
       <path id="DejaVuSans-69" d="M 603 3500 
L 1178 3500 
L 1178 0 
L 603 0 
L 603 3500 
z
M 603 4863 
L 1178 4863 
L 1178 4134 
L 603 4134 
L 603 4863 
z
" transform="scale(0.015625)"/>
       <path id="DejaVuSans-6f" d="M 1959 3097 
Q 1497 3097 1228 2736 
Q 959 2375 959 1747 
Q 959 1119 1226 758 
Q 1494 397 1959 397 
Q 2419 397 2687 759 
Q 2956 1122 2956 1747 
Q 2956 2369 2687 2733 
Q 2419 3097 1959 3097 
z
M 1959 3584 
Q 2709 3584 3137 3096 
Q 3566 2609 3566 1747 
Q 3566 888 3137 398 
Q 2709 -91 1959 -91 
Q 1206 -91 779 398 
Q 353 888 353 1747 
Q 353 2609 779 3096 
Q 1206 3584 1959 3584 
z
" transform="scale(0.015625)"/>
       <path id="DejaVuSans-73" d="M 2834 3397 
L 2834 2853 
Q 2591 2978 2328 3040 
Q 2066 3103 1784 3103 
Q 1356 3103 1142 2972 
Q 928 2841 928 2578 
Q 928 2378 1081 2264 
Q 1234 2150 1697 2047 
L 1894 2003 
Q 2506 1872 2764 1633 
Q 3022 1394 3022 966 
Q 3022 478 2636 193 
Q 2250 -91 1575 -91 
Q 1294 -91 989 -36 
Q 684 19 347 128 
L 347 722 
Q 666 556 975 473 
Q 1284 391 1588 391 
Q 1994 391 2212 530 
Q 2431 669 2431 922 
Q 2431 1156 2273 1281 
Q 2116 1406 1581 1522 
L 1381 1569 
Q 847 1681 609 1914 
Q 372 2147 372 2553 
Q 372 3047 722 3315 
Q 1072 3584 1716 3584 
Q 2034 3584 2315 3537 
Q 2597 3491 2834 3397 
z
" transform="scale(0.015625)"/>
      </defs>
      <use xlink:href="#DejaVuSans-47"/>
      <use xlink:href="#DejaVuSans-65" transform="translate(77.490234 0)"/>
      <use xlink:href="#DejaVuSans-6e" transform="translate(139.013672 0)"/>
      <use xlink:href="#DejaVuSans-65" transform="translate(202.392578 0)"/>
      <use xlink:href="#DejaVuSans-72" transform="translate(263.916016 0)"/>
      <use xlink:href="#DejaVuSans-61" transform="translate(305.029297 0)"/>
      <use xlink:href="#DejaVuSans-74" transform="translate(366.308594 0)"/>
      <use xlink:href="#DejaVuSans-69" transform="translate(405.517578 0)"/>
      <use xlink:href="#DejaVuSans-6f" transform="translate(433.300781 0)"/>
      <use xlink:href="#DejaVuSans-6e" transform="translate(494.482422 0)"/>
      <use xlink:href="#DejaVuSans-73" transform="translate(557.861328 0)"/>
     </g>
    </g>
   </g>
   <g id="matplotlib.axis_2">
    <g id="ytick_1">
     <g id="line2d_19">
      <path d="M 57.6 115.966701 
L 414.72 115.966701 
" clip-path="url(#p82f8212de1)" style="fill: none; stroke: #b0b0b0; stroke-width: 0.8; stroke-linecap: square"/>
     </g>
     <g id="line2d_20">
      <defs>
       <path id="m9f22c32486" d="M 0 0 
L -3.5 0 
" style="stroke: #000000; stroke-width: 0.8"/>
      </defs>
      <g>
       <use xlink:href="#m9f22c32486" x="57.6" y="115.966701" style="stroke: #000000; stroke-width: 0.8"/>
      </g>
     </g>
     <g id="text_11">
      <!-- $\mathdefault{10^{2}}$ -->
      <g transform="translate(33 119.765919) scale(0.1 -0.1)">
       <use xlink:href="#DejaVuSans-31" transform="translate(0 0.765625)"/>
       <use xlink:href="#DejaVuSans-30" transform="translate(63.623047 0.765625)"/>
       <use xlink:href="#DejaVuSans-32" transform="translate(128.203125 39.046875) scale(0.7)"/>
      </g>
     </g>
    </g>
    <g id="text_12">
     <!-- Fitness -->
     <g transform="translate(26.920312 191.845187) rotate(-90) scale(0.1 -0.1)">
      <defs>
       <path id="DejaVuSans-46" d="M 628 4666 
L 3309 4666 
L 3309 4134 
L 1259 4134 
L 1259 2759 
L 3109 2759 
L 3109 2228 
L 1259 2228 
L 1259 0 
L 628 0 
L 628 4666 
z
" transform="scale(0.015625)"/>
      </defs>
      <use xlink:href="#DejaVuSans-46"/>
      <use xlink:href="#DejaVuSans-69" transform="translate(50.269531 0)"/>
      <use xlink:href="#DejaVuSans-74" transform="translate(78.052734 0)"/>
      <use xlink:href="#DejaVuSans-6e" transform="translate(117.261719 0)"/>
      <use xlink:href="#DejaVuSans-65" transform="translate(180.640625 0)"/>
      <use xlink:href="#DejaVuSans-73" transform="translate(242.164062 0)"/>
      <use xlink:href="#DejaVuSans-73" transform="translate(294.263672 0)"/>
     </g>
    </g>
   </g>
   <g id="line2d_21">
    <path d="M 73.832727 295.488 
L 75.464157 241.196759 
L 77.095587 191.895344 
L 78.727017 190.167661 
L 80.358447 164.792108 
L 83.621307 150.53685 
L 85.252736 145.885933 
L 86.884166 143.821195 
L 88.515596 150.110605 
L 90.147026 146.006828 
L 91.778456 145.141919 
L 93.409886 141.747617 
L 95.041316 141.015944 
L 96.672746 140.958689 
L 98.304175 142.100994 
L 99.935605 141.267258 
L 101.567035 137.813359 
L 103.198465 140.090326 
L 104.829895 142.578768 
L 106.461325 139.014791 
L 108.092755 138.612827 
L 109.724185 136.760712 
L 111.355614 137.23367 
L 112.987044 136.513034 
L 114.618474 135.500677 
L 116.249904 135.312645 
L 117.881334 136.204585 
L 119.512764 136.399476 
L 121.144194 136.803088 
L 122.775624 136.064313 
L 124.407053 136.525639 
L 126.038483 135.158903 
L 127.669913 134.93398 
L 129.301343 133.709613 
L 130.932773 134.261783 
L 132.564203 133.393073 
L 134.195633 135.282757 
L 135.827063 133.268165 
L 139.089922 134.318694 
L 142.352782 131.592882 
L 143.984212 131.897863 
L 145.615642 134.813878 
L 147.247072 133.763144 
L 148.878502 133.885919 
L 150.509931 131.742858 
L 152.141361 133.935184 
L 153.772791 132.197533 
L 155.404221 131.874524 
L 157.035651 133.062158 
L 158.667081 130.006187 
L 160.298511 132.149037 
L 161.929941 133.469189 
L 163.56137 132.761256 
L 165.1928 135.083884 
L 166.82423 135.993084 
L 168.45566 134.115386 
L 170.08709 133.804717 
L 171.71852 132.323574 
L 173.34995 131.546825 
L 174.98138 132.120759 
L 176.61281 131.760221 
L 178.244239 130.410842 
L 179.875669 132.392676 
L 181.507099 132.878696 
L 183.138529 132.067779 
L 184.769959 131.686701 
L 186.401389 132.636982 
L 188.032819 130.7532 
L 189.664249 130.643044 
L 191.295678 132.228761 
L 192.927108 132.779774 
L 194.558538 130.770668 
L 196.189968 134.232893 
L 197.821398 132.429974 
L 199.452828 131.58674 
L 201.084258 132.732831 
L 202.715688 130.023679 
L 204.347117 130.796608 
L 205.978547 132.783434 
L 207.609977 131.88925 
L 210.872837 130.507492 
L 212.504267 132.071795 
L 214.135697 132.62423 
L 215.767127 132.438636 
L 217.398556 132.698274 
L 219.029986 131.463318 
L 220.661416 132.0591 
L 222.292846 131.512283 
L 223.924276 131.347318 
L 225.555706 131.664837 
L 227.187136 131.051889 
L 230.449995 130.749452 
L 232.081425 132.534558 
L 233.712855 130.504024 
L 235.344285 128.981921 
L 236.975715 130.789275 
L 238.607145 129.473418 
L 240.238575 132.854447 
L 241.870005 131.473486 
L 243.501434 128.709702 
L 245.132864 128.930445 
L 246.764294 129.032551 
L 248.395724 130.240968 
L 250.027154 128.777678 
L 251.658584 128.259506 
L 253.290014 130.972674 
L 254.921444 129.527966 
L 256.552873 130.272641 
L 258.184303 128.617126 
L 259.815733 128.642785 
L 261.447163 129.491103 
L 263.078593 128.510223 
L 264.710023 127.813746 
L 266.341453 127.451543 
L 267.972883 129.541598 
L 269.604312 128.566065 
L 271.235742 129.754965 
L 272.867172 129.708022 
L 274.498602 128.395254 
L 276.130032 131.408726 
L 279.392892 127.776102 
L 281.024322 128.897674 
L 282.655751 127.537844 
L 284.287181 131.032869 
L 285.918611 129.242163 
L 287.550041 129.426853 
L 289.181471 128.923326 
L 290.812901 131.53712 
L 292.444331 128.022268 
L 294.075761 127.503289 
L 295.70719 127.682808 
L 297.33862 129.881777 
L 298.97005 126.245104 
L 300.60148 128.068329 
L 302.23291 128.131628 
L 303.86434 129.226567 
L 305.49577 127.625298 
L 307.1272 128.628215 
L 308.75863 128.512378 
L 310.390059 126.697604 
L 312.021489 126.541241 
L 313.652919 128.581067 
L 315.284349 129.16458 
L 316.915779 127.854054 
L 318.547209 128.102592 
L 320.178639 127.40889 
L 321.810069 129.811317 
L 323.441498 127.758587 
L 325.072928 128.928756 
L 326.704358 126.313152 
L 328.335788 128.169105 
L 329.967218 126.740668 
L 331.598648 127.450498 
L 333.230078 126.746601 
L 334.861508 126.971841 
L 336.492937 127.684255 
L 338.124367 128.252127 
L 339.755797 127.884775 
L 341.387227 128.454535 
L 343.018657 126.714624 
L 344.650087 126.35046 
L 346.281517 126.971237 
L 347.912947 126.451317 
L 349.544376 126.907024 
L 352.807236 126.809455 
L 354.438666 128.396685 
L 356.070096 128.980281 
L 357.701526 128.675064 
L 359.332956 126.443725 
L 360.964386 124.952532 
L 362.595815 126.528295 
L 364.227245 127.05836 
L 365.858675 128.234704 
L 367.490105 126.402348 
L 369.121535 128.186932 
L 370.752965 127.3572 
L 372.384395 127.12314 
L 374.015825 125.474939 
L 375.647254 127.415318 
L 377.278684 128.600809 
L 378.910114 126.334019 
L 380.541544 126.369016 
L 382.172974 127.833145 
L 383.804404 127.537174 
L 385.435834 125.550019 
L 387.067264 125.402711 
L 388.698693 126.433166 
L 390.330123 126.429562 
L 391.961553 126.604421 
L 393.592983 127.625678 
L 395.224413 128.99676 
L 396.855843 129.007959 
L 398.487273 126.142409 
L 398.487273 126.142409 
" clip-path="url(#p82f8212de1)" style="fill: none; stroke: #0000ff; stroke-width: 1.5; stroke-linecap: square"/>
   </g>
   <g id="line2d_22">
    <path d="M 73.832727 238.76629 
L 75.464157 189.704327 
L 77.095587 150.019223 
L 78.727017 146.577022 
L 80.358447 125.964648 
L 81.989877 125.629349 
L 83.621307 126.292335 
L 85.252736 126.803548 
L 86.884166 122.354827 
L 88.515596 120.556635 
L 90.147026 125.99863 
L 93.409886 122.830555 
L 95.041316 121.928583 
L 96.672746 122.124774 
L 98.304175 123.772894 
L 99.935605 122.358294 
L 101.567035 123.687285 
L 103.198465 121.89099 
L 104.829895 115.715176 
L 106.461325 123.343734 
L 108.092755 120.577422 
L 109.724185 121.614209 
L 111.355614 119.099343 
L 112.987044 118.153 
L 114.618474 115.448919 
L 116.249904 117.811412 
L 117.881334 116.830867 
L 119.512764 120.652578 
L 121.144194 118.863774 
L 122.775624 118.809651 
L 124.407053 121.280477 
L 127.669913 118.932558 
L 129.301343 116.979658 
L 130.932773 115.863093 
L 132.564203 118.450953 
L 134.195633 118.431548 
L 135.827063 119.41694 
L 137.458492 117.975588 
L 139.089922 117.641135 
L 140.721352 118.066856 
L 142.352782 114.027945 
L 143.984212 115.352634 
L 145.615642 119.711392 
L 147.247072 119.030929 
L 148.878502 119.749169 
L 150.509931 115.640257 
L 152.141361 115.624761 
L 153.772791 114.862696 
L 155.404221 116.205776 
L 157.035651 117.924117 
L 158.667081 113.213173 
L 160.298511 116.875123 
L 161.929941 118.539828 
L 163.56137 117.55615 
L 165.1928 118.629902 
L 168.45566 119.313237 
L 170.08709 119.813721 
L 171.71852 116.133317 
L 173.34995 115.826448 
L 174.98138 116.735066 
L 176.61281 116.968974 
L 178.244239 114.898999 
L 179.875669 115.930899 
L 181.507099 117.347664 
L 183.138529 116.647013 
L 184.769959 115.825272 
L 186.401389 115.805353 
L 188.032819 114.717336 
L 189.664249 113.957491 
L 191.295678 115.470181 
L 192.927108 118.36396 
L 194.558538 115.654385 
L 196.189968 117.329285 
L 197.821398 116.862112 
L 199.452828 115.638586 
L 201.084258 114.946246 
L 202.715688 114.511877 
L 204.347117 115.402193 
L 205.978547 118.072577 
L 209.241407 114.269391 
L 210.872837 115.909582 
L 214.135697 115.289053 
L 215.767127 112.871577 
L 217.398556 116.695083 
L 219.029986 114.879611 
L 220.661416 116.727987 
L 222.292846 114.537111 
L 223.924276 114.559675 
L 225.555706 116.375271 
L 227.187136 116.012938 
L 228.818566 115.067378 
L 230.449995 115.833018 
L 232.081425 116.942297 
L 233.712855 112.912558 
L 235.344285 112.170631 
L 236.975715 114.163816 
L 238.607145 112.338093 
L 240.238575 115.56418 
L 241.870005 114.809674 
L 243.501434 112.382557 
L 245.132864 111.950264 
L 246.764294 112.881909 
L 248.395724 112.278119 
L 250.027154 113.34494 
L 251.658584 111.363452 
L 253.290014 115.680386 
L 254.921444 113.614183 
L 256.552873 116.016666 
L 258.184303 112.078406 
L 259.815733 110.825641 
L 261.447163 111.426766 
L 263.078593 111.845073 
L 264.710023 111.82443 
L 266.341453 107.815479 
L 267.972883 113.83035 
L 269.604312 112.17098 
L 271.235742 113.287154 
L 272.867172 113.253167 
L 274.498602 112.354145 
L 276.130032 112.854097 
L 277.761462 112.833179 
L 279.392892 110.967529 
L 281.024322 112.658223 
L 282.655751 110.367864 
L 284.287181 115.194506 
L 285.918611 114.309896 
L 287.550041 113.918066 
L 289.181471 110.684447 
L 290.812901 113.918591 
L 292.444331 111.591066 
L 294.075761 111.220553 
L 295.70719 111.866928 
L 297.33862 113.54941 
L 298.97005 109.142679 
L 300.60148 112.352215 
L 302.23291 112.993749 
L 303.86434 112.004315 
L 305.49577 113.514085 
L 307.1272 110.93417 
L 308.75863 112.111372 
L 310.390059 110.606784 
L 312.021489 110.227795 
L 313.652919 113.295048 
L 315.284349 111.420987 
L 316.915779 111.740989 
L 318.547209 111.441698 
L 320.178639 110.219245 
L 321.810069 113.225341 
L 323.441498 111.345196 
L 325.072928 112.938527 
L 326.704358 110.561839 
L 328.335788 111.57355 
L 329.967218 111.246457 
L 331.598648 109.02855 
L 333.230078 111.001667 
L 334.861508 109.987114 
L 338.124367 111.461048 
L 339.755797 111.929345 
L 341.387227 113.787718 
L 344.650087 109.309472 
L 346.281517 108.987751 
L 347.912947 109.13669 
L 349.544376 111.734891 
L 352.807236 110.052665 
L 356.070096 111.89025 
L 357.701526 113.006995 
L 359.332956 110.526292 
L 360.964386 107.744929 
L 362.595815 109.021404 
L 364.227245 109.615393 
L 365.858675 113.131859 
L 367.490105 109.685862 
L 369.121535 109.653716 
L 370.752965 112.475652 
L 372.384395 111.787197 
L 374.015825 109.250892 
L 375.647254 111.338067 
L 377.278684 110.952944 
L 378.910114 111.701313 
L 380.541544 109.581242 
L 382.172974 112.765367 
L 383.804404 110.442259 
L 385.435834 108.397807 
L 387.067264 109.590573 
L 388.698693 109.968097 
L 390.330123 111.287224 
L 391.961553 108.960789 
L 393.592983 111.101946 
L 395.224413 112.592636 
L 396.855843 111.920536 
L 398.487273 109.185348 
L 398.487273 109.185348 
" clip-path="url(#p82f8212de1)" style="fill: none; stroke-dasharray: 9.6,2.4,1.5,2.4; stroke-dashoffset: 0; stroke: #008000; stroke-width: 1.5"/>
   </g>
   <g id="line2d_23">
    <path d="M 73.832727 142.089263 
L 75.464157 125.083244 
L 77.095587 118.058007 
L 78.727017 101.482217 
L 80.358447 111.388251 
L 81.989877 97.093911 
L 83.621307 93.938706 
L 85.252736 107.826698 
L 86.884166 101.446372 
L 88.515596 96.775482 
L 90.147026 103.114218 
L 91.778456 98.506676 
L 93.409886 96.9587 
L 95.041316 91.205358 
L 96.672746 89.326792 
L 98.304175 78.185066 
L 99.935605 100.076641 
L 101.567035 89.895996 
L 103.198465 93.956763 
L 104.829895 96.990676 
L 106.461325 103.099656 
L 108.092755 88.09445 
L 109.724185 95.213684 
L 111.355614 89.300437 
L 112.987044 89.779556 
L 114.618474 93.555357 
L 116.249904 79.388161 
L 117.881334 76.550408 
L 119.512764 101.494161 
L 121.144194 92.075854 
L 122.775624 100.194386 
L 124.407053 99.706422 
L 126.038483 90.897704 
L 127.669913 94.053719 
L 130.932773 79.749999 
L 132.564203 80.796191 
L 134.195633 90.705303 
L 135.827063 93.831416 
L 137.458492 80.520276 
L 139.089922 90.881846 
L 140.721352 91.198331 
L 142.352782 79.54765 
L 143.984212 89.486462 
L 145.615642 92.409873 
L 147.247072 86.636707 
L 148.878502 82.182789 
L 150.509931 85.940566 
L 152.141361 79.311079 
L 153.772791 83.77742 
L 155.404221 85.066093 
L 157.035651 92.100364 
L 158.667081 75.227981 
L 160.298511 85.198632 
L 161.929941 75.52611 
L 163.56137 86.725327 
L 165.1928 83.869251 
L 166.82423 88.203633 
L 168.45566 75.168853 
L 170.08709 86.86189 
L 171.71852 76.775377 
L 173.34995 80.638566 
L 174.98138 74.136024 
L 176.61281 85.348312 
L 178.244239 88.44074 
L 179.875669 86.762635 
L 181.507099 87.375225 
L 183.138529 78.279124 
L 184.769959 83.575592 
L 186.401389 85.397005 
L 188.032819 78.213749 
L 189.664249 89.578998 
L 191.295678 90.79644 
L 192.927108 85.189389 
L 194.558538 85.596126 
L 196.189968 95.053588 
L 197.821398 94.233999 
L 199.452828 74.44968 
L 201.084258 77.013969 
L 202.715688 83.487283 
L 204.347117 80.727389 
L 205.978547 95.307443 
L 207.609977 87.629794 
L 209.241407 74.272691 
L 210.872837 89.35246 
L 212.504267 80.860012 
L 214.135697 82.407778 
L 215.767127 66.35348 
L 217.398556 83.361964 
L 219.029986 85.912381 
L 220.661416 79.482796 
L 222.292846 59.780842 
L 223.924276 84.838132 
L 225.555706 82.418607 
L 227.187136 85.164377 
L 228.818566 92.561707 
L 230.449995 74.125466 
L 232.081425 88.305779 
L 233.712855 72.85606 
L 235.344285 80.619113 
L 236.975715 78.123924 
L 238.607145 83.55258 
L 240.238575 85.45956 
L 241.870005 90.878954 
L 243.501434 78.086582 
L 245.132864 83.876176 
L 246.764294 83.555726 
L 248.395724 90.730401 
L 250.027154 82.072809 
L 251.658584 70.041704 
L 253.290014 83.771077 
L 254.921444 76.832911 
L 256.552873 79.170933 
L 258.184303 78.01574 
L 259.815733 68.732578 
L 261.447163 83.651709 
L 263.078593 76.559334 
L 264.710023 82.317125 
L 266.341453 69.13101 
L 267.972883 89.175442 
L 269.604312 79.210716 
L 271.235742 84.744155 
L 272.867172 80.83692 
L 274.498602 83.619939 
L 276.130032 81.975968 
L 277.761462 79.299741 
L 279.392892 61.223051 
L 281.024322 79.469517 
L 282.655751 64.962809 
L 284.287181 89.300159 
L 285.918611 85.537819 
L 287.550041 72.492145 
L 289.181471 65.943046 
L 290.812901 84.067142 
L 292.444331 69.859637 
L 294.075761 81.128563 
L 295.70719 68.551185 
L 297.33862 83.351394 
L 298.97005 71.395303 
L 300.60148 74.271931 
L 302.23291 82.70254 
L 303.86434 70.030372 
L 305.49577 86.707137 
L 307.1272 66.831077 
L 308.75863 70.217016 
L 310.390059 68.74018 
L 312.021489 75.28926 
L 313.652919 83.409995 
L 315.284349 86.663184 
L 316.915779 77.777805 
L 318.547209 78.27622 
L 320.178639 73.966628 
L 321.810069 78.374157 
L 323.441498 80.594647 
L 325.072928 86.407838 
L 326.704358 72.494812 
L 328.335788 64.111571 
L 329.967218 84.150946 
L 331.598648 86.081919 
L 333.230078 81.122451 
L 334.861508 75.101295 
L 336.492937 62.297308 
L 338.124367 83.389074 
L 341.387227 86.733206 
L 343.018657 76.823462 
L 344.650087 68.79761 
L 346.281517 64.105603 
L 347.912947 67.350306 
L 349.544376 83.36524 
L 351.175806 82.284403 
L 352.807236 62.052844 
L 354.438666 71.395273 
L 356.070096 78.240272 
L 357.701526 83.582802 
L 359.332956 77.042395 
L 360.964386 73.657569 
L 362.595815 79.318077 
L 364.227245 79.54138 
L 365.858675 78.031191 
L 367.490105 60.00537 
L 369.121535 53.568 
L 370.752965 89.804146 
L 372.384395 81.335994 
L 374.015825 69.947265 
L 375.647254 82.106367 
L 377.278684 68.716198 
L 378.910114 90.734989 
L 380.541544 84.837053 
L 382.172974 58.311161 
L 383.804404 69.034016 
L 385.435834 73.145693 
L 387.067264 71.386485 
L 388.698693 72.98147 
L 390.330123 89.617638 
L 391.961553 74.290491 
L 393.592983 72.583051 
L 395.224413 72.848791 
L 396.855843 86.785368 
L 398.487273 67.246308 
L 398.487273 67.246308 
" clip-path="url(#p82f8212de1)" style="fill: none; stroke: #ff0000; stroke-width: 1.5; stroke-linecap: square"/>
   </g>
   <g id="patch_3">
    <path d="M 57.6 307.584 
L 57.6 41.472 
" style="fill: none; stroke: #000000; stroke-width: 0.8; stroke-linejoin: miter; stroke-linecap: square"/>
   </g>
   <g id="patch_4">
    <path d="M 414.72 307.584 
L 414.72 41.472 
" style="fill: none; stroke: #000000; stroke-width: 0.8; stroke-linejoin: miter; stroke-linecap: square"/>
   </g>
   <g id="patch_5">
    <path d="M 57.6 307.584 
L 414.72 307.584 
" style="fill: none; stroke: #000000; stroke-width: 0.8; stroke-linejoin: miter; stroke-linecap: square"/>
   </g>
   <g id="patch_6">
    <path d="M 57.6 41.472 
L 414.72 41.472 
" style="fill: none; stroke: #000000; stroke-width: 0.8; stroke-linejoin: miter; stroke-linecap: square"/>
   </g>
   <g id="text_13">
    <!-- Population's average and best fitness -->
    <g transform="translate(123.529687 35.472) scale(0.12 -0.12)">
     <defs>
      <path id="DejaVuSans-50" d="M 1259 4147 
L 1259 2394 
L 2053 2394 
Q 2494 2394 2734 2622 
Q 2975 2850 2975 3272 
Q 2975 3691 2734 3919 
Q 2494 4147 2053 4147 
L 1259 4147 
z
M 628 4666 
L 2053 4666 
Q 2838 4666 3239 4311 
Q 3641 3956 3641 3272 
Q 3641 2581 3239 2228 
Q 2838 1875 2053 1875 
L 1259 1875 
L 1259 0 
L 628 0 
L 628 4666 
z
" transform="scale(0.015625)"/>
      <path id="DejaVuSans-70" d="M 1159 525 
L 1159 -1331 
L 581 -1331 
L 581 3500 
L 1159 3500 
L 1159 2969 
Q 1341 3281 1617 3432 
Q 1894 3584 2278 3584 
Q 2916 3584 3314 3078 
Q 3713 2572 3713 1747 
Q 3713 922 3314 415 
Q 2916 -91 2278 -91 
Q 1894 -91 1617 61 
Q 1341 213 1159 525 
z
M 3116 1747 
Q 3116 2381 2855 2742 
Q 2594 3103 2138 3103 
Q 1681 3103 1420 2742 
Q 1159 2381 1159 1747 
Q 1159 1113 1420 752 
Q 1681 391 2138 391 
Q 2594 391 2855 752 
Q 3116 1113 3116 1747 
z
" transform="scale(0.015625)"/>
      <path id="DejaVuSans-75" d="M 544 1381 
L 544 3500 
L 1119 3500 
L 1119 1403 
Q 1119 906 1312 657 
Q 1506 409 1894 409 
Q 2359 409 2629 706 
Q 2900 1003 2900 1516 
L 2900 3500 
L 3475 3500 
L 3475 0 
L 2900 0 
L 2900 538 
Q 2691 219 2414 64 
Q 2138 -91 1772 -91 
Q 1169 -91 856 284 
Q 544 659 544 1381 
z
M 1991 3584 
L 1991 3584 
z
" transform="scale(0.015625)"/>
      <path id="DejaVuSans-6c" d="M 603 4863 
L 1178 4863 
L 1178 0 
L 603 0 
L 603 4863 
z
" transform="scale(0.015625)"/>
      <path id="DejaVuSans-27" d="M 1147 4666 
L 1147 2931 
L 616 2931 
L 616 4666 
L 1147 4666 
z
" transform="scale(0.015625)"/>
      <path id="DejaVuSans-20" transform="scale(0.015625)"/>
      <path id="DejaVuSans-76" d="M 191 3500 
L 800 3500 
L 1894 563 
L 2988 3500 
L 3597 3500 
L 2284 0 
L 1503 0 
L 191 3500 
z
" transform="scale(0.015625)"/>
      <path id="DejaVuSans-67" d="M 2906 1791 
Q 2906 2416 2648 2759 
Q 2391 3103 1925 3103 
Q 1463 3103 1205 2759 
Q 947 2416 947 1791 
Q 947 1169 1205 825 
Q 1463 481 1925 481 
Q 2391 481 2648 825 
Q 2906 1169 2906 1791 
z
M 3481 434 
Q 3481 -459 3084 -895 
Q 2688 -1331 1869 -1331 
Q 1566 -1331 1297 -1286 
Q 1028 -1241 775 -1147 
L 775 -588 
Q 1028 -725 1275 -790 
Q 1522 -856 1778 -856 
Q 2344 -856 2625 -561 
Q 2906 -266 2906 331 
L 2906 616 
Q 2728 306 2450 153 
Q 2172 0 1784 0 
Q 1141 0 747 490 
Q 353 981 353 1791 
Q 353 2603 747 3093 
Q 1141 3584 1784 3584 
Q 2172 3584 2450 3431 
Q 2728 3278 2906 2969 
L 2906 3500 
L 3481 3500 
L 3481 434 
z
" transform="scale(0.015625)"/>
      <path id="DejaVuSans-64" d="M 2906 2969 
L 2906 4863 
L 3481 4863 
L 3481 0 
L 2906 0 
L 2906 525 
Q 2725 213 2448 61 
Q 2172 -91 1784 -91 
Q 1150 -91 751 415 
Q 353 922 353 1747 
Q 353 2572 751 3078 
Q 1150 3584 1784 3584 
Q 2172 3584 2448 3432 
Q 2725 3281 2906 2969 
z
M 947 1747 
Q 947 1113 1208 752 
Q 1469 391 1925 391 
Q 2381 391 2643 752 
Q 2906 1113 2906 1747 
Q 2906 2381 2643 2742 
Q 2381 3103 1925 3103 
Q 1469 3103 1208 2742 
Q 947 2381 947 1747 
z
" transform="scale(0.015625)"/>
      <path id="DejaVuSans-62" d="M 3116 1747 
Q 3116 2381 2855 2742 
Q 2594 3103 2138 3103 
Q 1681 3103 1420 2742 
Q 1159 2381 1159 1747 
Q 1159 1113 1420 752 
Q 1681 391 2138 391 
Q 2594 391 2855 752 
Q 3116 1113 3116 1747 
z
M 1159 2969 
Q 1341 3281 1617 3432 
Q 1894 3584 2278 3584 
Q 2916 3584 3314 3078 
Q 3713 2572 3713 1747 
Q 3713 922 3314 415 
Q 2916 -91 2278 -91 
Q 1894 -91 1617 61 
Q 1341 213 1159 525 
L 1159 0 
L 581 0 
L 581 4863 
L 1159 4863 
L 1159 2969 
z
" transform="scale(0.015625)"/>
      <path id="DejaVuSans-66" d="M 2375 4863 
L 2375 4384 
L 1825 4384 
Q 1516 4384 1395 4259 
Q 1275 4134 1275 3809 
L 1275 3500 
L 2222 3500 
L 2222 3053 
L 1275 3053 
L 1275 0 
L 697 0 
L 697 3053 
L 147 3053 
L 147 3500 
L 697 3500 
L 697 3744 
Q 697 4328 969 4595 
Q 1241 4863 1831 4863 
L 2375 4863 
z
" transform="scale(0.015625)"/>
     </defs>
     <use xlink:href="#DejaVuSans-50"/>
     <use xlink:href="#DejaVuSans-6f" transform="translate(56.677734 0)"/>
     <use xlink:href="#DejaVuSans-70" transform="translate(117.859375 0)"/>
     <use xlink:href="#DejaVuSans-75" transform="translate(181.335938 0)"/>
     <use xlink:href="#DejaVuSans-6c" transform="translate(244.714844 0)"/>
     <use xlink:href="#DejaVuSans-61" transform="translate(272.498047 0)"/>
     <use xlink:href="#DejaVuSans-74" transform="translate(333.777344 0)"/>
     <use xlink:href="#DejaVuSans-69" transform="translate(372.986328 0)"/>
     <use xlink:href="#DejaVuSans-6f" transform="translate(400.769531 0)"/>
     <use xlink:href="#DejaVuSans-6e" transform="translate(461.951172 0)"/>
     <use xlink:href="#DejaVuSans-27" transform="translate(525.330078 0)"/>
     <use xlink:href="#DejaVuSans-73" transform="translate(552.820312 0)"/>
     <use xlink:href="#DejaVuSans-20" transform="translate(604.919922 0)"/>
     <use xlink:href="#DejaVuSans-61" transform="translate(636.707031 0)"/>
     <use xlink:href="#DejaVuSans-76" transform="translate(697.986328 0)"/>
     <use xlink:href="#DejaVuSans-65" transform="translate(757.166016 0)"/>
     <use xlink:href="#DejaVuSans-72" transform="translate(818.689453 0)"/>
     <use xlink:href="#DejaVuSans-61" transform="translate(859.802734 0)"/>
     <use xlink:href="#DejaVuSans-67" transform="translate(921.082031 0)"/>
     <use xlink:href="#DejaVuSans-65" transform="translate(984.558594 0)"/>
     <use xlink:href="#DejaVuSans-20" transform="translate(1046.082031 0)"/>
     <use xlink:href="#DejaVuSans-61" transform="translate(1077.869141 0)"/>
     <use xlink:href="#DejaVuSans-6e" transform="translate(1139.148438 0)"/>
     <use xlink:href="#DejaVuSans-64" transform="translate(1202.527344 0)"/>
     <use xlink:href="#DejaVuSans-20" transform="translate(1266.003906 0)"/>
     <use xlink:href="#DejaVuSans-62" transform="translate(1297.791016 0)"/>
     <use xlink:href="#DejaVuSans-65" transform="translate(1361.267578 0)"/>
     <use xlink:href="#DejaVuSans-73" transform="translate(1422.791016 0)"/>
     <use xlink:href="#DejaVuSans-74" transform="translate(1474.890625 0)"/>
     <use xlink:href="#DejaVuSans-20" transform="translate(1514.099609 0)"/>
     <use xlink:href="#DejaVuSans-66" transform="translate(1545.886719 0)"/>
     <use xlink:href="#DejaVuSans-69" transform="translate(1581.091797 0)"/>
     <use xlink:href="#DejaVuSans-74" transform="translate(1608.875 0)"/>
     <use xlink:href="#DejaVuSans-6e" transform="translate(1648.083984 0)"/>
     <use xlink:href="#DejaVuSans-65" transform="translate(1711.462891 0)"/>
     <use xlink:href="#DejaVuSans-73" transform="translate(1772.986328 0)"/>
     <use xlink:href="#DejaVuSans-73" transform="translate(1825.085938 0)"/>
    </g>
   </g>
   <g id="legend_1">
    <g id="patch_7">
     <path d="M 334.779375 302.584 
L 407.72 302.584 
Q 409.72 302.584 409.72 300.584 
L 409.72 257.549625 
Q 409.72 255.549625 407.72 255.549625 
L 334.779375 255.549625 
Q 332.779375 255.549625 332.779375 257.549625 
L 332.779375 300.584 
Q 332.779375 302.584 334.779375 302.584 
z
" style="fill: #ffffff; opacity: 0.8; stroke: #cccccc; stroke-linejoin: miter"/>
    </g>
    <g id="line2d_24">
     <path d="M 336.779375 263.648062 
L 346.779375 263.648062 
L 356.779375 263.648062 
" style="fill: none; stroke: #0000ff; stroke-width: 1.5; stroke-linecap: square"/>
    </g>
    <g id="text_14">
     <!-- average -->
     <g transform="translate(364.779375 267.148062) scale(0.1 -0.1)">
      <use xlink:href="#DejaVuSans-61"/>
      <use xlink:href="#DejaVuSans-76" transform="translate(61.279297 0)"/>
      <use xlink:href="#DejaVuSans-65" transform="translate(120.458984 0)"/>
      <use xlink:href="#DejaVuSans-72" transform="translate(181.982422 0)"/>
      <use xlink:href="#DejaVuSans-61" transform="translate(223.095703 0)"/>
      <use xlink:href="#DejaVuSans-67" transform="translate(284.375 0)"/>
      <use xlink:href="#DejaVuSans-65" transform="translate(347.851562 0)"/>
     </g>
    </g>
    <g id="line2d_25">
     <path d="M 336.779375 278.326188 
L 346.779375 278.326188 
L 356.779375 278.326188 
" style="fill: none; stroke-dasharray: 9.6,2.4,1.5,2.4; stroke-dashoffset: 0; stroke: #008000; stroke-width: 1.5"/>
    </g>
    <g id="text_15">
     <!-- +1 sd -->
     <g transform="translate(364.779375 281.826188) scale(0.1 -0.1)">
      <defs>
       <path id="DejaVuSans-2b" d="M 2944 4013 
L 2944 2272 
L 4684 2272 
L 4684 1741 
L 2944 1741 
L 2944 0 
L 2419 0 
L 2419 1741 
L 678 1741 
L 678 2272 
L 2419 2272 
L 2419 4013 
L 2944 4013 
z
" transform="scale(0.015625)"/>
      </defs>
      <use xlink:href="#DejaVuSans-2b"/>
      <use xlink:href="#DejaVuSans-31" transform="translate(83.789062 0)"/>
      <use xlink:href="#DejaVuSans-20" transform="translate(147.412109 0)"/>
      <use xlink:href="#DejaVuSans-73" transform="translate(179.199219 0)"/>
      <use xlink:href="#DejaVuSans-64" transform="translate(231.298828 0)"/>
     </g>
    </g>
    <g id="line2d_26">
     <path d="M 336.779375 293.004312 
L 346.779375 293.004312 
L 356.779375 293.004312 
" style="fill: none; stroke: #ff0000; stroke-width: 1.5; stroke-linecap: square"/>
    </g>
    <g id="text_16">
     <!-- best -->
     <g transform="translate(364.779375 296.504312) scale(0.1 -0.1)">
      <use xlink:href="#DejaVuSans-62"/>
      <use xlink:href="#DejaVuSans-65" transform="translate(63.476562 0)"/>
      <use xlink:href="#DejaVuSans-73" transform="translate(125 0)"/>
      <use xlink:href="#DejaVuSans-74" transform="translate(177.099609 0)"/>
     </g>
    </g>
   </g>
  </g>
 </g>
 <defs>
  <clipPath id="p82f8212de1">
   <rect x="57.6" y="41.472" width="357.12" height="266.112"/>
  </clipPath>
 </defs>
</svg>
