<?xml version="1.0" encoding="utf-8" standalone="no"?>
<!DOCTYPE svg PUBLIC "-//W3C//DTD SVG 1.1//EN"
  "http://www.w3.org/Graphics/SVG/1.1/DTD/svg11.dtd">
<svg xmlns:xlink="http://www.w3.org/1999/xlink" width="460.8pt" height="345.6pt" viewBox="0 0 460.8 345.6" xmlns="http://www.w3.org/2000/svg" version="1.1">
 <metadata>
  <rdf:RDF xmlns:dc="http://purl.org/dc/elements/1.1/" xmlns:cc="http://creativecommons.org/ns#" xmlns:rdf="http://www.w3.org/1999/02/22-rdf-syntax-ns#">
   <cc:Work>
    <dc:type rdf:resource="http://purl.org/dc/dcmitype/StillImage"/>
    <dc:date>2026-04-23T22:27:30.849209</dc:date>
    <dc:format>image/svg+xml</dc:format>
    <dc:creator>
     <cc:Agent>
      <dc:title>Matplotlib v3.10.8, https://matplotlib.org/</dc:title>
     </cc:Agent>
    </dc:creator>
   </cc:Work>
  </rdf:RDF>
 </metadata>
 <defs>
  <style type="text/css">*{stroke-linejoin: round; stroke-linecap: butt}</style>
 </defs>
 <g id="figure_1">
  <g id="patch_1">
   <path d="M 0 345.6 
L 460.8 345.6 
L 460.8 0 
L 0 0 
z
" style="fill: #ffffff"/>
  </g>
  <g id="axes_1">
   <g id="patch_2">
    <path d="M 57.6 307.584 
L 414.72 307.584 
L 414.72 41.472 
L 57.6 41.472 
z
" style="fill: #ffffff"/>
   </g>
   <g id="matplotlib.axis_1">
    <g id="xtick_1">
     <g id="line2d_1">
      <path d="M 73.832727 307.584 
L 73.832727 41.472 
" clip-path="url(#pff39263785)" style="fill: none; stroke: #b0b0b0; stroke-width: 0.8; stroke-linecap: square"/>
     </g>
     <g id="line2d_2">
      <defs>
       <path id="m524e330904" d="M 0 0 
L 0 3.5 
" style="stroke: #000000; stroke-width: 0.8"/>
      </defs>
      <g>
       <use xlink:href="#m524e330904" x="73.832727" y="307.584" style="stroke: #000000; stroke-width: 0.8"/>
      </g>
     </g>
     <g id="text_1">
      <!-- 0 -->
      <g transform="translate(70.651477 322.182437) scale(0.1 -0.1)">
       <defs>
        <path id="DejaVuSans-30" d="M 2034 4250 
Q 1547 4250 1301 3770 
Q 1056 3291 1056 2328 
Q 1056 1369 1301 889 
Q 1547 409 2034 409 
Q 2525 409 2770 889 
Q 3016 1369 3016 2328 
Q 3016 3291 2770 3770 
Q 2525 4250 2034 4250 
z
M 2034 4750 
Q 2819 4750 3233 4129 
Q 3647 3509 3647 2328 
Q 3647 1150 3233 529 
Q 2819 -91 2034 -91 
Q 1250 -91 836 529 
Q 422 1150 422 2328 
Q 422 3509 836 4129 
Q 1250 4750 2034 4750 
z
" transform="scale(0.015625)"/>
       </defs>
       <use xlink:href="#DejaVuSans-30"/>
      </g>
     </g>
    </g>
    <g id="xtick_2">
     <g id="line2d_3">
      <path d="M 114.618474 307.584 
L 114.618474 41.472 
" clip-path="url(#pff39263785)" style="fill: none; stroke: #b0b0b0; stroke-width: 0.8; stroke-linecap: square"/>
     </g>
     <g id="line2d_4">
      <g>
       <use xlink:href="#m524e330904" x="114.618474" y="307.584" style="stroke: #000000; stroke-width: 0.8"/>
      </g>
     </g>
     <g id="text_2">
      <!-- 25 -->
      <g transform="translate(108.255974 322.182437) scale(0.1 -0.1)">
       <defs>
        <path id="DejaVuSans-32" d="M 1228 531 
L 3431 531 
L 3431 0 
L 469 0 
L 469 531 
Q 828 903 1448 1529 
Q 2069 2156 2228 2338 
Q 2531 2678 2651 2914 
Q 2772 3150 2772 3378 
Q 2772 3750 2511 3984 
Q 2250 4219 1831 4219 
Q 1534 4219 1204 4116 
Q 875 4013 500 3803 
L 500 4441 
Q 881 4594 1212 4672 
Q 1544 4750 1819 4750 
Q 2544 4750 2975 4387 
Q 3406 4025 3406 3419 
Q 3406 3131 3298 2873 
Q 3191 2616 2906 2266 
Q 2828 2175 2409 1742 
Q 1991 1309 1228 531 
z
" transform="scale(0.015625)"/>
        <path id="DejaVuSans-35" d="M 691 4666 
L 3169 4666 
L 3169 4134 
L 1269 4134 
L 1269 2991 
Q 1406 3038 1543 3061 
Q 1681 3084 1819 3084 
Q 2600 3084 3056 2656 
Q 3513 2228 3513 1497 
Q 3513 744 3044 326 
Q 2575 -91 1722 -91 
Q 1428 -91 1123 -41 
Q 819 9 494 109 
L 494 744 
Q 775 591 1075 516 
Q 1375 441 1709 441 
Q 2250 441 2565 725 
Q 2881 1009 2881 1497 
Q 2881 1984 2565 2268 
Q 2250 2553 1709 2553 
Q 1456 2553 1204 2497 
Q 953 2441 691 2322 
L 691 4666 
z
" transform="scale(0.015625)"/>
       </defs>
       <use xlink:href="#DejaVuSans-32"/>
       <use xlink:href="#DejaVuSans-35" transform="translate(63.623047 0)"/>
      </g>
     </g>
    </g>
    <g id="xtick_3">
     <g id="line2d_5">
      <path d="M 155.404221 307.584 
L 155.404221 41.472 
" clip-path="url(#pff39263785)" style="fill: none; stroke: #b0b0b0; stroke-width: 0.8; stroke-linecap: square"/>
     </g>
     <g id="line2d_6">
      <g>
       <use xlink:href="#m524e330904" x="155.404221" y="307.584" style="stroke: #000000; stroke-width: 0.8"/>
      </g>
     </g>
     <g id="text_3">
      <!-- 50 -->
      <g transform="translate(149.041721 322.182437) scale(0.1 -0.1)">
       <use xlink:href="#DejaVuSans-35"/>
       <use xlink:href="#DejaVuSans-30" transform="translate(63.623047 0)"/>
      </g>
     </g>
    </g>
    <g id="xtick_4">
     <g id="line2d_7">
      <path d="M 196.189968 307.584 
L 196.189968 41.472 
" clip-path="url(#pff39263785)" style="fill: none; stroke: #b0b0b0; stroke-width: 0.8; stroke-linecap: square"/>
     </g>
     <g id="line2d_8">
      <g>
       <use xlink:href="#m524e330904" x="196.189968" y="307.584" style="stroke: #000000; stroke-width: 0.8"/>
      </g>
     </g>
     <g id="text_4">
      <!-- 75 -->
      <g transform="translate(189.827468 322.182437) scale(0.1 -0.1)">
       <defs>
        <path id="DejaVuSans-37" d="M 525 4666 
L 3525 4666 
L 3525 4397 
L 1831 0 
L 1172 0 
L 2766 4134 
L 525 4134 
L 525 4666 
z
" transform="scale(0.015625)"/>
       </defs>
       <use xlink:href="#DejaVuSans-37"/>
       <use xlink:href="#DejaVuSans-35" transform="translate(63.623047 0)"/>
      </g>
     </g>
    </g>
    <g id="xtick_5">
     <g id="line2d_9">
      <path d="M 236.975715 307.584 
L 236.975715 41.472 
" clip-path="url(#pff39263785)" style="fill: none; stroke: #b0b0b0; stroke-width: 0.8; stroke-linecap: square"/>
     </g>
     <g id="line2d_10">
      <g>
       <use xlink:href="#m524e330904" x="236.975715" y="307.584" style="stroke: #000000; stroke-width: 0.8"/>
      </g>
     </g>
     <g id="text_5">
      <!-- 100 -->
      <g transform="translate(227.431965 322.182437) scale(0.1 -0.1)">
       <defs>
        <path id="DejaVuSans-31" d="M 794 531 
L 1825 531 
L 1825 4091 
L 703 3866 
L 703 4441 
L 1819 4666 
L 2450 4666 
L 2450 531 
L 3481 531 
L 3481 0 
L 794 0 
L 794 531 
z
" transform="scale(0.015625)"/>
       </defs>
       <use xlink:href="#DejaVuSans-31"/>
       <use xlink:href="#DejaVuSans-30" transform="translate(63.623047 0)"/>
       <use xlink:href="#DejaVuSans-30" transform="translate(127.246094 0)"/>
      </g>
     </g>
    </g>
    <g id="xtick_6">
     <g id="line2d_11">
      <path d="M 277.761462 307.584 
L 277.761462 41.472 
" clip-path="url(#pff39263785)" style="fill: none; stroke: #b0b0b0; stroke-width: 0.8; stroke-linecap: square"/>
     </g>
     <g id="line2d_12">
      <g>
       <use xlink:href="#m524e330904" x="277.761462" y="307.584" style="stroke: #000000; stroke-width: 0.8"/>
      </g>
     </g>
     <g id="text_6">
      <!-- 125 -->
      <g transform="translate(268.217712 322.182437) scale(0.1 -0.1)">
       <use xlink:href="#DejaVuSans-31"/>
       <use xlink:href="#DejaVuSans-32" transform="translate(63.623047 0)"/>
       <use xlink:href="#DejaVuSans-35" transform="translate(127.246094 0)"/>
      </g>
     </g>
    </g>
    <g id="xtick_7">
     <g id="line2d_13">
      <path d="M 318.547209 307.584 
L 318.547209 41.472 
" clip-path="url(#pff39263785)" style="fill: none; stroke: #b0b0b0; stroke-width: 0.8; stroke-linecap: square"/>
     </g>
     <g id="line2d_14">
      <g>
       <use xlink:href="#m524e330904" x="318.547209" y="307.584" style="stroke: #000000; stroke-width: 0.8"/>
      </g>
     </g>
     <g id="text_7">
      <!-- 150 -->
      <g transform="translate(309.003459 322.182437) scale(0.1 -0.1)">
       <use xlink:href="#DejaVuSans-31"/>
       <use xlink:href="#DejaVuSans-35" transform="translate(63.623047 0)"/>
       <use xlink:href="#DejaVuSans-30" transform="translate(127.246094 0)"/>
      </g>
     </g>
    </g>
    <g id="xtick_8">
     <g id="line2d_15">
      <path d="M 359.332956 307.584 
L 359.332956 41.472 
" clip-path="url(#pff39263785)" style="fill: none; stroke: #b0b0b0; stroke-width: 0.8; stroke-linecap: square"/>
     </g>
     <g id="line2d_16">
      <g>
       <use xlink:href="#m524e330904" x="359.332956" y="307.584" style="stroke: #000000; stroke-width: 0.8"/>
      </g>
     </g>
     <g id="text_8">
      <!-- 175 -->
      <g transform="translate(349.789206 322.182437) scale(0.1 -0.1)">
       <use xlink:href="#DejaVuSans-31"/>
       <use xlink:href="#DejaVuSans-37" transform="translate(63.623047 0)"/>
       <use xlink:href="#DejaVuSans-35" transform="translate(127.246094 0)"/>
      </g>
     </g>
    </g>
    <g id="xtick_9">
     <g id="line2d_17">
      <path d="M 400.118703 307.584 
L 400.118703 41.472 
" clip-path="url(#pff39263785)" style="fill: none; stroke: #b0b0b0; stroke-width: 0.8; stroke-linecap: square"/>
     </g>
     <g id="line2d_18">
      <g>
       <use xlink:href="#m524e330904" x="400.118703" y="307.584" style="stroke: #000000; stroke-width: 0.8"/>
      </g>
     </g>
     <g id="text_9">
      <!-- 200 -->
      <g transform="translate(390.574953 322.182437) scale(0.1 -0.1)">
       <use xlink:href="#DejaVuSans-32"/>
       <use xlink:href="#DejaVuSans-30" transform="translate(63.623047 0)"/>
       <use xlink:href="#DejaVuSans-30" transform="translate(127.246094 0)"/>
      </g>
     </g>
    </g>
    <g id="text_10">
     <!-- Generations -->
     <g transform="translate(205.662344 335.860562) scale(0.1 -0.1)">
      <defs>
       <path id="DejaVuSans-47" d="M 3809 666 
L 3809 1919 
L 2778 1919 
L 2778 2438 
L 4434 2438 
L 4434 434 
Q 4069 175 3628 42 
Q 3188 -91 2688 -91 
Q 1594 -91 976 548 
Q 359 1188 359 2328 
Q 359 3472 976 4111 
Q 1594 4750 2688 4750 
Q 3144 4750 3555 4637 
Q 3966 4525 4313 4306 
L 4313 3634 
Q 3963 3931 3569 4081 
Q 3175 4231 2741 4231 
Q 1884 4231 1454 3753 
Q 1025 3275 1025 2328 
Q 1025 1384 1454 906 
Q 1884 428 2741 428 
Q 3075 428 3337 486 
Q 3600 544 3809 666 
z
" transform="scale(0.015625)"/>
       <path id="DejaVuSans-65" d="M 3597 1894 
L 3597 1613 
L 953 1613 
Q 991 1019 1311 708 
Q 1631 397 2203 397 
Q 2534 397 2845 478 
Q 3156 559 3463 722 
L 3463 178 
Q 3153 47 2828 -22 
Q 2503 -91 2169 -91 
Q 1331 -91 842 396 
Q 353 884 353 1716 
Q 353 2575 817 3079 
Q 1281 3584 2069 3584 
Q 2775 3584 3186 3129 
Q 3597 2675 3597 1894 
z
M 3022 2063 
Q 3016 2534 2758 2815 
Q 2500 3097 2075 3097 
Q 1594 3097 1305 2825 
Q 1016 2553 972 2059 
L 3022 2063 
z
" transform="scale(0.015625)"/>
       <path id="DejaVuSans-6e" d="M 3513 2113 
L 3513 0 
L 2938 0 
L 2938 2094 
Q 2938 2591 2744 2837 
Q 2550 3084 2163 3084 
Q 1697 3084 1428 2787 
Q 1159 2491 1159 1978 
L 1159 0 
L 581 0 
L 581 3500 
L 1159 3500 
L 1159 2956 
Q 1366 3272 1645 3428 
Q 1925 3584 2291 3584 
Q 2894 3584 3203 3211 
Q 3513 2838 3513 2113 
z
" transform="scale(0.015625)"/>
       <path id="DejaVuSans-72" d="M 2631 2963 
Q 2534 3019 2420 3045 
Q 2306 3072 2169 3072 
Q 1681 3072 1420 2755 
Q 1159 2438 1159 1844 
L 1159 0 
L 581 0 
L 581 3500 
L 1159 3500 
L 1159 2956 
Q 1341 3275 1631 3429 
Q 1922 3584 2338 3584 
Q 2397 3584 2469 3576 
Q 2541 3569 2628 3553 
L 2631 2963 
z
" transform="scale(0.015625)"/>
       <path id="DejaVuSans-61" d="M 2194 1759 
Q 1497 1759 1228 1600 
Q 959 1441 959 1056 
Q 959 750 1161 570 
Q 1363 391 1709 391 
Q 2188 391 2477 730 
Q 2766 1069 2766 1631 
L 2766 1759 
L 2194 1759 
z
M 3341 1997 
L 3341 0 
L 2766 0 
L 2766 531 
Q 2569 213 2275 61 
Q 1981 -91 1556 -91 
Q 1019 -91 701 211 
Q 384 513 384 1019 
Q 384 1609 779 1909 
Q 1175 2209 1959 2209 
L 2766 2209 
L 2766 2266 
Q 2766 2663 2505 2880 
Q 2244 3097 1772 3097 
Q 1472 3097 1187 3025 
Q 903 2953 641 2809 
L 641 3341 
Q 956 3463 1253 3523 
Q 1550 3584 1831 3584 
Q 2591 3584 2966 3190 
Q 3341 2797 3341 1997 
z
" transform="scale(0.015625)"/>
       <path id="DejaVuSans-74" d="M 1172 4494 
L 1172 3500 
L 2356 3500 
L 2356 3053 
L 1172 3053 
L 1172 1153 
Q 1172 725 1289 603 
Q 1406 481 1766 481 
L 2356 481 
L 2356 0 
L 1766 0 
Q 1100 0 847 248 
Q 594 497 594 1153 
L 594 3053 
L 172 3053 
L 172 3500 
L 594 3500 
L 594 4494 
L 1172 4494 
z
" transform="scale(0.015625)"/>
       <path id="DejaVuSans-69" d="M 603 3500 
L 1178 3500 
L 1178 0 
L 603 0 
L 603 3500 
z
M 603 4863 
L 1178 4863 
L 1178 4134 
L 603 4134 
L 603 4863 
z
" transform="scale(0.015625)"/>
       <path id="DejaVuSans-6f" d="M 1959 3097 
Q 1497 3097 1228 2736 
Q 959 2375 959 1747 
Q 959 1119 1226 758 
Q 1494 397 1959 397 
Q 2419 397 2687 759 
Q 2956 1122 2956 1747 
Q 2956 2369 2687 2733 
Q 2419 3097 1959 3097 
z
M 1959 3584 
Q 2709 3584 3137 3096 
Q 3566 2609 3566 1747 
Q 3566 888 3137 398 
Q 2709 -91 1959 -91 
Q 1206 -91 779 398 
Q 353 888 353 1747 
Q 353 2609 779 3096 
Q 1206 3584 1959 3584 
z
" transform="scale(0.015625)"/>
       <path id="DejaVuSans-73" d="M 2834 3397 
L 2834 2853 
Q 2591 2978 2328 3040 
Q 2066 3103 1784 3103 
Q 1356 3103 1142 2972 
Q 928 2841 928 2578 
Q 928 2378 1081 2264 
Q 1234 2150 1697 2047 
L 1894 2003 
Q 2506 1872 2764 1633 
Q 3022 1394 3022 966 
Q 3022 478 2636 193 
Q 2250 -91 1575 -91 
Q 1294 -91 989 -36 
Q 684 19 347 128 
L 347 722 
Q 666 556 975 473 
Q 1284 391 1588 391 
Q 1994 391 2212 530 
Q 2431 669 2431 922 
Q 2431 1156 2273 1281 
Q 2116 1406 1581 1522 
L 1381 1569 
Q 847 1681 609 1914 
Q 372 2147 372 2553 
Q 372 3047 722 3315 
Q 1072 3584 1716 3584 
Q 2034 3584 2315 3537 
Q 2597 3491 2834 3397 
z
" transform="scale(0.015625)"/>
      </defs>
      <use xlink:href="#DejaVuSans-47"/>
      <use xlink:href="#DejaVuSans-65" transform="translate(77.490234 0)"/>
      <use xlink:href="#DejaVuSans-6e" transform="translate(139.013672 0)"/>
      <use xlink:href="#DejaVuSans-65" transform="translate(202.392578 0)"/>
      <use xlink:href="#DejaVuSans-72" transform="translate(263.916016 0)"/>
      <use xlink:href="#DejaVuSans-61" transform="translate(305.029297 0)"/>
      <use xlink:href="#DejaVuSans-74" transform="translate(366.308594 0)"/>
      <use xlink:href="#DejaVuSans-69" transform="translate(405.517578 0)"/>
      <use xlink:href="#DejaVuSans-6f" transform="translate(433.300781 0)"/>
      <use xlink:href="#DejaVuSans-6e" transform="translate(494.482422 0)"/>
      <use xlink:href="#DejaVuSans-73" transform="translate(557.861328 0)"/>
     </g>
    </g>
   </g>
   <g id="matplotlib.axis_2">
    <g id="ytick_1">
     <g id="line2d_19">
      <path d="M 57.6 300.7678 
L 414.72 300.7678 
" clip-path="url(#pff39263785)" style="fill: none; stroke: #b0b0b0; stroke-width: 0.8; stroke-linecap: square"/>
     </g>
     <g id="line2d_20">
      <defs>
       <path id="m60fd7a9c85" d="M 0 0 
L -3.5 0 
" style="stroke: #000000; stroke-width: 0.8"/>
      </defs>
      <g>
       <use xlink:href="#m60fd7a9c85" x="57.6" y="300.7678" style="stroke: #000000; stroke-width: 0.8"/>
      </g>
     </g>
     <g id="text_11">
      <!-- $\mathdefault{-10^{3}}$ -->
      <g transform="translate(24.6 304.567018) scale(0.1 -0.1)">
       <defs>
        <path id="DejaVuSans-2212" d="M 678 2272 
L 4684 2272 
L 4684 1741 
L 678 1741 
L 678 2272 
z
" transform="scale(0.015625)"/>
        <path id="DejaVuSans-33" d="M 2597 2516 
Q 3050 2419 3304 2112 
Q 3559 1806 3559 1356 
Q 3559 666 3084 287 
Q 2609 -91 1734 -91 
Q 1441 -91 1130 -33 
Q 819 25 488 141 
L 488 750 
Q 750 597 1062 519 
Q 1375 441 1716 441 
Q 2309 441 2620 675 
Q 2931 909 2931 1356 
Q 2931 1769 2642 2001 
Q 2353 2234 1838 2234 
L 1294 2234 
L 1294 2753 
L 1863 2753 
Q 2328 2753 2575 2939 
Q 2822 3125 2822 3475 
Q 2822 3834 2567 4026 
Q 2313 4219 1838 4219 
Q 1578 4219 1281 4162 
Q 984 4106 628 3988 
L 628 4550 
Q 988 4650 1302 4700 
Q 1616 4750 1894 4750 
Q 2613 4750 3031 4423 
Q 3450 4097 3450 3541 
Q 3450 3153 3228 2886 
Q 3006 2619 2597 2516 
z
" transform="scale(0.015625)"/>
       </defs>
       <use xlink:href="#DejaVuSans-2212" transform="translate(0 0.765625)"/>
       <use xlink:href="#DejaVuSans-31" transform="translate(83.789062 0.765625)"/>
       <use xlink:href="#DejaVuSans-30" transform="translate(147.412109 0.765625)"/>
       <use xlink:href="#DejaVuSans-33" transform="translate(211.992188 39.046875) scale(0.7)"/>
      </g>
     </g>
    </g>
    <g id="ytick_2">
     <g id="line2d_21">
      <path d="M 57.6 261.737877 
L 414.72 261.737877 
" clip-path="url(#pff39263785)" style="fill: none; stroke: #b0b0b0; stroke-width: 0.8; stroke-linecap: square"/>
     </g>
     <g id="line2d_22">
      <g>
       <use xlink:href="#m60fd7a9c85" x="57.6" y="261.737877" style="stroke: #000000; stroke-width: 0.8"/>
      </g>
     </g>
     <g id="text_12">
      <!-- $\mathdefault{-10^{2}}$ -->
      <g transform="translate(24.6 265.537096) scale(0.1 -0.1)">
       <use xlink:href="#DejaVuSans-2212" transform="translate(0 0.765625)"/>
       <use xlink:href="#DejaVuSans-31" transform="translate(83.789062 0.765625)"/>
       <use xlink:href="#DejaVuSans-30" transform="translate(147.412109 0.765625)"/>
       <use xlink:href="#DejaVuSans-32" transform="translate(211.992188 39.046875) scale(0.7)"/>
      </g>
     </g>
    </g>
    <g id="ytick_3">
     <g id="line2d_23">
      <path d="M 57.6 222.707955 
L 414.72 222.707955 
" clip-path="url(#pff39263785)" style="fill: none; stroke: #b0b0b0; stroke-width: 0.8; stroke-linecap: square"/>
     </g>
     <g id="line2d_24">
      <g>
       <use xlink:href="#m60fd7a9c85" x="57.6" y="222.707955" style="stroke: #000000; stroke-width: 0.8"/>
      </g>
     </g>
     <g id="text_13">
      <!-- $\mathdefault{-10^{1}}$ -->
      <g transform="translate(24.6 226.507174) scale(0.1 -0.1)">
       <use xlink:href="#DejaVuSans-2212" transform="translate(0 0.684375)"/>
       <use xlink:href="#DejaVuSans-31" transform="translate(83.789062 0.684375)"/>
       <use xlink:href="#DejaVuSans-30" transform="translate(147.412109 0.684375)"/>
       <use xlink:href="#DejaVuSans-31" transform="translate(211.992188 38.965625) scale(0.7)"/>
      </g>
     </g>
    </g>
    <g id="ytick_4">
     <g id="line2d_25">
      <path d="M 57.6 173.74392 
L 414.72 173.74392 
" clip-path="url(#pff39263785)" style="fill: none; stroke: #b0b0b0; stroke-width: 0.8; stroke-linecap: square"/>
     </g>
     <g id="line2d_26">
      <g>
       <use xlink:href="#m60fd7a9c85" x="57.6" y="173.74392" style="stroke: #000000; stroke-width: 0.8"/>
      </g>
     </g>
     <g id="text_14">
      <!-- $\mathdefault{-10^{0}}$ -->
      <g transform="translate(24.6 177.543139) scale(0.1 -0.1)">
       <use xlink:href="#DejaVuSans-2212" transform="translate(0 0.765625)"/>
       <use xlink:href="#DejaVuSans-31" transform="translate(83.789062 0.765625)"/>
       <use xlink:href="#DejaVuSans-30" transform="translate(147.412109 0.765625)"/>
       <use xlink:href="#DejaVuSans-30" transform="translate(211.992188 39.046875) scale(0.7)"/>
      </g>
     </g>
    </g>
    <g id="ytick_5">
     <g id="line2d_27">
      <path d="M 57.6 152.06063 
L 414.72 152.06063 
" clip-path="url(#pff39263785)" style="fill: none; stroke: #b0b0b0; stroke-width: 0.8; stroke-linecap: square"/>
     </g>
     <g id="line2d_28">
      <g>
       <use xlink:href="#m60fd7a9c85" x="57.6" y="152.06063" style="stroke: #000000; stroke-width: 0.8"/>
      </g>
     </g>
     <g id="text_15">
      <!-- $\mathdefault{0}$ -->
      <g transform="translate(44.2 155.859848) scale(0.1 -0.1)">
       <use xlink:href="#DejaVuSans-30" transform="translate(0 0.78125)"/>
      </g>
     </g>
    </g>
    <g id="ytick_6">
     <g id="line2d_29">
      <path d="M 57.6 130.377339 
L 414.72 130.377339 
" clip-path="url(#pff39263785)" style="fill: none; stroke: #b0b0b0; stroke-width: 0.8; stroke-linecap: square"/>
     </g>
     <g id="line2d_30">
      <g>
       <use xlink:href="#m60fd7a9c85" x="57.6" y="130.377339" style="stroke: #000000; stroke-width: 0.8"/>
      </g>
     </g>
     <g id="text_16">
      <!-- $\mathdefault{10^{0}}$ -->
      <g transform="translate(33 134.176558) scale(0.1 -0.1)">
       <use xlink:href="#DejaVuSans-31" transform="translate(0 0.765625)"/>
       <use xlink:href="#DejaVuSans-30" transform="translate(63.623047 0.765625)"/>
       <use xlink:href="#DejaVuSans-30" transform="translate(128.203125 39.046875) scale(0.7)"/>
      </g>
     </g>
    </g>
    <g id="ytick_7">
     <g id="line2d_31">
      <path d="M 57.6 81.413304 
L 414.72 81.413304 
" clip-path="url(#pff39263785)" style="fill: none; stroke: #b0b0b0; stroke-width: 0.8; stroke-linecap: square"/>
     </g>
     <g id="line2d_32">
      <g>
       <use xlink:href="#m60fd7a9c85" x="57.6" y="81.413304" style="stroke: #000000; stroke-width: 0.8"/>
      </g>
     </g>
     <g id="text_17">
      <!-- $\mathdefault{10^{1}}$ -->
      <g transform="translate(33 85.212523) scale(0.1 -0.1)">
       <use xlink:href="#DejaVuSans-31" transform="translate(0 0.684375)"/>
       <use xlink:href="#DejaVuSans-30" transform="translate(63.623047 0.684375)"/>
       <use xlink:href="#DejaVuSans-31" transform="translate(128.203125 38.965625) scale(0.7)"/>
      </g>
     </g>
    </g>
    <g id="ytick_8">
     <g id="line2d_33">
      <path d="M 57.6 42.383382 
L 414.72 42.383382 
" clip-path="url(#pff39263785)" style="fill: none; stroke: #b0b0b0; stroke-width: 0.8; stroke-linecap: square"/>
     </g>
     <g id="line2d_34">
      <g>
       <use xlink:href="#m60fd7a9c85" x="57.6" y="42.383382" style="stroke: #000000; stroke-width: 0.8"/>
      </g>
     </g>
     <g id="text_18">
      <!-- $\mathdefault{10^{2}}$ -->
      <g transform="translate(33 46.182601) scale(0.1 -0.1)">
       <use xlink:href="#DejaVuSans-31" transform="translate(0 0.765625)"/>
       <use xlink:href="#DejaVuSans-30" transform="translate(63.623047 0.765625)"/>
       <use xlink:href="#DejaVuSans-32" transform="translate(128.203125 39.046875) scale(0.7)"/>
      </g>
     </g>
    </g>
    <g id="text_19">
     <!-- Fitness -->
     <g transform="translate(18.520312 191.845187) rotate(-90) scale(0.1 -0.1)">
      <defs>
       <path id="DejaVuSans-46" d="M 628 4666 
L 3309 4666 
L 3309 4134 
L 1259 4134 
L 1259 2759 
L 3109 2759 
L 3109 2228 
L 1259 2228 
L 1259 0 
L 628 0 
L 628 4666 
z
" transform="scale(0.015625)"/>
      </defs>
      <use xlink:href="#DejaVuSans-46"/>
      <use xlink:href="#DejaVuSans-69" transform="translate(50.269531 0)"/>
      <use xlink:href="#DejaVuSans-74" transform="translate(78.052734 0)"/>
      <use xlink:href="#DejaVuSans-6e" transform="translate(117.261719 0)"/>
      <use xlink:href="#DejaVuSans-65" transform="translate(180.640625 0)"/>
      <use xlink:href="#DejaVuSans-73" transform="translate(242.164062 0)"/>
      <use xlink:href="#DejaVuSans-73" transform="translate(294.263672 0)"/>
     </g>
    </g>
   </g>
   <g id="line2d_35">
    <path d="M 73.832727 294.393477 
L 75.464157 290.510639 
L 77.095587 286.115068 
L 78.727017 294.14357 
L 80.358447 295.488 
L 81.989877 291.385958 
L 83.621307 277.176096 
L 85.252736 277.339804 
L 86.884166 278.565071 
L 88.515596 273.512001 
L 90.147026 274.862509 
L 91.778456 274.151125 
L 93.409886 277.749173 
L 95.041316 278.03859 
L 98.304175 287.879143 
L 99.935605 288.996376 
L 101.567035 278.549933 
L 103.198465 274.821948 
L 104.829895 273.48195 
L 106.461325 280.723563 
L 108.092755 275.793297 
L 109.724185 275.895201 
L 111.355614 274.788654 
L 112.987044 274.050343 
L 114.618474 274.768268 
L 116.249904 275.617843 
L 117.881334 276.933894 
L 119.512764 272.628968 
L 121.144194 283.578656 
L 122.775624 275.695876 
L 124.407053 275.698626 
L 126.038483 273.913723 
L 127.669913 274.245821 
L 129.301343 277.304315 
L 130.932773 274.682431 
L 132.564203 274.429458 
L 134.195633 274.806861 
L 135.827063 272.586169 
L 137.458492 276.995627 
L 139.089922 273.590356 
L 140.721352 276.718632 
L 142.352782 275.375883 
L 143.984212 272.565639 
L 145.615642 272.96415 
L 147.247072 272.981583 
L 148.878502 273.350294 
L 150.509931 275.85824 
L 152.141361 273.142045 
L 153.772791 276.140668 
L 155.404221 278.504776 
L 157.035651 274.19619 
L 158.667081 278.570553 
L 160.298511 274.387854 
L 161.929941 273.8095 
L 163.56137 272.990099 
L 165.1928 273.167652 
L 166.82423 273.063227 
L 168.45566 268.260043 
L 170.08709 271.675688 
L 171.71852 273.563265 
L 173.34995 270.655002 
L 174.98138 270.230923 
L 176.61281 271.894442 
L 178.244239 272.095294 
L 179.875669 273.727983 
L 181.507099 272.701576 
L 183.138529 271.033744 
L 184.769959 272.283299 
L 186.401389 269.976339 
L 188.032819 270.257278 
L 189.664249 284.902338 
L 191.295678 271.789193 
L 192.927108 271.086314 
L 194.558538 268.203017 
L 196.189968 270.519507 
L 197.821398 269.600646 
L 199.452828 268.078051 
L 201.084258 270.092889 
L 202.715688 269.418889 
L 204.347117 271.861867 
L 205.978547 269.464535 
L 207.609977 271.462602 
L 209.241407 270.839459 
L 210.872837 273.135439 
L 212.504267 270.672191 
L 214.135697 271.671223 
L 215.767127 269.671096 
L 217.398556 269.469027 
L 219.029986 268.458946 
L 220.661416 267.764287 
L 222.292846 267.933814 
L 223.924276 270.633863 
L 225.555706 269.327774 
L 227.187136 269.174436 
L 228.818566 271.388718 
L 230.449995 269.272294 
L 232.081425 268.714871 
L 235.344285 268.250601 
L 236.975715 267.852105 
L 238.607145 268.233621 
L 240.238575 267.406643 
L 241.870005 269.316276 
L 243.501434 269.719801 
L 246.764294 268.36808 
L 248.395724 267.983825 
L 250.027154 267.286723 
L 253.290014 269.808075 
L 254.921444 269.67922 
L 256.552873 270.262864 
L 258.184303 269.823378 
L 259.815733 270.669978 
L 261.447163 268.688939 
L 263.078593 268.937996 
L 264.710023 267.85745 
L 266.341453 268.831259 
L 267.972883 267.561978 
L 269.604312 265.724665 
L 271.235742 270.411495 
L 272.867172 270.650533 
L 274.498602 269.190718 
L 276.130032 270.038965 
L 277.761462 269.98903 
L 279.392892 267.507359 
L 281.024322 269.225299 
L 282.655751 266.911953 
L 284.287181 270.228564 
L 287.550041 266.888573 
L 289.181471 269.320561 
L 290.812901 267.066706 
L 292.444331 267.380281 
L 294.075761 268.471137 
L 295.70719 267.107494 
L 297.33862 266.482164 
L 298.97005 268.910611 
L 300.60148 269.671501 
L 302.23291 272.071726 
L 303.86434 269.32564 
L 305.49577 267.104855 
L 307.1272 267.500204 
L 308.75863 269.092608 
L 310.390059 269.369589 
L 312.021489 269.420007 
L 313.652919 269.078286 
L 315.284349 269.461233 
L 316.915779 266.167743 
L 318.547209 270.69163 
L 321.810069 268.813402 
L 323.441498 268.779583 
L 325.072928 267.978279 
L 326.704358 269.523621 
L 328.335788 266.439795 
L 329.967218 267.777797 
L 331.598648 267.650417 
L 333.230078 266.310272 
L 334.861508 270.392463 
L 336.492937 268.436088 
L 338.124367 268.471696 
L 339.755797 267.18256 
L 343.018657 269.962324 
L 344.650087 267.893022 
L 346.281517 269.939443 
L 347.912947 266.099959 
L 349.544376 269.007055 
L 351.175806 268.413688 
L 352.807236 269.163865 
L 354.438666 267.143177 
L 356.070096 267.006148 
L 357.701526 267.806903 
L 359.332956 267.758344 
L 360.964386 266.186637 
L 362.595815 266.720121 
L 364.227245 267.062889 
L 365.858675 269.276353 
L 367.490105 266.744631 
L 369.121535 268.18445 
L 370.752965 268.431266 
L 372.384395 267.337419 
L 374.015825 266.961084 
L 375.647254 270.802608 
L 377.278684 268.323756 
L 378.910114 269.995617 
L 380.541544 268.549798 
L 382.172974 268.043097 
L 383.804404 266.231391 
L 385.435834 271.112375 
L 387.067264 267.122256 
L 388.698693 268.64383 
L 390.330123 267.269022 
L 391.961553 267.489526 
L 393.592983 268.94883 
L 395.224413 266.824471 
L 396.855843 267.699511 
L 398.487273 268.26267 
L 398.487273 268.26267 
" clip-path="url(#pff39263785)" style="fill: none; stroke: #0000ff; stroke-width: 1.5; stroke-linecap: square"/>
   </g>
   <g id="line2d_36">
    <path d="M 73.832727 285.976651 
L 75.464157 282.363837 
L 77.095587 278.354156 
L 78.727017 280.330061 
L 80.358447 283.327279 
L 81.989877 274.204472 
L 83.621307 239.035324 
L 85.252736 254.290632 
L 86.884166 233.578663 
L 88.515596 241.631822 
L 90.147026 237.578079 
L 91.778456 235.489828 
L 93.409886 232.54929 
L 95.041316 241.651895 
L 96.672746 258.470336 
L 98.304175 262.14685 
L 99.935605 246.710508 
L 101.567035 234.691003 
L 103.198465 223.63235 
L 104.829895 232.182281 
L 106.461325 255.048295 
L 108.092755 244.172023 
L 109.724185 235.783804 
L 111.355614 212.733789 
L 112.987044 229.017855 
L 114.618474 196.443873 
L 116.249904 217.180722 
L 117.881334 225.232393 
L 119.512764 244.336931 
L 121.144194 259.451703 
L 122.775624 227.303996 
L 124.407053 70.204574 
L 126.038483 213.159233 
L 127.669913 212.259099 
L 129.301343 232.30969 
L 130.932773 209.830764 
L 132.564203 234.423395 
L 134.195633 236.845418 
L 135.827063 235.0455 
L 137.458492 71.304721 
L 139.089922 244.197455 
L 140.721352 87.006197 
L 142.352782 234.886664 
L 143.984212 230.834101 
L 145.615642 239.88728 
L 147.247072 239.211949 
L 148.878502 65.672809 
L 150.509931 102.778333 
L 152.141361 71.681447 
L 155.404221 242.920497 
L 157.035651 230.498439 
L 158.667081 200.465805 
L 160.298511 245.558424 
L 161.929941 76.592327 
L 163.56137 219.988087 
L 165.1928 235.189876 
L 166.82423 106.124574 
L 168.45566 250.793115 
L 170.08709 231.965788 
L 171.71852 84.64209 
L 173.34995 174.560749 
L 174.98138 246.222052 
L 176.61281 235.869929 
L 178.244239 243.74703 
L 179.875669 53.780141 
L 181.507099 228.2399 
L 183.138529 247.010075 
L 184.769959 236.723955 
L 186.401389 248.867941 
L 188.032819 247.207096 
L 189.664249 254.132544 
L 191.295678 232.939025 
L 192.927108 222.655237 
L 194.558538 255.984597 
L 196.189968 248.942668 
L 197.821398 254.347181 
L 199.452828 255.450855 
L 201.084258 134.511004 
L 202.715688 243.987172 
L 204.347117 241.971621 
L 205.978547 238.546228 
L 207.609977 234.138276 
L 209.241407 249.458759 
L 210.872837 53.568 
L 212.504267 247.796622 
L 214.135697 235.942385 
L 217.398556 246.96984 
L 219.029986 249.522358 
L 220.661416 253.028079 
L 222.292846 249.15133 
L 223.924276 228.032217 
L 225.555706 247.68628 
L 227.187136 226.419621 
L 228.818566 232.199057 
L 230.449995 239.063761 
L 232.081425 253.332104 
L 233.712855 252.660267 
L 235.344285 246.280091 
L 236.975715 254.477238 
L 238.607145 248.556448 
L 240.238575 256.168685 
L 241.870005 225.254995 
L 243.501434 229.691174 
L 245.132864 247.776204 
L 246.764294 252.148194 
L 248.395724 251.179363 
L 250.027154 256.211471 
L 251.658584 253.698548 
L 253.290014 238.304023 
L 254.921444 243.933359 
L 256.552873 224.819868 
L 258.184303 223.899314 
L 259.815733 222.636133 
L 261.447163 245.652023 
L 263.078593 243.632574 
L 264.710023 253.448542 
L 266.341453 249.258291 
L 267.972883 245.838025 
L 269.604312 263.699502 
L 271.235742 226.683819 
L 272.867172 228.18149 
L 274.498602 245.611765 
L 276.130032 217.658793 
L 277.761462 234.28843 
L 279.392892 249.561813 
L 281.024322 252.168846 
L 282.655751 253.815045 
L 284.287181 232.334069 
L 285.918611 245.511585 
L 287.550041 261.333302 
L 289.181471 236.392988 
L 290.812901 254.302278 
L 292.444331 252.554658 
L 294.075761 255.347602 
L 295.70719 257.00423 
L 297.33862 261.088564 
L 298.97005 232.563301 
L 300.60148 193.256089 
L 302.23291 228.670739 
L 305.49577 249.307612 
L 307.1272 252.095292 
L 308.75863 237.399191 
L 310.390059 236.655297 
L 312.021489 249.024551 
L 313.652919 248.314675 
L 315.284349 230.83128 
L 316.915779 262.056959 
L 318.547209 233.230397 
L 320.178639 54.227171 
L 321.810069 239.522099 
L 323.441498 250.865866 
L 325.072928 250.668361 
L 326.704358 232.975373 
L 328.335788 258.478137 
L 329.967218 253.747729 
L 331.598648 247.996627 
L 333.230078 260.75624 
L 334.861508 235.834363 
L 336.492937 252.269615 
L 338.124367 241.678882 
L 339.755797 251.019878 
L 341.387227 248.990186 
L 343.018657 166.206304 
L 344.650087 252.553708 
L 346.281517 233.720022 
L 347.912947 262.976841 
L 349.544376 239.55038 
L 351.175806 247.414603 
L 352.807236 241.21048 
L 354.438666 255.111079 
L 356.070096 253.40145 
L 357.701526 244.358883 
L 359.332956 251.368522 
L 360.964386 264.215056 
L 362.595815 259.653304 
L 364.227245 258.783111 
L 365.858675 242.567499 
L 367.490105 257.51433 
L 369.121535 244.235454 
L 370.752965 249.486127 
L 372.384395 255.746705 
L 374.015825 257.611287 
L 377.278684 223.87689 
L 378.910114 64.487553 
L 380.541544 243.582478 
L 382.172974 250.470542 
L 383.804404 264.266093 
L 385.435834 236.256203 
L 387.067264 248.305141 
L 388.698693 244.490896 
L 390.330123 256.886715 
L 391.961553 255.962887 
L 393.592983 247.445745 
L 395.224413 258.442361 
L 396.855843 250.459468 
L 398.487273 244.337878 
L 398.487273 244.337878 
" clip-path="url(#pff39263785)" style="fill: none; stroke-dasharray: 9.6,2.4,1.5,2.4; stroke-dashoffset: 0; stroke: #008000; stroke-width: 1.5"/>
   </g>
   <g id="line2d_37">
    <path d="M 73.832727 265.710803 
L 75.464157 264.432421 
L 77.095587 264.838551 
L 78.727017 263.624284 
L 80.358447 263.767593 
L 81.989877 260.199244 
L 83.621307 261.135039 
L 85.252736 262.609932 
L 86.884166 261.900417 
L 88.515596 261.633439 
L 90.147026 262.128862 
L 91.778456 258.880611 
L 93.409886 260.822203 
L 95.041316 262.091837 
L 96.672746 261.369214 
L 98.304175 262.263161 
L 99.935605 259.009558 
L 101.567035 262.616373 
L 103.198465 261.189219 
L 104.829895 262.006812 
L 106.461325 262.368884 
L 109.724185 262.271419 
L 111.355614 261.065164 
L 112.987044 261.60144 
L 114.618474 261.319617 
L 116.249904 261.689193 
L 117.881334 262.674302 
L 119.512764 260.619173 
L 121.144194 260.140065 
L 122.775624 261.110459 
L 124.407053 262.336086 
L 126.038483 262.484444 
L 127.669913 261.544287 
L 129.301343 256.65205 
L 130.932773 259.405336 
L 132.564203 257.91942 
L 134.195633 263.330067 
L 135.827063 262.763446 
L 137.458492 262.059107 
L 139.089922 260.59977 
L 140.721352 261.930135 
L 143.984212 262.797894 
L 145.615642 261.244836 
L 147.247072 260.907844 
L 150.509931 262.083662 
L 153.772791 259.866478 
L 155.404221 260.946081 
L 157.035651 261.17016 
L 158.667081 258.739873 
L 160.298511 260.871402 
L 161.929941 261.637988 
L 163.56137 260.53324 
L 165.1928 263.106148 
L 166.82423 260.99981 
L 168.45566 261.144944 
L 170.08709 258.045778 
L 171.71852 259.321511 
L 173.34995 259.521338 
L 174.98138 259.441904 
L 176.61281 259.786168 
L 178.244239 262.65977 
L 179.875669 262.680748 
L 181.507099 261.364399 
L 183.138529 260.659332 
L 184.769959 260.733393 
L 186.401389 262.396517 
L 188.032819 260.22664 
L 189.664249 262.887898 
L 191.295678 260.173295 
L 192.927108 260.749911 
L 194.558538 260.095538 
L 196.189968 261.143129 
L 197.821398 261.510382 
L 199.452828 258.808297 
L 201.084258 260.670677 
L 202.715688 260.580444 
L 204.347117 262.043334 
L 205.978547 258.614964 
L 207.609977 261.94 
L 209.241407 261.334897 
L 210.872837 261.823273 
L 212.504267 259.727491 
L 214.135697 261.055476 
L 215.767127 259.126023 
L 217.398556 260.108789 
L 219.029986 260.084375 
L 220.661416 261.021331 
L 222.292846 260.399155 
L 223.924276 260.95098 
L 225.555706 256.741284 
L 227.187136 261.174491 
L 228.818566 261.892429 
L 230.449995 259.575022 
L 232.081425 261.283728 
L 233.712855 259.75672 
L 235.344285 262.560136 
L 236.975715 259.074668 
L 238.607145 261.657278 
L 240.238575 260.335655 
L 241.870005 260.125775 
L 245.132864 261.357985 
L 246.764294 260.52996 
L 248.395724 260.497866 
L 250.027154 260.000782 
L 251.658584 261.221572 
L 253.290014 261.832421 
L 254.921444 259.376587 
L 256.552873 262.31417 
L 258.184303 259.201302 
L 259.815733 262.08715 
L 261.447163 257.093834 
L 263.078593 260.981987 
L 264.710023 260.924969 
L 266.341453 261.14799 
L 267.972883 258.018647 
L 269.604312 260.699703 
L 271.235742 259.958821 
L 272.867172 261.13329 
L 274.498602 261.392659 
L 276.130032 261.207302 
L 277.761462 261.67653 
L 279.392892 261.629471 
L 281.024322 259.821653 
L 282.655751 260.944494 
L 284.287181 261.870585 
L 285.918611 260.682435 
L 287.550041 262.740621 
L 289.181471 263.037634 
L 290.812901 261.22043 
L 292.444331 259.008355 
L 294.075761 260.436494 
L 295.70719 261.088913 
L 297.33862 259.611369 
L 298.97005 261.208475 
L 302.23291 261.569135 
L 303.86434 261.155072 
L 305.49577 259.965975 
L 307.1272 260.979671 
L 308.75863 260.916913 
L 310.390059 261.734977 
L 312.021489 261.211495 
L 313.652919 262.106443 
L 315.284349 260.941262 
L 316.915779 261.531421 
L 318.547209 262.325253 
L 320.178639 260.079257 
L 321.810069 257.12948 
L 323.441498 261.29324 
L 325.072928 260.98995 
L 326.704358 262.088139 
L 328.335788 259.357829 
L 329.967218 259.791197 
L 331.598648 261.052321 
L 333.230078 260.627548 
L 334.861508 259.271184 
L 336.492937 259.569085 
L 338.124367 260.910658 
L 339.755797 261.109424 
L 341.387227 262.298677 
L 343.018657 260.131039 
L 344.650087 260.618658 
L 346.281517 261.784929 
L 347.912947 259.60655 
L 349.544376 260.344184 
L 351.175806 260.637612 
L 352.807236 257.922455 
L 354.438666 260.094861 
L 356.070096 258.444855 
L 357.701526 260.529213 
L 359.332956 260.346154 
L 360.964386 261.374242 
L 362.595815 262.625687 
L 364.227245 259.540562 
L 365.858675 259.234676 
L 367.490105 260.729512 
L 369.121535 260.205434 
L 370.752965 261.9741 
L 372.384395 261.229006 
L 374.015825 262.133538 
L 375.647254 260.929905 
L 377.278684 260.039259 
L 378.910114 262.185511 
L 380.541544 261.120006 
L 382.172974 259.901913 
L 383.804404 261.577361 
L 385.435834 261.384411 
L 387.067264 260.120158 
L 388.698693 260.320005 
L 390.330123 260.128166 
L 391.961553 260.265637 
L 393.592983 261.394087 
L 396.855843 260.509871 
L 398.487273 261.685302 
L 398.487273 261.685302 
" clip-path="url(#pff39263785)" style="fill: none; stroke: #ff0000; stroke-width: 1.5; stroke-linecap: square"/>
   </g>
   <g id="patch_3">
    <path d="M 57.6 307.584 
L 57.6 41.472 
" style="fill: none; stroke: #000000; stroke-width: 0.8; stroke-linejoin: miter; stroke-linecap: square"/>
   </g>
   <g id="patch_4">
    <path d="M 414.72 307.584 
L 414.72 41.472 
" style="fill: none; stroke: #000000; stroke-width: 0.8; stroke-linejoin: miter; stroke-linecap: square"/>
   </g>
   <g id="patch_5">
    <path d="M 57.6 307.584 
L 414.72 307.584 
" style="fill: none; stroke: #000000; stroke-width: 0.8; stroke-linejoin: miter; stroke-linecap: square"/>
   </g>
   <g id="patch_6">
    <path d="M 57.6 41.472 
L 414.72 41.472 
" style="fill: none; stroke: #000000; stroke-width: 0.8; stroke-linejoin: miter; stroke-linecap: square"/>
   </g>
   <g id="text_20">
    <!-- Population's average and best fitness -->
    <g transform="translate(123.529687 35.472) scale(0.12 -0.12)">
     <defs>
      <path id="DejaVuSans-50" d="M 1259 4147 
L 1259 2394 
L 2053 2394 
Q 2494 2394 2734 2622 
Q 2975 2850 2975 3272 
Q 2975 3691 2734 3919 
Q 2494 4147 2053 4147 
L 1259 4147 
z
M 628 4666 
L 2053 4666 
Q 2838 4666 3239 4311 
Q 3641 3956 3641 3272 
Q 3641 2581 3239 2228 
Q 2838 1875 2053 1875 
L 1259 1875 
L 1259 0 
L 628 0 
L 628 4666 
z
" transform="scale(0.015625)"/>
      <path id="DejaVuSans-70" d="M 1159 525 
L 1159 -1331 
L 581 -1331 
L 581 3500 
L 1159 3500 
L 1159 2969 
Q 1341 3281 1617 3432 
Q 1894 3584 2278 3584 
Q 2916 3584 3314 3078 
Q 3713 2572 3713 1747 
Q 3713 922 3314 415 
Q 2916 -91 2278 -91 
Q 1894 -91 1617 61 
Q 1341 213 1159 525 
z
M 3116 1747 
Q 3116 2381 2855 2742 
Q 2594 3103 2138 3103 
Q 1681 3103 1420 2742 
Q 1159 2381 1159 1747 
Q 1159 1113 1420 752 
Q 1681 391 2138 391 
Q 2594 391 2855 752 
Q 3116 1113 3116 1747 
z
" transform="scale(0.015625)"/>
      <path id="DejaVuSans-75" d="M 544 1381 
L 544 3500 
L 1119 3500 
L 1119 1403 
Q 1119 906 1312 657 
Q 1506 409 1894 409 
Q 2359 409 2629 706 
Q 2900 1003 2900 1516 
L 2900 3500 
L 3475 3500 
L 3475 0 
L 2900 0 
L 2900 538 
Q 2691 219 2414 64 
Q 2138 -91 1772 -91 
Q 1169 -91 856 284 
Q 544 659 544 1381 
z
M 1991 3584 
L 1991 3584 
z
" transform="scale(0.015625)"/>
      <path id="DejaVuSans-6c" d="M 603 4863 
L 1178 4863 
L 1178 0 
L 603 0 
L 603 4863 
z
" transform="scale(0.015625)"/>
      <path id="DejaVuSans-27" d="M 1147 4666 
L 1147 2931 
L 616 2931 
L 616 4666 
L 1147 4666 
z
" transform="scale(0.015625)"/>
      <path id="DejaVuSans-20" transform="scale(0.015625)"/>
      <path id="DejaVuSans-76" d="M 191 3500 
L 800 3500 
L 1894 563 
L 2988 3500 
L 3597 3500 
L 2284 0 
L 1503 0 
L 191 3500 
z
" transform="scale(0.015625)"/>
      <path id="DejaVuSans-67" d="M 2906 1791 
Q 2906 2416 2648 2759 
Q 2391 3103 1925 3103 
Q 1463 3103 1205 2759 
Q 947 2416 947 1791 
Q 947 1169 1205 825 
Q 1463 481 1925 481 
Q 2391 481 2648 825 
Q 2906 1169 2906 1791 
z
M 3481 434 
Q 3481 -459 3084 -895 
Q 2688 -1331 1869 -1331 
Q 1566 -1331 1297 -1286 
Q 1028 -1241 775 -1147 
L 775 -588 
Q 1028 -725 1275 -790 
Q 1522 -856 1778 -856 
Q 2344 -856 2625 -561 
Q 2906 -266 2906 331 
L 2906 616 
Q 2728 306 2450 153 
Q 2172 0 1784 0 
Q 1141 0 747 490 
Q 353 981 353 1791 
Q 353 2603 747 3093 
Q 1141 3584 1784 3584 
Q 2172 3584 2450 3431 
Q 2728 3278 2906 2969 
L 2906 3500 
L 3481 3500 
L 3481 434 
z
" transform="scale(0.015625)"/>
      <path id="DejaVuSans-64" d="M 2906 2969 
L 2906 4863 
L 3481 4863 
L 3481 0 
L 2906 0 
L 2906 525 
Q 2725 213 2448 61 
Q 2172 -91 1784 -91 
Q 1150 -91 751 415 
Q 353 922 353 1747 
Q 353 2572 751 3078 
Q 1150 3584 1784 3584 
Q 2172 3584 2448 3432 
Q 2725 3281 2906 2969 
z
M 947 1747 
Q 947 1113 1208 752 
Q 1469 391 1925 391 
Q 2381 391 2643 752 
Q 2906 1113 2906 1747 
Q 2906 2381 2643 2742 
Q 2381 3103 1925 3103 
Q 1469 3103 1208 2742 
Q 947 2381 947 1747 
z
" transform="scale(0.015625)"/>
      <path id="DejaVuSans-62" d="M 3116 1747 
Q 3116 2381 2855 2742 
Q 2594 3103 2138 3103 
Q 1681 3103 1420 2742 
Q 1159 2381 1159 1747 
Q 1159 1113 1420 752 
Q 1681 391 2138 391 
Q 2594 391 2855 752 
Q 3116 1113 3116 1747 
z
M 1159 2969 
Q 1341 3281 1617 3432 
Q 1894 3584 2278 3584 
Q 2916 3584 3314 3078 
Q 3713 2572 3713 1747 
Q 3713 922 3314 415 
Q 2916 -91 2278 -91 
Q 1894 -91 1617 61 
Q 1341 213 1159 525 
L 1159 0 
L 581 0 
L 581 4863 
L 1159 4863 
L 1159 2969 
z
" transform="scale(0.015625)"/>
      <path id="DejaVuSans-66" d="M 2375 4863 
L 2375 4384 
L 1825 4384 
Q 1516 4384 1395 4259 
Q 1275 4134 1275 3809 
L 1275 3500 
L 2222 3500 
L 2222 3053 
L 1275 3053 
L 1275 0 
L 697 0 
L 697 3053 
L 147 3053 
L 147 3500 
L 697 3500 
L 697 3744 
Q 697 4328 969 4595 
Q 1241 4863 1831 4863 
L 2375 4863 
z
" transform="scale(0.015625)"/>
     </defs>
     <use xlink:href="#DejaVuSans-50"/>
     <use xlink:href="#DejaVuSans-6f" transform="translate(56.677734 0)"/>
     <use xlink:href="#DejaVuSans-70" transform="translate(117.859375 0)"/>
     <use xlink:href="#DejaVuSans-75" transform="translate(181.335938 0)"/>
     <use xlink:href="#DejaVuSans-6c" transform="translate(244.714844 0)"/>
     <use xlink:href="#DejaVuSans-61" transform="translate(272.498047 0)"/>
     <use xlink:href="#DejaVuSans-74" transform="translate(333.777344 0)"/>
     <use xlink:href="#DejaVuSans-69" transform="translate(372.986328 0)"/>
     <use xlink:href="#DejaVuSans-6f" transform="translate(400.769531 0)"/>
     <use xlink:href="#DejaVuSans-6e" transform="translate(461.951172 0)"/>
     <use xlink:href="#DejaVuSans-27" transform="translate(525.330078 0)"/>
     <use xlink:href="#DejaVuSans-73" transform="translate(552.820312 0)"/>
     <use xlink:href="#DejaVuSans-20" transform="translate(604.919922 0)"/>
     <use xlink:href="#DejaVuSans-61" transform="translate(636.707031 0)"/>
     <use xlink:href="#DejaVuSans-76" transform="translate(697.986328 0)"/>
     <use xlink:href="#DejaVuSans-65" transform="translate(757.166016 0)"/>
     <use xlink:href="#DejaVuSans-72" transform="translate(818.689453 0)"/>
     <use xlink:href="#DejaVuSans-61" transform="translate(859.802734 0)"/>
     <use xlink:href="#DejaVuSans-67" transform="translate(921.082031 0)"/>
     <use xlink:href="#DejaVuSans-65" transform="translate(984.558594 0)"/>
     <use xlink:href="#DejaVuSans-20" transform="translate(1046.082031 0)"/>
     <use xlink:href="#DejaVuSans-61" transform="translate(1077.869141 0)"/>
     <use xlink:href="#DejaVuSans-6e" transform="translate(1139.148438 0)"/>
     <use xlink:href="#DejaVuSans-64" transform="translate(1202.527344 0)"/>
     <use xlink:href="#DejaVuSans-20" transform="translate(1266.003906 0)"/>
     <use xlink:href="#DejaVuSans-62" transform="translate(1297.791016 0)"/>
     <use xlink:href="#DejaVuSans-65" transform="translate(1361.267578 0)"/>
     <use xlink:href="#DejaVuSans-73" transform="translate(1422.791016 0)"/>
     <use xlink:href="#DejaVuSans-74" transform="translate(1474.890625 0)"/>
     <use xlink:href="#DejaVuSans-20" transform="translate(1514.099609 0)"/>
     <use xlink:href="#DejaVuSans-66" transform="translate(1545.886719 0)"/>
     <use xlink:href="#DejaVuSans-69" transform="translate(1581.091797 0)"/>
     <use xlink:href="#DejaVuSans-74" transform="translate(1608.875 0)"/>
     <use xlink:href="#DejaVuSans-6e" transform="translate(1648.083984 0)"/>
     <use xlink:href="#DejaVuSans-65" transform="translate(1711.462891 0)"/>
     <use xlink:href="#DejaVuSans-73" transform="translate(1772.986328 0)"/>
     <use xlink:href="#DejaVuSans-73" transform="translate(1825.085938 0)"/>
    </g>
   </g>
   <g id="legend_1">
    <g id="patch_7">
     <path d="M 199.689687 198.045187 
L 272.630313 198.045187 
Q 274.630313 198.045187 274.630313 196.045187 
L 274.630313 153.010812 
Q 274.630313 151.010812 272.630313 151.010812 
L 199.689687 151.010812 
Q 197.689687 151.010812 197.689687 153.010812 
L 197.689687 196.045187 
Q 197.689687 198.045187 199.689687 198.045187 
z
" style="fill: #ffffff; opacity: 0.8; stroke: #cccccc; stroke-linejoin: miter"/>
    </g>
    <g id="line2d_38">
     <path d="M 201.689687 159.10925 
L 211.689687 159.10925 
L 221.689687 159.10925 
" style="fill: none; stroke: #0000ff; stroke-width: 1.5; stroke-linecap: square"/>
    </g>
    <g id="text_21">
     <!-- average -->
     <g transform="translate(229.689687 162.60925) scale(0.1 -0.1)">
      <use xlink:href="#DejaVuSans-61"/>
      <use xlink:href="#DejaVuSans-76" transform="translate(61.279297 0)"/>
      <use xlink:href="#DejaVuSans-65" transform="translate(120.458984 0)"/>
      <use xlink:href="#DejaVuSans-72" transform="translate(181.982422 0)"/>
      <use xlink:href="#DejaVuSans-61" transform="translate(223.095703 0)"/>
      <use xlink:href="#DejaVuSans-67" transform="translate(284.375 0)"/>
      <use xlink:href="#DejaVuSans-65" transform="translate(347.851562 0)"/>
     </g>
    </g>
    <g id="line2d_39">
     <path d="M 201.689687 173.787375 
L 211.689687 173.787375 
L 221.689687 173.787375 
" style="fill: none; stroke-dasharray: 9.6,2.4,1.5,2.4; stroke-dashoffset: 0; stroke: #008000; stroke-width: 1.5"/>
    </g>
    <g id="text_22">
     <!-- +1 sd -->
     <g transform="translate(229.689687 177.287375) scale(0.1 -0.1)">
      <defs>
       <path id="DejaVuSans-2b" d="M 2944 4013 
L 2944 2272 
L 4684 2272 
L 4684 1741 
L 2944 1741 
L 2944 0 
L 2419 0 
L 2419 1741 
L 678 1741 
L 678 2272 
L 2419 2272 
L 2419 4013 
L 2944 4013 
z
" transform="scale(0.015625)"/>
      </defs>
      <use xlink:href="#DejaVuSans-2b"/>
      <use xlink:href="#DejaVuSans-31" transform="translate(83.789062 0)"/>
      <use xlink:href="#DejaVuSans-20" transform="translate(147.412109 0)"/>
      <use xlink:href="#DejaVuSans-73" transform="translate(179.199219 0)"/>
      <use xlink:href="#DejaVuSans-64" transform="translate(231.298828 0)"/>
     </g>
    </g>
    <g id="line2d_40">
     <path d="M 201.689687 188.4655 
L 211.689687 188.4655 
L 221.689687 188.4655 
" style="fill: none; stroke: #ff0000; stroke-width: 1.5; stroke-linecap: square"/>
    </g>
    <g id="text_23">
     <!-- best -->
     <g transform="translate(229.689687 191.9655) scale(0.1 -0.1)">
      <use xlink:href="#DejaVuSans-62"/>
      <use xlink:href="#DejaVuSans-65" transform="translate(63.476562 0)"/>
      <use xlink:href="#DejaVuSans-73" transform="translate(125 0)"/>
      <use xlink:href="#DejaVuSans-74" transform="translate(177.099609 0)"/>
     </g>
    </g>
   </g>
  </g>
 </g>
 <defs>
  <clipPath id="pff39263785">
   <rect x="57.6" y="41.472" width="357.12" height="266.112"/>
  </clipPath>
 </defs>
</svg>
