<?xml version="1.0" encoding="utf-8" standalone="no"?>
<!DOCTYPE svg PUBLIC "-//W3C//DTD SVG 1.1//EN"
  "http://www.w3.org/Graphics/SVG/1.1/DTD/svg11.dtd">
<svg xmlns:xlink="http://www.w3.org/1999/xlink" width="460.8pt" height="345.6pt" viewBox="0 0 460.8 345.6" xmlns="http://www.w3.org/2000/svg" version="1.1">
 <metadata>
  <rdf:RDF xmlns:dc="http://purl.org/dc/elements/1.1/" xmlns:cc="http://creativecommons.org/ns#" xmlns:rdf="http://www.w3.org/1999/02/22-rdf-syntax-ns#">
   <cc:Work>
    <dc:type rdf:resource="http://purl.org/dc/dcmitype/StillImage"/>
    <dc:date>2026-04-14T00:48:09.932168</dc:date>
    <dc:format>image/svg+xml</dc:format>
    <dc:creator>
     <cc:Agent>
      <dc:title>Matplotlib v3.10.8, https://matplotlib.org/</dc:title>
     </cc:Agent>
    </dc:creator>
   </cc:Work>
  </rdf:RDF>
 </metadata>
 <defs>
  <style type="text/css">*{stroke-linejoin: round; stroke-linecap: butt}</style>
 </defs>
 <g id="figure_1">
  <g id="patch_1">
   <path d="M 0 345.6 
L 460.8 345.6 
L 460.8 0 
L 0 0 
z
" style="fill: #ffffff"/>
  </g>
  <g id="axes_1">
   <g id="patch_2">
    <path d="M 57.6 307.584 
L 414.72 307.584 
L 414.72 41.472 
L 57.6 41.472 
z
" style="fill: #ffffff"/>
   </g>
   <g id="matplotlib.axis_1">
    <g id="xtick_1">
     <g id="line2d_1">
      <path d="M 73.832727 307.584 
L 73.832727 41.472 
" clip-path="url(#p7042e1e3e5)" style="fill: none; stroke: #b0b0b0; stroke-width: 0.8; stroke-linecap: square"/>
     </g>
     <g id="line2d_2">
      <defs>
       <path id="ma02ba0cd53" d="M 0 0 
L 0 3.5 
" style="stroke: #000000; stroke-width: 0.8"/>
      </defs>
      <g>
       <use xlink:href="#ma02ba0cd53" x="73.832727" y="307.584" style="stroke: #000000; stroke-width: 0.8"/>
      </g>
     </g>
     <g id="text_1">
      <!-- 0 -->
      <g transform="translate(70.651477 322.182437) scale(0.1 -0.1)">
       <defs>
        <path id="DejaVuSans-30" d="M 2034 4250 
Q 1547 4250 1301 3770 
Q 1056 3291 1056 2328 
Q 1056 1369 1301 889 
Q 1547 409 2034 409 
Q 2525 409 2770 889 
Q 3016 1369 3016 2328 
Q 3016 3291 2770 3770 
Q 2525 4250 2034 4250 
z
M 2034 4750 
Q 2819 4750 3233 4129 
Q 3647 3509 3647 2328 
Q 3647 1150 3233 529 
Q 2819 -91 2034 -91 
Q 1250 -91 836 529 
Q 422 1150 422 2328 
Q 422 3509 836 4129 
Q 1250 4750 2034 4750 
z
" transform="scale(0.015625)"/>
       </defs>
       <use xlink:href="#DejaVuSans-30"/>
      </g>
     </g>
    </g>
    <g id="xtick_2">
     <g id="line2d_3">
      <path d="M 114.618474 307.584 
L 114.618474 41.472 
" clip-path="url(#p7042e1e3e5)" style="fill: none; stroke: #b0b0b0; stroke-width: 0.8; stroke-linecap: square"/>
     </g>
     <g id="line2d_4">
      <g>
       <use xlink:href="#ma02ba0cd53" x="114.618474" y="307.584" style="stroke: #000000; stroke-width: 0.8"/>
      </g>
     </g>
     <g id="text_2">
      <!-- 25 -->
      <g transform="translate(108.255974 322.182437) scale(0.1 -0.1)">
       <defs>
        <path id="DejaVuSans-32" d="M 1228 531 
L 3431 531 
L 3431 0 
L 469 0 
L 469 531 
Q 828 903 1448 1529 
Q 2069 2156 2228 2338 
Q 2531 2678 2651 2914 
Q 2772 3150 2772 3378 
Q 2772 3750 2511 3984 
Q 2250 4219 1831 4219 
Q 1534 4219 1204 4116 
Q 875 4013 500 3803 
L 500 4441 
Q 881 4594 1212 4672 
Q 1544 4750 1819 4750 
Q 2544 4750 2975 4387 
Q 3406 4025 3406 3419 
Q 3406 3131 3298 2873 
Q 3191 2616 2906 2266 
Q 2828 2175 2409 1742 
Q 1991 1309 1228 531 
z
" transform="scale(0.015625)"/>
        <path id="DejaVuSans-35" d="M 691 4666 
L 3169 4666 
L 3169 4134 
L 1269 4134 
L 1269 2991 
Q 1406 3038 1543 3061 
Q 1681 3084 1819 3084 
Q 2600 3084 3056 2656 
Q 3513 2228 3513 1497 
Q 3513 744 3044 326 
Q 2575 -91 1722 -91 
Q 1428 -91 1123 -41 
Q 819 9 494 109 
L 494 744 
Q 775 591 1075 516 
Q 1375 441 1709 441 
Q 2250 441 2565 725 
Q 2881 1009 2881 1497 
Q 2881 1984 2565 2268 
Q 2250 2553 1709 2553 
Q 1456 2553 1204 2497 
Q 953 2441 691 2322 
L 691 4666 
z
" transform="scale(0.015625)"/>
       </defs>
       <use xlink:href="#DejaVuSans-32"/>
       <use xlink:href="#DejaVuSans-35" transform="translate(63.623047 0)"/>
      </g>
     </g>
    </g>
    <g id="xtick_3">
     <g id="line2d_5">
      <path d="M 155.404221 307.584 
L 155.404221 41.472 
" clip-path="url(#p7042e1e3e5)" style="fill: none; stroke: #b0b0b0; stroke-width: 0.8; stroke-linecap: square"/>
     </g>
     <g id="line2d_6">
      <g>
       <use xlink:href="#ma02ba0cd53" x="155.404221" y="307.584" style="stroke: #000000; stroke-width: 0.8"/>
      </g>
     </g>
     <g id="text_3">
      <!-- 50 -->
      <g transform="translate(149.041721 322.182437) scale(0.1 -0.1)">
       <use xlink:href="#DejaVuSans-35"/>
       <use xlink:href="#DejaVuSans-30" transform="translate(63.623047 0)"/>
      </g>
     </g>
    </g>
    <g id="xtick_4">
     <g id="line2d_7">
      <path d="M 196.189968 307.584 
L 196.189968 41.472 
" clip-path="url(#p7042e1e3e5)" style="fill: none; stroke: #b0b0b0; stroke-width: 0.8; stroke-linecap: square"/>
     </g>
     <g id="line2d_8">
      <g>
       <use xlink:href="#ma02ba0cd53" x="196.189968" y="307.584" style="stroke: #000000; stroke-width: 0.8"/>
      </g>
     </g>
     <g id="text_4">
      <!-- 75 -->
      <g transform="translate(189.827468 322.182437) scale(0.1 -0.1)">
       <defs>
        <path id="DejaVuSans-37" d="M 525 4666 
L 3525 4666 
L 3525 4397 
L 1831 0 
L 1172 0 
L 2766 4134 
L 525 4134 
L 525 4666 
z
" transform="scale(0.015625)"/>
       </defs>
       <use xlink:href="#DejaVuSans-37"/>
       <use xlink:href="#DejaVuSans-35" transform="translate(63.623047 0)"/>
      </g>
     </g>
    </g>
    <g id="xtick_5">
     <g id="line2d_9">
      <path d="M 236.975715 307.584 
L 236.975715 41.472 
" clip-path="url(#p7042e1e3e5)" style="fill: none; stroke: #b0b0b0; stroke-width: 0.8; stroke-linecap: square"/>
     </g>
     <g id="line2d_10">
      <g>
       <use xlink:href="#ma02ba0cd53" x="236.975715" y="307.584" style="stroke: #000000; stroke-width: 0.8"/>
      </g>
     </g>
     <g id="text_5">
      <!-- 100 -->
      <g transform="translate(227.431965 322.182437) scale(0.1 -0.1)">
       <defs>
        <path id="DejaVuSans-31" d="M 794 531 
L 1825 531 
L 1825 4091 
L 703 3866 
L 703 4441 
L 1819 4666 
L 2450 4666 
L 2450 531 
L 3481 531 
L 3481 0 
L 794 0 
L 794 531 
z
" transform="scale(0.015625)"/>
       </defs>
       <use xlink:href="#DejaVuSans-31"/>
       <use xlink:href="#DejaVuSans-30" transform="translate(63.623047 0)"/>
       <use xlink:href="#DejaVuSans-30" transform="translate(127.246094 0)"/>
      </g>
     </g>
    </g>
    <g id="xtick_6">
     <g id="line2d_11">
      <path d="M 277.761462 307.584 
L 277.761462 41.472 
" clip-path="url(#p7042e1e3e5)" style="fill: none; stroke: #b0b0b0; stroke-width: 0.8; stroke-linecap: square"/>
     </g>
     <g id="line2d_12">
      <g>
       <use xlink:href="#ma02ba0cd53" x="277.761462" y="307.584" style="stroke: #000000; stroke-width: 0.8"/>
      </g>
     </g>
     <g id="text_6">
      <!-- 125 -->
      <g transform="translate(268.217712 322.182437) scale(0.1 -0.1)">
       <use xlink:href="#DejaVuSans-31"/>
       <use xlink:href="#DejaVuSans-32" transform="translate(63.623047 0)"/>
       <use xlink:href="#DejaVuSans-35" transform="translate(127.246094 0)"/>
      </g>
     </g>
    </g>
    <g id="xtick_7">
     <g id="line2d_13">
      <path d="M 318.547209 307.584 
L 318.547209 41.472 
" clip-path="url(#p7042e1e3e5)" style="fill: none; stroke: #b0b0b0; stroke-width: 0.8; stroke-linecap: square"/>
     </g>
     <g id="line2d_14">
      <g>
       <use xlink:href="#ma02ba0cd53" x="318.547209" y="307.584" style="stroke: #000000; stroke-width: 0.8"/>
      </g>
     </g>
     <g id="text_7">
      <!-- 150 -->
      <g transform="translate(309.003459 322.182437) scale(0.1 -0.1)">
       <use xlink:href="#DejaVuSans-31"/>
       <use xlink:href="#DejaVuSans-35" transform="translate(63.623047 0)"/>
       <use xlink:href="#DejaVuSans-30" transform="translate(127.246094 0)"/>
      </g>
     </g>
    </g>
    <g id="xtick_8">
     <g id="line2d_15">
      <path d="M 359.332956 307.584 
L 359.332956 41.472 
" clip-path="url(#p7042e1e3e5)" style="fill: none; stroke: #b0b0b0; stroke-width: 0.8; stroke-linecap: square"/>
     </g>
     <g id="line2d_16">
      <g>
       <use xlink:href="#ma02ba0cd53" x="359.332956" y="307.584" style="stroke: #000000; stroke-width: 0.8"/>
      </g>
     </g>
     <g id="text_8">
      <!-- 175 -->
      <g transform="translate(349.789206 322.182437) scale(0.1 -0.1)">
       <use xlink:href="#DejaVuSans-31"/>
       <use xlink:href="#DejaVuSans-37" transform="translate(63.623047 0)"/>
       <use xlink:href="#DejaVuSans-35" transform="translate(127.246094 0)"/>
      </g>
     </g>
    </g>
    <g id="xtick_9">
     <g id="line2d_17">
      <path d="M 400.118703 307.584 
L 400.118703 41.472 
" clip-path="url(#p7042e1e3e5)" style="fill: none; stroke: #b0b0b0; stroke-width: 0.8; stroke-linecap: square"/>
     </g>
     <g id="line2d_18">
      <g>
       <use xlink:href="#ma02ba0cd53" x="400.118703" y="307.584" style="stroke: #000000; stroke-width: 0.8"/>
      </g>
     </g>
     <g id="text_9">
      <!-- 200 -->
      <g transform="translate(390.574953 322.182437) scale(0.1 -0.1)">
       <use xlink:href="#DejaVuSans-32"/>
       <use xlink:href="#DejaVuSans-30" transform="translate(63.623047 0)"/>
       <use xlink:href="#DejaVuSans-30" transform="translate(127.246094 0)"/>
      </g>
     </g>
    </g>
    <g id="text_10">
     <!-- Generations -->
     <g transform="translate(205.662344 335.860562) scale(0.1 -0.1)">
      <defs>
       <path id="DejaVuSans-47" d="M 3809 666 
L 3809 1919 
L 2778 1919 
L 2778 2438 
L 4434 2438 
L 4434 434 
Q 4069 175 3628 42 
Q 3188 -91 2688 -91 
Q 1594 -91 976 548 
Q 359 1188 359 2328 
Q 359 3472 976 4111 
Q 1594 4750 2688 4750 
Q 3144 4750 3555 4637 
Q 3966 4525 4313 4306 
L 4313 3634 
Q 3963 3931 3569 4081 
Q 3175 4231 2741 4231 
Q 1884 4231 1454 3753 
Q 1025 3275 1025 2328 
Q 1025 1384 1454 906 
Q 1884 428 2741 428 
Q 3075 428 3337 486 
Q 3600 544 3809 666 
z
" transform="scale(0.015625)"/>
       <path id="DejaVuSans-65" d="M 3597 1894 
L 3597 1613 
L 953 1613 
Q 991 1019 1311 708 
Q 1631 397 2203 397 
Q 2534 397 2845 478 
Q 3156 559 3463 722 
L 3463 178 
Q 3153 47 2828 -22 
Q 2503 -91 2169 -91 
Q 1331 -91 842 396 
Q 353 884 353 1716 
Q 353 2575 817 3079 
Q 1281 3584 2069 3584 
Q 2775 3584 3186 3129 
Q 3597 2675 3597 1894 
z
M 3022 2063 
Q 3016 2534 2758 2815 
Q 2500 3097 2075 3097 
Q 1594 3097 1305 2825 
Q 1016 2553 972 2059 
L 3022 2063 
z
" transform="scale(0.015625)"/>
       <path id="DejaVuSans-6e" d="M 3513 2113 
L 3513 0 
L 2938 0 
L 2938 2094 
Q 2938 2591 2744 2837 
Q 2550 3084 2163 3084 
Q 1697 3084 1428 2787 
Q 1159 2491 1159 1978 
L 1159 0 
L 581 0 
L 581 3500 
L 1159 3500 
L 1159 2956 
Q 1366 3272 1645 3428 
Q 1925 3584 2291 3584 
Q 2894 3584 3203 3211 
Q 3513 2838 3513 2113 
z
" transform="scale(0.015625)"/>
       <path id="DejaVuSans-72" d="M 2631 2963 
Q 2534 3019 2420 3045 
Q 2306 3072 2169 3072 
Q 1681 3072 1420 2755 
Q 1159 2438 1159 1844 
L 1159 0 
L 581 0 
L 581 3500 
L 1159 3500 
L 1159 2956 
Q 1341 3275 1631 3429 
Q 1922 3584 2338 3584 
Q 2397 3584 2469 3576 
Q 2541 3569 2628 3553 
L 2631 2963 
z
" transform="scale(0.015625)"/>
       <path id="DejaVuSans-61" d="M 2194 1759 
Q 1497 1759 1228 1600 
Q 959 1441 959 1056 
Q 959 750 1161 570 
Q 1363 391 1709 391 
Q 2188 391 2477 730 
Q 2766 1069 2766 1631 
L 2766 1759 
L 2194 1759 
z
M 3341 1997 
L 3341 0 
L 2766 0 
L 2766 531 
Q 2569 213 2275 61 
Q 1981 -91 1556 -91 
Q 1019 -91 701 211 
Q 384 513 384 1019 
Q 384 1609 779 1909 
Q 1175 2209 1959 2209 
L 2766 2209 
L 2766 2266 
Q 2766 2663 2505 2880 
Q 2244 3097 1772 3097 
Q 1472 3097 1187 3025 
Q 903 2953 641 2809 
L 641 3341 
Q 956 3463 1253 3523 
Q 1550 3584 1831 3584 
Q 2591 3584 2966 3190 
Q 3341 2797 3341 1997 
z
" transform="scale(0.015625)"/>
       <path id="DejaVuSans-74" d="M 1172 4494 
L 1172 3500 
L 2356 3500 
L 2356 3053 
L 1172 3053 
L 1172 1153 
Q 1172 725 1289 603 
Q 1406 481 1766 481 
L 2356 481 
L 2356 0 
L 1766 0 
Q 1100 0 847 248 
Q 594 497 594 1153 
L 594 3053 
L 172 3053 
L 172 3500 
L 594 3500 
L 594 4494 
L 1172 4494 
z
" transform="scale(0.015625)"/>
       <path id="DejaVuSans-69" d="M 603 3500 
L 1178 3500 
L 1178 0 
L 603 0 
L 603 3500 
z
M 603 4863 
L 1178 4863 
L 1178 4134 
L 603 4134 
L 603 4863 
z
" transform="scale(0.015625)"/>
       <path id="DejaVuSans-6f" d="M 1959 3097 
Q 1497 3097 1228 2736 
Q 959 2375 959 1747 
Q 959 1119 1226 758 
Q 1494 397 1959 397 
Q 2419 397 2687 759 
Q 2956 1122 2956 1747 
Q 2956 2369 2687 2733 
Q 2419 3097 1959 3097 
z
M 1959 3584 
Q 2709 3584 3137 3096 
Q 3566 2609 3566 1747 
Q 3566 888 3137 398 
Q 2709 -91 1959 -91 
Q 1206 -91 779 398 
Q 353 888 353 1747 
Q 353 2609 779 3096 
Q 1206 3584 1959 3584 
z
" transform="scale(0.015625)"/>
       <path id="DejaVuSans-73" d="M 2834 3397 
L 2834 2853 
Q 2591 2978 2328 3040 
Q 2066 3103 1784 3103 
Q 1356 3103 1142 2972 
Q 928 2841 928 2578 
Q 928 2378 1081 2264 
Q 1234 2150 1697 2047 
L 1894 2003 
Q 2506 1872 2764 1633 
Q 3022 1394 3022 966 
Q 3022 478 2636 193 
Q 2250 -91 1575 -91 
Q 1294 -91 989 -36 
Q 684 19 347 128 
L 347 722 
Q 666 556 975 473 
Q 1284 391 1588 391 
Q 1994 391 2212 530 
Q 2431 669 2431 922 
Q 2431 1156 2273 1281 
Q 2116 1406 1581 1522 
L 1381 1569 
Q 847 1681 609 1914 
Q 372 2147 372 2553 
Q 372 3047 722 3315 
Q 1072 3584 1716 3584 
Q 2034 3584 2315 3537 
Q 2597 3491 2834 3397 
z
" transform="scale(0.015625)"/>
      </defs>
      <use xlink:href="#DejaVuSans-47"/>
      <use xlink:href="#DejaVuSans-65" transform="translate(77.490234 0)"/>
      <use xlink:href="#DejaVuSans-6e" transform="translate(139.013672 0)"/>
      <use xlink:href="#DejaVuSans-65" transform="translate(202.392578 0)"/>
      <use xlink:href="#DejaVuSans-72" transform="translate(263.916016 0)"/>
      <use xlink:href="#DejaVuSans-61" transform="translate(305.029297 0)"/>
      <use xlink:href="#DejaVuSans-74" transform="translate(366.308594 0)"/>
      <use xlink:href="#DejaVuSans-69" transform="translate(405.517578 0)"/>
      <use xlink:href="#DejaVuSans-6f" transform="translate(433.300781 0)"/>
      <use xlink:href="#DejaVuSans-6e" transform="translate(494.482422 0)"/>
      <use xlink:href="#DejaVuSans-73" transform="translate(557.861328 0)"/>
     </g>
    </g>
   </g>
   <g id="matplotlib.axis_2">
    <g id="ytick_1">
     <g id="line2d_19">
      <path d="M 57.6 106.136998 
L 414.72 106.136998 
" clip-path="url(#p7042e1e3e5)" style="fill: none; stroke: #b0b0b0; stroke-width: 0.8; stroke-linecap: square"/>
     </g>
     <g id="line2d_20">
      <defs>
       <path id="me2e81d1fe7" d="M 0 0 
L -3.5 0 
" style="stroke: #000000; stroke-width: 0.8"/>
      </defs>
      <g>
       <use xlink:href="#me2e81d1fe7" x="57.6" y="106.136998" style="stroke: #000000; stroke-width: 0.8"/>
      </g>
     </g>
     <g id="text_11">
      <!-- $\mathdefault{10^{2}}$ -->
      <g transform="translate(33 109.936217) scale(0.1 -0.1)">
       <use xlink:href="#DejaVuSans-31" transform="translate(0 0.765625)"/>
       <use xlink:href="#DejaVuSans-30" transform="translate(63.623047 0.765625)"/>
       <use xlink:href="#DejaVuSans-32" transform="translate(128.203125 39.046875) scale(0.7)"/>
      </g>
     </g>
    </g>
    <g id="text_12">
     <!-- Fitness -->
     <g transform="translate(26.920312 191.845187) rotate(-90) scale(0.1 -0.1)">
      <defs>
       <path id="DejaVuSans-46" d="M 628 4666 
L 3309 4666 
L 3309 4134 
L 1259 4134 
L 1259 2759 
L 3109 2759 
L 3109 2228 
L 1259 2228 
L 1259 0 
L 628 0 
L 628 4666 
z
" transform="scale(0.015625)"/>
      </defs>
      <use xlink:href="#DejaVuSans-46"/>
      <use xlink:href="#DejaVuSans-69" transform="translate(50.269531 0)"/>
      <use xlink:href="#DejaVuSans-74" transform="translate(78.052734 0)"/>
      <use xlink:href="#DejaVuSans-6e" transform="translate(117.261719 0)"/>
      <use xlink:href="#DejaVuSans-65" transform="translate(180.640625 0)"/>
      <use xlink:href="#DejaVuSans-73" transform="translate(242.164062 0)"/>
      <use xlink:href="#DejaVuSans-73" transform="translate(294.263672 0)"/>
     </g>
    </g>
   </g>
   <g id="line2d_21">
    <path d="M 73.832727 295.488 
L 75.464157 248.099587 
L 77.095587 192.920649 
L 78.727017 157.641245 
L 80.358447 144.566316 
L 81.989877 141.899926 
L 83.621307 138.69913 
L 85.252736 138.723103 
L 86.884166 141.691411 
L 88.515596 137.860081 
L 90.147026 137.371682 
L 91.778456 133.918672 
L 93.409886 133.508239 
L 95.041316 136.147565 
L 96.672746 133.279939 
L 98.304175 133.887205 
L 99.935605 134.65348 
L 101.567035 135.694197 
L 103.198465 137.790841 
L 104.829895 135.493478 
L 106.461325 133.468544 
L 108.092755 133.936932 
L 109.724185 132.276913 
L 111.355614 131.399319 
L 112.987044 131.822249 
L 114.618474 131.865168 
L 116.249904 132.9778 
L 117.881334 131.849124 
L 119.512764 132.53988 
L 121.144194 131.62639 
L 122.775624 131.417222 
L 124.407053 132.776366 
L 126.038483 132.968679 
L 127.669913 131.43399 
L 129.301343 130.767298 
L 130.932773 131.217431 
L 132.564203 132.012674 
L 134.195633 132.618491 
L 135.827063 131.646916 
L 137.458492 132.04015 
L 139.089922 134.196139 
L 140.721352 129.045422 
L 142.352782 129.38989 
L 143.984212 131.005651 
L 145.615642 133.095682 
L 147.247072 131.061142 
L 148.878502 131.245804 
L 150.509931 131.964804 
L 152.141361 130.039872 
L 153.772791 130.912752 
L 155.404221 130.4334 
L 157.035651 130.664201 
L 158.667081 130.446511 
L 160.298511 128.724065 
L 161.929941 130.901813 
L 163.56137 129.877206 
L 165.1928 130.01163 
L 166.82423 130.367683 
L 168.45566 129.510729 
L 170.08709 130.011794 
L 171.71852 130.66754 
L 173.34995 128.915604 
L 174.98138 130.009927 
L 176.61281 131.278786 
L 178.244239 129.636378 
L 179.875669 131.914592 
L 181.507099 130.6755 
L 183.138529 130.065894 
L 184.769959 130.675774 
L 186.401389 130.283212 
L 188.032819 131.037038 
L 189.664249 129.372592 
L 191.295678 129.774567 
L 192.927108 128.496835 
L 194.558538 128.20922 
L 196.189968 127.475621 
L 197.821398 129.302945 
L 201.084258 128.698067 
L 202.715688 128.711393 
L 204.347117 127.89071 
L 205.978547 129.588975 
L 207.609977 129.261038 
L 209.241407 128.76463 
L 210.872837 130.081626 
L 212.504267 131.21245 
L 214.135697 129.007265 
L 217.398556 127.8561 
L 219.029986 130.36757 
L 220.661416 130.16527 
L 222.292846 130.463503 
L 223.924276 128.976493 
L 225.555706 130.325056 
L 227.187136 128.121446 
L 228.818566 128.761438 
L 230.449995 128.444221 
L 232.081425 128.520165 
L 235.344285 129.392346 
L 236.975715 128.693423 
L 238.607145 128.697082 
L 240.238575 126.205577 
L 241.870005 128.836656 
L 243.501434 130.592965 
L 245.132864 128.438271 
L 246.764294 128.255646 
L 248.395724 128.401551 
L 250.027154 130.184705 
L 251.658584 130.015801 
L 253.290014 129.479003 
L 254.921444 129.078994 
L 256.552873 128.960909 
L 258.184303 127.845612 
L 259.815733 129.753018 
L 261.447163 129.265116 
L 263.078593 129.299009 
L 264.710023 128.761758 
L 266.341453 130.604209 
L 267.972883 128.86662 
L 269.604312 129.869796 
L 271.235742 130.710565 
L 272.867172 131.030917 
L 274.498602 130.00591 
L 276.130032 128.371451 
L 277.761462 129.377736 
L 279.392892 129.030602 
L 281.024322 130.132156 
L 282.655751 130.826525 
L 284.287181 129.36674 
L 285.918611 129.680675 
L 287.550041 128.808227 
L 289.181471 128.646966 
L 290.812901 129.164825 
L 292.444331 128.873147 
L 294.075761 129.427187 
L 295.70719 129.794226 
L 297.33862 131.134165 
L 298.97005 129.188207 
L 300.60148 129.571127 
L 302.23291 128.382628 
L 303.86434 129.594495 
L 305.49577 129.280088 
L 307.1272 130.080226 
L 308.75863 131.281135 
L 310.390059 129.374836 
L 312.021489 129.27615 
L 313.652919 127.910181 
L 315.284349 130.292975 
L 316.915779 129.40754 
L 320.178639 129.464676 
L 321.810069 130.033448 
L 323.441498 129.170349 
L 325.072928 128.870323 
L 326.704358 129.142751 
L 328.335788 129.070591 
L 329.967218 128.476459 
L 331.598648 128.696867 
L 333.230078 129.391949 
L 334.861508 129.024446 
L 336.492937 129.455307 
L 338.124367 129.408634 
L 339.755797 128.699603 
L 341.387227 129.547352 
L 343.018657 129.104791 
L 344.650087 129.295872 
L 346.281517 130.215483 
L 347.912947 129.525588 
L 349.544376 131.493729 
L 351.175806 129.842917 
L 352.807236 129.288614 
L 354.438666 130.601924 
L 356.070096 130.152315 
L 357.701526 130.525092 
L 359.332956 129.325102 
L 360.964386 130.591379 
L 362.595815 130.411249 
L 364.227245 128.655377 
L 365.858675 128.897672 
L 367.490105 130.696479 
L 369.121535 131.723864 
L 370.752965 130.147819 
L 372.384395 129.471591 
L 374.015825 129.488344 
L 375.647254 128.842189 
L 377.278684 127.745117 
L 378.910114 130.636338 
L 380.541544 129.156931 
L 382.172974 129.844248 
L 383.804404 128.152382 
L 385.435834 129.55194 
L 387.067264 130.169929 
L 388.698693 128.70113 
L 390.330123 129.611191 
L 391.961553 130.769721 
L 393.592983 128.282319 
L 395.224413 130.079935 
L 396.855843 129.519593 
L 398.487273 128.53022 
L 398.487273 128.53022 
" clip-path="url(#p7042e1e3e5)" style="fill: none; stroke: #0000ff; stroke-width: 1.5; stroke-linecap: square"/>
   </g>
   <g id="line2d_22">
    <path d="M 73.832727 237.135498 
L 75.464157 185.10389 
L 77.095587 136.935212 
L 78.727017 115.648566 
L 80.358447 114.591543 
L 81.989877 111.67965 
L 83.621307 115.992427 
L 85.252736 118.060082 
L 86.884166 113.388397 
L 90.147026 115.040963 
L 91.778456 110.980118 
L 93.409886 112.745103 
L 95.041316 113.608169 
L 96.672746 115.674653 
L 98.304175 115.079878 
L 99.935605 117.684713 
L 101.567035 117.282769 
L 103.198465 113.439123 
L 104.829895 116.713338 
L 106.461325 118.924104 
L 108.092755 115.161239 
L 109.724185 113.316511 
L 111.355614 115.938518 
L 112.987044 117.649323 
L 114.618474 114.707356 
L 116.249904 115.800751 
L 117.881334 113.977976 
L 119.512764 113.644712 
L 121.144194 117.489034 
L 124.407053 117.764154 
L 126.038483 114.949476 
L 127.669913 114.580857 
L 129.301343 116.541526 
L 130.932773 110.73623 
L 132.564203 109.094635 
L 134.195633 112.638188 
L 135.827063 117.952854 
L 137.458492 114.430108 
L 139.089922 114.634387 
L 140.721352 115.276295 
L 142.352782 112.694817 
L 143.984212 111.396135 
L 145.615642 112.511908 
L 147.247072 113.467122 
L 148.878502 115.765934 
L 150.509931 115.090504 
L 152.141361 111.880832 
L 153.772791 111.842286 
L 155.404221 114.041039 
L 157.035651 110.605084 
L 158.667081 116.977858 
L 160.298511 112.853092 
L 161.929941 112.727127 
L 163.56137 113.032008 
L 165.1928 113.206166 
L 166.82423 114.470343 
L 168.45566 113.094311 
L 170.08709 110.652189 
L 171.71852 114.130825 
L 173.34995 113.190954 
L 174.98138 111.677508 
L 176.61281 112.98478 
L 178.244239 112.556931 
L 179.875669 114.354733 
L 181.507099 110.087266 
L 183.138529 113.099524 
L 184.769959 111.714254 
L 186.401389 113.162333 
L 188.032819 115.335265 
L 189.664249 112.153162 
L 191.295678 113.15477 
L 192.927108 112.2276 
L 194.558538 113.694818 
L 196.189968 109.55246 
L 197.821398 115.056301 
L 199.452828 114.425341 
L 201.084258 114.123582 
L 202.715688 112.676107 
L 204.347117 112.307396 
L 205.978547 113.779002 
L 207.609977 114.021155 
L 209.241407 114.732743 
L 210.872837 113.904701 
L 212.504267 113.387048 
L 214.135697 113.899446 
L 215.767127 113.197036 
L 217.398556 113.557549 
L 219.029986 116.433244 
L 220.661416 110.551784 
L 222.292846 107.885453 
L 223.924276 113.377352 
L 225.555706 114.563707 
L 227.187136 113.973098 
L 228.818566 114.061362 
L 230.449995 112.932071 
L 232.081425 112.623844 
L 233.712855 109.558172 
L 235.344285 112.677675 
L 238.607145 111.664497 
L 240.238575 109.199726 
L 241.870005 114.431285 
L 243.501434 113.959304 
L 245.132864 111.902198 
L 246.764294 113.186478 
L 248.395724 113.489738 
L 250.027154 115.290176 
L 251.658584 113.134605 
L 253.290014 115.308319 
L 254.921444 113.284955 
L 258.184303 113.298179 
L 259.815733 111.882766 
L 261.447163 113.799335 
L 263.078593 113.156151 
L 264.710023 112.994506 
L 266.341453 116.077748 
L 267.972883 114.806924 
L 269.604312 115.514282 
L 271.235742 115.553218 
L 272.867172 115.136814 
L 274.498602 113.207586 
L 276.130032 113.806697 
L 277.761462 115.001914 
L 279.392892 115.85295 
L 281.024322 114.8338 
L 282.655751 114.294907 
L 284.287181 115.53692 
L 285.918611 115.247865 
L 287.550041 113.651176 
L 289.181471 113.881744 
L 290.812901 115.142103 
L 292.444331 114.871354 
L 294.075761 114.960596 
L 295.70719 115.639677 
L 297.33862 115.851094 
L 298.97005 114.98439 
L 300.60148 115.652914 
L 302.23291 111.467146 
L 303.86434 114.348507 
L 305.49577 111.887872 
L 308.75863 115.766562 
L 310.390059 114.923861 
L 312.021489 114.708377 
L 313.652919 113.54156 
L 315.284349 116.844366 
L 316.915779 114.367478 
L 318.547209 114.558702 
L 320.178639 115.520824 
L 321.810069 113.057093 
L 323.441498 114.43723 
L 325.072928 113.699027 
L 326.704358 114.633269 
L 328.335788 115.099686 
L 329.967218 113.770764 
L 331.598648 114.00725 
L 333.230078 114.622711 
L 334.861508 114.797946 
L 336.492937 114.68082 
L 338.124367 113.581915 
L 339.755797 111.854528 
L 341.387227 114.849985 
L 343.018657 113.905914 
L 344.650087 114.621891 
L 346.281517 114.976433 
L 347.912947 111.406321 
L 349.544376 116.005285 
L 351.175806 113.292058 
L 352.807236 112.059539 
L 354.438666 115.920023 
L 356.070096 116.404104 
L 357.701526 113.340566 
L 359.332956 115.791448 
L 360.964386 116.584344 
L 362.595815 115.519195 
L 365.858675 114.140429 
L 367.490105 116.415479 
L 369.121535 117.478672 
L 370.752965 115.981516 
L 372.384395 114.065829 
L 374.015825 115.586018 
L 375.647254 112.562555 
L 377.278684 113.805676 
L 378.910114 115.63964 
L 380.541544 112.624376 
L 382.172974 115.966841 
L 383.804404 111.209057 
L 385.435834 114.500189 
L 387.067264 115.98385 
L 388.698693 113.238141 
L 390.330123 113.041688 
L 391.961553 115.838043 
L 393.592983 113.72079 
L 395.224413 115.55603 
L 396.855843 115.683282 
L 398.487273 113.126369 
L 398.487273 113.126369 
" clip-path="url(#p7042e1e3e5)" style="fill: none; stroke-dasharray: 9.6,2.4,1.5,2.4; stroke-dashoffset: 0; stroke: #008000; stroke-width: 1.5"/>
   </g>
   <g id="line2d_23">
    <path d="M 73.832727 129.281558 
L 75.464157 121.401003 
L 77.095587 99.24518 
L 78.727017 106.557796 
L 80.358447 104.867518 
L 81.989877 99.626915 
L 83.621307 101.255017 
L 85.252736 97.655099 
L 86.884166 94.581998 
L 88.515596 95.93111 
L 90.147026 94.649415 
L 91.778456 96.136104 
L 93.409886 81.531452 
L 95.041316 89.240198 
L 96.672746 92.786929 
L 98.304175 82.847078 
L 99.935605 96.098487 
L 101.567035 97.533697 
L 103.198465 99.469921 
L 104.829895 97.718274 
L 106.461325 96.473757 
L 108.092755 83.020301 
L 109.724185 79.735698 
L 111.355614 91.138963 
L 112.987044 97.985487 
L 114.618474 89.081197 
L 116.249904 84.646477 
L 117.881334 86.333466 
L 119.512764 73.80207 
L 121.144194 94.756888 
L 122.775624 94.489344 
L 124.407053 92.715391 
L 126.038483 95.95926 
L 127.669913 92.458103 
L 129.301343 96.066858 
L 130.932773 87.63078 
L 132.564203 77.175699 
L 134.195633 81.302681 
L 135.827063 94.533994 
L 137.458492 57.587962 
L 139.089922 83.454024 
L 140.721352 87.603509 
L 142.352782 83.129567 
L 143.984212 84.892954 
L 145.615642 89.415495 
L 147.247072 84.113652 
L 148.878502 82.947017 
L 150.509931 76.788604 
L 152.141361 90.910401 
L 153.772791 79.314853 
L 155.404221 84.296614 
L 157.035651 79.730789 
L 158.667081 94.62072 
L 160.298511 84.54246 
L 161.929941 62.698246 
L 163.56137 85.774978 
L 165.1928 83.171188 
L 166.82423 84.387181 
L 168.45566 90.938304 
L 170.08709 73.658388 
L 171.71852 81.059642 
L 173.34995 87.783085 
L 174.98138 83.117688 
L 176.61281 72.748793 
L 178.244239 70.867757 
L 179.875669 89.480729 
L 181.507099 73.840887 
L 183.138529 75.005562 
L 184.769959 81.523175 
L 186.401389 75.297175 
L 188.032819 89.171323 
L 189.664249 81.515817 
L 191.295678 81.639945 
L 192.927108 82.73761 
L 194.558538 73.648179 
L 196.189968 66.185504 
L 197.821398 84.623488 
L 199.452828 89.287002 
L 201.084258 76.93522 
L 202.715688 70.812209 
L 204.347117 78.576525 
L 205.978547 77.944342 
L 207.609977 85.966841 
L 209.241407 83.163302 
L 210.872837 86.211141 
L 212.504267 83.015264 
L 214.135697 81.356184 
L 215.767127 75.627468 
L 217.398556 73.922571 
L 219.029986 96.273587 
L 220.661416 69.654034 
L 222.292846 84.463942 
L 223.924276 84.558286 
L 225.555706 85.781908 
L 227.187136 83.047771 
L 228.818566 84.796419 
L 230.449995 79.603964 
L 232.081425 66.166152 
L 233.712855 71.992234 
L 235.344285 79.587758 
L 236.975715 75.231123 
L 238.607145 75.199401 
L 240.238575 66.173563 
L 241.870005 82.92214 
L 243.501434 76.530591 
L 245.132864 78.58855 
L 246.764294 88.150207 
L 248.395724 74.922672 
L 250.027154 81.020854 
L 251.658584 77.999164 
L 253.290014 89.430084 
L 254.921444 53.568 
L 256.552873 87.59794 
L 258.184303 79.612396 
L 259.815733 82.772387 
L 261.447163 78.407541 
L 263.078593 75.182194 
L 264.710023 84.61766 
L 266.341453 89.21455 
L 267.972883 71.905151 
L 269.604312 84.996922 
L 271.235742 77.095911 
L 272.867172 89.370368 
L 274.498602 78.383555 
L 276.130032 72.195876 
L 277.761462 68.886419 
L 279.392892 85.974734 
L 281.024322 90.911114 
L 282.655751 78.089824 
L 284.287181 73.455371 
L 285.918611 89.21147 
L 287.550041 85.88884 
L 289.181471 87.454973 
L 290.812901 66.310183 
L 292.444331 79.71124 
L 295.70719 92.687873 
L 297.33862 84.38224 
L 298.97005 70.779268 
L 300.60148 87.617682 
L 302.23291 78.350666 
L 303.86434 76.813999 
L 305.49577 62.123783 
L 307.1272 86.065485 
L 308.75863 92.45029 
L 310.390059 78.027284 
L 312.021489 89.343062 
L 313.652919 76.910657 
L 315.284349 77.063516 
L 316.915779 78.305916 
L 318.547209 76.436004 
L 320.178639 92.606935 
L 321.810069 81.315465 
L 323.441498 82.629588 
L 325.072928 72.573987 
L 326.704358 85.984781 
L 328.335788 87.2251 
L 329.967218 81.304756 
L 331.598648 76.884864 
L 333.230078 87.767585 
L 334.861508 81.196124 
L 336.492937 59.494 
L 338.124367 90.726123 
L 339.755797 76.427213 
L 341.387227 78.039275 
L 343.018657 72.008745 
L 344.650087 82.932527 
L 346.281517 79.635996 
L 347.912947 78.650777 
L 349.544376 80.127297 
L 351.175806 67.965946 
L 352.807236 84.485229 
L 354.438666 81.461225 
L 356.070096 90.672467 
L 357.701526 82.886721 
L 359.332956 76.91012 
L 360.964386 89.412805 
L 362.595815 75.133896 
L 364.227245 83.25258 
L 365.858675 75.575071 
L 367.490105 82.88508 
L 369.121535 76.982303 
L 370.752965 79.75087 
L 372.384395 73.930534 
L 374.015825 72.240743 
L 375.647254 84.351828 
L 377.278684 81.363406 
L 378.910114 65.002526 
L 380.541544 66.483606 
L 382.172974 75.28692 
L 383.804404 79.85967 
L 385.435834 73.410954 
L 387.067264 79.4683 
L 388.698693 72.107685 
L 390.330123 90.859345 
L 391.961553 73.655496 
L 393.592983 89.383258 
L 395.224413 86.308651 
L 396.855843 91.074424 
L 398.487273 88.086585 
L 398.487273 88.086585 
" clip-path="url(#p7042e1e3e5)" style="fill: none; stroke: #ff0000; stroke-width: 1.5; stroke-linecap: square"/>
   </g>
   <g id="patch_3">
    <path d="M 57.6 307.584 
L 57.6 41.472 
" style="fill: none; stroke: #000000; stroke-width: 0.8; stroke-linejoin: miter; stroke-linecap: square"/>
   </g>
   <g id="patch_4">
    <path d="M 414.72 307.584 
L 414.72 41.472 
" style="fill: none; stroke: #000000; stroke-width: 0.8; stroke-linejoin: miter; stroke-linecap: square"/>
   </g>
   <g id="patch_5">
    <path d="M 57.6 307.584 
L 414.72 307.584 
" style="fill: none; stroke: #000000; stroke-width: 0.8; stroke-linejoin: miter; stroke-linecap: square"/>
   </g>
   <g id="patch_6">
    <path d="M 57.6 41.472 
L 414.72 41.472 
" style="fill: none; stroke: #000000; stroke-width: 0.8; stroke-linejoin: miter; stroke-linecap: square"/>
   </g>
   <g id="text_13">
    <!-- Population's average and best fitness -->
    <g transform="translate(123.529687 35.472) scale(0.12 -0.12)">
     <defs>
      <path id="DejaVuSans-50" d="M 1259 4147 
L 1259 2394 
L 2053 2394 
Q 2494 2394 2734 2622 
Q 2975 2850 2975 3272 
Q 2975 3691 2734 3919 
Q 2494 4147 2053 4147 
L 1259 4147 
z
M 628 4666 
L 2053 4666 
Q 2838 4666 3239 4311 
Q 3641 3956 3641 3272 
Q 3641 2581 3239 2228 
Q 2838 1875 2053 1875 
L 1259 1875 
L 1259 0 
L 628 0 
L 628 4666 
z
" transform="scale(0.015625)"/>
      <path id="DejaVuSans-70" d="M 1159 525 
L 1159 -1331 
L 581 -1331 
L 581 3500 
L 1159 3500 
L 1159 2969 
Q 1341 3281 1617 3432 
Q 1894 3584 2278 3584 
Q 2916 3584 3314 3078 
Q 3713 2572 3713 1747 
Q 3713 922 3314 415 
Q 2916 -91 2278 -91 
Q 1894 -91 1617 61 
Q 1341 213 1159 525 
z
M 3116 1747 
Q 3116 2381 2855 2742 
Q 2594 3103 2138 3103 
Q 1681 3103 1420 2742 
Q 1159 2381 1159 1747 
Q 1159 1113 1420 752 
Q 1681 391 2138 391 
Q 2594 391 2855 752 
Q 3116 1113 3116 1747 
z
" transform="scale(0.015625)"/>
      <path id="DejaVuSans-75" d="M 544 1381 
L 544 3500 
L 1119 3500 
L 1119 1403 
Q 1119 906 1312 657 
Q 1506 409 1894 409 
Q 2359 409 2629 706 
Q 2900 1003 2900 1516 
L 2900 3500 
L 3475 3500 
L 3475 0 
L 2900 0 
L 2900 538 
Q 2691 219 2414 64 
Q 2138 -91 1772 -91 
Q 1169 -91 856 284 
Q 544 659 544 1381 
z
M 1991 3584 
L 1991 3584 
z
" transform="scale(0.015625)"/>
      <path id="DejaVuSans-6c" d="M 603 4863 
L 1178 4863 
L 1178 0 
L 603 0 
L 603 4863 
z
" transform="scale(0.015625)"/>
      <path id="DejaVuSans-27" d="M 1147 4666 
L 1147 2931 
L 616 2931 
L 616 4666 
L 1147 4666 
z
" transform="scale(0.015625)"/>
      <path id="DejaVuSans-20" transform="scale(0.015625)"/>
      <path id="DejaVuSans-76" d="M 191 3500 
L 800 3500 
L 1894 563 
L 2988 3500 
L 3597 3500 
L 2284 0 
L 1503 0 
L 191 3500 
z
" transform="scale(0.015625)"/>
      <path id="DejaVuSans-67" d="M 2906 1791 
Q 2906 2416 2648 2759 
Q 2391 3103 1925 3103 
Q 1463 3103 1205 2759 
Q 947 2416 947 1791 
Q 947 1169 1205 825 
Q 1463 481 1925 481 
Q 2391 481 2648 825 
Q 2906 1169 2906 1791 
z
M 3481 434 
Q 3481 -459 3084 -895 
Q 2688 -1331 1869 -1331 
Q 1566 -1331 1297 -1286 
Q 1028 -1241 775 -1147 
L 775 -588 
Q 1028 -725 1275 -790 
Q 1522 -856 1778 -856 
Q 2344 -856 2625 -561 
Q 2906 -266 2906 331 
L 2906 616 
Q 2728 306 2450 153 
Q 2172 0 1784 0 
Q 1141 0 747 490 
Q 353 981 353 1791 
Q 353 2603 747 3093 
Q 1141 3584 1784 3584 
Q 2172 3584 2450 3431 
Q 2728 3278 2906 2969 
L 2906 3500 
L 3481 3500 
L 3481 434 
z
" transform="scale(0.015625)"/>
      <path id="DejaVuSans-64" d="M 2906 2969 
L 2906 4863 
L 3481 4863 
L 3481 0 
L 2906 0 
L 2906 525 
Q 2725 213 2448 61 
Q 2172 -91 1784 -91 
Q 1150 -91 751 415 
Q 353 922 353 1747 
Q 353 2572 751 3078 
Q 1150 3584 1784 3584 
Q 2172 3584 2448 3432 
Q 2725 3281 2906 2969 
z
M 947 1747 
Q 947 1113 1208 752 
Q 1469 391 1925 391 
Q 2381 391 2643 752 
Q 2906 1113 2906 1747 
Q 2906 2381 2643 2742 
Q 2381 3103 1925 3103 
Q 1469 3103 1208 2742 
Q 947 2381 947 1747 
z
" transform="scale(0.015625)"/>
      <path id="DejaVuSans-62" d="M 3116 1747 
Q 3116 2381 2855 2742 
Q 2594 3103 2138 3103 
Q 1681 3103 1420 2742 
Q 1159 2381 1159 1747 
Q 1159 1113 1420 752 
Q 1681 391 2138 391 
Q 2594 391 2855 752 
Q 3116 1113 3116 1747 
z
M 1159 2969 
Q 1341 3281 1617 3432 
Q 1894 3584 2278 3584 
Q 2916 3584 3314 3078 
Q 3713 2572 3713 1747 
Q 3713 922 3314 415 
Q 2916 -91 2278 -91 
Q 1894 -91 1617 61 
Q 1341 213 1159 525 
L 1159 0 
L 581 0 
L 581 4863 
L 1159 4863 
L 1159 2969 
z
" transform="scale(0.015625)"/>
      <path id="DejaVuSans-66" d="M 2375 4863 
L 2375 4384 
L 1825 4384 
Q 1516 4384 1395 4259 
Q 1275 4134 1275 3809 
L 1275 3500 
L 2222 3500 
L 2222 3053 
L 1275 3053 
L 1275 0 
L 697 0 
L 697 3053 
L 147 3053 
L 147 3500 
L 697 3500 
L 697 3744 
Q 697 4328 969 4595 
Q 1241 4863 1831 4863 
L 2375 4863 
z
" transform="scale(0.015625)"/>
     </defs>
     <use xlink:href="#DejaVuSans-50"/>
     <use xlink:href="#DejaVuSans-6f" transform="translate(56.677734 0)"/>
     <use xlink:href="#DejaVuSans-70" transform="translate(117.859375 0)"/>
     <use xlink:href="#DejaVuSans-75" transform="translate(181.335938 0)"/>
     <use xlink:href="#DejaVuSans-6c" transform="translate(244.714844 0)"/>
     <use xlink:href="#DejaVuSans-61" transform="translate(272.498047 0)"/>
     <use xlink:href="#DejaVuSans-74" transform="translate(333.777344 0)"/>
     <use xlink:href="#DejaVuSans-69" transform="translate(372.986328 0)"/>
     <use xlink:href="#DejaVuSans-6f" transform="translate(400.769531 0)"/>
     <use xlink:href="#DejaVuSans-6e" transform="translate(461.951172 0)"/>
     <use xlink:href="#DejaVuSans-27" transform="translate(525.330078 0)"/>
     <use xlink:href="#DejaVuSans-73" transform="translate(552.820312 0)"/>
     <use xlink:href="#DejaVuSans-20" transform="translate(604.919922 0)"/>
     <use xlink:href="#DejaVuSans-61" transform="translate(636.707031 0)"/>
     <use xlink:href="#DejaVuSans-76" transform="translate(697.986328 0)"/>
     <use xlink:href="#DejaVuSans-65" transform="translate(757.166016 0)"/>
     <use xlink:href="#DejaVuSans-72" transform="translate(818.689453 0)"/>
     <use xlink:href="#DejaVuSans-61" transform="translate(859.802734 0)"/>
     <use xlink:href="#DejaVuSans-67" transform="translate(921.082031 0)"/>
     <use xlink:href="#DejaVuSans-65" transform="translate(984.558594 0)"/>
     <use xlink:href="#DejaVuSans-20" transform="translate(1046.082031 0)"/>
     <use xlink:href="#DejaVuSans-61" transform="translate(1077.869141 0)"/>
     <use xlink:href="#DejaVuSans-6e" transform="translate(1139.148438 0)"/>
     <use xlink:href="#DejaVuSans-64" transform="translate(1202.527344 0)"/>
     <use xlink:href="#DejaVuSans-20" transform="translate(1266.003906 0)"/>
     <use xlink:href="#DejaVuSans-62" transform="translate(1297.791016 0)"/>
     <use xlink:href="#DejaVuSans-65" transform="translate(1361.267578 0)"/>
     <use xlink:href="#DejaVuSans-73" transform="translate(1422.791016 0)"/>
     <use xlink:href="#DejaVuSans-74" transform="translate(1474.890625 0)"/>
     <use xlink:href="#DejaVuSans-20" transform="translate(1514.099609 0)"/>
     <use xlink:href="#DejaVuSans-66" transform="translate(1545.886719 0)"/>
     <use xlink:href="#DejaVuSans-69" transform="translate(1581.091797 0)"/>
     <use xlink:href="#DejaVuSans-74" transform="translate(1608.875 0)"/>
     <use xlink:href="#DejaVuSans-6e" transform="translate(1648.083984 0)"/>
     <use xlink:href="#DejaVuSans-65" transform="translate(1711.462891 0)"/>
     <use xlink:href="#DejaVuSans-73" transform="translate(1772.986328 0)"/>
     <use xlink:href="#DejaVuSans-73" transform="translate(1825.085938 0)"/>
    </g>
   </g>
   <g id="legend_1">
    <g id="patch_7">
     <path d="M 334.779375 302.584 
L 407.72 302.584 
Q 409.72 302.584 409.72 300.584 
L 409.72 257.549625 
Q 409.72 255.549625 407.72 255.549625 
L 334.779375 255.549625 
Q 332.779375 255.549625 332.779375 257.549625 
L 332.779375 300.584 
Q 332.779375 302.584 334.779375 302.584 
z
" style="fill: #ffffff; opacity: 0.8; stroke: #cccccc; stroke-linejoin: miter"/>
    </g>
    <g id="line2d_24">
     <path d="M 336.779375 263.648062 
L 346.779375 263.648062 
L 356.779375 263.648062 
" style="fill: none; stroke: #0000ff; stroke-width: 1.5; stroke-linecap: square"/>
    </g>
    <g id="text_14">
     <!-- average -->
     <g transform="translate(364.779375 267.148062) scale(0.1 -0.1)">
      <use xlink:href="#DejaVuSans-61"/>
      <use xlink:href="#DejaVuSans-76" transform="translate(61.279297 0)"/>
      <use xlink:href="#DejaVuSans-65" transform="translate(120.458984 0)"/>
      <use xlink:href="#DejaVuSans-72" transform="translate(181.982422 0)"/>
      <use xlink:href="#DejaVuSans-61" transform="translate(223.095703 0)"/>
      <use xlink:href="#DejaVuSans-67" transform="translate(284.375 0)"/>
      <use xlink:href="#DejaVuSans-65" transform="translate(347.851562 0)"/>
     </g>
    </g>
    <g id="line2d_25">
     <path d="M 336.779375 278.326188 
L 346.779375 278.326188 
L 356.779375 278.326188 
" style="fill: none; stroke-dasharray: 9.6,2.4,1.5,2.4; stroke-dashoffset: 0; stroke: #008000; stroke-width: 1.5"/>
    </g>
    <g id="text_15">
     <!-- +1 sd -->
     <g transform="translate(364.779375 281.826188) scale(0.1 -0.1)">
      <defs>
       <path id="DejaVuSans-2b" d="M 2944 4013 
L 2944 2272 
L 4684 2272 
L 4684 1741 
L 2944 1741 
L 2944 0 
L 2419 0 
L 2419 1741 
L 678 1741 
L 678 2272 
L 2419 2272 
L 2419 4013 
L 2944 4013 
z
" transform="scale(0.015625)"/>
      </defs>
      <use xlink:href="#DejaVuSans-2b"/>
      <use xlink:href="#DejaVuSans-31" transform="translate(83.789062 0)"/>
      <use xlink:href="#DejaVuSans-20" transform="translate(147.412109 0)"/>
      <use xlink:href="#DejaVuSans-73" transform="translate(179.199219 0)"/>
      <use xlink:href="#DejaVuSans-64" transform="translate(231.298828 0)"/>
     </g>
    </g>
    <g id="line2d_26">
     <path d="M 336.779375 293.004312 
L 346.779375 293.004312 
L 356.779375 293.004312 
" style="fill: none; stroke: #ff0000; stroke-width: 1.5; stroke-linecap: square"/>
    </g>
    <g id="text_16">
     <!-- best -->
     <g transform="translate(364.779375 296.504312) scale(0.1 -0.1)">
      <use xlink:href="#DejaVuSans-62"/>
      <use xlink:href="#DejaVuSans-65" transform="translate(63.476562 0)"/>
      <use xlink:href="#DejaVuSans-73" transform="translate(125 0)"/>
      <use xlink:href="#DejaVuSans-74" transform="translate(177.099609 0)"/>
     </g>
    </g>
   </g>
  </g>
 </g>
 <defs>
  <clipPath id="p7042e1e3e5">
   <rect x="57.6" y="41.472" width="357.12" height="266.112"/>
  </clipPath>
 </defs>
</svg>
