<?xml version="1.0" encoding="utf-8" standalone="no"?>
<!DOCTYPE svg PUBLIC "-//W3C//DTD SVG 1.1//EN"
  "http://www.w3.org/Graphics/SVG/1.1/DTD/svg11.dtd">
<svg xmlns:xlink="http://www.w3.org/1999/xlink" width="460.8pt" height="345.6pt" viewBox="0 0 460.8 345.6" xmlns="http://www.w3.org/2000/svg" version="1.1">
 <metadata>
  <rdf:RDF xmlns:dc="http://purl.org/dc/elements/1.1/" xmlns:cc="http://creativecommons.org/ns#" xmlns:rdf="http://www.w3.org/1999/02/22-rdf-syntax-ns#">
   <cc:Work>
    <dc:type rdf:resource="http://purl.org/dc/dcmitype/StillImage"/>
    <dc:date>2026-04-23T14:52:41.737076</dc:date>
    <dc:format>image/svg+xml</dc:format>
    <dc:creator>
     <cc:Agent>
      <dc:title>Matplotlib v3.10.8, https://matplotlib.org/</dc:title>
     </cc:Agent>
    </dc:creator>
   </cc:Work>
  </rdf:RDF>
 </metadata>
 <defs>
  <style type="text/css">*{stroke-linejoin: round; stroke-linecap: butt}</style>
 </defs>
 <g id="figure_1">
  <g id="patch_1">
   <path d="M 0 345.6 
L 460.8 345.6 
L 460.8 0 
L 0 0 
z
" style="fill: #ffffff"/>
  </g>
  <g id="axes_1">
   <g id="patch_2">
    <path d="M 57.6 307.584 
L 414.72 307.584 
L 414.72 41.472 
L 57.6 41.472 
z
" style="fill: #ffffff"/>
   </g>
   <g id="matplotlib.axis_1">
    <g id="xtick_1">
     <g id="line2d_1">
      <path d="M 73.832727 307.584 
L 73.832727 41.472 
" clip-path="url(#p752bf29464)" style="fill: none; stroke: #b0b0b0; stroke-width: 0.8; stroke-linecap: square"/>
     </g>
     <g id="line2d_2">
      <defs>
       <path id="m205b1c1c08" d="M 0 0 
L 0 3.5 
" style="stroke: #000000; stroke-width: 0.8"/>
      </defs>
      <g>
       <use xlink:href="#m205b1c1c08" x="73.832727" y="307.584" style="stroke: #000000; stroke-width: 0.8"/>
      </g>
     </g>
     <g id="text_1">
      <!-- 0 -->
      <g transform="translate(70.651477 322.182437) scale(0.1 -0.1)">
       <defs>
        <path id="DejaVuSans-30" d="M 2034 4250 
Q 1547 4250 1301 3770 
Q 1056 3291 1056 2328 
Q 1056 1369 1301 889 
Q 1547 409 2034 409 
Q 2525 409 2770 889 
Q 3016 1369 3016 2328 
Q 3016 3291 2770 3770 
Q 2525 4250 2034 4250 
z
M 2034 4750 
Q 2819 4750 3233 4129 
Q 3647 3509 3647 2328 
Q 3647 1150 3233 529 
Q 2819 -91 2034 -91 
Q 1250 -91 836 529 
Q 422 1150 422 2328 
Q 422 3509 836 4129 
Q 1250 4750 2034 4750 
z
" transform="scale(0.015625)"/>
       </defs>
       <use xlink:href="#DejaVuSans-30"/>
      </g>
     </g>
    </g>
    <g id="xtick_2">
     <g id="line2d_3">
      <path d="M 114.618474 307.584 
L 114.618474 41.472 
" clip-path="url(#p752bf29464)" style="fill: none; stroke: #b0b0b0; stroke-width: 0.8; stroke-linecap: square"/>
     </g>
     <g id="line2d_4">
      <g>
       <use xlink:href="#m205b1c1c08" x="114.618474" y="307.584" style="stroke: #000000; stroke-width: 0.8"/>
      </g>
     </g>
     <g id="text_2">
      <!-- 25 -->
      <g transform="translate(108.255974 322.182437) scale(0.1 -0.1)">
       <defs>
        <path id="DejaVuSans-32" d="M 1228 531 
L 3431 531 
L 3431 0 
L 469 0 
L 469 531 
Q 828 903 1448 1529 
Q 2069 2156 2228 2338 
Q 2531 2678 2651 2914 
Q 2772 3150 2772 3378 
Q 2772 3750 2511 3984 
Q 2250 4219 1831 4219 
Q 1534 4219 1204 4116 
Q 875 4013 500 3803 
L 500 4441 
Q 881 4594 1212 4672 
Q 1544 4750 1819 4750 
Q 2544 4750 2975 4387 
Q 3406 4025 3406 3419 
Q 3406 3131 3298 2873 
Q 3191 2616 2906 2266 
Q 2828 2175 2409 1742 
Q 1991 1309 1228 531 
z
" transform="scale(0.015625)"/>
        <path id="DejaVuSans-35" d="M 691 4666 
L 3169 4666 
L 3169 4134 
L 1269 4134 
L 1269 2991 
Q 1406 3038 1543 3061 
Q 1681 3084 1819 3084 
Q 2600 3084 3056 2656 
Q 3513 2228 3513 1497 
Q 3513 744 3044 326 
Q 2575 -91 1722 -91 
Q 1428 -91 1123 -41 
Q 819 9 494 109 
L 494 744 
Q 775 591 1075 516 
Q 1375 441 1709 441 
Q 2250 441 2565 725 
Q 2881 1009 2881 1497 
Q 2881 1984 2565 2268 
Q 2250 2553 1709 2553 
Q 1456 2553 1204 2497 
Q 953 2441 691 2322 
L 691 4666 
z
" transform="scale(0.015625)"/>
       </defs>
       <use xlink:href="#DejaVuSans-32"/>
       <use xlink:href="#DejaVuSans-35" transform="translate(63.623047 0)"/>
      </g>
     </g>
    </g>
    <g id="xtick_3">
     <g id="line2d_5">
      <path d="M 155.404221 307.584 
L 155.404221 41.472 
" clip-path="url(#p752bf29464)" style="fill: none; stroke: #b0b0b0; stroke-width: 0.8; stroke-linecap: square"/>
     </g>
     <g id="line2d_6">
      <g>
       <use xlink:href="#m205b1c1c08" x="155.404221" y="307.584" style="stroke: #000000; stroke-width: 0.8"/>
      </g>
     </g>
     <g id="text_3">
      <!-- 50 -->
      <g transform="translate(149.041721 322.182437) scale(0.1 -0.1)">
       <use xlink:href="#DejaVuSans-35"/>
       <use xlink:href="#DejaVuSans-30" transform="translate(63.623047 0)"/>
      </g>
     </g>
    </g>
    <g id="xtick_4">
     <g id="line2d_7">
      <path d="M 196.189968 307.584 
L 196.189968 41.472 
" clip-path="url(#p752bf29464)" style="fill: none; stroke: #b0b0b0; stroke-width: 0.8; stroke-linecap: square"/>
     </g>
     <g id="line2d_8">
      <g>
       <use xlink:href="#m205b1c1c08" x="196.189968" y="307.584" style="stroke: #000000; stroke-width: 0.8"/>
      </g>
     </g>
     <g id="text_4">
      <!-- 75 -->
      <g transform="translate(189.827468 322.182437) scale(0.1 -0.1)">
       <defs>
        <path id="DejaVuSans-37" d="M 525 4666 
L 3525 4666 
L 3525 4397 
L 1831 0 
L 1172 0 
L 2766 4134 
L 525 4134 
L 525 4666 
z
" transform="scale(0.015625)"/>
       </defs>
       <use xlink:href="#DejaVuSans-37"/>
       <use xlink:href="#DejaVuSans-35" transform="translate(63.623047 0)"/>
      </g>
     </g>
    </g>
    <g id="xtick_5">
     <g id="line2d_9">
      <path d="M 236.975715 307.584 
L 236.975715 41.472 
" clip-path="url(#p752bf29464)" style="fill: none; stroke: #b0b0b0; stroke-width: 0.8; stroke-linecap: square"/>
     </g>
     <g id="line2d_10">
      <g>
       <use xlink:href="#m205b1c1c08" x="236.975715" y="307.584" style="stroke: #000000; stroke-width: 0.8"/>
      </g>
     </g>
     <g id="text_5">
      <!-- 100 -->
      <g transform="translate(227.431965 322.182437) scale(0.1 -0.1)">
       <defs>
        <path id="DejaVuSans-31" d="M 794 531 
L 1825 531 
L 1825 4091 
L 703 3866 
L 703 4441 
L 1819 4666 
L 2450 4666 
L 2450 531 
L 3481 531 
L 3481 0 
L 794 0 
L 794 531 
z
" transform="scale(0.015625)"/>
       </defs>
       <use xlink:href="#DejaVuSans-31"/>
       <use xlink:href="#DejaVuSans-30" transform="translate(63.623047 0)"/>
       <use xlink:href="#DejaVuSans-30" transform="translate(127.246094 0)"/>
      </g>
     </g>
    </g>
    <g id="xtick_6">
     <g id="line2d_11">
      <path d="M 277.761462 307.584 
L 277.761462 41.472 
" clip-path="url(#p752bf29464)" style="fill: none; stroke: #b0b0b0; stroke-width: 0.8; stroke-linecap: square"/>
     </g>
     <g id="line2d_12">
      <g>
       <use xlink:href="#m205b1c1c08" x="277.761462" y="307.584" style="stroke: #000000; stroke-width: 0.8"/>
      </g>
     </g>
     <g id="text_6">
      <!-- 125 -->
      <g transform="translate(268.217712 322.182437) scale(0.1 -0.1)">
       <use xlink:href="#DejaVuSans-31"/>
       <use xlink:href="#DejaVuSans-32" transform="translate(63.623047 0)"/>
       <use xlink:href="#DejaVuSans-35" transform="translate(127.246094 0)"/>
      </g>
     </g>
    </g>
    <g id="xtick_7">
     <g id="line2d_13">
      <path d="M 318.547209 307.584 
L 318.547209 41.472 
" clip-path="url(#p752bf29464)" style="fill: none; stroke: #b0b0b0; stroke-width: 0.8; stroke-linecap: square"/>
     </g>
     <g id="line2d_14">
      <g>
       <use xlink:href="#m205b1c1c08" x="318.547209" y="307.584" style="stroke: #000000; stroke-width: 0.8"/>
      </g>
     </g>
     <g id="text_7">
      <!-- 150 -->
      <g transform="translate(309.003459 322.182437) scale(0.1 -0.1)">
       <use xlink:href="#DejaVuSans-31"/>
       <use xlink:href="#DejaVuSans-35" transform="translate(63.623047 0)"/>
       <use xlink:href="#DejaVuSans-30" transform="translate(127.246094 0)"/>
      </g>
     </g>
    </g>
    <g id="xtick_8">
     <g id="line2d_15">
      <path d="M 359.332956 307.584 
L 359.332956 41.472 
" clip-path="url(#p752bf29464)" style="fill: none; stroke: #b0b0b0; stroke-width: 0.8; stroke-linecap: square"/>
     </g>
     <g id="line2d_16">
      <g>
       <use xlink:href="#m205b1c1c08" x="359.332956" y="307.584" style="stroke: #000000; stroke-width: 0.8"/>
      </g>
     </g>
     <g id="text_8">
      <!-- 175 -->
      <g transform="translate(349.789206 322.182437) scale(0.1 -0.1)">
       <use xlink:href="#DejaVuSans-31"/>
       <use xlink:href="#DejaVuSans-37" transform="translate(63.623047 0)"/>
       <use xlink:href="#DejaVuSans-35" transform="translate(127.246094 0)"/>
      </g>
     </g>
    </g>
    <g id="xtick_9">
     <g id="line2d_17">
      <path d="M 400.118703 307.584 
L 400.118703 41.472 
" clip-path="url(#p752bf29464)" style="fill: none; stroke: #b0b0b0; stroke-width: 0.8; stroke-linecap: square"/>
     </g>
     <g id="line2d_18">
      <g>
       <use xlink:href="#m205b1c1c08" x="400.118703" y="307.584" style="stroke: #000000; stroke-width: 0.8"/>
      </g>
     </g>
     <g id="text_9">
      <!-- 200 -->
      <g transform="translate(390.574953 322.182437) scale(0.1 -0.1)">
       <use xlink:href="#DejaVuSans-32"/>
       <use xlink:href="#DejaVuSans-30" transform="translate(63.623047 0)"/>
       <use xlink:href="#DejaVuSans-30" transform="translate(127.246094 0)"/>
      </g>
     </g>
    </g>
    <g id="text_10">
     <!-- Generations -->
     <g transform="translate(205.662344 335.860562) scale(0.1 -0.1)">
      <defs>
       <path id="DejaVuSans-47" d="M 3809 666 
L 3809 1919 
L 2778 1919 
L 2778 2438 
L 4434 2438 
L 4434 434 
Q 4069 175 3628 42 
Q 3188 -91 2688 -91 
Q 1594 -91 976 548 
Q 359 1188 359 2328 
Q 359 3472 976 4111 
Q 1594 4750 2688 4750 
Q 3144 4750 3555 4637 
Q 3966 4525 4313 4306 
L 4313 3634 
Q 3963 3931 3569 4081 
Q 3175 4231 2741 4231 
Q 1884 4231 1454 3753 
Q 1025 3275 1025 2328 
Q 1025 1384 1454 906 
Q 1884 428 2741 428 
Q 3075 428 3337 486 
Q 3600 544 3809 666 
z
" transform="scale(0.015625)"/>
       <path id="DejaVuSans-65" d="M 3597 1894 
L 3597 1613 
L 953 1613 
Q 991 1019 1311 708 
Q 1631 397 2203 397 
Q 2534 397 2845 478 
Q 3156 559 3463 722 
L 3463 178 
Q 3153 47 2828 -22 
Q 2503 -91 2169 -91 
Q 1331 -91 842 396 
Q 353 884 353 1716 
Q 353 2575 817 3079 
Q 1281 3584 2069 3584 
Q 2775 3584 3186 3129 
Q 3597 2675 3597 1894 
z
M 3022 2063 
Q 3016 2534 2758 2815 
Q 2500 3097 2075 3097 
Q 1594 3097 1305 2825 
Q 1016 2553 972 2059 
L 3022 2063 
z
" transform="scale(0.015625)"/>
       <path id="DejaVuSans-6e" d="M 3513 2113 
L 3513 0 
L 2938 0 
L 2938 2094 
Q 2938 2591 2744 2837 
Q 2550 3084 2163 3084 
Q 1697 3084 1428 2787 
Q 1159 2491 1159 1978 
L 1159 0 
L 581 0 
L 581 3500 
L 1159 3500 
L 1159 2956 
Q 1366 3272 1645 3428 
Q 1925 3584 2291 3584 
Q 2894 3584 3203 3211 
Q 3513 2838 3513 2113 
z
" transform="scale(0.015625)"/>
       <path id="DejaVuSans-72" d="M 2631 2963 
Q 2534 3019 2420 3045 
Q 2306 3072 2169 3072 
Q 1681 3072 1420 2755 
Q 1159 2438 1159 1844 
L 1159 0 
L 581 0 
L 581 3500 
L 1159 3500 
L 1159 2956 
Q 1341 3275 1631 3429 
Q 1922 3584 2338 3584 
Q 2397 3584 2469 3576 
Q 2541 3569 2628 3553 
L 2631 2963 
z
" transform="scale(0.015625)"/>
       <path id="DejaVuSans-61" d="M 2194 1759 
Q 1497 1759 1228 1600 
Q 959 1441 959 1056 
Q 959 750 1161 570 
Q 1363 391 1709 391 
Q 2188 391 2477 730 
Q 2766 1069 2766 1631 
L 2766 1759 
L 2194 1759 
z
M 3341 1997 
L 3341 0 
L 2766 0 
L 2766 531 
Q 2569 213 2275 61 
Q 1981 -91 1556 -91 
Q 1019 -91 701 211 
Q 384 513 384 1019 
Q 384 1609 779 1909 
Q 1175 2209 1959 2209 
L 2766 2209 
L 2766 2266 
Q 2766 2663 2505 2880 
Q 2244 3097 1772 3097 
Q 1472 3097 1187 3025 
Q 903 2953 641 2809 
L 641 3341 
Q 956 3463 1253 3523 
Q 1550 3584 1831 3584 
Q 2591 3584 2966 3190 
Q 3341 2797 3341 1997 
z
" transform="scale(0.015625)"/>
       <path id="DejaVuSans-74" d="M 1172 4494 
L 1172 3500 
L 2356 3500 
L 2356 3053 
L 1172 3053 
L 1172 1153 
Q 1172 725 1289 603 
Q 1406 481 1766 481 
L 2356 481 
L 2356 0 
L 1766 0 
Q 1100 0 847 248 
Q 594 497 594 1153 
L 594 3053 
L 172 3053 
L 172 3500 
L 594 3500 
L 594 4494 
L 1172 4494 
z
" transform="scale(0.015625)"/>
       <path id="DejaVuSans-69" d="M 603 3500 
L 1178 3500 
L 1178 0 
L 603 0 
L 603 3500 
z
M 603 4863 
L 1178 4863 
L 1178 4134 
L 603 4134 
L 603 4863 
z
" transform="scale(0.015625)"/>
       <path id="DejaVuSans-6f" d="M 1959 3097 
Q 1497 3097 1228 2736 
Q 959 2375 959 1747 
Q 959 1119 1226 758 
Q 1494 397 1959 397 
Q 2419 397 2687 759 
Q 2956 1122 2956 1747 
Q 2956 2369 2687 2733 
Q 2419 3097 1959 3097 
z
M 1959 3584 
Q 2709 3584 3137 3096 
Q 3566 2609 3566 1747 
Q 3566 888 3137 398 
Q 2709 -91 1959 -91 
Q 1206 -91 779 398 
Q 353 888 353 1747 
Q 353 2609 779 3096 
Q 1206 3584 1959 3584 
z
" transform="scale(0.015625)"/>
       <path id="DejaVuSans-73" d="M 2834 3397 
L 2834 2853 
Q 2591 2978 2328 3040 
Q 2066 3103 1784 3103 
Q 1356 3103 1142 2972 
Q 928 2841 928 2578 
Q 928 2378 1081 2264 
Q 1234 2150 1697 2047 
L 1894 2003 
Q 2506 1872 2764 1633 
Q 3022 1394 3022 966 
Q 3022 478 2636 193 
Q 2250 -91 1575 -91 
Q 1294 -91 989 -36 
Q 684 19 347 128 
L 347 722 
Q 666 556 975 473 
Q 1284 391 1588 391 
Q 1994 391 2212 530 
Q 2431 669 2431 922 
Q 2431 1156 2273 1281 
Q 2116 1406 1581 1522 
L 1381 1569 
Q 847 1681 609 1914 
Q 372 2147 372 2553 
Q 372 3047 722 3315 
Q 1072 3584 1716 3584 
Q 2034 3584 2315 3537 
Q 2597 3491 2834 3397 
z
" transform="scale(0.015625)"/>
      </defs>
      <use xlink:href="#DejaVuSans-47"/>
      <use xlink:href="#DejaVuSans-65" transform="translate(77.490234 0)"/>
      <use xlink:href="#DejaVuSans-6e" transform="translate(139.013672 0)"/>
      <use xlink:href="#DejaVuSans-65" transform="translate(202.392578 0)"/>
      <use xlink:href="#DejaVuSans-72" transform="translate(263.916016 0)"/>
      <use xlink:href="#DejaVuSans-61" transform="translate(305.029297 0)"/>
      <use xlink:href="#DejaVuSans-74" transform="translate(366.308594 0)"/>
      <use xlink:href="#DejaVuSans-69" transform="translate(405.517578 0)"/>
      <use xlink:href="#DejaVuSans-6f" transform="translate(433.300781 0)"/>
      <use xlink:href="#DejaVuSans-6e" transform="translate(494.482422 0)"/>
      <use xlink:href="#DejaVuSans-73" transform="translate(557.861328 0)"/>
     </g>
    </g>
   </g>
   <g id="matplotlib.axis_2">
    <g id="ytick_1">
     <g id="line2d_19">
      <path d="M 57.6 97.933951 
L 414.72 97.933951 
" clip-path="url(#p752bf29464)" style="fill: none; stroke: #b0b0b0; stroke-width: 0.8; stroke-linecap: square"/>
     </g>
     <g id="line2d_20">
      <defs>
       <path id="m1066d756b5" d="M 0 0 
L -3.5 0 
" style="stroke: #000000; stroke-width: 0.8"/>
      </defs>
      <g>
       <use xlink:href="#m1066d756b5" x="57.6" y="97.933951" style="stroke: #000000; stroke-width: 0.8"/>
      </g>
     </g>
     <g id="text_11">
      <!-- $\mathdefault{10^{2}}$ -->
      <g transform="translate(33 101.73317) scale(0.1 -0.1)">
       <use xlink:href="#DejaVuSans-31" transform="translate(0 0.765625)"/>
       <use xlink:href="#DejaVuSans-30" transform="translate(63.623047 0.765625)"/>
       <use xlink:href="#DejaVuSans-32" transform="translate(128.203125 39.046875) scale(0.7)"/>
      </g>
     </g>
    </g>
    <g id="text_12">
     <!-- Fitness -->
     <g transform="translate(26.920312 191.845187) rotate(-90) scale(0.1 -0.1)">
      <defs>
       <path id="DejaVuSans-46" d="M 628 4666 
L 3309 4666 
L 3309 4134 
L 1259 4134 
L 1259 2759 
L 3109 2759 
L 3109 2228 
L 1259 2228 
L 1259 0 
L 628 0 
L 628 4666 
z
" transform="scale(0.015625)"/>
      </defs>
      <use xlink:href="#DejaVuSans-46"/>
      <use xlink:href="#DejaVuSans-69" transform="translate(50.269531 0)"/>
      <use xlink:href="#DejaVuSans-74" transform="translate(78.052734 0)"/>
      <use xlink:href="#DejaVuSans-6e" transform="translate(117.261719 0)"/>
      <use xlink:href="#DejaVuSans-65" transform="translate(180.640625 0)"/>
      <use xlink:href="#DejaVuSans-73" transform="translate(242.164062 0)"/>
      <use xlink:href="#DejaVuSans-73" transform="translate(294.263672 0)"/>
     </g>
    </g>
   </g>
   <g id="line2d_21">
    <path d="M 73.832727 295.488 
L 75.464157 227.132712 
L 77.095587 209.76662 
L 78.727017 198.349812 
L 80.358447 178.555812 
L 81.989877 166.586996 
L 83.621307 148.792886 
L 85.252736 143.636254 
L 86.884166 129.891614 
L 88.515596 125.8943 
L 90.147026 126.286388 
L 91.778456 124.118819 
L 93.409886 125.028049 
L 95.041316 127.363536 
L 98.304175 123.985029 
L 99.935605 124.33673 
L 101.567035 133.63688 
L 103.198465 125.240559 
L 104.829895 126.202532 
L 106.461325 123.014025 
L 108.092755 123.458397 
L 109.724185 125.209149 
L 111.355614 124.899182 
L 112.987044 124.770275 
L 114.618474 122.070458 
L 116.249904 122.641865 
L 117.881334 125.252789 
L 119.512764 124.519 
L 121.144194 122.226883 
L 122.775624 124.511017 
L 124.407053 125.201778 
L 126.038483 123.689353 
L 127.669913 125.396778 
L 129.301343 124.237011 
L 130.932773 120.912539 
L 134.195633 122.708279 
L 135.827063 122.301472 
L 137.458492 122.650996 
L 139.089922 121.930609 
L 140.721352 124.999834 
L 142.352782 121.017906 
L 143.984212 124.077596 
L 145.615642 122.854271 
L 147.247072 122.253395 
L 148.878502 125.78752 
L 150.509931 122.25574 
L 152.141361 122.399346 
L 153.772791 124.860139 
L 155.404221 126.031535 
L 157.035651 124.558471 
L 158.667081 123.374317 
L 160.298511 121.83361 
L 161.929941 123.080759 
L 163.56137 121.449354 
L 165.1928 122.166108 
L 166.82423 121.843266 
L 168.45566 119.762538 
L 170.08709 121.982265 
L 171.71852 121.083165 
L 173.34995 122.153901 
L 174.98138 121.456083 
L 176.61281 121.338848 
L 178.244239 123.011191 
L 179.875669 121.246278 
L 181.507099 121.600619 
L 183.138529 124.261924 
L 184.769959 121.319081 
L 186.401389 120.967451 
L 188.032819 122.547196 
L 189.664249 121.977465 
L 191.295678 122.554916 
L 192.927108 122.840914 
L 194.558538 120.999887 
L 196.189968 120.321877 
L 197.821398 122.104388 
L 199.452828 122.117983 
L 201.084258 122.019304 
L 204.347117 120.517094 
L 205.978547 122.420674 
L 207.609977 121.260484 
L 209.241407 122.702593 
L 210.872837 121.92209 
L 212.504267 121.682709 
L 214.135697 120.096165 
L 215.767127 122.405052 
L 217.398556 123.432244 
L 219.029986 121.069787 
L 220.661416 124.73799 
L 222.292846 123.890058 
L 223.924276 121.080442 
L 225.555706 122.44509 
L 227.187136 122.224356 
L 228.818566 123.042766 
L 230.449995 121.555603 
L 232.081425 121.161735 
L 233.712855 120.568347 
L 235.344285 122.036049 
L 236.975715 119.954286 
L 238.607145 119.869434 
L 241.870005 121.532254 
L 243.501434 121.673986 
L 245.132864 121.22312 
L 246.764294 121.709511 
L 250.027154 120.280205 
L 251.658584 119.315373 
L 253.290014 121.638914 
L 254.921444 118.948927 
L 256.552873 120.837521 
L 258.184303 121.791039 
L 259.815733 122.493029 
L 261.447163 120.852319 
L 263.078593 121.182259 
L 264.710023 121.972727 
L 266.341453 120.367394 
L 269.604312 121.641991 
L 271.235742 123.5866 
L 272.867172 120.982431 
L 274.498602 122.285976 
L 276.130032 120.760087 
L 277.761462 122.0465 
L 279.392892 122.714478 
L 281.024322 122.369185 
L 282.655751 124.097733 
L 284.287181 122.225973 
L 285.918611 123.433888 
L 287.550041 123.010939 
L 289.181471 124.914468 
L 290.812901 121.581313 
L 292.444331 122.258232 
L 294.075761 120.854694 
L 295.70719 121.928146 
L 297.33862 121.840608 
L 298.97005 122.486716 
L 300.60148 121.588929 
L 302.23291 122.96238 
L 303.86434 121.318846 
L 305.49577 120.873044 
L 307.1272 121.993289 
L 308.75863 121.77071 
L 310.390059 120.723865 
L 312.021489 122.135109 
L 313.652919 123.384703 
L 315.284349 120.540975 
L 316.915779 121.855792 
L 318.547209 120.994665 
L 320.178639 122.640146 
L 321.810069 122.425083 
L 323.441498 123.030704 
L 326.704358 121.511529 
L 329.967218 119.913485 
L 331.598648 122.419064 
L 333.230078 122.035343 
L 334.861508 122.423303 
L 336.492937 121.21655 
L 338.124367 120.968777 
L 339.755797 121.801451 
L 341.387227 121.764897 
L 343.018657 122.944398 
L 344.650087 122.000382 
L 346.281517 121.836777 
L 347.912947 121.139267 
L 349.544376 122.133034 
L 351.175806 123.807086 
L 352.807236 122.670574 
L 354.438666 120.613049 
L 356.070096 121.860069 
L 357.701526 120.053536 
L 359.332956 121.266469 
L 360.964386 122.07658 
L 362.595815 121.192003 
L 364.227245 122.347808 
L 365.858675 122.927574 
L 367.490105 124.335274 
L 369.121535 122.144658 
L 370.752965 121.984359 
L 372.384395 120.780147 
L 374.015825 122.356277 
L 375.647254 121.893318 
L 378.910114 122.812581 
L 380.541544 120.961228 
L 382.172974 122.474312 
L 383.804404 124.239543 
L 387.067264 121.076023 
L 388.698693 124.168928 
L 390.330123 124.841633 
L 391.961553 125.269061 
L 393.592983 125.319324 
L 395.224413 123.728166 
L 396.855843 123.671193 
L 398.487273 126.23391 
L 398.487273 126.23391 
" clip-path="url(#p752bf29464)" style="fill: none; stroke: #0000ff; stroke-width: 1.5; stroke-linecap: square"/>
   </g>
   <g id="line2d_22">
    <path d="M 73.832727 235.815798 
L 75.464157 167.162063 
L 77.095587 153.942858 
L 78.727017 146.377929 
L 80.358447 130.004239 
L 81.989877 119.196075 
L 83.621307 109.198566 
L 85.252736 110.222794 
L 86.884166 110.012033 
L 88.515596 111.015922 
L 90.147026 109.933204 
L 91.778456 109.430094 
L 93.409886 106.661496 
L 95.041316 109.760315 
L 96.672746 106.132095 
L 98.304175 108.5312 
L 99.935605 106.237175 
L 101.567035 103.252078 
L 103.198465 105.159636 
L 104.829895 106.300968 
L 106.461325 107.765614 
L 108.092755 106.520802 
L 109.724185 108.569533 
L 111.355614 108.398074 
L 112.987044 107.549233 
L 114.618474 104.306495 
L 117.881334 106.578434 
L 119.512764 103.985395 
L 121.144194 106.657235 
L 122.775624 103.237643 
L 124.407053 102.574878 
L 126.038483 105.5244 
L 127.669913 98.51275 
L 129.301343 105.659249 
L 130.932773 106.848185 
L 132.564203 106.42086 
L 134.195633 106.410046 
L 135.827063 104.744879 
L 137.458492 104.480404 
L 139.089922 101.160277 
L 140.721352 103.380971 
L 142.352782 103.538375 
L 143.984212 107.530427 
L 145.615642 103.597476 
L 147.247072 107.846352 
L 148.878502 102.203089 
L 152.141361 103.88206 
L 153.772791 103.327225 
L 155.404221 103.895316 
L 157.035651 105.496224 
L 158.667081 103.314895 
L 160.298511 107.394161 
L 161.929941 108.356209 
L 163.56137 107.008022 
L 165.1928 108.04631 
L 166.82423 107.772505 
L 168.45566 104.199161 
L 170.08709 107.2696 
L 171.71852 106.862992 
L 173.34995 108.323608 
L 174.98138 108.309122 
L 176.61281 107.451837 
L 178.244239 109.378532 
L 179.875669 106.510806 
L 181.507099 109.111302 
L 183.138529 109.578705 
L 184.769959 107.650514 
L 186.401389 106.916197 
L 188.032819 108.156108 
L 189.664249 107.664952 
L 191.295678 107.760691 
L 192.927108 108.451392 
L 194.558538 107.43489 
L 196.189968 105.869764 
L 197.821398 102.450977 
L 199.452828 108.730339 
L 201.084258 105.962516 
L 202.715688 107.434751 
L 204.347117 105.046352 
L 205.978547 108.831008 
L 207.609977 107.578798 
L 209.241407 105.794884 
L 210.872837 102.303959 
L 212.504267 105.828617 
L 214.135697 106.195216 
L 215.767127 106.070827 
L 217.398556 108.26686 
L 219.029986 106.355015 
L 220.661416 108.212593 
L 222.292846 108.417624 
L 223.924276 107.036119 
L 225.555706 108.955398 
L 227.187136 104.552038 
L 228.818566 102.783059 
L 230.449995 107.387179 
L 232.081425 107.750193 
L 233.712855 104.7078 
L 235.344285 107.510244 
L 236.975715 105.886596 
L 238.607145 104.493255 
L 240.238575 105.656285 
L 241.870005 108.730284 
L 243.501434 107.635313 
L 245.132864 106.759108 
L 246.764294 108.177333 
L 248.395724 107.12777 
L 250.027154 106.716884 
L 251.658584 105.23022 
L 253.290014 106.984618 
L 254.921444 104.415856 
L 256.552873 107.371892 
L 258.184303 107.423461 
L 259.815733 109.20566 
L 261.447163 106.054271 
L 263.078593 106.179405 
L 264.710023 108.189715 
L 266.341453 104.895217 
L 267.972883 106.463757 
L 269.604312 107.105881 
L 271.235742 106.942824 
L 272.867172 107.773513 
L 274.498602 109.36373 
L 276.130032 106.21311 
L 277.761462 107.646278 
L 279.392892 108.87006 
L 281.024322 105.864305 
L 282.655751 102.023041 
L 284.287181 106.540554 
L 285.918611 101.49284 
L 287.550041 105.29661 
L 289.181471 103.578965 
L 290.812901 104.943458 
L 292.444331 105.60144 
L 294.075761 107.33365 
L 295.70719 107.791287 
L 297.33862 107.847237 
L 298.97005 107.366771 
L 300.60148 107.450927 
L 302.23291 108.671438 
L 303.86434 107.350576 
L 305.49577 107.074506 
L 307.1272 108.311799 
L 308.75863 108.028019 
L 310.390059 107.294184 
L 312.021489 108.056029 
L 313.652919 110.772006 
L 315.284349 106.839918 
L 316.915779 108.087615 
L 318.547209 107.27814 
L 320.178639 108.31565 
L 321.810069 108.306838 
L 323.441498 109.368794 
L 325.072928 108.816868 
L 326.704358 107.559011 
L 328.335788 106.444316 
L 329.967218 104.520491 
L 331.598648 108.211737 
L 333.230078 107.842837 
L 334.861508 107.702399 
L 336.492937 105.065298 
L 338.124367 106.958948 
L 339.755797 108.154405 
L 341.387227 107.432501 
L 343.018657 109.013658 
L 344.650087 107.896981 
L 346.281517 107.97026 
L 347.912947 108.377696 
L 349.544376 108.655354 
L 351.175806 109.709364 
L 352.807236 108.09044 
L 354.438666 106.730792 
L 356.070096 107.715347 
L 357.701526 105.816623 
L 359.332956 106.16007 
L 360.964386 108.78024 
L 362.595815 106.397034 
L 364.227245 108.728544 
L 365.858675 109.869009 
L 367.490105 110.720254 
L 369.121535 107.10878 
L 370.752965 107.084674 
L 372.384395 106.478444 
L 374.015825 109.777927 
L 375.647254 107.399451 
L 377.278684 108.583422 
L 378.910114 107.904353 
L 380.541544 106.225806 
L 382.172974 107.179771 
L 383.804404 106.390032 
L 387.067264 102.838649 
L 388.698693 111.807732 
L 390.330123 105.050599 
L 391.961553 107.31106 
L 393.592983 106.621292 
L 395.224413 108.45874 
L 396.855843 109.182828 
L 398.487273 108.728474 
L 398.487273 108.728474 
" clip-path="url(#p752bf29464)" style="fill: none; stroke-dasharray: 9.6,2.4,1.5,2.4; stroke-dashoffset: 0; stroke: #008000; stroke-width: 1.5"/>
   </g>
   <g id="line2d_23">
    <path d="M 73.832727 103.961548 
L 75.464157 106.153413 
L 77.095587 117.058353 
L 78.727017 89.546093 
L 80.358447 103.687141 
L 81.989877 96.216001 
L 83.621307 77.794162 
L 85.252736 74.58502 
L 86.884166 89.318335 
L 88.515596 87.851685 
L 91.778456 84.441043 
L 93.409886 74.962058 
L 95.041316 87.86337 
L 96.672746 59.165278 
L 98.304175 86.126354 
L 99.935605 79.306951 
L 101.567035 65.319738 
L 103.198465 65.663912 
L 104.829895 79.637531 
L 106.461325 68.570336 
L 108.092755 68.072646 
L 109.724185 82.82088 
L 111.355614 76.157159 
L 112.987044 81.132086 
L 114.618474 74.332613 
L 116.249904 57.655171 
L 117.881334 74.648599 
L 119.512764 87.690608 
L 121.144194 83.095654 
L 122.775624 76.295137 
L 124.407053 84.422229 
L 126.038483 74.30257 
L 127.669913 62.050426 
L 129.301343 77.947847 
L 130.932773 62.179012 
L 132.564203 77.574881 
L 134.195633 82.883215 
L 135.827063 79.497184 
L 137.458492 66.748124 
L 139.089922 69.711067 
L 140.721352 85.910028 
L 142.352782 79.60515 
L 143.984212 74.372926 
L 145.615642 71.235795 
L 147.247072 74.5852 
L 148.878502 84.326442 
L 150.509931 84.283276 
L 152.141361 74.209093 
L 153.772791 79.460994 
L 155.404221 77.519084 
L 157.035651 79.491568 
L 158.667081 73.015434 
L 160.298511 77.891645 
L 161.929941 84.699503 
L 163.56137 74.252444 
L 165.1928 82.794828 
L 166.82423 76.333515 
L 168.45566 73.226731 
L 170.08709 81.258122 
L 171.71852 62.351797 
L 173.34995 70.11647 
L 174.98138 74.339141 
L 176.61281 74.227409 
L 178.244239 82.470504 
L 179.875669 72.759468 
L 181.507099 79.447982 
L 183.138529 87.651403 
L 184.769959 79.407854 
L 186.401389 79.690224 
L 188.032819 89.217426 
L 189.664249 76.293208 
L 191.295678 81.217701 
L 192.927108 78.080877 
L 194.558538 84.334095 
L 196.189968 62.624691 
L 197.821398 77.805545 
L 199.452828 76.150358 
L 201.084258 73.046296 
L 202.715688 79.747891 
L 204.347117 72.646066 
L 205.978547 82.685314 
L 207.609977 64.995014 
L 209.241407 85.894423 
L 210.872837 60.729688 
L 212.504267 79.76722 
L 214.135697 68.230417 
L 215.767127 78.897875 
L 217.398556 85.958697 
L 219.029986 71.366139 
L 220.661416 73.225814 
L 222.292846 89.326978 
L 223.924276 71.284334 
L 225.555706 82.818567 
L 227.187136 72.850272 
L 228.818566 66.863311 
L 230.449995 77.740523 
L 232.081425 82.161055 
L 233.712855 66.730421 
L 235.344285 77.955573 
L 236.975715 74.318452 
L 238.607145 66.929124 
L 240.238575 66.701163 
L 241.870005 78.146651 
L 243.501434 76.32021 
L 245.132864 64.1796 
L 246.764294 73.717385 
L 248.395724 77.627979 
L 250.027154 79.579728 
L 251.658584 65.339532 
L 253.290014 67.942891 
L 254.921444 66.760081 
L 256.552873 81.134163 
L 258.184303 68.369858 
L 259.815733 86.174498 
L 261.447163 79.541042 
L 263.078593 77.540172 
L 264.710023 82.617959 
L 266.341453 65.10318 
L 267.972883 65.43831 
L 269.604312 64.120333 
L 271.235742 53.747785 
L 272.867172 78.099899 
L 274.498602 74.80287 
L 276.130032 76.564256 
L 277.761462 76.016358 
L 279.392892 74.613052 
L 281.024322 74.616893 
L 282.655751 79.506708 
L 284.287181 87.768322 
L 285.918611 76.520711 
L 287.550041 73.121274 
L 289.181471 60.795005 
L 290.812901 65.423712 
L 292.444331 61.953759 
L 294.075761 87.745862 
L 295.70719 82.701331 
L 297.33862 71.9463 
L 298.97005 75.974436 
L 300.60148 79.288706 
L 302.23291 81.426604 
L 303.86434 76.147581 
L 305.49577 79.658216 
L 307.1272 87.909084 
L 308.75863 76.378061 
L 310.390059 71.81968 
L 312.021489 81.06656 
L 313.652919 77.618754 
L 315.284349 65.480523 
L 316.915779 76.13835 
L 318.547209 86.036285 
L 320.178639 68.31671 
L 321.810069 68.386068 
L 323.441498 65.115121 
L 325.072928 74.819166 
L 326.704358 76.281353 
L 328.335788 79.398843 
L 329.967218 59.368726 
L 331.598648 77.583399 
L 333.230078 71.243025 
L 334.861508 79.524773 
L 336.492937 65.676538 
L 338.124367 71.563396 
L 339.755797 71.213417 
L 341.387227 69.793946 
L 343.018657 71.282645 
L 344.650087 78.016882 
L 346.281517 69.980686 
L 347.912947 68.508663 
L 349.544376 73.15411 
L 351.175806 68.418102 
L 352.807236 84.088477 
L 354.438666 74.729052 
L 356.070096 72.914954 
L 357.701526 66.981735 
L 359.332956 62.238601 
L 360.964386 76.021036 
L 362.595815 76.269562 
L 364.227245 74.861068 
L 365.858675 81.064985 
L 367.490105 77.921222 
L 369.121535 71.842596 
L 370.752965 71.469492 
L 374.015825 84.365529 
L 375.647254 71.08791 
L 377.278684 80.648313 
L 378.910114 78.024858 
L 380.541544 79.725203 
L 382.172974 74.342416 
L 383.804404 69.910572 
L 385.435834 53.568 
L 387.067264 77.48905 
L 388.698693 73.088495 
L 390.330123 65.252425 
L 391.961553 76.002878 
L 393.592983 62.425383 
L 395.224413 87.687105 
L 396.855843 79.413208 
L 398.487273 73.158318 
L 398.487273 73.158318 
" clip-path="url(#p752bf29464)" style="fill: none; stroke: #ff0000; stroke-width: 1.5; stroke-linecap: square"/>
   </g>
   <g id="patch_3">
    <path d="M 57.6 307.584 
L 57.6 41.472 
" style="fill: none; stroke: #000000; stroke-width: 0.8; stroke-linejoin: miter; stroke-linecap: square"/>
   </g>
   <g id="patch_4">
    <path d="M 414.72 307.584 
L 414.72 41.472 
" style="fill: none; stroke: #000000; stroke-width: 0.8; stroke-linejoin: miter; stroke-linecap: square"/>
   </g>
   <g id="patch_5">
    <path d="M 57.6 307.584 
L 414.72 307.584 
" style="fill: none; stroke: #000000; stroke-width: 0.8; stroke-linejoin: miter; stroke-linecap: square"/>
   </g>
   <g id="patch_6">
    <path d="M 57.6 41.472 
L 414.72 41.472 
" style="fill: none; stroke: #000000; stroke-width: 0.8; stroke-linejoin: miter; stroke-linecap: square"/>
   </g>
   <g id="text_13">
    <!-- Population's average and best fitness -->
    <g transform="translate(123.529687 35.472) scale(0.12 -0.12)">
     <defs>
      <path id="DejaVuSans-50" d="M 1259 4147 
L 1259 2394 
L 2053 2394 
Q 2494 2394 2734 2622 
Q 2975 2850 2975 3272 
Q 2975 3691 2734 3919 
Q 2494 4147 2053 4147 
L 1259 4147 
z
M 628 4666 
L 2053 4666 
Q 2838 4666 3239 4311 
Q 3641 3956 3641 3272 
Q 3641 2581 3239 2228 
Q 2838 1875 2053 1875 
L 1259 1875 
L 1259 0 
L 628 0 
L 628 4666 
z
" transform="scale(0.015625)"/>
      <path id="DejaVuSans-70" d="M 1159 525 
L 1159 -1331 
L 581 -1331 
L 581 3500 
L 1159 3500 
L 1159 2969 
Q 1341 3281 1617 3432 
Q 1894 3584 2278 3584 
Q 2916 3584 3314 3078 
Q 3713 2572 3713 1747 
Q 3713 922 3314 415 
Q 2916 -91 2278 -91 
Q 1894 -91 1617 61 
Q 1341 213 1159 525 
z
M 3116 1747 
Q 3116 2381 2855 2742 
Q 2594 3103 2138 3103 
Q 1681 3103 1420 2742 
Q 1159 2381 1159 1747 
Q 1159 1113 1420 752 
Q 1681 391 2138 391 
Q 2594 391 2855 752 
Q 3116 1113 3116 1747 
z
" transform="scale(0.015625)"/>
      <path id="DejaVuSans-75" d="M 544 1381 
L 544 3500 
L 1119 3500 
L 1119 1403 
Q 1119 906 1312 657 
Q 1506 409 1894 409 
Q 2359 409 2629 706 
Q 2900 1003 2900 1516 
L 2900 3500 
L 3475 3500 
L 3475 0 
L 2900 0 
L 2900 538 
Q 2691 219 2414 64 
Q 2138 -91 1772 -91 
Q 1169 -91 856 284 
Q 544 659 544 1381 
z
M 1991 3584 
L 1991 3584 
z
" transform="scale(0.015625)"/>
      <path id="DejaVuSans-6c" d="M 603 4863 
L 1178 4863 
L 1178 0 
L 603 0 
L 603 4863 
z
" transform="scale(0.015625)"/>
      <path id="DejaVuSans-27" d="M 1147 4666 
L 1147 2931 
L 616 2931 
L 616 4666 
L 1147 4666 
z
" transform="scale(0.015625)"/>
      <path id="DejaVuSans-20" transform="scale(0.015625)"/>
      <path id="DejaVuSans-76" d="M 191 3500 
L 800 3500 
L 1894 563 
L 2988 3500 
L 3597 3500 
L 2284 0 
L 1503 0 
L 191 3500 
z
" transform="scale(0.015625)"/>
      <path id="DejaVuSans-67" d="M 2906 1791 
Q 2906 2416 2648 2759 
Q 2391 3103 1925 3103 
Q 1463 3103 1205 2759 
Q 947 2416 947 1791 
Q 947 1169 1205 825 
Q 1463 481 1925 481 
Q 2391 481 2648 825 
Q 2906 1169 2906 1791 
z
M 3481 434 
Q 3481 -459 3084 -895 
Q 2688 -1331 1869 -1331 
Q 1566 -1331 1297 -1286 
Q 1028 -1241 775 -1147 
L 775 -588 
Q 1028 -725 1275 -790 
Q 1522 -856 1778 -856 
Q 2344 -856 2625 -561 
Q 2906 -266 2906 331 
L 2906 616 
Q 2728 306 2450 153 
Q 2172 0 1784 0 
Q 1141 0 747 490 
Q 353 981 353 1791 
Q 353 2603 747 3093 
Q 1141 3584 1784 3584 
Q 2172 3584 2450 3431 
Q 2728 3278 2906 2969 
L 2906 3500 
L 3481 3500 
L 3481 434 
z
" transform="scale(0.015625)"/>
      <path id="DejaVuSans-64" d="M 2906 2969 
L 2906 4863 
L 3481 4863 
L 3481 0 
L 2906 0 
L 2906 525 
Q 2725 213 2448 61 
Q 2172 -91 1784 -91 
Q 1150 -91 751 415 
Q 353 922 353 1747 
Q 353 2572 751 3078 
Q 1150 3584 1784 3584 
Q 2172 3584 2448 3432 
Q 2725 3281 2906 2969 
z
M 947 1747 
Q 947 1113 1208 752 
Q 1469 391 1925 391 
Q 2381 391 2643 752 
Q 2906 1113 2906 1747 
Q 2906 2381 2643 2742 
Q 2381 3103 1925 3103 
Q 1469 3103 1208 2742 
Q 947 2381 947 1747 
z
" transform="scale(0.015625)"/>
      <path id="DejaVuSans-62" d="M 3116 1747 
Q 3116 2381 2855 2742 
Q 2594 3103 2138 3103 
Q 1681 3103 1420 2742 
Q 1159 2381 1159 1747 
Q 1159 1113 1420 752 
Q 1681 391 2138 391 
Q 2594 391 2855 752 
Q 3116 1113 3116 1747 
z
M 1159 2969 
Q 1341 3281 1617 3432 
Q 1894 3584 2278 3584 
Q 2916 3584 3314 3078 
Q 3713 2572 3713 1747 
Q 3713 922 3314 415 
Q 2916 -91 2278 -91 
Q 1894 -91 1617 61 
Q 1341 213 1159 525 
L 1159 0 
L 581 0 
L 581 4863 
L 1159 4863 
L 1159 2969 
z
" transform="scale(0.015625)"/>
      <path id="DejaVuSans-66" d="M 2375 4863 
L 2375 4384 
L 1825 4384 
Q 1516 4384 1395 4259 
Q 1275 4134 1275 3809 
L 1275 3500 
L 2222 3500 
L 2222 3053 
L 1275 3053 
L 1275 0 
L 697 0 
L 697 3053 
L 147 3053 
L 147 3500 
L 697 3500 
L 697 3744 
Q 697 4328 969 4595 
Q 1241 4863 1831 4863 
L 2375 4863 
z
" transform="scale(0.015625)"/>
     </defs>
     <use xlink:href="#DejaVuSans-50"/>
     <use xlink:href="#DejaVuSans-6f" transform="translate(56.677734 0)"/>
     <use xlink:href="#DejaVuSans-70" transform="translate(117.859375 0)"/>
     <use xlink:href="#DejaVuSans-75" transform="translate(181.335938 0)"/>
     <use xlink:href="#DejaVuSans-6c" transform="translate(244.714844 0)"/>
     <use xlink:href="#DejaVuSans-61" transform="translate(272.498047 0)"/>
     <use xlink:href="#DejaVuSans-74" transform="translate(333.777344 0)"/>
     <use xlink:href="#DejaVuSans-69" transform="translate(372.986328 0)"/>
     <use xlink:href="#DejaVuSans-6f" transform="translate(400.769531 0)"/>
     <use xlink:href="#DejaVuSans-6e" transform="translate(461.951172 0)"/>
     <use xlink:href="#DejaVuSans-27" transform="translate(525.330078 0)"/>
     <use xlink:href="#DejaVuSans-73" transform="translate(552.820312 0)"/>
     <use xlink:href="#DejaVuSans-20" transform="translate(604.919922 0)"/>
     <use xlink:href="#DejaVuSans-61" transform="translate(636.707031 0)"/>
     <use xlink:href="#DejaVuSans-76" transform="translate(697.986328 0)"/>
     <use xlink:href="#DejaVuSans-65" transform="translate(757.166016 0)"/>
     <use xlink:href="#DejaVuSans-72" transform="translate(818.689453 0)"/>
     <use xlink:href="#DejaVuSans-61" transform="translate(859.802734 0)"/>
     <use xlink:href="#DejaVuSans-67" transform="translate(921.082031 0)"/>
     <use xlink:href="#DejaVuSans-65" transform="translate(984.558594 0)"/>
     <use xlink:href="#DejaVuSans-20" transform="translate(1046.082031 0)"/>
     <use xlink:href="#DejaVuSans-61" transform="translate(1077.869141 0)"/>
     <use xlink:href="#DejaVuSans-6e" transform="translate(1139.148438 0)"/>
     <use xlink:href="#DejaVuSans-64" transform="translate(1202.527344 0)"/>
     <use xlink:href="#DejaVuSans-20" transform="translate(1266.003906 0)"/>
     <use xlink:href="#DejaVuSans-62" transform="translate(1297.791016 0)"/>
     <use xlink:href="#DejaVuSans-65" transform="translate(1361.267578 0)"/>
     <use xlink:href="#DejaVuSans-73" transform="translate(1422.791016 0)"/>
     <use xlink:href="#DejaVuSans-74" transform="translate(1474.890625 0)"/>
     <use xlink:href="#DejaVuSans-20" transform="translate(1514.099609 0)"/>
     <use xlink:href="#DejaVuSans-66" transform="translate(1545.886719 0)"/>
     <use xlink:href="#DejaVuSans-69" transform="translate(1581.091797 0)"/>
     <use xlink:href="#DejaVuSans-74" transform="translate(1608.875 0)"/>
     <use xlink:href="#DejaVuSans-6e" transform="translate(1648.083984 0)"/>
     <use xlink:href="#DejaVuSans-65" transform="translate(1711.462891 0)"/>
     <use xlink:href="#DejaVuSans-73" transform="translate(1772.986328 0)"/>
     <use xlink:href="#DejaVuSans-73" transform="translate(1825.085938 0)"/>
    </g>
   </g>
   <g id="legend_1">
    <g id="patch_7">
     <path d="M 334.779375 302.584 
L 407.72 302.584 
Q 409.72 302.584 409.72 300.584 
L 409.72 257.549625 
Q 409.72 255.549625 407.72 255.549625 
L 334.779375 255.549625 
Q 332.779375 255.549625 332.779375 257.549625 
L 332.779375 300.584 
Q 332.779375 302.584 334.779375 302.584 
z
" style="fill: #ffffff; opacity: 0.8; stroke: #cccccc; stroke-linejoin: miter"/>
    </g>
    <g id="line2d_24">
     <path d="M 336.779375 263.648062 
L 346.779375 263.648062 
L 356.779375 263.648062 
" style="fill: none; stroke: #0000ff; stroke-width: 1.5; stroke-linecap: square"/>
    </g>
    <g id="text_14">
     <!-- average -->
     <g transform="translate(364.779375 267.148062) scale(0.1 -0.1)">
      <use xlink:href="#DejaVuSans-61"/>
      <use xlink:href="#DejaVuSans-76" transform="translate(61.279297 0)"/>
      <use xlink:href="#DejaVuSans-65" transform="translate(120.458984 0)"/>
      <use xlink:href="#DejaVuSans-72" transform="translate(181.982422 0)"/>
      <use xlink:href="#DejaVuSans-61" transform="translate(223.095703 0)"/>
      <use xlink:href="#DejaVuSans-67" transform="translate(284.375 0)"/>
      <use xlink:href="#DejaVuSans-65" transform="translate(347.851562 0)"/>
     </g>
    </g>
    <g id="line2d_25">
     <path d="M 336.779375 278.326188 
L 346.779375 278.326188 
L 356.779375 278.326188 
" style="fill: none; stroke-dasharray: 9.6,2.4,1.5,2.4; stroke-dashoffset: 0; stroke: #008000; stroke-width: 1.5"/>
    </g>
    <g id="text_15">
     <!-- +1 sd -->
     <g transform="translate(364.779375 281.826188) scale(0.1 -0.1)">
      <defs>
       <path id="DejaVuSans-2b" d="M 2944 4013 
L 2944 2272 
L 4684 2272 
L 4684 1741 
L 2944 1741 
L 2944 0 
L 2419 0 
L 2419 1741 
L 678 1741 
L 678 2272 
L 2419 2272 
L 2419 4013 
L 2944 4013 
z
" transform="scale(0.015625)"/>
      </defs>
      <use xlink:href="#DejaVuSans-2b"/>
      <use xlink:href="#DejaVuSans-31" transform="translate(83.789062 0)"/>
      <use xlink:href="#DejaVuSans-20" transform="translate(147.412109 0)"/>
      <use xlink:href="#DejaVuSans-73" transform="translate(179.199219 0)"/>
      <use xlink:href="#DejaVuSans-64" transform="translate(231.298828 0)"/>
     </g>
    </g>
    <g id="line2d_26">
     <path d="M 336.779375 293.004312 
L 346.779375 293.004312 
L 356.779375 293.004312 
" style="fill: none; stroke: #ff0000; stroke-width: 1.5; stroke-linecap: square"/>
    </g>
    <g id="text_16">
     <!-- best -->
     <g transform="translate(364.779375 296.504312) scale(0.1 -0.1)">
      <use xlink:href="#DejaVuSans-62"/>
      <use xlink:href="#DejaVuSans-65" transform="translate(63.476562 0)"/>
      <use xlink:href="#DejaVuSans-73" transform="translate(125 0)"/>
      <use xlink:href="#DejaVuSans-74" transform="translate(177.099609 0)"/>
     </g>
    </g>
   </g>
  </g>
 </g>
 <defs>
  <clipPath id="p752bf29464">
   <rect x="57.6" y="41.472" width="357.12" height="266.112"/>
  </clipPath>
 </defs>
</svg>
