<?xml version="1.0" encoding="utf-8" standalone="no"?>
<!DOCTYPE svg PUBLIC "-//W3C//DTD SVG 1.1//EN"
  "http://www.w3.org/Graphics/SVG/1.1/DTD/svg11.dtd">
<svg xmlns:xlink="http://www.w3.org/1999/xlink" width="460.8pt" height="345.6pt" viewBox="0 0 460.8 345.6" xmlns="http://www.w3.org/2000/svg" version="1.1">
 <metadata>
  <rdf:RDF xmlns:dc="http://purl.org/dc/elements/1.1/" xmlns:cc="http://creativecommons.org/ns#" xmlns:rdf="http://www.w3.org/1999/02/22-rdf-syntax-ns#">
   <cc:Work>
    <dc:type rdf:resource="http://purl.org/dc/dcmitype/StillImage"/>
    <dc:date>2026-04-23T15:17:44.988017</dc:date>
    <dc:format>image/svg+xml</dc:format>
    <dc:creator>
     <cc:Agent>
      <dc:title>Matplotlib v3.10.8, https://matplotlib.org/</dc:title>
     </cc:Agent>
    </dc:creator>
   </cc:Work>
  </rdf:RDF>
 </metadata>
 <defs>
  <style type="text/css">*{stroke-linejoin: round; stroke-linecap: butt}</style>
 </defs>
 <g id="figure_1">
  <g id="patch_1">
   <path d="M 0 345.6 
L 460.8 345.6 
L 460.8 0 
L 0 0 
z
" style="fill: #ffffff"/>
  </g>
  <g id="axes_1">
   <g id="patch_2">
    <path d="M 57.6 307.584 
L 414.72 307.584 
L 414.72 41.472 
L 57.6 41.472 
z
" style="fill: #ffffff"/>
   </g>
   <g id="matplotlib.axis_1">
    <g id="xtick_1">
     <g id="line2d_1">
      <path d="M 73.832727 307.584 
L 73.832727 41.472 
" clip-path="url(#pc4a565a430)" style="fill: none; stroke: #b0b0b0; stroke-width: 0.8; stroke-linecap: square"/>
     </g>
     <g id="line2d_2">
      <defs>
       <path id="m7dd0ebba14" d="M 0 0 
L 0 3.5 
" style="stroke: #000000; stroke-width: 0.8"/>
      </defs>
      <g>
       <use xlink:href="#m7dd0ebba14" x="73.832727" y="307.584" style="stroke: #000000; stroke-width: 0.8"/>
      </g>
     </g>
     <g id="text_1">
      <!-- 0 -->
      <g transform="translate(70.651477 322.182437) scale(0.1 -0.1)">
       <defs>
        <path id="DejaVuSans-30" d="M 2034 4250 
Q 1547 4250 1301 3770 
Q 1056 3291 1056 2328 
Q 1056 1369 1301 889 
Q 1547 409 2034 409 
Q 2525 409 2770 889 
Q 3016 1369 3016 2328 
Q 3016 3291 2770 3770 
Q 2525 4250 2034 4250 
z
M 2034 4750 
Q 2819 4750 3233 4129 
Q 3647 3509 3647 2328 
Q 3647 1150 3233 529 
Q 2819 -91 2034 -91 
Q 1250 -91 836 529 
Q 422 1150 422 2328 
Q 422 3509 836 4129 
Q 1250 4750 2034 4750 
z
" transform="scale(0.015625)"/>
       </defs>
       <use xlink:href="#DejaVuSans-30"/>
      </g>
     </g>
    </g>
    <g id="xtick_2">
     <g id="line2d_3">
      <path d="M 114.618474 307.584 
L 114.618474 41.472 
" clip-path="url(#pc4a565a430)" style="fill: none; stroke: #b0b0b0; stroke-width: 0.8; stroke-linecap: square"/>
     </g>
     <g id="line2d_4">
      <g>
       <use xlink:href="#m7dd0ebba14" x="114.618474" y="307.584" style="stroke: #000000; stroke-width: 0.8"/>
      </g>
     </g>
     <g id="text_2">
      <!-- 25 -->
      <g transform="translate(108.255974 322.182437) scale(0.1 -0.1)">
       <defs>
        <path id="DejaVuSans-32" d="M 1228 531 
L 3431 531 
L 3431 0 
L 469 0 
L 469 531 
Q 828 903 1448 1529 
Q 2069 2156 2228 2338 
Q 2531 2678 2651 2914 
Q 2772 3150 2772 3378 
Q 2772 3750 2511 3984 
Q 2250 4219 1831 4219 
Q 1534 4219 1204 4116 
Q 875 4013 500 3803 
L 500 4441 
Q 881 4594 1212 4672 
Q 1544 4750 1819 4750 
Q 2544 4750 2975 4387 
Q 3406 4025 3406 3419 
Q 3406 3131 3298 2873 
Q 3191 2616 2906 2266 
Q 2828 2175 2409 1742 
Q 1991 1309 1228 531 
z
" transform="scale(0.015625)"/>
        <path id="DejaVuSans-35" d="M 691 4666 
L 3169 4666 
L 3169 4134 
L 1269 4134 
L 1269 2991 
Q 1406 3038 1543 3061 
Q 1681 3084 1819 3084 
Q 2600 3084 3056 2656 
Q 3513 2228 3513 1497 
Q 3513 744 3044 326 
Q 2575 -91 1722 -91 
Q 1428 -91 1123 -41 
Q 819 9 494 109 
L 494 744 
Q 775 591 1075 516 
Q 1375 441 1709 441 
Q 2250 441 2565 725 
Q 2881 1009 2881 1497 
Q 2881 1984 2565 2268 
Q 2250 2553 1709 2553 
Q 1456 2553 1204 2497 
Q 953 2441 691 2322 
L 691 4666 
z
" transform="scale(0.015625)"/>
       </defs>
       <use xlink:href="#DejaVuSans-32"/>
       <use xlink:href="#DejaVuSans-35" transform="translate(63.623047 0)"/>
      </g>
     </g>
    </g>
    <g id="xtick_3">
     <g id="line2d_5">
      <path d="M 155.404221 307.584 
L 155.404221 41.472 
" clip-path="url(#pc4a565a430)" style="fill: none; stroke: #b0b0b0; stroke-width: 0.8; stroke-linecap: square"/>
     </g>
     <g id="line2d_6">
      <g>
       <use xlink:href="#m7dd0ebba14" x="155.404221" y="307.584" style="stroke: #000000; stroke-width: 0.8"/>
      </g>
     </g>
     <g id="text_3">
      <!-- 50 -->
      <g transform="translate(149.041721 322.182437) scale(0.1 -0.1)">
       <use xlink:href="#DejaVuSans-35"/>
       <use xlink:href="#DejaVuSans-30" transform="translate(63.623047 0)"/>
      </g>
     </g>
    </g>
    <g id="xtick_4">
     <g id="line2d_7">
      <path d="M 196.189968 307.584 
L 196.189968 41.472 
" clip-path="url(#pc4a565a430)" style="fill: none; stroke: #b0b0b0; stroke-width: 0.8; stroke-linecap: square"/>
     </g>
     <g id="line2d_8">
      <g>
       <use xlink:href="#m7dd0ebba14" x="196.189968" y="307.584" style="stroke: #000000; stroke-width: 0.8"/>
      </g>
     </g>
     <g id="text_4">
      <!-- 75 -->
      <g transform="translate(189.827468 322.182437) scale(0.1 -0.1)">
       <defs>
        <path id="DejaVuSans-37" d="M 525 4666 
L 3525 4666 
L 3525 4397 
L 1831 0 
L 1172 0 
L 2766 4134 
L 525 4134 
L 525 4666 
z
" transform="scale(0.015625)"/>
       </defs>
       <use xlink:href="#DejaVuSans-37"/>
       <use xlink:href="#DejaVuSans-35" transform="translate(63.623047 0)"/>
      </g>
     </g>
    </g>
    <g id="xtick_5">
     <g id="line2d_9">
      <path d="M 236.975715 307.584 
L 236.975715 41.472 
" clip-path="url(#pc4a565a430)" style="fill: none; stroke: #b0b0b0; stroke-width: 0.8; stroke-linecap: square"/>
     </g>
     <g id="line2d_10">
      <g>
       <use xlink:href="#m7dd0ebba14" x="236.975715" y="307.584" style="stroke: #000000; stroke-width: 0.8"/>
      </g>
     </g>
     <g id="text_5">
      <!-- 100 -->
      <g transform="translate(227.431965 322.182437) scale(0.1 -0.1)">
       <defs>
        <path id="DejaVuSans-31" d="M 794 531 
L 1825 531 
L 1825 4091 
L 703 3866 
L 703 4441 
L 1819 4666 
L 2450 4666 
L 2450 531 
L 3481 531 
L 3481 0 
L 794 0 
L 794 531 
z
" transform="scale(0.015625)"/>
       </defs>
       <use xlink:href="#DejaVuSans-31"/>
       <use xlink:href="#DejaVuSans-30" transform="translate(63.623047 0)"/>
       <use xlink:href="#DejaVuSans-30" transform="translate(127.246094 0)"/>
      </g>
     </g>
    </g>
    <g id="xtick_6">
     <g id="line2d_11">
      <path d="M 277.761462 307.584 
L 277.761462 41.472 
" clip-path="url(#pc4a565a430)" style="fill: none; stroke: #b0b0b0; stroke-width: 0.8; stroke-linecap: square"/>
     </g>
     <g id="line2d_12">
      <g>
       <use xlink:href="#m7dd0ebba14" x="277.761462" y="307.584" style="stroke: #000000; stroke-width: 0.8"/>
      </g>
     </g>
     <g id="text_6">
      <!-- 125 -->
      <g transform="translate(268.217712 322.182437) scale(0.1 -0.1)">
       <use xlink:href="#DejaVuSans-31"/>
       <use xlink:href="#DejaVuSans-32" transform="translate(63.623047 0)"/>
       <use xlink:href="#DejaVuSans-35" transform="translate(127.246094 0)"/>
      </g>
     </g>
    </g>
    <g id="xtick_7">
     <g id="line2d_13">
      <path d="M 318.547209 307.584 
L 318.547209 41.472 
" clip-path="url(#pc4a565a430)" style="fill: none; stroke: #b0b0b0; stroke-width: 0.8; stroke-linecap: square"/>
     </g>
     <g id="line2d_14">
      <g>
       <use xlink:href="#m7dd0ebba14" x="318.547209" y="307.584" style="stroke: #000000; stroke-width: 0.8"/>
      </g>
     </g>
     <g id="text_7">
      <!-- 150 -->
      <g transform="translate(309.003459 322.182437) scale(0.1 -0.1)">
       <use xlink:href="#DejaVuSans-31"/>
       <use xlink:href="#DejaVuSans-35" transform="translate(63.623047 0)"/>
       <use xlink:href="#DejaVuSans-30" transform="translate(127.246094 0)"/>
      </g>
     </g>
    </g>
    <g id="xtick_8">
     <g id="line2d_15">
      <path d="M 359.332956 307.584 
L 359.332956 41.472 
" clip-path="url(#pc4a565a430)" style="fill: none; stroke: #b0b0b0; stroke-width: 0.8; stroke-linecap: square"/>
     </g>
     <g id="line2d_16">
      <g>
       <use xlink:href="#m7dd0ebba14" x="359.332956" y="307.584" style="stroke: #000000; stroke-width: 0.8"/>
      </g>
     </g>
     <g id="text_8">
      <!-- 175 -->
      <g transform="translate(349.789206 322.182437) scale(0.1 -0.1)">
       <use xlink:href="#DejaVuSans-31"/>
       <use xlink:href="#DejaVuSans-37" transform="translate(63.623047 0)"/>
       <use xlink:href="#DejaVuSans-35" transform="translate(127.246094 0)"/>
      </g>
     </g>
    </g>
    <g id="xtick_9">
     <g id="line2d_17">
      <path d="M 400.118703 307.584 
L 400.118703 41.472 
" clip-path="url(#pc4a565a430)" style="fill: none; stroke: #b0b0b0; stroke-width: 0.8; stroke-linecap: square"/>
     </g>
     <g id="line2d_18">
      <g>
       <use xlink:href="#m7dd0ebba14" x="400.118703" y="307.584" style="stroke: #000000; stroke-width: 0.8"/>
      </g>
     </g>
     <g id="text_9">
      <!-- 200 -->
      <g transform="translate(390.574953 322.182437) scale(0.1 -0.1)">
       <use xlink:href="#DejaVuSans-32"/>
       <use xlink:href="#DejaVuSans-30" transform="translate(63.623047 0)"/>
       <use xlink:href="#DejaVuSans-30" transform="translate(127.246094 0)"/>
      </g>
     </g>
    </g>
    <g id="text_10">
     <!-- Generations -->
     <g transform="translate(205.662344 335.860562) scale(0.1 -0.1)">
      <defs>
       <path id="DejaVuSans-47" d="M 3809 666 
L 3809 1919 
L 2778 1919 
L 2778 2438 
L 4434 2438 
L 4434 434 
Q 4069 175 3628 42 
Q 3188 -91 2688 -91 
Q 1594 -91 976 548 
Q 359 1188 359 2328 
Q 359 3472 976 4111 
Q 1594 4750 2688 4750 
Q 3144 4750 3555 4637 
Q 3966 4525 4313 4306 
L 4313 3634 
Q 3963 3931 3569 4081 
Q 3175 4231 2741 4231 
Q 1884 4231 1454 3753 
Q 1025 3275 1025 2328 
Q 1025 1384 1454 906 
Q 1884 428 2741 428 
Q 3075 428 3337 486 
Q 3600 544 3809 666 
z
" transform="scale(0.015625)"/>
       <path id="DejaVuSans-65" d="M 3597 1894 
L 3597 1613 
L 953 1613 
Q 991 1019 1311 708 
Q 1631 397 2203 397 
Q 2534 397 2845 478 
Q 3156 559 3463 722 
L 3463 178 
Q 3153 47 2828 -22 
Q 2503 -91 2169 -91 
Q 1331 -91 842 396 
Q 353 884 353 1716 
Q 353 2575 817 3079 
Q 1281 3584 2069 3584 
Q 2775 3584 3186 3129 
Q 3597 2675 3597 1894 
z
M 3022 2063 
Q 3016 2534 2758 2815 
Q 2500 3097 2075 3097 
Q 1594 3097 1305 2825 
Q 1016 2553 972 2059 
L 3022 2063 
z
" transform="scale(0.015625)"/>
       <path id="DejaVuSans-6e" d="M 3513 2113 
L 3513 0 
L 2938 0 
L 2938 2094 
Q 2938 2591 2744 2837 
Q 2550 3084 2163 3084 
Q 1697 3084 1428 2787 
Q 1159 2491 1159 1978 
L 1159 0 
L 581 0 
L 581 3500 
L 1159 3500 
L 1159 2956 
Q 1366 3272 1645 3428 
Q 1925 3584 2291 3584 
Q 2894 3584 3203 3211 
Q 3513 2838 3513 2113 
z
" transform="scale(0.015625)"/>
       <path id="DejaVuSans-72" d="M 2631 2963 
Q 2534 3019 2420 3045 
Q 2306 3072 2169 3072 
Q 1681 3072 1420 2755 
Q 1159 2438 1159 1844 
L 1159 0 
L 581 0 
L 581 3500 
L 1159 3500 
L 1159 2956 
Q 1341 3275 1631 3429 
Q 1922 3584 2338 3584 
Q 2397 3584 2469 3576 
Q 2541 3569 2628 3553 
L 2631 2963 
z
" transform="scale(0.015625)"/>
       <path id="DejaVuSans-61" d="M 2194 1759 
Q 1497 1759 1228 1600 
Q 959 1441 959 1056 
Q 959 750 1161 570 
Q 1363 391 1709 391 
Q 2188 391 2477 730 
Q 2766 1069 2766 1631 
L 2766 1759 
L 2194 1759 
z
M 3341 1997 
L 3341 0 
L 2766 0 
L 2766 531 
Q 2569 213 2275 61 
Q 1981 -91 1556 -91 
Q 1019 -91 701 211 
Q 384 513 384 1019 
Q 384 1609 779 1909 
Q 1175 2209 1959 2209 
L 2766 2209 
L 2766 2266 
Q 2766 2663 2505 2880 
Q 2244 3097 1772 3097 
Q 1472 3097 1187 3025 
Q 903 2953 641 2809 
L 641 3341 
Q 956 3463 1253 3523 
Q 1550 3584 1831 3584 
Q 2591 3584 2966 3190 
Q 3341 2797 3341 1997 
z
" transform="scale(0.015625)"/>
       <path id="DejaVuSans-74" d="M 1172 4494 
L 1172 3500 
L 2356 3500 
L 2356 3053 
L 1172 3053 
L 1172 1153 
Q 1172 725 1289 603 
Q 1406 481 1766 481 
L 2356 481 
L 2356 0 
L 1766 0 
Q 1100 0 847 248 
Q 594 497 594 1153 
L 594 3053 
L 172 3053 
L 172 3500 
L 594 3500 
L 594 4494 
L 1172 4494 
z
" transform="scale(0.015625)"/>
       <path id="DejaVuSans-69" d="M 603 3500 
L 1178 3500 
L 1178 0 
L 603 0 
L 603 3500 
z
M 603 4863 
L 1178 4863 
L 1178 4134 
L 603 4134 
L 603 4863 
z
" transform="scale(0.015625)"/>
       <path id="DejaVuSans-6f" d="M 1959 3097 
Q 1497 3097 1228 2736 
Q 959 2375 959 1747 
Q 959 1119 1226 758 
Q 1494 397 1959 397 
Q 2419 397 2687 759 
Q 2956 1122 2956 1747 
Q 2956 2369 2687 2733 
Q 2419 3097 1959 3097 
z
M 1959 3584 
Q 2709 3584 3137 3096 
Q 3566 2609 3566 1747 
Q 3566 888 3137 398 
Q 2709 -91 1959 -91 
Q 1206 -91 779 398 
Q 353 888 353 1747 
Q 353 2609 779 3096 
Q 1206 3584 1959 3584 
z
" transform="scale(0.015625)"/>
       <path id="DejaVuSans-73" d="M 2834 3397 
L 2834 2853 
Q 2591 2978 2328 3040 
Q 2066 3103 1784 3103 
Q 1356 3103 1142 2972 
Q 928 2841 928 2578 
Q 928 2378 1081 2264 
Q 1234 2150 1697 2047 
L 1894 2003 
Q 2506 1872 2764 1633 
Q 3022 1394 3022 966 
Q 3022 478 2636 193 
Q 2250 -91 1575 -91 
Q 1294 -91 989 -36 
Q 684 19 347 128 
L 347 722 
Q 666 556 975 473 
Q 1284 391 1588 391 
Q 1994 391 2212 530 
Q 2431 669 2431 922 
Q 2431 1156 2273 1281 
Q 2116 1406 1581 1522 
L 1381 1569 
Q 847 1681 609 1914 
Q 372 2147 372 2553 
Q 372 3047 722 3315 
Q 1072 3584 1716 3584 
Q 2034 3584 2315 3537 
Q 2597 3491 2834 3397 
z
" transform="scale(0.015625)"/>
      </defs>
      <use xlink:href="#DejaVuSans-47"/>
      <use xlink:href="#DejaVuSans-65" transform="translate(77.490234 0)"/>
      <use xlink:href="#DejaVuSans-6e" transform="translate(139.013672 0)"/>
      <use xlink:href="#DejaVuSans-65" transform="translate(202.392578 0)"/>
      <use xlink:href="#DejaVuSans-72" transform="translate(263.916016 0)"/>
      <use xlink:href="#DejaVuSans-61" transform="translate(305.029297 0)"/>
      <use xlink:href="#DejaVuSans-74" transform="translate(366.308594 0)"/>
      <use xlink:href="#DejaVuSans-69" transform="translate(405.517578 0)"/>
      <use xlink:href="#DejaVuSans-6f" transform="translate(433.300781 0)"/>
      <use xlink:href="#DejaVuSans-6e" transform="translate(494.482422 0)"/>
      <use xlink:href="#DejaVuSans-73" transform="translate(557.861328 0)"/>
     </g>
    </g>
   </g>
   <g id="matplotlib.axis_2">
    <g id="ytick_1">
     <g id="line2d_19">
      <path d="M 57.6 115.647474 
L 414.72 115.647474 
" clip-path="url(#pc4a565a430)" style="fill: none; stroke: #b0b0b0; stroke-width: 0.8; stroke-linecap: square"/>
     </g>
     <g id="line2d_20">
      <defs>
       <path id="m9d341d461f" d="M 0 0 
L -3.5 0 
" style="stroke: #000000; stroke-width: 0.8"/>
      </defs>
      <g>
       <use xlink:href="#m9d341d461f" x="57.6" y="115.647474" style="stroke: #000000; stroke-width: 0.8"/>
      </g>
     </g>
     <g id="text_11">
      <!-- $\mathdefault{10^{2}}$ -->
      <g transform="translate(33 119.446693) scale(0.1 -0.1)">
       <use xlink:href="#DejaVuSans-31" transform="translate(0 0.765625)"/>
       <use xlink:href="#DejaVuSans-30" transform="translate(63.623047 0.765625)"/>
       <use xlink:href="#DejaVuSans-32" transform="translate(128.203125 39.046875) scale(0.7)"/>
      </g>
     </g>
    </g>
    <g id="text_12">
     <!-- Fitness -->
     <g transform="translate(26.920312 191.845187) rotate(-90) scale(0.1 -0.1)">
      <defs>
       <path id="DejaVuSans-46" d="M 628 4666 
L 3309 4666 
L 3309 4134 
L 1259 4134 
L 1259 2759 
L 3109 2759 
L 3109 2228 
L 1259 2228 
L 1259 0 
L 628 0 
L 628 4666 
z
" transform="scale(0.015625)"/>
      </defs>
      <use xlink:href="#DejaVuSans-46"/>
      <use xlink:href="#DejaVuSans-69" transform="translate(50.269531 0)"/>
      <use xlink:href="#DejaVuSans-74" transform="translate(78.052734 0)"/>
      <use xlink:href="#DejaVuSans-6e" transform="translate(117.261719 0)"/>
      <use xlink:href="#DejaVuSans-65" transform="translate(180.640625 0)"/>
      <use xlink:href="#DejaVuSans-73" transform="translate(242.164062 0)"/>
      <use xlink:href="#DejaVuSans-73" transform="translate(294.263672 0)"/>
     </g>
    </g>
   </g>
   <g id="line2d_21">
    <path d="M 73.832727 295.488 
L 75.464157 232.406972 
L 77.095587 190.863468 
L 78.727017 177.712634 
L 80.358447 171.243786 
L 81.989877 160.81723 
L 83.621307 151.657206 
L 85.252736 145.472533 
L 86.884166 145.266788 
L 88.515596 146.658119 
L 90.147026 145.698026 
L 91.778456 146.212022 
L 93.409886 141.338766 
L 95.041316 140.309561 
L 96.672746 142.261204 
L 98.304175 142.191079 
L 99.935605 141.602243 
L 101.567035 140.443778 
L 103.198465 141.943717 
L 104.829895 138.693159 
L 106.461325 141.99119 
L 108.092755 134.284014 
L 109.724185 136.877871 
L 111.355614 132.978351 
L 112.987044 133.770004 
L 114.618474 134.370918 
L 116.249904 134.301068 
L 117.881334 134.370899 
L 119.512764 134.856381 
L 121.144194 134.659977 
L 122.775624 136.685917 
L 124.407053 134.249759 
L 126.038483 132.873871 
L 127.669913 133.315147 
L 129.301343 135.337269 
L 130.932773 136.219603 
L 132.564203 134.903529 
L 134.195633 136.428135 
L 135.827063 137.112346 
L 137.458492 132.886953 
L 139.089922 135.124421 
L 140.721352 135.058546 
L 142.352782 134.188371 
L 143.984212 133.853702 
L 145.615642 134.354434 
L 147.247072 130.522171 
L 148.878502 132.862987 
L 150.509931 130.924369 
L 152.141361 132.387883 
L 153.772791 132.54801 
L 155.404221 131.405884 
L 157.035651 130.749986 
L 158.667081 133.482415 
L 160.298511 130.323947 
L 161.929941 131.490617 
L 163.56137 130.384045 
L 165.1928 132.181542 
L 166.82423 129.53195 
L 168.45566 131.512481 
L 170.08709 132.318248 
L 171.71852 133.669089 
L 173.34995 132.480529 
L 174.98138 132.241013 
L 176.61281 132.183233 
L 178.244239 133.100549 
L 179.875669 130.544894 
L 181.507099 131.984604 
L 183.138529 131.493665 
L 184.769959 131.495307 
L 186.401389 132.55489 
L 188.032819 131.593992 
L 189.664249 132.221457 
L 191.295678 130.602331 
L 192.927108 131.309565 
L 194.558538 132.477715 
L 197.821398 131.065988 
L 199.452828 131.676818 
L 201.084258 130.639971 
L 202.715688 131.979677 
L 204.347117 130.414516 
L 205.978547 129.62505 
L 207.609977 131.088702 
L 209.241407 130.641305 
L 210.872837 129.485953 
L 212.504267 130.090427 
L 215.767127 131.888609 
L 219.029986 130.455259 
L 220.661416 130.493612 
L 222.292846 131.22518 
L 223.924276 132.630256 
L 225.555706 131.007914 
L 227.187136 132.272324 
L 228.818566 129.755393 
L 230.449995 130.363797 
L 232.081425 132.465346 
L 233.712855 130.079609 
L 235.344285 129.488091 
L 236.975715 130.782088 
L 238.607145 130.649809 
L 240.238575 129.983052 
L 241.870005 132.06296 
L 243.501434 130.878274 
L 245.132864 130.55841 
L 246.764294 131.757378 
L 248.395724 130.935475 
L 250.027154 130.982693 
L 251.658584 130.557358 
L 253.290014 130.594646 
L 256.552873 130.23589 
L 258.184303 130.731083 
L 261.447163 129.860532 
L 263.078593 131.693787 
L 264.710023 131.554377 
L 266.341453 130.125023 
L 267.972883 130.532912 
L 269.604312 131.648202 
L 271.235742 130.196062 
L 272.867172 130.323816 
L 274.498602 132.961964 
L 276.130032 130.402157 
L 277.761462 130.367749 
L 279.392892 129.718937 
L 281.024322 130.215498 
L 282.655751 131.186266 
L 284.287181 129.846868 
L 285.918611 129.898466 
L 287.550041 130.147948 
L 289.181471 129.538914 
L 290.812901 130.26371 
L 292.444331 129.664905 
L 294.075761 130.793571 
L 295.70719 131.310979 
L 297.33862 130.017088 
L 298.97005 129.72541 
L 300.60148 130.77321 
L 302.23291 129.925814 
L 303.86434 132.395032 
L 305.49577 130.707117 
L 307.1272 130.427262 
L 308.75863 129.635999 
L 310.390059 130.458985 
L 312.021489 130.841082 
L 313.652919 129.685523 
L 315.284349 129.267937 
L 316.915779 131.590915 
L 318.547209 130.066484 
L 320.178639 130.116678 
L 321.810069 129.484378 
L 323.441498 130.898039 
L 325.072928 130.529984 
L 326.704358 129.158784 
L 328.335788 131.083185 
L 329.967218 129.688099 
L 331.598648 129.880881 
L 333.230078 130.343985 
L 334.861508 131.088691 
L 336.492937 130.770458 
L 338.124367 131.295829 
L 339.755797 132.169449 
L 341.387227 131.347225 
L 343.018657 130.773655 
L 344.650087 129.897599 
L 346.281517 130.842796 
L 347.912947 130.602562 
L 349.544376 131.301796 
L 351.175806 130.803316 
L 352.807236 128.046877 
L 354.438666 131.879343 
L 356.070096 129.920804 
L 357.701526 134.424885 
L 359.332956 132.906144 
L 360.964386 132.314517 
L 362.595815 132.769068 
L 364.227245 132.465121 
L 365.858675 129.345025 
L 367.490105 129.902209 
L 369.121535 131.4698 
L 370.752965 131.752802 
L 372.384395 131.88293 
L 374.015825 129.112156 
L 375.647254 130.569354 
L 377.278684 131.400605 
L 380.541544 132.48861 
L 382.172974 130.500389 
L 383.804404 130.849397 
L 385.435834 130.788755 
L 387.067264 131.86385 
L 388.698693 130.968416 
L 390.330123 132.146199 
L 391.961553 131.344624 
L 393.592983 133.011842 
L 395.224413 129.955756 
L 396.855843 132.346819 
L 398.487273 132.790224 
L 398.487273 132.790224 
" clip-path="url(#pc4a565a430)" style="fill: none; stroke: #0000ff; stroke-width: 1.5; stroke-linecap: square"/>
   </g>
   <g id="line2d_22">
    <path d="M 73.832727 238.598735 
L 75.464157 174.149624 
L 77.095587 138.468656 
L 78.727017 129.575606 
L 80.358447 128.535011 
L 81.989877 129.838225 
L 83.621307 128.146683 
L 85.252736 124.95397 
L 86.884166 125.174909 
L 88.515596 126.517939 
L 90.147026 125.156775 
L 91.778456 127.684962 
L 93.409886 124.340852 
L 95.041316 123.052485 
L 96.672746 126.330317 
L 98.304175 121.882757 
L 99.935605 121.776994 
L 101.567035 121.87249 
L 103.198465 122.482555 
L 104.829895 117.546957 
L 106.461325 114.844247 
L 108.092755 117.697584 
L 109.724185 118.070991 
L 111.355614 115.301755 
L 112.987044 118.193036 
L 114.618474 115.492196 
L 116.249904 115.486077 
L 117.881334 117.412104 
L 119.512764 117.055882 
L 121.144194 117.413969 
L 122.775624 118.244572 
L 124.407053 114.700484 
L 126.038483 114.897735 
L 127.669913 114.304491 
L 129.301343 117.616122 
L 130.932773 118.826518 
L 132.564203 117.982186 
L 134.195633 116.199648 
L 135.827063 115.844932 
L 137.458492 116.829174 
L 139.089922 116.87928 
L 140.721352 118.888366 
L 142.352782 117.382191 
L 143.984212 116.745662 
L 145.615642 117.311398 
L 147.247072 113.254922 
L 150.509931 113.768657 
L 152.141361 115.473993 
L 153.772791 116.470547 
L 155.404221 115.886647 
L 157.035651 112.719422 
L 158.667081 117.64738 
L 160.298511 113.724742 
L 161.929941 114.843041 
L 163.56137 113.614061 
L 165.1928 115.235517 
L 166.82423 111.780987 
L 168.45566 114.747566 
L 170.08709 116.865333 
L 171.71852 115.600555 
L 173.34995 115.027107 
L 174.98138 114.657483 
L 176.61281 115.264848 
L 178.244239 115.346281 
L 179.875669 115.094922 
L 181.507099 115.780842 
L 183.138529 114.056326 
L 184.769959 115.033499 
L 186.401389 114.182489 
L 188.032819 115.901911 
L 189.664249 114.337663 
L 191.295678 113.401328 
L 192.927108 114.257957 
L 194.558538 117.224107 
L 196.189968 115.354272 
L 197.821398 114.087491 
L 199.452828 115.917091 
L 201.084258 114.988638 
L 202.715688 114.94877 
L 204.347117 113.117399 
L 205.978547 113.50958 
L 207.609977 113.577218 
L 209.241407 114.517167 
L 210.872837 113.748624 
L 212.504267 113.822595 
L 214.135697 115.387457 
L 215.767127 116.329987 
L 219.029986 113.675557 
L 220.661416 114.055309 
L 222.292846 115.17176 
L 223.924276 114.696547 
L 225.555706 115.847787 
L 227.187136 117.219931 
L 228.818566 114.610865 
L 230.449995 114.180071 
L 232.081425 116.534023 
L 233.712855 114.814154 
L 235.344285 114.00483 
L 236.975715 113.602383 
L 238.607145 114.877276 
L 240.238575 112.849404 
L 241.870005 117.411208 
L 243.501434 114.816161 
L 245.132864 114.48825 
L 246.764294 116.411164 
L 248.395724 113.622324 
L 250.027154 114.860449 
L 251.658584 114.115442 
L 253.290014 116.121311 
L 254.921444 115.386386 
L 256.552873 116.035839 
L 258.184303 116.117822 
L 259.815733 113.514775 
L 261.447163 114.087625 
L 263.078593 116.30172 
L 264.710023 116.392052 
L 266.341453 114.012899 
L 267.972883 116.307629 
L 269.604312 115.902768 
L 271.235742 114.537016 
L 272.867172 114.800403 
L 274.498602 116.233008 
L 276.130032 114.33933 
L 277.761462 115.578732 
L 279.392892 113.835657 
L 281.024322 115.836498 
L 282.655751 116.196283 
L 284.287181 114.659482 
L 285.918611 114.706286 
L 287.550041 114.370072 
L 289.181471 112.28124 
L 290.812901 115.942903 
L 292.444331 114.464754 
L 294.075761 114.978744 
L 295.70719 116.387928 
L 297.33862 114.195211 
L 298.97005 114.274997 
L 300.60148 114.70249 
L 302.23291 113.751727 
L 303.86434 115.844109 
L 305.49577 115.671715 
L 307.1272 114.307849 
L 308.75863 115.77041 
L 310.390059 115.553574 
L 312.021489 115.558137 
L 315.284349 114.201282 
L 316.915779 115.385383 
L 318.547209 113.637959 
L 320.178639 114.907091 
L 321.810069 113.261677 
L 323.441498 114.388804 
L 325.072928 114.352299 
L 326.704358 113.565393 
L 328.335788 115.63147 
L 329.967218 113.423863 
L 331.598648 112.96396 
L 333.230078 115.700251 
L 334.861508 114.906536 
L 336.492937 114.899953 
L 338.124367 115.361941 
L 339.755797 116.467665 
L 341.387227 115.770781 
L 343.018657 116.340171 
L 344.650087 113.559012 
L 346.281517 115.818679 
L 347.912947 116.483942 
L 349.544376 115.218003 
L 351.175806 113.571847 
L 352.807236 111.102376 
L 354.438666 116.484356 
L 356.070096 112.765414 
L 357.701526 118.008566 
L 359.332956 118.208181 
L 360.964386 116.978003 
L 362.595815 118.211462 
L 364.227245 117.886655 
L 365.858675 114.117468 
L 367.490105 113.176812 
L 369.121535 116.004552 
L 370.752965 116.273759 
L 372.384395 117.712197 
L 374.015825 112.435095 
L 375.647254 115.546623 
L 377.278684 116.251408 
L 378.910114 116.597451 
L 380.541544 117.429948 
L 382.172974 115.156364 
L 383.804404 116.602607 
L 385.435834 116.197781 
L 387.067264 116.24512 
L 388.698693 115.42172 
L 390.330123 116.499965 
L 391.961553 116.902605 
L 393.592983 119.147323 
L 395.224413 115.099501 
L 396.855843 117.168888 
L 398.487273 117.962273 
L 398.487273 117.962273 
" clip-path="url(#pc4a565a430)" style="fill: none; stroke-dasharray: 9.6,2.4,1.5,2.4; stroke-dashoffset: 0; stroke: #008000; stroke-width: 1.5"/>
   </g>
   <g id="line2d_23">
    <path d="M 73.832727 116.067284 
L 75.464157 111.075288 
L 77.095587 111.234238 
L 78.727017 103.010524 
L 80.358447 89.083718 
L 81.989877 79.104203 
L 83.621307 114.405718 
L 85.252736 92.001774 
L 86.884166 103.073924 
L 88.515596 87.802603 
L 90.147026 95.133669 
L 91.778456 106.262518 
L 93.409886 80.682158 
L 95.041316 98.209828 
L 96.672746 92.595174 
L 98.304175 101.456693 
L 99.935605 87.845786 
L 101.567035 84.024781 
L 103.198465 99.757091 
L 104.829895 95.319224 
L 106.461325 87.35977 
L 108.092755 77.957054 
L 109.724185 83.689072 
L 111.355614 86.134948 
L 112.987044 91.097855 
L 114.618474 78.063717 
L 116.249904 86.791435 
L 117.881334 84.757802 
L 119.512764 81.210926 
L 121.144194 94.977508 
L 124.407053 86.422883 
L 126.038483 80.692133 
L 127.669913 83.371242 
L 129.301343 92.040162 
L 130.932773 89.380981 
L 132.564203 87.865725 
L 134.195633 83.330118 
L 135.827063 95.28167 
L 137.458492 76.928638 
L 139.089922 71.489339 
L 140.721352 74.033675 
L 142.352782 79.767408 
L 143.984212 91.04398 
L 145.615642 92.043235 
L 147.247072 66.210342 
L 148.878502 78.338314 
L 150.509931 75.224402 
L 152.141361 62.276816 
L 153.772791 80.760748 
L 155.404221 79.519827 
L 157.035651 76.953691 
L 158.667081 87.590425 
L 160.298511 71.374527 
L 161.929941 79.404336 
L 163.56137 83.548589 
L 165.1928 81.897962 
L 166.82423 76.961226 
L 168.45566 75.716129 
L 170.08709 82.394293 
L 171.71852 79.23668 
L 173.34995 73.365407 
L 174.98138 74.159232 
L 176.61281 82.510414 
L 178.244239 83.405781 
L 179.875669 92.209429 
L 181.507099 84.79366 
L 183.138529 84.946901 
L 184.769959 82.269878 
L 186.401389 74.2917 
L 188.032819 76.815052 
L 189.664249 80.805637 
L 191.295678 90.416685 
L 192.927108 83.482394 
L 194.558538 82.396109 
L 196.189968 68.622016 
L 197.821398 79.692621 
L 199.452828 78.07749 
L 201.084258 77.958755 
L 202.715688 79.602263 
L 204.347117 75.5821 
L 205.978547 72.662938 
L 207.609977 87.846363 
L 209.241407 75.516205 
L 210.872837 84.788358 
L 212.504267 85.175332 
L 214.135697 86.519917 
L 215.767127 76.71764 
L 217.398556 83.612145 
L 219.029986 72.836917 
L 220.661416 87.689031 
L 222.292846 83.941281 
L 223.924276 62.31185 
L 225.555706 84.8077 
L 227.187136 90.679517 
L 228.818566 75.313761 
L 230.449995 69.128634 
L 232.081425 86.52257 
L 233.712855 87.875931 
L 236.975715 66.155446 
L 238.607145 76.565691 
L 240.238575 67.626237 
L 241.870005 77.986713 
L 243.501434 70.100822 
L 245.132864 75.660508 
L 246.764294 78.108884 
L 248.395724 86.616963 
L 250.027154 77.829034 
L 251.658584 93.428932 
L 253.290014 76.892928 
L 254.921444 82.109676 
L 256.552873 79.424555 
L 258.184303 86.769419 
L 259.815733 75.509361 
L 261.447163 72.37576 
L 263.078593 83.735968 
L 264.710023 78.865613 
L 266.341453 75.378173 
L 267.972883 92.362224 
L 269.604312 79.50821 
L 271.235742 76.516067 
L 272.867172 84.981271 
L 274.498602 83.481793 
L 276.130032 73.819722 
L 277.761462 92.265509 
L 279.392892 79.483286 
L 281.024322 93.752421 
L 282.655751 85.231476 
L 284.287181 78.087536 
L 285.918611 84.891029 
L 287.550041 79.579915 
L 289.181471 68.758546 
L 290.812901 84.141318 
L 292.444331 84.976206 
L 294.075761 76.991395 
L 295.70719 91.337652 
L 297.33862 71.583901 
L 298.97005 83.450369 
L 300.60148 84.93243 
L 302.23291 74.244133 
L 303.86434 85.190694 
L 305.49577 77.846196 
L 307.1272 86.955606 
L 308.75863 90.898949 
L 310.390059 76.421437 
L 312.021489 84.785016 
L 313.652919 92.093866 
L 315.284349 83.350524 
L 316.915779 69.662228 
L 318.547209 65.949816 
L 320.178639 85.1807 
L 321.810069 79.880546 
L 323.441498 89.146247 
L 325.072928 83.462379 
L 326.704358 83.546381 
L 328.335788 84.964581 
L 329.967218 74.110785 
L 331.598648 53.568 
L 333.230078 75.616382 
L 334.861508 89.439914 
L 336.492937 61.431265 
L 338.124367 88.09859 
L 339.755797 86.696497 
L 341.387227 70.10829 
L 343.018657 85.175778 
L 344.650087 85.178756 
L 346.281517 82.008544 
L 347.912947 89.274326 
L 349.544376 85.133343 
L 351.175806 79.429546 
L 352.807236 68.768798 
L 354.438666 91.079617 
L 356.070096 82.215817 
L 357.701526 87.710153 
L 359.332956 76.704707 
L 360.964386 79.400124 
L 362.595815 95.095095 
L 364.227245 90.640019 
L 365.858675 78.014803 
L 367.490105 87.559844 
L 369.121535 76.465938 
L 370.752965 82.093271 
L 372.384395 84.893066 
L 374.015825 76.962888 
L 375.647254 86.195849 
L 377.278684 82.417488 
L 378.910114 87.813643 
L 380.541544 90.738875 
L 382.172974 71.630699 
L 383.804404 92.035377 
L 385.435834 95.474015 
L 387.067264 80.973992 
L 388.698693 82.011882 
L 390.330123 80.680128 
L 391.961553 90.560304 
L 393.592983 89.270533 
L 395.224413 75.398001 
L 396.855843 92.174336 
L 398.487273 89.510898 
L 398.487273 89.510898 
" clip-path="url(#pc4a565a430)" style="fill: none; stroke: #ff0000; stroke-width: 1.5; stroke-linecap: square"/>
   </g>
   <g id="patch_3">
    <path d="M 57.6 307.584 
L 57.6 41.472 
" style="fill: none; stroke: #000000; stroke-width: 0.8; stroke-linejoin: miter; stroke-linecap: square"/>
   </g>
   <g id="patch_4">
    <path d="M 414.72 307.584 
L 414.72 41.472 
" style="fill: none; stroke: #000000; stroke-width: 0.8; stroke-linejoin: miter; stroke-linecap: square"/>
   </g>
   <g id="patch_5">
    <path d="M 57.6 307.584 
L 414.72 307.584 
" style="fill: none; stroke: #000000; stroke-width: 0.8; stroke-linejoin: miter; stroke-linecap: square"/>
   </g>
   <g id="patch_6">
    <path d="M 57.6 41.472 
L 414.72 41.472 
" style="fill: none; stroke: #000000; stroke-width: 0.8; stroke-linejoin: miter; stroke-linecap: square"/>
   </g>
   <g id="text_13">
    <!-- Population's average and best fitness -->
    <g transform="translate(123.529687 35.472) scale(0.12 -0.12)">
     <defs>
      <path id="DejaVuSans-50" d="M 1259 4147 
L 1259 2394 
L 2053 2394 
Q 2494 2394 2734 2622 
Q 2975 2850 2975 3272 
Q 2975 3691 2734 3919 
Q 2494 4147 2053 4147 
L 1259 4147 
z
M 628 4666 
L 2053 4666 
Q 2838 4666 3239 4311 
Q 3641 3956 3641 3272 
Q 3641 2581 3239 2228 
Q 2838 1875 2053 1875 
L 1259 1875 
L 1259 0 
L 628 0 
L 628 4666 
z
" transform="scale(0.015625)"/>
      <path id="DejaVuSans-70" d="M 1159 525 
L 1159 -1331 
L 581 -1331 
L 581 3500 
L 1159 3500 
L 1159 2969 
Q 1341 3281 1617 3432 
Q 1894 3584 2278 3584 
Q 2916 3584 3314 3078 
Q 3713 2572 3713 1747 
Q 3713 922 3314 415 
Q 2916 -91 2278 -91 
Q 1894 -91 1617 61 
Q 1341 213 1159 525 
z
M 3116 1747 
Q 3116 2381 2855 2742 
Q 2594 3103 2138 3103 
Q 1681 3103 1420 2742 
Q 1159 2381 1159 1747 
Q 1159 1113 1420 752 
Q 1681 391 2138 391 
Q 2594 391 2855 752 
Q 3116 1113 3116 1747 
z
" transform="scale(0.015625)"/>
      <path id="DejaVuSans-75" d="M 544 1381 
L 544 3500 
L 1119 3500 
L 1119 1403 
Q 1119 906 1312 657 
Q 1506 409 1894 409 
Q 2359 409 2629 706 
Q 2900 1003 2900 1516 
L 2900 3500 
L 3475 3500 
L 3475 0 
L 2900 0 
L 2900 538 
Q 2691 219 2414 64 
Q 2138 -91 1772 -91 
Q 1169 -91 856 284 
Q 544 659 544 1381 
z
M 1991 3584 
L 1991 3584 
z
" transform="scale(0.015625)"/>
      <path id="DejaVuSans-6c" d="M 603 4863 
L 1178 4863 
L 1178 0 
L 603 0 
L 603 4863 
z
" transform="scale(0.015625)"/>
      <path id="DejaVuSans-27" d="M 1147 4666 
L 1147 2931 
L 616 2931 
L 616 4666 
L 1147 4666 
z
" transform="scale(0.015625)"/>
      <path id="DejaVuSans-20" transform="scale(0.015625)"/>
      <path id="DejaVuSans-76" d="M 191 3500 
L 800 3500 
L 1894 563 
L 2988 3500 
L 3597 3500 
L 2284 0 
L 1503 0 
L 191 3500 
z
" transform="scale(0.015625)"/>
      <path id="DejaVuSans-67" d="M 2906 1791 
Q 2906 2416 2648 2759 
Q 2391 3103 1925 3103 
Q 1463 3103 1205 2759 
Q 947 2416 947 1791 
Q 947 1169 1205 825 
Q 1463 481 1925 481 
Q 2391 481 2648 825 
Q 2906 1169 2906 1791 
z
M 3481 434 
Q 3481 -459 3084 -895 
Q 2688 -1331 1869 -1331 
Q 1566 -1331 1297 -1286 
Q 1028 -1241 775 -1147 
L 775 -588 
Q 1028 -725 1275 -790 
Q 1522 -856 1778 -856 
Q 2344 -856 2625 -561 
Q 2906 -266 2906 331 
L 2906 616 
Q 2728 306 2450 153 
Q 2172 0 1784 0 
Q 1141 0 747 490 
Q 353 981 353 1791 
Q 353 2603 747 3093 
Q 1141 3584 1784 3584 
Q 2172 3584 2450 3431 
Q 2728 3278 2906 2969 
L 2906 3500 
L 3481 3500 
L 3481 434 
z
" transform="scale(0.015625)"/>
      <path id="DejaVuSans-64" d="M 2906 2969 
L 2906 4863 
L 3481 4863 
L 3481 0 
L 2906 0 
L 2906 525 
Q 2725 213 2448 61 
Q 2172 -91 1784 -91 
Q 1150 -91 751 415 
Q 353 922 353 1747 
Q 353 2572 751 3078 
Q 1150 3584 1784 3584 
Q 2172 3584 2448 3432 
Q 2725 3281 2906 2969 
z
M 947 1747 
Q 947 1113 1208 752 
Q 1469 391 1925 391 
Q 2381 391 2643 752 
Q 2906 1113 2906 1747 
Q 2906 2381 2643 2742 
Q 2381 3103 1925 3103 
Q 1469 3103 1208 2742 
Q 947 2381 947 1747 
z
" transform="scale(0.015625)"/>
      <path id="DejaVuSans-62" d="M 3116 1747 
Q 3116 2381 2855 2742 
Q 2594 3103 2138 3103 
Q 1681 3103 1420 2742 
Q 1159 2381 1159 1747 
Q 1159 1113 1420 752 
Q 1681 391 2138 391 
Q 2594 391 2855 752 
Q 3116 1113 3116 1747 
z
M 1159 2969 
Q 1341 3281 1617 3432 
Q 1894 3584 2278 3584 
Q 2916 3584 3314 3078 
Q 3713 2572 3713 1747 
Q 3713 922 3314 415 
Q 2916 -91 2278 -91 
Q 1894 -91 1617 61 
Q 1341 213 1159 525 
L 1159 0 
L 581 0 
L 581 4863 
L 1159 4863 
L 1159 2969 
z
" transform="scale(0.015625)"/>
      <path id="DejaVuSans-66" d="M 2375 4863 
L 2375 4384 
L 1825 4384 
Q 1516 4384 1395 4259 
Q 1275 4134 1275 3809 
L 1275 3500 
L 2222 3500 
L 2222 3053 
L 1275 3053 
L 1275 0 
L 697 0 
L 697 3053 
L 147 3053 
L 147 3500 
L 697 3500 
L 697 3744 
Q 697 4328 969 4595 
Q 1241 4863 1831 4863 
L 2375 4863 
z
" transform="scale(0.015625)"/>
     </defs>
     <use xlink:href="#DejaVuSans-50"/>
     <use xlink:href="#DejaVuSans-6f" transform="translate(56.677734 0)"/>
     <use xlink:href="#DejaVuSans-70" transform="translate(117.859375 0)"/>
     <use xlink:href="#DejaVuSans-75" transform="translate(181.335938 0)"/>
     <use xlink:href="#DejaVuSans-6c" transform="translate(244.714844 0)"/>
     <use xlink:href="#DejaVuSans-61" transform="translate(272.498047 0)"/>
     <use xlink:href="#DejaVuSans-74" transform="translate(333.777344 0)"/>
     <use xlink:href="#DejaVuSans-69" transform="translate(372.986328 0)"/>
     <use xlink:href="#DejaVuSans-6f" transform="translate(400.769531 0)"/>
     <use xlink:href="#DejaVuSans-6e" transform="translate(461.951172 0)"/>
     <use xlink:href="#DejaVuSans-27" transform="translate(525.330078 0)"/>
     <use xlink:href="#DejaVuSans-73" transform="translate(552.820312 0)"/>
     <use xlink:href="#DejaVuSans-20" transform="translate(604.919922 0)"/>
     <use xlink:href="#DejaVuSans-61" transform="translate(636.707031 0)"/>
     <use xlink:href="#DejaVuSans-76" transform="translate(697.986328 0)"/>
     <use xlink:href="#DejaVuSans-65" transform="translate(757.166016 0)"/>
     <use xlink:href="#DejaVuSans-72" transform="translate(818.689453 0)"/>
     <use xlink:href="#DejaVuSans-61" transform="translate(859.802734 0)"/>
     <use xlink:href="#DejaVuSans-67" transform="translate(921.082031 0)"/>
     <use xlink:href="#DejaVuSans-65" transform="translate(984.558594 0)"/>
     <use xlink:href="#DejaVuSans-20" transform="translate(1046.082031 0)"/>
     <use xlink:href="#DejaVuSans-61" transform="translate(1077.869141 0)"/>
     <use xlink:href="#DejaVuSans-6e" transform="translate(1139.148438 0)"/>
     <use xlink:href="#DejaVuSans-64" transform="translate(1202.527344 0)"/>
     <use xlink:href="#DejaVuSans-20" transform="translate(1266.003906 0)"/>
     <use xlink:href="#DejaVuSans-62" transform="translate(1297.791016 0)"/>
     <use xlink:href="#DejaVuSans-65" transform="translate(1361.267578 0)"/>
     <use xlink:href="#DejaVuSans-73" transform="translate(1422.791016 0)"/>
     <use xlink:href="#DejaVuSans-74" transform="translate(1474.890625 0)"/>
     <use xlink:href="#DejaVuSans-20" transform="translate(1514.099609 0)"/>
     <use xlink:href="#DejaVuSans-66" transform="translate(1545.886719 0)"/>
     <use xlink:href="#DejaVuSans-69" transform="translate(1581.091797 0)"/>
     <use xlink:href="#DejaVuSans-74" transform="translate(1608.875 0)"/>
     <use xlink:href="#DejaVuSans-6e" transform="translate(1648.083984 0)"/>
     <use xlink:href="#DejaVuSans-65" transform="translate(1711.462891 0)"/>
     <use xlink:href="#DejaVuSans-73" transform="translate(1772.986328 0)"/>
     <use xlink:href="#DejaVuSans-73" transform="translate(1825.085938 0)"/>
    </g>
   </g>
   <g id="legend_1">
    <g id="patch_7">
     <path d="M 334.779375 302.584 
L 407.72 302.584 
Q 409.72 302.584 409.72 300.584 
L 409.72 257.549625 
Q 409.72 255.549625 407.72 255.549625 
L 334.779375 255.549625 
Q 332.779375 255.549625 332.779375 257.549625 
L 332.779375 300.584 
Q 332.779375 302.584 334.779375 302.584 
z
" style="fill: #ffffff; opacity: 0.8; stroke: #cccccc; stroke-linejoin: miter"/>
    </g>
    <g id="line2d_24">
     <path d="M 336.779375 263.648062 
L 346.779375 263.648062 
L 356.779375 263.648062 
" style="fill: none; stroke: #0000ff; stroke-width: 1.5; stroke-linecap: square"/>
    </g>
    <g id="text_14">
     <!-- average -->
     <g transform="translate(364.779375 267.148062) scale(0.1 -0.1)">
      <use xlink:href="#DejaVuSans-61"/>
      <use xlink:href="#DejaVuSans-76" transform="translate(61.279297 0)"/>
      <use xlink:href="#DejaVuSans-65" transform="translate(120.458984 0)"/>
      <use xlink:href="#DejaVuSans-72" transform="translate(181.982422 0)"/>
      <use xlink:href="#DejaVuSans-61" transform="translate(223.095703 0)"/>
      <use xlink:href="#DejaVuSans-67" transform="translate(284.375 0)"/>
      <use xlink:href="#DejaVuSans-65" transform="translate(347.851562 0)"/>
     </g>
    </g>
    <g id="line2d_25">
     <path d="M 336.779375 278.326188 
L 346.779375 278.326188 
L 356.779375 278.326188 
" style="fill: none; stroke-dasharray: 9.6,2.4,1.5,2.4; stroke-dashoffset: 0; stroke: #008000; stroke-width: 1.5"/>
    </g>
    <g id="text_15">
     <!-- +1 sd -->
     <g transform="translate(364.779375 281.826188) scale(0.1 -0.1)">
      <defs>
       <path id="DejaVuSans-2b" d="M 2944 4013 
L 2944 2272 
L 4684 2272 
L 4684 1741 
L 2944 1741 
L 2944 0 
L 2419 0 
L 2419 1741 
L 678 1741 
L 678 2272 
L 2419 2272 
L 2419 4013 
L 2944 4013 
z
" transform="scale(0.015625)"/>
      </defs>
      <use xlink:href="#DejaVuSans-2b"/>
      <use xlink:href="#DejaVuSans-31" transform="translate(83.789062 0)"/>
      <use xlink:href="#DejaVuSans-20" transform="translate(147.412109 0)"/>
      <use xlink:href="#DejaVuSans-73" transform="translate(179.199219 0)"/>
      <use xlink:href="#DejaVuSans-64" transform="translate(231.298828 0)"/>
     </g>
    </g>
    <g id="line2d_26">
     <path d="M 336.779375 293.004312 
L 346.779375 293.004312 
L 356.779375 293.004312 
" style="fill: none; stroke: #ff0000; stroke-width: 1.5; stroke-linecap: square"/>
    </g>
    <g id="text_16">
     <!-- best -->
     <g transform="translate(364.779375 296.504312) scale(0.1 -0.1)">
      <use xlink:href="#DejaVuSans-62"/>
      <use xlink:href="#DejaVuSans-65" transform="translate(63.476562 0)"/>
      <use xlink:href="#DejaVuSans-73" transform="translate(125 0)"/>
      <use xlink:href="#DejaVuSans-74" transform="translate(177.099609 0)"/>
     </g>
    </g>
   </g>
  </g>
 </g>
 <defs>
  <clipPath id="pc4a565a430">
   <rect x="57.6" y="41.472" width="357.12" height="266.112"/>
  </clipPath>
 </defs>
</svg>
