<?xml version="1.0" encoding="utf-8" standalone="no"?>
<!DOCTYPE svg PUBLIC "-//W3C//DTD SVG 1.1//EN"
  "http://www.w3.org/Graphics/SVG/1.1/DTD/svg11.dtd">
<svg xmlns:xlink="http://www.w3.org/1999/xlink" width="460.8pt" height="345.6pt" viewBox="0 0 460.8 345.6" xmlns="http://www.w3.org/2000/svg" version="1.1">
 <metadata>
  <rdf:RDF xmlns:dc="http://purl.org/dc/elements/1.1/" xmlns:cc="http://creativecommons.org/ns#" xmlns:rdf="http://www.w3.org/1999/02/22-rdf-syntax-ns#">
   <cc:Work>
    <dc:type rdf:resource="http://purl.org/dc/dcmitype/StillImage"/>
    <dc:date>2026-04-23T21:35:47.582331</dc:date>
    <dc:format>image/svg+xml</dc:format>
    <dc:creator>
     <cc:Agent>
      <dc:title>Matplotlib v3.10.8, https://matplotlib.org/</dc:title>
     </cc:Agent>
    </dc:creator>
   </cc:Work>
  </rdf:RDF>
 </metadata>
 <defs>
  <style type="text/css">*{stroke-linejoin: round; stroke-linecap: butt}</style>
 </defs>
 <g id="figure_1">
  <g id="patch_1">
   <path d="M 0 345.6 
L 460.8 345.6 
L 460.8 0 
L 0 0 
z
" style="fill: #ffffff"/>
  </g>
  <g id="axes_1">
   <g id="patch_2">
    <path d="M 57.6 307.584 
L 414.72 307.584 
L 414.72 41.472 
L 57.6 41.472 
z
" style="fill: #ffffff"/>
   </g>
   <g id="matplotlib.axis_1">
    <g id="xtick_1">
     <g id="line2d_1">
      <path d="M 73.832727 307.584 
L 73.832727 41.472 
" clip-path="url(#pbed990b72e)" style="fill: none; stroke: #b0b0b0; stroke-width: 0.8; stroke-linecap: square"/>
     </g>
     <g id="line2d_2">
      <defs>
       <path id="m72b251fda1" d="M 0 0 
L 0 3.5 
" style="stroke: #000000; stroke-width: 0.8"/>
      </defs>
      <g>
       <use xlink:href="#m72b251fda1" x="73.832727" y="307.584" style="stroke: #000000; stroke-width: 0.8"/>
      </g>
     </g>
     <g id="text_1">
      <!-- 0 -->
      <g transform="translate(70.651477 322.182437) scale(0.1 -0.1)">
       <defs>
        <path id="DejaVuSans-30" d="M 2034 4250 
Q 1547 4250 1301 3770 
Q 1056 3291 1056 2328 
Q 1056 1369 1301 889 
Q 1547 409 2034 409 
Q 2525 409 2770 889 
Q 3016 1369 3016 2328 
Q 3016 3291 2770 3770 
Q 2525 4250 2034 4250 
z
M 2034 4750 
Q 2819 4750 3233 4129 
Q 3647 3509 3647 2328 
Q 3647 1150 3233 529 
Q 2819 -91 2034 -91 
Q 1250 -91 836 529 
Q 422 1150 422 2328 
Q 422 3509 836 4129 
Q 1250 4750 2034 4750 
z
" transform="scale(0.015625)"/>
       </defs>
       <use xlink:href="#DejaVuSans-30"/>
      </g>
     </g>
    </g>
    <g id="xtick_2">
     <g id="line2d_3">
      <path d="M 114.618474 307.584 
L 114.618474 41.472 
" clip-path="url(#pbed990b72e)" style="fill: none; stroke: #b0b0b0; stroke-width: 0.8; stroke-linecap: square"/>
     </g>
     <g id="line2d_4">
      <g>
       <use xlink:href="#m72b251fda1" x="114.618474" y="307.584" style="stroke: #000000; stroke-width: 0.8"/>
      </g>
     </g>
     <g id="text_2">
      <!-- 25 -->
      <g transform="translate(108.255974 322.182437) scale(0.1 -0.1)">
       <defs>
        <path id="DejaVuSans-32" d="M 1228 531 
L 3431 531 
L 3431 0 
L 469 0 
L 469 531 
Q 828 903 1448 1529 
Q 2069 2156 2228 2338 
Q 2531 2678 2651 2914 
Q 2772 3150 2772 3378 
Q 2772 3750 2511 3984 
Q 2250 4219 1831 4219 
Q 1534 4219 1204 4116 
Q 875 4013 500 3803 
L 500 4441 
Q 881 4594 1212 4672 
Q 1544 4750 1819 4750 
Q 2544 4750 2975 4387 
Q 3406 4025 3406 3419 
Q 3406 3131 3298 2873 
Q 3191 2616 2906 2266 
Q 2828 2175 2409 1742 
Q 1991 1309 1228 531 
z
" transform="scale(0.015625)"/>
        <path id="DejaVuSans-35" d="M 691 4666 
L 3169 4666 
L 3169 4134 
L 1269 4134 
L 1269 2991 
Q 1406 3038 1543 3061 
Q 1681 3084 1819 3084 
Q 2600 3084 3056 2656 
Q 3513 2228 3513 1497 
Q 3513 744 3044 326 
Q 2575 -91 1722 -91 
Q 1428 -91 1123 -41 
Q 819 9 494 109 
L 494 744 
Q 775 591 1075 516 
Q 1375 441 1709 441 
Q 2250 441 2565 725 
Q 2881 1009 2881 1497 
Q 2881 1984 2565 2268 
Q 2250 2553 1709 2553 
Q 1456 2553 1204 2497 
Q 953 2441 691 2322 
L 691 4666 
z
" transform="scale(0.015625)"/>
       </defs>
       <use xlink:href="#DejaVuSans-32"/>
       <use xlink:href="#DejaVuSans-35" transform="translate(63.623047 0)"/>
      </g>
     </g>
    </g>
    <g id="xtick_3">
     <g id="line2d_5">
      <path d="M 155.404221 307.584 
L 155.404221 41.472 
" clip-path="url(#pbed990b72e)" style="fill: none; stroke: #b0b0b0; stroke-width: 0.8; stroke-linecap: square"/>
     </g>
     <g id="line2d_6">
      <g>
       <use xlink:href="#m72b251fda1" x="155.404221" y="307.584" style="stroke: #000000; stroke-width: 0.8"/>
      </g>
     </g>
     <g id="text_3">
      <!-- 50 -->
      <g transform="translate(149.041721 322.182437) scale(0.1 -0.1)">
       <use xlink:href="#DejaVuSans-35"/>
       <use xlink:href="#DejaVuSans-30" transform="translate(63.623047 0)"/>
      </g>
     </g>
    </g>
    <g id="xtick_4">
     <g id="line2d_7">
      <path d="M 196.189968 307.584 
L 196.189968 41.472 
" clip-path="url(#pbed990b72e)" style="fill: none; stroke: #b0b0b0; stroke-width: 0.8; stroke-linecap: square"/>
     </g>
     <g id="line2d_8">
      <g>
       <use xlink:href="#m72b251fda1" x="196.189968" y="307.584" style="stroke: #000000; stroke-width: 0.8"/>
      </g>
     </g>
     <g id="text_4">
      <!-- 75 -->
      <g transform="translate(189.827468 322.182437) scale(0.1 -0.1)">
       <defs>
        <path id="DejaVuSans-37" d="M 525 4666 
L 3525 4666 
L 3525 4397 
L 1831 0 
L 1172 0 
L 2766 4134 
L 525 4134 
L 525 4666 
z
" transform="scale(0.015625)"/>
       </defs>
       <use xlink:href="#DejaVuSans-37"/>
       <use xlink:href="#DejaVuSans-35" transform="translate(63.623047 0)"/>
      </g>
     </g>
    </g>
    <g id="xtick_5">
     <g id="line2d_9">
      <path d="M 236.975715 307.584 
L 236.975715 41.472 
" clip-path="url(#pbed990b72e)" style="fill: none; stroke: #b0b0b0; stroke-width: 0.8; stroke-linecap: square"/>
     </g>
     <g id="line2d_10">
      <g>
       <use xlink:href="#m72b251fda1" x="236.975715" y="307.584" style="stroke: #000000; stroke-width: 0.8"/>
      </g>
     </g>
     <g id="text_5">
      <!-- 100 -->
      <g transform="translate(227.431965 322.182437) scale(0.1 -0.1)">
       <defs>
        <path id="DejaVuSans-31" d="M 794 531 
L 1825 531 
L 1825 4091 
L 703 3866 
L 703 4441 
L 1819 4666 
L 2450 4666 
L 2450 531 
L 3481 531 
L 3481 0 
L 794 0 
L 794 531 
z
" transform="scale(0.015625)"/>
       </defs>
       <use xlink:href="#DejaVuSans-31"/>
       <use xlink:href="#DejaVuSans-30" transform="translate(63.623047 0)"/>
       <use xlink:href="#DejaVuSans-30" transform="translate(127.246094 0)"/>
      </g>
     </g>
    </g>
    <g id="xtick_6">
     <g id="line2d_11">
      <path d="M 277.761462 307.584 
L 277.761462 41.472 
" clip-path="url(#pbed990b72e)" style="fill: none; stroke: #b0b0b0; stroke-width: 0.8; stroke-linecap: square"/>
     </g>
     <g id="line2d_12">
      <g>
       <use xlink:href="#m72b251fda1" x="277.761462" y="307.584" style="stroke: #000000; stroke-width: 0.8"/>
      </g>
     </g>
     <g id="text_6">
      <!-- 125 -->
      <g transform="translate(268.217712 322.182437) scale(0.1 -0.1)">
       <use xlink:href="#DejaVuSans-31"/>
       <use xlink:href="#DejaVuSans-32" transform="translate(63.623047 0)"/>
       <use xlink:href="#DejaVuSans-35" transform="translate(127.246094 0)"/>
      </g>
     </g>
    </g>
    <g id="xtick_7">
     <g id="line2d_13">
      <path d="M 318.547209 307.584 
L 318.547209 41.472 
" clip-path="url(#pbed990b72e)" style="fill: none; stroke: #b0b0b0; stroke-width: 0.8; stroke-linecap: square"/>
     </g>
     <g id="line2d_14">
      <g>
       <use xlink:href="#m72b251fda1" x="318.547209" y="307.584" style="stroke: #000000; stroke-width: 0.8"/>
      </g>
     </g>
     <g id="text_7">
      <!-- 150 -->
      <g transform="translate(309.003459 322.182437) scale(0.1 -0.1)">
       <use xlink:href="#DejaVuSans-31"/>
       <use xlink:href="#DejaVuSans-35" transform="translate(63.623047 0)"/>
       <use xlink:href="#DejaVuSans-30" transform="translate(127.246094 0)"/>
      </g>
     </g>
    </g>
    <g id="xtick_8">
     <g id="line2d_15">
      <path d="M 359.332956 307.584 
L 359.332956 41.472 
" clip-path="url(#pbed990b72e)" style="fill: none; stroke: #b0b0b0; stroke-width: 0.8; stroke-linecap: square"/>
     </g>
     <g id="line2d_16">
      <g>
       <use xlink:href="#m72b251fda1" x="359.332956" y="307.584" style="stroke: #000000; stroke-width: 0.8"/>
      </g>
     </g>
     <g id="text_8">
      <!-- 175 -->
      <g transform="translate(349.789206 322.182437) scale(0.1 -0.1)">
       <use xlink:href="#DejaVuSans-31"/>
       <use xlink:href="#DejaVuSans-37" transform="translate(63.623047 0)"/>
       <use xlink:href="#DejaVuSans-35" transform="translate(127.246094 0)"/>
      </g>
     </g>
    </g>
    <g id="xtick_9">
     <g id="line2d_17">
      <path d="M 400.118703 307.584 
L 400.118703 41.472 
" clip-path="url(#pbed990b72e)" style="fill: none; stroke: #b0b0b0; stroke-width: 0.8; stroke-linecap: square"/>
     </g>
     <g id="line2d_18">
      <g>
       <use xlink:href="#m72b251fda1" x="400.118703" y="307.584" style="stroke: #000000; stroke-width: 0.8"/>
      </g>
     </g>
     <g id="text_9">
      <!-- 200 -->
      <g transform="translate(390.574953 322.182437) scale(0.1 -0.1)">
       <use xlink:href="#DejaVuSans-32"/>
       <use xlink:href="#DejaVuSans-30" transform="translate(63.623047 0)"/>
       <use xlink:href="#DejaVuSans-30" transform="translate(127.246094 0)"/>
      </g>
     </g>
    </g>
    <g id="text_10">
     <!-- Generations -->
     <g transform="translate(205.662344 335.860562) scale(0.1 -0.1)">
      <defs>
       <path id="DejaVuSans-47" d="M 3809 666 
L 3809 1919 
L 2778 1919 
L 2778 2438 
L 4434 2438 
L 4434 434 
Q 4069 175 3628 42 
Q 3188 -91 2688 -91 
Q 1594 -91 976 548 
Q 359 1188 359 2328 
Q 359 3472 976 4111 
Q 1594 4750 2688 4750 
Q 3144 4750 3555 4637 
Q 3966 4525 4313 4306 
L 4313 3634 
Q 3963 3931 3569 4081 
Q 3175 4231 2741 4231 
Q 1884 4231 1454 3753 
Q 1025 3275 1025 2328 
Q 1025 1384 1454 906 
Q 1884 428 2741 428 
Q 3075 428 3337 486 
Q 3600 544 3809 666 
z
" transform="scale(0.015625)"/>
       <path id="DejaVuSans-65" d="M 3597 1894 
L 3597 1613 
L 953 1613 
Q 991 1019 1311 708 
Q 1631 397 2203 397 
Q 2534 397 2845 478 
Q 3156 559 3463 722 
L 3463 178 
Q 3153 47 2828 -22 
Q 2503 -91 2169 -91 
Q 1331 -91 842 396 
Q 353 884 353 1716 
Q 353 2575 817 3079 
Q 1281 3584 2069 3584 
Q 2775 3584 3186 3129 
Q 3597 2675 3597 1894 
z
M 3022 2063 
Q 3016 2534 2758 2815 
Q 2500 3097 2075 3097 
Q 1594 3097 1305 2825 
Q 1016 2553 972 2059 
L 3022 2063 
z
" transform="scale(0.015625)"/>
       <path id="DejaVuSans-6e" d="M 3513 2113 
L 3513 0 
L 2938 0 
L 2938 2094 
Q 2938 2591 2744 2837 
Q 2550 3084 2163 3084 
Q 1697 3084 1428 2787 
Q 1159 2491 1159 1978 
L 1159 0 
L 581 0 
L 581 3500 
L 1159 3500 
L 1159 2956 
Q 1366 3272 1645 3428 
Q 1925 3584 2291 3584 
Q 2894 3584 3203 3211 
Q 3513 2838 3513 2113 
z
" transform="scale(0.015625)"/>
       <path id="DejaVuSans-72" d="M 2631 2963 
Q 2534 3019 2420 3045 
Q 2306 3072 2169 3072 
Q 1681 3072 1420 2755 
Q 1159 2438 1159 1844 
L 1159 0 
L 581 0 
L 581 3500 
L 1159 3500 
L 1159 2956 
Q 1341 3275 1631 3429 
Q 1922 3584 2338 3584 
Q 2397 3584 2469 3576 
Q 2541 3569 2628 3553 
L 2631 2963 
z
" transform="scale(0.015625)"/>
       <path id="DejaVuSans-61" d="M 2194 1759 
Q 1497 1759 1228 1600 
Q 959 1441 959 1056 
Q 959 750 1161 570 
Q 1363 391 1709 391 
Q 2188 391 2477 730 
Q 2766 1069 2766 1631 
L 2766 1759 
L 2194 1759 
z
M 3341 1997 
L 3341 0 
L 2766 0 
L 2766 531 
Q 2569 213 2275 61 
Q 1981 -91 1556 -91 
Q 1019 -91 701 211 
Q 384 513 384 1019 
Q 384 1609 779 1909 
Q 1175 2209 1959 2209 
L 2766 2209 
L 2766 2266 
Q 2766 2663 2505 2880 
Q 2244 3097 1772 3097 
Q 1472 3097 1187 3025 
Q 903 2953 641 2809 
L 641 3341 
Q 956 3463 1253 3523 
Q 1550 3584 1831 3584 
Q 2591 3584 2966 3190 
Q 3341 2797 3341 1997 
z
" transform="scale(0.015625)"/>
       <path id="DejaVuSans-74" d="M 1172 4494 
L 1172 3500 
L 2356 3500 
L 2356 3053 
L 1172 3053 
L 1172 1153 
Q 1172 725 1289 603 
Q 1406 481 1766 481 
L 2356 481 
L 2356 0 
L 1766 0 
Q 1100 0 847 248 
Q 594 497 594 1153 
L 594 3053 
L 172 3053 
L 172 3500 
L 594 3500 
L 594 4494 
L 1172 4494 
z
" transform="scale(0.015625)"/>
       <path id="DejaVuSans-69" d="M 603 3500 
L 1178 3500 
L 1178 0 
L 603 0 
L 603 3500 
z
M 603 4863 
L 1178 4863 
L 1178 4134 
L 603 4134 
L 603 4863 
z
" transform="scale(0.015625)"/>
       <path id="DejaVuSans-6f" d="M 1959 3097 
Q 1497 3097 1228 2736 
Q 959 2375 959 1747 
Q 959 1119 1226 758 
Q 1494 397 1959 397 
Q 2419 397 2687 759 
Q 2956 1122 2956 1747 
Q 2956 2369 2687 2733 
Q 2419 3097 1959 3097 
z
M 1959 3584 
Q 2709 3584 3137 3096 
Q 3566 2609 3566 1747 
Q 3566 888 3137 398 
Q 2709 -91 1959 -91 
Q 1206 -91 779 398 
Q 353 888 353 1747 
Q 353 2609 779 3096 
Q 1206 3584 1959 3584 
z
" transform="scale(0.015625)"/>
       <path id="DejaVuSans-73" d="M 2834 3397 
L 2834 2853 
Q 2591 2978 2328 3040 
Q 2066 3103 1784 3103 
Q 1356 3103 1142 2972 
Q 928 2841 928 2578 
Q 928 2378 1081 2264 
Q 1234 2150 1697 2047 
L 1894 2003 
Q 2506 1872 2764 1633 
Q 3022 1394 3022 966 
Q 3022 478 2636 193 
Q 2250 -91 1575 -91 
Q 1294 -91 989 -36 
Q 684 19 347 128 
L 347 722 
Q 666 556 975 473 
Q 1284 391 1588 391 
Q 1994 391 2212 530 
Q 2431 669 2431 922 
Q 2431 1156 2273 1281 
Q 2116 1406 1581 1522 
L 1381 1569 
Q 847 1681 609 1914 
Q 372 2147 372 2553 
Q 372 3047 722 3315 
Q 1072 3584 1716 3584 
Q 2034 3584 2315 3537 
Q 2597 3491 2834 3397 
z
" transform="scale(0.015625)"/>
      </defs>
      <use xlink:href="#DejaVuSans-47"/>
      <use xlink:href="#DejaVuSans-65" transform="translate(77.490234 0)"/>
      <use xlink:href="#DejaVuSans-6e" transform="translate(139.013672 0)"/>
      <use xlink:href="#DejaVuSans-65" transform="translate(202.392578 0)"/>
      <use xlink:href="#DejaVuSans-72" transform="translate(263.916016 0)"/>
      <use xlink:href="#DejaVuSans-61" transform="translate(305.029297 0)"/>
      <use xlink:href="#DejaVuSans-74" transform="translate(366.308594 0)"/>
      <use xlink:href="#DejaVuSans-69" transform="translate(405.517578 0)"/>
      <use xlink:href="#DejaVuSans-6f" transform="translate(433.300781 0)"/>
      <use xlink:href="#DejaVuSans-6e" transform="translate(494.482422 0)"/>
      <use xlink:href="#DejaVuSans-73" transform="translate(557.861328 0)"/>
     </g>
    </g>
   </g>
   <g id="matplotlib.axis_2">
    <g id="ytick_1">
     <g id="line2d_19">
      <path d="M 57.6 302.738567 
L 414.72 302.738567 
" clip-path="url(#pbed990b72e)" style="fill: none; stroke: #b0b0b0; stroke-width: 0.8; stroke-linecap: square"/>
     </g>
     <g id="line2d_20">
      <defs>
       <path id="mb39aabe355" d="M 0 0 
L -3.5 0 
" style="stroke: #000000; stroke-width: 0.8"/>
      </defs>
      <g>
       <use xlink:href="#mb39aabe355" x="57.6" y="302.738567" style="stroke: #000000; stroke-width: 0.8"/>
      </g>
     </g>
     <g id="text_11">
      <!-- $\mathdefault{-10^{3}}$ -->
      <g transform="translate(24.6 306.537786) scale(0.1 -0.1)">
       <defs>
        <path id="DejaVuSans-2212" d="M 678 2272 
L 4684 2272 
L 4684 1741 
L 678 1741 
L 678 2272 
z
" transform="scale(0.015625)"/>
        <path id="DejaVuSans-33" d="M 2597 2516 
Q 3050 2419 3304 2112 
Q 3559 1806 3559 1356 
Q 3559 666 3084 287 
Q 2609 -91 1734 -91 
Q 1441 -91 1130 -33 
Q 819 25 488 141 
L 488 750 
Q 750 597 1062 519 
Q 1375 441 1716 441 
Q 2309 441 2620 675 
Q 2931 909 2931 1356 
Q 2931 1769 2642 2001 
Q 2353 2234 1838 2234 
L 1294 2234 
L 1294 2753 
L 1863 2753 
Q 2328 2753 2575 2939 
Q 2822 3125 2822 3475 
Q 2822 3834 2567 4026 
Q 2313 4219 1838 4219 
Q 1578 4219 1281 4162 
Q 984 4106 628 3988 
L 628 4550 
Q 988 4650 1302 4700 
Q 1616 4750 1894 4750 
Q 2613 4750 3031 4423 
Q 3450 4097 3450 3541 
Q 3450 3153 3228 2886 
Q 3006 2619 2597 2516 
z
" transform="scale(0.015625)"/>
       </defs>
       <use xlink:href="#DejaVuSans-2212" transform="translate(0 0.765625)"/>
       <use xlink:href="#DejaVuSans-31" transform="translate(83.789062 0.765625)"/>
       <use xlink:href="#DejaVuSans-30" transform="translate(147.412109 0.765625)"/>
       <use xlink:href="#DejaVuSans-33" transform="translate(211.992188 39.046875) scale(0.7)"/>
      </g>
     </g>
    </g>
    <g id="ytick_2">
     <g id="line2d_21">
      <path d="M 57.6 262.432421 
L 414.72 262.432421 
" clip-path="url(#pbed990b72e)" style="fill: none; stroke: #b0b0b0; stroke-width: 0.8; stroke-linecap: square"/>
     </g>
     <g id="line2d_22">
      <g>
       <use xlink:href="#mb39aabe355" x="57.6" y="262.432421" style="stroke: #000000; stroke-width: 0.8"/>
      </g>
     </g>
     <g id="text_12">
      <!-- $\mathdefault{-10^{2}}$ -->
      <g transform="translate(24.6 266.23164) scale(0.1 -0.1)">
       <use xlink:href="#DejaVuSans-2212" transform="translate(0 0.765625)"/>
       <use xlink:href="#DejaVuSans-31" transform="translate(83.789062 0.765625)"/>
       <use xlink:href="#DejaVuSans-30" transform="translate(147.412109 0.765625)"/>
       <use xlink:href="#DejaVuSans-32" transform="translate(211.992188 39.046875) scale(0.7)"/>
      </g>
     </g>
    </g>
    <g id="ytick_3">
     <g id="line2d_23">
      <path d="M 57.6 222.126274 
L 414.72 222.126274 
" clip-path="url(#pbed990b72e)" style="fill: none; stroke: #b0b0b0; stroke-width: 0.8; stroke-linecap: square"/>
     </g>
     <g id="line2d_24">
      <g>
       <use xlink:href="#mb39aabe355" x="57.6" y="222.126274" style="stroke: #000000; stroke-width: 0.8"/>
      </g>
     </g>
     <g id="text_13">
      <!-- $\mathdefault{-10^{1}}$ -->
      <g transform="translate(24.6 225.925493) scale(0.1 -0.1)">
       <use xlink:href="#DejaVuSans-2212" transform="translate(0 0.684375)"/>
       <use xlink:href="#DejaVuSans-31" transform="translate(83.789062 0.684375)"/>
       <use xlink:href="#DejaVuSans-30" transform="translate(147.412109 0.684375)"/>
       <use xlink:href="#DejaVuSans-31" transform="translate(211.992188 38.965625) scale(0.7)"/>
      </g>
     </g>
    </g>
    <g id="ytick_4">
     <g id="line2d_25">
      <path d="M 57.6 171.561183 
L 414.72 171.561183 
" clip-path="url(#pbed990b72e)" style="fill: none; stroke: #b0b0b0; stroke-width: 0.8; stroke-linecap: square"/>
     </g>
     <g id="line2d_26">
      <g>
       <use xlink:href="#mb39aabe355" x="57.6" y="171.561183" style="stroke: #000000; stroke-width: 0.8"/>
      </g>
     </g>
     <g id="text_14">
      <!-- $\mathdefault{-10^{0}}$ -->
      <g transform="translate(24.6 175.360402) scale(0.1 -0.1)">
       <use xlink:href="#DejaVuSans-2212" transform="translate(0 0.765625)"/>
       <use xlink:href="#DejaVuSans-31" transform="translate(83.789062 0.765625)"/>
       <use xlink:href="#DejaVuSans-30" transform="translate(147.412109 0.765625)"/>
       <use xlink:href="#DejaVuSans-30" transform="translate(211.992188 39.046875) scale(0.7)"/>
      </g>
     </g>
    </g>
    <g id="ytick_5">
     <g id="line2d_27">
      <path d="M 57.6 149.16888 
L 414.72 149.16888 
" clip-path="url(#pbed990b72e)" style="fill: none; stroke: #b0b0b0; stroke-width: 0.8; stroke-linecap: square"/>
     </g>
     <g id="line2d_28">
      <g>
       <use xlink:href="#mb39aabe355" x="57.6" y="149.16888" style="stroke: #000000; stroke-width: 0.8"/>
      </g>
     </g>
     <g id="text_15">
      <!-- $\mathdefault{0}$ -->
      <g transform="translate(44.2 152.968098) scale(0.1 -0.1)">
       <use xlink:href="#DejaVuSans-30" transform="translate(0 0.78125)"/>
      </g>
     </g>
    </g>
    <g id="ytick_6">
     <g id="line2d_29">
      <path d="M 57.6 126.776576 
L 414.72 126.776576 
" clip-path="url(#pbed990b72e)" style="fill: none; stroke: #b0b0b0; stroke-width: 0.8; stroke-linecap: square"/>
     </g>
     <g id="line2d_30">
      <g>
       <use xlink:href="#mb39aabe355" x="57.6" y="126.776576" style="stroke: #000000; stroke-width: 0.8"/>
      </g>
     </g>
     <g id="text_16">
      <!-- $\mathdefault{10^{0}}$ -->
      <g transform="translate(33 130.575795) scale(0.1 -0.1)">
       <use xlink:href="#DejaVuSans-31" transform="translate(0 0.765625)"/>
       <use xlink:href="#DejaVuSans-30" transform="translate(63.623047 0.765625)"/>
       <use xlink:href="#DejaVuSans-30" transform="translate(128.203125 39.046875) scale(0.7)"/>
      </g>
     </g>
    </g>
    <g id="ytick_7">
     <g id="line2d_31">
      <path d="M 57.6 76.211485 
L 414.72 76.211485 
" clip-path="url(#pbed990b72e)" style="fill: none; stroke: #b0b0b0; stroke-width: 0.8; stroke-linecap: square"/>
     </g>
     <g id="line2d_32">
      <g>
       <use xlink:href="#mb39aabe355" x="57.6" y="76.211485" style="stroke: #000000; stroke-width: 0.8"/>
      </g>
     </g>
     <g id="text_17">
      <!-- $\mathdefault{10^{1}}$ -->
      <g transform="translate(33 80.010704) scale(0.1 -0.1)">
       <use xlink:href="#DejaVuSans-31" transform="translate(0 0.684375)"/>
       <use xlink:href="#DejaVuSans-30" transform="translate(63.623047 0.684375)"/>
       <use xlink:href="#DejaVuSans-31" transform="translate(128.203125 38.965625) scale(0.7)"/>
      </g>
     </g>
    </g>
    <g id="text_18">
     <!-- Fitness -->
     <g transform="translate(18.520312 191.845187) rotate(-90) scale(0.1 -0.1)">
      <defs>
       <path id="DejaVuSans-46" d="M 628 4666 
L 3309 4666 
L 3309 4134 
L 1259 4134 
L 1259 2759 
L 3109 2759 
L 3109 2228 
L 1259 2228 
L 1259 0 
L 628 0 
L 628 4666 
z
" transform="scale(0.015625)"/>
      </defs>
      <use xlink:href="#DejaVuSans-46"/>
      <use xlink:href="#DejaVuSans-69" transform="translate(50.269531 0)"/>
      <use xlink:href="#DejaVuSans-74" transform="translate(78.052734 0)"/>
      <use xlink:href="#DejaVuSans-6e" transform="translate(117.261719 0)"/>
      <use xlink:href="#DejaVuSans-65" transform="translate(180.640625 0)"/>
      <use xlink:href="#DejaVuSans-73" transform="translate(242.164062 0)"/>
      <use xlink:href="#DejaVuSans-73" transform="translate(294.263672 0)"/>
     </g>
    </g>
   </g>
   <g id="line2d_33">
    <path d="M 73.832727 295.488 
L 75.464157 293.827861 
L 77.095587 294.112831 
L 78.727017 291.841518 
L 80.358447 291.234233 
L 81.989877 288.830751 
L 83.621307 290.482451 
L 85.252736 287.686286 
L 86.884166 286.659205 
L 88.515596 288.137833 
L 90.147026 287.95797 
L 91.778456 284.820006 
L 93.409886 280.913717 
L 95.041316 278.703729 
L 96.672746 275.780773 
L 98.304175 277.101152 
L 99.935605 275.657603 
L 101.567035 278.307102 
L 103.198465 276.889788 
L 104.829895 274.760205 
L 106.461325 276.347961 
L 108.092755 275.208393 
L 109.724185 275.806134 
L 111.355614 272.783493 
L 112.987044 268.352255 
L 114.618474 271.763621 
L 116.249904 271.681207 
L 117.881334 267.09779 
L 121.144194 271.692341 
L 122.775624 269.741192 
L 124.407053 268.836874 
L 126.038483 269.298053 
L 127.669913 271.652061 
L 129.301343 270.605313 
L 130.932773 270.038618 
L 132.564203 273.566984 
L 134.195633 270.676997 
L 135.827063 268.918522 
L 137.458492 269.658886 
L 139.089922 268.835789 
L 140.721352 269.736405 
L 142.352782 269.251583 
L 143.984212 270.88743 
L 145.615642 269.529633 
L 147.247072 272.026853 
L 148.878502 268.30954 
L 150.509931 269.980163 
L 152.141361 268.045069 
L 153.772791 269.768273 
L 155.404221 269.236202 
L 157.035651 271.07325 
L 158.667081 268.455964 
L 160.298511 269.13801 
L 161.929941 268.569718 
L 163.56137 270.531137 
L 165.1928 271.194252 
L 166.82423 266.702293 
L 168.45566 267.446728 
L 170.08709 267.188173 
L 171.71852 267.913654 
L 173.34995 268.908159 
L 174.98138 270.51751 
L 176.61281 268.237268 
L 178.244239 268.611152 
L 179.875669 266.753427 
L 181.507099 267.978701 
L 183.138529 267.646553 
L 184.769959 268.384776 
L 186.401389 267.518328 
L 188.032819 267.533466 
L 191.295678 268.888125 
L 192.927108 266.89737 
L 194.558538 268.23529 
L 196.189968 269.043338 
L 197.821398 267.068177 
L 199.452828 268.428834 
L 201.084258 269.297649 
L 202.715688 268.513664 
L 204.347117 270.07029 
L 205.978547 269.183838 
L 207.609977 269.017797 
L 209.241407 268.170466 
L 210.872837 270.338722 
L 212.504267 268.49842 
L 214.135697 266.952595 
L 215.767127 267.507461 
L 217.398556 267.671365 
L 219.029986 268.215018 
L 220.661416 267.940882 
L 222.292846 267.089333 
L 223.924276 266.835787 
L 225.555706 267.728886 
L 227.187136 267.067989 
L 228.818566 267.497419 
L 230.449995 267.186004 
L 232.081425 266.657047 
L 233.712855 267.470301 
L 235.344285 267.76378 
L 236.975715 267.363538 
L 238.607145 268.525425 
L 240.238575 269.18209 
L 241.870005 269.496257 
L 243.501434 267.258346 
L 245.132864 268.035872 
L 246.764294 268.579738 
L 248.395724 267.171157 
L 250.027154 266.775065 
L 251.658584 268.83323 
L 253.290014 268.118243 
L 254.921444 267.723309 
L 258.184303 267.647603 
L 259.815733 266.971726 
L 261.447163 266.95057 
L 263.078593 268.09596 
L 264.710023 267.475689 
L 267.972883 267.606396 
L 269.604312 266.954603 
L 271.235742 267.433886 
L 272.867172 267.689818 
L 274.498602 267.54445 
L 276.130032 268.037234 
L 277.761462 267.951099 
L 279.392892 267.265866 
L 281.024322 268.167914 
L 282.655751 266.940112 
L 284.287181 267.188622 
L 285.918611 267.089926 
L 287.550041 267.86767 
L 289.181471 268.150313 
L 290.812901 267.277405 
L 292.444331 267.441682 
L 294.075761 267.889446 
L 295.70719 266.972369 
L 298.97005 267.374739 
L 300.60148 266.976173 
L 302.23291 267.206779 
L 303.86434 268.257297 
L 305.49577 267.232509 
L 307.1272 267.904895 
L 308.75863 267.433383 
L 310.390059 267.411884 
L 312.021489 267.167034 
L 313.652919 267.099457 
L 318.547209 267.456875 
L 320.178639 267.733647 
L 321.810069 267.488671 
L 323.441498 267.938375 
L 325.072928 267.81293 
L 328.335788 266.982058 
L 329.967218 267.393193 
L 331.598648 267.519543 
L 333.230078 267.255962 
L 334.861508 267.634189 
L 336.492937 267.770733 
L 338.124367 267.482428 
L 339.755797 267.822947 
L 341.387227 267.701568 
L 343.018657 267.714528 
L 344.650087 267.597943 
L 346.281517 267.273385 
L 347.912947 267.635513 
L 349.544376 267.349668 
L 351.175806 267.256228 
L 352.807236 267.413146 
L 354.438666 267.253004 
L 357.701526 267.156479 
L 359.332956 266.928498 
L 360.964386 267.110882 
L 362.595815 267.004568 
L 365.858675 267.439066 
L 367.490105 267.394122 
L 369.121535 267.851283 
L 370.752965 267.643584 
L 372.384395 267.950457 
L 374.015825 267.521308 
L 375.647254 267.229547 
L 377.278684 267.376647 
L 378.910114 267.333669 
L 380.541544 267.427841 
L 382.172974 267.180289 
L 383.804404 267.71656 
L 385.435834 268.010595 
L 387.067264 267.636489 
L 388.698693 267.13257 
L 390.330123 267.280829 
L 391.961553 267.128612 
L 395.224413 267.514842 
L 398.487273 266.951265 
L 398.487273 266.951265 
" clip-path="url(#pbed990b72e)" style="fill: none; stroke: #0000ff; stroke-width: 1.5; stroke-linecap: square"/>
   </g>
   <g id="line2d_34">
    <path d="M 73.832727 289.126411 
L 75.464157 285.181616 
L 77.095587 283.70277 
L 78.727017 281.529689 
L 80.358447 280.258672 
L 81.989877 271.373069 
L 83.621307 274.944459 
L 85.252736 271.676021 
L 86.884166 271.913315 
L 88.515596 272.543841 
L 90.147026 273.495286 
L 91.778456 269.187558 
L 93.409886 273.219861 
L 95.041316 263.94846 
L 96.672746 260.356825 
L 98.304175 256.383355 
L 99.935605 262.26617 
L 101.567035 260.037917 
L 103.198465 260.429003 
L 104.829895 260.388904 
L 106.461325 255.604838 
L 108.092755 261.840952 
L 109.724185 260.813569 
L 111.355614 254.143129 
L 112.987044 258.306823 
L 114.618474 236.820748 
L 116.249904 243.683527 
L 117.881334 260.832898 
L 119.512764 253.860545 
L 121.144194 53.568 
L 122.775624 255.965877 
L 126.038483 256.817288 
L 127.669913 247.369193 
L 129.301343 249.253851 
L 130.932773 255.013883 
L 132.564203 240.379258 
L 134.195633 247.405292 
L 135.827063 252.94645 
L 137.458492 252.56721 
L 139.089922 257.22905 
L 140.721352 251.452281 
L 142.352782 256.708849 
L 143.984212 250.442559 
L 145.615642 252.880944 
L 147.247072 244.93254 
L 148.878502 255.657271 
L 150.509931 248.050078 
L 152.141361 258.724262 
L 153.772791 250.429365 
L 155.404221 256.288328 
L 157.035651 252.29033 
L 158.667081 256.171423 
L 160.298511 254.035706 
L 161.929941 255.255046 
L 163.56137 244.824763 
L 165.1928 248.221792 
L 166.82423 264.868427 
L 168.45566 261.346067 
L 170.08709 262.059678 
L 171.71852 256.797276 
L 173.34995 257.216073 
L 174.98138 247.771508 
L 176.61281 258.129724 
L 178.244239 258.086945 
L 179.875669 264.974736 
L 181.507099 256.983298 
L 183.138529 261.193674 
L 184.769959 254.299837 
L 186.401389 257.614888 
L 188.032819 262.005932 
L 189.664249 256.412078 
L 191.295678 253.859372 
L 192.927108 265.065939 
L 194.558538 258.704802 
L 196.189968 254.595178 
L 197.821398 265.337496 
L 199.452828 258.386156 
L 201.084258 250.441129 
L 202.715688 260.71085 
L 204.347117 257.039023 
L 205.978547 255.142991 
L 207.609977 256.502729 
L 209.241407 258.292507 
L 210.872837 251.517126 
L 212.504267 257.346539 
L 214.135697 264.89946 
L 215.767127 262.270412 
L 217.398556 259.266818 
L 219.029986 258.926192 
L 222.292846 262.719009 
L 223.924276 264.998437 
L 225.555706 257.265352 
L 227.187136 265.261616 
L 228.818566 265.431986 
L 230.449995 265.206848 
L 232.081425 264.776848 
L 233.712855 265.674133 
L 235.344285 260.090187 
L 236.975715 265.541873 
L 238.607145 253.996529 
L 240.238575 253.910818 
L 241.870005 248.797781 
L 243.501434 265.550788 
L 246.764294 255.013194 
L 248.395724 261.413584 
L 250.027154 264.840088 
L 251.658584 257.234676 
L 253.290014 256.895988 
L 254.921444 256.034899 
L 256.552873 258.69112 
L 258.184303 257.250949 
L 259.815733 264.987369 
L 261.447163 265.107165 
L 263.078593 260.788434 
L 264.710023 263.816372 
L 266.341453 262.300812 
L 267.972883 259.724916 
L 269.604312 265.035523 
L 271.235742 261.156315 
L 272.867172 258.774215 
L 274.498602 262.588823 
L 276.130032 263.248734 
L 277.761462 261.796055 
L 279.392892 265.451377 
L 281.024322 256.538876 
L 282.655751 264.804523 
L 284.287181 265.427731 
L 285.918611 265.158426 
L 287.550041 262.930601 
L 289.181471 260.971689 
L 290.812901 265.536636 
L 292.444331 265.529742 
L 294.075761 261.308126 
L 295.70719 265.138949 
L 297.33862 265.186941 
L 298.97005 265.5181 
L 300.60148 265.151429 
L 302.23291 265.415179 
L 303.86434 259.836986 
L 305.49577 265.208468 
L 307.1272 260.415075 
L 308.75863 265.47055 
L 310.390059 265.725754 
L 312.021489 265.244345 
L 316.915779 265.37377 
L 318.547209 265.81099 
L 320.178639 262.504687 
L 321.810069 265.399064 
L 323.441498 260.868384 
L 325.072928 262.433486 
L 326.704358 265.571829 
L 328.335788 264.881375 
L 329.967218 265.45364 
L 331.598648 265.75446 
L 333.230078 264.011596 
L 334.861508 259.629998 
L 336.492937 262.348751 
L 338.124367 265.88909 
L 339.755797 262.404808 
L 341.387227 262.274136 
L 343.018657 260.231707 
L 344.650087 263.704864 
L 346.281517 265.871669 
L 347.912947 260.54773 
L 349.544376 265.532278 
L 351.175806 265.263161 
L 352.807236 265.798981 
L 354.438666 265.467752 
L 356.070096 265.60039 
L 359.332956 264.513639 
L 360.964386 265.103955 
L 362.595815 264.916698 
L 364.227245 265.404177 
L 365.858675 265.621526 
L 367.490105 265.105599 
L 369.121535 260.523189 
L 370.752965 262.932691 
L 372.384395 261.896522 
L 374.015825 265.733691 
L 375.647254 265.202606 
L 377.278684 265.49622 
L 378.910114 265.493637 
L 380.541544 263.339716 
L 382.172974 265.150452 
L 383.804404 262.579541 
L 385.435834 262.595821 
L 387.067264 264.639617 
L 388.698693 265.480131 
L 390.330123 265.58342 
L 391.961553 265.481138 
L 395.224413 265.675593 
L 398.487273 265.083369 
L 398.487273 265.083369 
" clip-path="url(#pbed990b72e)" style="fill: none; stroke-dasharray: 9.6,2.4,1.5,2.4; stroke-dashoffset: 0; stroke: #008000; stroke-width: 1.5"/>
   </g>
   <g id="line2d_35">
    <path d="M 73.832727 272.634913 
L 75.464157 264.71442 
L 77.095587 266.030986 
L 78.727017 264.863002 
L 80.358447 264.810553 
L 81.989877 265.119034 
L 83.621307 263.209479 
L 85.252736 265.067936 
L 86.884166 263.045306 
L 88.515596 262.873311 
L 90.147026 264.212321 
L 91.778456 264.857755 
L 93.409886 262.038093 
L 95.041316 263.677862 
L 96.672746 261.762482 
L 98.304175 264.274446 
L 99.935605 262.70639 
L 101.567035 263.492616 
L 103.198465 262.340487 
L 104.829895 262.45342 
L 106.461325 260.773497 
L 108.092755 260.889322 
L 109.724185 262.769211 
L 111.355614 260.533135 
L 112.987044 260.575042 
L 114.618474 261.657307 
L 116.249904 261.263044 
L 117.881334 260.229612 
L 119.512764 258.889686 
L 121.144194 258.35322 
L 122.775624 260.497677 
L 124.407053 261.001799 
L 126.038483 262.82234 
L 127.669913 261.825394 
L 129.301343 261.862105 
L 130.932773 259.031161 
L 132.564203 262.610198 
L 134.195633 263.808205 
L 135.827063 259.582778 
L 137.458492 263.06121 
L 139.089922 258.473267 
L 140.721352 260.265762 
L 142.352782 261.340735 
L 143.984212 261.79741 
L 145.615642 261.089748 
L 147.247072 263.158263 
L 148.878502 261.482071 
L 150.509931 260.489665 
L 152.141361 262.17161 
L 153.772791 261.09806 
L 155.404221 262.121443 
L 157.035651 260.738924 
L 158.667081 260.282367 
L 163.56137 261.443522 
L 165.1928 261.832157 
L 166.82423 261.264943 
L 168.45566 260.95471 
L 170.08709 261.32082 
L 171.71852 261.367554 
L 173.34995 262.692298 
L 176.61281 261.601121 
L 178.244239 261.600021 
L 179.875669 260.320617 
L 181.507099 261.994171 
L 183.138529 261.644375 
L 184.769959 261.063092 
L 186.401389 259.958002 
L 188.032819 262.018515 
L 189.664249 260.908945 
L 191.295678 262.825369 
L 192.927108 262.872231 
L 194.558538 261.531198 
L 196.189968 262.828785 
L 197.821398 261.349631 
L 199.452828 261.231536 
L 201.084258 263.07108 
L 202.715688 262.576728 
L 204.347117 259.251299 
L 205.978547 258.765103 
L 207.609977 262.186066 
L 209.241407 260.88128 
L 210.872837 263.127192 
L 214.135697 261.325114 
L 215.767127 261.842536 
L 217.398556 258.780365 
L 219.029986 262.613566 
L 220.661416 263.257334 
L 222.292846 259.566823 
L 223.924276 258.829075 
L 225.555706 262.19395 
L 227.187136 261.188012 
L 228.818566 262.68786 
L 230.449995 261.867003 
L 232.081425 262.113348 
L 233.712855 262.67451 
L 235.344285 259.152145 
L 236.975715 262.341186 
L 238.607145 258.887972 
L 241.870005 262.367428 
L 243.501434 262.922496 
L 245.132864 261.77129 
L 246.764294 260.838781 
L 248.395724 262.661876 
L 250.027154 258.29593 
L 251.658584 260.91307 
L 253.290014 261.138975 
L 254.921444 261.66358 
L 256.552873 263.027514 
L 258.184303 262.853586 
L 259.815733 259.73091 
L 261.447163 261.242363 
L 263.078593 260.337516 
L 264.710023 261.163973 
L 266.341453 256.373528 
L 267.972883 261.091218 
L 269.604312 261.899343 
L 271.235742 262.512011 
L 272.867172 262.064216 
L 276.130032 260.666972 
L 277.761462 263.067793 
L 279.392892 261.322719 
L 281.024322 252.722263 
L 282.655751 259.738392 
L 284.287181 262.288063 
L 285.918611 260.060744 
L 287.550041 263.365722 
L 289.181471 263.357617 
L 290.812901 261.145847 
L 292.444331 261.825807 
L 294.075761 262.790988 
L 295.70719 258.494516 
L 297.33862 261.444035 
L 298.97005 263.273257 
L 300.60148 258.454695 
L 302.23291 262.140601 
L 303.86434 259.299858 
L 305.49577 262.007739 
L 307.1272 260.445014 
L 308.75863 262.227644 
L 310.390059 262.874233 
L 313.652919 260.195149 
L 315.284349 262.321153 
L 316.915779 262.525801 
L 318.547209 263.442767 
L 321.810069 260.613866 
L 323.441498 262.664053 
L 326.704358 260.79786 
L 328.335788 260.437604 
L 329.967218 262.05732 
L 331.598648 262.988141 
L 333.230078 260.481942 
L 334.861508 260.138286 
L 336.492937 262.69039 
L 338.124367 262.842133 
L 343.018657 262.139758 
L 344.650087 262.249112 
L 346.281517 263.018945 
L 347.912947 260.097389 
L 349.544376 262.460079 
L 351.175806 262.472742 
L 352.807236 262.783043 
L 354.438666 260.749353 
L 356.070096 262.038704 
L 357.701526 261.545514 
L 359.332956 250.513632 
L 360.964386 259.308767 
L 362.595815 260.435287 
L 364.227245 262.003981 
L 365.858675 262.303513 
L 367.490105 261.468727 
L 369.121535 261.745906 
L 370.752965 262.496779 
L 372.384395 261.38368 
L 374.015825 262.989055 
L 375.647254 258.247698 
L 377.278684 261.480647 
L 378.910114 259.842186 
L 380.541544 262.771665 
L 382.172974 261.344393 
L 383.804404 262.92977 
L 385.435834 261.936944 
L 387.067264 260.0346 
L 388.698693 261.516907 
L 390.330123 262.554956 
L 391.961553 260.994164 
L 393.592983 262.717126 
L 395.224413 263.170725 
L 396.855843 261.028766 
L 398.487273 263.222829 
L 398.487273 263.222829 
" clip-path="url(#pbed990b72e)" style="fill: none; stroke: #ff0000; stroke-width: 1.5; stroke-linecap: square"/>
   </g>
   <g id="patch_3">
    <path d="M 57.6 307.584 
L 57.6 41.472 
" style="fill: none; stroke: #000000; stroke-width: 0.8; stroke-linejoin: miter; stroke-linecap: square"/>
   </g>
   <g id="patch_4">
    <path d="M 414.72 307.584 
L 414.72 41.472 
" style="fill: none; stroke: #000000; stroke-width: 0.8; stroke-linejoin: miter; stroke-linecap: square"/>
   </g>
   <g id="patch_5">
    <path d="M 57.6 307.584 
L 414.72 307.584 
" style="fill: none; stroke: #000000; stroke-width: 0.8; stroke-linejoin: miter; stroke-linecap: square"/>
   </g>
   <g id="patch_6">
    <path d="M 57.6 41.472 
L 414.72 41.472 
" style="fill: none; stroke: #000000; stroke-width: 0.8; stroke-linejoin: miter; stroke-linecap: square"/>
   </g>
   <g id="text_19">
    <!-- Population's average and best fitness -->
    <g transform="translate(123.529687 35.472) scale(0.12 -0.12)">
     <defs>
      <path id="DejaVuSans-50" d="M 1259 4147 
L 1259 2394 
L 2053 2394 
Q 2494 2394 2734 2622 
Q 2975 2850 2975 3272 
Q 2975 3691 2734 3919 
Q 2494 4147 2053 4147 
L 1259 4147 
z
M 628 4666 
L 2053 4666 
Q 2838 4666 3239 4311 
Q 3641 3956 3641 3272 
Q 3641 2581 3239 2228 
Q 2838 1875 2053 1875 
L 1259 1875 
L 1259 0 
L 628 0 
L 628 4666 
z
" transform="scale(0.015625)"/>
      <path id="DejaVuSans-70" d="M 1159 525 
L 1159 -1331 
L 581 -1331 
L 581 3500 
L 1159 3500 
L 1159 2969 
Q 1341 3281 1617 3432 
Q 1894 3584 2278 3584 
Q 2916 3584 3314 3078 
Q 3713 2572 3713 1747 
Q 3713 922 3314 415 
Q 2916 -91 2278 -91 
Q 1894 -91 1617 61 
Q 1341 213 1159 525 
z
M 3116 1747 
Q 3116 2381 2855 2742 
Q 2594 3103 2138 3103 
Q 1681 3103 1420 2742 
Q 1159 2381 1159 1747 
Q 1159 1113 1420 752 
Q 1681 391 2138 391 
Q 2594 391 2855 752 
Q 3116 1113 3116 1747 
z
" transform="scale(0.015625)"/>
      <path id="DejaVuSans-75" d="M 544 1381 
L 544 3500 
L 1119 3500 
L 1119 1403 
Q 1119 906 1312 657 
Q 1506 409 1894 409 
Q 2359 409 2629 706 
Q 2900 1003 2900 1516 
L 2900 3500 
L 3475 3500 
L 3475 0 
L 2900 0 
L 2900 538 
Q 2691 219 2414 64 
Q 2138 -91 1772 -91 
Q 1169 -91 856 284 
Q 544 659 544 1381 
z
M 1991 3584 
L 1991 3584 
z
" transform="scale(0.015625)"/>
      <path id="DejaVuSans-6c" d="M 603 4863 
L 1178 4863 
L 1178 0 
L 603 0 
L 603 4863 
z
" transform="scale(0.015625)"/>
      <path id="DejaVuSans-27" d="M 1147 4666 
L 1147 2931 
L 616 2931 
L 616 4666 
L 1147 4666 
z
" transform="scale(0.015625)"/>
      <path id="DejaVuSans-20" transform="scale(0.015625)"/>
      <path id="DejaVuSans-76" d="M 191 3500 
L 800 3500 
L 1894 563 
L 2988 3500 
L 3597 3500 
L 2284 0 
L 1503 0 
L 191 3500 
z
" transform="scale(0.015625)"/>
      <path id="DejaVuSans-67" d="M 2906 1791 
Q 2906 2416 2648 2759 
Q 2391 3103 1925 3103 
Q 1463 3103 1205 2759 
Q 947 2416 947 1791 
Q 947 1169 1205 825 
Q 1463 481 1925 481 
Q 2391 481 2648 825 
Q 2906 1169 2906 1791 
z
M 3481 434 
Q 3481 -459 3084 -895 
Q 2688 -1331 1869 -1331 
Q 1566 -1331 1297 -1286 
Q 1028 -1241 775 -1147 
L 775 -588 
Q 1028 -725 1275 -790 
Q 1522 -856 1778 -856 
Q 2344 -856 2625 -561 
Q 2906 -266 2906 331 
L 2906 616 
Q 2728 306 2450 153 
Q 2172 0 1784 0 
Q 1141 0 747 490 
Q 353 981 353 1791 
Q 353 2603 747 3093 
Q 1141 3584 1784 3584 
Q 2172 3584 2450 3431 
Q 2728 3278 2906 2969 
L 2906 3500 
L 3481 3500 
L 3481 434 
z
" transform="scale(0.015625)"/>
      <path id="DejaVuSans-64" d="M 2906 2969 
L 2906 4863 
L 3481 4863 
L 3481 0 
L 2906 0 
L 2906 525 
Q 2725 213 2448 61 
Q 2172 -91 1784 -91 
Q 1150 -91 751 415 
Q 353 922 353 1747 
Q 353 2572 751 3078 
Q 1150 3584 1784 3584 
Q 2172 3584 2448 3432 
Q 2725 3281 2906 2969 
z
M 947 1747 
Q 947 1113 1208 752 
Q 1469 391 1925 391 
Q 2381 391 2643 752 
Q 2906 1113 2906 1747 
Q 2906 2381 2643 2742 
Q 2381 3103 1925 3103 
Q 1469 3103 1208 2742 
Q 947 2381 947 1747 
z
" transform="scale(0.015625)"/>
      <path id="DejaVuSans-62" d="M 3116 1747 
Q 3116 2381 2855 2742 
Q 2594 3103 2138 3103 
Q 1681 3103 1420 2742 
Q 1159 2381 1159 1747 
Q 1159 1113 1420 752 
Q 1681 391 2138 391 
Q 2594 391 2855 752 
Q 3116 1113 3116 1747 
z
M 1159 2969 
Q 1341 3281 1617 3432 
Q 1894 3584 2278 3584 
Q 2916 3584 3314 3078 
Q 3713 2572 3713 1747 
Q 3713 922 3314 415 
Q 2916 -91 2278 -91 
Q 1894 -91 1617 61 
Q 1341 213 1159 525 
L 1159 0 
L 581 0 
L 581 4863 
L 1159 4863 
L 1159 2969 
z
" transform="scale(0.015625)"/>
      <path id="DejaVuSans-66" d="M 2375 4863 
L 2375 4384 
L 1825 4384 
Q 1516 4384 1395 4259 
Q 1275 4134 1275 3809 
L 1275 3500 
L 2222 3500 
L 2222 3053 
L 1275 3053 
L 1275 0 
L 697 0 
L 697 3053 
L 147 3053 
L 147 3500 
L 697 3500 
L 697 3744 
Q 697 4328 969 4595 
Q 1241 4863 1831 4863 
L 2375 4863 
z
" transform="scale(0.015625)"/>
     </defs>
     <use xlink:href="#DejaVuSans-50"/>
     <use xlink:href="#DejaVuSans-6f" transform="translate(56.677734 0)"/>
     <use xlink:href="#DejaVuSans-70" transform="translate(117.859375 0)"/>
     <use xlink:href="#DejaVuSans-75" transform="translate(181.335938 0)"/>
     <use xlink:href="#DejaVuSans-6c" transform="translate(244.714844 0)"/>
     <use xlink:href="#DejaVuSans-61" transform="translate(272.498047 0)"/>
     <use xlink:href="#DejaVuSans-74" transform="translate(333.777344 0)"/>
     <use xlink:href="#DejaVuSans-69" transform="translate(372.986328 0)"/>
     <use xlink:href="#DejaVuSans-6f" transform="translate(400.769531 0)"/>
     <use xlink:href="#DejaVuSans-6e" transform="translate(461.951172 0)"/>
     <use xlink:href="#DejaVuSans-27" transform="translate(525.330078 0)"/>
     <use xlink:href="#DejaVuSans-73" transform="translate(552.820312 0)"/>
     <use xlink:href="#DejaVuSans-20" transform="translate(604.919922 0)"/>
     <use xlink:href="#DejaVuSans-61" transform="translate(636.707031 0)"/>
     <use xlink:href="#DejaVuSans-76" transform="translate(697.986328 0)"/>
     <use xlink:href="#DejaVuSans-65" transform="translate(757.166016 0)"/>
     <use xlink:href="#DejaVuSans-72" transform="translate(818.689453 0)"/>
     <use xlink:href="#DejaVuSans-61" transform="translate(859.802734 0)"/>
     <use xlink:href="#DejaVuSans-67" transform="translate(921.082031 0)"/>
     <use xlink:href="#DejaVuSans-65" transform="translate(984.558594 0)"/>
     <use xlink:href="#DejaVuSans-20" transform="translate(1046.082031 0)"/>
     <use xlink:href="#DejaVuSans-61" transform="translate(1077.869141 0)"/>
     <use xlink:href="#DejaVuSans-6e" transform="translate(1139.148438 0)"/>
     <use xlink:href="#DejaVuSans-64" transform="translate(1202.527344 0)"/>
     <use xlink:href="#DejaVuSans-20" transform="translate(1266.003906 0)"/>
     <use xlink:href="#DejaVuSans-62" transform="translate(1297.791016 0)"/>
     <use xlink:href="#DejaVuSans-65" transform="translate(1361.267578 0)"/>
     <use xlink:href="#DejaVuSans-73" transform="translate(1422.791016 0)"/>
     <use xlink:href="#DejaVuSans-74" transform="translate(1474.890625 0)"/>
     <use xlink:href="#DejaVuSans-20" transform="translate(1514.099609 0)"/>
     <use xlink:href="#DejaVuSans-66" transform="translate(1545.886719 0)"/>
     <use xlink:href="#DejaVuSans-69" transform="translate(1581.091797 0)"/>
     <use xlink:href="#DejaVuSans-74" transform="translate(1608.875 0)"/>
     <use xlink:href="#DejaVuSans-6e" transform="translate(1648.083984 0)"/>
     <use xlink:href="#DejaVuSans-65" transform="translate(1711.462891 0)"/>
     <use xlink:href="#DejaVuSans-73" transform="translate(1772.986328 0)"/>
     <use xlink:href="#DejaVuSans-73" transform="translate(1825.085938 0)"/>
    </g>
   </g>
   <g id="legend_1">
    <g id="patch_7">
     <path d="M 334.779375 93.506375 
L 407.72 93.506375 
Q 409.72 93.506375 409.72 91.506375 
L 409.72 48.472 
Q 409.72 46.472 407.72 46.472 
L 334.779375 46.472 
Q 332.779375 46.472 332.779375 48.472 
L 332.779375 91.506375 
Q 332.779375 93.506375 334.779375 93.506375 
z
" style="fill: #ffffff; opacity: 0.8; stroke: #cccccc; stroke-linejoin: miter"/>
    </g>
    <g id="line2d_36">
     <path d="M 336.779375 54.570438 
L 346.779375 54.570438 
L 356.779375 54.570438 
" style="fill: none; stroke: #0000ff; stroke-width: 1.5; stroke-linecap: square"/>
    </g>
    <g id="text_20">
     <!-- average -->
     <g transform="translate(364.779375 58.070438) scale(0.1 -0.1)">
      <use xlink:href="#DejaVuSans-61"/>
      <use xlink:href="#DejaVuSans-76" transform="translate(61.279297 0)"/>
      <use xlink:href="#DejaVuSans-65" transform="translate(120.458984 0)"/>
      <use xlink:href="#DejaVuSans-72" transform="translate(181.982422 0)"/>
      <use xlink:href="#DejaVuSans-61" transform="translate(223.095703 0)"/>
      <use xlink:href="#DejaVuSans-67" transform="translate(284.375 0)"/>
      <use xlink:href="#DejaVuSans-65" transform="translate(347.851562 0)"/>
     </g>
    </g>
    <g id="line2d_37">
     <path d="M 336.779375 69.248563 
L 346.779375 69.248563 
L 356.779375 69.248563 
" style="fill: none; stroke-dasharray: 9.6,2.4,1.5,2.4; stroke-dashoffset: 0; stroke: #008000; stroke-width: 1.5"/>
    </g>
    <g id="text_21">
     <!-- +1 sd -->
     <g transform="translate(364.779375 72.748563) scale(0.1 -0.1)">
      <defs>
       <path id="DejaVuSans-2b" d="M 2944 4013 
L 2944 2272 
L 4684 2272 
L 4684 1741 
L 2944 1741 
L 2944 0 
L 2419 0 
L 2419 1741 
L 678 1741 
L 678 2272 
L 2419 2272 
L 2419 4013 
L 2944 4013 
z
" transform="scale(0.015625)"/>
      </defs>
      <use xlink:href="#DejaVuSans-2b"/>
      <use xlink:href="#DejaVuSans-31" transform="translate(83.789062 0)"/>
      <use xlink:href="#DejaVuSans-20" transform="translate(147.412109 0)"/>
      <use xlink:href="#DejaVuSans-73" transform="translate(179.199219 0)"/>
      <use xlink:href="#DejaVuSans-64" transform="translate(231.298828 0)"/>
     </g>
    </g>
    <g id="line2d_38">
     <path d="M 336.779375 83.926688 
L 346.779375 83.926688 
L 356.779375 83.926688 
" style="fill: none; stroke: #ff0000; stroke-width: 1.5; stroke-linecap: square"/>
    </g>
    <g id="text_22">
     <!-- best -->
     <g transform="translate(364.779375 87.426688) scale(0.1 -0.1)">
      <use xlink:href="#DejaVuSans-62"/>
      <use xlink:href="#DejaVuSans-65" transform="translate(63.476562 0)"/>
      <use xlink:href="#DejaVuSans-73" transform="translate(125 0)"/>
      <use xlink:href="#DejaVuSans-74" transform="translate(177.099609 0)"/>
     </g>
    </g>
   </g>
  </g>
 </g>
 <defs>
  <clipPath id="pbed990b72e">
   <rect x="57.6" y="41.472" width="357.12" height="266.112"/>
  </clipPath>
 </defs>
</svg>
