<?xml version="1.0" encoding="utf-8" standalone="no"?>
<!DOCTYPE svg PUBLIC "-//W3C//DTD SVG 1.1//EN"
  "http://www.w3.org/Graphics/SVG/1.1/DTD/svg11.dtd">
<svg xmlns:xlink="http://www.w3.org/1999/xlink" width="460.8pt" height="345.6pt" viewBox="0 0 460.8 345.6" xmlns="http://www.w3.org/2000/svg" version="1.1">
 <metadata>
  <rdf:RDF xmlns:dc="http://purl.org/dc/elements/1.1/" xmlns:cc="http://creativecommons.org/ns#" xmlns:rdf="http://www.w3.org/1999/02/22-rdf-syntax-ns#">
   <cc:Work>
    <dc:type rdf:resource="http://purl.org/dc/dcmitype/StillImage"/>
    <dc:date>2026-04-23T22:48:09.621730</dc:date>
    <dc:format>image/svg+xml</dc:format>
    <dc:creator>
     <cc:Agent>
      <dc:title>Matplotlib v3.10.8, https://matplotlib.org/</dc:title>
     </cc:Agent>
    </dc:creator>
   </cc:Work>
  </rdf:RDF>
 </metadata>
 <defs>
  <style type="text/css">*{stroke-linejoin: round; stroke-linecap: butt}</style>
 </defs>
 <g id="figure_1">
  <g id="patch_1">
   <path d="M 0 345.6 
L 460.8 345.6 
L 460.8 0 
L 0 0 
z
" style="fill: #ffffff"/>
  </g>
  <g id="axes_1">
   <g id="patch_2">
    <path d="M 57.6 307.584 
L 414.72 307.584 
L 414.72 41.472 
L 57.6 41.472 
z
" style="fill: #ffffff"/>
   </g>
   <g id="matplotlib.axis_1">
    <g id="xtick_1">
     <g id="line2d_1">
      <path d="M 73.832727 307.584 
L 73.832727 41.472 
" clip-path="url(#p28fc0495dd)" style="fill: none; stroke: #b0b0b0; stroke-width: 0.8; stroke-linecap: square"/>
     </g>
     <g id="line2d_2">
      <defs>
       <path id="mb80683226b" d="M 0 0 
L 0 3.5 
" style="stroke: #000000; stroke-width: 0.8"/>
      </defs>
      <g>
       <use xlink:href="#mb80683226b" x="73.832727" y="307.584" style="stroke: #000000; stroke-width: 0.8"/>
      </g>
     </g>
     <g id="text_1">
      <!-- 0 -->
      <g transform="translate(70.651477 322.182437) scale(0.1 -0.1)">
       <defs>
        <path id="DejaVuSans-30" d="M 2034 4250 
Q 1547 4250 1301 3770 
Q 1056 3291 1056 2328 
Q 1056 1369 1301 889 
Q 1547 409 2034 409 
Q 2525 409 2770 889 
Q 3016 1369 3016 2328 
Q 3016 3291 2770 3770 
Q 2525 4250 2034 4250 
z
M 2034 4750 
Q 2819 4750 3233 4129 
Q 3647 3509 3647 2328 
Q 3647 1150 3233 529 
Q 2819 -91 2034 -91 
Q 1250 -91 836 529 
Q 422 1150 422 2328 
Q 422 3509 836 4129 
Q 1250 4750 2034 4750 
z
" transform="scale(0.015625)"/>
       </defs>
       <use xlink:href="#DejaVuSans-30"/>
      </g>
     </g>
    </g>
    <g id="xtick_2">
     <g id="line2d_3">
      <path d="M 114.618474 307.584 
L 114.618474 41.472 
" clip-path="url(#p28fc0495dd)" style="fill: none; stroke: #b0b0b0; stroke-width: 0.8; stroke-linecap: square"/>
     </g>
     <g id="line2d_4">
      <g>
       <use xlink:href="#mb80683226b" x="114.618474" y="307.584" style="stroke: #000000; stroke-width: 0.8"/>
      </g>
     </g>
     <g id="text_2">
      <!-- 25 -->
      <g transform="translate(108.255974 322.182437) scale(0.1 -0.1)">
       <defs>
        <path id="DejaVuSans-32" d="M 1228 531 
L 3431 531 
L 3431 0 
L 469 0 
L 469 531 
Q 828 903 1448 1529 
Q 2069 2156 2228 2338 
Q 2531 2678 2651 2914 
Q 2772 3150 2772 3378 
Q 2772 3750 2511 3984 
Q 2250 4219 1831 4219 
Q 1534 4219 1204 4116 
Q 875 4013 500 3803 
L 500 4441 
Q 881 4594 1212 4672 
Q 1544 4750 1819 4750 
Q 2544 4750 2975 4387 
Q 3406 4025 3406 3419 
Q 3406 3131 3298 2873 
Q 3191 2616 2906 2266 
Q 2828 2175 2409 1742 
Q 1991 1309 1228 531 
z
" transform="scale(0.015625)"/>
        <path id="DejaVuSans-35" d="M 691 4666 
L 3169 4666 
L 3169 4134 
L 1269 4134 
L 1269 2991 
Q 1406 3038 1543 3061 
Q 1681 3084 1819 3084 
Q 2600 3084 3056 2656 
Q 3513 2228 3513 1497 
Q 3513 744 3044 326 
Q 2575 -91 1722 -91 
Q 1428 -91 1123 -41 
Q 819 9 494 109 
L 494 744 
Q 775 591 1075 516 
Q 1375 441 1709 441 
Q 2250 441 2565 725 
Q 2881 1009 2881 1497 
Q 2881 1984 2565 2268 
Q 2250 2553 1709 2553 
Q 1456 2553 1204 2497 
Q 953 2441 691 2322 
L 691 4666 
z
" transform="scale(0.015625)"/>
       </defs>
       <use xlink:href="#DejaVuSans-32"/>
       <use xlink:href="#DejaVuSans-35" transform="translate(63.623047 0)"/>
      </g>
     </g>
    </g>
    <g id="xtick_3">
     <g id="line2d_5">
      <path d="M 155.404221 307.584 
L 155.404221 41.472 
" clip-path="url(#p28fc0495dd)" style="fill: none; stroke: #b0b0b0; stroke-width: 0.8; stroke-linecap: square"/>
     </g>
     <g id="line2d_6">
      <g>
       <use xlink:href="#mb80683226b" x="155.404221" y="307.584" style="stroke: #000000; stroke-width: 0.8"/>
      </g>
     </g>
     <g id="text_3">
      <!-- 50 -->
      <g transform="translate(149.041721 322.182437) scale(0.1 -0.1)">
       <use xlink:href="#DejaVuSans-35"/>
       <use xlink:href="#DejaVuSans-30" transform="translate(63.623047 0)"/>
      </g>
     </g>
    </g>
    <g id="xtick_4">
     <g id="line2d_7">
      <path d="M 196.189968 307.584 
L 196.189968 41.472 
" clip-path="url(#p28fc0495dd)" style="fill: none; stroke: #b0b0b0; stroke-width: 0.8; stroke-linecap: square"/>
     </g>
     <g id="line2d_8">
      <g>
       <use xlink:href="#mb80683226b" x="196.189968" y="307.584" style="stroke: #000000; stroke-width: 0.8"/>
      </g>
     </g>
     <g id="text_4">
      <!-- 75 -->
      <g transform="translate(189.827468 322.182437) scale(0.1 -0.1)">
       <defs>
        <path id="DejaVuSans-37" d="M 525 4666 
L 3525 4666 
L 3525 4397 
L 1831 0 
L 1172 0 
L 2766 4134 
L 525 4134 
L 525 4666 
z
" transform="scale(0.015625)"/>
       </defs>
       <use xlink:href="#DejaVuSans-37"/>
       <use xlink:href="#DejaVuSans-35" transform="translate(63.623047 0)"/>
      </g>
     </g>
    </g>
    <g id="xtick_5">
     <g id="line2d_9">
      <path d="M 236.975715 307.584 
L 236.975715 41.472 
" clip-path="url(#p28fc0495dd)" style="fill: none; stroke: #b0b0b0; stroke-width: 0.8; stroke-linecap: square"/>
     </g>
     <g id="line2d_10">
      <g>
       <use xlink:href="#mb80683226b" x="236.975715" y="307.584" style="stroke: #000000; stroke-width: 0.8"/>
      </g>
     </g>
     <g id="text_5">
      <!-- 100 -->
      <g transform="translate(227.431965 322.182437) scale(0.1 -0.1)">
       <defs>
        <path id="DejaVuSans-31" d="M 794 531 
L 1825 531 
L 1825 4091 
L 703 3866 
L 703 4441 
L 1819 4666 
L 2450 4666 
L 2450 531 
L 3481 531 
L 3481 0 
L 794 0 
L 794 531 
z
" transform="scale(0.015625)"/>
       </defs>
       <use xlink:href="#DejaVuSans-31"/>
       <use xlink:href="#DejaVuSans-30" transform="translate(63.623047 0)"/>
       <use xlink:href="#DejaVuSans-30" transform="translate(127.246094 0)"/>
      </g>
     </g>
    </g>
    <g id="xtick_6">
     <g id="line2d_11">
      <path d="M 277.761462 307.584 
L 277.761462 41.472 
" clip-path="url(#p28fc0495dd)" style="fill: none; stroke: #b0b0b0; stroke-width: 0.8; stroke-linecap: square"/>
     </g>
     <g id="line2d_12">
      <g>
       <use xlink:href="#mb80683226b" x="277.761462" y="307.584" style="stroke: #000000; stroke-width: 0.8"/>
      </g>
     </g>
     <g id="text_6">
      <!-- 125 -->
      <g transform="translate(268.217712 322.182437) scale(0.1 -0.1)">
       <use xlink:href="#DejaVuSans-31"/>
       <use xlink:href="#DejaVuSans-32" transform="translate(63.623047 0)"/>
       <use xlink:href="#DejaVuSans-35" transform="translate(127.246094 0)"/>
      </g>
     </g>
    </g>
    <g id="xtick_7">
     <g id="line2d_13">
      <path d="M 318.547209 307.584 
L 318.547209 41.472 
" clip-path="url(#p28fc0495dd)" style="fill: none; stroke: #b0b0b0; stroke-width: 0.8; stroke-linecap: square"/>
     </g>
     <g id="line2d_14">
      <g>
       <use xlink:href="#mb80683226b" x="318.547209" y="307.584" style="stroke: #000000; stroke-width: 0.8"/>
      </g>
     </g>
     <g id="text_7">
      <!-- 150 -->
      <g transform="translate(309.003459 322.182437) scale(0.1 -0.1)">
       <use xlink:href="#DejaVuSans-31"/>
       <use xlink:href="#DejaVuSans-35" transform="translate(63.623047 0)"/>
       <use xlink:href="#DejaVuSans-30" transform="translate(127.246094 0)"/>
      </g>
     </g>
    </g>
    <g id="xtick_8">
     <g id="line2d_15">
      <path d="M 359.332956 307.584 
L 359.332956 41.472 
" clip-path="url(#p28fc0495dd)" style="fill: none; stroke: #b0b0b0; stroke-width: 0.8; stroke-linecap: square"/>
     </g>
     <g id="line2d_16">
      <g>
       <use xlink:href="#mb80683226b" x="359.332956" y="307.584" style="stroke: #000000; stroke-width: 0.8"/>
      </g>
     </g>
     <g id="text_8">
      <!-- 175 -->
      <g transform="translate(349.789206 322.182437) scale(0.1 -0.1)">
       <use xlink:href="#DejaVuSans-31"/>
       <use xlink:href="#DejaVuSans-37" transform="translate(63.623047 0)"/>
       <use xlink:href="#DejaVuSans-35" transform="translate(127.246094 0)"/>
      </g>
     </g>
    </g>
    <g id="xtick_9">
     <g id="line2d_17">
      <path d="M 400.118703 307.584 
L 400.118703 41.472 
" clip-path="url(#p28fc0495dd)" style="fill: none; stroke: #b0b0b0; stroke-width: 0.8; stroke-linecap: square"/>
     </g>
     <g id="line2d_18">
      <g>
       <use xlink:href="#mb80683226b" x="400.118703" y="307.584" style="stroke: #000000; stroke-width: 0.8"/>
      </g>
     </g>
     <g id="text_9">
      <!-- 200 -->
      <g transform="translate(390.574953 322.182437) scale(0.1 -0.1)">
       <use xlink:href="#DejaVuSans-32"/>
       <use xlink:href="#DejaVuSans-30" transform="translate(63.623047 0)"/>
       <use xlink:href="#DejaVuSans-30" transform="translate(127.246094 0)"/>
      </g>
     </g>
    </g>
    <g id="text_10">
     <!-- Generations -->
     <g transform="translate(205.662344 335.860562) scale(0.1 -0.1)">
      <defs>
       <path id="DejaVuSans-47" d="M 3809 666 
L 3809 1919 
L 2778 1919 
L 2778 2438 
L 4434 2438 
L 4434 434 
Q 4069 175 3628 42 
Q 3188 -91 2688 -91 
Q 1594 -91 976 548 
Q 359 1188 359 2328 
Q 359 3472 976 4111 
Q 1594 4750 2688 4750 
Q 3144 4750 3555 4637 
Q 3966 4525 4313 4306 
L 4313 3634 
Q 3963 3931 3569 4081 
Q 3175 4231 2741 4231 
Q 1884 4231 1454 3753 
Q 1025 3275 1025 2328 
Q 1025 1384 1454 906 
Q 1884 428 2741 428 
Q 3075 428 3337 486 
Q 3600 544 3809 666 
z
" transform="scale(0.015625)"/>
       <path id="DejaVuSans-65" d="M 3597 1894 
L 3597 1613 
L 953 1613 
Q 991 1019 1311 708 
Q 1631 397 2203 397 
Q 2534 397 2845 478 
Q 3156 559 3463 722 
L 3463 178 
Q 3153 47 2828 -22 
Q 2503 -91 2169 -91 
Q 1331 -91 842 396 
Q 353 884 353 1716 
Q 353 2575 817 3079 
Q 1281 3584 2069 3584 
Q 2775 3584 3186 3129 
Q 3597 2675 3597 1894 
z
M 3022 2063 
Q 3016 2534 2758 2815 
Q 2500 3097 2075 3097 
Q 1594 3097 1305 2825 
Q 1016 2553 972 2059 
L 3022 2063 
z
" transform="scale(0.015625)"/>
       <path id="DejaVuSans-6e" d="M 3513 2113 
L 3513 0 
L 2938 0 
L 2938 2094 
Q 2938 2591 2744 2837 
Q 2550 3084 2163 3084 
Q 1697 3084 1428 2787 
Q 1159 2491 1159 1978 
L 1159 0 
L 581 0 
L 581 3500 
L 1159 3500 
L 1159 2956 
Q 1366 3272 1645 3428 
Q 1925 3584 2291 3584 
Q 2894 3584 3203 3211 
Q 3513 2838 3513 2113 
z
" transform="scale(0.015625)"/>
       <path id="DejaVuSans-72" d="M 2631 2963 
Q 2534 3019 2420 3045 
Q 2306 3072 2169 3072 
Q 1681 3072 1420 2755 
Q 1159 2438 1159 1844 
L 1159 0 
L 581 0 
L 581 3500 
L 1159 3500 
L 1159 2956 
Q 1341 3275 1631 3429 
Q 1922 3584 2338 3584 
Q 2397 3584 2469 3576 
Q 2541 3569 2628 3553 
L 2631 2963 
z
" transform="scale(0.015625)"/>
       <path id="DejaVuSans-61" d="M 2194 1759 
Q 1497 1759 1228 1600 
Q 959 1441 959 1056 
Q 959 750 1161 570 
Q 1363 391 1709 391 
Q 2188 391 2477 730 
Q 2766 1069 2766 1631 
L 2766 1759 
L 2194 1759 
z
M 3341 1997 
L 3341 0 
L 2766 0 
L 2766 531 
Q 2569 213 2275 61 
Q 1981 -91 1556 -91 
Q 1019 -91 701 211 
Q 384 513 384 1019 
Q 384 1609 779 1909 
Q 1175 2209 1959 2209 
L 2766 2209 
L 2766 2266 
Q 2766 2663 2505 2880 
Q 2244 3097 1772 3097 
Q 1472 3097 1187 3025 
Q 903 2953 641 2809 
L 641 3341 
Q 956 3463 1253 3523 
Q 1550 3584 1831 3584 
Q 2591 3584 2966 3190 
Q 3341 2797 3341 1997 
z
" transform="scale(0.015625)"/>
       <path id="DejaVuSans-74" d="M 1172 4494 
L 1172 3500 
L 2356 3500 
L 2356 3053 
L 1172 3053 
L 1172 1153 
Q 1172 725 1289 603 
Q 1406 481 1766 481 
L 2356 481 
L 2356 0 
L 1766 0 
Q 1100 0 847 248 
Q 594 497 594 1153 
L 594 3053 
L 172 3053 
L 172 3500 
L 594 3500 
L 594 4494 
L 1172 4494 
z
" transform="scale(0.015625)"/>
       <path id="DejaVuSans-69" d="M 603 3500 
L 1178 3500 
L 1178 0 
L 603 0 
L 603 3500 
z
M 603 4863 
L 1178 4863 
L 1178 4134 
L 603 4134 
L 603 4863 
z
" transform="scale(0.015625)"/>
       <path id="DejaVuSans-6f" d="M 1959 3097 
Q 1497 3097 1228 2736 
Q 959 2375 959 1747 
Q 959 1119 1226 758 
Q 1494 397 1959 397 
Q 2419 397 2687 759 
Q 2956 1122 2956 1747 
Q 2956 2369 2687 2733 
Q 2419 3097 1959 3097 
z
M 1959 3584 
Q 2709 3584 3137 3096 
Q 3566 2609 3566 1747 
Q 3566 888 3137 398 
Q 2709 -91 1959 -91 
Q 1206 -91 779 398 
Q 353 888 353 1747 
Q 353 2609 779 3096 
Q 1206 3584 1959 3584 
z
" transform="scale(0.015625)"/>
       <path id="DejaVuSans-73" d="M 2834 3397 
L 2834 2853 
Q 2591 2978 2328 3040 
Q 2066 3103 1784 3103 
Q 1356 3103 1142 2972 
Q 928 2841 928 2578 
Q 928 2378 1081 2264 
Q 1234 2150 1697 2047 
L 1894 2003 
Q 2506 1872 2764 1633 
Q 3022 1394 3022 966 
Q 3022 478 2636 193 
Q 2250 -91 1575 -91 
Q 1294 -91 989 -36 
Q 684 19 347 128 
L 347 722 
Q 666 556 975 473 
Q 1284 391 1588 391 
Q 1994 391 2212 530 
Q 2431 669 2431 922 
Q 2431 1156 2273 1281 
Q 2116 1406 1581 1522 
L 1381 1569 
Q 847 1681 609 1914 
Q 372 2147 372 2553 
Q 372 3047 722 3315 
Q 1072 3584 1716 3584 
Q 2034 3584 2315 3537 
Q 2597 3491 2834 3397 
z
" transform="scale(0.015625)"/>
      </defs>
      <use xlink:href="#DejaVuSans-47"/>
      <use xlink:href="#DejaVuSans-65" transform="translate(77.490234 0)"/>
      <use xlink:href="#DejaVuSans-6e" transform="translate(139.013672 0)"/>
      <use xlink:href="#DejaVuSans-65" transform="translate(202.392578 0)"/>
      <use xlink:href="#DejaVuSans-72" transform="translate(263.916016 0)"/>
      <use xlink:href="#DejaVuSans-61" transform="translate(305.029297 0)"/>
      <use xlink:href="#DejaVuSans-74" transform="translate(366.308594 0)"/>
      <use xlink:href="#DejaVuSans-69" transform="translate(405.517578 0)"/>
      <use xlink:href="#DejaVuSans-6f" transform="translate(433.300781 0)"/>
      <use xlink:href="#DejaVuSans-6e" transform="translate(494.482422 0)"/>
      <use xlink:href="#DejaVuSans-73" transform="translate(557.861328 0)"/>
     </g>
    </g>
   </g>
   <g id="matplotlib.axis_2">
    <g id="ytick_1">
     <g id="line2d_19">
      <path d="M 57.6 86.346126 
L 414.72 86.346126 
" clip-path="url(#p28fc0495dd)" style="fill: none; stroke: #b0b0b0; stroke-width: 0.8; stroke-linecap: square"/>
     </g>
     <g id="line2d_20">
      <defs>
       <path id="mf71497a59a" d="M 0 0 
L -3.5 0 
" style="stroke: #000000; stroke-width: 0.8"/>
      </defs>
      <g>
       <use xlink:href="#mf71497a59a" x="57.6" y="86.346126" style="stroke: #000000; stroke-width: 0.8"/>
      </g>
     </g>
     <g id="text_11">
      <!-- $\mathdefault{-10^{2}}$ -->
      <g transform="translate(24.6 90.145345) scale(0.1 -0.1)">
       <defs>
        <path id="DejaVuSans-2212" d="M 678 2272 
L 4684 2272 
L 4684 1741 
L 678 1741 
L 678 2272 
z
" transform="scale(0.015625)"/>
       </defs>
       <use xlink:href="#DejaVuSans-2212" transform="translate(0 0.765625)"/>
       <use xlink:href="#DejaVuSans-31" transform="translate(83.789062 0.765625)"/>
       <use xlink:href="#DejaVuSans-30" transform="translate(147.412109 0.765625)"/>
       <use xlink:href="#DejaVuSans-32" transform="translate(211.992188 39.046875) scale(0.7)"/>
      </g>
     </g>
    </g>
    <g id="text_12">
     <!-- Fitness -->
     <g transform="translate(18.520312 191.845187) rotate(-90) scale(0.1 -0.1)">
      <defs>
       <path id="DejaVuSans-46" d="M 628 4666 
L 3309 4666 
L 3309 4134 
L 1259 4134 
L 1259 2759 
L 3109 2759 
L 3109 2228 
L 1259 2228 
L 1259 0 
L 628 0 
L 628 4666 
z
" transform="scale(0.015625)"/>
      </defs>
      <use xlink:href="#DejaVuSans-46"/>
      <use xlink:href="#DejaVuSans-69" transform="translate(50.269531 0)"/>
      <use xlink:href="#DejaVuSans-74" transform="translate(78.052734 0)"/>
      <use xlink:href="#DejaVuSans-6e" transform="translate(117.261719 0)"/>
      <use xlink:href="#DejaVuSans-65" transform="translate(180.640625 0)"/>
      <use xlink:href="#DejaVuSans-73" transform="translate(242.164062 0)"/>
      <use xlink:href="#DejaVuSans-73" transform="translate(294.263672 0)"/>
     </g>
    </g>
   </g>
   <g id="line2d_21">
    <path d="M 73.832727 295.488 
L 75.464157 293.942357 
L 77.095587 278.787602 
L 78.727017 268.619918 
L 80.358447 255.375774 
L 81.989877 251.674315 
L 83.621307 246.821505 
L 85.252736 238.058713 
L 86.884166 242.992576 
L 88.515596 230.459407 
L 90.147026 215.1175 
L 91.778456 216.650694 
L 93.409886 210.553047 
L 95.041316 180.184629 
L 96.672746 188.294767 
L 98.304175 182.641512 
L 99.935605 180.822119 
L 101.567035 184.430478 
L 103.198465 176.466131 
L 104.829895 172.266467 
L 106.461325 184.582934 
L 108.092755 173.041155 
L 109.724185 183.119379 
L 111.355614 175.916729 
L 112.987044 181.457939 
L 114.618474 168.926154 
L 116.249904 181.628788 
L 117.881334 176.146354 
L 119.512764 173.149517 
L 121.144194 182.725206 
L 122.775624 172.357026 
L 124.407053 179.724725 
L 126.038483 172.919847 
L 127.669913 174.491527 
L 129.301343 174.136643 
L 130.932773 170.401775 
L 132.564203 168.313347 
L 134.195633 166.796084 
L 135.827063 164.374873 
L 139.089922 177.938481 
L 140.721352 164.198749 
L 142.352782 159.754725 
L 143.984212 172.001493 
L 145.615642 166.55695 
L 147.247072 160.395182 
L 148.878502 167.496797 
L 150.509931 180.114237 
L 152.141361 170.011558 
L 153.772791 168.534242 
L 155.404221 171.462603 
L 157.035651 159.303712 
L 158.667081 169.244036 
L 160.298511 164.056514 
L 161.929941 165.983688 
L 163.56137 164.690174 
L 165.1928 161.612028 
L 166.82423 164.272709 
L 168.45566 165.818372 
L 170.08709 166.391323 
L 171.71852 169.016455 
L 173.34995 167.287403 
L 174.98138 166.235303 
L 176.61281 161.996832 
L 178.244239 163.394263 
L 179.875669 166.066737 
L 181.507099 173.903914 
L 183.138529 169.899852 
L 184.769959 165.24471 
L 186.401389 163.064944 
L 188.032819 164.148276 
L 189.664249 168.445603 
L 191.295678 168.250881 
L 192.927108 164.942902 
L 194.558538 171.08692 
L 196.189968 167.902596 
L 197.821398 166.128475 
L 199.452828 173.041078 
L 201.084258 162.533105 
L 202.715688 165.545983 
L 204.347117 177.217343 
L 205.978547 164.876954 
L 207.609977 164.148703 
L 209.241407 167.067603 
L 210.872837 167.506062 
L 212.504267 164.664487 
L 214.135697 168.900485 
L 215.767127 165.209509 
L 217.398556 163.874412 
L 219.029986 159.556247 
L 220.661416 168.526553 
L 222.292846 167.509299 
L 223.924276 165.003431 
L 225.555706 164.327663 
L 227.187136 162.497773 
L 228.818566 173.07585 
L 230.449995 166.064929 
L 232.081425 156.787998 
L 233.712855 167.840526 
L 235.344285 164.880828 
L 236.975715 164.488566 
L 238.607145 159.590197 
L 240.238575 161.602696 
L 241.870005 162.691685 
L 243.501434 164.667021 
L 245.132864 163.929656 
L 246.764294 162.754368 
L 248.395724 167.175977 
L 250.027154 165.068344 
L 251.658584 164.457683 
L 253.290014 164.759636 
L 254.921444 161.140723 
L 256.552873 163.989871 
L 258.184303 168.026123 
L 259.815733 167.991184 
L 261.447163 156.774228 
L 263.078593 164.44772 
L 264.710023 164.389622 
L 266.341453 162.347689 
L 267.972883 160.776744 
L 269.604312 162.18568 
L 271.235742 163.007611 
L 272.867172 154.386139 
L 274.498602 163.693327 
L 276.130032 158.177666 
L 277.761462 160.778851 
L 279.392892 159.744881 
L 281.024322 157.286382 
L 282.655751 159.060842 
L 284.287181 157.399007 
L 285.918611 162.274982 
L 287.550041 164.951839 
L 289.181471 169.372257 
L 290.812901 158.734891 
L 292.444331 165.814498 
L 294.075761 157.894259 
L 295.70719 166.447856 
L 297.33862 160.748795 
L 298.97005 156.112625 
L 300.60148 159.521134 
L 302.23291 162.650465 
L 303.86434 163.502638 
L 305.49577 159.134583 
L 307.1272 161.100247 
L 308.75863 154.874572 
L 310.390059 164.36108 
L 312.021489 155.121314 
L 313.652919 158.761849 
L 315.284349 161.69007 
L 316.915779 168.052377 
L 318.547209 160.195885 
L 320.178639 159.313842 
L 321.810069 164.7503 
L 323.441498 157.715592 
L 325.072928 163.659824 
L 326.704358 164.643963 
L 328.335788 155.598503 
L 329.967218 168.129291 
L 331.598648 161.292656 
L 333.230078 165.782726 
L 334.861508 165.053585 
L 336.492937 164.50242 
L 338.124367 162.541651 
L 339.755797 161.983315 
L 341.387227 163.185786 
L 343.018657 168.333272 
L 344.650087 164.982662 
L 346.281517 163.63442 
L 347.912947 165.14279 
L 349.544376 166.825493 
L 351.175806 164.339891 
L 352.807236 163.536554 
L 354.438666 166.253388 
L 356.070096 165.260128 
L 357.701526 162.640177 
L 359.332956 164.793435 
L 360.964386 161.689273 
L 362.595815 164.070516 
L 364.227245 165.789909 
L 365.858675 163.783349 
L 367.490105 167.46746 
L 369.121535 163.473773 
L 370.752965 165.97045 
L 372.384395 163.935443 
L 374.015825 170.00191 
L 375.647254 174.452889 
L 377.278684 161.052585 
L 378.910114 165.858511 
L 380.541544 161.756497 
L 382.172974 163.616832 
L 383.804404 163.09612 
L 385.435834 168.280376 
L 387.067264 159.935504 
L 388.698693 163.868156 
L 390.330123 165.463621 
L 391.961553 162.935787 
L 393.592983 166.846111 
L 395.224413 169.670945 
L 396.855843 161.960993 
L 398.487273 167.686811 
L 398.487273 167.686811 
" clip-path="url(#p28fc0495dd)" style="fill: none; stroke: #0000ff; stroke-width: 1.5; stroke-linecap: square"/>
   </g>
   <g id="line2d_22">
    <path d="M 73.832727 250.382637 
L 75.464157 234.224423 
L 77.095587 222.515451 
L 78.727017 199.395632 
L 83.621307 173.500032 
L 85.252736 159.405731 
L 86.884166 170.750693 
L 88.515596 159.21768 
L 90.147026 151.610798 
L 91.778456 137.48339 
L 93.409886 134.740505 
L 95.041316 111.484195 
L 96.672746 110.833431 
L 98.304175 138.60446 
L 99.935605 126.965112 
L 101.567035 92.816191 
L 103.198465 120.615919 
L 104.829895 88.915719 
L 106.461325 121.280293 
L 108.092755 112.047273 
L 109.724185 110.278242 
L 111.355614 106.327811 
L 112.987044 103.137196 
L 114.618474 124.535068 
L 116.249904 111.910507 
L 117.881334 96.8139 
L 119.512764 132.390179 
L 121.144194 103.087682 
L 122.775624 127.113305 
L 124.407053 120.95574 
L 126.038483 129.551221 
L 127.669913 123.269882 
L 129.301343 111.339043 
L 130.932773 116.027075 
L 132.564203 116.53859 
L 134.195633 106.71282 
L 135.827063 126.22218 
L 137.458492 84.71303 
L 139.089922 92.844227 
L 140.721352 110.900036 
L 142.352782 114.828137 
L 143.984212 74.378729 
L 145.615642 112.659778 
L 147.247072 124.734705 
L 148.878502 104.52326 
L 150.509931 61.385944 
L 152.141361 114.594622 
L 153.772791 100.302439 
L 155.404221 102.458685 
L 157.035651 112.017021 
L 158.667081 123.456146 
L 160.298511 106.133407 
L 161.929941 109.774382 
L 163.56137 110.107412 
L 165.1928 124.146507 
L 166.82423 125.319935 
L 168.45566 125.884652 
L 170.08709 116.027578 
L 171.71852 111.182441 
L 173.34995 94.261646 
L 174.98138 106.308167 
L 176.61281 114.390822 
L 179.875669 120.128462 
L 181.507099 86.07548 
L 183.138529 85.716937 
L 184.769959 123.934403 
L 186.401389 124.440576 
L 188.032819 126.018498 
L 189.664249 108.476196 
L 191.295678 114.607513 
L 192.927108 104.048234 
L 194.558538 98.302939 
L 196.189968 108.514463 
L 197.821398 122.108747 
L 199.452828 111.952352 
L 201.084258 116.618974 
L 202.715688 127.261261 
L 204.347117 95.51363 
L 205.978547 129.020512 
L 207.609977 111.449626 
L 209.241407 128.854359 
L 210.872837 127.521002 
L 212.504267 129.224992 
L 214.135697 116.364521 
L 215.767127 107.832471 
L 217.398556 122.9549 
L 219.029986 125.873107 
L 220.661416 97.162708 
L 222.292846 89.603455 
L 223.924276 127.583513 
L 227.187136 116.182396 
L 228.818566 99.827927 
L 230.449995 102.069729 
L 232.081425 116.741577 
L 233.712855 126.51499 
L 235.344285 123.248648 
L 236.975715 117.447026 
L 238.607145 121.697516 
L 240.238575 118.971661 
L 241.870005 110.160078 
L 243.501434 114.132893 
L 245.132864 119.029091 
L 246.764294 122.250136 
L 248.395724 111.273132 
L 250.027154 101.485703 
L 251.658584 111.874122 
L 253.290014 102.645593 
L 254.921444 116.398962 
L 256.552873 120.218335 
L 258.184303 95.91682 
L 259.815733 78.437413 
L 261.447163 121.510907 
L 263.078593 123.969909 
L 264.710023 120.431219 
L 266.341453 108.442424 
L 267.972883 117.964756 
L 269.604312 116.355206 
L 271.235742 80.559376 
L 272.867172 118.415792 
L 274.498602 100.9086 
L 276.130032 124.145436 
L 277.761462 123.798 
L 279.392892 111.830785 
L 281.024322 120.224603 
L 282.655751 122.586937 
L 284.287181 117.227892 
L 285.918611 118.637237 
L 287.550041 118.32272 
L 289.181471 78.917808 
L 290.812901 119.517143 
L 292.444331 101.203366 
L 294.075761 120.711779 
L 295.70719 90.742278 
L 297.33862 114.117132 
L 298.97005 118.445357 
L 300.60148 118.133147 
L 302.23291 117.572744 
L 303.86434 110.555406 
L 305.49577 122.489306 
L 307.1272 95.875448 
L 308.75863 120.648555 
L 310.390059 95.986267 
L 312.021489 107.989048 
L 313.652919 109.17997 
L 315.284349 117.076495 
L 316.915779 113.636165 
L 318.547209 120.150019 
L 320.178639 120.891417 
L 321.810069 101.405157 
L 323.441498 122.475227 
L 326.704358 108.929969 
L 328.335788 121.433886 
L 329.967218 122.543291 
L 331.598648 128.739123 
L 333.230078 123.136292 
L 334.861508 121.928393 
L 336.492937 132.004693 
L 338.124367 131.554881 
L 339.755797 131.64075 
L 341.387227 132.267373 
L 343.018657 128.502573 
L 344.650087 133.769207 
L 346.281517 125.145207 
L 347.912947 130.996892 
L 349.544376 122.557199 
L 351.175806 118.467321 
L 352.807236 129.274069 
L 354.438666 134.827311 
L 356.070096 130.647109 
L 357.701526 130.098071 
L 359.332956 131.740521 
L 360.964386 126.045038 
L 362.595815 128.778884 
L 364.227245 134.390449 
L 365.858675 129.393272 
L 367.490105 118.272249 
L 369.121535 129.023315 
L 370.752965 105.200713 
L 372.384395 131.0475 
L 374.015825 126.827562 
L 375.647254 93.73985 
L 377.278684 127.959627 
L 378.910114 130.596516 
L 380.541544 132.94213 
L 382.172974 103.030161 
L 383.804404 131.588684 
L 385.435834 89.131599 
L 387.067264 124.730737 
L 388.698693 128.433588 
L 390.330123 131.008097 
L 391.961553 130.806011 
L 393.592983 115.691433 
L 395.224413 79.189015 
L 396.855843 129.094285 
L 398.487273 130.07653 
L 398.487273 130.07653 
" clip-path="url(#p28fc0495dd)" style="fill: none; stroke-dasharray: 9.6,2.4,1.5,2.4; stroke-dashoffset: 0; stroke: #008000; stroke-width: 1.5"/>
   </g>
   <g id="line2d_23">
    <path d="M 73.832727 117.770591 
L 75.464157 115.405714 
L 77.095587 110.222055 
L 78.727017 110.660042 
L 80.358447 106.49475 
L 81.989877 97.600816 
L 83.621307 96.043913 
L 85.252736 89.760258 
L 86.884166 92.219783 
L 88.515596 99.497561 
L 90.147026 100.423567 
L 91.778456 102.765254 
L 93.409886 90.139265 
L 95.041316 93.208774 
L 96.672746 82.686932 
L 98.304175 94.545247 
L 99.935605 82.274571 
L 101.567035 92.779213 
L 103.198465 95.424874 
L 104.829895 88.393448 
L 106.461325 89.668233 
L 108.092755 88.929819 
L 109.724185 94.684486 
L 111.355614 89.017123 
L 112.987044 90.439309 
L 114.618474 83.568954 
L 116.249904 67.047186 
L 117.881334 91.368522 
L 119.512764 85.582541 
L 121.144194 91.981505 
L 122.775624 73.060684 
L 124.407053 97.963091 
L 126.038483 91.412724 
L 127.669913 96.055001 
L 129.301343 62.573763 
L 130.932773 99.492266 
L 132.564203 93.268285 
L 134.195633 95.342867 
L 135.827063 102.599267 
L 137.458492 90.029264 
L 139.089922 99.407462 
L 140.721352 92.015245 
L 142.352782 71.388845 
L 143.984212 78.360376 
L 145.615642 97.487284 
L 147.247072 91.726737 
L 148.878502 91.023889 
L 150.509931 96.873949 
L 152.141361 76.655166 
L 153.772791 86.492734 
L 155.404221 93.475952 
L 157.035651 77.602401 
L 158.667081 83.454886 
L 160.298511 77.542438 
L 161.929941 93.462533 
L 163.56137 90.983044 
L 165.1928 92.145494 
L 166.82423 91.618918 
L 168.45566 89.901138 
L 170.08709 98.833053 
L 171.71852 98.692063 
L 173.34995 67.928967 
L 174.98138 81.591689 
L 178.244239 88.621379 
L 179.875669 80.973925 
L 181.507099 97.133198 
L 183.138529 80.072027 
L 184.769959 73.162781 
L 186.401389 90.503662 
L 188.032819 92.37422 
L 189.664249 80.080149 
L 191.295678 76.647043 
L 192.927108 90.046635 
L 194.558538 67.181773 
L 196.189968 97.639542 
L 197.821398 93.862359 
L 199.452828 84.930491 
L 201.084258 89.902061 
L 202.715688 79.471415 
L 204.347117 99.667313 
L 205.978547 85.942034 
L 207.609977 77.932038 
L 209.241407 85.499586 
L 210.872837 91.874243 
L 212.504267 100.952269 
L 214.135697 90.640754 
L 215.767127 71.057318 
L 217.398556 82.909787 
L 219.029986 98.80889 
L 220.661416 86.43506 
L 222.292846 91.912622 
L 223.924276 90.902111 
L 225.555706 87.545876 
L 227.187136 80.837839 
L 228.818566 94.685821 
L 230.449995 84.118209 
L 232.081425 85.640497 
L 233.712855 73.884155 
L 235.344285 93.511799 
L 236.975715 102.389249 
L 238.607145 91.275978 
L 240.238575 77.942435 
L 241.870005 85.363138 
L 243.501434 83.628617 
L 245.132864 93.723386 
L 246.764294 91.051576 
L 248.395724 76.768278 
L 250.027154 98.413293 
L 251.658584 70.814697 
L 253.290014 96.970841 
L 254.921444 90.83171 
L 256.552873 90.32586 
L 258.184303 95.137721 
L 259.815733 80.632344 
L 261.447163 92.236763 
L 263.078593 90.893889 
L 264.710023 78.348044 
L 266.341453 86.230975 
L 267.972883 83.997954 
L 269.604312 106.898228 
L 271.235742 93.779527 
L 272.867172 87.752805 
L 274.498602 97.860536 
L 276.130032 70.518009 
L 277.761462 72.537926 
L 279.392892 90.209437 
L 281.024322 95.076445 
L 282.655751 76.910265 
L 284.287181 74.679293 
L 285.918611 93.827369 
L 287.550041 93.927073 
L 289.181471 100.775836 
L 290.812901 89.01817 
L 292.444331 92.63641 
L 294.075761 96.698706 
L 295.70719 98.485959 
L 297.33862 94.045282 
L 298.97005 84.910103 
L 300.60148 82.643662 
L 302.23291 100.792854 
L 303.86434 81.880433 
L 305.49577 93.579896 
L 307.1272 75.936027 
L 308.75863 80.835482 
L 310.390059 79.002391 
L 312.021489 87.714332 
L 313.652919 80.133791 
L 315.284349 90.553729 
L 318.547209 99.64747 
L 320.178639 93.682154 
L 321.810069 85.902399 
L 323.441498 89.456766 
L 325.072928 93.344972 
L 326.704358 55.35141 
L 328.335788 95.204779 
L 329.967218 100.678864 
L 331.598648 102.926857 
L 333.230078 88.448035 
L 334.861508 96.159666 
L 336.492937 91.981819 
L 338.124367 90.026328 
L 339.755797 92.748624 
L 341.387227 94.59295 
L 343.018657 89.430729 
L 344.650087 98.739547 
L 346.281517 97.602658 
L 347.912947 92.593904 
L 349.544376 53.568 
L 351.175806 78.807266 
L 352.807236 98.449817 
L 354.438666 83.029076 
L 356.070096 85.606877 
L 357.701526 83.825492 
L 359.332956 91.027384 
L 360.964386 86.034603 
L 362.595815 90.915427 
L 364.227245 94.716436 
L 365.858675 86.231027 
L 367.490105 73.252924 
L 369.121535 77.777543 
L 370.752965 75.58474 
L 372.384395 75.785756 
L 374.015825 97.920747 
L 375.647254 80.249267 
L 377.278684 80.604 
L 378.910114 84.995277 
L 380.541544 87.054103 
L 382.172974 80.551666 
L 383.804404 91.129316 
L 385.435834 80.289545 
L 387.067264 80.323723 
L 388.698693 97.919989 
L 390.330123 80.167936 
L 391.961553 94.063675 
L 393.592983 90.974746 
L 395.224413 90.320242 
L 396.855843 91.14075 
L 398.487273 96.077036 
L 398.487273 96.077036 
" clip-path="url(#p28fc0495dd)" style="fill: none; stroke: #ff0000; stroke-width: 1.5; stroke-linecap: square"/>
   </g>
   <g id="patch_3">
    <path d="M 57.6 307.584 
L 57.6 41.472 
" style="fill: none; stroke: #000000; stroke-width: 0.8; stroke-linejoin: miter; stroke-linecap: square"/>
   </g>
   <g id="patch_4">
    <path d="M 414.72 307.584 
L 414.72 41.472 
" style="fill: none; stroke: #000000; stroke-width: 0.8; stroke-linejoin: miter; stroke-linecap: square"/>
   </g>
   <g id="patch_5">
    <path d="M 57.6 307.584 
L 414.72 307.584 
" style="fill: none; stroke: #000000; stroke-width: 0.8; stroke-linejoin: miter; stroke-linecap: square"/>
   </g>
   <g id="patch_6">
    <path d="M 57.6 41.472 
L 414.72 41.472 
" style="fill: none; stroke: #000000; stroke-width: 0.8; stroke-linejoin: miter; stroke-linecap: square"/>
   </g>
   <g id="text_13">
    <!-- Population's average and best fitness -->
    <g transform="translate(123.529687 35.472) scale(0.12 -0.12)">
     <defs>
      <path id="DejaVuSans-50" d="M 1259 4147 
L 1259 2394 
L 2053 2394 
Q 2494 2394 2734 2622 
Q 2975 2850 2975 3272 
Q 2975 3691 2734 3919 
Q 2494 4147 2053 4147 
L 1259 4147 
z
M 628 4666 
L 2053 4666 
Q 2838 4666 3239 4311 
Q 3641 3956 3641 3272 
Q 3641 2581 3239 2228 
Q 2838 1875 2053 1875 
L 1259 1875 
L 1259 0 
L 628 0 
L 628 4666 
z
" transform="scale(0.015625)"/>
      <path id="DejaVuSans-70" d="M 1159 525 
L 1159 -1331 
L 581 -1331 
L 581 3500 
L 1159 3500 
L 1159 2969 
Q 1341 3281 1617 3432 
Q 1894 3584 2278 3584 
Q 2916 3584 3314 3078 
Q 3713 2572 3713 1747 
Q 3713 922 3314 415 
Q 2916 -91 2278 -91 
Q 1894 -91 1617 61 
Q 1341 213 1159 525 
z
M 3116 1747 
Q 3116 2381 2855 2742 
Q 2594 3103 2138 3103 
Q 1681 3103 1420 2742 
Q 1159 2381 1159 1747 
Q 1159 1113 1420 752 
Q 1681 391 2138 391 
Q 2594 391 2855 752 
Q 3116 1113 3116 1747 
z
" transform="scale(0.015625)"/>
      <path id="DejaVuSans-75" d="M 544 1381 
L 544 3500 
L 1119 3500 
L 1119 1403 
Q 1119 906 1312 657 
Q 1506 409 1894 409 
Q 2359 409 2629 706 
Q 2900 1003 2900 1516 
L 2900 3500 
L 3475 3500 
L 3475 0 
L 2900 0 
L 2900 538 
Q 2691 219 2414 64 
Q 2138 -91 1772 -91 
Q 1169 -91 856 284 
Q 544 659 544 1381 
z
M 1991 3584 
L 1991 3584 
z
" transform="scale(0.015625)"/>
      <path id="DejaVuSans-6c" d="M 603 4863 
L 1178 4863 
L 1178 0 
L 603 0 
L 603 4863 
z
" transform="scale(0.015625)"/>
      <path id="DejaVuSans-27" d="M 1147 4666 
L 1147 2931 
L 616 2931 
L 616 4666 
L 1147 4666 
z
" transform="scale(0.015625)"/>
      <path id="DejaVuSans-20" transform="scale(0.015625)"/>
      <path id="DejaVuSans-76" d="M 191 3500 
L 800 3500 
L 1894 563 
L 2988 3500 
L 3597 3500 
L 2284 0 
L 1503 0 
L 191 3500 
z
" transform="scale(0.015625)"/>
      <path id="DejaVuSans-67" d="M 2906 1791 
Q 2906 2416 2648 2759 
Q 2391 3103 1925 3103 
Q 1463 3103 1205 2759 
Q 947 2416 947 1791 
Q 947 1169 1205 825 
Q 1463 481 1925 481 
Q 2391 481 2648 825 
Q 2906 1169 2906 1791 
z
M 3481 434 
Q 3481 -459 3084 -895 
Q 2688 -1331 1869 -1331 
Q 1566 -1331 1297 -1286 
Q 1028 -1241 775 -1147 
L 775 -588 
Q 1028 -725 1275 -790 
Q 1522 -856 1778 -856 
Q 2344 -856 2625 -561 
Q 2906 -266 2906 331 
L 2906 616 
Q 2728 306 2450 153 
Q 2172 0 1784 0 
Q 1141 0 747 490 
Q 353 981 353 1791 
Q 353 2603 747 3093 
Q 1141 3584 1784 3584 
Q 2172 3584 2450 3431 
Q 2728 3278 2906 2969 
L 2906 3500 
L 3481 3500 
L 3481 434 
z
" transform="scale(0.015625)"/>
      <path id="DejaVuSans-64" d="M 2906 2969 
L 2906 4863 
L 3481 4863 
L 3481 0 
L 2906 0 
L 2906 525 
Q 2725 213 2448 61 
Q 2172 -91 1784 -91 
Q 1150 -91 751 415 
Q 353 922 353 1747 
Q 353 2572 751 3078 
Q 1150 3584 1784 3584 
Q 2172 3584 2448 3432 
Q 2725 3281 2906 2969 
z
M 947 1747 
Q 947 1113 1208 752 
Q 1469 391 1925 391 
Q 2381 391 2643 752 
Q 2906 1113 2906 1747 
Q 2906 2381 2643 2742 
Q 2381 3103 1925 3103 
Q 1469 3103 1208 2742 
Q 947 2381 947 1747 
z
" transform="scale(0.015625)"/>
      <path id="DejaVuSans-62" d="M 3116 1747 
Q 3116 2381 2855 2742 
Q 2594 3103 2138 3103 
Q 1681 3103 1420 2742 
Q 1159 2381 1159 1747 
Q 1159 1113 1420 752 
Q 1681 391 2138 391 
Q 2594 391 2855 752 
Q 3116 1113 3116 1747 
z
M 1159 2969 
Q 1341 3281 1617 3432 
Q 1894 3584 2278 3584 
Q 2916 3584 3314 3078 
Q 3713 2572 3713 1747 
Q 3713 922 3314 415 
Q 2916 -91 2278 -91 
Q 1894 -91 1617 61 
Q 1341 213 1159 525 
L 1159 0 
L 581 0 
L 581 4863 
L 1159 4863 
L 1159 2969 
z
" transform="scale(0.015625)"/>
      <path id="DejaVuSans-66" d="M 2375 4863 
L 2375 4384 
L 1825 4384 
Q 1516 4384 1395 4259 
Q 1275 4134 1275 3809 
L 1275 3500 
L 2222 3500 
L 2222 3053 
L 1275 3053 
L 1275 0 
L 697 0 
L 697 3053 
L 147 3053 
L 147 3500 
L 697 3500 
L 697 3744 
Q 697 4328 969 4595 
Q 1241 4863 1831 4863 
L 2375 4863 
z
" transform="scale(0.015625)"/>
     </defs>
     <use xlink:href="#DejaVuSans-50"/>
     <use xlink:href="#DejaVuSans-6f" transform="translate(56.677734 0)"/>
     <use xlink:href="#DejaVuSans-70" transform="translate(117.859375 0)"/>
     <use xlink:href="#DejaVuSans-75" transform="translate(181.335938 0)"/>
     <use xlink:href="#DejaVuSans-6c" transform="translate(244.714844 0)"/>
     <use xlink:href="#DejaVuSans-61" transform="translate(272.498047 0)"/>
     <use xlink:href="#DejaVuSans-74" transform="translate(333.777344 0)"/>
     <use xlink:href="#DejaVuSans-69" transform="translate(372.986328 0)"/>
     <use xlink:href="#DejaVuSans-6f" transform="translate(400.769531 0)"/>
     <use xlink:href="#DejaVuSans-6e" transform="translate(461.951172 0)"/>
     <use xlink:href="#DejaVuSans-27" transform="translate(525.330078 0)"/>
     <use xlink:href="#DejaVuSans-73" transform="translate(552.820312 0)"/>
     <use xlink:href="#DejaVuSans-20" transform="translate(604.919922 0)"/>
     <use xlink:href="#DejaVuSans-61" transform="translate(636.707031 0)"/>
     <use xlink:href="#DejaVuSans-76" transform="translate(697.986328 0)"/>
     <use xlink:href="#DejaVuSans-65" transform="translate(757.166016 0)"/>
     <use xlink:href="#DejaVuSans-72" transform="translate(818.689453 0)"/>
     <use xlink:href="#DejaVuSans-61" transform="translate(859.802734 0)"/>
     <use xlink:href="#DejaVuSans-67" transform="translate(921.082031 0)"/>
     <use xlink:href="#DejaVuSans-65" transform="translate(984.558594 0)"/>
     <use xlink:href="#DejaVuSans-20" transform="translate(1046.082031 0)"/>
     <use xlink:href="#DejaVuSans-61" transform="translate(1077.869141 0)"/>
     <use xlink:href="#DejaVuSans-6e" transform="translate(1139.148438 0)"/>
     <use xlink:href="#DejaVuSans-64" transform="translate(1202.527344 0)"/>
     <use xlink:href="#DejaVuSans-20" transform="translate(1266.003906 0)"/>
     <use xlink:href="#DejaVuSans-62" transform="translate(1297.791016 0)"/>
     <use xlink:href="#DejaVuSans-65" transform="translate(1361.267578 0)"/>
     <use xlink:href="#DejaVuSans-73" transform="translate(1422.791016 0)"/>
     <use xlink:href="#DejaVuSans-74" transform="translate(1474.890625 0)"/>
     <use xlink:href="#DejaVuSans-20" transform="translate(1514.099609 0)"/>
     <use xlink:href="#DejaVuSans-66" transform="translate(1545.886719 0)"/>
     <use xlink:href="#DejaVuSans-69" transform="translate(1581.091797 0)"/>
     <use xlink:href="#DejaVuSans-74" transform="translate(1608.875 0)"/>
     <use xlink:href="#DejaVuSans-6e" transform="translate(1648.083984 0)"/>
     <use xlink:href="#DejaVuSans-65" transform="translate(1711.462891 0)"/>
     <use xlink:href="#DejaVuSans-73" transform="translate(1772.986328 0)"/>
     <use xlink:href="#DejaVuSans-73" transform="translate(1825.085938 0)"/>
    </g>
   </g>
   <g id="legend_1">
    <g id="patch_7">
     <path d="M 334.779375 302.584 
L 407.72 302.584 
Q 409.72 302.584 409.72 300.584 
L 409.72 257.549625 
Q 409.72 255.549625 407.72 255.549625 
L 334.779375 255.549625 
Q 332.779375 255.549625 332.779375 257.549625 
L 332.779375 300.584 
Q 332.779375 302.584 334.779375 302.584 
z
" style="fill: #ffffff; opacity: 0.8; stroke: #cccccc; stroke-linejoin: miter"/>
    </g>
    <g id="line2d_24">
     <path d="M 336.779375 263.648062 
L 346.779375 263.648062 
L 356.779375 263.648062 
" style="fill: none; stroke: #0000ff; stroke-width: 1.5; stroke-linecap: square"/>
    </g>
    <g id="text_14">
     <!-- average -->
     <g transform="translate(364.779375 267.148062) scale(0.1 -0.1)">
      <use xlink:href="#DejaVuSans-61"/>
      <use xlink:href="#DejaVuSans-76" transform="translate(61.279297 0)"/>
      <use xlink:href="#DejaVuSans-65" transform="translate(120.458984 0)"/>
      <use xlink:href="#DejaVuSans-72" transform="translate(181.982422 0)"/>
      <use xlink:href="#DejaVuSans-61" transform="translate(223.095703 0)"/>
      <use xlink:href="#DejaVuSans-67" transform="translate(284.375 0)"/>
      <use xlink:href="#DejaVuSans-65" transform="translate(347.851562 0)"/>
     </g>
    </g>
    <g id="line2d_25">
     <path d="M 336.779375 278.326188 
L 346.779375 278.326188 
L 356.779375 278.326188 
" style="fill: none; stroke-dasharray: 9.6,2.4,1.5,2.4; stroke-dashoffset: 0; stroke: #008000; stroke-width: 1.5"/>
    </g>
    <g id="text_15">
     <!-- +1 sd -->
     <g transform="translate(364.779375 281.826188) scale(0.1 -0.1)">
      <defs>
       <path id="DejaVuSans-2b" d="M 2944 4013 
L 2944 2272 
L 4684 2272 
L 4684 1741 
L 2944 1741 
L 2944 0 
L 2419 0 
L 2419 1741 
L 678 1741 
L 678 2272 
L 2419 2272 
L 2419 4013 
L 2944 4013 
z
" transform="scale(0.015625)"/>
      </defs>
      <use xlink:href="#DejaVuSans-2b"/>
      <use xlink:href="#DejaVuSans-31" transform="translate(83.789062 0)"/>
      <use xlink:href="#DejaVuSans-20" transform="translate(147.412109 0)"/>
      <use xlink:href="#DejaVuSans-73" transform="translate(179.199219 0)"/>
      <use xlink:href="#DejaVuSans-64" transform="translate(231.298828 0)"/>
     </g>
    </g>
    <g id="line2d_26">
     <path d="M 336.779375 293.004312 
L 346.779375 293.004312 
L 356.779375 293.004312 
" style="fill: none; stroke: #ff0000; stroke-width: 1.5; stroke-linecap: square"/>
    </g>
    <g id="text_16">
     <!-- best -->
     <g transform="translate(364.779375 296.504312) scale(0.1 -0.1)">
      <use xlink:href="#DejaVuSans-62"/>
      <use xlink:href="#DejaVuSans-65" transform="translate(63.476562 0)"/>
      <use xlink:href="#DejaVuSans-73" transform="translate(125 0)"/>
      <use xlink:href="#DejaVuSans-74" transform="translate(177.099609 0)"/>
     </g>
    </g>
   </g>
  </g>
 </g>
 <defs>
  <clipPath id="p28fc0495dd">
   <rect x="57.6" y="41.472" width="357.12" height="266.112"/>
  </clipPath>
 </defs>
</svg>
