<?xml version="1.0" encoding="utf-8" standalone="no"?>
<!DOCTYPE svg PUBLIC "-//W3C//DTD SVG 1.1//EN"
  "http://www.w3.org/Graphics/SVG/1.1/DTD/svg11.dtd">
<svg xmlns:xlink="http://www.w3.org/1999/xlink" width="460.8pt" height="345.6pt" viewBox="0 0 460.8 345.6" xmlns="http://www.w3.org/2000/svg" version="1.1">
 <metadata>
  <rdf:RDF xmlns:dc="http://purl.org/dc/elements/1.1/" xmlns:cc="http://creativecommons.org/ns#" xmlns:rdf="http://www.w3.org/1999/02/22-rdf-syntax-ns#">
   <cc:Work>
    <dc:type rdf:resource="http://purl.org/dc/dcmitype/StillImage"/>
    <dc:date>2026-04-23T23:34:16.471972</dc:date>
    <dc:format>image/svg+xml</dc:format>
    <dc:creator>
     <cc:Agent>
      <dc:title>Matplotlib v3.10.8, https://matplotlib.org/</dc:title>
     </cc:Agent>
    </dc:creator>
   </cc:Work>
  </rdf:RDF>
 </metadata>
 <defs>
  <style type="text/css">*{stroke-linejoin: round; stroke-linecap: butt}</style>
 </defs>
 <g id="figure_1">
  <g id="patch_1">
   <path d="M 0 345.6 
L 460.8 345.6 
L 460.8 0 
L 0 0 
z
" style="fill: #ffffff"/>
  </g>
  <g id="axes_1">
   <g id="patch_2">
    <path d="M 57.6 307.584 
L 414.72 307.584 
L 414.72 41.472 
L 57.6 41.472 
z
" style="fill: #ffffff"/>
   </g>
   <g id="matplotlib.axis_1">
    <g id="xtick_1">
     <g id="line2d_1">
      <path d="M 73.832727 307.584 
L 73.832727 41.472 
" clip-path="url(#p8b9f55a440)" style="fill: none; stroke: #b0b0b0; stroke-width: 0.8; stroke-linecap: square"/>
     </g>
     <g id="line2d_2">
      <defs>
       <path id="m84868abfae" d="M 0 0 
L 0 3.5 
" style="stroke: #000000; stroke-width: 0.8"/>
      </defs>
      <g>
       <use xlink:href="#m84868abfae" x="73.832727" y="307.584" style="stroke: #000000; stroke-width: 0.8"/>
      </g>
     </g>
     <g id="text_1">
      <!-- 0 -->
      <g transform="translate(70.651477 322.182437) scale(0.1 -0.1)">
       <defs>
        <path id="DejaVuSans-30" d="M 2034 4250 
Q 1547 4250 1301 3770 
Q 1056 3291 1056 2328 
Q 1056 1369 1301 889 
Q 1547 409 2034 409 
Q 2525 409 2770 889 
Q 3016 1369 3016 2328 
Q 3016 3291 2770 3770 
Q 2525 4250 2034 4250 
z
M 2034 4750 
Q 2819 4750 3233 4129 
Q 3647 3509 3647 2328 
Q 3647 1150 3233 529 
Q 2819 -91 2034 -91 
Q 1250 -91 836 529 
Q 422 1150 422 2328 
Q 422 3509 836 4129 
Q 1250 4750 2034 4750 
z
" transform="scale(0.015625)"/>
       </defs>
       <use xlink:href="#DejaVuSans-30"/>
      </g>
     </g>
    </g>
    <g id="xtick_2">
     <g id="line2d_3">
      <path d="M 114.618474 307.584 
L 114.618474 41.472 
" clip-path="url(#p8b9f55a440)" style="fill: none; stroke: #b0b0b0; stroke-width: 0.8; stroke-linecap: square"/>
     </g>
     <g id="line2d_4">
      <g>
       <use xlink:href="#m84868abfae" x="114.618474" y="307.584" style="stroke: #000000; stroke-width: 0.8"/>
      </g>
     </g>
     <g id="text_2">
      <!-- 25 -->
      <g transform="translate(108.255974 322.182437) scale(0.1 -0.1)">
       <defs>
        <path id="DejaVuSans-32" d="M 1228 531 
L 3431 531 
L 3431 0 
L 469 0 
L 469 531 
Q 828 903 1448 1529 
Q 2069 2156 2228 2338 
Q 2531 2678 2651 2914 
Q 2772 3150 2772 3378 
Q 2772 3750 2511 3984 
Q 2250 4219 1831 4219 
Q 1534 4219 1204 4116 
Q 875 4013 500 3803 
L 500 4441 
Q 881 4594 1212 4672 
Q 1544 4750 1819 4750 
Q 2544 4750 2975 4387 
Q 3406 4025 3406 3419 
Q 3406 3131 3298 2873 
Q 3191 2616 2906 2266 
Q 2828 2175 2409 1742 
Q 1991 1309 1228 531 
z
" transform="scale(0.015625)"/>
        <path id="DejaVuSans-35" d="M 691 4666 
L 3169 4666 
L 3169 4134 
L 1269 4134 
L 1269 2991 
Q 1406 3038 1543 3061 
Q 1681 3084 1819 3084 
Q 2600 3084 3056 2656 
Q 3513 2228 3513 1497 
Q 3513 744 3044 326 
Q 2575 -91 1722 -91 
Q 1428 -91 1123 -41 
Q 819 9 494 109 
L 494 744 
Q 775 591 1075 516 
Q 1375 441 1709 441 
Q 2250 441 2565 725 
Q 2881 1009 2881 1497 
Q 2881 1984 2565 2268 
Q 2250 2553 1709 2553 
Q 1456 2553 1204 2497 
Q 953 2441 691 2322 
L 691 4666 
z
" transform="scale(0.015625)"/>
       </defs>
       <use xlink:href="#DejaVuSans-32"/>
       <use xlink:href="#DejaVuSans-35" transform="translate(63.623047 0)"/>
      </g>
     </g>
    </g>
    <g id="xtick_3">
     <g id="line2d_5">
      <path d="M 155.404221 307.584 
L 155.404221 41.472 
" clip-path="url(#p8b9f55a440)" style="fill: none; stroke: #b0b0b0; stroke-width: 0.8; stroke-linecap: square"/>
     </g>
     <g id="line2d_6">
      <g>
       <use xlink:href="#m84868abfae" x="155.404221" y="307.584" style="stroke: #000000; stroke-width: 0.8"/>
      </g>
     </g>
     <g id="text_3">
      <!-- 50 -->
      <g transform="translate(149.041721 322.182437) scale(0.1 -0.1)">
       <use xlink:href="#DejaVuSans-35"/>
       <use xlink:href="#DejaVuSans-30" transform="translate(63.623047 0)"/>
      </g>
     </g>
    </g>
    <g id="xtick_4">
     <g id="line2d_7">
      <path d="M 196.189968 307.584 
L 196.189968 41.472 
" clip-path="url(#p8b9f55a440)" style="fill: none; stroke: #b0b0b0; stroke-width: 0.8; stroke-linecap: square"/>
     </g>
     <g id="line2d_8">
      <g>
       <use xlink:href="#m84868abfae" x="196.189968" y="307.584" style="stroke: #000000; stroke-width: 0.8"/>
      </g>
     </g>
     <g id="text_4">
      <!-- 75 -->
      <g transform="translate(189.827468 322.182437) scale(0.1 -0.1)">
       <defs>
        <path id="DejaVuSans-37" d="M 525 4666 
L 3525 4666 
L 3525 4397 
L 1831 0 
L 1172 0 
L 2766 4134 
L 525 4134 
L 525 4666 
z
" transform="scale(0.015625)"/>
       </defs>
       <use xlink:href="#DejaVuSans-37"/>
       <use xlink:href="#DejaVuSans-35" transform="translate(63.623047 0)"/>
      </g>
     </g>
    </g>
    <g id="xtick_5">
     <g id="line2d_9">
      <path d="M 236.975715 307.584 
L 236.975715 41.472 
" clip-path="url(#p8b9f55a440)" style="fill: none; stroke: #b0b0b0; stroke-width: 0.8; stroke-linecap: square"/>
     </g>
     <g id="line2d_10">
      <g>
       <use xlink:href="#m84868abfae" x="236.975715" y="307.584" style="stroke: #000000; stroke-width: 0.8"/>
      </g>
     </g>
     <g id="text_5">
      <!-- 100 -->
      <g transform="translate(227.431965 322.182437) scale(0.1 -0.1)">
       <defs>
        <path id="DejaVuSans-31" d="M 794 531 
L 1825 531 
L 1825 4091 
L 703 3866 
L 703 4441 
L 1819 4666 
L 2450 4666 
L 2450 531 
L 3481 531 
L 3481 0 
L 794 0 
L 794 531 
z
" transform="scale(0.015625)"/>
       </defs>
       <use xlink:href="#DejaVuSans-31"/>
       <use xlink:href="#DejaVuSans-30" transform="translate(63.623047 0)"/>
       <use xlink:href="#DejaVuSans-30" transform="translate(127.246094 0)"/>
      </g>
     </g>
    </g>
    <g id="xtick_6">
     <g id="line2d_11">
      <path d="M 277.761462 307.584 
L 277.761462 41.472 
" clip-path="url(#p8b9f55a440)" style="fill: none; stroke: #b0b0b0; stroke-width: 0.8; stroke-linecap: square"/>
     </g>
     <g id="line2d_12">
      <g>
       <use xlink:href="#m84868abfae" x="277.761462" y="307.584" style="stroke: #000000; stroke-width: 0.8"/>
      </g>
     </g>
     <g id="text_6">
      <!-- 125 -->
      <g transform="translate(268.217712 322.182437) scale(0.1 -0.1)">
       <use xlink:href="#DejaVuSans-31"/>
       <use xlink:href="#DejaVuSans-32" transform="translate(63.623047 0)"/>
       <use xlink:href="#DejaVuSans-35" transform="translate(127.246094 0)"/>
      </g>
     </g>
    </g>
    <g id="xtick_7">
     <g id="line2d_13">
      <path d="M 318.547209 307.584 
L 318.547209 41.472 
" clip-path="url(#p8b9f55a440)" style="fill: none; stroke: #b0b0b0; stroke-width: 0.8; stroke-linecap: square"/>
     </g>
     <g id="line2d_14">
      <g>
       <use xlink:href="#m84868abfae" x="318.547209" y="307.584" style="stroke: #000000; stroke-width: 0.8"/>
      </g>
     </g>
     <g id="text_7">
      <!-- 150 -->
      <g transform="translate(309.003459 322.182437) scale(0.1 -0.1)">
       <use xlink:href="#DejaVuSans-31"/>
       <use xlink:href="#DejaVuSans-35" transform="translate(63.623047 0)"/>
       <use xlink:href="#DejaVuSans-30" transform="translate(127.246094 0)"/>
      </g>
     </g>
    </g>
    <g id="xtick_8">
     <g id="line2d_15">
      <path d="M 359.332956 307.584 
L 359.332956 41.472 
" clip-path="url(#p8b9f55a440)" style="fill: none; stroke: #b0b0b0; stroke-width: 0.8; stroke-linecap: square"/>
     </g>
     <g id="line2d_16">
      <g>
       <use xlink:href="#m84868abfae" x="359.332956" y="307.584" style="stroke: #000000; stroke-width: 0.8"/>
      </g>
     </g>
     <g id="text_8">
      <!-- 175 -->
      <g transform="translate(349.789206 322.182437) scale(0.1 -0.1)">
       <use xlink:href="#DejaVuSans-31"/>
       <use xlink:href="#DejaVuSans-37" transform="translate(63.623047 0)"/>
       <use xlink:href="#DejaVuSans-35" transform="translate(127.246094 0)"/>
      </g>
     </g>
    </g>
    <g id="xtick_9">
     <g id="line2d_17">
      <path d="M 400.118703 307.584 
L 400.118703 41.472 
" clip-path="url(#p8b9f55a440)" style="fill: none; stroke: #b0b0b0; stroke-width: 0.8; stroke-linecap: square"/>
     </g>
     <g id="line2d_18">
      <g>
       <use xlink:href="#m84868abfae" x="400.118703" y="307.584" style="stroke: #000000; stroke-width: 0.8"/>
      </g>
     </g>
     <g id="text_9">
      <!-- 200 -->
      <g transform="translate(390.574953 322.182437) scale(0.1 -0.1)">
       <use xlink:href="#DejaVuSans-32"/>
       <use xlink:href="#DejaVuSans-30" transform="translate(63.623047 0)"/>
       <use xlink:href="#DejaVuSans-30" transform="translate(127.246094 0)"/>
      </g>
     </g>
    </g>
    <g id="text_10">
     <!-- Generations -->
     <g transform="translate(205.662344 335.860562) scale(0.1 -0.1)">
      <defs>
       <path id="DejaVuSans-47" d="M 3809 666 
L 3809 1919 
L 2778 1919 
L 2778 2438 
L 4434 2438 
L 4434 434 
Q 4069 175 3628 42 
Q 3188 -91 2688 -91 
Q 1594 -91 976 548 
Q 359 1188 359 2328 
Q 359 3472 976 4111 
Q 1594 4750 2688 4750 
Q 3144 4750 3555 4637 
Q 3966 4525 4313 4306 
L 4313 3634 
Q 3963 3931 3569 4081 
Q 3175 4231 2741 4231 
Q 1884 4231 1454 3753 
Q 1025 3275 1025 2328 
Q 1025 1384 1454 906 
Q 1884 428 2741 428 
Q 3075 428 3337 486 
Q 3600 544 3809 666 
z
" transform="scale(0.015625)"/>
       <path id="DejaVuSans-65" d="M 3597 1894 
L 3597 1613 
L 953 1613 
Q 991 1019 1311 708 
Q 1631 397 2203 397 
Q 2534 397 2845 478 
Q 3156 559 3463 722 
L 3463 178 
Q 3153 47 2828 -22 
Q 2503 -91 2169 -91 
Q 1331 -91 842 396 
Q 353 884 353 1716 
Q 353 2575 817 3079 
Q 1281 3584 2069 3584 
Q 2775 3584 3186 3129 
Q 3597 2675 3597 1894 
z
M 3022 2063 
Q 3016 2534 2758 2815 
Q 2500 3097 2075 3097 
Q 1594 3097 1305 2825 
Q 1016 2553 972 2059 
L 3022 2063 
z
" transform="scale(0.015625)"/>
       <path id="DejaVuSans-6e" d="M 3513 2113 
L 3513 0 
L 2938 0 
L 2938 2094 
Q 2938 2591 2744 2837 
Q 2550 3084 2163 3084 
Q 1697 3084 1428 2787 
Q 1159 2491 1159 1978 
L 1159 0 
L 581 0 
L 581 3500 
L 1159 3500 
L 1159 2956 
Q 1366 3272 1645 3428 
Q 1925 3584 2291 3584 
Q 2894 3584 3203 3211 
Q 3513 2838 3513 2113 
z
" transform="scale(0.015625)"/>
       <path id="DejaVuSans-72" d="M 2631 2963 
Q 2534 3019 2420 3045 
Q 2306 3072 2169 3072 
Q 1681 3072 1420 2755 
Q 1159 2438 1159 1844 
L 1159 0 
L 581 0 
L 581 3500 
L 1159 3500 
L 1159 2956 
Q 1341 3275 1631 3429 
Q 1922 3584 2338 3584 
Q 2397 3584 2469 3576 
Q 2541 3569 2628 3553 
L 2631 2963 
z
" transform="scale(0.015625)"/>
       <path id="DejaVuSans-61" d="M 2194 1759 
Q 1497 1759 1228 1600 
Q 959 1441 959 1056 
Q 959 750 1161 570 
Q 1363 391 1709 391 
Q 2188 391 2477 730 
Q 2766 1069 2766 1631 
L 2766 1759 
L 2194 1759 
z
M 3341 1997 
L 3341 0 
L 2766 0 
L 2766 531 
Q 2569 213 2275 61 
Q 1981 -91 1556 -91 
Q 1019 -91 701 211 
Q 384 513 384 1019 
Q 384 1609 779 1909 
Q 1175 2209 1959 2209 
L 2766 2209 
L 2766 2266 
Q 2766 2663 2505 2880 
Q 2244 3097 1772 3097 
Q 1472 3097 1187 3025 
Q 903 2953 641 2809 
L 641 3341 
Q 956 3463 1253 3523 
Q 1550 3584 1831 3584 
Q 2591 3584 2966 3190 
Q 3341 2797 3341 1997 
z
" transform="scale(0.015625)"/>
       <path id="DejaVuSans-74" d="M 1172 4494 
L 1172 3500 
L 2356 3500 
L 2356 3053 
L 1172 3053 
L 1172 1153 
Q 1172 725 1289 603 
Q 1406 481 1766 481 
L 2356 481 
L 2356 0 
L 1766 0 
Q 1100 0 847 248 
Q 594 497 594 1153 
L 594 3053 
L 172 3053 
L 172 3500 
L 594 3500 
L 594 4494 
L 1172 4494 
z
" transform="scale(0.015625)"/>
       <path id="DejaVuSans-69" d="M 603 3500 
L 1178 3500 
L 1178 0 
L 603 0 
L 603 3500 
z
M 603 4863 
L 1178 4863 
L 1178 4134 
L 603 4134 
L 603 4863 
z
" transform="scale(0.015625)"/>
       <path id="DejaVuSans-6f" d="M 1959 3097 
Q 1497 3097 1228 2736 
Q 959 2375 959 1747 
Q 959 1119 1226 758 
Q 1494 397 1959 397 
Q 2419 397 2687 759 
Q 2956 1122 2956 1747 
Q 2956 2369 2687 2733 
Q 2419 3097 1959 3097 
z
M 1959 3584 
Q 2709 3584 3137 3096 
Q 3566 2609 3566 1747 
Q 3566 888 3137 398 
Q 2709 -91 1959 -91 
Q 1206 -91 779 398 
Q 353 888 353 1747 
Q 353 2609 779 3096 
Q 1206 3584 1959 3584 
z
" transform="scale(0.015625)"/>
       <path id="DejaVuSans-73" d="M 2834 3397 
L 2834 2853 
Q 2591 2978 2328 3040 
Q 2066 3103 1784 3103 
Q 1356 3103 1142 2972 
Q 928 2841 928 2578 
Q 928 2378 1081 2264 
Q 1234 2150 1697 2047 
L 1894 2003 
Q 2506 1872 2764 1633 
Q 3022 1394 3022 966 
Q 3022 478 2636 193 
Q 2250 -91 1575 -91 
Q 1294 -91 989 -36 
Q 684 19 347 128 
L 347 722 
Q 666 556 975 473 
Q 1284 391 1588 391 
Q 1994 391 2212 530 
Q 2431 669 2431 922 
Q 2431 1156 2273 1281 
Q 2116 1406 1581 1522 
L 1381 1569 
Q 847 1681 609 1914 
Q 372 2147 372 2553 
Q 372 3047 722 3315 
Q 1072 3584 1716 3584 
Q 2034 3584 2315 3537 
Q 2597 3491 2834 3397 
z
" transform="scale(0.015625)"/>
      </defs>
      <use xlink:href="#DejaVuSans-47"/>
      <use xlink:href="#DejaVuSans-65" transform="translate(77.490234 0)"/>
      <use xlink:href="#DejaVuSans-6e" transform="translate(139.013672 0)"/>
      <use xlink:href="#DejaVuSans-65" transform="translate(202.392578 0)"/>
      <use xlink:href="#DejaVuSans-72" transform="translate(263.916016 0)"/>
      <use xlink:href="#DejaVuSans-61" transform="translate(305.029297 0)"/>
      <use xlink:href="#DejaVuSans-74" transform="translate(366.308594 0)"/>
      <use xlink:href="#DejaVuSans-69" transform="translate(405.517578 0)"/>
      <use xlink:href="#DejaVuSans-6f" transform="translate(433.300781 0)"/>
      <use xlink:href="#DejaVuSans-6e" transform="translate(494.482422 0)"/>
      <use xlink:href="#DejaVuSans-73" transform="translate(557.861328 0)"/>
     </g>
    </g>
   </g>
   <g id="matplotlib.axis_2">
    <g id="ytick_1">
     <g id="line2d_19">
      <path d="M 57.6 153.770168 
L 414.72 153.770168 
" clip-path="url(#p8b9f55a440)" style="fill: none; stroke: #b0b0b0; stroke-width: 0.8; stroke-linecap: square"/>
     </g>
     <g id="line2d_20">
      <defs>
       <path id="m4a5ce3e7e5" d="M 0 0 
L -3.5 0 
" style="stroke: #000000; stroke-width: 0.8"/>
      </defs>
      <g>
       <use xlink:href="#m4a5ce3e7e5" x="57.6" y="153.770168" style="stroke: #000000; stroke-width: 0.8"/>
      </g>
     </g>
     <g id="text_11">
      <!-- $\mathdefault{-10^{2}}$ -->
      <g transform="translate(24.6 157.569387) scale(0.1 -0.1)">
       <defs>
        <path id="DejaVuSans-2212" d="M 678 2272 
L 4684 2272 
L 4684 1741 
L 678 1741 
L 678 2272 
z
" transform="scale(0.015625)"/>
       </defs>
       <use xlink:href="#DejaVuSans-2212" transform="translate(0 0.765625)"/>
       <use xlink:href="#DejaVuSans-31" transform="translate(83.789062 0.765625)"/>
       <use xlink:href="#DejaVuSans-30" transform="translate(147.412109 0.765625)"/>
       <use xlink:href="#DejaVuSans-32" transform="translate(211.992188 39.046875) scale(0.7)"/>
      </g>
     </g>
    </g>
    <g id="text_12">
     <!-- Fitness -->
     <g transform="translate(18.520312 191.845187) rotate(-90) scale(0.1 -0.1)">
      <defs>
       <path id="DejaVuSans-46" d="M 628 4666 
L 3309 4666 
L 3309 4134 
L 1259 4134 
L 1259 2759 
L 3109 2759 
L 3109 2228 
L 1259 2228 
L 1259 0 
L 628 0 
L 628 4666 
z
" transform="scale(0.015625)"/>
      </defs>
      <use xlink:href="#DejaVuSans-46"/>
      <use xlink:href="#DejaVuSans-69" transform="translate(50.269531 0)"/>
      <use xlink:href="#DejaVuSans-74" transform="translate(78.052734 0)"/>
      <use xlink:href="#DejaVuSans-6e" transform="translate(117.261719 0)"/>
      <use xlink:href="#DejaVuSans-65" transform="translate(180.640625 0)"/>
      <use xlink:href="#DejaVuSans-73" transform="translate(242.164062 0)"/>
      <use xlink:href="#DejaVuSans-73" transform="translate(294.263672 0)"/>
     </g>
    </g>
   </g>
   <g id="line2d_21">
    <path d="M 73.832727 295.488 
L 75.464157 285.572076 
L 77.095587 279.708698 
L 78.727017 272.2683 
L 80.358447 277.345626 
L 81.989877 268.730455 
L 83.621307 271.861017 
L 85.252736 263.790386 
L 86.884166 262.395893 
L 88.515596 276.901875 
L 90.147026 269.696806 
L 91.778456 256.248485 
L 93.409886 246.977412 
L 95.041316 245.238062 
L 96.672746 238.132458 
L 98.304175 250.723557 
L 99.935605 239.230484 
L 101.567035 228.8529 
L 103.198465 225.564736 
L 104.829895 218.709436 
L 106.461325 218.279128 
L 108.092755 215.595296 
L 109.724185 216.391039 
L 111.355614 218.666808 
L 112.987044 211.598148 
L 114.618474 218.321674 
L 116.249904 209.837667 
L 117.881334 218.379615 
L 119.512764 220.194048 
L 121.144194 214.10984 
L 122.775624 217.40054 
L 124.407053 212.381884 
L 126.038483 213.540813 
L 127.669913 210.823112 
L 129.301343 219.661297 
L 130.932773 207.309075 
L 132.564203 226.448385 
L 134.195633 212.635031 
L 135.827063 206.077266 
L 137.458492 210.603207 
L 139.089922 206.120439 
L 140.721352 208.733127 
L 142.352782 203.141962 
L 143.984212 205.505638 
L 145.615642 208.683296 
L 147.247072 208.110912 
L 148.878502 205.068234 
L 150.509931 207.496498 
L 152.141361 209.09395 
L 153.772791 211.243048 
L 155.404221 208.354963 
L 157.035651 215.771728 
L 158.667081 202.357251 
L 160.298511 212.326641 
L 161.929941 206.574415 
L 163.56137 209.150036 
L 165.1928 204.809082 
L 166.82423 203.969518 
L 168.45566 207.140052 
L 170.08709 202.798327 
L 171.71852 204.304929 
L 173.34995 204.58151 
L 174.98138 209.879854 
L 176.61281 201.143216 
L 178.244239 209.12287 
L 179.875669 201.490445 
L 181.507099 202.695346 
L 183.138529 204.094564 
L 184.769959 198.073326 
L 186.401389 207.670902 
L 188.032819 199.702431 
L 189.664249 202.525229 
L 191.295678 210.094808 
L 192.927108 212.120376 
L 194.558538 197.575173 
L 196.189968 200.933474 
L 197.821398 206.856213 
L 199.452828 198.234707 
L 201.084258 197.693112 
L 202.715688 200.806505 
L 204.347117 210.047429 
L 205.978547 202.112076 
L 207.609977 211.600902 
L 209.241407 201.105374 
L 210.872837 201.825098 
L 212.504267 200.840468 
L 214.135697 201.521754 
L 215.767127 200.268262 
L 217.398556 204.95728 
L 219.029986 201.47239 
L 220.661416 205.195785 
L 222.292846 205.275306 
L 225.555706 206.700054 
L 227.187136 200.011397 
L 228.818566 206.622503 
L 230.449995 204.23105 
L 232.081425 203.804352 
L 233.712855 206.972046 
L 235.344285 214.243341 
L 236.975715 199.34428 
L 238.607145 202.657856 
L 240.238575 202.729714 
L 241.870005 206.945281 
L 243.501434 202.034566 
L 245.132864 203.356834 
L 246.764294 211.766714 
L 248.395724 205.197639 
L 250.027154 203.27827 
L 251.658584 207.485134 
L 253.290014 201.548945 
L 254.921444 204.728399 
L 256.552873 210.287974 
L 258.184303 201.782049 
L 259.815733 214.288466 
L 261.447163 205.748086 
L 264.710023 205.892028 
L 266.341453 205.093022 
L 267.972883 214.174237 
L 269.604312 202.364492 
L 271.235742 201.142459 
L 272.867172 203.861779 
L 274.498602 205.31065 
L 276.130032 207.657778 
L 277.761462 203.907839 
L 279.392892 201.495506 
L 282.655751 207.232408 
L 284.287181 205.541538 
L 285.918611 206.030542 
L 287.550041 211.803373 
L 289.181471 197.4473 
L 290.812901 206.111688 
L 292.444331 202.892129 
L 294.075761 202.184502 
L 295.70719 207.523374 
L 297.33862 203.867471 
L 298.97005 210.54449 
L 300.60148 200.389113 
L 302.23291 204.017957 
L 303.86434 202.280235 
L 305.49577 202.664418 
L 307.1272 203.165446 
L 308.75863 210.790706 
L 310.390059 202.164641 
L 312.021489 202.875654 
L 313.652919 206.051672 
L 315.284349 205.369417 
L 316.915779 201.834575 
L 318.547209 201.694843 
L 320.178639 202.525696 
L 321.810069 202.288576 
L 323.441498 204.90971 
L 325.072928 204.399018 
L 326.704358 206.179334 
L 328.335788 199.685661 
L 329.967218 206.922557 
L 331.598648 203.736333 
L 333.230078 201.040243 
L 334.861508 206.044458 
L 336.492937 204.583538 
L 338.124367 208.267451 
L 339.755797 203.874599 
L 341.387227 204.156781 
L 343.018657 201.934933 
L 344.650087 203.476232 
L 346.281517 201.754056 
L 347.912947 202.497054 
L 349.544376 200.910715 
L 351.175806 202.630941 
L 352.807236 200.973061 
L 354.438666 203.701199 
L 356.070096 201.045952 
L 357.701526 204.808932 
L 359.332956 203.614018 
L 360.964386 203.030612 
L 362.595815 200.131787 
L 364.227245 205.912618 
L 365.858675 203.816546 
L 367.490105 203.750982 
L 369.121535 200.500355 
L 370.752965 202.648318 
L 372.384395 199.89955 
L 374.015825 205.408726 
L 375.647254 202.761019 
L 377.278684 202.236428 
L 378.910114 205.162137 
L 380.541544 203.319781 
L 382.172974 200.423485 
L 383.804404 201.257139 
L 385.435834 203.377905 
L 387.067264 208.750135 
L 388.698693 206.569618 
L 390.330123 205.657439 
L 391.961553 199.62956 
L 393.592983 202.586911 
L 395.224413 204.569439 
L 396.855843 202.687407 
L 398.487273 206.606609 
L 398.487273 206.606609 
" clip-path="url(#p8b9f55a440)" style="fill: none; stroke: #0000ff; stroke-width: 1.5; stroke-linecap: square"/>
   </g>
   <g id="line2d_22">
    <path d="M 73.832727 264.392139 
L 75.464157 235.557879 
L 77.095587 216.58989 
L 78.727017 203.045044 
L 80.358447 206.820799 
L 81.989877 197.32372 
L 83.621307 191.836158 
L 86.884166 170.865624 
L 88.515596 197.330503 
L 90.147026 194.705261 
L 91.778456 188.849101 
L 93.409886 194.977273 
L 95.041316 134.863395 
L 96.672746 117.251055 
L 98.304175 93.997039 
L 99.935605 153.458406 
L 101.567035 163.817473 
L 103.198465 166.861292 
L 104.829895 156.168767 
L 106.461325 150.923947 
L 108.092755 146.771989 
L 109.724185 138.748365 
L 111.355614 148.760316 
L 112.987044 155.094254 
L 114.618474 154.556512 
L 116.249904 160.862933 
L 117.881334 154.938892 
L 119.512764 149.885575 
L 121.144194 155.83024 
L 122.775624 146.370161 
L 124.407053 154.509635 
L 126.038483 155.582126 
L 127.669913 150.360469 
L 129.301343 158.573512 
L 130.932773 158.851662 
L 132.564203 147.771462 
L 134.195633 134.986645 
L 137.458492 148.356722 
L 139.089922 137.533232 
L 140.721352 139.39858 
L 142.352782 157.759103 
L 143.984212 144.53262 
L 145.615642 155.058964 
L 147.247072 147.44427 
L 148.878502 154.468672 
L 150.509931 154.243995 
L 152.141361 161.742529 
L 153.772791 155.509938 
L 155.404221 146.508741 
L 157.035651 108.309055 
L 158.667081 148.90898 
L 160.298511 160.093309 
L 161.929941 160.726542 
L 163.56137 139.916042 
L 165.1928 159.587678 
L 166.82423 164.943275 
L 168.45566 154.144379 
L 170.08709 148.001044 
L 171.71852 162.379729 
L 173.34995 164.364314 
L 174.98138 154.506275 
L 176.61281 164.857102 
L 178.244239 128.531795 
L 179.875669 159.788022 
L 181.507099 153.92361 
L 183.138529 156.951271 
L 184.769959 166.658399 
L 186.401389 142.986272 
L 188.032819 153.288419 
L 189.664249 161.583983 
L 191.295678 149.36052 
L 192.927108 119.155465 
L 194.558538 155.953047 
L 196.189968 158.437939 
L 197.821398 139.610342 
L 199.452828 161.567073 
L 201.084258 165.695073 
L 202.715688 160.327945 
L 204.347117 126.923857 
L 205.978547 140.686705 
L 207.609977 136.393583 
L 209.241407 167.300353 
L 210.872837 166.548704 
L 212.504267 161.15405 
L 214.135697 166.392826 
L 215.767127 164.776742 
L 217.398556 159.800691 
L 219.029986 171.320754 
L 220.661416 174.713443 
L 222.292846 169.18773 
L 223.924276 159.770018 
L 225.555706 153.628694 
L 227.187136 168.07195 
L 228.818566 163.0815 
L 230.449995 161.095272 
L 232.081425 167.574959 
L 233.712855 165.249207 
L 235.344285 53.568 
L 236.975715 157.500695 
L 238.607145 171.863038 
L 240.238575 166.568753 
L 241.870005 150.016257 
L 243.501434 171.507997 
L 245.132864 173.73723 
L 246.764294 147.06349 
L 248.395724 161.945722 
L 250.027154 172.627389 
L 251.658584 169.464072 
L 253.290014 171.070344 
L 254.921444 171.46592 
L 256.552873 146.246109 
L 258.184303 155.638937 
L 259.815733 149.378114 
L 261.447163 154.297717 
L 263.078593 151.23315 
L 264.710023 150.333607 
L 266.341453 164.621917 
L 267.972883 148.293331 
L 269.604312 158.711183 
L 271.235742 167.961737 
L 272.867172 168.366046 
L 274.498602 164.956106 
L 276.130032 164.992346 
L 277.761462 155.024015 
L 279.392892 167.971435 
L 281.024322 174.037495 
L 282.655751 163.420511 
L 284.287181 166.132163 
L 285.918611 162.039452 
L 287.550041 139.31156 
L 289.181471 165.781391 
L 290.812901 157.285095 
L 292.444331 165.002434 
L 294.075761 173.490459 
L 295.70719 161.525691 
L 297.33862 158.221035 
L 298.97005 149.408079 
L 300.60148 168.197902 
L 302.23291 172.905071 
L 303.86434 173.431508 
L 305.49577 167.611777 
L 307.1272 173.309122 
L 308.75863 161.324161 
L 310.390059 169.588364 
L 312.021489 166.085632 
L 313.652919 168.558397 
L 315.284349 150.373258 
L 316.915779 147.10209 
L 318.547209 171.813812 
L 320.178639 170.414996 
L 321.810069 170.431851 
L 323.441498 160.557127 
L 325.072928 169.206798 
L 326.704358 165.025926 
L 328.335788 164.680406 
L 329.967218 154.528817 
L 331.598648 156.878792 
L 333.230078 169.730745 
L 334.861508 162.522067 
L 336.492937 152.223235 
L 338.124367 155.661854 
L 339.755797 157.537388 
L 341.387227 157.641741 
L 343.018657 170.249429 
L 344.650087 168.454179 
L 346.281517 165.121175 
L 347.912947 158.926391 
L 349.544376 151.862361 
L 351.175806 163.935497 
L 352.807236 169.645397 
L 354.438666 161.029934 
L 356.070096 173.676558 
L 359.332956 162.208295 
L 360.964386 161.780113 
L 362.595815 169.04525 
L 364.227245 153.401998 
L 365.858675 151.375633 
L 367.490105 155.821416 
L 369.121535 170.911632 
L 370.752965 167.369839 
L 372.384395 168.86095 
L 374.015825 163.599936 
L 375.647254 158.944973 
L 377.278684 170.929704 
L 378.910114 157.771694 
L 380.541544 160.295046 
L 382.172974 170.850358 
L 383.804404 164.524278 
L 385.435834 169.46111 
L 387.067264 159.250857 
L 388.698693 150.327431 
L 390.330123 147.660246 
L 391.961553 168.629178 
L 393.592983 172.893197 
L 395.224413 169.42239 
L 396.855843 171.148658 
L 398.487273 164.987306 
L 398.487273 164.987306 
" clip-path="url(#p8b9f55a440)" style="fill: none; stroke-dasharray: 9.6,2.4,1.5,2.4; stroke-dashoffset: 0; stroke: #008000; stroke-width: 1.5"/>
   </g>
   <g id="line2d_23">
    <path d="M 73.832727 164.49919 
L 75.464157 151.713619 
L 77.095587 155.801845 
L 78.727017 158.285495 
L 80.358447 149.532911 
L 81.989877 153.995983 
L 83.621307 155.897157 
L 85.252736 163.442441 
L 86.884166 142.892551 
L 88.515596 164.470677 
L 90.147026 145.407331 
L 91.778456 152.681483 
L 93.409886 151.596975 
L 95.041316 156.157177 
L 96.672746 145.65369 
L 99.935605 158.241315 
L 101.567035 147.188955 
L 103.198465 160.331679 
L 104.829895 162.234937 
L 106.461325 141.213578 
L 108.092755 154.680313 
L 109.724185 155.866091 
L 111.355614 160.178283 
L 112.987044 151.993321 
L 114.618474 157.452718 
L 116.249904 155.511373 
L 117.881334 156.471126 
L 119.512764 158.943691 
L 121.144194 154.934366 
L 122.775624 155.689676 
L 124.407053 155.550217 
L 126.038483 147.817747 
L 127.669913 159.77918 
L 129.301343 156.587128 
L 130.932773 156.676489 
L 134.195633 152.945063 
L 135.827063 159.444307 
L 137.458492 153.006378 
L 139.089922 153.848129 
L 140.721352 155.942209 
L 142.352782 138.767851 
L 143.984212 154.877113 
L 145.615642 154.6845 
L 147.247072 151.81495 
L 148.878502 154.294462 
L 150.509931 152.680303 
L 152.141361 162.781086 
L 153.772791 157.542967 
L 155.404221 149.963973 
L 157.035651 154.388209 
L 158.667081 139.829493 
L 160.298511 161.560603 
L 161.929941 150.327354 
L 163.56137 154.394131 
L 165.1928 153.862716 
L 166.82423 146.673094 
L 168.45566 150.171059 
L 170.08709 153.253795 
L 171.71852 157.340632 
L 173.34995 160.450333 
L 174.98138 153.859676 
L 176.61281 157.800349 
L 178.244239 149.067058 
L 179.875669 154.976174 
L 181.507099 148.070589 
L 183.138529 146.23036 
L 184.769959 153.464372 
L 186.401389 162.436926 
L 188.032819 158.176724 
L 189.664249 159.082648 
L 191.295678 141.597552 
L 192.927108 159.264241 
L 194.558538 153.65147 
L 196.189968 155.503781 
L 197.821398 156.160732 
L 199.452828 155.449504 
L 201.084258 145.902492 
L 202.715688 153.146647 
L 204.347117 154.310499 
L 205.978547 136.282338 
L 207.609977 146.828608 
L 209.241407 150.273808 
L 210.872837 151.550218 
L 212.504267 145.868401 
L 214.135697 152.345148 
L 215.767127 144.352742 
L 217.398556 155.1419 
L 219.029986 159.620916 
L 220.661416 161.724254 
L 222.292846 162.64524 
L 223.924276 150.309562 
L 225.555706 159.058478 
L 227.187136 150.691721 
L 228.818566 136.020777 
L 230.449995 156.159563 
L 232.081425 153.58357 
L 233.712855 132.832623 
L 235.344285 156.718493 
L 236.975715 156.565801 
L 238.607145 158.402079 
L 240.238575 157.562797 
L 241.870005 158.724247 
L 243.501434 148.653911 
L 245.132864 154.534638 
L 246.764294 155.201097 
L 248.395724 146.769579 
L 250.027154 155.411919 
L 251.658584 150.914928 
L 253.290014 145.761709 
L 254.921444 159.171918 
L 256.552873 146.050603 
L 258.184303 150.766662 
L 259.815733 161.40523 
L 261.447163 145.208039 
L 263.078593 157.309695 
L 264.710023 154.202028 
L 266.341453 142.529903 
L 267.972883 157.571264 
L 269.604312 154.79867 
L 271.235742 148.415191 
L 272.867172 145.488647 
L 274.498602 158.684017 
L 276.130032 158.973182 
L 277.761462 149.349472 
L 279.392892 146.930008 
L 282.655751 155.560739 
L 284.287181 143.926101 
L 285.918611 158.268637 
L 287.550041 155.14413 
L 289.181471 154.541467 
L 290.812901 160.939483 
L 292.444331 155.969954 
L 294.075761 156.998266 
L 295.70719 149.588459 
L 297.33862 149.030179 
L 298.97005 153.540444 
L 300.60148 158.441271 
L 302.23291 153.385681 
L 303.86434 156.692004 
L 305.49577 155.996996 
L 307.1272 154.24173 
L 308.75863 159.960011 
L 310.390059 155.075903 
L 312.021489 152.657947 
L 313.652919 154.309425 
L 315.284349 152.442768 
L 316.915779 154.243538 
L 318.547209 157.710193 
L 320.178639 157.664497 
L 321.810069 155.31893 
L 323.441498 140.42792 
L 325.072928 162.878136 
L 326.704358 163.085645 
L 328.335788 161.315556 
L 329.967218 151.365351 
L 331.598648 156.75396 
L 333.230078 157.823061 
L 334.861508 157.310668 
L 336.492937 141.302101 
L 339.755797 155.690824 
L 341.387227 158.439553 
L 343.018657 152.819314 
L 344.650087 151.536454 
L 346.281517 159.241008 
L 347.912947 159.430816 
L 349.544376 141.43947 
L 351.175806 149.674224 
L 352.807236 155.752059 
L 354.438666 160.285288 
L 356.070096 162.741129 
L 357.701526 160.578968 
L 359.332956 155.045809 
L 360.964386 159.427315 
L 362.595815 149.575252 
L 364.227245 153.415258 
L 365.858675 155.218649 
L 367.490105 155.60847 
L 369.121535 147.928075 
L 370.752965 148.481228 
L 372.384395 156.073157 
L 374.015825 153.5822 
L 375.647254 157.5639 
L 377.278684 148.712651 
L 378.910114 161.649538 
L 380.541544 156.072042 
L 382.172974 156.413811 
L 383.804404 149.67895 
L 385.435834 157.60086 
L 387.067264 155.953962 
L 388.698693 156.416475 
L 390.330123 151.723133 
L 391.961553 159.732625 
L 393.592983 146.549794 
L 395.224413 148.554522 
L 396.855843 148.711803 
L 398.487273 153.646571 
L 398.487273 153.646571 
" clip-path="url(#p8b9f55a440)" style="fill: none; stroke: #ff0000; stroke-width: 1.5; stroke-linecap: square"/>
   </g>
   <g id="patch_3">
    <path d="M 57.6 307.584 
L 57.6 41.472 
" style="fill: none; stroke: #000000; stroke-width: 0.8; stroke-linejoin: miter; stroke-linecap: square"/>
   </g>
   <g id="patch_4">
    <path d="M 414.72 307.584 
L 414.72 41.472 
" style="fill: none; stroke: #000000; stroke-width: 0.8; stroke-linejoin: miter; stroke-linecap: square"/>
   </g>
   <g id="patch_5">
    <path d="M 57.6 307.584 
L 414.72 307.584 
" style="fill: none; stroke: #000000; stroke-width: 0.8; stroke-linejoin: miter; stroke-linecap: square"/>
   </g>
   <g id="patch_6">
    <path d="M 57.6 41.472 
L 414.72 41.472 
" style="fill: none; stroke: #000000; stroke-width: 0.8; stroke-linejoin: miter; stroke-linecap: square"/>
   </g>
   <g id="text_13">
    <!-- Population's average and best fitness -->
    <g transform="translate(123.529687 35.472) scale(0.12 -0.12)">
     <defs>
      <path id="DejaVuSans-50" d="M 1259 4147 
L 1259 2394 
L 2053 2394 
Q 2494 2394 2734 2622 
Q 2975 2850 2975 3272 
Q 2975 3691 2734 3919 
Q 2494 4147 2053 4147 
L 1259 4147 
z
M 628 4666 
L 2053 4666 
Q 2838 4666 3239 4311 
Q 3641 3956 3641 3272 
Q 3641 2581 3239 2228 
Q 2838 1875 2053 1875 
L 1259 1875 
L 1259 0 
L 628 0 
L 628 4666 
z
" transform="scale(0.015625)"/>
      <path id="DejaVuSans-70" d="M 1159 525 
L 1159 -1331 
L 581 -1331 
L 581 3500 
L 1159 3500 
L 1159 2969 
Q 1341 3281 1617 3432 
Q 1894 3584 2278 3584 
Q 2916 3584 3314 3078 
Q 3713 2572 3713 1747 
Q 3713 922 3314 415 
Q 2916 -91 2278 -91 
Q 1894 -91 1617 61 
Q 1341 213 1159 525 
z
M 3116 1747 
Q 3116 2381 2855 2742 
Q 2594 3103 2138 3103 
Q 1681 3103 1420 2742 
Q 1159 2381 1159 1747 
Q 1159 1113 1420 752 
Q 1681 391 2138 391 
Q 2594 391 2855 752 
Q 3116 1113 3116 1747 
z
" transform="scale(0.015625)"/>
      <path id="DejaVuSans-75" d="M 544 1381 
L 544 3500 
L 1119 3500 
L 1119 1403 
Q 1119 906 1312 657 
Q 1506 409 1894 409 
Q 2359 409 2629 706 
Q 2900 1003 2900 1516 
L 2900 3500 
L 3475 3500 
L 3475 0 
L 2900 0 
L 2900 538 
Q 2691 219 2414 64 
Q 2138 -91 1772 -91 
Q 1169 -91 856 284 
Q 544 659 544 1381 
z
M 1991 3584 
L 1991 3584 
z
" transform="scale(0.015625)"/>
      <path id="DejaVuSans-6c" d="M 603 4863 
L 1178 4863 
L 1178 0 
L 603 0 
L 603 4863 
z
" transform="scale(0.015625)"/>
      <path id="DejaVuSans-27" d="M 1147 4666 
L 1147 2931 
L 616 2931 
L 616 4666 
L 1147 4666 
z
" transform="scale(0.015625)"/>
      <path id="DejaVuSans-20" transform="scale(0.015625)"/>
      <path id="DejaVuSans-76" d="M 191 3500 
L 800 3500 
L 1894 563 
L 2988 3500 
L 3597 3500 
L 2284 0 
L 1503 0 
L 191 3500 
z
" transform="scale(0.015625)"/>
      <path id="DejaVuSans-67" d="M 2906 1791 
Q 2906 2416 2648 2759 
Q 2391 3103 1925 3103 
Q 1463 3103 1205 2759 
Q 947 2416 947 1791 
Q 947 1169 1205 825 
Q 1463 481 1925 481 
Q 2391 481 2648 825 
Q 2906 1169 2906 1791 
z
M 3481 434 
Q 3481 -459 3084 -895 
Q 2688 -1331 1869 -1331 
Q 1566 -1331 1297 -1286 
Q 1028 -1241 775 -1147 
L 775 -588 
Q 1028 -725 1275 -790 
Q 1522 -856 1778 -856 
Q 2344 -856 2625 -561 
Q 2906 -266 2906 331 
L 2906 616 
Q 2728 306 2450 153 
Q 2172 0 1784 0 
Q 1141 0 747 490 
Q 353 981 353 1791 
Q 353 2603 747 3093 
Q 1141 3584 1784 3584 
Q 2172 3584 2450 3431 
Q 2728 3278 2906 2969 
L 2906 3500 
L 3481 3500 
L 3481 434 
z
" transform="scale(0.015625)"/>
      <path id="DejaVuSans-64" d="M 2906 2969 
L 2906 4863 
L 3481 4863 
L 3481 0 
L 2906 0 
L 2906 525 
Q 2725 213 2448 61 
Q 2172 -91 1784 -91 
Q 1150 -91 751 415 
Q 353 922 353 1747 
Q 353 2572 751 3078 
Q 1150 3584 1784 3584 
Q 2172 3584 2448 3432 
Q 2725 3281 2906 2969 
z
M 947 1747 
Q 947 1113 1208 752 
Q 1469 391 1925 391 
Q 2381 391 2643 752 
Q 2906 1113 2906 1747 
Q 2906 2381 2643 2742 
Q 2381 3103 1925 3103 
Q 1469 3103 1208 2742 
Q 947 2381 947 1747 
z
" transform="scale(0.015625)"/>
      <path id="DejaVuSans-62" d="M 3116 1747 
Q 3116 2381 2855 2742 
Q 2594 3103 2138 3103 
Q 1681 3103 1420 2742 
Q 1159 2381 1159 1747 
Q 1159 1113 1420 752 
Q 1681 391 2138 391 
Q 2594 391 2855 752 
Q 3116 1113 3116 1747 
z
M 1159 2969 
Q 1341 3281 1617 3432 
Q 1894 3584 2278 3584 
Q 2916 3584 3314 3078 
Q 3713 2572 3713 1747 
Q 3713 922 3314 415 
Q 2916 -91 2278 -91 
Q 1894 -91 1617 61 
Q 1341 213 1159 525 
L 1159 0 
L 581 0 
L 581 4863 
L 1159 4863 
L 1159 2969 
z
" transform="scale(0.015625)"/>
      <path id="DejaVuSans-66" d="M 2375 4863 
L 2375 4384 
L 1825 4384 
Q 1516 4384 1395 4259 
Q 1275 4134 1275 3809 
L 1275 3500 
L 2222 3500 
L 2222 3053 
L 1275 3053 
L 1275 0 
L 697 0 
L 697 3053 
L 147 3053 
L 147 3500 
L 697 3500 
L 697 3744 
Q 697 4328 969 4595 
Q 1241 4863 1831 4863 
L 2375 4863 
z
" transform="scale(0.015625)"/>
     </defs>
     <use xlink:href="#DejaVuSans-50"/>
     <use xlink:href="#DejaVuSans-6f" transform="translate(56.677734 0)"/>
     <use xlink:href="#DejaVuSans-70" transform="translate(117.859375 0)"/>
     <use xlink:href="#DejaVuSans-75" transform="translate(181.335938 0)"/>
     <use xlink:href="#DejaVuSans-6c" transform="translate(244.714844 0)"/>
     <use xlink:href="#DejaVuSans-61" transform="translate(272.498047 0)"/>
     <use xlink:href="#DejaVuSans-74" transform="translate(333.777344 0)"/>
     <use xlink:href="#DejaVuSans-69" transform="translate(372.986328 0)"/>
     <use xlink:href="#DejaVuSans-6f" transform="translate(400.769531 0)"/>
     <use xlink:href="#DejaVuSans-6e" transform="translate(461.951172 0)"/>
     <use xlink:href="#DejaVuSans-27" transform="translate(525.330078 0)"/>
     <use xlink:href="#DejaVuSans-73" transform="translate(552.820312 0)"/>
     <use xlink:href="#DejaVuSans-20" transform="translate(604.919922 0)"/>
     <use xlink:href="#DejaVuSans-61" transform="translate(636.707031 0)"/>
     <use xlink:href="#DejaVuSans-76" transform="translate(697.986328 0)"/>
     <use xlink:href="#DejaVuSans-65" transform="translate(757.166016 0)"/>
     <use xlink:href="#DejaVuSans-72" transform="translate(818.689453 0)"/>
     <use xlink:href="#DejaVuSans-61" transform="translate(859.802734 0)"/>
     <use xlink:href="#DejaVuSans-67" transform="translate(921.082031 0)"/>
     <use xlink:href="#DejaVuSans-65" transform="translate(984.558594 0)"/>
     <use xlink:href="#DejaVuSans-20" transform="translate(1046.082031 0)"/>
     <use xlink:href="#DejaVuSans-61" transform="translate(1077.869141 0)"/>
     <use xlink:href="#DejaVuSans-6e" transform="translate(1139.148438 0)"/>
     <use xlink:href="#DejaVuSans-64" transform="translate(1202.527344 0)"/>
     <use xlink:href="#DejaVuSans-20" transform="translate(1266.003906 0)"/>
     <use xlink:href="#DejaVuSans-62" transform="translate(1297.791016 0)"/>
     <use xlink:href="#DejaVuSans-65" transform="translate(1361.267578 0)"/>
     <use xlink:href="#DejaVuSans-73" transform="translate(1422.791016 0)"/>
     <use xlink:href="#DejaVuSans-74" transform="translate(1474.890625 0)"/>
     <use xlink:href="#DejaVuSans-20" transform="translate(1514.099609 0)"/>
     <use xlink:href="#DejaVuSans-66" transform="translate(1545.886719 0)"/>
     <use xlink:href="#DejaVuSans-69" transform="translate(1581.091797 0)"/>
     <use xlink:href="#DejaVuSans-74" transform="translate(1608.875 0)"/>
     <use xlink:href="#DejaVuSans-6e" transform="translate(1648.083984 0)"/>
     <use xlink:href="#DejaVuSans-65" transform="translate(1711.462891 0)"/>
     <use xlink:href="#DejaVuSans-73" transform="translate(1772.986328 0)"/>
     <use xlink:href="#DejaVuSans-73" transform="translate(1825.085938 0)"/>
    </g>
   </g>
   <g id="legend_1">
    <g id="patch_7">
     <path d="M 334.779375 93.506375 
L 407.72 93.506375 
Q 409.72 93.506375 409.72 91.506375 
L 409.72 48.472 
Q 409.72 46.472 407.72 46.472 
L 334.779375 46.472 
Q 332.779375 46.472 332.779375 48.472 
L 332.779375 91.506375 
Q 332.779375 93.506375 334.779375 93.506375 
z
" style="fill: #ffffff; opacity: 0.8; stroke: #cccccc; stroke-linejoin: miter"/>
    </g>
    <g id="line2d_24">
     <path d="M 336.779375 54.570438 
L 346.779375 54.570438 
L 356.779375 54.570438 
" style="fill: none; stroke: #0000ff; stroke-width: 1.5; stroke-linecap: square"/>
    </g>
    <g id="text_14">
     <!-- average -->
     <g transform="translate(364.779375 58.070438) scale(0.1 -0.1)">
      <use xlink:href="#DejaVuSans-61"/>
      <use xlink:href="#DejaVuSans-76" transform="translate(61.279297 0)"/>
      <use xlink:href="#DejaVuSans-65" transform="translate(120.458984 0)"/>
      <use xlink:href="#DejaVuSans-72" transform="translate(181.982422 0)"/>
      <use xlink:href="#DejaVuSans-61" transform="translate(223.095703 0)"/>
      <use xlink:href="#DejaVuSans-67" transform="translate(284.375 0)"/>
      <use xlink:href="#DejaVuSans-65" transform="translate(347.851562 0)"/>
     </g>
    </g>
    <g id="line2d_25">
     <path d="M 336.779375 69.248563 
L 346.779375 69.248563 
L 356.779375 69.248563 
" style="fill: none; stroke-dasharray: 9.6,2.4,1.5,2.4; stroke-dashoffset: 0; stroke: #008000; stroke-width: 1.5"/>
    </g>
    <g id="text_15">
     <!-- +1 sd -->
     <g transform="translate(364.779375 72.748563) scale(0.1 -0.1)">
      <defs>
       <path id="DejaVuSans-2b" d="M 2944 4013 
L 2944 2272 
L 4684 2272 
L 4684 1741 
L 2944 1741 
L 2944 0 
L 2419 0 
L 2419 1741 
L 678 1741 
L 678 2272 
L 2419 2272 
L 2419 4013 
L 2944 4013 
z
" transform="scale(0.015625)"/>
      </defs>
      <use xlink:href="#DejaVuSans-2b"/>
      <use xlink:href="#DejaVuSans-31" transform="translate(83.789062 0)"/>
      <use xlink:href="#DejaVuSans-20" transform="translate(147.412109 0)"/>
      <use xlink:href="#DejaVuSans-73" transform="translate(179.199219 0)"/>
      <use xlink:href="#DejaVuSans-64" transform="translate(231.298828 0)"/>
     </g>
    </g>
    <g id="line2d_26">
     <path d="M 336.779375 83.926688 
L 346.779375 83.926688 
L 356.779375 83.926688 
" style="fill: none; stroke: #ff0000; stroke-width: 1.5; stroke-linecap: square"/>
    </g>
    <g id="text_16">
     <!-- best -->
     <g transform="translate(364.779375 87.426688) scale(0.1 -0.1)">
      <use xlink:href="#DejaVuSans-62"/>
      <use xlink:href="#DejaVuSans-65" transform="translate(63.476562 0)"/>
      <use xlink:href="#DejaVuSans-73" transform="translate(125 0)"/>
      <use xlink:href="#DejaVuSans-74" transform="translate(177.099609 0)"/>
     </g>
    </g>
   </g>
  </g>
 </g>
 <defs>
  <clipPath id="p8b9f55a440">
   <rect x="57.6" y="41.472" width="357.12" height="266.112"/>
  </clipPath>
 </defs>
</svg>
