<?xml version="1.0" encoding="utf-8" standalone="no"?>
<!DOCTYPE svg PUBLIC "-//W3C//DTD SVG 1.1//EN"
  "http://www.w3.org/Graphics/SVG/1.1/DTD/svg11.dtd">
<svg xmlns:xlink="http://www.w3.org/1999/xlink" width="460.8pt" height="345.6pt" viewBox="0 0 460.8 345.6" xmlns="http://www.w3.org/2000/svg" version="1.1">
 <metadata>
  <rdf:RDF xmlns:dc="http://purl.org/dc/elements/1.1/" xmlns:cc="http://creativecommons.org/ns#" xmlns:rdf="http://www.w3.org/1999/02/22-rdf-syntax-ns#">
   <cc:Work>
    <dc:type rdf:resource="http://purl.org/dc/dcmitype/StillImage"/>
    <dc:date>2026-04-14T01:11:51.770233</dc:date>
    <dc:format>image/svg+xml</dc:format>
    <dc:creator>
     <cc:Agent>
      <dc:title>Matplotlib v3.10.8, https://matplotlib.org/</dc:title>
     </cc:Agent>
    </dc:creator>
   </cc:Work>
  </rdf:RDF>
 </metadata>
 <defs>
  <style type="text/css">*{stroke-linejoin: round; stroke-linecap: butt}</style>
 </defs>
 <g id="figure_1">
  <g id="patch_1">
   <path d="M 0 345.6 
L 460.8 345.6 
L 460.8 0 
L 0 0 
z
" style="fill: #ffffff"/>
  </g>
  <g id="axes_1">
   <g id="patch_2">
    <path d="M 57.6 307.584 
L 414.72 307.584 
L 414.72 41.472 
L 57.6 41.472 
z
" style="fill: #ffffff"/>
   </g>
   <g id="matplotlib.axis_1">
    <g id="xtick_1">
     <g id="line2d_1">
      <path d="M 73.832727 307.584 
L 73.832727 41.472 
" clip-path="url(#pf8505b596c)" style="fill: none; stroke: #b0b0b0; stroke-width: 0.8; stroke-linecap: square"/>
     </g>
     <g id="line2d_2">
      <defs>
       <path id="mdf3160b9d3" d="M 0 0 
L 0 3.5 
" style="stroke: #000000; stroke-width: 0.8"/>
      </defs>
      <g>
       <use xlink:href="#mdf3160b9d3" x="73.832727" y="307.584" style="stroke: #000000; stroke-width: 0.8"/>
      </g>
     </g>
     <g id="text_1">
      <!-- 0 -->
      <g transform="translate(70.651477 322.182437) scale(0.1 -0.1)">
       <defs>
        <path id="DejaVuSans-30" d="M 2034 4250 
Q 1547 4250 1301 3770 
Q 1056 3291 1056 2328 
Q 1056 1369 1301 889 
Q 1547 409 2034 409 
Q 2525 409 2770 889 
Q 3016 1369 3016 2328 
Q 3016 3291 2770 3770 
Q 2525 4250 2034 4250 
z
M 2034 4750 
Q 2819 4750 3233 4129 
Q 3647 3509 3647 2328 
Q 3647 1150 3233 529 
Q 2819 -91 2034 -91 
Q 1250 -91 836 529 
Q 422 1150 422 2328 
Q 422 3509 836 4129 
Q 1250 4750 2034 4750 
z
" transform="scale(0.015625)"/>
       </defs>
       <use xlink:href="#DejaVuSans-30"/>
      </g>
     </g>
    </g>
    <g id="xtick_2">
     <g id="line2d_3">
      <path d="M 114.618474 307.584 
L 114.618474 41.472 
" clip-path="url(#pf8505b596c)" style="fill: none; stroke: #b0b0b0; stroke-width: 0.8; stroke-linecap: square"/>
     </g>
     <g id="line2d_4">
      <g>
       <use xlink:href="#mdf3160b9d3" x="114.618474" y="307.584" style="stroke: #000000; stroke-width: 0.8"/>
      </g>
     </g>
     <g id="text_2">
      <!-- 25 -->
      <g transform="translate(108.255974 322.182437) scale(0.1 -0.1)">
       <defs>
        <path id="DejaVuSans-32" d="M 1228 531 
L 3431 531 
L 3431 0 
L 469 0 
L 469 531 
Q 828 903 1448 1529 
Q 2069 2156 2228 2338 
Q 2531 2678 2651 2914 
Q 2772 3150 2772 3378 
Q 2772 3750 2511 3984 
Q 2250 4219 1831 4219 
Q 1534 4219 1204 4116 
Q 875 4013 500 3803 
L 500 4441 
Q 881 4594 1212 4672 
Q 1544 4750 1819 4750 
Q 2544 4750 2975 4387 
Q 3406 4025 3406 3419 
Q 3406 3131 3298 2873 
Q 3191 2616 2906 2266 
Q 2828 2175 2409 1742 
Q 1991 1309 1228 531 
z
" transform="scale(0.015625)"/>
        <path id="DejaVuSans-35" d="M 691 4666 
L 3169 4666 
L 3169 4134 
L 1269 4134 
L 1269 2991 
Q 1406 3038 1543 3061 
Q 1681 3084 1819 3084 
Q 2600 3084 3056 2656 
Q 3513 2228 3513 1497 
Q 3513 744 3044 326 
Q 2575 -91 1722 -91 
Q 1428 -91 1123 -41 
Q 819 9 494 109 
L 494 744 
Q 775 591 1075 516 
Q 1375 441 1709 441 
Q 2250 441 2565 725 
Q 2881 1009 2881 1497 
Q 2881 1984 2565 2268 
Q 2250 2553 1709 2553 
Q 1456 2553 1204 2497 
Q 953 2441 691 2322 
L 691 4666 
z
" transform="scale(0.015625)"/>
       </defs>
       <use xlink:href="#DejaVuSans-32"/>
       <use xlink:href="#DejaVuSans-35" transform="translate(63.623047 0)"/>
      </g>
     </g>
    </g>
    <g id="xtick_3">
     <g id="line2d_5">
      <path d="M 155.404221 307.584 
L 155.404221 41.472 
" clip-path="url(#pf8505b596c)" style="fill: none; stroke: #b0b0b0; stroke-width: 0.8; stroke-linecap: square"/>
     </g>
     <g id="line2d_6">
      <g>
       <use xlink:href="#mdf3160b9d3" x="155.404221" y="307.584" style="stroke: #000000; stroke-width: 0.8"/>
      </g>
     </g>
     <g id="text_3">
      <!-- 50 -->
      <g transform="translate(149.041721 322.182437) scale(0.1 -0.1)">
       <use xlink:href="#DejaVuSans-35"/>
       <use xlink:href="#DejaVuSans-30" transform="translate(63.623047 0)"/>
      </g>
     </g>
    </g>
    <g id="xtick_4">
     <g id="line2d_7">
      <path d="M 196.189968 307.584 
L 196.189968 41.472 
" clip-path="url(#pf8505b596c)" style="fill: none; stroke: #b0b0b0; stroke-width: 0.8; stroke-linecap: square"/>
     </g>
     <g id="line2d_8">
      <g>
       <use xlink:href="#mdf3160b9d3" x="196.189968" y="307.584" style="stroke: #000000; stroke-width: 0.8"/>
      </g>
     </g>
     <g id="text_4">
      <!-- 75 -->
      <g transform="translate(189.827468 322.182437) scale(0.1 -0.1)">
       <defs>
        <path id="DejaVuSans-37" d="M 525 4666 
L 3525 4666 
L 3525 4397 
L 1831 0 
L 1172 0 
L 2766 4134 
L 525 4134 
L 525 4666 
z
" transform="scale(0.015625)"/>
       </defs>
       <use xlink:href="#DejaVuSans-37"/>
       <use xlink:href="#DejaVuSans-35" transform="translate(63.623047 0)"/>
      </g>
     </g>
    </g>
    <g id="xtick_5">
     <g id="line2d_9">
      <path d="M 236.975715 307.584 
L 236.975715 41.472 
" clip-path="url(#pf8505b596c)" style="fill: none; stroke: #b0b0b0; stroke-width: 0.8; stroke-linecap: square"/>
     </g>
     <g id="line2d_10">
      <g>
       <use xlink:href="#mdf3160b9d3" x="236.975715" y="307.584" style="stroke: #000000; stroke-width: 0.8"/>
      </g>
     </g>
     <g id="text_5">
      <!-- 100 -->
      <g transform="translate(227.431965 322.182437) scale(0.1 -0.1)">
       <defs>
        <path id="DejaVuSans-31" d="M 794 531 
L 1825 531 
L 1825 4091 
L 703 3866 
L 703 4441 
L 1819 4666 
L 2450 4666 
L 2450 531 
L 3481 531 
L 3481 0 
L 794 0 
L 794 531 
z
" transform="scale(0.015625)"/>
       </defs>
       <use xlink:href="#DejaVuSans-31"/>
       <use xlink:href="#DejaVuSans-30" transform="translate(63.623047 0)"/>
       <use xlink:href="#DejaVuSans-30" transform="translate(127.246094 0)"/>
      </g>
     </g>
    </g>
    <g id="xtick_6">
     <g id="line2d_11">
      <path d="M 277.761462 307.584 
L 277.761462 41.472 
" clip-path="url(#pf8505b596c)" style="fill: none; stroke: #b0b0b0; stroke-width: 0.8; stroke-linecap: square"/>
     </g>
     <g id="line2d_12">
      <g>
       <use xlink:href="#mdf3160b9d3" x="277.761462" y="307.584" style="stroke: #000000; stroke-width: 0.8"/>
      </g>
     </g>
     <g id="text_6">
      <!-- 125 -->
      <g transform="translate(268.217712 322.182437) scale(0.1 -0.1)">
       <use xlink:href="#DejaVuSans-31"/>
       <use xlink:href="#DejaVuSans-32" transform="translate(63.623047 0)"/>
       <use xlink:href="#DejaVuSans-35" transform="translate(127.246094 0)"/>
      </g>
     </g>
    </g>
    <g id="xtick_7">
     <g id="line2d_13">
      <path d="M 318.547209 307.584 
L 318.547209 41.472 
" clip-path="url(#pf8505b596c)" style="fill: none; stroke: #b0b0b0; stroke-width: 0.8; stroke-linecap: square"/>
     </g>
     <g id="line2d_14">
      <g>
       <use xlink:href="#mdf3160b9d3" x="318.547209" y="307.584" style="stroke: #000000; stroke-width: 0.8"/>
      </g>
     </g>
     <g id="text_7">
      <!-- 150 -->
      <g transform="translate(309.003459 322.182437) scale(0.1 -0.1)">
       <use xlink:href="#DejaVuSans-31"/>
       <use xlink:href="#DejaVuSans-35" transform="translate(63.623047 0)"/>
       <use xlink:href="#DejaVuSans-30" transform="translate(127.246094 0)"/>
      </g>
     </g>
    </g>
    <g id="xtick_8">
     <g id="line2d_15">
      <path d="M 359.332956 307.584 
L 359.332956 41.472 
" clip-path="url(#pf8505b596c)" style="fill: none; stroke: #b0b0b0; stroke-width: 0.8; stroke-linecap: square"/>
     </g>
     <g id="line2d_16">
      <g>
       <use xlink:href="#mdf3160b9d3" x="359.332956" y="307.584" style="stroke: #000000; stroke-width: 0.8"/>
      </g>
     </g>
     <g id="text_8">
      <!-- 175 -->
      <g transform="translate(349.789206 322.182437) scale(0.1 -0.1)">
       <use xlink:href="#DejaVuSans-31"/>
       <use xlink:href="#DejaVuSans-37" transform="translate(63.623047 0)"/>
       <use xlink:href="#DejaVuSans-35" transform="translate(127.246094 0)"/>
      </g>
     </g>
    </g>
    <g id="xtick_9">
     <g id="line2d_17">
      <path d="M 400.118703 307.584 
L 400.118703 41.472 
" clip-path="url(#pf8505b596c)" style="fill: none; stroke: #b0b0b0; stroke-width: 0.8; stroke-linecap: square"/>
     </g>
     <g id="line2d_18">
      <g>
       <use xlink:href="#mdf3160b9d3" x="400.118703" y="307.584" style="stroke: #000000; stroke-width: 0.8"/>
      </g>
     </g>
     <g id="text_9">
      <!-- 200 -->
      <g transform="translate(390.574953 322.182437) scale(0.1 -0.1)">
       <use xlink:href="#DejaVuSans-32"/>
       <use xlink:href="#DejaVuSans-30" transform="translate(63.623047 0)"/>
       <use xlink:href="#DejaVuSans-30" transform="translate(127.246094 0)"/>
      </g>
     </g>
    </g>
    <g id="text_10">
     <!-- Generations -->
     <g transform="translate(205.662344 335.860562) scale(0.1 -0.1)">
      <defs>
       <path id="DejaVuSans-47" d="M 3809 666 
L 3809 1919 
L 2778 1919 
L 2778 2438 
L 4434 2438 
L 4434 434 
Q 4069 175 3628 42 
Q 3188 -91 2688 -91 
Q 1594 -91 976 548 
Q 359 1188 359 2328 
Q 359 3472 976 4111 
Q 1594 4750 2688 4750 
Q 3144 4750 3555 4637 
Q 3966 4525 4313 4306 
L 4313 3634 
Q 3963 3931 3569 4081 
Q 3175 4231 2741 4231 
Q 1884 4231 1454 3753 
Q 1025 3275 1025 2328 
Q 1025 1384 1454 906 
Q 1884 428 2741 428 
Q 3075 428 3337 486 
Q 3600 544 3809 666 
z
" transform="scale(0.015625)"/>
       <path id="DejaVuSans-65" d="M 3597 1894 
L 3597 1613 
L 953 1613 
Q 991 1019 1311 708 
Q 1631 397 2203 397 
Q 2534 397 2845 478 
Q 3156 559 3463 722 
L 3463 178 
Q 3153 47 2828 -22 
Q 2503 -91 2169 -91 
Q 1331 -91 842 396 
Q 353 884 353 1716 
Q 353 2575 817 3079 
Q 1281 3584 2069 3584 
Q 2775 3584 3186 3129 
Q 3597 2675 3597 1894 
z
M 3022 2063 
Q 3016 2534 2758 2815 
Q 2500 3097 2075 3097 
Q 1594 3097 1305 2825 
Q 1016 2553 972 2059 
L 3022 2063 
z
" transform="scale(0.015625)"/>
       <path id="DejaVuSans-6e" d="M 3513 2113 
L 3513 0 
L 2938 0 
L 2938 2094 
Q 2938 2591 2744 2837 
Q 2550 3084 2163 3084 
Q 1697 3084 1428 2787 
Q 1159 2491 1159 1978 
L 1159 0 
L 581 0 
L 581 3500 
L 1159 3500 
L 1159 2956 
Q 1366 3272 1645 3428 
Q 1925 3584 2291 3584 
Q 2894 3584 3203 3211 
Q 3513 2838 3513 2113 
z
" transform="scale(0.015625)"/>
       <path id="DejaVuSans-72" d="M 2631 2963 
Q 2534 3019 2420 3045 
Q 2306 3072 2169 3072 
Q 1681 3072 1420 2755 
Q 1159 2438 1159 1844 
L 1159 0 
L 581 0 
L 581 3500 
L 1159 3500 
L 1159 2956 
Q 1341 3275 1631 3429 
Q 1922 3584 2338 3584 
Q 2397 3584 2469 3576 
Q 2541 3569 2628 3553 
L 2631 2963 
z
" transform="scale(0.015625)"/>
       <path id="DejaVuSans-61" d="M 2194 1759 
Q 1497 1759 1228 1600 
Q 959 1441 959 1056 
Q 959 750 1161 570 
Q 1363 391 1709 391 
Q 2188 391 2477 730 
Q 2766 1069 2766 1631 
L 2766 1759 
L 2194 1759 
z
M 3341 1997 
L 3341 0 
L 2766 0 
L 2766 531 
Q 2569 213 2275 61 
Q 1981 -91 1556 -91 
Q 1019 -91 701 211 
Q 384 513 384 1019 
Q 384 1609 779 1909 
Q 1175 2209 1959 2209 
L 2766 2209 
L 2766 2266 
Q 2766 2663 2505 2880 
Q 2244 3097 1772 3097 
Q 1472 3097 1187 3025 
Q 903 2953 641 2809 
L 641 3341 
Q 956 3463 1253 3523 
Q 1550 3584 1831 3584 
Q 2591 3584 2966 3190 
Q 3341 2797 3341 1997 
z
" transform="scale(0.015625)"/>
       <path id="DejaVuSans-74" d="M 1172 4494 
L 1172 3500 
L 2356 3500 
L 2356 3053 
L 1172 3053 
L 1172 1153 
Q 1172 725 1289 603 
Q 1406 481 1766 481 
L 2356 481 
L 2356 0 
L 1766 0 
Q 1100 0 847 248 
Q 594 497 594 1153 
L 594 3053 
L 172 3053 
L 172 3500 
L 594 3500 
L 594 4494 
L 1172 4494 
z
" transform="scale(0.015625)"/>
       <path id="DejaVuSans-69" d="M 603 3500 
L 1178 3500 
L 1178 0 
L 603 0 
L 603 3500 
z
M 603 4863 
L 1178 4863 
L 1178 4134 
L 603 4134 
L 603 4863 
z
" transform="scale(0.015625)"/>
       <path id="DejaVuSans-6f" d="M 1959 3097 
Q 1497 3097 1228 2736 
Q 959 2375 959 1747 
Q 959 1119 1226 758 
Q 1494 397 1959 397 
Q 2419 397 2687 759 
Q 2956 1122 2956 1747 
Q 2956 2369 2687 2733 
Q 2419 3097 1959 3097 
z
M 1959 3584 
Q 2709 3584 3137 3096 
Q 3566 2609 3566 1747 
Q 3566 888 3137 398 
Q 2709 -91 1959 -91 
Q 1206 -91 779 398 
Q 353 888 353 1747 
Q 353 2609 779 3096 
Q 1206 3584 1959 3584 
z
" transform="scale(0.015625)"/>
       <path id="DejaVuSans-73" d="M 2834 3397 
L 2834 2853 
Q 2591 2978 2328 3040 
Q 2066 3103 1784 3103 
Q 1356 3103 1142 2972 
Q 928 2841 928 2578 
Q 928 2378 1081 2264 
Q 1234 2150 1697 2047 
L 1894 2003 
Q 2506 1872 2764 1633 
Q 3022 1394 3022 966 
Q 3022 478 2636 193 
Q 2250 -91 1575 -91 
Q 1294 -91 989 -36 
Q 684 19 347 128 
L 347 722 
Q 666 556 975 473 
Q 1284 391 1588 391 
Q 1994 391 2212 530 
Q 2431 669 2431 922 
Q 2431 1156 2273 1281 
Q 2116 1406 1581 1522 
L 1381 1569 
Q 847 1681 609 1914 
Q 372 2147 372 2553 
Q 372 3047 722 3315 
Q 1072 3584 1716 3584 
Q 2034 3584 2315 3537 
Q 2597 3491 2834 3397 
z
" transform="scale(0.015625)"/>
      </defs>
      <use xlink:href="#DejaVuSans-47"/>
      <use xlink:href="#DejaVuSans-65" transform="translate(77.490234 0)"/>
      <use xlink:href="#DejaVuSans-6e" transform="translate(139.013672 0)"/>
      <use xlink:href="#DejaVuSans-65" transform="translate(202.392578 0)"/>
      <use xlink:href="#DejaVuSans-72" transform="translate(263.916016 0)"/>
      <use xlink:href="#DejaVuSans-61" transform="translate(305.029297 0)"/>
      <use xlink:href="#DejaVuSans-74" transform="translate(366.308594 0)"/>
      <use xlink:href="#DejaVuSans-69" transform="translate(405.517578 0)"/>
      <use xlink:href="#DejaVuSans-6f" transform="translate(433.300781 0)"/>
      <use xlink:href="#DejaVuSans-6e" transform="translate(494.482422 0)"/>
      <use xlink:href="#DejaVuSans-73" transform="translate(557.861328 0)"/>
     </g>
    </g>
   </g>
   <g id="matplotlib.axis_2">
    <g id="ytick_1">
     <g id="line2d_19">
      <path d="M 57.6 116.868823 
L 414.72 116.868823 
" clip-path="url(#pf8505b596c)" style="fill: none; stroke: #b0b0b0; stroke-width: 0.8; stroke-linecap: square"/>
     </g>
     <g id="line2d_20">
      <defs>
       <path id="m03f5f8b257" d="M 0 0 
L -3.5 0 
" style="stroke: #000000; stroke-width: 0.8"/>
      </defs>
      <g>
       <use xlink:href="#m03f5f8b257" x="57.6" y="116.868823" style="stroke: #000000; stroke-width: 0.8"/>
      </g>
     </g>
     <g id="text_11">
      <!-- $\mathdefault{10^{2}}$ -->
      <g transform="translate(33 120.668042) scale(0.1 -0.1)">
       <use xlink:href="#DejaVuSans-31" transform="translate(0 0.765625)"/>
       <use xlink:href="#DejaVuSans-30" transform="translate(63.623047 0.765625)"/>
       <use xlink:href="#DejaVuSans-32" transform="translate(128.203125 39.046875) scale(0.7)"/>
      </g>
     </g>
    </g>
    <g id="text_12">
     <!-- Fitness -->
     <g transform="translate(26.920312 191.845187) rotate(-90) scale(0.1 -0.1)">
      <defs>
       <path id="DejaVuSans-46" d="M 628 4666 
L 3309 4666 
L 3309 4134 
L 1259 4134 
L 1259 2759 
L 3109 2759 
L 3109 2228 
L 1259 2228 
L 1259 0 
L 628 0 
L 628 4666 
z
" transform="scale(0.015625)"/>
      </defs>
      <use xlink:href="#DejaVuSans-46"/>
      <use xlink:href="#DejaVuSans-69" transform="translate(50.269531 0)"/>
      <use xlink:href="#DejaVuSans-74" transform="translate(78.052734 0)"/>
      <use xlink:href="#DejaVuSans-6e" transform="translate(117.261719 0)"/>
      <use xlink:href="#DejaVuSans-65" transform="translate(180.640625 0)"/>
      <use xlink:href="#DejaVuSans-73" transform="translate(242.164062 0)"/>
      <use xlink:href="#DejaVuSans-73" transform="translate(294.263672 0)"/>
     </g>
    </g>
   </g>
   <g id="line2d_21">
    <path d="M 73.832727 295.488 
L 75.464157 223.915348 
L 77.095587 175.339505 
L 78.727017 169.085266 
L 80.358447 149.375426 
L 81.989877 153.379096 
L 83.621307 147.028362 
L 85.252736 145.021993 
L 86.884166 147.398119 
L 88.515596 139.478288 
L 90.147026 138.475775 
L 91.778456 139.383857 
L 93.409886 138.679546 
L 95.041316 136.359076 
L 96.672746 136.53724 
L 98.304175 137.932889 
L 99.935605 136.507607 
L 101.567035 135.913891 
L 103.198465 136.056691 
L 104.829895 134.874734 
L 106.461325 140.950378 
L 108.092755 136.259688 
L 109.724185 136.746172 
L 111.355614 136.885503 
L 112.987044 134.222729 
L 114.618474 136.248956 
L 116.249904 134.118754 
L 117.881334 133.698709 
L 119.512764 131.740124 
L 121.144194 133.01875 
L 122.775624 132.704395 
L 124.407053 133.43974 
L 126.038483 131.335005 
L 127.669913 130.360477 
L 129.301343 130.397062 
L 130.932773 131.125178 
L 132.564203 132.290378 
L 134.195633 130.175263 
L 135.827063 130.114287 
L 137.458492 131.67132 
L 139.089922 130.375651 
L 140.721352 131.454577 
L 142.352782 130.599185 
L 143.984212 132.602962 
L 145.615642 131.858694 
L 147.247072 131.518075 
L 148.878502 129.958622 
L 150.509931 131.271697 
L 152.141361 129.919469 
L 153.772791 129.519366 
L 155.404221 127.510244 
L 157.035651 131.527764 
L 158.667081 132.350656 
L 160.298511 131.712884 
L 161.929941 129.130024 
L 165.1928 131.978335 
L 166.82423 130.888326 
L 168.45566 129.098435 
L 170.08709 128.883375 
L 171.71852 127.986727 
L 173.34995 128.080499 
L 174.98138 129.935245 
L 176.61281 128.141632 
L 178.244239 129.437682 
L 179.875669 130.064017 
L 181.507099 130.182281 
L 183.138529 131.103085 
L 184.769959 129.522222 
L 188.032819 127.97195 
L 189.664249 130.080579 
L 191.295678 127.749683 
L 192.927108 128.399436 
L 194.558538 129.448517 
L 196.189968 127.988792 
L 197.821398 127.883775 
L 199.452828 129.251068 
L 201.084258 126.847583 
L 202.715688 128.22895 
L 204.347117 126.481626 
L 205.978547 127.050353 
L 207.609977 127.203678 
L 209.241407 125.471256 
L 210.872837 127.977866 
L 212.504267 127.706505 
L 214.135697 129.820729 
L 215.767127 126.909961 
L 217.398556 126.945177 
L 219.029986 129.266564 
L 220.661416 127.097848 
L 222.292846 126.799029 
L 223.924276 128.437779 
L 225.555706 127.415664 
L 227.187136 129.555817 
L 228.818566 126.218371 
L 230.449995 128.40159 
L 232.081425 128.405922 
L 233.712855 126.811033 
L 235.344285 126.085231 
L 236.975715 127.880282 
L 238.607145 127.328547 
L 240.238575 128.771959 
L 241.870005 127.7257 
L 245.132864 127.35392 
L 246.764294 128.85096 
L 248.395724 129.43885 
L 250.027154 126.870752 
L 251.658584 126.593462 
L 253.290014 124.890844 
L 254.921444 126.232353 
L 256.552873 126.497851 
L 258.184303 124.804742 
L 259.815733 125.270667 
L 261.447163 126.995365 
L 263.078593 125.972622 
L 264.710023 124.755735 
L 266.341453 125.950896 
L 267.972883 130.153792 
L 269.604312 127.685752 
L 271.235742 125.521706 
L 272.867172 126.639621 
L 274.498602 124.333057 
L 276.130032 124.754371 
L 277.761462 129.039008 
L 279.392892 126.905625 
L 281.024322 126.333306 
L 282.655751 126.064201 
L 284.287181 126.674758 
L 285.918611 126.665473 
L 287.550041 126.378726 
L 289.181471 127.078552 
L 290.812901 126.201589 
L 292.444331 126.952663 
L 294.075761 126.022085 
L 297.33862 125.18778 
L 298.97005 126.502365 
L 300.60148 126.328122 
L 302.23291 127.85613 
L 303.86434 128.342783 
L 305.49577 128.237584 
L 307.1272 126.685016 
L 308.75863 127.657341 
L 310.390059 129.844528 
L 312.021489 126.247599 
L 313.652919 125.498774 
L 315.284349 126.536209 
L 316.915779 124.189019 
L 318.547209 127.051028 
L 320.178639 126.535857 
L 321.810069 127.216472 
L 323.441498 125.240484 
L 325.072928 127.189234 
L 326.704358 127.786989 
L 328.335788 125.330593 
L 329.967218 124.257089 
L 331.598648 124.988856 
L 333.230078 125.429031 
L 334.861508 125.693968 
L 336.492937 125.252451 
L 338.124367 126.407539 
L 339.755797 126.294565 
L 341.387227 127.024763 
L 343.018657 126.142014 
L 346.281517 125.59958 
L 347.912947 125.85513 
L 349.544376 127.53924 
L 351.175806 124.127448 
L 352.807236 124.59522 
L 354.438666 126.082177 
L 356.070096 126.641707 
L 357.701526 127.642727 
L 359.332956 127.864764 
L 360.964386 124.843198 
L 362.595815 126.115202 
L 364.227245 124.771472 
L 365.858675 126.813018 
L 367.490105 124.925305 
L 369.121535 123.507054 
L 370.752965 124.670366 
L 372.384395 124.092954 
L 374.015825 125.681351 
L 377.278684 125.532083 
L 378.910114 125.7499 
L 380.541544 127.129269 
L 382.172974 126.64213 
L 383.804404 125.251257 
L 385.435834 125.973393 
L 387.067264 125.642 
L 388.698693 124.755195 
L 390.330123 125.062501 
L 391.961553 124.05621 
L 393.592983 124.832114 
L 395.224413 126.160509 
L 396.855843 123.750633 
L 398.487273 124.748566 
L 398.487273 124.748566 
" clip-path="url(#pf8505b596c)" style="fill: none; stroke: #0000ff; stroke-width: 1.5; stroke-linecap: square"/>
   </g>
   <g id="line2d_22">
    <path d="M 73.832727 242.478182 
L 75.464157 176.455445 
L 77.095587 139.59435 
L 78.727017 138.069524 
L 80.358447 125.516087 
L 81.989877 122.235475 
L 83.621307 117.250358 
L 85.252736 120.744117 
L 86.884166 119.599019 
L 88.515596 121.824454 
L 90.147026 121.11126 
L 91.778456 121.970892 
L 93.409886 121.390112 
L 95.041316 120.318983 
L 96.672746 121.460421 
L 98.304175 118.388439 
L 99.935605 120.412531 
L 101.567035 119.094667 
L 103.198465 120.173474 
L 104.829895 112.90068 
L 106.461325 112.545437 
L 108.092755 119.282369 
L 109.724185 118.052576 
L 111.355614 117.477843 
L 112.987044 115.087397 
L 114.618474 119.076714 
L 116.249904 117.579301 
L 117.881334 112.977476 
L 119.512764 112.57162 
L 121.144194 116.752877 
L 124.407053 114.679739 
L 126.038483 114.657286 
L 129.301343 113.450596 
L 130.932773 112.326803 
L 132.564203 116.202842 
L 134.195633 113.254594 
L 135.827063 113.748664 
L 137.458492 115.551289 
L 140.721352 113.256978 
L 142.352782 113.763888 
L 143.984212 113.602822 
L 145.615642 115.326317 
L 148.878502 113.57831 
L 150.509931 114.378559 
L 152.141361 114.336127 
L 153.772791 114.907205 
L 155.404221 111.107462 
L 157.035651 114.193007 
L 158.667081 112.215707 
L 160.298511 117.971615 
L 161.929941 113.590643 
L 163.56137 111.798606 
L 165.1928 114.132443 
L 166.82423 115.039386 
L 168.45566 113.590093 
L 170.08709 113.14084 
L 171.71852 111.38028 
L 173.34995 113.568468 
L 174.98138 113.43212 
L 176.61281 111.835457 
L 178.244239 113.587711 
L 179.875669 112.899106 
L 181.507099 115.137846 
L 183.138529 115.063065 
L 184.769959 113.284092 
L 186.401389 113.256378 
L 188.032819 111.295835 
L 189.664249 115.222978 
L 191.295678 110.973372 
L 192.927108 112.669972 
L 194.558538 113.084807 
L 196.189968 111.303315 
L 197.821398 110.446803 
L 199.452828 111.279873 
L 201.084258 110.342132 
L 202.715688 112.095425 
L 204.347117 110.225157 
L 205.978547 111.306548 
L 207.609977 110.618488 
L 209.241407 109.077314 
L 210.872837 112.289462 
L 212.504267 109.995114 
L 214.135697 112.828244 
L 215.767127 112.341598 
L 217.398556 110.368259 
L 219.029986 113.093117 
L 220.661416 111.586872 
L 222.292846 111.222604 
L 223.924276 113.499982 
L 225.555706 112.531751 
L 227.187136 112.118836 
L 228.818566 111.386786 
L 230.449995 111.271121 
L 232.081425 111.295826 
L 233.712855 111.802308 
L 235.344285 109.205933 
L 236.975715 112.508113 
L 238.607145 111.318237 
L 240.238575 114.469759 
L 241.870005 110.945654 
L 243.501434 112.285501 
L 245.132864 112.015199 
L 246.764294 110.130885 
L 248.395724 111.80813 
L 250.027154 110.982468 
L 251.658584 108.040598 
L 253.290014 107.725597 
L 254.921444 111.250436 
L 256.552873 110.939694 
L 258.184303 108.706197 
L 259.815733 109.313848 
L 261.447163 111.265686 
L 263.078593 109.894707 
L 264.710023 107.855813 
L 267.972883 114.473828 
L 269.604312 113.28013 
L 271.235742 110.286847 
L 272.867172 111.575556 
L 274.498602 108.757141 
L 276.130032 109.009327 
L 277.761462 115.462745 
L 279.392892 111.246388 
L 281.024322 109.530918 
L 282.655751 110.750538 
L 285.918611 109.352342 
L 287.550041 110.06854 
L 289.181471 112.420522 
L 290.812901 110.23416 
L 292.444331 113.007764 
L 294.075761 108.875634 
L 295.70719 110.985291 
L 297.33862 110.233119 
L 298.97005 110.999823 
L 300.60148 110.453304 
L 302.23291 112.762178 
L 303.86434 112.490984 
L 305.49577 111.440343 
L 307.1272 110.186877 
L 308.75863 111.434028 
L 310.390059 114.895033 
L 312.021489 110.941406 
L 313.652919 110.991463 
L 315.284349 111.292063 
L 316.915779 109.610003 
L 318.547209 112.000463 
L 320.178639 110.236849 
L 321.810069 113.507558 
L 323.441498 108.641267 
L 325.072928 110.701367 
L 326.704358 109.936573 
L 328.335788 110.023796 
L 329.967218 108.526158 
L 331.598648 109.10485 
L 333.230078 109.5497 
L 334.861508 111.52984 
L 336.492937 110.071295 
L 338.124367 109.859817 
L 339.755797 111.542958 
L 341.387227 110.324061 
L 343.018657 110.42321 
L 344.650087 111.061029 
L 346.281517 110.772316 
L 347.912947 109.573768 
L 349.544376 108.996591 
L 351.175806 105.747446 
L 352.807236 108.871904 
L 354.438666 109.154215 
L 356.070096 110.680431 
L 357.701526 111.500408 
L 359.332956 113.201088 
L 360.964386 108.541031 
L 362.595815 110.3314 
L 364.227245 110.305602 
L 365.858675 111.817711 
L 367.490105 109.961208 
L 369.121535 108.533377 
L 370.752965 109.965046 
L 372.384395 108.722291 
L 374.015825 109.3785 
L 377.278684 110.193552 
L 378.910114 110.780697 
L 380.541544 112.690327 
L 382.172974 112.003144 
L 383.804404 109.851092 
L 387.067264 110.675701 
L 388.698693 108.830838 
L 390.330123 109.106779 
L 391.961553 107.506055 
L 393.592983 109.651096 
L 395.224413 111.387689 
L 396.855843 109.260062 
L 398.487273 110.47009 
L 398.487273 110.47009 
" clip-path="url(#pf8505b596c)" style="fill: none; stroke-dasharray: 9.6,2.4,1.5,2.4; stroke-dashoffset: 0; stroke: #008000; stroke-width: 1.5"/>
   </g>
   <g id="line2d_23">
    <path d="M 73.832727 136.357125 
L 75.464157 124.072802 
L 77.095587 113.618519 
L 78.727017 95.495752 
L 80.358447 94.040468 
L 81.989877 92.802947 
L 83.621307 94.054725 
L 85.252736 101.761972 
L 86.884166 95.729445 
L 88.515596 88.300599 
L 90.147026 100.133982 
L 91.778456 101.373528 
L 93.409886 91.377231 
L 95.041316 79.011192 
L 96.672746 88.338317 
L 98.304175 94.155052 
L 99.935605 95.281221 
L 101.567035 89.633138 
L 103.198465 90.115033 
L 104.829895 74.758858 
L 106.461325 79.947098 
L 108.092755 95.775863 
L 109.724185 89.968 
L 111.355614 88.313127 
L 112.987044 83.035856 
L 114.618474 91.228616 
L 116.249904 86.802348 
L 117.881334 54.413843 
L 119.512764 71.503135 
L 121.144194 85.789783 
L 122.775624 88.946276 
L 124.407053 84.269748 
L 126.038483 81.817589 
L 127.669913 53.568 
L 129.301343 77.335207 
L 130.932773 80.465094 
L 132.564203 55.493962 
L 135.827063 87.160425 
L 137.458492 87.311566 
L 139.089922 83.285958 
L 140.721352 76.35758 
L 142.352782 84.488222 
L 143.984212 79.125274 
L 145.615642 80.146551 
L 147.247072 85.717389 
L 148.878502 84.543969 
L 150.509931 87.009505 
L 152.141361 81.708394 
L 153.772791 93.173809 
L 155.404221 66.4997 
L 157.035651 81.342673 
L 158.667081 88.437692 
L 160.298511 92.959504 
L 161.929941 86.973538 
L 163.56137 71.230212 
L 165.1928 80.036921 
L 166.82423 84.843772 
L 168.45566 73.875161 
L 170.08709 83.060885 
L 171.71852 68.974248 
L 173.34995 89.723739 
L 174.98138 82.720151 
L 176.61281 91.090868 
L 178.244239 77.617091 
L 179.875669 80.42981 
L 181.507099 91.200431 
L 183.138529 85.670781 
L 184.769959 82.933952 
L 186.401389 71.528076 
L 188.032819 81.604759 
L 189.664249 84.308315 
L 191.295678 76.347629 
L 192.927108 85.607443 
L 194.558538 87.212798 
L 196.189968 72.388194 
L 197.821398 60.137706 
L 199.452828 79.046613 
L 201.084258 80.410739 
L 202.715688 60.591244 
L 204.347117 68.663633 
L 205.978547 72.062815 
L 207.609977 77.792663 
L 209.241407 85.700515 
L 210.872837 85.687414 
L 212.504267 79.952055 
L 214.135697 83.556859 
L 215.767127 80.447385 
L 217.398556 77.818268 
L 219.029986 80.063635 
L 220.661416 77.754683 
L 222.292846 73.838985 
L 223.924276 73.55764 
L 225.555706 81.745782 
L 227.187136 78.977981 
L 228.818566 84.484186 
L 230.449995 87.033444 
L 232.081425 91.082031 
L 233.712855 72.521693 
L 235.344285 62.418599 
L 236.975715 83.046348 
L 238.607145 76.765285 
L 240.238575 81.61506 
L 241.870005 76.652897 
L 243.501434 84.44583 
L 245.132864 80.413434 
L 246.764294 72.027326 
L 248.395724 71.131689 
L 250.027154 84.299867 
L 251.658584 56.782808 
L 253.290014 80.339693 
L 254.921444 88.309798 
L 256.552873 84.391354 
L 258.184303 72.903577 
L 259.815733 77.621863 
L 261.447163 87.006242 
L 263.078593 65.44876 
L 264.710023 60.375175 
L 266.341453 87.123314 
L 267.972883 80.303634 
L 269.604312 77.511413 
L 271.235742 76.236675 
L 272.867172 79.141855 
L 274.498602 71.150897 
L 276.130032 77.641496 
L 277.761462 91.200311 
L 279.392892 85.484052 
L 281.024322 56.673114 
L 282.655751 76.587292 
L 284.287181 66.503545 
L 285.918611 67.850502 
L 287.550041 72.358268 
L 289.181471 84.228184 
L 290.812901 68.516468 
L 292.444331 80.015221 
L 294.075761 83.220185 
L 295.70719 68.669717 
L 297.33862 78.77441 
L 298.97005 87.354719 
L 300.60148 64.838947 
L 302.23291 81.81484 
L 303.86434 81.428883 
L 305.49577 72.514672 
L 307.1272 84.292448 
L 308.75863 73.69349 
L 310.390059 85.442248 
L 312.021489 75.153259 
L 313.652919 81.476565 
L 315.284349 76.350425 
L 316.915779 74.852521 
L 318.547209 84.6209 
L 320.178639 78.689668 
L 321.810069 89.696921 
L 323.441498 76.663552 
L 325.072928 75.135707 
L 326.704358 75.116763 
L 328.335788 78.872446 
L 329.967218 72.648625 
L 331.598648 78.796852 
L 333.230078 85.484636 
L 334.861508 86.678202 
L 336.492937 77.081817 
L 338.124367 84.507292 
L 339.755797 74.980667 
L 341.387227 83.392648 
L 343.018657 76.331504 
L 344.650087 78.127431 
L 346.281517 80.73167 
L 347.912947 63.852901 
L 349.544376 87.395984 
L 351.175806 57.649675 
L 352.807236 75.287016 
L 354.438666 70.176058 
L 356.070096 88.251693 
L 357.701526 84.012484 
L 359.332956 83.157074 
L 360.964386 66.615104 
L 362.595815 74.39935 
L 364.227245 78.97702 
L 365.858675 84.218778 
L 367.490105 75.364555 
L 369.121535 83.061168 
L 370.752965 77.711482 
L 372.384395 75.645615 
L 374.015825 77.558476 
L 375.647254 77.226985 
L 377.278684 76.435831 
L 378.910114 88.375222 
L 380.541544 86.85293 
L 382.172974 74.024326 
L 383.804404 66.237513 
L 385.435834 75.059261 
L 387.067264 80.511499 
L 388.698693 81.638783 
L 390.330123 79.901459 
L 391.961553 74.92701 
L 393.592983 77.728689 
L 395.224413 84.019206 
L 396.855843 79.276334 
L 398.487273 88.564099 
L 398.487273 88.564099 
" clip-path="url(#pf8505b596c)" style="fill: none; stroke: #ff0000; stroke-width: 1.5; stroke-linecap: square"/>
   </g>
   <g id="patch_3">
    <path d="M 57.6 307.584 
L 57.6 41.472 
" style="fill: none; stroke: #000000; stroke-width: 0.8; stroke-linejoin: miter; stroke-linecap: square"/>
   </g>
   <g id="patch_4">
    <path d="M 414.72 307.584 
L 414.72 41.472 
" style="fill: none; stroke: #000000; stroke-width: 0.8; stroke-linejoin: miter; stroke-linecap: square"/>
   </g>
   <g id="patch_5">
    <path d="M 57.6 307.584 
L 414.72 307.584 
" style="fill: none; stroke: #000000; stroke-width: 0.8; stroke-linejoin: miter; stroke-linecap: square"/>
   </g>
   <g id="patch_6">
    <path d="M 57.6 41.472 
L 414.72 41.472 
" style="fill: none; stroke: #000000; stroke-width: 0.8; stroke-linejoin: miter; stroke-linecap: square"/>
   </g>
   <g id="text_13">
    <!-- Population's average and best fitness -->
    <g transform="translate(123.529687 35.472) scale(0.12 -0.12)">
     <defs>
      <path id="DejaVuSans-50" d="M 1259 4147 
L 1259 2394 
L 2053 2394 
Q 2494 2394 2734 2622 
Q 2975 2850 2975 3272 
Q 2975 3691 2734 3919 
Q 2494 4147 2053 4147 
L 1259 4147 
z
M 628 4666 
L 2053 4666 
Q 2838 4666 3239 4311 
Q 3641 3956 3641 3272 
Q 3641 2581 3239 2228 
Q 2838 1875 2053 1875 
L 1259 1875 
L 1259 0 
L 628 0 
L 628 4666 
z
" transform="scale(0.015625)"/>
      <path id="DejaVuSans-70" d="M 1159 525 
L 1159 -1331 
L 581 -1331 
L 581 3500 
L 1159 3500 
L 1159 2969 
Q 1341 3281 1617 3432 
Q 1894 3584 2278 3584 
Q 2916 3584 3314 3078 
Q 3713 2572 3713 1747 
Q 3713 922 3314 415 
Q 2916 -91 2278 -91 
Q 1894 -91 1617 61 
Q 1341 213 1159 525 
z
M 3116 1747 
Q 3116 2381 2855 2742 
Q 2594 3103 2138 3103 
Q 1681 3103 1420 2742 
Q 1159 2381 1159 1747 
Q 1159 1113 1420 752 
Q 1681 391 2138 391 
Q 2594 391 2855 752 
Q 3116 1113 3116 1747 
z
" transform="scale(0.015625)"/>
      <path id="DejaVuSans-75" d="M 544 1381 
L 544 3500 
L 1119 3500 
L 1119 1403 
Q 1119 906 1312 657 
Q 1506 409 1894 409 
Q 2359 409 2629 706 
Q 2900 1003 2900 1516 
L 2900 3500 
L 3475 3500 
L 3475 0 
L 2900 0 
L 2900 538 
Q 2691 219 2414 64 
Q 2138 -91 1772 -91 
Q 1169 -91 856 284 
Q 544 659 544 1381 
z
M 1991 3584 
L 1991 3584 
z
" transform="scale(0.015625)"/>
      <path id="DejaVuSans-6c" d="M 603 4863 
L 1178 4863 
L 1178 0 
L 603 0 
L 603 4863 
z
" transform="scale(0.015625)"/>
      <path id="DejaVuSans-27" d="M 1147 4666 
L 1147 2931 
L 616 2931 
L 616 4666 
L 1147 4666 
z
" transform="scale(0.015625)"/>
      <path id="DejaVuSans-20" transform="scale(0.015625)"/>
      <path id="DejaVuSans-76" d="M 191 3500 
L 800 3500 
L 1894 563 
L 2988 3500 
L 3597 3500 
L 2284 0 
L 1503 0 
L 191 3500 
z
" transform="scale(0.015625)"/>
      <path id="DejaVuSans-67" d="M 2906 1791 
Q 2906 2416 2648 2759 
Q 2391 3103 1925 3103 
Q 1463 3103 1205 2759 
Q 947 2416 947 1791 
Q 947 1169 1205 825 
Q 1463 481 1925 481 
Q 2391 481 2648 825 
Q 2906 1169 2906 1791 
z
M 3481 434 
Q 3481 -459 3084 -895 
Q 2688 -1331 1869 -1331 
Q 1566 -1331 1297 -1286 
Q 1028 -1241 775 -1147 
L 775 -588 
Q 1028 -725 1275 -790 
Q 1522 -856 1778 -856 
Q 2344 -856 2625 -561 
Q 2906 -266 2906 331 
L 2906 616 
Q 2728 306 2450 153 
Q 2172 0 1784 0 
Q 1141 0 747 490 
Q 353 981 353 1791 
Q 353 2603 747 3093 
Q 1141 3584 1784 3584 
Q 2172 3584 2450 3431 
Q 2728 3278 2906 2969 
L 2906 3500 
L 3481 3500 
L 3481 434 
z
" transform="scale(0.015625)"/>
      <path id="DejaVuSans-64" d="M 2906 2969 
L 2906 4863 
L 3481 4863 
L 3481 0 
L 2906 0 
L 2906 525 
Q 2725 213 2448 61 
Q 2172 -91 1784 -91 
Q 1150 -91 751 415 
Q 353 922 353 1747 
Q 353 2572 751 3078 
Q 1150 3584 1784 3584 
Q 2172 3584 2448 3432 
Q 2725 3281 2906 2969 
z
M 947 1747 
Q 947 1113 1208 752 
Q 1469 391 1925 391 
Q 2381 391 2643 752 
Q 2906 1113 2906 1747 
Q 2906 2381 2643 2742 
Q 2381 3103 1925 3103 
Q 1469 3103 1208 2742 
Q 947 2381 947 1747 
z
" transform="scale(0.015625)"/>
      <path id="DejaVuSans-62" d="M 3116 1747 
Q 3116 2381 2855 2742 
Q 2594 3103 2138 3103 
Q 1681 3103 1420 2742 
Q 1159 2381 1159 1747 
Q 1159 1113 1420 752 
Q 1681 391 2138 391 
Q 2594 391 2855 752 
Q 3116 1113 3116 1747 
z
M 1159 2969 
Q 1341 3281 1617 3432 
Q 1894 3584 2278 3584 
Q 2916 3584 3314 3078 
Q 3713 2572 3713 1747 
Q 3713 922 3314 415 
Q 2916 -91 2278 -91 
Q 1894 -91 1617 61 
Q 1341 213 1159 525 
L 1159 0 
L 581 0 
L 581 4863 
L 1159 4863 
L 1159 2969 
z
" transform="scale(0.015625)"/>
      <path id="DejaVuSans-66" d="M 2375 4863 
L 2375 4384 
L 1825 4384 
Q 1516 4384 1395 4259 
Q 1275 4134 1275 3809 
L 1275 3500 
L 2222 3500 
L 2222 3053 
L 1275 3053 
L 1275 0 
L 697 0 
L 697 3053 
L 147 3053 
L 147 3500 
L 697 3500 
L 697 3744 
Q 697 4328 969 4595 
Q 1241 4863 1831 4863 
L 2375 4863 
z
" transform="scale(0.015625)"/>
     </defs>
     <use xlink:href="#DejaVuSans-50"/>
     <use xlink:href="#DejaVuSans-6f" transform="translate(56.677734 0)"/>
     <use xlink:href="#DejaVuSans-70" transform="translate(117.859375 0)"/>
     <use xlink:href="#DejaVuSans-75" transform="translate(181.335938 0)"/>
     <use xlink:href="#DejaVuSans-6c" transform="translate(244.714844 0)"/>
     <use xlink:href="#DejaVuSans-61" transform="translate(272.498047 0)"/>
     <use xlink:href="#DejaVuSans-74" transform="translate(333.777344 0)"/>
     <use xlink:href="#DejaVuSans-69" transform="translate(372.986328 0)"/>
     <use xlink:href="#DejaVuSans-6f" transform="translate(400.769531 0)"/>
     <use xlink:href="#DejaVuSans-6e" transform="translate(461.951172 0)"/>
     <use xlink:href="#DejaVuSans-27" transform="translate(525.330078 0)"/>
     <use xlink:href="#DejaVuSans-73" transform="translate(552.820312 0)"/>
     <use xlink:href="#DejaVuSans-20" transform="translate(604.919922 0)"/>
     <use xlink:href="#DejaVuSans-61" transform="translate(636.707031 0)"/>
     <use xlink:href="#DejaVuSans-76" transform="translate(697.986328 0)"/>
     <use xlink:href="#DejaVuSans-65" transform="translate(757.166016 0)"/>
     <use xlink:href="#DejaVuSans-72" transform="translate(818.689453 0)"/>
     <use xlink:href="#DejaVuSans-61" transform="translate(859.802734 0)"/>
     <use xlink:href="#DejaVuSans-67" transform="translate(921.082031 0)"/>
     <use xlink:href="#DejaVuSans-65" transform="translate(984.558594 0)"/>
     <use xlink:href="#DejaVuSans-20" transform="translate(1046.082031 0)"/>
     <use xlink:href="#DejaVuSans-61" transform="translate(1077.869141 0)"/>
     <use xlink:href="#DejaVuSans-6e" transform="translate(1139.148438 0)"/>
     <use xlink:href="#DejaVuSans-64" transform="translate(1202.527344 0)"/>
     <use xlink:href="#DejaVuSans-20" transform="translate(1266.003906 0)"/>
     <use xlink:href="#DejaVuSans-62" transform="translate(1297.791016 0)"/>
     <use xlink:href="#DejaVuSans-65" transform="translate(1361.267578 0)"/>
     <use xlink:href="#DejaVuSans-73" transform="translate(1422.791016 0)"/>
     <use xlink:href="#DejaVuSans-74" transform="translate(1474.890625 0)"/>
     <use xlink:href="#DejaVuSans-20" transform="translate(1514.099609 0)"/>
     <use xlink:href="#DejaVuSans-66" transform="translate(1545.886719 0)"/>
     <use xlink:href="#DejaVuSans-69" transform="translate(1581.091797 0)"/>
     <use xlink:href="#DejaVuSans-74" transform="translate(1608.875 0)"/>
     <use xlink:href="#DejaVuSans-6e" transform="translate(1648.083984 0)"/>
     <use xlink:href="#DejaVuSans-65" transform="translate(1711.462891 0)"/>
     <use xlink:href="#DejaVuSans-73" transform="translate(1772.986328 0)"/>
     <use xlink:href="#DejaVuSans-73" transform="translate(1825.085938 0)"/>
    </g>
   </g>
   <g id="legend_1">
    <g id="patch_7">
     <path d="M 334.779375 302.584 
L 407.72 302.584 
Q 409.72 302.584 409.72 300.584 
L 409.72 257.549625 
Q 409.72 255.549625 407.72 255.549625 
L 334.779375 255.549625 
Q 332.779375 255.549625 332.779375 257.549625 
L 332.779375 300.584 
Q 332.779375 302.584 334.779375 302.584 
z
" style="fill: #ffffff; opacity: 0.8; stroke: #cccccc; stroke-linejoin: miter"/>
    </g>
    <g id="line2d_24">
     <path d="M 336.779375 263.648062 
L 346.779375 263.648062 
L 356.779375 263.648062 
" style="fill: none; stroke: #0000ff; stroke-width: 1.5; stroke-linecap: square"/>
    </g>
    <g id="text_14">
     <!-- average -->
     <g transform="translate(364.779375 267.148062) scale(0.1 -0.1)">
      <use xlink:href="#DejaVuSans-61"/>
      <use xlink:href="#DejaVuSans-76" transform="translate(61.279297 0)"/>
      <use xlink:href="#DejaVuSans-65" transform="translate(120.458984 0)"/>
      <use xlink:href="#DejaVuSans-72" transform="translate(181.982422 0)"/>
      <use xlink:href="#DejaVuSans-61" transform="translate(223.095703 0)"/>
      <use xlink:href="#DejaVuSans-67" transform="translate(284.375 0)"/>
      <use xlink:href="#DejaVuSans-65" transform="translate(347.851562 0)"/>
     </g>
    </g>
    <g id="line2d_25">
     <path d="M 336.779375 278.326188 
L 346.779375 278.326188 
L 356.779375 278.326188 
" style="fill: none; stroke-dasharray: 9.6,2.4,1.5,2.4; stroke-dashoffset: 0; stroke: #008000; stroke-width: 1.5"/>
    </g>
    <g id="text_15">
     <!-- +1 sd -->
     <g transform="translate(364.779375 281.826188) scale(0.1 -0.1)">
      <defs>
       <path id="DejaVuSans-2b" d="M 2944 4013 
L 2944 2272 
L 4684 2272 
L 4684 1741 
L 2944 1741 
L 2944 0 
L 2419 0 
L 2419 1741 
L 678 1741 
L 678 2272 
L 2419 2272 
L 2419 4013 
L 2944 4013 
z
" transform="scale(0.015625)"/>
      </defs>
      <use xlink:href="#DejaVuSans-2b"/>
      <use xlink:href="#DejaVuSans-31" transform="translate(83.789062 0)"/>
      <use xlink:href="#DejaVuSans-20" transform="translate(147.412109 0)"/>
      <use xlink:href="#DejaVuSans-73" transform="translate(179.199219 0)"/>
      <use xlink:href="#DejaVuSans-64" transform="translate(231.298828 0)"/>
     </g>
    </g>
    <g id="line2d_26">
     <path d="M 336.779375 293.004312 
L 346.779375 293.004312 
L 356.779375 293.004312 
" style="fill: none; stroke: #ff0000; stroke-width: 1.5; stroke-linecap: square"/>
    </g>
    <g id="text_16">
     <!-- best -->
     <g transform="translate(364.779375 296.504312) scale(0.1 -0.1)">
      <use xlink:href="#DejaVuSans-62"/>
      <use xlink:href="#DejaVuSans-65" transform="translate(63.476562 0)"/>
      <use xlink:href="#DejaVuSans-73" transform="translate(125 0)"/>
      <use xlink:href="#DejaVuSans-74" transform="translate(177.099609 0)"/>
     </g>
    </g>
   </g>
  </g>
 </g>
 <defs>
  <clipPath id="pf8505b596c">
   <rect x="57.6" y="41.472" width="357.12" height="266.112"/>
  </clipPath>
 </defs>
</svg>
