<?xml version="1.0" encoding="utf-8" standalone="no"?>
<!DOCTYPE svg PUBLIC "-//W3C//DTD SVG 1.1//EN"
  "http://www.w3.org/Graphics/SVG/1.1/DTD/svg11.dtd">
<svg xmlns:xlink="http://www.w3.org/1999/xlink" width="460.8pt" height="345.6pt" viewBox="0 0 460.8 345.6" xmlns="http://www.w3.org/2000/svg" version="1.1">
 <metadata>
  <rdf:RDF xmlns:dc="http://purl.org/dc/elements/1.1/" xmlns:cc="http://creativecommons.org/ns#" xmlns:rdf="http://www.w3.org/1999/02/22-rdf-syntax-ns#">
   <cc:Work>
    <dc:type rdf:resource="http://purl.org/dc/dcmitype/StillImage"/>
    <dc:date>2026-04-14T01:06:57.566699</dc:date>
    <dc:format>image/svg+xml</dc:format>
    <dc:creator>
     <cc:Agent>
      <dc:title>Matplotlib v3.10.8, https://matplotlib.org/</dc:title>
     </cc:Agent>
    </dc:creator>
   </cc:Work>
  </rdf:RDF>
 </metadata>
 <defs>
  <style type="text/css">*{stroke-linejoin: round; stroke-linecap: butt}</style>
 </defs>
 <g id="figure_1">
  <g id="patch_1">
   <path d="M 0 345.6 
L 460.8 345.6 
L 460.8 0 
L 0 0 
z
" style="fill: #ffffff"/>
  </g>
  <g id="axes_1">
   <g id="patch_2">
    <path d="M 57.6 307.584 
L 414.72 307.584 
L 414.72 41.472 
L 57.6 41.472 
z
" style="fill: #ffffff"/>
   </g>
   <g id="matplotlib.axis_1">
    <g id="xtick_1">
     <g id="line2d_1">
      <path d="M 73.832727 307.584 
L 73.832727 41.472 
" clip-path="url(#pea0eaf9292)" style="fill: none; stroke: #b0b0b0; stroke-width: 0.8; stroke-linecap: square"/>
     </g>
     <g id="line2d_2">
      <defs>
       <path id="mb7b77ae371" d="M 0 0 
L 0 3.5 
" style="stroke: #000000; stroke-width: 0.8"/>
      </defs>
      <g>
       <use xlink:href="#mb7b77ae371" x="73.832727" y="307.584" style="stroke: #000000; stroke-width: 0.8"/>
      </g>
     </g>
     <g id="text_1">
      <!-- 0 -->
      <g transform="translate(70.651477 322.182437) scale(0.1 -0.1)">
       <defs>
        <path id="DejaVuSans-30" d="M 2034 4250 
Q 1547 4250 1301 3770 
Q 1056 3291 1056 2328 
Q 1056 1369 1301 889 
Q 1547 409 2034 409 
Q 2525 409 2770 889 
Q 3016 1369 3016 2328 
Q 3016 3291 2770 3770 
Q 2525 4250 2034 4250 
z
M 2034 4750 
Q 2819 4750 3233 4129 
Q 3647 3509 3647 2328 
Q 3647 1150 3233 529 
Q 2819 -91 2034 -91 
Q 1250 -91 836 529 
Q 422 1150 422 2328 
Q 422 3509 836 4129 
Q 1250 4750 2034 4750 
z
" transform="scale(0.015625)"/>
       </defs>
       <use xlink:href="#DejaVuSans-30"/>
      </g>
     </g>
    </g>
    <g id="xtick_2">
     <g id="line2d_3">
      <path d="M 114.618474 307.584 
L 114.618474 41.472 
" clip-path="url(#pea0eaf9292)" style="fill: none; stroke: #b0b0b0; stroke-width: 0.8; stroke-linecap: square"/>
     </g>
     <g id="line2d_4">
      <g>
       <use xlink:href="#mb7b77ae371" x="114.618474" y="307.584" style="stroke: #000000; stroke-width: 0.8"/>
      </g>
     </g>
     <g id="text_2">
      <!-- 25 -->
      <g transform="translate(108.255974 322.182437) scale(0.1 -0.1)">
       <defs>
        <path id="DejaVuSans-32" d="M 1228 531 
L 3431 531 
L 3431 0 
L 469 0 
L 469 531 
Q 828 903 1448 1529 
Q 2069 2156 2228 2338 
Q 2531 2678 2651 2914 
Q 2772 3150 2772 3378 
Q 2772 3750 2511 3984 
Q 2250 4219 1831 4219 
Q 1534 4219 1204 4116 
Q 875 4013 500 3803 
L 500 4441 
Q 881 4594 1212 4672 
Q 1544 4750 1819 4750 
Q 2544 4750 2975 4387 
Q 3406 4025 3406 3419 
Q 3406 3131 3298 2873 
Q 3191 2616 2906 2266 
Q 2828 2175 2409 1742 
Q 1991 1309 1228 531 
z
" transform="scale(0.015625)"/>
        <path id="DejaVuSans-35" d="M 691 4666 
L 3169 4666 
L 3169 4134 
L 1269 4134 
L 1269 2991 
Q 1406 3038 1543 3061 
Q 1681 3084 1819 3084 
Q 2600 3084 3056 2656 
Q 3513 2228 3513 1497 
Q 3513 744 3044 326 
Q 2575 -91 1722 -91 
Q 1428 -91 1123 -41 
Q 819 9 494 109 
L 494 744 
Q 775 591 1075 516 
Q 1375 441 1709 441 
Q 2250 441 2565 725 
Q 2881 1009 2881 1497 
Q 2881 1984 2565 2268 
Q 2250 2553 1709 2553 
Q 1456 2553 1204 2497 
Q 953 2441 691 2322 
L 691 4666 
z
" transform="scale(0.015625)"/>
       </defs>
       <use xlink:href="#DejaVuSans-32"/>
       <use xlink:href="#DejaVuSans-35" transform="translate(63.623047 0)"/>
      </g>
     </g>
    </g>
    <g id="xtick_3">
     <g id="line2d_5">
      <path d="M 155.404221 307.584 
L 155.404221 41.472 
" clip-path="url(#pea0eaf9292)" style="fill: none; stroke: #b0b0b0; stroke-width: 0.8; stroke-linecap: square"/>
     </g>
     <g id="line2d_6">
      <g>
       <use xlink:href="#mb7b77ae371" x="155.404221" y="307.584" style="stroke: #000000; stroke-width: 0.8"/>
      </g>
     </g>
     <g id="text_3">
      <!-- 50 -->
      <g transform="translate(149.041721 322.182437) scale(0.1 -0.1)">
       <use xlink:href="#DejaVuSans-35"/>
       <use xlink:href="#DejaVuSans-30" transform="translate(63.623047 0)"/>
      </g>
     </g>
    </g>
    <g id="xtick_4">
     <g id="line2d_7">
      <path d="M 196.189968 307.584 
L 196.189968 41.472 
" clip-path="url(#pea0eaf9292)" style="fill: none; stroke: #b0b0b0; stroke-width: 0.8; stroke-linecap: square"/>
     </g>
     <g id="line2d_8">
      <g>
       <use xlink:href="#mb7b77ae371" x="196.189968" y="307.584" style="stroke: #000000; stroke-width: 0.8"/>
      </g>
     </g>
     <g id="text_4">
      <!-- 75 -->
      <g transform="translate(189.827468 322.182437) scale(0.1 -0.1)">
       <defs>
        <path id="DejaVuSans-37" d="M 525 4666 
L 3525 4666 
L 3525 4397 
L 1831 0 
L 1172 0 
L 2766 4134 
L 525 4134 
L 525 4666 
z
" transform="scale(0.015625)"/>
       </defs>
       <use xlink:href="#DejaVuSans-37"/>
       <use xlink:href="#DejaVuSans-35" transform="translate(63.623047 0)"/>
      </g>
     </g>
    </g>
    <g id="xtick_5">
     <g id="line2d_9">
      <path d="M 236.975715 307.584 
L 236.975715 41.472 
" clip-path="url(#pea0eaf9292)" style="fill: none; stroke: #b0b0b0; stroke-width: 0.8; stroke-linecap: square"/>
     </g>
     <g id="line2d_10">
      <g>
       <use xlink:href="#mb7b77ae371" x="236.975715" y="307.584" style="stroke: #000000; stroke-width: 0.8"/>
      </g>
     </g>
     <g id="text_5">
      <!-- 100 -->
      <g transform="translate(227.431965 322.182437) scale(0.1 -0.1)">
       <defs>
        <path id="DejaVuSans-31" d="M 794 531 
L 1825 531 
L 1825 4091 
L 703 3866 
L 703 4441 
L 1819 4666 
L 2450 4666 
L 2450 531 
L 3481 531 
L 3481 0 
L 794 0 
L 794 531 
z
" transform="scale(0.015625)"/>
       </defs>
       <use xlink:href="#DejaVuSans-31"/>
       <use xlink:href="#DejaVuSans-30" transform="translate(63.623047 0)"/>
       <use xlink:href="#DejaVuSans-30" transform="translate(127.246094 0)"/>
      </g>
     </g>
    </g>
    <g id="xtick_6">
     <g id="line2d_11">
      <path d="M 277.761462 307.584 
L 277.761462 41.472 
" clip-path="url(#pea0eaf9292)" style="fill: none; stroke: #b0b0b0; stroke-width: 0.8; stroke-linecap: square"/>
     </g>
     <g id="line2d_12">
      <g>
       <use xlink:href="#mb7b77ae371" x="277.761462" y="307.584" style="stroke: #000000; stroke-width: 0.8"/>
      </g>
     </g>
     <g id="text_6">
      <!-- 125 -->
      <g transform="translate(268.217712 322.182437) scale(0.1 -0.1)">
       <use xlink:href="#DejaVuSans-31"/>
       <use xlink:href="#DejaVuSans-32" transform="translate(63.623047 0)"/>
       <use xlink:href="#DejaVuSans-35" transform="translate(127.246094 0)"/>
      </g>
     </g>
    </g>
    <g id="xtick_7">
     <g id="line2d_13">
      <path d="M 318.547209 307.584 
L 318.547209 41.472 
" clip-path="url(#pea0eaf9292)" style="fill: none; stroke: #b0b0b0; stroke-width: 0.8; stroke-linecap: square"/>
     </g>
     <g id="line2d_14">
      <g>
       <use xlink:href="#mb7b77ae371" x="318.547209" y="307.584" style="stroke: #000000; stroke-width: 0.8"/>
      </g>
     </g>
     <g id="text_7">
      <!-- 150 -->
      <g transform="translate(309.003459 322.182437) scale(0.1 -0.1)">
       <use xlink:href="#DejaVuSans-31"/>
       <use xlink:href="#DejaVuSans-35" transform="translate(63.623047 0)"/>
       <use xlink:href="#DejaVuSans-30" transform="translate(127.246094 0)"/>
      </g>
     </g>
    </g>
    <g id="xtick_8">
     <g id="line2d_15">
      <path d="M 359.332956 307.584 
L 359.332956 41.472 
" clip-path="url(#pea0eaf9292)" style="fill: none; stroke: #b0b0b0; stroke-width: 0.8; stroke-linecap: square"/>
     </g>
     <g id="line2d_16">
      <g>
       <use xlink:href="#mb7b77ae371" x="359.332956" y="307.584" style="stroke: #000000; stroke-width: 0.8"/>
      </g>
     </g>
     <g id="text_8">
      <!-- 175 -->
      <g transform="translate(349.789206 322.182437) scale(0.1 -0.1)">
       <use xlink:href="#DejaVuSans-31"/>
       <use xlink:href="#DejaVuSans-37" transform="translate(63.623047 0)"/>
       <use xlink:href="#DejaVuSans-35" transform="translate(127.246094 0)"/>
      </g>
     </g>
    </g>
    <g id="xtick_9">
     <g id="line2d_17">
      <path d="M 400.118703 307.584 
L 400.118703 41.472 
" clip-path="url(#pea0eaf9292)" style="fill: none; stroke: #b0b0b0; stroke-width: 0.8; stroke-linecap: square"/>
     </g>
     <g id="line2d_18">
      <g>
       <use xlink:href="#mb7b77ae371" x="400.118703" y="307.584" style="stroke: #000000; stroke-width: 0.8"/>
      </g>
     </g>
     <g id="text_9">
      <!-- 200 -->
      <g transform="translate(390.574953 322.182437) scale(0.1 -0.1)">
       <use xlink:href="#DejaVuSans-32"/>
       <use xlink:href="#DejaVuSans-30" transform="translate(63.623047 0)"/>
       <use xlink:href="#DejaVuSans-30" transform="translate(127.246094 0)"/>
      </g>
     </g>
    </g>
    <g id="text_10">
     <!-- Generations -->
     <g transform="translate(205.662344 335.860562) scale(0.1 -0.1)">
      <defs>
       <path id="DejaVuSans-47" d="M 3809 666 
L 3809 1919 
L 2778 1919 
L 2778 2438 
L 4434 2438 
L 4434 434 
Q 4069 175 3628 42 
Q 3188 -91 2688 -91 
Q 1594 -91 976 548 
Q 359 1188 359 2328 
Q 359 3472 976 4111 
Q 1594 4750 2688 4750 
Q 3144 4750 3555 4637 
Q 3966 4525 4313 4306 
L 4313 3634 
Q 3963 3931 3569 4081 
Q 3175 4231 2741 4231 
Q 1884 4231 1454 3753 
Q 1025 3275 1025 2328 
Q 1025 1384 1454 906 
Q 1884 428 2741 428 
Q 3075 428 3337 486 
Q 3600 544 3809 666 
z
" transform="scale(0.015625)"/>
       <path id="DejaVuSans-65" d="M 3597 1894 
L 3597 1613 
L 953 1613 
Q 991 1019 1311 708 
Q 1631 397 2203 397 
Q 2534 397 2845 478 
Q 3156 559 3463 722 
L 3463 178 
Q 3153 47 2828 -22 
Q 2503 -91 2169 -91 
Q 1331 -91 842 396 
Q 353 884 353 1716 
Q 353 2575 817 3079 
Q 1281 3584 2069 3584 
Q 2775 3584 3186 3129 
Q 3597 2675 3597 1894 
z
M 3022 2063 
Q 3016 2534 2758 2815 
Q 2500 3097 2075 3097 
Q 1594 3097 1305 2825 
Q 1016 2553 972 2059 
L 3022 2063 
z
" transform="scale(0.015625)"/>
       <path id="DejaVuSans-6e" d="M 3513 2113 
L 3513 0 
L 2938 0 
L 2938 2094 
Q 2938 2591 2744 2837 
Q 2550 3084 2163 3084 
Q 1697 3084 1428 2787 
Q 1159 2491 1159 1978 
L 1159 0 
L 581 0 
L 581 3500 
L 1159 3500 
L 1159 2956 
Q 1366 3272 1645 3428 
Q 1925 3584 2291 3584 
Q 2894 3584 3203 3211 
Q 3513 2838 3513 2113 
z
" transform="scale(0.015625)"/>
       <path id="DejaVuSans-72" d="M 2631 2963 
Q 2534 3019 2420 3045 
Q 2306 3072 2169 3072 
Q 1681 3072 1420 2755 
Q 1159 2438 1159 1844 
L 1159 0 
L 581 0 
L 581 3500 
L 1159 3500 
L 1159 2956 
Q 1341 3275 1631 3429 
Q 1922 3584 2338 3584 
Q 2397 3584 2469 3576 
Q 2541 3569 2628 3553 
L 2631 2963 
z
" transform="scale(0.015625)"/>
       <path id="DejaVuSans-61" d="M 2194 1759 
Q 1497 1759 1228 1600 
Q 959 1441 959 1056 
Q 959 750 1161 570 
Q 1363 391 1709 391 
Q 2188 391 2477 730 
Q 2766 1069 2766 1631 
L 2766 1759 
L 2194 1759 
z
M 3341 1997 
L 3341 0 
L 2766 0 
L 2766 531 
Q 2569 213 2275 61 
Q 1981 -91 1556 -91 
Q 1019 -91 701 211 
Q 384 513 384 1019 
Q 384 1609 779 1909 
Q 1175 2209 1959 2209 
L 2766 2209 
L 2766 2266 
Q 2766 2663 2505 2880 
Q 2244 3097 1772 3097 
Q 1472 3097 1187 3025 
Q 903 2953 641 2809 
L 641 3341 
Q 956 3463 1253 3523 
Q 1550 3584 1831 3584 
Q 2591 3584 2966 3190 
Q 3341 2797 3341 1997 
z
" transform="scale(0.015625)"/>
       <path id="DejaVuSans-74" d="M 1172 4494 
L 1172 3500 
L 2356 3500 
L 2356 3053 
L 1172 3053 
L 1172 1153 
Q 1172 725 1289 603 
Q 1406 481 1766 481 
L 2356 481 
L 2356 0 
L 1766 0 
Q 1100 0 847 248 
Q 594 497 594 1153 
L 594 3053 
L 172 3053 
L 172 3500 
L 594 3500 
L 594 4494 
L 1172 4494 
z
" transform="scale(0.015625)"/>
       <path id="DejaVuSans-69" d="M 603 3500 
L 1178 3500 
L 1178 0 
L 603 0 
L 603 3500 
z
M 603 4863 
L 1178 4863 
L 1178 4134 
L 603 4134 
L 603 4863 
z
" transform="scale(0.015625)"/>
       <path id="DejaVuSans-6f" d="M 1959 3097 
Q 1497 3097 1228 2736 
Q 959 2375 959 1747 
Q 959 1119 1226 758 
Q 1494 397 1959 397 
Q 2419 397 2687 759 
Q 2956 1122 2956 1747 
Q 2956 2369 2687 2733 
Q 2419 3097 1959 3097 
z
M 1959 3584 
Q 2709 3584 3137 3096 
Q 3566 2609 3566 1747 
Q 3566 888 3137 398 
Q 2709 -91 1959 -91 
Q 1206 -91 779 398 
Q 353 888 353 1747 
Q 353 2609 779 3096 
Q 1206 3584 1959 3584 
z
" transform="scale(0.015625)"/>
       <path id="DejaVuSans-73" d="M 2834 3397 
L 2834 2853 
Q 2591 2978 2328 3040 
Q 2066 3103 1784 3103 
Q 1356 3103 1142 2972 
Q 928 2841 928 2578 
Q 928 2378 1081 2264 
Q 1234 2150 1697 2047 
L 1894 2003 
Q 2506 1872 2764 1633 
Q 3022 1394 3022 966 
Q 3022 478 2636 193 
Q 2250 -91 1575 -91 
Q 1294 -91 989 -36 
Q 684 19 347 128 
L 347 722 
Q 666 556 975 473 
Q 1284 391 1588 391 
Q 1994 391 2212 530 
Q 2431 669 2431 922 
Q 2431 1156 2273 1281 
Q 2116 1406 1581 1522 
L 1381 1569 
Q 847 1681 609 1914 
Q 372 2147 372 2553 
Q 372 3047 722 3315 
Q 1072 3584 1716 3584 
Q 2034 3584 2315 3537 
Q 2597 3491 2834 3397 
z
" transform="scale(0.015625)"/>
      </defs>
      <use xlink:href="#DejaVuSans-47"/>
      <use xlink:href="#DejaVuSans-65" transform="translate(77.490234 0)"/>
      <use xlink:href="#DejaVuSans-6e" transform="translate(139.013672 0)"/>
      <use xlink:href="#DejaVuSans-65" transform="translate(202.392578 0)"/>
      <use xlink:href="#DejaVuSans-72" transform="translate(263.916016 0)"/>
      <use xlink:href="#DejaVuSans-61" transform="translate(305.029297 0)"/>
      <use xlink:href="#DejaVuSans-74" transform="translate(366.308594 0)"/>
      <use xlink:href="#DejaVuSans-69" transform="translate(405.517578 0)"/>
      <use xlink:href="#DejaVuSans-6f" transform="translate(433.300781 0)"/>
      <use xlink:href="#DejaVuSans-6e" transform="translate(494.482422 0)"/>
      <use xlink:href="#DejaVuSans-73" transform="translate(557.861328 0)"/>
     </g>
    </g>
   </g>
   <g id="matplotlib.axis_2">
    <g id="ytick_1">
     <g id="line2d_19">
      <path d="M 57.6 118.730229 
L 414.72 118.730229 
" clip-path="url(#pea0eaf9292)" style="fill: none; stroke: #b0b0b0; stroke-width: 0.8; stroke-linecap: square"/>
     </g>
     <g id="line2d_20">
      <defs>
       <path id="m85b8fe8233" d="M 0 0 
L -3.5 0 
" style="stroke: #000000; stroke-width: 0.8"/>
      </defs>
      <g>
       <use xlink:href="#m85b8fe8233" x="57.6" y="118.730229" style="stroke: #000000; stroke-width: 0.8"/>
      </g>
     </g>
     <g id="text_11">
      <!-- $\mathdefault{10^{2}}$ -->
      <g transform="translate(33 122.529447) scale(0.1 -0.1)">
       <use xlink:href="#DejaVuSans-31" transform="translate(0 0.765625)"/>
       <use xlink:href="#DejaVuSans-30" transform="translate(63.623047 0.765625)"/>
       <use xlink:href="#DejaVuSans-32" transform="translate(128.203125 39.046875) scale(0.7)"/>
      </g>
     </g>
    </g>
    <g id="text_12">
     <!-- Fitness -->
     <g transform="translate(26.920312 191.845187) rotate(-90) scale(0.1 -0.1)">
      <defs>
       <path id="DejaVuSans-46" d="M 628 4666 
L 3309 4666 
L 3309 4134 
L 1259 4134 
L 1259 2759 
L 3109 2759 
L 3109 2228 
L 1259 2228 
L 1259 0 
L 628 0 
L 628 4666 
z
" transform="scale(0.015625)"/>
      </defs>
      <use xlink:href="#DejaVuSans-46"/>
      <use xlink:href="#DejaVuSans-69" transform="translate(50.269531 0)"/>
      <use xlink:href="#DejaVuSans-74" transform="translate(78.052734 0)"/>
      <use xlink:href="#DejaVuSans-6e" transform="translate(117.261719 0)"/>
      <use xlink:href="#DejaVuSans-65" transform="translate(180.640625 0)"/>
      <use xlink:href="#DejaVuSans-73" transform="translate(242.164062 0)"/>
      <use xlink:href="#DejaVuSans-73" transform="translate(294.263672 0)"/>
     </g>
    </g>
   </g>
   <g id="line2d_21">
    <path d="M 73.832727 295.488 
L 75.464157 219.92163 
L 77.095587 184.083012 
L 78.727017 166.635216 
L 80.358447 160.880916 
L 81.989877 154.103902 
L 83.621307 162.3223 
L 85.252736 158.027912 
L 86.884166 158.061893 
L 88.515596 151.864106 
L 90.147026 148.353051 
L 91.778456 146.607466 
L 93.409886 147.465859 
L 95.041316 146.211004 
L 96.672746 149.799354 
L 98.304175 147.013128 
L 101.567035 145.904653 
L 103.198465 145.781333 
L 104.829895 143.834545 
L 106.461325 142.087003 
L 108.092755 144.196246 
L 109.724185 146.684733 
L 111.355614 145.575701 
L 112.987044 147.339402 
L 114.618474 144.610687 
L 116.249904 142.67597 
L 117.881334 141.77883 
L 119.512764 141.783966 
L 121.144194 137.937251 
L 122.775624 141.840445 
L 124.407053 143.369435 
L 126.038483 139.899785 
L 127.669913 140.495082 
L 129.301343 139.430868 
L 130.932773 142.071207 
L 132.564203 139.442395 
L 134.195633 141.770557 
L 135.827063 141.239629 
L 137.458492 140.52222 
L 139.089922 141.113419 
L 140.721352 139.16686 
L 142.352782 139.289878 
L 143.984212 139.201171 
L 145.615642 140.236414 
L 147.247072 139.492718 
L 148.878502 139.360593 
L 150.509931 139.806057 
L 152.141361 139.797297 
L 153.772791 138.770141 
L 155.404221 139.057743 
L 157.035651 137.643489 
L 158.667081 136.001138 
L 160.298511 139.208847 
L 161.929941 139.496899 
L 163.56137 137.915886 
L 165.1928 139.324582 
L 166.82423 140.948246 
L 168.45566 138.309271 
L 170.08709 139.275014 
L 171.71852 136.268173 
L 173.34995 140.416609 
L 174.98138 135.742048 
L 176.61281 138.674053 
L 179.875669 137.245049 
L 181.507099 137.454751 
L 183.138529 139.729948 
L 184.769959 137.379093 
L 186.401389 137.753491 
L 188.032819 138.895293 
L 189.664249 136.053048 
L 191.295678 138.767846 
L 192.927108 137.75374 
L 194.558538 137.065845 
L 196.189968 136.712408 
L 199.452828 136.85038 
L 201.084258 139.052927 
L 202.715688 137.52556 
L 204.347117 137.795508 
L 205.978547 136.711169 
L 207.609977 136.718361 
L 209.241407 135.702506 
L 210.872837 137.722134 
L 212.504267 138.069632 
L 214.135697 138.190197 
L 215.767127 135.838168 
L 217.398556 137.119808 
L 219.029986 138.804096 
L 220.661416 136.303746 
L 222.292846 137.461941 
L 223.924276 136.543246 
L 225.555706 136.64843 
L 227.187136 136.633174 
L 228.818566 136.456002 
L 230.449995 137.365791 
L 232.081425 139.02593 
L 233.712855 136.951369 
L 235.344285 136.278428 
L 236.975715 138.520718 
L 238.607145 137.080301 
L 240.238575 139.196835 
L 241.870005 139.208773 
L 243.501434 135.81344 
L 245.132864 137.428858 
L 246.764294 138.060065 
L 248.395724 136.684485 
L 250.027154 135.890812 
L 251.658584 136.094924 
L 253.290014 134.972217 
L 254.921444 136.506602 
L 256.552873 139.976497 
L 258.184303 137.329736 
L 259.815733 137.22657 
L 261.447163 137.007397 
L 263.078593 136.001334 
L 264.710023 136.534347 
L 266.341453 136.413604 
L 267.972883 136.559298 
L 269.604312 138.344313 
L 271.235742 136.497899 
L 272.867172 135.676679 
L 274.498602 137.365788 
L 276.130032 138.610831 
L 277.761462 135.723404 
L 281.024322 139.153173 
L 282.655751 138.021243 
L 284.287181 136.613308 
L 285.918611 135.609496 
L 287.550041 138.332308 
L 289.181471 135.409142 
L 290.812901 136.426542 
L 292.444331 137.778003 
L 294.075761 136.383751 
L 295.70719 136.213629 
L 297.33862 136.870478 
L 298.97005 136.972762 
L 300.60148 137.644276 
L 302.23291 137.787304 
L 303.86434 135.916355 
L 305.49577 137.727846 
L 307.1272 138.715308 
L 308.75863 138.194068 
L 310.390059 136.257353 
L 312.021489 137.528783 
L 313.652919 136.942169 
L 315.284349 136.108362 
L 316.915779 136.454869 
L 318.547209 136.318773 
L 320.178639 137.511824 
L 321.810069 136.444397 
L 323.441498 134.001592 
L 325.072928 136.960076 
L 326.704358 138.071587 
L 328.335788 135.42547 
L 329.967218 136.97617 
L 331.598648 138.330462 
L 333.230078 137.6368 
L 334.861508 135.470375 
L 336.492937 135.824896 
L 338.124367 135.606706 
L 339.755797 134.888222 
L 341.387227 134.598245 
L 343.018657 135.015531 
L 344.650087 135.993211 
L 346.281517 135.376798 
L 347.912947 136.716661 
L 349.544376 136.620399 
L 351.175806 136.175023 
L 352.807236 136.225943 
L 354.438666 136.12098 
L 356.070096 134.704918 
L 357.701526 133.492809 
L 359.332956 135.980024 
L 360.964386 136.412222 
L 362.595815 135.256478 
L 364.227245 136.120345 
L 365.858675 135.051606 
L 367.490105 135.736322 
L 369.121535 134.045578 
L 370.752965 136.802772 
L 372.384395 137.357988 
L 374.015825 137.010815 
L 375.647254 137.068909 
L 377.278684 136.516027 
L 378.910114 136.834531 
L 380.541544 135.420255 
L 382.172974 135.527839 
L 383.804404 137.475202 
L 385.435834 137.253729 
L 387.067264 134.993562 
L 388.698693 135.848871 
L 390.330123 135.394571 
L 391.961553 136.547193 
L 393.592983 136.635734 
L 395.224413 134.655565 
L 396.855843 135.082377 
L 398.487273 136.592017 
L 398.487273 136.592017 
" clip-path="url(#pea0eaf9292)" style="fill: none; stroke: #0000ff; stroke-width: 1.5; stroke-linecap: square"/>
   </g>
   <g id="line2d_22">
    <path d="M 73.832727 234.781071 
L 75.464157 167.681262 
L 77.095587 141.602261 
L 78.727017 127.114512 
L 80.358447 123.639351 
L 83.621307 127.462721 
L 85.252736 125.359159 
L 86.884166 125.819884 
L 88.515596 124.831676 
L 90.147026 126.415749 
L 91.778456 125.645656 
L 93.409886 129.451776 
L 95.041316 127.168158 
L 96.672746 126.9119 
L 98.304175 123.904921 
L 99.935605 127.812851 
L 101.567035 124.436112 
L 103.198465 123.583597 
L 104.829895 126.621311 
L 106.461325 125.185179 
L 108.092755 127.321374 
L 109.724185 125.529777 
L 111.355614 127.525057 
L 112.987044 127.388429 
L 114.618474 123.152487 
L 116.249904 127.00397 
L 117.881334 120.135219 
L 119.512764 119.911655 
L 121.144194 123.17968 
L 122.775624 121.597098 
L 124.407053 121.736128 
L 126.038483 122.545286 
L 127.669913 124.657368 
L 129.301343 124.308485 
L 130.932773 124.083043 
L 132.564203 119.783891 
L 134.195633 126.35329 
L 135.827063 125.983639 
L 137.458492 121.882173 
L 139.089922 125.008632 
L 140.721352 121.587522 
L 142.352782 122.80057 
L 143.984212 123.70305 
L 145.615642 122.657377 
L 147.247072 121.222743 
L 148.878502 122.436297 
L 150.509931 125.133472 
L 152.141361 126.433367 
L 153.772791 121.560021 
L 155.404221 118.788855 
L 157.035651 121.645905 
L 158.667081 119.240588 
L 160.298511 124.206267 
L 161.929941 120.689173 
L 163.56137 118.913709 
L 165.1928 123.556678 
L 166.82423 118.582417 
L 168.45566 123.235406 
L 170.08709 122.418977 
L 171.71852 118.779119 
L 173.34995 123.153918 
L 174.98138 118.205019 
L 176.61281 119.288245 
L 178.244239 121.73589 
L 179.875669 120.158972 
L 181.507099 120.51148 
L 183.138529 123.185527 
L 184.769959 121.288521 
L 186.401389 120.912829 
L 188.032819 118.048907 
L 189.664249 117.917808 
L 191.295678 120.81135 
L 192.927108 119.88558 
L 194.558538 119.838447 
L 196.189968 118.860564 
L 197.821398 117.473954 
L 199.452828 118.065776 
L 201.084258 122.881403 
L 202.715688 120.024173 
L 204.347117 119.181774 
L 205.978547 120.820292 
L 207.609977 119.979614 
L 209.241407 119.649473 
L 210.872837 122.715233 
L 212.504267 120.265743 
L 214.135697 121.587636 
L 215.767127 118.525776 
L 217.398556 119.514817 
L 219.029986 123.611151 
L 222.292846 116.59737 
L 223.924276 117.465798 
L 225.555706 119.666046 
L 227.187136 117.917308 
L 228.818566 120.434864 
L 230.449995 117.251065 
L 232.081425 119.298014 
L 233.712855 120.832519 
L 235.344285 117.294567 
L 236.975715 119.781057 
L 238.607145 119.231477 
L 240.238575 123.16324 
L 241.870005 121.915552 
L 243.501434 117.705421 
L 245.132864 118.61906 
L 246.764294 120.0372 
L 248.395724 120.349085 
L 250.027154 119.543614 
L 251.658584 120.304812 
L 253.290014 115.793267 
L 254.921444 122.050603 
L 256.552873 118.517602 
L 258.184303 122.16841 
L 259.815733 119.80824 
L 261.447163 118.612486 
L 263.078593 119.016649 
L 264.710023 121.401118 
L 266.341453 121.191419 
L 267.972883 117.77086 
L 269.604312 121.031996 
L 271.235742 120.95875 
L 272.867172 119.657053 
L 274.498602 121.066257 
L 276.130032 120.252772 
L 277.761462 120.507743 
L 279.392892 119.709564 
L 281.024322 117.976573 
L 282.655751 117.697992 
L 284.287181 120.632434 
L 285.918611 119.40927 
L 287.550041 121.98149 
L 289.181471 119.692212 
L 290.812901 119.557683 
L 292.444331 118.647325 
L 294.075761 120.968717 
L 295.70719 119.492898 
L 297.33862 120.573936 
L 298.97005 121.106641 
L 300.60148 120.542906 
L 302.23291 123.292499 
L 303.86434 118.690176 
L 305.49577 120.992435 
L 307.1272 124.781614 
L 308.75863 123.249113 
L 310.390059 118.860289 
L 312.021489 119.140336 
L 313.652919 119.878158 
L 315.284349 119.421925 
L 316.915779 120.028007 
L 318.547209 120.223856 
L 320.178639 121.336387 
L 321.810069 121.903498 
L 323.441498 118.371223 
L 325.072928 122.727395 
L 326.704358 122.332492 
L 328.335788 119.993222 
L 329.967218 120.272955 
L 331.598648 121.503646 
L 333.230078 119.701281 
L 334.861508 120.339372 
L 336.492937 120.543037 
L 338.124367 119.111929 
L 339.755797 118.160056 
L 341.387227 115.626317 
L 343.018657 118.198963 
L 344.650087 120.362425 
L 346.281517 119.461862 
L 347.912947 119.065881 
L 349.544376 118.966102 
L 351.175806 120.610858 
L 352.807236 118.26447 
L 354.438666 121.369156 
L 356.070096 118.132326 
L 357.701526 116.22185 
L 359.332956 118.92831 
L 360.964386 121.032574 
L 362.595815 118.331453 
L 364.227245 118.846837 
L 365.858675 118.337669 
L 367.490105 118.101546 
L 369.121535 116.441271 
L 370.752965 120.077128 
L 372.384395 121.630963 
L 374.015825 121.194945 
L 375.647254 118.717713 
L 377.278684 120.54871 
L 378.910114 119.396162 
L 380.541544 118.462804 
L 382.172974 118.025699 
L 383.804404 121.784034 
L 385.435834 120.717984 
L 387.067264 119.422246 
L 388.698693 119.816755 
L 390.330123 120.986293 
L 391.961553 119.398025 
L 393.592983 121.25348 
L 395.224413 118.307098 
L 396.855843 118.960477 
L 398.487273 121.508121 
L 398.487273 121.508121 
" clip-path="url(#pea0eaf9292)" style="fill: none; stroke-dasharray: 9.6,2.4,1.5,2.4; stroke-dashoffset: 0; stroke: #008000; stroke-width: 1.5"/>
   </g>
   <g id="line2d_23">
    <path d="M 73.832727 135.308585 
L 75.464157 110.846935 
L 77.095587 107.8375 
L 78.727017 107.830039 
L 80.358447 104.712112 
L 81.989877 104.654928 
L 83.621307 115.786493 
L 85.252736 101.421837 
L 86.884166 103.251013 
L 88.515596 94.019638 
L 90.147026 90.601948 
L 91.778456 107.556338 
L 93.409886 92.497852 
L 95.041316 109.154843 
L 96.672746 98.331503 
L 98.304175 99.048046 
L 99.935605 101.40661 
L 101.567035 82.756118 
L 103.198465 104.328296 
L 104.829895 104.891697 
L 106.461325 83.995601 
L 108.092755 97.380134 
L 109.724185 108.893835 
L 111.355614 99.856465 
L 112.987044 107.529932 
L 114.618474 95.411057 
L 116.249904 99.922368 
L 117.881334 86.657017 
L 119.512764 101.782638 
L 121.144194 88.170913 
L 122.775624 88.1985 
L 124.407053 98.266302 
L 126.038483 83.798842 
L 127.669913 84.042389 
L 129.301343 92.46601 
L 130.932773 98.296436 
L 132.564203 93.82425 
L 134.195633 95.640968 
L 135.827063 92.813405 
L 137.458492 86.936934 
L 139.089922 98.280854 
L 140.721352 70.158388 
L 142.352782 90.052588 
L 143.984212 85.337271 
L 145.615642 86.606115 
L 147.247072 70.545072 
L 148.878502 99.785939 
L 150.509931 97.032659 
L 152.141361 95.786958 
L 153.772791 72.054263 
L 155.404221 82.55242 
L 157.035651 53.568 
L 158.667081 76.158631 
L 160.298511 81.022764 
L 161.929941 89.593922 
L 163.56137 90.707386 
L 165.1928 91.177402 
L 166.82423 94.114803 
L 168.45566 79.777184 
L 170.08709 91.347846 
L 171.71852 72.272945 
L 173.34995 90.974889 
L 174.98138 72.155553 
L 176.61281 92.29646 
L 178.244239 93.845515 
L 179.875669 62.235854 
L 181.507099 74.678591 
L 183.138529 96.877811 
L 184.769959 77.120717 
L 186.401389 60.985173 
L 188.032819 86.981148 
L 189.664249 72.065434 
L 191.295678 66.96485 
L 192.927108 86.776919 
L 194.558538 82.966819 
L 196.189968 94.204279 
L 197.821398 60.953627 
L 199.452828 82.80921 
L 201.084258 90.897806 
L 202.715688 77.070287 
L 204.347117 81.097557 
L 205.978547 89.522584 
L 207.609977 79.836411 
L 209.241407 73.11754 
L 210.872837 81.251511 
L 212.504267 81.431677 
L 214.135697 85.5467 
L 215.767127 79.938664 
L 217.398556 82.81438 
L 219.029986 92.42399 
L 220.661416 87.002691 
L 222.292846 70.626312 
L 223.924276 79.727955 
L 225.555706 85.593777 
L 227.187136 61.74002 
L 228.818566 84.12637 
L 230.449995 74.563386 
L 232.081425 79.669905 
L 233.712855 85.552351 
L 235.344285 77.241747 
L 236.975715 81.760579 
L 238.607145 76.448487 
L 240.238575 85.569598 
L 241.870005 88.132574 
L 243.501434 79.965123 
L 245.132864 74.502128 
L 246.764294 85.321857 
L 248.395724 61.798517 
L 250.027154 65.784419 
L 251.658584 88.034242 
L 253.290014 73.127358 
L 254.921444 95.456177 
L 256.552873 81.560419 
L 258.184303 68.865229 
L 259.815733 66.982692 
L 261.447163 83.89904 
L 263.078593 82.771707 
L 264.710023 84.239885 
L 266.341453 83.122307 
L 267.972883 83.904989 
L 269.604312 83.824737 
L 271.235742 85.709538 
L 272.867172 76.091411 
L 274.498602 74.705121 
L 276.130032 80.179646 
L 277.761462 91.56646 
L 279.392892 80.024071 
L 281.024322 92.359532 
L 282.655751 74.950996 
L 284.287181 72.11988 
L 285.918611 72.214468 
L 287.550041 96.859345 
L 289.181471 94.116657 
L 290.812901 85.621259 
L 292.444331 79.141503 
L 294.075761 88.393774 
L 295.70719 92.486704 
L 297.33862 89.46707 
L 298.97005 67.064841 
L 300.60148 72.108468 
L 302.23291 85.434927 
L 303.86434 85.643023 
L 305.49577 82.491875 
L 307.1272 95.325829 
L 308.75863 81.25842 
L 310.390059 88.653455 
L 312.021489 83.768499 
L 313.652919 93.941471 
L 315.284349 78.770317 
L 316.915779 84.155638 
L 318.547209 96.741003 
L 320.178639 82.537996 
L 321.810069 74.393699 
L 323.441498 85.371908 
L 325.072928 91.188555 
L 326.704358 93.897249 
L 328.335788 79.734848 
L 329.967218 77.465337 
L 331.598648 82.628397 
L 333.230078 66.829169 
L 334.861508 94.329952 
L 336.492937 85.814108 
L 338.124367 72.170189 
L 339.755797 73.21881 
L 341.387227 59.867605 
L 343.018657 73.374693 
L 344.650087 89.744237 
L 346.281517 87.003369 
L 347.912947 81.299713 
L 349.544376 89.842241 
L 351.175806 83.94591 
L 352.807236 81.294857 
L 354.438666 89.539975 
L 356.070096 65.651564 
L 357.701526 70.975106 
L 359.332956 63.061793 
L 360.964386 81.582177 
L 362.595815 81.397881 
L 364.227245 81.542524 
L 365.858675 79.798987 
L 367.490105 86.359427 
L 369.121535 68.326945 
L 370.752965 78.711179 
L 372.384395 88.349919 
L 374.015825 95.56518 
L 375.647254 65.577376 
L 377.278684 88.173052 
L 378.910114 89.488747 
L 380.541544 88.441134 
L 382.172974 77.525202 
L 383.804404 89.692985 
L 385.435834 65.736462 
L 387.067264 78.514278 
L 388.698693 79.805284 
L 390.330123 95.078715 
L 391.961553 88.228312 
L 393.592983 88.063333 
L 395.224413 75.613637 
L 396.855843 88.330389 
L 398.487273 96.623906 
L 398.487273 96.623906 
" clip-path="url(#pea0eaf9292)" style="fill: none; stroke: #ff0000; stroke-width: 1.5; stroke-linecap: square"/>
   </g>
   <g id="patch_3">
    <path d="M 57.6 307.584 
L 57.6 41.472 
" style="fill: none; stroke: #000000; stroke-width: 0.8; stroke-linejoin: miter; stroke-linecap: square"/>
   </g>
   <g id="patch_4">
    <path d="M 414.72 307.584 
L 414.72 41.472 
" style="fill: none; stroke: #000000; stroke-width: 0.8; stroke-linejoin: miter; stroke-linecap: square"/>
   </g>
   <g id="patch_5">
    <path d="M 57.6 307.584 
L 414.72 307.584 
" style="fill: none; stroke: #000000; stroke-width: 0.8; stroke-linejoin: miter; stroke-linecap: square"/>
   </g>
   <g id="patch_6">
    <path d="M 57.6 41.472 
L 414.72 41.472 
" style="fill: none; stroke: #000000; stroke-width: 0.8; stroke-linejoin: miter; stroke-linecap: square"/>
   </g>
   <g id="text_13">
    <!-- Population's average and best fitness -->
    <g transform="translate(123.529687 35.472) scale(0.12 -0.12)">
     <defs>
      <path id="DejaVuSans-50" d="M 1259 4147 
L 1259 2394 
L 2053 2394 
Q 2494 2394 2734 2622 
Q 2975 2850 2975 3272 
Q 2975 3691 2734 3919 
Q 2494 4147 2053 4147 
L 1259 4147 
z
M 628 4666 
L 2053 4666 
Q 2838 4666 3239 4311 
Q 3641 3956 3641 3272 
Q 3641 2581 3239 2228 
Q 2838 1875 2053 1875 
L 1259 1875 
L 1259 0 
L 628 0 
L 628 4666 
z
" transform="scale(0.015625)"/>
      <path id="DejaVuSans-70" d="M 1159 525 
L 1159 -1331 
L 581 -1331 
L 581 3500 
L 1159 3500 
L 1159 2969 
Q 1341 3281 1617 3432 
Q 1894 3584 2278 3584 
Q 2916 3584 3314 3078 
Q 3713 2572 3713 1747 
Q 3713 922 3314 415 
Q 2916 -91 2278 -91 
Q 1894 -91 1617 61 
Q 1341 213 1159 525 
z
M 3116 1747 
Q 3116 2381 2855 2742 
Q 2594 3103 2138 3103 
Q 1681 3103 1420 2742 
Q 1159 2381 1159 1747 
Q 1159 1113 1420 752 
Q 1681 391 2138 391 
Q 2594 391 2855 752 
Q 3116 1113 3116 1747 
z
" transform="scale(0.015625)"/>
      <path id="DejaVuSans-75" d="M 544 1381 
L 544 3500 
L 1119 3500 
L 1119 1403 
Q 1119 906 1312 657 
Q 1506 409 1894 409 
Q 2359 409 2629 706 
Q 2900 1003 2900 1516 
L 2900 3500 
L 3475 3500 
L 3475 0 
L 2900 0 
L 2900 538 
Q 2691 219 2414 64 
Q 2138 -91 1772 -91 
Q 1169 -91 856 284 
Q 544 659 544 1381 
z
M 1991 3584 
L 1991 3584 
z
" transform="scale(0.015625)"/>
      <path id="DejaVuSans-6c" d="M 603 4863 
L 1178 4863 
L 1178 0 
L 603 0 
L 603 4863 
z
" transform="scale(0.015625)"/>
      <path id="DejaVuSans-27" d="M 1147 4666 
L 1147 2931 
L 616 2931 
L 616 4666 
L 1147 4666 
z
" transform="scale(0.015625)"/>
      <path id="DejaVuSans-20" transform="scale(0.015625)"/>
      <path id="DejaVuSans-76" d="M 191 3500 
L 800 3500 
L 1894 563 
L 2988 3500 
L 3597 3500 
L 2284 0 
L 1503 0 
L 191 3500 
z
" transform="scale(0.015625)"/>
      <path id="DejaVuSans-67" d="M 2906 1791 
Q 2906 2416 2648 2759 
Q 2391 3103 1925 3103 
Q 1463 3103 1205 2759 
Q 947 2416 947 1791 
Q 947 1169 1205 825 
Q 1463 481 1925 481 
Q 2391 481 2648 825 
Q 2906 1169 2906 1791 
z
M 3481 434 
Q 3481 -459 3084 -895 
Q 2688 -1331 1869 -1331 
Q 1566 -1331 1297 -1286 
Q 1028 -1241 775 -1147 
L 775 -588 
Q 1028 -725 1275 -790 
Q 1522 -856 1778 -856 
Q 2344 -856 2625 -561 
Q 2906 -266 2906 331 
L 2906 616 
Q 2728 306 2450 153 
Q 2172 0 1784 0 
Q 1141 0 747 490 
Q 353 981 353 1791 
Q 353 2603 747 3093 
Q 1141 3584 1784 3584 
Q 2172 3584 2450 3431 
Q 2728 3278 2906 2969 
L 2906 3500 
L 3481 3500 
L 3481 434 
z
" transform="scale(0.015625)"/>
      <path id="DejaVuSans-64" d="M 2906 2969 
L 2906 4863 
L 3481 4863 
L 3481 0 
L 2906 0 
L 2906 525 
Q 2725 213 2448 61 
Q 2172 -91 1784 -91 
Q 1150 -91 751 415 
Q 353 922 353 1747 
Q 353 2572 751 3078 
Q 1150 3584 1784 3584 
Q 2172 3584 2448 3432 
Q 2725 3281 2906 2969 
z
M 947 1747 
Q 947 1113 1208 752 
Q 1469 391 1925 391 
Q 2381 391 2643 752 
Q 2906 1113 2906 1747 
Q 2906 2381 2643 2742 
Q 2381 3103 1925 3103 
Q 1469 3103 1208 2742 
Q 947 2381 947 1747 
z
" transform="scale(0.015625)"/>
      <path id="DejaVuSans-62" d="M 3116 1747 
Q 3116 2381 2855 2742 
Q 2594 3103 2138 3103 
Q 1681 3103 1420 2742 
Q 1159 2381 1159 1747 
Q 1159 1113 1420 752 
Q 1681 391 2138 391 
Q 2594 391 2855 752 
Q 3116 1113 3116 1747 
z
M 1159 2969 
Q 1341 3281 1617 3432 
Q 1894 3584 2278 3584 
Q 2916 3584 3314 3078 
Q 3713 2572 3713 1747 
Q 3713 922 3314 415 
Q 2916 -91 2278 -91 
Q 1894 -91 1617 61 
Q 1341 213 1159 525 
L 1159 0 
L 581 0 
L 581 4863 
L 1159 4863 
L 1159 2969 
z
" transform="scale(0.015625)"/>
      <path id="DejaVuSans-66" d="M 2375 4863 
L 2375 4384 
L 1825 4384 
Q 1516 4384 1395 4259 
Q 1275 4134 1275 3809 
L 1275 3500 
L 2222 3500 
L 2222 3053 
L 1275 3053 
L 1275 0 
L 697 0 
L 697 3053 
L 147 3053 
L 147 3500 
L 697 3500 
L 697 3744 
Q 697 4328 969 4595 
Q 1241 4863 1831 4863 
L 2375 4863 
z
" transform="scale(0.015625)"/>
     </defs>
     <use xlink:href="#DejaVuSans-50"/>
     <use xlink:href="#DejaVuSans-6f" transform="translate(56.677734 0)"/>
     <use xlink:href="#DejaVuSans-70" transform="translate(117.859375 0)"/>
     <use xlink:href="#DejaVuSans-75" transform="translate(181.335938 0)"/>
     <use xlink:href="#DejaVuSans-6c" transform="translate(244.714844 0)"/>
     <use xlink:href="#DejaVuSans-61" transform="translate(272.498047 0)"/>
     <use xlink:href="#DejaVuSans-74" transform="translate(333.777344 0)"/>
     <use xlink:href="#DejaVuSans-69" transform="translate(372.986328 0)"/>
     <use xlink:href="#DejaVuSans-6f" transform="translate(400.769531 0)"/>
     <use xlink:href="#DejaVuSans-6e" transform="translate(461.951172 0)"/>
     <use xlink:href="#DejaVuSans-27" transform="translate(525.330078 0)"/>
     <use xlink:href="#DejaVuSans-73" transform="translate(552.820312 0)"/>
     <use xlink:href="#DejaVuSans-20" transform="translate(604.919922 0)"/>
     <use xlink:href="#DejaVuSans-61" transform="translate(636.707031 0)"/>
     <use xlink:href="#DejaVuSans-76" transform="translate(697.986328 0)"/>
     <use xlink:href="#DejaVuSans-65" transform="translate(757.166016 0)"/>
     <use xlink:href="#DejaVuSans-72" transform="translate(818.689453 0)"/>
     <use xlink:href="#DejaVuSans-61" transform="translate(859.802734 0)"/>
     <use xlink:href="#DejaVuSans-67" transform="translate(921.082031 0)"/>
     <use xlink:href="#DejaVuSans-65" transform="translate(984.558594 0)"/>
     <use xlink:href="#DejaVuSans-20" transform="translate(1046.082031 0)"/>
     <use xlink:href="#DejaVuSans-61" transform="translate(1077.869141 0)"/>
     <use xlink:href="#DejaVuSans-6e" transform="translate(1139.148438 0)"/>
     <use xlink:href="#DejaVuSans-64" transform="translate(1202.527344 0)"/>
     <use xlink:href="#DejaVuSans-20" transform="translate(1266.003906 0)"/>
     <use xlink:href="#DejaVuSans-62" transform="translate(1297.791016 0)"/>
     <use xlink:href="#DejaVuSans-65" transform="translate(1361.267578 0)"/>
     <use xlink:href="#DejaVuSans-73" transform="translate(1422.791016 0)"/>
     <use xlink:href="#DejaVuSans-74" transform="translate(1474.890625 0)"/>
     <use xlink:href="#DejaVuSans-20" transform="translate(1514.099609 0)"/>
     <use xlink:href="#DejaVuSans-66" transform="translate(1545.886719 0)"/>
     <use xlink:href="#DejaVuSans-69" transform="translate(1581.091797 0)"/>
     <use xlink:href="#DejaVuSans-74" transform="translate(1608.875 0)"/>
     <use xlink:href="#DejaVuSans-6e" transform="translate(1648.083984 0)"/>
     <use xlink:href="#DejaVuSans-65" transform="translate(1711.462891 0)"/>
     <use xlink:href="#DejaVuSans-73" transform="translate(1772.986328 0)"/>
     <use xlink:href="#DejaVuSans-73" transform="translate(1825.085938 0)"/>
    </g>
   </g>
   <g id="legend_1">
    <g id="patch_7">
     <path d="M 334.779375 302.584 
L 407.72 302.584 
Q 409.72 302.584 409.72 300.584 
L 409.72 257.549625 
Q 409.72 255.549625 407.72 255.549625 
L 334.779375 255.549625 
Q 332.779375 255.549625 332.779375 257.549625 
L 332.779375 300.584 
Q 332.779375 302.584 334.779375 302.584 
z
" style="fill: #ffffff; opacity: 0.8; stroke: #cccccc; stroke-linejoin: miter"/>
    </g>
    <g id="line2d_24">
     <path d="M 336.779375 263.648062 
L 346.779375 263.648062 
L 356.779375 263.648062 
" style="fill: none; stroke: #0000ff; stroke-width: 1.5; stroke-linecap: square"/>
    </g>
    <g id="text_14">
     <!-- average -->
     <g transform="translate(364.779375 267.148062) scale(0.1 -0.1)">
      <use xlink:href="#DejaVuSans-61"/>
      <use xlink:href="#DejaVuSans-76" transform="translate(61.279297 0)"/>
      <use xlink:href="#DejaVuSans-65" transform="translate(120.458984 0)"/>
      <use xlink:href="#DejaVuSans-72" transform="translate(181.982422 0)"/>
      <use xlink:href="#DejaVuSans-61" transform="translate(223.095703 0)"/>
      <use xlink:href="#DejaVuSans-67" transform="translate(284.375 0)"/>
      <use xlink:href="#DejaVuSans-65" transform="translate(347.851562 0)"/>
     </g>
    </g>
    <g id="line2d_25">
     <path d="M 336.779375 278.326188 
L 346.779375 278.326188 
L 356.779375 278.326188 
" style="fill: none; stroke-dasharray: 9.6,2.4,1.5,2.4; stroke-dashoffset: 0; stroke: #008000; stroke-width: 1.5"/>
    </g>
    <g id="text_15">
     <!-- +1 sd -->
     <g transform="translate(364.779375 281.826188) scale(0.1 -0.1)">
      <defs>
       <path id="DejaVuSans-2b" d="M 2944 4013 
L 2944 2272 
L 4684 2272 
L 4684 1741 
L 2944 1741 
L 2944 0 
L 2419 0 
L 2419 1741 
L 678 1741 
L 678 2272 
L 2419 2272 
L 2419 4013 
L 2944 4013 
z
" transform="scale(0.015625)"/>
      </defs>
      <use xlink:href="#DejaVuSans-2b"/>
      <use xlink:href="#DejaVuSans-31" transform="translate(83.789062 0)"/>
      <use xlink:href="#DejaVuSans-20" transform="translate(147.412109 0)"/>
      <use xlink:href="#DejaVuSans-73" transform="translate(179.199219 0)"/>
      <use xlink:href="#DejaVuSans-64" transform="translate(231.298828 0)"/>
     </g>
    </g>
    <g id="line2d_26">
     <path d="M 336.779375 293.004312 
L 346.779375 293.004312 
L 356.779375 293.004312 
" style="fill: none; stroke: #ff0000; stroke-width: 1.5; stroke-linecap: square"/>
    </g>
    <g id="text_16">
     <!-- best -->
     <g transform="translate(364.779375 296.504312) scale(0.1 -0.1)">
      <use xlink:href="#DejaVuSans-62"/>
      <use xlink:href="#DejaVuSans-65" transform="translate(63.476562 0)"/>
      <use xlink:href="#DejaVuSans-73" transform="translate(125 0)"/>
      <use xlink:href="#DejaVuSans-74" transform="translate(177.099609 0)"/>
     </g>
    </g>
   </g>
  </g>
 </g>
 <defs>
  <clipPath id="pea0eaf9292">
   <rect x="57.6" y="41.472" width="357.12" height="266.112"/>
  </clipPath>
 </defs>
</svg>
