<?xml version="1.0" encoding="utf-8" standalone="no"?>
<!DOCTYPE svg PUBLIC "-//W3C//DTD SVG 1.1//EN"
  "http://www.w3.org/Graphics/SVG/1.1/DTD/svg11.dtd">
<svg xmlns:xlink="http://www.w3.org/1999/xlink" width="460.8pt" height="345.6pt" viewBox="0 0 460.8 345.6" xmlns="http://www.w3.org/2000/svg" version="1.1">
 <metadata>
  <rdf:RDF xmlns:dc="http://purl.org/dc/elements/1.1/" xmlns:cc="http://creativecommons.org/ns#" xmlns:rdf="http://www.w3.org/1999/02/22-rdf-syntax-ns#">
   <cc:Work>
    <dc:type rdf:resource="http://purl.org/dc/dcmitype/StillImage"/>
    <dc:date>2026-04-14T01:16:51.324029</dc:date>
    <dc:format>image/svg+xml</dc:format>
    <dc:creator>
     <cc:Agent>
      <dc:title>Matplotlib v3.10.8, https://matplotlib.org/</dc:title>
     </cc:Agent>
    </dc:creator>
   </cc:Work>
  </rdf:RDF>
 </metadata>
 <defs>
  <style type="text/css">*{stroke-linejoin: round; stroke-linecap: butt}</style>
 </defs>
 <g id="figure_1">
  <g id="patch_1">
   <path d="M 0 345.6 
L 460.8 345.6 
L 460.8 0 
L 0 0 
z
" style="fill: #ffffff"/>
  </g>
  <g id="axes_1">
   <g id="patch_2">
    <path d="M 57.6 307.584 
L 414.72 307.584 
L 414.72 41.472 
L 57.6 41.472 
z
" style="fill: #ffffff"/>
   </g>
   <g id="matplotlib.axis_1">
    <g id="xtick_1">
     <g id="line2d_1">
      <path d="M 73.832727 307.584 
L 73.832727 41.472 
" clip-path="url(#p4f01d37d33)" style="fill: none; stroke: #b0b0b0; stroke-width: 0.8; stroke-linecap: square"/>
     </g>
     <g id="line2d_2">
      <defs>
       <path id="m7083aa727b" d="M 0 0 
L 0 3.5 
" style="stroke: #000000; stroke-width: 0.8"/>
      </defs>
      <g>
       <use xlink:href="#m7083aa727b" x="73.832727" y="307.584" style="stroke: #000000; stroke-width: 0.8"/>
      </g>
     </g>
     <g id="text_1">
      <!-- 0 -->
      <g transform="translate(70.651477 322.182437) scale(0.1 -0.1)">
       <defs>
        <path id="DejaVuSans-30" d="M 2034 4250 
Q 1547 4250 1301 3770 
Q 1056 3291 1056 2328 
Q 1056 1369 1301 889 
Q 1547 409 2034 409 
Q 2525 409 2770 889 
Q 3016 1369 3016 2328 
Q 3016 3291 2770 3770 
Q 2525 4250 2034 4250 
z
M 2034 4750 
Q 2819 4750 3233 4129 
Q 3647 3509 3647 2328 
Q 3647 1150 3233 529 
Q 2819 -91 2034 -91 
Q 1250 -91 836 529 
Q 422 1150 422 2328 
Q 422 3509 836 4129 
Q 1250 4750 2034 4750 
z
" transform="scale(0.015625)"/>
       </defs>
       <use xlink:href="#DejaVuSans-30"/>
      </g>
     </g>
    </g>
    <g id="xtick_2">
     <g id="line2d_3">
      <path d="M 114.618474 307.584 
L 114.618474 41.472 
" clip-path="url(#p4f01d37d33)" style="fill: none; stroke: #b0b0b0; stroke-width: 0.8; stroke-linecap: square"/>
     </g>
     <g id="line2d_4">
      <g>
       <use xlink:href="#m7083aa727b" x="114.618474" y="307.584" style="stroke: #000000; stroke-width: 0.8"/>
      </g>
     </g>
     <g id="text_2">
      <!-- 25 -->
      <g transform="translate(108.255974 322.182437) scale(0.1 -0.1)">
       <defs>
        <path id="DejaVuSans-32" d="M 1228 531 
L 3431 531 
L 3431 0 
L 469 0 
L 469 531 
Q 828 903 1448 1529 
Q 2069 2156 2228 2338 
Q 2531 2678 2651 2914 
Q 2772 3150 2772 3378 
Q 2772 3750 2511 3984 
Q 2250 4219 1831 4219 
Q 1534 4219 1204 4116 
Q 875 4013 500 3803 
L 500 4441 
Q 881 4594 1212 4672 
Q 1544 4750 1819 4750 
Q 2544 4750 2975 4387 
Q 3406 4025 3406 3419 
Q 3406 3131 3298 2873 
Q 3191 2616 2906 2266 
Q 2828 2175 2409 1742 
Q 1991 1309 1228 531 
z
" transform="scale(0.015625)"/>
        <path id="DejaVuSans-35" d="M 691 4666 
L 3169 4666 
L 3169 4134 
L 1269 4134 
L 1269 2991 
Q 1406 3038 1543 3061 
Q 1681 3084 1819 3084 
Q 2600 3084 3056 2656 
Q 3513 2228 3513 1497 
Q 3513 744 3044 326 
Q 2575 -91 1722 -91 
Q 1428 -91 1123 -41 
Q 819 9 494 109 
L 494 744 
Q 775 591 1075 516 
Q 1375 441 1709 441 
Q 2250 441 2565 725 
Q 2881 1009 2881 1497 
Q 2881 1984 2565 2268 
Q 2250 2553 1709 2553 
Q 1456 2553 1204 2497 
Q 953 2441 691 2322 
L 691 4666 
z
" transform="scale(0.015625)"/>
       </defs>
       <use xlink:href="#DejaVuSans-32"/>
       <use xlink:href="#DejaVuSans-35" transform="translate(63.623047 0)"/>
      </g>
     </g>
    </g>
    <g id="xtick_3">
     <g id="line2d_5">
      <path d="M 155.404221 307.584 
L 155.404221 41.472 
" clip-path="url(#p4f01d37d33)" style="fill: none; stroke: #b0b0b0; stroke-width: 0.8; stroke-linecap: square"/>
     </g>
     <g id="line2d_6">
      <g>
       <use xlink:href="#m7083aa727b" x="155.404221" y="307.584" style="stroke: #000000; stroke-width: 0.8"/>
      </g>
     </g>
     <g id="text_3">
      <!-- 50 -->
      <g transform="translate(149.041721 322.182437) scale(0.1 -0.1)">
       <use xlink:href="#DejaVuSans-35"/>
       <use xlink:href="#DejaVuSans-30" transform="translate(63.623047 0)"/>
      </g>
     </g>
    </g>
    <g id="xtick_4">
     <g id="line2d_7">
      <path d="M 196.189968 307.584 
L 196.189968 41.472 
" clip-path="url(#p4f01d37d33)" style="fill: none; stroke: #b0b0b0; stroke-width: 0.8; stroke-linecap: square"/>
     </g>
     <g id="line2d_8">
      <g>
       <use xlink:href="#m7083aa727b" x="196.189968" y="307.584" style="stroke: #000000; stroke-width: 0.8"/>
      </g>
     </g>
     <g id="text_4">
      <!-- 75 -->
      <g transform="translate(189.827468 322.182437) scale(0.1 -0.1)">
       <defs>
        <path id="DejaVuSans-37" d="M 525 4666 
L 3525 4666 
L 3525 4397 
L 1831 0 
L 1172 0 
L 2766 4134 
L 525 4134 
L 525 4666 
z
" transform="scale(0.015625)"/>
       </defs>
       <use xlink:href="#DejaVuSans-37"/>
       <use xlink:href="#DejaVuSans-35" transform="translate(63.623047 0)"/>
      </g>
     </g>
    </g>
    <g id="xtick_5">
     <g id="line2d_9">
      <path d="M 236.975715 307.584 
L 236.975715 41.472 
" clip-path="url(#p4f01d37d33)" style="fill: none; stroke: #b0b0b0; stroke-width: 0.8; stroke-linecap: square"/>
     </g>
     <g id="line2d_10">
      <g>
       <use xlink:href="#m7083aa727b" x="236.975715" y="307.584" style="stroke: #000000; stroke-width: 0.8"/>
      </g>
     </g>
     <g id="text_5">
      <!-- 100 -->
      <g transform="translate(227.431965 322.182437) scale(0.1 -0.1)">
       <defs>
        <path id="DejaVuSans-31" d="M 794 531 
L 1825 531 
L 1825 4091 
L 703 3866 
L 703 4441 
L 1819 4666 
L 2450 4666 
L 2450 531 
L 3481 531 
L 3481 0 
L 794 0 
L 794 531 
z
" transform="scale(0.015625)"/>
       </defs>
       <use xlink:href="#DejaVuSans-31"/>
       <use xlink:href="#DejaVuSans-30" transform="translate(63.623047 0)"/>
       <use xlink:href="#DejaVuSans-30" transform="translate(127.246094 0)"/>
      </g>
     </g>
    </g>
    <g id="xtick_6">
     <g id="line2d_11">
      <path d="M 277.761462 307.584 
L 277.761462 41.472 
" clip-path="url(#p4f01d37d33)" style="fill: none; stroke: #b0b0b0; stroke-width: 0.8; stroke-linecap: square"/>
     </g>
     <g id="line2d_12">
      <g>
       <use xlink:href="#m7083aa727b" x="277.761462" y="307.584" style="stroke: #000000; stroke-width: 0.8"/>
      </g>
     </g>
     <g id="text_6">
      <!-- 125 -->
      <g transform="translate(268.217712 322.182437) scale(0.1 -0.1)">
       <use xlink:href="#DejaVuSans-31"/>
       <use xlink:href="#DejaVuSans-32" transform="translate(63.623047 0)"/>
       <use xlink:href="#DejaVuSans-35" transform="translate(127.246094 0)"/>
      </g>
     </g>
    </g>
    <g id="xtick_7">
     <g id="line2d_13">
      <path d="M 318.547209 307.584 
L 318.547209 41.472 
" clip-path="url(#p4f01d37d33)" style="fill: none; stroke: #b0b0b0; stroke-width: 0.8; stroke-linecap: square"/>
     </g>
     <g id="line2d_14">
      <g>
       <use xlink:href="#m7083aa727b" x="318.547209" y="307.584" style="stroke: #000000; stroke-width: 0.8"/>
      </g>
     </g>
     <g id="text_7">
      <!-- 150 -->
      <g transform="translate(309.003459 322.182437) scale(0.1 -0.1)">
       <use xlink:href="#DejaVuSans-31"/>
       <use xlink:href="#DejaVuSans-35" transform="translate(63.623047 0)"/>
       <use xlink:href="#DejaVuSans-30" transform="translate(127.246094 0)"/>
      </g>
     </g>
    </g>
    <g id="xtick_8">
     <g id="line2d_15">
      <path d="M 359.332956 307.584 
L 359.332956 41.472 
" clip-path="url(#p4f01d37d33)" style="fill: none; stroke: #b0b0b0; stroke-width: 0.8; stroke-linecap: square"/>
     </g>
     <g id="line2d_16">
      <g>
       <use xlink:href="#m7083aa727b" x="359.332956" y="307.584" style="stroke: #000000; stroke-width: 0.8"/>
      </g>
     </g>
     <g id="text_8">
      <!-- 175 -->
      <g transform="translate(349.789206 322.182437) scale(0.1 -0.1)">
       <use xlink:href="#DejaVuSans-31"/>
       <use xlink:href="#DejaVuSans-37" transform="translate(63.623047 0)"/>
       <use xlink:href="#DejaVuSans-35" transform="translate(127.246094 0)"/>
      </g>
     </g>
    </g>
    <g id="xtick_9">
     <g id="line2d_17">
      <path d="M 400.118703 307.584 
L 400.118703 41.472 
" clip-path="url(#p4f01d37d33)" style="fill: none; stroke: #b0b0b0; stroke-width: 0.8; stroke-linecap: square"/>
     </g>
     <g id="line2d_18">
      <g>
       <use xlink:href="#m7083aa727b" x="400.118703" y="307.584" style="stroke: #000000; stroke-width: 0.8"/>
      </g>
     </g>
     <g id="text_9">
      <!-- 200 -->
      <g transform="translate(390.574953 322.182437) scale(0.1 -0.1)">
       <use xlink:href="#DejaVuSans-32"/>
       <use xlink:href="#DejaVuSans-30" transform="translate(63.623047 0)"/>
       <use xlink:href="#DejaVuSans-30" transform="translate(127.246094 0)"/>
      </g>
     </g>
    </g>
    <g id="text_10">
     <!-- Generations -->
     <g transform="translate(205.662344 335.860562) scale(0.1 -0.1)">
      <defs>
       <path id="DejaVuSans-47" d="M 3809 666 
L 3809 1919 
L 2778 1919 
L 2778 2438 
L 4434 2438 
L 4434 434 
Q 4069 175 3628 42 
Q 3188 -91 2688 -91 
Q 1594 -91 976 548 
Q 359 1188 359 2328 
Q 359 3472 976 4111 
Q 1594 4750 2688 4750 
Q 3144 4750 3555 4637 
Q 3966 4525 4313 4306 
L 4313 3634 
Q 3963 3931 3569 4081 
Q 3175 4231 2741 4231 
Q 1884 4231 1454 3753 
Q 1025 3275 1025 2328 
Q 1025 1384 1454 906 
Q 1884 428 2741 428 
Q 3075 428 3337 486 
Q 3600 544 3809 666 
z
" transform="scale(0.015625)"/>
       <path id="DejaVuSans-65" d="M 3597 1894 
L 3597 1613 
L 953 1613 
Q 991 1019 1311 708 
Q 1631 397 2203 397 
Q 2534 397 2845 478 
Q 3156 559 3463 722 
L 3463 178 
Q 3153 47 2828 -22 
Q 2503 -91 2169 -91 
Q 1331 -91 842 396 
Q 353 884 353 1716 
Q 353 2575 817 3079 
Q 1281 3584 2069 3584 
Q 2775 3584 3186 3129 
Q 3597 2675 3597 1894 
z
M 3022 2063 
Q 3016 2534 2758 2815 
Q 2500 3097 2075 3097 
Q 1594 3097 1305 2825 
Q 1016 2553 972 2059 
L 3022 2063 
z
" transform="scale(0.015625)"/>
       <path id="DejaVuSans-6e" d="M 3513 2113 
L 3513 0 
L 2938 0 
L 2938 2094 
Q 2938 2591 2744 2837 
Q 2550 3084 2163 3084 
Q 1697 3084 1428 2787 
Q 1159 2491 1159 1978 
L 1159 0 
L 581 0 
L 581 3500 
L 1159 3500 
L 1159 2956 
Q 1366 3272 1645 3428 
Q 1925 3584 2291 3584 
Q 2894 3584 3203 3211 
Q 3513 2838 3513 2113 
z
" transform="scale(0.015625)"/>
       <path id="DejaVuSans-72" d="M 2631 2963 
Q 2534 3019 2420 3045 
Q 2306 3072 2169 3072 
Q 1681 3072 1420 2755 
Q 1159 2438 1159 1844 
L 1159 0 
L 581 0 
L 581 3500 
L 1159 3500 
L 1159 2956 
Q 1341 3275 1631 3429 
Q 1922 3584 2338 3584 
Q 2397 3584 2469 3576 
Q 2541 3569 2628 3553 
L 2631 2963 
z
" transform="scale(0.015625)"/>
       <path id="DejaVuSans-61" d="M 2194 1759 
Q 1497 1759 1228 1600 
Q 959 1441 959 1056 
Q 959 750 1161 570 
Q 1363 391 1709 391 
Q 2188 391 2477 730 
Q 2766 1069 2766 1631 
L 2766 1759 
L 2194 1759 
z
M 3341 1997 
L 3341 0 
L 2766 0 
L 2766 531 
Q 2569 213 2275 61 
Q 1981 -91 1556 -91 
Q 1019 -91 701 211 
Q 384 513 384 1019 
Q 384 1609 779 1909 
Q 1175 2209 1959 2209 
L 2766 2209 
L 2766 2266 
Q 2766 2663 2505 2880 
Q 2244 3097 1772 3097 
Q 1472 3097 1187 3025 
Q 903 2953 641 2809 
L 641 3341 
Q 956 3463 1253 3523 
Q 1550 3584 1831 3584 
Q 2591 3584 2966 3190 
Q 3341 2797 3341 1997 
z
" transform="scale(0.015625)"/>
       <path id="DejaVuSans-74" d="M 1172 4494 
L 1172 3500 
L 2356 3500 
L 2356 3053 
L 1172 3053 
L 1172 1153 
Q 1172 725 1289 603 
Q 1406 481 1766 481 
L 2356 481 
L 2356 0 
L 1766 0 
Q 1100 0 847 248 
Q 594 497 594 1153 
L 594 3053 
L 172 3053 
L 172 3500 
L 594 3500 
L 594 4494 
L 1172 4494 
z
" transform="scale(0.015625)"/>
       <path id="DejaVuSans-69" d="M 603 3500 
L 1178 3500 
L 1178 0 
L 603 0 
L 603 3500 
z
M 603 4863 
L 1178 4863 
L 1178 4134 
L 603 4134 
L 603 4863 
z
" transform="scale(0.015625)"/>
       <path id="DejaVuSans-6f" d="M 1959 3097 
Q 1497 3097 1228 2736 
Q 959 2375 959 1747 
Q 959 1119 1226 758 
Q 1494 397 1959 397 
Q 2419 397 2687 759 
Q 2956 1122 2956 1747 
Q 2956 2369 2687 2733 
Q 2419 3097 1959 3097 
z
M 1959 3584 
Q 2709 3584 3137 3096 
Q 3566 2609 3566 1747 
Q 3566 888 3137 398 
Q 2709 -91 1959 -91 
Q 1206 -91 779 398 
Q 353 888 353 1747 
Q 353 2609 779 3096 
Q 1206 3584 1959 3584 
z
" transform="scale(0.015625)"/>
       <path id="DejaVuSans-73" d="M 2834 3397 
L 2834 2853 
Q 2591 2978 2328 3040 
Q 2066 3103 1784 3103 
Q 1356 3103 1142 2972 
Q 928 2841 928 2578 
Q 928 2378 1081 2264 
Q 1234 2150 1697 2047 
L 1894 2003 
Q 2506 1872 2764 1633 
Q 3022 1394 3022 966 
Q 3022 478 2636 193 
Q 2250 -91 1575 -91 
Q 1294 -91 989 -36 
Q 684 19 347 128 
L 347 722 
Q 666 556 975 473 
Q 1284 391 1588 391 
Q 1994 391 2212 530 
Q 2431 669 2431 922 
Q 2431 1156 2273 1281 
Q 2116 1406 1581 1522 
L 1381 1569 
Q 847 1681 609 1914 
Q 372 2147 372 2553 
Q 372 3047 722 3315 
Q 1072 3584 1716 3584 
Q 2034 3584 2315 3537 
Q 2597 3491 2834 3397 
z
" transform="scale(0.015625)"/>
      </defs>
      <use xlink:href="#DejaVuSans-47"/>
      <use xlink:href="#DejaVuSans-65" transform="translate(77.490234 0)"/>
      <use xlink:href="#DejaVuSans-6e" transform="translate(139.013672 0)"/>
      <use xlink:href="#DejaVuSans-65" transform="translate(202.392578 0)"/>
      <use xlink:href="#DejaVuSans-72" transform="translate(263.916016 0)"/>
      <use xlink:href="#DejaVuSans-61" transform="translate(305.029297 0)"/>
      <use xlink:href="#DejaVuSans-74" transform="translate(366.308594 0)"/>
      <use xlink:href="#DejaVuSans-69" transform="translate(405.517578 0)"/>
      <use xlink:href="#DejaVuSans-6f" transform="translate(433.300781 0)"/>
      <use xlink:href="#DejaVuSans-6e" transform="translate(494.482422 0)"/>
      <use xlink:href="#DejaVuSans-73" transform="translate(557.861328 0)"/>
     </g>
    </g>
   </g>
   <g id="matplotlib.axis_2">
    <g id="ytick_1">
     <g id="line2d_19">
      <path d="M 57.6 119.875809 
L 414.72 119.875809 
" clip-path="url(#p4f01d37d33)" style="fill: none; stroke: #b0b0b0; stroke-width: 0.8; stroke-linecap: square"/>
     </g>
     <g id="line2d_20">
      <defs>
       <path id="mccb1760097" d="M 0 0 
L -3.5 0 
" style="stroke: #000000; stroke-width: 0.8"/>
      </defs>
      <g>
       <use xlink:href="#mccb1760097" x="57.6" y="119.875809" style="stroke: #000000; stroke-width: 0.8"/>
      </g>
     </g>
     <g id="text_11">
      <!-- $\mathdefault{10^{2}}$ -->
      <g transform="translate(33 123.675027) scale(0.1 -0.1)">
       <use xlink:href="#DejaVuSans-31" transform="translate(0 0.765625)"/>
       <use xlink:href="#DejaVuSans-30" transform="translate(63.623047 0.765625)"/>
       <use xlink:href="#DejaVuSans-32" transform="translate(128.203125 39.046875) scale(0.7)"/>
      </g>
     </g>
    </g>
    <g id="text_12">
     <!-- Fitness -->
     <g transform="translate(26.920312 191.845187) rotate(-90) scale(0.1 -0.1)">
      <defs>
       <path id="DejaVuSans-46" d="M 628 4666 
L 3309 4666 
L 3309 4134 
L 1259 4134 
L 1259 2759 
L 3109 2759 
L 3109 2228 
L 1259 2228 
L 1259 0 
L 628 0 
L 628 4666 
z
" transform="scale(0.015625)"/>
      </defs>
      <use xlink:href="#DejaVuSans-46"/>
      <use xlink:href="#DejaVuSans-69" transform="translate(50.269531 0)"/>
      <use xlink:href="#DejaVuSans-74" transform="translate(78.052734 0)"/>
      <use xlink:href="#DejaVuSans-6e" transform="translate(117.261719 0)"/>
      <use xlink:href="#DejaVuSans-65" transform="translate(180.640625 0)"/>
      <use xlink:href="#DejaVuSans-73" transform="translate(242.164062 0)"/>
      <use xlink:href="#DejaVuSans-73" transform="translate(294.263672 0)"/>
     </g>
    </g>
   </g>
   <g id="line2d_21">
    <path d="M 73.832727 295.488 
L 75.464157 210.430391 
L 77.095587 178.989705 
L 80.358447 154.268258 
L 81.989877 158.873742 
L 83.621307 151.418994 
L 86.884166 153.1204 
L 88.515596 146.044551 
L 90.147026 140.605332 
L 91.778456 140.04587 
L 93.409886 142.5563 
L 95.041316 141.283628 
L 96.672746 137.263507 
L 98.304175 138.703656 
L 99.935605 136.322593 
L 101.567035 137.189147 
L 103.198465 136.52611 
L 104.829895 136.690633 
L 106.461325 138.996067 
L 108.092755 137.717977 
L 109.724185 137.634318 
L 111.355614 136.244325 
L 112.987044 136.499822 
L 114.618474 137.850355 
L 116.249904 136.356314 
L 117.881334 137.625959 
L 119.512764 138.121739 
L 121.144194 137.956469 
L 122.775624 136.950623 
L 124.407053 137.758566 
L 126.038483 137.596232 
L 127.669913 137.852986 
L 129.301343 135.660329 
L 130.932773 134.961493 
L 132.564203 136.563098 
L 134.195633 134.834109 
L 135.827063 135.304805 
L 137.458492 133.886155 
L 139.089922 135.182527 
L 140.721352 132.603091 
L 142.352782 135.225019 
L 143.984212 134.481396 
L 145.615642 132.034005 
L 147.247072 132.425172 
L 148.878502 133.78295 
L 150.509931 134.454798 
L 152.141361 133.873259 
L 153.772791 132.313192 
L 155.404221 132.98021 
L 157.035651 133.12008 
L 158.667081 130.55839 
L 160.298511 131.394398 
L 161.929941 130.315218 
L 163.56137 130.737315 
L 165.1928 131.955257 
L 166.82423 132.553171 
L 168.45566 134.359588 
L 171.71852 131.361025 
L 173.34995 132.974136 
L 174.98138 132.567682 
L 176.61281 133.574756 
L 178.244239 133.787985 
L 179.875669 132.210366 
L 181.507099 132.473585 
L 183.138529 132.444535 
L 186.401389 130.498189 
L 188.032819 132.216964 
L 189.664249 132.279667 
L 191.295678 130.65587 
L 192.927108 131.326631 
L 194.558538 131.326934 
L 196.189968 131.102605 
L 197.821398 131.756922 
L 199.452828 129.513788 
L 201.084258 131.838012 
L 202.715688 131.707717 
L 204.347117 130.072925 
L 205.978547 131.597053 
L 207.609977 130.933412 
L 209.241407 130.846947 
L 210.872837 130.596424 
L 212.504267 129.951808 
L 214.135697 131.235022 
L 215.767127 130.61952 
L 217.398556 130.732635 
L 219.029986 131.549753 
L 220.661416 133.212368 
L 222.292846 131.360908 
L 223.924276 132.537536 
L 225.555706 132.227151 
L 227.187136 129.687261 
L 228.818566 132.180562 
L 230.449995 133.573552 
L 232.081425 131.834707 
L 233.712855 130.426306 
L 235.344285 131.524565 
L 236.975715 131.423058 
L 238.607145 130.734905 
L 240.238575 131.992998 
L 241.870005 132.611671 
L 243.501434 131.927917 
L 245.132864 132.197839 
L 246.764294 131.297133 
L 248.395724 133.234481 
L 250.027154 133.303639 
L 251.658584 133.223179 
L 253.290014 132.414649 
L 254.921444 130.592048 
L 256.552873 130.614488 
L 258.184303 132.263473 
L 259.815733 132.16076 
L 261.447163 133.456255 
L 263.078593 131.508747 
L 264.710023 132.173291 
L 266.341453 129.424223 
L 267.972883 132.635861 
L 269.604312 131.929393 
L 271.235742 131.020847 
L 272.867172 131.726019 
L 274.498602 131.669838 
L 276.130032 129.730389 
L 277.761462 130.614859 
L 279.392892 130.709613 
L 281.024322 132.965317 
L 282.655751 131.747944 
L 284.287181 130.026652 
L 285.918611 131.891698 
L 287.550041 129.455691 
L 289.181471 131.788517 
L 290.812901 131.31534 
L 292.444331 131.558218 
L 294.075761 129.662468 
L 295.70719 131.715592 
L 298.97005 129.952809 
L 300.60148 131.8204 
L 302.23291 130.88224 
L 303.86434 132.101722 
L 307.1272 130.934182 
L 308.75863 132.580542 
L 310.390059 131.810916 
L 312.021489 131.180001 
L 313.652919 131.23739 
L 315.284349 131.452888 
L 316.915779 130.733062 
L 318.547209 130.670536 
L 320.178639 131.712303 
L 321.810069 130.768437 
L 323.441498 130.784977 
L 325.072928 131.476355 
L 326.704358 130.137952 
L 328.335788 131.118381 
L 329.967218 132.67053 
L 331.598648 129.871736 
L 333.230078 131.162153 
L 334.861508 128.880433 
L 336.492937 131.358833 
L 338.124367 131.912708 
L 339.755797 130.609815 
L 341.387227 129.797979 
L 343.018657 130.286241 
L 344.650087 130.203419 
L 346.281517 130.50921 
L 347.912947 130.15473 
L 349.544376 130.484235 
L 351.175806 128.973904 
L 352.807236 129.03798 
L 354.438666 130.516815 
L 357.701526 129.086427 
L 359.332956 127.653763 
L 360.964386 127.913734 
L 362.595815 130.167099 
L 364.227245 127.304868 
L 365.858675 130.140769 
L 367.490105 130.669001 
L 369.121535 129.148106 
L 370.752965 130.060596 
L 372.384395 127.297962 
L 374.015825 129.442235 
L 375.647254 130.161412 
L 377.278684 127.311441 
L 378.910114 130.52218 
L 380.541544 129.940413 
L 382.172974 130.963097 
L 383.804404 128.05296 
L 385.435834 129.018988 
L 387.067264 130.350946 
L 388.698693 129.260651 
L 390.330123 129.977761 
L 391.961553 130.453236 
L 393.592983 130.419806 
L 395.224413 131.852031 
L 396.855843 129.192549 
L 398.487273 129.132454 
L 398.487273 129.132454 
" clip-path="url(#p4f01d37d33)" style="fill: none; stroke: #0000ff; stroke-width: 1.5; stroke-linecap: square"/>
   </g>
   <g id="line2d_22">
    <path d="M 73.832727 244.964262 
L 75.464157 167.159482 
L 77.095587 142.927845 
L 78.727017 134.209766 
L 80.358447 130.740156 
L 81.989877 129.832946 
L 83.621307 131.911722 
L 85.252736 131.603814 
L 86.884166 129.692397 
L 88.515596 129.211165 
L 90.147026 123.579838 
L 91.778456 123.704783 
L 93.409886 124.613089 
L 95.041316 121.867741 
L 96.672746 121.508188 
L 98.304175 123.205229 
L 99.935605 121.124262 
L 101.567035 123.044113 
L 103.198465 122.049061 
L 104.829895 121.658209 
L 106.461325 122.0406 
L 108.092755 123.445102 
L 109.724185 123.512793 
L 111.355614 122.866896 
L 112.987044 122.613803 
L 114.618474 121.169882 
L 117.881334 120.107895 
L 119.512764 121.760595 
L 121.144194 120.926881 
L 122.775624 119.613537 
L 124.407053 119.994306 
L 126.038483 121.131687 
L 127.669913 121.529746 
L 129.301343 119.996984 
L 130.932773 116.8881 
L 132.564203 119.615713 
L 134.195633 119.77846 
L 135.827063 122.195846 
L 137.458492 120.621365 
L 139.089922 120.315048 
L 140.721352 117.298143 
L 142.352782 118.304809 
L 143.984212 119.82516 
L 145.615642 116.094018 
L 147.247072 116.652414 
L 148.878502 117.750836 
L 150.509931 117.890419 
L 152.141361 115.649819 
L 153.772791 115.716568 
L 155.404221 118.430255 
L 157.035651 116.314657 
L 158.667081 114.815924 
L 160.298511 115.925175 
L 161.929941 116.020255 
L 163.56137 115.200345 
L 165.1928 117.414948 
L 166.82423 118.583301 
L 168.45566 121.288573 
L 170.08709 117.753745 
L 171.71852 115.983341 
L 173.34995 118.061333 
L 174.98138 116.357768 
L 176.61281 117.173962 
L 178.244239 118.217406 
L 179.875669 116.98252 
L 181.507099 116.853596 
L 183.138529 119.298289 
L 184.769959 116.052416 
L 186.401389 115.143372 
L 188.032819 117.140556 
L 191.295678 115.51436 
L 192.927108 116.992946 
L 194.558538 116.834016 
L 196.189968 113.338181 
L 197.821398 114.613332 
L 199.452828 113.00748 
L 201.084258 115.937578 
L 202.715688 116.959073 
L 204.347117 115.031091 
L 205.978547 116.084209 
L 207.609977 116.438159 
L 209.241407 114.093964 
L 210.872837 115.466304 
L 212.504267 115.612005 
L 214.135697 115.314786 
L 215.767127 115.947785 
L 217.398556 112.841397 
L 219.029986 117.12336 
L 220.661416 115.434762 
L 222.292846 117.106387 
L 223.924276 116.028869 
L 225.555706 115.298063 
L 227.187136 113.417255 
L 228.818566 117.153879 
L 230.449995 119.02984 
L 232.081425 116.561876 
L 233.712855 115.001773 
L 235.344285 116.400749 
L 236.975715 116.552384 
L 238.607145 115.425924 
L 241.870005 118.469723 
L 243.501434 116.559154 
L 245.132864 117.339882 
L 246.764294 116.226555 
L 248.395724 117.977472 
L 250.027154 118.750196 
L 251.658584 117.49908 
L 253.290014 119.01586 
L 254.921444 115.352412 
L 256.552873 115.552415 
L 258.184303 117.544768 
L 259.815733 115.117859 
L 261.447163 118.060253 
L 263.078593 117.439288 
L 264.710023 117.26191 
L 266.341453 113.374869 
L 267.972883 118.083198 
L 269.604312 117.470765 
L 271.235742 115.764402 
L 272.867172 116.306486 
L 274.498602 117.067744 
L 276.130032 113.591629 
L 277.761462 115.316935 
L 279.392892 115.028391 
L 281.024322 118.264215 
L 282.655751 116.704707 
L 284.287181 112.711482 
L 285.918611 116.821177 
L 287.550041 114.276637 
L 289.181471 116.602031 
L 290.812901 116.240708 
L 292.444331 116.989938 
L 294.075761 114.247659 
L 295.70719 116.862395 
L 297.33862 115.335026 
L 298.97005 115.159381 
L 300.60148 115.699584 
L 302.23291 114.13565 
L 303.86434 116.942847 
L 305.49577 115.239056 
L 307.1272 113.991545 
L 308.75863 118.917455 
L 310.390059 116.90544 
L 312.021489 114.700983 
L 313.652919 115.968976 
L 315.284349 116.262043 
L 316.915779 114.959069 
L 318.547209 115.765158 
L 320.178639 116.794733 
L 321.810069 115.613075 
L 323.441498 114.697626 
L 325.072928 116.049893 
L 326.704358 114.624521 
L 328.335788 115.693674 
L 329.967218 118.326589 
L 331.598648 113.684274 
L 333.230078 115.556484 
L 334.861508 113.548995 
L 336.492937 115.205411 
L 338.124367 116.125368 
L 339.755797 114.622485 
L 341.387227 113.65485 
L 343.018657 114.485813 
L 344.650087 113.526741 
L 346.281517 114.950569 
L 347.912947 112.316777 
L 349.544376 114.037881 
L 351.175806 113.11003 
L 352.807236 112.509712 
L 354.438666 113.708593 
L 356.070096 114.592911 
L 357.701526 113.941271 
L 359.332956 111.419803 
L 360.964386 110.306874 
L 362.595815 112.775392 
L 364.227245 108.479289 
L 365.858675 115.045709 
L 367.490105 114.60499 
L 369.121535 114.288268 
L 370.752965 113.555135 
L 372.384395 110.760493 
L 374.015825 114.162649 
L 375.647254 113.450848 
L 377.278684 111.600822 
L 378.910114 115.422168 
L 380.541544 114.221426 
L 382.172974 115.469509 
L 383.804404 111.964739 
L 385.435834 113.311753 
L 387.067264 113.909611 
L 388.698693 114.302808 
L 390.330123 113.127418 
L 391.961553 114.347659 
L 393.592983 115.279886 
L 395.224413 117.733977 
L 396.855843 113.306781 
L 398.487273 113.113653 
L 398.487273 113.113653 
" clip-path="url(#p4f01d37d33)" style="fill: none; stroke-dasharray: 9.6,2.4,1.5,2.4; stroke-dashoffset: 0; stroke: #008000; stroke-width: 1.5"/>
   </g>
   <g id="line2d_23">
    <path d="M 73.832727 131.753281 
L 75.464157 115.719288 
L 77.095587 117.349547 
L 78.727017 109.437216 
L 80.358447 115.643428 
L 81.989877 107.011859 
L 83.621307 111.079815 
L 85.252736 108.310931 
L 86.884166 108.142985 
L 88.515596 103.475742 
L 90.147026 90.01702 
L 91.778456 71.610879 
L 93.409886 105.212222 
L 95.041316 96.771374 
L 96.672746 84.958158 
L 98.304175 87.625412 
L 99.935605 87.761451 
L 101.567035 92.424694 
L 103.198465 91.29671 
L 104.829895 91.069107 
L 106.461325 99.141375 
L 108.092755 103.575572 
L 109.724185 91.63379 
L 111.355614 94.206187 
L 112.987044 91.089002 
L 114.618474 93.802851 
L 116.249904 93.993624 
L 117.881334 83.435922 
L 119.512764 99.233293 
L 121.144194 70.427487 
L 122.775624 95.214422 
L 124.407053 98.266217 
L 126.038483 86.553398 
L 127.669913 96.748761 
L 129.301343 95.401431 
L 130.932773 61.546917 
L 132.564203 93.968601 
L 134.195633 89.842618 
L 135.827063 102.05627 
L 137.458492 98.297327 
L 139.089922 96.597847 
L 140.721352 81.027487 
L 142.352782 86.967795 
L 143.984212 90.286541 
L 145.615642 69.391094 
L 147.247072 74.934234 
L 148.878502 91.325062 
L 150.509931 77.399674 
L 152.141361 82.006841 
L 153.772791 88.484536 
L 155.404221 89.791141 
L 157.035651 84.927206 
L 158.667081 78.941499 
L 160.298511 91.293024 
L 161.929941 91.287063 
L 163.56137 79.619148 
L 165.1928 100.493348 
L 166.82423 91.436984 
L 168.45566 99.448533 
L 170.08709 82.320543 
L 171.71852 87.515693 
L 173.34995 90.081956 
L 174.98138 82.773773 
L 176.61281 81.441393 
L 178.244239 96.662147 
L 179.875669 89.743724 
L 181.507099 87.242977 
L 183.138529 96.779908 
L 184.769959 81.275142 
L 186.401389 74.797397 
L 188.032819 85.739549 
L 189.664249 88.722821 
L 191.295678 70.637255 
L 192.927108 87.29695 
L 194.558538 83.553468 
L 196.189968 59.063929 
L 197.821398 78.458129 
L 199.452828 74.981783 
L 201.084258 84.920795 
L 202.715688 79.919184 
L 204.347117 73.862947 
L 205.978547 89.900943 
L 207.609977 84.651956 
L 209.241407 62.05259 
L 210.872837 89.831476 
L 212.504267 77.723413 
L 214.135697 79.669956 
L 215.767127 84.05444 
L 217.398556 76.078149 
L 219.029986 95.447195 
L 220.661416 82.644225 
L 222.292846 93.784239 
L 223.924276 90.10993 
L 225.555706 80.738454 
L 227.187136 82.183827 
L 228.818566 88.824085 
L 230.449995 86.068791 
L 232.081425 79.653528 
L 233.712855 79.535322 
L 235.344285 68.845246 
L 236.975715 82.299948 
L 238.607145 90.01698 
L 240.238575 89.774862 
L 241.870005 94.351653 
L 243.501434 74.942188 
L 245.132864 88.58659 
L 246.764294 92.369784 
L 248.395724 87.547403 
L 250.027154 88.386941 
L 251.658584 65.197176 
L 253.290014 94.2829 
L 254.921444 85.948835 
L 256.552873 84.859375 
L 258.184303 82.24436 
L 259.815733 82.212139 
L 261.447163 87.50232 
L 263.078593 96.685542 
L 264.710023 75.900579 
L 266.341453 83.382659 
L 267.972883 88.524449 
L 269.604312 83.765995 
L 271.235742 81.001924 
L 272.867172 80.111492 
L 274.498602 92.601428 
L 276.130032 80.218199 
L 277.761462 66.710645 
L 279.392892 85.824578 
L 281.024322 91.566625 
L 282.655751 89.64901 
L 284.287181 80.980293 
L 285.918611 79.94546 
L 287.550041 84.783801 
L 289.181471 87.271263 
L 290.812901 92.496189 
L 292.444331 95.224974 
L 294.075761 87.316328 
L 295.70719 76.905429 
L 297.33862 86.014848 
L 298.97005 82.318058 
L 300.60148 72.691987 
L 302.23291 71.835134 
L 303.86434 80.108728 
L 305.49577 91.337637 
L 307.1272 71.219861 
L 308.75863 83.663806 
L 310.390059 90.866257 
L 312.021489 63.522371 
L 313.652919 73.466448 
L 315.284349 84.893411 
L 316.915779 86.056441 
L 318.547209 78.338225 
L 320.178639 71.386815 
L 321.810069 93.053573 
L 323.441498 77.267993 
L 325.072928 83.475512 
L 326.704358 79.562409 
L 328.335788 84.797687 
L 329.967218 95.638796 
L 331.598648 85.93085 
L 333.230078 77.301204 
L 334.861508 76.572121 
L 336.492937 56.781614 
L 338.124367 88.9555 
L 339.755797 72.56709 
L 341.387227 72.424477 
L 343.018657 89.855208 
L 344.650087 84.77703 
L 346.281517 84.981477 
L 347.912947 77.480938 
L 349.544376 71.645025 
L 351.175806 80.099797 
L 352.807236 82.13768 
L 354.438666 70.2965 
L 356.070096 84.882945 
L 357.701526 82.199463 
L 359.332956 77.694475 
L 360.964386 77.54159 
L 362.595815 70.336156 
L 364.227245 53.568 
L 365.858675 84.814479 
L 367.490105 83.518276 
L 369.121535 83.550908 
L 370.752965 87.221353 
L 372.384395 65.783028 
L 374.015825 62.112701 
L 375.647254 79.586898 
L 377.278684 80.94217 
L 378.910114 88.657992 
L 380.541544 87.104404 
L 382.172974 76.011029 
L 383.804404 71.733101 
L 385.435834 86.048202 
L 387.067264 60.12603 
L 388.698693 82.431472 
L 390.330123 75.004748 
L 391.961553 74.896813 
L 393.592983 87.156504 
L 395.224413 83.470965 
L 396.855843 82.018901 
L 398.487273 80.027327 
L 398.487273 80.027327 
" clip-path="url(#p4f01d37d33)" style="fill: none; stroke: #ff0000; stroke-width: 1.5; stroke-linecap: square"/>
   </g>
   <g id="patch_3">
    <path d="M 57.6 307.584 
L 57.6 41.472 
" style="fill: none; stroke: #000000; stroke-width: 0.8; stroke-linejoin: miter; stroke-linecap: square"/>
   </g>
   <g id="patch_4">
    <path d="M 414.72 307.584 
L 414.72 41.472 
" style="fill: none; stroke: #000000; stroke-width: 0.8; stroke-linejoin: miter; stroke-linecap: square"/>
   </g>
   <g id="patch_5">
    <path d="M 57.6 307.584 
L 414.72 307.584 
" style="fill: none; stroke: #000000; stroke-width: 0.8; stroke-linejoin: miter; stroke-linecap: square"/>
   </g>
   <g id="patch_6">
    <path d="M 57.6 41.472 
L 414.72 41.472 
" style="fill: none; stroke: #000000; stroke-width: 0.8; stroke-linejoin: miter; stroke-linecap: square"/>
   </g>
   <g id="text_13">
    <!-- Population's average and best fitness -->
    <g transform="translate(123.529687 35.472) scale(0.12 -0.12)">
     <defs>
      <path id="DejaVuSans-50" d="M 1259 4147 
L 1259 2394 
L 2053 2394 
Q 2494 2394 2734 2622 
Q 2975 2850 2975 3272 
Q 2975 3691 2734 3919 
Q 2494 4147 2053 4147 
L 1259 4147 
z
M 628 4666 
L 2053 4666 
Q 2838 4666 3239 4311 
Q 3641 3956 3641 3272 
Q 3641 2581 3239 2228 
Q 2838 1875 2053 1875 
L 1259 1875 
L 1259 0 
L 628 0 
L 628 4666 
z
" transform="scale(0.015625)"/>
      <path id="DejaVuSans-70" d="M 1159 525 
L 1159 -1331 
L 581 -1331 
L 581 3500 
L 1159 3500 
L 1159 2969 
Q 1341 3281 1617 3432 
Q 1894 3584 2278 3584 
Q 2916 3584 3314 3078 
Q 3713 2572 3713 1747 
Q 3713 922 3314 415 
Q 2916 -91 2278 -91 
Q 1894 -91 1617 61 
Q 1341 213 1159 525 
z
M 3116 1747 
Q 3116 2381 2855 2742 
Q 2594 3103 2138 3103 
Q 1681 3103 1420 2742 
Q 1159 2381 1159 1747 
Q 1159 1113 1420 752 
Q 1681 391 2138 391 
Q 2594 391 2855 752 
Q 3116 1113 3116 1747 
z
" transform="scale(0.015625)"/>
      <path id="DejaVuSans-75" d="M 544 1381 
L 544 3500 
L 1119 3500 
L 1119 1403 
Q 1119 906 1312 657 
Q 1506 409 1894 409 
Q 2359 409 2629 706 
Q 2900 1003 2900 1516 
L 2900 3500 
L 3475 3500 
L 3475 0 
L 2900 0 
L 2900 538 
Q 2691 219 2414 64 
Q 2138 -91 1772 -91 
Q 1169 -91 856 284 
Q 544 659 544 1381 
z
M 1991 3584 
L 1991 3584 
z
" transform="scale(0.015625)"/>
      <path id="DejaVuSans-6c" d="M 603 4863 
L 1178 4863 
L 1178 0 
L 603 0 
L 603 4863 
z
" transform="scale(0.015625)"/>
      <path id="DejaVuSans-27" d="M 1147 4666 
L 1147 2931 
L 616 2931 
L 616 4666 
L 1147 4666 
z
" transform="scale(0.015625)"/>
      <path id="DejaVuSans-20" transform="scale(0.015625)"/>
      <path id="DejaVuSans-76" d="M 191 3500 
L 800 3500 
L 1894 563 
L 2988 3500 
L 3597 3500 
L 2284 0 
L 1503 0 
L 191 3500 
z
" transform="scale(0.015625)"/>
      <path id="DejaVuSans-67" d="M 2906 1791 
Q 2906 2416 2648 2759 
Q 2391 3103 1925 3103 
Q 1463 3103 1205 2759 
Q 947 2416 947 1791 
Q 947 1169 1205 825 
Q 1463 481 1925 481 
Q 2391 481 2648 825 
Q 2906 1169 2906 1791 
z
M 3481 434 
Q 3481 -459 3084 -895 
Q 2688 -1331 1869 -1331 
Q 1566 -1331 1297 -1286 
Q 1028 -1241 775 -1147 
L 775 -588 
Q 1028 -725 1275 -790 
Q 1522 -856 1778 -856 
Q 2344 -856 2625 -561 
Q 2906 -266 2906 331 
L 2906 616 
Q 2728 306 2450 153 
Q 2172 0 1784 0 
Q 1141 0 747 490 
Q 353 981 353 1791 
Q 353 2603 747 3093 
Q 1141 3584 1784 3584 
Q 2172 3584 2450 3431 
Q 2728 3278 2906 2969 
L 2906 3500 
L 3481 3500 
L 3481 434 
z
" transform="scale(0.015625)"/>
      <path id="DejaVuSans-64" d="M 2906 2969 
L 2906 4863 
L 3481 4863 
L 3481 0 
L 2906 0 
L 2906 525 
Q 2725 213 2448 61 
Q 2172 -91 1784 -91 
Q 1150 -91 751 415 
Q 353 922 353 1747 
Q 353 2572 751 3078 
Q 1150 3584 1784 3584 
Q 2172 3584 2448 3432 
Q 2725 3281 2906 2969 
z
M 947 1747 
Q 947 1113 1208 752 
Q 1469 391 1925 391 
Q 2381 391 2643 752 
Q 2906 1113 2906 1747 
Q 2906 2381 2643 2742 
Q 2381 3103 1925 3103 
Q 1469 3103 1208 2742 
Q 947 2381 947 1747 
z
" transform="scale(0.015625)"/>
      <path id="DejaVuSans-62" d="M 3116 1747 
Q 3116 2381 2855 2742 
Q 2594 3103 2138 3103 
Q 1681 3103 1420 2742 
Q 1159 2381 1159 1747 
Q 1159 1113 1420 752 
Q 1681 391 2138 391 
Q 2594 391 2855 752 
Q 3116 1113 3116 1747 
z
M 1159 2969 
Q 1341 3281 1617 3432 
Q 1894 3584 2278 3584 
Q 2916 3584 3314 3078 
Q 3713 2572 3713 1747 
Q 3713 922 3314 415 
Q 2916 -91 2278 -91 
Q 1894 -91 1617 61 
Q 1341 213 1159 525 
L 1159 0 
L 581 0 
L 581 4863 
L 1159 4863 
L 1159 2969 
z
" transform="scale(0.015625)"/>
      <path id="DejaVuSans-66" d="M 2375 4863 
L 2375 4384 
L 1825 4384 
Q 1516 4384 1395 4259 
Q 1275 4134 1275 3809 
L 1275 3500 
L 2222 3500 
L 2222 3053 
L 1275 3053 
L 1275 0 
L 697 0 
L 697 3053 
L 147 3053 
L 147 3500 
L 697 3500 
L 697 3744 
Q 697 4328 969 4595 
Q 1241 4863 1831 4863 
L 2375 4863 
z
" transform="scale(0.015625)"/>
     </defs>
     <use xlink:href="#DejaVuSans-50"/>
     <use xlink:href="#DejaVuSans-6f" transform="translate(56.677734 0)"/>
     <use xlink:href="#DejaVuSans-70" transform="translate(117.859375 0)"/>
     <use xlink:href="#DejaVuSans-75" transform="translate(181.335938 0)"/>
     <use xlink:href="#DejaVuSans-6c" transform="translate(244.714844 0)"/>
     <use xlink:href="#DejaVuSans-61" transform="translate(272.498047 0)"/>
     <use xlink:href="#DejaVuSans-74" transform="translate(333.777344 0)"/>
     <use xlink:href="#DejaVuSans-69" transform="translate(372.986328 0)"/>
     <use xlink:href="#DejaVuSans-6f" transform="translate(400.769531 0)"/>
     <use xlink:href="#DejaVuSans-6e" transform="translate(461.951172 0)"/>
     <use xlink:href="#DejaVuSans-27" transform="translate(525.330078 0)"/>
     <use xlink:href="#DejaVuSans-73" transform="translate(552.820312 0)"/>
     <use xlink:href="#DejaVuSans-20" transform="translate(604.919922 0)"/>
     <use xlink:href="#DejaVuSans-61" transform="translate(636.707031 0)"/>
     <use xlink:href="#DejaVuSans-76" transform="translate(697.986328 0)"/>
     <use xlink:href="#DejaVuSans-65" transform="translate(757.166016 0)"/>
     <use xlink:href="#DejaVuSans-72" transform="translate(818.689453 0)"/>
     <use xlink:href="#DejaVuSans-61" transform="translate(859.802734 0)"/>
     <use xlink:href="#DejaVuSans-67" transform="translate(921.082031 0)"/>
     <use xlink:href="#DejaVuSans-65" transform="translate(984.558594 0)"/>
     <use xlink:href="#DejaVuSans-20" transform="translate(1046.082031 0)"/>
     <use xlink:href="#DejaVuSans-61" transform="translate(1077.869141 0)"/>
     <use xlink:href="#DejaVuSans-6e" transform="translate(1139.148438 0)"/>
     <use xlink:href="#DejaVuSans-64" transform="translate(1202.527344 0)"/>
     <use xlink:href="#DejaVuSans-20" transform="translate(1266.003906 0)"/>
     <use xlink:href="#DejaVuSans-62" transform="translate(1297.791016 0)"/>
     <use xlink:href="#DejaVuSans-65" transform="translate(1361.267578 0)"/>
     <use xlink:href="#DejaVuSans-73" transform="translate(1422.791016 0)"/>
     <use xlink:href="#DejaVuSans-74" transform="translate(1474.890625 0)"/>
     <use xlink:href="#DejaVuSans-20" transform="translate(1514.099609 0)"/>
     <use xlink:href="#DejaVuSans-66" transform="translate(1545.886719 0)"/>
     <use xlink:href="#DejaVuSans-69" transform="translate(1581.091797 0)"/>
     <use xlink:href="#DejaVuSans-74" transform="translate(1608.875 0)"/>
     <use xlink:href="#DejaVuSans-6e" transform="translate(1648.083984 0)"/>
     <use xlink:href="#DejaVuSans-65" transform="translate(1711.462891 0)"/>
     <use xlink:href="#DejaVuSans-73" transform="translate(1772.986328 0)"/>
     <use xlink:href="#DejaVuSans-73" transform="translate(1825.085938 0)"/>
    </g>
   </g>
   <g id="legend_1">
    <g id="patch_7">
     <path d="M 334.779375 302.584 
L 407.72 302.584 
Q 409.72 302.584 409.72 300.584 
L 409.72 257.549625 
Q 409.72 255.549625 407.72 255.549625 
L 334.779375 255.549625 
Q 332.779375 255.549625 332.779375 257.549625 
L 332.779375 300.584 
Q 332.779375 302.584 334.779375 302.584 
z
" style="fill: #ffffff; opacity: 0.8; stroke: #cccccc; stroke-linejoin: miter"/>
    </g>
    <g id="line2d_24">
     <path d="M 336.779375 263.648062 
L 346.779375 263.648062 
L 356.779375 263.648062 
" style="fill: none; stroke: #0000ff; stroke-width: 1.5; stroke-linecap: square"/>
    </g>
    <g id="text_14">
     <!-- average -->
     <g transform="translate(364.779375 267.148062) scale(0.1 -0.1)">
      <use xlink:href="#DejaVuSans-61"/>
      <use xlink:href="#DejaVuSans-76" transform="translate(61.279297 0)"/>
      <use xlink:href="#DejaVuSans-65" transform="translate(120.458984 0)"/>
      <use xlink:href="#DejaVuSans-72" transform="translate(181.982422 0)"/>
      <use xlink:href="#DejaVuSans-61" transform="translate(223.095703 0)"/>
      <use xlink:href="#DejaVuSans-67" transform="translate(284.375 0)"/>
      <use xlink:href="#DejaVuSans-65" transform="translate(347.851562 0)"/>
     </g>
    </g>
    <g id="line2d_25">
     <path d="M 336.779375 278.326188 
L 346.779375 278.326188 
L 356.779375 278.326188 
" style="fill: none; stroke-dasharray: 9.6,2.4,1.5,2.4; stroke-dashoffset: 0; stroke: #008000; stroke-width: 1.5"/>
    </g>
    <g id="text_15">
     <!-- +1 sd -->
     <g transform="translate(364.779375 281.826188) scale(0.1 -0.1)">
      <defs>
       <path id="DejaVuSans-2b" d="M 2944 4013 
L 2944 2272 
L 4684 2272 
L 4684 1741 
L 2944 1741 
L 2944 0 
L 2419 0 
L 2419 1741 
L 678 1741 
L 678 2272 
L 2419 2272 
L 2419 4013 
L 2944 4013 
z
" transform="scale(0.015625)"/>
      </defs>
      <use xlink:href="#DejaVuSans-2b"/>
      <use xlink:href="#DejaVuSans-31" transform="translate(83.789062 0)"/>
      <use xlink:href="#DejaVuSans-20" transform="translate(147.412109 0)"/>
      <use xlink:href="#DejaVuSans-73" transform="translate(179.199219 0)"/>
      <use xlink:href="#DejaVuSans-64" transform="translate(231.298828 0)"/>
     </g>
    </g>
    <g id="line2d_26">
     <path d="M 336.779375 293.004312 
L 346.779375 293.004312 
L 356.779375 293.004312 
" style="fill: none; stroke: #ff0000; stroke-width: 1.5; stroke-linecap: square"/>
    </g>
    <g id="text_16">
     <!-- best -->
     <g transform="translate(364.779375 296.504312) scale(0.1 -0.1)">
      <use xlink:href="#DejaVuSans-62"/>
      <use xlink:href="#DejaVuSans-65" transform="translate(63.476562 0)"/>
      <use xlink:href="#DejaVuSans-73" transform="translate(125 0)"/>
      <use xlink:href="#DejaVuSans-74" transform="translate(177.099609 0)"/>
     </g>
    </g>
   </g>
  </g>
 </g>
 <defs>
  <clipPath id="p4f01d37d33">
   <rect x="57.6" y="41.472" width="357.12" height="266.112"/>
  </clipPath>
 </defs>
</svg>
