<?xml version="1.0" encoding="utf-8" standalone="no"?>
<!DOCTYPE svg PUBLIC "-//W3C//DTD SVG 1.1//EN"
  "http://www.w3.org/Graphics/SVG/1.1/DTD/svg11.dtd">
<svg xmlns:xlink="http://www.w3.org/1999/xlink" width="460.8pt" height="345.6pt" viewBox="0 0 460.8 345.6" xmlns="http://www.w3.org/2000/svg" version="1.1">
 <metadata>
  <rdf:RDF xmlns:dc="http://purl.org/dc/elements/1.1/" xmlns:cc="http://creativecommons.org/ns#" xmlns:rdf="http://www.w3.org/1999/02/22-rdf-syntax-ns#">
   <cc:Work>
    <dc:type rdf:resource="http://purl.org/dc/dcmitype/StillImage"/>
    <dc:date>2026-04-23T23:57:07.618620</dc:date>
    <dc:format>image/svg+xml</dc:format>
    <dc:creator>
     <cc:Agent>
      <dc:title>Matplotlib v3.10.8, https://matplotlib.org/</dc:title>
     </cc:Agent>
    </dc:creator>
   </cc:Work>
  </rdf:RDF>
 </metadata>
 <defs>
  <style type="text/css">*{stroke-linejoin: round; stroke-linecap: butt}</style>
 </defs>
 <g id="figure_1">
  <g id="patch_1">
   <path d="M 0 345.6 
L 460.8 345.6 
L 460.8 0 
L 0 0 
z
" style="fill: #ffffff"/>
  </g>
  <g id="axes_1">
   <g id="patch_2">
    <path d="M 57.6 307.584 
L 414.72 307.584 
L 414.72 41.472 
L 57.6 41.472 
z
" style="fill: #ffffff"/>
   </g>
   <g id="matplotlib.axis_1">
    <g id="xtick_1">
     <g id="line2d_1">
      <path d="M 73.832727 307.584 
L 73.832727 41.472 
" clip-path="url(#p644fae97e0)" style="fill: none; stroke: #b0b0b0; stroke-width: 0.8; stroke-linecap: square"/>
     </g>
     <g id="line2d_2">
      <defs>
       <path id="m76ef94ac7d" d="M 0 0 
L 0 3.5 
" style="stroke: #000000; stroke-width: 0.8"/>
      </defs>
      <g>
       <use xlink:href="#m76ef94ac7d" x="73.832727" y="307.584" style="stroke: #000000; stroke-width: 0.8"/>
      </g>
     </g>
     <g id="text_1">
      <!-- 0 -->
      <g transform="translate(70.651477 322.182437) scale(0.1 -0.1)">
       <defs>
        <path id="DejaVuSans-30" d="M 2034 4250 
Q 1547 4250 1301 3770 
Q 1056 3291 1056 2328 
Q 1056 1369 1301 889 
Q 1547 409 2034 409 
Q 2525 409 2770 889 
Q 3016 1369 3016 2328 
Q 3016 3291 2770 3770 
Q 2525 4250 2034 4250 
z
M 2034 4750 
Q 2819 4750 3233 4129 
Q 3647 3509 3647 2328 
Q 3647 1150 3233 529 
Q 2819 -91 2034 -91 
Q 1250 -91 836 529 
Q 422 1150 422 2328 
Q 422 3509 836 4129 
Q 1250 4750 2034 4750 
z
" transform="scale(0.015625)"/>
       </defs>
       <use xlink:href="#DejaVuSans-30"/>
      </g>
     </g>
    </g>
    <g id="xtick_2">
     <g id="line2d_3">
      <path d="M 114.618474 307.584 
L 114.618474 41.472 
" clip-path="url(#p644fae97e0)" style="fill: none; stroke: #b0b0b0; stroke-width: 0.8; stroke-linecap: square"/>
     </g>
     <g id="line2d_4">
      <g>
       <use xlink:href="#m76ef94ac7d" x="114.618474" y="307.584" style="stroke: #000000; stroke-width: 0.8"/>
      </g>
     </g>
     <g id="text_2">
      <!-- 25 -->
      <g transform="translate(108.255974 322.182437) scale(0.1 -0.1)">
       <defs>
        <path id="DejaVuSans-32" d="M 1228 531 
L 3431 531 
L 3431 0 
L 469 0 
L 469 531 
Q 828 903 1448 1529 
Q 2069 2156 2228 2338 
Q 2531 2678 2651 2914 
Q 2772 3150 2772 3378 
Q 2772 3750 2511 3984 
Q 2250 4219 1831 4219 
Q 1534 4219 1204 4116 
Q 875 4013 500 3803 
L 500 4441 
Q 881 4594 1212 4672 
Q 1544 4750 1819 4750 
Q 2544 4750 2975 4387 
Q 3406 4025 3406 3419 
Q 3406 3131 3298 2873 
Q 3191 2616 2906 2266 
Q 2828 2175 2409 1742 
Q 1991 1309 1228 531 
z
" transform="scale(0.015625)"/>
        <path id="DejaVuSans-35" d="M 691 4666 
L 3169 4666 
L 3169 4134 
L 1269 4134 
L 1269 2991 
Q 1406 3038 1543 3061 
Q 1681 3084 1819 3084 
Q 2600 3084 3056 2656 
Q 3513 2228 3513 1497 
Q 3513 744 3044 326 
Q 2575 -91 1722 -91 
Q 1428 -91 1123 -41 
Q 819 9 494 109 
L 494 744 
Q 775 591 1075 516 
Q 1375 441 1709 441 
Q 2250 441 2565 725 
Q 2881 1009 2881 1497 
Q 2881 1984 2565 2268 
Q 2250 2553 1709 2553 
Q 1456 2553 1204 2497 
Q 953 2441 691 2322 
L 691 4666 
z
" transform="scale(0.015625)"/>
       </defs>
       <use xlink:href="#DejaVuSans-32"/>
       <use xlink:href="#DejaVuSans-35" transform="translate(63.623047 0)"/>
      </g>
     </g>
    </g>
    <g id="xtick_3">
     <g id="line2d_5">
      <path d="M 155.404221 307.584 
L 155.404221 41.472 
" clip-path="url(#p644fae97e0)" style="fill: none; stroke: #b0b0b0; stroke-width: 0.8; stroke-linecap: square"/>
     </g>
     <g id="line2d_6">
      <g>
       <use xlink:href="#m76ef94ac7d" x="155.404221" y="307.584" style="stroke: #000000; stroke-width: 0.8"/>
      </g>
     </g>
     <g id="text_3">
      <!-- 50 -->
      <g transform="translate(149.041721 322.182437) scale(0.1 -0.1)">
       <use xlink:href="#DejaVuSans-35"/>
       <use xlink:href="#DejaVuSans-30" transform="translate(63.623047 0)"/>
      </g>
     </g>
    </g>
    <g id="xtick_4">
     <g id="line2d_7">
      <path d="M 196.189968 307.584 
L 196.189968 41.472 
" clip-path="url(#p644fae97e0)" style="fill: none; stroke: #b0b0b0; stroke-width: 0.8; stroke-linecap: square"/>
     </g>
     <g id="line2d_8">
      <g>
       <use xlink:href="#m76ef94ac7d" x="196.189968" y="307.584" style="stroke: #000000; stroke-width: 0.8"/>
      </g>
     </g>
     <g id="text_4">
      <!-- 75 -->
      <g transform="translate(189.827468 322.182437) scale(0.1 -0.1)">
       <defs>
        <path id="DejaVuSans-37" d="M 525 4666 
L 3525 4666 
L 3525 4397 
L 1831 0 
L 1172 0 
L 2766 4134 
L 525 4134 
L 525 4666 
z
" transform="scale(0.015625)"/>
       </defs>
       <use xlink:href="#DejaVuSans-37"/>
       <use xlink:href="#DejaVuSans-35" transform="translate(63.623047 0)"/>
      </g>
     </g>
    </g>
    <g id="xtick_5">
     <g id="line2d_9">
      <path d="M 236.975715 307.584 
L 236.975715 41.472 
" clip-path="url(#p644fae97e0)" style="fill: none; stroke: #b0b0b0; stroke-width: 0.8; stroke-linecap: square"/>
     </g>
     <g id="line2d_10">
      <g>
       <use xlink:href="#m76ef94ac7d" x="236.975715" y="307.584" style="stroke: #000000; stroke-width: 0.8"/>
      </g>
     </g>
     <g id="text_5">
      <!-- 100 -->
      <g transform="translate(227.431965 322.182437) scale(0.1 -0.1)">
       <defs>
        <path id="DejaVuSans-31" d="M 794 531 
L 1825 531 
L 1825 4091 
L 703 3866 
L 703 4441 
L 1819 4666 
L 2450 4666 
L 2450 531 
L 3481 531 
L 3481 0 
L 794 0 
L 794 531 
z
" transform="scale(0.015625)"/>
       </defs>
       <use xlink:href="#DejaVuSans-31"/>
       <use xlink:href="#DejaVuSans-30" transform="translate(63.623047 0)"/>
       <use xlink:href="#DejaVuSans-30" transform="translate(127.246094 0)"/>
      </g>
     </g>
    </g>
    <g id="xtick_6">
     <g id="line2d_11">
      <path d="M 277.761462 307.584 
L 277.761462 41.472 
" clip-path="url(#p644fae97e0)" style="fill: none; stroke: #b0b0b0; stroke-width: 0.8; stroke-linecap: square"/>
     </g>
     <g id="line2d_12">
      <g>
       <use xlink:href="#m76ef94ac7d" x="277.761462" y="307.584" style="stroke: #000000; stroke-width: 0.8"/>
      </g>
     </g>
     <g id="text_6">
      <!-- 125 -->
      <g transform="translate(268.217712 322.182437) scale(0.1 -0.1)">
       <use xlink:href="#DejaVuSans-31"/>
       <use xlink:href="#DejaVuSans-32" transform="translate(63.623047 0)"/>
       <use xlink:href="#DejaVuSans-35" transform="translate(127.246094 0)"/>
      </g>
     </g>
    </g>
    <g id="xtick_7">
     <g id="line2d_13">
      <path d="M 318.547209 307.584 
L 318.547209 41.472 
" clip-path="url(#p644fae97e0)" style="fill: none; stroke: #b0b0b0; stroke-width: 0.8; stroke-linecap: square"/>
     </g>
     <g id="line2d_14">
      <g>
       <use xlink:href="#m76ef94ac7d" x="318.547209" y="307.584" style="stroke: #000000; stroke-width: 0.8"/>
      </g>
     </g>
     <g id="text_7">
      <!-- 150 -->
      <g transform="translate(309.003459 322.182437) scale(0.1 -0.1)">
       <use xlink:href="#DejaVuSans-31"/>
       <use xlink:href="#DejaVuSans-35" transform="translate(63.623047 0)"/>
       <use xlink:href="#DejaVuSans-30" transform="translate(127.246094 0)"/>
      </g>
     </g>
    </g>
    <g id="xtick_8">
     <g id="line2d_15">
      <path d="M 359.332956 307.584 
L 359.332956 41.472 
" clip-path="url(#p644fae97e0)" style="fill: none; stroke: #b0b0b0; stroke-width: 0.8; stroke-linecap: square"/>
     </g>
     <g id="line2d_16">
      <g>
       <use xlink:href="#m76ef94ac7d" x="359.332956" y="307.584" style="stroke: #000000; stroke-width: 0.8"/>
      </g>
     </g>
     <g id="text_8">
      <!-- 175 -->
      <g transform="translate(349.789206 322.182437) scale(0.1 -0.1)">
       <use xlink:href="#DejaVuSans-31"/>
       <use xlink:href="#DejaVuSans-37" transform="translate(63.623047 0)"/>
       <use xlink:href="#DejaVuSans-35" transform="translate(127.246094 0)"/>
      </g>
     </g>
    </g>
    <g id="xtick_9">
     <g id="line2d_17">
      <path d="M 400.118703 307.584 
L 400.118703 41.472 
" clip-path="url(#p644fae97e0)" style="fill: none; stroke: #b0b0b0; stroke-width: 0.8; stroke-linecap: square"/>
     </g>
     <g id="line2d_18">
      <g>
       <use xlink:href="#m76ef94ac7d" x="400.118703" y="307.584" style="stroke: #000000; stroke-width: 0.8"/>
      </g>
     </g>
     <g id="text_9">
      <!-- 200 -->
      <g transform="translate(390.574953 322.182437) scale(0.1 -0.1)">
       <use xlink:href="#DejaVuSans-32"/>
       <use xlink:href="#DejaVuSans-30" transform="translate(63.623047 0)"/>
       <use xlink:href="#DejaVuSans-30" transform="translate(127.246094 0)"/>
      </g>
     </g>
    </g>
    <g id="text_10">
     <!-- Generations -->
     <g transform="translate(205.662344 335.860562) scale(0.1 -0.1)">
      <defs>
       <path id="DejaVuSans-47" d="M 3809 666 
L 3809 1919 
L 2778 1919 
L 2778 2438 
L 4434 2438 
L 4434 434 
Q 4069 175 3628 42 
Q 3188 -91 2688 -91 
Q 1594 -91 976 548 
Q 359 1188 359 2328 
Q 359 3472 976 4111 
Q 1594 4750 2688 4750 
Q 3144 4750 3555 4637 
Q 3966 4525 4313 4306 
L 4313 3634 
Q 3963 3931 3569 4081 
Q 3175 4231 2741 4231 
Q 1884 4231 1454 3753 
Q 1025 3275 1025 2328 
Q 1025 1384 1454 906 
Q 1884 428 2741 428 
Q 3075 428 3337 486 
Q 3600 544 3809 666 
z
" transform="scale(0.015625)"/>
       <path id="DejaVuSans-65" d="M 3597 1894 
L 3597 1613 
L 953 1613 
Q 991 1019 1311 708 
Q 1631 397 2203 397 
Q 2534 397 2845 478 
Q 3156 559 3463 722 
L 3463 178 
Q 3153 47 2828 -22 
Q 2503 -91 2169 -91 
Q 1331 -91 842 396 
Q 353 884 353 1716 
Q 353 2575 817 3079 
Q 1281 3584 2069 3584 
Q 2775 3584 3186 3129 
Q 3597 2675 3597 1894 
z
M 3022 2063 
Q 3016 2534 2758 2815 
Q 2500 3097 2075 3097 
Q 1594 3097 1305 2825 
Q 1016 2553 972 2059 
L 3022 2063 
z
" transform="scale(0.015625)"/>
       <path id="DejaVuSans-6e" d="M 3513 2113 
L 3513 0 
L 2938 0 
L 2938 2094 
Q 2938 2591 2744 2837 
Q 2550 3084 2163 3084 
Q 1697 3084 1428 2787 
Q 1159 2491 1159 1978 
L 1159 0 
L 581 0 
L 581 3500 
L 1159 3500 
L 1159 2956 
Q 1366 3272 1645 3428 
Q 1925 3584 2291 3584 
Q 2894 3584 3203 3211 
Q 3513 2838 3513 2113 
z
" transform="scale(0.015625)"/>
       <path id="DejaVuSans-72" d="M 2631 2963 
Q 2534 3019 2420 3045 
Q 2306 3072 2169 3072 
Q 1681 3072 1420 2755 
Q 1159 2438 1159 1844 
L 1159 0 
L 581 0 
L 581 3500 
L 1159 3500 
L 1159 2956 
Q 1341 3275 1631 3429 
Q 1922 3584 2338 3584 
Q 2397 3584 2469 3576 
Q 2541 3569 2628 3553 
L 2631 2963 
z
" transform="scale(0.015625)"/>
       <path id="DejaVuSans-61" d="M 2194 1759 
Q 1497 1759 1228 1600 
Q 959 1441 959 1056 
Q 959 750 1161 570 
Q 1363 391 1709 391 
Q 2188 391 2477 730 
Q 2766 1069 2766 1631 
L 2766 1759 
L 2194 1759 
z
M 3341 1997 
L 3341 0 
L 2766 0 
L 2766 531 
Q 2569 213 2275 61 
Q 1981 -91 1556 -91 
Q 1019 -91 701 211 
Q 384 513 384 1019 
Q 384 1609 779 1909 
Q 1175 2209 1959 2209 
L 2766 2209 
L 2766 2266 
Q 2766 2663 2505 2880 
Q 2244 3097 1772 3097 
Q 1472 3097 1187 3025 
Q 903 2953 641 2809 
L 641 3341 
Q 956 3463 1253 3523 
Q 1550 3584 1831 3584 
Q 2591 3584 2966 3190 
Q 3341 2797 3341 1997 
z
" transform="scale(0.015625)"/>
       <path id="DejaVuSans-74" d="M 1172 4494 
L 1172 3500 
L 2356 3500 
L 2356 3053 
L 1172 3053 
L 1172 1153 
Q 1172 725 1289 603 
Q 1406 481 1766 481 
L 2356 481 
L 2356 0 
L 1766 0 
Q 1100 0 847 248 
Q 594 497 594 1153 
L 594 3053 
L 172 3053 
L 172 3500 
L 594 3500 
L 594 4494 
L 1172 4494 
z
" transform="scale(0.015625)"/>
       <path id="DejaVuSans-69" d="M 603 3500 
L 1178 3500 
L 1178 0 
L 603 0 
L 603 3500 
z
M 603 4863 
L 1178 4863 
L 1178 4134 
L 603 4134 
L 603 4863 
z
" transform="scale(0.015625)"/>
       <path id="DejaVuSans-6f" d="M 1959 3097 
Q 1497 3097 1228 2736 
Q 959 2375 959 1747 
Q 959 1119 1226 758 
Q 1494 397 1959 397 
Q 2419 397 2687 759 
Q 2956 1122 2956 1747 
Q 2956 2369 2687 2733 
Q 2419 3097 1959 3097 
z
M 1959 3584 
Q 2709 3584 3137 3096 
Q 3566 2609 3566 1747 
Q 3566 888 3137 398 
Q 2709 -91 1959 -91 
Q 1206 -91 779 398 
Q 353 888 353 1747 
Q 353 2609 779 3096 
Q 1206 3584 1959 3584 
z
" transform="scale(0.015625)"/>
       <path id="DejaVuSans-73" d="M 2834 3397 
L 2834 2853 
Q 2591 2978 2328 3040 
Q 2066 3103 1784 3103 
Q 1356 3103 1142 2972 
Q 928 2841 928 2578 
Q 928 2378 1081 2264 
Q 1234 2150 1697 2047 
L 1894 2003 
Q 2506 1872 2764 1633 
Q 3022 1394 3022 966 
Q 3022 478 2636 193 
Q 2250 -91 1575 -91 
Q 1294 -91 989 -36 
Q 684 19 347 128 
L 347 722 
Q 666 556 975 473 
Q 1284 391 1588 391 
Q 1994 391 2212 530 
Q 2431 669 2431 922 
Q 2431 1156 2273 1281 
Q 2116 1406 1581 1522 
L 1381 1569 
Q 847 1681 609 1914 
Q 372 2147 372 2553 
Q 372 3047 722 3315 
Q 1072 3584 1716 3584 
Q 2034 3584 2315 3537 
Q 2597 3491 2834 3397 
z
" transform="scale(0.015625)"/>
      </defs>
      <use xlink:href="#DejaVuSans-47"/>
      <use xlink:href="#DejaVuSans-65" transform="translate(77.490234 0)"/>
      <use xlink:href="#DejaVuSans-6e" transform="translate(139.013672 0)"/>
      <use xlink:href="#DejaVuSans-65" transform="translate(202.392578 0)"/>
      <use xlink:href="#DejaVuSans-72" transform="translate(263.916016 0)"/>
      <use xlink:href="#DejaVuSans-61" transform="translate(305.029297 0)"/>
      <use xlink:href="#DejaVuSans-74" transform="translate(366.308594 0)"/>
      <use xlink:href="#DejaVuSans-69" transform="translate(405.517578 0)"/>
      <use xlink:href="#DejaVuSans-6f" transform="translate(433.300781 0)"/>
      <use xlink:href="#DejaVuSans-6e" transform="translate(494.482422 0)"/>
      <use xlink:href="#DejaVuSans-73" transform="translate(557.861328 0)"/>
     </g>
    </g>
   </g>
   <g id="matplotlib.axis_2">
    <g id="ytick_1">
     <g id="line2d_19">
      <path d="M 57.6 115.109686 
L 414.72 115.109686 
" clip-path="url(#p644fae97e0)" style="fill: none; stroke: #b0b0b0; stroke-width: 0.8; stroke-linecap: square"/>
     </g>
     <g id="line2d_20">
      <defs>
       <path id="m894b06b3ad" d="M 0 0 
L -3.5 0 
" style="stroke: #000000; stroke-width: 0.8"/>
      </defs>
      <g>
       <use xlink:href="#m894b06b3ad" x="57.6" y="115.109686" style="stroke: #000000; stroke-width: 0.8"/>
      </g>
     </g>
     <g id="text_11">
      <!-- $\mathdefault{-10^{2}}$ -->
      <g transform="translate(24.6 118.908904) scale(0.1 -0.1)">
       <defs>
        <path id="DejaVuSans-2212" d="M 678 2272 
L 4684 2272 
L 4684 1741 
L 678 1741 
L 678 2272 
z
" transform="scale(0.015625)"/>
       </defs>
       <use xlink:href="#DejaVuSans-2212" transform="translate(0 0.765625)"/>
       <use xlink:href="#DejaVuSans-31" transform="translate(83.789062 0.765625)"/>
       <use xlink:href="#DejaVuSans-30" transform="translate(147.412109 0.765625)"/>
       <use xlink:href="#DejaVuSans-32" transform="translate(211.992188 39.046875) scale(0.7)"/>
      </g>
     </g>
    </g>
    <g id="text_12">
     <!-- Fitness -->
     <g transform="translate(18.520312 191.845187) rotate(-90) scale(0.1 -0.1)">
      <defs>
       <path id="DejaVuSans-46" d="M 628 4666 
L 3309 4666 
L 3309 4134 
L 1259 4134 
L 1259 2759 
L 3109 2759 
L 3109 2228 
L 1259 2228 
L 1259 0 
L 628 0 
L 628 4666 
z
" transform="scale(0.015625)"/>
      </defs>
      <use xlink:href="#DejaVuSans-46"/>
      <use xlink:href="#DejaVuSans-69" transform="translate(50.269531 0)"/>
      <use xlink:href="#DejaVuSans-74" transform="translate(78.052734 0)"/>
      <use xlink:href="#DejaVuSans-6e" transform="translate(117.261719 0)"/>
      <use xlink:href="#DejaVuSans-65" transform="translate(180.640625 0)"/>
      <use xlink:href="#DejaVuSans-73" transform="translate(242.164062 0)"/>
      <use xlink:href="#DejaVuSans-73" transform="translate(294.263672 0)"/>
     </g>
    </g>
   </g>
   <g id="line2d_21">
    <path d="M 73.832727 295.488 
L 75.464157 285.956626 
L 77.095587 254.443492 
L 78.727017 258.007685 
L 80.358447 238.471088 
L 81.989877 239.828542 
L 83.621307 244.718247 
L 85.252736 223.690055 
L 86.884166 226.683196 
L 88.515596 230.009487 
L 90.147026 224.866454 
L 91.778456 218.755106 
L 93.409886 217.388001 
L 95.041316 212.060603 
L 96.672746 195.941923 
L 98.304175 205.906496 
L 99.935605 205.137702 
L 101.567035 197.235278 
L 103.198465 188.719706 
L 104.829895 194.487847 
L 106.461325 191.577458 
L 108.092755 194.127468 
L 109.724185 183.811225 
L 111.355614 192.421878 
L 112.987044 185.117779 
L 114.618474 188.705953 
L 116.249904 182.458336 
L 117.881334 178.948158 
L 119.512764 193.814502 
L 121.144194 187.044876 
L 122.775624 203.716415 
L 126.038483 196.901489 
L 127.669913 189.25097 
L 129.301343 179.274465 
L 130.932773 189.47075 
L 132.564203 187.40284 
L 134.195633 184.18459 
L 135.827063 177.629501 
L 137.458492 183.950244 
L 139.089922 188.208839 
L 140.721352 184.280573 
L 142.352782 185.062761 
L 143.984212 188.517602 
L 145.615642 192.806713 
L 147.247072 180.591532 
L 148.878502 188.708644 
L 150.509931 183.034374 
L 152.141361 188.243998 
L 153.772791 174.518283 
L 155.404221 175.664549 
L 157.035651 185.972356 
L 158.667081 185.106488 
L 160.298511 181.818959 
L 161.929941 181.529063 
L 163.56137 195.358591 
L 165.1928 182.972409 
L 166.82423 178.42738 
L 168.45566 177.356475 
L 170.08709 186.921141 
L 171.71852 178.432422 
L 173.34995 175.873846 
L 174.98138 185.550264 
L 176.61281 183.249089 
L 178.244239 182.63426 
L 179.875669 199.326709 
L 181.507099 187.178947 
L 183.138529 184.259349 
L 184.769959 180.852472 
L 186.401389 182.801865 
L 188.032819 190.928351 
L 189.664249 188.66305 
L 191.295678 184.625755 
L 192.927108 189.892626 
L 194.558538 181.71527 
L 196.189968 188.252665 
L 197.821398 183.159067 
L 199.452828 180.349625 
L 201.084258 185.944834 
L 202.715688 176.867258 
L 204.347117 180.149551 
L 205.978547 178.649697 
L 207.609977 184.351894 
L 209.241407 177.321389 
L 210.872837 181.215902 
L 212.504267 176.369398 
L 214.135697 177.678038 
L 215.767127 177.266991 
L 217.398556 181.616267 
L 219.029986 176.712958 
L 220.661416 179.425105 
L 222.292846 173.941988 
L 223.924276 190.547264 
L 225.555706 172.988078 
L 227.187136 171.094366 
L 228.818566 184.203953 
L 230.449995 187.325449 
L 232.081425 170.707029 
L 233.712855 177.548653 
L 235.344285 172.294851 
L 236.975715 179.969057 
L 238.607145 175.078437 
L 240.238575 176.697503 
L 241.870005 174.305087 
L 243.501434 185.51682 
L 245.132864 169.802274 
L 246.764294 176.718369 
L 248.395724 174.2339 
L 250.027154 178.158116 
L 251.658584 169.673037 
L 253.290014 179.493297 
L 254.921444 167.335251 
L 256.552873 171.77072 
L 258.184303 173.2165 
L 259.815733 173.95554 
L 261.447163 170.575809 
L 263.078593 174.25014 
L 264.710023 166.725381 
L 266.341453 171.593098 
L 267.972883 173.534599 
L 269.604312 169.260464 
L 271.235742 175.909878 
L 272.867172 168.422006 
L 274.498602 175.670041 
L 276.130032 170.990831 
L 277.761462 184.12088 
L 279.392892 170.062212 
L 281.024322 171.746141 
L 282.655751 171.722453 
L 284.287181 179.295682 
L 285.918611 167.764179 
L 287.550041 172.132929 
L 289.181471 181.4796 
L 290.812901 175.220395 
L 292.444331 179.266989 
L 294.075761 173.016775 
L 295.70719 174.392766 
L 297.33862 177.515414 
L 298.97005 175.612659 
L 300.60148 170.732504 
L 302.23291 179.239634 
L 303.86434 166.751827 
L 305.49577 169.707839 
L 307.1272 176.235201 
L 308.75863 177.705346 
L 310.390059 169.01046 
L 312.021489 176.297745 
L 313.652919 171.750788 
L 315.284349 168.214728 
L 316.915779 173.168251 
L 318.547209 168.255792 
L 320.178639 174.056656 
L 321.810069 170.068985 
L 323.441498 172.814588 
L 325.072928 176.129331 
L 326.704358 175.118513 
L 328.335788 169.978879 
L 329.967218 169.134313 
L 331.598648 177.340412 
L 333.230078 165.656465 
L 334.861508 166.301597 
L 336.492937 168.326351 
L 338.124367 173.269406 
L 339.755797 172.632615 
L 341.387227 167.01466 
L 343.018657 174.971314 
L 344.650087 165.107777 
L 346.281517 168.481929 
L 347.912947 170.419911 
L 349.544376 167.954856 
L 351.175806 178.587767 
L 352.807236 172.216597 
L 354.438666 166.581808 
L 356.070096 171.531741 
L 357.701526 162.441881 
L 359.332956 167.266719 
L 360.964386 168.327874 
L 362.595815 170.314002 
L 364.227245 168.888029 
L 365.858675 174.59551 
L 367.490105 166.442571 
L 369.121535 171.84089 
L 370.752965 165.578081 
L 372.384395 167.694678 
L 374.015825 169.034003 
L 375.647254 164.518311 
L 377.278684 169.938187 
L 378.910114 169.384637 
L 380.541544 168.507914 
L 382.172974 167.032781 
L 383.804404 166.356656 
L 385.435834 166.933551 
L 387.067264 170.816874 
L 388.698693 170.496489 
L 390.330123 166.532035 
L 391.961553 165.706872 
L 393.592983 170.816787 
L 395.224413 173.052203 
L 396.855843 173.564937 
L 398.487273 169.319717 
L 398.487273 169.319717 
" clip-path="url(#p644fae97e0)" style="fill: none; stroke: #0000ff; stroke-width: 1.5; stroke-linecap: square"/>
   </g>
   <g id="line2d_22">
    <path d="M 73.832727 253.070058 
L 75.464157 218.929475 
L 77.095587 196.317327 
L 78.727017 202.969999 
L 80.358447 178.001506 
L 81.989877 178.126841 
L 83.621307 184.582409 
L 85.252736 140.479504 
L 86.884166 161.842723 
L 88.515596 165.478285 
L 91.778456 149.355909 
L 93.409886 166.923522 
L 95.041316 125.762822 
L 96.672746 112.662817 
L 98.304175 131.826302 
L 99.935605 113.107674 
L 101.567035 117.936665 
L 103.198465 113.155563 
L 104.829895 128.609522 
L 106.461325 98.411878 
L 108.092755 122.395005 
L 109.724185 105.975172 
L 111.355614 115.042266 
L 112.987044 92.659741 
L 114.618474 112.013967 
L 116.249904 98.956734 
L 117.881334 113.0753 
L 119.512764 71.38337 
L 121.144194 101.524289 
L 122.775624 62.233488 
L 124.407053 84.225593 
L 126.038483 95.259357 
L 127.669913 91.968092 
L 129.301343 96.092086 
L 130.932773 76.011471 
L 132.564203 101.930882 
L 134.195633 95.951322 
L 135.827063 91.334701 
L 137.458492 100.821474 
L 139.089922 89.213471 
L 140.721352 79.280831 
L 142.352782 111.101005 
L 143.984212 91.484013 
L 145.615642 64.659265 
L 147.247072 115.573456 
L 148.878502 103.135544 
L 150.509931 105.372953 
L 152.141361 84.249849 
L 153.772791 113.908091 
L 155.404221 129.725236 
L 157.035651 122.554319 
L 158.667081 125.213943 
L 160.298511 104.799482 
L 161.929941 126.178922 
L 163.56137 108.914145 
L 165.1928 118.927629 
L 166.82423 135.884492 
L 168.45566 125.590273 
L 170.08709 110.281921 
L 171.71852 122.895677 
L 173.34995 119.524135 
L 174.98138 133.322943 
L 178.244239 131.5811 
L 179.875669 96.221983 
L 181.507099 120.904402 
L 183.138529 134.094367 
L 184.769959 107.750143 
L 186.401389 118.582076 
L 188.032819 138.329151 
L 189.664249 89.232068 
L 191.295678 114.45817 
L 192.927108 102.496006 
L 194.558538 111.442665 
L 196.189968 95.270486 
L 197.821398 105.232106 
L 199.452828 132.335062 
L 201.084258 112.076172 
L 202.715688 121.985236 
L 204.347117 121.550334 
L 205.978547 116.860352 
L 207.609977 107.080935 
L 209.241407 104.955372 
L 212.504267 128.116644 
L 214.135697 125.7482 
L 215.767127 141.637286 
L 217.398556 106.342533 
L 219.029986 115.917498 
L 220.661416 119.154886 
L 222.292846 121.620845 
L 223.924276 102.352717 
L 225.555706 101.934781 
L 227.187136 107.104771 
L 228.818566 95.924821 
L 230.449995 74.94284 
L 232.081425 129.155022 
L 233.712855 84.924374 
L 235.344285 136.099138 
L 236.975715 113.790704 
L 238.607145 122.771854 
L 240.238575 117.86638 
L 241.870005 135.460941 
L 243.501434 102.827563 
L 245.132864 119.971876 
L 246.764294 123.696832 
L 248.395724 118.644174 
L 250.027154 108.357915 
L 251.658584 136.109017 
L 253.290014 117.258127 
L 254.921444 129.353853 
L 256.552873 122.624601 
L 258.184303 120.956342 
L 259.815733 119.598713 
L 261.447163 141.125664 
L 263.078593 128.775284 
L 264.710023 132.539197 
L 266.341453 119.492824 
L 267.972883 134.226804 
L 269.604312 132.769286 
L 271.235742 113.904039 
L 272.867172 137.23666 
L 274.498602 121.849676 
L 276.130032 126.824448 
L 277.761462 110.540533 
L 281.024322 127.443096 
L 282.655751 136.170187 
L 284.287181 115.213093 
L 285.918611 134.110532 
L 287.550041 139.199139 
L 289.181471 116.426112 
L 290.812901 115.702683 
L 292.444331 127.72303 
L 294.075761 114.361542 
L 295.70719 114.893546 
L 297.33862 101.693495 
L 300.60148 121.445622 
L 302.23291 109.448968 
L 303.86434 131.286911 
L 305.49577 137.705976 
L 307.1272 123.374478 
L 308.75863 111.619441 
L 310.390059 120.747899 
L 312.021489 85.855273 
L 313.652919 120.3187 
L 315.284349 131.823738 
L 318.547209 127.538425 
L 320.178639 112.29453 
L 321.810069 121.572177 
L 323.441498 124.889044 
L 325.072928 106.905808 
L 326.704358 115.947224 
L 328.335788 124.134158 
L 329.967218 133.462869 
L 331.598648 96.092048 
L 333.230078 123.206166 
L 334.861508 136.611918 
L 336.492937 138.229955 
L 338.124367 133.42021 
L 339.755797 123.376199 
L 341.387227 123.736132 
L 343.018657 103.243712 
L 344.650087 131.834259 
L 346.281517 133.832977 
L 347.912947 101.166341 
L 349.544376 119.036385 
L 351.175806 95.616461 
L 352.807236 102.699781 
L 354.438666 134.210429 
L 356.070096 106.806284 
L 357.701526 130.382516 
L 359.332956 125.307842 
L 360.964386 118.256366 
L 362.595815 123.03354 
L 364.227245 116.630065 
L 365.858675 100.86199 
L 367.490105 126.600221 
L 369.121535 114.352935 
L 370.752965 119.726891 
L 372.384395 136.563615 
L 374.015825 135.586106 
L 375.647254 134.460991 
L 377.278684 122.721819 
L 378.910114 91.897881 
L 380.541544 127.717835 
L 382.172974 128.670366 
L 383.804404 126.315939 
L 385.435834 128.590501 
L 387.067264 118.607044 
L 388.698693 111.196943 
L 390.330123 126.113047 
L 391.961553 125.864704 
L 393.592983 121.000395 
L 395.224413 128.129487 
L 396.855843 125.654171 
L 398.487273 131.628786 
L 398.487273 131.628786 
" clip-path="url(#p644fae97e0)" style="fill: none; stroke-dasharray: 9.6,2.4,1.5,2.4; stroke-dashoffset: 0; stroke: #008000; stroke-width: 1.5"/>
   </g>
   <g id="line2d_23">
    <path d="M 73.832727 141.01993 
L 75.464157 124.125647 
L 77.095587 119.850327 
L 78.727017 128.718797 
L 80.358447 122.340243 
L 81.989877 136.054798 
L 83.621307 132.843326 
L 85.252736 113.819238 
L 86.884166 126.885499 
L 88.515596 119.240279 
L 90.147026 122.972473 
L 91.778456 115.750605 
L 93.409886 119.596541 
L 95.041316 126.288647 
L 96.672746 109.278669 
L 98.304175 97.955239 
L 99.935605 124.331936 
L 101.567035 98.599077 
L 103.198465 120.9216 
L 104.829895 116.786745 
L 106.461325 119.175143 
L 108.092755 122.653139 
L 109.724185 117.380928 
L 111.355614 117.139192 
L 112.987044 119.074727 
L 114.618474 120.725847 
L 116.249904 106.203972 
L 117.881334 120.988146 
L 119.512764 115.751271 
L 121.144194 117.626338 
L 122.775624 123.386029 
L 124.407053 110.140505 
L 126.038483 123.945537 
L 129.301343 115.59584 
L 130.932773 116.71483 
L 132.564203 111.981796 
L 134.195633 120.252836 
L 135.827063 112.066664 
L 137.458492 121.776878 
L 139.089922 115.894707 
L 140.721352 109.255332 
L 142.352782 115.585349 
L 143.984212 120.82805 
L 145.615642 117.051025 
L 147.247072 115.504437 
L 148.878502 121.511487 
L 150.509931 109.947456 
L 152.141361 115.658272 
L 153.772791 75.674623 
L 155.404221 112.330005 
L 157.035651 121.433508 
L 158.667081 126.644217 
L 160.298511 109.75326 
L 161.929941 115.707354 
L 163.56137 119.048538 
L 165.1928 121.218041 
L 166.82423 119.185381 
L 168.45566 116.808527 
L 170.08709 122.951047 
L 171.71852 111.170287 
L 173.34995 123.826757 
L 174.98138 121.953994 
L 176.61281 126.997248 
L 178.244239 118.249143 
L 179.875669 129.277603 
L 181.507099 120.548275 
L 183.138529 129.010845 
L 184.769959 103.041273 
L 186.401389 109.24777 
L 188.032819 132.789979 
L 189.664249 112.751089 
L 191.295678 125.148864 
L 192.927108 111.331276 
L 194.558538 117.923875 
L 196.189968 120.33953 
L 197.821398 110.764601 
L 199.452828 106.529556 
L 201.084258 108.126212 
L 202.715688 116.552796 
L 204.347117 116.493407 
L 205.978547 88.450741 
L 207.609977 121.809432 
L 209.241407 114.676905 
L 210.872837 97.346545 
L 214.135697 112.973483 
L 215.767127 125.087672 
L 217.398556 111.288274 
L 219.029986 125.249328 
L 220.661416 110.696979 
L 222.292846 99.515601 
L 223.924276 115.961578 
L 225.555706 116.938278 
L 227.187136 102.548225 
L 228.818566 116.688332 
L 230.449995 117.753239 
L 232.081425 121.841038 
L 233.712855 96.506765 
L 235.344285 107.703961 
L 236.975715 110.026545 
L 238.607145 114.958315 
L 240.238575 113.938976 
L 241.870005 118.094788 
L 243.501434 118.474722 
L 245.132864 85.401873 
L 246.764294 121.023627 
L 248.395724 108.540544 
L 250.027154 124.84074 
L 251.658584 118.778399 
L 253.290014 116.284715 
L 254.921444 115.540635 
L 256.552873 96.771266 
L 258.184303 115.377517 
L 259.815733 107.388094 
L 261.447163 110.542819 
L 263.078593 109.905378 
L 264.710023 78.93568 
L 266.341453 109.221894 
L 267.972883 115.183136 
L 269.604312 107.769444 
L 271.235742 124.422314 
L 272.867172 118.26338 
L 274.498602 110.777176 
L 276.130032 99.857534 
L 277.761462 119.722776 
L 279.392892 114.29808 
L 282.655751 116.441662 
L 284.287181 111.406059 
L 285.918611 93.133525 
L 287.550041 123.985505 
L 289.181471 117.675852 
L 290.812901 113.351146 
L 292.444331 120.00188 
L 294.075761 109.668421 
L 295.70719 119.616156 
L 297.33862 112.647633 
L 298.97005 119.270328 
L 300.60148 120.2927 
L 302.23291 114.9211 
L 303.86434 112.75012 
L 305.49577 119.186237 
L 307.1272 118.768889 
L 308.75863 107.973853 
L 310.390059 87.234687 
L 312.021489 122.886765 
L 313.652919 112.412647 
L 315.284349 118.997181 
L 316.915779 122.842705 
L 318.547209 108.108763 
L 320.178639 128.384598 
L 321.810069 102.103466 
L 323.441498 94.992021 
L 325.072928 123.378673 
L 326.704358 107.292096 
L 328.335788 108.435032 
L 329.967218 99.390917 
L 331.598648 119.815267 
L 333.230078 97.377305 
L 334.861508 121.523444 
L 336.492937 122.914764 
L 338.124367 114.86213 
L 339.755797 125.242952 
L 341.387227 102.714379 
L 343.018657 118.356563 
L 344.650087 114.386485 
L 346.281517 117.736939 
L 347.912947 105.45069 
L 349.544376 114.156399 
L 351.175806 117.16911 
L 352.807236 101.553809 
L 354.438666 120.648722 
L 356.070096 124.320681 
L 357.701526 111.757671 
L 359.332956 120.782417 
L 360.964386 116.57269 
L 362.595815 118.626428 
L 364.227245 110.70776 
L 365.858675 120.535899 
L 367.490105 114.756657 
L 369.121535 126.704673 
L 370.752965 115.083323 
L 372.384395 108.039692 
L 374.015825 115.273372 
L 375.647254 119.309095 
L 377.278684 111.699156 
L 378.910114 103.003196 
L 380.541544 106.935508 
L 382.172974 111.650558 
L 383.804404 79.992645 
L 385.435834 106.069062 
L 388.698693 117.54881 
L 390.330123 53.568 
L 391.961553 120.158914 
L 393.592983 115.050473 
L 395.224413 114.54101 
L 396.855843 100.668515 
L 398.487273 106.473582 
L 398.487273 106.473582 
" clip-path="url(#p644fae97e0)" style="fill: none; stroke: #ff0000; stroke-width: 1.5; stroke-linecap: square"/>
   </g>
   <g id="patch_3">
    <path d="M 57.6 307.584 
L 57.6 41.472 
" style="fill: none; stroke: #000000; stroke-width: 0.8; stroke-linejoin: miter; stroke-linecap: square"/>
   </g>
   <g id="patch_4">
    <path d="M 414.72 307.584 
L 414.72 41.472 
" style="fill: none; stroke: #000000; stroke-width: 0.8; stroke-linejoin: miter; stroke-linecap: square"/>
   </g>
   <g id="patch_5">
    <path d="M 57.6 307.584 
L 414.72 307.584 
" style="fill: none; stroke: #000000; stroke-width: 0.8; stroke-linejoin: miter; stroke-linecap: square"/>
   </g>
   <g id="patch_6">
    <path d="M 57.6 41.472 
L 414.72 41.472 
" style="fill: none; stroke: #000000; stroke-width: 0.8; stroke-linejoin: miter; stroke-linecap: square"/>
   </g>
   <g id="text_13">
    <!-- Population's average and best fitness -->
    <g transform="translate(123.529687 35.472) scale(0.12 -0.12)">
     <defs>
      <path id="DejaVuSans-50" d="M 1259 4147 
L 1259 2394 
L 2053 2394 
Q 2494 2394 2734 2622 
Q 2975 2850 2975 3272 
Q 2975 3691 2734 3919 
Q 2494 4147 2053 4147 
L 1259 4147 
z
M 628 4666 
L 2053 4666 
Q 2838 4666 3239 4311 
Q 3641 3956 3641 3272 
Q 3641 2581 3239 2228 
Q 2838 1875 2053 1875 
L 1259 1875 
L 1259 0 
L 628 0 
L 628 4666 
z
" transform="scale(0.015625)"/>
      <path id="DejaVuSans-70" d="M 1159 525 
L 1159 -1331 
L 581 -1331 
L 581 3500 
L 1159 3500 
L 1159 2969 
Q 1341 3281 1617 3432 
Q 1894 3584 2278 3584 
Q 2916 3584 3314 3078 
Q 3713 2572 3713 1747 
Q 3713 922 3314 415 
Q 2916 -91 2278 -91 
Q 1894 -91 1617 61 
Q 1341 213 1159 525 
z
M 3116 1747 
Q 3116 2381 2855 2742 
Q 2594 3103 2138 3103 
Q 1681 3103 1420 2742 
Q 1159 2381 1159 1747 
Q 1159 1113 1420 752 
Q 1681 391 2138 391 
Q 2594 391 2855 752 
Q 3116 1113 3116 1747 
z
" transform="scale(0.015625)"/>
      <path id="DejaVuSans-75" d="M 544 1381 
L 544 3500 
L 1119 3500 
L 1119 1403 
Q 1119 906 1312 657 
Q 1506 409 1894 409 
Q 2359 409 2629 706 
Q 2900 1003 2900 1516 
L 2900 3500 
L 3475 3500 
L 3475 0 
L 2900 0 
L 2900 538 
Q 2691 219 2414 64 
Q 2138 -91 1772 -91 
Q 1169 -91 856 284 
Q 544 659 544 1381 
z
M 1991 3584 
L 1991 3584 
z
" transform="scale(0.015625)"/>
      <path id="DejaVuSans-6c" d="M 603 4863 
L 1178 4863 
L 1178 0 
L 603 0 
L 603 4863 
z
" transform="scale(0.015625)"/>
      <path id="DejaVuSans-27" d="M 1147 4666 
L 1147 2931 
L 616 2931 
L 616 4666 
L 1147 4666 
z
" transform="scale(0.015625)"/>
      <path id="DejaVuSans-20" transform="scale(0.015625)"/>
      <path id="DejaVuSans-76" d="M 191 3500 
L 800 3500 
L 1894 563 
L 2988 3500 
L 3597 3500 
L 2284 0 
L 1503 0 
L 191 3500 
z
" transform="scale(0.015625)"/>
      <path id="DejaVuSans-67" d="M 2906 1791 
Q 2906 2416 2648 2759 
Q 2391 3103 1925 3103 
Q 1463 3103 1205 2759 
Q 947 2416 947 1791 
Q 947 1169 1205 825 
Q 1463 481 1925 481 
Q 2391 481 2648 825 
Q 2906 1169 2906 1791 
z
M 3481 434 
Q 3481 -459 3084 -895 
Q 2688 -1331 1869 -1331 
Q 1566 -1331 1297 -1286 
Q 1028 -1241 775 -1147 
L 775 -588 
Q 1028 -725 1275 -790 
Q 1522 -856 1778 -856 
Q 2344 -856 2625 -561 
Q 2906 -266 2906 331 
L 2906 616 
Q 2728 306 2450 153 
Q 2172 0 1784 0 
Q 1141 0 747 490 
Q 353 981 353 1791 
Q 353 2603 747 3093 
Q 1141 3584 1784 3584 
Q 2172 3584 2450 3431 
Q 2728 3278 2906 2969 
L 2906 3500 
L 3481 3500 
L 3481 434 
z
" transform="scale(0.015625)"/>
      <path id="DejaVuSans-64" d="M 2906 2969 
L 2906 4863 
L 3481 4863 
L 3481 0 
L 2906 0 
L 2906 525 
Q 2725 213 2448 61 
Q 2172 -91 1784 -91 
Q 1150 -91 751 415 
Q 353 922 353 1747 
Q 353 2572 751 3078 
Q 1150 3584 1784 3584 
Q 2172 3584 2448 3432 
Q 2725 3281 2906 2969 
z
M 947 1747 
Q 947 1113 1208 752 
Q 1469 391 1925 391 
Q 2381 391 2643 752 
Q 2906 1113 2906 1747 
Q 2906 2381 2643 2742 
Q 2381 3103 1925 3103 
Q 1469 3103 1208 2742 
Q 947 2381 947 1747 
z
" transform="scale(0.015625)"/>
      <path id="DejaVuSans-62" d="M 3116 1747 
Q 3116 2381 2855 2742 
Q 2594 3103 2138 3103 
Q 1681 3103 1420 2742 
Q 1159 2381 1159 1747 
Q 1159 1113 1420 752 
Q 1681 391 2138 391 
Q 2594 391 2855 752 
Q 3116 1113 3116 1747 
z
M 1159 2969 
Q 1341 3281 1617 3432 
Q 1894 3584 2278 3584 
Q 2916 3584 3314 3078 
Q 3713 2572 3713 1747 
Q 3713 922 3314 415 
Q 2916 -91 2278 -91 
Q 1894 -91 1617 61 
Q 1341 213 1159 525 
L 1159 0 
L 581 0 
L 581 4863 
L 1159 4863 
L 1159 2969 
z
" transform="scale(0.015625)"/>
      <path id="DejaVuSans-66" d="M 2375 4863 
L 2375 4384 
L 1825 4384 
Q 1516 4384 1395 4259 
Q 1275 4134 1275 3809 
L 1275 3500 
L 2222 3500 
L 2222 3053 
L 1275 3053 
L 1275 0 
L 697 0 
L 697 3053 
L 147 3053 
L 147 3500 
L 697 3500 
L 697 3744 
Q 697 4328 969 4595 
Q 1241 4863 1831 4863 
L 2375 4863 
z
" transform="scale(0.015625)"/>
     </defs>
     <use xlink:href="#DejaVuSans-50"/>
     <use xlink:href="#DejaVuSans-6f" transform="translate(56.677734 0)"/>
     <use xlink:href="#DejaVuSans-70" transform="translate(117.859375 0)"/>
     <use xlink:href="#DejaVuSans-75" transform="translate(181.335938 0)"/>
     <use xlink:href="#DejaVuSans-6c" transform="translate(244.714844 0)"/>
     <use xlink:href="#DejaVuSans-61" transform="translate(272.498047 0)"/>
     <use xlink:href="#DejaVuSans-74" transform="translate(333.777344 0)"/>
     <use xlink:href="#DejaVuSans-69" transform="translate(372.986328 0)"/>
     <use xlink:href="#DejaVuSans-6f" transform="translate(400.769531 0)"/>
     <use xlink:href="#DejaVuSans-6e" transform="translate(461.951172 0)"/>
     <use xlink:href="#DejaVuSans-27" transform="translate(525.330078 0)"/>
     <use xlink:href="#DejaVuSans-73" transform="translate(552.820312 0)"/>
     <use xlink:href="#DejaVuSans-20" transform="translate(604.919922 0)"/>
     <use xlink:href="#DejaVuSans-61" transform="translate(636.707031 0)"/>
     <use xlink:href="#DejaVuSans-76" transform="translate(697.986328 0)"/>
     <use xlink:href="#DejaVuSans-65" transform="translate(757.166016 0)"/>
     <use xlink:href="#DejaVuSans-72" transform="translate(818.689453 0)"/>
     <use xlink:href="#DejaVuSans-61" transform="translate(859.802734 0)"/>
     <use xlink:href="#DejaVuSans-67" transform="translate(921.082031 0)"/>
     <use xlink:href="#DejaVuSans-65" transform="translate(984.558594 0)"/>
     <use xlink:href="#DejaVuSans-20" transform="translate(1046.082031 0)"/>
     <use xlink:href="#DejaVuSans-61" transform="translate(1077.869141 0)"/>
     <use xlink:href="#DejaVuSans-6e" transform="translate(1139.148438 0)"/>
     <use xlink:href="#DejaVuSans-64" transform="translate(1202.527344 0)"/>
     <use xlink:href="#DejaVuSans-20" transform="translate(1266.003906 0)"/>
     <use xlink:href="#DejaVuSans-62" transform="translate(1297.791016 0)"/>
     <use xlink:href="#DejaVuSans-65" transform="translate(1361.267578 0)"/>
     <use xlink:href="#DejaVuSans-73" transform="translate(1422.791016 0)"/>
     <use xlink:href="#DejaVuSans-74" transform="translate(1474.890625 0)"/>
     <use xlink:href="#DejaVuSans-20" transform="translate(1514.099609 0)"/>
     <use xlink:href="#DejaVuSans-66" transform="translate(1545.886719 0)"/>
     <use xlink:href="#DejaVuSans-69" transform="translate(1581.091797 0)"/>
     <use xlink:href="#DejaVuSans-74" transform="translate(1608.875 0)"/>
     <use xlink:href="#DejaVuSans-6e" transform="translate(1648.083984 0)"/>
     <use xlink:href="#DejaVuSans-65" transform="translate(1711.462891 0)"/>
     <use xlink:href="#DejaVuSans-73" transform="translate(1772.986328 0)"/>
     <use xlink:href="#DejaVuSans-73" transform="translate(1825.085938 0)"/>
    </g>
   </g>
   <g id="legend_1">
    <g id="patch_7">
     <path d="M 334.779375 302.584 
L 407.72 302.584 
Q 409.72 302.584 409.72 300.584 
L 409.72 257.549625 
Q 409.72 255.549625 407.72 255.549625 
L 334.779375 255.549625 
Q 332.779375 255.549625 332.779375 257.549625 
L 332.779375 300.584 
Q 332.779375 302.584 334.779375 302.584 
z
" style="fill: #ffffff; opacity: 0.8; stroke: #cccccc; stroke-linejoin: miter"/>
    </g>
    <g id="line2d_24">
     <path d="M 336.779375 263.648062 
L 346.779375 263.648062 
L 356.779375 263.648062 
" style="fill: none; stroke: #0000ff; stroke-width: 1.5; stroke-linecap: square"/>
    </g>
    <g id="text_14">
     <!-- average -->
     <g transform="translate(364.779375 267.148062) scale(0.1 -0.1)">
      <use xlink:href="#DejaVuSans-61"/>
      <use xlink:href="#DejaVuSans-76" transform="translate(61.279297 0)"/>
      <use xlink:href="#DejaVuSans-65" transform="translate(120.458984 0)"/>
      <use xlink:href="#DejaVuSans-72" transform="translate(181.982422 0)"/>
      <use xlink:href="#DejaVuSans-61" transform="translate(223.095703 0)"/>
      <use xlink:href="#DejaVuSans-67" transform="translate(284.375 0)"/>
      <use xlink:href="#DejaVuSans-65" transform="translate(347.851562 0)"/>
     </g>
    </g>
    <g id="line2d_25">
     <path d="M 336.779375 278.326188 
L 346.779375 278.326188 
L 356.779375 278.326188 
" style="fill: none; stroke-dasharray: 9.6,2.4,1.5,2.4; stroke-dashoffset: 0; stroke: #008000; stroke-width: 1.5"/>
    </g>
    <g id="text_15">
     <!-- +1 sd -->
     <g transform="translate(364.779375 281.826188) scale(0.1 -0.1)">
      <defs>
       <path id="DejaVuSans-2b" d="M 2944 4013 
L 2944 2272 
L 4684 2272 
L 4684 1741 
L 2944 1741 
L 2944 0 
L 2419 0 
L 2419 1741 
L 678 1741 
L 678 2272 
L 2419 2272 
L 2419 4013 
L 2944 4013 
z
" transform="scale(0.015625)"/>
      </defs>
      <use xlink:href="#DejaVuSans-2b"/>
      <use xlink:href="#DejaVuSans-31" transform="translate(83.789062 0)"/>
      <use xlink:href="#DejaVuSans-20" transform="translate(147.412109 0)"/>
      <use xlink:href="#DejaVuSans-73" transform="translate(179.199219 0)"/>
      <use xlink:href="#DejaVuSans-64" transform="translate(231.298828 0)"/>
     </g>
    </g>
    <g id="line2d_26">
     <path d="M 336.779375 293.004312 
L 346.779375 293.004312 
L 356.779375 293.004312 
" style="fill: none; stroke: #ff0000; stroke-width: 1.5; stroke-linecap: square"/>
    </g>
    <g id="text_16">
     <!-- best -->
     <g transform="translate(364.779375 296.504312) scale(0.1 -0.1)">
      <use xlink:href="#DejaVuSans-62"/>
      <use xlink:href="#DejaVuSans-65" transform="translate(63.476562 0)"/>
      <use xlink:href="#DejaVuSans-73" transform="translate(125 0)"/>
      <use xlink:href="#DejaVuSans-74" transform="translate(177.099609 0)"/>
     </g>
    </g>
   </g>
  </g>
 </g>
 <defs>
  <clipPath id="p644fae97e0">
   <rect x="57.6" y="41.472" width="357.12" height="266.112"/>
  </clipPath>
 </defs>
</svg>
