<?xml version="1.0" encoding="utf-8" standalone="no"?>
<!DOCTYPE svg PUBLIC "-//W3C//DTD SVG 1.1//EN"
  "http://www.w3.org/Graphics/SVG/1.1/DTD/svg11.dtd">
<svg xmlns:xlink="http://www.w3.org/1999/xlink" width="460.8pt" height="345.6pt" viewBox="0 0 460.8 345.6" xmlns="http://www.w3.org/2000/svg" version="1.1">
 <metadata>
  <rdf:RDF xmlns:dc="http://purl.org/dc/elements/1.1/" xmlns:cc="http://creativecommons.org/ns#" xmlns:rdf="http://www.w3.org/1999/02/22-rdf-syntax-ns#">
   <cc:Work>
    <dc:type rdf:resource="http://purl.org/dc/dcmitype/StillImage"/>
    <dc:date>2026-04-23T15:33:04.516382</dc:date>
    <dc:format>image/svg+xml</dc:format>
    <dc:creator>
     <cc:Agent>
      <dc:title>Matplotlib v3.10.8, https://matplotlib.org/</dc:title>
     </cc:Agent>
    </dc:creator>
   </cc:Work>
  </rdf:RDF>
 </metadata>
 <defs>
  <style type="text/css">*{stroke-linejoin: round; stroke-linecap: butt}</style>
 </defs>
 <g id="figure_1">
  <g id="patch_1">
   <path d="M 0 345.6 
L 460.8 345.6 
L 460.8 0 
L 0 0 
z
" style="fill: #ffffff"/>
  </g>
  <g id="axes_1">
   <g id="patch_2">
    <path d="M 57.6 307.584 
L 414.72 307.584 
L 414.72 41.472 
L 57.6 41.472 
z
" style="fill: #ffffff"/>
   </g>
   <g id="matplotlib.axis_1">
    <g id="xtick_1">
     <g id="line2d_1">
      <path d="M 73.832727 307.584 
L 73.832727 41.472 
" clip-path="url(#p12f92da726)" style="fill: none; stroke: #b0b0b0; stroke-width: 0.8; stroke-linecap: square"/>
     </g>
     <g id="line2d_2">
      <defs>
       <path id="mdad440d02a" d="M 0 0 
L 0 3.5 
" style="stroke: #000000; stroke-width: 0.8"/>
      </defs>
      <g>
       <use xlink:href="#mdad440d02a" x="73.832727" y="307.584" style="stroke: #000000; stroke-width: 0.8"/>
      </g>
     </g>
     <g id="text_1">
      <!-- 0 -->
      <g transform="translate(70.651477 322.182437) scale(0.1 -0.1)">
       <defs>
        <path id="DejaVuSans-30" d="M 2034 4250 
Q 1547 4250 1301 3770 
Q 1056 3291 1056 2328 
Q 1056 1369 1301 889 
Q 1547 409 2034 409 
Q 2525 409 2770 889 
Q 3016 1369 3016 2328 
Q 3016 3291 2770 3770 
Q 2525 4250 2034 4250 
z
M 2034 4750 
Q 2819 4750 3233 4129 
Q 3647 3509 3647 2328 
Q 3647 1150 3233 529 
Q 2819 -91 2034 -91 
Q 1250 -91 836 529 
Q 422 1150 422 2328 
Q 422 3509 836 4129 
Q 1250 4750 2034 4750 
z
" transform="scale(0.015625)"/>
       </defs>
       <use xlink:href="#DejaVuSans-30"/>
      </g>
     </g>
    </g>
    <g id="xtick_2">
     <g id="line2d_3">
      <path d="M 114.618474 307.584 
L 114.618474 41.472 
" clip-path="url(#p12f92da726)" style="fill: none; stroke: #b0b0b0; stroke-width: 0.8; stroke-linecap: square"/>
     </g>
     <g id="line2d_4">
      <g>
       <use xlink:href="#mdad440d02a" x="114.618474" y="307.584" style="stroke: #000000; stroke-width: 0.8"/>
      </g>
     </g>
     <g id="text_2">
      <!-- 25 -->
      <g transform="translate(108.255974 322.182437) scale(0.1 -0.1)">
       <defs>
        <path id="DejaVuSans-32" d="M 1228 531 
L 3431 531 
L 3431 0 
L 469 0 
L 469 531 
Q 828 903 1448 1529 
Q 2069 2156 2228 2338 
Q 2531 2678 2651 2914 
Q 2772 3150 2772 3378 
Q 2772 3750 2511 3984 
Q 2250 4219 1831 4219 
Q 1534 4219 1204 4116 
Q 875 4013 500 3803 
L 500 4441 
Q 881 4594 1212 4672 
Q 1544 4750 1819 4750 
Q 2544 4750 2975 4387 
Q 3406 4025 3406 3419 
Q 3406 3131 3298 2873 
Q 3191 2616 2906 2266 
Q 2828 2175 2409 1742 
Q 1991 1309 1228 531 
z
" transform="scale(0.015625)"/>
        <path id="DejaVuSans-35" d="M 691 4666 
L 3169 4666 
L 3169 4134 
L 1269 4134 
L 1269 2991 
Q 1406 3038 1543 3061 
Q 1681 3084 1819 3084 
Q 2600 3084 3056 2656 
Q 3513 2228 3513 1497 
Q 3513 744 3044 326 
Q 2575 -91 1722 -91 
Q 1428 -91 1123 -41 
Q 819 9 494 109 
L 494 744 
Q 775 591 1075 516 
Q 1375 441 1709 441 
Q 2250 441 2565 725 
Q 2881 1009 2881 1497 
Q 2881 1984 2565 2268 
Q 2250 2553 1709 2553 
Q 1456 2553 1204 2497 
Q 953 2441 691 2322 
L 691 4666 
z
" transform="scale(0.015625)"/>
       </defs>
       <use xlink:href="#DejaVuSans-32"/>
       <use xlink:href="#DejaVuSans-35" transform="translate(63.623047 0)"/>
      </g>
     </g>
    </g>
    <g id="xtick_3">
     <g id="line2d_5">
      <path d="M 155.404221 307.584 
L 155.404221 41.472 
" clip-path="url(#p12f92da726)" style="fill: none; stroke: #b0b0b0; stroke-width: 0.8; stroke-linecap: square"/>
     </g>
     <g id="line2d_6">
      <g>
       <use xlink:href="#mdad440d02a" x="155.404221" y="307.584" style="stroke: #000000; stroke-width: 0.8"/>
      </g>
     </g>
     <g id="text_3">
      <!-- 50 -->
      <g transform="translate(149.041721 322.182437) scale(0.1 -0.1)">
       <use xlink:href="#DejaVuSans-35"/>
       <use xlink:href="#DejaVuSans-30" transform="translate(63.623047 0)"/>
      </g>
     </g>
    </g>
    <g id="xtick_4">
     <g id="line2d_7">
      <path d="M 196.189968 307.584 
L 196.189968 41.472 
" clip-path="url(#p12f92da726)" style="fill: none; stroke: #b0b0b0; stroke-width: 0.8; stroke-linecap: square"/>
     </g>
     <g id="line2d_8">
      <g>
       <use xlink:href="#mdad440d02a" x="196.189968" y="307.584" style="stroke: #000000; stroke-width: 0.8"/>
      </g>
     </g>
     <g id="text_4">
      <!-- 75 -->
      <g transform="translate(189.827468 322.182437) scale(0.1 -0.1)">
       <defs>
        <path id="DejaVuSans-37" d="M 525 4666 
L 3525 4666 
L 3525 4397 
L 1831 0 
L 1172 0 
L 2766 4134 
L 525 4134 
L 525 4666 
z
" transform="scale(0.015625)"/>
       </defs>
       <use xlink:href="#DejaVuSans-37"/>
       <use xlink:href="#DejaVuSans-35" transform="translate(63.623047 0)"/>
      </g>
     </g>
    </g>
    <g id="xtick_5">
     <g id="line2d_9">
      <path d="M 236.975715 307.584 
L 236.975715 41.472 
" clip-path="url(#p12f92da726)" style="fill: none; stroke: #b0b0b0; stroke-width: 0.8; stroke-linecap: square"/>
     </g>
     <g id="line2d_10">
      <g>
       <use xlink:href="#mdad440d02a" x="236.975715" y="307.584" style="stroke: #000000; stroke-width: 0.8"/>
      </g>
     </g>
     <g id="text_5">
      <!-- 100 -->
      <g transform="translate(227.431965 322.182437) scale(0.1 -0.1)">
       <defs>
        <path id="DejaVuSans-31" d="M 794 531 
L 1825 531 
L 1825 4091 
L 703 3866 
L 703 4441 
L 1819 4666 
L 2450 4666 
L 2450 531 
L 3481 531 
L 3481 0 
L 794 0 
L 794 531 
z
" transform="scale(0.015625)"/>
       </defs>
       <use xlink:href="#DejaVuSans-31"/>
       <use xlink:href="#DejaVuSans-30" transform="translate(63.623047 0)"/>
       <use xlink:href="#DejaVuSans-30" transform="translate(127.246094 0)"/>
      </g>
     </g>
    </g>
    <g id="xtick_6">
     <g id="line2d_11">
      <path d="M 277.761462 307.584 
L 277.761462 41.472 
" clip-path="url(#p12f92da726)" style="fill: none; stroke: #b0b0b0; stroke-width: 0.8; stroke-linecap: square"/>
     </g>
     <g id="line2d_12">
      <g>
       <use xlink:href="#mdad440d02a" x="277.761462" y="307.584" style="stroke: #000000; stroke-width: 0.8"/>
      </g>
     </g>
     <g id="text_6">
      <!-- 125 -->
      <g transform="translate(268.217712 322.182437) scale(0.1 -0.1)">
       <use xlink:href="#DejaVuSans-31"/>
       <use xlink:href="#DejaVuSans-32" transform="translate(63.623047 0)"/>
       <use xlink:href="#DejaVuSans-35" transform="translate(127.246094 0)"/>
      </g>
     </g>
    </g>
    <g id="xtick_7">
     <g id="line2d_13">
      <path d="M 318.547209 307.584 
L 318.547209 41.472 
" clip-path="url(#p12f92da726)" style="fill: none; stroke: #b0b0b0; stroke-width: 0.8; stroke-linecap: square"/>
     </g>
     <g id="line2d_14">
      <g>
       <use xlink:href="#mdad440d02a" x="318.547209" y="307.584" style="stroke: #000000; stroke-width: 0.8"/>
      </g>
     </g>
     <g id="text_7">
      <!-- 150 -->
      <g transform="translate(309.003459 322.182437) scale(0.1 -0.1)">
       <use xlink:href="#DejaVuSans-31"/>
       <use xlink:href="#DejaVuSans-35" transform="translate(63.623047 0)"/>
       <use xlink:href="#DejaVuSans-30" transform="translate(127.246094 0)"/>
      </g>
     </g>
    </g>
    <g id="xtick_8">
     <g id="line2d_15">
      <path d="M 359.332956 307.584 
L 359.332956 41.472 
" clip-path="url(#p12f92da726)" style="fill: none; stroke: #b0b0b0; stroke-width: 0.8; stroke-linecap: square"/>
     </g>
     <g id="line2d_16">
      <g>
       <use xlink:href="#mdad440d02a" x="359.332956" y="307.584" style="stroke: #000000; stroke-width: 0.8"/>
      </g>
     </g>
     <g id="text_8">
      <!-- 175 -->
      <g transform="translate(349.789206 322.182437) scale(0.1 -0.1)">
       <use xlink:href="#DejaVuSans-31"/>
       <use xlink:href="#DejaVuSans-37" transform="translate(63.623047 0)"/>
       <use xlink:href="#DejaVuSans-35" transform="translate(127.246094 0)"/>
      </g>
     </g>
    </g>
    <g id="xtick_9">
     <g id="line2d_17">
      <path d="M 400.118703 307.584 
L 400.118703 41.472 
" clip-path="url(#p12f92da726)" style="fill: none; stroke: #b0b0b0; stroke-width: 0.8; stroke-linecap: square"/>
     </g>
     <g id="line2d_18">
      <g>
       <use xlink:href="#mdad440d02a" x="400.118703" y="307.584" style="stroke: #000000; stroke-width: 0.8"/>
      </g>
     </g>
     <g id="text_9">
      <!-- 200 -->
      <g transform="translate(390.574953 322.182437) scale(0.1 -0.1)">
       <use xlink:href="#DejaVuSans-32"/>
       <use xlink:href="#DejaVuSans-30" transform="translate(63.623047 0)"/>
       <use xlink:href="#DejaVuSans-30" transform="translate(127.246094 0)"/>
      </g>
     </g>
    </g>
    <g id="text_10">
     <!-- Generations -->
     <g transform="translate(205.662344 335.860562) scale(0.1 -0.1)">
      <defs>
       <path id="DejaVuSans-47" d="M 3809 666 
L 3809 1919 
L 2778 1919 
L 2778 2438 
L 4434 2438 
L 4434 434 
Q 4069 175 3628 42 
Q 3188 -91 2688 -91 
Q 1594 -91 976 548 
Q 359 1188 359 2328 
Q 359 3472 976 4111 
Q 1594 4750 2688 4750 
Q 3144 4750 3555 4637 
Q 3966 4525 4313 4306 
L 4313 3634 
Q 3963 3931 3569 4081 
Q 3175 4231 2741 4231 
Q 1884 4231 1454 3753 
Q 1025 3275 1025 2328 
Q 1025 1384 1454 906 
Q 1884 428 2741 428 
Q 3075 428 3337 486 
Q 3600 544 3809 666 
z
" transform="scale(0.015625)"/>
       <path id="DejaVuSans-65" d="M 3597 1894 
L 3597 1613 
L 953 1613 
Q 991 1019 1311 708 
Q 1631 397 2203 397 
Q 2534 397 2845 478 
Q 3156 559 3463 722 
L 3463 178 
Q 3153 47 2828 -22 
Q 2503 -91 2169 -91 
Q 1331 -91 842 396 
Q 353 884 353 1716 
Q 353 2575 817 3079 
Q 1281 3584 2069 3584 
Q 2775 3584 3186 3129 
Q 3597 2675 3597 1894 
z
M 3022 2063 
Q 3016 2534 2758 2815 
Q 2500 3097 2075 3097 
Q 1594 3097 1305 2825 
Q 1016 2553 972 2059 
L 3022 2063 
z
" transform="scale(0.015625)"/>
       <path id="DejaVuSans-6e" d="M 3513 2113 
L 3513 0 
L 2938 0 
L 2938 2094 
Q 2938 2591 2744 2837 
Q 2550 3084 2163 3084 
Q 1697 3084 1428 2787 
Q 1159 2491 1159 1978 
L 1159 0 
L 581 0 
L 581 3500 
L 1159 3500 
L 1159 2956 
Q 1366 3272 1645 3428 
Q 1925 3584 2291 3584 
Q 2894 3584 3203 3211 
Q 3513 2838 3513 2113 
z
" transform="scale(0.015625)"/>
       <path id="DejaVuSans-72" d="M 2631 2963 
Q 2534 3019 2420 3045 
Q 2306 3072 2169 3072 
Q 1681 3072 1420 2755 
Q 1159 2438 1159 1844 
L 1159 0 
L 581 0 
L 581 3500 
L 1159 3500 
L 1159 2956 
Q 1341 3275 1631 3429 
Q 1922 3584 2338 3584 
Q 2397 3584 2469 3576 
Q 2541 3569 2628 3553 
L 2631 2963 
z
" transform="scale(0.015625)"/>
       <path id="DejaVuSans-61" d="M 2194 1759 
Q 1497 1759 1228 1600 
Q 959 1441 959 1056 
Q 959 750 1161 570 
Q 1363 391 1709 391 
Q 2188 391 2477 730 
Q 2766 1069 2766 1631 
L 2766 1759 
L 2194 1759 
z
M 3341 1997 
L 3341 0 
L 2766 0 
L 2766 531 
Q 2569 213 2275 61 
Q 1981 -91 1556 -91 
Q 1019 -91 701 211 
Q 384 513 384 1019 
Q 384 1609 779 1909 
Q 1175 2209 1959 2209 
L 2766 2209 
L 2766 2266 
Q 2766 2663 2505 2880 
Q 2244 3097 1772 3097 
Q 1472 3097 1187 3025 
Q 903 2953 641 2809 
L 641 3341 
Q 956 3463 1253 3523 
Q 1550 3584 1831 3584 
Q 2591 3584 2966 3190 
Q 3341 2797 3341 1997 
z
" transform="scale(0.015625)"/>
       <path id="DejaVuSans-74" d="M 1172 4494 
L 1172 3500 
L 2356 3500 
L 2356 3053 
L 1172 3053 
L 1172 1153 
Q 1172 725 1289 603 
Q 1406 481 1766 481 
L 2356 481 
L 2356 0 
L 1766 0 
Q 1100 0 847 248 
Q 594 497 594 1153 
L 594 3053 
L 172 3053 
L 172 3500 
L 594 3500 
L 594 4494 
L 1172 4494 
z
" transform="scale(0.015625)"/>
       <path id="DejaVuSans-69" d="M 603 3500 
L 1178 3500 
L 1178 0 
L 603 0 
L 603 3500 
z
M 603 4863 
L 1178 4863 
L 1178 4134 
L 603 4134 
L 603 4863 
z
" transform="scale(0.015625)"/>
       <path id="DejaVuSans-6f" d="M 1959 3097 
Q 1497 3097 1228 2736 
Q 959 2375 959 1747 
Q 959 1119 1226 758 
Q 1494 397 1959 397 
Q 2419 397 2687 759 
Q 2956 1122 2956 1747 
Q 2956 2369 2687 2733 
Q 2419 3097 1959 3097 
z
M 1959 3584 
Q 2709 3584 3137 3096 
Q 3566 2609 3566 1747 
Q 3566 888 3137 398 
Q 2709 -91 1959 -91 
Q 1206 -91 779 398 
Q 353 888 353 1747 
Q 353 2609 779 3096 
Q 1206 3584 1959 3584 
z
" transform="scale(0.015625)"/>
       <path id="DejaVuSans-73" d="M 2834 3397 
L 2834 2853 
Q 2591 2978 2328 3040 
Q 2066 3103 1784 3103 
Q 1356 3103 1142 2972 
Q 928 2841 928 2578 
Q 928 2378 1081 2264 
Q 1234 2150 1697 2047 
L 1894 2003 
Q 2506 1872 2764 1633 
Q 3022 1394 3022 966 
Q 3022 478 2636 193 
Q 2250 -91 1575 -91 
Q 1294 -91 989 -36 
Q 684 19 347 128 
L 347 722 
Q 666 556 975 473 
Q 1284 391 1588 391 
Q 1994 391 2212 530 
Q 2431 669 2431 922 
Q 2431 1156 2273 1281 
Q 2116 1406 1581 1522 
L 1381 1569 
Q 847 1681 609 1914 
Q 372 2147 372 2553 
Q 372 3047 722 3315 
Q 1072 3584 1716 3584 
Q 2034 3584 2315 3537 
Q 2597 3491 2834 3397 
z
" transform="scale(0.015625)"/>
      </defs>
      <use xlink:href="#DejaVuSans-47"/>
      <use xlink:href="#DejaVuSans-65" transform="translate(77.490234 0)"/>
      <use xlink:href="#DejaVuSans-6e" transform="translate(139.013672 0)"/>
      <use xlink:href="#DejaVuSans-65" transform="translate(202.392578 0)"/>
      <use xlink:href="#DejaVuSans-72" transform="translate(263.916016 0)"/>
      <use xlink:href="#DejaVuSans-61" transform="translate(305.029297 0)"/>
      <use xlink:href="#DejaVuSans-74" transform="translate(366.308594 0)"/>
      <use xlink:href="#DejaVuSans-69" transform="translate(405.517578 0)"/>
      <use xlink:href="#DejaVuSans-6f" transform="translate(433.300781 0)"/>
      <use xlink:href="#DejaVuSans-6e" transform="translate(494.482422 0)"/>
      <use xlink:href="#DejaVuSans-73" transform="translate(557.861328 0)"/>
     </g>
    </g>
   </g>
   <g id="matplotlib.axis_2">
    <g id="ytick_1">
     <g id="line2d_19">
      <path d="M 57.6 109.341881 
L 414.72 109.341881 
" clip-path="url(#p12f92da726)" style="fill: none; stroke: #b0b0b0; stroke-width: 0.8; stroke-linecap: square"/>
     </g>
     <g id="line2d_20">
      <defs>
       <path id="m53f68eeae1" d="M 0 0 
L -3.5 0 
" style="stroke: #000000; stroke-width: 0.8"/>
      </defs>
      <g>
       <use xlink:href="#m53f68eeae1" x="57.6" y="109.341881" style="stroke: #000000; stroke-width: 0.8"/>
      </g>
     </g>
     <g id="text_11">
      <!-- $\mathdefault{10^{2}}$ -->
      <g transform="translate(33 113.1411) scale(0.1 -0.1)">
       <use xlink:href="#DejaVuSans-31" transform="translate(0 0.765625)"/>
       <use xlink:href="#DejaVuSans-30" transform="translate(63.623047 0.765625)"/>
       <use xlink:href="#DejaVuSans-32" transform="translate(128.203125 39.046875) scale(0.7)"/>
      </g>
     </g>
    </g>
    <g id="text_12">
     <!-- Fitness -->
     <g transform="translate(26.920312 191.845187) rotate(-90) scale(0.1 -0.1)">
      <defs>
       <path id="DejaVuSans-46" d="M 628 4666 
L 3309 4666 
L 3309 4134 
L 1259 4134 
L 1259 2759 
L 3109 2759 
L 3109 2228 
L 1259 2228 
L 1259 0 
L 628 0 
L 628 4666 
z
" transform="scale(0.015625)"/>
      </defs>
      <use xlink:href="#DejaVuSans-46"/>
      <use xlink:href="#DejaVuSans-69" transform="translate(50.269531 0)"/>
      <use xlink:href="#DejaVuSans-74" transform="translate(78.052734 0)"/>
      <use xlink:href="#DejaVuSans-6e" transform="translate(117.261719 0)"/>
      <use xlink:href="#DejaVuSans-65" transform="translate(180.640625 0)"/>
      <use xlink:href="#DejaVuSans-73" transform="translate(242.164062 0)"/>
      <use xlink:href="#DejaVuSans-73" transform="translate(294.263672 0)"/>
     </g>
    </g>
   </g>
   <g id="line2d_21">
    <path d="M 73.832727 295.488 
L 75.464157 241.053153 
L 77.095587 182.622356 
L 78.727017 159.11535 
L 80.358447 157.920498 
L 81.989877 156.534138 
L 83.621307 142.114034 
L 85.252736 147.159026 
L 86.884166 142.640162 
L 90.147026 141.870546 
L 91.778456 138.708949 
L 93.409886 141.243816 
L 95.041316 137.432373 
L 96.672746 137.795203 
L 98.304175 138.708083 
L 99.935605 136.479507 
L 101.567035 136.973993 
L 103.198465 140.138975 
L 104.829895 135.040798 
L 106.461325 135.419454 
L 108.092755 134.374224 
L 109.724185 131.639353 
L 111.355614 132.20225 
L 112.987044 130.969503 
L 114.618474 132.276704 
L 116.249904 134.571056 
L 117.881334 133.569903 
L 119.512764 134.901082 
L 121.144194 131.67203 
L 122.775624 134.66484 
L 124.407053 131.708181 
L 126.038483 130.705319 
L 127.669913 132.041012 
L 129.301343 129.468131 
L 130.932773 130.163592 
L 132.564203 128.898067 
L 134.195633 129.624438 
L 135.827063 129.740977 
L 137.458492 127.107405 
L 139.089922 131.251571 
L 140.721352 130.06861 
L 142.352782 129.742056 
L 143.984212 130.189841 
L 145.615642 130.517607 
L 147.247072 129.09877 
L 148.878502 128.994815 
L 150.509931 127.737163 
L 152.141361 128.361784 
L 153.772791 127.709214 
L 155.404221 127.210374 
L 157.035651 125.793829 
L 158.667081 128.286022 
L 160.298511 126.833957 
L 161.929941 128.127765 
L 163.56137 127.340704 
L 165.1928 125.708417 
L 166.82423 126.409588 
L 168.45566 126.644308 
L 170.08709 127.896144 
L 171.71852 127.541159 
L 173.34995 127.755787 
L 174.98138 127.205651 
L 176.61281 129.285567 
L 178.244239 128.805483 
L 179.875669 127.325591 
L 181.507099 127.33979 
L 183.138529 129.533542 
L 184.769959 128.622873 
L 186.401389 127.301341 
L 188.032819 126.944844 
L 189.664249 127.114534 
L 191.295678 126.159794 
L 192.927108 126.883505 
L 194.558538 127.376483 
L 196.189968 126.498658 
L 197.821398 126.69114 
L 199.452828 127.457092 
L 202.715688 128.016014 
L 204.347117 127.356853 
L 205.978547 128.479642 
L 207.609977 126.87901 
L 209.241407 129.350762 
L 210.872837 126.796743 
L 212.504267 126.178024 
L 214.135697 127.762243 
L 215.767127 125.777995 
L 217.398556 126.149388 
L 219.029986 126.28637 
L 220.661416 127.995046 
L 222.292846 127.140535 
L 223.924276 126.942805 
L 225.555706 129.476921 
L 227.187136 127.548218 
L 228.818566 127.927819 
L 230.449995 128.62759 
L 232.081425 126.20186 
L 233.712855 127.728958 
L 235.344285 127.057863 
L 236.975715 127.514031 
L 238.607145 125.37159 
L 240.238575 127.809376 
L 241.870005 128.912584 
L 243.501434 129.718509 
L 245.132864 125.136518 
L 246.764294 127.079402 
L 248.395724 126.459424 
L 250.027154 126.948117 
L 251.658584 127.177928 
L 253.290014 126.298796 
L 254.921444 126.881294 
L 256.552873 126.111524 
L 258.184303 125.622176 
L 259.815733 124.527049 
L 261.447163 126.556311 
L 263.078593 125.913916 
L 264.710023 125.075786 
L 266.341453 126.290925 
L 267.972883 124.634767 
L 269.604312 126.809319 
L 271.235742 124.84217 
L 272.867172 125.276519 
L 274.498602 127.863755 
L 276.130032 125.594536 
L 277.761462 125.267429 
L 279.392892 127.101702 
L 281.024322 124.019927 
L 282.655751 125.331792 
L 284.287181 127.392675 
L 285.918611 124.712883 
L 287.550041 125.664448 
L 289.181471 126.021965 
L 290.812901 125.839306 
L 292.444331 125.926639 
L 294.075761 126.983364 
L 295.70719 125.012131 
L 297.33862 124.712937 
L 298.97005 127.451255 
L 300.60148 124.555102 
L 302.23291 126.243149 
L 303.86434 126.156321 
L 307.1272 126.646964 
L 308.75863 125.725816 
L 310.390059 125.174511 
L 312.021489 125.815575 
L 313.652919 127.516273 
L 316.915779 127.229721 
L 318.547209 124.8513 
L 320.178639 125.914418 
L 321.810069 127.143313 
L 323.441498 127.772994 
L 325.072928 127.810578 
L 326.704358 126.933932 
L 328.335788 126.42989 
L 329.967218 127.428058 
L 331.598648 128.225679 
L 333.230078 125.058702 
L 334.861508 124.824404 
L 336.492937 126.991967 
L 338.124367 126.757408 
L 339.755797 125.928386 
L 341.387227 128.059164 
L 344.650087 126.855752 
L 346.281517 125.620055 
L 347.912947 126.306989 
L 349.544376 126.779559 
L 351.175806 124.936289 
L 352.807236 126.437884 
L 354.438666 125.094511 
L 356.070096 126.958167 
L 357.701526 127.067427 
L 359.332956 126.147902 
L 360.964386 125.665267 
L 362.595815 128.333366 
L 364.227245 126.342285 
L 365.858675 129.336278 
L 367.490105 128.1526 
L 369.121535 125.673535 
L 370.752965 126.096029 
L 372.384395 126.786985 
L 374.015825 126.168863 
L 375.647254 127.222986 
L 377.278684 126.942195 
L 378.910114 126.781619 
L 380.541544 129.504688 
L 382.172974 125.075603 
L 383.804404 127.20489 
L 385.435834 126.191853 
L 387.067264 127.005911 
L 388.698693 126.067547 
L 390.330123 127.337415 
L 391.961553 128.801308 
L 393.592983 127.169084 
L 395.224413 127.859484 
L 396.855843 127.255204 
L 398.487273 124.007259 
L 398.487273 124.007259 
" clip-path="url(#p12f92da726)" style="fill: none; stroke: #0000ff; stroke-width: 1.5; stroke-linecap: square"/>
   </g>
   <g id="line2d_22">
    <path d="M 73.832727 244.632374 
L 75.464157 184.170982 
L 77.095587 136.955666 
L 78.727017 125.887533 
L 80.358447 122.612189 
L 81.989877 117.895209 
L 83.621307 116.448087 
L 85.252736 115.797855 
L 86.884166 115.607759 
L 88.515596 117.904348 
L 90.147026 114.849184 
L 91.778456 114.324773 
L 93.409886 118.401657 
L 95.041316 115.203731 
L 96.672746 116.548939 
L 98.304175 119.28403 
L 99.935605 114.979561 
L 101.567035 116.294844 
L 103.198465 112.24574 
L 104.829895 114.521617 
L 106.461325 113.628572 
L 109.724185 116.591367 
L 112.987044 114.389407 
L 114.618474 116.195849 
L 116.249904 115.040676 
L 117.881334 116.263388 
L 119.512764 114.405977 
L 121.144194 114.125513 
L 122.775624 111.792256 
L 124.407053 112.889539 
L 126.038483 115.225222 
L 127.669913 108.897367 
L 129.301343 113.593378 
L 130.932773 114.746684 
L 132.564203 111.288291 
L 134.195633 109.146302 
L 135.827063 113.6962 
L 137.458492 109.207497 
L 139.089922 111.698549 
L 140.721352 113.190919 
L 142.352782 113.180796 
L 143.984212 112.495392 
L 145.615642 114.094236 
L 147.247072 113.307879 
L 148.878502 106.602361 
L 150.509931 112.50599 
L 152.141361 109.325045 
L 153.772791 110.765565 
L 155.404221 111.644177 
L 157.035651 108.695891 
L 158.667081 109.237335 
L 160.298511 110.159493 
L 161.929941 110.66862 
L 163.56137 111.469267 
L 165.1928 107.677879 
L 166.82423 112.233243 
L 168.45566 111.895501 
L 170.08709 110.780829 
L 171.71852 108.55224 
L 173.34995 111.82038 
L 174.98138 109.797174 
L 176.61281 111.917551 
L 178.244239 113.233756 
L 179.875669 110.500188 
L 181.507099 111.511218 
L 183.138529 111.888115 
L 184.769959 110.244168 
L 186.401389 110.860848 
L 188.032819 110.919465 
L 189.664249 111.870439 
L 191.295678 111.191636 
L 192.927108 111.747 
L 194.558538 111.687134 
L 196.189968 110.772886 
L 197.821398 110.113665 
L 199.452828 109.863528 
L 201.084258 109.844854 
L 202.715688 112.401241 
L 204.347117 109.735131 
L 205.978547 110.197894 
L 207.609977 112.238068 
L 210.872837 113.616591 
L 212.504267 110.711752 
L 214.135697 112.305797 
L 215.767127 111.256445 
L 217.398556 110.348667 
L 219.029986 111.515222 
L 220.661416 113.269978 
L 222.292846 112.313259 
L 223.924276 109.782284 
L 225.555706 109.130594 
L 227.187136 112.405291 
L 228.818566 112.356644 
L 232.081425 111.494627 
L 233.712855 111.227403 
L 235.344285 111.963546 
L 236.975715 112.16071 
L 238.607145 107.766691 
L 240.238575 110.988278 
L 241.870005 113.132529 
L 243.501434 114.966742 
L 245.132864 110.393568 
L 246.764294 112.299288 
L 248.395724 110.394467 
L 250.027154 110.829484 
L 251.658584 109.817661 
L 253.290014 109.927684 
L 254.921444 111.001225 
L 256.552873 110.09662 
L 258.184303 109.67358 
L 259.815733 108.396717 
L 261.447163 107.662784 
L 263.078593 108.900128 
L 264.710023 110.278794 
L 266.341453 107.378358 
L 267.972883 109.53124 
L 269.604312 108.20164 
L 271.235742 109.224191 
L 272.867172 110.56011 
L 274.498602 108.99554 
L 276.130032 110.255795 
L 277.761462 110.042734 
L 279.392892 111.660561 
L 281.024322 108.160722 
L 282.655751 109.48251 
L 284.287181 109.660147 
L 285.918611 109.242585 
L 287.550041 110.582256 
L 289.181471 108.836381 
L 290.812901 109.177062 
L 292.444331 107.209573 
L 294.075761 111.920365 
L 295.70719 110.3956 
L 297.33862 108.093939 
L 298.97005 110.869731 
L 300.60148 109.166835 
L 302.23291 109.953569 
L 303.86434 112.477645 
L 305.49577 108.937888 
L 307.1272 109.090783 
L 308.75863 110.31162 
L 310.390059 108.478977 
L 312.021489 108.161296 
L 313.652919 112.510314 
L 315.284349 108.014806 
L 316.915779 112.623964 
L 318.547209 108.927651 
L 320.178639 110.078494 
L 323.441498 113.259784 
L 325.072928 113.936701 
L 326.704358 112.186038 
L 328.335788 109.96924 
L 329.967218 110.816611 
L 331.598648 113.824352 
L 333.230078 110.143204 
L 334.861508 110.642999 
L 336.492937 111.616714 
L 338.124367 111.479418 
L 339.755797 110.015965 
L 341.387227 112.001579 
L 343.018657 110.071867 
L 344.650087 111.145473 
L 346.281517 110.238386 
L 347.912947 111.932896 
L 349.544376 112.818852 
L 351.175806 108.776924 
L 352.807236 113.186695 
L 354.438666 110.754498 
L 356.070096 111.78555 
L 357.701526 110.144756 
L 359.332956 110.916659 
L 360.964386 111.062457 
L 362.595815 111.545419 
L 364.227245 111.709529 
L 365.858675 113.976531 
L 367.490105 112.01953 
L 369.121535 110.44741 
L 370.752965 109.10717 
L 372.384395 110.052863 
L 374.015825 109.937294 
L 375.647254 110.363455 
L 377.278684 113.223432 
L 378.910114 111.34781 
L 380.541544 114.313399 
L 382.172974 109.709887 
L 383.804404 111.461407 
L 385.435834 112.23026 
L 387.067264 108.756379 
L 388.698693 108.905826 
L 390.330123 113.593788 
L 391.961553 113.17059 
L 393.592983 109.124362 
L 396.855843 111.071381 
L 398.487273 108.984601 
L 398.487273 108.984601 
" clip-path="url(#p12f92da726)" style="fill: none; stroke-dasharray: 9.6,2.4,1.5,2.4; stroke-dashoffset: 0; stroke: #008000; stroke-width: 1.5"/>
   </g>
   <g id="line2d_23">
    <path d="M 73.832727 118.566224 
L 75.464157 102.82469 
L 77.095587 71.495493 
L 80.358447 99.70476 
L 81.989877 103.361336 
L 83.621307 98.262694 
L 85.252736 78.917537 
L 86.884166 87.473227 
L 88.515596 93.221564 
L 90.147026 83.013534 
L 91.778456 82.975854 
L 93.409886 94.596705 
L 95.041316 94.949715 
L 96.672746 94.717218 
L 98.304175 87.157283 
L 101.567035 96.724171 
L 103.198465 94.969755 
L 104.829895 86.167337 
L 106.461325 96.157687 
L 108.092755 85.880979 
L 109.724185 85.970529 
L 111.355614 101.004518 
L 112.987044 84.210736 
L 114.618474 91.536419 
L 116.249904 92.945632 
L 117.881334 87.346925 
L 119.512764 88.759028 
L 121.144194 88.695977 
L 122.775624 76.83873 
L 124.407053 79.742109 
L 126.038483 91.530765 
L 127.669913 79.604732 
L 129.301343 84.223267 
L 130.932773 85.812363 
L 132.564203 90.488634 
L 134.195633 68.768383 
L 135.827063 85.504782 
L 137.458492 75.653848 
L 139.089922 82.86815 
L 140.721352 94.674488 
L 142.352782 88.8116 
L 143.984212 74.370259 
L 145.615642 94.953619 
L 147.247072 83.042464 
L 148.878502 84.434558 
L 150.509931 84.41566 
L 152.141361 82.756457 
L 153.772791 59.254163 
L 155.404221 72.812106 
L 157.035651 78.371817 
L 158.667081 91.444261 
L 160.298511 74.202861 
L 161.929941 76.710255 
L 163.56137 83.144486 
L 165.1928 68.243438 
L 166.82423 84.216261 
L 168.45566 85.807846 
L 170.08709 81.337173 
L 171.71852 79.71242 
L 173.34995 82.985926 
L 174.98138 54.556852 
L 176.61281 78.744516 
L 178.244239 79.91435 
L 179.875669 84.314501 
L 181.507099 73.931669 
L 183.138529 77.231177 
L 184.769959 75.693036 
L 186.401389 72.88275 
L 188.032819 66.269146 
L 189.664249 75.359495 
L 191.295678 72.788385 
L 192.927108 60.917956 
L 194.558538 82.829372 
L 196.189968 83.152507 
L 197.821398 68.817471 
L 199.452828 77.526813 
L 201.084258 79.952812 
L 202.715688 74.411723 
L 204.347117 81.313883 
L 205.978547 67.415048 
L 207.609977 82.799238 
L 209.241407 84.272243 
L 210.872837 88.665257 
L 212.504267 82.727223 
L 214.135697 81.277456 
L 215.767127 84.442702 
L 217.398556 58.173859 
L 219.029986 88.766874 
L 220.661416 88.738696 
L 222.292846 76.989598 
L 223.924276 72.416982 
L 225.555706 80.197866 
L 227.187136 69.88998 
L 228.818566 79.880916 
L 230.449995 74.308127 
L 232.081425 88.662586 
L 233.712855 69.987486 
L 235.344285 81.555029 
L 236.975715 88.531274 
L 238.607145 78.404597 
L 240.238575 88.701164 
L 241.870005 84.088023 
L 243.501434 84.639798 
L 245.132864 73.196095 
L 246.764294 86.340526 
L 248.395724 79.809246 
L 250.027154 70.15519 
L 251.658584 71.477593 
L 253.290014 85.965408 
L 254.921444 88.850668 
L 256.552873 75.67105 
L 258.184303 84.617419 
L 259.815733 71.212272 
L 261.447163 69.946554 
L 263.078593 70.099063 
L 264.710023 63.538341 
L 266.341453 79.882237 
L 267.972883 78.200069 
L 271.235742 87.185466 
L 272.867172 80.314894 
L 274.498602 85.905963 
L 276.130032 81.803071 
L 277.761462 66.017716 
L 279.392892 91.709931 
L 281.024322 60.75291 
L 282.655751 77.24929 
L 284.287181 75.6451 
L 285.918611 81.125273 
L 287.550041 79.560237 
L 289.181471 82.936586 
L 290.812901 82.637082 
L 292.444331 68.824567 
L 294.075761 89.172129 
L 295.70719 81.630235 
L 297.33862 78.539203 
L 298.97005 70.091868 
L 300.60148 65.993619 
L 302.23291 74.232909 
L 303.86434 87.086106 
L 305.49577 77.026345 
L 307.1272 79.893132 
L 308.75863 73.803228 
L 310.390059 72.856042 
L 312.021489 84.162674 
L 313.652919 78.85703 
L 315.284349 53.568 
L 316.915779 88.844309 
L 318.547209 85.301688 
L 320.178639 73.297846 
L 321.810069 72.791693 
L 323.441498 90.124617 
L 325.072928 83.016586 
L 326.704358 70.541112 
L 328.335788 80.374428 
L 329.967218 70.607654 
L 331.598648 84.247585 
L 334.861508 73.132573 
L 336.492937 68.662824 
L 338.124367 84.637688 
L 339.755797 72.546593 
L 341.387227 84.229986 
L 343.018657 85.532851 
L 344.650087 85.667729 
L 346.281517 61.97533 
L 347.912947 84.306948 
L 349.544376 87.185705 
L 351.175806 84.356475 
L 352.807236 84.396064 
L 354.438666 81.168532 
L 356.070096 79.746016 
L 357.701526 77.347891 
L 359.332956 83.167165 
L 360.964386 90.265509 
L 362.595815 87.471917 
L 364.227245 78.335815 
L 365.858675 84.305262 
L 367.490105 85.748658 
L 369.121535 75.670464 
L 370.752965 62.064697 
L 372.384395 74.159985 
L 374.015825 68.958775 
L 375.647254 83.091179 
L 377.278684 74.755724 
L 378.910114 82.923976 
L 380.541544 84.323112 
L 382.172974 75.961984 
L 383.804404 88.599082 
L 385.435834 81.283049 
L 387.067264 72.940376 
L 388.698693 71.833723 
L 390.330123 87.259277 
L 391.961553 71.347887 
L 393.592983 78.481984 
L 395.224413 82.632187 
L 396.855843 85.794482 
L 398.487273 70.094545 
L 398.487273 70.094545 
" clip-path="url(#p12f92da726)" style="fill: none; stroke: #ff0000; stroke-width: 1.5; stroke-linecap: square"/>
   </g>
   <g id="patch_3">
    <path d="M 57.6 307.584 
L 57.6 41.472 
" style="fill: none; stroke: #000000; stroke-width: 0.8; stroke-linejoin: miter; stroke-linecap: square"/>
   </g>
   <g id="patch_4">
    <path d="M 414.72 307.584 
L 414.72 41.472 
" style="fill: none; stroke: #000000; stroke-width: 0.8; stroke-linejoin: miter; stroke-linecap: square"/>
   </g>
   <g id="patch_5">
    <path d="M 57.6 307.584 
L 414.72 307.584 
" style="fill: none; stroke: #000000; stroke-width: 0.8; stroke-linejoin: miter; stroke-linecap: square"/>
   </g>
   <g id="patch_6">
    <path d="M 57.6 41.472 
L 414.72 41.472 
" style="fill: none; stroke: #000000; stroke-width: 0.8; stroke-linejoin: miter; stroke-linecap: square"/>
   </g>
   <g id="text_13">
    <!-- Population's average and best fitness -->
    <g transform="translate(123.529687 35.472) scale(0.12 -0.12)">
     <defs>
      <path id="DejaVuSans-50" d="M 1259 4147 
L 1259 2394 
L 2053 2394 
Q 2494 2394 2734 2622 
Q 2975 2850 2975 3272 
Q 2975 3691 2734 3919 
Q 2494 4147 2053 4147 
L 1259 4147 
z
M 628 4666 
L 2053 4666 
Q 2838 4666 3239 4311 
Q 3641 3956 3641 3272 
Q 3641 2581 3239 2228 
Q 2838 1875 2053 1875 
L 1259 1875 
L 1259 0 
L 628 0 
L 628 4666 
z
" transform="scale(0.015625)"/>
      <path id="DejaVuSans-70" d="M 1159 525 
L 1159 -1331 
L 581 -1331 
L 581 3500 
L 1159 3500 
L 1159 2969 
Q 1341 3281 1617 3432 
Q 1894 3584 2278 3584 
Q 2916 3584 3314 3078 
Q 3713 2572 3713 1747 
Q 3713 922 3314 415 
Q 2916 -91 2278 -91 
Q 1894 -91 1617 61 
Q 1341 213 1159 525 
z
M 3116 1747 
Q 3116 2381 2855 2742 
Q 2594 3103 2138 3103 
Q 1681 3103 1420 2742 
Q 1159 2381 1159 1747 
Q 1159 1113 1420 752 
Q 1681 391 2138 391 
Q 2594 391 2855 752 
Q 3116 1113 3116 1747 
z
" transform="scale(0.015625)"/>
      <path id="DejaVuSans-75" d="M 544 1381 
L 544 3500 
L 1119 3500 
L 1119 1403 
Q 1119 906 1312 657 
Q 1506 409 1894 409 
Q 2359 409 2629 706 
Q 2900 1003 2900 1516 
L 2900 3500 
L 3475 3500 
L 3475 0 
L 2900 0 
L 2900 538 
Q 2691 219 2414 64 
Q 2138 -91 1772 -91 
Q 1169 -91 856 284 
Q 544 659 544 1381 
z
M 1991 3584 
L 1991 3584 
z
" transform="scale(0.015625)"/>
      <path id="DejaVuSans-6c" d="M 603 4863 
L 1178 4863 
L 1178 0 
L 603 0 
L 603 4863 
z
" transform="scale(0.015625)"/>
      <path id="DejaVuSans-27" d="M 1147 4666 
L 1147 2931 
L 616 2931 
L 616 4666 
L 1147 4666 
z
" transform="scale(0.015625)"/>
      <path id="DejaVuSans-20" transform="scale(0.015625)"/>
      <path id="DejaVuSans-76" d="M 191 3500 
L 800 3500 
L 1894 563 
L 2988 3500 
L 3597 3500 
L 2284 0 
L 1503 0 
L 191 3500 
z
" transform="scale(0.015625)"/>
      <path id="DejaVuSans-67" d="M 2906 1791 
Q 2906 2416 2648 2759 
Q 2391 3103 1925 3103 
Q 1463 3103 1205 2759 
Q 947 2416 947 1791 
Q 947 1169 1205 825 
Q 1463 481 1925 481 
Q 2391 481 2648 825 
Q 2906 1169 2906 1791 
z
M 3481 434 
Q 3481 -459 3084 -895 
Q 2688 -1331 1869 -1331 
Q 1566 -1331 1297 -1286 
Q 1028 -1241 775 -1147 
L 775 -588 
Q 1028 -725 1275 -790 
Q 1522 -856 1778 -856 
Q 2344 -856 2625 -561 
Q 2906 -266 2906 331 
L 2906 616 
Q 2728 306 2450 153 
Q 2172 0 1784 0 
Q 1141 0 747 490 
Q 353 981 353 1791 
Q 353 2603 747 3093 
Q 1141 3584 1784 3584 
Q 2172 3584 2450 3431 
Q 2728 3278 2906 2969 
L 2906 3500 
L 3481 3500 
L 3481 434 
z
" transform="scale(0.015625)"/>
      <path id="DejaVuSans-64" d="M 2906 2969 
L 2906 4863 
L 3481 4863 
L 3481 0 
L 2906 0 
L 2906 525 
Q 2725 213 2448 61 
Q 2172 -91 1784 -91 
Q 1150 -91 751 415 
Q 353 922 353 1747 
Q 353 2572 751 3078 
Q 1150 3584 1784 3584 
Q 2172 3584 2448 3432 
Q 2725 3281 2906 2969 
z
M 947 1747 
Q 947 1113 1208 752 
Q 1469 391 1925 391 
Q 2381 391 2643 752 
Q 2906 1113 2906 1747 
Q 2906 2381 2643 2742 
Q 2381 3103 1925 3103 
Q 1469 3103 1208 2742 
Q 947 2381 947 1747 
z
" transform="scale(0.015625)"/>
      <path id="DejaVuSans-62" d="M 3116 1747 
Q 3116 2381 2855 2742 
Q 2594 3103 2138 3103 
Q 1681 3103 1420 2742 
Q 1159 2381 1159 1747 
Q 1159 1113 1420 752 
Q 1681 391 2138 391 
Q 2594 391 2855 752 
Q 3116 1113 3116 1747 
z
M 1159 2969 
Q 1341 3281 1617 3432 
Q 1894 3584 2278 3584 
Q 2916 3584 3314 3078 
Q 3713 2572 3713 1747 
Q 3713 922 3314 415 
Q 2916 -91 2278 -91 
Q 1894 -91 1617 61 
Q 1341 213 1159 525 
L 1159 0 
L 581 0 
L 581 4863 
L 1159 4863 
L 1159 2969 
z
" transform="scale(0.015625)"/>
      <path id="DejaVuSans-66" d="M 2375 4863 
L 2375 4384 
L 1825 4384 
Q 1516 4384 1395 4259 
Q 1275 4134 1275 3809 
L 1275 3500 
L 2222 3500 
L 2222 3053 
L 1275 3053 
L 1275 0 
L 697 0 
L 697 3053 
L 147 3053 
L 147 3500 
L 697 3500 
L 697 3744 
Q 697 4328 969 4595 
Q 1241 4863 1831 4863 
L 2375 4863 
z
" transform="scale(0.015625)"/>
     </defs>
     <use xlink:href="#DejaVuSans-50"/>
     <use xlink:href="#DejaVuSans-6f" transform="translate(56.677734 0)"/>
     <use xlink:href="#DejaVuSans-70" transform="translate(117.859375 0)"/>
     <use xlink:href="#DejaVuSans-75" transform="translate(181.335938 0)"/>
     <use xlink:href="#DejaVuSans-6c" transform="translate(244.714844 0)"/>
     <use xlink:href="#DejaVuSans-61" transform="translate(272.498047 0)"/>
     <use xlink:href="#DejaVuSans-74" transform="translate(333.777344 0)"/>
     <use xlink:href="#DejaVuSans-69" transform="translate(372.986328 0)"/>
     <use xlink:href="#DejaVuSans-6f" transform="translate(400.769531 0)"/>
     <use xlink:href="#DejaVuSans-6e" transform="translate(461.951172 0)"/>
     <use xlink:href="#DejaVuSans-27" transform="translate(525.330078 0)"/>
     <use xlink:href="#DejaVuSans-73" transform="translate(552.820312 0)"/>
     <use xlink:href="#DejaVuSans-20" transform="translate(604.919922 0)"/>
     <use xlink:href="#DejaVuSans-61" transform="translate(636.707031 0)"/>
     <use xlink:href="#DejaVuSans-76" transform="translate(697.986328 0)"/>
     <use xlink:href="#DejaVuSans-65" transform="translate(757.166016 0)"/>
     <use xlink:href="#DejaVuSans-72" transform="translate(818.689453 0)"/>
     <use xlink:href="#DejaVuSans-61" transform="translate(859.802734 0)"/>
     <use xlink:href="#DejaVuSans-67" transform="translate(921.082031 0)"/>
     <use xlink:href="#DejaVuSans-65" transform="translate(984.558594 0)"/>
     <use xlink:href="#DejaVuSans-20" transform="translate(1046.082031 0)"/>
     <use xlink:href="#DejaVuSans-61" transform="translate(1077.869141 0)"/>
     <use xlink:href="#DejaVuSans-6e" transform="translate(1139.148438 0)"/>
     <use xlink:href="#DejaVuSans-64" transform="translate(1202.527344 0)"/>
     <use xlink:href="#DejaVuSans-20" transform="translate(1266.003906 0)"/>
     <use xlink:href="#DejaVuSans-62" transform="translate(1297.791016 0)"/>
     <use xlink:href="#DejaVuSans-65" transform="translate(1361.267578 0)"/>
     <use xlink:href="#DejaVuSans-73" transform="translate(1422.791016 0)"/>
     <use xlink:href="#DejaVuSans-74" transform="translate(1474.890625 0)"/>
     <use xlink:href="#DejaVuSans-20" transform="translate(1514.099609 0)"/>
     <use xlink:href="#DejaVuSans-66" transform="translate(1545.886719 0)"/>
     <use xlink:href="#DejaVuSans-69" transform="translate(1581.091797 0)"/>
     <use xlink:href="#DejaVuSans-74" transform="translate(1608.875 0)"/>
     <use xlink:href="#DejaVuSans-6e" transform="translate(1648.083984 0)"/>
     <use xlink:href="#DejaVuSans-65" transform="translate(1711.462891 0)"/>
     <use xlink:href="#DejaVuSans-73" transform="translate(1772.986328 0)"/>
     <use xlink:href="#DejaVuSans-73" transform="translate(1825.085938 0)"/>
    </g>
   </g>
   <g id="legend_1">
    <g id="patch_7">
     <path d="M 334.779375 302.584 
L 407.72 302.584 
Q 409.72 302.584 409.72 300.584 
L 409.72 257.549625 
Q 409.72 255.549625 407.72 255.549625 
L 334.779375 255.549625 
Q 332.779375 255.549625 332.779375 257.549625 
L 332.779375 300.584 
Q 332.779375 302.584 334.779375 302.584 
z
" style="fill: #ffffff; opacity: 0.8; stroke: #cccccc; stroke-linejoin: miter"/>
    </g>
    <g id="line2d_24">
     <path d="M 336.779375 263.648062 
L 346.779375 263.648062 
L 356.779375 263.648062 
" style="fill: none; stroke: #0000ff; stroke-width: 1.5; stroke-linecap: square"/>
    </g>
    <g id="text_14">
     <!-- average -->
     <g transform="translate(364.779375 267.148062) scale(0.1 -0.1)">
      <use xlink:href="#DejaVuSans-61"/>
      <use xlink:href="#DejaVuSans-76" transform="translate(61.279297 0)"/>
      <use xlink:href="#DejaVuSans-65" transform="translate(120.458984 0)"/>
      <use xlink:href="#DejaVuSans-72" transform="translate(181.982422 0)"/>
      <use xlink:href="#DejaVuSans-61" transform="translate(223.095703 0)"/>
      <use xlink:href="#DejaVuSans-67" transform="translate(284.375 0)"/>
      <use xlink:href="#DejaVuSans-65" transform="translate(347.851562 0)"/>
     </g>
    </g>
    <g id="line2d_25">
     <path d="M 336.779375 278.326188 
L 346.779375 278.326188 
L 356.779375 278.326188 
" style="fill: none; stroke-dasharray: 9.6,2.4,1.5,2.4; stroke-dashoffset: 0; stroke: #008000; stroke-width: 1.5"/>
    </g>
    <g id="text_15">
     <!-- +1 sd -->
     <g transform="translate(364.779375 281.826188) scale(0.1 -0.1)">
      <defs>
       <path id="DejaVuSans-2b" d="M 2944 4013 
L 2944 2272 
L 4684 2272 
L 4684 1741 
L 2944 1741 
L 2944 0 
L 2419 0 
L 2419 1741 
L 678 1741 
L 678 2272 
L 2419 2272 
L 2419 4013 
L 2944 4013 
z
" transform="scale(0.015625)"/>
      </defs>
      <use xlink:href="#DejaVuSans-2b"/>
      <use xlink:href="#DejaVuSans-31" transform="translate(83.789062 0)"/>
      <use xlink:href="#DejaVuSans-20" transform="translate(147.412109 0)"/>
      <use xlink:href="#DejaVuSans-73" transform="translate(179.199219 0)"/>
      <use xlink:href="#DejaVuSans-64" transform="translate(231.298828 0)"/>
     </g>
    </g>
    <g id="line2d_26">
     <path d="M 336.779375 293.004312 
L 346.779375 293.004312 
L 356.779375 293.004312 
" style="fill: none; stroke: #ff0000; stroke-width: 1.5; stroke-linecap: square"/>
    </g>
    <g id="text_16">
     <!-- best -->
     <g transform="translate(364.779375 296.504312) scale(0.1 -0.1)">
      <use xlink:href="#DejaVuSans-62"/>
      <use xlink:href="#DejaVuSans-65" transform="translate(63.476562 0)"/>
      <use xlink:href="#DejaVuSans-73" transform="translate(125 0)"/>
      <use xlink:href="#DejaVuSans-74" transform="translate(177.099609 0)"/>
     </g>
    </g>
   </g>
  </g>
 </g>
 <defs>
  <clipPath id="p12f92da726">
   <rect x="57.6" y="41.472" width="357.12" height="266.112"/>
  </clipPath>
 </defs>
</svg>
