<?xml version="1.0" encoding="utf-8" standalone="no"?>
<!DOCTYPE svg PUBLIC "-//W3C//DTD SVG 1.1//EN"
  "http://www.w3.org/Graphics/SVG/1.1/DTD/svg11.dtd">
<svg xmlns:xlink="http://www.w3.org/1999/xlink" width="460.8pt" height="345.6pt" viewBox="0 0 460.8 345.6" xmlns="http://www.w3.org/2000/svg" version="1.1">
 <metadata>
  <rdf:RDF xmlns:dc="http://purl.org/dc/elements/1.1/" xmlns:cc="http://creativecommons.org/ns#" xmlns:rdf="http://www.w3.org/1999/02/22-rdf-syntax-ns#">
   <cc:Work>
    <dc:type rdf:resource="http://purl.org/dc/dcmitype/StillImage"/>
    <dc:date>2026-04-11T23:28:36.181685</dc:date>
    <dc:format>image/svg+xml</dc:format>
    <dc:creator>
     <cc:Agent>
      <dc:title>Matplotlib v3.10.8, https://matplotlib.org/</dc:title>
     </cc:Agent>
    </dc:creator>
   </cc:Work>
  </rdf:RDF>
 </metadata>
 <defs>
  <style type="text/css">*{stroke-linejoin: round; stroke-linecap: butt}</style>
 </defs>
 <g id="figure_1">
  <g id="patch_1">
   <path d="M 0 345.6 
L 460.8 345.6 
L 460.8 0 
L 0 0 
z
" style="fill: #ffffff"/>
  </g>
  <g id="axes_1">
   <g id="patch_2">
    <path d="M 57.6 307.584 
L 414.72 307.584 
L 414.72 41.472 
L 57.6 41.472 
z
" style="fill: #ffffff"/>
   </g>
   <g id="matplotlib.axis_1">
    <g id="xtick_1">
     <g id="line2d_1">
      <path d="M 73.832727 307.584 
L 73.832727 41.472 
" clip-path="url(#p2495436364)" style="fill: none; stroke: #b0b0b0; stroke-width: 0.8; stroke-linecap: square"/>
     </g>
     <g id="line2d_2">
      <defs>
       <path id="m36e0d43c8f" d="M 0 0 
L 0 3.5 
" style="stroke: #000000; stroke-width: 0.8"/>
      </defs>
      <g>
       <use xlink:href="#m36e0d43c8f" x="73.832727" y="307.584" style="stroke: #000000; stroke-width: 0.8"/>
      </g>
     </g>
     <g id="text_1">
      <!-- 0 -->
      <g transform="translate(70.651477 322.182437) scale(0.1 -0.1)">
       <defs>
        <path id="DejaVuSans-30" d="M 2034 4250 
Q 1547 4250 1301 3770 
Q 1056 3291 1056 2328 
Q 1056 1369 1301 889 
Q 1547 409 2034 409 
Q 2525 409 2770 889 
Q 3016 1369 3016 2328 
Q 3016 3291 2770 3770 
Q 2525 4250 2034 4250 
z
M 2034 4750 
Q 2819 4750 3233 4129 
Q 3647 3509 3647 2328 
Q 3647 1150 3233 529 
Q 2819 -91 2034 -91 
Q 1250 -91 836 529 
Q 422 1150 422 2328 
Q 422 3509 836 4129 
Q 1250 4750 2034 4750 
z
" transform="scale(0.015625)"/>
       </defs>
       <use xlink:href="#DejaVuSans-30"/>
      </g>
     </g>
    </g>
    <g id="xtick_2">
     <g id="line2d_3">
      <path d="M 114.618474 307.584 
L 114.618474 41.472 
" clip-path="url(#p2495436364)" style="fill: none; stroke: #b0b0b0; stroke-width: 0.8; stroke-linecap: square"/>
     </g>
     <g id="line2d_4">
      <g>
       <use xlink:href="#m36e0d43c8f" x="114.618474" y="307.584" style="stroke: #000000; stroke-width: 0.8"/>
      </g>
     </g>
     <g id="text_2">
      <!-- 25 -->
      <g transform="translate(108.255974 322.182437) scale(0.1 -0.1)">
       <defs>
        <path id="DejaVuSans-32" d="M 1228 531 
L 3431 531 
L 3431 0 
L 469 0 
L 469 531 
Q 828 903 1448 1529 
Q 2069 2156 2228 2338 
Q 2531 2678 2651 2914 
Q 2772 3150 2772 3378 
Q 2772 3750 2511 3984 
Q 2250 4219 1831 4219 
Q 1534 4219 1204 4116 
Q 875 4013 500 3803 
L 500 4441 
Q 881 4594 1212 4672 
Q 1544 4750 1819 4750 
Q 2544 4750 2975 4387 
Q 3406 4025 3406 3419 
Q 3406 3131 3298 2873 
Q 3191 2616 2906 2266 
Q 2828 2175 2409 1742 
Q 1991 1309 1228 531 
z
" transform="scale(0.015625)"/>
        <path id="DejaVuSans-35" d="M 691 4666 
L 3169 4666 
L 3169 4134 
L 1269 4134 
L 1269 2991 
Q 1406 3038 1543 3061 
Q 1681 3084 1819 3084 
Q 2600 3084 3056 2656 
Q 3513 2228 3513 1497 
Q 3513 744 3044 326 
Q 2575 -91 1722 -91 
Q 1428 -91 1123 -41 
Q 819 9 494 109 
L 494 744 
Q 775 591 1075 516 
Q 1375 441 1709 441 
Q 2250 441 2565 725 
Q 2881 1009 2881 1497 
Q 2881 1984 2565 2268 
Q 2250 2553 1709 2553 
Q 1456 2553 1204 2497 
Q 953 2441 691 2322 
L 691 4666 
z
" transform="scale(0.015625)"/>
       </defs>
       <use xlink:href="#DejaVuSans-32"/>
       <use xlink:href="#DejaVuSans-35" transform="translate(63.623047 0)"/>
      </g>
     </g>
    </g>
    <g id="xtick_3">
     <g id="line2d_5">
      <path d="M 155.404221 307.584 
L 155.404221 41.472 
" clip-path="url(#p2495436364)" style="fill: none; stroke: #b0b0b0; stroke-width: 0.8; stroke-linecap: square"/>
     </g>
     <g id="line2d_6">
      <g>
       <use xlink:href="#m36e0d43c8f" x="155.404221" y="307.584" style="stroke: #000000; stroke-width: 0.8"/>
      </g>
     </g>
     <g id="text_3">
      <!-- 50 -->
      <g transform="translate(149.041721 322.182437) scale(0.1 -0.1)">
       <use xlink:href="#DejaVuSans-35"/>
       <use xlink:href="#DejaVuSans-30" transform="translate(63.623047 0)"/>
      </g>
     </g>
    </g>
    <g id="xtick_4">
     <g id="line2d_7">
      <path d="M 196.189968 307.584 
L 196.189968 41.472 
" clip-path="url(#p2495436364)" style="fill: none; stroke: #b0b0b0; stroke-width: 0.8; stroke-linecap: square"/>
     </g>
     <g id="line2d_8">
      <g>
       <use xlink:href="#m36e0d43c8f" x="196.189968" y="307.584" style="stroke: #000000; stroke-width: 0.8"/>
      </g>
     </g>
     <g id="text_4">
      <!-- 75 -->
      <g transform="translate(189.827468 322.182437) scale(0.1 -0.1)">
       <defs>
        <path id="DejaVuSans-37" d="M 525 4666 
L 3525 4666 
L 3525 4397 
L 1831 0 
L 1172 0 
L 2766 4134 
L 525 4134 
L 525 4666 
z
" transform="scale(0.015625)"/>
       </defs>
       <use xlink:href="#DejaVuSans-37"/>
       <use xlink:href="#DejaVuSans-35" transform="translate(63.623047 0)"/>
      </g>
     </g>
    </g>
    <g id="xtick_5">
     <g id="line2d_9">
      <path d="M 236.975715 307.584 
L 236.975715 41.472 
" clip-path="url(#p2495436364)" style="fill: none; stroke: #b0b0b0; stroke-width: 0.8; stroke-linecap: square"/>
     </g>
     <g id="line2d_10">
      <g>
       <use xlink:href="#m36e0d43c8f" x="236.975715" y="307.584" style="stroke: #000000; stroke-width: 0.8"/>
      </g>
     </g>
     <g id="text_5">
      <!-- 100 -->
      <g transform="translate(227.431965 322.182437) scale(0.1 -0.1)">
       <defs>
        <path id="DejaVuSans-31" d="M 794 531 
L 1825 531 
L 1825 4091 
L 703 3866 
L 703 4441 
L 1819 4666 
L 2450 4666 
L 2450 531 
L 3481 531 
L 3481 0 
L 794 0 
L 794 531 
z
" transform="scale(0.015625)"/>
       </defs>
       <use xlink:href="#DejaVuSans-31"/>
       <use xlink:href="#DejaVuSans-30" transform="translate(63.623047 0)"/>
       <use xlink:href="#DejaVuSans-30" transform="translate(127.246094 0)"/>
      </g>
     </g>
    </g>
    <g id="xtick_6">
     <g id="line2d_11">
      <path d="M 277.761462 307.584 
L 277.761462 41.472 
" clip-path="url(#p2495436364)" style="fill: none; stroke: #b0b0b0; stroke-width: 0.8; stroke-linecap: square"/>
     </g>
     <g id="line2d_12">
      <g>
       <use xlink:href="#m36e0d43c8f" x="277.761462" y="307.584" style="stroke: #000000; stroke-width: 0.8"/>
      </g>
     </g>
     <g id="text_6">
      <!-- 125 -->
      <g transform="translate(268.217712 322.182437) scale(0.1 -0.1)">
       <use xlink:href="#DejaVuSans-31"/>
       <use xlink:href="#DejaVuSans-32" transform="translate(63.623047 0)"/>
       <use xlink:href="#DejaVuSans-35" transform="translate(127.246094 0)"/>
      </g>
     </g>
    </g>
    <g id="xtick_7">
     <g id="line2d_13">
      <path d="M 318.547209 307.584 
L 318.547209 41.472 
" clip-path="url(#p2495436364)" style="fill: none; stroke: #b0b0b0; stroke-width: 0.8; stroke-linecap: square"/>
     </g>
     <g id="line2d_14">
      <g>
       <use xlink:href="#m36e0d43c8f" x="318.547209" y="307.584" style="stroke: #000000; stroke-width: 0.8"/>
      </g>
     </g>
     <g id="text_7">
      <!-- 150 -->
      <g transform="translate(309.003459 322.182437) scale(0.1 -0.1)">
       <use xlink:href="#DejaVuSans-31"/>
       <use xlink:href="#DejaVuSans-35" transform="translate(63.623047 0)"/>
       <use xlink:href="#DejaVuSans-30" transform="translate(127.246094 0)"/>
      </g>
     </g>
    </g>
    <g id="xtick_8">
     <g id="line2d_15">
      <path d="M 359.332956 307.584 
L 359.332956 41.472 
" clip-path="url(#p2495436364)" style="fill: none; stroke: #b0b0b0; stroke-width: 0.8; stroke-linecap: square"/>
     </g>
     <g id="line2d_16">
      <g>
       <use xlink:href="#m36e0d43c8f" x="359.332956" y="307.584" style="stroke: #000000; stroke-width: 0.8"/>
      </g>
     </g>
     <g id="text_8">
      <!-- 175 -->
      <g transform="translate(349.789206 322.182437) scale(0.1 -0.1)">
       <use xlink:href="#DejaVuSans-31"/>
       <use xlink:href="#DejaVuSans-37" transform="translate(63.623047 0)"/>
       <use xlink:href="#DejaVuSans-35" transform="translate(127.246094 0)"/>
      </g>
     </g>
    </g>
    <g id="xtick_9">
     <g id="line2d_17">
      <path d="M 400.118703 307.584 
L 400.118703 41.472 
" clip-path="url(#p2495436364)" style="fill: none; stroke: #b0b0b0; stroke-width: 0.8; stroke-linecap: square"/>
     </g>
     <g id="line2d_18">
      <g>
       <use xlink:href="#m36e0d43c8f" x="400.118703" y="307.584" style="stroke: #000000; stroke-width: 0.8"/>
      </g>
     </g>
     <g id="text_9">
      <!-- 200 -->
      <g transform="translate(390.574953 322.182437) scale(0.1 -0.1)">
       <use xlink:href="#DejaVuSans-32"/>
       <use xlink:href="#DejaVuSans-30" transform="translate(63.623047 0)"/>
       <use xlink:href="#DejaVuSans-30" transform="translate(127.246094 0)"/>
      </g>
     </g>
    </g>
    <g id="text_10">
     <!-- Generations -->
     <g transform="translate(205.662344 335.860562) scale(0.1 -0.1)">
      <defs>
       <path id="DejaVuSans-47" d="M 3809 666 
L 3809 1919 
L 2778 1919 
L 2778 2438 
L 4434 2438 
L 4434 434 
Q 4069 175 3628 42 
Q 3188 -91 2688 -91 
Q 1594 -91 976 548 
Q 359 1188 359 2328 
Q 359 3472 976 4111 
Q 1594 4750 2688 4750 
Q 3144 4750 3555 4637 
Q 3966 4525 4313 4306 
L 4313 3634 
Q 3963 3931 3569 4081 
Q 3175 4231 2741 4231 
Q 1884 4231 1454 3753 
Q 1025 3275 1025 2328 
Q 1025 1384 1454 906 
Q 1884 428 2741 428 
Q 3075 428 3337 486 
Q 3600 544 3809 666 
z
" transform="scale(0.015625)"/>
       <path id="DejaVuSans-65" d="M 3597 1894 
L 3597 1613 
L 953 1613 
Q 991 1019 1311 708 
Q 1631 397 2203 397 
Q 2534 397 2845 478 
Q 3156 559 3463 722 
L 3463 178 
Q 3153 47 2828 -22 
Q 2503 -91 2169 -91 
Q 1331 -91 842 396 
Q 353 884 353 1716 
Q 353 2575 817 3079 
Q 1281 3584 2069 3584 
Q 2775 3584 3186 3129 
Q 3597 2675 3597 1894 
z
M 3022 2063 
Q 3016 2534 2758 2815 
Q 2500 3097 2075 3097 
Q 1594 3097 1305 2825 
Q 1016 2553 972 2059 
L 3022 2063 
z
" transform="scale(0.015625)"/>
       <path id="DejaVuSans-6e" d="M 3513 2113 
L 3513 0 
L 2938 0 
L 2938 2094 
Q 2938 2591 2744 2837 
Q 2550 3084 2163 3084 
Q 1697 3084 1428 2787 
Q 1159 2491 1159 1978 
L 1159 0 
L 581 0 
L 581 3500 
L 1159 3500 
L 1159 2956 
Q 1366 3272 1645 3428 
Q 1925 3584 2291 3584 
Q 2894 3584 3203 3211 
Q 3513 2838 3513 2113 
z
" transform="scale(0.015625)"/>
       <path id="DejaVuSans-72" d="M 2631 2963 
Q 2534 3019 2420 3045 
Q 2306 3072 2169 3072 
Q 1681 3072 1420 2755 
Q 1159 2438 1159 1844 
L 1159 0 
L 581 0 
L 581 3500 
L 1159 3500 
L 1159 2956 
Q 1341 3275 1631 3429 
Q 1922 3584 2338 3584 
Q 2397 3584 2469 3576 
Q 2541 3569 2628 3553 
L 2631 2963 
z
" transform="scale(0.015625)"/>
       <path id="DejaVuSans-61" d="M 2194 1759 
Q 1497 1759 1228 1600 
Q 959 1441 959 1056 
Q 959 750 1161 570 
Q 1363 391 1709 391 
Q 2188 391 2477 730 
Q 2766 1069 2766 1631 
L 2766 1759 
L 2194 1759 
z
M 3341 1997 
L 3341 0 
L 2766 0 
L 2766 531 
Q 2569 213 2275 61 
Q 1981 -91 1556 -91 
Q 1019 -91 701 211 
Q 384 513 384 1019 
Q 384 1609 779 1909 
Q 1175 2209 1959 2209 
L 2766 2209 
L 2766 2266 
Q 2766 2663 2505 2880 
Q 2244 3097 1772 3097 
Q 1472 3097 1187 3025 
Q 903 2953 641 2809 
L 641 3341 
Q 956 3463 1253 3523 
Q 1550 3584 1831 3584 
Q 2591 3584 2966 3190 
Q 3341 2797 3341 1997 
z
" transform="scale(0.015625)"/>
       <path id="DejaVuSans-74" d="M 1172 4494 
L 1172 3500 
L 2356 3500 
L 2356 3053 
L 1172 3053 
L 1172 1153 
Q 1172 725 1289 603 
Q 1406 481 1766 481 
L 2356 481 
L 2356 0 
L 1766 0 
Q 1100 0 847 248 
Q 594 497 594 1153 
L 594 3053 
L 172 3053 
L 172 3500 
L 594 3500 
L 594 4494 
L 1172 4494 
z
" transform="scale(0.015625)"/>
       <path id="DejaVuSans-69" d="M 603 3500 
L 1178 3500 
L 1178 0 
L 603 0 
L 603 3500 
z
M 603 4863 
L 1178 4863 
L 1178 4134 
L 603 4134 
L 603 4863 
z
" transform="scale(0.015625)"/>
       <path id="DejaVuSans-6f" d="M 1959 3097 
Q 1497 3097 1228 2736 
Q 959 2375 959 1747 
Q 959 1119 1226 758 
Q 1494 397 1959 397 
Q 2419 397 2687 759 
Q 2956 1122 2956 1747 
Q 2956 2369 2687 2733 
Q 2419 3097 1959 3097 
z
M 1959 3584 
Q 2709 3584 3137 3096 
Q 3566 2609 3566 1747 
Q 3566 888 3137 398 
Q 2709 -91 1959 -91 
Q 1206 -91 779 398 
Q 353 888 353 1747 
Q 353 2609 779 3096 
Q 1206 3584 1959 3584 
z
" transform="scale(0.015625)"/>
       <path id="DejaVuSans-73" d="M 2834 3397 
L 2834 2853 
Q 2591 2978 2328 3040 
Q 2066 3103 1784 3103 
Q 1356 3103 1142 2972 
Q 928 2841 928 2578 
Q 928 2378 1081 2264 
Q 1234 2150 1697 2047 
L 1894 2003 
Q 2506 1872 2764 1633 
Q 3022 1394 3022 966 
Q 3022 478 2636 193 
Q 2250 -91 1575 -91 
Q 1294 -91 989 -36 
Q 684 19 347 128 
L 347 722 
Q 666 556 975 473 
Q 1284 391 1588 391 
Q 1994 391 2212 530 
Q 2431 669 2431 922 
Q 2431 1156 2273 1281 
Q 2116 1406 1581 1522 
L 1381 1569 
Q 847 1681 609 1914 
Q 372 2147 372 2553 
Q 372 3047 722 3315 
Q 1072 3584 1716 3584 
Q 2034 3584 2315 3537 
Q 2597 3491 2834 3397 
z
" transform="scale(0.015625)"/>
      </defs>
      <use xlink:href="#DejaVuSans-47"/>
      <use xlink:href="#DejaVuSans-65" transform="translate(77.490234 0)"/>
      <use xlink:href="#DejaVuSans-6e" transform="translate(139.013672 0)"/>
      <use xlink:href="#DejaVuSans-65" transform="translate(202.392578 0)"/>
      <use xlink:href="#DejaVuSans-72" transform="translate(263.916016 0)"/>
      <use xlink:href="#DejaVuSans-61" transform="translate(305.029297 0)"/>
      <use xlink:href="#DejaVuSans-74" transform="translate(366.308594 0)"/>
      <use xlink:href="#DejaVuSans-69" transform="translate(405.517578 0)"/>
      <use xlink:href="#DejaVuSans-6f" transform="translate(433.300781 0)"/>
      <use xlink:href="#DejaVuSans-6e" transform="translate(494.482422 0)"/>
      <use xlink:href="#DejaVuSans-73" transform="translate(557.861328 0)"/>
     </g>
    </g>
   </g>
   <g id="matplotlib.axis_2">
    <g id="ytick_1">
     <g id="line2d_19">
      <path d="M 57.6 118.65483 
L 414.72 118.65483 
" clip-path="url(#p2495436364)" style="fill: none; stroke: #b0b0b0; stroke-width: 0.8; stroke-linecap: square"/>
     </g>
     <g id="line2d_20">
      <defs>
       <path id="m50fed6c165" d="M 0 0 
L -3.5 0 
" style="stroke: #000000; stroke-width: 0.8"/>
      </defs>
      <g>
       <use xlink:href="#m50fed6c165" x="57.6" y="118.65483" style="stroke: #000000; stroke-width: 0.8"/>
      </g>
     </g>
     <g id="text_11">
      <!-- $\mathdefault{10^{2}}$ -->
      <g transform="translate(33 122.454049) scale(0.1 -0.1)">
       <use xlink:href="#DejaVuSans-31" transform="translate(0 0.765625)"/>
       <use xlink:href="#DejaVuSans-30" transform="translate(63.623047 0.765625)"/>
       <use xlink:href="#DejaVuSans-32" transform="translate(128.203125 39.046875) scale(0.7)"/>
      </g>
     </g>
    </g>
    <g id="text_12">
     <!-- Fitness -->
     <g transform="translate(26.920312 191.845187) rotate(-90) scale(0.1 -0.1)">
      <defs>
       <path id="DejaVuSans-46" d="M 628 4666 
L 3309 4666 
L 3309 4134 
L 1259 4134 
L 1259 2759 
L 3109 2759 
L 3109 2228 
L 1259 2228 
L 1259 0 
L 628 0 
L 628 4666 
z
" transform="scale(0.015625)"/>
      </defs>
      <use xlink:href="#DejaVuSans-46"/>
      <use xlink:href="#DejaVuSans-69" transform="translate(50.269531 0)"/>
      <use xlink:href="#DejaVuSans-74" transform="translate(78.052734 0)"/>
      <use xlink:href="#DejaVuSans-6e" transform="translate(117.261719 0)"/>
      <use xlink:href="#DejaVuSans-65" transform="translate(180.640625 0)"/>
      <use xlink:href="#DejaVuSans-73" transform="translate(242.164062 0)"/>
      <use xlink:href="#DejaVuSans-73" transform="translate(294.263672 0)"/>
     </g>
    </g>
   </g>
   <g id="line2d_21">
    <path d="M 73.832727 295.488 
L 75.464157 282.661783 
L 77.095587 280.15344 
L 78.727017 283.554659 
L 80.358447 277.449196 
L 81.989877 278.425833 
L 83.621307 274.988941 
L 85.252736 270.711606 
L 86.884166 274.332886 
L 88.515596 271.583582 
L 90.147026 273.504529 
L 91.778456 272.547963 
L 93.409886 268.714893 
L 95.041316 266.843933 
L 96.672746 269.293828 
L 98.304175 266.29823 
L 99.935605 268.479869 
L 101.567035 265.953138 
L 103.198465 263.964202 
L 104.829895 263.658021 
L 106.461325 264.14764 
L 108.092755 263.122949 
L 109.724185 265.855962 
L 111.355614 263.605896 
L 112.987044 263.462473 
L 114.618474 265.312494 
L 116.249904 258.843652 
L 117.881334 260.360708 
L 119.512764 260.619464 
L 121.144194 261.884053 
L 122.775624 262.105144 
L 124.407053 260.195074 
L 126.038483 257.474845 
L 127.669913 257.149323 
L 129.301343 251.557543 
L 130.932773 255.884794 
L 132.564203 255.731241 
L 134.195633 253.36561 
L 135.827063 257.21305 
L 137.458492 255.37895 
L 139.089922 257.190314 
L 140.721352 257.992798 
L 142.352782 261.088692 
L 143.984212 258.463027 
L 145.615642 258.396874 
L 147.247072 256.402716 
L 148.878502 255.525132 
L 150.509931 253.298473 
L 152.141361 256.189245 
L 153.772791 252.11515 
L 155.404221 250.763476 
L 157.035651 252.497701 
L 158.667081 255.824649 
L 160.298511 253.251063 
L 161.929941 252.991268 
L 165.1928 255.174282 
L 166.82423 251.266605 
L 168.45566 253.009584 
L 170.08709 256.110626 
L 171.71852 254.551484 
L 173.34995 250.809279 
L 174.98138 251.676688 
L 176.61281 250.990862 
L 178.244239 249.39016 
L 179.875669 248.27451 
L 181.507099 251.522292 
L 183.138529 252.593319 
L 184.769959 252.777203 
L 186.401389 253.094412 
L 188.032819 255.345548 
L 189.664249 252.888636 
L 191.295678 252.725255 
L 192.927108 251.799728 
L 194.558538 250.476838 
L 196.189968 248.168218 
L 197.821398 251.449977 
L 199.452828 253.209748 
L 201.084258 252.409905 
L 202.715688 251.112014 
L 204.347117 251.482991 
L 205.978547 250.360585 
L 207.609977 248.918826 
L 209.241407 248.754705 
L 210.872837 247.367599 
L 212.504267 246.526855 
L 214.135697 248.702816 
L 215.767127 251.40429 
L 217.398556 246.506597 
L 219.029986 247.195001 
L 220.661416 245.816904 
L 222.292846 249.93787 
L 223.924276 248.538633 
L 225.555706 244.817206 
L 227.187136 250.345656 
L 228.818566 249.489599 
L 230.449995 248.186826 
L 232.081425 250.245145 
L 233.712855 252.721663 
L 235.344285 247.274663 
L 236.975715 248.889116 
L 238.607145 246.200397 
L 240.238575 245.504342 
L 241.870005 245.848683 
L 243.501434 246.791152 
L 245.132864 248.441669 
L 246.764294 247.232033 
L 248.395724 248.448116 
L 250.027154 246.74104 
L 251.658584 246.530959 
L 253.290014 246.023428 
L 254.921444 248.057384 
L 256.552873 247.023973 
L 258.184303 248.354712 
L 259.815733 248.523283 
L 261.447163 247.066985 
L 263.078593 248.201158 
L 264.710023 247.020917 
L 266.341453 247.201559 
L 267.972883 246.419148 
L 269.604312 247.924188 
L 271.235742 247.826829 
L 272.867172 247.533326 
L 274.498602 245.984709 
L 276.130032 246.089916 
L 277.761462 245.681532 
L 279.392892 248.387056 
L 281.024322 248.682999 
L 282.655751 246.382162 
L 284.287181 248.466094 
L 285.918611 244.023019 
L 287.550041 245.311488 
L 289.181471 248.453717 
L 290.812901 244.3825 
L 292.444331 248.088591 
L 294.075761 247.027415 
L 297.33862 247.527123 
L 298.97005 247.153643 
L 300.60148 246.171993 
L 302.23291 247.887332 
L 303.86434 247.546938 
L 305.49577 248.919026 
L 307.1272 247.883087 
L 308.75863 246.325146 
L 310.390059 246.48946 
L 312.021489 246.184451 
L 313.652919 245.243944 
L 315.284349 248.409591 
L 316.915779 243.769392 
L 318.547209 248.634089 
L 320.178639 247.057187 
L 321.810069 248.260959 
L 323.441498 247.167359 
L 325.072928 246.272786 
L 326.704358 246.939224 
L 328.335788 245.836512 
L 329.967218 246.605324 
L 331.598648 246.805103 
L 333.230078 246.553005 
L 334.861508 245.7175 
L 336.492937 244.534913 
L 338.124367 245.614132 
L 339.755797 244.363754 
L 341.387227 245.37236 
L 343.018657 248.146243 
L 344.650087 248.501994 
L 346.281517 247.478247 
L 347.912947 248.137006 
L 349.544376 246.701017 
L 351.175806 245.881673 
L 352.807236 249.732001 
L 354.438666 245.833775 
L 356.070096 246.375653 
L 357.701526 242.753403 
L 359.332956 245.859799 
L 360.964386 248.527992 
L 362.595815 248.262352 
L 364.227245 248.277167 
L 365.858675 244.365993 
L 367.490105 247.821656 
L 369.121535 250.396622 
L 370.752965 246.045319 
L 372.384395 246.193823 
L 374.015825 245.536083 
L 375.647254 247.774801 
L 377.278684 246.169564 
L 378.910114 244.119387 
L 380.541544 243.043433 
L 382.172974 245.867586 
L 383.804404 246.953878 
L 385.435834 246.756743 
L 387.067264 248.803417 
L 388.698693 246.640684 
L 390.330123 245.352325 
L 391.961553 250.126729 
L 393.592983 247.367946 
L 396.855843 248.805794 
L 398.487273 245.391343 
L 398.487273 245.391343 
" clip-path="url(#p2495436364)" style="fill: none; stroke: #0000ff; stroke-width: 1.5; stroke-linecap: square"/>
   </g>
   <g id="line2d_22">
    <path d="M 73.832727 243.59521 
L 75.464157 228.403441 
L 77.095587 222.101136 
L 78.727017 226.335517 
L 80.358447 217.402924 
L 81.989877 219.764692 
L 83.621307 214.809185 
L 85.252736 209.485215 
L 86.884166 215.219921 
L 88.515596 212.260019 
L 90.147026 213.939275 
L 91.778456 213.458666 
L 93.409886 209.404686 
L 95.041316 207.386498 
L 96.672746 209.733369 
L 98.304175 205.939662 
L 99.935605 209.590191 
L 101.567035 203.990928 
L 103.198465 203.481366 
L 104.829895 202.411108 
L 106.461325 202.782831 
L 108.092755 199.884316 
L 109.724185 206.5156 
L 111.355614 202.929854 
L 112.987044 204.388786 
L 114.618474 204.939888 
L 116.249904 195.46134 
L 117.881334 200.804373 
L 119.512764 199.013156 
L 121.144194 199.1963 
L 122.775624 200.56937 
L 124.407053 197.912343 
L 126.038483 198.103347 
L 127.669913 195.618447 
L 129.301343 189.694473 
L 130.932773 196.693821 
L 132.564203 194.959086 
L 134.195633 190.891851 
L 135.827063 195.320578 
L 137.458492 192.848535 
L 139.089922 196.430959 
L 140.721352 200.343991 
L 142.352782 201.15968 
L 143.984212 199.899194 
L 145.615642 200.890824 
L 147.247072 197.810708 
L 148.878502 193.891498 
L 150.509931 192.395323 
L 152.141361 195.472495 
L 153.772791 191.299574 
L 155.404221 188.272184 
L 157.035651 190.392381 
L 158.667081 196.370763 
L 160.298511 190.630569 
L 161.929941 191.515216 
L 163.56137 194.535943 
L 165.1928 196.712594 
L 166.82423 188.551907 
L 168.45566 193.38488 
L 170.08709 196.437845 
L 171.71852 194.300605 
L 173.34995 190.789823 
L 174.98138 193.133509 
L 176.61281 190.108508 
L 178.244239 188.894378 
L 179.875669 188.654224 
L 181.507099 192.835891 
L 183.138529 194.366783 
L 184.769959 194.474677 
L 186.401389 195.011288 
L 188.032819 197.766174 
L 189.664249 194.394226 
L 191.295678 191.734924 
L 192.927108 191.378013 
L 194.558538 190.85229 
L 196.189968 187.778967 
L 197.821398 193.225249 
L 199.452828 194.832835 
L 201.084258 191.992175 
L 202.715688 193.618182 
L 205.978547 190.633659 
L 207.609977 189.554015 
L 209.241407 189.598868 
L 210.872837 186.862568 
L 212.504267 186.415811 
L 214.135697 190.80764 
L 215.767127 192.854191 
L 217.398556 186.761953 
L 219.029986 188.249635 
L 220.661416 187.265847 
L 222.292846 192.53031 
L 225.555706 185.983961 
L 227.187136 189.499943 
L 228.818566 188.598042 
L 230.449995 189.22323 
L 232.081425 189.968467 
L 233.712855 196.919147 
L 235.344285 188.828054 
L 236.975715 188.681447 
L 238.607145 187.453288 
L 240.238575 186.9341 
L 241.870005 187.12418 
L 243.501434 189.045881 
L 245.132864 190.33674 
L 246.764294 189.911811 
L 248.395724 190.521093 
L 250.027154 187.230058 
L 251.658584 186.944081 
L 253.290014 186.12367 
L 254.921444 190.056585 
L 256.552873 189.228829 
L 258.184303 190.958427 
L 261.447163 190.042751 
L 264.710023 188.558847 
L 266.341453 188.41256 
L 267.972883 187.527041 
L 269.604312 191.633768 
L 271.235742 188.997123 
L 272.867172 187.674155 
L 274.498602 187.880251 
L 276.130032 188.532582 
L 277.761462 187.353351 
L 279.392892 190.892786 
L 281.024322 189.187955 
L 282.655751 188.526272 
L 284.287181 190.110951 
L 285.918611 184.00858 
L 287.550041 185.790175 
L 289.181471 190.074813 
L 290.812901 185.291792 
L 292.444331 190.850162 
L 294.075761 187.729564 
L 295.70719 190.017434 
L 297.33862 190.242912 
L 298.97005 189.132617 
L 300.60148 186.551944 
L 302.23291 191.465925 
L 303.86434 189.845118 
L 305.49577 191.148985 
L 307.1272 189.929981 
L 308.75863 188.098448 
L 310.390059 190.080584 
L 312.021489 185.619067 
L 313.652919 188.031377 
L 315.284349 191.261456 
L 316.915779 184.998476 
L 318.547209 191.257669 
L 320.178639 188.916695 
L 321.810069 190.599521 
L 323.441498 189.663432 
L 325.072928 187.377092 
L 326.704358 190.728235 
L 328.335788 186.086663 
L 329.967218 189.386217 
L 333.230078 187.834144 
L 334.861508 187.043831 
L 336.492937 184.813817 
L 338.124367 188.351389 
L 339.755797 183.314322 
L 341.387227 188.398056 
L 343.018657 190.887823 
L 344.650087 190.614502 
L 346.281517 190.656461 
L 347.912947 187.967818 
L 349.544376 189.352595 
L 351.175806 188.21829 
L 352.807236 191.879672 
L 354.438666 188.312412 
L 356.070096 186.843067 
L 357.701526 183.131876 
L 359.332956 187.664421 
L 360.964386 191.824335 
L 362.595815 191.034151 
L 364.227245 189.293252 
L 365.858675 184.802092 
L 367.490105 191.368717 
L 369.121535 193.950732 
L 370.752965 187.930858 
L 372.384395 187.151769 
L 374.015825 186.981007 
L 375.647254 190.635171 
L 377.278684 189.042846 
L 378.910114 184.996506 
L 380.541544 183.463926 
L 382.172974 188.434048 
L 383.804404 188.866146 
L 385.435834 190.429917 
L 387.067264 192.635108 
L 388.698693 188.056567 
L 390.330123 187.471564 
L 391.961553 194.691586 
L 393.592983 190.969281 
L 395.224413 191.953901 
L 396.855843 190.831002 
L 398.487273 188.125422 
L 398.487273 188.125422 
" clip-path="url(#p2495436364)" style="fill: none; stroke-dasharray: 9.6,2.4,1.5,2.4; stroke-dashoffset: 0; stroke: #008000; stroke-width: 1.5"/>
   </g>
   <g id="line2d_23">
    <path d="M 73.832727 129.07802 
L 75.464157 123.045199 
L 77.095587 122.90429 
L 78.727017 107.01773 
L 83.621307 122.810839 
L 85.252736 96.660636 
L 86.884166 117.709381 
L 88.515596 122.711678 
L 90.147026 111.923719 
L 91.778456 112.032861 
L 93.409886 91.595638 
L 95.041316 122.825059 
L 96.672746 101.718146 
L 98.304175 122.752563 
L 101.567035 101.498855 
L 103.198465 117.107112 
L 104.829895 87.311853 
L 106.461325 123.159377 
L 108.092755 73.642921 
L 109.724185 111.953847 
L 111.355614 106.269647 
L 112.987044 107.141439 
L 114.618474 112.224905 
L 116.249904 106.633475 
L 117.881334 134.72234 
L 119.512764 106.628298 
L 121.144194 101.587336 
L 122.775624 106.376452 
L 124.407053 96.518688 
L 126.038483 111.766311 
L 127.669913 117.174437 
L 129.301343 65.129014 
L 130.932773 96.628649 
L 132.564203 122.60229 
L 134.195633 91.706091 
L 137.458492 112.425727 
L 139.089922 102.595295 
L 140.721352 129.061594 
L 142.352782 91.758799 
L 143.984212 101.725183 
L 145.615642 128.222491 
L 147.247072 112.273085 
L 148.878502 87.017967 
L 150.509931 96.529634 
L 152.141361 117.848892 
L 153.772791 77.918748 
L 155.404221 106.845673 
L 157.035651 87.672403 
L 158.667081 106.877402 
L 160.298511 92.085721 
L 161.929941 96.222514 
L 163.56137 101.985646 
L 165.1928 122.838612 
L 166.82423 60.786314 
L 168.45566 117.301569 
L 170.08709 102.382133 
L 171.71852 117.314694 
L 173.34995 111.93003 
L 174.98138 101.821626 
L 176.61281 97.52447 
L 178.244239 91.794795 
L 179.875669 106.628744 
L 181.507099 106.855493 
L 183.138529 112.175377 
L 184.769959 106.706782 
L 186.401389 101.989704 
L 188.032819 102.209955 
L 189.664249 117.758574 
L 191.295678 73.589699 
L 192.927108 87.340791 
L 194.558538 106.433763 
L 196.189968 101.602552 
L 197.821398 111.223054 
L 199.452828 117.273293 
L 201.084258 82.720509 
L 202.715688 128.73394 
L 204.347117 91.65054 
L 205.978547 96.66043 
L 207.609977 102.143587 
L 209.241407 106.463741 
L 210.872837 102.157473 
L 212.504267 91.735492 
L 214.135697 106.957662 
L 215.767127 107.042717 
L 217.398556 101.987367 
L 219.029986 122.607407 
L 222.292846 111.535663 
L 223.924276 101.52443 
L 225.555706 96.157655 
L 227.187136 96.410524 
L 228.818566 96.47558 
L 230.449995 96.836619 
L 232.081425 82.695016 
L 233.712855 106.686358 
L 235.344285 96.520191 
L 236.975715 92.142128 
L 238.607145 96.908508 
L 241.870005 117.873643 
L 243.501434 106.708622 
L 245.132864 106.569304 
L 246.764294 107.108021 
L 248.395724 96.489368 
L 250.027154 111.591383 
L 251.658584 102.163179 
L 253.290014 91.991029 
L 254.921444 101.759651 
L 256.552873 96.661528 
L 258.184303 122.750673 
L 259.815733 87.762183 
L 261.447163 101.362023 
L 263.078593 96.361679 
L 264.710023 78.006196 
L 266.341453 106.528444 
L 267.972883 123.444559 
L 269.604312 112.078484 
L 271.235742 69.289623 
L 272.867172 82.43729 
L 274.498602 106.885107 
L 276.130032 106.892493 
L 277.761462 101.663515 
L 279.392892 101.561204 
L 281.024322 77.620689 
L 282.655751 102.504006 
L 284.287181 91.706586 
L 285.918611 61.97119 
L 287.550041 96.793865 
L 289.181471 106.836697 
L 290.812901 101.128235 
L 292.444331 123.047276 
L 294.075761 101.63809 
L 295.70719 87.19307 
L 297.33862 122.301257 
L 298.97005 91.893391 
L 300.60148 86.669478 
L 302.23291 117.478932 
L 303.86434 112.244524 
L 305.49577 117.747207 
L 307.1272 81.991864 
L 308.75863 111.63498 
L 310.390059 134.281232 
L 312.021489 57.159596 
L 313.652919 91.524588 
L 315.284349 82.304127 
L 316.915779 91.897341 
L 318.547209 112.359338 
L 320.178639 112.129064 
L 321.810069 77.791697 
L 323.441498 87.346666 
L 325.072928 111.581949 
L 326.704358 112.066147 
L 328.335788 91.796984 
L 329.967218 92.522519 
L 331.598648 106.608667 
L 333.230078 96.412413 
L 334.861508 69.889897 
L 336.492937 92.027388 
L 338.124367 101.704971 
L 339.755797 106.797846 
L 341.387227 111.309625 
L 343.018657 122.831039 
L 344.650087 65.290243 
L 346.281517 112.234644 
L 347.912947 101.593304 
L 349.544376 106.702051 
L 351.175806 96.124995 
L 352.807236 106.346687 
L 354.438666 122.416594 
L 357.701526 53.568 
L 359.332956 96.283637 
L 360.964386 106.175647 
L 362.595815 111.718539 
L 364.227245 91.42769 
L 365.858675 108.32475 
L 367.490105 140.420463 
L 370.752965 106.918293 
L 372.384395 96.737773 
L 374.015825 117.284816 
L 375.647254 106.913409 
L 377.278684 106.416563 
L 378.910114 97.021374 
L 380.541544 74.227219 
L 382.172974 117.347177 
L 383.804404 128.704903 
L 385.435834 117.480101 
L 387.067264 112.374545 
L 388.698693 96.099282 
L 390.330123 117.374607 
L 391.961553 117.247133 
L 393.592983 117.277348 
L 395.224413 123.671874 
L 396.855843 107.029756 
L 398.487273 106.912321 
L 398.487273 106.912321 
" clip-path="url(#p2495436364)" style="fill: none; stroke: #ff0000; stroke-width: 1.5; stroke-linecap: square"/>
   </g>
   <g id="patch_3">
    <path d="M 57.6 307.584 
L 57.6 41.472 
" style="fill: none; stroke: #000000; stroke-width: 0.8; stroke-linejoin: miter; stroke-linecap: square"/>
   </g>
   <g id="patch_4">
    <path d="M 414.72 307.584 
L 414.72 41.472 
" style="fill: none; stroke: #000000; stroke-width: 0.8; stroke-linejoin: miter; stroke-linecap: square"/>
   </g>
   <g id="patch_5">
    <path d="M 57.6 307.584 
L 414.72 307.584 
" style="fill: none; stroke: #000000; stroke-width: 0.8; stroke-linejoin: miter; stroke-linecap: square"/>
   </g>
   <g id="patch_6">
    <path d="M 57.6 41.472 
L 414.72 41.472 
" style="fill: none; stroke: #000000; stroke-width: 0.8; stroke-linejoin: miter; stroke-linecap: square"/>
   </g>
   <g id="text_13">
    <!-- Population's average and best fitness -->
    <g transform="translate(123.529687 35.472) scale(0.12 -0.12)">
     <defs>
      <path id="DejaVuSans-50" d="M 1259 4147 
L 1259 2394 
L 2053 2394 
Q 2494 2394 2734 2622 
Q 2975 2850 2975 3272 
Q 2975 3691 2734 3919 
Q 2494 4147 2053 4147 
L 1259 4147 
z
M 628 4666 
L 2053 4666 
Q 2838 4666 3239 4311 
Q 3641 3956 3641 3272 
Q 3641 2581 3239 2228 
Q 2838 1875 2053 1875 
L 1259 1875 
L 1259 0 
L 628 0 
L 628 4666 
z
" transform="scale(0.015625)"/>
      <path id="DejaVuSans-70" d="M 1159 525 
L 1159 -1331 
L 581 -1331 
L 581 3500 
L 1159 3500 
L 1159 2969 
Q 1341 3281 1617 3432 
Q 1894 3584 2278 3584 
Q 2916 3584 3314 3078 
Q 3713 2572 3713 1747 
Q 3713 922 3314 415 
Q 2916 -91 2278 -91 
Q 1894 -91 1617 61 
Q 1341 213 1159 525 
z
M 3116 1747 
Q 3116 2381 2855 2742 
Q 2594 3103 2138 3103 
Q 1681 3103 1420 2742 
Q 1159 2381 1159 1747 
Q 1159 1113 1420 752 
Q 1681 391 2138 391 
Q 2594 391 2855 752 
Q 3116 1113 3116 1747 
z
" transform="scale(0.015625)"/>
      <path id="DejaVuSans-75" d="M 544 1381 
L 544 3500 
L 1119 3500 
L 1119 1403 
Q 1119 906 1312 657 
Q 1506 409 1894 409 
Q 2359 409 2629 706 
Q 2900 1003 2900 1516 
L 2900 3500 
L 3475 3500 
L 3475 0 
L 2900 0 
L 2900 538 
Q 2691 219 2414 64 
Q 2138 -91 1772 -91 
Q 1169 -91 856 284 
Q 544 659 544 1381 
z
M 1991 3584 
L 1991 3584 
z
" transform="scale(0.015625)"/>
      <path id="DejaVuSans-6c" d="M 603 4863 
L 1178 4863 
L 1178 0 
L 603 0 
L 603 4863 
z
" transform="scale(0.015625)"/>
      <path id="DejaVuSans-27" d="M 1147 4666 
L 1147 2931 
L 616 2931 
L 616 4666 
L 1147 4666 
z
" transform="scale(0.015625)"/>
      <path id="DejaVuSans-20" transform="scale(0.015625)"/>
      <path id="DejaVuSans-76" d="M 191 3500 
L 800 3500 
L 1894 563 
L 2988 3500 
L 3597 3500 
L 2284 0 
L 1503 0 
L 191 3500 
z
" transform="scale(0.015625)"/>
      <path id="DejaVuSans-67" d="M 2906 1791 
Q 2906 2416 2648 2759 
Q 2391 3103 1925 3103 
Q 1463 3103 1205 2759 
Q 947 2416 947 1791 
Q 947 1169 1205 825 
Q 1463 481 1925 481 
Q 2391 481 2648 825 
Q 2906 1169 2906 1791 
z
M 3481 434 
Q 3481 -459 3084 -895 
Q 2688 -1331 1869 -1331 
Q 1566 -1331 1297 -1286 
Q 1028 -1241 775 -1147 
L 775 -588 
Q 1028 -725 1275 -790 
Q 1522 -856 1778 -856 
Q 2344 -856 2625 -561 
Q 2906 -266 2906 331 
L 2906 616 
Q 2728 306 2450 153 
Q 2172 0 1784 0 
Q 1141 0 747 490 
Q 353 981 353 1791 
Q 353 2603 747 3093 
Q 1141 3584 1784 3584 
Q 2172 3584 2450 3431 
Q 2728 3278 2906 2969 
L 2906 3500 
L 3481 3500 
L 3481 434 
z
" transform="scale(0.015625)"/>
      <path id="DejaVuSans-64" d="M 2906 2969 
L 2906 4863 
L 3481 4863 
L 3481 0 
L 2906 0 
L 2906 525 
Q 2725 213 2448 61 
Q 2172 -91 1784 -91 
Q 1150 -91 751 415 
Q 353 922 353 1747 
Q 353 2572 751 3078 
Q 1150 3584 1784 3584 
Q 2172 3584 2448 3432 
Q 2725 3281 2906 2969 
z
M 947 1747 
Q 947 1113 1208 752 
Q 1469 391 1925 391 
Q 2381 391 2643 752 
Q 2906 1113 2906 1747 
Q 2906 2381 2643 2742 
Q 2381 3103 1925 3103 
Q 1469 3103 1208 2742 
Q 947 2381 947 1747 
z
" transform="scale(0.015625)"/>
      <path id="DejaVuSans-62" d="M 3116 1747 
Q 3116 2381 2855 2742 
Q 2594 3103 2138 3103 
Q 1681 3103 1420 2742 
Q 1159 2381 1159 1747 
Q 1159 1113 1420 752 
Q 1681 391 2138 391 
Q 2594 391 2855 752 
Q 3116 1113 3116 1747 
z
M 1159 2969 
Q 1341 3281 1617 3432 
Q 1894 3584 2278 3584 
Q 2916 3584 3314 3078 
Q 3713 2572 3713 1747 
Q 3713 922 3314 415 
Q 2916 -91 2278 -91 
Q 1894 -91 1617 61 
Q 1341 213 1159 525 
L 1159 0 
L 581 0 
L 581 4863 
L 1159 4863 
L 1159 2969 
z
" transform="scale(0.015625)"/>
      <path id="DejaVuSans-66" d="M 2375 4863 
L 2375 4384 
L 1825 4384 
Q 1516 4384 1395 4259 
Q 1275 4134 1275 3809 
L 1275 3500 
L 2222 3500 
L 2222 3053 
L 1275 3053 
L 1275 0 
L 697 0 
L 697 3053 
L 147 3053 
L 147 3500 
L 697 3500 
L 697 3744 
Q 697 4328 969 4595 
Q 1241 4863 1831 4863 
L 2375 4863 
z
" transform="scale(0.015625)"/>
     </defs>
     <use xlink:href="#DejaVuSans-50"/>
     <use xlink:href="#DejaVuSans-6f" transform="translate(56.677734 0)"/>
     <use xlink:href="#DejaVuSans-70" transform="translate(117.859375 0)"/>
     <use xlink:href="#DejaVuSans-75" transform="translate(181.335938 0)"/>
     <use xlink:href="#DejaVuSans-6c" transform="translate(244.714844 0)"/>
     <use xlink:href="#DejaVuSans-61" transform="translate(272.498047 0)"/>
     <use xlink:href="#DejaVuSans-74" transform="translate(333.777344 0)"/>
     <use xlink:href="#DejaVuSans-69" transform="translate(372.986328 0)"/>
     <use xlink:href="#DejaVuSans-6f" transform="translate(400.769531 0)"/>
     <use xlink:href="#DejaVuSans-6e" transform="translate(461.951172 0)"/>
     <use xlink:href="#DejaVuSans-27" transform="translate(525.330078 0)"/>
     <use xlink:href="#DejaVuSans-73" transform="translate(552.820312 0)"/>
     <use xlink:href="#DejaVuSans-20" transform="translate(604.919922 0)"/>
     <use xlink:href="#DejaVuSans-61" transform="translate(636.707031 0)"/>
     <use xlink:href="#DejaVuSans-76" transform="translate(697.986328 0)"/>
     <use xlink:href="#DejaVuSans-65" transform="translate(757.166016 0)"/>
     <use xlink:href="#DejaVuSans-72" transform="translate(818.689453 0)"/>
     <use xlink:href="#DejaVuSans-61" transform="translate(859.802734 0)"/>
     <use xlink:href="#DejaVuSans-67" transform="translate(921.082031 0)"/>
     <use xlink:href="#DejaVuSans-65" transform="translate(984.558594 0)"/>
     <use xlink:href="#DejaVuSans-20" transform="translate(1046.082031 0)"/>
     <use xlink:href="#DejaVuSans-61" transform="translate(1077.869141 0)"/>
     <use xlink:href="#DejaVuSans-6e" transform="translate(1139.148438 0)"/>
     <use xlink:href="#DejaVuSans-64" transform="translate(1202.527344 0)"/>
     <use xlink:href="#DejaVuSans-20" transform="translate(1266.003906 0)"/>
     <use xlink:href="#DejaVuSans-62" transform="translate(1297.791016 0)"/>
     <use xlink:href="#DejaVuSans-65" transform="translate(1361.267578 0)"/>
     <use xlink:href="#DejaVuSans-73" transform="translate(1422.791016 0)"/>
     <use xlink:href="#DejaVuSans-74" transform="translate(1474.890625 0)"/>
     <use xlink:href="#DejaVuSans-20" transform="translate(1514.099609 0)"/>
     <use xlink:href="#DejaVuSans-66" transform="translate(1545.886719 0)"/>
     <use xlink:href="#DejaVuSans-69" transform="translate(1581.091797 0)"/>
     <use xlink:href="#DejaVuSans-74" transform="translate(1608.875 0)"/>
     <use xlink:href="#DejaVuSans-6e" transform="translate(1648.083984 0)"/>
     <use xlink:href="#DejaVuSans-65" transform="translate(1711.462891 0)"/>
     <use xlink:href="#DejaVuSans-73" transform="translate(1772.986328 0)"/>
     <use xlink:href="#DejaVuSans-73" transform="translate(1825.085938 0)"/>
    </g>
   </g>
   <g id="legend_1">
    <g id="patch_7">
     <path d="M 334.779375 302.584 
L 407.72 302.584 
Q 409.72 302.584 409.72 300.584 
L 409.72 257.549625 
Q 409.72 255.549625 407.72 255.549625 
L 334.779375 255.549625 
Q 332.779375 255.549625 332.779375 257.549625 
L 332.779375 300.584 
Q 332.779375 302.584 334.779375 302.584 
z
" style="fill: #ffffff; opacity: 0.8; stroke: #cccccc; stroke-linejoin: miter"/>
    </g>
    <g id="line2d_24">
     <path d="M 336.779375 263.648062 
L 346.779375 263.648062 
L 356.779375 263.648062 
" style="fill: none; stroke: #0000ff; stroke-width: 1.5; stroke-linecap: square"/>
    </g>
    <g id="text_14">
     <!-- average -->
     <g transform="translate(364.779375 267.148062) scale(0.1 -0.1)">
      <use xlink:href="#DejaVuSans-61"/>
      <use xlink:href="#DejaVuSans-76" transform="translate(61.279297 0)"/>
      <use xlink:href="#DejaVuSans-65" transform="translate(120.458984 0)"/>
      <use xlink:href="#DejaVuSans-72" transform="translate(181.982422 0)"/>
      <use xlink:href="#DejaVuSans-61" transform="translate(223.095703 0)"/>
      <use xlink:href="#DejaVuSans-67" transform="translate(284.375 0)"/>
      <use xlink:href="#DejaVuSans-65" transform="translate(347.851562 0)"/>
     </g>
    </g>
    <g id="line2d_25">
     <path d="M 336.779375 278.326188 
L 346.779375 278.326188 
L 356.779375 278.326188 
" style="fill: none; stroke-dasharray: 9.6,2.4,1.5,2.4; stroke-dashoffset: 0; stroke: #008000; stroke-width: 1.5"/>
    </g>
    <g id="text_15">
     <!-- +1 sd -->
     <g transform="translate(364.779375 281.826188) scale(0.1 -0.1)">
      <defs>
       <path id="DejaVuSans-2b" d="M 2944 4013 
L 2944 2272 
L 4684 2272 
L 4684 1741 
L 2944 1741 
L 2944 0 
L 2419 0 
L 2419 1741 
L 678 1741 
L 678 2272 
L 2419 2272 
L 2419 4013 
L 2944 4013 
z
" transform="scale(0.015625)"/>
      </defs>
      <use xlink:href="#DejaVuSans-2b"/>
      <use xlink:href="#DejaVuSans-31" transform="translate(83.789062 0)"/>
      <use xlink:href="#DejaVuSans-20" transform="translate(147.412109 0)"/>
      <use xlink:href="#DejaVuSans-73" transform="translate(179.199219 0)"/>
      <use xlink:href="#DejaVuSans-64" transform="translate(231.298828 0)"/>
     </g>
    </g>
    <g id="line2d_26">
     <path d="M 336.779375 293.004312 
L 346.779375 293.004312 
L 356.779375 293.004312 
" style="fill: none; stroke: #ff0000; stroke-width: 1.5; stroke-linecap: square"/>
    </g>
    <g id="text_16">
     <!-- best -->
     <g transform="translate(364.779375 296.504312) scale(0.1 -0.1)">
      <use xlink:href="#DejaVuSans-62"/>
      <use xlink:href="#DejaVuSans-65" transform="translate(63.476562 0)"/>
      <use xlink:href="#DejaVuSans-73" transform="translate(125 0)"/>
      <use xlink:href="#DejaVuSans-74" transform="translate(177.099609 0)"/>
     </g>
    </g>
   </g>
  </g>
 </g>
 <defs>
  <clipPath id="p2495436364">
   <rect x="57.6" y="41.472" width="357.12" height="266.112"/>
  </clipPath>
 </defs>
</svg>
