<?xml version="1.0" encoding="utf-8" standalone="no"?>
<!DOCTYPE svg PUBLIC "-//W3C//DTD SVG 1.1//EN"
  "http://www.w3.org/Graphics/SVG/1.1/DTD/svg11.dtd">
<svg xmlns:xlink="http://www.w3.org/1999/xlink" width="460.8pt" height="345.6pt" viewBox="0 0 460.8 345.6" xmlns="http://www.w3.org/2000/svg" version="1.1">
 <metadata>
  <rdf:RDF xmlns:dc="http://purl.org/dc/elements/1.1/" xmlns:cc="http://creativecommons.org/ns#" xmlns:rdf="http://www.w3.org/1999/02/22-rdf-syntax-ns#">
   <cc:Work>
    <dc:type rdf:resource="http://purl.org/dc/dcmitype/StillImage"/>
    <dc:date>2026-04-23T23:23:51.014429</dc:date>
    <dc:format>image/svg+xml</dc:format>
    <dc:creator>
     <cc:Agent>
      <dc:title>Matplotlib v3.10.8, https://matplotlib.org/</dc:title>
     </cc:Agent>
    </dc:creator>
   </cc:Work>
  </rdf:RDF>
 </metadata>
 <defs>
  <style type="text/css">*{stroke-linejoin: round; stroke-linecap: butt}</style>
 </defs>
 <g id="figure_1">
  <g id="patch_1">
   <path d="M 0 345.6 
L 460.8 345.6 
L 460.8 0 
L 0 0 
z
" style="fill: #ffffff"/>
  </g>
  <g id="axes_1">
   <g id="patch_2">
    <path d="M 57.6 307.584 
L 414.72 307.584 
L 414.72 41.472 
L 57.6 41.472 
z
" style="fill: #ffffff"/>
   </g>
   <g id="matplotlib.axis_1">
    <g id="xtick_1">
     <g id="line2d_1">
      <path d="M 73.832727 307.584 
L 73.832727 41.472 
" clip-path="url(#p5b5adb0f11)" style="fill: none; stroke: #b0b0b0; stroke-width: 0.8; stroke-linecap: square"/>
     </g>
     <g id="line2d_2">
      <defs>
       <path id="m08b5733844" d="M 0 0 
L 0 3.5 
" style="stroke: #000000; stroke-width: 0.8"/>
      </defs>
      <g>
       <use xlink:href="#m08b5733844" x="73.832727" y="307.584" style="stroke: #000000; stroke-width: 0.8"/>
      </g>
     </g>
     <g id="text_1">
      <!-- 0 -->
      <g transform="translate(70.651477 322.182437) scale(0.1 -0.1)">
       <defs>
        <path id="DejaVuSans-30" d="M 2034 4250 
Q 1547 4250 1301 3770 
Q 1056 3291 1056 2328 
Q 1056 1369 1301 889 
Q 1547 409 2034 409 
Q 2525 409 2770 889 
Q 3016 1369 3016 2328 
Q 3016 3291 2770 3770 
Q 2525 4250 2034 4250 
z
M 2034 4750 
Q 2819 4750 3233 4129 
Q 3647 3509 3647 2328 
Q 3647 1150 3233 529 
Q 2819 -91 2034 -91 
Q 1250 -91 836 529 
Q 422 1150 422 2328 
Q 422 3509 836 4129 
Q 1250 4750 2034 4750 
z
" transform="scale(0.015625)"/>
       </defs>
       <use xlink:href="#DejaVuSans-30"/>
      </g>
     </g>
    </g>
    <g id="xtick_2">
     <g id="line2d_3">
      <path d="M 114.618474 307.584 
L 114.618474 41.472 
" clip-path="url(#p5b5adb0f11)" style="fill: none; stroke: #b0b0b0; stroke-width: 0.8; stroke-linecap: square"/>
     </g>
     <g id="line2d_4">
      <g>
       <use xlink:href="#m08b5733844" x="114.618474" y="307.584" style="stroke: #000000; stroke-width: 0.8"/>
      </g>
     </g>
     <g id="text_2">
      <!-- 25 -->
      <g transform="translate(108.255974 322.182437) scale(0.1 -0.1)">
       <defs>
        <path id="DejaVuSans-32" d="M 1228 531 
L 3431 531 
L 3431 0 
L 469 0 
L 469 531 
Q 828 903 1448 1529 
Q 2069 2156 2228 2338 
Q 2531 2678 2651 2914 
Q 2772 3150 2772 3378 
Q 2772 3750 2511 3984 
Q 2250 4219 1831 4219 
Q 1534 4219 1204 4116 
Q 875 4013 500 3803 
L 500 4441 
Q 881 4594 1212 4672 
Q 1544 4750 1819 4750 
Q 2544 4750 2975 4387 
Q 3406 4025 3406 3419 
Q 3406 3131 3298 2873 
Q 3191 2616 2906 2266 
Q 2828 2175 2409 1742 
Q 1991 1309 1228 531 
z
" transform="scale(0.015625)"/>
        <path id="DejaVuSans-35" d="M 691 4666 
L 3169 4666 
L 3169 4134 
L 1269 4134 
L 1269 2991 
Q 1406 3038 1543 3061 
Q 1681 3084 1819 3084 
Q 2600 3084 3056 2656 
Q 3513 2228 3513 1497 
Q 3513 744 3044 326 
Q 2575 -91 1722 -91 
Q 1428 -91 1123 -41 
Q 819 9 494 109 
L 494 744 
Q 775 591 1075 516 
Q 1375 441 1709 441 
Q 2250 441 2565 725 
Q 2881 1009 2881 1497 
Q 2881 1984 2565 2268 
Q 2250 2553 1709 2553 
Q 1456 2553 1204 2497 
Q 953 2441 691 2322 
L 691 4666 
z
" transform="scale(0.015625)"/>
       </defs>
       <use xlink:href="#DejaVuSans-32"/>
       <use xlink:href="#DejaVuSans-35" transform="translate(63.623047 0)"/>
      </g>
     </g>
    </g>
    <g id="xtick_3">
     <g id="line2d_5">
      <path d="M 155.404221 307.584 
L 155.404221 41.472 
" clip-path="url(#p5b5adb0f11)" style="fill: none; stroke: #b0b0b0; stroke-width: 0.8; stroke-linecap: square"/>
     </g>
     <g id="line2d_6">
      <g>
       <use xlink:href="#m08b5733844" x="155.404221" y="307.584" style="stroke: #000000; stroke-width: 0.8"/>
      </g>
     </g>
     <g id="text_3">
      <!-- 50 -->
      <g transform="translate(149.041721 322.182437) scale(0.1 -0.1)">
       <use xlink:href="#DejaVuSans-35"/>
       <use xlink:href="#DejaVuSans-30" transform="translate(63.623047 0)"/>
      </g>
     </g>
    </g>
    <g id="xtick_4">
     <g id="line2d_7">
      <path d="M 196.189968 307.584 
L 196.189968 41.472 
" clip-path="url(#p5b5adb0f11)" style="fill: none; stroke: #b0b0b0; stroke-width: 0.8; stroke-linecap: square"/>
     </g>
     <g id="line2d_8">
      <g>
       <use xlink:href="#m08b5733844" x="196.189968" y="307.584" style="stroke: #000000; stroke-width: 0.8"/>
      </g>
     </g>
     <g id="text_4">
      <!-- 75 -->
      <g transform="translate(189.827468 322.182437) scale(0.1 -0.1)">
       <defs>
        <path id="DejaVuSans-37" d="M 525 4666 
L 3525 4666 
L 3525 4397 
L 1831 0 
L 1172 0 
L 2766 4134 
L 525 4134 
L 525 4666 
z
" transform="scale(0.015625)"/>
       </defs>
       <use xlink:href="#DejaVuSans-37"/>
       <use xlink:href="#DejaVuSans-35" transform="translate(63.623047 0)"/>
      </g>
     </g>
    </g>
    <g id="xtick_5">
     <g id="line2d_9">
      <path d="M 236.975715 307.584 
L 236.975715 41.472 
" clip-path="url(#p5b5adb0f11)" style="fill: none; stroke: #b0b0b0; stroke-width: 0.8; stroke-linecap: square"/>
     </g>
     <g id="line2d_10">
      <g>
       <use xlink:href="#m08b5733844" x="236.975715" y="307.584" style="stroke: #000000; stroke-width: 0.8"/>
      </g>
     </g>
     <g id="text_5">
      <!-- 100 -->
      <g transform="translate(227.431965 322.182437) scale(0.1 -0.1)">
       <defs>
        <path id="DejaVuSans-31" d="M 794 531 
L 1825 531 
L 1825 4091 
L 703 3866 
L 703 4441 
L 1819 4666 
L 2450 4666 
L 2450 531 
L 3481 531 
L 3481 0 
L 794 0 
L 794 531 
z
" transform="scale(0.015625)"/>
       </defs>
       <use xlink:href="#DejaVuSans-31"/>
       <use xlink:href="#DejaVuSans-30" transform="translate(63.623047 0)"/>
       <use xlink:href="#DejaVuSans-30" transform="translate(127.246094 0)"/>
      </g>
     </g>
    </g>
    <g id="xtick_6">
     <g id="line2d_11">
      <path d="M 277.761462 307.584 
L 277.761462 41.472 
" clip-path="url(#p5b5adb0f11)" style="fill: none; stroke: #b0b0b0; stroke-width: 0.8; stroke-linecap: square"/>
     </g>
     <g id="line2d_12">
      <g>
       <use xlink:href="#m08b5733844" x="277.761462" y="307.584" style="stroke: #000000; stroke-width: 0.8"/>
      </g>
     </g>
     <g id="text_6">
      <!-- 125 -->
      <g transform="translate(268.217712 322.182437) scale(0.1 -0.1)">
       <use xlink:href="#DejaVuSans-31"/>
       <use xlink:href="#DejaVuSans-32" transform="translate(63.623047 0)"/>
       <use xlink:href="#DejaVuSans-35" transform="translate(127.246094 0)"/>
      </g>
     </g>
    </g>
    <g id="xtick_7">
     <g id="line2d_13">
      <path d="M 318.547209 307.584 
L 318.547209 41.472 
" clip-path="url(#p5b5adb0f11)" style="fill: none; stroke: #b0b0b0; stroke-width: 0.8; stroke-linecap: square"/>
     </g>
     <g id="line2d_14">
      <g>
       <use xlink:href="#m08b5733844" x="318.547209" y="307.584" style="stroke: #000000; stroke-width: 0.8"/>
      </g>
     </g>
     <g id="text_7">
      <!-- 150 -->
      <g transform="translate(309.003459 322.182437) scale(0.1 -0.1)">
       <use xlink:href="#DejaVuSans-31"/>
       <use xlink:href="#DejaVuSans-35" transform="translate(63.623047 0)"/>
       <use xlink:href="#DejaVuSans-30" transform="translate(127.246094 0)"/>
      </g>
     </g>
    </g>
    <g id="xtick_8">
     <g id="line2d_15">
      <path d="M 359.332956 307.584 
L 359.332956 41.472 
" clip-path="url(#p5b5adb0f11)" style="fill: none; stroke: #b0b0b0; stroke-width: 0.8; stroke-linecap: square"/>
     </g>
     <g id="line2d_16">
      <g>
       <use xlink:href="#m08b5733844" x="359.332956" y="307.584" style="stroke: #000000; stroke-width: 0.8"/>
      </g>
     </g>
     <g id="text_8">
      <!-- 175 -->
      <g transform="translate(349.789206 322.182437) scale(0.1 -0.1)">
       <use xlink:href="#DejaVuSans-31"/>
       <use xlink:href="#DejaVuSans-37" transform="translate(63.623047 0)"/>
       <use xlink:href="#DejaVuSans-35" transform="translate(127.246094 0)"/>
      </g>
     </g>
    </g>
    <g id="xtick_9">
     <g id="line2d_17">
      <path d="M 400.118703 307.584 
L 400.118703 41.472 
" clip-path="url(#p5b5adb0f11)" style="fill: none; stroke: #b0b0b0; stroke-width: 0.8; stroke-linecap: square"/>
     </g>
     <g id="line2d_18">
      <g>
       <use xlink:href="#m08b5733844" x="400.118703" y="307.584" style="stroke: #000000; stroke-width: 0.8"/>
      </g>
     </g>
     <g id="text_9">
      <!-- 200 -->
      <g transform="translate(390.574953 322.182437) scale(0.1 -0.1)">
       <use xlink:href="#DejaVuSans-32"/>
       <use xlink:href="#DejaVuSans-30" transform="translate(63.623047 0)"/>
       <use xlink:href="#DejaVuSans-30" transform="translate(127.246094 0)"/>
      </g>
     </g>
    </g>
    <g id="text_10">
     <!-- Generations -->
     <g transform="translate(205.662344 335.860562) scale(0.1 -0.1)">
      <defs>
       <path id="DejaVuSans-47" d="M 3809 666 
L 3809 1919 
L 2778 1919 
L 2778 2438 
L 4434 2438 
L 4434 434 
Q 4069 175 3628 42 
Q 3188 -91 2688 -91 
Q 1594 -91 976 548 
Q 359 1188 359 2328 
Q 359 3472 976 4111 
Q 1594 4750 2688 4750 
Q 3144 4750 3555 4637 
Q 3966 4525 4313 4306 
L 4313 3634 
Q 3963 3931 3569 4081 
Q 3175 4231 2741 4231 
Q 1884 4231 1454 3753 
Q 1025 3275 1025 2328 
Q 1025 1384 1454 906 
Q 1884 428 2741 428 
Q 3075 428 3337 486 
Q 3600 544 3809 666 
z
" transform="scale(0.015625)"/>
       <path id="DejaVuSans-65" d="M 3597 1894 
L 3597 1613 
L 953 1613 
Q 991 1019 1311 708 
Q 1631 397 2203 397 
Q 2534 397 2845 478 
Q 3156 559 3463 722 
L 3463 178 
Q 3153 47 2828 -22 
Q 2503 -91 2169 -91 
Q 1331 -91 842 396 
Q 353 884 353 1716 
Q 353 2575 817 3079 
Q 1281 3584 2069 3584 
Q 2775 3584 3186 3129 
Q 3597 2675 3597 1894 
z
M 3022 2063 
Q 3016 2534 2758 2815 
Q 2500 3097 2075 3097 
Q 1594 3097 1305 2825 
Q 1016 2553 972 2059 
L 3022 2063 
z
" transform="scale(0.015625)"/>
       <path id="DejaVuSans-6e" d="M 3513 2113 
L 3513 0 
L 2938 0 
L 2938 2094 
Q 2938 2591 2744 2837 
Q 2550 3084 2163 3084 
Q 1697 3084 1428 2787 
Q 1159 2491 1159 1978 
L 1159 0 
L 581 0 
L 581 3500 
L 1159 3500 
L 1159 2956 
Q 1366 3272 1645 3428 
Q 1925 3584 2291 3584 
Q 2894 3584 3203 3211 
Q 3513 2838 3513 2113 
z
" transform="scale(0.015625)"/>
       <path id="DejaVuSans-72" d="M 2631 2963 
Q 2534 3019 2420 3045 
Q 2306 3072 2169 3072 
Q 1681 3072 1420 2755 
Q 1159 2438 1159 1844 
L 1159 0 
L 581 0 
L 581 3500 
L 1159 3500 
L 1159 2956 
Q 1341 3275 1631 3429 
Q 1922 3584 2338 3584 
Q 2397 3584 2469 3576 
Q 2541 3569 2628 3553 
L 2631 2963 
z
" transform="scale(0.015625)"/>
       <path id="DejaVuSans-61" d="M 2194 1759 
Q 1497 1759 1228 1600 
Q 959 1441 959 1056 
Q 959 750 1161 570 
Q 1363 391 1709 391 
Q 2188 391 2477 730 
Q 2766 1069 2766 1631 
L 2766 1759 
L 2194 1759 
z
M 3341 1997 
L 3341 0 
L 2766 0 
L 2766 531 
Q 2569 213 2275 61 
Q 1981 -91 1556 -91 
Q 1019 -91 701 211 
Q 384 513 384 1019 
Q 384 1609 779 1909 
Q 1175 2209 1959 2209 
L 2766 2209 
L 2766 2266 
Q 2766 2663 2505 2880 
Q 2244 3097 1772 3097 
Q 1472 3097 1187 3025 
Q 903 2953 641 2809 
L 641 3341 
Q 956 3463 1253 3523 
Q 1550 3584 1831 3584 
Q 2591 3584 2966 3190 
Q 3341 2797 3341 1997 
z
" transform="scale(0.015625)"/>
       <path id="DejaVuSans-74" d="M 1172 4494 
L 1172 3500 
L 2356 3500 
L 2356 3053 
L 1172 3053 
L 1172 1153 
Q 1172 725 1289 603 
Q 1406 481 1766 481 
L 2356 481 
L 2356 0 
L 1766 0 
Q 1100 0 847 248 
Q 594 497 594 1153 
L 594 3053 
L 172 3053 
L 172 3500 
L 594 3500 
L 594 4494 
L 1172 4494 
z
" transform="scale(0.015625)"/>
       <path id="DejaVuSans-69" d="M 603 3500 
L 1178 3500 
L 1178 0 
L 603 0 
L 603 3500 
z
M 603 4863 
L 1178 4863 
L 1178 4134 
L 603 4134 
L 603 4863 
z
" transform="scale(0.015625)"/>
       <path id="DejaVuSans-6f" d="M 1959 3097 
Q 1497 3097 1228 2736 
Q 959 2375 959 1747 
Q 959 1119 1226 758 
Q 1494 397 1959 397 
Q 2419 397 2687 759 
Q 2956 1122 2956 1747 
Q 2956 2369 2687 2733 
Q 2419 3097 1959 3097 
z
M 1959 3584 
Q 2709 3584 3137 3096 
Q 3566 2609 3566 1747 
Q 3566 888 3137 398 
Q 2709 -91 1959 -91 
Q 1206 -91 779 398 
Q 353 888 353 1747 
Q 353 2609 779 3096 
Q 1206 3584 1959 3584 
z
" transform="scale(0.015625)"/>
       <path id="DejaVuSans-73" d="M 2834 3397 
L 2834 2853 
Q 2591 2978 2328 3040 
Q 2066 3103 1784 3103 
Q 1356 3103 1142 2972 
Q 928 2841 928 2578 
Q 928 2378 1081 2264 
Q 1234 2150 1697 2047 
L 1894 2003 
Q 2506 1872 2764 1633 
Q 3022 1394 3022 966 
Q 3022 478 2636 193 
Q 2250 -91 1575 -91 
Q 1294 -91 989 -36 
Q 684 19 347 128 
L 347 722 
Q 666 556 975 473 
Q 1284 391 1588 391 
Q 1994 391 2212 530 
Q 2431 669 2431 922 
Q 2431 1156 2273 1281 
Q 2116 1406 1581 1522 
L 1381 1569 
Q 847 1681 609 1914 
Q 372 2147 372 2553 
Q 372 3047 722 3315 
Q 1072 3584 1716 3584 
Q 2034 3584 2315 3537 
Q 2597 3491 2834 3397 
z
" transform="scale(0.015625)"/>
      </defs>
      <use xlink:href="#DejaVuSans-47"/>
      <use xlink:href="#DejaVuSans-65" transform="translate(77.490234 0)"/>
      <use xlink:href="#DejaVuSans-6e" transform="translate(139.013672 0)"/>
      <use xlink:href="#DejaVuSans-65" transform="translate(202.392578 0)"/>
      <use xlink:href="#DejaVuSans-72" transform="translate(263.916016 0)"/>
      <use xlink:href="#DejaVuSans-61" transform="translate(305.029297 0)"/>
      <use xlink:href="#DejaVuSans-74" transform="translate(366.308594 0)"/>
      <use xlink:href="#DejaVuSans-69" transform="translate(405.517578 0)"/>
      <use xlink:href="#DejaVuSans-6f" transform="translate(433.300781 0)"/>
      <use xlink:href="#DejaVuSans-6e" transform="translate(494.482422 0)"/>
      <use xlink:href="#DejaVuSans-73" transform="translate(557.861328 0)"/>
     </g>
    </g>
   </g>
   <g id="matplotlib.axis_2">
    <g id="ytick_1">
     <g id="line2d_19">
      <path d="M 57.6 140.342516 
L 414.72 140.342516 
" clip-path="url(#p5b5adb0f11)" style="fill: none; stroke: #b0b0b0; stroke-width: 0.8; stroke-linecap: square"/>
     </g>
     <g id="line2d_20">
      <defs>
       <path id="m87f1d49497" d="M 0 0 
L -3.5 0 
" style="stroke: #000000; stroke-width: 0.8"/>
      </defs>
      <g>
       <use xlink:href="#m87f1d49497" x="57.6" y="140.342516" style="stroke: #000000; stroke-width: 0.8"/>
      </g>
     </g>
     <g id="text_11">
      <!-- $\mathdefault{-10^{2}}$ -->
      <g transform="translate(24.6 144.141735) scale(0.1 -0.1)">
       <defs>
        <path id="DejaVuSans-2212" d="M 678 2272 
L 4684 2272 
L 4684 1741 
L 678 1741 
L 678 2272 
z
" transform="scale(0.015625)"/>
       </defs>
       <use xlink:href="#DejaVuSans-2212" transform="translate(0 0.765625)"/>
       <use xlink:href="#DejaVuSans-31" transform="translate(83.789062 0.765625)"/>
       <use xlink:href="#DejaVuSans-30" transform="translate(147.412109 0.765625)"/>
       <use xlink:href="#DejaVuSans-32" transform="translate(211.992188 39.046875) scale(0.7)"/>
      </g>
     </g>
    </g>
    <g id="text_12">
     <!-- Fitness -->
     <g transform="translate(18.520312 191.845187) rotate(-90) scale(0.1 -0.1)">
      <defs>
       <path id="DejaVuSans-46" d="M 628 4666 
L 3309 4666 
L 3309 4134 
L 1259 4134 
L 1259 2759 
L 3109 2759 
L 3109 2228 
L 1259 2228 
L 1259 0 
L 628 0 
L 628 4666 
z
" transform="scale(0.015625)"/>
      </defs>
      <use xlink:href="#DejaVuSans-46"/>
      <use xlink:href="#DejaVuSans-69" transform="translate(50.269531 0)"/>
      <use xlink:href="#DejaVuSans-74" transform="translate(78.052734 0)"/>
      <use xlink:href="#DejaVuSans-6e" transform="translate(117.261719 0)"/>
      <use xlink:href="#DejaVuSans-65" transform="translate(180.640625 0)"/>
      <use xlink:href="#DejaVuSans-73" transform="translate(242.164062 0)"/>
      <use xlink:href="#DejaVuSans-73" transform="translate(294.263672 0)"/>
     </g>
    </g>
   </g>
   <g id="line2d_21">
    <path d="M 73.832727 295.488 
L 75.464157 287.99742 
L 77.095587 286.97206 
L 78.727017 281.872994 
L 80.358447 273.487908 
L 81.989877 275.741609 
L 83.621307 264.565716 
L 85.252736 254.372786 
L 86.884166 247.857296 
L 88.515596 250.921022 
L 90.147026 254.459031 
L 91.778456 246.705125 
L 93.409886 236.674338 
L 95.041316 240.809893 
L 96.672746 232.537857 
L 98.304175 230.359701 
L 99.935605 225.863495 
L 101.567035 223.220629 
L 103.198465 222.883516 
L 104.829895 218.351429 
L 106.461325 207.954315 
L 108.092755 211.029487 
L 109.724185 209.653974 
L 111.355614 212.631431 
L 112.987044 206.204168 
L 114.618474 204.991658 
L 116.249904 211.6758 
L 117.881334 211.412562 
L 119.512764 212.161781 
L 121.144194 208.779291 
L 122.775624 201.171249 
L 124.407053 207.520788 
L 126.038483 207.656601 
L 127.669913 209.716452 
L 129.301343 202.096501 
L 130.932773 208.961044 
L 132.564203 210.404495 
L 135.827063 206.983237 
L 137.458492 199.296829 
L 139.089922 209.62725 
L 140.721352 207.7283 
L 142.352782 198.187728 
L 143.984212 211.07235 
L 145.615642 201.938966 
L 147.247072 201.492133 
L 148.878502 199.423039 
L 150.509931 198.92676 
L 152.141361 200.353497 
L 153.772791 201.104338 
L 155.404221 211.608557 
L 157.035651 203.157696 
L 158.667081 205.916058 
L 160.298511 204.567578 
L 161.929941 203.043828 
L 163.56137 199.455009 
L 165.1928 198.288382 
L 168.45566 206.983919 
L 170.08709 201.68006 
L 173.34995 195.717119 
L 174.98138 202.785135 
L 176.61281 204.554795 
L 178.244239 198.760886 
L 179.875669 194.924925 
L 181.507099 200.601354 
L 183.138529 194.093712 
L 184.769959 203.419813 
L 186.401389 196.066505 
L 188.032819 204.172995 
L 189.664249 198.325151 
L 191.295678 198.31407 
L 192.927108 196.789481 
L 194.558538 204.97074 
L 196.189968 199.107426 
L 197.821398 200.245873 
L 199.452828 200.486476 
L 201.084258 198.85869 
L 202.715688 201.789422 
L 204.347117 199.501358 
L 205.978547 197.902894 
L 207.609977 204.240691 
L 209.241407 198.124035 
L 210.872837 204.511951 
L 212.504267 196.030218 
L 214.135697 198.808303 
L 215.767127 198.213534 
L 217.398556 196.963068 
L 219.029986 200.762911 
L 220.661416 198.817877 
L 222.292846 201.926982 
L 223.924276 199.822819 
L 225.555706 199.500945 
L 227.187136 198.523584 
L 228.818566 199.063954 
L 230.449995 198.944379 
L 232.081425 198.506103 
L 233.712855 205.331888 
L 235.344285 197.134755 
L 236.975715 198.759652 
L 238.607145 201.111932 
L 240.238575 201.080061 
L 241.870005 198.980547 
L 243.501434 200.792032 
L 245.132864 197.074017 
L 246.764294 197.707709 
L 248.395724 196.356359 
L 250.027154 199.273466 
L 251.658584 198.372877 
L 253.290014 199.729968 
L 254.921444 201.285388 
L 256.552873 196.897453 
L 258.184303 201.870243 
L 259.815733 194.767687 
L 261.447163 199.892647 
L 263.078593 200.903414 
L 264.710023 196.427418 
L 266.341453 199.050461 
L 267.972883 203.556077 
L 269.604312 201.554325 
L 271.235742 196.507227 
L 272.867172 196.096125 
L 274.498602 193.905077 
L 276.130032 196.452109 
L 277.761462 197.263966 
L 279.392892 203.22518 
L 281.024322 198.258658 
L 282.655751 203.528188 
L 284.287181 197.426018 
L 285.918611 194.94096 
L 287.550041 195.877273 
L 289.181471 196.583309 
L 290.812901 199.562007 
L 292.444331 195.965317 
L 294.075761 196.183362 
L 295.70719 195.385281 
L 297.33862 201.493237 
L 298.97005 199.459313 
L 300.60148 199.575029 
L 302.23291 197.548058 
L 303.86434 193.909343 
L 305.49577 200.71286 
L 307.1272 194.564145 
L 308.75863 199.183377 
L 310.390059 197.698973 
L 312.021489 196.9158 
L 313.652919 197.201379 
L 315.284349 197.246319 
L 316.915779 195.615909 
L 318.547209 197.373022 
L 320.178639 200.2441 
L 321.810069 198.705417 
L 323.441498 197.545604 
L 325.072928 199.821914 
L 326.704358 196.996796 
L 328.335788 198.085714 
L 329.967218 200.294732 
L 331.598648 197.763108 
L 333.230078 198.020834 
L 334.861508 198.067496 
L 336.492937 194.182922 
L 338.124367 201.064503 
L 339.755797 194.253146 
L 341.387227 196.273442 
L 343.018657 197.262801 
L 344.650087 200.760795 
L 346.281517 194.910092 
L 347.912947 193.450719 
L 349.544376 198.095265 
L 351.175806 199.011153 
L 352.807236 202.690146 
L 354.438666 192.84291 
L 356.070096 200.082621 
L 357.701526 195.19275 
L 359.332956 198.207094 
L 360.964386 198.252144 
L 362.595815 197.591737 
L 364.227245 203.210275 
L 365.858675 196.92722 
L 367.490105 201.223562 
L 369.121535 196.276392 
L 370.752965 195.226525 
L 372.384395 198.378498 
L 374.015825 196.179048 
L 375.647254 198.342677 
L 377.278684 197.169787 
L 378.910114 198.736291 
L 380.541544 196.791555 
L 382.172974 200.727114 
L 383.804404 195.800054 
L 385.435834 197.122023 
L 387.067264 197.100226 
L 388.698693 197.704114 
L 390.330123 200.163139 
L 391.961553 194.919729 
L 393.592983 198.373987 
L 395.224413 200.822702 
L 396.855843 197.591229 
L 398.487273 202.029414 
L 398.487273 202.029414 
" clip-path="url(#p5b5adb0f11)" style="fill: none; stroke: #0000ff; stroke-width: 1.5; stroke-linecap: square"/>
   </g>
   <g id="line2d_22">
    <path d="M 73.832727 263.923174 
L 75.464157 245.420624 
L 77.095587 250.17124 
L 80.358447 227.541968 
L 81.989877 227.256153 
L 83.621307 217.044447 
L 85.252736 185.565964 
L 86.884166 186.670291 
L 88.515596 186.303412 
L 90.147026 199.158119 
L 91.778456 197.650063 
L 93.409886 169.856714 
L 95.041316 195.754324 
L 96.672746 184.112116 
L 98.304175 158.404368 
L 99.935605 187.248901 
L 101.567035 167.465103 
L 103.198465 168.039049 
L 104.829895 167.645325 
L 106.461325 174.774179 
L 108.092755 169.797271 
L 109.724185 174.631683 
L 111.355614 148.674759 
L 112.987044 162.419544 
L 114.618474 172.344297 
L 116.249904 155.108779 
L 117.881334 143.927712 
L 119.512764 162.947355 
L 121.144194 167.803725 
L 122.775624 174.060086 
L 124.407053 171.483977 
L 126.038483 166.391577 
L 127.669913 156.250683 
L 129.301343 163.282392 
L 130.932773 144.454399 
L 132.564203 154.217603 
L 134.195633 137.15629 
L 135.827063 136.355219 
L 137.458492 160.680587 
L 139.089922 166.375564 
L 140.721352 148.460396 
L 142.352782 164.832616 
L 143.984212 144.265952 
L 145.615642 159.740027 
L 147.247072 142.818381 
L 148.878502 148.842569 
L 150.509931 165.866478 
L 152.141361 158.676251 
L 153.772791 166.736891 
L 155.404221 130.294301 
L 157.035651 150.605536 
L 158.667081 140.843741 
L 160.298511 143.054132 
L 161.929941 156.955654 
L 163.56137 136.196306 
L 165.1928 161.149815 
L 166.82423 155.088201 
L 168.45566 142.453021 
L 170.08709 162.043521 
L 171.71852 161.733221 
L 173.34995 168.680314 
L 174.98138 164.137004 
L 176.61281 162.184226 
L 178.244239 136.634273 
L 179.875669 166.886303 
L 181.507099 163.876186 
L 183.138529 166.055716 
L 184.769959 145.712092 
L 186.401389 169.85706 
L 188.032819 162.137771 
L 189.664249 149.198305 
L 191.295678 166.367854 
L 192.927108 168.08553 
L 194.558538 155.000052 
L 196.189968 145.872456 
L 197.821398 166.397931 
L 199.452828 169.661018 
L 201.084258 169.303071 
L 202.715688 172.391999 
L 204.347117 173.379722 
L 205.978547 170.190675 
L 207.609977 169.334361 
L 209.241407 167.015117 
L 210.872837 153.585617 
L 212.504267 156.810746 
L 214.135697 158.422748 
L 215.767127 168.290048 
L 217.398556 162.044965 
L 219.029986 161.286891 
L 220.661416 170.610322 
L 222.292846 157.130217 
L 223.924276 167.755268 
L 225.555706 157.14312 
L 227.187136 168.393129 
L 228.818566 162.315011 
L 230.449995 160.32084 
L 232.081425 160.589578 
L 233.712855 157.394722 
L 235.344285 157.959314 
L 236.975715 169.056255 
L 238.607145 155.016376 
L 240.238575 149.839248 
L 241.870005 163.665824 
L 243.501434 160.078044 
L 245.132864 158.312895 
L 246.764294 163.490806 
L 248.395724 169.040034 
L 250.027154 136.840577 
L 251.658584 159.83376 
L 253.290014 161.357306 
L 254.921444 152.05163 
L 256.552873 165.200557 
L 258.184303 142.249255 
L 259.815733 161.067125 
L 261.447163 149.472042 
L 263.078593 161.286189 
L 264.710023 161.265198 
L 266.341453 148.267793 
L 267.972883 159.812901 
L 269.604312 158.718729 
L 271.235742 164.117075 
L 272.867172 163.343621 
L 274.498602 168.096851 
L 276.130032 166.177732 
L 277.761462 159.286855 
L 279.392892 162.379506 
L 281.024322 170.842683 
L 282.655751 144.481349 
L 284.287181 161.130553 
L 285.918611 159.87562 
L 287.550041 165.560201 
L 289.181471 152.818678 
L 290.812901 168.252783 
L 292.444331 168.933079 
L 294.075761 172.041342 
L 295.70719 170.252705 
L 297.33862 142.020698 
L 298.97005 156.733766 
L 300.60148 163.801008 
L 302.23291 167.03197 
L 303.86434 169.59002 
L 305.49577 172.905919 
L 307.1272 168.648722 
L 308.75863 167.123132 
L 310.390059 171.204129 
L 312.021489 171.633105 
L 313.652919 166.469827 
L 315.284349 162.778354 
L 316.915779 165.842431 
L 318.547209 171.662482 
L 320.178639 155.73386 
L 321.810069 170.431904 
L 323.441498 158.333789 
L 325.072928 165.96717 
L 326.704358 167.16971 
L 328.335788 165.647859 
L 329.967218 166.566528 
L 331.598648 163.146079 
L 333.230078 168.461026 
L 334.861508 174.378176 
L 336.492937 170.417421 
L 338.124367 138.826465 
L 339.755797 167.694143 
L 341.387227 170.608434 
L 343.018657 166.090946 
L 344.650087 155.337155 
L 346.281517 167.106362 
L 347.912947 165.584558 
L 349.544376 161.075537 
L 351.175806 169.526251 
L 352.807236 157.391191 
L 354.438666 158.710901 
L 356.070096 151.115896 
L 357.701526 172.334262 
L 359.332956 172.953548 
L 360.964386 169.746066 
L 362.595815 172.000783 
L 364.227245 167.425733 
L 365.858675 172.118223 
L 367.490105 166.85217 
L 369.121535 156.43691 
L 370.752965 161.004565 
L 372.384395 148.081051 
L 374.015825 163.631269 
L 375.647254 168.603796 
L 377.278684 162.213939 
L 378.910114 172.925678 
L 380.541544 169.698687 
L 382.172974 163.975045 
L 383.804404 166.463928 
L 385.435834 169.868795 
L 387.067264 163.916026 
L 388.698693 155.152845 
L 390.330123 171.879852 
L 391.961553 168.559161 
L 393.592983 166.024673 
L 395.224413 148.377115 
L 396.855843 166.159972 
L 398.487273 160.505104 
L 398.487273 160.505104 
" clip-path="url(#p5b5adb0f11)" style="fill: none; stroke-dasharray: 9.6,2.4,1.5,2.4; stroke-dashoffset: 0; stroke: #008000; stroke-width: 1.5"/>
   </g>
   <g id="line2d_23">
    <path d="M 73.832727 203.644714 
L 75.464157 157.788869 
L 77.095587 164.166529 
L 78.727017 143.496071 
L 80.358447 154.019582 
L 81.989877 148.280239 
L 83.621307 138.842416 
L 85.252736 155.783204 
L 86.884166 144.86207 
L 88.515596 155.193339 
L 90.147026 133.580007 
L 91.778456 144.232831 
L 93.409886 134.507773 
L 95.041316 142.464667 
L 96.672746 145.095127 
L 98.304175 155.187879 
L 99.935605 147.416098 
L 101.567035 146.265332 
L 103.198465 148.997544 
L 104.829895 154.746044 
L 106.461325 141.553186 
L 108.092755 98.289694 
L 109.724185 135.146696 
L 111.355614 146.454212 
L 112.987044 140.030813 
L 114.618474 146.632925 
L 116.249904 132.662007 
L 117.881334 153.020038 
L 119.512764 146.847731 
L 121.144194 138.27279 
L 122.775624 146.2037 
L 124.407053 149.386799 
L 126.038483 128.684464 
L 127.669913 139.185705 
L 129.301343 146.697813 
L 130.932773 137.212296 
L 132.564203 134.339098 
L 134.195633 88.45079 
L 135.827063 142.874812 
L 137.458492 141.89921 
L 139.089922 139.042842 
L 140.721352 151.491652 
L 142.352782 141.394054 
L 143.984212 133.040509 
L 145.615642 145.892979 
L 147.247072 153.871504 
L 148.878502 154.956738 
L 150.509931 135.632523 
L 152.141361 140.004726 
L 153.772791 144.709379 
L 155.404221 152.138611 
L 157.035651 122.083008 
L 158.667081 147.219899 
L 160.298511 131.058126 
L 161.929941 146.829 
L 163.56137 148.971779 
L 165.1928 137.234536 
L 166.82423 153.193249 
L 168.45566 147.752427 
L 170.08709 122.609327 
L 171.71852 139.64496 
L 173.34995 134.252745 
L 174.98138 144.42217 
L 176.61281 135.076271 
L 178.244239 148.418171 
L 179.875669 138.14135 
L 181.507099 119.939115 
L 183.138529 146.00683 
L 184.769959 137.869685 
L 186.401389 148.270628 
L 188.032819 138.642524 
L 189.664249 141.639951 
L 191.295678 130.714358 
L 192.927108 136.633877 
L 194.558538 146.322987 
L 196.189968 148.033543 
L 197.821398 148.432789 
L 199.452828 138.97513 
L 201.084258 146.968209 
L 202.715688 150.504718 
L 204.347117 112.534984 
L 205.978547 140.980269 
L 207.609977 148.898418 
L 209.241407 141.22074 
L 210.872837 147.494511 
L 212.504267 143.628898 
L 214.135697 139.414489 
L 215.767127 134.624413 
L 217.398556 135.606157 
L 219.029986 132.950645 
L 220.661416 143.16495 
L 222.292846 123.307183 
L 223.924276 141.520768 
L 225.555706 92.888615 
L 227.187136 126.200559 
L 228.818566 138.726096 
L 230.449995 130.21995 
L 232.081425 141.140294 
L 233.712855 108.893925 
L 235.344285 127.77497 
L 236.975715 140.293478 
L 238.607145 128.271483 
L 240.238575 143.389704 
L 241.870005 131.607253 
L 243.501434 142.440052 
L 245.132864 121.670287 
L 246.764294 128.53169 
L 248.395724 138.07193 
L 250.027154 114.134012 
L 251.658584 138.244096 
L 253.290014 130.248798 
L 254.921444 147.727031 
L 256.552873 127.90141 
L 258.184303 133.986505 
L 259.815733 144.845566 
L 261.447163 135.348998 
L 263.078593 127.610183 
L 264.710023 143.639135 
L 266.341453 127.97372 
L 267.972883 123.090032 
L 269.604312 115.204179 
L 271.235742 124.640816 
L 272.867172 119.762311 
L 274.498602 129.424209 
L 276.130032 130.736883 
L 277.761462 136.826853 
L 279.392892 139.172399 
L 281.024322 148.120984 
L 282.655751 145.756351 
L 284.287181 142.517078 
L 285.918611 147.192564 
L 287.550041 124.647858 
L 289.181471 129.14649 
L 290.812901 138.779554 
L 292.444331 146.942866 
L 294.075761 146.079953 
L 295.70719 128.41566 
L 297.33862 145.553055 
L 298.97005 133.243721 
L 300.60148 147.23783 
L 302.23291 132.223965 
L 303.86434 152.701423 
L 305.49577 143.615032 
L 307.1272 144.142943 
L 308.75863 143.824 
L 310.390059 127.020591 
L 312.021489 140.31611 
L 313.652919 150.947244 
L 315.284349 132.232663 
L 316.915779 146.732613 
L 318.547209 144.514152 
L 320.178639 152.10686 
L 321.810069 126.042452 
L 323.441498 149.08174 
L 325.072928 147.285464 
L 326.704358 126.385046 
L 328.335788 136.632729 
L 329.967218 138.680135 
L 331.598648 147.207124 
L 333.230078 132.630965 
L 334.861508 150.472675 
L 336.492937 151.001291 
L 338.124367 142.613438 
L 339.755797 146.196475 
L 341.387227 142.962221 
L 343.018657 119.121313 
L 344.650087 143.967408 
L 346.281517 142.701783 
L 347.912947 146.646463 
L 349.544376 113.927364 
L 351.175806 142.455932 
L 352.807236 125.500425 
L 354.438666 120.597837 
L 356.070096 143.339845 
L 357.701526 147.421955 
L 359.332956 142.653683 
L 360.964386 141.931049 
L 362.595815 126.476912 
L 364.227245 130.269568 
L 365.858675 151.267046 
L 367.490105 141.688205 
L 369.121535 53.568 
L 370.752965 130.364966 
L 372.384395 144.128142 
L 374.015825 127.131463 
L 375.647254 143.082519 
L 377.278684 140.309693 
L 378.910114 137.796083 
L 380.541544 126.299518 
L 382.172974 144.960034 
L 383.804404 149.504211 
L 385.435834 143.727818 
L 387.067264 105.198858 
L 388.698693 143.346093 
L 390.330123 118.500528 
L 391.961553 126.562774 
L 393.592983 115.507778 
L 395.224413 100.71884 
L 396.855843 135.410674 
L 398.487273 141.089829 
L 398.487273 141.089829 
" clip-path="url(#p5b5adb0f11)" style="fill: none; stroke: #ff0000; stroke-width: 1.5; stroke-linecap: square"/>
   </g>
   <g id="patch_3">
    <path d="M 57.6 307.584 
L 57.6 41.472 
" style="fill: none; stroke: #000000; stroke-width: 0.8; stroke-linejoin: miter; stroke-linecap: square"/>
   </g>
   <g id="patch_4">
    <path d="M 414.72 307.584 
L 414.72 41.472 
" style="fill: none; stroke: #000000; stroke-width: 0.8; stroke-linejoin: miter; stroke-linecap: square"/>
   </g>
   <g id="patch_5">
    <path d="M 57.6 307.584 
L 414.72 307.584 
" style="fill: none; stroke: #000000; stroke-width: 0.8; stroke-linejoin: miter; stroke-linecap: square"/>
   </g>
   <g id="patch_6">
    <path d="M 57.6 41.472 
L 414.72 41.472 
" style="fill: none; stroke: #000000; stroke-width: 0.8; stroke-linejoin: miter; stroke-linecap: square"/>
   </g>
   <g id="text_13">
    <!-- Population's average and best fitness -->
    <g transform="translate(123.529687 35.472) scale(0.12 -0.12)">
     <defs>
      <path id="DejaVuSans-50" d="M 1259 4147 
L 1259 2394 
L 2053 2394 
Q 2494 2394 2734 2622 
Q 2975 2850 2975 3272 
Q 2975 3691 2734 3919 
Q 2494 4147 2053 4147 
L 1259 4147 
z
M 628 4666 
L 2053 4666 
Q 2838 4666 3239 4311 
Q 3641 3956 3641 3272 
Q 3641 2581 3239 2228 
Q 2838 1875 2053 1875 
L 1259 1875 
L 1259 0 
L 628 0 
L 628 4666 
z
" transform="scale(0.015625)"/>
      <path id="DejaVuSans-70" d="M 1159 525 
L 1159 -1331 
L 581 -1331 
L 581 3500 
L 1159 3500 
L 1159 2969 
Q 1341 3281 1617 3432 
Q 1894 3584 2278 3584 
Q 2916 3584 3314 3078 
Q 3713 2572 3713 1747 
Q 3713 922 3314 415 
Q 2916 -91 2278 -91 
Q 1894 -91 1617 61 
Q 1341 213 1159 525 
z
M 3116 1747 
Q 3116 2381 2855 2742 
Q 2594 3103 2138 3103 
Q 1681 3103 1420 2742 
Q 1159 2381 1159 1747 
Q 1159 1113 1420 752 
Q 1681 391 2138 391 
Q 2594 391 2855 752 
Q 3116 1113 3116 1747 
z
" transform="scale(0.015625)"/>
      <path id="DejaVuSans-75" d="M 544 1381 
L 544 3500 
L 1119 3500 
L 1119 1403 
Q 1119 906 1312 657 
Q 1506 409 1894 409 
Q 2359 409 2629 706 
Q 2900 1003 2900 1516 
L 2900 3500 
L 3475 3500 
L 3475 0 
L 2900 0 
L 2900 538 
Q 2691 219 2414 64 
Q 2138 -91 1772 -91 
Q 1169 -91 856 284 
Q 544 659 544 1381 
z
M 1991 3584 
L 1991 3584 
z
" transform="scale(0.015625)"/>
      <path id="DejaVuSans-6c" d="M 603 4863 
L 1178 4863 
L 1178 0 
L 603 0 
L 603 4863 
z
" transform="scale(0.015625)"/>
      <path id="DejaVuSans-27" d="M 1147 4666 
L 1147 2931 
L 616 2931 
L 616 4666 
L 1147 4666 
z
" transform="scale(0.015625)"/>
      <path id="DejaVuSans-20" transform="scale(0.015625)"/>
      <path id="DejaVuSans-76" d="M 191 3500 
L 800 3500 
L 1894 563 
L 2988 3500 
L 3597 3500 
L 2284 0 
L 1503 0 
L 191 3500 
z
" transform="scale(0.015625)"/>
      <path id="DejaVuSans-67" d="M 2906 1791 
Q 2906 2416 2648 2759 
Q 2391 3103 1925 3103 
Q 1463 3103 1205 2759 
Q 947 2416 947 1791 
Q 947 1169 1205 825 
Q 1463 481 1925 481 
Q 2391 481 2648 825 
Q 2906 1169 2906 1791 
z
M 3481 434 
Q 3481 -459 3084 -895 
Q 2688 -1331 1869 -1331 
Q 1566 -1331 1297 -1286 
Q 1028 -1241 775 -1147 
L 775 -588 
Q 1028 -725 1275 -790 
Q 1522 -856 1778 -856 
Q 2344 -856 2625 -561 
Q 2906 -266 2906 331 
L 2906 616 
Q 2728 306 2450 153 
Q 2172 0 1784 0 
Q 1141 0 747 490 
Q 353 981 353 1791 
Q 353 2603 747 3093 
Q 1141 3584 1784 3584 
Q 2172 3584 2450 3431 
Q 2728 3278 2906 2969 
L 2906 3500 
L 3481 3500 
L 3481 434 
z
" transform="scale(0.015625)"/>
      <path id="DejaVuSans-64" d="M 2906 2969 
L 2906 4863 
L 3481 4863 
L 3481 0 
L 2906 0 
L 2906 525 
Q 2725 213 2448 61 
Q 2172 -91 1784 -91 
Q 1150 -91 751 415 
Q 353 922 353 1747 
Q 353 2572 751 3078 
Q 1150 3584 1784 3584 
Q 2172 3584 2448 3432 
Q 2725 3281 2906 2969 
z
M 947 1747 
Q 947 1113 1208 752 
Q 1469 391 1925 391 
Q 2381 391 2643 752 
Q 2906 1113 2906 1747 
Q 2906 2381 2643 2742 
Q 2381 3103 1925 3103 
Q 1469 3103 1208 2742 
Q 947 2381 947 1747 
z
" transform="scale(0.015625)"/>
      <path id="DejaVuSans-62" d="M 3116 1747 
Q 3116 2381 2855 2742 
Q 2594 3103 2138 3103 
Q 1681 3103 1420 2742 
Q 1159 2381 1159 1747 
Q 1159 1113 1420 752 
Q 1681 391 2138 391 
Q 2594 391 2855 752 
Q 3116 1113 3116 1747 
z
M 1159 2969 
Q 1341 3281 1617 3432 
Q 1894 3584 2278 3584 
Q 2916 3584 3314 3078 
Q 3713 2572 3713 1747 
Q 3713 922 3314 415 
Q 2916 -91 2278 -91 
Q 1894 -91 1617 61 
Q 1341 213 1159 525 
L 1159 0 
L 581 0 
L 581 4863 
L 1159 4863 
L 1159 2969 
z
" transform="scale(0.015625)"/>
      <path id="DejaVuSans-66" d="M 2375 4863 
L 2375 4384 
L 1825 4384 
Q 1516 4384 1395 4259 
Q 1275 4134 1275 3809 
L 1275 3500 
L 2222 3500 
L 2222 3053 
L 1275 3053 
L 1275 0 
L 697 0 
L 697 3053 
L 147 3053 
L 147 3500 
L 697 3500 
L 697 3744 
Q 697 4328 969 4595 
Q 1241 4863 1831 4863 
L 2375 4863 
z
" transform="scale(0.015625)"/>
     </defs>
     <use xlink:href="#DejaVuSans-50"/>
     <use xlink:href="#DejaVuSans-6f" transform="translate(56.677734 0)"/>
     <use xlink:href="#DejaVuSans-70" transform="translate(117.859375 0)"/>
     <use xlink:href="#DejaVuSans-75" transform="translate(181.335938 0)"/>
     <use xlink:href="#DejaVuSans-6c" transform="translate(244.714844 0)"/>
     <use xlink:href="#DejaVuSans-61" transform="translate(272.498047 0)"/>
     <use xlink:href="#DejaVuSans-74" transform="translate(333.777344 0)"/>
     <use xlink:href="#DejaVuSans-69" transform="translate(372.986328 0)"/>
     <use xlink:href="#DejaVuSans-6f" transform="translate(400.769531 0)"/>
     <use xlink:href="#DejaVuSans-6e" transform="translate(461.951172 0)"/>
     <use xlink:href="#DejaVuSans-27" transform="translate(525.330078 0)"/>
     <use xlink:href="#DejaVuSans-73" transform="translate(552.820312 0)"/>
     <use xlink:href="#DejaVuSans-20" transform="translate(604.919922 0)"/>
     <use xlink:href="#DejaVuSans-61" transform="translate(636.707031 0)"/>
     <use xlink:href="#DejaVuSans-76" transform="translate(697.986328 0)"/>
     <use xlink:href="#DejaVuSans-65" transform="translate(757.166016 0)"/>
     <use xlink:href="#DejaVuSans-72" transform="translate(818.689453 0)"/>
     <use xlink:href="#DejaVuSans-61" transform="translate(859.802734 0)"/>
     <use xlink:href="#DejaVuSans-67" transform="translate(921.082031 0)"/>
     <use xlink:href="#DejaVuSans-65" transform="translate(984.558594 0)"/>
     <use xlink:href="#DejaVuSans-20" transform="translate(1046.082031 0)"/>
     <use xlink:href="#DejaVuSans-61" transform="translate(1077.869141 0)"/>
     <use xlink:href="#DejaVuSans-6e" transform="translate(1139.148438 0)"/>
     <use xlink:href="#DejaVuSans-64" transform="translate(1202.527344 0)"/>
     <use xlink:href="#DejaVuSans-20" transform="translate(1266.003906 0)"/>
     <use xlink:href="#DejaVuSans-62" transform="translate(1297.791016 0)"/>
     <use xlink:href="#DejaVuSans-65" transform="translate(1361.267578 0)"/>
     <use xlink:href="#DejaVuSans-73" transform="translate(1422.791016 0)"/>
     <use xlink:href="#DejaVuSans-74" transform="translate(1474.890625 0)"/>
     <use xlink:href="#DejaVuSans-20" transform="translate(1514.099609 0)"/>
     <use xlink:href="#DejaVuSans-66" transform="translate(1545.886719 0)"/>
     <use xlink:href="#DejaVuSans-69" transform="translate(1581.091797 0)"/>
     <use xlink:href="#DejaVuSans-74" transform="translate(1608.875 0)"/>
     <use xlink:href="#DejaVuSans-6e" transform="translate(1648.083984 0)"/>
     <use xlink:href="#DejaVuSans-65" transform="translate(1711.462891 0)"/>
     <use xlink:href="#DejaVuSans-73" transform="translate(1772.986328 0)"/>
     <use xlink:href="#DejaVuSans-73" transform="translate(1825.085938 0)"/>
    </g>
   </g>
   <g id="legend_1">
    <g id="patch_7">
     <path d="M 334.779375 302.584 
L 407.72 302.584 
Q 409.72 302.584 409.72 300.584 
L 409.72 257.549625 
Q 409.72 255.549625 407.72 255.549625 
L 334.779375 255.549625 
Q 332.779375 255.549625 332.779375 257.549625 
L 332.779375 300.584 
Q 332.779375 302.584 334.779375 302.584 
z
" style="fill: #ffffff; opacity: 0.8; stroke: #cccccc; stroke-linejoin: miter"/>
    </g>
    <g id="line2d_24">
     <path d="M 336.779375 263.648062 
L 346.779375 263.648062 
L 356.779375 263.648062 
" style="fill: none; stroke: #0000ff; stroke-width: 1.5; stroke-linecap: square"/>
    </g>
    <g id="text_14">
     <!-- average -->
     <g transform="translate(364.779375 267.148062) scale(0.1 -0.1)">
      <use xlink:href="#DejaVuSans-61"/>
      <use xlink:href="#DejaVuSans-76" transform="translate(61.279297 0)"/>
      <use xlink:href="#DejaVuSans-65" transform="translate(120.458984 0)"/>
      <use xlink:href="#DejaVuSans-72" transform="translate(181.982422 0)"/>
      <use xlink:href="#DejaVuSans-61" transform="translate(223.095703 0)"/>
      <use xlink:href="#DejaVuSans-67" transform="translate(284.375 0)"/>
      <use xlink:href="#DejaVuSans-65" transform="translate(347.851562 0)"/>
     </g>
    </g>
    <g id="line2d_25">
     <path d="M 336.779375 278.326188 
L 346.779375 278.326188 
L 356.779375 278.326188 
" style="fill: none; stroke-dasharray: 9.6,2.4,1.5,2.4; stroke-dashoffset: 0; stroke: #008000; stroke-width: 1.5"/>
    </g>
    <g id="text_15">
     <!-- +1 sd -->
     <g transform="translate(364.779375 281.826188) scale(0.1 -0.1)">
      <defs>
       <path id="DejaVuSans-2b" d="M 2944 4013 
L 2944 2272 
L 4684 2272 
L 4684 1741 
L 2944 1741 
L 2944 0 
L 2419 0 
L 2419 1741 
L 678 1741 
L 678 2272 
L 2419 2272 
L 2419 4013 
L 2944 4013 
z
" transform="scale(0.015625)"/>
      </defs>
      <use xlink:href="#DejaVuSans-2b"/>
      <use xlink:href="#DejaVuSans-31" transform="translate(83.789062 0)"/>
      <use xlink:href="#DejaVuSans-20" transform="translate(147.412109 0)"/>
      <use xlink:href="#DejaVuSans-73" transform="translate(179.199219 0)"/>
      <use xlink:href="#DejaVuSans-64" transform="translate(231.298828 0)"/>
     </g>
    </g>
    <g id="line2d_26">
     <path d="M 336.779375 293.004312 
L 346.779375 293.004312 
L 356.779375 293.004312 
" style="fill: none; stroke: #ff0000; stroke-width: 1.5; stroke-linecap: square"/>
    </g>
    <g id="text_16">
     <!-- best -->
     <g transform="translate(364.779375 296.504312) scale(0.1 -0.1)">
      <use xlink:href="#DejaVuSans-62"/>
      <use xlink:href="#DejaVuSans-65" transform="translate(63.476562 0)"/>
      <use xlink:href="#DejaVuSans-73" transform="translate(125 0)"/>
      <use xlink:href="#DejaVuSans-74" transform="translate(177.099609 0)"/>
     </g>
    </g>
   </g>
  </g>
 </g>
 <defs>
  <clipPath id="p5b5adb0f11">
   <rect x="57.6" y="41.472" width="357.12" height="266.112"/>
  </clipPath>
 </defs>
</svg>
