<?xml version="1.0" encoding="utf-8" standalone="no"?>
<!DOCTYPE svg PUBLIC "-//W3C//DTD SVG 1.1//EN"
  "http://www.w3.org/Graphics/SVG/1.1/DTD/svg11.dtd">
<svg xmlns:xlink="http://www.w3.org/1999/xlink" width="460.8pt" height="345.6pt" viewBox="0 0 460.8 345.6" xmlns="http://www.w3.org/2000/svg" version="1.1">
 <metadata>
  <rdf:RDF xmlns:dc="http://purl.org/dc/elements/1.1/" xmlns:cc="http://creativecommons.org/ns#" xmlns:rdf="http://www.w3.org/1999/02/22-rdf-syntax-ns#">
   <cc:Work>
    <dc:type rdf:resource="http://purl.org/dc/dcmitype/StillImage"/>
    <dc:date>2026-04-14T00:57:42.349146</dc:date>
    <dc:format>image/svg+xml</dc:format>
    <dc:creator>
     <cc:Agent>
      <dc:title>Matplotlib v3.10.8, https://matplotlib.org/</dc:title>
     </cc:Agent>
    </dc:creator>
   </cc:Work>
  </rdf:RDF>
 </metadata>
 <defs>
  <style type="text/css">*{stroke-linejoin: round; stroke-linecap: butt}</style>
 </defs>
 <g id="figure_1">
  <g id="patch_1">
   <path d="M 0 345.6 
L 460.8 345.6 
L 460.8 0 
L 0 0 
z
" style="fill: #ffffff"/>
  </g>
  <g id="axes_1">
   <g id="patch_2">
    <path d="M 57.6 307.584 
L 414.72 307.584 
L 414.72 41.472 
L 57.6 41.472 
z
" style="fill: #ffffff"/>
   </g>
   <g id="matplotlib.axis_1">
    <g id="xtick_1">
     <g id="line2d_1">
      <path d="M 73.832727 307.584 
L 73.832727 41.472 
" clip-path="url(#p3b6562b914)" style="fill: none; stroke: #b0b0b0; stroke-width: 0.8; stroke-linecap: square"/>
     </g>
     <g id="line2d_2">
      <defs>
       <path id="m1da1d957ae" d="M 0 0 
L 0 3.5 
" style="stroke: #000000; stroke-width: 0.8"/>
      </defs>
      <g>
       <use xlink:href="#m1da1d957ae" x="73.832727" y="307.584" style="stroke: #000000; stroke-width: 0.8"/>
      </g>
     </g>
     <g id="text_1">
      <!-- 0 -->
      <g transform="translate(70.651477 322.182437) scale(0.1 -0.1)">
       <defs>
        <path id="DejaVuSans-30" d="M 2034 4250 
Q 1547 4250 1301 3770 
Q 1056 3291 1056 2328 
Q 1056 1369 1301 889 
Q 1547 409 2034 409 
Q 2525 409 2770 889 
Q 3016 1369 3016 2328 
Q 3016 3291 2770 3770 
Q 2525 4250 2034 4250 
z
M 2034 4750 
Q 2819 4750 3233 4129 
Q 3647 3509 3647 2328 
Q 3647 1150 3233 529 
Q 2819 -91 2034 -91 
Q 1250 -91 836 529 
Q 422 1150 422 2328 
Q 422 3509 836 4129 
Q 1250 4750 2034 4750 
z
" transform="scale(0.015625)"/>
       </defs>
       <use xlink:href="#DejaVuSans-30"/>
      </g>
     </g>
    </g>
    <g id="xtick_2">
     <g id="line2d_3">
      <path d="M 114.618474 307.584 
L 114.618474 41.472 
" clip-path="url(#p3b6562b914)" style="fill: none; stroke: #b0b0b0; stroke-width: 0.8; stroke-linecap: square"/>
     </g>
     <g id="line2d_4">
      <g>
       <use xlink:href="#m1da1d957ae" x="114.618474" y="307.584" style="stroke: #000000; stroke-width: 0.8"/>
      </g>
     </g>
     <g id="text_2">
      <!-- 25 -->
      <g transform="translate(108.255974 322.182437) scale(0.1 -0.1)">
       <defs>
        <path id="DejaVuSans-32" d="M 1228 531 
L 3431 531 
L 3431 0 
L 469 0 
L 469 531 
Q 828 903 1448 1529 
Q 2069 2156 2228 2338 
Q 2531 2678 2651 2914 
Q 2772 3150 2772 3378 
Q 2772 3750 2511 3984 
Q 2250 4219 1831 4219 
Q 1534 4219 1204 4116 
Q 875 4013 500 3803 
L 500 4441 
Q 881 4594 1212 4672 
Q 1544 4750 1819 4750 
Q 2544 4750 2975 4387 
Q 3406 4025 3406 3419 
Q 3406 3131 3298 2873 
Q 3191 2616 2906 2266 
Q 2828 2175 2409 1742 
Q 1991 1309 1228 531 
z
" transform="scale(0.015625)"/>
        <path id="DejaVuSans-35" d="M 691 4666 
L 3169 4666 
L 3169 4134 
L 1269 4134 
L 1269 2991 
Q 1406 3038 1543 3061 
Q 1681 3084 1819 3084 
Q 2600 3084 3056 2656 
Q 3513 2228 3513 1497 
Q 3513 744 3044 326 
Q 2575 -91 1722 -91 
Q 1428 -91 1123 -41 
Q 819 9 494 109 
L 494 744 
Q 775 591 1075 516 
Q 1375 441 1709 441 
Q 2250 441 2565 725 
Q 2881 1009 2881 1497 
Q 2881 1984 2565 2268 
Q 2250 2553 1709 2553 
Q 1456 2553 1204 2497 
Q 953 2441 691 2322 
L 691 4666 
z
" transform="scale(0.015625)"/>
       </defs>
       <use xlink:href="#DejaVuSans-32"/>
       <use xlink:href="#DejaVuSans-35" transform="translate(63.623047 0)"/>
      </g>
     </g>
    </g>
    <g id="xtick_3">
     <g id="line2d_5">
      <path d="M 155.404221 307.584 
L 155.404221 41.472 
" clip-path="url(#p3b6562b914)" style="fill: none; stroke: #b0b0b0; stroke-width: 0.8; stroke-linecap: square"/>
     </g>
     <g id="line2d_6">
      <g>
       <use xlink:href="#m1da1d957ae" x="155.404221" y="307.584" style="stroke: #000000; stroke-width: 0.8"/>
      </g>
     </g>
     <g id="text_3">
      <!-- 50 -->
      <g transform="translate(149.041721 322.182437) scale(0.1 -0.1)">
       <use xlink:href="#DejaVuSans-35"/>
       <use xlink:href="#DejaVuSans-30" transform="translate(63.623047 0)"/>
      </g>
     </g>
    </g>
    <g id="xtick_4">
     <g id="line2d_7">
      <path d="M 196.189968 307.584 
L 196.189968 41.472 
" clip-path="url(#p3b6562b914)" style="fill: none; stroke: #b0b0b0; stroke-width: 0.8; stroke-linecap: square"/>
     </g>
     <g id="line2d_8">
      <g>
       <use xlink:href="#m1da1d957ae" x="196.189968" y="307.584" style="stroke: #000000; stroke-width: 0.8"/>
      </g>
     </g>
     <g id="text_4">
      <!-- 75 -->
      <g transform="translate(189.827468 322.182437) scale(0.1 -0.1)">
       <defs>
        <path id="DejaVuSans-37" d="M 525 4666 
L 3525 4666 
L 3525 4397 
L 1831 0 
L 1172 0 
L 2766 4134 
L 525 4134 
L 525 4666 
z
" transform="scale(0.015625)"/>
       </defs>
       <use xlink:href="#DejaVuSans-37"/>
       <use xlink:href="#DejaVuSans-35" transform="translate(63.623047 0)"/>
      </g>
     </g>
    </g>
    <g id="xtick_5">
     <g id="line2d_9">
      <path d="M 236.975715 307.584 
L 236.975715 41.472 
" clip-path="url(#p3b6562b914)" style="fill: none; stroke: #b0b0b0; stroke-width: 0.8; stroke-linecap: square"/>
     </g>
     <g id="line2d_10">
      <g>
       <use xlink:href="#m1da1d957ae" x="236.975715" y="307.584" style="stroke: #000000; stroke-width: 0.8"/>
      </g>
     </g>
     <g id="text_5">
      <!-- 100 -->
      <g transform="translate(227.431965 322.182437) scale(0.1 -0.1)">
       <defs>
        <path id="DejaVuSans-31" d="M 794 531 
L 1825 531 
L 1825 4091 
L 703 3866 
L 703 4441 
L 1819 4666 
L 2450 4666 
L 2450 531 
L 3481 531 
L 3481 0 
L 794 0 
L 794 531 
z
" transform="scale(0.015625)"/>
       </defs>
       <use xlink:href="#DejaVuSans-31"/>
       <use xlink:href="#DejaVuSans-30" transform="translate(63.623047 0)"/>
       <use xlink:href="#DejaVuSans-30" transform="translate(127.246094 0)"/>
      </g>
     </g>
    </g>
    <g id="xtick_6">
     <g id="line2d_11">
      <path d="M 277.761462 307.584 
L 277.761462 41.472 
" clip-path="url(#p3b6562b914)" style="fill: none; stroke: #b0b0b0; stroke-width: 0.8; stroke-linecap: square"/>
     </g>
     <g id="line2d_12">
      <g>
       <use xlink:href="#m1da1d957ae" x="277.761462" y="307.584" style="stroke: #000000; stroke-width: 0.8"/>
      </g>
     </g>
     <g id="text_6">
      <!-- 125 -->
      <g transform="translate(268.217712 322.182437) scale(0.1 -0.1)">
       <use xlink:href="#DejaVuSans-31"/>
       <use xlink:href="#DejaVuSans-32" transform="translate(63.623047 0)"/>
       <use xlink:href="#DejaVuSans-35" transform="translate(127.246094 0)"/>
      </g>
     </g>
    </g>
    <g id="xtick_7">
     <g id="line2d_13">
      <path d="M 318.547209 307.584 
L 318.547209 41.472 
" clip-path="url(#p3b6562b914)" style="fill: none; stroke: #b0b0b0; stroke-width: 0.8; stroke-linecap: square"/>
     </g>
     <g id="line2d_14">
      <g>
       <use xlink:href="#m1da1d957ae" x="318.547209" y="307.584" style="stroke: #000000; stroke-width: 0.8"/>
      </g>
     </g>
     <g id="text_7">
      <!-- 150 -->
      <g transform="translate(309.003459 322.182437) scale(0.1 -0.1)">
       <use xlink:href="#DejaVuSans-31"/>
       <use xlink:href="#DejaVuSans-35" transform="translate(63.623047 0)"/>
       <use xlink:href="#DejaVuSans-30" transform="translate(127.246094 0)"/>
      </g>
     </g>
    </g>
    <g id="xtick_8">
     <g id="line2d_15">
      <path d="M 359.332956 307.584 
L 359.332956 41.472 
" clip-path="url(#p3b6562b914)" style="fill: none; stroke: #b0b0b0; stroke-width: 0.8; stroke-linecap: square"/>
     </g>
     <g id="line2d_16">
      <g>
       <use xlink:href="#m1da1d957ae" x="359.332956" y="307.584" style="stroke: #000000; stroke-width: 0.8"/>
      </g>
     </g>
     <g id="text_8">
      <!-- 175 -->
      <g transform="translate(349.789206 322.182437) scale(0.1 -0.1)">
       <use xlink:href="#DejaVuSans-31"/>
       <use xlink:href="#DejaVuSans-37" transform="translate(63.623047 0)"/>
       <use xlink:href="#DejaVuSans-35" transform="translate(127.246094 0)"/>
      </g>
     </g>
    </g>
    <g id="xtick_9">
     <g id="line2d_17">
      <path d="M 400.118703 307.584 
L 400.118703 41.472 
" clip-path="url(#p3b6562b914)" style="fill: none; stroke: #b0b0b0; stroke-width: 0.8; stroke-linecap: square"/>
     </g>
     <g id="line2d_18">
      <g>
       <use xlink:href="#m1da1d957ae" x="400.118703" y="307.584" style="stroke: #000000; stroke-width: 0.8"/>
      </g>
     </g>
     <g id="text_9">
      <!-- 200 -->
      <g transform="translate(390.574953 322.182437) scale(0.1 -0.1)">
       <use xlink:href="#DejaVuSans-32"/>
       <use xlink:href="#DejaVuSans-30" transform="translate(63.623047 0)"/>
       <use xlink:href="#DejaVuSans-30" transform="translate(127.246094 0)"/>
      </g>
     </g>
    </g>
    <g id="text_10">
     <!-- Generations -->
     <g transform="translate(205.662344 335.860562) scale(0.1 -0.1)">
      <defs>
       <path id="DejaVuSans-47" d="M 3809 666 
L 3809 1919 
L 2778 1919 
L 2778 2438 
L 4434 2438 
L 4434 434 
Q 4069 175 3628 42 
Q 3188 -91 2688 -91 
Q 1594 -91 976 548 
Q 359 1188 359 2328 
Q 359 3472 976 4111 
Q 1594 4750 2688 4750 
Q 3144 4750 3555 4637 
Q 3966 4525 4313 4306 
L 4313 3634 
Q 3963 3931 3569 4081 
Q 3175 4231 2741 4231 
Q 1884 4231 1454 3753 
Q 1025 3275 1025 2328 
Q 1025 1384 1454 906 
Q 1884 428 2741 428 
Q 3075 428 3337 486 
Q 3600 544 3809 666 
z
" transform="scale(0.015625)"/>
       <path id="DejaVuSans-65" d="M 3597 1894 
L 3597 1613 
L 953 1613 
Q 991 1019 1311 708 
Q 1631 397 2203 397 
Q 2534 397 2845 478 
Q 3156 559 3463 722 
L 3463 178 
Q 3153 47 2828 -22 
Q 2503 -91 2169 -91 
Q 1331 -91 842 396 
Q 353 884 353 1716 
Q 353 2575 817 3079 
Q 1281 3584 2069 3584 
Q 2775 3584 3186 3129 
Q 3597 2675 3597 1894 
z
M 3022 2063 
Q 3016 2534 2758 2815 
Q 2500 3097 2075 3097 
Q 1594 3097 1305 2825 
Q 1016 2553 972 2059 
L 3022 2063 
z
" transform="scale(0.015625)"/>
       <path id="DejaVuSans-6e" d="M 3513 2113 
L 3513 0 
L 2938 0 
L 2938 2094 
Q 2938 2591 2744 2837 
Q 2550 3084 2163 3084 
Q 1697 3084 1428 2787 
Q 1159 2491 1159 1978 
L 1159 0 
L 581 0 
L 581 3500 
L 1159 3500 
L 1159 2956 
Q 1366 3272 1645 3428 
Q 1925 3584 2291 3584 
Q 2894 3584 3203 3211 
Q 3513 2838 3513 2113 
z
" transform="scale(0.015625)"/>
       <path id="DejaVuSans-72" d="M 2631 2963 
Q 2534 3019 2420 3045 
Q 2306 3072 2169 3072 
Q 1681 3072 1420 2755 
Q 1159 2438 1159 1844 
L 1159 0 
L 581 0 
L 581 3500 
L 1159 3500 
L 1159 2956 
Q 1341 3275 1631 3429 
Q 1922 3584 2338 3584 
Q 2397 3584 2469 3576 
Q 2541 3569 2628 3553 
L 2631 2963 
z
" transform="scale(0.015625)"/>
       <path id="DejaVuSans-61" d="M 2194 1759 
Q 1497 1759 1228 1600 
Q 959 1441 959 1056 
Q 959 750 1161 570 
Q 1363 391 1709 391 
Q 2188 391 2477 730 
Q 2766 1069 2766 1631 
L 2766 1759 
L 2194 1759 
z
M 3341 1997 
L 3341 0 
L 2766 0 
L 2766 531 
Q 2569 213 2275 61 
Q 1981 -91 1556 -91 
Q 1019 -91 701 211 
Q 384 513 384 1019 
Q 384 1609 779 1909 
Q 1175 2209 1959 2209 
L 2766 2209 
L 2766 2266 
Q 2766 2663 2505 2880 
Q 2244 3097 1772 3097 
Q 1472 3097 1187 3025 
Q 903 2953 641 2809 
L 641 3341 
Q 956 3463 1253 3523 
Q 1550 3584 1831 3584 
Q 2591 3584 2966 3190 
Q 3341 2797 3341 1997 
z
" transform="scale(0.015625)"/>
       <path id="DejaVuSans-74" d="M 1172 4494 
L 1172 3500 
L 2356 3500 
L 2356 3053 
L 1172 3053 
L 1172 1153 
Q 1172 725 1289 603 
Q 1406 481 1766 481 
L 2356 481 
L 2356 0 
L 1766 0 
Q 1100 0 847 248 
Q 594 497 594 1153 
L 594 3053 
L 172 3053 
L 172 3500 
L 594 3500 
L 594 4494 
L 1172 4494 
z
" transform="scale(0.015625)"/>
       <path id="DejaVuSans-69" d="M 603 3500 
L 1178 3500 
L 1178 0 
L 603 0 
L 603 3500 
z
M 603 4863 
L 1178 4863 
L 1178 4134 
L 603 4134 
L 603 4863 
z
" transform="scale(0.015625)"/>
       <path id="DejaVuSans-6f" d="M 1959 3097 
Q 1497 3097 1228 2736 
Q 959 2375 959 1747 
Q 959 1119 1226 758 
Q 1494 397 1959 397 
Q 2419 397 2687 759 
Q 2956 1122 2956 1747 
Q 2956 2369 2687 2733 
Q 2419 3097 1959 3097 
z
M 1959 3584 
Q 2709 3584 3137 3096 
Q 3566 2609 3566 1747 
Q 3566 888 3137 398 
Q 2709 -91 1959 -91 
Q 1206 -91 779 398 
Q 353 888 353 1747 
Q 353 2609 779 3096 
Q 1206 3584 1959 3584 
z
" transform="scale(0.015625)"/>
       <path id="DejaVuSans-73" d="M 2834 3397 
L 2834 2853 
Q 2591 2978 2328 3040 
Q 2066 3103 1784 3103 
Q 1356 3103 1142 2972 
Q 928 2841 928 2578 
Q 928 2378 1081 2264 
Q 1234 2150 1697 2047 
L 1894 2003 
Q 2506 1872 2764 1633 
Q 3022 1394 3022 966 
Q 3022 478 2636 193 
Q 2250 -91 1575 -91 
Q 1294 -91 989 -36 
Q 684 19 347 128 
L 347 722 
Q 666 556 975 473 
Q 1284 391 1588 391 
Q 1994 391 2212 530 
Q 2431 669 2431 922 
Q 2431 1156 2273 1281 
Q 2116 1406 1581 1522 
L 1381 1569 
Q 847 1681 609 1914 
Q 372 2147 372 2553 
Q 372 3047 722 3315 
Q 1072 3584 1716 3584 
Q 2034 3584 2315 3537 
Q 2597 3491 2834 3397 
z
" transform="scale(0.015625)"/>
      </defs>
      <use xlink:href="#DejaVuSans-47"/>
      <use xlink:href="#DejaVuSans-65" transform="translate(77.490234 0)"/>
      <use xlink:href="#DejaVuSans-6e" transform="translate(139.013672 0)"/>
      <use xlink:href="#DejaVuSans-65" transform="translate(202.392578 0)"/>
      <use xlink:href="#DejaVuSans-72" transform="translate(263.916016 0)"/>
      <use xlink:href="#DejaVuSans-61" transform="translate(305.029297 0)"/>
      <use xlink:href="#DejaVuSans-74" transform="translate(366.308594 0)"/>
      <use xlink:href="#DejaVuSans-69" transform="translate(405.517578 0)"/>
      <use xlink:href="#DejaVuSans-6f" transform="translate(433.300781 0)"/>
      <use xlink:href="#DejaVuSans-6e" transform="translate(494.482422 0)"/>
      <use xlink:href="#DejaVuSans-73" transform="translate(557.861328 0)"/>
     </g>
    </g>
   </g>
   <g id="matplotlib.axis_2">
    <g id="ytick_1">
     <g id="line2d_19">
      <path d="M 57.6 129.027409 
L 414.72 129.027409 
" clip-path="url(#p3b6562b914)" style="fill: none; stroke: #b0b0b0; stroke-width: 0.8; stroke-linecap: square"/>
     </g>
     <g id="line2d_20">
      <defs>
       <path id="ma7f3048fe4" d="M 0 0 
L -3.5 0 
" style="stroke: #000000; stroke-width: 0.8"/>
      </defs>
      <g>
       <use xlink:href="#ma7f3048fe4" x="57.6" y="129.027409" style="stroke: #000000; stroke-width: 0.8"/>
      </g>
     </g>
     <g id="text_11">
      <!-- $\mathdefault{10^{2}}$ -->
      <g transform="translate(33 132.826628) scale(0.1 -0.1)">
       <use xlink:href="#DejaVuSans-31" transform="translate(0 0.765625)"/>
       <use xlink:href="#DejaVuSans-30" transform="translate(63.623047 0.765625)"/>
       <use xlink:href="#DejaVuSans-32" transform="translate(128.203125 39.046875) scale(0.7)"/>
      </g>
     </g>
    </g>
    <g id="text_12">
     <!-- Fitness -->
     <g transform="translate(26.920312 191.845187) rotate(-90) scale(0.1 -0.1)">
      <defs>
       <path id="DejaVuSans-46" d="M 628 4666 
L 3309 4666 
L 3309 4134 
L 1259 4134 
L 1259 2759 
L 3109 2759 
L 3109 2228 
L 1259 2228 
L 1259 0 
L 628 0 
L 628 4666 
z
" transform="scale(0.015625)"/>
      </defs>
      <use xlink:href="#DejaVuSans-46"/>
      <use xlink:href="#DejaVuSans-69" transform="translate(50.269531 0)"/>
      <use xlink:href="#DejaVuSans-74" transform="translate(78.052734 0)"/>
      <use xlink:href="#DejaVuSans-6e" transform="translate(117.261719 0)"/>
      <use xlink:href="#DejaVuSans-65" transform="translate(180.640625 0)"/>
      <use xlink:href="#DejaVuSans-73" transform="translate(242.164062 0)"/>
      <use xlink:href="#DejaVuSans-73" transform="translate(294.263672 0)"/>
     </g>
    </g>
   </g>
   <g id="line2d_21">
    <path d="M 73.832727 295.488 
L 75.464157 240.587056 
L 77.095587 193.835986 
L 78.727017 172.473036 
L 80.358447 167.607587 
L 81.989877 161.931281 
L 83.621307 157.247844 
L 85.252736 156.386987 
L 88.515596 151.175008 
L 90.147026 153.097408 
L 91.778456 150.800647 
L 93.409886 150.380087 
L 95.041316 148.775788 
L 96.672746 148.4861 
L 98.304175 148.619261 
L 99.935605 148.359536 
L 101.567035 148.947147 
L 103.198465 145.42668 
L 104.829895 148.741628 
L 106.461325 146.605734 
L 108.092755 146.540267 
L 109.724185 146.809025 
L 111.355614 144.647517 
L 112.987044 143.392543 
L 114.618474 143.27511 
L 116.249904 143.572204 
L 117.881334 144.199263 
L 119.512764 144.147444 
L 121.144194 143.185668 
L 122.775624 142.086013 
L 124.407053 142.813288 
L 126.038483 144.172267 
L 127.669913 141.991895 
L 129.301343 143.295486 
L 130.932773 144.308632 
L 132.564203 142.456756 
L 134.195633 143.495787 
L 135.827063 144.128628 
L 137.458492 145.354874 
L 139.089922 146.092595 
L 140.721352 144.113559 
L 142.352782 143.029556 
L 143.984212 144.217717 
L 145.615642 144.083506 
L 147.247072 140.232501 
L 148.878502 142.539867 
L 150.509931 143.512546 
L 152.141361 141.832223 
L 153.772791 144.714488 
L 155.404221 143.839202 
L 157.035651 141.460419 
L 158.667081 143.45002 
L 160.298511 142.245009 
L 161.929941 142.700861 
L 163.56137 142.535929 
L 165.1928 140.204011 
L 166.82423 143.205411 
L 168.45566 145.007341 
L 170.08709 140.71501 
L 171.71852 140.573354 
L 173.34995 142.135143 
L 174.98138 141.648373 
L 176.61281 139.284441 
L 178.244239 144.401533 
L 179.875669 143.445906 
L 181.507099 141.116334 
L 183.138529 140.997317 
L 184.769959 141.449705 
L 186.401389 142.272126 
L 188.032819 143.258054 
L 189.664249 139.682264 
L 191.295678 141.27106 
L 192.927108 139.086169 
L 194.558538 139.906729 
L 196.189968 138.882082 
L 197.821398 141.928056 
L 199.452828 142.035693 
L 201.084258 141.242596 
L 202.715688 142.444405 
L 204.347117 141.869074 
L 205.978547 140.520015 
L 207.609977 143.113779 
L 209.241407 142.162851 
L 210.872837 140.879961 
L 214.135697 142.317241 
L 215.767127 140.72311 
L 217.398556 141.727225 
L 219.029986 140.905858 
L 220.661416 141.203904 
L 222.292846 140.697145 
L 223.924276 140.889363 
L 225.555706 139.956881 
L 227.187136 139.859865 
L 228.818566 139.939644 
L 230.449995 141.622437 
L 232.081425 140.052204 
L 233.712855 140.863341 
L 235.344285 140.80808 
L 236.975715 141.82933 
L 238.607145 139.617968 
L 240.238575 141.271757 
L 241.870005 138.14796 
L 243.501434 140.363282 
L 245.132864 141.310579 
L 246.764294 140.236525 
L 248.395724 141.055767 
L 250.027154 138.514414 
L 251.658584 141.025042 
L 253.290014 140.529295 
L 254.921444 142.182786 
L 256.552873 139.785185 
L 258.184303 140.161429 
L 259.815733 139.10264 
L 261.447163 139.756338 
L 264.710023 139.821767 
L 266.341453 140.877348 
L 267.972883 138.48905 
L 269.604312 140.715696 
L 271.235742 139.778308 
L 272.867172 138.099664 
L 274.498602 140.767108 
L 276.130032 140.165639 
L 277.761462 139.312628 
L 279.392892 138.780662 
L 281.024322 139.982255 
L 282.655751 138.898776 
L 284.287181 139.48155 
L 285.918611 141.809982 
L 287.550041 138.814935 
L 289.181471 140.364671 
L 290.812901 139.211284 
L 292.444331 141.796107 
L 294.075761 137.900891 
L 295.70719 139.522936 
L 297.33862 139.987732 
L 298.97005 137.602903 
L 300.60148 139.890006 
L 302.23291 138.338469 
L 303.86434 138.563665 
L 307.1272 139.392263 
L 308.75863 140.176685 
L 310.390059 138.123845 
L 312.021489 139.16039 
L 313.652919 139.19021 
L 315.284349 138.653791 
L 316.915779 139.503632 
L 320.178639 138.157933 
L 321.810069 140.13578 
L 323.441498 138.480502 
L 325.072928 139.316422 
L 326.704358 138.474672 
L 328.335788 139.100727 
L 329.967218 138.457467 
L 331.598648 138.993616 
L 333.230078 138.630294 
L 334.861508 140.078779 
L 336.492937 137.574241 
L 338.124367 138.027767 
L 339.755797 140.298572 
L 341.387227 138.291149 
L 343.018657 138.325868 
L 344.650087 139.797068 
L 346.281517 139.599954 
L 347.912947 140.501439 
L 349.544376 138.506886 
L 351.175806 137.669843 
L 352.807236 138.410103 
L 354.438666 138.053297 
L 356.070096 138.037644 
L 357.701526 139.397589 
L 359.332956 136.961461 
L 360.964386 139.556578 
L 362.595815 139.912525 
L 364.227245 139.142406 
L 365.858675 137.223551 
L 367.490105 138.2586 
L 369.121535 138.961398 
L 370.752965 138.375071 
L 372.384395 138.674738 
L 374.015825 138.704088 
L 375.647254 137.49899 
L 377.278684 139.674368 
L 378.910114 137.405629 
L 380.541544 137.249588 
L 382.172974 138.162091 
L 383.804404 141.551164 
L 387.067264 138.365874 
L 390.330123 139.7111 
L 391.961553 139.051185 
L 393.592983 140.264461 
L 395.224413 139.233911 
L 396.855843 137.330738 
L 398.487273 139.40542 
L 398.487273 139.40542 
" clip-path="url(#p3b6562b914)" style="fill: none; stroke: #0000ff; stroke-width: 1.5; stroke-linecap: square"/>
   </g>
   <g id="line2d_22">
    <path d="M 73.832727 243.070765 
L 75.464157 192.576781 
L 77.095587 148.731719 
L 78.727017 135.019214 
L 80.358447 131.02927 
L 81.989877 130.071055 
L 83.621307 131.528761 
L 85.252736 126.597799 
L 86.884166 127.687209 
L 88.515596 129.060104 
L 90.147026 129.955934 
L 91.778456 131.563851 
L 93.409886 132.770044 
L 95.041316 127.498273 
L 96.672746 134.119485 
L 98.304175 133.387801 
L 99.935605 131.301715 
L 101.567035 131.461144 
L 103.198465 130.714435 
L 104.829895 133.769547 
L 106.461325 129.857965 
L 108.092755 131.079927 
L 109.724185 129.101616 
L 111.355614 129.708592 
L 112.987044 128.690252 
L 114.618474 129.29691 
L 116.249904 128.115743 
L 117.881334 127.43726 
L 119.512764 125.218043 
L 122.775624 123.850879 
L 124.407053 123.851195 
L 126.038483 126.089003 
L 127.669913 125.388096 
L 129.301343 125.864833 
L 130.932773 126.212893 
L 132.564203 123.920399 
L 134.195633 126.09192 
L 137.458492 123.925533 
L 139.089922 123.269032 
L 140.721352 125.989616 
L 142.352782 123.890066 
L 143.984212 127.37192 
L 145.615642 122.873995 
L 147.247072 122.48977 
L 148.878502 123.132807 
L 150.509931 123.284283 
L 152.141361 124.739621 
L 153.772791 124.064485 
L 155.404221 124.763532 
L 157.035651 124.410484 
L 158.667081 124.418918 
L 160.298511 124.169805 
L 163.56137 125.381556 
L 165.1928 124.535488 
L 166.82423 124.718129 
L 168.45566 125.168717 
L 170.08709 124.418593 
L 171.71852 124.963408 
L 173.34995 126.506591 
L 174.98138 126.238857 
L 176.61281 121.849714 
L 178.244239 123.467382 
L 179.875669 122.571014 
L 181.507099 124.198753 
L 183.138529 123.244693 
L 184.769959 124.103833 
L 186.401389 122.303767 
L 188.032819 126.17885 
L 189.664249 122.741464 
L 191.295678 124.677716 
L 192.927108 120.022087 
L 194.558538 124.970603 
L 196.189968 122.896084 
L 197.821398 125.201832 
L 199.452828 123.488626 
L 201.084258 125.069975 
L 202.715688 127.692078 
L 204.347117 125.370059 
L 205.978547 123.995566 
L 207.609977 129.010972 
L 209.241407 126.664496 
L 210.872837 124.857291 
L 212.504267 126.054761 
L 214.135697 125.615737 
L 215.767127 125.420998 
L 217.398556 125.501929 
L 219.029986 126.586495 
L 220.661416 125.550937 
L 222.292846 123.687162 
L 223.924276 122.751232 
L 225.555706 124.180056 
L 227.187136 123.570207 
L 228.818566 121.251765 
L 230.449995 124.201515 
L 232.081425 120.791717 
L 233.712855 125.636375 
L 235.344285 124.452061 
L 236.975715 122.168142 
L 238.607145 123.078913 
L 240.238575 121.497877 
L 241.870005 122.384831 
L 243.501434 123.906991 
L 245.132864 124.570995 
L 246.764294 123.210417 
L 248.395724 122.502884 
L 250.027154 118.914101 
L 251.658584 124.62323 
L 253.290014 123.957039 
L 254.921444 122.83595 
L 256.552873 122.771763 
L 258.184303 123.365264 
L 259.815733 120.293192 
L 261.447163 123.487847 
L 263.078593 121.412237 
L 264.710023 124.078158 
L 266.341453 124.392056 
L 267.972883 120.171898 
L 269.604312 121.110978 
L 271.235742 122.602898 
L 272.867172 121.097495 
L 274.498602 120.863599 
L 276.130032 122.892902 
L 277.761462 120.766368 
L 279.392892 121.914682 
L 281.024322 122.393393 
L 282.655751 122.237545 
L 284.287181 123.852773 
L 285.918611 122.311612 
L 289.181471 123.933223 
L 290.812901 122.518773 
L 292.444331 123.125111 
L 294.075761 121.32987 
L 295.70719 121.90282 
L 297.33862 123.971645 
L 298.97005 120.485039 
L 300.60148 122.721126 
L 302.23291 121.658803 
L 303.86434 120.109674 
L 305.49577 122.247196 
L 307.1272 120.958631 
L 308.75863 119.477732 
L 310.390059 121.660509 
L 312.021489 123.012367 
L 313.652919 121.404979 
L 315.284349 119.453611 
L 316.915779 121.022063 
L 318.547209 120.469888 
L 320.178639 120.234958 
L 321.810069 122.404198 
L 323.441498 122.128273 
L 325.072928 121.276406 
L 326.704358 121.817135 
L 328.335788 123.081774 
L 329.967218 122.52525 
L 331.598648 119.737891 
L 333.230078 122.440129 
L 334.861508 122.391455 
L 336.492937 120.997396 
L 338.124367 122.771258 
L 339.755797 122.689063 
L 341.387227 120.96567 
L 343.018657 121.105663 
L 344.650087 124.450944 
L 346.281517 122.249217 
L 347.912947 122.608122 
L 349.544376 121.779743 
L 351.175806 119.317305 
L 354.438666 121.383977 
L 356.070096 121.679668 
L 357.701526 120.454895 
L 359.332956 119.562853 
L 360.964386 123.631428 
L 362.595815 121.587697 
L 364.227245 123.943212 
L 365.858675 120.449653 
L 367.490105 122.028275 
L 369.121535 121.618686 
L 370.752965 120.658329 
L 372.384395 122.488266 
L 374.015825 122.848114 
L 375.647254 120.044276 
L 377.278684 123.088185 
L 378.910114 119.368339 
L 380.541544 121.334959 
L 382.172974 122.562171 
L 383.804404 124.122552 
L 385.435834 124.791204 
L 387.067264 121.190417 
L 388.698693 121.983773 
L 390.330123 123.94742 
L 391.961553 121.992155 
L 393.592983 122.821072 
L 395.224413 121.071341 
L 396.855843 121.21118 
L 398.487273 122.234424 
L 398.487273 122.234424 
" clip-path="url(#p3b6562b914)" style="fill: none; stroke-dasharray: 9.6,2.4,1.5,2.4; stroke-dashoffset: 0; stroke: #008000; stroke-width: 1.5"/>
   </g>
   <g id="line2d_23">
    <path d="M 73.832727 123.54895 
L 75.464157 129.062151 
L 77.095587 121.788787 
L 78.727017 109.3901 
L 80.358447 115.012365 
L 81.989877 113.340392 
L 83.621307 110.392789 
L 85.252736 109.486097 
L 86.884166 100.372496 
L 88.515596 99.282606 
L 90.147026 110.950673 
L 91.778456 113.239266 
L 93.409886 112.559257 
L 95.041316 102.880808 
L 96.672746 112.492867 
L 98.304175 103.96243 
L 99.935605 109.223982 
L 101.567035 95.36847 
L 103.198465 110.811099 
L 104.829895 114.772205 
L 106.461325 108.088575 
L 108.092755 110.763038 
L 109.724185 105.663891 
L 111.355614 107.791859 
L 112.987044 102.632321 
L 114.618474 98.062328 
L 116.249904 106.882661 
L 117.881334 98.964005 
L 119.512764 104.578299 
L 121.144194 105.336885 
L 122.775624 92.918144 
L 124.407053 86.189932 
L 126.038483 95.158956 
L 127.669913 101.42232 
L 129.301343 90.563508 
L 130.932773 105.274233 
L 132.564203 91.647026 
L 134.195633 94.048624 
L 135.827063 92.771042 
L 137.458492 93.004848 
L 139.089922 77.721154 
L 140.721352 101.841889 
L 142.352782 84.637041 
L 143.984212 95.769769 
L 145.615642 81.229372 
L 147.247072 92.724528 
L 148.878502 75.79507 
L 150.509931 99.153142 
L 152.141361 87.260511 
L 153.772791 80.600693 
L 155.404221 89.620628 
L 157.035651 92.1471 
L 158.667081 89.53837 
L 161.929941 93.965947 
L 163.56137 98.920005 
L 165.1928 93.860341 
L 166.82423 104.005093 
L 168.45566 99.186762 
L 170.08709 88.160058 
L 171.71852 89.393571 
L 173.34995 92.139145 
L 174.98138 102.954421 
L 176.61281 93.017357 
L 178.244239 100.583399 
L 179.875669 93.17253 
L 181.507099 97.684094 
L 183.138529 91.619689 
L 184.769959 91.892676 
L 186.401389 94.394742 
L 188.032819 98.099705 
L 189.664249 93.33122 
L 191.295678 86.988104 
L 192.927108 70.595163 
L 194.558538 81.21241 
L 196.189968 80.274524 
L 199.452828 91.463644 
L 201.084258 88.588739 
L 202.715688 103.103236 
L 204.347117 90.521106 
L 205.978547 88.392239 
L 207.609977 81.502407 
L 209.241407 93.214539 
L 210.872837 95.440679 
L 214.135697 67.373806 
L 215.767127 90.625001 
L 217.398556 94.036032 
L 222.292846 87.29534 
L 223.924276 89.404107 
L 225.555706 90.493286 
L 227.187136 89.2933 
L 228.818566 91.553626 
L 230.449995 96.601941 
L 232.081425 72.550572 
L 233.712855 73.74279 
L 235.344285 87.294972 
L 236.975715 88.413878 
L 238.607145 78.0148 
L 240.238575 61.229835 
L 241.870005 89.161781 
L 243.501434 89.228462 
L 246.764294 69.288099 
L 248.395724 93.061495 
L 250.027154 79.993681 
L 251.658584 93.450416 
L 253.290014 81.673169 
L 254.921444 78.078556 
L 256.552873 82.488131 
L 258.184303 79.003339 
L 259.815733 87.001291 
L 261.447163 78.008187 
L 263.078593 90.611891 
L 264.710023 80.354284 
L 266.341453 85.024891 
L 267.972883 80.345816 
L 269.604312 84.794187 
L 271.235742 90.453416 
L 272.867172 70.387912 
L 274.498602 79.179174 
L 276.130032 84.647844 
L 277.761462 84.605886 
L 279.392892 84.795384 
L 281.024322 87.045292 
L 282.655751 96.545206 
L 284.287181 92.942484 
L 285.918611 80.308957 
L 287.550041 86.881005 
L 289.181471 100.193504 
L 292.444331 80.670188 
L 294.075761 83.709214 
L 295.70719 76.04666 
L 297.33862 94.38167 
L 298.97005 96.616296 
L 300.60148 92.972023 
L 303.86434 81.069986 
L 305.49577 86.930299 
L 307.1272 81.119716 
L 308.75863 82.63205 
L 310.390059 93.294136 
L 312.021489 88.82083 
L 313.652919 84.936997 
L 315.284349 80.189735 
L 316.915779 69.757358 
L 318.547209 68.354353 
L 320.178639 87.033736 
L 321.810069 89.3888 
L 323.441498 85.822154 
L 325.072928 92.861563 
L 326.704358 81.261636 
L 328.335788 82.957739 
L 329.967218 90.744393 
L 331.598648 80.10813 
L 333.230078 78.969864 
L 334.861508 89.557499 
L 336.492937 68.643174 
L 338.124367 99.004648 
L 339.755797 98.982293 
L 341.387227 88.256733 
L 343.018657 88.154062 
L 344.650087 94.039071 
L 346.281517 92.955168 
L 347.912947 74.788417 
L 349.544376 81.334063 
L 351.175806 89.287661 
L 352.807236 93.164812 
L 354.438666 86.240467 
L 356.070096 74.584305 
L 357.701526 53.568 
L 359.332956 86.822235 
L 360.964386 87.992884 
L 362.595815 87.015849 
L 364.227245 96.569025 
L 365.858675 79.130188 
L 367.490105 86.034818 
L 369.121535 70.681243 
L 370.752965 90.655382 
L 372.384395 80.222459 
L 374.015825 90.613347 
L 375.647254 75.165729 
L 377.278684 88.05626 
L 378.910114 94.227326 
L 380.541544 95.209747 
L 382.172974 85.664302 
L 385.435834 90.656713 
L 387.067264 95.328509 
L 388.698693 85.673343 
L 390.330123 95.481087 
L 391.961553 88.224889 
L 393.592983 88.328143 
L 395.224413 90.557056 
L 396.855843 96.89027 
L 398.487273 87.37765 
L 398.487273 87.37765 
" clip-path="url(#p3b6562b914)" style="fill: none; stroke: #ff0000; stroke-width: 1.5; stroke-linecap: square"/>
   </g>
   <g id="patch_3">
    <path d="M 57.6 307.584 
L 57.6 41.472 
" style="fill: none; stroke: #000000; stroke-width: 0.8; stroke-linejoin: miter; stroke-linecap: square"/>
   </g>
   <g id="patch_4">
    <path d="M 414.72 307.584 
L 414.72 41.472 
" style="fill: none; stroke: #000000; stroke-width: 0.8; stroke-linejoin: miter; stroke-linecap: square"/>
   </g>
   <g id="patch_5">
    <path d="M 57.6 307.584 
L 414.72 307.584 
" style="fill: none; stroke: #000000; stroke-width: 0.8; stroke-linejoin: miter; stroke-linecap: square"/>
   </g>
   <g id="patch_6">
    <path d="M 57.6 41.472 
L 414.72 41.472 
" style="fill: none; stroke: #000000; stroke-width: 0.8; stroke-linejoin: miter; stroke-linecap: square"/>
   </g>
   <g id="text_13">
    <!-- Population's average and best fitness -->
    <g transform="translate(123.529687 35.472) scale(0.12 -0.12)">
     <defs>
      <path id="DejaVuSans-50" d="M 1259 4147 
L 1259 2394 
L 2053 2394 
Q 2494 2394 2734 2622 
Q 2975 2850 2975 3272 
Q 2975 3691 2734 3919 
Q 2494 4147 2053 4147 
L 1259 4147 
z
M 628 4666 
L 2053 4666 
Q 2838 4666 3239 4311 
Q 3641 3956 3641 3272 
Q 3641 2581 3239 2228 
Q 2838 1875 2053 1875 
L 1259 1875 
L 1259 0 
L 628 0 
L 628 4666 
z
" transform="scale(0.015625)"/>
      <path id="DejaVuSans-70" d="M 1159 525 
L 1159 -1331 
L 581 -1331 
L 581 3500 
L 1159 3500 
L 1159 2969 
Q 1341 3281 1617 3432 
Q 1894 3584 2278 3584 
Q 2916 3584 3314 3078 
Q 3713 2572 3713 1747 
Q 3713 922 3314 415 
Q 2916 -91 2278 -91 
Q 1894 -91 1617 61 
Q 1341 213 1159 525 
z
M 3116 1747 
Q 3116 2381 2855 2742 
Q 2594 3103 2138 3103 
Q 1681 3103 1420 2742 
Q 1159 2381 1159 1747 
Q 1159 1113 1420 752 
Q 1681 391 2138 391 
Q 2594 391 2855 752 
Q 3116 1113 3116 1747 
z
" transform="scale(0.015625)"/>
      <path id="DejaVuSans-75" d="M 544 1381 
L 544 3500 
L 1119 3500 
L 1119 1403 
Q 1119 906 1312 657 
Q 1506 409 1894 409 
Q 2359 409 2629 706 
Q 2900 1003 2900 1516 
L 2900 3500 
L 3475 3500 
L 3475 0 
L 2900 0 
L 2900 538 
Q 2691 219 2414 64 
Q 2138 -91 1772 -91 
Q 1169 -91 856 284 
Q 544 659 544 1381 
z
M 1991 3584 
L 1991 3584 
z
" transform="scale(0.015625)"/>
      <path id="DejaVuSans-6c" d="M 603 4863 
L 1178 4863 
L 1178 0 
L 603 0 
L 603 4863 
z
" transform="scale(0.015625)"/>
      <path id="DejaVuSans-27" d="M 1147 4666 
L 1147 2931 
L 616 2931 
L 616 4666 
L 1147 4666 
z
" transform="scale(0.015625)"/>
      <path id="DejaVuSans-20" transform="scale(0.015625)"/>
      <path id="DejaVuSans-76" d="M 191 3500 
L 800 3500 
L 1894 563 
L 2988 3500 
L 3597 3500 
L 2284 0 
L 1503 0 
L 191 3500 
z
" transform="scale(0.015625)"/>
      <path id="DejaVuSans-67" d="M 2906 1791 
Q 2906 2416 2648 2759 
Q 2391 3103 1925 3103 
Q 1463 3103 1205 2759 
Q 947 2416 947 1791 
Q 947 1169 1205 825 
Q 1463 481 1925 481 
Q 2391 481 2648 825 
Q 2906 1169 2906 1791 
z
M 3481 434 
Q 3481 -459 3084 -895 
Q 2688 -1331 1869 -1331 
Q 1566 -1331 1297 -1286 
Q 1028 -1241 775 -1147 
L 775 -588 
Q 1028 -725 1275 -790 
Q 1522 -856 1778 -856 
Q 2344 -856 2625 -561 
Q 2906 -266 2906 331 
L 2906 616 
Q 2728 306 2450 153 
Q 2172 0 1784 0 
Q 1141 0 747 490 
Q 353 981 353 1791 
Q 353 2603 747 3093 
Q 1141 3584 1784 3584 
Q 2172 3584 2450 3431 
Q 2728 3278 2906 2969 
L 2906 3500 
L 3481 3500 
L 3481 434 
z
" transform="scale(0.015625)"/>
      <path id="DejaVuSans-64" d="M 2906 2969 
L 2906 4863 
L 3481 4863 
L 3481 0 
L 2906 0 
L 2906 525 
Q 2725 213 2448 61 
Q 2172 -91 1784 -91 
Q 1150 -91 751 415 
Q 353 922 353 1747 
Q 353 2572 751 3078 
Q 1150 3584 1784 3584 
Q 2172 3584 2448 3432 
Q 2725 3281 2906 2969 
z
M 947 1747 
Q 947 1113 1208 752 
Q 1469 391 1925 391 
Q 2381 391 2643 752 
Q 2906 1113 2906 1747 
Q 2906 2381 2643 2742 
Q 2381 3103 1925 3103 
Q 1469 3103 1208 2742 
Q 947 2381 947 1747 
z
" transform="scale(0.015625)"/>
      <path id="DejaVuSans-62" d="M 3116 1747 
Q 3116 2381 2855 2742 
Q 2594 3103 2138 3103 
Q 1681 3103 1420 2742 
Q 1159 2381 1159 1747 
Q 1159 1113 1420 752 
Q 1681 391 2138 391 
Q 2594 391 2855 752 
Q 3116 1113 3116 1747 
z
M 1159 2969 
Q 1341 3281 1617 3432 
Q 1894 3584 2278 3584 
Q 2916 3584 3314 3078 
Q 3713 2572 3713 1747 
Q 3713 922 3314 415 
Q 2916 -91 2278 -91 
Q 1894 -91 1617 61 
Q 1341 213 1159 525 
L 1159 0 
L 581 0 
L 581 4863 
L 1159 4863 
L 1159 2969 
z
" transform="scale(0.015625)"/>
      <path id="DejaVuSans-66" d="M 2375 4863 
L 2375 4384 
L 1825 4384 
Q 1516 4384 1395 4259 
Q 1275 4134 1275 3809 
L 1275 3500 
L 2222 3500 
L 2222 3053 
L 1275 3053 
L 1275 0 
L 697 0 
L 697 3053 
L 147 3053 
L 147 3500 
L 697 3500 
L 697 3744 
Q 697 4328 969 4595 
Q 1241 4863 1831 4863 
L 2375 4863 
z
" transform="scale(0.015625)"/>
     </defs>
     <use xlink:href="#DejaVuSans-50"/>
     <use xlink:href="#DejaVuSans-6f" transform="translate(56.677734 0)"/>
     <use xlink:href="#DejaVuSans-70" transform="translate(117.859375 0)"/>
     <use xlink:href="#DejaVuSans-75" transform="translate(181.335938 0)"/>
     <use xlink:href="#DejaVuSans-6c" transform="translate(244.714844 0)"/>
     <use xlink:href="#DejaVuSans-61" transform="translate(272.498047 0)"/>
     <use xlink:href="#DejaVuSans-74" transform="translate(333.777344 0)"/>
     <use xlink:href="#DejaVuSans-69" transform="translate(372.986328 0)"/>
     <use xlink:href="#DejaVuSans-6f" transform="translate(400.769531 0)"/>
     <use xlink:href="#DejaVuSans-6e" transform="translate(461.951172 0)"/>
     <use xlink:href="#DejaVuSans-27" transform="translate(525.330078 0)"/>
     <use xlink:href="#DejaVuSans-73" transform="translate(552.820312 0)"/>
     <use xlink:href="#DejaVuSans-20" transform="translate(604.919922 0)"/>
     <use xlink:href="#DejaVuSans-61" transform="translate(636.707031 0)"/>
     <use xlink:href="#DejaVuSans-76" transform="translate(697.986328 0)"/>
     <use xlink:href="#DejaVuSans-65" transform="translate(757.166016 0)"/>
     <use xlink:href="#DejaVuSans-72" transform="translate(818.689453 0)"/>
     <use xlink:href="#DejaVuSans-61" transform="translate(859.802734 0)"/>
     <use xlink:href="#DejaVuSans-67" transform="translate(921.082031 0)"/>
     <use xlink:href="#DejaVuSans-65" transform="translate(984.558594 0)"/>
     <use xlink:href="#DejaVuSans-20" transform="translate(1046.082031 0)"/>
     <use xlink:href="#DejaVuSans-61" transform="translate(1077.869141 0)"/>
     <use xlink:href="#DejaVuSans-6e" transform="translate(1139.148438 0)"/>
     <use xlink:href="#DejaVuSans-64" transform="translate(1202.527344 0)"/>
     <use xlink:href="#DejaVuSans-20" transform="translate(1266.003906 0)"/>
     <use xlink:href="#DejaVuSans-62" transform="translate(1297.791016 0)"/>
     <use xlink:href="#DejaVuSans-65" transform="translate(1361.267578 0)"/>
     <use xlink:href="#DejaVuSans-73" transform="translate(1422.791016 0)"/>
     <use xlink:href="#DejaVuSans-74" transform="translate(1474.890625 0)"/>
     <use xlink:href="#DejaVuSans-20" transform="translate(1514.099609 0)"/>
     <use xlink:href="#DejaVuSans-66" transform="translate(1545.886719 0)"/>
     <use xlink:href="#DejaVuSans-69" transform="translate(1581.091797 0)"/>
     <use xlink:href="#DejaVuSans-74" transform="translate(1608.875 0)"/>
     <use xlink:href="#DejaVuSans-6e" transform="translate(1648.083984 0)"/>
     <use xlink:href="#DejaVuSans-65" transform="translate(1711.462891 0)"/>
     <use xlink:href="#DejaVuSans-73" transform="translate(1772.986328 0)"/>
     <use xlink:href="#DejaVuSans-73" transform="translate(1825.085938 0)"/>
    </g>
   </g>
   <g id="legend_1">
    <g id="patch_7">
     <path d="M 334.779375 302.584 
L 407.72 302.584 
Q 409.72 302.584 409.72 300.584 
L 409.72 257.549625 
Q 409.72 255.549625 407.72 255.549625 
L 334.779375 255.549625 
Q 332.779375 255.549625 332.779375 257.549625 
L 332.779375 300.584 
Q 332.779375 302.584 334.779375 302.584 
z
" style="fill: #ffffff; opacity: 0.8; stroke: #cccccc; stroke-linejoin: miter"/>
    </g>
    <g id="line2d_24">
     <path d="M 336.779375 263.648062 
L 346.779375 263.648062 
L 356.779375 263.648062 
" style="fill: none; stroke: #0000ff; stroke-width: 1.5; stroke-linecap: square"/>
    </g>
    <g id="text_14">
     <!-- average -->
     <g transform="translate(364.779375 267.148062) scale(0.1 -0.1)">
      <use xlink:href="#DejaVuSans-61"/>
      <use xlink:href="#DejaVuSans-76" transform="translate(61.279297 0)"/>
      <use xlink:href="#DejaVuSans-65" transform="translate(120.458984 0)"/>
      <use xlink:href="#DejaVuSans-72" transform="translate(181.982422 0)"/>
      <use xlink:href="#DejaVuSans-61" transform="translate(223.095703 0)"/>
      <use xlink:href="#DejaVuSans-67" transform="translate(284.375 0)"/>
      <use xlink:href="#DejaVuSans-65" transform="translate(347.851562 0)"/>
     </g>
    </g>
    <g id="line2d_25">
     <path d="M 336.779375 278.326188 
L 346.779375 278.326188 
L 356.779375 278.326188 
" style="fill: none; stroke-dasharray: 9.6,2.4,1.5,2.4; stroke-dashoffset: 0; stroke: #008000; stroke-width: 1.5"/>
    </g>
    <g id="text_15">
     <!-- +1 sd -->
     <g transform="translate(364.779375 281.826188) scale(0.1 -0.1)">
      <defs>
       <path id="DejaVuSans-2b" d="M 2944 4013 
L 2944 2272 
L 4684 2272 
L 4684 1741 
L 2944 1741 
L 2944 0 
L 2419 0 
L 2419 1741 
L 678 1741 
L 678 2272 
L 2419 2272 
L 2419 4013 
L 2944 4013 
z
" transform="scale(0.015625)"/>
      </defs>
      <use xlink:href="#DejaVuSans-2b"/>
      <use xlink:href="#DejaVuSans-31" transform="translate(83.789062 0)"/>
      <use xlink:href="#DejaVuSans-20" transform="translate(147.412109 0)"/>
      <use xlink:href="#DejaVuSans-73" transform="translate(179.199219 0)"/>
      <use xlink:href="#DejaVuSans-64" transform="translate(231.298828 0)"/>
     </g>
    </g>
    <g id="line2d_26">
     <path d="M 336.779375 293.004312 
L 346.779375 293.004312 
L 356.779375 293.004312 
" style="fill: none; stroke: #ff0000; stroke-width: 1.5; stroke-linecap: square"/>
    </g>
    <g id="text_16">
     <!-- best -->
     <g transform="translate(364.779375 296.504312) scale(0.1 -0.1)">
      <use xlink:href="#DejaVuSans-62"/>
      <use xlink:href="#DejaVuSans-65" transform="translate(63.476562 0)"/>
      <use xlink:href="#DejaVuSans-73" transform="translate(125 0)"/>
      <use xlink:href="#DejaVuSans-74" transform="translate(177.099609 0)"/>
     </g>
    </g>
   </g>
  </g>
 </g>
 <defs>
  <clipPath id="p3b6562b914">
   <rect x="57.6" y="41.472" width="357.12" height="266.112"/>
  </clipPath>
 </defs>
</svg>
