<?xml version="1.0" encoding="utf-8" standalone="no"?>
<!DOCTYPE svg PUBLIC "-//W3C//DTD SVG 1.1//EN"
  "http://www.w3.org/Graphics/SVG/1.1/DTD/svg11.dtd">
<svg xmlns:xlink="http://www.w3.org/1999/xlink" width="460.8pt" height="345.6pt" viewBox="0 0 460.8 345.6" xmlns="http://www.w3.org/2000/svg" version="1.1">
 <metadata>
  <rdf:RDF xmlns:dc="http://purl.org/dc/elements/1.1/" xmlns:cc="http://creativecommons.org/ns#" xmlns:rdf="http://www.w3.org/1999/02/22-rdf-syntax-ns#">
   <cc:Work>
    <dc:type rdf:resource="http://purl.org/dc/dcmitype/StillImage"/>
    <dc:date>2026-04-19T18:21:37.632422</dc:date>
    <dc:format>image/svg+xml</dc:format>
    <dc:creator>
     <cc:Agent>
      <dc:title>Matplotlib v3.10.8, https://matplotlib.org/</dc:title>
     </cc:Agent>
    </dc:creator>
   </cc:Work>
  </rdf:RDF>
 </metadata>
 <defs>
  <style type="text/css">*{stroke-linejoin: round; stroke-linecap: butt}</style>
 </defs>
 <g id="figure_1">
  <g id="patch_1">
   <path d="M 0 345.6 
L 460.8 345.6 
L 460.8 0 
L 0 0 
z
" style="fill: #ffffff"/>
  </g>
  <g id="axes_1">
   <g id="patch_2">
    <path d="M 57.6 307.584 
L 414.72 307.584 
L 414.72 41.472 
L 57.6 41.472 
z
" style="fill: #ffffff"/>
   </g>
   <g id="matplotlib.axis_1">
    <g id="xtick_1">
     <g id="line2d_1">
      <path d="M 73.832727 307.584 
L 73.832727 41.472 
" clip-path="url(#pcd15e5de61)" style="fill: none; stroke: #b0b0b0; stroke-width: 0.8; stroke-linecap: square"/>
     </g>
     <g id="line2d_2">
      <defs>
       <path id="me33a972c35" d="M 0 0 
L 0 3.5 
" style="stroke: #000000; stroke-width: 0.8"/>
      </defs>
      <g>
       <use xlink:href="#me33a972c35" x="73.832727" y="307.584" style="stroke: #000000; stroke-width: 0.8"/>
      </g>
     </g>
     <g id="text_1">
      <!-- 0 -->
      <g transform="translate(70.651477 322.182437) scale(0.1 -0.1)">
       <defs>
        <path id="DejaVuSans-30" d="M 2034 4250 
Q 1547 4250 1301 3770 
Q 1056 3291 1056 2328 
Q 1056 1369 1301 889 
Q 1547 409 2034 409 
Q 2525 409 2770 889 
Q 3016 1369 3016 2328 
Q 3016 3291 2770 3770 
Q 2525 4250 2034 4250 
z
M 2034 4750 
Q 2819 4750 3233 4129 
Q 3647 3509 3647 2328 
Q 3647 1150 3233 529 
Q 2819 -91 2034 -91 
Q 1250 -91 836 529 
Q 422 1150 422 2328 
Q 422 3509 836 4129 
Q 1250 4750 2034 4750 
z
" transform="scale(0.015625)"/>
       </defs>
       <use xlink:href="#DejaVuSans-30"/>
      </g>
     </g>
    </g>
    <g id="xtick_2">
     <g id="line2d_3">
      <path d="M 114.618474 307.584 
L 114.618474 41.472 
" clip-path="url(#pcd15e5de61)" style="fill: none; stroke: #b0b0b0; stroke-width: 0.8; stroke-linecap: square"/>
     </g>
     <g id="line2d_4">
      <g>
       <use xlink:href="#me33a972c35" x="114.618474" y="307.584" style="stroke: #000000; stroke-width: 0.8"/>
      </g>
     </g>
     <g id="text_2">
      <!-- 25 -->
      <g transform="translate(108.255974 322.182437) scale(0.1 -0.1)">
       <defs>
        <path id="DejaVuSans-32" d="M 1228 531 
L 3431 531 
L 3431 0 
L 469 0 
L 469 531 
Q 828 903 1448 1529 
Q 2069 2156 2228 2338 
Q 2531 2678 2651 2914 
Q 2772 3150 2772 3378 
Q 2772 3750 2511 3984 
Q 2250 4219 1831 4219 
Q 1534 4219 1204 4116 
Q 875 4013 500 3803 
L 500 4441 
Q 881 4594 1212 4672 
Q 1544 4750 1819 4750 
Q 2544 4750 2975 4387 
Q 3406 4025 3406 3419 
Q 3406 3131 3298 2873 
Q 3191 2616 2906 2266 
Q 2828 2175 2409 1742 
Q 1991 1309 1228 531 
z
" transform="scale(0.015625)"/>
        <path id="DejaVuSans-35" d="M 691 4666 
L 3169 4666 
L 3169 4134 
L 1269 4134 
L 1269 2991 
Q 1406 3038 1543 3061 
Q 1681 3084 1819 3084 
Q 2600 3084 3056 2656 
Q 3513 2228 3513 1497 
Q 3513 744 3044 326 
Q 2575 -91 1722 -91 
Q 1428 -91 1123 -41 
Q 819 9 494 109 
L 494 744 
Q 775 591 1075 516 
Q 1375 441 1709 441 
Q 2250 441 2565 725 
Q 2881 1009 2881 1497 
Q 2881 1984 2565 2268 
Q 2250 2553 1709 2553 
Q 1456 2553 1204 2497 
Q 953 2441 691 2322 
L 691 4666 
z
" transform="scale(0.015625)"/>
       </defs>
       <use xlink:href="#DejaVuSans-32"/>
       <use xlink:href="#DejaVuSans-35" transform="translate(63.623047 0)"/>
      </g>
     </g>
    </g>
    <g id="xtick_3">
     <g id="line2d_5">
      <path d="M 155.404221 307.584 
L 155.404221 41.472 
" clip-path="url(#pcd15e5de61)" style="fill: none; stroke: #b0b0b0; stroke-width: 0.8; stroke-linecap: square"/>
     </g>
     <g id="line2d_6">
      <g>
       <use xlink:href="#me33a972c35" x="155.404221" y="307.584" style="stroke: #000000; stroke-width: 0.8"/>
      </g>
     </g>
     <g id="text_3">
      <!-- 50 -->
      <g transform="translate(149.041721 322.182437) scale(0.1 -0.1)">
       <use xlink:href="#DejaVuSans-35"/>
       <use xlink:href="#DejaVuSans-30" transform="translate(63.623047 0)"/>
      </g>
     </g>
    </g>
    <g id="xtick_4">
     <g id="line2d_7">
      <path d="M 196.189968 307.584 
L 196.189968 41.472 
" clip-path="url(#pcd15e5de61)" style="fill: none; stroke: #b0b0b0; stroke-width: 0.8; stroke-linecap: square"/>
     </g>
     <g id="line2d_8">
      <g>
       <use xlink:href="#me33a972c35" x="196.189968" y="307.584" style="stroke: #000000; stroke-width: 0.8"/>
      </g>
     </g>
     <g id="text_4">
      <!-- 75 -->
      <g transform="translate(189.827468 322.182437) scale(0.1 -0.1)">
       <defs>
        <path id="DejaVuSans-37" d="M 525 4666 
L 3525 4666 
L 3525 4397 
L 1831 0 
L 1172 0 
L 2766 4134 
L 525 4134 
L 525 4666 
z
" transform="scale(0.015625)"/>
       </defs>
       <use xlink:href="#DejaVuSans-37"/>
       <use xlink:href="#DejaVuSans-35" transform="translate(63.623047 0)"/>
      </g>
     </g>
    </g>
    <g id="xtick_5">
     <g id="line2d_9">
      <path d="M 236.975715 307.584 
L 236.975715 41.472 
" clip-path="url(#pcd15e5de61)" style="fill: none; stroke: #b0b0b0; stroke-width: 0.8; stroke-linecap: square"/>
     </g>
     <g id="line2d_10">
      <g>
       <use xlink:href="#me33a972c35" x="236.975715" y="307.584" style="stroke: #000000; stroke-width: 0.8"/>
      </g>
     </g>
     <g id="text_5">
      <!-- 100 -->
      <g transform="translate(227.431965 322.182437) scale(0.1 -0.1)">
       <defs>
        <path id="DejaVuSans-31" d="M 794 531 
L 1825 531 
L 1825 4091 
L 703 3866 
L 703 4441 
L 1819 4666 
L 2450 4666 
L 2450 531 
L 3481 531 
L 3481 0 
L 794 0 
L 794 531 
z
" transform="scale(0.015625)"/>
       </defs>
       <use xlink:href="#DejaVuSans-31"/>
       <use xlink:href="#DejaVuSans-30" transform="translate(63.623047 0)"/>
       <use xlink:href="#DejaVuSans-30" transform="translate(127.246094 0)"/>
      </g>
     </g>
    </g>
    <g id="xtick_6">
     <g id="line2d_11">
      <path d="M 277.761462 307.584 
L 277.761462 41.472 
" clip-path="url(#pcd15e5de61)" style="fill: none; stroke: #b0b0b0; stroke-width: 0.8; stroke-linecap: square"/>
     </g>
     <g id="line2d_12">
      <g>
       <use xlink:href="#me33a972c35" x="277.761462" y="307.584" style="stroke: #000000; stroke-width: 0.8"/>
      </g>
     </g>
     <g id="text_6">
      <!-- 125 -->
      <g transform="translate(268.217712 322.182437) scale(0.1 -0.1)">
       <use xlink:href="#DejaVuSans-31"/>
       <use xlink:href="#DejaVuSans-32" transform="translate(63.623047 0)"/>
       <use xlink:href="#DejaVuSans-35" transform="translate(127.246094 0)"/>
      </g>
     </g>
    </g>
    <g id="xtick_7">
     <g id="line2d_13">
      <path d="M 318.547209 307.584 
L 318.547209 41.472 
" clip-path="url(#pcd15e5de61)" style="fill: none; stroke: #b0b0b0; stroke-width: 0.8; stroke-linecap: square"/>
     </g>
     <g id="line2d_14">
      <g>
       <use xlink:href="#me33a972c35" x="318.547209" y="307.584" style="stroke: #000000; stroke-width: 0.8"/>
      </g>
     </g>
     <g id="text_7">
      <!-- 150 -->
      <g transform="translate(309.003459 322.182437) scale(0.1 -0.1)">
       <use xlink:href="#DejaVuSans-31"/>
       <use xlink:href="#DejaVuSans-35" transform="translate(63.623047 0)"/>
       <use xlink:href="#DejaVuSans-30" transform="translate(127.246094 0)"/>
      </g>
     </g>
    </g>
    <g id="xtick_8">
     <g id="line2d_15">
      <path d="M 359.332956 307.584 
L 359.332956 41.472 
" clip-path="url(#pcd15e5de61)" style="fill: none; stroke: #b0b0b0; stroke-width: 0.8; stroke-linecap: square"/>
     </g>
     <g id="line2d_16">
      <g>
       <use xlink:href="#me33a972c35" x="359.332956" y="307.584" style="stroke: #000000; stroke-width: 0.8"/>
      </g>
     </g>
     <g id="text_8">
      <!-- 175 -->
      <g transform="translate(349.789206 322.182437) scale(0.1 -0.1)">
       <use xlink:href="#DejaVuSans-31"/>
       <use xlink:href="#DejaVuSans-37" transform="translate(63.623047 0)"/>
       <use xlink:href="#DejaVuSans-35" transform="translate(127.246094 0)"/>
      </g>
     </g>
    </g>
    <g id="xtick_9">
     <g id="line2d_17">
      <path d="M 400.118703 307.584 
L 400.118703 41.472 
" clip-path="url(#pcd15e5de61)" style="fill: none; stroke: #b0b0b0; stroke-width: 0.8; stroke-linecap: square"/>
     </g>
     <g id="line2d_18">
      <g>
       <use xlink:href="#me33a972c35" x="400.118703" y="307.584" style="stroke: #000000; stroke-width: 0.8"/>
      </g>
     </g>
     <g id="text_9">
      <!-- 200 -->
      <g transform="translate(390.574953 322.182437) scale(0.1 -0.1)">
       <use xlink:href="#DejaVuSans-32"/>
       <use xlink:href="#DejaVuSans-30" transform="translate(63.623047 0)"/>
       <use xlink:href="#DejaVuSans-30" transform="translate(127.246094 0)"/>
      </g>
     </g>
    </g>
    <g id="text_10">
     <!-- Generations -->
     <g transform="translate(205.662344 335.860562) scale(0.1 -0.1)">
      <defs>
       <path id="DejaVuSans-47" d="M 3809 666 
L 3809 1919 
L 2778 1919 
L 2778 2438 
L 4434 2438 
L 4434 434 
Q 4069 175 3628 42 
Q 3188 -91 2688 -91 
Q 1594 -91 976 548 
Q 359 1188 359 2328 
Q 359 3472 976 4111 
Q 1594 4750 2688 4750 
Q 3144 4750 3555 4637 
Q 3966 4525 4313 4306 
L 4313 3634 
Q 3963 3931 3569 4081 
Q 3175 4231 2741 4231 
Q 1884 4231 1454 3753 
Q 1025 3275 1025 2328 
Q 1025 1384 1454 906 
Q 1884 428 2741 428 
Q 3075 428 3337 486 
Q 3600 544 3809 666 
z
" transform="scale(0.015625)"/>
       <path id="DejaVuSans-65" d="M 3597 1894 
L 3597 1613 
L 953 1613 
Q 991 1019 1311 708 
Q 1631 397 2203 397 
Q 2534 397 2845 478 
Q 3156 559 3463 722 
L 3463 178 
Q 3153 47 2828 -22 
Q 2503 -91 2169 -91 
Q 1331 -91 842 396 
Q 353 884 353 1716 
Q 353 2575 817 3079 
Q 1281 3584 2069 3584 
Q 2775 3584 3186 3129 
Q 3597 2675 3597 1894 
z
M 3022 2063 
Q 3016 2534 2758 2815 
Q 2500 3097 2075 3097 
Q 1594 3097 1305 2825 
Q 1016 2553 972 2059 
L 3022 2063 
z
" transform="scale(0.015625)"/>
       <path id="DejaVuSans-6e" d="M 3513 2113 
L 3513 0 
L 2938 0 
L 2938 2094 
Q 2938 2591 2744 2837 
Q 2550 3084 2163 3084 
Q 1697 3084 1428 2787 
Q 1159 2491 1159 1978 
L 1159 0 
L 581 0 
L 581 3500 
L 1159 3500 
L 1159 2956 
Q 1366 3272 1645 3428 
Q 1925 3584 2291 3584 
Q 2894 3584 3203 3211 
Q 3513 2838 3513 2113 
z
" transform="scale(0.015625)"/>
       <path id="DejaVuSans-72" d="M 2631 2963 
Q 2534 3019 2420 3045 
Q 2306 3072 2169 3072 
Q 1681 3072 1420 2755 
Q 1159 2438 1159 1844 
L 1159 0 
L 581 0 
L 581 3500 
L 1159 3500 
L 1159 2956 
Q 1341 3275 1631 3429 
Q 1922 3584 2338 3584 
Q 2397 3584 2469 3576 
Q 2541 3569 2628 3553 
L 2631 2963 
z
" transform="scale(0.015625)"/>
       <path id="DejaVuSans-61" d="M 2194 1759 
Q 1497 1759 1228 1600 
Q 959 1441 959 1056 
Q 959 750 1161 570 
Q 1363 391 1709 391 
Q 2188 391 2477 730 
Q 2766 1069 2766 1631 
L 2766 1759 
L 2194 1759 
z
M 3341 1997 
L 3341 0 
L 2766 0 
L 2766 531 
Q 2569 213 2275 61 
Q 1981 -91 1556 -91 
Q 1019 -91 701 211 
Q 384 513 384 1019 
Q 384 1609 779 1909 
Q 1175 2209 1959 2209 
L 2766 2209 
L 2766 2266 
Q 2766 2663 2505 2880 
Q 2244 3097 1772 3097 
Q 1472 3097 1187 3025 
Q 903 2953 641 2809 
L 641 3341 
Q 956 3463 1253 3523 
Q 1550 3584 1831 3584 
Q 2591 3584 2966 3190 
Q 3341 2797 3341 1997 
z
" transform="scale(0.015625)"/>
       <path id="DejaVuSans-74" d="M 1172 4494 
L 1172 3500 
L 2356 3500 
L 2356 3053 
L 1172 3053 
L 1172 1153 
Q 1172 725 1289 603 
Q 1406 481 1766 481 
L 2356 481 
L 2356 0 
L 1766 0 
Q 1100 0 847 248 
Q 594 497 594 1153 
L 594 3053 
L 172 3053 
L 172 3500 
L 594 3500 
L 594 4494 
L 1172 4494 
z
" transform="scale(0.015625)"/>
       <path id="DejaVuSans-69" d="M 603 3500 
L 1178 3500 
L 1178 0 
L 603 0 
L 603 3500 
z
M 603 4863 
L 1178 4863 
L 1178 4134 
L 603 4134 
L 603 4863 
z
" transform="scale(0.015625)"/>
       <path id="DejaVuSans-6f" d="M 1959 3097 
Q 1497 3097 1228 2736 
Q 959 2375 959 1747 
Q 959 1119 1226 758 
Q 1494 397 1959 397 
Q 2419 397 2687 759 
Q 2956 1122 2956 1747 
Q 2956 2369 2687 2733 
Q 2419 3097 1959 3097 
z
M 1959 3584 
Q 2709 3584 3137 3096 
Q 3566 2609 3566 1747 
Q 3566 888 3137 398 
Q 2709 -91 1959 -91 
Q 1206 -91 779 398 
Q 353 888 353 1747 
Q 353 2609 779 3096 
Q 1206 3584 1959 3584 
z
" transform="scale(0.015625)"/>
       <path id="DejaVuSans-73" d="M 2834 3397 
L 2834 2853 
Q 2591 2978 2328 3040 
Q 2066 3103 1784 3103 
Q 1356 3103 1142 2972 
Q 928 2841 928 2578 
Q 928 2378 1081 2264 
Q 1234 2150 1697 2047 
L 1894 2003 
Q 2506 1872 2764 1633 
Q 3022 1394 3022 966 
Q 3022 478 2636 193 
Q 2250 -91 1575 -91 
Q 1294 -91 989 -36 
Q 684 19 347 128 
L 347 722 
Q 666 556 975 473 
Q 1284 391 1588 391 
Q 1994 391 2212 530 
Q 2431 669 2431 922 
Q 2431 1156 2273 1281 
Q 2116 1406 1581 1522 
L 1381 1569 
Q 847 1681 609 1914 
Q 372 2147 372 2553 
Q 372 3047 722 3315 
Q 1072 3584 1716 3584 
Q 2034 3584 2315 3537 
Q 2597 3491 2834 3397 
z
" transform="scale(0.015625)"/>
      </defs>
      <use xlink:href="#DejaVuSans-47"/>
      <use xlink:href="#DejaVuSans-65" transform="translate(77.490234 0)"/>
      <use xlink:href="#DejaVuSans-6e" transform="translate(139.013672 0)"/>
      <use xlink:href="#DejaVuSans-65" transform="translate(202.392578 0)"/>
      <use xlink:href="#DejaVuSans-72" transform="translate(263.916016 0)"/>
      <use xlink:href="#DejaVuSans-61" transform="translate(305.029297 0)"/>
      <use xlink:href="#DejaVuSans-74" transform="translate(366.308594 0)"/>
      <use xlink:href="#DejaVuSans-69" transform="translate(405.517578 0)"/>
      <use xlink:href="#DejaVuSans-6f" transform="translate(433.300781 0)"/>
      <use xlink:href="#DejaVuSans-6e" transform="translate(494.482422 0)"/>
      <use xlink:href="#DejaVuSans-73" transform="translate(557.861328 0)"/>
     </g>
    </g>
   </g>
   <g id="matplotlib.axis_2">
    <g id="ytick_1">
     <g id="line2d_19">
      <path d="M 57.6 302.785525 
L 414.72 302.785525 
" clip-path="url(#pcd15e5de61)" style="fill: none; stroke: #b0b0b0; stroke-width: 0.8; stroke-linecap: square"/>
     </g>
     <g id="line2d_20">
      <defs>
       <path id="m611a3ee993" d="M 0 0 
L -3.5 0 
" style="stroke: #000000; stroke-width: 0.8"/>
      </defs>
      <g>
       <use xlink:href="#m611a3ee993" x="57.6" y="302.785525" style="stroke: #000000; stroke-width: 0.8"/>
      </g>
     </g>
     <g id="text_11">
      <!-- $\mathdefault{-10^{3}}$ -->
      <g transform="translate(24.6 306.584743) scale(0.1 -0.1)">
       <defs>
        <path id="DejaVuSans-2212" d="M 678 2272 
L 4684 2272 
L 4684 1741 
L 678 1741 
L 678 2272 
z
" transform="scale(0.015625)"/>
        <path id="DejaVuSans-33" d="M 2597 2516 
Q 3050 2419 3304 2112 
Q 3559 1806 3559 1356 
Q 3559 666 3084 287 
Q 2609 -91 1734 -91 
Q 1441 -91 1130 -33 
Q 819 25 488 141 
L 488 750 
Q 750 597 1062 519 
Q 1375 441 1716 441 
Q 2309 441 2620 675 
Q 2931 909 2931 1356 
Q 2931 1769 2642 2001 
Q 2353 2234 1838 2234 
L 1294 2234 
L 1294 2753 
L 1863 2753 
Q 2328 2753 2575 2939 
Q 2822 3125 2822 3475 
Q 2822 3834 2567 4026 
Q 2313 4219 1838 4219 
Q 1578 4219 1281 4162 
Q 984 4106 628 3988 
L 628 4550 
Q 988 4650 1302 4700 
Q 1616 4750 1894 4750 
Q 2613 4750 3031 4423 
Q 3450 4097 3450 3541 
Q 3450 3153 3228 2886 
Q 3006 2619 2597 2516 
z
" transform="scale(0.015625)"/>
       </defs>
       <use xlink:href="#DejaVuSans-2212" transform="translate(0 0.765625)"/>
       <use xlink:href="#DejaVuSans-31" transform="translate(83.789062 0.765625)"/>
       <use xlink:href="#DejaVuSans-30" transform="translate(147.412109 0.765625)"/>
       <use xlink:href="#DejaVuSans-33" transform="translate(211.992188 39.046875) scale(0.7)"/>
      </g>
     </g>
    </g>
    <g id="ytick_2">
     <g id="line2d_21">
      <path d="M 57.6 260.722128 
L 414.72 260.722128 
" clip-path="url(#pcd15e5de61)" style="fill: none; stroke: #b0b0b0; stroke-width: 0.8; stroke-linecap: square"/>
     </g>
     <g id="line2d_22">
      <g>
       <use xlink:href="#m611a3ee993" x="57.6" y="260.722128" style="stroke: #000000; stroke-width: 0.8"/>
      </g>
     </g>
     <g id="text_12">
      <!-- $\mathdefault{-10^{2}}$ -->
      <g transform="translate(24.6 264.521347) scale(0.1 -0.1)">
       <use xlink:href="#DejaVuSans-2212" transform="translate(0 0.765625)"/>
       <use xlink:href="#DejaVuSans-31" transform="translate(83.789062 0.765625)"/>
       <use xlink:href="#DejaVuSans-30" transform="translate(147.412109 0.765625)"/>
       <use xlink:href="#DejaVuSans-32" transform="translate(211.992188 39.046875) scale(0.7)"/>
      </g>
     </g>
    </g>
    <g id="ytick_3">
     <g id="line2d_23">
      <path d="M 57.6 218.658731 
L 414.72 218.658731 
" clip-path="url(#pcd15e5de61)" style="fill: none; stroke: #b0b0b0; stroke-width: 0.8; stroke-linecap: square"/>
     </g>
     <g id="line2d_24">
      <g>
       <use xlink:href="#m611a3ee993" x="57.6" y="218.658731" style="stroke: #000000; stroke-width: 0.8"/>
      </g>
     </g>
     <g id="text_13">
      <!-- $\mathdefault{-10^{1}}$ -->
      <g transform="translate(24.6 222.45795) scale(0.1 -0.1)">
       <use xlink:href="#DejaVuSans-2212" transform="translate(0 0.684375)"/>
       <use xlink:href="#DejaVuSans-31" transform="translate(83.789062 0.684375)"/>
       <use xlink:href="#DejaVuSans-30" transform="translate(147.412109 0.684375)"/>
       <use xlink:href="#DejaVuSans-31" transform="translate(211.992188 38.965625) scale(0.7)"/>
      </g>
     </g>
    </g>
    <g id="ytick_4">
     <g id="line2d_25">
      <path d="M 57.6 165.889125 
L 414.72 165.889125 
" clip-path="url(#pcd15e5de61)" style="fill: none; stroke: #b0b0b0; stroke-width: 0.8; stroke-linecap: square"/>
     </g>
     <g id="line2d_26">
      <g>
       <use xlink:href="#m611a3ee993" x="57.6" y="165.889125" style="stroke: #000000; stroke-width: 0.8"/>
      </g>
     </g>
     <g id="text_14">
      <!-- $\mathdefault{-10^{0}}$ -->
      <g transform="translate(24.6 169.688344) scale(0.1 -0.1)">
       <use xlink:href="#DejaVuSans-2212" transform="translate(0 0.765625)"/>
       <use xlink:href="#DejaVuSans-31" transform="translate(83.789062 0.765625)"/>
       <use xlink:href="#DejaVuSans-30" transform="translate(147.412109 0.765625)"/>
       <use xlink:href="#DejaVuSans-30" transform="translate(211.992188 39.046875) scale(0.7)"/>
      </g>
     </g>
    </g>
    <g id="ytick_5">
     <g id="line2d_27">
      <path d="M 57.6 142.520571 
L 414.72 142.520571 
" clip-path="url(#pcd15e5de61)" style="fill: none; stroke: #b0b0b0; stroke-width: 0.8; stroke-linecap: square"/>
     </g>
     <g id="line2d_28">
      <g>
       <use xlink:href="#m611a3ee993" x="57.6" y="142.520571" style="stroke: #000000; stroke-width: 0.8"/>
      </g>
     </g>
     <g id="text_15">
      <!-- $\mathdefault{0}$ -->
      <g transform="translate(44.2 146.31979) scale(0.1 -0.1)">
       <use xlink:href="#DejaVuSans-30" transform="translate(0 0.78125)"/>
      </g>
     </g>
    </g>
    <g id="ytick_6">
     <g id="line2d_29">
      <path d="M 57.6 119.152018 
L 414.72 119.152018 
" clip-path="url(#pcd15e5de61)" style="fill: none; stroke: #b0b0b0; stroke-width: 0.8; stroke-linecap: square"/>
     </g>
     <g id="line2d_30">
      <g>
       <use xlink:href="#m611a3ee993" x="57.6" y="119.152018" style="stroke: #000000; stroke-width: 0.8"/>
      </g>
     </g>
     <g id="text_16">
      <!-- $\mathdefault{10^{0}}$ -->
      <g transform="translate(33 122.951236) scale(0.1 -0.1)">
       <use xlink:href="#DejaVuSans-31" transform="translate(0 0.765625)"/>
       <use xlink:href="#DejaVuSans-30" transform="translate(63.623047 0.765625)"/>
       <use xlink:href="#DejaVuSans-30" transform="translate(128.203125 39.046875) scale(0.7)"/>
      </g>
     </g>
    </g>
    <g id="ytick_7">
     <g id="line2d_31">
      <path d="M 57.6 66.382411 
L 414.72 66.382411 
" clip-path="url(#pcd15e5de61)" style="fill: none; stroke: #b0b0b0; stroke-width: 0.8; stroke-linecap: square"/>
     </g>
     <g id="line2d_32">
      <g>
       <use xlink:href="#m611a3ee993" x="57.6" y="66.382411" style="stroke: #000000; stroke-width: 0.8"/>
      </g>
     </g>
     <g id="text_17">
      <!-- $\mathdefault{10^{1}}$ -->
      <g transform="translate(33 70.18163) scale(0.1 -0.1)">
       <use xlink:href="#DejaVuSans-31" transform="translate(0 0.684375)"/>
       <use xlink:href="#DejaVuSans-30" transform="translate(63.623047 0.684375)"/>
       <use xlink:href="#DejaVuSans-31" transform="translate(128.203125 38.965625) scale(0.7)"/>
      </g>
     </g>
    </g>
    <g id="text_18">
     <!-- Fitness -->
     <g transform="translate(18.520312 191.845187) rotate(-90) scale(0.1 -0.1)">
      <defs>
       <path id="DejaVuSans-46" d="M 628 4666 
L 3309 4666 
L 3309 4134 
L 1259 4134 
L 1259 2759 
L 3109 2759 
L 3109 2228 
L 1259 2228 
L 1259 0 
L 628 0 
L 628 4666 
z
" transform="scale(0.015625)"/>
      </defs>
      <use xlink:href="#DejaVuSans-46"/>
      <use xlink:href="#DejaVuSans-69" transform="translate(50.269531 0)"/>
      <use xlink:href="#DejaVuSans-74" transform="translate(78.052734 0)"/>
      <use xlink:href="#DejaVuSans-6e" transform="translate(117.261719 0)"/>
      <use xlink:href="#DejaVuSans-65" transform="translate(180.640625 0)"/>
      <use xlink:href="#DejaVuSans-73" transform="translate(242.164062 0)"/>
      <use xlink:href="#DejaVuSans-73" transform="translate(294.263672 0)"/>
     </g>
    </g>
   </g>
   <g id="line2d_33">
    <path d="M 73.832727 295.488 
L 75.464157 289.791468 
L 77.095587 288.899619 
L 78.727017 289.027828 
L 80.358447 286.58064 
L 81.989877 286.07879 
L 83.621307 284.345869 
L 85.252736 283.459357 
L 88.515596 280.021145 
L 90.147026 277.225137 
L 91.778456 279.641783 
L 93.409886 278.077881 
L 95.041316 277.630868 
L 98.304175 276.053307 
L 99.935605 275.598876 
L 101.567035 276.886956 
L 103.198465 278.739558 
L 104.829895 278.174134 
L 106.461325 277.844316 
L 108.092755 272.422498 
L 109.724185 272.580986 
L 111.355614 272.190218 
L 112.987044 269.687755 
L 114.618474 272.98355 
L 117.881334 271.320734 
L 119.512764 269.814726 
L 121.144194 271.649651 
L 122.775624 270.664039 
L 124.407053 273.336701 
L 126.038483 272.141351 
L 129.301343 267.181304 
L 130.932773 268.868887 
L 132.564203 269.987433 
L 134.195633 272.21921 
L 137.458492 270.980736 
L 139.089922 272.864489 
L 140.721352 269.346919 
L 142.352782 270.657891 
L 143.984212 268.602496 
L 145.615642 272.272917 
L 147.247072 267.377747 
L 148.878502 268.066585 
L 150.509931 269.781445 
L 152.141361 266.425188 
L 153.772791 269.57857 
L 155.404221 269.090928 
L 157.035651 269.491872 
L 158.667081 268.192535 
L 160.298511 269.035028 
L 161.929941 269.677395 
L 163.56137 272.884787 
L 165.1928 270.345243 
L 166.82423 269.892759 
L 168.45566 268.998946 
L 170.08709 267.141046 
L 171.71852 269.94442 
L 173.34995 269.474741 
L 174.98138 271.901561 
L 176.61281 269.147709 
L 178.244239 268.313041 
L 179.875669 271.543819 
L 181.507099 269.987913 
L 183.138529 268.909757 
L 184.769959 273.041006 
L 186.401389 271.238472 
L 188.032819 272.267222 
L 189.664249 271.038521 
L 191.295678 270.804027 
L 192.927108 272.147272 
L 194.558538 270.047152 
L 196.189968 268.135201 
L 197.821398 267.059023 
L 199.452828 269.800898 
L 201.084258 271.371687 
L 202.715688 269.538192 
L 204.347117 271.49196 
L 205.978547 270.552829 
L 207.609977 267.19362 
L 209.241407 269.060437 
L 210.872837 269.24149 
L 212.504267 270.290921 
L 214.135697 268.499476 
L 215.767127 267.262072 
L 217.398556 270.483926 
L 219.029986 267.833602 
L 220.661416 271.896556 
L 222.292846 270.334047 
L 223.924276 269.637175 
L 225.555706 270.35734 
L 227.187136 266.489947 
L 228.818566 270.086364 
L 230.449995 267.568675 
L 232.081425 271.798906 
L 233.712855 269.65978 
L 235.344285 267.750458 
L 236.975715 266.858761 
L 238.607145 269.316831 
L 240.238575 270.227433 
L 241.870005 271.927908 
L 243.501434 266.75025 
L 245.132864 269.373266 
L 246.764294 268.618083 
L 248.395724 266.478281 
L 250.027154 267.425586 
L 251.658584 268.107062 
L 253.290014 269.344725 
L 254.921444 267.524893 
L 256.552873 265.121759 
L 258.184303 268.182828 
L 259.815733 268.101283 
L 261.447163 271.476002 
L 263.078593 267.176987 
L 264.710023 268.640843 
L 266.341453 268.489829 
L 267.972883 264.715193 
L 269.604312 268.612662 
L 271.235742 268.823429 
L 272.867172 268.599503 
L 274.498602 266.041231 
L 276.130032 270.582788 
L 279.392892 266.931317 
L 281.024322 269.429753 
L 282.655751 269.377971 
L 284.287181 265.442297 
L 285.918611 271.177373 
L 287.550041 268.127237 
L 289.181471 266.296765 
L 290.812901 269.066583 
L 292.444331 266.793172 
L 294.075761 265.441085 
L 295.70719 268.465891 
L 297.33862 267.450122 
L 298.97005 268.890251 
L 300.60148 267.618891 
L 302.23291 267.27301 
L 303.86434 266.533932 
L 305.49577 266.045858 
L 307.1272 266.841055 
L 308.75863 270.186319 
L 310.390059 267.075255 
L 312.021489 264.808032 
L 313.652919 267.83098 
L 315.284349 269.110777 
L 316.915779 269.397728 
L 318.547209 268.81013 
L 320.178639 267.738585 
L 321.810069 264.891345 
L 323.441498 267.650973 
L 325.072928 267.012726 
L 328.335788 266.470969 
L 329.967218 264.844539 
L 331.598648 266.237397 
L 333.230078 268.285865 
L 334.861508 268.512481 
L 336.492937 266.500934 
L 338.124367 267.569328 
L 339.755797 268.120831 
L 341.387227 268.28498 
L 343.018657 268.86177 
L 344.650087 267.920823 
L 346.281517 266.16945 
L 347.912947 268.586057 
L 349.544376 265.905048 
L 351.175806 266.819854 
L 352.807236 266.213407 
L 354.438666 267.124632 
L 356.070096 267.156961 
L 357.701526 265.852845 
L 359.332956 268.240805 
L 360.964386 265.251869 
L 362.595815 268.235398 
L 364.227245 267.356591 
L 365.858675 265.820462 
L 367.490105 267.054096 
L 369.121535 266.985616 
L 370.752965 267.796628 
L 372.384395 267.717536 
L 374.015825 265.971674 
L 375.647254 267.6114 
L 377.278684 265.953924 
L 378.910114 265.972288 
L 380.541544 267.88378 
L 382.172974 266.874654 
L 383.804404 266.372757 
L 385.435834 268.635397 
L 387.067264 265.838765 
L 388.698693 265.117834 
L 390.330123 267.28405 
L 391.961553 265.606584 
L 393.592983 267.799665 
L 395.224413 264.986319 
L 396.855843 266.278532 
L 398.487273 266.874887 
L 398.487273 266.874887 
" clip-path="url(#pcd15e5de61)" style="fill: none; stroke: #0000ff; stroke-width: 1.5; stroke-linecap: square"/>
   </g>
   <g id="line2d_34">
    <path d="M 73.832727 287.538893 
L 75.464157 279.867445 
L 77.095587 278.822536 
L 78.727017 278.386337 
L 80.358447 271.644269 
L 81.989877 269.255131 
L 83.621307 269.442654 
L 85.252736 268.625612 
L 86.884166 263.161511 
L 88.515596 263.225305 
L 90.147026 261.125963 
L 91.778456 262.920018 
L 93.409886 260.677749 
L 95.041316 257.047292 
L 96.672746 260.232148 
L 98.304175 261.763507 
L 99.935605 260.234384 
L 101.567035 260.126984 
L 103.198465 257.690597 
L 104.829895 258.703875 
L 106.461325 253.836716 
L 108.092755 259.567659 
L 109.724185 252.982638 
L 111.355614 248.4709 
L 112.987044 253.105755 
L 114.618474 249.525593 
L 116.249904 250.103395 
L 117.881334 251.678555 
L 119.512764 251.480404 
L 121.144194 252.729074 
L 122.775624 250.706894 
L 124.407053 250.294459 
L 126.038483 251.285983 
L 127.669913 246.881544 
L 129.301343 253.276401 
L 130.932773 242.654612 
L 132.564203 241.281897 
L 134.195633 238.64747 
L 135.827063 233.330486 
L 137.458492 226.156359 
L 139.089922 212.252097 
L 140.721352 240.509737 
L 142.352782 238.02124 
L 143.984212 245.520274 
L 145.615642 218.043065 
L 147.247072 249.456073 
L 148.878502 253.088986 
L 150.509931 228.360737 
L 152.141361 255.893126 
L 153.772791 243.029588 
L 155.404221 248.140913 
L 157.035651 247.925492 
L 158.667081 250.097598 
L 160.298511 248.09585 
L 161.929941 233.92414 
L 163.56137 238.240706 
L 165.1928 223.236733 
L 166.82423 234.583873 
L 168.45566 250.952932 
L 170.08709 251.622155 
L 171.71852 243.56766 
L 173.34995 245.51322 
L 174.98138 229.33738 
L 176.61281 242.889661 
L 178.244239 247.09946 
L 179.875669 235.462073 
L 181.507099 245.224184 
L 183.138529 241.844728 
L 184.769959 211.486999 
L 186.401389 221.631826 
L 189.664249 239.036131 
L 191.295678 232.620623 
L 192.927108 211.95398 
L 194.558538 223.610009 
L 196.189968 250.057108 
L 197.821398 253.112098 
L 199.452828 243.009114 
L 201.084258 230.096106 
L 202.715688 242.015763 
L 204.347117 221.30743 
L 205.978547 235.47794 
L 207.609977 248.072777 
L 209.241407 245.905146 
L 210.872837 232.644026 
L 212.504267 237.663839 
L 214.135697 247.735758 
L 215.767127 249.565517 
L 217.398556 216.792284 
L 219.029986 246.615955 
L 220.661416 213.843125 
L 222.292846 203.648211 
L 223.924276 237.891976 
L 225.555706 169.998949 
L 227.187136 240.056738 
L 228.818566 53.568 
L 230.449995 243.712388 
L 232.081425 235.589645 
L 233.712855 236.578654 
L 235.344285 242.115398 
L 236.975715 251.828951 
L 238.607145 235.472774 
L 240.238575 221.794367 
L 241.870005 210.676279 
L 243.501434 251.868019 
L 245.132864 236.825323 
L 246.764294 234.009686 
L 248.395724 248.555546 
L 250.027154 241.809279 
L 251.658584 248.72293 
L 253.290014 233.962692 
L 254.921444 246.785218 
L 256.552873 258.255606 
L 258.184303 223.357865 
L 259.815733 246.619892 
L 261.447163 232.328462 
L 263.078593 242.328111 
L 264.710023 246.741878 
L 266.341453 239.880984 
L 267.972883 261.880319 
L 269.604312 236.958523 
L 271.235742 236.145674 
L 272.867172 245.209904 
L 274.498602 252.527791 
L 276.130032 224.590736 
L 277.761462 236.194021 
L 279.392892 253.223454 
L 281.024322 212.651521 
L 282.655751 226.777718 
L 284.287181 257.474816 
L 285.918611 236.35856 
L 287.550041 246.996174 
L 289.181471 253.311278 
L 290.812901 237.507406 
L 292.444331 245.394035 
L 294.075761 258.996998 
L 295.70719 218.931963 
L 297.33862 249.767969 
L 298.97005 200.204612 
L 300.60148 244.192404 
L 302.23291 241.928885 
L 303.86434 249.726681 
L 305.49577 254.816607 
L 307.1272 234.37432 
L 308.75863 67.285937 
L 310.390059 249.003801 
L 312.021489 263.010041 
L 313.652919 242.855303 
L 315.284349 235.778512 
L 316.915779 157.146552 
L 318.547209 234.608824 
L 320.178639 243.103025 
L 321.810069 262.53797 
L 323.441498 245.505951 
L 325.072928 247.92162 
L 326.704358 252.091444 
L 328.335788 252.47642 
L 329.967218 262.588404 
L 331.598648 248.207157 
L 333.230078 68.726562 
L 334.861508 245.023614 
L 336.492937 243.231635 
L 338.124367 247.299489 
L 339.755797 246.898748 
L 341.387227 237.910115 
L 343.018657 240.325474 
L 344.650087 242.02433 
L 346.281517 249.257653 
L 347.912947 239.35411 
L 349.544376 257.353439 
L 351.175806 247.773652 
L 352.807236 256.641309 
L 354.438666 252.611699 
L 356.070096 249.545496 
L 357.701526 254.547154 
L 359.332956 227.709938 
L 360.964386 254.665465 
L 362.595815 247.149409 
L 364.227245 248.849325 
L 365.858675 255.627757 
L 367.490105 238.977175 
L 369.121535 244.407282 
L 370.752965 246.592902 
L 372.384395 205.115431 
L 374.015825 259.422175 
L 375.647254 246.493134 
L 377.278684 255.692299 
L 378.910114 256.081244 
L 380.541544 246.468724 
L 382.172974 239.837502 
L 383.804404 255.966792 
L 385.435834 234.905226 
L 387.067264 256.167474 
L 388.698693 261.822353 
L 390.330123 232.890219 
L 391.961553 251.868419 
L 393.592983 244.395958 
L 395.224413 262.883416 
L 396.855843 255.890012 
L 398.487273 243.557151 
L 398.487273 243.557151 
" clip-path="url(#pcd15e5de61)" style="fill: none; stroke-dasharray: 9.6,2.4,1.5,2.4; stroke-dashoffset: 0; stroke: #008000; stroke-width: 1.5"/>
   </g>
   <g id="line2d_35">
    <path d="M 73.832727 271.756222 
L 75.464157 262.982261 
L 77.095587 261.413917 
L 78.727017 262.501273 
L 80.358447 258.733417 
L 81.989877 261.410642 
L 83.621307 260.491409 
L 85.252736 261.992785 
L 86.884166 259.886255 
L 88.515596 261.174006 
L 90.147026 257.497297 
L 91.778456 259.80323 
L 93.409886 258.954535 
L 95.041316 260.914022 
L 96.672746 262.507369 
L 98.304175 261.114013 
L 99.935605 259.177515 
L 101.567035 260.865066 
L 103.198465 261.971437 
L 106.461325 259.908637 
L 108.092755 258.281178 
L 109.724185 258.824781 
L 111.355614 256.825951 
L 112.987044 253.02148 
L 114.618474 260.29287 
L 116.249904 260.132925 
L 117.881334 256.830795 
L 119.512764 260.657355 
L 121.144194 258.564947 
L 122.775624 259.837179 
L 124.407053 261.529238 
L 126.038483 260.757513 
L 127.669913 260.649582 
L 129.301343 261.628083 
L 130.932773 258.948986 
L 132.564203 254.782542 
L 134.195633 260.162462 
L 135.827063 261.76954 
L 137.458492 258.903299 
L 139.089922 259.609132 
L 140.721352 258.377587 
L 142.352782 261.422212 
L 143.984212 261.662961 
L 145.615642 257.968643 
L 147.247072 260.767041 
L 148.878502 261.948594 
L 150.509931 259.400518 
L 152.141361 259.527106 
L 153.772791 259.383341 
L 155.404221 259.958062 
L 157.035651 260.775904 
L 158.667081 259.905714 
L 160.298511 260.660052 
L 161.929941 258.111425 
L 163.56137 261.165111 
L 165.1928 260.712843 
L 166.82423 257.910253 
L 168.45566 260.302313 
L 170.08709 261.117074 
L 171.71852 261.069447 
L 173.34995 260.208096 
L 174.98138 261.63412 
L 176.61281 260.826945 
L 178.244239 260.472089 
L 179.875669 258.60213 
L 181.507099 255.666888 
L 183.138529 257.531925 
L 184.769959 257.306468 
L 186.401389 259.583883 
L 188.032819 258.994468 
L 191.295678 261.125453 
L 192.927108 259.920777 
L 194.558538 261.488853 
L 196.189968 257.567392 
L 197.821398 259.289094 
L 199.452828 259.772214 
L 201.084258 259.590345 
L 202.715688 259.898203 
L 204.347117 261.950897 
L 205.978547 259.000971 
L 207.609977 259.921533 
L 209.241407 261.44429 
L 210.872837 259.723298 
L 212.504267 259.970975 
L 214.135697 260.953561 
L 215.767127 259.7132 
L 217.398556 258.776905 
L 219.029986 256.29545 
L 220.661416 259.43774 
L 222.292846 258.224095 
L 223.924276 258.420903 
L 225.555706 258.261723 
L 227.187136 259.60258 
L 228.818566 257.969092 
L 230.449995 257.460594 
L 232.081425 259.928562 
L 233.712855 260.972812 
L 235.344285 260.947019 
L 236.975715 256.810167 
L 238.607145 261.112539 
L 240.238575 258.159192 
L 241.870005 261.355177 
L 243.501434 260.243166 
L 246.764294 260.117421 
L 248.395724 260.418968 
L 250.027154 255.882201 
L 251.658584 259.017198 
L 253.290014 260.574382 
L 254.921444 257.160279 
L 256.552873 259.586024 
L 258.184303 258.857259 
L 259.815733 261.127232 
L 261.447163 262.170816 
L 263.078593 259.760317 
L 264.710023 258.457499 
L 266.341453 258.061321 
L 267.972883 257.07053 
L 269.604312 260.331501 
L 271.235742 259.407692 
L 272.867172 260.31165 
L 274.498602 260.260861 
L 276.130032 260.815545 
L 277.761462 258.989636 
L 279.392892 261.07115 
L 281.024322 257.778002 
L 282.655751 259.20629 
L 284.287181 259.609691 
L 285.918611 258.807018 
L 287.550041 258.855048 
L 289.181471 258.235431 
L 290.812901 260.804015 
L 292.444331 260.731173 
L 294.075761 261.052574 
L 295.70719 260.5705 
L 297.33862 261.818812 
L 298.97005 259.713538 
L 300.60148 257.410574 
L 302.23291 259.000525 
L 303.86434 259.68601 
L 305.49577 258.608955 
L 307.1272 259.217507 
L 310.390059 260.030218 
L 312.021489 258.965899 
L 313.652919 256.114967 
L 315.284349 260.119813 
L 316.915779 255.695957 
L 318.547209 258.458638 
L 320.178639 259.620352 
L 321.810069 260.048197 
L 323.441498 260.632886 
L 325.072928 260.725581 
L 326.704358 259.974199 
L 328.335788 258.836626 
L 329.967218 259.63349 
L 331.598648 256.680934 
L 333.230078 260.030346 
L 334.861508 259.879094 
L 336.492937 259.016957 
L 338.124367 260.848138 
L 339.755797 259.844239 
L 341.387227 259.344605 
L 343.018657 260.311269 
L 344.650087 256.349492 
L 346.281517 259.921713 
L 347.912947 260.274607 
L 349.544376 259.719343 
L 351.175806 259.393736 
L 352.807236 258.868536 
L 354.438666 261.13603 
L 356.070096 253.500739 
L 357.701526 259.321188 
L 359.332956 258.442042 
L 360.964386 254.528611 
L 362.595815 259.784069 
L 364.227245 259.65026 
L 365.858675 258.000163 
L 367.490105 259.951537 
L 369.121535 260.174919 
L 370.752965 260.947017 
L 372.384395 260.185662 
L 374.015825 260.646473 
L 375.647254 259.700081 
L 377.278684 258.485847 
L 378.910114 257.700978 
L 380.541544 260.239809 
L 382.172974 260.408141 
L 383.804404 257.858919 
L 385.435834 260.991941 
L 387.067264 260.557254 
L 388.698693 258.289099 
L 390.330123 258.075775 
L 391.961553 258.553632 
L 393.592983 261.494354 
L 395.224413 259.518664 
L 396.855843 260.36412 
L 398.487273 257.683615 
L 398.487273 257.683615 
" clip-path="url(#pcd15e5de61)" style="fill: none; stroke: #ff0000; stroke-width: 1.5; stroke-linecap: square"/>
   </g>
   <g id="patch_3">
    <path d="M 57.6 307.584 
L 57.6 41.472 
" style="fill: none; stroke: #000000; stroke-width: 0.8; stroke-linejoin: miter; stroke-linecap: square"/>
   </g>
   <g id="patch_4">
    <path d="M 414.72 307.584 
L 414.72 41.472 
" style="fill: none; stroke: #000000; stroke-width: 0.8; stroke-linejoin: miter; stroke-linecap: square"/>
   </g>
   <g id="patch_5">
    <path d="M 57.6 307.584 
L 414.72 307.584 
" style="fill: none; stroke: #000000; stroke-width: 0.8; stroke-linejoin: miter; stroke-linecap: square"/>
   </g>
   <g id="patch_6">
    <path d="M 57.6 41.472 
L 414.72 41.472 
" style="fill: none; stroke: #000000; stroke-width: 0.8; stroke-linejoin: miter; stroke-linecap: square"/>
   </g>
   <g id="text_19">
    <!-- Population's average and best fitness -->
    <g transform="translate(123.529687 35.472) scale(0.12 -0.12)">
     <defs>
      <path id="DejaVuSans-50" d="M 1259 4147 
L 1259 2394 
L 2053 2394 
Q 2494 2394 2734 2622 
Q 2975 2850 2975 3272 
Q 2975 3691 2734 3919 
Q 2494 4147 2053 4147 
L 1259 4147 
z
M 628 4666 
L 2053 4666 
Q 2838 4666 3239 4311 
Q 3641 3956 3641 3272 
Q 3641 2581 3239 2228 
Q 2838 1875 2053 1875 
L 1259 1875 
L 1259 0 
L 628 0 
L 628 4666 
z
" transform="scale(0.015625)"/>
      <path id="DejaVuSans-70" d="M 1159 525 
L 1159 -1331 
L 581 -1331 
L 581 3500 
L 1159 3500 
L 1159 2969 
Q 1341 3281 1617 3432 
Q 1894 3584 2278 3584 
Q 2916 3584 3314 3078 
Q 3713 2572 3713 1747 
Q 3713 922 3314 415 
Q 2916 -91 2278 -91 
Q 1894 -91 1617 61 
Q 1341 213 1159 525 
z
M 3116 1747 
Q 3116 2381 2855 2742 
Q 2594 3103 2138 3103 
Q 1681 3103 1420 2742 
Q 1159 2381 1159 1747 
Q 1159 1113 1420 752 
Q 1681 391 2138 391 
Q 2594 391 2855 752 
Q 3116 1113 3116 1747 
z
" transform="scale(0.015625)"/>
      <path id="DejaVuSans-75" d="M 544 1381 
L 544 3500 
L 1119 3500 
L 1119 1403 
Q 1119 906 1312 657 
Q 1506 409 1894 409 
Q 2359 409 2629 706 
Q 2900 1003 2900 1516 
L 2900 3500 
L 3475 3500 
L 3475 0 
L 2900 0 
L 2900 538 
Q 2691 219 2414 64 
Q 2138 -91 1772 -91 
Q 1169 -91 856 284 
Q 544 659 544 1381 
z
M 1991 3584 
L 1991 3584 
z
" transform="scale(0.015625)"/>
      <path id="DejaVuSans-6c" d="M 603 4863 
L 1178 4863 
L 1178 0 
L 603 0 
L 603 4863 
z
" transform="scale(0.015625)"/>
      <path id="DejaVuSans-27" d="M 1147 4666 
L 1147 2931 
L 616 2931 
L 616 4666 
L 1147 4666 
z
" transform="scale(0.015625)"/>
      <path id="DejaVuSans-20" transform="scale(0.015625)"/>
      <path id="DejaVuSans-76" d="M 191 3500 
L 800 3500 
L 1894 563 
L 2988 3500 
L 3597 3500 
L 2284 0 
L 1503 0 
L 191 3500 
z
" transform="scale(0.015625)"/>
      <path id="DejaVuSans-67" d="M 2906 1791 
Q 2906 2416 2648 2759 
Q 2391 3103 1925 3103 
Q 1463 3103 1205 2759 
Q 947 2416 947 1791 
Q 947 1169 1205 825 
Q 1463 481 1925 481 
Q 2391 481 2648 825 
Q 2906 1169 2906 1791 
z
M 3481 434 
Q 3481 -459 3084 -895 
Q 2688 -1331 1869 -1331 
Q 1566 -1331 1297 -1286 
Q 1028 -1241 775 -1147 
L 775 -588 
Q 1028 -725 1275 -790 
Q 1522 -856 1778 -856 
Q 2344 -856 2625 -561 
Q 2906 -266 2906 331 
L 2906 616 
Q 2728 306 2450 153 
Q 2172 0 1784 0 
Q 1141 0 747 490 
Q 353 981 353 1791 
Q 353 2603 747 3093 
Q 1141 3584 1784 3584 
Q 2172 3584 2450 3431 
Q 2728 3278 2906 2969 
L 2906 3500 
L 3481 3500 
L 3481 434 
z
" transform="scale(0.015625)"/>
      <path id="DejaVuSans-64" d="M 2906 2969 
L 2906 4863 
L 3481 4863 
L 3481 0 
L 2906 0 
L 2906 525 
Q 2725 213 2448 61 
Q 2172 -91 1784 -91 
Q 1150 -91 751 415 
Q 353 922 353 1747 
Q 353 2572 751 3078 
Q 1150 3584 1784 3584 
Q 2172 3584 2448 3432 
Q 2725 3281 2906 2969 
z
M 947 1747 
Q 947 1113 1208 752 
Q 1469 391 1925 391 
Q 2381 391 2643 752 
Q 2906 1113 2906 1747 
Q 2906 2381 2643 2742 
Q 2381 3103 1925 3103 
Q 1469 3103 1208 2742 
Q 947 2381 947 1747 
z
" transform="scale(0.015625)"/>
      <path id="DejaVuSans-62" d="M 3116 1747 
Q 3116 2381 2855 2742 
Q 2594 3103 2138 3103 
Q 1681 3103 1420 2742 
Q 1159 2381 1159 1747 
Q 1159 1113 1420 752 
Q 1681 391 2138 391 
Q 2594 391 2855 752 
Q 3116 1113 3116 1747 
z
M 1159 2969 
Q 1341 3281 1617 3432 
Q 1894 3584 2278 3584 
Q 2916 3584 3314 3078 
Q 3713 2572 3713 1747 
Q 3713 922 3314 415 
Q 2916 -91 2278 -91 
Q 1894 -91 1617 61 
Q 1341 213 1159 525 
L 1159 0 
L 581 0 
L 581 4863 
L 1159 4863 
L 1159 2969 
z
" transform="scale(0.015625)"/>
      <path id="DejaVuSans-66" d="M 2375 4863 
L 2375 4384 
L 1825 4384 
Q 1516 4384 1395 4259 
Q 1275 4134 1275 3809 
L 1275 3500 
L 2222 3500 
L 2222 3053 
L 1275 3053 
L 1275 0 
L 697 0 
L 697 3053 
L 147 3053 
L 147 3500 
L 697 3500 
L 697 3744 
Q 697 4328 969 4595 
Q 1241 4863 1831 4863 
L 2375 4863 
z
" transform="scale(0.015625)"/>
     </defs>
     <use xlink:href="#DejaVuSans-50"/>
     <use xlink:href="#DejaVuSans-6f" transform="translate(56.677734 0)"/>
     <use xlink:href="#DejaVuSans-70" transform="translate(117.859375 0)"/>
     <use xlink:href="#DejaVuSans-75" transform="translate(181.335938 0)"/>
     <use xlink:href="#DejaVuSans-6c" transform="translate(244.714844 0)"/>
     <use xlink:href="#DejaVuSans-61" transform="translate(272.498047 0)"/>
     <use xlink:href="#DejaVuSans-74" transform="translate(333.777344 0)"/>
     <use xlink:href="#DejaVuSans-69" transform="translate(372.986328 0)"/>
     <use xlink:href="#DejaVuSans-6f" transform="translate(400.769531 0)"/>
     <use xlink:href="#DejaVuSans-6e" transform="translate(461.951172 0)"/>
     <use xlink:href="#DejaVuSans-27" transform="translate(525.330078 0)"/>
     <use xlink:href="#DejaVuSans-73" transform="translate(552.820312 0)"/>
     <use xlink:href="#DejaVuSans-20" transform="translate(604.919922 0)"/>
     <use xlink:href="#DejaVuSans-61" transform="translate(636.707031 0)"/>
     <use xlink:href="#DejaVuSans-76" transform="translate(697.986328 0)"/>
     <use xlink:href="#DejaVuSans-65" transform="translate(757.166016 0)"/>
     <use xlink:href="#DejaVuSans-72" transform="translate(818.689453 0)"/>
     <use xlink:href="#DejaVuSans-61" transform="translate(859.802734 0)"/>
     <use xlink:href="#DejaVuSans-67" transform="translate(921.082031 0)"/>
     <use xlink:href="#DejaVuSans-65" transform="translate(984.558594 0)"/>
     <use xlink:href="#DejaVuSans-20" transform="translate(1046.082031 0)"/>
     <use xlink:href="#DejaVuSans-61" transform="translate(1077.869141 0)"/>
     <use xlink:href="#DejaVuSans-6e" transform="translate(1139.148438 0)"/>
     <use xlink:href="#DejaVuSans-64" transform="translate(1202.527344 0)"/>
     <use xlink:href="#DejaVuSans-20" transform="translate(1266.003906 0)"/>
     <use xlink:href="#DejaVuSans-62" transform="translate(1297.791016 0)"/>
     <use xlink:href="#DejaVuSans-65" transform="translate(1361.267578 0)"/>
     <use xlink:href="#DejaVuSans-73" transform="translate(1422.791016 0)"/>
     <use xlink:href="#DejaVuSans-74" transform="translate(1474.890625 0)"/>
     <use xlink:href="#DejaVuSans-20" transform="translate(1514.099609 0)"/>
     <use xlink:href="#DejaVuSans-66" transform="translate(1545.886719 0)"/>
     <use xlink:href="#DejaVuSans-69" transform="translate(1581.091797 0)"/>
     <use xlink:href="#DejaVuSans-74" transform="translate(1608.875 0)"/>
     <use xlink:href="#DejaVuSans-6e" transform="translate(1648.083984 0)"/>
     <use xlink:href="#DejaVuSans-65" transform="translate(1711.462891 0)"/>
     <use xlink:href="#DejaVuSans-73" transform="translate(1772.986328 0)"/>
     <use xlink:href="#DejaVuSans-73" transform="translate(1825.085938 0)"/>
    </g>
   </g>
   <g id="legend_1">
    <g id="patch_7">
     <path d="M 64.6 93.506375 
L 137.540625 93.506375 
Q 139.540625 93.506375 139.540625 91.506375 
L 139.540625 48.472 
Q 139.540625 46.472 137.540625 46.472 
L 64.6 46.472 
Q 62.6 46.472 62.6 48.472 
L 62.6 91.506375 
Q 62.6 93.506375 64.6 93.506375 
z
" style="fill: #ffffff; opacity: 0.8; stroke: #cccccc; stroke-linejoin: miter"/>
    </g>
    <g id="line2d_36">
     <path d="M 66.6 54.570438 
L 76.6 54.570438 
L 86.6 54.570438 
" style="fill: none; stroke: #0000ff; stroke-width: 1.5; stroke-linecap: square"/>
    </g>
    <g id="text_20">
     <!-- average -->
     <g transform="translate(94.6 58.070438) scale(0.1 -0.1)">
      <use xlink:href="#DejaVuSans-61"/>
      <use xlink:href="#DejaVuSans-76" transform="translate(61.279297 0)"/>
      <use xlink:href="#DejaVuSans-65" transform="translate(120.458984 0)"/>
      <use xlink:href="#DejaVuSans-72" transform="translate(181.982422 0)"/>
      <use xlink:href="#DejaVuSans-61" transform="translate(223.095703 0)"/>
      <use xlink:href="#DejaVuSans-67" transform="translate(284.375 0)"/>
      <use xlink:href="#DejaVuSans-65" transform="translate(347.851562 0)"/>
     </g>
    </g>
    <g id="line2d_37">
     <path d="M 66.6 69.248563 
L 76.6 69.248563 
L 86.6 69.248563 
" style="fill: none; stroke-dasharray: 9.6,2.4,1.5,2.4; stroke-dashoffset: 0; stroke: #008000; stroke-width: 1.5"/>
    </g>
    <g id="text_21">
     <!-- +1 sd -->
     <g transform="translate(94.6 72.748563) scale(0.1 -0.1)">
      <defs>
       <path id="DejaVuSans-2b" d="M 2944 4013 
L 2944 2272 
L 4684 2272 
L 4684 1741 
L 2944 1741 
L 2944 0 
L 2419 0 
L 2419 1741 
L 678 1741 
L 678 2272 
L 2419 2272 
L 2419 4013 
L 2944 4013 
z
" transform="scale(0.015625)"/>
      </defs>
      <use xlink:href="#DejaVuSans-2b"/>
      <use xlink:href="#DejaVuSans-31" transform="translate(83.789062 0)"/>
      <use xlink:href="#DejaVuSans-20" transform="translate(147.412109 0)"/>
      <use xlink:href="#DejaVuSans-73" transform="translate(179.199219 0)"/>
      <use xlink:href="#DejaVuSans-64" transform="translate(231.298828 0)"/>
     </g>
    </g>
    <g id="line2d_38">
     <path d="M 66.6 83.926688 
L 76.6 83.926688 
L 86.6 83.926688 
" style="fill: none; stroke: #ff0000; stroke-width: 1.5; stroke-linecap: square"/>
    </g>
    <g id="text_22">
     <!-- best -->
     <g transform="translate(94.6 87.426688) scale(0.1 -0.1)">
      <use xlink:href="#DejaVuSans-62"/>
      <use xlink:href="#DejaVuSans-65" transform="translate(63.476562 0)"/>
      <use xlink:href="#DejaVuSans-73" transform="translate(125 0)"/>
      <use xlink:href="#DejaVuSans-74" transform="translate(177.099609 0)"/>
     </g>
    </g>
   </g>
  </g>
 </g>
 <defs>
  <clipPath id="pcd15e5de61">
   <rect x="57.6" y="41.472" width="357.12" height="266.112"/>
  </clipPath>
 </defs>
</svg>
