<?xml version="1.0" encoding="utf-8" standalone="no"?>
<!DOCTYPE svg PUBLIC "-//W3C//DTD SVG 1.1//EN"
  "http://www.w3.org/Graphics/SVG/1.1/DTD/svg11.dtd">
<svg xmlns:xlink="http://www.w3.org/1999/xlink" width="720pt" height="432pt" viewBox="0 0 720 432" xmlns="http://www.w3.org/2000/svg" version="1.1">
 <metadata>
  <rdf:RDF xmlns:dc="http://purl.org/dc/elements/1.1/" xmlns:cc="http://creativecommons.org/ns#" xmlns:rdf="http://www.w3.org/1999/02/22-rdf-syntax-ns#">
   <cc:Work>
    <dc:type rdf:resource="http://purl.org/dc/dcmitype/StillImage"/>
    <dc:date>2026-04-27T01:45:59.615707</dc:date>
    <dc:format>image/svg+xml</dc:format>
    <dc:creator>
     <cc:Agent>
      <dc:title>Matplotlib v3.10.8, https://matplotlib.org/</dc:title>
     </cc:Agent>
    </dc:creator>
   </cc:Work>
  </rdf:RDF>
 </metadata>
 <defs>
  <style type="text/css">*{stroke-linejoin: round; stroke-linecap: butt}</style>
 </defs>
 <g id="figure_1">
  <g id="patch_1">
   <path d="M 0 432 
L 720 432 
L 720 0 
L 0 0 
z
" style="fill: #ffffff"/>
  </g>
  <g id="axes_1">
   <g id="patch_2">
    <path d="M 90 384.48 
L 648 384.48 
L 648 51.84 
L 90 51.84 
z
" style="fill: #ffffff"/>
   </g>
   <g id="FillBetweenPolyCollection_1">
    <defs>
     <path id="m83eaae16b4" d="M 115.363636 -243.30991 
L 115.363636 -199.38382 
L 117.912746 -234.162587 
L 120.461855 -255.63988 
L 123.010964 -257.880801 
L 125.560073 -256.528069 
L 128.109182 -272.970164 
L 130.658291 -261.312254 
L 133.207401 -278.254178 
L 135.75651 -271.711717 
L 138.305619 -276.388113 
L 140.854728 -284.674426 
L 143.403837 -274.59082 
L 145.952947 -269.890622 
L 148.502056 -278.454993 
L 151.051165 -266.763681 
L 153.600274 -273.145335 
L 156.149383 -270.299186 
L 158.698492 -271.066137 
L 161.247602 -276.057152 
L 163.796711 -280.015627 
L 166.34582 -279.507608 
L 168.894929 -289.876453 
L 171.444038 -276.903414 
L 173.993148 -278.837047 
L 176.542257 -273.413234 
L 179.091366 -275.67526 
L 181.640475 -277.253639 
L 184.189584 -281.051713 
L 186.738693 -282.680329 
L 189.287803 -289.505034 
L 191.836912 -280.12029 
L 194.386021 -275.547772 
L 196.93513 -284.861781 
L 199.484239 -278.697766 
L 202.033349 -285.146034 
L 204.582458 -285.309956 
L 207.131567 -275.460412 
L 209.680676 -282.74773 
L 212.229785 -282.91913 
L 214.778894 -276.28909 
L 217.328004 -290.805572 
L 219.877113 -280.542294 
L 222.426222 -277.760626 
L 224.975331 -279.101788 
L 227.52444 -288.197047 
L 230.07355 -278.257141 
L 232.622659 -264.117525 
L 235.171768 -271.308156 
L 237.720877 -278.424035 
L 240.269986 -284.239793 
L 242.819095 -279.559507 
L 245.368205 -284.701841 
L 247.917314 -284.22727 
L 250.466423 -280.843874 
L 253.015532 -267.847218 
L 255.564641 -285.137518 
L 258.113751 -286.158214 
L 260.66286 -275.868374 
L 263.211969 -276.542297 
L 265.761078 -274.786832 
L 268.310187 -279.216347 
L 270.859296 -272.810108 
L 273.408406 -280.916414 
L 275.957515 -289.825295 
L 278.506624 -286.218222 
L 281.055733 -288.941224 
L 283.604842 -285.359247 
L 286.153952 -279.795465 
L 288.703061 -291.536447 
L 291.25217 -287.817347 
L 293.801279 -275.748073 
L 296.350388 -278.86917 
L 298.899497 -277.849973 
L 301.448607 -289.643412 
L 303.997716 -293.337681 
L 306.546825 -279.376452 
L 309.095934 -281.972815 
L 311.645043 -285.966632 
L 314.194153 -275.939248 
L 316.743262 -290.67148 
L 319.292371 -279.268365 
L 321.84148 -286.772631 
L 324.390589 -283.202465 
L 326.939698 -288.255791 
L 329.488808 -282.464782 
L 332.037917 -287.140964 
L 334.587026 -275.728757 
L 337.136135 -286.009187 
L 339.685244 -286.456163 
L 342.234354 -276.150616 
L 344.783463 -285.776051 
L 347.332572 -288.109575 
L 349.881681 -287.433391 
L 352.43079 -281.376662 
L 354.979899 -284.470865 
L 357.529009 -294.187408 
L 360.078118 -283.248197 
L 362.627227 -280.757798 
L 365.176336 -283.91309 
L 367.725445 -292.621165 
L 370.274555 -280.481478 
L 372.823664 -274.910675 
L 375.372773 -289.112334 
L 377.921882 -278.407724 
L 380.470991 -276.016142 
L 383.020101 -295.420021 
L 385.56921 -285.731795 
L 388.118319 -279.478642 
L 390.667428 -289.250154 
L 393.216537 -284.95352 
L 395.765646 -291.704087 
L 398.314756 -287.923833 
L 400.863865 -284.768865 
L 403.412974 -281.058657 
L 405.962083 -288.733894 
L 408.511192 -285.756782 
L 411.060302 -275.898985 
L 413.609411 -300.085166 
L 416.15852 -280.639312 
L 418.707629 -288.436915 
L 421.256738 -276.703974 
L 423.805847 -287.827369 
L 426.354957 -278.81403 
L 428.904066 -283.774331 
L 431.453175 -289.889648 
L 434.002284 -275.452473 
L 436.551393 -288.557416 
L 439.100503 -275.393388 
L 441.649612 -281.501294 
L 444.198721 -294.738657 
L 446.74783 -283.191424 
L 449.296939 -284.925038 
L 451.846048 -289.24556 
L 454.395158 -275.015845 
L 456.944267 -288.766097 
L 459.493376 -283.825158 
L 462.042485 -273.412254 
L 464.591594 -285.310994 
L 467.140704 -279.176493 
L 469.689813 -290.708332 
L 472.238922 -277.028632 
L 474.788031 -275.226178 
L 477.33714 -271.435156 
L 479.886249 -280.262876 
L 482.435359 -291.73494 
L 484.984468 -280.43798 
L 487.533577 -277.691063 
L 490.082686 -288.73534 
L 492.631795 -282.08621 
L 495.180905 -280.047003 
L 497.730014 -278.0044 
L 500.279123 -289.171426 
L 502.828232 -278.462192 
L 505.377341 -277.890112 
L 507.92645 -298.123269 
L 510.47556 -286.147314 
L 513.024669 -286.254578 
L 515.573778 -285.295009 
L 518.122887 -293.780165 
L 520.671996 -279.734685 
L 523.221106 -287.722294 
L 525.770215 -283.283305 
L 528.319324 -284.14082 
L 530.868433 -276.228464 
L 533.417542 -286.114751 
L 535.966651 -283.28355 
L 538.515761 -290.104214 
L 541.06487 -284.470675 
L 543.613979 -282.370117 
L 546.163088 -285.819498 
L 548.712197 -286.865357 
L 551.261307 -275.307172 
L 553.810416 -285.499844 
L 556.359525 -282.783459 
L 558.908634 -276.849291 
L 561.457743 -277.310264 
L 564.006852 -271.369799 
L 566.555962 -273.595084 
L 569.105071 -293.714902 
L 571.65418 -279.184028 
L 574.203289 -287.519254 
L 576.752398 -289.153744 
L 579.301508 -277.063558 
L 581.850617 -289.938458 
L 584.399726 -287.281703 
L 586.948835 -284.764532 
L 589.497944 -278.90323 
L 592.047053 -282.924297 
L 594.596163 -292.792433 
L 597.145272 -281.626464 
L 599.694381 -281.991542 
L 602.24349 -277.06134 
L 604.792599 -286.925709 
L 607.341709 -285.082572 
L 609.890818 -288.329921 
L 612.439927 -282.617387 
L 614.989036 -285.943954 
L 617.538145 -286.464683 
L 620.087254 -283.279949 
L 622.636364 -284.076525 
L 622.636364 -316.272469 
L 622.636364 -316.272469 
L 620.087254 -330.482039 
L 617.538145 -335.224434 
L 614.989036 -334.742016 
L 612.439927 -337.103855 
L 609.890818 -360.283856 
L 607.341709 -324.3369 
L 604.792599 -329.607389 
L 602.24349 -344.511892 
L 599.694381 -353.448393 
L 597.145272 -328.663579 
L 594.596163 -340.574559 
L 592.047053 -343.111353 
L 589.497944 -346.290521 
L 586.948835 -339.678692 
L 584.399726 -323.301702 
L 581.850617 -331.407876 
L 579.301508 -330.227818 
L 576.752398 -328.551473 
L 574.203289 -336.370453 
L 571.65418 -343.17663 
L 569.105071 -337.369067 
L 566.555962 -341.255487 
L 564.006852 -335.753562 
L 561.457743 -321.447351 
L 558.908634 -334.683135 
L 556.359525 -352.080294 
L 553.810416 -326.8712 
L 551.261307 -339.562745 
L 548.712197 -319.962869 
L 546.163088 -355.217049 
L 543.613979 -342.127417 
L 541.06487 -356.451321 
L 538.515761 -323.939173 
L 535.966651 -325.590441 
L 533.417542 -350.062663 
L 530.868433 -343.954763 
L 528.319324 -331.458292 
L 525.770215 -352.577993 
L 523.221106 -336.659115 
L 520.671996 -320.900977 
L 518.122887 -353.947418 
L 515.573778 -328.243923 
L 513.024669 -345.667951 
L 510.47556 -344.778898 
L 507.92645 -360.017675 
L 505.377341 -327.909355 
L 502.828232 -339.067081 
L 500.279123 -336.617034 
L 497.730014 -336.918857 
L 495.180905 -337.348156 
L 492.631795 -333.6664 
L 490.082686 -331.893982 
L 487.533577 -358.590318 
L 484.984468 -335.332104 
L 482.435359 -335.607098 
L 479.886249 -349.748586 
L 477.33714 -341.302584 
L 474.788031 -357.355676 
L 472.238922 -325.846702 
L 469.689813 -343.912776 
L 467.140704 -335.847698 
L 464.591594 -347.825851 
L 462.042485 -355.681053 
L 459.493376 -330.183305 
L 456.944267 -336.856397 
L 454.395158 -327.974651 
L 451.846048 -335.056424 
L 449.296939 -346.367996 
L 446.74783 -347.453112 
L 444.198721 -323.317717 
L 441.649612 -338.397223 
L 439.100503 -330.91852 
L 436.551393 -359.674716 
L 434.002284 -331.355915 
L 431.453175 -365.04 
L 428.904066 -345.390394 
L 426.354957 -342.314008 
L 423.805847 -336.245388 
L 421.256738 -344.298636 
L 418.707629 -341.743383 
L 416.15852 -331.684392 
L 413.609411 -350.649887 
L 411.060302 -333.176893 
L 408.511192 -347.812197 
L 405.962083 -329.977233 
L 403.412974 -335.310977 
L 400.863865 -342.128778 
L 398.314756 -344.309468 
L 395.765646 -329.987603 
L 393.216537 -336.994018 
L 390.667428 -364.156414 
L 388.118319 -332.974638 
L 385.56921 -338.727853 
L 383.020101 -344.438626 
L 380.470991 -332.627349 
L 377.921882 -333.497963 
L 375.372773 -328.890247 
L 372.823664 -315.767396 
L 370.274555 -356.178641 
L 367.725445 -340.16823 
L 365.176336 -353.838347 
L 362.627227 -347.516052 
L 360.078118 -334.557156 
L 357.529009 -338.312617 
L 354.979899 -334.434166 
L 352.43079 -347.602389 
L 349.881681 -347.854823 
L 347.332572 -343.962345 
L 344.783463 -354.88494 
L 342.234354 -350.048115 
L 339.685244 -323.43485 
L 337.136135 -332.95513 
L 334.587026 -326.11194 
L 332.037917 -337.079421 
L 329.488808 -338.959058 
L 326.939698 -324.349349 
L 324.390589 -349.436129 
L 321.84148 -328.171575 
L 319.292371 -343.303405 
L 316.743262 -357.584773 
L 314.194153 -339.158882 
L 311.645043 -345.971508 
L 309.095934 -333.616948 
L 306.546825 -335.742083 
L 303.997716 -333.825966 
L 301.448607 -352.915792 
L 298.899497 -338.739691 
L 296.350388 -351.663106 
L 293.801279 -336.584043 
L 291.25217 -321.604059 
L 288.703061 -326.096658 
L 286.153952 -329.298745 
L 283.604842 -331.421345 
L 281.055733 -325.580405 
L 278.506624 -331.38102 
L 275.957515 -328.12207 
L 273.408406 -328.679313 
L 270.859296 -344.746844 
L 268.310187 -336.421504 
L 265.761078 -346.077706 
L 263.211969 -347.587682 
L 260.66286 -345.307863 
L 258.113751 -338.373538 
L 255.564641 -349.809069 
L 253.015532 -349.465521 
L 250.466423 -338.040238 
L 247.917314 -330.788328 
L 245.368205 -330.16123 
L 242.819095 -330.165979 
L 240.269986 -336.04732 
L 237.720877 -325.13113 
L 235.171768 -362.460769 
L 232.622659 -363.507899 
L 230.07355 -340.449182 
L 227.52444 -337.7899 
L 224.975331 -337.84954 
L 222.426222 -329.064097 
L 219.877113 -334.026583 
L 217.328004 -344.00866 
L 214.778894 -345.970872 
L 212.229785 -351.181005 
L 209.680676 -339.394575 
L 207.131567 -339.421788 
L 204.582458 -337.885703 
L 202.033349 -340.108046 
L 199.484239 -328.108532 
L 196.93513 -343.763768 
L 194.386021 -325.71186 
L 191.836912 -328.4432 
L 189.287803 -340.908965 
L 186.738693 -345.078899 
L 184.189584 -338.120314 
L 181.640475 -335.124183 
L 179.091366 -315.887135 
L 176.542257 -324.566912 
L 173.993148 -323.395776 
L 171.444038 -330.381608 
L 168.894929 -341.057924 
L 166.34582 -324.285789 
L 163.796711 -324.5733 
L 161.247602 -311.612078 
L 158.698492 -314.070939 
L 156.149383 -347.074728 
L 153.600274 -322.85847 
L 151.051165 -332.344094 
L 148.502056 -327.248749 
L 145.952947 -313.281687 
L 143.403837 -327.507275 
L 140.854728 -315.651858 
L 138.305619 -330.655421 
L 135.75651 -330.280982 
L 133.207401 -323.735205 
L 130.658291 -327.320561 
L 128.109182 -310.420241 
L 125.560073 -308.60199 
L 123.010964 -298.862768 
L 120.461855 -307.380034 
L 117.912746 -291.157427 
L 115.363636 -243.30991 
z
" style="stroke: #ff0000; stroke-opacity: 0.2"/>
    </defs>
    <g clip-path="url(#padb5961191)">
     <use xlink:href="#m83eaae16b4" x="0" y="432" style="fill: #ff0000; fill-opacity: 0.2; stroke: #ff0000; stroke-opacity: 0.2"/>
    </g>
   </g>
   <g id="matplotlib.axis_1">
    <g id="xtick_1">
     <g id="line2d_1">
      <path d="M 112.814527 384.48 
L 112.814527 51.84 
" clip-path="url(#padb5961191)" style="fill: none; stroke: #b0b0b0; stroke-width: 0.8; stroke-linecap: square"/>
     </g>
     <g id="line2d_2">
      <defs>
       <path id="m581572b56a" d="M 0 0 
L 0 3.5 
" style="stroke: #000000; stroke-width: 0.8"/>
      </defs>
      <g>
       <use xlink:href="#m581572b56a" x="112.814527" y="384.48" style="stroke: #000000; stroke-width: 0.8"/>
      </g>
     </g>
     <g id="text_1">
      <!-- 0 -->
      <g transform="translate(109.633277 399.078438) scale(0.1 -0.1)">
       <defs>
        <path id="DejaVuSans-30" d="M 2034 4250 
Q 1547 4250 1301 3770 
Q 1056 3291 1056 2328 
Q 1056 1369 1301 889 
Q 1547 409 2034 409 
Q 2525 409 2770 889 
Q 3016 1369 3016 2328 
Q 3016 3291 2770 3770 
Q 2525 4250 2034 4250 
z
M 2034 4750 
Q 2819 4750 3233 4129 
Q 3647 3509 3647 2328 
Q 3647 1150 3233 529 
Q 2819 -91 2034 -91 
Q 1250 -91 836 529 
Q 422 1150 422 2328 
Q 422 3509 836 4129 
Q 1250 4750 2034 4750 
z
" transform="scale(0.015625)"/>
       </defs>
       <use xlink:href="#DejaVuSans-30"/>
      </g>
     </g>
    </g>
    <g id="xtick_2">
     <g id="line2d_3">
      <path d="M 176.542257 384.48 
L 176.542257 51.84 
" clip-path="url(#padb5961191)" style="fill: none; stroke: #b0b0b0; stroke-width: 0.8; stroke-linecap: square"/>
     </g>
     <g id="line2d_4">
      <g>
       <use xlink:href="#m581572b56a" x="176.542257" y="384.48" style="stroke: #000000; stroke-width: 0.8"/>
      </g>
     </g>
     <g id="text_2">
      <!-- 25 -->
      <g transform="translate(170.179757 399.078438) scale(0.1 -0.1)">
       <defs>
        <path id="DejaVuSans-32" d="M 1228 531 
L 3431 531 
L 3431 0 
L 469 0 
L 469 531 
Q 828 903 1448 1529 
Q 2069 2156 2228 2338 
Q 2531 2678 2651 2914 
Q 2772 3150 2772 3378 
Q 2772 3750 2511 3984 
Q 2250 4219 1831 4219 
Q 1534 4219 1204 4116 
Q 875 4013 500 3803 
L 500 4441 
Q 881 4594 1212 4672 
Q 1544 4750 1819 4750 
Q 2544 4750 2975 4387 
Q 3406 4025 3406 3419 
Q 3406 3131 3298 2873 
Q 3191 2616 2906 2266 
Q 2828 2175 2409 1742 
Q 1991 1309 1228 531 
z
" transform="scale(0.015625)"/>
        <path id="DejaVuSans-35" d="M 691 4666 
L 3169 4666 
L 3169 4134 
L 1269 4134 
L 1269 2991 
Q 1406 3038 1543 3061 
Q 1681 3084 1819 3084 
Q 2600 3084 3056 2656 
Q 3513 2228 3513 1497 
Q 3513 744 3044 326 
Q 2575 -91 1722 -91 
Q 1428 -91 1123 -41 
Q 819 9 494 109 
L 494 744 
Q 775 591 1075 516 
Q 1375 441 1709 441 
Q 2250 441 2565 725 
Q 2881 1009 2881 1497 
Q 2881 1984 2565 2268 
Q 2250 2553 1709 2553 
Q 1456 2553 1204 2497 
Q 953 2441 691 2322 
L 691 4666 
z
" transform="scale(0.015625)"/>
       </defs>
       <use xlink:href="#DejaVuSans-32"/>
       <use xlink:href="#DejaVuSans-35" transform="translate(63.623047 0)"/>
      </g>
     </g>
    </g>
    <g id="xtick_3">
     <g id="line2d_5">
      <path d="M 240.269986 384.48 
L 240.269986 51.84 
" clip-path="url(#padb5961191)" style="fill: none; stroke: #b0b0b0; stroke-width: 0.8; stroke-linecap: square"/>
     </g>
     <g id="line2d_6">
      <g>
       <use xlink:href="#m581572b56a" x="240.269986" y="384.48" style="stroke: #000000; stroke-width: 0.8"/>
      </g>
     </g>
     <g id="text_3">
      <!-- 50 -->
      <g transform="translate(233.907486 399.078438) scale(0.1 -0.1)">
       <use xlink:href="#DejaVuSans-35"/>
       <use xlink:href="#DejaVuSans-30" transform="translate(63.623047 0)"/>
      </g>
     </g>
    </g>
    <g id="xtick_4">
     <g id="line2d_7">
      <path d="M 303.997716 384.48 
L 303.997716 51.84 
" clip-path="url(#padb5961191)" style="fill: none; stroke: #b0b0b0; stroke-width: 0.8; stroke-linecap: square"/>
     </g>
     <g id="line2d_8">
      <g>
       <use xlink:href="#m581572b56a" x="303.997716" y="384.48" style="stroke: #000000; stroke-width: 0.8"/>
      </g>
     </g>
     <g id="text_4">
      <!-- 75 -->
      <g transform="translate(297.635216 399.078438) scale(0.1 -0.1)">
       <defs>
        <path id="DejaVuSans-37" d="M 525 4666 
L 3525 4666 
L 3525 4397 
L 1831 0 
L 1172 0 
L 2766 4134 
L 525 4134 
L 525 4666 
z
" transform="scale(0.015625)"/>
       </defs>
       <use xlink:href="#DejaVuSans-37"/>
       <use xlink:href="#DejaVuSans-35" transform="translate(63.623047 0)"/>
      </g>
     </g>
    </g>
    <g id="xtick_5">
     <g id="line2d_9">
      <path d="M 367.725445 384.48 
L 367.725445 51.84 
" clip-path="url(#padb5961191)" style="fill: none; stroke: #b0b0b0; stroke-width: 0.8; stroke-linecap: square"/>
     </g>
     <g id="line2d_10">
      <g>
       <use xlink:href="#m581572b56a" x="367.725445" y="384.48" style="stroke: #000000; stroke-width: 0.8"/>
      </g>
     </g>
     <g id="text_5">
      <!-- 100 -->
      <g transform="translate(358.181695 399.078438) scale(0.1 -0.1)">
       <defs>
        <path id="DejaVuSans-31" d="M 794 531 
L 1825 531 
L 1825 4091 
L 703 3866 
L 703 4441 
L 1819 4666 
L 2450 4666 
L 2450 531 
L 3481 531 
L 3481 0 
L 794 0 
L 794 531 
z
" transform="scale(0.015625)"/>
       </defs>
       <use xlink:href="#DejaVuSans-31"/>
       <use xlink:href="#DejaVuSans-30" transform="translate(63.623047 0)"/>
       <use xlink:href="#DejaVuSans-30" transform="translate(127.246094 0)"/>
      </g>
     </g>
    </g>
    <g id="xtick_6">
     <g id="line2d_11">
      <path d="M 431.453175 384.48 
L 431.453175 51.84 
" clip-path="url(#padb5961191)" style="fill: none; stroke: #b0b0b0; stroke-width: 0.8; stroke-linecap: square"/>
     </g>
     <g id="line2d_12">
      <g>
       <use xlink:href="#m581572b56a" x="431.453175" y="384.48" style="stroke: #000000; stroke-width: 0.8"/>
      </g>
     </g>
     <g id="text_6">
      <!-- 125 -->
      <g transform="translate(421.909425 399.078438) scale(0.1 -0.1)">
       <use xlink:href="#DejaVuSans-31"/>
       <use xlink:href="#DejaVuSans-32" transform="translate(63.623047 0)"/>
       <use xlink:href="#DejaVuSans-35" transform="translate(127.246094 0)"/>
      </g>
     </g>
    </g>
    <g id="xtick_7">
     <g id="line2d_13">
      <path d="M 495.180905 384.48 
L 495.180905 51.84 
" clip-path="url(#padb5961191)" style="fill: none; stroke: #b0b0b0; stroke-width: 0.8; stroke-linecap: square"/>
     </g>
     <g id="line2d_14">
      <g>
       <use xlink:href="#m581572b56a" x="495.180905" y="384.48" style="stroke: #000000; stroke-width: 0.8"/>
      </g>
     </g>
     <g id="text_7">
      <!-- 150 -->
      <g transform="translate(485.637155 399.078438) scale(0.1 -0.1)">
       <use xlink:href="#DejaVuSans-31"/>
       <use xlink:href="#DejaVuSans-35" transform="translate(63.623047 0)"/>
       <use xlink:href="#DejaVuSans-30" transform="translate(127.246094 0)"/>
      </g>
     </g>
    </g>
    <g id="xtick_8">
     <g id="line2d_15">
      <path d="M 558.908634 384.48 
L 558.908634 51.84 
" clip-path="url(#padb5961191)" style="fill: none; stroke: #b0b0b0; stroke-width: 0.8; stroke-linecap: square"/>
     </g>
     <g id="line2d_16">
      <g>
       <use xlink:href="#m581572b56a" x="558.908634" y="384.48" style="stroke: #000000; stroke-width: 0.8"/>
      </g>
     </g>
     <g id="text_8">
      <!-- 175 -->
      <g transform="translate(549.364884 399.078438) scale(0.1 -0.1)">
       <use xlink:href="#DejaVuSans-31"/>
       <use xlink:href="#DejaVuSans-37" transform="translate(63.623047 0)"/>
       <use xlink:href="#DejaVuSans-35" transform="translate(127.246094 0)"/>
      </g>
     </g>
    </g>
    <g id="xtick_9">
     <g id="line2d_17">
      <path d="M 622.636364 384.48 
L 622.636364 51.84 
" clip-path="url(#padb5961191)" style="fill: none; stroke: #b0b0b0; stroke-width: 0.8; stroke-linecap: square"/>
     </g>
     <g id="line2d_18">
      <g>
       <use xlink:href="#m581572b56a" x="622.636364" y="384.48" style="stroke: #000000; stroke-width: 0.8"/>
      </g>
     </g>
     <g id="text_9">
      <!-- 200 -->
      <g transform="translate(613.092614 399.078438) scale(0.1 -0.1)">
       <use xlink:href="#DejaVuSans-32"/>
       <use xlink:href="#DejaVuSans-30" transform="translate(63.623047 0)"/>
       <use xlink:href="#DejaVuSans-30" transform="translate(127.246094 0)"/>
      </g>
     </g>
    </g>
    <g id="text_10">
     <!-- Generacje -->
     <g transform="translate(343.469531 412.756563) scale(0.1 -0.1)">
      <defs>
       <path id="DejaVuSans-47" d="M 3809 666 
L 3809 1919 
L 2778 1919 
L 2778 2438 
L 4434 2438 
L 4434 434 
Q 4069 175 3628 42 
Q 3188 -91 2688 -91 
Q 1594 -91 976 548 
Q 359 1188 359 2328 
Q 359 3472 976 4111 
Q 1594 4750 2688 4750 
Q 3144 4750 3555 4637 
Q 3966 4525 4313 4306 
L 4313 3634 
Q 3963 3931 3569 4081 
Q 3175 4231 2741 4231 
Q 1884 4231 1454 3753 
Q 1025 3275 1025 2328 
Q 1025 1384 1454 906 
Q 1884 428 2741 428 
Q 3075 428 3337 486 
Q 3600 544 3809 666 
z
" transform="scale(0.015625)"/>
       <path id="DejaVuSans-65" d="M 3597 1894 
L 3597 1613 
L 953 1613 
Q 991 1019 1311 708 
Q 1631 397 2203 397 
Q 2534 397 2845 478 
Q 3156 559 3463 722 
L 3463 178 
Q 3153 47 2828 -22 
Q 2503 -91 2169 -91 
Q 1331 -91 842 396 
Q 353 884 353 1716 
Q 353 2575 817 3079 
Q 1281 3584 2069 3584 
Q 2775 3584 3186 3129 
Q 3597 2675 3597 1894 
z
M 3022 2063 
Q 3016 2534 2758 2815 
Q 2500 3097 2075 3097 
Q 1594 3097 1305 2825 
Q 1016 2553 972 2059 
L 3022 2063 
z
" transform="scale(0.015625)"/>
       <path id="DejaVuSans-6e" d="M 3513 2113 
L 3513 0 
L 2938 0 
L 2938 2094 
Q 2938 2591 2744 2837 
Q 2550 3084 2163 3084 
Q 1697 3084 1428 2787 
Q 1159 2491 1159 1978 
L 1159 0 
L 581 0 
L 581 3500 
L 1159 3500 
L 1159 2956 
Q 1366 3272 1645 3428 
Q 1925 3584 2291 3584 
Q 2894 3584 3203 3211 
Q 3513 2838 3513 2113 
z
" transform="scale(0.015625)"/>
       <path id="DejaVuSans-72" d="M 2631 2963 
Q 2534 3019 2420 3045 
Q 2306 3072 2169 3072 
Q 1681 3072 1420 2755 
Q 1159 2438 1159 1844 
L 1159 0 
L 581 0 
L 581 3500 
L 1159 3500 
L 1159 2956 
Q 1341 3275 1631 3429 
Q 1922 3584 2338 3584 
Q 2397 3584 2469 3576 
Q 2541 3569 2628 3553 
L 2631 2963 
z
" transform="scale(0.015625)"/>
       <path id="DejaVuSans-61" d="M 2194 1759 
Q 1497 1759 1228 1600 
Q 959 1441 959 1056 
Q 959 750 1161 570 
Q 1363 391 1709 391 
Q 2188 391 2477 730 
Q 2766 1069 2766 1631 
L 2766 1759 
L 2194 1759 
z
M 3341 1997 
L 3341 0 
L 2766 0 
L 2766 531 
Q 2569 213 2275 61 
Q 1981 -91 1556 -91 
Q 1019 -91 701 211 
Q 384 513 384 1019 
Q 384 1609 779 1909 
Q 1175 2209 1959 2209 
L 2766 2209 
L 2766 2266 
Q 2766 2663 2505 2880 
Q 2244 3097 1772 3097 
Q 1472 3097 1187 3025 
Q 903 2953 641 2809 
L 641 3341 
Q 956 3463 1253 3523 
Q 1550 3584 1831 3584 
Q 2591 3584 2966 3190 
Q 3341 2797 3341 1997 
z
" transform="scale(0.015625)"/>
       <path id="DejaVuSans-63" d="M 3122 3366 
L 3122 2828 
Q 2878 2963 2633 3030 
Q 2388 3097 2138 3097 
Q 1578 3097 1268 2742 
Q 959 2388 959 1747 
Q 959 1106 1268 751 
Q 1578 397 2138 397 
Q 2388 397 2633 464 
Q 2878 531 3122 666 
L 3122 134 
Q 2881 22 2623 -34 
Q 2366 -91 2075 -91 
Q 1284 -91 818 406 
Q 353 903 353 1747 
Q 353 2603 823 3093 
Q 1294 3584 2113 3584 
Q 2378 3584 2631 3529 
Q 2884 3475 3122 3366 
z
" transform="scale(0.015625)"/>
       <path id="DejaVuSans-6a" d="M 603 3500 
L 1178 3500 
L 1178 -63 
Q 1178 -731 923 -1031 
Q 669 -1331 103 -1331 
L -116 -1331 
L -116 -844 
L 38 -844 
Q 366 -844 484 -692 
Q 603 -541 603 -63 
L 603 3500 
z
M 603 4863 
L 1178 4863 
L 1178 4134 
L 603 4134 
L 603 4863 
z
" transform="scale(0.015625)"/>
      </defs>
      <use xlink:href="#DejaVuSans-47"/>
      <use xlink:href="#DejaVuSans-65" transform="translate(77.490234 0)"/>
      <use xlink:href="#DejaVuSans-6e" transform="translate(139.013672 0)"/>
      <use xlink:href="#DejaVuSans-65" transform="translate(202.392578 0)"/>
      <use xlink:href="#DejaVuSans-72" transform="translate(263.916016 0)"/>
      <use xlink:href="#DejaVuSans-61" transform="translate(305.029297 0)"/>
      <use xlink:href="#DejaVuSans-63" transform="translate(366.308594 0)"/>
      <use xlink:href="#DejaVuSans-6a" transform="translate(421.289062 0)"/>
      <use xlink:href="#DejaVuSans-65" transform="translate(449.072266 0)"/>
     </g>
    </g>
   </g>
   <g id="matplotlib.axis_2">
    <g id="ytick_1">
     <g id="line2d_19">
      <path d="M 90 360.129216 
L 648 360.129216 
" clip-path="url(#padb5961191)" style="fill: none; stroke: #b0b0b0; stroke-width: 0.8; stroke-linecap: square"/>
     </g>
     <g id="line2d_20">
      <defs>
       <path id="m02de2fa108" d="M 0 0 
L -3.5 0 
" style="stroke: #000000; stroke-width: 0.8"/>
      </defs>
      <g>
       <use xlink:href="#m02de2fa108" x="90" y="360.129216" style="stroke: #000000; stroke-width: 0.8"/>
      </g>
     </g>
     <g id="text_11">
      <!-- 40 -->
      <g transform="translate(70.275 363.928435) scale(0.1 -0.1)">
       <defs>
        <path id="DejaVuSans-34" d="M 2419 4116 
L 825 1625 
L 2419 1625 
L 2419 4116 
z
M 2253 4666 
L 3047 4666 
L 3047 1625 
L 3713 1625 
L 3713 1100 
L 3047 1100 
L 3047 0 
L 2419 0 
L 2419 1100 
L 313 1100 
L 313 1709 
L 2253 4666 
z
" transform="scale(0.015625)"/>
       </defs>
       <use xlink:href="#DejaVuSans-34"/>
       <use xlink:href="#DejaVuSans-30" transform="translate(63.623047 0)"/>
      </g>
     </g>
    </g>
    <g id="ytick_2">
     <g id="line2d_21">
      <path d="M 90 308.039058 
L 648 308.039058 
" clip-path="url(#padb5961191)" style="fill: none; stroke: #b0b0b0; stroke-width: 0.8; stroke-linecap: square"/>
     </g>
     <g id="line2d_22">
      <g>
       <use xlink:href="#m02de2fa108" x="90" y="308.039058" style="stroke: #000000; stroke-width: 0.8"/>
      </g>
     </g>
     <g id="text_12">
      <!-- 60 -->
      <g transform="translate(70.275 311.838276) scale(0.1 -0.1)">
       <defs>
        <path id="DejaVuSans-36" d="M 2113 2584 
Q 1688 2584 1439 2293 
Q 1191 2003 1191 1497 
Q 1191 994 1439 701 
Q 1688 409 2113 409 
Q 2538 409 2786 701 
Q 3034 994 3034 1497 
Q 3034 2003 2786 2293 
Q 2538 2584 2113 2584 
z
M 3366 4563 
L 3366 3988 
Q 3128 4100 2886 4159 
Q 2644 4219 2406 4219 
Q 1781 4219 1451 3797 
Q 1122 3375 1075 2522 
Q 1259 2794 1537 2939 
Q 1816 3084 2150 3084 
Q 2853 3084 3261 2657 
Q 3669 2231 3669 1497 
Q 3669 778 3244 343 
Q 2819 -91 2113 -91 
Q 1303 -91 875 529 
Q 447 1150 447 2328 
Q 447 3434 972 4092 
Q 1497 4750 2381 4750 
Q 2619 4750 2861 4703 
Q 3103 4656 3366 4563 
z
" transform="scale(0.015625)"/>
       </defs>
       <use xlink:href="#DejaVuSans-36"/>
       <use xlink:href="#DejaVuSans-30" transform="translate(63.623047 0)"/>
      </g>
     </g>
    </g>
    <g id="ytick_3">
     <g id="line2d_23">
      <path d="M 90 255.948899 
L 648 255.948899 
" clip-path="url(#padb5961191)" style="fill: none; stroke: #b0b0b0; stroke-width: 0.8; stroke-linecap: square"/>
     </g>
     <g id="line2d_24">
      <g>
       <use xlink:href="#m02de2fa108" x="90" y="255.948899" style="stroke: #000000; stroke-width: 0.8"/>
      </g>
     </g>
     <g id="text_13">
      <!-- 80 -->
      <g transform="translate(70.275 259.748117) scale(0.1 -0.1)">
       <defs>
        <path id="DejaVuSans-38" d="M 2034 2216 
Q 1584 2216 1326 1975 
Q 1069 1734 1069 1313 
Q 1069 891 1326 650 
Q 1584 409 2034 409 
Q 2484 409 2743 651 
Q 3003 894 3003 1313 
Q 3003 1734 2745 1975 
Q 2488 2216 2034 2216 
z
M 1403 2484 
Q 997 2584 770 2862 
Q 544 3141 544 3541 
Q 544 4100 942 4425 
Q 1341 4750 2034 4750 
Q 2731 4750 3128 4425 
Q 3525 4100 3525 3541 
Q 3525 3141 3298 2862 
Q 3072 2584 2669 2484 
Q 3125 2378 3379 2068 
Q 3634 1759 3634 1313 
Q 3634 634 3220 271 
Q 2806 -91 2034 -91 
Q 1263 -91 848 271 
Q 434 634 434 1313 
Q 434 1759 690 2068 
Q 947 2378 1403 2484 
z
M 1172 3481 
Q 1172 3119 1398 2916 
Q 1625 2713 2034 2713 
Q 2441 2713 2670 2916 
Q 2900 3119 2900 3481 
Q 2900 3844 2670 4047 
Q 2441 4250 2034 4250 
Q 1625 4250 1398 4047 
Q 1172 3844 1172 3481 
z
" transform="scale(0.015625)"/>
       </defs>
       <use xlink:href="#DejaVuSans-38"/>
       <use xlink:href="#DejaVuSans-30" transform="translate(63.623047 0)"/>
      </g>
     </g>
    </g>
    <g id="ytick_4">
     <g id="line2d_25">
      <path d="M 90 203.85874 
L 648 203.85874 
" clip-path="url(#padb5961191)" style="fill: none; stroke: #b0b0b0; stroke-width: 0.8; stroke-linecap: square"/>
     </g>
     <g id="line2d_26">
      <g>
       <use xlink:href="#m02de2fa108" x="90" y="203.85874" style="stroke: #000000; stroke-width: 0.8"/>
      </g>
     </g>
     <g id="text_14">
      <!-- 100 -->
      <g transform="translate(63.9125 207.657958) scale(0.1 -0.1)">
       <use xlink:href="#DejaVuSans-31"/>
       <use xlink:href="#DejaVuSans-30" transform="translate(63.623047 0)"/>
       <use xlink:href="#DejaVuSans-30" transform="translate(127.246094 0)"/>
      </g>
     </g>
    </g>
    <g id="ytick_5">
     <g id="line2d_27">
      <path d="M 90 151.768581 
L 648 151.768581 
" clip-path="url(#padb5961191)" style="fill: none; stroke: #b0b0b0; stroke-width: 0.8; stroke-linecap: square"/>
     </g>
     <g id="line2d_28">
      <g>
       <use xlink:href="#m02de2fa108" x="90" y="151.768581" style="stroke: #000000; stroke-width: 0.8"/>
      </g>
     </g>
     <g id="text_15">
      <!-- 120 -->
      <g transform="translate(63.9125 155.5678) scale(0.1 -0.1)">
       <use xlink:href="#DejaVuSans-31"/>
       <use xlink:href="#DejaVuSans-32" transform="translate(63.623047 0)"/>
       <use xlink:href="#DejaVuSans-30" transform="translate(127.246094 0)"/>
      </g>
     </g>
    </g>
    <g id="ytick_6">
     <g id="line2d_29">
      <path d="M 90 99.678422 
L 648 99.678422 
" clip-path="url(#padb5961191)" style="fill: none; stroke: #b0b0b0; stroke-width: 0.8; stroke-linecap: square"/>
     </g>
     <g id="line2d_30">
      <g>
       <use xlink:href="#m02de2fa108" x="90" y="99.678422" style="stroke: #000000; stroke-width: 0.8"/>
      </g>
     </g>
     <g id="text_16">
      <!-- 140 -->
      <g transform="translate(63.9125 103.477641) scale(0.1 -0.1)">
       <use xlink:href="#DejaVuSans-31"/>
       <use xlink:href="#DejaVuSans-34" transform="translate(63.623047 0)"/>
       <use xlink:href="#DejaVuSans-30" transform="translate(127.246094 0)"/>
      </g>
     </g>
    </g>
    <g id="text_17">
     <!-- Fitness -->
     <g transform="translate(57.832812 235.477187) rotate(-90) scale(0.1 -0.1)">
      <defs>
       <path id="DejaVuSans-46" d="M 628 4666 
L 3309 4666 
L 3309 4134 
L 1259 4134 
L 1259 2759 
L 3109 2759 
L 3109 2228 
L 1259 2228 
L 1259 0 
L 628 0 
L 628 4666 
z
" transform="scale(0.015625)"/>
       <path id="DejaVuSans-69" d="M 603 3500 
L 1178 3500 
L 1178 0 
L 603 0 
L 603 3500 
z
M 603 4863 
L 1178 4863 
L 1178 4134 
L 603 4134 
L 603 4863 
z
" transform="scale(0.015625)"/>
       <path id="DejaVuSans-74" d="M 1172 4494 
L 1172 3500 
L 2356 3500 
L 2356 3053 
L 1172 3053 
L 1172 1153 
Q 1172 725 1289 603 
Q 1406 481 1766 481 
L 2356 481 
L 2356 0 
L 1766 0 
Q 1100 0 847 248 
Q 594 497 594 1153 
L 594 3053 
L 172 3053 
L 172 3500 
L 594 3500 
L 594 4494 
L 1172 4494 
z
" transform="scale(0.015625)"/>
       <path id="DejaVuSans-73" d="M 2834 3397 
L 2834 2853 
Q 2591 2978 2328 3040 
Q 2066 3103 1784 3103 
Q 1356 3103 1142 2972 
Q 928 2841 928 2578 
Q 928 2378 1081 2264 
Q 1234 2150 1697 2047 
L 1894 2003 
Q 2506 1872 2764 1633 
Q 3022 1394 3022 966 
Q 3022 478 2636 193 
Q 2250 -91 1575 -91 
Q 1294 -91 989 -36 
Q 684 19 347 128 
L 347 722 
Q 666 556 975 473 
Q 1284 391 1588 391 
Q 1994 391 2212 530 
Q 2431 669 2431 922 
Q 2431 1156 2273 1281 
Q 2116 1406 1581 1522 
L 1381 1569 
Q 847 1681 609 1914 
Q 372 2147 372 2553 
Q 372 3047 722 3315 
Q 1072 3584 1716 3584 
Q 2034 3584 2315 3537 
Q 2597 3491 2834 3397 
z
" transform="scale(0.015625)"/>
      </defs>
      <use xlink:href="#DejaVuSans-46"/>
      <use xlink:href="#DejaVuSans-69" transform="translate(50.269531 0)"/>
      <use xlink:href="#DejaVuSans-74" transform="translate(78.052734 0)"/>
      <use xlink:href="#DejaVuSans-6e" transform="translate(117.261719 0)"/>
      <use xlink:href="#DejaVuSans-65" transform="translate(180.640625 0)"/>
      <use xlink:href="#DejaVuSans-73" transform="translate(242.164062 0)"/>
      <use xlink:href="#DejaVuSans-73" transform="translate(294.263672 0)"/>
     </g>
    </g>
   </g>
   <g id="line2d_31">
    <path d="M 115.363636 210.653135 
L 117.912746 169.339993 
L 120.461855 150.490043 
L 123.010964 153.628215 
L 125.560073 149.434971 
L 128.109182 140.304797 
L 130.658291 137.683592 
L 133.207401 131.005308 
L 135.75651 131.00365 
L 138.305619 128.478233 
L 140.854728 131.836858 
L 143.403837 130.950952 
L 145.952947 140.413846 
L 148.502056 129.148129 
L 151.051165 132.446113 
L 153.600274 133.998098 
L 156.149383 123.313043 
L 158.698492 139.431462 
L 161.247602 138.165385 
L 163.796711 129.705537 
L 166.34582 130.103301 
L 168.894929 116.532812 
L 171.444038 128.357489 
L 173.993148 130.883589 
L 176.542257 133.009927 
L 179.091366 136.218803 
L 181.640475 125.811089 
L 184.189584 122.413987 
L 186.738693 118.120386 
L 189.287803 116.793001 
L 191.836912 127.718255 
L 194.386021 131.370184 
L 196.93513 117.687226 
L 199.484239 128.596851 
L 202.033349 119.37296 
L 204.582458 120.402171 
L 207.131567 124.5589 
L 209.680676 120.928848 
L 212.229785 114.949933 
L 214.778894 120.870019 
L 217.328004 114.592884 
L 219.877113 124.715561 
L 222.426222 128.587639 
L 224.975331 123.524336 
L 227.52444 119.006526 
L 230.07355 122.646839 
L 232.622659 118.187288 
L 235.171768 115.115537 
L 237.720877 130.222417 
L 240.269986 121.856443 
L 242.819095 127.137257 
L 245.368205 124.568464 
L 247.917314 124.492201 
L 250.466423 122.557944 
L 253.015532 123.34363 
L 255.564641 114.526707 
L 258.113751 119.734124 
L 260.66286 121.411882 
L 263.211969 119.935011 
L 265.761078 121.567731 
L 268.310187 124.181075 
L 270.859296 123.221524 
L 273.408406 127.202137 
L 275.957515 123.026317 
L 278.506624 123.200379 
L 281.055733 124.739185 
L 283.604842 123.609704 
L 286.153952 127.452895 
L 288.703061 123.183447 
L 291.25217 127.289297 
L 293.801279 125.833942 
L 296.350388 116.733862 
L 298.899497 123.705168 
L 301.448607 110.720398 
L 303.997716 118.418176 
L 306.546825 124.440732 
L 309.095934 124.205118 
L 311.645043 116.03093 
L 314.194153 124.450935 
L 316.743262 107.871874 
L 319.292371 120.714115 
L 321.84148 124.527897 
L 324.390589 115.680703 
L 326.939698 125.69743 
L 329.488808 121.28808 
L 332.037917 119.889807 
L 334.587026 131.079651 
L 337.136135 122.517842 
L 339.685244 127.054494 
L 342.234354 118.900634 
L 344.783463 111.669505 
L 347.332572 115.96404 
L 349.881681 114.355893 
L 352.43079 117.510475 
L 354.979899 122.547485 
L 357.529009 115.749987 
L 360.078118 123.097324 
L 362.627227 117.863075 
L 365.176336 113.124282 
L 367.725445 115.605303 
L 370.274555 113.66994 
L 372.823664 136.660965 
L 375.372773 122.99871 
L 377.921882 126.047156 
L 380.470991 127.678254 
L 383.020101 112.070676 
L 385.56921 119.770176 
L 388.118319 125.77336 
L 390.667428 105.296716 
L 393.216537 121.026231 
L 395.765646 121.154155 
L 398.314756 115.883349 
L 400.863865 118.551178 
L 403.412974 123.815183 
L 405.962083 122.644436 
L 408.511192 115.21551 
L 411.060302 127.462061 
L 413.609411 106.632474 
L 416.15852 125.838148 
L 418.707629 116.909851 
L 421.256738 121.498695 
L 423.805847 119.963621 
L 426.354957 121.435981 
L 428.904066 117.417638 
L 431.453175 104.535176 
L 434.002284 128.595806 
L 436.551393 107.883934 
L 439.100503 128.844046 
L 441.649612 122.050742 
L 444.198721 122.971813 
L 446.74783 116.677732 
L 449.296939 116.353483 
L 451.846048 119.849008 
L 454.395158 130.504752 
L 456.944267 119.188753 
L 459.493376 124.995769 
L 462.042485 117.453346 
L 464.591594 115.431577 
L 467.140704 124.487905 
L 469.689813 114.689446 
L 472.238922 130.562333 
L 474.788031 115.709073 
L 477.33714 125.63113 
L 479.886249 116.994269 
L 482.435359 118.328981 
L 484.984468 124.114958 
L 487.533577 113.859309 
L 490.082686 121.685339 
L 492.631795 124.123695 
L 495.180905 123.302421 
L 497.730014 124.538372 
L 500.279123 119.10577 
L 502.828232 123.235363 
L 505.377341 129.100266 
L 507.92645 102.929528 
L 510.47556 116.536894 
L 513.024669 116.038736 
L 515.573778 125.230534 
L 518.122887 108.136209 
L 520.671996 131.682169 
L 523.221106 119.809295 
L 525.770215 114.069351 
L 528.319324 124.200444 
L 530.868433 121.908387 
L 533.417542 113.911293 
L 535.966651 127.563005 
L 538.515761 124.978307 
L 541.06487 111.539002 
L 543.613979 119.751233 
L 546.163088 111.481726 
L 548.712197 128.585887 
L 551.261307 124.565041 
L 553.810416 125.814478 
L 556.359525 114.568123 
L 558.908634 126.233787 
L 561.457743 132.621193 
L 564.006852 128.438319 
L 566.555962 124.574714 
L 569.105071 116.458015 
L 571.65418 120.819671 
L 574.203289 120.055147 
L 576.752398 123.147391 
L 579.301508 128.354312 
L 581.850617 121.326833 
L 584.399726 126.708297 
L 586.948835 119.778388 
L 592.047053 118.982175 
L 594.596163 115.316504 
L 597.145272 126.854978 
L 599.694381 114.280032 
L 602.24349 121.213384 
L 604.792599 123.733451 
L 607.341709 127.290264 
L 609.890818 107.693112 
L 612.439927 122.139379 
L 617.538145 121.155442 
L 620.087254 125.119006 
L 622.636364 131.825503 
L 622.636364 131.825503 
" clip-path="url(#padb5961191)" style="fill: none; stroke: #ff0000; stroke-width: 1.5; stroke-linecap: square"/>
   </g>
   <g id="line2d_32">
    <path d="M 115.363636 369.36 
L 117.912746 326.886653 
L 120.461855 292.175612 
L 123.010964 276.714665 
L 125.560073 270.462199 
L 128.109182 265.051041 
L 130.658291 261.976079 
L 133.207401 259.638892 
L 135.75651 259.080571 
L 138.305619 255.430139 
L 140.854728 254.013486 
L 143.403837 254.206786 
L 145.952947 252.616773 
L 148.502056 251.985129 
L 151.051165 250.846336 
L 153.600274 250.213843 
L 156.149383 250.002982 
L 158.698492 249.954382 
L 161.247602 249.214449 
L 163.796711 249.478712 
L 166.34582 248.203265 
L 168.894929 247.055612 
L 171.444038 248.293623 
L 173.993148 248.891937 
L 176.542257 246.835107 
L 179.091366 247.494037 
L 181.640475 247.228875 
L 184.189584 246.487456 
L 186.738693 245.868579 
L 191.836912 245.289634 
L 194.386021 245.828955 
L 196.93513 244.849032 
L 199.484239 245.663522 
L 202.033349 245.48532 
L 204.582458 244.942892 
L 207.131567 245.586515 
L 209.680676 244.949603 
L 212.229785 244.074739 
L 219.877113 244.857469 
L 222.426222 243.854693 
L 224.975331 244.439553 
L 227.52444 243.33336 
L 230.07355 244.374841 
L 232.622659 244.316139 
L 235.171768 243.914268 
L 237.720877 244.349675 
L 240.269986 243.804087 
L 242.819095 243.805198 
L 245.368205 242.760017 
L 247.917314 243.570543 
L 250.466423 242.984108 
L 253.015532 243.396481 
L 255.564641 243.180364 
L 258.113751 243.735895 
L 260.66286 243.296103 
L 263.211969 243.049734 
L 265.761078 242.247761 
L 268.310187 243.218498 
L 270.859296 242.770293 
L 273.408406 243.283276 
L 275.957515 242.09774 
L 278.506624 242.669621 
L 281.055733 242.805301 
L 283.604842 242.605399 
L 288.703061 242.927179 
L 291.25217 241.293336 
L 293.801279 241.662789 
L 296.350388 241.831769 
L 298.899497 242.419386 
L 301.448607 241.547349 
L 303.997716 242.464188 
L 306.546825 242.440184 
L 309.095934 242.89216 
L 311.645043 241.831239 
L 314.194153 242.104905 
L 316.743262 241.065948 
L 319.292371 241.956845 
L 321.84148 242.515985 
L 324.390589 242.668204 
L 326.939698 242.268387 
L 334.587026 242.623746 
L 337.136135 242.171671 
L 339.685244 242.459633 
L 342.234354 241.665361 
L 344.783463 241.562664 
L 347.332572 242.195274 
L 349.881681 242.506392 
L 352.43079 242.594515 
L 354.979899 242.159859 
L 357.529009 242.500019 
L 360.078118 242.50281 
L 367.725445 242.065347 
L 370.274555 241.352825 
L 372.823664 242.155033 
L 377.921882 241.94222 
L 380.470991 241.428509 
L 383.020101 241.916164 
L 385.56921 241.779155 
L 388.118319 242.009392 
L 390.667428 241.39953 
L 393.216537 241.894117 
L 395.765646 240.987335 
L 398.314756 241.849655 
L 400.863865 241.444322 
L 403.412974 241.756765 
L 405.962083 242.557698 
L 408.511192 241.968656 
L 411.060302 241.529666 
L 413.609411 240.922321 
L 416.15852 242.112672 
L 418.707629 241.722377 
L 421.256738 242.599596 
L 423.805847 241.978455 
L 426.354957 240.892517 
L 428.904066 241.221922 
L 431.453175 241.280551 
L 434.002284 242.68757 
L 436.551393 241.35767 
L 439.100503 242.389202 
L 441.649612 241.308786 
L 444.198721 241.071037 
L 446.74783 241.581752 
L 449.296939 241.04122 
L 454.395158 241.559946 
L 456.944267 241.054924 
L 459.493376 241.38277 
L 462.042485 241.387367 
L 464.591594 241.00104 
L 467.140704 242.175624 
L 469.689813 241.851026 
L 474.788031 240.825756 
L 477.33714 242.03906 
L 479.886249 240.279619 
L 482.435359 241.097022 
L 484.984468 240.973708 
L 487.533577 240.398679 
L 490.082686 240.828469 
L 492.631795 240.538504 
L 495.180905 240.619888 
L 497.730014 241.454382 
L 500.279123 240.440291 
L 502.828232 241.535482 
L 505.377341 241.349114 
L 507.92645 240.194088 
L 510.47556 241.747678 
L 513.024669 241.41585 
L 515.573778 241.548245 
L 518.122887 240.550529 
L 520.671996 241.514354 
L 523.221106 240.606819 
L 525.770215 240.406799 
L 528.319324 241.279386 
L 530.868433 241.482978 
L 533.417542 239.659515 
L 535.966651 240.204327 
L 538.515761 241.154149 
L 541.06487 241.04755 
L 543.613979 240.399306 
L 546.163088 240.273917 
L 548.712197 240.475342 
L 551.261307 240.805762 
L 553.810416 241.35898 
L 558.908634 241.460962 
L 561.457743 240.288492 
L 564.006852 240.724433 
L 566.555962 241.314857 
L 571.65418 240.820345 
L 574.203289 240.190099 
L 576.752398 240.57077 
L 581.850617 240.744279 
L 584.399726 241.167712 
L 589.497944 240.380316 
L 592.047053 241.375179 
L 594.596163 240.928997 
L 597.145272 240.629003 
L 599.694381 241.325084 
L 602.24349 241.28949 
L 604.792599 241.801964 
L 607.341709 240.992791 
L 609.890818 240.651199 
L 612.439927 241.339775 
L 614.989036 241.452852 
L 617.538145 241.052609 
L 620.087254 241.241701 
L 622.636364 240.796656 
L 622.636364 240.796656 
" clip-path="url(#padb5961191)" style="fill: none; stroke: #0000ff; stroke-width: 1.5; stroke-linecap: square"/>
   </g>
   <g id="patch_3">
    <path d="M 90 384.48 
L 90 51.84 
" style="fill: none; stroke: #000000; stroke-width: 0.8; stroke-linejoin: miter; stroke-linecap: square"/>
   </g>
   <g id="patch_4">
    <path d="M 648 384.48 
L 648 51.84 
" style="fill: none; stroke: #000000; stroke-width: 0.8; stroke-linejoin: miter; stroke-linecap: square"/>
   </g>
   <g id="patch_5">
    <path d="M 90 384.48 
L 648 384.48 
" style="fill: none; stroke: #000000; stroke-width: 0.8; stroke-linejoin: miter; stroke-linecap: square"/>
   </g>
   <g id="patch_6">
    <path d="M 90 51.84 
L 648 51.84 
" style="fill: none; stroke: #000000; stroke-width: 0.8; stroke-linejoin: miter; stroke-linecap: square"/>
   </g>
   <g id="text_18">
    <!-- Zagregowane statystyki z 20 niezależnych ewolucji -->
    <g transform="translate(214.952812 45.84) scale(0.12 -0.12)">
     <defs>
      <path id="DejaVuSans-5a" d="M 359 4666 
L 4025 4666 
L 4025 4184 
L 1075 531 
L 4097 531 
L 4097 0 
L 288 0 
L 288 481 
L 3238 4134 
L 359 4134 
L 359 4666 
z
" transform="scale(0.015625)"/>
      <path id="DejaVuSans-67" d="M 2906 1791 
Q 2906 2416 2648 2759 
Q 2391 3103 1925 3103 
Q 1463 3103 1205 2759 
Q 947 2416 947 1791 
Q 947 1169 1205 825 
Q 1463 481 1925 481 
Q 2391 481 2648 825 
Q 2906 1169 2906 1791 
z
M 3481 434 
Q 3481 -459 3084 -895 
Q 2688 -1331 1869 -1331 
Q 1566 -1331 1297 -1286 
Q 1028 -1241 775 -1147 
L 775 -588 
Q 1028 -725 1275 -790 
Q 1522 -856 1778 -856 
Q 2344 -856 2625 -561 
Q 2906 -266 2906 331 
L 2906 616 
Q 2728 306 2450 153 
Q 2172 0 1784 0 
Q 1141 0 747 490 
Q 353 981 353 1791 
Q 353 2603 747 3093 
Q 1141 3584 1784 3584 
Q 2172 3584 2450 3431 
Q 2728 3278 2906 2969 
L 2906 3500 
L 3481 3500 
L 3481 434 
z
" transform="scale(0.015625)"/>
      <path id="DejaVuSans-6f" d="M 1959 3097 
Q 1497 3097 1228 2736 
Q 959 2375 959 1747 
Q 959 1119 1226 758 
Q 1494 397 1959 397 
Q 2419 397 2687 759 
Q 2956 1122 2956 1747 
Q 2956 2369 2687 2733 
Q 2419 3097 1959 3097 
z
M 1959 3584 
Q 2709 3584 3137 3096 
Q 3566 2609 3566 1747 
Q 3566 888 3137 398 
Q 2709 -91 1959 -91 
Q 1206 -91 779 398 
Q 353 888 353 1747 
Q 353 2609 779 3096 
Q 1206 3584 1959 3584 
z
" transform="scale(0.015625)"/>
      <path id="DejaVuSans-77" d="M 269 3500 
L 844 3500 
L 1563 769 
L 2278 3500 
L 2956 3500 
L 3675 769 
L 4391 3500 
L 4966 3500 
L 4050 0 
L 3372 0 
L 2619 2869 
L 1863 0 
L 1184 0 
L 269 3500 
z
" transform="scale(0.015625)"/>
      <path id="DejaVuSans-20" transform="scale(0.015625)"/>
      <path id="DejaVuSans-79" d="M 2059 -325 
Q 1816 -950 1584 -1140 
Q 1353 -1331 966 -1331 
L 506 -1331 
L 506 -850 
L 844 -850 
Q 1081 -850 1212 -737 
Q 1344 -625 1503 -206 
L 1606 56 
L 191 3500 
L 800 3500 
L 1894 763 
L 2988 3500 
L 3597 3500 
L 2059 -325 
z
" transform="scale(0.015625)"/>
      <path id="DejaVuSans-6b" d="M 581 4863 
L 1159 4863 
L 1159 1991 
L 2875 3500 
L 3609 3500 
L 1753 1863 
L 3688 0 
L 2938 0 
L 1159 1709 
L 1159 0 
L 581 0 
L 581 4863 
z
" transform="scale(0.015625)"/>
      <path id="DejaVuSans-7a" d="M 353 3500 
L 3084 3500 
L 3084 2975 
L 922 459 
L 3084 459 
L 3084 0 
L 275 0 
L 275 525 
L 2438 3041 
L 353 3041 
L 353 3500 
z
" transform="scale(0.015625)"/>
      <path id="DejaVuSans-6c" d="M 603 4863 
L 1178 4863 
L 1178 0 
L 603 0 
L 603 4863 
z
" transform="scale(0.015625)"/>
      <path id="DejaVuSans-17c" d="M 1378 4863 
L 1953 4863 
L 1953 4134 
L 1378 4134 
L 1378 4863 
z
M 1672 3584 
L 1672 3584 
z
M 353 3500 
L 3084 3500 
L 3084 2975 
L 922 459 
L 3084 459 
L 3084 0 
L 275 0 
L 275 525 
L 2438 3041 
L 353 3041 
L 353 3500 
z
" transform="scale(0.015625)"/>
      <path id="DejaVuSans-68" d="M 3513 2113 
L 3513 0 
L 2938 0 
L 2938 2094 
Q 2938 2591 2744 2837 
Q 2550 3084 2163 3084 
Q 1697 3084 1428 2787 
Q 1159 2491 1159 1978 
L 1159 0 
L 581 0 
L 581 4863 
L 1159 4863 
L 1159 2956 
Q 1366 3272 1645 3428 
Q 1925 3584 2291 3584 
Q 2894 3584 3203 3211 
Q 3513 2838 3513 2113 
z
" transform="scale(0.015625)"/>
      <path id="DejaVuSans-75" d="M 544 1381 
L 544 3500 
L 1119 3500 
L 1119 1403 
Q 1119 906 1312 657 
Q 1506 409 1894 409 
Q 2359 409 2629 706 
Q 2900 1003 2900 1516 
L 2900 3500 
L 3475 3500 
L 3475 0 
L 2900 0 
L 2900 538 
Q 2691 219 2414 64 
Q 2138 -91 1772 -91 
Q 1169 -91 856 284 
Q 544 659 544 1381 
z
M 1991 3584 
L 1991 3584 
z
" transform="scale(0.015625)"/>
     </defs>
     <use xlink:href="#DejaVuSans-5a"/>
     <use xlink:href="#DejaVuSans-61" transform="translate(68.505859 0)"/>
     <use xlink:href="#DejaVuSans-67" transform="translate(129.785156 0)"/>
     <use xlink:href="#DejaVuSans-72" transform="translate(193.261719 0)"/>
     <use xlink:href="#DejaVuSans-65" transform="translate(232.125 0)"/>
     <use xlink:href="#DejaVuSans-67" transform="translate(293.648438 0)"/>
     <use xlink:href="#DejaVuSans-6f" transform="translate(357.125 0)"/>
     <use xlink:href="#DejaVuSans-77" transform="translate(418.306641 0)"/>
     <use xlink:href="#DejaVuSans-61" transform="translate(500.09375 0)"/>
     <use xlink:href="#DejaVuSans-6e" transform="translate(561.373047 0)"/>
     <use xlink:href="#DejaVuSans-65" transform="translate(624.751953 0)"/>
     <use xlink:href="#DejaVuSans-20" transform="translate(686.275391 0)"/>
     <use xlink:href="#DejaVuSans-73" transform="translate(718.0625 0)"/>
     <use xlink:href="#DejaVuSans-74" transform="translate(770.162109 0)"/>
     <use xlink:href="#DejaVuSans-61" transform="translate(809.371094 0)"/>
     <use xlink:href="#DejaVuSans-74" transform="translate(870.650391 0)"/>
     <use xlink:href="#DejaVuSans-79" transform="translate(909.859375 0)"/>
     <use xlink:href="#DejaVuSans-73" transform="translate(969.039062 0)"/>
     <use xlink:href="#DejaVuSans-74" transform="translate(1021.138672 0)"/>
     <use xlink:href="#DejaVuSans-79" transform="translate(1060.347656 0)"/>
     <use xlink:href="#DejaVuSans-6b" transform="translate(1119.527344 0)"/>
     <use xlink:href="#DejaVuSans-69" transform="translate(1177.4375 0)"/>
     <use xlink:href="#DejaVuSans-20" transform="translate(1205.220703 0)"/>
     <use xlink:href="#DejaVuSans-7a" transform="translate(1237.007812 0)"/>
     <use xlink:href="#DejaVuSans-20" transform="translate(1289.498047 0)"/>
     <use xlink:href="#DejaVuSans-32" transform="translate(1321.285156 0)"/>
     <use xlink:href="#DejaVuSans-30" transform="translate(1384.908203 0)"/>
     <use xlink:href="#DejaVuSans-20" transform="translate(1448.53125 0)"/>
     <use xlink:href="#DejaVuSans-6e" transform="translate(1480.318359 0)"/>
     <use xlink:href="#DejaVuSans-69" transform="translate(1543.697266 0)"/>
     <use xlink:href="#DejaVuSans-65" transform="translate(1571.480469 0)"/>
     <use xlink:href="#DejaVuSans-7a" transform="translate(1633.003906 0)"/>
     <use xlink:href="#DejaVuSans-61" transform="translate(1685.494141 0)"/>
     <use xlink:href="#DejaVuSans-6c" transform="translate(1746.773438 0)"/>
     <use xlink:href="#DejaVuSans-65" transform="translate(1774.556641 0)"/>
     <use xlink:href="#DejaVuSans-17c" transform="translate(1836.080078 0)"/>
     <use xlink:href="#DejaVuSans-6e" transform="translate(1888.570312 0)"/>
     <use xlink:href="#DejaVuSans-79" transform="translate(1951.949219 0)"/>
     <use xlink:href="#DejaVuSans-63" transform="translate(2011.128906 0)"/>
     <use xlink:href="#DejaVuSans-68" transform="translate(2066.109375 0)"/>
     <use xlink:href="#DejaVuSans-20" transform="translate(2129.488281 0)"/>
     <use xlink:href="#DejaVuSans-65" transform="translate(2161.275391 0)"/>
     <use xlink:href="#DejaVuSans-77" transform="translate(2222.798828 0)"/>
     <use xlink:href="#DejaVuSans-6f" transform="translate(2304.585938 0)"/>
     <use xlink:href="#DejaVuSans-6c" transform="translate(2365.767578 0)"/>
     <use xlink:href="#DejaVuSans-75" transform="translate(2393.550781 0)"/>
     <use xlink:href="#DejaVuSans-63" transform="translate(2456.929688 0)"/>
     <use xlink:href="#DejaVuSans-6a" transform="translate(2511.910156 0)"/>
     <use xlink:href="#DejaVuSans-69" transform="translate(2539.693359 0)"/>
    </g>
   </g>
   <g id="legend_1">
    <g id="patch_7">
     <path d="M 379.426562 379.48 
L 641 379.48 
Q 643 379.48 643 377.48 
L 643 330.739375 
Q 643 328.739375 641 328.739375 
L 379.426562 328.739375 
Q 377.426562 328.739375 377.426562 330.739375 
L 377.426562 377.48 
Q 377.426562 379.48 379.426562 379.48 
z
" style="fill: #ffffff; opacity: 0.8; stroke: #cccccc; stroke-linejoin: miter"/>
    </g>
    <g id="line2d_33">
     <path d="M 381.426562 338.490937 
L 391.426562 338.490937 
L 401.426562 338.490937 
" style="fill: none; stroke: #ff0000; stroke-width: 1.5; stroke-linecap: square"/>
    </g>
    <g id="text_19">
     <!-- Średnie przystosowanie najlepszego osobnika -->
     <g transform="translate(409.426562 341.990937) scale(0.1 -0.1)">
      <defs>
       <path id="DejaVuSans-15a" d="M 2236 5921 
L 2814 5921 
L 2102 5096 
L 1623 5096 
L 2236 5921 
z
M 3425 4513 
L 3425 3897 
Q 3066 4069 2747 4153 
Q 2428 4238 2131 4238 
Q 1616 4238 1336 4038 
Q 1056 3838 1056 3469 
Q 1056 3159 1242 3001 
Q 1428 2844 1947 2747 
L 2328 2669 
Q 3034 2534 3370 2195 
Q 3706 1856 3706 1288 
Q 3706 609 3251 259 
Q 2797 -91 1919 -91 
Q 1588 -91 1214 -16 
Q 841 59 441 206 
L 441 856 
Q 825 641 1194 531 
Q 1563 422 1919 422 
Q 2459 422 2753 634 
Q 3047 847 3047 1241 
Q 3047 1584 2836 1778 
Q 2625 1972 2144 2069 
L 1759 2144 
Q 1053 2284 737 2584 
Q 422 2884 422 3419 
Q 422 4038 858 4394 
Q 1294 4750 2059 4750 
Q 2388 4750 2728 4690 
Q 3069 4631 3425 4513 
z
" transform="scale(0.015625)"/>
       <path id="DejaVuSans-64" d="M 2906 2969 
L 2906 4863 
L 3481 4863 
L 3481 0 
L 2906 0 
L 2906 525 
Q 2725 213 2448 61 
Q 2172 -91 1784 -91 
Q 1150 -91 751 415 
Q 353 922 353 1747 
Q 353 2572 751 3078 
Q 1150 3584 1784 3584 
Q 2172 3584 2448 3432 
Q 2725 3281 2906 2969 
z
M 947 1747 
Q 947 1113 1208 752 
Q 1469 391 1925 391 
Q 2381 391 2643 752 
Q 2906 1113 2906 1747 
Q 2906 2381 2643 2742 
Q 2381 3103 1925 3103 
Q 1469 3103 1208 2742 
Q 947 2381 947 1747 
z
" transform="scale(0.015625)"/>
       <path id="DejaVuSans-70" d="M 1159 525 
L 1159 -1331 
L 581 -1331 
L 581 3500 
L 1159 3500 
L 1159 2969 
Q 1341 3281 1617 3432 
Q 1894 3584 2278 3584 
Q 2916 3584 3314 3078 
Q 3713 2572 3713 1747 
Q 3713 922 3314 415 
Q 2916 -91 2278 -91 
Q 1894 -91 1617 61 
Q 1341 213 1159 525 
z
M 3116 1747 
Q 3116 2381 2855 2742 
Q 2594 3103 2138 3103 
Q 1681 3103 1420 2742 
Q 1159 2381 1159 1747 
Q 1159 1113 1420 752 
Q 1681 391 2138 391 
Q 2594 391 2855 752 
Q 3116 1113 3116 1747 
z
" transform="scale(0.015625)"/>
       <path id="DejaVuSans-62" d="M 3116 1747 
Q 3116 2381 2855 2742 
Q 2594 3103 2138 3103 
Q 1681 3103 1420 2742 
Q 1159 2381 1159 1747 
Q 1159 1113 1420 752 
Q 1681 391 2138 391 
Q 2594 391 2855 752 
Q 3116 1113 3116 1747 
z
M 1159 2969 
Q 1341 3281 1617 3432 
Q 1894 3584 2278 3584 
Q 2916 3584 3314 3078 
Q 3713 2572 3713 1747 
Q 3713 922 3314 415 
Q 2916 -91 2278 -91 
Q 1894 -91 1617 61 
Q 1341 213 1159 525 
L 1159 0 
L 581 0 
L 581 4863 
L 1159 4863 
L 1159 2969 
z
" transform="scale(0.015625)"/>
      </defs>
      <use xlink:href="#DejaVuSans-15a"/>
      <use xlink:href="#DejaVuSans-72" transform="translate(63.476562 0)"/>
      <use xlink:href="#DejaVuSans-65" transform="translate(102.339844 0)"/>
      <use xlink:href="#DejaVuSans-64" transform="translate(163.863281 0)"/>
      <use xlink:href="#DejaVuSans-6e" transform="translate(227.339844 0)"/>
      <use xlink:href="#DejaVuSans-69" transform="translate(290.71875 0)"/>
      <use xlink:href="#DejaVuSans-65" transform="translate(318.501953 0)"/>
      <use xlink:href="#DejaVuSans-20" transform="translate(380.025391 0)"/>
      <use xlink:href="#DejaVuSans-70" transform="translate(411.8125 0)"/>
      <use xlink:href="#DejaVuSans-72" transform="translate(475.289062 0)"/>
      <use xlink:href="#DejaVuSans-7a" transform="translate(516.402344 0)"/>
      <use xlink:href="#DejaVuSans-79" transform="translate(568.892578 0)"/>
      <use xlink:href="#DejaVuSans-73" transform="translate(628.072266 0)"/>
      <use xlink:href="#DejaVuSans-74" transform="translate(680.171875 0)"/>
      <use xlink:href="#DejaVuSans-6f" transform="translate(719.380859 0)"/>
      <use xlink:href="#DejaVuSans-73" transform="translate(780.5625 0)"/>
      <use xlink:href="#DejaVuSans-6f" transform="translate(832.662109 0)"/>
      <use xlink:href="#DejaVuSans-77" transform="translate(893.84375 0)"/>
      <use xlink:href="#DejaVuSans-61" transform="translate(975.630859 0)"/>
      <use xlink:href="#DejaVuSans-6e" transform="translate(1036.910156 0)"/>
      <use xlink:href="#DejaVuSans-69" transform="translate(1100.289062 0)"/>
      <use xlink:href="#DejaVuSans-65" transform="translate(1128.072266 0)"/>
      <use xlink:href="#DejaVuSans-20" transform="translate(1189.595703 0)"/>
      <use xlink:href="#DejaVuSans-6e" transform="translate(1221.382812 0)"/>
      <use xlink:href="#DejaVuSans-61" transform="translate(1284.761719 0)"/>
      <use xlink:href="#DejaVuSans-6a" transform="translate(1346.041016 0)"/>
      <use xlink:href="#DejaVuSans-6c" transform="translate(1373.824219 0)"/>
      <use xlink:href="#DejaVuSans-65" transform="translate(1401.607422 0)"/>
      <use xlink:href="#DejaVuSans-70" transform="translate(1463.130859 0)"/>
      <use xlink:href="#DejaVuSans-73" transform="translate(1526.607422 0)"/>
      <use xlink:href="#DejaVuSans-7a" transform="translate(1578.707031 0)"/>
      <use xlink:href="#DejaVuSans-65" transform="translate(1631.197266 0)"/>
      <use xlink:href="#DejaVuSans-67" transform="translate(1692.720703 0)"/>
      <use xlink:href="#DejaVuSans-6f" transform="translate(1756.197266 0)"/>
      <use xlink:href="#DejaVuSans-20" transform="translate(1817.378906 0)"/>
      <use xlink:href="#DejaVuSans-6f" transform="translate(1849.166016 0)"/>
      <use xlink:href="#DejaVuSans-73" transform="translate(1910.347656 0)"/>
      <use xlink:href="#DejaVuSans-6f" transform="translate(1962.447266 0)"/>
      <use xlink:href="#DejaVuSans-62" transform="translate(2023.628906 0)"/>
      <use xlink:href="#DejaVuSans-6e" transform="translate(2087.105469 0)"/>
      <use xlink:href="#DejaVuSans-69" transform="translate(2150.484375 0)"/>
      <use xlink:href="#DejaVuSans-6b" transform="translate(2178.267578 0)"/>
      <use xlink:href="#DejaVuSans-61" transform="translate(2234.427734 0)"/>
     </g>
    </g>
    <g id="patch_8">
     <path d="M 381.426562 357.069062 
L 401.426562 357.069062 
L 401.426562 350.069062 
L 381.426562 350.069062 
z
" style="fill: #ff0000; fill-opacity: 0.2; stroke: #ff0000; stroke-opacity: 0.2; stroke-linejoin: miter"/>
    </g>
    <g id="text_20">
     <!-- ±1 Odchylenie std. najlepszych osobników -->
     <g transform="translate(409.426562 357.069062) scale(0.1 -0.1)">
      <defs>
       <path id="DejaVuSans-b1" d="M 2944 4013 
L 2944 2803 
L 4684 2803 
L 4684 2272 
L 2944 2272 
L 2944 1063 
L 2419 1063 
L 2419 2272 
L 678 2272 
L 678 2803 
L 2419 2803 
L 2419 4013 
L 2944 4013 
z
M 678 531 
L 4684 531 
L 4684 0 
L 678 0 
L 678 531 
z
" transform="scale(0.015625)"/>
       <path id="DejaVuSans-4f" d="M 2522 4238 
Q 1834 4238 1429 3725 
Q 1025 3213 1025 2328 
Q 1025 1447 1429 934 
Q 1834 422 2522 422 
Q 3209 422 3611 934 
Q 4013 1447 4013 2328 
Q 4013 3213 3611 3725 
Q 3209 4238 2522 4238 
z
M 2522 4750 
Q 3503 4750 4090 4092 
Q 4678 3434 4678 2328 
Q 4678 1225 4090 567 
Q 3503 -91 2522 -91 
Q 1538 -91 948 565 
Q 359 1222 359 2328 
Q 359 3434 948 4092 
Q 1538 4750 2522 4750 
z
" transform="scale(0.015625)"/>
       <path id="DejaVuSans-2e" d="M 684 794 
L 1344 794 
L 1344 0 
L 684 0 
L 684 794 
z
" transform="scale(0.015625)"/>
       <path id="DejaVuSans-f3" d="M 1959 3097 
Q 1497 3097 1228 2736 
Q 959 2375 959 1747 
Q 959 1119 1226 758 
Q 1494 397 1959 397 
Q 2419 397 2687 759 
Q 2956 1122 2956 1747 
Q 2956 2369 2687 2733 
Q 2419 3097 1959 3097 
z
M 1959 3584 
Q 2709 3584 3137 3096 
Q 3566 2609 3566 1747 
Q 3566 888 3137 398 
Q 2709 -91 1959 -91 
Q 1206 -91 779 398 
Q 353 888 353 1747 
Q 353 2609 779 3096 
Q 1206 3584 1959 3584 
z
M 2394 5119 
L 3016 5119 
L 1998 3944 
L 1519 3944 
L 2394 5119 
z
" transform="scale(0.015625)"/>
      </defs>
      <use xlink:href="#DejaVuSans-b1"/>
      <use xlink:href="#DejaVuSans-31" transform="translate(83.789062 0)"/>
      <use xlink:href="#DejaVuSans-20" transform="translate(147.412109 0)"/>
      <use xlink:href="#DejaVuSans-4f" transform="translate(179.199219 0)"/>
      <use xlink:href="#DejaVuSans-64" transform="translate(257.910156 0)"/>
      <use xlink:href="#DejaVuSans-63" transform="translate(321.386719 0)"/>
      <use xlink:href="#DejaVuSans-68" transform="translate(376.367188 0)"/>
      <use xlink:href="#DejaVuSans-79" transform="translate(439.746094 0)"/>
      <use xlink:href="#DejaVuSans-6c" transform="translate(498.925781 0)"/>
      <use xlink:href="#DejaVuSans-65" transform="translate(526.708984 0)"/>
      <use xlink:href="#DejaVuSans-6e" transform="translate(588.232422 0)"/>
      <use xlink:href="#DejaVuSans-69" transform="translate(651.611328 0)"/>
      <use xlink:href="#DejaVuSans-65" transform="translate(679.394531 0)"/>
      <use xlink:href="#DejaVuSans-20" transform="translate(740.917969 0)"/>
      <use xlink:href="#DejaVuSans-73" transform="translate(772.705078 0)"/>
      <use xlink:href="#DejaVuSans-74" transform="translate(824.804688 0)"/>
      <use xlink:href="#DejaVuSans-64" transform="translate(864.013672 0)"/>
      <use xlink:href="#DejaVuSans-2e" transform="translate(927.490234 0)"/>
      <use xlink:href="#DejaVuSans-20" transform="translate(959.277344 0)"/>
      <use xlink:href="#DejaVuSans-6e" transform="translate(991.064453 0)"/>
      <use xlink:href="#DejaVuSans-61" transform="translate(1054.443359 0)"/>
      <use xlink:href="#DejaVuSans-6a" transform="translate(1115.722656 0)"/>
      <use xlink:href="#DejaVuSans-6c" transform="translate(1143.505859 0)"/>
      <use xlink:href="#DejaVuSans-65" transform="translate(1171.289062 0)"/>
      <use xlink:href="#DejaVuSans-70" transform="translate(1232.8125 0)"/>
      <use xlink:href="#DejaVuSans-73" transform="translate(1296.289062 0)"/>
      <use xlink:href="#DejaVuSans-7a" transform="translate(1348.388672 0)"/>
      <use xlink:href="#DejaVuSans-79" transform="translate(1400.878906 0)"/>
      <use xlink:href="#DejaVuSans-63" transform="translate(1460.058594 0)"/>
      <use xlink:href="#DejaVuSans-68" transform="translate(1515.039062 0)"/>
      <use xlink:href="#DejaVuSans-20" transform="translate(1578.417969 0)"/>
      <use xlink:href="#DejaVuSans-6f" transform="translate(1610.205078 0)"/>
      <use xlink:href="#DejaVuSans-73" transform="translate(1671.386719 0)"/>
      <use xlink:href="#DejaVuSans-6f" transform="translate(1723.486328 0)"/>
      <use xlink:href="#DejaVuSans-62" transform="translate(1784.667969 0)"/>
      <use xlink:href="#DejaVuSans-6e" transform="translate(1848.144531 0)"/>
      <use xlink:href="#DejaVuSans-69" transform="translate(1911.523438 0)"/>
      <use xlink:href="#DejaVuSans-6b" transform="translate(1939.306641 0)"/>
      <use xlink:href="#DejaVuSans-f3" transform="translate(1993.591797 0)"/>
      <use xlink:href="#DejaVuSans-77" transform="translate(2054.773438 0)"/>
     </g>
    </g>
    <g id="line2d_34">
     <path d="M 381.426562 369.900312 
L 391.426562 369.900312 
L 401.426562 369.900312 
" style="fill: none; stroke: #0000ff; stroke-width: 1.5; stroke-linecap: square"/>
    </g>
    <g id="text_21">
     <!-- Średnie przystosowanie całej populacji -->
     <g transform="translate(409.426562 373.400312) scale(0.1 -0.1)">
      <defs>
       <path id="DejaVuSans-142" d="M 622 4863 
L 1197 4863 
L 1197 2981 
L 1588 3263 
L 1825 2931 
L 1197 2491 
L 1197 0 
L 622 0 
L 622 2081 
L 238 1806 
L 6 2138 
L 622 2578 
L 622 4863 
z
" transform="scale(0.015625)"/>
      </defs>
      <use xlink:href="#DejaVuSans-15a"/>
      <use xlink:href="#DejaVuSans-72" transform="translate(63.476562 0)"/>
      <use xlink:href="#DejaVuSans-65" transform="translate(102.339844 0)"/>
      <use xlink:href="#DejaVuSans-64" transform="translate(163.863281 0)"/>
      <use xlink:href="#DejaVuSans-6e" transform="translate(227.339844 0)"/>
      <use xlink:href="#DejaVuSans-69" transform="translate(290.71875 0)"/>
      <use xlink:href="#DejaVuSans-65" transform="translate(318.501953 0)"/>
      <use xlink:href="#DejaVuSans-20" transform="translate(380.025391 0)"/>
      <use xlink:href="#DejaVuSans-70" transform="translate(411.8125 0)"/>
      <use xlink:href="#DejaVuSans-72" transform="translate(475.289062 0)"/>
      <use xlink:href="#DejaVuSans-7a" transform="translate(516.402344 0)"/>
      <use xlink:href="#DejaVuSans-79" transform="translate(568.892578 0)"/>
      <use xlink:href="#DejaVuSans-73" transform="translate(628.072266 0)"/>
      <use xlink:href="#DejaVuSans-74" transform="translate(680.171875 0)"/>
      <use xlink:href="#DejaVuSans-6f" transform="translate(719.380859 0)"/>
      <use xlink:href="#DejaVuSans-73" transform="translate(780.5625 0)"/>
      <use xlink:href="#DejaVuSans-6f" transform="translate(832.662109 0)"/>
      <use xlink:href="#DejaVuSans-77" transform="translate(893.84375 0)"/>
      <use xlink:href="#DejaVuSans-61" transform="translate(975.630859 0)"/>
      <use xlink:href="#DejaVuSans-6e" transform="translate(1036.910156 0)"/>
      <use xlink:href="#DejaVuSans-69" transform="translate(1100.289062 0)"/>
      <use xlink:href="#DejaVuSans-65" transform="translate(1128.072266 0)"/>
      <use xlink:href="#DejaVuSans-20" transform="translate(1189.595703 0)"/>
      <use xlink:href="#DejaVuSans-63" transform="translate(1221.382812 0)"/>
      <use xlink:href="#DejaVuSans-61" transform="translate(1276.363281 0)"/>
      <use xlink:href="#DejaVuSans-142" transform="translate(1337.642578 0)"/>
      <use xlink:href="#DejaVuSans-65" transform="translate(1366.060547 0)"/>
      <use xlink:href="#DejaVuSans-6a" transform="translate(1427.583984 0)"/>
      <use xlink:href="#DejaVuSans-20" transform="translate(1455.367188 0)"/>
      <use xlink:href="#DejaVuSans-70" transform="translate(1487.154297 0)"/>
      <use xlink:href="#DejaVuSans-6f" transform="translate(1550.630859 0)"/>
      <use xlink:href="#DejaVuSans-70" transform="translate(1611.8125 0)"/>
      <use xlink:href="#DejaVuSans-75" transform="translate(1675.289062 0)"/>
      <use xlink:href="#DejaVuSans-6c" transform="translate(1738.667969 0)"/>
      <use xlink:href="#DejaVuSans-61" transform="translate(1766.451172 0)"/>
      <use xlink:href="#DejaVuSans-63" transform="translate(1827.730469 0)"/>
      <use xlink:href="#DejaVuSans-6a" transform="translate(1882.710938 0)"/>
      <use xlink:href="#DejaVuSans-69" transform="translate(1910.494141 0)"/>
     </g>
    </g>
   </g>
  </g>
 </g>
 <defs>
  <clipPath id="padb5961191">
   <rect x="90" y="51.84" width="558" height="332.64"/>
  </clipPath>
 </defs>
</svg>
