<?xml version="1.0" encoding="utf-8" standalone="no"?>
<!DOCTYPE svg PUBLIC "-//W3C//DTD SVG 1.1//EN"
  "http://www.w3.org/Graphics/SVG/1.1/DTD/svg11.dtd">
<svg xmlns:xlink="http://www.w3.org/1999/xlink" width="460.8pt" height="345.6pt" viewBox="0 0 460.8 345.6" xmlns="http://www.w3.org/2000/svg" version="1.1">
 <metadata>
  <rdf:RDF xmlns:dc="http://purl.org/dc/elements/1.1/" xmlns:cc="http://creativecommons.org/ns#" xmlns:rdf="http://www.w3.org/1999/02/22-rdf-syntax-ns#">
   <cc:Work>
    <dc:type rdf:resource="http://purl.org/dc/dcmitype/StillImage"/>
    <dc:date>2026-04-27T01:04:35.677533</dc:date>
    <dc:format>image/svg+xml</dc:format>
    <dc:creator>
     <cc:Agent>
      <dc:title>Matplotlib v3.10.8, https://matplotlib.org/</dc:title>
     </cc:Agent>
    </dc:creator>
   </cc:Work>
  </rdf:RDF>
 </metadata>
 <defs>
  <style type="text/css">*{stroke-linejoin: round; stroke-linecap: butt}</style>
 </defs>
 <g id="figure_1">
  <g id="patch_1">
   <path d="M 0 345.6 
L 460.8 345.6 
L 460.8 0 
L 0 0 
z
" style="fill: #ffffff"/>
  </g>
  <g id="axes_1">
   <g id="patch_2">
    <path d="M 57.6 307.584 
L 414.72 307.584 
L 414.72 41.472 
L 57.6 41.472 
z
" style="fill: #ffffff"/>
   </g>
   <g id="matplotlib.axis_1">
    <g id="xtick_1">
     <g id="line2d_1">
      <path d="M 72.201297 307.584 
L 72.201297 41.472 
" clip-path="url(#p48e9d8e53e)" style="fill: none; stroke: #b0b0b0; stroke-width: 0.8; stroke-linecap: square"/>
     </g>
     <g id="line2d_2">
      <defs>
       <path id="m8a50af5215" d="M 0 0 
L 0 3.5 
" style="stroke: #000000; stroke-width: 0.8"/>
      </defs>
      <g>
       <use xlink:href="#m8a50af5215" x="72.201297" y="307.584" style="stroke: #000000; stroke-width: 0.8"/>
      </g>
     </g>
     <g id="text_1">
      <!-- 0 -->
      <g transform="translate(69.020047 322.182437) scale(0.1 -0.1)">
       <defs>
        <path id="DejaVuSans-30" d="M 2034 4250 
Q 1547 4250 1301 3770 
Q 1056 3291 1056 2328 
Q 1056 1369 1301 889 
Q 1547 409 2034 409 
Q 2525 409 2770 889 
Q 3016 1369 3016 2328 
Q 3016 3291 2770 3770 
Q 2525 4250 2034 4250 
z
M 2034 4750 
Q 2819 4750 3233 4129 
Q 3647 3509 3647 2328 
Q 3647 1150 3233 529 
Q 2819 -91 2034 -91 
Q 1250 -91 836 529 
Q 422 1150 422 2328 
Q 422 3509 836 4129 
Q 1250 4750 2034 4750 
z
" transform="scale(0.015625)"/>
       </defs>
       <use xlink:href="#DejaVuSans-30"/>
      </g>
     </g>
    </g>
    <g id="xtick_2">
     <g id="line2d_3">
      <path d="M 112.987044 307.584 
L 112.987044 41.472 
" clip-path="url(#p48e9d8e53e)" style="fill: none; stroke: #b0b0b0; stroke-width: 0.8; stroke-linecap: square"/>
     </g>
     <g id="line2d_4">
      <g>
       <use xlink:href="#m8a50af5215" x="112.987044" y="307.584" style="stroke: #000000; stroke-width: 0.8"/>
      </g>
     </g>
     <g id="text_2">
      <!-- 25 -->
      <g transform="translate(106.624544 322.182437) scale(0.1 -0.1)">
       <defs>
        <path id="DejaVuSans-32" d="M 1228 531 
L 3431 531 
L 3431 0 
L 469 0 
L 469 531 
Q 828 903 1448 1529 
Q 2069 2156 2228 2338 
Q 2531 2678 2651 2914 
Q 2772 3150 2772 3378 
Q 2772 3750 2511 3984 
Q 2250 4219 1831 4219 
Q 1534 4219 1204 4116 
Q 875 4013 500 3803 
L 500 4441 
Q 881 4594 1212 4672 
Q 1544 4750 1819 4750 
Q 2544 4750 2975 4387 
Q 3406 4025 3406 3419 
Q 3406 3131 3298 2873 
Q 3191 2616 2906 2266 
Q 2828 2175 2409 1742 
Q 1991 1309 1228 531 
z
" transform="scale(0.015625)"/>
        <path id="DejaVuSans-35" d="M 691 4666 
L 3169 4666 
L 3169 4134 
L 1269 4134 
L 1269 2991 
Q 1406 3038 1543 3061 
Q 1681 3084 1819 3084 
Q 2600 3084 3056 2656 
Q 3513 2228 3513 1497 
Q 3513 744 3044 326 
Q 2575 -91 1722 -91 
Q 1428 -91 1123 -41 
Q 819 9 494 109 
L 494 744 
Q 775 591 1075 516 
Q 1375 441 1709 441 
Q 2250 441 2565 725 
Q 2881 1009 2881 1497 
Q 2881 1984 2565 2268 
Q 2250 2553 1709 2553 
Q 1456 2553 1204 2497 
Q 953 2441 691 2322 
L 691 4666 
z
" transform="scale(0.015625)"/>
       </defs>
       <use xlink:href="#DejaVuSans-32"/>
       <use xlink:href="#DejaVuSans-35" transform="translate(63.623047 0)"/>
      </g>
     </g>
    </g>
    <g id="xtick_3">
     <g id="line2d_5">
      <path d="M 153.772791 307.584 
L 153.772791 41.472 
" clip-path="url(#p48e9d8e53e)" style="fill: none; stroke: #b0b0b0; stroke-width: 0.8; stroke-linecap: square"/>
     </g>
     <g id="line2d_6">
      <g>
       <use xlink:href="#m8a50af5215" x="153.772791" y="307.584" style="stroke: #000000; stroke-width: 0.8"/>
      </g>
     </g>
     <g id="text_3">
      <!-- 50 -->
      <g transform="translate(147.410291 322.182437) scale(0.1 -0.1)">
       <use xlink:href="#DejaVuSans-35"/>
       <use xlink:href="#DejaVuSans-30" transform="translate(63.623047 0)"/>
      </g>
     </g>
    </g>
    <g id="xtick_4">
     <g id="line2d_7">
      <path d="M 194.558538 307.584 
L 194.558538 41.472 
" clip-path="url(#p48e9d8e53e)" style="fill: none; stroke: #b0b0b0; stroke-width: 0.8; stroke-linecap: square"/>
     </g>
     <g id="line2d_8">
      <g>
       <use xlink:href="#m8a50af5215" x="194.558538" y="307.584" style="stroke: #000000; stroke-width: 0.8"/>
      </g>
     </g>
     <g id="text_4">
      <!-- 75 -->
      <g transform="translate(188.196038 322.182437) scale(0.1 -0.1)">
       <defs>
        <path id="DejaVuSans-37" d="M 525 4666 
L 3525 4666 
L 3525 4397 
L 1831 0 
L 1172 0 
L 2766 4134 
L 525 4134 
L 525 4666 
z
" transform="scale(0.015625)"/>
       </defs>
       <use xlink:href="#DejaVuSans-37"/>
       <use xlink:href="#DejaVuSans-35" transform="translate(63.623047 0)"/>
      </g>
     </g>
    </g>
    <g id="xtick_5">
     <g id="line2d_9">
      <path d="M 235.344285 307.584 
L 235.344285 41.472 
" clip-path="url(#p48e9d8e53e)" style="fill: none; stroke: #b0b0b0; stroke-width: 0.8; stroke-linecap: square"/>
     </g>
     <g id="line2d_10">
      <g>
       <use xlink:href="#m8a50af5215" x="235.344285" y="307.584" style="stroke: #000000; stroke-width: 0.8"/>
      </g>
     </g>
     <g id="text_5">
      <!-- 100 -->
      <g transform="translate(225.800535 322.182437) scale(0.1 -0.1)">
       <defs>
        <path id="DejaVuSans-31" d="M 794 531 
L 1825 531 
L 1825 4091 
L 703 3866 
L 703 4441 
L 1819 4666 
L 2450 4666 
L 2450 531 
L 3481 531 
L 3481 0 
L 794 0 
L 794 531 
z
" transform="scale(0.015625)"/>
       </defs>
       <use xlink:href="#DejaVuSans-31"/>
       <use xlink:href="#DejaVuSans-30" transform="translate(63.623047 0)"/>
       <use xlink:href="#DejaVuSans-30" transform="translate(127.246094 0)"/>
      </g>
     </g>
    </g>
    <g id="xtick_6">
     <g id="line2d_11">
      <path d="M 276.130032 307.584 
L 276.130032 41.472 
" clip-path="url(#p48e9d8e53e)" style="fill: none; stroke: #b0b0b0; stroke-width: 0.8; stroke-linecap: square"/>
     </g>
     <g id="line2d_12">
      <g>
       <use xlink:href="#m8a50af5215" x="276.130032" y="307.584" style="stroke: #000000; stroke-width: 0.8"/>
      </g>
     </g>
     <g id="text_6">
      <!-- 125 -->
      <g transform="translate(266.586282 322.182437) scale(0.1 -0.1)">
       <use xlink:href="#DejaVuSans-31"/>
       <use xlink:href="#DejaVuSans-32" transform="translate(63.623047 0)"/>
       <use xlink:href="#DejaVuSans-35" transform="translate(127.246094 0)"/>
      </g>
     </g>
    </g>
    <g id="xtick_7">
     <g id="line2d_13">
      <path d="M 316.915779 307.584 
L 316.915779 41.472 
" clip-path="url(#p48e9d8e53e)" style="fill: none; stroke: #b0b0b0; stroke-width: 0.8; stroke-linecap: square"/>
     </g>
     <g id="line2d_14">
      <g>
       <use xlink:href="#m8a50af5215" x="316.915779" y="307.584" style="stroke: #000000; stroke-width: 0.8"/>
      </g>
     </g>
     <g id="text_7">
      <!-- 150 -->
      <g transform="translate(307.372029 322.182437) scale(0.1 -0.1)">
       <use xlink:href="#DejaVuSans-31"/>
       <use xlink:href="#DejaVuSans-35" transform="translate(63.623047 0)"/>
       <use xlink:href="#DejaVuSans-30" transform="translate(127.246094 0)"/>
      </g>
     </g>
    </g>
    <g id="xtick_8">
     <g id="line2d_15">
      <path d="M 357.701526 307.584 
L 357.701526 41.472 
" clip-path="url(#p48e9d8e53e)" style="fill: none; stroke: #b0b0b0; stroke-width: 0.8; stroke-linecap: square"/>
     </g>
     <g id="line2d_16">
      <g>
       <use xlink:href="#m8a50af5215" x="357.701526" y="307.584" style="stroke: #000000; stroke-width: 0.8"/>
      </g>
     </g>
     <g id="text_8">
      <!-- 175 -->
      <g transform="translate(348.157776 322.182437) scale(0.1 -0.1)">
       <use xlink:href="#DejaVuSans-31"/>
       <use xlink:href="#DejaVuSans-37" transform="translate(63.623047 0)"/>
       <use xlink:href="#DejaVuSans-35" transform="translate(127.246094 0)"/>
      </g>
     </g>
    </g>
    <g id="xtick_9">
     <g id="line2d_17">
      <path d="M 398.487273 307.584 
L 398.487273 41.472 
" clip-path="url(#p48e9d8e53e)" style="fill: none; stroke: #b0b0b0; stroke-width: 0.8; stroke-linecap: square"/>
     </g>
     <g id="line2d_18">
      <g>
       <use xlink:href="#m8a50af5215" x="398.487273" y="307.584" style="stroke: #000000; stroke-width: 0.8"/>
      </g>
     </g>
     <g id="text_9">
      <!-- 200 -->
      <g transform="translate(388.943523 322.182437) scale(0.1 -0.1)">
       <use xlink:href="#DejaVuSans-32"/>
       <use xlink:href="#DejaVuSans-30" transform="translate(63.623047 0)"/>
       <use xlink:href="#DejaVuSans-30" transform="translate(127.246094 0)"/>
      </g>
     </g>
    </g>
    <g id="text_10">
     <!-- Generacje -->
     <g transform="translate(210.629531 335.860562) scale(0.1 -0.1)">
      <defs>
       <path id="DejaVuSans-47" d="M 3809 666 
L 3809 1919 
L 2778 1919 
L 2778 2438 
L 4434 2438 
L 4434 434 
Q 4069 175 3628 42 
Q 3188 -91 2688 -91 
Q 1594 -91 976 548 
Q 359 1188 359 2328 
Q 359 3472 976 4111 
Q 1594 4750 2688 4750 
Q 3144 4750 3555 4637 
Q 3966 4525 4313 4306 
L 4313 3634 
Q 3963 3931 3569 4081 
Q 3175 4231 2741 4231 
Q 1884 4231 1454 3753 
Q 1025 3275 1025 2328 
Q 1025 1384 1454 906 
Q 1884 428 2741 428 
Q 3075 428 3337 486 
Q 3600 544 3809 666 
z
" transform="scale(0.015625)"/>
       <path id="DejaVuSans-65" d="M 3597 1894 
L 3597 1613 
L 953 1613 
Q 991 1019 1311 708 
Q 1631 397 2203 397 
Q 2534 397 2845 478 
Q 3156 559 3463 722 
L 3463 178 
Q 3153 47 2828 -22 
Q 2503 -91 2169 -91 
Q 1331 -91 842 396 
Q 353 884 353 1716 
Q 353 2575 817 3079 
Q 1281 3584 2069 3584 
Q 2775 3584 3186 3129 
Q 3597 2675 3597 1894 
z
M 3022 2063 
Q 3016 2534 2758 2815 
Q 2500 3097 2075 3097 
Q 1594 3097 1305 2825 
Q 1016 2553 972 2059 
L 3022 2063 
z
" transform="scale(0.015625)"/>
       <path id="DejaVuSans-6e" d="M 3513 2113 
L 3513 0 
L 2938 0 
L 2938 2094 
Q 2938 2591 2744 2837 
Q 2550 3084 2163 3084 
Q 1697 3084 1428 2787 
Q 1159 2491 1159 1978 
L 1159 0 
L 581 0 
L 581 3500 
L 1159 3500 
L 1159 2956 
Q 1366 3272 1645 3428 
Q 1925 3584 2291 3584 
Q 2894 3584 3203 3211 
Q 3513 2838 3513 2113 
z
" transform="scale(0.015625)"/>
       <path id="DejaVuSans-72" d="M 2631 2963 
Q 2534 3019 2420 3045 
Q 2306 3072 2169 3072 
Q 1681 3072 1420 2755 
Q 1159 2438 1159 1844 
L 1159 0 
L 581 0 
L 581 3500 
L 1159 3500 
L 1159 2956 
Q 1341 3275 1631 3429 
Q 1922 3584 2338 3584 
Q 2397 3584 2469 3576 
Q 2541 3569 2628 3553 
L 2631 2963 
z
" transform="scale(0.015625)"/>
       <path id="DejaVuSans-61" d="M 2194 1759 
Q 1497 1759 1228 1600 
Q 959 1441 959 1056 
Q 959 750 1161 570 
Q 1363 391 1709 391 
Q 2188 391 2477 730 
Q 2766 1069 2766 1631 
L 2766 1759 
L 2194 1759 
z
M 3341 1997 
L 3341 0 
L 2766 0 
L 2766 531 
Q 2569 213 2275 61 
Q 1981 -91 1556 -91 
Q 1019 -91 701 211 
Q 384 513 384 1019 
Q 384 1609 779 1909 
Q 1175 2209 1959 2209 
L 2766 2209 
L 2766 2266 
Q 2766 2663 2505 2880 
Q 2244 3097 1772 3097 
Q 1472 3097 1187 3025 
Q 903 2953 641 2809 
L 641 3341 
Q 956 3463 1253 3523 
Q 1550 3584 1831 3584 
Q 2591 3584 2966 3190 
Q 3341 2797 3341 1997 
z
" transform="scale(0.015625)"/>
       <path id="DejaVuSans-63" d="M 3122 3366 
L 3122 2828 
Q 2878 2963 2633 3030 
Q 2388 3097 2138 3097 
Q 1578 3097 1268 2742 
Q 959 2388 959 1747 
Q 959 1106 1268 751 
Q 1578 397 2138 397 
Q 2388 397 2633 464 
Q 2878 531 3122 666 
L 3122 134 
Q 2881 22 2623 -34 
Q 2366 -91 2075 -91 
Q 1284 -91 818 406 
Q 353 903 353 1747 
Q 353 2603 823 3093 
Q 1294 3584 2113 3584 
Q 2378 3584 2631 3529 
Q 2884 3475 3122 3366 
z
" transform="scale(0.015625)"/>
       <path id="DejaVuSans-6a" d="M 603 3500 
L 1178 3500 
L 1178 -63 
Q 1178 -731 923 -1031 
Q 669 -1331 103 -1331 
L -116 -1331 
L -116 -844 
L 38 -844 
Q 366 -844 484 -692 
Q 603 -541 603 -63 
L 603 3500 
z
M 603 4863 
L 1178 4863 
L 1178 4134 
L 603 4134 
L 603 4863 
z
" transform="scale(0.015625)"/>
      </defs>
      <use xlink:href="#DejaVuSans-47"/>
      <use xlink:href="#DejaVuSans-65" transform="translate(77.490234 0)"/>
      <use xlink:href="#DejaVuSans-6e" transform="translate(139.013672 0)"/>
      <use xlink:href="#DejaVuSans-65" transform="translate(202.392578 0)"/>
      <use xlink:href="#DejaVuSans-72" transform="translate(263.916016 0)"/>
      <use xlink:href="#DejaVuSans-61" transform="translate(305.029297 0)"/>
      <use xlink:href="#DejaVuSans-63" transform="translate(366.308594 0)"/>
      <use xlink:href="#DejaVuSans-6a" transform="translate(421.289062 0)"/>
      <use xlink:href="#DejaVuSans-65" transform="translate(449.072266 0)"/>
     </g>
    </g>
   </g>
   <g id="matplotlib.axis_2">
    <g id="ytick_1">
     <g id="line2d_19">
      <path d="M 57.6 126.27775 
L 414.72 126.27775 
" clip-path="url(#p48e9d8e53e)" style="fill: none; stroke: #b0b0b0; stroke-width: 0.8; stroke-linecap: square"/>
     </g>
     <g id="line2d_20">
      <defs>
       <path id="meaf8753d51" d="M 0 0 
L -3.5 0 
" style="stroke: #000000; stroke-width: 0.8"/>
      </defs>
      <g>
       <use xlink:href="#meaf8753d51" x="57.6" y="126.27775" style="stroke: #000000; stroke-width: 0.8"/>
      </g>
     </g>
     <g id="text_11">
      <!-- $\mathdefault{10^{2}}$ -->
      <g transform="translate(33 130.076969) scale(0.1 -0.1)">
       <use xlink:href="#DejaVuSans-31" transform="translate(0 0.765625)"/>
       <use xlink:href="#DejaVuSans-30" transform="translate(63.623047 0.765625)"/>
       <use xlink:href="#DejaVuSans-32" transform="translate(128.203125 39.046875) scale(0.7)"/>
      </g>
     </g>
    </g>
    <g id="text_12">
     <!-- Przystosowanie -->
     <g transform="translate(26.920312 213.170187) rotate(-90) scale(0.1 -0.1)">
      <defs>
       <path id="DejaVuSans-50" d="M 1259 4147 
L 1259 2394 
L 2053 2394 
Q 2494 2394 2734 2622 
Q 2975 2850 2975 3272 
Q 2975 3691 2734 3919 
Q 2494 4147 2053 4147 
L 1259 4147 
z
M 628 4666 
L 2053 4666 
Q 2838 4666 3239 4311 
Q 3641 3956 3641 3272 
Q 3641 2581 3239 2228 
Q 2838 1875 2053 1875 
L 1259 1875 
L 1259 0 
L 628 0 
L 628 4666 
z
" transform="scale(0.015625)"/>
       <path id="DejaVuSans-7a" d="M 353 3500 
L 3084 3500 
L 3084 2975 
L 922 459 
L 3084 459 
L 3084 0 
L 275 0 
L 275 525 
L 2438 3041 
L 353 3041 
L 353 3500 
z
" transform="scale(0.015625)"/>
       <path id="DejaVuSans-79" d="M 2059 -325 
Q 1816 -950 1584 -1140 
Q 1353 -1331 966 -1331 
L 506 -1331 
L 506 -850 
L 844 -850 
Q 1081 -850 1212 -737 
Q 1344 -625 1503 -206 
L 1606 56 
L 191 3500 
L 800 3500 
L 1894 763 
L 2988 3500 
L 3597 3500 
L 2059 -325 
z
" transform="scale(0.015625)"/>
       <path id="DejaVuSans-73" d="M 2834 3397 
L 2834 2853 
Q 2591 2978 2328 3040 
Q 2066 3103 1784 3103 
Q 1356 3103 1142 2972 
Q 928 2841 928 2578 
Q 928 2378 1081 2264 
Q 1234 2150 1697 2047 
L 1894 2003 
Q 2506 1872 2764 1633 
Q 3022 1394 3022 966 
Q 3022 478 2636 193 
Q 2250 -91 1575 -91 
Q 1294 -91 989 -36 
Q 684 19 347 128 
L 347 722 
Q 666 556 975 473 
Q 1284 391 1588 391 
Q 1994 391 2212 530 
Q 2431 669 2431 922 
Q 2431 1156 2273 1281 
Q 2116 1406 1581 1522 
L 1381 1569 
Q 847 1681 609 1914 
Q 372 2147 372 2553 
Q 372 3047 722 3315 
Q 1072 3584 1716 3584 
Q 2034 3584 2315 3537 
Q 2597 3491 2834 3397 
z
" transform="scale(0.015625)"/>
       <path id="DejaVuSans-74" d="M 1172 4494 
L 1172 3500 
L 2356 3500 
L 2356 3053 
L 1172 3053 
L 1172 1153 
Q 1172 725 1289 603 
Q 1406 481 1766 481 
L 2356 481 
L 2356 0 
L 1766 0 
Q 1100 0 847 248 
Q 594 497 594 1153 
L 594 3053 
L 172 3053 
L 172 3500 
L 594 3500 
L 594 4494 
L 1172 4494 
z
" transform="scale(0.015625)"/>
       <path id="DejaVuSans-6f" d="M 1959 3097 
Q 1497 3097 1228 2736 
Q 959 2375 959 1747 
Q 959 1119 1226 758 
Q 1494 397 1959 397 
Q 2419 397 2687 759 
Q 2956 1122 2956 1747 
Q 2956 2369 2687 2733 
Q 2419 3097 1959 3097 
z
M 1959 3584 
Q 2709 3584 3137 3096 
Q 3566 2609 3566 1747 
Q 3566 888 3137 398 
Q 2709 -91 1959 -91 
Q 1206 -91 779 398 
Q 353 888 353 1747 
Q 353 2609 779 3096 
Q 1206 3584 1959 3584 
z
" transform="scale(0.015625)"/>
       <path id="DejaVuSans-77" d="M 269 3500 
L 844 3500 
L 1563 769 
L 2278 3500 
L 2956 3500 
L 3675 769 
L 4391 3500 
L 4966 3500 
L 4050 0 
L 3372 0 
L 2619 2869 
L 1863 0 
L 1184 0 
L 269 3500 
z
" transform="scale(0.015625)"/>
       <path id="DejaVuSans-69" d="M 603 3500 
L 1178 3500 
L 1178 0 
L 603 0 
L 603 3500 
z
M 603 4863 
L 1178 4863 
L 1178 4134 
L 603 4134 
L 603 4863 
z
" transform="scale(0.015625)"/>
      </defs>
      <use xlink:href="#DejaVuSans-50"/>
      <use xlink:href="#DejaVuSans-72" transform="translate(58.552734 0)"/>
      <use xlink:href="#DejaVuSans-7a" transform="translate(99.666016 0)"/>
      <use xlink:href="#DejaVuSans-79" transform="translate(152.15625 0)"/>
      <use xlink:href="#DejaVuSans-73" transform="translate(211.335938 0)"/>
      <use xlink:href="#DejaVuSans-74" transform="translate(263.435547 0)"/>
      <use xlink:href="#DejaVuSans-6f" transform="translate(302.644531 0)"/>
      <use xlink:href="#DejaVuSans-73" transform="translate(363.826172 0)"/>
      <use xlink:href="#DejaVuSans-6f" transform="translate(415.925781 0)"/>
      <use xlink:href="#DejaVuSans-77" transform="translate(477.107422 0)"/>
      <use xlink:href="#DejaVuSans-61" transform="translate(558.894531 0)"/>
      <use xlink:href="#DejaVuSans-6e" transform="translate(620.173828 0)"/>
      <use xlink:href="#DejaVuSans-69" transform="translate(683.552734 0)"/>
      <use xlink:href="#DejaVuSans-65" transform="translate(711.335938 0)"/>
     </g>
    </g>
   </g>
   <g id="line2d_21">
    <path d="M 73.832727 295.488 
L 75.464157 231.427193 
L 77.095587 208.192922 
L 78.727017 192.754786 
L 80.358447 173.079767 
L 81.989877 175.923507 
L 85.252736 166.629997 
L 86.884166 168.370838 
L 88.515596 168.435644 
L 90.147026 165.140265 
L 91.778456 164.393403 
L 93.409886 162.331257 
L 95.041316 167.690168 
L 96.672746 163.162429 
L 98.304175 166.066023 
L 99.935605 165.401041 
L 101.567035 168.865526 
L 103.198465 164.038745 
L 104.829895 165.555672 
L 106.461325 164.015564 
L 108.092755 164.096688 
L 109.724185 164.766499 
L 111.355614 164.885657 
L 112.987044 161.608968 
L 114.618474 165.246812 
L 116.249904 162.719292 
L 117.881334 159.183528 
L 121.144194 158.923137 
L 122.775624 160.006811 
L 124.407053 161.248726 
L 126.038483 162.91569 
L 127.669913 162.441693 
L 129.301343 159.995562 
L 130.932773 159.379975 
L 132.564203 159.649812 
L 134.195633 161.509623 
L 135.827063 158.155842 
L 137.458492 158.726527 
L 139.089922 156.725906 
L 140.721352 156.896523 
L 142.352782 158.776972 
L 143.984212 158.858295 
L 145.615642 156.46036 
L 147.247072 158.915966 
L 148.878502 154.958729 
L 150.509931 156.44429 
L 152.141361 159.791137 
L 153.772791 159.061919 
L 155.404221 159.209065 
L 157.035651 157.089748 
L 158.667081 155.684108 
L 161.929941 154.357241 
L 163.56137 155.39074 
L 165.1928 156.559738 
L 166.82423 155.58383 
L 168.45566 157.25328 
L 170.08709 155.788044 
L 171.71852 152.622089 
L 173.34995 153.533541 
L 174.98138 154.219072 
L 176.61281 154.630745 
L 179.875669 154.078812 
L 181.507099 153.556992 
L 183.138529 155.473264 
L 186.401389 152.542422 
L 188.032819 153.289029 
L 189.664249 154.357963 
L 191.295678 154.539254 
L 192.927108 153.395362 
L 194.558538 156.078711 
L 196.189968 155.230961 
L 197.821398 156.851282 
L 199.452828 152.617885 
L 201.084258 153.314528 
L 202.715688 152.298999 
L 204.347117 150.282039 
L 205.978547 150.897155 
L 207.609977 154.077941 
L 209.241407 154.21251 
L 210.872837 151.533399 
L 212.504267 150.270527 
L 214.135697 154.011551 
L 215.767127 154.05248 
L 217.398556 153.388142 
L 219.029986 149.824658 
L 220.661416 154.72755 
L 222.292846 153.385539 
L 223.924276 150.835911 
L 225.555706 154.158876 
L 227.187136 150.166368 
L 228.818566 150.417188 
L 230.449995 152.616835 
L 232.081425 153.56232 
L 233.712855 151.995727 
L 235.344285 153.793562 
L 236.975715 148.9791 
L 238.607145 154.097054 
L 240.238575 151.990919 
L 241.870005 150.341995 
L 243.501434 153.081843 
L 245.132864 150.800152 
L 246.764294 151.533301 
L 248.395724 151.633864 
L 250.027154 150.713909 
L 251.658584 149.60194 
L 253.290014 151.721123 
L 254.921444 151.764852 
L 256.552873 151.319723 
L 258.184303 147.002451 
L 259.815733 154.365293 
L 261.447163 150.882459 
L 263.078593 152.509921 
L 264.710023 151.920653 
L 266.341453 150.265795 
L 267.972883 153.327785 
L 269.604312 151.676127 
L 271.235742 149.107517 
L 272.867172 152.614194 
L 274.498602 149.441086 
L 276.130032 149.990577 
L 277.761462 152.446504 
L 279.392892 152.72189 
L 281.024322 152.652414 
L 282.655751 151.942913 
L 284.287181 151.404422 
L 285.918611 152.583293 
L 287.550041 154.213683 
L 289.181471 154.632145 
L 290.812901 153.007723 
L 292.444331 152.743596 
L 294.075761 152.109707 
L 295.70719 155.206024 
L 297.33862 153.762834 
L 298.97005 153.690364 
L 300.60148 155.568405 
L 302.23291 153.923946 
L 303.86434 154.127823 
L 305.49577 152.290558 
L 307.1272 151.577147 
L 308.75863 151.86886 
L 310.390059 153.929813 
L 312.021489 153.865429 
L 313.652919 153.370045 
L 315.284349 153.504785 
L 316.915779 151.968819 
L 318.547209 153.767332 
L 320.178639 151.297326 
L 321.810069 152.262773 
L 323.441498 150.200615 
L 325.072928 152.685098 
L 326.704358 152.684438 
L 328.335788 152.095905 
L 329.967218 151.911769 
L 331.598648 152.622217 
L 333.230078 153.657564 
L 336.492937 150.676398 
L 338.124367 154.397572 
L 339.755797 151.573678 
L 341.387227 149.980239 
L 343.018657 151.451863 
L 344.650087 152.258313 
L 346.281517 151.126658 
L 347.912947 151.641681 
L 349.544376 150.404734 
L 351.175806 152.186159 
L 352.807236 153.33884 
L 354.438666 155.410821 
L 356.070096 152.719484 
L 357.701526 154.53174 
L 359.332956 152.391027 
L 360.964386 152.503815 
L 362.595815 154.236881 
L 364.227245 150.627419 
L 365.858675 154.69889 
L 367.490105 152.968729 
L 369.121535 153.604078 
L 370.752965 152.588489 
L 372.384395 151.348621 
L 374.015825 152.542349 
L 375.647254 152.15399 
L 377.278684 152.772571 
L 378.910114 154.417405 
L 380.541544 154.216067 
L 382.172974 150.909824 
L 383.804404 152.575681 
L 385.435834 153.050539 
L 387.067264 152.887087 
L 388.698693 152.446593 
L 391.961553 153.102258 
L 393.592983 152.495774 
L 395.224413 154.998239 
L 396.855843 151.575268 
L 398.487273 153.126542 
L 398.487273 153.126542 
" clip-path="url(#p48e9d8e53e)" style="fill: none; stroke: #0000ff; stroke-width: 1.5; stroke-linecap: square"/>
   </g>
   <g id="line2d_22">
    <path d="M 73.832727 237.132873 
L 75.464157 180.544932 
L 77.095587 158.868651 
L 78.727017 152.064378 
L 80.358447 143.281897 
L 81.989877 141.928697 
L 83.621307 137.20045 
L 85.252736 137.44052 
L 86.884166 138.989402 
L 88.515596 142.387353 
L 90.147026 139.58678 
L 91.778456 135.539367 
L 93.409886 138.335119 
L 95.041316 137.677673 
L 96.672746 136.040383 
L 98.304175 140.386493 
L 99.935605 140.719476 
L 101.567035 144.367929 
L 103.198465 136.737132 
L 104.829895 141.475868 
L 106.461325 136.95326 
L 108.092755 138.821272 
L 109.724185 140.889155 
L 111.355614 135.984489 
L 112.987044 137.9755 
L 114.618474 141.653343 
L 116.249904 138.301057 
L 117.881334 133.53371 
L 119.512764 131.173531 
L 121.144194 134.286184 
L 122.775624 132.891846 
L 126.038483 138.589727 
L 127.669913 137.787998 
L 129.301343 136.006689 
L 130.932773 133.986598 
L 132.564203 136.055109 
L 134.195633 137.637913 
L 135.827063 133.96944 
L 137.458492 135.490579 
L 139.089922 131.378438 
L 140.721352 129.671065 
L 142.352782 133.364558 
L 143.984212 135.785668 
L 145.615642 132.509771 
L 148.878502 129.546101 
L 150.509931 134.265823 
L 152.141361 135.186014 
L 153.772791 135.734206 
L 155.404221 130.136006 
L 157.035651 132.51699 
L 158.667081 132.129801 
L 160.298511 131.608603 
L 161.929941 130.739567 
L 163.56137 133.280266 
L 165.1928 133.891961 
L 166.82423 131.507152 
L 168.45566 133.135056 
L 170.08709 132.698603 
L 171.71852 129.047823 
L 173.34995 128.826132 
L 174.98138 131.136974 
L 176.61281 130.931192 
L 178.244239 129.837052 
L 179.875669 131.641109 
L 181.507099 132.996713 
L 183.138529 131.036015 
L 184.769959 130.483767 
L 186.401389 130.83693 
L 188.032819 130.784952 
L 189.664249 132.918516 
L 191.295678 129.526397 
L 192.927108 129.343649 
L 194.558538 132.858389 
L 196.189968 132.756846 
L 197.821398 133.28152 
L 199.452828 130.213771 
L 201.084258 128.974566 
L 202.715688 128.404898 
L 204.347117 127.389666 
L 205.978547 128.298317 
L 207.609977 132.372862 
L 209.241407 132.502749 
L 210.872837 128.95044 
L 212.504267 127.6208 
L 214.135697 133.004925 
L 215.767127 130.048776 
L 217.398556 133.065574 
L 219.029986 127.784012 
L 220.661416 135.332716 
L 222.292846 131.279132 
L 223.924276 130.620297 
L 225.555706 132.215657 
L 227.187136 127.178864 
L 228.818566 128.864592 
L 230.449995 131.611377 
L 232.081425 132.51462 
L 233.712855 130.346005 
L 235.344285 131.020549 
L 236.975715 127.870305 
L 238.607145 132.095568 
L 240.238575 130.238946 
L 241.870005 127.837763 
L 243.501434 131.353635 
L 245.132864 129.238375 
L 246.764294 129.525527 
L 248.395724 130.345129 
L 250.027154 128.650566 
L 251.658584 125.641042 
L 253.290014 126.981713 
L 254.921444 129.486994 
L 256.552873 129.616472 
L 258.184303 124.659474 
L 259.815733 131.037079 
L 261.447163 129.314681 
L 263.078593 130.770789 
L 264.710023 131.032616 
L 266.341453 127.207993 
L 267.972883 131.886271 
L 269.604312 131.486602 
L 271.235742 127.761619 
L 272.867172 132.730502 
L 274.498602 128.109531 
L 276.130032 126.634717 
L 277.761462 129.914752 
L 279.392892 131.292172 
L 281.024322 131.074116 
L 282.655751 130.117898 
L 284.287181 129.024217 
L 285.918611 132.464915 
L 287.550041 133.360644 
L 289.181471 134.579565 
L 290.812901 133.387954 
L 292.444331 130.243686 
L 294.075761 132.032847 
L 295.70719 135.494962 
L 297.33862 132.986301 
L 298.97005 130.18986 
L 300.60148 134.884864 
L 302.23291 134.385579 
L 303.86434 134.394961 
L 305.49577 131.081296 
L 307.1272 131.489965 
L 308.75863 132.574763 
L 310.390059 134.08599 
L 312.021489 135.751306 
L 313.652919 131.984229 
L 315.284349 131.565148 
L 316.915779 131.696233 
L 318.547209 134.974341 
L 320.178639 130.987402 
L 321.810069 132.192644 
L 323.441498 128.859963 
L 325.072928 132.528159 
L 326.704358 133.080873 
L 328.335788 129.902362 
L 331.598648 130.976803 
L 333.230078 132.325256 
L 334.861508 131.893408 
L 336.492937 129.692534 
L 338.124367 133.243935 
L 339.755797 131.459998 
L 341.387227 130.103821 
L 343.018657 131.692029 
L 344.650087 132.816924 
L 346.281517 130.688457 
L 347.912947 130.312709 
L 349.544376 127.315087 
L 351.175806 130.973346 
L 352.807236 128.825066 
L 354.438666 132.313917 
L 356.070096 131.649035 
L 357.701526 134.944613 
L 360.964386 131.831344 
L 362.595815 134.804765 
L 364.227245 131.595064 
L 365.858675 135.098925 
L 367.490105 132.905241 
L 369.121535 131.035123 
L 370.752965 133.790375 
L 372.384395 131.401857 
L 374.015825 133.427839 
L 375.647254 132.310446 
L 377.278684 132.391358 
L 378.910114 133.361426 
L 380.541544 134.539045 
L 382.172974 130.085777 
L 383.804404 132.183999 
L 385.435834 132.658988 
L 387.067264 132.561299 
L 388.698693 133.482316 
L 390.330123 131.371304 
L 391.961553 133.064142 
L 393.592983 131.231539 
L 395.224413 133.317009 
L 396.855843 131.968582 
L 398.487273 131.85635 
L 398.487273 131.85635 
" clip-path="url(#p48e9d8e53e)" style="fill: none; stroke-dasharray: 9.6,2.4,1.5,2.4; stroke-dashoffset: 0; stroke: #008000; stroke-width: 1.5"/>
   </g>
   <g id="line2d_23">
    <path d="M 73.832727 114.522584 
L 75.464157 125.722879 
L 77.095587 91.967288 
L 78.727017 105.383308 
L 80.358447 91.424853 
L 81.989877 87.679724 
L 83.621307 105.240676 
L 85.252736 101.032495 
L 86.884166 87.766332 
L 88.515596 91.421371 
L 90.147026 96.131683 
L 91.778456 91.747137 
L 93.409886 96.164922 
L 95.041316 92.070083 
L 96.672746 96.56496 
L 98.304175 100.706027 
L 101.567035 109.9438 
L 103.198465 75.453281 
L 104.829895 91.483135 
L 106.461325 71.875812 
L 108.092755 92.182472 
L 109.724185 92.013601 
L 111.355614 71.559975 
L 112.987044 100.762729 
L 114.618474 100.916674 
L 116.249904 79.263278 
L 117.881334 71.153271 
L 119.512764 72.224893 
L 121.144194 91.805152 
L 122.775624 79.716362 
L 124.407053 83.26005 
L 126.038483 71.704264 
L 127.669913 104.936835 
L 129.301343 79.441813 
L 130.932773 79.912114 
L 132.564203 91.906904 
L 134.195633 105.287005 
L 135.827063 71.659965 
L 137.458492 87.867595 
L 139.089922 58.035916 
L 140.721352 57.282634 
L 142.352782 83.326177 
L 143.984212 84.307284 
L 145.615642 83.24118 
L 147.247072 91.838889 
L 148.878502 72.23735 
L 150.509931 87.600797 
L 152.141361 83.375708 
L 153.772791 105.045918 
L 155.404221 96.310469 
L 157.035651 75.989927 
L 158.667081 87.685049 
L 160.298511 83.014262 
L 161.929941 87.459199 
L 163.56137 83.67211 
L 165.1928 84.079979 
L 166.82423 76.216687 
L 168.45566 83.34544 
L 170.08709 104.958301 
L 171.71852 79.60463 
L 173.34995 68.586555 
L 174.98138 83.734931 
L 176.61281 91.597898 
L 178.244239 87.901406 
L 179.875669 75.720465 
L 181.507099 100.488542 
L 183.138529 91.389914 
L 184.769959 83.247501 
L 186.401389 87.583095 
L 188.032819 88.224061 
L 189.664249 71.523991 
L 191.295678 95.849521 
L 192.927108 54.252579 
L 194.558538 87.10771 
L 196.189968 83.40692 
L 197.821398 96.364814 
L 199.452828 75.476609 
L 201.084258 75.472156 
L 202.715688 74.908173 
L 204.347117 84.245085 
L 205.978547 67.75917 
L 207.609977 96.201994 
L 209.241407 79.899639 
L 210.872837 79.23055 
L 212.504267 68.450802 
L 214.135697 88.053813 
L 215.767127 83.337686 
L 217.398556 91.832008 
L 219.029986 87.285728 
L 220.661416 100.593322 
L 222.292846 83.565965 
L 223.924276 87.89653 
L 225.555706 91.74662 
L 227.187136 75.427887 
L 228.818566 83.37682 
L 230.449995 83.268467 
L 232.081425 79.563206 
L 233.712855 79.555651 
L 235.344285 75.105313 
L 236.975715 79.447423 
L 238.607145 100.676554 
L 240.238575 71.503316 
L 241.870005 79.272678 
L 243.501434 96.38095 
L 245.132864 64.429998 
L 246.764294 79.570324 
L 248.395724 91.814941 
L 250.027154 79.46997 
L 251.658584 87.758159 
L 253.290014 67.821836 
L 254.921444 75.516279 
L 256.552873 87.244477 
L 259.815733 64.060319 
L 261.447163 83.214913 
L 263.078593 91.954545 
L 264.710023 75.873765 
L 266.341453 65.385864 
L 267.972883 91.877543 
L 269.604312 87.554656 
L 271.235742 83.865671 
L 272.867172 92.072752 
L 274.498602 87.500613 
L 276.130032 79.72653 
L 277.761462 83.92432 
L 279.392892 96.297521 
L 281.024322 96.027448 
L 282.655751 53.716051 
L 284.287181 87.460603 
L 285.918611 79.711685 
L 287.550041 79.469708 
L 289.181471 91.621524 
L 290.812901 100.771633 
L 292.444331 83.769695 
L 294.075761 79.768226 
L 295.70719 91.506223 
L 297.33862 57.441088 
L 300.60148 100.623571 
L 302.23291 105.045271 
L 303.86434 100.49932 
L 305.49577 79.546506 
L 307.1272 91.348347 
L 308.75863 91.875115 
L 310.390059 92.127853 
L 312.021489 101.000555 
L 313.652919 87.766024 
L 315.284349 87.91316 
L 316.915779 96.392194 
L 318.547209 83.824876 
L 320.178639 79.685507 
L 321.810069 100.849435 
L 323.441498 87.612059 
L 325.072928 87.816487 
L 326.704358 86.989219 
L 328.335788 57.20762 
L 329.967218 87.618674 
L 331.598648 91.589941 
L 333.230078 75.664442 
L 334.861508 79.224716 
L 336.492937 100.185408 
L 338.124367 87.640575 
L 339.755797 92.09629 
L 341.387227 87.775066 
L 343.018657 87.691254 
L 344.650087 96.255495 
L 346.281517 91.63232 
L 347.912947 87.393042 
L 349.544376 87.497186 
L 351.175806 83.651403 
L 352.807236 75.282677 
L 354.438666 91.597413 
L 356.070096 71.728431 
L 357.701526 109.975181 
L 359.332956 92.172215 
L 360.964386 95.623421 
L 362.595815 109.803837 
L 364.227245 91.723313 
L 365.858675 105.333811 
L 367.490105 100.603993 
L 369.121535 91.897943 
L 370.752965 105.092522 
L 372.384395 83.373163 
L 374.015825 91.696202 
L 375.647254 79.372565 
L 377.278684 91.974453 
L 378.910114 101.19585 
L 380.541544 96.185243 
L 382.172974 53.568 
L 383.804404 96.083841 
L 385.435834 105.316205 
L 387.067264 79.359774 
L 388.698693 87.589035 
L 390.330123 75.594686 
L 393.592983 100.682832 
L 395.224413 75.761677 
L 396.855843 82.99216 
L 398.487273 91.583041 
L 398.487273 91.583041 
" clip-path="url(#p48e9d8e53e)" style="fill: none; stroke: #ff0000; stroke-width: 1.5; stroke-linecap: square"/>
   </g>
   <g id="patch_3">
    <path d="M 57.6 307.584 
L 57.6 41.472 
" style="fill: none; stroke: #000000; stroke-width: 0.8; stroke-linejoin: miter; stroke-linecap: square"/>
   </g>
   <g id="patch_4">
    <path d="M 414.72 307.584 
L 414.72 41.472 
" style="fill: none; stroke: #000000; stroke-width: 0.8; stroke-linejoin: miter; stroke-linecap: square"/>
   </g>
   <g id="patch_5">
    <path d="M 57.6 307.584 
L 414.72 307.584 
" style="fill: none; stroke: #000000; stroke-width: 0.8; stroke-linejoin: miter; stroke-linecap: square"/>
   </g>
   <g id="patch_6">
    <path d="M 57.6 41.472 
L 414.72 41.472 
" style="fill: none; stroke: #000000; stroke-width: 0.8; stroke-linejoin: miter; stroke-linecap: square"/>
   </g>
   <g id="text_13">
    <!-- Średnie i najlepsze przystosowanie w każdej generacji -->
    <g transform="translate(73.26 35.472) scale(0.12 -0.12)">
     <defs>
      <path id="DejaVuSans-15a" d="M 2236 5921 
L 2814 5921 
L 2102 5096 
L 1623 5096 
L 2236 5921 
z
M 3425 4513 
L 3425 3897 
Q 3066 4069 2747 4153 
Q 2428 4238 2131 4238 
Q 1616 4238 1336 4038 
Q 1056 3838 1056 3469 
Q 1056 3159 1242 3001 
Q 1428 2844 1947 2747 
L 2328 2669 
Q 3034 2534 3370 2195 
Q 3706 1856 3706 1288 
Q 3706 609 3251 259 
Q 2797 -91 1919 -91 
Q 1588 -91 1214 -16 
Q 841 59 441 206 
L 441 856 
Q 825 641 1194 531 
Q 1563 422 1919 422 
Q 2459 422 2753 634 
Q 3047 847 3047 1241 
Q 3047 1584 2836 1778 
Q 2625 1972 2144 2069 
L 1759 2144 
Q 1053 2284 737 2584 
Q 422 2884 422 3419 
Q 422 4038 858 4394 
Q 1294 4750 2059 4750 
Q 2388 4750 2728 4690 
Q 3069 4631 3425 4513 
z
" transform="scale(0.015625)"/>
      <path id="DejaVuSans-64" d="M 2906 2969 
L 2906 4863 
L 3481 4863 
L 3481 0 
L 2906 0 
L 2906 525 
Q 2725 213 2448 61 
Q 2172 -91 1784 -91 
Q 1150 -91 751 415 
Q 353 922 353 1747 
Q 353 2572 751 3078 
Q 1150 3584 1784 3584 
Q 2172 3584 2448 3432 
Q 2725 3281 2906 2969 
z
M 947 1747 
Q 947 1113 1208 752 
Q 1469 391 1925 391 
Q 2381 391 2643 752 
Q 2906 1113 2906 1747 
Q 2906 2381 2643 2742 
Q 2381 3103 1925 3103 
Q 1469 3103 1208 2742 
Q 947 2381 947 1747 
z
" transform="scale(0.015625)"/>
      <path id="DejaVuSans-20" transform="scale(0.015625)"/>
      <path id="DejaVuSans-6c" d="M 603 4863 
L 1178 4863 
L 1178 0 
L 603 0 
L 603 4863 
z
" transform="scale(0.015625)"/>
      <path id="DejaVuSans-70" d="M 1159 525 
L 1159 -1331 
L 581 -1331 
L 581 3500 
L 1159 3500 
L 1159 2969 
Q 1341 3281 1617 3432 
Q 1894 3584 2278 3584 
Q 2916 3584 3314 3078 
Q 3713 2572 3713 1747 
Q 3713 922 3314 415 
Q 2916 -91 2278 -91 
Q 1894 -91 1617 61 
Q 1341 213 1159 525 
z
M 3116 1747 
Q 3116 2381 2855 2742 
Q 2594 3103 2138 3103 
Q 1681 3103 1420 2742 
Q 1159 2381 1159 1747 
Q 1159 1113 1420 752 
Q 1681 391 2138 391 
Q 2594 391 2855 752 
Q 3116 1113 3116 1747 
z
" transform="scale(0.015625)"/>
      <path id="DejaVuSans-6b" d="M 581 4863 
L 1159 4863 
L 1159 1991 
L 2875 3500 
L 3609 3500 
L 1753 1863 
L 3688 0 
L 2938 0 
L 1159 1709 
L 1159 0 
L 581 0 
L 581 4863 
z
" transform="scale(0.015625)"/>
      <path id="DejaVuSans-17c" d="M 1378 4863 
L 1953 4863 
L 1953 4134 
L 1378 4134 
L 1378 4863 
z
M 1672 3584 
L 1672 3584 
z
M 353 3500 
L 3084 3500 
L 3084 2975 
L 922 459 
L 3084 459 
L 3084 0 
L 275 0 
L 275 525 
L 2438 3041 
L 353 3041 
L 353 3500 
z
" transform="scale(0.015625)"/>
      <path id="DejaVuSans-67" d="M 2906 1791 
Q 2906 2416 2648 2759 
Q 2391 3103 1925 3103 
Q 1463 3103 1205 2759 
Q 947 2416 947 1791 
Q 947 1169 1205 825 
Q 1463 481 1925 481 
Q 2391 481 2648 825 
Q 2906 1169 2906 1791 
z
M 3481 434 
Q 3481 -459 3084 -895 
Q 2688 -1331 1869 -1331 
Q 1566 -1331 1297 -1286 
Q 1028 -1241 775 -1147 
L 775 -588 
Q 1028 -725 1275 -790 
Q 1522 -856 1778 -856 
Q 2344 -856 2625 -561 
Q 2906 -266 2906 331 
L 2906 616 
Q 2728 306 2450 153 
Q 2172 0 1784 0 
Q 1141 0 747 490 
Q 353 981 353 1791 
Q 353 2603 747 3093 
Q 1141 3584 1784 3584 
Q 2172 3584 2450 3431 
Q 2728 3278 2906 2969 
L 2906 3500 
L 3481 3500 
L 3481 434 
z
" transform="scale(0.015625)"/>
     </defs>
     <use xlink:href="#DejaVuSans-15a"/>
     <use xlink:href="#DejaVuSans-72" transform="translate(63.476562 0)"/>
     <use xlink:href="#DejaVuSans-65" transform="translate(102.339844 0)"/>
     <use xlink:href="#DejaVuSans-64" transform="translate(163.863281 0)"/>
     <use xlink:href="#DejaVuSans-6e" transform="translate(227.339844 0)"/>
     <use xlink:href="#DejaVuSans-69" transform="translate(290.71875 0)"/>
     <use xlink:href="#DejaVuSans-65" transform="translate(318.501953 0)"/>
     <use xlink:href="#DejaVuSans-20" transform="translate(380.025391 0)"/>
     <use xlink:href="#DejaVuSans-69" transform="translate(411.8125 0)"/>
     <use xlink:href="#DejaVuSans-20" transform="translate(439.595703 0)"/>
     <use xlink:href="#DejaVuSans-6e" transform="translate(471.382812 0)"/>
     <use xlink:href="#DejaVuSans-61" transform="translate(534.761719 0)"/>
     <use xlink:href="#DejaVuSans-6a" transform="translate(596.041016 0)"/>
     <use xlink:href="#DejaVuSans-6c" transform="translate(623.824219 0)"/>
     <use xlink:href="#DejaVuSans-65" transform="translate(651.607422 0)"/>
     <use xlink:href="#DejaVuSans-70" transform="translate(713.130859 0)"/>
     <use xlink:href="#DejaVuSans-73" transform="translate(776.607422 0)"/>
     <use xlink:href="#DejaVuSans-7a" transform="translate(828.707031 0)"/>
     <use xlink:href="#DejaVuSans-65" transform="translate(881.197266 0)"/>
     <use xlink:href="#DejaVuSans-20" transform="translate(942.720703 0)"/>
     <use xlink:href="#DejaVuSans-70" transform="translate(974.507812 0)"/>
     <use xlink:href="#DejaVuSans-72" transform="translate(1037.984375 0)"/>
     <use xlink:href="#DejaVuSans-7a" transform="translate(1079.097656 0)"/>
     <use xlink:href="#DejaVuSans-79" transform="translate(1131.587891 0)"/>
     <use xlink:href="#DejaVuSans-73" transform="translate(1190.767578 0)"/>
     <use xlink:href="#DejaVuSans-74" transform="translate(1242.867188 0)"/>
     <use xlink:href="#DejaVuSans-6f" transform="translate(1282.076172 0)"/>
     <use xlink:href="#DejaVuSans-73" transform="translate(1343.257812 0)"/>
     <use xlink:href="#DejaVuSans-6f" transform="translate(1395.357422 0)"/>
     <use xlink:href="#DejaVuSans-77" transform="translate(1456.539062 0)"/>
     <use xlink:href="#DejaVuSans-61" transform="translate(1538.326172 0)"/>
     <use xlink:href="#DejaVuSans-6e" transform="translate(1599.605469 0)"/>
     <use xlink:href="#DejaVuSans-69" transform="translate(1662.984375 0)"/>
     <use xlink:href="#DejaVuSans-65" transform="translate(1690.767578 0)"/>
     <use xlink:href="#DejaVuSans-20" transform="translate(1752.291016 0)"/>
     <use xlink:href="#DejaVuSans-77" transform="translate(1784.078125 0)"/>
     <use xlink:href="#DejaVuSans-20" transform="translate(1865.865234 0)"/>
     <use xlink:href="#DejaVuSans-6b" transform="translate(1897.652344 0)"/>
     <use xlink:href="#DejaVuSans-61" transform="translate(1953.8125 0)"/>
     <use xlink:href="#DejaVuSans-17c" transform="translate(2015.091797 0)"/>
     <use xlink:href="#DejaVuSans-64" transform="translate(2067.582031 0)"/>
     <use xlink:href="#DejaVuSans-65" transform="translate(2131.058594 0)"/>
     <use xlink:href="#DejaVuSans-6a" transform="translate(2192.582031 0)"/>
     <use xlink:href="#DejaVuSans-20" transform="translate(2220.365234 0)"/>
     <use xlink:href="#DejaVuSans-67" transform="translate(2252.152344 0)"/>
     <use xlink:href="#DejaVuSans-65" transform="translate(2315.628906 0)"/>
     <use xlink:href="#DejaVuSans-6e" transform="translate(2377.152344 0)"/>
     <use xlink:href="#DejaVuSans-65" transform="translate(2440.53125 0)"/>
     <use xlink:href="#DejaVuSans-72" transform="translate(2502.054688 0)"/>
     <use xlink:href="#DejaVuSans-61" transform="translate(2543.167969 0)"/>
     <use xlink:href="#DejaVuSans-63" transform="translate(2604.447266 0)"/>
     <use xlink:href="#DejaVuSans-6a" transform="translate(2659.427734 0)"/>
     <use xlink:href="#DejaVuSans-69" transform="translate(2687.210938 0)"/>
    </g>
   </g>
   <g id="legend_1">
    <g id="patch_7">
     <path d="M 279.790313 302.584 
L 407.72 302.584 
Q 409.72 302.584 409.72 300.584 
L 409.72 257.549625 
Q 409.72 255.549625 407.72 255.549625 
L 279.790313 255.549625 
Q 277.790313 255.549625 277.790313 257.549625 
L 277.790313 300.584 
Q 277.790313 302.584 279.790313 302.584 
z
" style="fill: #ffffff; opacity: 0.8; stroke: #cccccc; stroke-linejoin: miter"/>
    </g>
    <g id="line2d_24">
     <path d="M 281.790313 263.648062 
L 291.790313 263.648062 
L 301.790313 263.648062 
" style="fill: none; stroke: #0000ff; stroke-width: 1.5; stroke-linecap: square"/>
    </g>
    <g id="text_14">
     <!-- Średnia -->
     <g transform="translate(309.790313 267.148062) scale(0.1 -0.1)">
      <use xlink:href="#DejaVuSans-15a"/>
      <use xlink:href="#DejaVuSans-72" transform="translate(63.476562 0)"/>
      <use xlink:href="#DejaVuSans-65" transform="translate(102.339844 0)"/>
      <use xlink:href="#DejaVuSans-64" transform="translate(163.863281 0)"/>
      <use xlink:href="#DejaVuSans-6e" transform="translate(227.339844 0)"/>
      <use xlink:href="#DejaVuSans-69" transform="translate(290.71875 0)"/>
      <use xlink:href="#DejaVuSans-61" transform="translate(318.501953 0)"/>
     </g>
    </g>
    <g id="line2d_25">
     <path d="M 281.790313 278.326188 
L 291.790313 278.326188 
L 301.790313 278.326188 
" style="fill: none; stroke-dasharray: 9.6,2.4,1.5,2.4; stroke-dashoffset: 0; stroke: #008000; stroke-width: 1.5"/>
    </g>
    <g id="text_15">
     <!-- ±1 Odchylenie std. -->
     <g transform="translate(309.790313 281.826188) scale(0.1 -0.1)">
      <defs>
       <path id="DejaVuSans-b1" d="M 2944 4013 
L 2944 2803 
L 4684 2803 
L 4684 2272 
L 2944 2272 
L 2944 1063 
L 2419 1063 
L 2419 2272 
L 678 2272 
L 678 2803 
L 2419 2803 
L 2419 4013 
L 2944 4013 
z
M 678 531 
L 4684 531 
L 4684 0 
L 678 0 
L 678 531 
z
" transform="scale(0.015625)"/>
       <path id="DejaVuSans-4f" d="M 2522 4238 
Q 1834 4238 1429 3725 
Q 1025 3213 1025 2328 
Q 1025 1447 1429 934 
Q 1834 422 2522 422 
Q 3209 422 3611 934 
Q 4013 1447 4013 2328 
Q 4013 3213 3611 3725 
Q 3209 4238 2522 4238 
z
M 2522 4750 
Q 3503 4750 4090 4092 
Q 4678 3434 4678 2328 
Q 4678 1225 4090 567 
Q 3503 -91 2522 -91 
Q 1538 -91 948 565 
Q 359 1222 359 2328 
Q 359 3434 948 4092 
Q 1538 4750 2522 4750 
z
" transform="scale(0.015625)"/>
       <path id="DejaVuSans-68" d="M 3513 2113 
L 3513 0 
L 2938 0 
L 2938 2094 
Q 2938 2591 2744 2837 
Q 2550 3084 2163 3084 
Q 1697 3084 1428 2787 
Q 1159 2491 1159 1978 
L 1159 0 
L 581 0 
L 581 4863 
L 1159 4863 
L 1159 2956 
Q 1366 3272 1645 3428 
Q 1925 3584 2291 3584 
Q 2894 3584 3203 3211 
Q 3513 2838 3513 2113 
z
" transform="scale(0.015625)"/>
       <path id="DejaVuSans-2e" d="M 684 794 
L 1344 794 
L 1344 0 
L 684 0 
L 684 794 
z
" transform="scale(0.015625)"/>
      </defs>
      <use xlink:href="#DejaVuSans-b1"/>
      <use xlink:href="#DejaVuSans-31" transform="translate(83.789062 0)"/>
      <use xlink:href="#DejaVuSans-20" transform="translate(147.412109 0)"/>
      <use xlink:href="#DejaVuSans-4f" transform="translate(179.199219 0)"/>
      <use xlink:href="#DejaVuSans-64" transform="translate(257.910156 0)"/>
      <use xlink:href="#DejaVuSans-63" transform="translate(321.386719 0)"/>
      <use xlink:href="#DejaVuSans-68" transform="translate(376.367188 0)"/>
      <use xlink:href="#DejaVuSans-79" transform="translate(439.746094 0)"/>
      <use xlink:href="#DejaVuSans-6c" transform="translate(498.925781 0)"/>
      <use xlink:href="#DejaVuSans-65" transform="translate(526.708984 0)"/>
      <use xlink:href="#DejaVuSans-6e" transform="translate(588.232422 0)"/>
      <use xlink:href="#DejaVuSans-69" transform="translate(651.611328 0)"/>
      <use xlink:href="#DejaVuSans-65" transform="translate(679.394531 0)"/>
      <use xlink:href="#DejaVuSans-20" transform="translate(740.917969 0)"/>
      <use xlink:href="#DejaVuSans-73" transform="translate(772.705078 0)"/>
      <use xlink:href="#DejaVuSans-74" transform="translate(824.804688 0)"/>
      <use xlink:href="#DejaVuSans-64" transform="translate(864.013672 0)"/>
      <use xlink:href="#DejaVuSans-2e" transform="translate(927.490234 0)"/>
     </g>
    </g>
    <g id="line2d_26">
     <path d="M 281.790313 293.004312 
L 291.790313 293.004312 
L 301.790313 293.004312 
" style="fill: none; stroke: #ff0000; stroke-width: 1.5; stroke-linecap: square"/>
    </g>
    <g id="text_16">
     <!-- Najlepsze -->
     <g transform="translate(309.790313 296.504312) scale(0.1 -0.1)">
      <defs>
       <path id="DejaVuSans-4e" d="M 628 4666 
L 1478 4666 
L 3547 763 
L 3547 4666 
L 4159 4666 
L 4159 0 
L 3309 0 
L 1241 3903 
L 1241 0 
L 628 0 
L 628 4666 
z
" transform="scale(0.015625)"/>
      </defs>
      <use xlink:href="#DejaVuSans-4e"/>
      <use xlink:href="#DejaVuSans-61" transform="translate(74.804688 0)"/>
      <use xlink:href="#DejaVuSans-6a" transform="translate(136.083984 0)"/>
      <use xlink:href="#DejaVuSans-6c" transform="translate(163.867188 0)"/>
      <use xlink:href="#DejaVuSans-65" transform="translate(191.650391 0)"/>
      <use xlink:href="#DejaVuSans-70" transform="translate(253.173828 0)"/>
      <use xlink:href="#DejaVuSans-73" transform="translate(316.650391 0)"/>
      <use xlink:href="#DejaVuSans-7a" transform="translate(368.75 0)"/>
      <use xlink:href="#DejaVuSans-65" transform="translate(421.240234 0)"/>
     </g>
    </g>
   </g>
  </g>
 </g>
 <defs>
  <clipPath id="p48e9d8e53e">
   <rect x="57.6" y="41.472" width="357.12" height="266.112"/>
  </clipPath>
 </defs>
</svg>
