<?xml version="1.0" encoding="utf-8" standalone="no"?>
<!DOCTYPE svg PUBLIC "-//W3C//DTD SVG 1.1//EN"
  "http://www.w3.org/Graphics/SVG/1.1/DTD/svg11.dtd">
<svg xmlns:xlink="http://www.w3.org/1999/xlink" width="460.8pt" height="345.6pt" viewBox="0 0 460.8 345.6" xmlns="http://www.w3.org/2000/svg" version="1.1">
 <metadata>
  <rdf:RDF xmlns:dc="http://purl.org/dc/elements/1.1/" xmlns:cc="http://creativecommons.org/ns#" xmlns:rdf="http://www.w3.org/1999/02/22-rdf-syntax-ns#">
   <cc:Work>
    <dc:type rdf:resource="http://purl.org/dc/dcmitype/StillImage"/>
    <dc:date>2026-04-27T01:41:16.041929</dc:date>
    <dc:format>image/svg+xml</dc:format>
    <dc:creator>
     <cc:Agent>
      <dc:title>Matplotlib v3.10.8, https://matplotlib.org/</dc:title>
     </cc:Agent>
    </dc:creator>
   </cc:Work>
  </rdf:RDF>
 </metadata>
 <defs>
  <style type="text/css">*{stroke-linejoin: round; stroke-linecap: butt}</style>
 </defs>
 <g id="figure_1">
  <g id="patch_1">
   <path d="M 0 345.6 
L 460.8 345.6 
L 460.8 0 
L 0 0 
z
" style="fill: #ffffff"/>
  </g>
  <g id="axes_1">
   <g id="patch_2">
    <path d="M 57.6 307.584 
L 414.72 307.584 
L 414.72 41.472 
L 57.6 41.472 
z
" style="fill: #ffffff"/>
   </g>
   <g id="matplotlib.axis_1">
    <g id="xtick_1">
     <g id="line2d_1">
      <path d="M 72.201297 307.584 
L 72.201297 41.472 
" clip-path="url(#p861245b2de)" style="fill: none; stroke: #b0b0b0; stroke-width: 0.8; stroke-linecap: square"/>
     </g>
     <g id="line2d_2">
      <defs>
       <path id="meabacd2d4b" d="M 0 0 
L 0 3.5 
" style="stroke: #000000; stroke-width: 0.8"/>
      </defs>
      <g>
       <use xlink:href="#meabacd2d4b" x="72.201297" y="307.584" style="stroke: #000000; stroke-width: 0.8"/>
      </g>
     </g>
     <g id="text_1">
      <!-- 0 -->
      <g transform="translate(69.020047 322.182437) scale(0.1 -0.1)">
       <defs>
        <path id="DejaVuSans-30" d="M 2034 4250 
Q 1547 4250 1301 3770 
Q 1056 3291 1056 2328 
Q 1056 1369 1301 889 
Q 1547 409 2034 409 
Q 2525 409 2770 889 
Q 3016 1369 3016 2328 
Q 3016 3291 2770 3770 
Q 2525 4250 2034 4250 
z
M 2034 4750 
Q 2819 4750 3233 4129 
Q 3647 3509 3647 2328 
Q 3647 1150 3233 529 
Q 2819 -91 2034 -91 
Q 1250 -91 836 529 
Q 422 1150 422 2328 
Q 422 3509 836 4129 
Q 1250 4750 2034 4750 
z
" transform="scale(0.015625)"/>
       </defs>
       <use xlink:href="#DejaVuSans-30"/>
      </g>
     </g>
    </g>
    <g id="xtick_2">
     <g id="line2d_3">
      <path d="M 112.987044 307.584 
L 112.987044 41.472 
" clip-path="url(#p861245b2de)" style="fill: none; stroke: #b0b0b0; stroke-width: 0.8; stroke-linecap: square"/>
     </g>
     <g id="line2d_4">
      <g>
       <use xlink:href="#meabacd2d4b" x="112.987044" y="307.584" style="stroke: #000000; stroke-width: 0.8"/>
      </g>
     </g>
     <g id="text_2">
      <!-- 25 -->
      <g transform="translate(106.624544 322.182437) scale(0.1 -0.1)">
       <defs>
        <path id="DejaVuSans-32" d="M 1228 531 
L 3431 531 
L 3431 0 
L 469 0 
L 469 531 
Q 828 903 1448 1529 
Q 2069 2156 2228 2338 
Q 2531 2678 2651 2914 
Q 2772 3150 2772 3378 
Q 2772 3750 2511 3984 
Q 2250 4219 1831 4219 
Q 1534 4219 1204 4116 
Q 875 4013 500 3803 
L 500 4441 
Q 881 4594 1212 4672 
Q 1544 4750 1819 4750 
Q 2544 4750 2975 4387 
Q 3406 4025 3406 3419 
Q 3406 3131 3298 2873 
Q 3191 2616 2906 2266 
Q 2828 2175 2409 1742 
Q 1991 1309 1228 531 
z
" transform="scale(0.015625)"/>
        <path id="DejaVuSans-35" d="M 691 4666 
L 3169 4666 
L 3169 4134 
L 1269 4134 
L 1269 2991 
Q 1406 3038 1543 3061 
Q 1681 3084 1819 3084 
Q 2600 3084 3056 2656 
Q 3513 2228 3513 1497 
Q 3513 744 3044 326 
Q 2575 -91 1722 -91 
Q 1428 -91 1123 -41 
Q 819 9 494 109 
L 494 744 
Q 775 591 1075 516 
Q 1375 441 1709 441 
Q 2250 441 2565 725 
Q 2881 1009 2881 1497 
Q 2881 1984 2565 2268 
Q 2250 2553 1709 2553 
Q 1456 2553 1204 2497 
Q 953 2441 691 2322 
L 691 4666 
z
" transform="scale(0.015625)"/>
       </defs>
       <use xlink:href="#DejaVuSans-32"/>
       <use xlink:href="#DejaVuSans-35" transform="translate(63.623047 0)"/>
      </g>
     </g>
    </g>
    <g id="xtick_3">
     <g id="line2d_5">
      <path d="M 153.772791 307.584 
L 153.772791 41.472 
" clip-path="url(#p861245b2de)" style="fill: none; stroke: #b0b0b0; stroke-width: 0.8; stroke-linecap: square"/>
     </g>
     <g id="line2d_6">
      <g>
       <use xlink:href="#meabacd2d4b" x="153.772791" y="307.584" style="stroke: #000000; stroke-width: 0.8"/>
      </g>
     </g>
     <g id="text_3">
      <!-- 50 -->
      <g transform="translate(147.410291 322.182437) scale(0.1 -0.1)">
       <use xlink:href="#DejaVuSans-35"/>
       <use xlink:href="#DejaVuSans-30" transform="translate(63.623047 0)"/>
      </g>
     </g>
    </g>
    <g id="xtick_4">
     <g id="line2d_7">
      <path d="M 194.558538 307.584 
L 194.558538 41.472 
" clip-path="url(#p861245b2de)" style="fill: none; stroke: #b0b0b0; stroke-width: 0.8; stroke-linecap: square"/>
     </g>
     <g id="line2d_8">
      <g>
       <use xlink:href="#meabacd2d4b" x="194.558538" y="307.584" style="stroke: #000000; stroke-width: 0.8"/>
      </g>
     </g>
     <g id="text_4">
      <!-- 75 -->
      <g transform="translate(188.196038 322.182437) scale(0.1 -0.1)">
       <defs>
        <path id="DejaVuSans-37" d="M 525 4666 
L 3525 4666 
L 3525 4397 
L 1831 0 
L 1172 0 
L 2766 4134 
L 525 4134 
L 525 4666 
z
" transform="scale(0.015625)"/>
       </defs>
       <use xlink:href="#DejaVuSans-37"/>
       <use xlink:href="#DejaVuSans-35" transform="translate(63.623047 0)"/>
      </g>
     </g>
    </g>
    <g id="xtick_5">
     <g id="line2d_9">
      <path d="M 235.344285 307.584 
L 235.344285 41.472 
" clip-path="url(#p861245b2de)" style="fill: none; stroke: #b0b0b0; stroke-width: 0.8; stroke-linecap: square"/>
     </g>
     <g id="line2d_10">
      <g>
       <use xlink:href="#meabacd2d4b" x="235.344285" y="307.584" style="stroke: #000000; stroke-width: 0.8"/>
      </g>
     </g>
     <g id="text_5">
      <!-- 100 -->
      <g transform="translate(225.800535 322.182437) scale(0.1 -0.1)">
       <defs>
        <path id="DejaVuSans-31" d="M 794 531 
L 1825 531 
L 1825 4091 
L 703 3866 
L 703 4441 
L 1819 4666 
L 2450 4666 
L 2450 531 
L 3481 531 
L 3481 0 
L 794 0 
L 794 531 
z
" transform="scale(0.015625)"/>
       </defs>
       <use xlink:href="#DejaVuSans-31"/>
       <use xlink:href="#DejaVuSans-30" transform="translate(63.623047 0)"/>
       <use xlink:href="#DejaVuSans-30" transform="translate(127.246094 0)"/>
      </g>
     </g>
    </g>
    <g id="xtick_6">
     <g id="line2d_11">
      <path d="M 276.130032 307.584 
L 276.130032 41.472 
" clip-path="url(#p861245b2de)" style="fill: none; stroke: #b0b0b0; stroke-width: 0.8; stroke-linecap: square"/>
     </g>
     <g id="line2d_12">
      <g>
       <use xlink:href="#meabacd2d4b" x="276.130032" y="307.584" style="stroke: #000000; stroke-width: 0.8"/>
      </g>
     </g>
     <g id="text_6">
      <!-- 125 -->
      <g transform="translate(266.586282 322.182437) scale(0.1 -0.1)">
       <use xlink:href="#DejaVuSans-31"/>
       <use xlink:href="#DejaVuSans-32" transform="translate(63.623047 0)"/>
       <use xlink:href="#DejaVuSans-35" transform="translate(127.246094 0)"/>
      </g>
     </g>
    </g>
    <g id="xtick_7">
     <g id="line2d_13">
      <path d="M 316.915779 307.584 
L 316.915779 41.472 
" clip-path="url(#p861245b2de)" style="fill: none; stroke: #b0b0b0; stroke-width: 0.8; stroke-linecap: square"/>
     </g>
     <g id="line2d_14">
      <g>
       <use xlink:href="#meabacd2d4b" x="316.915779" y="307.584" style="stroke: #000000; stroke-width: 0.8"/>
      </g>
     </g>
     <g id="text_7">
      <!-- 150 -->
      <g transform="translate(307.372029 322.182437) scale(0.1 -0.1)">
       <use xlink:href="#DejaVuSans-31"/>
       <use xlink:href="#DejaVuSans-35" transform="translate(63.623047 0)"/>
       <use xlink:href="#DejaVuSans-30" transform="translate(127.246094 0)"/>
      </g>
     </g>
    </g>
    <g id="xtick_8">
     <g id="line2d_15">
      <path d="M 357.701526 307.584 
L 357.701526 41.472 
" clip-path="url(#p861245b2de)" style="fill: none; stroke: #b0b0b0; stroke-width: 0.8; stroke-linecap: square"/>
     </g>
     <g id="line2d_16">
      <g>
       <use xlink:href="#meabacd2d4b" x="357.701526" y="307.584" style="stroke: #000000; stroke-width: 0.8"/>
      </g>
     </g>
     <g id="text_8">
      <!-- 175 -->
      <g transform="translate(348.157776 322.182437) scale(0.1 -0.1)">
       <use xlink:href="#DejaVuSans-31"/>
       <use xlink:href="#DejaVuSans-37" transform="translate(63.623047 0)"/>
       <use xlink:href="#DejaVuSans-35" transform="translate(127.246094 0)"/>
      </g>
     </g>
    </g>
    <g id="xtick_9">
     <g id="line2d_17">
      <path d="M 398.487273 307.584 
L 398.487273 41.472 
" clip-path="url(#p861245b2de)" style="fill: none; stroke: #b0b0b0; stroke-width: 0.8; stroke-linecap: square"/>
     </g>
     <g id="line2d_18">
      <g>
       <use xlink:href="#meabacd2d4b" x="398.487273" y="307.584" style="stroke: #000000; stroke-width: 0.8"/>
      </g>
     </g>
     <g id="text_9">
      <!-- 200 -->
      <g transform="translate(388.943523 322.182437) scale(0.1 -0.1)">
       <use xlink:href="#DejaVuSans-32"/>
       <use xlink:href="#DejaVuSans-30" transform="translate(63.623047 0)"/>
       <use xlink:href="#DejaVuSans-30" transform="translate(127.246094 0)"/>
      </g>
     </g>
    </g>
    <g id="text_10">
     <!-- Generacje -->
     <g transform="translate(210.629531 335.860562) scale(0.1 -0.1)">
      <defs>
       <path id="DejaVuSans-47" d="M 3809 666 
L 3809 1919 
L 2778 1919 
L 2778 2438 
L 4434 2438 
L 4434 434 
Q 4069 175 3628 42 
Q 3188 -91 2688 -91 
Q 1594 -91 976 548 
Q 359 1188 359 2328 
Q 359 3472 976 4111 
Q 1594 4750 2688 4750 
Q 3144 4750 3555 4637 
Q 3966 4525 4313 4306 
L 4313 3634 
Q 3963 3931 3569 4081 
Q 3175 4231 2741 4231 
Q 1884 4231 1454 3753 
Q 1025 3275 1025 2328 
Q 1025 1384 1454 906 
Q 1884 428 2741 428 
Q 3075 428 3337 486 
Q 3600 544 3809 666 
z
" transform="scale(0.015625)"/>
       <path id="DejaVuSans-65" d="M 3597 1894 
L 3597 1613 
L 953 1613 
Q 991 1019 1311 708 
Q 1631 397 2203 397 
Q 2534 397 2845 478 
Q 3156 559 3463 722 
L 3463 178 
Q 3153 47 2828 -22 
Q 2503 -91 2169 -91 
Q 1331 -91 842 396 
Q 353 884 353 1716 
Q 353 2575 817 3079 
Q 1281 3584 2069 3584 
Q 2775 3584 3186 3129 
Q 3597 2675 3597 1894 
z
M 3022 2063 
Q 3016 2534 2758 2815 
Q 2500 3097 2075 3097 
Q 1594 3097 1305 2825 
Q 1016 2553 972 2059 
L 3022 2063 
z
" transform="scale(0.015625)"/>
       <path id="DejaVuSans-6e" d="M 3513 2113 
L 3513 0 
L 2938 0 
L 2938 2094 
Q 2938 2591 2744 2837 
Q 2550 3084 2163 3084 
Q 1697 3084 1428 2787 
Q 1159 2491 1159 1978 
L 1159 0 
L 581 0 
L 581 3500 
L 1159 3500 
L 1159 2956 
Q 1366 3272 1645 3428 
Q 1925 3584 2291 3584 
Q 2894 3584 3203 3211 
Q 3513 2838 3513 2113 
z
" transform="scale(0.015625)"/>
       <path id="DejaVuSans-72" d="M 2631 2963 
Q 2534 3019 2420 3045 
Q 2306 3072 2169 3072 
Q 1681 3072 1420 2755 
Q 1159 2438 1159 1844 
L 1159 0 
L 581 0 
L 581 3500 
L 1159 3500 
L 1159 2956 
Q 1341 3275 1631 3429 
Q 1922 3584 2338 3584 
Q 2397 3584 2469 3576 
Q 2541 3569 2628 3553 
L 2631 2963 
z
" transform="scale(0.015625)"/>
       <path id="DejaVuSans-61" d="M 2194 1759 
Q 1497 1759 1228 1600 
Q 959 1441 959 1056 
Q 959 750 1161 570 
Q 1363 391 1709 391 
Q 2188 391 2477 730 
Q 2766 1069 2766 1631 
L 2766 1759 
L 2194 1759 
z
M 3341 1997 
L 3341 0 
L 2766 0 
L 2766 531 
Q 2569 213 2275 61 
Q 1981 -91 1556 -91 
Q 1019 -91 701 211 
Q 384 513 384 1019 
Q 384 1609 779 1909 
Q 1175 2209 1959 2209 
L 2766 2209 
L 2766 2266 
Q 2766 2663 2505 2880 
Q 2244 3097 1772 3097 
Q 1472 3097 1187 3025 
Q 903 2953 641 2809 
L 641 3341 
Q 956 3463 1253 3523 
Q 1550 3584 1831 3584 
Q 2591 3584 2966 3190 
Q 3341 2797 3341 1997 
z
" transform="scale(0.015625)"/>
       <path id="DejaVuSans-63" d="M 3122 3366 
L 3122 2828 
Q 2878 2963 2633 3030 
Q 2388 3097 2138 3097 
Q 1578 3097 1268 2742 
Q 959 2388 959 1747 
Q 959 1106 1268 751 
Q 1578 397 2138 397 
Q 2388 397 2633 464 
Q 2878 531 3122 666 
L 3122 134 
Q 2881 22 2623 -34 
Q 2366 -91 2075 -91 
Q 1284 -91 818 406 
Q 353 903 353 1747 
Q 353 2603 823 3093 
Q 1294 3584 2113 3584 
Q 2378 3584 2631 3529 
Q 2884 3475 3122 3366 
z
" transform="scale(0.015625)"/>
       <path id="DejaVuSans-6a" d="M 603 3500 
L 1178 3500 
L 1178 -63 
Q 1178 -731 923 -1031 
Q 669 -1331 103 -1331 
L -116 -1331 
L -116 -844 
L 38 -844 
Q 366 -844 484 -692 
Q 603 -541 603 -63 
L 603 3500 
z
M 603 4863 
L 1178 4863 
L 1178 4134 
L 603 4134 
L 603 4863 
z
" transform="scale(0.015625)"/>
      </defs>
      <use xlink:href="#DejaVuSans-47"/>
      <use xlink:href="#DejaVuSans-65" transform="translate(77.490234 0)"/>
      <use xlink:href="#DejaVuSans-6e" transform="translate(139.013672 0)"/>
      <use xlink:href="#DejaVuSans-65" transform="translate(202.392578 0)"/>
      <use xlink:href="#DejaVuSans-72" transform="translate(263.916016 0)"/>
      <use xlink:href="#DejaVuSans-61" transform="translate(305.029297 0)"/>
      <use xlink:href="#DejaVuSans-63" transform="translate(366.308594 0)"/>
      <use xlink:href="#DejaVuSans-6a" transform="translate(421.289062 0)"/>
      <use xlink:href="#DejaVuSans-65" transform="translate(449.072266 0)"/>
     </g>
    </g>
   </g>
   <g id="matplotlib.axis_2">
    <g id="ytick_1">
     <g id="line2d_19">
      <path d="M 57.6 130.35484 
L 414.72 130.35484 
" clip-path="url(#p861245b2de)" style="fill: none; stroke: #b0b0b0; stroke-width: 0.8; stroke-linecap: square"/>
     </g>
     <g id="line2d_20">
      <defs>
       <path id="m8c39011737" d="M 0 0 
L -3.5 0 
" style="stroke: #000000; stroke-width: 0.8"/>
      </defs>
      <g>
       <use xlink:href="#m8c39011737" x="57.6" y="130.35484" style="stroke: #000000; stroke-width: 0.8"/>
      </g>
     </g>
     <g id="text_11">
      <!-- $\mathdefault{10^{2}}$ -->
      <g transform="translate(33 134.154059) scale(0.1 -0.1)">
       <use xlink:href="#DejaVuSans-31" transform="translate(0 0.765625)"/>
       <use xlink:href="#DejaVuSans-30" transform="translate(63.623047 0.765625)"/>
       <use xlink:href="#DejaVuSans-32" transform="translate(128.203125 39.046875) scale(0.7)"/>
      </g>
     </g>
    </g>
    <g id="text_12">
     <!-- Przystosowanie -->
     <g transform="translate(26.920312 213.170187) rotate(-90) scale(0.1 -0.1)">
      <defs>
       <path id="DejaVuSans-50" d="M 1259 4147 
L 1259 2394 
L 2053 2394 
Q 2494 2394 2734 2622 
Q 2975 2850 2975 3272 
Q 2975 3691 2734 3919 
Q 2494 4147 2053 4147 
L 1259 4147 
z
M 628 4666 
L 2053 4666 
Q 2838 4666 3239 4311 
Q 3641 3956 3641 3272 
Q 3641 2581 3239 2228 
Q 2838 1875 2053 1875 
L 1259 1875 
L 1259 0 
L 628 0 
L 628 4666 
z
" transform="scale(0.015625)"/>
       <path id="DejaVuSans-7a" d="M 353 3500 
L 3084 3500 
L 3084 2975 
L 922 459 
L 3084 459 
L 3084 0 
L 275 0 
L 275 525 
L 2438 3041 
L 353 3041 
L 353 3500 
z
" transform="scale(0.015625)"/>
       <path id="DejaVuSans-79" d="M 2059 -325 
Q 1816 -950 1584 -1140 
Q 1353 -1331 966 -1331 
L 506 -1331 
L 506 -850 
L 844 -850 
Q 1081 -850 1212 -737 
Q 1344 -625 1503 -206 
L 1606 56 
L 191 3500 
L 800 3500 
L 1894 763 
L 2988 3500 
L 3597 3500 
L 2059 -325 
z
" transform="scale(0.015625)"/>
       <path id="DejaVuSans-73" d="M 2834 3397 
L 2834 2853 
Q 2591 2978 2328 3040 
Q 2066 3103 1784 3103 
Q 1356 3103 1142 2972 
Q 928 2841 928 2578 
Q 928 2378 1081 2264 
Q 1234 2150 1697 2047 
L 1894 2003 
Q 2506 1872 2764 1633 
Q 3022 1394 3022 966 
Q 3022 478 2636 193 
Q 2250 -91 1575 -91 
Q 1294 -91 989 -36 
Q 684 19 347 128 
L 347 722 
Q 666 556 975 473 
Q 1284 391 1588 391 
Q 1994 391 2212 530 
Q 2431 669 2431 922 
Q 2431 1156 2273 1281 
Q 2116 1406 1581 1522 
L 1381 1569 
Q 847 1681 609 1914 
Q 372 2147 372 2553 
Q 372 3047 722 3315 
Q 1072 3584 1716 3584 
Q 2034 3584 2315 3537 
Q 2597 3491 2834 3397 
z
" transform="scale(0.015625)"/>
       <path id="DejaVuSans-74" d="M 1172 4494 
L 1172 3500 
L 2356 3500 
L 2356 3053 
L 1172 3053 
L 1172 1153 
Q 1172 725 1289 603 
Q 1406 481 1766 481 
L 2356 481 
L 2356 0 
L 1766 0 
Q 1100 0 847 248 
Q 594 497 594 1153 
L 594 3053 
L 172 3053 
L 172 3500 
L 594 3500 
L 594 4494 
L 1172 4494 
z
" transform="scale(0.015625)"/>
       <path id="DejaVuSans-6f" d="M 1959 3097 
Q 1497 3097 1228 2736 
Q 959 2375 959 1747 
Q 959 1119 1226 758 
Q 1494 397 1959 397 
Q 2419 397 2687 759 
Q 2956 1122 2956 1747 
Q 2956 2369 2687 2733 
Q 2419 3097 1959 3097 
z
M 1959 3584 
Q 2709 3584 3137 3096 
Q 3566 2609 3566 1747 
Q 3566 888 3137 398 
Q 2709 -91 1959 -91 
Q 1206 -91 779 398 
Q 353 888 353 1747 
Q 353 2609 779 3096 
Q 1206 3584 1959 3584 
z
" transform="scale(0.015625)"/>
       <path id="DejaVuSans-77" d="M 269 3500 
L 844 3500 
L 1563 769 
L 2278 3500 
L 2956 3500 
L 3675 769 
L 4391 3500 
L 4966 3500 
L 4050 0 
L 3372 0 
L 2619 2869 
L 1863 0 
L 1184 0 
L 269 3500 
z
" transform="scale(0.015625)"/>
       <path id="DejaVuSans-69" d="M 603 3500 
L 1178 3500 
L 1178 0 
L 603 0 
L 603 3500 
z
M 603 4863 
L 1178 4863 
L 1178 4134 
L 603 4134 
L 603 4863 
z
" transform="scale(0.015625)"/>
      </defs>
      <use xlink:href="#DejaVuSans-50"/>
      <use xlink:href="#DejaVuSans-72" transform="translate(58.552734 0)"/>
      <use xlink:href="#DejaVuSans-7a" transform="translate(99.666016 0)"/>
      <use xlink:href="#DejaVuSans-79" transform="translate(152.15625 0)"/>
      <use xlink:href="#DejaVuSans-73" transform="translate(211.335938 0)"/>
      <use xlink:href="#DejaVuSans-74" transform="translate(263.435547 0)"/>
      <use xlink:href="#DejaVuSans-6f" transform="translate(302.644531 0)"/>
      <use xlink:href="#DejaVuSans-73" transform="translate(363.826172 0)"/>
      <use xlink:href="#DejaVuSans-6f" transform="translate(415.925781 0)"/>
      <use xlink:href="#DejaVuSans-77" transform="translate(477.107422 0)"/>
      <use xlink:href="#DejaVuSans-61" transform="translate(558.894531 0)"/>
      <use xlink:href="#DejaVuSans-6e" transform="translate(620.173828 0)"/>
      <use xlink:href="#DejaVuSans-69" transform="translate(683.552734 0)"/>
      <use xlink:href="#DejaVuSans-65" transform="translate(711.335938 0)"/>
     </g>
    </g>
   </g>
   <g id="line2d_21">
    <path d="M 73.832727 295.488 
L 75.464157 241.635234 
L 77.095587 213.001622 
L 78.727017 194.702696 
L 80.358447 186.731951 
L 81.989877 184.783172 
L 83.621307 174.886272 
L 85.252736 171.315514 
L 86.884166 164.49217 
L 88.515596 160.786067 
L 90.147026 161.759342 
L 91.778456 165.427883 
L 93.409886 160.923271 
L 95.041316 160.524131 
L 96.672746 160.352322 
L 98.304175 158.642065 
L 99.935605 159.171766 
L 101.567035 158.683534 
L 103.198465 157.850323 
L 104.829895 160.551789 
L 106.461325 158.46881 
L 108.092755 157.049125 
L 109.724185 159.914061 
L 111.355614 159.939222 
L 112.987044 161.57871 
L 114.618474 159.611469 
L 116.249904 158.953116 
L 117.881334 157.402835 
L 119.512764 162.488334 
L 121.144194 156.26024 
L 122.775624 160.143668 
L 124.407053 157.662802 
L 126.038483 156.840577 
L 127.669913 159.56351 
L 129.301343 157.019328 
L 130.932773 158.09546 
L 134.195633 157.166563 
L 135.827063 156.95154 
L 137.458492 158.02793 
L 139.089922 156.799264 
L 140.721352 158.099755 
L 142.352782 157.473195 
L 143.984212 156.600357 
L 145.615642 158.529659 
L 147.247072 159.449586 
L 148.878502 157.477979 
L 150.509931 157.26285 
L 152.141361 155.399735 
L 153.772791 158.255391 
L 155.404221 158.423194 
L 157.035651 158.392815 
L 158.667081 157.387212 
L 160.298511 157.250071 
L 161.929941 158.766295 
L 163.56137 158.132886 
L 165.1928 160.791905 
L 166.82423 158.765573 
L 168.45566 152.862509 
L 170.08709 157.387525 
L 171.71852 158.67086 
L 173.34995 157.369979 
L 174.98138 157.342158 
L 176.61281 160.093169 
L 178.244239 157.001558 
L 179.875669 159.269366 
L 181.507099 155.993958 
L 183.138529 158.265339 
L 184.769959 158.336786 
L 186.401389 153.724 
L 188.032819 155.180746 
L 189.664249 156.970738 
L 191.295678 159.774876 
L 192.927108 156.906218 
L 194.558538 157.371463 
L 196.189968 157.437662 
L 197.821398 157.123724 
L 199.452828 156.955786 
L 201.084258 153.707549 
L 202.715688 154.003354 
L 205.978547 157.261866 
L 207.609977 157.660355 
L 209.241407 156.102381 
L 210.872837 154.045739 
L 212.504267 155.175821 
L 214.135697 156.151249 
L 215.767127 155.493815 
L 217.398556 156.680595 
L 222.292846 156.005961 
L 223.924276 157.344968 
L 225.555706 155.523042 
L 227.187136 157.356108 
L 228.818566 155.752817 
L 230.449995 156.338239 
L 232.081425 155.426101 
L 233.712855 157.823632 
L 235.344285 156.280158 
L 236.975715 157.434903 
L 238.607145 156.921437 
L 240.238575 155.897092 
L 241.870005 157.031643 
L 243.501434 155.923743 
L 245.132864 156.235722 
L 246.764294 152.835874 
L 248.395724 155.378265 
L 250.027154 155.306658 
L 251.658584 155.644995 
L 253.290014 153.245843 
L 254.921444 156.405214 
L 256.552873 155.61178 
L 258.184303 155.031178 
L 259.815733 157.475459 
L 261.447163 155.865471 
L 263.078593 154.775004 
L 264.710023 158.420098 
L 266.341453 156.334068 
L 267.972883 157.13514 
L 269.604312 156.220217 
L 271.235742 154.830623 
L 272.867172 156.602984 
L 274.498602 156.01816 
L 276.130032 155.775611 
L 277.761462 158.152207 
L 279.392892 155.063361 
L 281.024322 159.657824 
L 282.655751 160.199094 
L 284.287181 157.084019 
L 285.918611 157.808025 
L 287.550041 152.996899 
L 289.181471 158.11547 
L 290.812901 155.892472 
L 292.444331 156.830932 
L 294.075761 157.447165 
L 295.70719 158.766303 
L 297.33862 153.854257 
L 298.97005 160.497975 
L 300.60148 157.072062 
L 302.23291 158.344922 
L 303.86434 155.618109 
L 305.49577 158.347982 
L 307.1272 156.101218 
L 308.75863 156.690975 
L 310.390059 157.956418 
L 312.021489 153.043513 
L 313.652919 157.148261 
L 315.284349 156.041195 
L 316.915779 156.614481 
L 318.547209 156.919565 
L 320.178639 158.849447 
L 321.810069 155.971703 
L 323.441498 154.693682 
L 325.072928 157.139989 
L 326.704358 155.993839 
L 328.335788 157.926672 
L 329.967218 156.966501 
L 331.598648 155.355412 
L 333.230078 158.650718 
L 334.861508 156.621571 
L 336.492937 156.885654 
L 338.124367 154.983698 
L 339.755797 156.774001 
L 341.387227 157.304529 
L 343.018657 157.704439 
L 344.650087 156.899898 
L 346.281517 160.203187 
L 347.912947 156.055323 
L 351.175806 158.674383 
L 352.807236 157.897873 
L 354.438666 156.482367 
L 356.070096 159.15242 
L 357.701526 157.70125 
L 359.332956 157.21721 
L 360.964386 157.873311 
L 362.595815 157.958384 
L 364.227245 157.062811 
L 365.858675 158.184554 
L 367.490105 157.893721 
L 369.121535 156.696439 
L 370.752965 156.430263 
L 372.384395 158.335012 
L 374.015825 157.135335 
L 375.647254 158.685803 
L 377.278684 155.476559 
L 378.910114 157.348867 
L 380.541544 157.470445 
L 382.172974 157.979501 
L 383.804404 155.428139 
L 385.435834 158.509185 
L 387.067264 156.564043 
L 390.330123 156.607283 
L 391.961553 157.851894 
L 393.592983 156.243063 
L 395.224413 155.993784 
L 396.855843 159.579599 
L 398.487273 156.951477 
L 398.487273 156.951477 
" clip-path="url(#p861245b2de)" style="fill: none; stroke: #0000ff; stroke-width: 1.5; stroke-linecap: square"/>
   </g>
   <g id="line2d_22">
    <path d="M 73.832727 245.36181 
L 75.464157 188.518845 
L 77.095587 164.348109 
L 78.727017 153.118868 
L 80.358447 149.110979 
L 81.989877 144.585705 
L 83.621307 139.295206 
L 85.252736 140.381572 
L 86.884166 137.300762 
L 88.515596 135.513292 
L 90.147026 139.375303 
L 91.778456 138.894858 
L 93.409886 138.942341 
L 95.041316 136.503398 
L 96.672746 135.140785 
L 98.304175 136.609482 
L 99.935605 134.324828 
L 101.567035 135.590218 
L 103.198465 137.103961 
L 104.829895 139.329048 
L 106.461325 135.873195 
L 108.092755 134.714489 
L 109.724185 138.379449 
L 111.355614 137.379123 
L 112.987044 139.637181 
L 114.618474 136.748659 
L 116.249904 137.732303 
L 117.881334 136.483508 
L 119.512764 137.700569 
L 121.144194 134.415226 
L 122.775624 138.111782 
L 124.407053 134.490303 
L 126.038483 136.240635 
L 127.669913 137.210349 
L 129.301343 134.541682 
L 130.932773 135.7557 
L 132.564203 135.440948 
L 134.195633 136.866782 
L 135.827063 135.140153 
L 137.458492 135.840152 
L 139.089922 133.710157 
L 140.721352 136.551773 
L 142.352782 135.107382 
L 143.984212 133.978459 
L 145.615642 134.805862 
L 147.247072 138.316064 
L 148.878502 135.474149 
L 150.509931 136.426493 
L 152.141361 134.295914 
L 153.772791 136.39015 
L 155.404221 135.496189 
L 157.035651 134.988443 
L 158.667081 136.180022 
L 160.298511 135.963528 
L 161.929941 139.382711 
L 163.56137 138.909705 
L 165.1928 137.675662 
L 166.82423 137.167111 
L 168.45566 131.576602 
L 170.08709 134.484876 
L 171.71852 136.226395 
L 173.34995 133.95687 
L 174.98138 135.571345 
L 176.61281 136.677958 
L 178.244239 135.844103 
L 179.875669 135.741625 
L 181.507099 133.562888 
L 183.138529 139.186058 
L 184.769959 136.403853 
L 186.401389 132.375544 
L 188.032819 133.331116 
L 191.295678 137.906981 
L 192.927108 136.942652 
L 194.558538 137.191175 
L 196.189968 139.52106 
L 197.821398 137.63826 
L 199.452828 136.164 
L 201.084258 131.91662 
L 202.715688 132.726389 
L 204.347117 134.934433 
L 205.978547 137.875354 
L 207.609977 138.98136 
L 209.241407 136.948113 
L 210.872837 132.55446 
L 212.504267 132.273432 
L 214.135697 135.944215 
L 215.767127 136.55535 
L 217.398556 134.802246 
L 219.029986 136.646126 
L 220.661416 136.302838 
L 222.292846 136.076176 
L 223.924276 138.813218 
L 225.555706 137.061266 
L 227.187136 138.202447 
L 228.818566 136.779609 
L 230.449995 137.181575 
L 232.081425 135.200253 
L 233.712855 135.766673 
L 235.344285 136.172598 
L 236.975715 138.738685 
L 238.607145 138.489942 
L 240.238575 135.343611 
L 241.870005 136.759096 
L 243.501434 134.607657 
L 245.132864 133.337105 
L 246.764294 133.913469 
L 248.395724 136.996665 
L 250.027154 135.773218 
L 251.658584 136.1168 
L 253.290014 132.663221 
L 254.921444 133.754256 
L 256.552873 135.578205 
L 258.184303 134.34393 
L 259.815733 137.946687 
L 261.447163 135.934555 
L 263.078593 135.340778 
L 264.710023 139.801197 
L 266.341453 137.092311 
L 267.972883 137.882761 
L 269.604312 135.532473 
L 271.235742 136.346751 
L 272.867172 137.357322 
L 274.498602 136.271364 
L 276.130032 135.52031 
L 277.761462 139.869491 
L 279.392892 133.055726 
L 281.024322 138.29289 
L 282.655751 139.96333 
L 284.287181 137.196021 
L 285.918611 138.475826 
L 287.550041 130.335908 
L 289.181471 137.494692 
L 290.812901 136.399475 
L 292.444331 135.875436 
L 294.075761 137.32706 
L 295.70719 137.606969 
L 297.33862 131.833954 
L 298.97005 139.471735 
L 300.60148 137.372968 
L 302.23291 139.18583 
L 303.86434 133.324443 
L 305.49577 139.227049 
L 307.1272 136.286608 
L 308.75863 136.706922 
L 310.390059 138.54226 
L 312.021489 132.644239 
L 313.652919 138.139225 
L 315.284349 136.511793 
L 316.915779 135.906973 
L 318.547209 137.516904 
L 320.178639 140.451334 
L 321.810069 136.287692 
L 323.441498 135.364684 
L 325.072928 136.445848 
L 326.704358 136.455567 
L 328.335788 139.628503 
L 329.967218 137.823836 
L 331.598648 134.114132 
L 333.230078 141.088958 
L 334.861508 136.48377 
L 336.492937 138.136795 
L 338.124367 134.556902 
L 339.755797 138.197177 
L 343.018657 138.678478 
L 344.650087 135.350168 
L 346.281517 141.959165 
L 347.912947 136.448018 
L 349.544376 137.614525 
L 351.175806 139.055331 
L 352.807236 136.808438 
L 354.438666 135.609529 
L 356.070096 140.740953 
L 357.701526 139.583718 
L 359.332956 136.827206 
L 360.964386 135.906686 
L 362.595815 139.746578 
L 364.227245 137.355134 
L 365.858675 139.738549 
L 367.490105 139.506842 
L 369.121535 138.601128 
L 370.752965 137.222478 
L 372.384395 139.709757 
L 374.015825 136.83947 
L 375.647254 141.080721 
L 377.278684 136.345334 
L 380.541544 138.029208 
L 382.172974 139.30707 
L 383.804404 136.154767 
L 385.435834 137.227628 
L 387.067264 136.388429 
L 388.698693 138.372128 
L 390.330123 137.189169 
L 391.961553 139.004842 
L 393.592983 137.268334 
L 395.224413 135.298617 
L 396.855843 141.845161 
L 398.487273 136.311046 
L 398.487273 136.311046 
" clip-path="url(#p861245b2de)" style="fill: none; stroke-dasharray: 9.6,2.4,1.5,2.4; stroke-dashoffset: 0; stroke: #008000; stroke-width: 1.5"/>
   </g>
   <g id="line2d_23">
    <path d="M 73.832727 144.966165 
L 75.464157 93.048053 
L 77.095587 119.57879 
L 78.727017 93.158861 
L 80.358447 109.642406 
L 81.989877 97.345015 
L 83.621307 70.15401 
L 85.252736 101.484032 
L 86.884166 84.707212 
L 88.515596 53.943422 
L 90.147026 101.199189 
L 91.778456 73.445036 
L 93.409886 105.971469 
L 95.041316 81.747936 
L 96.672746 101.480996 
L 98.304175 101.664207 
L 99.935605 92.764382 
L 101.567035 92.77099 
L 103.198465 84.762996 
L 104.829895 110.257115 
L 106.461325 70.080087 
L 108.092755 89.080866 
L 109.724185 101.186647 
L 111.355614 101.202469 
L 112.987044 88.953559 
L 114.618474 97.441302 
L 116.249904 92.663188 
L 117.881334 93.173958 
L 119.512764 101.355063 
L 121.144194 88.995601 
L 122.775624 89.034437 
L 124.407053 101.196946 
L 126.038483 85.035749 
L 127.669913 101.086053 
L 129.301343 84.908811 
L 130.932773 80.862898 
L 132.564203 89.147276 
L 134.195633 77.444825 
L 135.827063 97.076373 
L 137.458492 74.791239 
L 139.089922 88.988988 
L 140.721352 96.895994 
L 142.352782 89.051663 
L 143.984212 77.457305 
L 145.615642 84.806791 
L 148.878502 101.113653 
L 150.509931 81.196573 
L 152.141361 105.549002 
L 153.772791 89.843684 
L 155.404221 81.387918 
L 157.035651 70.210286 
L 158.667081 101.171587 
L 160.298511 93.17654 
L 161.929941 101.381906 
L 163.56137 77.903901 
L 165.1928 84.798307 
L 166.82423 85.185873 
L 168.45566 84.842393 
L 170.08709 63.823782 
L 171.71852 105.685278 
L 173.34995 93.002232 
L 174.98138 92.713798 
L 176.61281 85.364458 
L 178.244239 88.51144 
L 179.875669 89.600422 
L 181.507099 96.715975 
L 183.138529 105.592256 
L 184.769959 92.857756 
L 188.032819 53.568 
L 189.664249 66.683637 
L 191.295678 105.535684 
L 192.927108 85.379432 
L 194.558538 92.80195 
L 196.189968 100.997099 
L 197.821398 81.146077 
L 199.452828 105.273921 
L 202.715688 81.319141 
L 204.347117 101.477681 
L 205.978547 97.387421 
L 207.609977 109.982656 
L 209.241407 105.812776 
L 210.872837 92.730439 
L 212.504267 67.119282 
L 214.135697 96.803574 
L 215.767127 105.537825 
L 217.398556 92.855491 
L 219.029986 105.634666 
L 220.661416 101.170702 
L 222.292846 84.955703 
L 223.924276 101.085344 
L 225.555706 88.817738 
L 227.187136 81.207357 
L 228.818566 97.41293 
L 230.449995 96.984677 
L 232.081425 80.90615 
L 233.712855 101.744228 
L 235.344285 88.982959 
L 236.975715 105.803158 
L 238.607145 84.983882 
L 240.238575 88.976223 
L 241.870005 97.35217 
L 243.501434 77.226016 
L 245.132864 85.081366 
L 246.764294 84.855899 
L 248.395724 97.100137 
L 250.027154 97.167547 
L 251.658584 89.626877 
L 253.290014 77.698706 
L 254.921444 81.431078 
L 256.552873 77.82879 
L 258.184303 101.280499 
L 259.815733 93.068472 
L 261.447163 77.451704 
L 263.078593 109.980037 
L 264.710023 105.667369 
L 266.341453 92.792709 
L 267.972883 97.203604 
L 269.604312 73.539524 
L 271.235742 85.499943 
L 272.867172 105.260081 
L 274.498602 92.923509 
L 277.761462 101.541057 
L 279.392892 84.963207 
L 281.024322 97.317236 
L 282.655751 97.027298 
L 285.918611 97.152371 
L 287.550041 63.277685 
L 289.181471 85.075708 
L 290.812901 97.100775 
L 292.444331 77.546809 
L 294.075761 97.286662 
L 295.70719 93.223632 
L 297.33862 88.830749 
L 298.97005 97.199236 
L 300.60148 88.858202 
L 302.23291 96.942423 
L 305.49577 105.533423 
L 307.1272 101.434517 
L 308.75863 88.727464 
L 310.390059 89.158842 
L 312.021489 97.268671 
L 313.652919 97.206116 
L 315.284349 101.317881 
L 316.915779 93.472486 
L 318.547209 84.98847 
L 320.178639 105.845244 
L 321.810069 101.351876 
L 323.441498 101.957124 
L 325.072928 92.843189 
L 328.335788 101.437106 
L 329.967218 101.339869 
L 331.598648 88.934592 
L 333.230078 109.992301 
L 334.861508 96.947669 
L 336.492937 101.487493 
L 338.124367 89.01122 
L 341.387227 97.20244 
L 343.018657 101.298507 
L 344.650087 96.916706 
L 346.281517 101.347479 
L 347.912947 101.441689 
L 349.544376 97.246299 
L 351.175806 88.761337 
L 352.807236 97.121267 
L 354.438666 89.581479 
L 356.070096 105.435558 
L 357.701526 101.060057 
L 359.332956 88.978117 
L 360.964386 101.596108 
L 362.595815 106.017349 
L 364.227245 97.124243 
L 365.858675 105.186982 
L 367.490105 81.613337 
L 369.121535 92.990852 
L 370.752965 101.202548 
L 372.384395 88.995054 
L 374.015825 81.045793 
L 375.647254 101.507174 
L 377.278684 93.096323 
L 378.910114 74.000235 
L 380.541544 96.810052 
L 382.172974 101.392707 
L 383.804404 66.725447 
L 385.435834 105.372285 
L 387.067264 92.992034 
L 388.698693 105.358 
L 390.330123 96.948313 
L 391.961553 101.568717 
L 393.592983 93.049884 
L 395.224413 101.2298 
L 396.855843 114.83732 
L 398.487273 89.097549 
L 398.487273 89.097549 
" clip-path="url(#p861245b2de)" style="fill: none; stroke: #ff0000; stroke-width: 1.5; stroke-linecap: square"/>
   </g>
   <g id="patch_3">
    <path d="M 57.6 307.584 
L 57.6 41.472 
" style="fill: none; stroke: #000000; stroke-width: 0.8; stroke-linejoin: miter; stroke-linecap: square"/>
   </g>
   <g id="patch_4">
    <path d="M 414.72 307.584 
L 414.72 41.472 
" style="fill: none; stroke: #000000; stroke-width: 0.8; stroke-linejoin: miter; stroke-linecap: square"/>
   </g>
   <g id="patch_5">
    <path d="M 57.6 307.584 
L 414.72 307.584 
" style="fill: none; stroke: #000000; stroke-width: 0.8; stroke-linejoin: miter; stroke-linecap: square"/>
   </g>
   <g id="patch_6">
    <path d="M 57.6 41.472 
L 414.72 41.472 
" style="fill: none; stroke: #000000; stroke-width: 0.8; stroke-linejoin: miter; stroke-linecap: square"/>
   </g>
   <g id="text_13">
    <!-- Średnie i najlepsze przystosowanie w każdej generacji -->
    <g transform="translate(73.26 35.472) scale(0.12 -0.12)">
     <defs>
      <path id="DejaVuSans-15a" d="M 2236 5921 
L 2814 5921 
L 2102 5096 
L 1623 5096 
L 2236 5921 
z
M 3425 4513 
L 3425 3897 
Q 3066 4069 2747 4153 
Q 2428 4238 2131 4238 
Q 1616 4238 1336 4038 
Q 1056 3838 1056 3469 
Q 1056 3159 1242 3001 
Q 1428 2844 1947 2747 
L 2328 2669 
Q 3034 2534 3370 2195 
Q 3706 1856 3706 1288 
Q 3706 609 3251 259 
Q 2797 -91 1919 -91 
Q 1588 -91 1214 -16 
Q 841 59 441 206 
L 441 856 
Q 825 641 1194 531 
Q 1563 422 1919 422 
Q 2459 422 2753 634 
Q 3047 847 3047 1241 
Q 3047 1584 2836 1778 
Q 2625 1972 2144 2069 
L 1759 2144 
Q 1053 2284 737 2584 
Q 422 2884 422 3419 
Q 422 4038 858 4394 
Q 1294 4750 2059 4750 
Q 2388 4750 2728 4690 
Q 3069 4631 3425 4513 
z
" transform="scale(0.015625)"/>
      <path id="DejaVuSans-64" d="M 2906 2969 
L 2906 4863 
L 3481 4863 
L 3481 0 
L 2906 0 
L 2906 525 
Q 2725 213 2448 61 
Q 2172 -91 1784 -91 
Q 1150 -91 751 415 
Q 353 922 353 1747 
Q 353 2572 751 3078 
Q 1150 3584 1784 3584 
Q 2172 3584 2448 3432 
Q 2725 3281 2906 2969 
z
M 947 1747 
Q 947 1113 1208 752 
Q 1469 391 1925 391 
Q 2381 391 2643 752 
Q 2906 1113 2906 1747 
Q 2906 2381 2643 2742 
Q 2381 3103 1925 3103 
Q 1469 3103 1208 2742 
Q 947 2381 947 1747 
z
" transform="scale(0.015625)"/>
      <path id="DejaVuSans-20" transform="scale(0.015625)"/>
      <path id="DejaVuSans-6c" d="M 603 4863 
L 1178 4863 
L 1178 0 
L 603 0 
L 603 4863 
z
" transform="scale(0.015625)"/>
      <path id="DejaVuSans-70" d="M 1159 525 
L 1159 -1331 
L 581 -1331 
L 581 3500 
L 1159 3500 
L 1159 2969 
Q 1341 3281 1617 3432 
Q 1894 3584 2278 3584 
Q 2916 3584 3314 3078 
Q 3713 2572 3713 1747 
Q 3713 922 3314 415 
Q 2916 -91 2278 -91 
Q 1894 -91 1617 61 
Q 1341 213 1159 525 
z
M 3116 1747 
Q 3116 2381 2855 2742 
Q 2594 3103 2138 3103 
Q 1681 3103 1420 2742 
Q 1159 2381 1159 1747 
Q 1159 1113 1420 752 
Q 1681 391 2138 391 
Q 2594 391 2855 752 
Q 3116 1113 3116 1747 
z
" transform="scale(0.015625)"/>
      <path id="DejaVuSans-6b" d="M 581 4863 
L 1159 4863 
L 1159 1991 
L 2875 3500 
L 3609 3500 
L 1753 1863 
L 3688 0 
L 2938 0 
L 1159 1709 
L 1159 0 
L 581 0 
L 581 4863 
z
" transform="scale(0.015625)"/>
      <path id="DejaVuSans-17c" d="M 1378 4863 
L 1953 4863 
L 1953 4134 
L 1378 4134 
L 1378 4863 
z
M 1672 3584 
L 1672 3584 
z
M 353 3500 
L 3084 3500 
L 3084 2975 
L 922 459 
L 3084 459 
L 3084 0 
L 275 0 
L 275 525 
L 2438 3041 
L 353 3041 
L 353 3500 
z
" transform="scale(0.015625)"/>
      <path id="DejaVuSans-67" d="M 2906 1791 
Q 2906 2416 2648 2759 
Q 2391 3103 1925 3103 
Q 1463 3103 1205 2759 
Q 947 2416 947 1791 
Q 947 1169 1205 825 
Q 1463 481 1925 481 
Q 2391 481 2648 825 
Q 2906 1169 2906 1791 
z
M 3481 434 
Q 3481 -459 3084 -895 
Q 2688 -1331 1869 -1331 
Q 1566 -1331 1297 -1286 
Q 1028 -1241 775 -1147 
L 775 -588 
Q 1028 -725 1275 -790 
Q 1522 -856 1778 -856 
Q 2344 -856 2625 -561 
Q 2906 -266 2906 331 
L 2906 616 
Q 2728 306 2450 153 
Q 2172 0 1784 0 
Q 1141 0 747 490 
Q 353 981 353 1791 
Q 353 2603 747 3093 
Q 1141 3584 1784 3584 
Q 2172 3584 2450 3431 
Q 2728 3278 2906 2969 
L 2906 3500 
L 3481 3500 
L 3481 434 
z
" transform="scale(0.015625)"/>
     </defs>
     <use xlink:href="#DejaVuSans-15a"/>
     <use xlink:href="#DejaVuSans-72" transform="translate(63.476562 0)"/>
     <use xlink:href="#DejaVuSans-65" transform="translate(102.339844 0)"/>
     <use xlink:href="#DejaVuSans-64" transform="translate(163.863281 0)"/>
     <use xlink:href="#DejaVuSans-6e" transform="translate(227.339844 0)"/>
     <use xlink:href="#DejaVuSans-69" transform="translate(290.71875 0)"/>
     <use xlink:href="#DejaVuSans-65" transform="translate(318.501953 0)"/>
     <use xlink:href="#DejaVuSans-20" transform="translate(380.025391 0)"/>
     <use xlink:href="#DejaVuSans-69" transform="translate(411.8125 0)"/>
     <use xlink:href="#DejaVuSans-20" transform="translate(439.595703 0)"/>
     <use xlink:href="#DejaVuSans-6e" transform="translate(471.382812 0)"/>
     <use xlink:href="#DejaVuSans-61" transform="translate(534.761719 0)"/>
     <use xlink:href="#DejaVuSans-6a" transform="translate(596.041016 0)"/>
     <use xlink:href="#DejaVuSans-6c" transform="translate(623.824219 0)"/>
     <use xlink:href="#DejaVuSans-65" transform="translate(651.607422 0)"/>
     <use xlink:href="#DejaVuSans-70" transform="translate(713.130859 0)"/>
     <use xlink:href="#DejaVuSans-73" transform="translate(776.607422 0)"/>
     <use xlink:href="#DejaVuSans-7a" transform="translate(828.707031 0)"/>
     <use xlink:href="#DejaVuSans-65" transform="translate(881.197266 0)"/>
     <use xlink:href="#DejaVuSans-20" transform="translate(942.720703 0)"/>
     <use xlink:href="#DejaVuSans-70" transform="translate(974.507812 0)"/>
     <use xlink:href="#DejaVuSans-72" transform="translate(1037.984375 0)"/>
     <use xlink:href="#DejaVuSans-7a" transform="translate(1079.097656 0)"/>
     <use xlink:href="#DejaVuSans-79" transform="translate(1131.587891 0)"/>
     <use xlink:href="#DejaVuSans-73" transform="translate(1190.767578 0)"/>
     <use xlink:href="#DejaVuSans-74" transform="translate(1242.867188 0)"/>
     <use xlink:href="#DejaVuSans-6f" transform="translate(1282.076172 0)"/>
     <use xlink:href="#DejaVuSans-73" transform="translate(1343.257812 0)"/>
     <use xlink:href="#DejaVuSans-6f" transform="translate(1395.357422 0)"/>
     <use xlink:href="#DejaVuSans-77" transform="translate(1456.539062 0)"/>
     <use xlink:href="#DejaVuSans-61" transform="translate(1538.326172 0)"/>
     <use xlink:href="#DejaVuSans-6e" transform="translate(1599.605469 0)"/>
     <use xlink:href="#DejaVuSans-69" transform="translate(1662.984375 0)"/>
     <use xlink:href="#DejaVuSans-65" transform="translate(1690.767578 0)"/>
     <use xlink:href="#DejaVuSans-20" transform="translate(1752.291016 0)"/>
     <use xlink:href="#DejaVuSans-77" transform="translate(1784.078125 0)"/>
     <use xlink:href="#DejaVuSans-20" transform="translate(1865.865234 0)"/>
     <use xlink:href="#DejaVuSans-6b" transform="translate(1897.652344 0)"/>
     <use xlink:href="#DejaVuSans-61" transform="translate(1953.8125 0)"/>
     <use xlink:href="#DejaVuSans-17c" transform="translate(2015.091797 0)"/>
     <use xlink:href="#DejaVuSans-64" transform="translate(2067.582031 0)"/>
     <use xlink:href="#DejaVuSans-65" transform="translate(2131.058594 0)"/>
     <use xlink:href="#DejaVuSans-6a" transform="translate(2192.582031 0)"/>
     <use xlink:href="#DejaVuSans-20" transform="translate(2220.365234 0)"/>
     <use xlink:href="#DejaVuSans-67" transform="translate(2252.152344 0)"/>
     <use xlink:href="#DejaVuSans-65" transform="translate(2315.628906 0)"/>
     <use xlink:href="#DejaVuSans-6e" transform="translate(2377.152344 0)"/>
     <use xlink:href="#DejaVuSans-65" transform="translate(2440.53125 0)"/>
     <use xlink:href="#DejaVuSans-72" transform="translate(2502.054688 0)"/>
     <use xlink:href="#DejaVuSans-61" transform="translate(2543.167969 0)"/>
     <use xlink:href="#DejaVuSans-63" transform="translate(2604.447266 0)"/>
     <use xlink:href="#DejaVuSans-6a" transform="translate(2659.427734 0)"/>
     <use xlink:href="#DejaVuSans-69" transform="translate(2687.210938 0)"/>
    </g>
   </g>
   <g id="legend_1">
    <g id="patch_7">
     <path d="M 279.790313 302.584 
L 407.72 302.584 
Q 409.72 302.584 409.72 300.584 
L 409.72 257.549625 
Q 409.72 255.549625 407.72 255.549625 
L 279.790313 255.549625 
Q 277.790313 255.549625 277.790313 257.549625 
L 277.790313 300.584 
Q 277.790313 302.584 279.790313 302.584 
z
" style="fill: #ffffff; opacity: 0.8; stroke: #cccccc; stroke-linejoin: miter"/>
    </g>
    <g id="line2d_24">
     <path d="M 281.790313 263.648062 
L 291.790313 263.648062 
L 301.790313 263.648062 
" style="fill: none; stroke: #0000ff; stroke-width: 1.5; stroke-linecap: square"/>
    </g>
    <g id="text_14">
     <!-- Średnia -->
     <g transform="translate(309.790313 267.148062) scale(0.1 -0.1)">
      <use xlink:href="#DejaVuSans-15a"/>
      <use xlink:href="#DejaVuSans-72" transform="translate(63.476562 0)"/>
      <use xlink:href="#DejaVuSans-65" transform="translate(102.339844 0)"/>
      <use xlink:href="#DejaVuSans-64" transform="translate(163.863281 0)"/>
      <use xlink:href="#DejaVuSans-6e" transform="translate(227.339844 0)"/>
      <use xlink:href="#DejaVuSans-69" transform="translate(290.71875 0)"/>
      <use xlink:href="#DejaVuSans-61" transform="translate(318.501953 0)"/>
     </g>
    </g>
    <g id="line2d_25">
     <path d="M 281.790313 278.326188 
L 291.790313 278.326188 
L 301.790313 278.326188 
" style="fill: none; stroke-dasharray: 9.6,2.4,1.5,2.4; stroke-dashoffset: 0; stroke: #008000; stroke-width: 1.5"/>
    </g>
    <g id="text_15">
     <!-- ±1 Odchylenie std. -->
     <g transform="translate(309.790313 281.826188) scale(0.1 -0.1)">
      <defs>
       <path id="DejaVuSans-b1" d="M 2944 4013 
L 2944 2803 
L 4684 2803 
L 4684 2272 
L 2944 2272 
L 2944 1063 
L 2419 1063 
L 2419 2272 
L 678 2272 
L 678 2803 
L 2419 2803 
L 2419 4013 
L 2944 4013 
z
M 678 531 
L 4684 531 
L 4684 0 
L 678 0 
L 678 531 
z
" transform="scale(0.015625)"/>
       <path id="DejaVuSans-4f" d="M 2522 4238 
Q 1834 4238 1429 3725 
Q 1025 3213 1025 2328 
Q 1025 1447 1429 934 
Q 1834 422 2522 422 
Q 3209 422 3611 934 
Q 4013 1447 4013 2328 
Q 4013 3213 3611 3725 
Q 3209 4238 2522 4238 
z
M 2522 4750 
Q 3503 4750 4090 4092 
Q 4678 3434 4678 2328 
Q 4678 1225 4090 567 
Q 3503 -91 2522 -91 
Q 1538 -91 948 565 
Q 359 1222 359 2328 
Q 359 3434 948 4092 
Q 1538 4750 2522 4750 
z
" transform="scale(0.015625)"/>
       <path id="DejaVuSans-68" d="M 3513 2113 
L 3513 0 
L 2938 0 
L 2938 2094 
Q 2938 2591 2744 2837 
Q 2550 3084 2163 3084 
Q 1697 3084 1428 2787 
Q 1159 2491 1159 1978 
L 1159 0 
L 581 0 
L 581 4863 
L 1159 4863 
L 1159 2956 
Q 1366 3272 1645 3428 
Q 1925 3584 2291 3584 
Q 2894 3584 3203 3211 
Q 3513 2838 3513 2113 
z
" transform="scale(0.015625)"/>
       <path id="DejaVuSans-2e" d="M 684 794 
L 1344 794 
L 1344 0 
L 684 0 
L 684 794 
z
" transform="scale(0.015625)"/>
      </defs>
      <use xlink:href="#DejaVuSans-b1"/>
      <use xlink:href="#DejaVuSans-31" transform="translate(83.789062 0)"/>
      <use xlink:href="#DejaVuSans-20" transform="translate(147.412109 0)"/>
      <use xlink:href="#DejaVuSans-4f" transform="translate(179.199219 0)"/>
      <use xlink:href="#DejaVuSans-64" transform="translate(257.910156 0)"/>
      <use xlink:href="#DejaVuSans-63" transform="translate(321.386719 0)"/>
      <use xlink:href="#DejaVuSans-68" transform="translate(376.367188 0)"/>
      <use xlink:href="#DejaVuSans-79" transform="translate(439.746094 0)"/>
      <use xlink:href="#DejaVuSans-6c" transform="translate(498.925781 0)"/>
      <use xlink:href="#DejaVuSans-65" transform="translate(526.708984 0)"/>
      <use xlink:href="#DejaVuSans-6e" transform="translate(588.232422 0)"/>
      <use xlink:href="#DejaVuSans-69" transform="translate(651.611328 0)"/>
      <use xlink:href="#DejaVuSans-65" transform="translate(679.394531 0)"/>
      <use xlink:href="#DejaVuSans-20" transform="translate(740.917969 0)"/>
      <use xlink:href="#DejaVuSans-73" transform="translate(772.705078 0)"/>
      <use xlink:href="#DejaVuSans-74" transform="translate(824.804688 0)"/>
      <use xlink:href="#DejaVuSans-64" transform="translate(864.013672 0)"/>
      <use xlink:href="#DejaVuSans-2e" transform="translate(927.490234 0)"/>
     </g>
    </g>
    <g id="line2d_26">
     <path d="M 281.790313 293.004312 
L 291.790313 293.004312 
L 301.790313 293.004312 
" style="fill: none; stroke: #ff0000; stroke-width: 1.5; stroke-linecap: square"/>
    </g>
    <g id="text_16">
     <!-- Najlepsze -->
     <g transform="translate(309.790313 296.504312) scale(0.1 -0.1)">
      <defs>
       <path id="DejaVuSans-4e" d="M 628 4666 
L 1478 4666 
L 3547 763 
L 3547 4666 
L 4159 4666 
L 4159 0 
L 3309 0 
L 1241 3903 
L 1241 0 
L 628 0 
L 628 4666 
z
" transform="scale(0.015625)"/>
      </defs>
      <use xlink:href="#DejaVuSans-4e"/>
      <use xlink:href="#DejaVuSans-61" transform="translate(74.804688 0)"/>
      <use xlink:href="#DejaVuSans-6a" transform="translate(136.083984 0)"/>
      <use xlink:href="#DejaVuSans-6c" transform="translate(163.867188 0)"/>
      <use xlink:href="#DejaVuSans-65" transform="translate(191.650391 0)"/>
      <use xlink:href="#DejaVuSans-70" transform="translate(253.173828 0)"/>
      <use xlink:href="#DejaVuSans-73" transform="translate(316.650391 0)"/>
      <use xlink:href="#DejaVuSans-7a" transform="translate(368.75 0)"/>
      <use xlink:href="#DejaVuSans-65" transform="translate(421.240234 0)"/>
     </g>
    </g>
   </g>
  </g>
 </g>
 <defs>
  <clipPath id="p861245b2de">
   <rect x="57.6" y="41.472" width="357.12" height="266.112"/>
  </clipPath>
 </defs>
</svg>
