<?xml version="1.0" encoding="utf-8" standalone="no"?>
<!DOCTYPE svg PUBLIC "-//W3C//DTD SVG 1.1//EN"
  "http://www.w3.org/Graphics/SVG/1.1/DTD/svg11.dtd">
<svg xmlns:xlink="http://www.w3.org/1999/xlink" width="460.8pt" height="345.6pt" viewBox="0 0 460.8 345.6" xmlns="http://www.w3.org/2000/svg" version="1.1">
 <metadata>
  <rdf:RDF xmlns:dc="http://purl.org/dc/elements/1.1/" xmlns:cc="http://creativecommons.org/ns#" xmlns:rdf="http://www.w3.org/1999/02/22-rdf-syntax-ns#">
   <cc:Work>
    <dc:type rdf:resource="http://purl.org/dc/dcmitype/StillImage"/>
    <dc:date>2026-04-27T00:59:05.457281</dc:date>
    <dc:format>image/svg+xml</dc:format>
    <dc:creator>
     <cc:Agent>
      <dc:title>Matplotlib v3.10.8, https://matplotlib.org/</dc:title>
     </cc:Agent>
    </dc:creator>
   </cc:Work>
  </rdf:RDF>
 </metadata>
 <defs>
  <style type="text/css">*{stroke-linejoin: round; stroke-linecap: butt}</style>
 </defs>
 <g id="figure_1">
  <g id="patch_1">
   <path d="M 0 345.6 
L 460.8 345.6 
L 460.8 0 
L 0 0 
z
" style="fill: #ffffff"/>
  </g>
  <g id="axes_1">
   <g id="patch_2">
    <path d="M 57.6 307.584 
L 414.72 307.584 
L 414.72 41.472 
L 57.6 41.472 
z
" style="fill: #ffffff"/>
   </g>
   <g id="matplotlib.axis_1">
    <g id="xtick_1">
     <g id="line2d_1">
      <path d="M 72.201297 307.584 
L 72.201297 41.472 
" clip-path="url(#paefcb5e9fc)" style="fill: none; stroke: #b0b0b0; stroke-width: 0.8; stroke-linecap: square"/>
     </g>
     <g id="line2d_2">
      <defs>
       <path id="ma1bd37d07c" d="M 0 0 
L 0 3.5 
" style="stroke: #000000; stroke-width: 0.8"/>
      </defs>
      <g>
       <use xlink:href="#ma1bd37d07c" x="72.201297" y="307.584" style="stroke: #000000; stroke-width: 0.8"/>
      </g>
     </g>
     <g id="text_1">
      <!-- 0 -->
      <g transform="translate(69.020047 322.182437) scale(0.1 -0.1)">
       <defs>
        <path id="DejaVuSans-30" d="M 2034 4250 
Q 1547 4250 1301 3770 
Q 1056 3291 1056 2328 
Q 1056 1369 1301 889 
Q 1547 409 2034 409 
Q 2525 409 2770 889 
Q 3016 1369 3016 2328 
Q 3016 3291 2770 3770 
Q 2525 4250 2034 4250 
z
M 2034 4750 
Q 2819 4750 3233 4129 
Q 3647 3509 3647 2328 
Q 3647 1150 3233 529 
Q 2819 -91 2034 -91 
Q 1250 -91 836 529 
Q 422 1150 422 2328 
Q 422 3509 836 4129 
Q 1250 4750 2034 4750 
z
" transform="scale(0.015625)"/>
       </defs>
       <use xlink:href="#DejaVuSans-30"/>
      </g>
     </g>
    </g>
    <g id="xtick_2">
     <g id="line2d_3">
      <path d="M 112.987044 307.584 
L 112.987044 41.472 
" clip-path="url(#paefcb5e9fc)" style="fill: none; stroke: #b0b0b0; stroke-width: 0.8; stroke-linecap: square"/>
     </g>
     <g id="line2d_4">
      <g>
       <use xlink:href="#ma1bd37d07c" x="112.987044" y="307.584" style="stroke: #000000; stroke-width: 0.8"/>
      </g>
     </g>
     <g id="text_2">
      <!-- 25 -->
      <g transform="translate(106.624544 322.182437) scale(0.1 -0.1)">
       <defs>
        <path id="DejaVuSans-32" d="M 1228 531 
L 3431 531 
L 3431 0 
L 469 0 
L 469 531 
Q 828 903 1448 1529 
Q 2069 2156 2228 2338 
Q 2531 2678 2651 2914 
Q 2772 3150 2772 3378 
Q 2772 3750 2511 3984 
Q 2250 4219 1831 4219 
Q 1534 4219 1204 4116 
Q 875 4013 500 3803 
L 500 4441 
Q 881 4594 1212 4672 
Q 1544 4750 1819 4750 
Q 2544 4750 2975 4387 
Q 3406 4025 3406 3419 
Q 3406 3131 3298 2873 
Q 3191 2616 2906 2266 
Q 2828 2175 2409 1742 
Q 1991 1309 1228 531 
z
" transform="scale(0.015625)"/>
        <path id="DejaVuSans-35" d="M 691 4666 
L 3169 4666 
L 3169 4134 
L 1269 4134 
L 1269 2991 
Q 1406 3038 1543 3061 
Q 1681 3084 1819 3084 
Q 2600 3084 3056 2656 
Q 3513 2228 3513 1497 
Q 3513 744 3044 326 
Q 2575 -91 1722 -91 
Q 1428 -91 1123 -41 
Q 819 9 494 109 
L 494 744 
Q 775 591 1075 516 
Q 1375 441 1709 441 
Q 2250 441 2565 725 
Q 2881 1009 2881 1497 
Q 2881 1984 2565 2268 
Q 2250 2553 1709 2553 
Q 1456 2553 1204 2497 
Q 953 2441 691 2322 
L 691 4666 
z
" transform="scale(0.015625)"/>
       </defs>
       <use xlink:href="#DejaVuSans-32"/>
       <use xlink:href="#DejaVuSans-35" transform="translate(63.623047 0)"/>
      </g>
     </g>
    </g>
    <g id="xtick_3">
     <g id="line2d_5">
      <path d="M 153.772791 307.584 
L 153.772791 41.472 
" clip-path="url(#paefcb5e9fc)" style="fill: none; stroke: #b0b0b0; stroke-width: 0.8; stroke-linecap: square"/>
     </g>
     <g id="line2d_6">
      <g>
       <use xlink:href="#ma1bd37d07c" x="153.772791" y="307.584" style="stroke: #000000; stroke-width: 0.8"/>
      </g>
     </g>
     <g id="text_3">
      <!-- 50 -->
      <g transform="translate(147.410291 322.182437) scale(0.1 -0.1)">
       <use xlink:href="#DejaVuSans-35"/>
       <use xlink:href="#DejaVuSans-30" transform="translate(63.623047 0)"/>
      </g>
     </g>
    </g>
    <g id="xtick_4">
     <g id="line2d_7">
      <path d="M 194.558538 307.584 
L 194.558538 41.472 
" clip-path="url(#paefcb5e9fc)" style="fill: none; stroke: #b0b0b0; stroke-width: 0.8; stroke-linecap: square"/>
     </g>
     <g id="line2d_8">
      <g>
       <use xlink:href="#ma1bd37d07c" x="194.558538" y="307.584" style="stroke: #000000; stroke-width: 0.8"/>
      </g>
     </g>
     <g id="text_4">
      <!-- 75 -->
      <g transform="translate(188.196038 322.182437) scale(0.1 -0.1)">
       <defs>
        <path id="DejaVuSans-37" d="M 525 4666 
L 3525 4666 
L 3525 4397 
L 1831 0 
L 1172 0 
L 2766 4134 
L 525 4134 
L 525 4666 
z
" transform="scale(0.015625)"/>
       </defs>
       <use xlink:href="#DejaVuSans-37"/>
       <use xlink:href="#DejaVuSans-35" transform="translate(63.623047 0)"/>
      </g>
     </g>
    </g>
    <g id="xtick_5">
     <g id="line2d_9">
      <path d="M 235.344285 307.584 
L 235.344285 41.472 
" clip-path="url(#paefcb5e9fc)" style="fill: none; stroke: #b0b0b0; stroke-width: 0.8; stroke-linecap: square"/>
     </g>
     <g id="line2d_10">
      <g>
       <use xlink:href="#ma1bd37d07c" x="235.344285" y="307.584" style="stroke: #000000; stroke-width: 0.8"/>
      </g>
     </g>
     <g id="text_5">
      <!-- 100 -->
      <g transform="translate(225.800535 322.182437) scale(0.1 -0.1)">
       <defs>
        <path id="DejaVuSans-31" d="M 794 531 
L 1825 531 
L 1825 4091 
L 703 3866 
L 703 4441 
L 1819 4666 
L 2450 4666 
L 2450 531 
L 3481 531 
L 3481 0 
L 794 0 
L 794 531 
z
" transform="scale(0.015625)"/>
       </defs>
       <use xlink:href="#DejaVuSans-31"/>
       <use xlink:href="#DejaVuSans-30" transform="translate(63.623047 0)"/>
       <use xlink:href="#DejaVuSans-30" transform="translate(127.246094 0)"/>
      </g>
     </g>
    </g>
    <g id="xtick_6">
     <g id="line2d_11">
      <path d="M 276.130032 307.584 
L 276.130032 41.472 
" clip-path="url(#paefcb5e9fc)" style="fill: none; stroke: #b0b0b0; stroke-width: 0.8; stroke-linecap: square"/>
     </g>
     <g id="line2d_12">
      <g>
       <use xlink:href="#ma1bd37d07c" x="276.130032" y="307.584" style="stroke: #000000; stroke-width: 0.8"/>
      </g>
     </g>
     <g id="text_6">
      <!-- 125 -->
      <g transform="translate(266.586282 322.182437) scale(0.1 -0.1)">
       <use xlink:href="#DejaVuSans-31"/>
       <use xlink:href="#DejaVuSans-32" transform="translate(63.623047 0)"/>
       <use xlink:href="#DejaVuSans-35" transform="translate(127.246094 0)"/>
      </g>
     </g>
    </g>
    <g id="xtick_7">
     <g id="line2d_13">
      <path d="M 316.915779 307.584 
L 316.915779 41.472 
" clip-path="url(#paefcb5e9fc)" style="fill: none; stroke: #b0b0b0; stroke-width: 0.8; stroke-linecap: square"/>
     </g>
     <g id="line2d_14">
      <g>
       <use xlink:href="#ma1bd37d07c" x="316.915779" y="307.584" style="stroke: #000000; stroke-width: 0.8"/>
      </g>
     </g>
     <g id="text_7">
      <!-- 150 -->
      <g transform="translate(307.372029 322.182437) scale(0.1 -0.1)">
       <use xlink:href="#DejaVuSans-31"/>
       <use xlink:href="#DejaVuSans-35" transform="translate(63.623047 0)"/>
       <use xlink:href="#DejaVuSans-30" transform="translate(127.246094 0)"/>
      </g>
     </g>
    </g>
    <g id="xtick_8">
     <g id="line2d_15">
      <path d="M 357.701526 307.584 
L 357.701526 41.472 
" clip-path="url(#paefcb5e9fc)" style="fill: none; stroke: #b0b0b0; stroke-width: 0.8; stroke-linecap: square"/>
     </g>
     <g id="line2d_16">
      <g>
       <use xlink:href="#ma1bd37d07c" x="357.701526" y="307.584" style="stroke: #000000; stroke-width: 0.8"/>
      </g>
     </g>
     <g id="text_8">
      <!-- 175 -->
      <g transform="translate(348.157776 322.182437) scale(0.1 -0.1)">
       <use xlink:href="#DejaVuSans-31"/>
       <use xlink:href="#DejaVuSans-37" transform="translate(63.623047 0)"/>
       <use xlink:href="#DejaVuSans-35" transform="translate(127.246094 0)"/>
      </g>
     </g>
    </g>
    <g id="xtick_9">
     <g id="line2d_17">
      <path d="M 398.487273 307.584 
L 398.487273 41.472 
" clip-path="url(#paefcb5e9fc)" style="fill: none; stroke: #b0b0b0; stroke-width: 0.8; stroke-linecap: square"/>
     </g>
     <g id="line2d_18">
      <g>
       <use xlink:href="#ma1bd37d07c" x="398.487273" y="307.584" style="stroke: #000000; stroke-width: 0.8"/>
      </g>
     </g>
     <g id="text_9">
      <!-- 200 -->
      <g transform="translate(388.943523 322.182437) scale(0.1 -0.1)">
       <use xlink:href="#DejaVuSans-32"/>
       <use xlink:href="#DejaVuSans-30" transform="translate(63.623047 0)"/>
       <use xlink:href="#DejaVuSans-30" transform="translate(127.246094 0)"/>
      </g>
     </g>
    </g>
    <g id="text_10">
     <!-- Generacje -->
     <g transform="translate(210.629531 335.860562) scale(0.1 -0.1)">
      <defs>
       <path id="DejaVuSans-47" d="M 3809 666 
L 3809 1919 
L 2778 1919 
L 2778 2438 
L 4434 2438 
L 4434 434 
Q 4069 175 3628 42 
Q 3188 -91 2688 -91 
Q 1594 -91 976 548 
Q 359 1188 359 2328 
Q 359 3472 976 4111 
Q 1594 4750 2688 4750 
Q 3144 4750 3555 4637 
Q 3966 4525 4313 4306 
L 4313 3634 
Q 3963 3931 3569 4081 
Q 3175 4231 2741 4231 
Q 1884 4231 1454 3753 
Q 1025 3275 1025 2328 
Q 1025 1384 1454 906 
Q 1884 428 2741 428 
Q 3075 428 3337 486 
Q 3600 544 3809 666 
z
" transform="scale(0.015625)"/>
       <path id="DejaVuSans-65" d="M 3597 1894 
L 3597 1613 
L 953 1613 
Q 991 1019 1311 708 
Q 1631 397 2203 397 
Q 2534 397 2845 478 
Q 3156 559 3463 722 
L 3463 178 
Q 3153 47 2828 -22 
Q 2503 -91 2169 -91 
Q 1331 -91 842 396 
Q 353 884 353 1716 
Q 353 2575 817 3079 
Q 1281 3584 2069 3584 
Q 2775 3584 3186 3129 
Q 3597 2675 3597 1894 
z
M 3022 2063 
Q 3016 2534 2758 2815 
Q 2500 3097 2075 3097 
Q 1594 3097 1305 2825 
Q 1016 2553 972 2059 
L 3022 2063 
z
" transform="scale(0.015625)"/>
       <path id="DejaVuSans-6e" d="M 3513 2113 
L 3513 0 
L 2938 0 
L 2938 2094 
Q 2938 2591 2744 2837 
Q 2550 3084 2163 3084 
Q 1697 3084 1428 2787 
Q 1159 2491 1159 1978 
L 1159 0 
L 581 0 
L 581 3500 
L 1159 3500 
L 1159 2956 
Q 1366 3272 1645 3428 
Q 1925 3584 2291 3584 
Q 2894 3584 3203 3211 
Q 3513 2838 3513 2113 
z
" transform="scale(0.015625)"/>
       <path id="DejaVuSans-72" d="M 2631 2963 
Q 2534 3019 2420 3045 
Q 2306 3072 2169 3072 
Q 1681 3072 1420 2755 
Q 1159 2438 1159 1844 
L 1159 0 
L 581 0 
L 581 3500 
L 1159 3500 
L 1159 2956 
Q 1341 3275 1631 3429 
Q 1922 3584 2338 3584 
Q 2397 3584 2469 3576 
Q 2541 3569 2628 3553 
L 2631 2963 
z
" transform="scale(0.015625)"/>
       <path id="DejaVuSans-61" d="M 2194 1759 
Q 1497 1759 1228 1600 
Q 959 1441 959 1056 
Q 959 750 1161 570 
Q 1363 391 1709 391 
Q 2188 391 2477 730 
Q 2766 1069 2766 1631 
L 2766 1759 
L 2194 1759 
z
M 3341 1997 
L 3341 0 
L 2766 0 
L 2766 531 
Q 2569 213 2275 61 
Q 1981 -91 1556 -91 
Q 1019 -91 701 211 
Q 384 513 384 1019 
Q 384 1609 779 1909 
Q 1175 2209 1959 2209 
L 2766 2209 
L 2766 2266 
Q 2766 2663 2505 2880 
Q 2244 3097 1772 3097 
Q 1472 3097 1187 3025 
Q 903 2953 641 2809 
L 641 3341 
Q 956 3463 1253 3523 
Q 1550 3584 1831 3584 
Q 2591 3584 2966 3190 
Q 3341 2797 3341 1997 
z
" transform="scale(0.015625)"/>
       <path id="DejaVuSans-63" d="M 3122 3366 
L 3122 2828 
Q 2878 2963 2633 3030 
Q 2388 3097 2138 3097 
Q 1578 3097 1268 2742 
Q 959 2388 959 1747 
Q 959 1106 1268 751 
Q 1578 397 2138 397 
Q 2388 397 2633 464 
Q 2878 531 3122 666 
L 3122 134 
Q 2881 22 2623 -34 
Q 2366 -91 2075 -91 
Q 1284 -91 818 406 
Q 353 903 353 1747 
Q 353 2603 823 3093 
Q 1294 3584 2113 3584 
Q 2378 3584 2631 3529 
Q 2884 3475 3122 3366 
z
" transform="scale(0.015625)"/>
       <path id="DejaVuSans-6a" d="M 603 3500 
L 1178 3500 
L 1178 -63 
Q 1178 -731 923 -1031 
Q 669 -1331 103 -1331 
L -116 -1331 
L -116 -844 
L 38 -844 
Q 366 -844 484 -692 
Q 603 -541 603 -63 
L 603 3500 
z
M 603 4863 
L 1178 4863 
L 1178 4134 
L 603 4134 
L 603 4863 
z
" transform="scale(0.015625)"/>
      </defs>
      <use xlink:href="#DejaVuSans-47"/>
      <use xlink:href="#DejaVuSans-65" transform="translate(77.490234 0)"/>
      <use xlink:href="#DejaVuSans-6e" transform="translate(139.013672 0)"/>
      <use xlink:href="#DejaVuSans-65" transform="translate(202.392578 0)"/>
      <use xlink:href="#DejaVuSans-72" transform="translate(263.916016 0)"/>
      <use xlink:href="#DejaVuSans-61" transform="translate(305.029297 0)"/>
      <use xlink:href="#DejaVuSans-63" transform="translate(366.308594 0)"/>
      <use xlink:href="#DejaVuSans-6a" transform="translate(421.289062 0)"/>
      <use xlink:href="#DejaVuSans-65" transform="translate(449.072266 0)"/>
     </g>
    </g>
   </g>
   <g id="matplotlib.axis_2">
    <g id="ytick_1">
     <g id="line2d_19">
      <path d="M 57.6 140.699281 
L 414.72 140.699281 
" clip-path="url(#paefcb5e9fc)" style="fill: none; stroke: #b0b0b0; stroke-width: 0.8; stroke-linecap: square"/>
     </g>
     <g id="line2d_20">
      <defs>
       <path id="ma2d1eec4ad" d="M 0 0 
L -3.5 0 
" style="stroke: #000000; stroke-width: 0.8"/>
      </defs>
      <g>
       <use xlink:href="#ma2d1eec4ad" x="57.6" y="140.699281" style="stroke: #000000; stroke-width: 0.8"/>
      </g>
     </g>
     <g id="text_11">
      <!-- $\mathdefault{10^{2}}$ -->
      <g transform="translate(33 144.4985) scale(0.1 -0.1)">
       <use xlink:href="#DejaVuSans-31" transform="translate(0 0.765625)"/>
       <use xlink:href="#DejaVuSans-30" transform="translate(63.623047 0.765625)"/>
       <use xlink:href="#DejaVuSans-32" transform="translate(128.203125 39.046875) scale(0.7)"/>
      </g>
     </g>
    </g>
    <g id="text_12">
     <!-- Przystosowanie -->
     <g transform="translate(26.920312 213.170187) rotate(-90) scale(0.1 -0.1)">
      <defs>
       <path id="DejaVuSans-50" d="M 1259 4147 
L 1259 2394 
L 2053 2394 
Q 2494 2394 2734 2622 
Q 2975 2850 2975 3272 
Q 2975 3691 2734 3919 
Q 2494 4147 2053 4147 
L 1259 4147 
z
M 628 4666 
L 2053 4666 
Q 2838 4666 3239 4311 
Q 3641 3956 3641 3272 
Q 3641 2581 3239 2228 
Q 2838 1875 2053 1875 
L 1259 1875 
L 1259 0 
L 628 0 
L 628 4666 
z
" transform="scale(0.015625)"/>
       <path id="DejaVuSans-7a" d="M 353 3500 
L 3084 3500 
L 3084 2975 
L 922 459 
L 3084 459 
L 3084 0 
L 275 0 
L 275 525 
L 2438 3041 
L 353 3041 
L 353 3500 
z
" transform="scale(0.015625)"/>
       <path id="DejaVuSans-79" d="M 2059 -325 
Q 1816 -950 1584 -1140 
Q 1353 -1331 966 -1331 
L 506 -1331 
L 506 -850 
L 844 -850 
Q 1081 -850 1212 -737 
Q 1344 -625 1503 -206 
L 1606 56 
L 191 3500 
L 800 3500 
L 1894 763 
L 2988 3500 
L 3597 3500 
L 2059 -325 
z
" transform="scale(0.015625)"/>
       <path id="DejaVuSans-73" d="M 2834 3397 
L 2834 2853 
Q 2591 2978 2328 3040 
Q 2066 3103 1784 3103 
Q 1356 3103 1142 2972 
Q 928 2841 928 2578 
Q 928 2378 1081 2264 
Q 1234 2150 1697 2047 
L 1894 2003 
Q 2506 1872 2764 1633 
Q 3022 1394 3022 966 
Q 3022 478 2636 193 
Q 2250 -91 1575 -91 
Q 1294 -91 989 -36 
Q 684 19 347 128 
L 347 722 
Q 666 556 975 473 
Q 1284 391 1588 391 
Q 1994 391 2212 530 
Q 2431 669 2431 922 
Q 2431 1156 2273 1281 
Q 2116 1406 1581 1522 
L 1381 1569 
Q 847 1681 609 1914 
Q 372 2147 372 2553 
Q 372 3047 722 3315 
Q 1072 3584 1716 3584 
Q 2034 3584 2315 3537 
Q 2597 3491 2834 3397 
z
" transform="scale(0.015625)"/>
       <path id="DejaVuSans-74" d="M 1172 4494 
L 1172 3500 
L 2356 3500 
L 2356 3053 
L 1172 3053 
L 1172 1153 
Q 1172 725 1289 603 
Q 1406 481 1766 481 
L 2356 481 
L 2356 0 
L 1766 0 
Q 1100 0 847 248 
Q 594 497 594 1153 
L 594 3053 
L 172 3053 
L 172 3500 
L 594 3500 
L 594 4494 
L 1172 4494 
z
" transform="scale(0.015625)"/>
       <path id="DejaVuSans-6f" d="M 1959 3097 
Q 1497 3097 1228 2736 
Q 959 2375 959 1747 
Q 959 1119 1226 758 
Q 1494 397 1959 397 
Q 2419 397 2687 759 
Q 2956 1122 2956 1747 
Q 2956 2369 2687 2733 
Q 2419 3097 1959 3097 
z
M 1959 3584 
Q 2709 3584 3137 3096 
Q 3566 2609 3566 1747 
Q 3566 888 3137 398 
Q 2709 -91 1959 -91 
Q 1206 -91 779 398 
Q 353 888 353 1747 
Q 353 2609 779 3096 
Q 1206 3584 1959 3584 
z
" transform="scale(0.015625)"/>
       <path id="DejaVuSans-77" d="M 269 3500 
L 844 3500 
L 1563 769 
L 2278 3500 
L 2956 3500 
L 3675 769 
L 4391 3500 
L 4966 3500 
L 4050 0 
L 3372 0 
L 2619 2869 
L 1863 0 
L 1184 0 
L 269 3500 
z
" transform="scale(0.015625)"/>
       <path id="DejaVuSans-69" d="M 603 3500 
L 1178 3500 
L 1178 0 
L 603 0 
L 603 3500 
z
M 603 4863 
L 1178 4863 
L 1178 4134 
L 603 4134 
L 603 4863 
z
" transform="scale(0.015625)"/>
      </defs>
      <use xlink:href="#DejaVuSans-50"/>
      <use xlink:href="#DejaVuSans-72" transform="translate(58.552734 0)"/>
      <use xlink:href="#DejaVuSans-7a" transform="translate(99.666016 0)"/>
      <use xlink:href="#DejaVuSans-79" transform="translate(152.15625 0)"/>
      <use xlink:href="#DejaVuSans-73" transform="translate(211.335938 0)"/>
      <use xlink:href="#DejaVuSans-74" transform="translate(263.435547 0)"/>
      <use xlink:href="#DejaVuSans-6f" transform="translate(302.644531 0)"/>
      <use xlink:href="#DejaVuSans-73" transform="translate(363.826172 0)"/>
      <use xlink:href="#DejaVuSans-6f" transform="translate(415.925781 0)"/>
      <use xlink:href="#DejaVuSans-77" transform="translate(477.107422 0)"/>
      <use xlink:href="#DejaVuSans-61" transform="translate(558.894531 0)"/>
      <use xlink:href="#DejaVuSans-6e" transform="translate(620.173828 0)"/>
      <use xlink:href="#DejaVuSans-69" transform="translate(683.552734 0)"/>
      <use xlink:href="#DejaVuSans-65" transform="translate(711.335938 0)"/>
     </g>
    </g>
   </g>
   <g id="line2d_21">
    <path d="M 73.832727 295.488 
L 75.464157 246.470841 
L 77.095587 204.431963 
L 78.727017 189.565636 
L 80.358447 183.687758 
L 81.989877 178.342297 
L 83.621307 181.459742 
L 85.252736 178.610456 
L 86.884166 179.075547 
L 88.515596 176.835059 
L 90.147026 172.330877 
L 91.778456 174.529537 
L 93.409886 170.648857 
L 95.041316 170.199937 
L 96.672746 172.728275 
L 98.304175 173.245716 
L 99.935605 170.273692 
L 101.567035 172.501093 
L 103.198465 172.846011 
L 104.829895 170.077824 
L 106.461325 170.937328 
L 108.092755 169.317084 
L 109.724185 171.454522 
L 111.355614 172.458298 
L 112.987044 169.772744 
L 116.249904 171.63814 
L 117.881334 165.966858 
L 119.512764 166.290543 
L 121.144194 164.994373 
L 122.775624 163.347275 
L 124.407053 164.371821 
L 126.038483 165.636085 
L 127.669913 164.927826 
L 129.301343 165.721205 
L 130.932773 162.003031 
L 132.564203 165.309844 
L 134.195633 162.644044 
L 135.827063 165.223836 
L 137.458492 162.80629 
L 139.089922 162.639892 
L 140.721352 164.672519 
L 142.352782 164.416576 
L 143.984212 164.997876 
L 145.615642 162.439689 
L 147.247072 162.783792 
L 148.878502 162.527463 
L 150.509931 163.741185 
L 152.141361 163.600674 
L 153.772791 162.452149 
L 155.404221 163.781826 
L 157.035651 161.302724 
L 158.667081 164.855457 
L 161.929941 162.28157 
L 163.56137 165.774095 
L 165.1928 164.438188 
L 166.82423 161.428209 
L 168.45566 164.160669 
L 170.08709 162.532586 
L 171.71852 162.061058 
L 173.34995 163.697186 
L 174.98138 163.066133 
L 176.61281 162.848282 
L 178.244239 164.455084 
L 179.875669 163.72705 
L 181.507099 162.218777 
L 183.138529 159.709226 
L 184.769959 161.367691 
L 186.401389 160.87429 
L 188.032819 160.085329 
L 189.664249 161.338195 
L 191.295678 161.406423 
L 192.927108 160.028819 
L 194.558538 158.205408 
L 196.189968 161.300648 
L 197.821398 159.586539 
L 199.452828 160.091849 
L 201.084258 161.223735 
L 202.715688 162.949534 
L 204.347117 161.525819 
L 205.978547 163.331587 
L 207.609977 164.11791 
L 209.241407 162.843804 
L 210.872837 164.366759 
L 212.504267 164.47034 
L 214.135697 162.481983 
L 215.767127 161.959963 
L 217.398556 160.344787 
L 219.029986 161.044505 
L 220.661416 164.147172 
L 222.292846 162.223134 
L 223.924276 163.147574 
L 227.187136 163.913661 
L 228.818566 162.621337 
L 232.081425 161.797677 
L 233.712855 162.024427 
L 235.344285 163.203585 
L 236.975715 162.124723 
L 238.607145 161.336477 
L 240.238575 161.372011 
L 241.870005 161.057763 
L 243.501434 161.668554 
L 245.132864 160.641441 
L 246.764294 164.195927 
L 248.395724 162.907129 
L 250.027154 164.57693 
L 251.658584 162.018524 
L 253.290014 164.085905 
L 254.921444 163.162202 
L 256.552873 159.934815 
L 258.184303 162.571983 
L 259.815733 163.484051 
L 261.447163 161.529921 
L 263.078593 162.440057 
L 264.710023 162.771912 
L 266.341453 163.702827 
L 267.972883 160.470847 
L 269.604312 164.016123 
L 271.235742 163.509424 
L 272.867172 162.149095 
L 274.498602 164.734863 
L 276.130032 160.468545 
L 277.761462 160.626171 
L 279.392892 163.593679 
L 281.024322 165.115942 
L 282.655751 163.026108 
L 284.287181 164.892583 
L 285.918611 161.624231 
L 287.550041 161.36449 
L 289.181471 162.351591 
L 290.812901 162.664675 
L 292.444331 160.98064 
L 294.075761 161.799918 
L 295.70719 161.280099 
L 297.33862 165.469091 
L 298.97005 161.411371 
L 300.60148 163.651276 
L 302.23291 160.988993 
L 305.49577 160.319374 
L 307.1272 161.177743 
L 308.75863 161.888158 
L 310.390059 160.307047 
L 313.652919 160.848827 
L 315.284349 162.924753 
L 316.915779 162.160275 
L 318.547209 163.592732 
L 320.178639 163.313868 
L 321.810069 162.219817 
L 323.441498 164.218322 
L 325.072928 161.893563 
L 326.704358 162.628546 
L 328.335788 160.380152 
L 329.967218 160.364969 
L 331.598648 159.677998 
L 333.230078 162.201981 
L 334.861508 162.5996 
L 336.492937 161.369631 
L 338.124367 161.541333 
L 339.755797 163.968514 
L 341.387227 161.147497 
L 343.018657 162.999892 
L 344.650087 162.795546 
L 346.281517 160.847806 
L 347.912947 161.353524 
L 349.544376 160.20883 
L 351.175806 162.625456 
L 352.807236 160.191299 
L 354.438666 162.358351 
L 356.070096 163.362167 
L 357.701526 161.108374 
L 359.332956 160.516718 
L 360.964386 163.221753 
L 362.595815 160.340988 
L 364.227245 162.940001 
L 365.858675 163.674086 
L 367.490105 161.47398 
L 369.121535 160.314565 
L 370.752965 160.778348 
L 372.384395 162.725124 
L 374.015825 161.425987 
L 375.647254 159.545612 
L 377.278684 161.317538 
L 378.910114 162.397997 
L 380.541544 160.194302 
L 382.172974 160.496535 
L 383.804404 162.103642 
L 385.435834 161.748413 
L 387.067264 164.637565 
L 388.698693 160.886577 
L 390.330123 161.733994 
L 391.961553 162.283374 
L 393.592983 163.343938 
L 395.224413 162.43099 
L 396.855843 160.29006 
L 398.487273 160.414096 
L 398.487273 160.414096 
" clip-path="url(#paefcb5e9fc)" style="fill: none; stroke: #0000ff; stroke-width: 1.5; stroke-linecap: square"/>
   </g>
   <g id="line2d_22">
    <path d="M 73.832727 250.154924 
L 75.464157 196.454788 
L 77.095587 161.43271 
L 78.727017 157.380498 
L 80.358447 152.464483 
L 81.989877 151.733401 
L 83.621307 151.903078 
L 85.252736 149.452205 
L 86.884166 151.54218 
L 88.515596 150.878061 
L 90.147026 148.157137 
L 91.778456 148.788811 
L 93.409886 146.629495 
L 95.041316 149.71612 
L 96.672746 151.247983 
L 98.304175 152.323334 
L 101.567035 149.331291 
L 103.198465 151.472987 
L 104.829895 147.427897 
L 106.461325 144.507288 
L 108.092755 148.241184 
L 109.724185 148.940299 
L 111.355614 151.625601 
L 112.987044 149.366248 
L 114.618474 148.498102 
L 116.249904 149.432436 
L 117.881334 147.119601 
L 119.512764 144.255737 
L 121.144194 146.403774 
L 122.775624 144.902428 
L 124.407053 145.375306 
L 126.038483 146.550466 
L 127.669913 145.335679 
L 129.301343 147.160282 
L 130.932773 142.77686 
L 132.564203 147.300175 
L 134.195633 143.229101 
L 135.827063 145.139884 
L 137.458492 143.553961 
L 139.089922 145.123377 
L 140.721352 146.055051 
L 142.352782 145.745136 
L 143.984212 144.745838 
L 145.615642 142.05165 
L 147.247072 144.118043 
L 148.878502 144.832712 
L 150.509931 142.481036 
L 152.141361 143.880768 
L 153.772791 143.249998 
L 155.404221 145.719333 
L 157.035651 143.573041 
L 158.667081 140.967624 
L 160.298511 142.689066 
L 161.929941 143.36254 
L 163.56137 146.143989 
L 165.1928 146.580807 
L 166.82423 142.523896 
L 168.45566 144.696964 
L 170.08709 144.447897 
L 171.71852 142.254901 
L 173.34995 144.034575 
L 174.98138 145.410532 
L 176.61281 144.99113 
L 178.244239 146.753827 
L 179.875669 142.753353 
L 181.507099 142.748774 
L 183.138529 141.472943 
L 184.769959 142.489038 
L 186.401389 140.529336 
L 188.032819 139.893183 
L 189.664249 142.995234 
L 191.295678 143.210891 
L 194.558538 137.478495 
L 196.189968 140.340882 
L 197.821398 140.768875 
L 199.452828 139.300422 
L 201.084258 142.800977 
L 202.715688 141.710216 
L 204.347117 140.151198 
L 205.978547 143.874101 
L 207.609977 142.906052 
L 209.241407 143.007715 
L 210.872837 143.977124 
L 212.504267 145.791521 
L 214.135697 142.632306 
L 215.767127 141.517513 
L 217.398556 139.767913 
L 219.029986 143.605545 
L 220.661416 143.855306 
L 222.292846 143.366559 
L 223.924276 143.570187 
L 225.555706 143.605155 
L 227.187136 146.099883 
L 228.818566 140.180639 
L 230.449995 144.644225 
L 232.081425 143.230854 
L 233.712855 142.441405 
L 235.344285 143.651608 
L 236.975715 143.07533 
L 238.607145 142.217362 
L 240.238575 142.971365 
L 241.870005 140.539434 
L 243.501434 142.829102 
L 245.132864 140.652862 
L 246.764294 144.690676 
L 248.395724 142.673831 
L 250.027154 145.476367 
L 251.658584 144.285316 
L 253.290014 145.291063 
L 254.921444 141.843905 
L 256.552873 140.589597 
L 258.184303 145.127828 
L 259.815733 144.492442 
L 261.447163 145.032791 
L 263.078593 144.253921 
L 264.710023 144.144191 
L 266.341453 145.614146 
L 267.972883 140.525346 
L 269.604312 146.563529 
L 271.235742 144.76939 
L 272.867172 143.913477 
L 274.498602 146.243144 
L 276.130032 141.798114 
L 277.761462 141.066782 
L 279.392892 143.165909 
L 281.024322 146.593483 
L 282.655751 143.835626 
L 284.287181 146.036147 
L 285.918611 142.176234 
L 287.550041 140.445998 
L 289.181471 141.311975 
L 290.812901 145.30631 
L 292.444331 139.71154 
L 294.075761 143.89853 
L 295.70719 138.691039 
L 297.33862 146.293627 
L 298.97005 141.831119 
L 300.60148 144.11533 
L 302.23291 142.446048 
L 303.86434 142.940205 
L 305.49577 140.740047 
L 307.1272 141.779673 
L 308.75863 143.193366 
L 310.390059 140.649301 
L 312.021489 141.533609 
L 313.652919 140.607072 
L 315.284349 144.744116 
L 316.915779 143.486321 
L 318.547209 145.446599 
L 320.178639 143.968797 
L 321.810069 145.577437 
L 323.441498 145.073162 
L 325.072928 142.576451 
L 326.704358 144.690627 
L 328.335788 142.025705 
L 329.967218 141.679064 
L 331.598648 139.100201 
L 333.230078 142.960922 
L 334.861508 144.025937 
L 336.492937 142.331924 
L 338.124367 143.003988 
L 339.755797 145.746835 
L 341.387227 140.956705 
L 343.018657 143.884055 
L 344.650087 144.393983 
L 346.281517 141.176563 
L 347.912947 142.165418 
L 349.544376 141.110968 
L 351.175806 145.584143 
L 352.807236 140.149851 
L 354.438666 145.236167 
L 356.070096 144.124108 
L 357.701526 141.759987 
L 359.332956 142.385522 
L 360.964386 145.58406 
L 362.595815 139.764239 
L 364.227245 145.856071 
L 365.858675 146.195357 
L 367.490105 142.569007 
L 369.121535 142.103261 
L 370.752965 144.016642 
L 372.384395 145.272475 
L 374.015825 142.984363 
L 375.647254 139.539586 
L 378.910114 144.589893 
L 380.541544 142.181182 
L 382.172974 143.102354 
L 383.804404 140.660984 
L 385.435834 143.159609 
L 387.067264 146.23515 
L 388.698693 141.82982 
L 390.330123 141.533021 
L 391.961553 144.320172 
L 393.592983 145.886601 
L 395.224413 145.127363 
L 396.855843 141.834889 
L 398.487273 141.515768 
L 398.487273 141.515768 
" clip-path="url(#paefcb5e9fc)" style="fill: none; stroke-dasharray: 9.6,2.4,1.5,2.4; stroke-dashoffset: 0; stroke: #008000; stroke-width: 1.5"/>
   </g>
   <g id="line2d_23">
    <path d="M 73.832727 159.81663 
L 75.464157 126.312512 
L 77.095587 117.974246 
L 78.727017 113.528627 
L 80.358447 121.995559 
L 81.989877 106.578767 
L 83.621307 88.568984 
L 85.252736 85.231837 
L 86.884166 114.105835 
L 88.515596 109.646544 
L 90.147026 95.478975 
L 91.778456 110.478073 
L 93.409886 110.088671 
L 95.041316 117.740781 
L 96.672746 114.074244 
L 98.304175 113.919528 
L 99.935605 121.794451 
L 101.567035 106.107717 
L 103.198465 98.780498 
L 104.829895 95.254524 
L 106.461325 99.31012 
L 108.092755 99.042443 
L 109.724185 118.133636 
L 111.355614 122.329904 
L 112.987044 113.882252 
L 114.618474 113.962731 
L 116.249904 117.742391 
L 117.881334 110.013809 
L 119.512764 109.900404 
L 121.144194 106.226039 
L 122.775624 106.197931 
L 124.407053 106.435773 
L 126.038483 106.452517 
L 127.669913 95.444085 
L 129.301343 102.565392 
L 130.932773 106.624492 
L 132.564203 102.651376 
L 134.195633 88.598635 
L 135.827063 113.718707 
L 137.458492 102.509123 
L 139.089922 102.468886 
L 140.721352 122.079198 
L 142.352782 113.843075 
L 143.984212 110.209074 
L 145.615642 85.561908 
L 147.247072 95.267737 
L 148.878502 118.169442 
L 150.509931 95.629187 
L 152.141361 102.250385 
L 153.772791 106.303948 
L 155.404221 98.86319 
L 157.035651 95.351805 
L 158.667081 85.485847 
L 160.298511 105.629846 
L 161.929941 69.63774 
L 163.56137 98.934534 
L 165.1928 109.659603 
L 166.82423 99.157598 
L 168.45566 109.780458 
L 170.08709 98.715122 
L 171.71852 102.97584 
L 173.34995 106.228201 
L 174.98138 121.9075 
L 176.61281 91.746598 
L 178.244239 99.145255 
L 179.875669 102.154765 
L 181.507099 105.942184 
L 183.138529 113.879536 
L 184.769959 99.105748 
L 186.401389 106.524434 
L 188.032819 102.519943 
L 189.664249 102.522992 
L 191.295678 109.693464 
L 192.927108 102.423715 
L 194.558538 78.807295 
L 196.189968 88.485144 
L 197.821398 82.122791 
L 199.452828 85.450811 
L 201.084258 99.710924 
L 202.715688 61.561373 
L 204.347117 92.373087 
L 205.978547 102.601991 
L 207.609977 71.167854 
L 209.241407 109.603775 
L 210.872837 102.28799 
L 212.504267 82.352964 
L 214.135697 82.457093 
L 215.767127 117.790475 
L 217.398556 98.911295 
L 219.029986 96.125606 
L 220.661416 95.117244 
L 222.292846 88.76329 
L 223.924276 99.112171 
L 225.555706 98.763538 
L 227.187136 109.614643 
L 228.818566 82.326113 
L 230.449995 106.637585 
L 232.081425 106.104967 
L 233.712855 92.874349 
L 235.344285 85.277921 
L 236.975715 106.147345 
L 238.607145 98.835266 
L 240.238575 102.369886 
L 241.870005 96.212882 
L 243.501434 106.055854 
L 245.132864 85.554998 
L 246.764294 113.750416 
L 248.395724 96.422979 
L 250.027154 106.039486 
L 251.658584 114.023387 
L 253.290014 99.432826 
L 254.921444 79.387347 
L 256.552873 105.963195 
L 258.184303 103.051373 
L 259.815733 102.280949 
L 261.447163 118.157171 
L 263.078593 102.204127 
L 264.710023 99.095557 
L 266.341453 106.286289 
L 267.972883 75.836498 
L 269.604312 109.708216 
L 271.235742 105.779726 
L 272.867172 91.817434 
L 274.498602 106.112893 
L 276.130032 86.168888 
L 277.761462 103.305735 
L 279.392892 82.754888 
L 281.024322 118.140946 
L 282.655751 98.82322 
L 284.287181 102.604534 
L 285.918611 79.553016 
L 287.550041 82.299276 
L 289.181471 95.446517 
L 290.812901 113.938945 
L 292.444331 89.067441 
L 294.075761 102.813617 
L 295.70719 53.568 
L 297.33862 117.89516 
L 298.97005 95.570053 
L 300.60148 98.740214 
L 302.23291 106.130828 
L 303.86434 117.717329 
L 305.49577 88.696636 
L 307.1272 110.050757 
L 308.75863 92.848517 
L 310.390059 95.510283 
L 313.652919 88.909773 
L 315.284349 107.128403 
L 316.915779 102.789021 
L 318.547209 110.188178 
L 320.178639 106.27721 
L 321.810069 114.074873 
L 323.441498 102.752038 
L 325.072928 106.3323 
L 326.704358 89.133948 
L 328.335788 99.138919 
L 329.967218 98.804504 
L 331.598648 95.561117 
L 333.230078 109.820624 
L 334.861508 106.136234 
L 336.492937 88.231611 
L 338.124367 99.012193 
L 339.755797 106.281535 
L 341.387227 102.524329 
L 343.018657 95.480089 
L 344.650087 103.277728 
L 346.281517 102.272985 
L 347.912947 89.028345 
L 349.544376 85.073247 
L 351.175806 113.92725 
L 352.807236 88.95737 
L 354.438666 109.678893 
L 356.070096 91.901324 
L 357.701526 95.255075 
L 359.332956 106.122071 
L 360.964386 118.171622 
L 362.595815 92.150413 
L 364.227245 85.310639 
L 365.858675 110.071284 
L 367.490105 98.926405 
L 369.121535 99.857012 
L 370.752965 114.183351 
L 372.384395 76.306656 
L 374.015825 106.150621 
L 375.647254 85.818868 
L 377.278684 76.879972 
L 378.910114 106.239934 
L 380.541544 106.482214 
L 382.172974 102.57286 
L 383.804404 106.447231 
L 385.435834 85.20144 
L 387.067264 98.964236 
L 388.698693 106.244683 
L 390.330123 64.33608 
L 391.961553 102.504681 
L 393.592983 85.153487 
L 395.224413 118.309295 
L 396.855843 102.454245 
L 398.487273 92.674142 
L 398.487273 92.674142 
" clip-path="url(#paefcb5e9fc)" style="fill: none; stroke: #ff0000; stroke-width: 1.5; stroke-linecap: square"/>
   </g>
   <g id="patch_3">
    <path d="M 57.6 307.584 
L 57.6 41.472 
" style="fill: none; stroke: #000000; stroke-width: 0.8; stroke-linejoin: miter; stroke-linecap: square"/>
   </g>
   <g id="patch_4">
    <path d="M 414.72 307.584 
L 414.72 41.472 
" style="fill: none; stroke: #000000; stroke-width: 0.8; stroke-linejoin: miter; stroke-linecap: square"/>
   </g>
   <g id="patch_5">
    <path d="M 57.6 307.584 
L 414.72 307.584 
" style="fill: none; stroke: #000000; stroke-width: 0.8; stroke-linejoin: miter; stroke-linecap: square"/>
   </g>
   <g id="patch_6">
    <path d="M 57.6 41.472 
L 414.72 41.472 
" style="fill: none; stroke: #000000; stroke-width: 0.8; stroke-linejoin: miter; stroke-linecap: square"/>
   </g>
   <g id="text_13">
    <!-- Średnie i najlepsze przystosowanie w każdej generacji -->
    <g transform="translate(73.26 35.472) scale(0.12 -0.12)">
     <defs>
      <path id="DejaVuSans-15a" d="M 2236 5921 
L 2814 5921 
L 2102 5096 
L 1623 5096 
L 2236 5921 
z
M 3425 4513 
L 3425 3897 
Q 3066 4069 2747 4153 
Q 2428 4238 2131 4238 
Q 1616 4238 1336 4038 
Q 1056 3838 1056 3469 
Q 1056 3159 1242 3001 
Q 1428 2844 1947 2747 
L 2328 2669 
Q 3034 2534 3370 2195 
Q 3706 1856 3706 1288 
Q 3706 609 3251 259 
Q 2797 -91 1919 -91 
Q 1588 -91 1214 -16 
Q 841 59 441 206 
L 441 856 
Q 825 641 1194 531 
Q 1563 422 1919 422 
Q 2459 422 2753 634 
Q 3047 847 3047 1241 
Q 3047 1584 2836 1778 
Q 2625 1972 2144 2069 
L 1759 2144 
Q 1053 2284 737 2584 
Q 422 2884 422 3419 
Q 422 4038 858 4394 
Q 1294 4750 2059 4750 
Q 2388 4750 2728 4690 
Q 3069 4631 3425 4513 
z
" transform="scale(0.015625)"/>
      <path id="DejaVuSans-64" d="M 2906 2969 
L 2906 4863 
L 3481 4863 
L 3481 0 
L 2906 0 
L 2906 525 
Q 2725 213 2448 61 
Q 2172 -91 1784 -91 
Q 1150 -91 751 415 
Q 353 922 353 1747 
Q 353 2572 751 3078 
Q 1150 3584 1784 3584 
Q 2172 3584 2448 3432 
Q 2725 3281 2906 2969 
z
M 947 1747 
Q 947 1113 1208 752 
Q 1469 391 1925 391 
Q 2381 391 2643 752 
Q 2906 1113 2906 1747 
Q 2906 2381 2643 2742 
Q 2381 3103 1925 3103 
Q 1469 3103 1208 2742 
Q 947 2381 947 1747 
z
" transform="scale(0.015625)"/>
      <path id="DejaVuSans-20" transform="scale(0.015625)"/>
      <path id="DejaVuSans-6c" d="M 603 4863 
L 1178 4863 
L 1178 0 
L 603 0 
L 603 4863 
z
" transform="scale(0.015625)"/>
      <path id="DejaVuSans-70" d="M 1159 525 
L 1159 -1331 
L 581 -1331 
L 581 3500 
L 1159 3500 
L 1159 2969 
Q 1341 3281 1617 3432 
Q 1894 3584 2278 3584 
Q 2916 3584 3314 3078 
Q 3713 2572 3713 1747 
Q 3713 922 3314 415 
Q 2916 -91 2278 -91 
Q 1894 -91 1617 61 
Q 1341 213 1159 525 
z
M 3116 1747 
Q 3116 2381 2855 2742 
Q 2594 3103 2138 3103 
Q 1681 3103 1420 2742 
Q 1159 2381 1159 1747 
Q 1159 1113 1420 752 
Q 1681 391 2138 391 
Q 2594 391 2855 752 
Q 3116 1113 3116 1747 
z
" transform="scale(0.015625)"/>
      <path id="DejaVuSans-6b" d="M 581 4863 
L 1159 4863 
L 1159 1991 
L 2875 3500 
L 3609 3500 
L 1753 1863 
L 3688 0 
L 2938 0 
L 1159 1709 
L 1159 0 
L 581 0 
L 581 4863 
z
" transform="scale(0.015625)"/>
      <path id="DejaVuSans-17c" d="M 1378 4863 
L 1953 4863 
L 1953 4134 
L 1378 4134 
L 1378 4863 
z
M 1672 3584 
L 1672 3584 
z
M 353 3500 
L 3084 3500 
L 3084 2975 
L 922 459 
L 3084 459 
L 3084 0 
L 275 0 
L 275 525 
L 2438 3041 
L 353 3041 
L 353 3500 
z
" transform="scale(0.015625)"/>
      <path id="DejaVuSans-67" d="M 2906 1791 
Q 2906 2416 2648 2759 
Q 2391 3103 1925 3103 
Q 1463 3103 1205 2759 
Q 947 2416 947 1791 
Q 947 1169 1205 825 
Q 1463 481 1925 481 
Q 2391 481 2648 825 
Q 2906 1169 2906 1791 
z
M 3481 434 
Q 3481 -459 3084 -895 
Q 2688 -1331 1869 -1331 
Q 1566 -1331 1297 -1286 
Q 1028 -1241 775 -1147 
L 775 -588 
Q 1028 -725 1275 -790 
Q 1522 -856 1778 -856 
Q 2344 -856 2625 -561 
Q 2906 -266 2906 331 
L 2906 616 
Q 2728 306 2450 153 
Q 2172 0 1784 0 
Q 1141 0 747 490 
Q 353 981 353 1791 
Q 353 2603 747 3093 
Q 1141 3584 1784 3584 
Q 2172 3584 2450 3431 
Q 2728 3278 2906 2969 
L 2906 3500 
L 3481 3500 
L 3481 434 
z
" transform="scale(0.015625)"/>
     </defs>
     <use xlink:href="#DejaVuSans-15a"/>
     <use xlink:href="#DejaVuSans-72" transform="translate(63.476562 0)"/>
     <use xlink:href="#DejaVuSans-65" transform="translate(102.339844 0)"/>
     <use xlink:href="#DejaVuSans-64" transform="translate(163.863281 0)"/>
     <use xlink:href="#DejaVuSans-6e" transform="translate(227.339844 0)"/>
     <use xlink:href="#DejaVuSans-69" transform="translate(290.71875 0)"/>
     <use xlink:href="#DejaVuSans-65" transform="translate(318.501953 0)"/>
     <use xlink:href="#DejaVuSans-20" transform="translate(380.025391 0)"/>
     <use xlink:href="#DejaVuSans-69" transform="translate(411.8125 0)"/>
     <use xlink:href="#DejaVuSans-20" transform="translate(439.595703 0)"/>
     <use xlink:href="#DejaVuSans-6e" transform="translate(471.382812 0)"/>
     <use xlink:href="#DejaVuSans-61" transform="translate(534.761719 0)"/>
     <use xlink:href="#DejaVuSans-6a" transform="translate(596.041016 0)"/>
     <use xlink:href="#DejaVuSans-6c" transform="translate(623.824219 0)"/>
     <use xlink:href="#DejaVuSans-65" transform="translate(651.607422 0)"/>
     <use xlink:href="#DejaVuSans-70" transform="translate(713.130859 0)"/>
     <use xlink:href="#DejaVuSans-73" transform="translate(776.607422 0)"/>
     <use xlink:href="#DejaVuSans-7a" transform="translate(828.707031 0)"/>
     <use xlink:href="#DejaVuSans-65" transform="translate(881.197266 0)"/>
     <use xlink:href="#DejaVuSans-20" transform="translate(942.720703 0)"/>
     <use xlink:href="#DejaVuSans-70" transform="translate(974.507812 0)"/>
     <use xlink:href="#DejaVuSans-72" transform="translate(1037.984375 0)"/>
     <use xlink:href="#DejaVuSans-7a" transform="translate(1079.097656 0)"/>
     <use xlink:href="#DejaVuSans-79" transform="translate(1131.587891 0)"/>
     <use xlink:href="#DejaVuSans-73" transform="translate(1190.767578 0)"/>
     <use xlink:href="#DejaVuSans-74" transform="translate(1242.867188 0)"/>
     <use xlink:href="#DejaVuSans-6f" transform="translate(1282.076172 0)"/>
     <use xlink:href="#DejaVuSans-73" transform="translate(1343.257812 0)"/>
     <use xlink:href="#DejaVuSans-6f" transform="translate(1395.357422 0)"/>
     <use xlink:href="#DejaVuSans-77" transform="translate(1456.539062 0)"/>
     <use xlink:href="#DejaVuSans-61" transform="translate(1538.326172 0)"/>
     <use xlink:href="#DejaVuSans-6e" transform="translate(1599.605469 0)"/>
     <use xlink:href="#DejaVuSans-69" transform="translate(1662.984375 0)"/>
     <use xlink:href="#DejaVuSans-65" transform="translate(1690.767578 0)"/>
     <use xlink:href="#DejaVuSans-20" transform="translate(1752.291016 0)"/>
     <use xlink:href="#DejaVuSans-77" transform="translate(1784.078125 0)"/>
     <use xlink:href="#DejaVuSans-20" transform="translate(1865.865234 0)"/>
     <use xlink:href="#DejaVuSans-6b" transform="translate(1897.652344 0)"/>
     <use xlink:href="#DejaVuSans-61" transform="translate(1953.8125 0)"/>
     <use xlink:href="#DejaVuSans-17c" transform="translate(2015.091797 0)"/>
     <use xlink:href="#DejaVuSans-64" transform="translate(2067.582031 0)"/>
     <use xlink:href="#DejaVuSans-65" transform="translate(2131.058594 0)"/>
     <use xlink:href="#DejaVuSans-6a" transform="translate(2192.582031 0)"/>
     <use xlink:href="#DejaVuSans-20" transform="translate(2220.365234 0)"/>
     <use xlink:href="#DejaVuSans-67" transform="translate(2252.152344 0)"/>
     <use xlink:href="#DejaVuSans-65" transform="translate(2315.628906 0)"/>
     <use xlink:href="#DejaVuSans-6e" transform="translate(2377.152344 0)"/>
     <use xlink:href="#DejaVuSans-65" transform="translate(2440.53125 0)"/>
     <use xlink:href="#DejaVuSans-72" transform="translate(2502.054688 0)"/>
     <use xlink:href="#DejaVuSans-61" transform="translate(2543.167969 0)"/>
     <use xlink:href="#DejaVuSans-63" transform="translate(2604.447266 0)"/>
     <use xlink:href="#DejaVuSans-6a" transform="translate(2659.427734 0)"/>
     <use xlink:href="#DejaVuSans-69" transform="translate(2687.210938 0)"/>
    </g>
   </g>
   <g id="legend_1">
    <g id="patch_7">
     <path d="M 279.790313 302.584 
L 407.72 302.584 
Q 409.72 302.584 409.72 300.584 
L 409.72 257.549625 
Q 409.72 255.549625 407.72 255.549625 
L 279.790313 255.549625 
Q 277.790313 255.549625 277.790313 257.549625 
L 277.790313 300.584 
Q 277.790313 302.584 279.790313 302.584 
z
" style="fill: #ffffff; opacity: 0.8; stroke: #cccccc; stroke-linejoin: miter"/>
    </g>
    <g id="line2d_24">
     <path d="M 281.790313 263.648062 
L 291.790313 263.648062 
L 301.790313 263.648062 
" style="fill: none; stroke: #0000ff; stroke-width: 1.5; stroke-linecap: square"/>
    </g>
    <g id="text_14">
     <!-- Średnia -->
     <g transform="translate(309.790313 267.148062) scale(0.1 -0.1)">
      <use xlink:href="#DejaVuSans-15a"/>
      <use xlink:href="#DejaVuSans-72" transform="translate(63.476562 0)"/>
      <use xlink:href="#DejaVuSans-65" transform="translate(102.339844 0)"/>
      <use xlink:href="#DejaVuSans-64" transform="translate(163.863281 0)"/>
      <use xlink:href="#DejaVuSans-6e" transform="translate(227.339844 0)"/>
      <use xlink:href="#DejaVuSans-69" transform="translate(290.71875 0)"/>
      <use xlink:href="#DejaVuSans-61" transform="translate(318.501953 0)"/>
     </g>
    </g>
    <g id="line2d_25">
     <path d="M 281.790313 278.326188 
L 291.790313 278.326188 
L 301.790313 278.326188 
" style="fill: none; stroke-dasharray: 9.6,2.4,1.5,2.4; stroke-dashoffset: 0; stroke: #008000; stroke-width: 1.5"/>
    </g>
    <g id="text_15">
     <!-- ±1 Odchylenie std. -->
     <g transform="translate(309.790313 281.826188) scale(0.1 -0.1)">
      <defs>
       <path id="DejaVuSans-b1" d="M 2944 4013 
L 2944 2803 
L 4684 2803 
L 4684 2272 
L 2944 2272 
L 2944 1063 
L 2419 1063 
L 2419 2272 
L 678 2272 
L 678 2803 
L 2419 2803 
L 2419 4013 
L 2944 4013 
z
M 678 531 
L 4684 531 
L 4684 0 
L 678 0 
L 678 531 
z
" transform="scale(0.015625)"/>
       <path id="DejaVuSans-4f" d="M 2522 4238 
Q 1834 4238 1429 3725 
Q 1025 3213 1025 2328 
Q 1025 1447 1429 934 
Q 1834 422 2522 422 
Q 3209 422 3611 934 
Q 4013 1447 4013 2328 
Q 4013 3213 3611 3725 
Q 3209 4238 2522 4238 
z
M 2522 4750 
Q 3503 4750 4090 4092 
Q 4678 3434 4678 2328 
Q 4678 1225 4090 567 
Q 3503 -91 2522 -91 
Q 1538 -91 948 565 
Q 359 1222 359 2328 
Q 359 3434 948 4092 
Q 1538 4750 2522 4750 
z
" transform="scale(0.015625)"/>
       <path id="DejaVuSans-68" d="M 3513 2113 
L 3513 0 
L 2938 0 
L 2938 2094 
Q 2938 2591 2744 2837 
Q 2550 3084 2163 3084 
Q 1697 3084 1428 2787 
Q 1159 2491 1159 1978 
L 1159 0 
L 581 0 
L 581 4863 
L 1159 4863 
L 1159 2956 
Q 1366 3272 1645 3428 
Q 1925 3584 2291 3584 
Q 2894 3584 3203 3211 
Q 3513 2838 3513 2113 
z
" transform="scale(0.015625)"/>
       <path id="DejaVuSans-2e" d="M 684 794 
L 1344 794 
L 1344 0 
L 684 0 
L 684 794 
z
" transform="scale(0.015625)"/>
      </defs>
      <use xlink:href="#DejaVuSans-b1"/>
      <use xlink:href="#DejaVuSans-31" transform="translate(83.789062 0)"/>
      <use xlink:href="#DejaVuSans-20" transform="translate(147.412109 0)"/>
      <use xlink:href="#DejaVuSans-4f" transform="translate(179.199219 0)"/>
      <use xlink:href="#DejaVuSans-64" transform="translate(257.910156 0)"/>
      <use xlink:href="#DejaVuSans-63" transform="translate(321.386719 0)"/>
      <use xlink:href="#DejaVuSans-68" transform="translate(376.367188 0)"/>
      <use xlink:href="#DejaVuSans-79" transform="translate(439.746094 0)"/>
      <use xlink:href="#DejaVuSans-6c" transform="translate(498.925781 0)"/>
      <use xlink:href="#DejaVuSans-65" transform="translate(526.708984 0)"/>
      <use xlink:href="#DejaVuSans-6e" transform="translate(588.232422 0)"/>
      <use xlink:href="#DejaVuSans-69" transform="translate(651.611328 0)"/>
      <use xlink:href="#DejaVuSans-65" transform="translate(679.394531 0)"/>
      <use xlink:href="#DejaVuSans-20" transform="translate(740.917969 0)"/>
      <use xlink:href="#DejaVuSans-73" transform="translate(772.705078 0)"/>
      <use xlink:href="#DejaVuSans-74" transform="translate(824.804688 0)"/>
      <use xlink:href="#DejaVuSans-64" transform="translate(864.013672 0)"/>
      <use xlink:href="#DejaVuSans-2e" transform="translate(927.490234 0)"/>
     </g>
    </g>
    <g id="line2d_26">
     <path d="M 281.790313 293.004312 
L 291.790313 293.004312 
L 301.790313 293.004312 
" style="fill: none; stroke: #ff0000; stroke-width: 1.5; stroke-linecap: square"/>
    </g>
    <g id="text_16">
     <!-- Najlepsze -->
     <g transform="translate(309.790313 296.504312) scale(0.1 -0.1)">
      <defs>
       <path id="DejaVuSans-4e" d="M 628 4666 
L 1478 4666 
L 3547 763 
L 3547 4666 
L 4159 4666 
L 4159 0 
L 3309 0 
L 1241 3903 
L 1241 0 
L 628 0 
L 628 4666 
z
" transform="scale(0.015625)"/>
      </defs>
      <use xlink:href="#DejaVuSans-4e"/>
      <use xlink:href="#DejaVuSans-61" transform="translate(74.804688 0)"/>
      <use xlink:href="#DejaVuSans-6a" transform="translate(136.083984 0)"/>
      <use xlink:href="#DejaVuSans-6c" transform="translate(163.867188 0)"/>
      <use xlink:href="#DejaVuSans-65" transform="translate(191.650391 0)"/>
      <use xlink:href="#DejaVuSans-70" transform="translate(253.173828 0)"/>
      <use xlink:href="#DejaVuSans-73" transform="translate(316.650391 0)"/>
      <use xlink:href="#DejaVuSans-7a" transform="translate(368.75 0)"/>
      <use xlink:href="#DejaVuSans-65" transform="translate(421.240234 0)"/>
     </g>
    </g>
   </g>
  </g>
 </g>
 <defs>
  <clipPath id="paefcb5e9fc">
   <rect x="57.6" y="41.472" width="357.12" height="266.112"/>
  </clipPath>
 </defs>
</svg>
