<?xml version="1.0" encoding="utf-8" standalone="no"?>
<!DOCTYPE svg PUBLIC "-//W3C//DTD SVG 1.1//EN"
  "http://www.w3.org/Graphics/SVG/1.1/DTD/svg11.dtd">
<svg xmlns:xlink="http://www.w3.org/1999/xlink" width="460.8pt" height="345.6pt" viewBox="0 0 460.8 345.6" xmlns="http://www.w3.org/2000/svg" version="1.1">
 <metadata>
  <rdf:RDF xmlns:dc="http://purl.org/dc/elements/1.1/" xmlns:cc="http://creativecommons.org/ns#" xmlns:rdf="http://www.w3.org/1999/02/22-rdf-syntax-ns#">
   <cc:Work>
    <dc:type rdf:resource="http://purl.org/dc/dcmitype/StillImage"/>
    <dc:date>2026-04-27T01:24:51.346370</dc:date>
    <dc:format>image/svg+xml</dc:format>
    <dc:creator>
     <cc:Agent>
      <dc:title>Matplotlib v3.10.8, https://matplotlib.org/</dc:title>
     </cc:Agent>
    </dc:creator>
   </cc:Work>
  </rdf:RDF>
 </metadata>
 <defs>
  <style type="text/css">*{stroke-linejoin: round; stroke-linecap: butt}</style>
 </defs>
 <g id="figure_1">
  <g id="patch_1">
   <path d="M 0 345.6 
L 460.8 345.6 
L 460.8 0 
L 0 0 
z
" style="fill: #ffffff"/>
  </g>
  <g id="axes_1">
   <g id="patch_2">
    <path d="M 57.6 307.584 
L 414.72 307.584 
L 414.72 41.472 
L 57.6 41.472 
z
" style="fill: #ffffff"/>
   </g>
   <g id="matplotlib.axis_1">
    <g id="xtick_1">
     <g id="line2d_1">
      <path d="M 72.201297 307.584 
L 72.201297 41.472 
" clip-path="url(#pc9b2e9cab2)" style="fill: none; stroke: #b0b0b0; stroke-width: 0.8; stroke-linecap: square"/>
     </g>
     <g id="line2d_2">
      <defs>
       <path id="mfb1833f3e8" d="M 0 0 
L 0 3.5 
" style="stroke: #000000; stroke-width: 0.8"/>
      </defs>
      <g>
       <use xlink:href="#mfb1833f3e8" x="72.201297" y="307.584" style="stroke: #000000; stroke-width: 0.8"/>
      </g>
     </g>
     <g id="text_1">
      <!-- 0 -->
      <g transform="translate(69.020047 322.182437) scale(0.1 -0.1)">
       <defs>
        <path id="DejaVuSans-30" d="M 2034 4250 
Q 1547 4250 1301 3770 
Q 1056 3291 1056 2328 
Q 1056 1369 1301 889 
Q 1547 409 2034 409 
Q 2525 409 2770 889 
Q 3016 1369 3016 2328 
Q 3016 3291 2770 3770 
Q 2525 4250 2034 4250 
z
M 2034 4750 
Q 2819 4750 3233 4129 
Q 3647 3509 3647 2328 
Q 3647 1150 3233 529 
Q 2819 -91 2034 -91 
Q 1250 -91 836 529 
Q 422 1150 422 2328 
Q 422 3509 836 4129 
Q 1250 4750 2034 4750 
z
" transform="scale(0.015625)"/>
       </defs>
       <use xlink:href="#DejaVuSans-30"/>
      </g>
     </g>
    </g>
    <g id="xtick_2">
     <g id="line2d_3">
      <path d="M 112.987044 307.584 
L 112.987044 41.472 
" clip-path="url(#pc9b2e9cab2)" style="fill: none; stroke: #b0b0b0; stroke-width: 0.8; stroke-linecap: square"/>
     </g>
     <g id="line2d_4">
      <g>
       <use xlink:href="#mfb1833f3e8" x="112.987044" y="307.584" style="stroke: #000000; stroke-width: 0.8"/>
      </g>
     </g>
     <g id="text_2">
      <!-- 25 -->
      <g transform="translate(106.624544 322.182437) scale(0.1 -0.1)">
       <defs>
        <path id="DejaVuSans-32" d="M 1228 531 
L 3431 531 
L 3431 0 
L 469 0 
L 469 531 
Q 828 903 1448 1529 
Q 2069 2156 2228 2338 
Q 2531 2678 2651 2914 
Q 2772 3150 2772 3378 
Q 2772 3750 2511 3984 
Q 2250 4219 1831 4219 
Q 1534 4219 1204 4116 
Q 875 4013 500 3803 
L 500 4441 
Q 881 4594 1212 4672 
Q 1544 4750 1819 4750 
Q 2544 4750 2975 4387 
Q 3406 4025 3406 3419 
Q 3406 3131 3298 2873 
Q 3191 2616 2906 2266 
Q 2828 2175 2409 1742 
Q 1991 1309 1228 531 
z
" transform="scale(0.015625)"/>
        <path id="DejaVuSans-35" d="M 691 4666 
L 3169 4666 
L 3169 4134 
L 1269 4134 
L 1269 2991 
Q 1406 3038 1543 3061 
Q 1681 3084 1819 3084 
Q 2600 3084 3056 2656 
Q 3513 2228 3513 1497 
Q 3513 744 3044 326 
Q 2575 -91 1722 -91 
Q 1428 -91 1123 -41 
Q 819 9 494 109 
L 494 744 
Q 775 591 1075 516 
Q 1375 441 1709 441 
Q 2250 441 2565 725 
Q 2881 1009 2881 1497 
Q 2881 1984 2565 2268 
Q 2250 2553 1709 2553 
Q 1456 2553 1204 2497 
Q 953 2441 691 2322 
L 691 4666 
z
" transform="scale(0.015625)"/>
       </defs>
       <use xlink:href="#DejaVuSans-32"/>
       <use xlink:href="#DejaVuSans-35" transform="translate(63.623047 0)"/>
      </g>
     </g>
    </g>
    <g id="xtick_3">
     <g id="line2d_5">
      <path d="M 153.772791 307.584 
L 153.772791 41.472 
" clip-path="url(#pc9b2e9cab2)" style="fill: none; stroke: #b0b0b0; stroke-width: 0.8; stroke-linecap: square"/>
     </g>
     <g id="line2d_6">
      <g>
       <use xlink:href="#mfb1833f3e8" x="153.772791" y="307.584" style="stroke: #000000; stroke-width: 0.8"/>
      </g>
     </g>
     <g id="text_3">
      <!-- 50 -->
      <g transform="translate(147.410291 322.182437) scale(0.1 -0.1)">
       <use xlink:href="#DejaVuSans-35"/>
       <use xlink:href="#DejaVuSans-30" transform="translate(63.623047 0)"/>
      </g>
     </g>
    </g>
    <g id="xtick_4">
     <g id="line2d_7">
      <path d="M 194.558538 307.584 
L 194.558538 41.472 
" clip-path="url(#pc9b2e9cab2)" style="fill: none; stroke: #b0b0b0; stroke-width: 0.8; stroke-linecap: square"/>
     </g>
     <g id="line2d_8">
      <g>
       <use xlink:href="#mfb1833f3e8" x="194.558538" y="307.584" style="stroke: #000000; stroke-width: 0.8"/>
      </g>
     </g>
     <g id="text_4">
      <!-- 75 -->
      <g transform="translate(188.196038 322.182437) scale(0.1 -0.1)">
       <defs>
        <path id="DejaVuSans-37" d="M 525 4666 
L 3525 4666 
L 3525 4397 
L 1831 0 
L 1172 0 
L 2766 4134 
L 525 4134 
L 525 4666 
z
" transform="scale(0.015625)"/>
       </defs>
       <use xlink:href="#DejaVuSans-37"/>
       <use xlink:href="#DejaVuSans-35" transform="translate(63.623047 0)"/>
      </g>
     </g>
    </g>
    <g id="xtick_5">
     <g id="line2d_9">
      <path d="M 235.344285 307.584 
L 235.344285 41.472 
" clip-path="url(#pc9b2e9cab2)" style="fill: none; stroke: #b0b0b0; stroke-width: 0.8; stroke-linecap: square"/>
     </g>
     <g id="line2d_10">
      <g>
       <use xlink:href="#mfb1833f3e8" x="235.344285" y="307.584" style="stroke: #000000; stroke-width: 0.8"/>
      </g>
     </g>
     <g id="text_5">
      <!-- 100 -->
      <g transform="translate(225.800535 322.182437) scale(0.1 -0.1)">
       <defs>
        <path id="DejaVuSans-31" d="M 794 531 
L 1825 531 
L 1825 4091 
L 703 3866 
L 703 4441 
L 1819 4666 
L 2450 4666 
L 2450 531 
L 3481 531 
L 3481 0 
L 794 0 
L 794 531 
z
" transform="scale(0.015625)"/>
       </defs>
       <use xlink:href="#DejaVuSans-31"/>
       <use xlink:href="#DejaVuSans-30" transform="translate(63.623047 0)"/>
       <use xlink:href="#DejaVuSans-30" transform="translate(127.246094 0)"/>
      </g>
     </g>
    </g>
    <g id="xtick_6">
     <g id="line2d_11">
      <path d="M 276.130032 307.584 
L 276.130032 41.472 
" clip-path="url(#pc9b2e9cab2)" style="fill: none; stroke: #b0b0b0; stroke-width: 0.8; stroke-linecap: square"/>
     </g>
     <g id="line2d_12">
      <g>
       <use xlink:href="#mfb1833f3e8" x="276.130032" y="307.584" style="stroke: #000000; stroke-width: 0.8"/>
      </g>
     </g>
     <g id="text_6">
      <!-- 125 -->
      <g transform="translate(266.586282 322.182437) scale(0.1 -0.1)">
       <use xlink:href="#DejaVuSans-31"/>
       <use xlink:href="#DejaVuSans-32" transform="translate(63.623047 0)"/>
       <use xlink:href="#DejaVuSans-35" transform="translate(127.246094 0)"/>
      </g>
     </g>
    </g>
    <g id="xtick_7">
     <g id="line2d_13">
      <path d="M 316.915779 307.584 
L 316.915779 41.472 
" clip-path="url(#pc9b2e9cab2)" style="fill: none; stroke: #b0b0b0; stroke-width: 0.8; stroke-linecap: square"/>
     </g>
     <g id="line2d_14">
      <g>
       <use xlink:href="#mfb1833f3e8" x="316.915779" y="307.584" style="stroke: #000000; stroke-width: 0.8"/>
      </g>
     </g>
     <g id="text_7">
      <!-- 150 -->
      <g transform="translate(307.372029 322.182437) scale(0.1 -0.1)">
       <use xlink:href="#DejaVuSans-31"/>
       <use xlink:href="#DejaVuSans-35" transform="translate(63.623047 0)"/>
       <use xlink:href="#DejaVuSans-30" transform="translate(127.246094 0)"/>
      </g>
     </g>
    </g>
    <g id="xtick_8">
     <g id="line2d_15">
      <path d="M 357.701526 307.584 
L 357.701526 41.472 
" clip-path="url(#pc9b2e9cab2)" style="fill: none; stroke: #b0b0b0; stroke-width: 0.8; stroke-linecap: square"/>
     </g>
     <g id="line2d_16">
      <g>
       <use xlink:href="#mfb1833f3e8" x="357.701526" y="307.584" style="stroke: #000000; stroke-width: 0.8"/>
      </g>
     </g>
     <g id="text_8">
      <!-- 175 -->
      <g transform="translate(348.157776 322.182437) scale(0.1 -0.1)">
       <use xlink:href="#DejaVuSans-31"/>
       <use xlink:href="#DejaVuSans-37" transform="translate(63.623047 0)"/>
       <use xlink:href="#DejaVuSans-35" transform="translate(127.246094 0)"/>
      </g>
     </g>
    </g>
    <g id="xtick_9">
     <g id="line2d_17">
      <path d="M 398.487273 307.584 
L 398.487273 41.472 
" clip-path="url(#pc9b2e9cab2)" style="fill: none; stroke: #b0b0b0; stroke-width: 0.8; stroke-linecap: square"/>
     </g>
     <g id="line2d_18">
      <g>
       <use xlink:href="#mfb1833f3e8" x="398.487273" y="307.584" style="stroke: #000000; stroke-width: 0.8"/>
      </g>
     </g>
     <g id="text_9">
      <!-- 200 -->
      <g transform="translate(388.943523 322.182437) scale(0.1 -0.1)">
       <use xlink:href="#DejaVuSans-32"/>
       <use xlink:href="#DejaVuSans-30" transform="translate(63.623047 0)"/>
       <use xlink:href="#DejaVuSans-30" transform="translate(127.246094 0)"/>
      </g>
     </g>
    </g>
    <g id="text_10">
     <!-- Generacje -->
     <g transform="translate(210.629531 335.860562) scale(0.1 -0.1)">
      <defs>
       <path id="DejaVuSans-47" d="M 3809 666 
L 3809 1919 
L 2778 1919 
L 2778 2438 
L 4434 2438 
L 4434 434 
Q 4069 175 3628 42 
Q 3188 -91 2688 -91 
Q 1594 -91 976 548 
Q 359 1188 359 2328 
Q 359 3472 976 4111 
Q 1594 4750 2688 4750 
Q 3144 4750 3555 4637 
Q 3966 4525 4313 4306 
L 4313 3634 
Q 3963 3931 3569 4081 
Q 3175 4231 2741 4231 
Q 1884 4231 1454 3753 
Q 1025 3275 1025 2328 
Q 1025 1384 1454 906 
Q 1884 428 2741 428 
Q 3075 428 3337 486 
Q 3600 544 3809 666 
z
" transform="scale(0.015625)"/>
       <path id="DejaVuSans-65" d="M 3597 1894 
L 3597 1613 
L 953 1613 
Q 991 1019 1311 708 
Q 1631 397 2203 397 
Q 2534 397 2845 478 
Q 3156 559 3463 722 
L 3463 178 
Q 3153 47 2828 -22 
Q 2503 -91 2169 -91 
Q 1331 -91 842 396 
Q 353 884 353 1716 
Q 353 2575 817 3079 
Q 1281 3584 2069 3584 
Q 2775 3584 3186 3129 
Q 3597 2675 3597 1894 
z
M 3022 2063 
Q 3016 2534 2758 2815 
Q 2500 3097 2075 3097 
Q 1594 3097 1305 2825 
Q 1016 2553 972 2059 
L 3022 2063 
z
" transform="scale(0.015625)"/>
       <path id="DejaVuSans-6e" d="M 3513 2113 
L 3513 0 
L 2938 0 
L 2938 2094 
Q 2938 2591 2744 2837 
Q 2550 3084 2163 3084 
Q 1697 3084 1428 2787 
Q 1159 2491 1159 1978 
L 1159 0 
L 581 0 
L 581 3500 
L 1159 3500 
L 1159 2956 
Q 1366 3272 1645 3428 
Q 1925 3584 2291 3584 
Q 2894 3584 3203 3211 
Q 3513 2838 3513 2113 
z
" transform="scale(0.015625)"/>
       <path id="DejaVuSans-72" d="M 2631 2963 
Q 2534 3019 2420 3045 
Q 2306 3072 2169 3072 
Q 1681 3072 1420 2755 
Q 1159 2438 1159 1844 
L 1159 0 
L 581 0 
L 581 3500 
L 1159 3500 
L 1159 2956 
Q 1341 3275 1631 3429 
Q 1922 3584 2338 3584 
Q 2397 3584 2469 3576 
Q 2541 3569 2628 3553 
L 2631 2963 
z
" transform="scale(0.015625)"/>
       <path id="DejaVuSans-61" d="M 2194 1759 
Q 1497 1759 1228 1600 
Q 959 1441 959 1056 
Q 959 750 1161 570 
Q 1363 391 1709 391 
Q 2188 391 2477 730 
Q 2766 1069 2766 1631 
L 2766 1759 
L 2194 1759 
z
M 3341 1997 
L 3341 0 
L 2766 0 
L 2766 531 
Q 2569 213 2275 61 
Q 1981 -91 1556 -91 
Q 1019 -91 701 211 
Q 384 513 384 1019 
Q 384 1609 779 1909 
Q 1175 2209 1959 2209 
L 2766 2209 
L 2766 2266 
Q 2766 2663 2505 2880 
Q 2244 3097 1772 3097 
Q 1472 3097 1187 3025 
Q 903 2953 641 2809 
L 641 3341 
Q 956 3463 1253 3523 
Q 1550 3584 1831 3584 
Q 2591 3584 2966 3190 
Q 3341 2797 3341 1997 
z
" transform="scale(0.015625)"/>
       <path id="DejaVuSans-63" d="M 3122 3366 
L 3122 2828 
Q 2878 2963 2633 3030 
Q 2388 3097 2138 3097 
Q 1578 3097 1268 2742 
Q 959 2388 959 1747 
Q 959 1106 1268 751 
Q 1578 397 2138 397 
Q 2388 397 2633 464 
Q 2878 531 3122 666 
L 3122 134 
Q 2881 22 2623 -34 
Q 2366 -91 2075 -91 
Q 1284 -91 818 406 
Q 353 903 353 1747 
Q 353 2603 823 3093 
Q 1294 3584 2113 3584 
Q 2378 3584 2631 3529 
Q 2884 3475 3122 3366 
z
" transform="scale(0.015625)"/>
       <path id="DejaVuSans-6a" d="M 603 3500 
L 1178 3500 
L 1178 -63 
Q 1178 -731 923 -1031 
Q 669 -1331 103 -1331 
L -116 -1331 
L -116 -844 
L 38 -844 
Q 366 -844 484 -692 
Q 603 -541 603 -63 
L 603 3500 
z
M 603 4863 
L 1178 4863 
L 1178 4134 
L 603 4134 
L 603 4863 
z
" transform="scale(0.015625)"/>
      </defs>
      <use xlink:href="#DejaVuSans-47"/>
      <use xlink:href="#DejaVuSans-65" transform="translate(77.490234 0)"/>
      <use xlink:href="#DejaVuSans-6e" transform="translate(139.013672 0)"/>
      <use xlink:href="#DejaVuSans-65" transform="translate(202.392578 0)"/>
      <use xlink:href="#DejaVuSans-72" transform="translate(263.916016 0)"/>
      <use xlink:href="#DejaVuSans-61" transform="translate(305.029297 0)"/>
      <use xlink:href="#DejaVuSans-63" transform="translate(366.308594 0)"/>
      <use xlink:href="#DejaVuSans-6a" transform="translate(421.289062 0)"/>
      <use xlink:href="#DejaVuSans-65" transform="translate(449.072266 0)"/>
     </g>
    </g>
   </g>
   <g id="matplotlib.axis_2">
    <g id="ytick_1">
     <g id="line2d_19">
      <path d="M 57.6 137.53673 
L 414.72 137.53673 
" clip-path="url(#pc9b2e9cab2)" style="fill: none; stroke: #b0b0b0; stroke-width: 0.8; stroke-linecap: square"/>
     </g>
     <g id="line2d_20">
      <defs>
       <path id="md77c6cd5b6" d="M 0 0 
L -3.5 0 
" style="stroke: #000000; stroke-width: 0.8"/>
      </defs>
      <g>
       <use xlink:href="#md77c6cd5b6" x="57.6" y="137.53673" style="stroke: #000000; stroke-width: 0.8"/>
      </g>
     </g>
     <g id="text_11">
      <!-- $\mathdefault{10^{2}}$ -->
      <g transform="translate(33 141.335949) scale(0.1 -0.1)">
       <use xlink:href="#DejaVuSans-31" transform="translate(0 0.765625)"/>
       <use xlink:href="#DejaVuSans-30" transform="translate(63.623047 0.765625)"/>
       <use xlink:href="#DejaVuSans-32" transform="translate(128.203125 39.046875) scale(0.7)"/>
      </g>
     </g>
    </g>
    <g id="text_12">
     <!-- Przystosowanie -->
     <g transform="translate(26.920312 213.170187) rotate(-90) scale(0.1 -0.1)">
      <defs>
       <path id="DejaVuSans-50" d="M 1259 4147 
L 1259 2394 
L 2053 2394 
Q 2494 2394 2734 2622 
Q 2975 2850 2975 3272 
Q 2975 3691 2734 3919 
Q 2494 4147 2053 4147 
L 1259 4147 
z
M 628 4666 
L 2053 4666 
Q 2838 4666 3239 4311 
Q 3641 3956 3641 3272 
Q 3641 2581 3239 2228 
Q 2838 1875 2053 1875 
L 1259 1875 
L 1259 0 
L 628 0 
L 628 4666 
z
" transform="scale(0.015625)"/>
       <path id="DejaVuSans-7a" d="M 353 3500 
L 3084 3500 
L 3084 2975 
L 922 459 
L 3084 459 
L 3084 0 
L 275 0 
L 275 525 
L 2438 3041 
L 353 3041 
L 353 3500 
z
" transform="scale(0.015625)"/>
       <path id="DejaVuSans-79" d="M 2059 -325 
Q 1816 -950 1584 -1140 
Q 1353 -1331 966 -1331 
L 506 -1331 
L 506 -850 
L 844 -850 
Q 1081 -850 1212 -737 
Q 1344 -625 1503 -206 
L 1606 56 
L 191 3500 
L 800 3500 
L 1894 763 
L 2988 3500 
L 3597 3500 
L 2059 -325 
z
" transform="scale(0.015625)"/>
       <path id="DejaVuSans-73" d="M 2834 3397 
L 2834 2853 
Q 2591 2978 2328 3040 
Q 2066 3103 1784 3103 
Q 1356 3103 1142 2972 
Q 928 2841 928 2578 
Q 928 2378 1081 2264 
Q 1234 2150 1697 2047 
L 1894 2003 
Q 2506 1872 2764 1633 
Q 3022 1394 3022 966 
Q 3022 478 2636 193 
Q 2250 -91 1575 -91 
Q 1294 -91 989 -36 
Q 684 19 347 128 
L 347 722 
Q 666 556 975 473 
Q 1284 391 1588 391 
Q 1994 391 2212 530 
Q 2431 669 2431 922 
Q 2431 1156 2273 1281 
Q 2116 1406 1581 1522 
L 1381 1569 
Q 847 1681 609 1914 
Q 372 2147 372 2553 
Q 372 3047 722 3315 
Q 1072 3584 1716 3584 
Q 2034 3584 2315 3537 
Q 2597 3491 2834 3397 
z
" transform="scale(0.015625)"/>
       <path id="DejaVuSans-74" d="M 1172 4494 
L 1172 3500 
L 2356 3500 
L 2356 3053 
L 1172 3053 
L 1172 1153 
Q 1172 725 1289 603 
Q 1406 481 1766 481 
L 2356 481 
L 2356 0 
L 1766 0 
Q 1100 0 847 248 
Q 594 497 594 1153 
L 594 3053 
L 172 3053 
L 172 3500 
L 594 3500 
L 594 4494 
L 1172 4494 
z
" transform="scale(0.015625)"/>
       <path id="DejaVuSans-6f" d="M 1959 3097 
Q 1497 3097 1228 2736 
Q 959 2375 959 1747 
Q 959 1119 1226 758 
Q 1494 397 1959 397 
Q 2419 397 2687 759 
Q 2956 1122 2956 1747 
Q 2956 2369 2687 2733 
Q 2419 3097 1959 3097 
z
M 1959 3584 
Q 2709 3584 3137 3096 
Q 3566 2609 3566 1747 
Q 3566 888 3137 398 
Q 2709 -91 1959 -91 
Q 1206 -91 779 398 
Q 353 888 353 1747 
Q 353 2609 779 3096 
Q 1206 3584 1959 3584 
z
" transform="scale(0.015625)"/>
       <path id="DejaVuSans-77" d="M 269 3500 
L 844 3500 
L 1563 769 
L 2278 3500 
L 2956 3500 
L 3675 769 
L 4391 3500 
L 4966 3500 
L 4050 0 
L 3372 0 
L 2619 2869 
L 1863 0 
L 1184 0 
L 269 3500 
z
" transform="scale(0.015625)"/>
       <path id="DejaVuSans-69" d="M 603 3500 
L 1178 3500 
L 1178 0 
L 603 0 
L 603 3500 
z
M 603 4863 
L 1178 4863 
L 1178 4134 
L 603 4134 
L 603 4863 
z
" transform="scale(0.015625)"/>
      </defs>
      <use xlink:href="#DejaVuSans-50"/>
      <use xlink:href="#DejaVuSans-72" transform="translate(58.552734 0)"/>
      <use xlink:href="#DejaVuSans-7a" transform="translate(99.666016 0)"/>
      <use xlink:href="#DejaVuSans-79" transform="translate(152.15625 0)"/>
      <use xlink:href="#DejaVuSans-73" transform="translate(211.335938 0)"/>
      <use xlink:href="#DejaVuSans-74" transform="translate(263.435547 0)"/>
      <use xlink:href="#DejaVuSans-6f" transform="translate(302.644531 0)"/>
      <use xlink:href="#DejaVuSans-73" transform="translate(363.826172 0)"/>
      <use xlink:href="#DejaVuSans-6f" transform="translate(415.925781 0)"/>
      <use xlink:href="#DejaVuSans-77" transform="translate(477.107422 0)"/>
      <use xlink:href="#DejaVuSans-61" transform="translate(558.894531 0)"/>
      <use xlink:href="#DejaVuSans-6e" transform="translate(620.173828 0)"/>
      <use xlink:href="#DejaVuSans-69" transform="translate(683.552734 0)"/>
      <use xlink:href="#DejaVuSans-65" transform="translate(711.335938 0)"/>
     </g>
    </g>
   </g>
   <g id="line2d_21">
    <path d="M 73.832727 295.488 
L 75.464157 237.947385 
L 77.095587 199.871606 
L 78.727017 192.423439 
L 80.358447 191.697178 
L 81.989877 195.371997 
L 83.621307 177.032438 
L 85.252736 181.90572 
L 86.884166 174.599156 
L 88.515596 172.931006 
L 90.147026 175.295207 
L 91.778456 172.788354 
L 93.409886 170.5925 
L 95.041316 171.548256 
L 96.672746 170.073433 
L 98.304175 165.546905 
L 99.935605 171.275173 
L 101.567035 166.357918 
L 103.198465 165.7277 
L 104.829895 169.554926 
L 106.461325 165.751406 
L 108.092755 168.59094 
L 109.724185 169.967208 
L 111.355614 168.968631 
L 112.987044 170.352971 
L 114.618474 170.088865 
L 116.249904 167.085322 
L 117.881334 167.247278 
L 119.512764 165.199243 
L 121.144194 166.433277 
L 122.775624 167.10404 
L 124.407053 168.903674 
L 126.038483 164.87092 
L 127.669913 167.727504 
L 129.301343 168.45709 
L 130.932773 168.13301 
L 132.564203 168.300041 
L 134.195633 167.439443 
L 135.827063 165.731927 
L 137.458492 168.555082 
L 139.089922 167.970999 
L 140.721352 165.551949 
L 142.352782 168.658105 
L 143.984212 167.229897 
L 145.615642 166.11558 
L 147.247072 168.9031 
L 148.878502 166.388386 
L 150.509931 166.221585 
L 152.141361 165.123232 
L 153.772791 162.572583 
L 155.404221 168.738128 
L 157.035651 163.539519 
L 158.667081 163.417545 
L 160.298511 164.19907 
L 161.929941 162.078484 
L 163.56137 169.028394 
L 165.1928 167.229649 
L 166.82423 167.129427 
L 168.45566 164.354968 
L 170.08709 167.300716 
L 171.71852 166.50156 
L 173.34995 166.778464 
L 174.98138 165.324168 
L 176.61281 167.05475 
L 178.244239 166.568155 
L 179.875669 164.673605 
L 181.507099 166.680894 
L 183.138529 166.680759 
L 184.769959 164.402685 
L 188.032819 165.939049 
L 189.664249 166.192125 
L 192.927108 164.679113 
L 194.558538 166.878631 
L 196.189968 163.74405 
L 197.821398 167.070772 
L 199.452828 165.051662 
L 201.084258 163.285015 
L 202.715688 163.830719 
L 204.347117 165.678013 
L 205.978547 167.289495 
L 207.609977 165.944012 
L 209.241407 166.513296 
L 210.872837 166.21094 
L 212.504267 165.307526 
L 214.135697 162.65154 
L 215.767127 163.640327 
L 217.398556 164.447099 
L 220.661416 161.350671 
L 222.292846 160.714849 
L 223.924276 165.416457 
L 225.555706 165.875253 
L 227.187136 162.500411 
L 228.818566 164.746347 
L 230.449995 162.205893 
L 232.081425 165.501846 
L 233.712855 164.402102 
L 235.344285 162.825087 
L 236.975715 161.854277 
L 238.607145 164.434535 
L 240.238575 162.833515 
L 241.870005 164.415499 
L 243.501434 165.48305 
L 245.132864 163.799784 
L 246.764294 165.591041 
L 248.395724 164.152762 
L 250.027154 163.951117 
L 251.658584 164.161626 
L 253.290014 161.235349 
L 254.921444 166.329628 
L 256.552873 162.384803 
L 258.184303 164.347686 
L 259.815733 163.766662 
L 261.447163 163.991578 
L 263.078593 163.542595 
L 264.710023 161.527657 
L 266.341453 164.361414 
L 267.972883 164.894026 
L 269.604312 165.593511 
L 271.235742 164.197811 
L 272.867172 165.352045 
L 274.498602 164.857361 
L 276.130032 163.342007 
L 277.761462 163.358981 
L 279.392892 161.211879 
L 281.024322 162.515129 
L 282.655751 161.655098 
L 284.287181 164.786363 
L 285.918611 165.596083 
L 287.550041 164.065308 
L 289.181471 164.967023 
L 290.812901 162.370738 
L 295.70719 163.365073 
L 297.33862 161.192335 
L 298.97005 163.069723 
L 300.60148 165.916891 
L 302.23291 163.628888 
L 303.86434 162.892865 
L 305.49577 165.398449 
L 307.1272 163.282873 
L 308.75863 166.136008 
L 310.390059 163.46796 
L 312.021489 161.590855 
L 313.652919 162.710164 
L 315.284349 162.490988 
L 316.915779 162.124547 
L 318.547209 164.68159 
L 320.178639 162.943443 
L 321.810069 162.044364 
L 323.441498 162.795289 
L 325.072928 165.574942 
L 326.704358 165.988371 
L 328.335788 162.174634 
L 329.967218 164.56453 
L 331.598648 162.663581 
L 333.230078 164.954779 
L 334.861508 162.488992 
L 336.492937 161.567054 
L 338.124367 162.514086 
L 339.755797 161.583911 
L 341.387227 159.594367 
L 343.018657 159.998293 
L 344.650087 159.653696 
L 346.281517 161.59344 
L 347.912947 159.328632 
L 349.544376 160.718628 
L 351.175806 159.916917 
L 352.807236 163.436439 
L 354.438666 162.194943 
L 356.070096 160.320328 
L 357.701526 161.331825 
L 359.332956 162.927624 
L 360.964386 162.066298 
L 362.595815 162.562759 
L 364.227245 161.727371 
L 365.858675 161.666891 
L 367.490105 160.981112 
L 369.121535 161.278134 
L 370.752965 162.280911 
L 372.384395 162.997172 
L 374.015825 163.328698 
L 375.647254 163.908493 
L 377.278684 160.489845 
L 378.910114 163.568753 
L 380.541544 163.833192 
L 382.172974 159.597499 
L 383.804404 162.912945 
L 385.435834 163.652709 
L 387.067264 160.659896 
L 388.698693 162.500073 
L 390.330123 163.114655 
L 391.961553 161.298678 
L 393.592983 163.409665 
L 395.224413 162.135861 
L 396.855843 161.374297 
L 398.487273 163.715602 
L 398.487273 163.715602 
" clip-path="url(#pc9b2e9cab2)" style="fill: none; stroke: #0000ff; stroke-width: 1.5; stroke-linecap: square"/>
   </g>
   <g id="line2d_22">
    <path d="M 73.832727 245.698954 
L 75.464157 189.923093 
L 77.095587 161.339522 
L 78.727017 156.315593 
L 80.358447 156.056824 
L 81.989877 155.163916 
L 83.621307 145.222998 
L 85.252736 146.202727 
L 86.884166 140.562435 
L 88.515596 139.814912 
L 90.147026 143.061204 
L 91.778456 141.139788 
L 93.409886 141.428745 
L 95.041316 144.27445 
L 96.672746 143.581212 
L 98.304175 140.972532 
L 101.567035 140.253758 
L 103.198465 141.856191 
L 104.829895 143.177968 
L 106.461325 142.004459 
L 108.092755 142.421457 
L 109.724185 141.99041 
L 111.355614 145.021967 
L 112.987044 143.616757 
L 114.618474 141.121376 
L 116.249904 143.359673 
L 117.881334 142.492024 
L 119.512764 142.294573 
L 121.144194 142.236324 
L 122.775624 143.076576 
L 124.407053 142.878705 
L 126.038483 141.427922 
L 127.669913 142.98499 
L 129.301343 145.054771 
L 130.932773 143.367433 
L 132.564203 145.508309 
L 134.195633 142.710586 
L 135.827063 140.755729 
L 137.458492 145.760403 
L 139.089922 142.586342 
L 140.721352 140.610286 
L 143.984212 145.893999 
L 145.615642 140.81435 
L 147.247072 145.576755 
L 148.878502 142.654234 
L 150.509931 143.776011 
L 152.141361 143.249841 
L 153.772791 139.202263 
L 155.404221 146.332775 
L 157.035651 141.533787 
L 158.667081 141.848151 
L 160.298511 139.731428 
L 161.929941 139.0709 
L 163.56137 144.08526 
L 165.1928 145.560871 
L 166.82423 143.447155 
L 168.45566 143.315384 
L 170.08709 145.426822 
L 171.71852 144.277849 
L 173.34995 144.308575 
L 174.98138 142.351108 
L 176.61281 145.637715 
L 178.244239 143.702688 
L 179.875669 141.452658 
L 181.507099 144.673282 
L 183.138529 143.156947 
L 184.769959 140.58066 
L 186.401389 143.610104 
L 188.032819 142.21146 
L 189.664249 144.923347 
L 191.295678 143.903549 
L 192.927108 142.076498 
L 194.558538 146.075639 
L 196.189968 141.822654 
L 197.821398 146.924632 
L 199.452828 144.572534 
L 201.084258 140.774155 
L 202.715688 141.610111 
L 204.347117 144.232576 
L 205.978547 142.367297 
L 207.609977 142.328949 
L 209.241407 142.458363 
L 210.872837 145.748095 
L 212.504267 142.245223 
L 214.135697 141.913048 
L 215.767127 143.404708 
L 217.398556 141.606838 
L 219.029986 140.814508 
L 220.661416 140.149112 
L 222.292846 140.945174 
L 223.924276 142.642231 
L 225.555706 143.105291 
L 227.187136 142.400588 
L 228.818566 142.496847 
L 230.449995 139.574877 
L 232.081425 142.463611 
L 233.712855 141.263915 
L 235.344285 137.673421 
L 236.975715 137.25952 
L 238.607145 141.757569 
L 240.238575 141.520706 
L 241.870005 143.884926 
L 245.132864 144.122644 
L 246.764294 145.15431 
L 248.395724 142.382791 
L 251.658584 142.905273 
L 253.290014 139.299567 
L 254.921444 146.161792 
L 256.552873 139.924579 
L 258.184303 142.45426 
L 259.815733 141.497807 
L 261.447163 143.381026 
L 263.078593 141.912765 
L 264.710023 138.790251 
L 266.341453 142.923739 
L 267.972883 142.229169 
L 269.604312 146.790199 
L 271.235742 141.890035 
L 272.867172 141.903166 
L 274.498602 142.543712 
L 276.130032 142.286648 
L 277.761462 140.650955 
L 279.392892 138.54024 
L 281.024322 141.53154 
L 282.655751 140.824516 
L 284.287181 141.032889 
L 285.918611 145.139359 
L 287.550041 142.491096 
L 289.181471 140.676803 
L 290.812901 141.778568 
L 292.444331 141.879209 
L 294.075761 141.424437 
L 295.70719 141.56255 
L 297.33862 139.644458 
L 298.97005 141.932683 
L 300.60148 143.558925 
L 302.23291 140.410389 
L 303.86434 139.86186 
L 305.49577 141.766401 
L 307.1272 139.849736 
L 308.75863 144.842858 
L 310.390059 141.479305 
L 312.021489 136.60628 
L 313.652919 141.335904 
L 315.284349 142.661565 
L 316.915779 142.190754 
L 318.547209 145.209658 
L 320.178639 141.273423 
L 321.810069 140.710672 
L 323.441498 141.677284 
L 325.072928 144.991177 
L 326.704358 146.401519 
L 328.335788 141.18278 
L 329.967218 143.837379 
L 331.598648 141.851559 
L 333.230078 143.531365 
L 334.861508 140.447793 
L 336.492937 142.384975 
L 338.124367 142.578137 
L 339.755797 139.726438 
L 341.387227 137.856046 
L 343.018657 139.149582 
L 344.650087 138.584687 
L 346.281517 139.871546 
L 347.912947 139.58763 
L 349.544376 139.857941 
L 351.175806 138.939532 
L 352.807236 145.165333 
L 354.438666 141.088452 
L 356.070096 139.12161 
L 357.701526 139.292017 
L 359.332956 142.229901 
L 360.964386 139.981321 
L 362.595815 139.310776 
L 364.227245 140.730901 
L 365.858675 142.338751 
L 367.490105 139.256304 
L 369.121535 138.971778 
L 370.752965 143.267302 
L 372.384395 140.662983 
L 374.015825 143.179754 
L 375.647254 143.122519 
L 377.278684 138.665964 
L 378.910114 142.787149 
L 380.541544 141.374965 
L 382.172974 136.551681 
L 383.804404 141.488049 
L 385.435834 143.576799 
L 388.698693 140.356486 
L 390.330123 142.306257 
L 391.961553 138.022222 
L 393.592983 142.80282 
L 395.224413 142.719916 
L 396.855843 139.886653 
L 398.487273 144.18866 
L 398.487273 144.18866 
" clip-path="url(#pc9b2e9cab2)" style="fill: none; stroke-dasharray: 9.6,2.4,1.5,2.4; stroke-dashoffset: 0; stroke: #008000; stroke-width: 1.5"/>
   </g>
   <g id="line2d_23">
    <path d="M 73.832727 131.386082 
L 75.464157 131.519257 
L 77.095587 122.735513 
L 78.727017 118.706719 
L 80.358447 122.64152 
L 81.989877 114.22977 
L 83.621307 98.613102 
L 85.252736 106.55854 
L 86.884166 84.536566 
L 88.515596 88.401257 
L 90.147026 102.633999 
L 91.778456 102.597914 
L 93.409886 109.846167 
L 95.041316 87.904345 
L 96.672746 98.351758 
L 98.304175 114.460865 
L 99.935605 91.515458 
L 101.567035 87.914935 
L 103.198465 106.268003 
L 104.829895 102.160894 
L 106.461325 102.165765 
L 108.092755 99.099324 
L 109.724185 94.907386 
L 111.355614 105.880322 
L 112.987044 110.000514 
L 114.618474 98.962304 
L 117.881334 114.374636 
L 119.512764 84.623254 
L 121.144194 102.841227 
L 122.775624 102.463598 
L 124.407053 110.208692 
L 126.038483 102.509443 
L 127.669913 98.60664 
L 129.301343 78.218843 
L 130.932773 102.290771 
L 132.564203 110.603854 
L 134.195633 94.781544 
L 135.827063 95.351124 
L 137.458492 106.281915 
L 139.089922 99.17354 
L 140.721352 85.119246 
L 142.352782 113.791235 
L 143.984212 109.993354 
L 145.615642 99.798542 
L 147.247072 102.702271 
L 148.878502 88.192534 
L 150.509931 110.113578 
L 152.141361 103.375156 
L 153.772791 94.655525 
L 155.404221 114.018639 
L 157.035651 95.271327 
L 158.667081 87.743394 
L 160.298511 94.848125 
L 161.929941 81.344274 
L 163.56137 77.594534 
L 165.1928 88.675347 
L 166.82423 103.445564 
L 168.45566 98.34115 
L 171.71852 106.125652 
L 173.34995 101.726826 
L 174.98138 106.036355 
L 176.61281 98.509123 
L 178.244239 102.034772 
L 179.875669 99.380031 
L 181.507099 91.568606 
L 183.138529 98.471545 
L 184.769959 81.145276 
L 186.401389 109.993265 
L 188.032819 95.015215 
L 189.664249 109.875106 
L 191.295678 110.192229 
L 192.927108 88.336165 
L 194.558538 106.395466 
L 196.189968 87.804526 
L 197.821398 94.708334 
L 199.452828 106.824641 
L 201.084258 98.443924 
L 202.715688 81.772186 
L 204.347117 91.600252 
L 205.978547 85.273361 
L 207.609977 91.722857 
L 209.241407 87.742158 
L 210.872837 102.390396 
L 212.504267 81.003848 
L 214.135697 114.520557 
L 215.767127 91.860651 
L 217.398556 95.489611 
L 219.029986 91.858255 
L 220.661416 91.060764 
L 222.292846 102.261856 
L 223.924276 94.431549 
L 225.555706 91.139639 
L 227.187136 113.868239 
L 228.818566 84.073287 
L 230.449995 94.497539 
L 232.081425 95.075637 
L 233.712855 54.102978 
L 235.344285 88.391364 
L 236.975715 87.873492 
L 238.607145 105.965036 
L 240.238575 98.303216 
L 241.870005 98.31559 
L 243.501434 110.011164 
L 245.132864 101.981048 
L 246.764294 102.207326 
L 248.395724 102.80796 
L 250.027154 90.888332 
L 254.921444 102.81578 
L 256.552873 71.726698 
L 258.184303 106.243838 
L 259.815733 87.769291 
L 261.447163 102.772925 
L 263.078593 98.177426 
L 264.710023 84.645507 
L 266.341453 106.070558 
L 267.972883 98.938993 
L 269.604312 106.028545 
L 271.235742 95.55035 
L 272.867172 56.466672 
L 274.498602 102.147224 
L 276.130032 94.619015 
L 277.761462 106.363426 
L 279.392892 77.964818 
L 281.024322 98.53785 
L 282.655751 102.868636 
L 284.287181 103.25637 
L 285.918611 102.64019 
L 287.550041 103.186575 
L 289.181471 102.33732 
L 290.812901 98.83116 
L 292.444331 105.889872 
L 295.70719 91.399651 
L 297.33862 91.580089 
L 298.97005 98.576331 
L 300.60148 94.874939 
L 302.23291 102.277996 
L 303.86434 91.426506 
L 305.49577 84.818237 
L 307.1272 102.244215 
L 308.75863 74.640992 
L 310.390059 74.711282 
L 312.021489 80.93005 
L 313.652919 102.511391 
L 315.284349 102.464841 
L 316.915779 99.018308 
L 318.547209 114.143821 
L 320.178639 94.493291 
L 321.810069 106.087549 
L 323.441498 110.00669 
L 325.072928 84.547061 
L 326.704358 102.601891 
L 328.335788 98.509209 
L 329.967218 87.20918 
L 331.598648 87.649236 
L 333.230078 109.907175 
L 334.861508 98.592746 
L 336.492937 88.328771 
L 338.124367 102.298616 
L 339.755797 62.621195 
L 341.387227 95.288 
L 343.018657 106.354627 
L 344.650087 80.919457 
L 346.281517 84.435514 
L 347.912947 110.315291 
L 349.544376 98.277733 
L 351.175806 98.828213 
L 352.807236 114.563531 
L 354.438666 88.036802 
L 356.070096 87.739483 
L 359.332956 110.26579 
L 360.964386 62.62845 
L 362.595815 53.568 
L 364.227245 102.581611 
L 365.858675 102.016287 
L 367.490105 81.608173 
L 369.121535 80.793238 
L 370.752965 109.708161 
L 372.384395 98.598829 
L 374.015825 105.949604 
L 375.647254 102.008349 
L 377.278684 59.704367 
L 378.910114 114.749159 
L 380.541544 98.239718 
L 382.172974 94.827236 
L 383.804404 59.573748 
L 385.435834 84.387671 
L 387.067264 99.424394 
L 388.698693 98.609391 
L 390.330123 102.205936 
L 391.961553 90.931298 
L 393.592983 106.284331 
L 395.224413 101.816634 
L 396.855843 98.488743 
L 398.487273 101.877409 
L 398.487273 101.877409 
" clip-path="url(#pc9b2e9cab2)" style="fill: none; stroke: #ff0000; stroke-width: 1.5; stroke-linecap: square"/>
   </g>
   <g id="patch_3">
    <path d="M 57.6 307.584 
L 57.6 41.472 
" style="fill: none; stroke: #000000; stroke-width: 0.8; stroke-linejoin: miter; stroke-linecap: square"/>
   </g>
   <g id="patch_4">
    <path d="M 414.72 307.584 
L 414.72 41.472 
" style="fill: none; stroke: #000000; stroke-width: 0.8; stroke-linejoin: miter; stroke-linecap: square"/>
   </g>
   <g id="patch_5">
    <path d="M 57.6 307.584 
L 414.72 307.584 
" style="fill: none; stroke: #000000; stroke-width: 0.8; stroke-linejoin: miter; stroke-linecap: square"/>
   </g>
   <g id="patch_6">
    <path d="M 57.6 41.472 
L 414.72 41.472 
" style="fill: none; stroke: #000000; stroke-width: 0.8; stroke-linejoin: miter; stroke-linecap: square"/>
   </g>
   <g id="text_13">
    <!-- Średnie i najlepsze przystosowanie w każdej generacji -->
    <g transform="translate(73.26 35.472) scale(0.12 -0.12)">
     <defs>
      <path id="DejaVuSans-15a" d="M 2236 5921 
L 2814 5921 
L 2102 5096 
L 1623 5096 
L 2236 5921 
z
M 3425 4513 
L 3425 3897 
Q 3066 4069 2747 4153 
Q 2428 4238 2131 4238 
Q 1616 4238 1336 4038 
Q 1056 3838 1056 3469 
Q 1056 3159 1242 3001 
Q 1428 2844 1947 2747 
L 2328 2669 
Q 3034 2534 3370 2195 
Q 3706 1856 3706 1288 
Q 3706 609 3251 259 
Q 2797 -91 1919 -91 
Q 1588 -91 1214 -16 
Q 841 59 441 206 
L 441 856 
Q 825 641 1194 531 
Q 1563 422 1919 422 
Q 2459 422 2753 634 
Q 3047 847 3047 1241 
Q 3047 1584 2836 1778 
Q 2625 1972 2144 2069 
L 1759 2144 
Q 1053 2284 737 2584 
Q 422 2884 422 3419 
Q 422 4038 858 4394 
Q 1294 4750 2059 4750 
Q 2388 4750 2728 4690 
Q 3069 4631 3425 4513 
z
" transform="scale(0.015625)"/>
      <path id="DejaVuSans-64" d="M 2906 2969 
L 2906 4863 
L 3481 4863 
L 3481 0 
L 2906 0 
L 2906 525 
Q 2725 213 2448 61 
Q 2172 -91 1784 -91 
Q 1150 -91 751 415 
Q 353 922 353 1747 
Q 353 2572 751 3078 
Q 1150 3584 1784 3584 
Q 2172 3584 2448 3432 
Q 2725 3281 2906 2969 
z
M 947 1747 
Q 947 1113 1208 752 
Q 1469 391 1925 391 
Q 2381 391 2643 752 
Q 2906 1113 2906 1747 
Q 2906 2381 2643 2742 
Q 2381 3103 1925 3103 
Q 1469 3103 1208 2742 
Q 947 2381 947 1747 
z
" transform="scale(0.015625)"/>
      <path id="DejaVuSans-20" transform="scale(0.015625)"/>
      <path id="DejaVuSans-6c" d="M 603 4863 
L 1178 4863 
L 1178 0 
L 603 0 
L 603 4863 
z
" transform="scale(0.015625)"/>
      <path id="DejaVuSans-70" d="M 1159 525 
L 1159 -1331 
L 581 -1331 
L 581 3500 
L 1159 3500 
L 1159 2969 
Q 1341 3281 1617 3432 
Q 1894 3584 2278 3584 
Q 2916 3584 3314 3078 
Q 3713 2572 3713 1747 
Q 3713 922 3314 415 
Q 2916 -91 2278 -91 
Q 1894 -91 1617 61 
Q 1341 213 1159 525 
z
M 3116 1747 
Q 3116 2381 2855 2742 
Q 2594 3103 2138 3103 
Q 1681 3103 1420 2742 
Q 1159 2381 1159 1747 
Q 1159 1113 1420 752 
Q 1681 391 2138 391 
Q 2594 391 2855 752 
Q 3116 1113 3116 1747 
z
" transform="scale(0.015625)"/>
      <path id="DejaVuSans-6b" d="M 581 4863 
L 1159 4863 
L 1159 1991 
L 2875 3500 
L 3609 3500 
L 1753 1863 
L 3688 0 
L 2938 0 
L 1159 1709 
L 1159 0 
L 581 0 
L 581 4863 
z
" transform="scale(0.015625)"/>
      <path id="DejaVuSans-17c" d="M 1378 4863 
L 1953 4863 
L 1953 4134 
L 1378 4134 
L 1378 4863 
z
M 1672 3584 
L 1672 3584 
z
M 353 3500 
L 3084 3500 
L 3084 2975 
L 922 459 
L 3084 459 
L 3084 0 
L 275 0 
L 275 525 
L 2438 3041 
L 353 3041 
L 353 3500 
z
" transform="scale(0.015625)"/>
      <path id="DejaVuSans-67" d="M 2906 1791 
Q 2906 2416 2648 2759 
Q 2391 3103 1925 3103 
Q 1463 3103 1205 2759 
Q 947 2416 947 1791 
Q 947 1169 1205 825 
Q 1463 481 1925 481 
Q 2391 481 2648 825 
Q 2906 1169 2906 1791 
z
M 3481 434 
Q 3481 -459 3084 -895 
Q 2688 -1331 1869 -1331 
Q 1566 -1331 1297 -1286 
Q 1028 -1241 775 -1147 
L 775 -588 
Q 1028 -725 1275 -790 
Q 1522 -856 1778 -856 
Q 2344 -856 2625 -561 
Q 2906 -266 2906 331 
L 2906 616 
Q 2728 306 2450 153 
Q 2172 0 1784 0 
Q 1141 0 747 490 
Q 353 981 353 1791 
Q 353 2603 747 3093 
Q 1141 3584 1784 3584 
Q 2172 3584 2450 3431 
Q 2728 3278 2906 2969 
L 2906 3500 
L 3481 3500 
L 3481 434 
z
" transform="scale(0.015625)"/>
     </defs>
     <use xlink:href="#DejaVuSans-15a"/>
     <use xlink:href="#DejaVuSans-72" transform="translate(63.476562 0)"/>
     <use xlink:href="#DejaVuSans-65" transform="translate(102.339844 0)"/>
     <use xlink:href="#DejaVuSans-64" transform="translate(163.863281 0)"/>
     <use xlink:href="#DejaVuSans-6e" transform="translate(227.339844 0)"/>
     <use xlink:href="#DejaVuSans-69" transform="translate(290.71875 0)"/>
     <use xlink:href="#DejaVuSans-65" transform="translate(318.501953 0)"/>
     <use xlink:href="#DejaVuSans-20" transform="translate(380.025391 0)"/>
     <use xlink:href="#DejaVuSans-69" transform="translate(411.8125 0)"/>
     <use xlink:href="#DejaVuSans-20" transform="translate(439.595703 0)"/>
     <use xlink:href="#DejaVuSans-6e" transform="translate(471.382812 0)"/>
     <use xlink:href="#DejaVuSans-61" transform="translate(534.761719 0)"/>
     <use xlink:href="#DejaVuSans-6a" transform="translate(596.041016 0)"/>
     <use xlink:href="#DejaVuSans-6c" transform="translate(623.824219 0)"/>
     <use xlink:href="#DejaVuSans-65" transform="translate(651.607422 0)"/>
     <use xlink:href="#DejaVuSans-70" transform="translate(713.130859 0)"/>
     <use xlink:href="#DejaVuSans-73" transform="translate(776.607422 0)"/>
     <use xlink:href="#DejaVuSans-7a" transform="translate(828.707031 0)"/>
     <use xlink:href="#DejaVuSans-65" transform="translate(881.197266 0)"/>
     <use xlink:href="#DejaVuSans-20" transform="translate(942.720703 0)"/>
     <use xlink:href="#DejaVuSans-70" transform="translate(974.507812 0)"/>
     <use xlink:href="#DejaVuSans-72" transform="translate(1037.984375 0)"/>
     <use xlink:href="#DejaVuSans-7a" transform="translate(1079.097656 0)"/>
     <use xlink:href="#DejaVuSans-79" transform="translate(1131.587891 0)"/>
     <use xlink:href="#DejaVuSans-73" transform="translate(1190.767578 0)"/>
     <use xlink:href="#DejaVuSans-74" transform="translate(1242.867188 0)"/>
     <use xlink:href="#DejaVuSans-6f" transform="translate(1282.076172 0)"/>
     <use xlink:href="#DejaVuSans-73" transform="translate(1343.257812 0)"/>
     <use xlink:href="#DejaVuSans-6f" transform="translate(1395.357422 0)"/>
     <use xlink:href="#DejaVuSans-77" transform="translate(1456.539062 0)"/>
     <use xlink:href="#DejaVuSans-61" transform="translate(1538.326172 0)"/>
     <use xlink:href="#DejaVuSans-6e" transform="translate(1599.605469 0)"/>
     <use xlink:href="#DejaVuSans-69" transform="translate(1662.984375 0)"/>
     <use xlink:href="#DejaVuSans-65" transform="translate(1690.767578 0)"/>
     <use xlink:href="#DejaVuSans-20" transform="translate(1752.291016 0)"/>
     <use xlink:href="#DejaVuSans-77" transform="translate(1784.078125 0)"/>
     <use xlink:href="#DejaVuSans-20" transform="translate(1865.865234 0)"/>
     <use xlink:href="#DejaVuSans-6b" transform="translate(1897.652344 0)"/>
     <use xlink:href="#DejaVuSans-61" transform="translate(1953.8125 0)"/>
     <use xlink:href="#DejaVuSans-17c" transform="translate(2015.091797 0)"/>
     <use xlink:href="#DejaVuSans-64" transform="translate(2067.582031 0)"/>
     <use xlink:href="#DejaVuSans-65" transform="translate(2131.058594 0)"/>
     <use xlink:href="#DejaVuSans-6a" transform="translate(2192.582031 0)"/>
     <use xlink:href="#DejaVuSans-20" transform="translate(2220.365234 0)"/>
     <use xlink:href="#DejaVuSans-67" transform="translate(2252.152344 0)"/>
     <use xlink:href="#DejaVuSans-65" transform="translate(2315.628906 0)"/>
     <use xlink:href="#DejaVuSans-6e" transform="translate(2377.152344 0)"/>
     <use xlink:href="#DejaVuSans-65" transform="translate(2440.53125 0)"/>
     <use xlink:href="#DejaVuSans-72" transform="translate(2502.054688 0)"/>
     <use xlink:href="#DejaVuSans-61" transform="translate(2543.167969 0)"/>
     <use xlink:href="#DejaVuSans-63" transform="translate(2604.447266 0)"/>
     <use xlink:href="#DejaVuSans-6a" transform="translate(2659.427734 0)"/>
     <use xlink:href="#DejaVuSans-69" transform="translate(2687.210938 0)"/>
    </g>
   </g>
   <g id="legend_1">
    <g id="patch_7">
     <path d="M 279.790313 302.584 
L 407.72 302.584 
Q 409.72 302.584 409.72 300.584 
L 409.72 257.549625 
Q 409.72 255.549625 407.72 255.549625 
L 279.790313 255.549625 
Q 277.790313 255.549625 277.790313 257.549625 
L 277.790313 300.584 
Q 277.790313 302.584 279.790313 302.584 
z
" style="fill: #ffffff; opacity: 0.8; stroke: #cccccc; stroke-linejoin: miter"/>
    </g>
    <g id="line2d_24">
     <path d="M 281.790313 263.648062 
L 291.790313 263.648062 
L 301.790313 263.648062 
" style="fill: none; stroke: #0000ff; stroke-width: 1.5; stroke-linecap: square"/>
    </g>
    <g id="text_14">
     <!-- Średnia -->
     <g transform="translate(309.790313 267.148062) scale(0.1 -0.1)">
      <use xlink:href="#DejaVuSans-15a"/>
      <use xlink:href="#DejaVuSans-72" transform="translate(63.476562 0)"/>
      <use xlink:href="#DejaVuSans-65" transform="translate(102.339844 0)"/>
      <use xlink:href="#DejaVuSans-64" transform="translate(163.863281 0)"/>
      <use xlink:href="#DejaVuSans-6e" transform="translate(227.339844 0)"/>
      <use xlink:href="#DejaVuSans-69" transform="translate(290.71875 0)"/>
      <use xlink:href="#DejaVuSans-61" transform="translate(318.501953 0)"/>
     </g>
    </g>
    <g id="line2d_25">
     <path d="M 281.790313 278.326188 
L 291.790313 278.326188 
L 301.790313 278.326188 
" style="fill: none; stroke-dasharray: 9.6,2.4,1.5,2.4; stroke-dashoffset: 0; stroke: #008000; stroke-width: 1.5"/>
    </g>
    <g id="text_15">
     <!-- ±1 Odchylenie std. -->
     <g transform="translate(309.790313 281.826188) scale(0.1 -0.1)">
      <defs>
       <path id="DejaVuSans-b1" d="M 2944 4013 
L 2944 2803 
L 4684 2803 
L 4684 2272 
L 2944 2272 
L 2944 1063 
L 2419 1063 
L 2419 2272 
L 678 2272 
L 678 2803 
L 2419 2803 
L 2419 4013 
L 2944 4013 
z
M 678 531 
L 4684 531 
L 4684 0 
L 678 0 
L 678 531 
z
" transform="scale(0.015625)"/>
       <path id="DejaVuSans-4f" d="M 2522 4238 
Q 1834 4238 1429 3725 
Q 1025 3213 1025 2328 
Q 1025 1447 1429 934 
Q 1834 422 2522 422 
Q 3209 422 3611 934 
Q 4013 1447 4013 2328 
Q 4013 3213 3611 3725 
Q 3209 4238 2522 4238 
z
M 2522 4750 
Q 3503 4750 4090 4092 
Q 4678 3434 4678 2328 
Q 4678 1225 4090 567 
Q 3503 -91 2522 -91 
Q 1538 -91 948 565 
Q 359 1222 359 2328 
Q 359 3434 948 4092 
Q 1538 4750 2522 4750 
z
" transform="scale(0.015625)"/>
       <path id="DejaVuSans-68" d="M 3513 2113 
L 3513 0 
L 2938 0 
L 2938 2094 
Q 2938 2591 2744 2837 
Q 2550 3084 2163 3084 
Q 1697 3084 1428 2787 
Q 1159 2491 1159 1978 
L 1159 0 
L 581 0 
L 581 4863 
L 1159 4863 
L 1159 2956 
Q 1366 3272 1645 3428 
Q 1925 3584 2291 3584 
Q 2894 3584 3203 3211 
Q 3513 2838 3513 2113 
z
" transform="scale(0.015625)"/>
       <path id="DejaVuSans-2e" d="M 684 794 
L 1344 794 
L 1344 0 
L 684 0 
L 684 794 
z
" transform="scale(0.015625)"/>
      </defs>
      <use xlink:href="#DejaVuSans-b1"/>
      <use xlink:href="#DejaVuSans-31" transform="translate(83.789062 0)"/>
      <use xlink:href="#DejaVuSans-20" transform="translate(147.412109 0)"/>
      <use xlink:href="#DejaVuSans-4f" transform="translate(179.199219 0)"/>
      <use xlink:href="#DejaVuSans-64" transform="translate(257.910156 0)"/>
      <use xlink:href="#DejaVuSans-63" transform="translate(321.386719 0)"/>
      <use xlink:href="#DejaVuSans-68" transform="translate(376.367188 0)"/>
      <use xlink:href="#DejaVuSans-79" transform="translate(439.746094 0)"/>
      <use xlink:href="#DejaVuSans-6c" transform="translate(498.925781 0)"/>
      <use xlink:href="#DejaVuSans-65" transform="translate(526.708984 0)"/>
      <use xlink:href="#DejaVuSans-6e" transform="translate(588.232422 0)"/>
      <use xlink:href="#DejaVuSans-69" transform="translate(651.611328 0)"/>
      <use xlink:href="#DejaVuSans-65" transform="translate(679.394531 0)"/>
      <use xlink:href="#DejaVuSans-20" transform="translate(740.917969 0)"/>
      <use xlink:href="#DejaVuSans-73" transform="translate(772.705078 0)"/>
      <use xlink:href="#DejaVuSans-74" transform="translate(824.804688 0)"/>
      <use xlink:href="#DejaVuSans-64" transform="translate(864.013672 0)"/>
      <use xlink:href="#DejaVuSans-2e" transform="translate(927.490234 0)"/>
     </g>
    </g>
    <g id="line2d_26">
     <path d="M 281.790313 293.004312 
L 291.790313 293.004312 
L 301.790313 293.004312 
" style="fill: none; stroke: #ff0000; stroke-width: 1.5; stroke-linecap: square"/>
    </g>
    <g id="text_16">
     <!-- Najlepsze -->
     <g transform="translate(309.790313 296.504312) scale(0.1 -0.1)">
      <defs>
       <path id="DejaVuSans-4e" d="M 628 4666 
L 1478 4666 
L 3547 763 
L 3547 4666 
L 4159 4666 
L 4159 0 
L 3309 0 
L 1241 3903 
L 1241 0 
L 628 0 
L 628 4666 
z
" transform="scale(0.015625)"/>
      </defs>
      <use xlink:href="#DejaVuSans-4e"/>
      <use xlink:href="#DejaVuSans-61" transform="translate(74.804688 0)"/>
      <use xlink:href="#DejaVuSans-6a" transform="translate(136.083984 0)"/>
      <use xlink:href="#DejaVuSans-6c" transform="translate(163.867188 0)"/>
      <use xlink:href="#DejaVuSans-65" transform="translate(191.650391 0)"/>
      <use xlink:href="#DejaVuSans-70" transform="translate(253.173828 0)"/>
      <use xlink:href="#DejaVuSans-73" transform="translate(316.650391 0)"/>
      <use xlink:href="#DejaVuSans-7a" transform="translate(368.75 0)"/>
      <use xlink:href="#DejaVuSans-65" transform="translate(421.240234 0)"/>
     </g>
    </g>
   </g>
  </g>
 </g>
 <defs>
  <clipPath id="pc9b2e9cab2">
   <rect x="57.6" y="41.472" width="357.12" height="266.112"/>
  </clipPath>
 </defs>
</svg>
