<?xml version="1.0" encoding="utf-8" standalone="no"?>
<!DOCTYPE svg PUBLIC "-//W3C//DTD SVG 1.1//EN"
  "http://www.w3.org/Graphics/SVG/1.1/DTD/svg11.dtd">
<svg xmlns:xlink="http://www.w3.org/1999/xlink" width="460.8pt" height="345.6pt" viewBox="0 0 460.8 345.6" xmlns="http://www.w3.org/2000/svg" version="1.1">
 <metadata>
  <rdf:RDF xmlns:dc="http://purl.org/dc/elements/1.1/" xmlns:cc="http://creativecommons.org/ns#" xmlns:rdf="http://www.w3.org/1999/02/22-rdf-syntax-ns#">
   <cc:Work>
    <dc:type rdf:resource="http://purl.org/dc/dcmitype/StillImage"/>
    <dc:date>2026-04-12T00:04:48.300454</dc:date>
    <dc:format>image/svg+xml</dc:format>
    <dc:creator>
     <cc:Agent>
      <dc:title>Matplotlib v3.10.8, https://matplotlib.org/</dc:title>
     </cc:Agent>
    </dc:creator>
   </cc:Work>
  </rdf:RDF>
 </metadata>
 <defs>
  <style type="text/css">*{stroke-linejoin: round; stroke-linecap: butt}</style>
 </defs>
 <g id="figure_1">
  <g id="patch_1">
   <path d="M 0 345.6 
L 460.8 345.6 
L 460.8 0 
L 0 0 
z
" style="fill: #ffffff"/>
  </g>
  <g id="axes_1">
   <g id="patch_2">
    <path d="M 57.6 307.584 
L 414.72 307.584 
L 414.72 41.472 
L 57.6 41.472 
z
" style="fill: #ffffff"/>
   </g>
   <g id="matplotlib.axis_1">
    <g id="xtick_1">
     <g id="line2d_1">
      <path d="M 73.832727 307.584 
L 73.832727 41.472 
" clip-path="url(#p9f8f03b2e5)" style="fill: none; stroke: #b0b0b0; stroke-width: 0.8; stroke-linecap: square"/>
     </g>
     <g id="line2d_2">
      <defs>
       <path id="me622416848" d="M 0 0 
L 0 3.5 
" style="stroke: #000000; stroke-width: 0.8"/>
      </defs>
      <g>
       <use xlink:href="#me622416848" x="73.832727" y="307.584" style="stroke: #000000; stroke-width: 0.8"/>
      </g>
     </g>
     <g id="text_1">
      <!-- 0 -->
      <g transform="translate(70.651477 322.182437) scale(0.1 -0.1)">
       <defs>
        <path id="DejaVuSans-30" d="M 2034 4250 
Q 1547 4250 1301 3770 
Q 1056 3291 1056 2328 
Q 1056 1369 1301 889 
Q 1547 409 2034 409 
Q 2525 409 2770 889 
Q 3016 1369 3016 2328 
Q 3016 3291 2770 3770 
Q 2525 4250 2034 4250 
z
M 2034 4750 
Q 2819 4750 3233 4129 
Q 3647 3509 3647 2328 
Q 3647 1150 3233 529 
Q 2819 -91 2034 -91 
Q 1250 -91 836 529 
Q 422 1150 422 2328 
Q 422 3509 836 4129 
Q 1250 4750 2034 4750 
z
" transform="scale(0.015625)"/>
       </defs>
       <use xlink:href="#DejaVuSans-30"/>
      </g>
     </g>
    </g>
    <g id="xtick_2">
     <g id="line2d_3">
      <path d="M 114.618474 307.584 
L 114.618474 41.472 
" clip-path="url(#p9f8f03b2e5)" style="fill: none; stroke: #b0b0b0; stroke-width: 0.8; stroke-linecap: square"/>
     </g>
     <g id="line2d_4">
      <g>
       <use xlink:href="#me622416848" x="114.618474" y="307.584" style="stroke: #000000; stroke-width: 0.8"/>
      </g>
     </g>
     <g id="text_2">
      <!-- 25 -->
      <g transform="translate(108.255974 322.182437) scale(0.1 -0.1)">
       <defs>
        <path id="DejaVuSans-32" d="M 1228 531 
L 3431 531 
L 3431 0 
L 469 0 
L 469 531 
Q 828 903 1448 1529 
Q 2069 2156 2228 2338 
Q 2531 2678 2651 2914 
Q 2772 3150 2772 3378 
Q 2772 3750 2511 3984 
Q 2250 4219 1831 4219 
Q 1534 4219 1204 4116 
Q 875 4013 500 3803 
L 500 4441 
Q 881 4594 1212 4672 
Q 1544 4750 1819 4750 
Q 2544 4750 2975 4387 
Q 3406 4025 3406 3419 
Q 3406 3131 3298 2873 
Q 3191 2616 2906 2266 
Q 2828 2175 2409 1742 
Q 1991 1309 1228 531 
z
" transform="scale(0.015625)"/>
        <path id="DejaVuSans-35" d="M 691 4666 
L 3169 4666 
L 3169 4134 
L 1269 4134 
L 1269 2991 
Q 1406 3038 1543 3061 
Q 1681 3084 1819 3084 
Q 2600 3084 3056 2656 
Q 3513 2228 3513 1497 
Q 3513 744 3044 326 
Q 2575 -91 1722 -91 
Q 1428 -91 1123 -41 
Q 819 9 494 109 
L 494 744 
Q 775 591 1075 516 
Q 1375 441 1709 441 
Q 2250 441 2565 725 
Q 2881 1009 2881 1497 
Q 2881 1984 2565 2268 
Q 2250 2553 1709 2553 
Q 1456 2553 1204 2497 
Q 953 2441 691 2322 
L 691 4666 
z
" transform="scale(0.015625)"/>
       </defs>
       <use xlink:href="#DejaVuSans-32"/>
       <use xlink:href="#DejaVuSans-35" transform="translate(63.623047 0)"/>
      </g>
     </g>
    </g>
    <g id="xtick_3">
     <g id="line2d_5">
      <path d="M 155.404221 307.584 
L 155.404221 41.472 
" clip-path="url(#p9f8f03b2e5)" style="fill: none; stroke: #b0b0b0; stroke-width: 0.8; stroke-linecap: square"/>
     </g>
     <g id="line2d_6">
      <g>
       <use xlink:href="#me622416848" x="155.404221" y="307.584" style="stroke: #000000; stroke-width: 0.8"/>
      </g>
     </g>
     <g id="text_3">
      <!-- 50 -->
      <g transform="translate(149.041721 322.182437) scale(0.1 -0.1)">
       <use xlink:href="#DejaVuSans-35"/>
       <use xlink:href="#DejaVuSans-30" transform="translate(63.623047 0)"/>
      </g>
     </g>
    </g>
    <g id="xtick_4">
     <g id="line2d_7">
      <path d="M 196.189968 307.584 
L 196.189968 41.472 
" clip-path="url(#p9f8f03b2e5)" style="fill: none; stroke: #b0b0b0; stroke-width: 0.8; stroke-linecap: square"/>
     </g>
     <g id="line2d_8">
      <g>
       <use xlink:href="#me622416848" x="196.189968" y="307.584" style="stroke: #000000; stroke-width: 0.8"/>
      </g>
     </g>
     <g id="text_4">
      <!-- 75 -->
      <g transform="translate(189.827468 322.182437) scale(0.1 -0.1)">
       <defs>
        <path id="DejaVuSans-37" d="M 525 4666 
L 3525 4666 
L 3525 4397 
L 1831 0 
L 1172 0 
L 2766 4134 
L 525 4134 
L 525 4666 
z
" transform="scale(0.015625)"/>
       </defs>
       <use xlink:href="#DejaVuSans-37"/>
       <use xlink:href="#DejaVuSans-35" transform="translate(63.623047 0)"/>
      </g>
     </g>
    </g>
    <g id="xtick_5">
     <g id="line2d_9">
      <path d="M 236.975715 307.584 
L 236.975715 41.472 
" clip-path="url(#p9f8f03b2e5)" style="fill: none; stroke: #b0b0b0; stroke-width: 0.8; stroke-linecap: square"/>
     </g>
     <g id="line2d_10">
      <g>
       <use xlink:href="#me622416848" x="236.975715" y="307.584" style="stroke: #000000; stroke-width: 0.8"/>
      </g>
     </g>
     <g id="text_5">
      <!-- 100 -->
      <g transform="translate(227.431965 322.182437) scale(0.1 -0.1)">
       <defs>
        <path id="DejaVuSans-31" d="M 794 531 
L 1825 531 
L 1825 4091 
L 703 3866 
L 703 4441 
L 1819 4666 
L 2450 4666 
L 2450 531 
L 3481 531 
L 3481 0 
L 794 0 
L 794 531 
z
" transform="scale(0.015625)"/>
       </defs>
       <use xlink:href="#DejaVuSans-31"/>
       <use xlink:href="#DejaVuSans-30" transform="translate(63.623047 0)"/>
       <use xlink:href="#DejaVuSans-30" transform="translate(127.246094 0)"/>
      </g>
     </g>
    </g>
    <g id="xtick_6">
     <g id="line2d_11">
      <path d="M 277.761462 307.584 
L 277.761462 41.472 
" clip-path="url(#p9f8f03b2e5)" style="fill: none; stroke: #b0b0b0; stroke-width: 0.8; stroke-linecap: square"/>
     </g>
     <g id="line2d_12">
      <g>
       <use xlink:href="#me622416848" x="277.761462" y="307.584" style="stroke: #000000; stroke-width: 0.8"/>
      </g>
     </g>
     <g id="text_6">
      <!-- 125 -->
      <g transform="translate(268.217712 322.182437) scale(0.1 -0.1)">
       <use xlink:href="#DejaVuSans-31"/>
       <use xlink:href="#DejaVuSans-32" transform="translate(63.623047 0)"/>
       <use xlink:href="#DejaVuSans-35" transform="translate(127.246094 0)"/>
      </g>
     </g>
    </g>
    <g id="xtick_7">
     <g id="line2d_13">
      <path d="M 318.547209 307.584 
L 318.547209 41.472 
" clip-path="url(#p9f8f03b2e5)" style="fill: none; stroke: #b0b0b0; stroke-width: 0.8; stroke-linecap: square"/>
     </g>
     <g id="line2d_14">
      <g>
       <use xlink:href="#me622416848" x="318.547209" y="307.584" style="stroke: #000000; stroke-width: 0.8"/>
      </g>
     </g>
     <g id="text_7">
      <!-- 150 -->
      <g transform="translate(309.003459 322.182437) scale(0.1 -0.1)">
       <use xlink:href="#DejaVuSans-31"/>
       <use xlink:href="#DejaVuSans-35" transform="translate(63.623047 0)"/>
       <use xlink:href="#DejaVuSans-30" transform="translate(127.246094 0)"/>
      </g>
     </g>
    </g>
    <g id="xtick_8">
     <g id="line2d_15">
      <path d="M 359.332956 307.584 
L 359.332956 41.472 
" clip-path="url(#p9f8f03b2e5)" style="fill: none; stroke: #b0b0b0; stroke-width: 0.8; stroke-linecap: square"/>
     </g>
     <g id="line2d_16">
      <g>
       <use xlink:href="#me622416848" x="359.332956" y="307.584" style="stroke: #000000; stroke-width: 0.8"/>
      </g>
     </g>
     <g id="text_8">
      <!-- 175 -->
      <g transform="translate(349.789206 322.182437) scale(0.1 -0.1)">
       <use xlink:href="#DejaVuSans-31"/>
       <use xlink:href="#DejaVuSans-37" transform="translate(63.623047 0)"/>
       <use xlink:href="#DejaVuSans-35" transform="translate(127.246094 0)"/>
      </g>
     </g>
    </g>
    <g id="xtick_9">
     <g id="line2d_17">
      <path d="M 400.118703 307.584 
L 400.118703 41.472 
" clip-path="url(#p9f8f03b2e5)" style="fill: none; stroke: #b0b0b0; stroke-width: 0.8; stroke-linecap: square"/>
     </g>
     <g id="line2d_18">
      <g>
       <use xlink:href="#me622416848" x="400.118703" y="307.584" style="stroke: #000000; stroke-width: 0.8"/>
      </g>
     </g>
     <g id="text_9">
      <!-- 200 -->
      <g transform="translate(390.574953 322.182437) scale(0.1 -0.1)">
       <use xlink:href="#DejaVuSans-32"/>
       <use xlink:href="#DejaVuSans-30" transform="translate(63.623047 0)"/>
       <use xlink:href="#DejaVuSans-30" transform="translate(127.246094 0)"/>
      </g>
     </g>
    </g>
    <g id="text_10">
     <!-- Generations -->
     <g transform="translate(205.662344 335.860562) scale(0.1 -0.1)">
      <defs>
       <path id="DejaVuSans-47" d="M 3809 666 
L 3809 1919 
L 2778 1919 
L 2778 2438 
L 4434 2438 
L 4434 434 
Q 4069 175 3628 42 
Q 3188 -91 2688 -91 
Q 1594 -91 976 548 
Q 359 1188 359 2328 
Q 359 3472 976 4111 
Q 1594 4750 2688 4750 
Q 3144 4750 3555 4637 
Q 3966 4525 4313 4306 
L 4313 3634 
Q 3963 3931 3569 4081 
Q 3175 4231 2741 4231 
Q 1884 4231 1454 3753 
Q 1025 3275 1025 2328 
Q 1025 1384 1454 906 
Q 1884 428 2741 428 
Q 3075 428 3337 486 
Q 3600 544 3809 666 
z
" transform="scale(0.015625)"/>
       <path id="DejaVuSans-65" d="M 3597 1894 
L 3597 1613 
L 953 1613 
Q 991 1019 1311 708 
Q 1631 397 2203 397 
Q 2534 397 2845 478 
Q 3156 559 3463 722 
L 3463 178 
Q 3153 47 2828 -22 
Q 2503 -91 2169 -91 
Q 1331 -91 842 396 
Q 353 884 353 1716 
Q 353 2575 817 3079 
Q 1281 3584 2069 3584 
Q 2775 3584 3186 3129 
Q 3597 2675 3597 1894 
z
M 3022 2063 
Q 3016 2534 2758 2815 
Q 2500 3097 2075 3097 
Q 1594 3097 1305 2825 
Q 1016 2553 972 2059 
L 3022 2063 
z
" transform="scale(0.015625)"/>
       <path id="DejaVuSans-6e" d="M 3513 2113 
L 3513 0 
L 2938 0 
L 2938 2094 
Q 2938 2591 2744 2837 
Q 2550 3084 2163 3084 
Q 1697 3084 1428 2787 
Q 1159 2491 1159 1978 
L 1159 0 
L 581 0 
L 581 3500 
L 1159 3500 
L 1159 2956 
Q 1366 3272 1645 3428 
Q 1925 3584 2291 3584 
Q 2894 3584 3203 3211 
Q 3513 2838 3513 2113 
z
" transform="scale(0.015625)"/>
       <path id="DejaVuSans-72" d="M 2631 2963 
Q 2534 3019 2420 3045 
Q 2306 3072 2169 3072 
Q 1681 3072 1420 2755 
Q 1159 2438 1159 1844 
L 1159 0 
L 581 0 
L 581 3500 
L 1159 3500 
L 1159 2956 
Q 1341 3275 1631 3429 
Q 1922 3584 2338 3584 
Q 2397 3584 2469 3576 
Q 2541 3569 2628 3553 
L 2631 2963 
z
" transform="scale(0.015625)"/>
       <path id="DejaVuSans-61" d="M 2194 1759 
Q 1497 1759 1228 1600 
Q 959 1441 959 1056 
Q 959 750 1161 570 
Q 1363 391 1709 391 
Q 2188 391 2477 730 
Q 2766 1069 2766 1631 
L 2766 1759 
L 2194 1759 
z
M 3341 1997 
L 3341 0 
L 2766 0 
L 2766 531 
Q 2569 213 2275 61 
Q 1981 -91 1556 -91 
Q 1019 -91 701 211 
Q 384 513 384 1019 
Q 384 1609 779 1909 
Q 1175 2209 1959 2209 
L 2766 2209 
L 2766 2266 
Q 2766 2663 2505 2880 
Q 2244 3097 1772 3097 
Q 1472 3097 1187 3025 
Q 903 2953 641 2809 
L 641 3341 
Q 956 3463 1253 3523 
Q 1550 3584 1831 3584 
Q 2591 3584 2966 3190 
Q 3341 2797 3341 1997 
z
" transform="scale(0.015625)"/>
       <path id="DejaVuSans-74" d="M 1172 4494 
L 1172 3500 
L 2356 3500 
L 2356 3053 
L 1172 3053 
L 1172 1153 
Q 1172 725 1289 603 
Q 1406 481 1766 481 
L 2356 481 
L 2356 0 
L 1766 0 
Q 1100 0 847 248 
Q 594 497 594 1153 
L 594 3053 
L 172 3053 
L 172 3500 
L 594 3500 
L 594 4494 
L 1172 4494 
z
" transform="scale(0.015625)"/>
       <path id="DejaVuSans-69" d="M 603 3500 
L 1178 3500 
L 1178 0 
L 603 0 
L 603 3500 
z
M 603 4863 
L 1178 4863 
L 1178 4134 
L 603 4134 
L 603 4863 
z
" transform="scale(0.015625)"/>
       <path id="DejaVuSans-6f" d="M 1959 3097 
Q 1497 3097 1228 2736 
Q 959 2375 959 1747 
Q 959 1119 1226 758 
Q 1494 397 1959 397 
Q 2419 397 2687 759 
Q 2956 1122 2956 1747 
Q 2956 2369 2687 2733 
Q 2419 3097 1959 3097 
z
M 1959 3584 
Q 2709 3584 3137 3096 
Q 3566 2609 3566 1747 
Q 3566 888 3137 398 
Q 2709 -91 1959 -91 
Q 1206 -91 779 398 
Q 353 888 353 1747 
Q 353 2609 779 3096 
Q 1206 3584 1959 3584 
z
" transform="scale(0.015625)"/>
       <path id="DejaVuSans-73" d="M 2834 3397 
L 2834 2853 
Q 2591 2978 2328 3040 
Q 2066 3103 1784 3103 
Q 1356 3103 1142 2972 
Q 928 2841 928 2578 
Q 928 2378 1081 2264 
Q 1234 2150 1697 2047 
L 1894 2003 
Q 2506 1872 2764 1633 
Q 3022 1394 3022 966 
Q 3022 478 2636 193 
Q 2250 -91 1575 -91 
Q 1294 -91 989 -36 
Q 684 19 347 128 
L 347 722 
Q 666 556 975 473 
Q 1284 391 1588 391 
Q 1994 391 2212 530 
Q 2431 669 2431 922 
Q 2431 1156 2273 1281 
Q 2116 1406 1581 1522 
L 1381 1569 
Q 847 1681 609 1914 
Q 372 2147 372 2553 
Q 372 3047 722 3315 
Q 1072 3584 1716 3584 
Q 2034 3584 2315 3537 
Q 2597 3491 2834 3397 
z
" transform="scale(0.015625)"/>
      </defs>
      <use xlink:href="#DejaVuSans-47"/>
      <use xlink:href="#DejaVuSans-65" transform="translate(77.490234 0)"/>
      <use xlink:href="#DejaVuSans-6e" transform="translate(139.013672 0)"/>
      <use xlink:href="#DejaVuSans-65" transform="translate(202.392578 0)"/>
      <use xlink:href="#DejaVuSans-72" transform="translate(263.916016 0)"/>
      <use xlink:href="#DejaVuSans-61" transform="translate(305.029297 0)"/>
      <use xlink:href="#DejaVuSans-74" transform="translate(366.308594 0)"/>
      <use xlink:href="#DejaVuSans-69" transform="translate(405.517578 0)"/>
      <use xlink:href="#DejaVuSans-6f" transform="translate(433.300781 0)"/>
      <use xlink:href="#DejaVuSans-6e" transform="translate(494.482422 0)"/>
      <use xlink:href="#DejaVuSans-73" transform="translate(557.861328 0)"/>
     </g>
    </g>
   </g>
   <g id="matplotlib.axis_2">
    <g id="ytick_1">
     <g id="line2d_19">
      <path d="M 57.6 123.94837 
L 414.72 123.94837 
" clip-path="url(#p9f8f03b2e5)" style="fill: none; stroke: #b0b0b0; stroke-width: 0.8; stroke-linecap: square"/>
     </g>
     <g id="line2d_20">
      <defs>
       <path id="md61281444d" d="M 0 0 
L -3.5 0 
" style="stroke: #000000; stroke-width: 0.8"/>
      </defs>
      <g>
       <use xlink:href="#md61281444d" x="57.6" y="123.94837" style="stroke: #000000; stroke-width: 0.8"/>
      </g>
     </g>
     <g id="text_11">
      <!-- $\mathdefault{10^{2}}$ -->
      <g transform="translate(33 127.747589) scale(0.1 -0.1)">
       <use xlink:href="#DejaVuSans-31" transform="translate(0 0.765625)"/>
       <use xlink:href="#DejaVuSans-30" transform="translate(63.623047 0.765625)"/>
       <use xlink:href="#DejaVuSans-32" transform="translate(128.203125 39.046875) scale(0.7)"/>
      </g>
     </g>
    </g>
    <g id="text_12">
     <!-- Fitness -->
     <g transform="translate(26.920312 191.845187) rotate(-90) scale(0.1 -0.1)">
      <defs>
       <path id="DejaVuSans-46" d="M 628 4666 
L 3309 4666 
L 3309 4134 
L 1259 4134 
L 1259 2759 
L 3109 2759 
L 3109 2228 
L 1259 2228 
L 1259 0 
L 628 0 
L 628 4666 
z
" transform="scale(0.015625)"/>
      </defs>
      <use xlink:href="#DejaVuSans-46"/>
      <use xlink:href="#DejaVuSans-69" transform="translate(50.269531 0)"/>
      <use xlink:href="#DejaVuSans-74" transform="translate(78.052734 0)"/>
      <use xlink:href="#DejaVuSans-6e" transform="translate(117.261719 0)"/>
      <use xlink:href="#DejaVuSans-65" transform="translate(180.640625 0)"/>
      <use xlink:href="#DejaVuSans-73" transform="translate(242.164062 0)"/>
      <use xlink:href="#DejaVuSans-73" transform="translate(294.263672 0)"/>
     </g>
    </g>
   </g>
   <g id="line2d_21">
    <path d="M 73.832727 295.488 
L 75.464157 281.775683 
L 77.095587 276.806042 
L 78.727017 276.033515 
L 80.358447 274.86296 
L 81.989877 276.314402 
L 83.621307 275.27605 
L 85.252736 270.19063 
L 86.884166 268.801072 
L 88.515596 269.787315 
L 90.147026 268.58142 
L 91.778456 266.90195 
L 93.409886 264.517369 
L 95.041316 259.698035 
L 96.672746 259.760748 
L 98.304175 259.544207 
L 99.935605 257.301322 
L 101.567035 256.320831 
L 103.198465 255.953576 
L 104.829895 255.709303 
L 106.461325 252.739376 
L 108.092755 253.262778 
L 109.724185 251.904279 
L 111.355614 250.102706 
L 112.987044 254.033521 
L 114.618474 251.072458 
L 116.249904 248.537349 
L 117.881334 247.619707 
L 119.512764 247.578872 
L 122.775624 251.04547 
L 124.407053 250.16263 
L 127.669913 245.824665 
L 129.301343 250.024193 
L 130.932773 249.131555 
L 132.564203 251.76357 
L 134.195633 244.005643 
L 135.827063 244.565627 
L 137.458492 243.952901 
L 139.089922 242.299825 
L 140.721352 245.198568 
L 142.352782 243.529654 
L 143.984212 243.688218 
L 145.615642 245.808234 
L 147.247072 243.326222 
L 148.878502 243.923884 
L 150.509931 246.730475 
L 152.141361 241.528587 
L 153.772791 243.422713 
L 155.404221 239.725304 
L 157.035651 243.985629 
L 158.667081 244.519219 
L 161.929941 239.218267 
L 163.56137 243.074885 
L 165.1928 242.478657 
L 166.82423 242.24036 
L 168.45566 243.122119 
L 171.71852 237.632828 
L 173.34995 241.810988 
L 174.98138 238.462266 
L 176.61281 241.884773 
L 178.244239 239.873333 
L 179.875669 241.578546 
L 181.507099 238.660991 
L 183.138529 237.25736 
L 184.769959 240.203198 
L 186.401389 235.832836 
L 188.032819 239.528893 
L 189.664249 240.27724 
L 191.295678 239.69198 
L 192.927108 237.599794 
L 194.558538 239.882485 
L 196.189968 238.238865 
L 197.821398 239.654006 
L 199.452828 239.257669 
L 201.084258 236.909973 
L 202.715688 235.697486 
L 204.347117 237.374151 
L 205.978547 236.806517 
L 207.609977 240.229431 
L 209.241407 239.386373 
L 210.872837 235.976698 
L 212.504267 234.939239 
L 215.767127 240.504888 
L 217.398556 237.476933 
L 219.029986 237.323397 
L 220.661416 238.28806 
L 222.292846 238.166061 
L 223.924276 237.200086 
L 225.555706 236.704063 
L 227.187136 235.515311 
L 228.818566 239.799819 
L 230.449995 239.090917 
L 232.081425 238.146722 
L 233.712855 238.830253 
L 235.344285 237.85652 
L 236.975715 238.187127 
L 238.607145 236.11345 
L 240.238575 232.703741 
L 241.870005 235.695402 
L 243.501434 238.421447 
L 245.132864 239.917166 
L 246.764294 235.572702 
L 248.395724 239.300739 
L 250.027154 236.130833 
L 251.658584 238.419027 
L 253.290014 234.198477 
L 254.921444 236.940307 
L 256.552873 241.295299 
L 258.184303 237.417815 
L 261.447163 235.830455 
L 263.078593 236.524054 
L 264.710023 236.714486 
L 266.341453 236.198633 
L 267.972883 236.037354 
L 269.604312 238.574111 
L 271.235742 235.738326 
L 272.867172 235.383811 
L 274.498602 237.322922 
L 276.130032 235.261271 
L 277.761462 236.099263 
L 279.392892 234.814503 
L 281.024322 237.637154 
L 282.655751 234.214435 
L 284.287181 236.310653 
L 285.918611 236.054705 
L 287.550041 233.076591 
L 289.181471 234.390001 
L 290.812901 236.349889 
L 292.444331 233.454277 
L 294.075761 231.107623 
L 297.33862 235.313526 
L 298.97005 236.081212 
L 300.60148 234.423004 
L 302.23291 234.591592 
L 303.86434 232.979359 
L 305.49577 233.398659 
L 307.1272 232.44151 
L 308.75863 234.790502 
L 310.390059 236.276217 
L 312.021489 232.573614 
L 313.652919 234.446154 
L 315.284349 230.940299 
L 316.915779 234.107306 
L 318.547209 233.967653 
L 320.178639 237.656759 
L 321.810069 233.51394 
L 323.441498 233.962614 
L 325.072928 234.093954 
L 326.704358 232.807934 
L 328.335788 234.902408 
L 329.967218 235.650492 
L 331.598648 233.684793 
L 334.861508 235.611805 
L 336.492937 233.684633 
L 338.124367 235.450359 
L 339.755797 236.549518 
L 341.387227 236.231442 
L 343.018657 234.510042 
L 344.650087 233.712283 
L 346.281517 233.202139 
L 347.912947 235.727003 
L 349.544376 233.764642 
L 351.175806 235.361597 
L 352.807236 234.955958 
L 354.438666 235.1281 
L 356.070096 236.285104 
L 357.701526 235.026364 
L 359.332956 236.406464 
L 360.964386 234.019536 
L 362.595815 235.452569 
L 364.227245 233.96824 
L 365.858675 235.969071 
L 367.490105 235.72134 
L 369.121535 236.585903 
L 370.752965 234.955082 
L 372.384395 234.178962 
L 374.015825 235.068046 
L 375.647254 235.751421 
L 377.278684 232.990714 
L 378.910114 233.677271 
L 380.541544 236.498086 
L 382.172974 233.931034 
L 383.804404 233.907532 
L 385.435834 236.062162 
L 387.067264 234.413859 
L 388.698693 236.03063 
L 390.330123 233.167048 
L 391.961553 234.034844 
L 393.592983 234.453797 
L 395.224413 235.300297 
L 396.855843 231.328181 
L 398.487273 231.365582 
L 398.487273 231.365582 
" clip-path="url(#p9f8f03b2e5)" style="fill: none; stroke: #0000ff; stroke-width: 1.5; stroke-linecap: square"/>
   </g>
   <g id="line2d_22">
    <path d="M 73.832727 244.132996 
L 75.464157 225.297229 
L 77.095587 216.222385 
L 78.727017 216.601931 
L 80.358447 217.108024 
L 81.989877 217.065469 
L 83.621307 213.836398 
L 85.252736 208.419231 
L 86.884166 207.552285 
L 88.515596 209.172854 
L 90.147026 210.063596 
L 91.778456 205.441343 
L 93.409886 204.057297 
L 95.041316 198.252804 
L 96.672746 197.034952 
L 98.304175 198.008439 
L 99.935605 196.155037 
L 101.567035 194.985117 
L 103.198465 194.421857 
L 104.829895 193.995325 
L 106.461325 189.79573 
L 108.092755 191.853264 
L 109.724185 191.700356 
L 111.355614 188.826157 
L 112.987044 196.06151 
L 114.618474 188.947017 
L 116.249904 188.623169 
L 117.881334 187.92102 
L 119.512764 188.413245 
L 121.144194 188.553638 
L 122.775624 192.20443 
L 124.407053 191.551936 
L 126.038483 187.895174 
L 127.669913 185.547792 
L 129.301343 190.622419 
L 130.932773 189.82645 
L 132.564203 192.631392 
L 134.195633 186.527036 
L 137.458492 186.19448 
L 139.089922 184.331597 
L 140.721352 186.127123 
L 142.352782 184.622436 
L 143.984212 185.887893 
L 145.615642 188.46645 
L 147.247072 182.044773 
L 148.878502 187.797641 
L 150.509931 190.157123 
L 152.141361 183.860913 
L 153.772791 185.024846 
L 155.404221 179.405999 
L 157.035651 185.350332 
L 158.667081 185.857914 
L 160.298511 182.197695 
L 161.929941 179.521814 
L 163.56137 185.971155 
L 165.1928 182.834904 
L 166.82423 184.861273 
L 168.45566 183.707798 
L 170.08709 181.727378 
L 171.71852 176.687001 
L 173.34995 183.727967 
L 174.98138 181.272571 
L 176.61281 185.399121 
L 178.244239 182.012933 
L 179.875669 185.864824 
L 181.507099 179.756939 
L 183.138529 180.55065 
L 184.769959 182.46938 
L 186.401389 178.19884 
L 188.032819 183.302658 
L 189.664249 183.925926 
L 191.295678 182.67839 
L 192.927108 180.049771 
L 194.558538 183.551657 
L 196.189968 182.089867 
L 197.821398 183.511703 
L 199.452828 182.51163 
L 201.084258 179.147055 
L 202.715688 178.717392 
L 204.347117 179.023685 
L 205.978547 180.792422 
L 207.609977 184.52561 
L 209.241407 183.722795 
L 210.872837 178.442877 
L 212.504267 176.111219 
L 214.135697 182.558149 
L 215.767127 184.60266 
L 217.398556 182.246898 
L 219.029986 180.399168 
L 220.661416 182.113953 
L 222.292846 181.117833 
L 223.924276 181.088351 
L 227.187136 179.782332 
L 228.818566 184.41138 
L 232.081425 183.869567 
L 233.712855 183.40909 
L 235.344285 182.521879 
L 236.975715 182.429009 
L 238.607145 178.583146 
L 240.238575 175.224137 
L 241.870005 179.813696 
L 243.501434 183.444147 
L 245.132864 184.798099 
L 246.764294 180.07561 
L 248.395724 184.790183 
L 250.027154 180.112543 
L 251.658584 181.259372 
L 253.290014 178.801036 
L 254.921444 181.945433 
L 256.552873 186.670615 
L 258.184303 181.357862 
L 259.815733 181.01965 
L 261.447163 178.163589 
L 263.078593 180.887592 
L 264.710023 179.613311 
L 266.341453 179.732352 
L 267.972883 180.721322 
L 269.604312 181.864348 
L 271.235742 179.923294 
L 272.867172 180.398165 
L 274.498602 181.762482 
L 276.130032 178.902008 
L 277.761462 179.288575 
L 279.392892 179.441536 
L 281.024322 182.846849 
L 282.655751 178.566368 
L 284.287181 180.677415 
L 285.918611 180.646057 
L 287.550041 174.835544 
L 289.181471 179.259787 
L 290.812901 181.689141 
L 292.444331 177.977195 
L 294.075761 174.550559 
L 295.70719 175.887385 
L 297.33862 180.958017 
L 298.97005 182.367055 
L 300.60148 177.644132 
L 302.23291 179.017766 
L 303.86434 177.45708 
L 307.1272 177.735104 
L 308.75863 180.897784 
L 310.390059 181.061867 
L 312.021489 176.692998 
L 313.652919 178.684182 
L 315.284349 175.029736 
L 316.915779 177.034481 
L 318.547209 176.879043 
L 320.178639 184.182528 
L 321.810069 178.054195 
L 323.441498 178.824863 
L 325.072928 177.410441 
L 326.704358 178.187827 
L 328.335788 179.678435 
L 329.967218 179.573214 
L 331.598648 176.978312 
L 333.230078 179.16261 
L 334.861508 179.894128 
L 336.492937 178.807029 
L 338.124367 179.308604 
L 339.755797 182.087539 
L 341.387227 181.748136 
L 343.018657 180.164938 
L 344.650087 177.911982 
L 346.281517 178.43156 
L 347.912947 180.428336 
L 349.544376 179.2156 
L 351.175806 180.446882 
L 352.807236 177.557731 
L 354.438666 180.214404 
L 356.070096 181.256945 
L 357.701526 179.417712 
L 359.332956 180.556246 
L 360.964386 179.007489 
L 362.595815 180.266286 
L 364.227245 178.600224 
L 365.858675 180.485506 
L 367.490105 180.056968 
L 369.121535 183.595419 
L 370.752965 180.052256 
L 372.384395 177.995397 
L 374.015825 178.98636 
L 375.647254 180.878319 
L 377.278684 176.631876 
L 378.910114 178.378208 
L 380.541544 181.118769 
L 382.172974 179.468804 
L 383.804404 178.809812 
L 385.435834 181.973989 
L 387.067264 178.646509 
L 388.698693 182.349859 
L 390.330123 175.516341 
L 391.961553 180.824513 
L 393.592983 180.361719 
L 395.224413 181.187984 
L 396.855843 173.462782 
L 398.487273 175.884638 
L 398.487273 175.884638 
" clip-path="url(#p9f8f03b2e5)" style="fill: none; stroke-dasharray: 9.6,2.4,1.5,2.4; stroke-dashoffset: 0; stroke: #008000; stroke-width: 1.5"/>
   </g>
   <g id="line2d_23">
    <path d="M 73.832727 138.788412 
L 75.464157 122.996482 
L 77.095587 74.892521 
L 78.727017 99.316939 
L 80.358447 139.237197 
L 81.989877 112.724583 
L 83.621307 99.037021 
L 85.252736 113.287006 
L 86.884166 117.483154 
L 88.515596 127.990587 
L 90.147026 118.235305 
L 91.778456 85.999137 
L 93.409886 117.506777 
L 95.041316 103.493975 
L 96.672746 99.478328 
L 98.304175 103.30854 
L 99.935605 112.382536 
L 101.567035 99.027566 
L 103.198465 103.648749 
L 104.829895 103.775422 
L 106.461325 112.297275 
L 108.092755 123.234224 
L 109.724185 112.844498 
L 111.355614 107.90017 
L 112.987044 117.583451 
L 114.618474 90.201586 
L 116.249904 108.23904 
L 117.881334 82.169694 
L 119.512764 107.725148 
L 121.144194 74.737362 
L 122.775624 107.728682 
L 124.407053 122.364525 
L 126.038483 99.415466 
L 127.669913 81.998128 
L 129.301343 99.017665 
L 130.932773 103.417741 
L 132.564203 103.279715 
L 134.195633 108.436869 
L 135.827063 99.138096 
L 137.458492 112.653764 
L 139.089922 75.116626 
L 140.721352 108.408334 
L 142.352782 90.57405 
L 143.984212 90.516853 
L 145.615642 112.852755 
L 147.247072 81.814409 
L 148.878502 112.727122 
L 150.509931 112.992313 
L 152.141361 117.651229 
L 153.772791 108.202992 
L 155.404221 82.359186 
L 157.035651 100.271746 
L 158.667081 94.553444 
L 160.298511 108.073556 
L 161.929941 82.69979 
L 163.56137 112.92247 
L 165.1928 98.50014 
L 166.82423 98.596629 
L 168.45566 99.153084 
L 170.08709 113.055171 
L 171.71852 86.968966 
L 173.34995 113.058706 
L 174.98138 98.811309 
L 176.61281 78.670621 
L 178.244239 83.08534 
L 179.875669 122.586054 
L 181.507099 99.106098 
L 183.138529 90.812019 
L 184.769959 117.507039 
L 186.401389 103.614632 
L 188.032819 82.525728 
L 189.664249 99.096859 
L 191.295678 103.818863 
L 192.927108 103.389193 
L 194.558538 117.636289 
L 196.189968 99.024903 
L 197.821398 113.155444 
L 199.452828 117.672204 
L 201.084258 98.896484 
L 202.715688 90.705891 
L 204.347117 86.414559 
L 205.978547 117.393803 
L 209.241407 99.17235 
L 210.872837 70.433069 
L 212.504267 86.750712 
L 214.135697 122.735218 
L 215.767127 108.307025 
L 217.398556 112.90992 
L 219.029986 104.369533 
L 220.661416 98.849443 
L 222.292846 98.935334 
L 223.924276 118.095043 
L 225.555706 108.379095 
L 227.187136 122.591902 
L 228.818566 122.698018 
L 230.449995 108.341243 
L 232.081425 103.895656 
L 233.712855 104.191004 
L 235.344285 112.672829 
L 236.975715 107.82896 
L 238.607145 94.728958 
L 240.238575 99.501978 
L 241.870005 108.276095 
L 243.501434 122.759407 
L 245.132864 108.221154 
L 246.764294 103.816619 
L 248.395724 122.862336 
L 250.027154 108.168336 
L 251.658584 90.577246 
L 253.290014 113.042723 
L 254.921444 112.513357 
L 256.552873 112.682177 
L 258.184303 103.448864 
L 259.815733 99.223656 
L 261.447163 90.688232 
L 263.078593 103.477999 
L 264.710023 112.701852 
L 267.972883 112.832226 
L 269.604312 70.507896 
L 271.235742 103.644075 
L 272.867172 122.546724 
L 274.498602 122.881855 
L 276.130032 122.579987 
L 277.761462 99.212498 
L 279.392892 113.102499 
L 281.024322 117.848101 
L 282.655751 99.104087 
L 284.287181 108.361813 
L 287.550041 82.167928 
L 289.181471 117.87895 
L 290.812901 127.873744 
L 292.444331 112.396394 
L 294.075761 103.7527 
L 295.70719 63.569568 
L 297.33862 107.748557 
L 298.97005 113.18354 
L 300.60148 103.349481 
L 302.23291 112.712486 
L 303.86434 118.012049 
L 305.49577 103.426326 
L 307.1272 122.614961 
L 308.75863 127.993736 
L 310.390059 108.067089 
L 312.021489 99.092762 
L 313.652919 122.707512 
L 315.284349 104.512847 
L 316.915779 103.336868 
L 318.547209 98.797709 
L 320.178639 132.647557 
L 321.810069 86.396616 
L 323.441498 75.120971 
L 325.072928 117.269009 
L 326.704358 108.267539 
L 328.335788 117.832202 
L 329.967218 108.412012 
L 331.598648 94.438783 
L 333.230078 103.475249 
L 334.861508 103.627141 
L 336.492937 117.812548 
L 338.124367 104.601756 
L 339.755797 122.746298 
L 341.387227 99.442026 
L 343.018657 90.589824 
L 344.650087 94.70033 
L 346.281517 107.587724 
L 347.912947 99.323088 
L 349.544376 103.266523 
L 351.175806 113.304661 
L 352.807236 53.568 
L 354.438666 117.463084 
L 356.070096 108.359174 
L 357.701526 107.943746 
L 359.332956 94.960634 
L 360.964386 117.833863 
L 362.595815 117.451807 
L 364.227245 103.497265 
L 365.858675 108.137755 
L 367.490105 118.270443 
L 369.121535 132.891021 
L 370.752965 122.631098 
L 372.384395 86.166227 
L 374.015825 103.718656 
L 375.647254 112.999446 
L 377.278684 107.516847 
L 378.910114 122.899373 
L 380.541544 108.275675 
L 382.172974 113.217053 
L 383.804404 98.783587 
L 385.435834 108.229073 
L 387.067264 99.515215 
L 388.698693 122.43448 
L 390.330123 64.077409 
L 391.961553 112.954185 
L 393.592983 108.280368 
L 395.224413 122.862439 
L 396.855843 77.887307 
L 398.487273 103.141806 
L 398.487273 103.141806 
" clip-path="url(#p9f8f03b2e5)" style="fill: none; stroke: #ff0000; stroke-width: 1.5; stroke-linecap: square"/>
   </g>
   <g id="patch_3">
    <path d="M 57.6 307.584 
L 57.6 41.472 
" style="fill: none; stroke: #000000; stroke-width: 0.8; stroke-linejoin: miter; stroke-linecap: square"/>
   </g>
   <g id="patch_4">
    <path d="M 414.72 307.584 
L 414.72 41.472 
" style="fill: none; stroke: #000000; stroke-width: 0.8; stroke-linejoin: miter; stroke-linecap: square"/>
   </g>
   <g id="patch_5">
    <path d="M 57.6 307.584 
L 414.72 307.584 
" style="fill: none; stroke: #000000; stroke-width: 0.8; stroke-linejoin: miter; stroke-linecap: square"/>
   </g>
   <g id="patch_6">
    <path d="M 57.6 41.472 
L 414.72 41.472 
" style="fill: none; stroke: #000000; stroke-width: 0.8; stroke-linejoin: miter; stroke-linecap: square"/>
   </g>
   <g id="text_13">
    <!-- Population's average and best fitness -->
    <g transform="translate(123.529687 35.472) scale(0.12 -0.12)">
     <defs>
      <path id="DejaVuSans-50" d="M 1259 4147 
L 1259 2394 
L 2053 2394 
Q 2494 2394 2734 2622 
Q 2975 2850 2975 3272 
Q 2975 3691 2734 3919 
Q 2494 4147 2053 4147 
L 1259 4147 
z
M 628 4666 
L 2053 4666 
Q 2838 4666 3239 4311 
Q 3641 3956 3641 3272 
Q 3641 2581 3239 2228 
Q 2838 1875 2053 1875 
L 1259 1875 
L 1259 0 
L 628 0 
L 628 4666 
z
" transform="scale(0.015625)"/>
      <path id="DejaVuSans-70" d="M 1159 525 
L 1159 -1331 
L 581 -1331 
L 581 3500 
L 1159 3500 
L 1159 2969 
Q 1341 3281 1617 3432 
Q 1894 3584 2278 3584 
Q 2916 3584 3314 3078 
Q 3713 2572 3713 1747 
Q 3713 922 3314 415 
Q 2916 -91 2278 -91 
Q 1894 -91 1617 61 
Q 1341 213 1159 525 
z
M 3116 1747 
Q 3116 2381 2855 2742 
Q 2594 3103 2138 3103 
Q 1681 3103 1420 2742 
Q 1159 2381 1159 1747 
Q 1159 1113 1420 752 
Q 1681 391 2138 391 
Q 2594 391 2855 752 
Q 3116 1113 3116 1747 
z
" transform="scale(0.015625)"/>
      <path id="DejaVuSans-75" d="M 544 1381 
L 544 3500 
L 1119 3500 
L 1119 1403 
Q 1119 906 1312 657 
Q 1506 409 1894 409 
Q 2359 409 2629 706 
Q 2900 1003 2900 1516 
L 2900 3500 
L 3475 3500 
L 3475 0 
L 2900 0 
L 2900 538 
Q 2691 219 2414 64 
Q 2138 -91 1772 -91 
Q 1169 -91 856 284 
Q 544 659 544 1381 
z
M 1991 3584 
L 1991 3584 
z
" transform="scale(0.015625)"/>
      <path id="DejaVuSans-6c" d="M 603 4863 
L 1178 4863 
L 1178 0 
L 603 0 
L 603 4863 
z
" transform="scale(0.015625)"/>
      <path id="DejaVuSans-27" d="M 1147 4666 
L 1147 2931 
L 616 2931 
L 616 4666 
L 1147 4666 
z
" transform="scale(0.015625)"/>
      <path id="DejaVuSans-20" transform="scale(0.015625)"/>
      <path id="DejaVuSans-76" d="M 191 3500 
L 800 3500 
L 1894 563 
L 2988 3500 
L 3597 3500 
L 2284 0 
L 1503 0 
L 191 3500 
z
" transform="scale(0.015625)"/>
      <path id="DejaVuSans-67" d="M 2906 1791 
Q 2906 2416 2648 2759 
Q 2391 3103 1925 3103 
Q 1463 3103 1205 2759 
Q 947 2416 947 1791 
Q 947 1169 1205 825 
Q 1463 481 1925 481 
Q 2391 481 2648 825 
Q 2906 1169 2906 1791 
z
M 3481 434 
Q 3481 -459 3084 -895 
Q 2688 -1331 1869 -1331 
Q 1566 -1331 1297 -1286 
Q 1028 -1241 775 -1147 
L 775 -588 
Q 1028 -725 1275 -790 
Q 1522 -856 1778 -856 
Q 2344 -856 2625 -561 
Q 2906 -266 2906 331 
L 2906 616 
Q 2728 306 2450 153 
Q 2172 0 1784 0 
Q 1141 0 747 490 
Q 353 981 353 1791 
Q 353 2603 747 3093 
Q 1141 3584 1784 3584 
Q 2172 3584 2450 3431 
Q 2728 3278 2906 2969 
L 2906 3500 
L 3481 3500 
L 3481 434 
z
" transform="scale(0.015625)"/>
      <path id="DejaVuSans-64" d="M 2906 2969 
L 2906 4863 
L 3481 4863 
L 3481 0 
L 2906 0 
L 2906 525 
Q 2725 213 2448 61 
Q 2172 -91 1784 -91 
Q 1150 -91 751 415 
Q 353 922 353 1747 
Q 353 2572 751 3078 
Q 1150 3584 1784 3584 
Q 2172 3584 2448 3432 
Q 2725 3281 2906 2969 
z
M 947 1747 
Q 947 1113 1208 752 
Q 1469 391 1925 391 
Q 2381 391 2643 752 
Q 2906 1113 2906 1747 
Q 2906 2381 2643 2742 
Q 2381 3103 1925 3103 
Q 1469 3103 1208 2742 
Q 947 2381 947 1747 
z
" transform="scale(0.015625)"/>
      <path id="DejaVuSans-62" d="M 3116 1747 
Q 3116 2381 2855 2742 
Q 2594 3103 2138 3103 
Q 1681 3103 1420 2742 
Q 1159 2381 1159 1747 
Q 1159 1113 1420 752 
Q 1681 391 2138 391 
Q 2594 391 2855 752 
Q 3116 1113 3116 1747 
z
M 1159 2969 
Q 1341 3281 1617 3432 
Q 1894 3584 2278 3584 
Q 2916 3584 3314 3078 
Q 3713 2572 3713 1747 
Q 3713 922 3314 415 
Q 2916 -91 2278 -91 
Q 1894 -91 1617 61 
Q 1341 213 1159 525 
L 1159 0 
L 581 0 
L 581 4863 
L 1159 4863 
L 1159 2969 
z
" transform="scale(0.015625)"/>
      <path id="DejaVuSans-66" d="M 2375 4863 
L 2375 4384 
L 1825 4384 
Q 1516 4384 1395 4259 
Q 1275 4134 1275 3809 
L 1275 3500 
L 2222 3500 
L 2222 3053 
L 1275 3053 
L 1275 0 
L 697 0 
L 697 3053 
L 147 3053 
L 147 3500 
L 697 3500 
L 697 3744 
Q 697 4328 969 4595 
Q 1241 4863 1831 4863 
L 2375 4863 
z
" transform="scale(0.015625)"/>
     </defs>
     <use xlink:href="#DejaVuSans-50"/>
     <use xlink:href="#DejaVuSans-6f" transform="translate(56.677734 0)"/>
     <use xlink:href="#DejaVuSans-70" transform="translate(117.859375 0)"/>
     <use xlink:href="#DejaVuSans-75" transform="translate(181.335938 0)"/>
     <use xlink:href="#DejaVuSans-6c" transform="translate(244.714844 0)"/>
     <use xlink:href="#DejaVuSans-61" transform="translate(272.498047 0)"/>
     <use xlink:href="#DejaVuSans-74" transform="translate(333.777344 0)"/>
     <use xlink:href="#DejaVuSans-69" transform="translate(372.986328 0)"/>
     <use xlink:href="#DejaVuSans-6f" transform="translate(400.769531 0)"/>
     <use xlink:href="#DejaVuSans-6e" transform="translate(461.951172 0)"/>
     <use xlink:href="#DejaVuSans-27" transform="translate(525.330078 0)"/>
     <use xlink:href="#DejaVuSans-73" transform="translate(552.820312 0)"/>
     <use xlink:href="#DejaVuSans-20" transform="translate(604.919922 0)"/>
     <use xlink:href="#DejaVuSans-61" transform="translate(636.707031 0)"/>
     <use xlink:href="#DejaVuSans-76" transform="translate(697.986328 0)"/>
     <use xlink:href="#DejaVuSans-65" transform="translate(757.166016 0)"/>
     <use xlink:href="#DejaVuSans-72" transform="translate(818.689453 0)"/>
     <use xlink:href="#DejaVuSans-61" transform="translate(859.802734 0)"/>
     <use xlink:href="#DejaVuSans-67" transform="translate(921.082031 0)"/>
     <use xlink:href="#DejaVuSans-65" transform="translate(984.558594 0)"/>
     <use xlink:href="#DejaVuSans-20" transform="translate(1046.082031 0)"/>
     <use xlink:href="#DejaVuSans-61" transform="translate(1077.869141 0)"/>
     <use xlink:href="#DejaVuSans-6e" transform="translate(1139.148438 0)"/>
     <use xlink:href="#DejaVuSans-64" transform="translate(1202.527344 0)"/>
     <use xlink:href="#DejaVuSans-20" transform="translate(1266.003906 0)"/>
     <use xlink:href="#DejaVuSans-62" transform="translate(1297.791016 0)"/>
     <use xlink:href="#DejaVuSans-65" transform="translate(1361.267578 0)"/>
     <use xlink:href="#DejaVuSans-73" transform="translate(1422.791016 0)"/>
     <use xlink:href="#DejaVuSans-74" transform="translate(1474.890625 0)"/>
     <use xlink:href="#DejaVuSans-20" transform="translate(1514.099609 0)"/>
     <use xlink:href="#DejaVuSans-66" transform="translate(1545.886719 0)"/>
     <use xlink:href="#DejaVuSans-69" transform="translate(1581.091797 0)"/>
     <use xlink:href="#DejaVuSans-74" transform="translate(1608.875 0)"/>
     <use xlink:href="#DejaVuSans-6e" transform="translate(1648.083984 0)"/>
     <use xlink:href="#DejaVuSans-65" transform="translate(1711.462891 0)"/>
     <use xlink:href="#DejaVuSans-73" transform="translate(1772.986328 0)"/>
     <use xlink:href="#DejaVuSans-73" transform="translate(1825.085938 0)"/>
    </g>
   </g>
   <g id="legend_1">
    <g id="patch_7">
     <path d="M 334.779375 302.584 
L 407.72 302.584 
Q 409.72 302.584 409.72 300.584 
L 409.72 257.549625 
Q 409.72 255.549625 407.72 255.549625 
L 334.779375 255.549625 
Q 332.779375 255.549625 332.779375 257.549625 
L 332.779375 300.584 
Q 332.779375 302.584 334.779375 302.584 
z
" style="fill: #ffffff; opacity: 0.8; stroke: #cccccc; stroke-linejoin: miter"/>
    </g>
    <g id="line2d_24">
     <path d="M 336.779375 263.648062 
L 346.779375 263.648062 
L 356.779375 263.648062 
" style="fill: none; stroke: #0000ff; stroke-width: 1.5; stroke-linecap: square"/>
    </g>
    <g id="text_14">
     <!-- average -->
     <g transform="translate(364.779375 267.148062) scale(0.1 -0.1)">
      <use xlink:href="#DejaVuSans-61"/>
      <use xlink:href="#DejaVuSans-76" transform="translate(61.279297 0)"/>
      <use xlink:href="#DejaVuSans-65" transform="translate(120.458984 0)"/>
      <use xlink:href="#DejaVuSans-72" transform="translate(181.982422 0)"/>
      <use xlink:href="#DejaVuSans-61" transform="translate(223.095703 0)"/>
      <use xlink:href="#DejaVuSans-67" transform="translate(284.375 0)"/>
      <use xlink:href="#DejaVuSans-65" transform="translate(347.851562 0)"/>
     </g>
    </g>
    <g id="line2d_25">
     <path d="M 336.779375 278.326188 
L 346.779375 278.326188 
L 356.779375 278.326188 
" style="fill: none; stroke-dasharray: 9.6,2.4,1.5,2.4; stroke-dashoffset: 0; stroke: #008000; stroke-width: 1.5"/>
    </g>
    <g id="text_15">
     <!-- +1 sd -->
     <g transform="translate(364.779375 281.826188) scale(0.1 -0.1)">
      <defs>
       <path id="DejaVuSans-2b" d="M 2944 4013 
L 2944 2272 
L 4684 2272 
L 4684 1741 
L 2944 1741 
L 2944 0 
L 2419 0 
L 2419 1741 
L 678 1741 
L 678 2272 
L 2419 2272 
L 2419 4013 
L 2944 4013 
z
" transform="scale(0.015625)"/>
      </defs>
      <use xlink:href="#DejaVuSans-2b"/>
      <use xlink:href="#DejaVuSans-31" transform="translate(83.789062 0)"/>
      <use xlink:href="#DejaVuSans-20" transform="translate(147.412109 0)"/>
      <use xlink:href="#DejaVuSans-73" transform="translate(179.199219 0)"/>
      <use xlink:href="#DejaVuSans-64" transform="translate(231.298828 0)"/>
     </g>
    </g>
    <g id="line2d_26">
     <path d="M 336.779375 293.004312 
L 346.779375 293.004312 
L 356.779375 293.004312 
" style="fill: none; stroke: #ff0000; stroke-width: 1.5; stroke-linecap: square"/>
    </g>
    <g id="text_16">
     <!-- best -->
     <g transform="translate(364.779375 296.504312) scale(0.1 -0.1)">
      <use xlink:href="#DejaVuSans-62"/>
      <use xlink:href="#DejaVuSans-65" transform="translate(63.476562 0)"/>
      <use xlink:href="#DejaVuSans-73" transform="translate(125 0)"/>
      <use xlink:href="#DejaVuSans-74" transform="translate(177.099609 0)"/>
     </g>
    </g>
   </g>
  </g>
 </g>
 <defs>
  <clipPath id="p9f8f03b2e5">
   <rect x="57.6" y="41.472" width="357.12" height="266.112"/>
  </clipPath>
 </defs>
</svg>
