<?xml version="1.0" encoding="utf-8" standalone="no"?>
<!DOCTYPE svg PUBLIC "-//W3C//DTD SVG 1.1//EN"
  "http://www.w3.org/Graphics/SVG/1.1/DTD/svg11.dtd">
<svg xmlns:xlink="http://www.w3.org/1999/xlink" width="460.8pt" height="345.6pt" viewBox="0 0 460.8 345.6" xmlns="http://www.w3.org/2000/svg" version="1.1">
 <metadata>
  <rdf:RDF xmlns:dc="http://purl.org/dc/elements/1.1/" xmlns:cc="http://creativecommons.org/ns#" xmlns:rdf="http://www.w3.org/1999/02/22-rdf-syntax-ns#">
   <cc:Work>
    <dc:type rdf:resource="http://purl.org/dc/dcmitype/StillImage"/>
    <dc:date>2026-03-22T20:05:14.459673</dc:date>
    <dc:format>image/svg+xml</dc:format>
    <dc:creator>
     <cc:Agent>
      <dc:title>Matplotlib v3.10.8, https://matplotlib.org/</dc:title>
     </cc:Agent>
    </dc:creator>
   </cc:Work>
  </rdf:RDF>
 </metadata>
 <defs>
  <style type="text/css">*{stroke-linejoin: round; stroke-linecap: butt}</style>
 </defs>
 <g id="figure_1">
  <g id="patch_1">
   <path d="M 0 345.6 
L 460.8 345.6 
L 460.8 0 
L 0 0 
z
" style="fill: #ffffff"/>
  </g>
  <g id="axes_1">
   <g id="patch_2">
    <path d="M 57.6 307.584 
L 414.72 307.584 
L 414.72 41.472 
L 57.6 41.472 
z
" style="fill: #ffffff"/>
   </g>
   <g id="matplotlib.axis_1">
    <g id="xtick_1">
     <g id="line2d_1">
      <path d="M 73.832727 307.584 
L 73.832727 41.472 
" clip-path="url(#p14912ae4a7)" style="fill: none; stroke: #b0b0b0; stroke-width: 0.8; stroke-linecap: square"/>
     </g>
     <g id="line2d_2">
      <defs>
       <path id="m2bfd79ba84" d="M 0 0 
L 0 3.5 
" style="stroke: #000000; stroke-width: 0.8"/>
      </defs>
      <g>
       <use xlink:href="#m2bfd79ba84" x="73.832727" y="307.584" style="stroke: #000000; stroke-width: 0.8"/>
      </g>
     </g>
     <g id="text_1">
      <!-- 0 -->
      <g transform="translate(70.651477 322.182437) scale(0.1 -0.1)">
       <defs>
        <path id="DejaVuSans-30" d="M 2034 4250 
Q 1547 4250 1301 3770 
Q 1056 3291 1056 2328 
Q 1056 1369 1301 889 
Q 1547 409 2034 409 
Q 2525 409 2770 889 
Q 3016 1369 3016 2328 
Q 3016 3291 2770 3770 
Q 2525 4250 2034 4250 
z
M 2034 4750 
Q 2819 4750 3233 4129 
Q 3647 3509 3647 2328 
Q 3647 1150 3233 529 
Q 2819 -91 2034 -91 
Q 1250 -91 836 529 
Q 422 1150 422 2328 
Q 422 3509 836 4129 
Q 1250 4750 2034 4750 
z
" transform="scale(0.015625)"/>
       </defs>
       <use xlink:href="#DejaVuSans-30"/>
      </g>
     </g>
    </g>
    <g id="xtick_2">
     <g id="line2d_3">
      <path d="M 128.122785 307.584 
L 128.122785 41.472 
" clip-path="url(#p14912ae4a7)" style="fill: none; stroke: #b0b0b0; stroke-width: 0.8; stroke-linecap: square"/>
     </g>
     <g id="line2d_4">
      <g>
       <use xlink:href="#m2bfd79ba84" x="128.122785" y="307.584" style="stroke: #000000; stroke-width: 0.8"/>
      </g>
     </g>
     <g id="text_2">
      <!-- 50 -->
      <g transform="translate(121.760285 322.182437) scale(0.1 -0.1)">
       <defs>
        <path id="DejaVuSans-35" d="M 691 4666 
L 3169 4666 
L 3169 4134 
L 1269 4134 
L 1269 2991 
Q 1406 3038 1543 3061 
Q 1681 3084 1819 3084 
Q 2600 3084 3056 2656 
Q 3513 2228 3513 1497 
Q 3513 744 3044 326 
Q 2575 -91 1722 -91 
Q 1428 -91 1123 -41 
Q 819 9 494 109 
L 494 744 
Q 775 591 1075 516 
Q 1375 441 1709 441 
Q 2250 441 2565 725 
Q 2881 1009 2881 1497 
Q 2881 1984 2565 2268 
Q 2250 2553 1709 2553 
Q 1456 2553 1204 2497 
Q 953 2441 691 2322 
L 691 4666 
z
" transform="scale(0.015625)"/>
       </defs>
       <use xlink:href="#DejaVuSans-35"/>
       <use xlink:href="#DejaVuSans-30" transform="translate(63.623047 0)"/>
      </g>
     </g>
    </g>
    <g id="xtick_3">
     <g id="line2d_5">
      <path d="M 182.412843 307.584 
L 182.412843 41.472 
" clip-path="url(#p14912ae4a7)" style="fill: none; stroke: #b0b0b0; stroke-width: 0.8; stroke-linecap: square"/>
     </g>
     <g id="line2d_6">
      <g>
       <use xlink:href="#m2bfd79ba84" x="182.412843" y="307.584" style="stroke: #000000; stroke-width: 0.8"/>
      </g>
     </g>
     <g id="text_3">
      <!-- 100 -->
      <g transform="translate(172.869093 322.182437) scale(0.1 -0.1)">
       <defs>
        <path id="DejaVuSans-31" d="M 794 531 
L 1825 531 
L 1825 4091 
L 703 3866 
L 703 4441 
L 1819 4666 
L 2450 4666 
L 2450 531 
L 3481 531 
L 3481 0 
L 794 0 
L 794 531 
z
" transform="scale(0.015625)"/>
       </defs>
       <use xlink:href="#DejaVuSans-31"/>
       <use xlink:href="#DejaVuSans-30" transform="translate(63.623047 0)"/>
       <use xlink:href="#DejaVuSans-30" transform="translate(127.246094 0)"/>
      </g>
     </g>
    </g>
    <g id="xtick_4">
     <g id="line2d_7">
      <path d="M 236.702901 307.584 
L 236.702901 41.472 
" clip-path="url(#p14912ae4a7)" style="fill: none; stroke: #b0b0b0; stroke-width: 0.8; stroke-linecap: square"/>
     </g>
     <g id="line2d_8">
      <g>
       <use xlink:href="#m2bfd79ba84" x="236.702901" y="307.584" style="stroke: #000000; stroke-width: 0.8"/>
      </g>
     </g>
     <g id="text_4">
      <!-- 150 -->
      <g transform="translate(227.159151 322.182437) scale(0.1 -0.1)">
       <use xlink:href="#DejaVuSans-31"/>
       <use xlink:href="#DejaVuSans-35" transform="translate(63.623047 0)"/>
       <use xlink:href="#DejaVuSans-30" transform="translate(127.246094 0)"/>
      </g>
     </g>
    </g>
    <g id="xtick_5">
     <g id="line2d_9">
      <path d="M 290.992958 307.584 
L 290.992958 41.472 
" clip-path="url(#p14912ae4a7)" style="fill: none; stroke: #b0b0b0; stroke-width: 0.8; stroke-linecap: square"/>
     </g>
     <g id="line2d_10">
      <g>
       <use xlink:href="#m2bfd79ba84" x="290.992958" y="307.584" style="stroke: #000000; stroke-width: 0.8"/>
      </g>
     </g>
     <g id="text_5">
      <!-- 200 -->
      <g transform="translate(281.449208 322.182437) scale(0.1 -0.1)">
       <defs>
        <path id="DejaVuSans-32" d="M 1228 531 
L 3431 531 
L 3431 0 
L 469 0 
L 469 531 
Q 828 903 1448 1529 
Q 2069 2156 2228 2338 
Q 2531 2678 2651 2914 
Q 2772 3150 2772 3378 
Q 2772 3750 2511 3984 
Q 2250 4219 1831 4219 
Q 1534 4219 1204 4116 
Q 875 4013 500 3803 
L 500 4441 
Q 881 4594 1212 4672 
Q 1544 4750 1819 4750 
Q 2544 4750 2975 4387 
Q 3406 4025 3406 3419 
Q 3406 3131 3298 2873 
Q 3191 2616 2906 2266 
Q 2828 2175 2409 1742 
Q 1991 1309 1228 531 
z
" transform="scale(0.015625)"/>
       </defs>
       <use xlink:href="#DejaVuSans-32"/>
       <use xlink:href="#DejaVuSans-30" transform="translate(63.623047 0)"/>
       <use xlink:href="#DejaVuSans-30" transform="translate(127.246094 0)"/>
      </g>
     </g>
    </g>
    <g id="xtick_6">
     <g id="line2d_11">
      <path d="M 345.283016 307.584 
L 345.283016 41.472 
" clip-path="url(#p14912ae4a7)" style="fill: none; stroke: #b0b0b0; stroke-width: 0.8; stroke-linecap: square"/>
     </g>
     <g id="line2d_12">
      <g>
       <use xlink:href="#m2bfd79ba84" x="345.283016" y="307.584" style="stroke: #000000; stroke-width: 0.8"/>
      </g>
     </g>
     <g id="text_6">
      <!-- 250 -->
      <g transform="translate(335.739266 322.182437) scale(0.1 -0.1)">
       <use xlink:href="#DejaVuSans-32"/>
       <use xlink:href="#DejaVuSans-35" transform="translate(63.623047 0)"/>
       <use xlink:href="#DejaVuSans-30" transform="translate(127.246094 0)"/>
      </g>
     </g>
    </g>
    <g id="xtick_7">
     <g id="line2d_13">
      <path d="M 399.573074 307.584 
L 399.573074 41.472 
" clip-path="url(#p14912ae4a7)" style="fill: none; stroke: #b0b0b0; stroke-width: 0.8; stroke-linecap: square"/>
     </g>
     <g id="line2d_14">
      <g>
       <use xlink:href="#m2bfd79ba84" x="399.573074" y="307.584" style="stroke: #000000; stroke-width: 0.8"/>
      </g>
     </g>
     <g id="text_7">
      <!-- 300 -->
      <g transform="translate(390.029324 322.182437) scale(0.1 -0.1)">
       <defs>
        <path id="DejaVuSans-33" d="M 2597 2516 
Q 3050 2419 3304 2112 
Q 3559 1806 3559 1356 
Q 3559 666 3084 287 
Q 2609 -91 1734 -91 
Q 1441 -91 1130 -33 
Q 819 25 488 141 
L 488 750 
Q 750 597 1062 519 
Q 1375 441 1716 441 
Q 2309 441 2620 675 
Q 2931 909 2931 1356 
Q 2931 1769 2642 2001 
Q 2353 2234 1838 2234 
L 1294 2234 
L 1294 2753 
L 1863 2753 
Q 2328 2753 2575 2939 
Q 2822 3125 2822 3475 
Q 2822 3834 2567 4026 
Q 2313 4219 1838 4219 
Q 1578 4219 1281 4162 
Q 984 4106 628 3988 
L 628 4550 
Q 988 4650 1302 4700 
Q 1616 4750 1894 4750 
Q 2613 4750 3031 4423 
Q 3450 4097 3450 3541 
Q 3450 3153 3228 2886 
Q 3006 2619 2597 2516 
z
" transform="scale(0.015625)"/>
       </defs>
       <use xlink:href="#DejaVuSans-33"/>
       <use xlink:href="#DejaVuSans-30" transform="translate(63.623047 0)"/>
       <use xlink:href="#DejaVuSans-30" transform="translate(127.246094 0)"/>
      </g>
     </g>
    </g>
    <g id="text_8">
     <!-- Generations -->
     <g transform="translate(205.662344 335.860562) scale(0.1 -0.1)">
      <defs>
       <path id="DejaVuSans-47" d="M 3809 666 
L 3809 1919 
L 2778 1919 
L 2778 2438 
L 4434 2438 
L 4434 434 
Q 4069 175 3628 42 
Q 3188 -91 2688 -91 
Q 1594 -91 976 548 
Q 359 1188 359 2328 
Q 359 3472 976 4111 
Q 1594 4750 2688 4750 
Q 3144 4750 3555 4637 
Q 3966 4525 4313 4306 
L 4313 3634 
Q 3963 3931 3569 4081 
Q 3175 4231 2741 4231 
Q 1884 4231 1454 3753 
Q 1025 3275 1025 2328 
Q 1025 1384 1454 906 
Q 1884 428 2741 428 
Q 3075 428 3337 486 
Q 3600 544 3809 666 
z
" transform="scale(0.015625)"/>
       <path id="DejaVuSans-65" d="M 3597 1894 
L 3597 1613 
L 953 1613 
Q 991 1019 1311 708 
Q 1631 397 2203 397 
Q 2534 397 2845 478 
Q 3156 559 3463 722 
L 3463 178 
Q 3153 47 2828 -22 
Q 2503 -91 2169 -91 
Q 1331 -91 842 396 
Q 353 884 353 1716 
Q 353 2575 817 3079 
Q 1281 3584 2069 3584 
Q 2775 3584 3186 3129 
Q 3597 2675 3597 1894 
z
M 3022 2063 
Q 3016 2534 2758 2815 
Q 2500 3097 2075 3097 
Q 1594 3097 1305 2825 
Q 1016 2553 972 2059 
L 3022 2063 
z
" transform="scale(0.015625)"/>
       <path id="DejaVuSans-6e" d="M 3513 2113 
L 3513 0 
L 2938 0 
L 2938 2094 
Q 2938 2591 2744 2837 
Q 2550 3084 2163 3084 
Q 1697 3084 1428 2787 
Q 1159 2491 1159 1978 
L 1159 0 
L 581 0 
L 581 3500 
L 1159 3500 
L 1159 2956 
Q 1366 3272 1645 3428 
Q 1925 3584 2291 3584 
Q 2894 3584 3203 3211 
Q 3513 2838 3513 2113 
z
" transform="scale(0.015625)"/>
       <path id="DejaVuSans-72" d="M 2631 2963 
Q 2534 3019 2420 3045 
Q 2306 3072 2169 3072 
Q 1681 3072 1420 2755 
Q 1159 2438 1159 1844 
L 1159 0 
L 581 0 
L 581 3500 
L 1159 3500 
L 1159 2956 
Q 1341 3275 1631 3429 
Q 1922 3584 2338 3584 
Q 2397 3584 2469 3576 
Q 2541 3569 2628 3553 
L 2631 2963 
z
" transform="scale(0.015625)"/>
       <path id="DejaVuSans-61" d="M 2194 1759 
Q 1497 1759 1228 1600 
Q 959 1441 959 1056 
Q 959 750 1161 570 
Q 1363 391 1709 391 
Q 2188 391 2477 730 
Q 2766 1069 2766 1631 
L 2766 1759 
L 2194 1759 
z
M 3341 1997 
L 3341 0 
L 2766 0 
L 2766 531 
Q 2569 213 2275 61 
Q 1981 -91 1556 -91 
Q 1019 -91 701 211 
Q 384 513 384 1019 
Q 384 1609 779 1909 
Q 1175 2209 1959 2209 
L 2766 2209 
L 2766 2266 
Q 2766 2663 2505 2880 
Q 2244 3097 1772 3097 
Q 1472 3097 1187 3025 
Q 903 2953 641 2809 
L 641 3341 
Q 956 3463 1253 3523 
Q 1550 3584 1831 3584 
Q 2591 3584 2966 3190 
Q 3341 2797 3341 1997 
z
" transform="scale(0.015625)"/>
       <path id="DejaVuSans-74" d="M 1172 4494 
L 1172 3500 
L 2356 3500 
L 2356 3053 
L 1172 3053 
L 1172 1153 
Q 1172 725 1289 603 
Q 1406 481 1766 481 
L 2356 481 
L 2356 0 
L 1766 0 
Q 1100 0 847 248 
Q 594 497 594 1153 
L 594 3053 
L 172 3053 
L 172 3500 
L 594 3500 
L 594 4494 
L 1172 4494 
z
" transform="scale(0.015625)"/>
       <path id="DejaVuSans-69" d="M 603 3500 
L 1178 3500 
L 1178 0 
L 603 0 
L 603 3500 
z
M 603 4863 
L 1178 4863 
L 1178 4134 
L 603 4134 
L 603 4863 
z
" transform="scale(0.015625)"/>
       <path id="DejaVuSans-6f" d="M 1959 3097 
Q 1497 3097 1228 2736 
Q 959 2375 959 1747 
Q 959 1119 1226 758 
Q 1494 397 1959 397 
Q 2419 397 2687 759 
Q 2956 1122 2956 1747 
Q 2956 2369 2687 2733 
Q 2419 3097 1959 3097 
z
M 1959 3584 
Q 2709 3584 3137 3096 
Q 3566 2609 3566 1747 
Q 3566 888 3137 398 
Q 2709 -91 1959 -91 
Q 1206 -91 779 398 
Q 353 888 353 1747 
Q 353 2609 779 3096 
Q 1206 3584 1959 3584 
z
" transform="scale(0.015625)"/>
       <path id="DejaVuSans-73" d="M 2834 3397 
L 2834 2853 
Q 2591 2978 2328 3040 
Q 2066 3103 1784 3103 
Q 1356 3103 1142 2972 
Q 928 2841 928 2578 
Q 928 2378 1081 2264 
Q 1234 2150 1697 2047 
L 1894 2003 
Q 2506 1872 2764 1633 
Q 3022 1394 3022 966 
Q 3022 478 2636 193 
Q 2250 -91 1575 -91 
Q 1294 -91 989 -36 
Q 684 19 347 128 
L 347 722 
Q 666 556 975 473 
Q 1284 391 1588 391 
Q 1994 391 2212 530 
Q 2431 669 2431 922 
Q 2431 1156 2273 1281 
Q 2116 1406 1581 1522 
L 1381 1569 
Q 847 1681 609 1914 
Q 372 2147 372 2553 
Q 372 3047 722 3315 
Q 1072 3584 1716 3584 
Q 2034 3584 2315 3537 
Q 2597 3491 2834 3397 
z
" transform="scale(0.015625)"/>
      </defs>
      <use xlink:href="#DejaVuSans-47"/>
      <use xlink:href="#DejaVuSans-65" transform="translate(77.490234 0)"/>
      <use xlink:href="#DejaVuSans-6e" transform="translate(139.013672 0)"/>
      <use xlink:href="#DejaVuSans-65" transform="translate(202.392578 0)"/>
      <use xlink:href="#DejaVuSans-72" transform="translate(263.916016 0)"/>
      <use xlink:href="#DejaVuSans-61" transform="translate(305.029297 0)"/>
      <use xlink:href="#DejaVuSans-74" transform="translate(366.308594 0)"/>
      <use xlink:href="#DejaVuSans-69" transform="translate(405.517578 0)"/>
      <use xlink:href="#DejaVuSans-6f" transform="translate(433.300781 0)"/>
      <use xlink:href="#DejaVuSans-6e" transform="translate(494.482422 0)"/>
      <use xlink:href="#DejaVuSans-73" transform="translate(557.861328 0)"/>
     </g>
    </g>
   </g>
   <g id="matplotlib.axis_2">
    <g id="ytick_1">
     <g id="line2d_15">
      <path d="M 57.6 48.044231 
L 414.72 48.044231 
" clip-path="url(#p14912ae4a7)" style="fill: none; stroke: #b0b0b0; stroke-width: 0.8; stroke-linecap: square"/>
     </g>
     <g id="line2d_16">
      <defs>
       <path id="m4ff836611a" d="M 0 0 
L -3.5 0 
" style="stroke: #000000; stroke-width: 0.8"/>
      </defs>
      <g>
       <use xlink:href="#m4ff836611a" x="57.6" y="48.044231" style="stroke: #000000; stroke-width: 0.8"/>
      </g>
     </g>
     <g id="text_9">
      <!-- $\mathdefault{10^{2}}$ -->
      <g transform="translate(33 51.84345) scale(0.1 -0.1)">
       <use xlink:href="#DejaVuSans-31" transform="translate(0 0.765625)"/>
       <use xlink:href="#DejaVuSans-30" transform="translate(63.623047 0.765625)"/>
       <use xlink:href="#DejaVuSans-32" transform="translate(128.203125 39.046875) scale(0.7)"/>
      </g>
     </g>
    </g>
    <g id="text_10">
     <!-- Fitness -->
     <g transform="translate(26.920312 191.845187) rotate(-90) scale(0.1 -0.1)">
      <defs>
       <path id="DejaVuSans-46" d="M 628 4666 
L 3309 4666 
L 3309 4134 
L 1259 4134 
L 1259 2759 
L 3109 2759 
L 3109 2228 
L 1259 2228 
L 1259 0 
L 628 0 
L 628 4666 
z
" transform="scale(0.015625)"/>
      </defs>
      <use xlink:href="#DejaVuSans-46"/>
      <use xlink:href="#DejaVuSans-69" transform="translate(50.269531 0)"/>
      <use xlink:href="#DejaVuSans-74" transform="translate(78.052734 0)"/>
      <use xlink:href="#DejaVuSans-6e" transform="translate(117.261719 0)"/>
      <use xlink:href="#DejaVuSans-65" transform="translate(180.640625 0)"/>
      <use xlink:href="#DejaVuSans-73" transform="translate(242.164062 0)"/>
      <use xlink:href="#DejaVuSans-73" transform="translate(294.263672 0)"/>
     </g>
    </g>
   </g>
   <g id="line2d_17">
    <path d="M 73.832727 295.488 
L 74.918528 273.05503 
L 76.00433 263.321415 
L 77.090131 262.291344 
L 78.175932 259.736617 
L 79.261733 255.725626 
L 80.347534 250.505176 
L 81.433335 254.269065 
L 82.519137 251.117365 
L 83.604938 248.965939 
L 84.690739 245.941928 
L 85.77654 244.803373 
L 86.862341 245.125425 
L 87.948142 241.381899 
L 89.033943 244.95044 
L 90.119745 242.430053 
L 91.205546 240.897726 
L 92.291347 235.913355 
L 93.377148 238.458691 
L 94.462949 235.335027 
L 95.54875 233.463689 
L 96.634552 231.919978 
L 97.720353 231.61623 
L 98.806154 232.826627 
L 99.891955 233.045797 
L 100.977756 231.863236 
L 102.063557 234.913936 
L 103.149358 228.926632 
L 104.23516 229.672182 
L 106.406762 225.656691 
L 107.492563 227.664272 
L 108.578364 229.371155 
L 109.664165 231.684851 
L 110.749967 225.066776 
L 112.921569 230.296262 
L 114.00737 232.017223 
L 115.093171 228.494549 
L 116.178972 225.860146 
L 117.264773 227.952395 
L 118.350575 229.461302 
L 119.436376 227.757798 
L 120.522177 225.766422 
L 121.607978 228.820005 
L 122.693779 226.882367 
L 123.77958 225.806366 
L 124.865382 228.919424 
L 125.951183 227.302853 
L 127.036984 225.438886 
L 128.122785 227.691662 
L 129.208586 226.170834 
L 130.294387 225.830187 
L 131.380189 224.274437 
L 132.46599 225.801694 
L 133.551791 222.200877 
L 134.637592 228.462664 
L 135.723393 227.492315 
L 136.809194 225.812396 
L 137.894995 227.805936 
L 138.980797 226.058365 
L 140.066598 228.280519 
L 141.152399 223.678109 
L 142.2382 228.928391 
L 143.324001 226.868852 
L 144.409802 225.254663 
L 145.495604 226.909677 
L 146.581405 226.151527 
L 147.667206 228.075865 
L 148.753007 224.537545 
L 149.838808 224.623758 
L 150.924609 225.949681 
L 152.01041 229.58936 
L 153.096212 224.47888 
L 154.182013 223.565646 
L 155.267814 222.233148 
L 156.353615 228.132843 
L 157.439416 227.860867 
L 158.525217 228.705614 
L 159.611019 229.776259 
L 160.69682 229.399598 
L 161.782621 229.623802 
L 162.868422 231.473342 
L 163.954223 227.78095 
L 165.040024 230.567064 
L 166.125825 229.401998 
L 167.211627 229.903006 
L 168.297428 226.233984 
L 169.383229 226.742618 
L 170.46903 225.83945 
L 171.554831 226.397248 
L 172.640632 227.98719 
L 173.726434 228.263057 
L 174.812235 229.559684 
L 175.898036 231.365173 
L 176.983837 225.569555 
L 178.069638 226.51063 
L 179.155439 224.327286 
L 181.327042 229.930689 
L 182.412843 230.165122 
L 183.498644 230.720199 
L 184.584445 227.6967 
L 185.670246 223.583494 
L 186.756047 230.18116 
L 187.841849 230.039538 
L 188.92765 229.378595 
L 190.013451 227.186981 
L 191.099252 228.29423 
L 192.185053 228.16305 
L 193.270854 235.636412 
L 194.356656 230.163643 
L 195.442457 230.913683 
L 196.528258 226.545275 
L 197.614059 231.915118 
L 198.69986 229.783909 
L 199.785661 230.939607 
L 200.871462 227.258369 
L 201.957264 227.42138 
L 203.043065 228.726839 
L 204.128866 228.901818 
L 205.214667 230.240941 
L 206.300468 225.785423 
L 207.386269 231.097406 
L 209.557872 229.110673 
L 210.643673 229.550079 
L 211.729474 226.968299 
L 212.815275 228.502377 
L 213.901076 232.083364 
L 214.986877 230.719867 
L 216.072679 228.760284 
L 217.15848 232.985402 
L 218.244281 229.378193 
L 219.330082 230.86137 
L 220.415883 231.128142 
L 221.501684 232.591126 
L 222.587486 231.588024 
L 223.673287 232.33036 
L 224.759088 230.856765 
L 225.844889 227.692737 
L 226.93069 230.936375 
L 228.016491 226.987577 
L 229.102292 229.044244 
L 230.188094 230.444295 
L 231.273895 228.238811 
L 232.359696 233.134793 
L 233.445497 229.647951 
L 234.531298 229.316745 
L 235.617099 229.196394 
L 236.702901 228.925342 
L 237.788702 229.596307 
L 238.874503 224.923175 
L 241.046105 230.972574 
L 242.131906 227.291797 
L 243.217708 229.537215 
L 244.303509 229.734717 
L 245.38931 231.051354 
L 246.475111 229.998244 
L 247.560912 226.708025 
L 248.646713 230.288126 
L 249.732514 228.619649 
L 250.818316 228.41591 
L 251.904117 226.36629 
L 252.989918 229.199066 
L 254.075719 227.448183 
L 255.16152 228.234136 
L 256.247321 228.15887 
L 257.333123 228.478756 
L 258.418924 228.956579 
L 259.504725 229.965045 
L 260.590526 227.972619 
L 261.676327 227.215459 
L 262.762128 226.671108 
L 263.847929 227.948885 
L 264.933731 227.903984 
L 266.019532 231.35616 
L 267.105333 228.322422 
L 268.191134 230.963648 
L 269.276935 230.404572 
L 270.362736 232.296715 
L 271.448538 225.231248 
L 272.534339 230.455373 
L 273.62014 229.866512 
L 274.705941 231.890202 
L 275.791742 230.013037 
L 276.877543 232.417774 
L 277.963344 230.522285 
L 279.049146 230.10368 
L 280.134947 229.555592 
L 281.220748 230.993593 
L 282.306549 231.615026 
L 284.478151 231.726763 
L 285.563953 230.908484 
L 286.649754 232.73044 
L 287.735555 230.845274 
L 288.821356 229.330084 
L 289.907157 231.144785 
L 290.992958 230.512981 
L 292.07876 231.096118 
L 293.164561 230.013062 
L 294.250362 229.264249 
L 295.336163 228.978483 
L 296.421964 230.151322 
L 297.507765 227.809935 
L 298.593566 227.131329 
L 299.679368 230.699635 
L 300.765169 227.441254 
L 302.936771 230.626293 
L 304.022572 232.625309 
L 305.108373 231.160679 
L 306.194175 230.081746 
L 307.279976 230.786468 
L 308.365777 229.947848 
L 309.451578 227.76837 
L 310.537379 229.58109 
L 311.62318 228.31239 
L 312.708981 228.207037 
L 313.794783 230.012871 
L 314.880584 229.790474 
L 315.966385 229.366216 
L 317.052186 230.196624 
L 318.137987 227.46678 
L 319.223788 229.935104 
L 320.30959 229.607986 
L 321.395391 228.010157 
L 322.481192 231.090924 
L 323.566993 229.073408 
L 324.652794 230.352289 
L 325.738595 229.484112 
L 326.824396 230.410255 
L 327.910198 230.056899 
L 328.995999 230.799244 
L 330.0818 230.110506 
L 331.167601 230.56959 
L 332.253402 230.564341 
L 333.339203 231.345103 
L 334.425005 229.778634 
L 335.510806 231.713096 
L 336.596607 232.641437 
L 337.682408 229.565916 
L 338.768209 232.791085 
L 339.85401 229.194464 
L 340.939811 230.098113 
L 342.025613 229.308433 
L 343.111414 231.676683 
L 344.197215 229.533398 
L 345.283016 230.916529 
L 346.368817 229.554574 
L 347.454618 229.393606 
L 348.54042 231.697691 
L 350.712022 229.558086 
L 351.797823 231.26232 
L 352.883624 231.159595 
L 353.969425 229.314333 
L 355.055227 228.15272 
L 356.141028 229.111492 
L 357.226829 228.666899 
L 358.31263 229.054481 
L 359.398431 231.153855 
L 360.484232 231.110725 
L 361.570033 226.644886 
L 362.655835 227.071559 
L 363.741636 230.798303 
L 364.827437 229.872293 
L 365.913238 228.098075 
L 366.999039 228.66222 
L 368.08484 228.003605 
L 369.170642 227.570939 
L 370.256443 229.852683 
L 371.342244 229.703451 
L 372.428045 230.572698 
L 373.513846 227.890529 
L 374.599647 226.747593 
L 376.77125 229.825811 
L 377.857051 229.20447 
L 378.942852 230.038498 
L 380.028653 226.864117 
L 381.114454 229.555341 
L 383.286057 227.49154 
L 384.371858 229.746377 
L 385.457659 226.530511 
L 386.54346 227.652958 
L 387.629261 229.608546 
L 388.715062 226.001922 
L 389.800863 230.113913 
L 390.886665 229.875969 
L 391.972466 227.443952 
L 393.058267 230.637164 
L 394.144068 228.321973 
L 395.229869 229.976026 
L 396.31567 228.305563 
L 397.401472 226.947987 
L 398.487273 228.053481 
L 398.487273 228.053481 
" clip-path="url(#p14912ae4a7)" style="fill: none; stroke: #0000ff; stroke-width: 1.5; stroke-linecap: square"/>
   </g>
   <g id="line2d_18">
    <path d="M 73.832727 250.509573 
L 74.918528 224.719228 
L 76.00433 217.323945 
L 77.090131 216.12304 
L 78.175932 213.344977 
L 79.261733 209.77198 
L 80.347534 203.712121 
L 81.433335 207.979275 
L 82.519137 203.111463 
L 83.604938 196.806599 
L 84.690739 197.057791 
L 85.77654 193.057024 
L 86.862341 196.17929 
L 87.948142 191.301337 
L 89.033943 193.242087 
L 90.119745 191.798815 
L 91.205546 192.698606 
L 92.291347 185.466523 
L 93.377148 186.66695 
L 94.462949 183.624266 
L 95.54875 184.362175 
L 96.634552 180.966844 
L 97.720353 181.963931 
L 98.806154 185.092839 
L 99.891955 185.931146 
L 100.977756 179.864963 
L 102.063557 186.017367 
L 103.149358 180.827092 
L 104.23516 180.380012 
L 105.320961 178.834285 
L 106.406762 176.046119 
L 107.492563 178.150531 
L 108.578364 181.527662 
L 109.664165 181.638772 
L 110.749967 178.047718 
L 111.835768 176.211648 
L 112.921569 176.426097 
L 114.00737 181.095814 
L 115.093171 179.945612 
L 116.178972 177.333148 
L 117.264773 180.170031 
L 118.350575 180.460535 
L 119.436376 177.479869 
L 120.522177 177.924029 
L 121.607978 180.121191 
L 122.693779 179.658693 
L 123.77958 177.531348 
L 124.865382 184.67499 
L 125.951183 180.083939 
L 127.036984 179.060784 
L 128.122785 181.241851 
L 129.208586 180.443257 
L 130.294387 180.085669 
L 131.380189 178.015843 
L 132.46599 179.238719 
L 133.551791 174.36839 
L 134.637592 180.285523 
L 135.723393 179.78921 
L 136.809194 178.440666 
L 137.894995 181.922895 
L 138.980797 181.102456 
L 140.066598 180.89478 
L 141.152399 176.753909 
L 142.2382 182.747365 
L 143.324001 179.079476 
L 144.409802 177.308043 
L 145.495604 180.759423 
L 146.581405 180.451849 
L 147.667206 183.177807 
L 148.753007 176.385044 
L 149.838808 177.683891 
L 150.924609 178.419197 
L 152.01041 186.534672 
L 153.096212 178.722771 
L 154.182013 177.461412 
L 155.267814 173.711068 
L 156.353615 181.165744 
L 157.439416 180.538498 
L 158.525217 181.850212 
L 159.611019 184.42172 
L 160.69682 181.108307 
L 161.782621 182.904766 
L 162.868422 183.355816 
L 163.954223 178.93838 
L 165.040024 181.632883 
L 166.125825 182.464978 
L 167.211627 182.725851 
L 168.297428 177.619354 
L 169.383229 178.458383 
L 170.46903 179.686821 
L 171.554831 180.360979 
L 172.640632 179.454402 
L 173.726434 183.179548 
L 174.812235 184.137734 
L 175.898036 185.994997 
L 176.983837 179.184882 
L 178.069638 177.968723 
L 179.155439 179.843802 
L 180.24124 180.730476 
L 181.327042 183.134942 
L 182.412843 183.66263 
L 184.584445 181.417793 
L 185.670246 177.760252 
L 186.756047 184.76032 
L 187.841849 185.460245 
L 188.92765 182.066916 
L 190.013451 180.321767 
L 191.099252 183.082059 
L 192.185053 179.405494 
L 193.270854 188.496858 
L 194.356656 185.800096 
L 195.442457 185.16231 
L 196.528258 179.789204 
L 197.614059 186.939023 
L 198.69986 181.133338 
L 199.785661 186.61949 
L 200.871462 183.320175 
L 201.957264 183.727414 
L 203.043065 184.627975 
L 204.128866 184.073732 
L 205.214667 185.257879 
L 206.300468 180.202558 
L 207.386269 187.938316 
L 208.472071 186.240055 
L 209.557872 187.144709 
L 210.643673 186.010233 
L 211.729474 183.710476 
L 212.815275 184.346977 
L 213.901076 188.73666 
L 216.072679 186.20771 
L 217.15848 190.541782 
L 218.244281 186.648463 
L 219.330082 187.367683 
L 220.415883 189.657427 
L 221.501684 190.989023 
L 222.587486 189.625111 
L 223.673287 186.4794 
L 224.759088 187.11731 
L 225.844889 182.886973 
L 226.93069 186.120726 
L 228.016491 183.008296 
L 229.102292 183.266608 
L 230.188094 187.308494 
L 231.273895 183.176503 
L 232.359696 188.860412 
L 233.445497 186.28718 
L 234.531298 185.157923 
L 235.617099 185.515844 
L 236.702901 186.763086 
L 237.788702 185.831761 
L 238.874503 179.575593 
L 239.960304 181.813967 
L 241.046105 186.57493 
L 242.131906 184.36466 
L 243.217708 186.122602 
L 244.303509 187.16725 
L 245.38931 188.428854 
L 246.475111 188.050704 
L 247.560912 182.214356 
L 248.646713 186.572585 
L 249.732514 185.759003 
L 250.818316 184.127333 
L 251.904117 183.668902 
L 252.989918 186.694582 
L 254.075719 183.938001 
L 255.16152 183.557502 
L 256.247321 186.174045 
L 257.333123 185.106819 
L 258.418924 184.505601 
L 259.504725 187.268742 
L 260.590526 183.682585 
L 261.676327 183.164142 
L 262.762128 185.855019 
L 264.933731 184.245812 
L 266.019532 186.828106 
L 267.105333 184.335417 
L 268.191134 186.61964 
L 269.276935 184.848282 
L 270.362736 187.299076 
L 271.448538 181.249349 
L 272.534339 185.234622 
L 273.62014 183.735866 
L 274.705941 186.902256 
L 275.791742 187.18117 
L 276.877543 188.101336 
L 277.963344 186.415376 
L 279.049146 187.673932 
L 280.134947 184.717472 
L 281.220748 187.561163 
L 282.306549 186.89758 
L 283.39235 188.47925 
L 284.478151 189.567312 
L 285.563953 186.516867 
L 286.649754 189.040429 
L 287.735555 186.610732 
L 288.821356 187.217295 
L 289.907157 188.654815 
L 290.992958 187.28645 
L 292.07876 187.745784 
L 293.164561 188.531461 
L 294.250362 186.957619 
L 295.336163 186.208213 
L 296.421964 187.198527 
L 297.507765 184.603143 
L 298.593566 184.227858 
L 299.679368 189.141053 
L 300.765169 184.254022 
L 301.85097 186.550875 
L 302.936771 189.780076 
L 304.022572 190.371907 
L 305.108373 189.414711 
L 306.194175 187.659474 
L 307.279976 188.935213 
L 308.365777 186.670128 
L 309.451578 186.98067 
L 310.537379 188.367718 
L 311.62318 185.241062 
L 312.708981 185.233932 
L 313.794783 187.648386 
L 314.880584 188.973412 
L 315.966385 186.201615 
L 317.052186 187.449449 
L 318.137987 184.877607 
L 319.223788 186.449112 
L 320.30959 187.240913 
L 321.395391 184.835731 
L 322.481192 185.867824 
L 323.566993 187.966817 
L 324.652794 187.073757 
L 325.738595 186.681326 
L 326.824396 187.35065 
L 327.910198 185.574256 
L 328.995999 187.796463 
L 330.0818 185.819503 
L 331.167601 185.932709 
L 332.253402 187.462494 
L 333.339203 188.633362 
L 334.425005 185.454349 
L 335.510806 186.238943 
L 336.596607 186.384913 
L 337.682408 185.524247 
L 338.768209 188.804918 
L 339.85401 186.563154 
L 340.939811 185.867812 
L 342.025613 186.376307 
L 343.111414 189.071582 
L 344.197215 186.568742 
L 345.283016 188.006084 
L 346.368817 186.078953 
L 347.454618 185.669193 
L 348.54042 188.710162 
L 349.626221 186.448001 
L 350.712022 188.162782 
L 352.883624 189.550358 
L 353.969425 186.254866 
L 355.055227 185.440284 
L 356.141028 185.945271 
L 357.226829 183.892038 
L 358.31263 185.68192 
L 359.398431 188.37212 
L 360.484232 187.633001 
L 361.570033 184.222359 
L 362.655835 182.082288 
L 363.741636 187.011584 
L 364.827437 188.287314 
L 365.913238 185.113786 
L 366.999039 186.264286 
L 368.08484 182.883882 
L 369.170642 184.526132 
L 370.256443 187.116583 
L 371.342244 186.531412 
L 372.428045 187.868783 
L 374.599647 183.016339 
L 376.77125 186.914822 
L 377.857051 185.71505 
L 378.942852 189.329515 
L 380.028653 184.669121 
L 381.114454 187.018116 
L 382.200255 185.498284 
L 383.286057 187.048125 
L 384.371858 187.97807 
L 385.457659 183.813827 
L 386.54346 183.866096 
L 387.629261 186.558334 
L 388.715062 182.921589 
L 389.800863 188.253078 
L 390.886665 186.698879 
L 391.972466 184.188709 
L 393.058267 188.187125 
L 394.144068 186.180513 
L 395.229869 185.076128 
L 396.31567 183.23958 
L 397.401472 183.393608 
L 398.487273 185.606649 
L 398.487273 185.606649 
" clip-path="url(#p14912ae4a7)" style="fill: none; stroke-dasharray: 9.6,2.4,1.5,2.4; stroke-dashoffset: 0; stroke: #008000; stroke-width: 1.5"/>
   </g>
   <g id="line2d_19">
    <path d="M 73.832727 130.572392 
L 74.918528 140.386515 
L 78.175932 111.700797 
L 79.261733 140.132109 
L 80.347534 120.023996 
L 81.433335 140.343635 
L 82.519137 93.349162 
L 83.604938 68.377979 
L 84.690739 110.818708 
L 85.77654 93.708265 
L 86.862341 120.807202 
L 87.948142 76.296194 
L 89.033943 84.140947 
L 90.119745 102.316271 
L 92.291347 68.536182 
L 93.377148 84.413024 
L 94.462949 76.660304 
L 95.54875 101.581879 
L 96.634552 84.371379 
L 97.720353 76.692565 
L 98.806154 110.61764 
L 99.891955 110.497478 
L 100.977756 93.006886 
L 102.063557 85.043581 
L 103.149358 61.543053 
L 104.23516 84.189455 
L 105.320961 68.585171 
L 106.406762 93.131141 
L 107.492563 76.351162 
L 108.578364 101.987415 
L 109.664165 111.103698 
L 110.749967 84.213715 
L 111.835768 75.878018 
L 114.00737 75.97029 
L 115.093171 93.480218 
L 116.178972 93.077207 
L 117.264773 93.416615 
L 118.350575 76.797748 
L 119.436376 53.568 
L 120.522177 102.01432 
L 121.607978 101.388903 
L 122.693779 102.47631 
L 123.77958 93.290252 
L 124.865382 120.127744 
L 125.951183 101.419689 
L 127.036984 93.544091 
L 128.122785 102.099162 
L 129.208586 68.742371 
L 130.294387 101.398219 
L 131.380189 111.115212 
L 132.46599 92.84649 
L 133.551791 69.006579 
L 134.637592 93.046632 
L 135.723393 84.41018 
L 136.809194 85.130703 
L 137.894995 68.811092 
L 138.980797 76.600861 
L 140.066598 110.875152 
L 141.152399 92.789479 
L 142.2382 110.814178 
L 143.324001 83.87772 
L 144.409802 76.616689 
L 145.495604 111.625829 
L 146.581405 102.594234 
L 147.667206 92.422823 
L 148.753007 76.158327 
L 149.838808 68.03385 
L 150.924609 85.251094 
L 152.01041 111.441266 
L 153.096212 92.840661 
L 154.182013 68.167426 
L 155.267814 76.413317 
L 156.353615 76.29388 
L 157.439416 110.382302 
L 158.525217 92.706688 
L 159.611019 111.077662 
L 160.69682 93.348033 
L 161.782621 102.701742 
L 162.868422 93.382938 
L 163.954223 92.371749 
L 165.040024 92.828712 
L 166.125825 60.345254 
L 167.211627 119.99266 
L 168.297428 68.212547 
L 169.383229 69.171598 
L 170.46903 84.974156 
L 171.554831 76.571371 
L 172.640632 76.455325 
L 173.726434 111.0458 
L 174.812235 102.422801 
L 175.898036 100.4805 
L 176.983837 84.432371 
L 180.24124 110.091567 
L 181.327042 111.205881 
L 182.412843 101.537974 
L 183.498644 84.922825 
L 184.584445 101.689044 
L 185.670246 85.156071 
L 186.756047 130.549047 
L 187.841849 130.479829 
L 188.92765 76.433699 
L 190.013451 68.137559 
L 191.099252 84.36275 
L 192.185053 53.773002 
L 193.270854 100.841903 
L 194.356656 101.509737 
L 195.442457 93.036867 
L 196.528258 111.092743 
L 197.614059 101.959537 
L 198.69986 84.613233 
L 199.785661 111.211723 
L 200.871462 110.29147 
L 201.957264 110.967034 
L 203.043065 93.209166 
L 204.128866 102.366464 
L 205.214667 101.650668 
L 206.300468 76.706979 
L 207.386269 120.77084 
L 208.472071 102.08135 
L 209.557872 120.535373 
L 210.643673 102.253498 
L 211.729474 101.860707 
L 212.815275 93.538301 
L 213.901076 93.019299 
L 214.986877 110.956505 
L 216.072679 120.034235 
L 217.15848 110.590648 
L 218.244281 111.127871 
L 219.330082 101.986205 
L 220.415883 130.562831 
L 221.501684 110.853552 
L 222.587486 130.783084 
L 223.673287 68.354988 
L 224.759088 110.788845 
L 225.844889 93.492074 
L 226.93069 110.907773 
L 228.016491 111.378398 
L 229.102292 85.048417 
L 230.188094 101.285623 
L 231.273895 101.06283 
L 232.359696 129.724257 
L 233.445497 92.749234 
L 234.531298 101.522054 
L 235.617099 120.566448 
L 236.702901 93.63728 
L 237.788702 101.872558 
L 238.874503 76.614071 
L 239.960304 76.22762 
L 241.046105 101.780116 
L 242.131906 111.238845 
L 243.217708 130.14743 
L 244.303509 119.548955 
L 245.38931 120.936477 
L 246.475111 101.93608 
L 247.560912 101.205253 
L 248.646713 102.505016 
L 249.732514 111.21035 
L 250.818316 93.110629 
L 251.904117 102.140125 
L 252.989918 120.77537 
L 254.075719 101.362574 
L 255.16152 93.842601 
L 256.247321 111.559899 
L 257.333123 111.062383 
L 258.418924 60.895531 
L 259.504725 84.320956 
L 260.590526 111.067389 
L 261.676327 93.124317 
L 262.762128 102.225117 
L 263.847929 93.02193 
L 264.933731 101.585658 
L 266.019532 93.234844 
L 267.105333 111.005135 
L 268.191134 101.554258 
L 269.276935 101.811341 
L 270.362736 110.076738 
L 271.448538 110.741192 
L 272.534339 93.063831 
L 273.62014 111.5543 
L 274.705941 110.86285 
L 275.791742 121.205945 
L 276.877543 110.260627 
L 277.963344 111.114772 
L 279.049146 130.08786 
L 280.134947 109.731315 
L 281.220748 130.133822 
L 282.306549 111.416887 
L 283.39235 111.26951 
L 284.478151 140.638809 
L 285.563953 93.303611 
L 286.649754 119.826151 
L 287.735555 119.65899 
L 288.821356 101.622217 
L 289.907157 120.370391 
L 290.992958 84.443581 
L 292.07876 121.134901 
L 293.164561 120.254272 
L 294.250362 110.345396 
L 295.336163 110.009879 
L 296.421964 85.125061 
L 297.507765 111.940917 
L 298.593566 111.163901 
L 299.679368 131.134386 
L 300.765169 92.636089 
L 301.85097 120.27083 
L 302.936771 130.641931 
L 305.108373 111.321637 
L 306.194175 110.831523 
L 307.279976 111.052931 
L 308.365777 119.689092 
L 309.451578 120.706146 
L 310.537379 111.569765 
L 311.62318 110.554521 
L 312.708981 120.722943 
L 313.794783 111.179071 
L 314.880584 120.982518 
L 315.966385 110.49126 
L 317.052186 85.113056 
L 318.137987 111.131233 
L 320.30959 130.2277 
L 321.395391 120.313866 
L 322.481192 120.575128 
L 323.566993 130.435756 
L 324.652794 130.330944 
L 325.738595 120.851265 
L 326.824396 120.511014 
L 327.910198 111.477063 
L 328.995999 93.094495 
L 330.0818 92.757779 
L 331.167601 110.965134 
L 332.253402 75.923932 
L 333.339203 131.588776 
L 334.425005 76.75411 
L 335.510806 84.3543 
L 336.596607 85.363902 
L 337.682408 111.031135 
L 338.768209 130.398179 
L 339.85401 102.088811 
L 340.939811 101.239598 
L 342.025613 110.786877 
L 343.111414 111.857126 
L 344.197215 120.613336 
L 345.283016 93.48149 
L 346.368817 120.14954 
L 347.454618 101.813373 
L 348.54042 102.245026 
L 349.626221 120.343364 
L 350.712022 75.709513 
L 351.797823 111.030155 
L 352.883624 120.698372 
L 353.969425 92.905861 
L 355.055227 93.460356 
L 356.141028 120.505938 
L 357.226829 76.276656 
L 358.31263 101.748947 
L 359.398431 120.341428 
L 360.484232 130.679348 
L 361.570033 110.946151 
L 362.655835 93.497442 
L 363.741636 111.190202 
L 364.827437 141.078751 
L 365.913238 111.309253 
L 366.999039 121.309289 
L 368.08484 68.731684 
L 369.170642 93.072223 
L 370.256443 120.415416 
L 371.342244 119.982823 
L 372.428045 121.460653 
L 373.513846 120.555476 
L 374.599647 102.566012 
L 375.685448 120.211685 
L 376.77125 120.345556 
L 377.857051 92.654124 
L 378.942852 120.795127 
L 380.028653 93.156095 
L 381.114454 110.931316 
L 382.200255 110.87475 
L 383.286057 111.502462 
L 384.371858 111.341851 
L 385.457659 130.62569 
L 387.629261 93.175364 
L 388.715062 111.015665 
L 389.800863 120.594305 
L 390.886665 120.326695 
L 391.972466 93.066872 
L 393.058267 111.194549 
L 394.144068 120.79823 
L 395.229869 93.369361 
L 396.31567 130.1398 
L 397.401472 93.784059 
L 398.487273 120.450755 
L 398.487273 120.450755 
" clip-path="url(#p14912ae4a7)" style="fill: none; stroke: #ff0000; stroke-width: 1.5; stroke-linecap: square"/>
   </g>
   <g id="patch_3">
    <path d="M 57.6 307.584 
L 57.6 41.472 
" style="fill: none; stroke: #000000; stroke-width: 0.8; stroke-linejoin: miter; stroke-linecap: square"/>
   </g>
   <g id="patch_4">
    <path d="M 414.72 307.584 
L 414.72 41.472 
" style="fill: none; stroke: #000000; stroke-width: 0.8; stroke-linejoin: miter; stroke-linecap: square"/>
   </g>
   <g id="patch_5">
    <path d="M 57.6 307.584 
L 414.72 307.584 
" style="fill: none; stroke: #000000; stroke-width: 0.8; stroke-linejoin: miter; stroke-linecap: square"/>
   </g>
   <g id="patch_6">
    <path d="M 57.6 41.472 
L 414.72 41.472 
" style="fill: none; stroke: #000000; stroke-width: 0.8; stroke-linejoin: miter; stroke-linecap: square"/>
   </g>
   <g id="text_11">
    <!-- Population's average and best fitness -->
    <g transform="translate(123.529687 35.472) scale(0.12 -0.12)">
     <defs>
      <path id="DejaVuSans-50" d="M 1259 4147 
L 1259 2394 
L 2053 2394 
Q 2494 2394 2734 2622 
Q 2975 2850 2975 3272 
Q 2975 3691 2734 3919 
Q 2494 4147 2053 4147 
L 1259 4147 
z
M 628 4666 
L 2053 4666 
Q 2838 4666 3239 4311 
Q 3641 3956 3641 3272 
Q 3641 2581 3239 2228 
Q 2838 1875 2053 1875 
L 1259 1875 
L 1259 0 
L 628 0 
L 628 4666 
z
" transform="scale(0.015625)"/>
      <path id="DejaVuSans-70" d="M 1159 525 
L 1159 -1331 
L 581 -1331 
L 581 3500 
L 1159 3500 
L 1159 2969 
Q 1341 3281 1617 3432 
Q 1894 3584 2278 3584 
Q 2916 3584 3314 3078 
Q 3713 2572 3713 1747 
Q 3713 922 3314 415 
Q 2916 -91 2278 -91 
Q 1894 -91 1617 61 
Q 1341 213 1159 525 
z
M 3116 1747 
Q 3116 2381 2855 2742 
Q 2594 3103 2138 3103 
Q 1681 3103 1420 2742 
Q 1159 2381 1159 1747 
Q 1159 1113 1420 752 
Q 1681 391 2138 391 
Q 2594 391 2855 752 
Q 3116 1113 3116 1747 
z
" transform="scale(0.015625)"/>
      <path id="DejaVuSans-75" d="M 544 1381 
L 544 3500 
L 1119 3500 
L 1119 1403 
Q 1119 906 1312 657 
Q 1506 409 1894 409 
Q 2359 409 2629 706 
Q 2900 1003 2900 1516 
L 2900 3500 
L 3475 3500 
L 3475 0 
L 2900 0 
L 2900 538 
Q 2691 219 2414 64 
Q 2138 -91 1772 -91 
Q 1169 -91 856 284 
Q 544 659 544 1381 
z
M 1991 3584 
L 1991 3584 
z
" transform="scale(0.015625)"/>
      <path id="DejaVuSans-6c" d="M 603 4863 
L 1178 4863 
L 1178 0 
L 603 0 
L 603 4863 
z
" transform="scale(0.015625)"/>
      <path id="DejaVuSans-27" d="M 1147 4666 
L 1147 2931 
L 616 2931 
L 616 4666 
L 1147 4666 
z
" transform="scale(0.015625)"/>
      <path id="DejaVuSans-20" transform="scale(0.015625)"/>
      <path id="DejaVuSans-76" d="M 191 3500 
L 800 3500 
L 1894 563 
L 2988 3500 
L 3597 3500 
L 2284 0 
L 1503 0 
L 191 3500 
z
" transform="scale(0.015625)"/>
      <path id="DejaVuSans-67" d="M 2906 1791 
Q 2906 2416 2648 2759 
Q 2391 3103 1925 3103 
Q 1463 3103 1205 2759 
Q 947 2416 947 1791 
Q 947 1169 1205 825 
Q 1463 481 1925 481 
Q 2391 481 2648 825 
Q 2906 1169 2906 1791 
z
M 3481 434 
Q 3481 -459 3084 -895 
Q 2688 -1331 1869 -1331 
Q 1566 -1331 1297 -1286 
Q 1028 -1241 775 -1147 
L 775 -588 
Q 1028 -725 1275 -790 
Q 1522 -856 1778 -856 
Q 2344 -856 2625 -561 
Q 2906 -266 2906 331 
L 2906 616 
Q 2728 306 2450 153 
Q 2172 0 1784 0 
Q 1141 0 747 490 
Q 353 981 353 1791 
Q 353 2603 747 3093 
Q 1141 3584 1784 3584 
Q 2172 3584 2450 3431 
Q 2728 3278 2906 2969 
L 2906 3500 
L 3481 3500 
L 3481 434 
z
" transform="scale(0.015625)"/>
      <path id="DejaVuSans-64" d="M 2906 2969 
L 2906 4863 
L 3481 4863 
L 3481 0 
L 2906 0 
L 2906 525 
Q 2725 213 2448 61 
Q 2172 -91 1784 -91 
Q 1150 -91 751 415 
Q 353 922 353 1747 
Q 353 2572 751 3078 
Q 1150 3584 1784 3584 
Q 2172 3584 2448 3432 
Q 2725 3281 2906 2969 
z
M 947 1747 
Q 947 1113 1208 752 
Q 1469 391 1925 391 
Q 2381 391 2643 752 
Q 2906 1113 2906 1747 
Q 2906 2381 2643 2742 
Q 2381 3103 1925 3103 
Q 1469 3103 1208 2742 
Q 947 2381 947 1747 
z
" transform="scale(0.015625)"/>
      <path id="DejaVuSans-62" d="M 3116 1747 
Q 3116 2381 2855 2742 
Q 2594 3103 2138 3103 
Q 1681 3103 1420 2742 
Q 1159 2381 1159 1747 
Q 1159 1113 1420 752 
Q 1681 391 2138 391 
Q 2594 391 2855 752 
Q 3116 1113 3116 1747 
z
M 1159 2969 
Q 1341 3281 1617 3432 
Q 1894 3584 2278 3584 
Q 2916 3584 3314 3078 
Q 3713 2572 3713 1747 
Q 3713 922 3314 415 
Q 2916 -91 2278 -91 
Q 1894 -91 1617 61 
Q 1341 213 1159 525 
L 1159 0 
L 581 0 
L 581 4863 
L 1159 4863 
L 1159 2969 
z
" transform="scale(0.015625)"/>
      <path id="DejaVuSans-66" d="M 2375 4863 
L 2375 4384 
L 1825 4384 
Q 1516 4384 1395 4259 
Q 1275 4134 1275 3809 
L 1275 3500 
L 2222 3500 
L 2222 3053 
L 1275 3053 
L 1275 0 
L 697 0 
L 697 3053 
L 147 3053 
L 147 3500 
L 697 3500 
L 697 3744 
Q 697 4328 969 4595 
Q 1241 4863 1831 4863 
L 2375 4863 
z
" transform="scale(0.015625)"/>
     </defs>
     <use xlink:href="#DejaVuSans-50"/>
     <use xlink:href="#DejaVuSans-6f" transform="translate(56.677734 0)"/>
     <use xlink:href="#DejaVuSans-70" transform="translate(117.859375 0)"/>
     <use xlink:href="#DejaVuSans-75" transform="translate(181.335938 0)"/>
     <use xlink:href="#DejaVuSans-6c" transform="translate(244.714844 0)"/>
     <use xlink:href="#DejaVuSans-61" transform="translate(272.498047 0)"/>
     <use xlink:href="#DejaVuSans-74" transform="translate(333.777344 0)"/>
     <use xlink:href="#DejaVuSans-69" transform="translate(372.986328 0)"/>
     <use xlink:href="#DejaVuSans-6f" transform="translate(400.769531 0)"/>
     <use xlink:href="#DejaVuSans-6e" transform="translate(461.951172 0)"/>
     <use xlink:href="#DejaVuSans-27" transform="translate(525.330078 0)"/>
     <use xlink:href="#DejaVuSans-73" transform="translate(552.820312 0)"/>
     <use xlink:href="#DejaVuSans-20" transform="translate(604.919922 0)"/>
     <use xlink:href="#DejaVuSans-61" transform="translate(636.707031 0)"/>
     <use xlink:href="#DejaVuSans-76" transform="translate(697.986328 0)"/>
     <use xlink:href="#DejaVuSans-65" transform="translate(757.166016 0)"/>
     <use xlink:href="#DejaVuSans-72" transform="translate(818.689453 0)"/>
     <use xlink:href="#DejaVuSans-61" transform="translate(859.802734 0)"/>
     <use xlink:href="#DejaVuSans-67" transform="translate(921.082031 0)"/>
     <use xlink:href="#DejaVuSans-65" transform="translate(984.558594 0)"/>
     <use xlink:href="#DejaVuSans-20" transform="translate(1046.082031 0)"/>
     <use xlink:href="#DejaVuSans-61" transform="translate(1077.869141 0)"/>
     <use xlink:href="#DejaVuSans-6e" transform="translate(1139.148438 0)"/>
     <use xlink:href="#DejaVuSans-64" transform="translate(1202.527344 0)"/>
     <use xlink:href="#DejaVuSans-20" transform="translate(1266.003906 0)"/>
     <use xlink:href="#DejaVuSans-62" transform="translate(1297.791016 0)"/>
     <use xlink:href="#DejaVuSans-65" transform="translate(1361.267578 0)"/>
     <use xlink:href="#DejaVuSans-73" transform="translate(1422.791016 0)"/>
     <use xlink:href="#DejaVuSans-74" transform="translate(1474.890625 0)"/>
     <use xlink:href="#DejaVuSans-20" transform="translate(1514.099609 0)"/>
     <use xlink:href="#DejaVuSans-66" transform="translate(1545.886719 0)"/>
     <use xlink:href="#DejaVuSans-69" transform="translate(1581.091797 0)"/>
     <use xlink:href="#DejaVuSans-74" transform="translate(1608.875 0)"/>
     <use xlink:href="#DejaVuSans-6e" transform="translate(1648.083984 0)"/>
     <use xlink:href="#DejaVuSans-65" transform="translate(1711.462891 0)"/>
     <use xlink:href="#DejaVuSans-73" transform="translate(1772.986328 0)"/>
     <use xlink:href="#DejaVuSans-73" transform="translate(1825.085938 0)"/>
    </g>
   </g>
   <g id="legend_1">
    <g id="patch_7">
     <path d="M 334.779375 302.584 
L 407.72 302.584 
Q 409.72 302.584 409.72 300.584 
L 409.72 257.549625 
Q 409.72 255.549625 407.72 255.549625 
L 334.779375 255.549625 
Q 332.779375 255.549625 332.779375 257.549625 
L 332.779375 300.584 
Q 332.779375 302.584 334.779375 302.584 
z
" style="fill: #ffffff; opacity: 0.8; stroke: #cccccc; stroke-linejoin: miter"/>
    </g>
    <g id="line2d_20">
     <path d="M 336.779375 263.648062 
L 346.779375 263.648062 
L 356.779375 263.648062 
" style="fill: none; stroke: #0000ff; stroke-width: 1.5; stroke-linecap: square"/>
    </g>
    <g id="text_12">
     <!-- average -->
     <g transform="translate(364.779375 267.148062) scale(0.1 -0.1)">
      <use xlink:href="#DejaVuSans-61"/>
      <use xlink:href="#DejaVuSans-76" transform="translate(61.279297 0)"/>
      <use xlink:href="#DejaVuSans-65" transform="translate(120.458984 0)"/>
      <use xlink:href="#DejaVuSans-72" transform="translate(181.982422 0)"/>
      <use xlink:href="#DejaVuSans-61" transform="translate(223.095703 0)"/>
      <use xlink:href="#DejaVuSans-67" transform="translate(284.375 0)"/>
      <use xlink:href="#DejaVuSans-65" transform="translate(347.851562 0)"/>
     </g>
    </g>
    <g id="line2d_21">
     <path d="M 336.779375 278.326188 
L 346.779375 278.326188 
L 356.779375 278.326188 
" style="fill: none; stroke-dasharray: 9.6,2.4,1.5,2.4; stroke-dashoffset: 0; stroke: #008000; stroke-width: 1.5"/>
    </g>
    <g id="text_13">
     <!-- +1 sd -->
     <g transform="translate(364.779375 281.826188) scale(0.1 -0.1)">
      <defs>
       <path id="DejaVuSans-2b" d="M 2944 4013 
L 2944 2272 
L 4684 2272 
L 4684 1741 
L 2944 1741 
L 2944 0 
L 2419 0 
L 2419 1741 
L 678 1741 
L 678 2272 
L 2419 2272 
L 2419 4013 
L 2944 4013 
z
" transform="scale(0.015625)"/>
      </defs>
      <use xlink:href="#DejaVuSans-2b"/>
      <use xlink:href="#DejaVuSans-31" transform="translate(83.789062 0)"/>
      <use xlink:href="#DejaVuSans-20" transform="translate(147.412109 0)"/>
      <use xlink:href="#DejaVuSans-73" transform="translate(179.199219 0)"/>
      <use xlink:href="#DejaVuSans-64" transform="translate(231.298828 0)"/>
     </g>
    </g>
    <g id="line2d_22">
     <path d="M 336.779375 293.004312 
L 346.779375 293.004312 
L 356.779375 293.004312 
" style="fill: none; stroke: #ff0000; stroke-width: 1.5; stroke-linecap: square"/>
    </g>
    <g id="text_14">
     <!-- best -->
     <g transform="translate(364.779375 296.504312) scale(0.1 -0.1)">
      <use xlink:href="#DejaVuSans-62"/>
      <use xlink:href="#DejaVuSans-65" transform="translate(63.476562 0)"/>
      <use xlink:href="#DejaVuSans-73" transform="translate(125 0)"/>
      <use xlink:href="#DejaVuSans-74" transform="translate(177.099609 0)"/>
     </g>
    </g>
   </g>
  </g>
 </g>
 <defs>
  <clipPath id="p14912ae4a7">
   <rect x="57.6" y="41.472" width="357.12" height="266.112"/>
  </clipPath>
 </defs>
</svg>
