<?xml version="1.0" encoding="utf-8" standalone="no"?>
<!DOCTYPE svg PUBLIC "-//W3C//DTD SVG 1.1//EN"
  "http://www.w3.org/Graphics/SVG/1.1/DTD/svg11.dtd">
<svg xmlns:xlink="http://www.w3.org/1999/xlink" width="460.8pt" height="345.6pt" viewBox="0 0 460.8 345.6" xmlns="http://www.w3.org/2000/svg" version="1.1">
 <metadata>
  <rdf:RDF xmlns:dc="http://purl.org/dc/elements/1.1/" xmlns:cc="http://creativecommons.org/ns#" xmlns:rdf="http://www.w3.org/1999/02/22-rdf-syntax-ns#">
   <cc:Work>
    <dc:type rdf:resource="http://purl.org/dc/dcmitype/StillImage"/>
    <dc:date>2026-04-23T15:43:58.336041</dc:date>
    <dc:format>image/svg+xml</dc:format>
    <dc:creator>
     <cc:Agent>
      <dc:title>Matplotlib v3.10.8, https://matplotlib.org/</dc:title>
     </cc:Agent>
    </dc:creator>
   </cc:Work>
  </rdf:RDF>
 </metadata>
 <defs>
  <style type="text/css">*{stroke-linejoin: round; stroke-linecap: butt}</style>
 </defs>
 <g id="figure_1">
  <g id="patch_1">
   <path d="M 0 345.6 
L 460.8 345.6 
L 460.8 0 
L 0 0 
z
" style="fill: #ffffff"/>
  </g>
  <g id="axes_1">
   <g id="patch_2">
    <path d="M 57.6 307.584 
L 414.72 307.584 
L 414.72 41.472 
L 57.6 41.472 
z
" style="fill: #ffffff"/>
   </g>
   <g id="matplotlib.axis_1">
    <g id="xtick_1">
     <g id="line2d_1">
      <path d="M 73.832727 307.584 
L 73.832727 41.472 
" clip-path="url(#p84c98d739f)" style="fill: none; stroke: #b0b0b0; stroke-width: 0.8; stroke-linecap: square"/>
     </g>
     <g id="line2d_2">
      <defs>
       <path id="md113df9ac0" d="M 0 0 
L 0 3.5 
" style="stroke: #000000; stroke-width: 0.8"/>
      </defs>
      <g>
       <use xlink:href="#md113df9ac0" x="73.832727" y="307.584" style="stroke: #000000; stroke-width: 0.8"/>
      </g>
     </g>
     <g id="text_1">
      <!-- 0 -->
      <g transform="translate(70.651477 322.182437) scale(0.1 -0.1)">
       <defs>
        <path id="DejaVuSans-30" d="M 2034 4250 
Q 1547 4250 1301 3770 
Q 1056 3291 1056 2328 
Q 1056 1369 1301 889 
Q 1547 409 2034 409 
Q 2525 409 2770 889 
Q 3016 1369 3016 2328 
Q 3016 3291 2770 3770 
Q 2525 4250 2034 4250 
z
M 2034 4750 
Q 2819 4750 3233 4129 
Q 3647 3509 3647 2328 
Q 3647 1150 3233 529 
Q 2819 -91 2034 -91 
Q 1250 -91 836 529 
Q 422 1150 422 2328 
Q 422 3509 836 4129 
Q 1250 4750 2034 4750 
z
" transform="scale(0.015625)"/>
       </defs>
       <use xlink:href="#DejaVuSans-30"/>
      </g>
     </g>
    </g>
    <g id="xtick_2">
     <g id="line2d_3">
      <path d="M 114.618474 307.584 
L 114.618474 41.472 
" clip-path="url(#p84c98d739f)" style="fill: none; stroke: #b0b0b0; stroke-width: 0.8; stroke-linecap: square"/>
     </g>
     <g id="line2d_4">
      <g>
       <use xlink:href="#md113df9ac0" x="114.618474" y="307.584" style="stroke: #000000; stroke-width: 0.8"/>
      </g>
     </g>
     <g id="text_2">
      <!-- 25 -->
      <g transform="translate(108.255974 322.182437) scale(0.1 -0.1)">
       <defs>
        <path id="DejaVuSans-32" d="M 1228 531 
L 3431 531 
L 3431 0 
L 469 0 
L 469 531 
Q 828 903 1448 1529 
Q 2069 2156 2228 2338 
Q 2531 2678 2651 2914 
Q 2772 3150 2772 3378 
Q 2772 3750 2511 3984 
Q 2250 4219 1831 4219 
Q 1534 4219 1204 4116 
Q 875 4013 500 3803 
L 500 4441 
Q 881 4594 1212 4672 
Q 1544 4750 1819 4750 
Q 2544 4750 2975 4387 
Q 3406 4025 3406 3419 
Q 3406 3131 3298 2873 
Q 3191 2616 2906 2266 
Q 2828 2175 2409 1742 
Q 1991 1309 1228 531 
z
" transform="scale(0.015625)"/>
        <path id="DejaVuSans-35" d="M 691 4666 
L 3169 4666 
L 3169 4134 
L 1269 4134 
L 1269 2991 
Q 1406 3038 1543 3061 
Q 1681 3084 1819 3084 
Q 2600 3084 3056 2656 
Q 3513 2228 3513 1497 
Q 3513 744 3044 326 
Q 2575 -91 1722 -91 
Q 1428 -91 1123 -41 
Q 819 9 494 109 
L 494 744 
Q 775 591 1075 516 
Q 1375 441 1709 441 
Q 2250 441 2565 725 
Q 2881 1009 2881 1497 
Q 2881 1984 2565 2268 
Q 2250 2553 1709 2553 
Q 1456 2553 1204 2497 
Q 953 2441 691 2322 
L 691 4666 
z
" transform="scale(0.015625)"/>
       </defs>
       <use xlink:href="#DejaVuSans-32"/>
       <use xlink:href="#DejaVuSans-35" transform="translate(63.623047 0)"/>
      </g>
     </g>
    </g>
    <g id="xtick_3">
     <g id="line2d_5">
      <path d="M 155.404221 307.584 
L 155.404221 41.472 
" clip-path="url(#p84c98d739f)" style="fill: none; stroke: #b0b0b0; stroke-width: 0.8; stroke-linecap: square"/>
     </g>
     <g id="line2d_6">
      <g>
       <use xlink:href="#md113df9ac0" x="155.404221" y="307.584" style="stroke: #000000; stroke-width: 0.8"/>
      </g>
     </g>
     <g id="text_3">
      <!-- 50 -->
      <g transform="translate(149.041721 322.182437) scale(0.1 -0.1)">
       <use xlink:href="#DejaVuSans-35"/>
       <use xlink:href="#DejaVuSans-30" transform="translate(63.623047 0)"/>
      </g>
     </g>
    </g>
    <g id="xtick_4">
     <g id="line2d_7">
      <path d="M 196.189968 307.584 
L 196.189968 41.472 
" clip-path="url(#p84c98d739f)" style="fill: none; stroke: #b0b0b0; stroke-width: 0.8; stroke-linecap: square"/>
     </g>
     <g id="line2d_8">
      <g>
       <use xlink:href="#md113df9ac0" x="196.189968" y="307.584" style="stroke: #000000; stroke-width: 0.8"/>
      </g>
     </g>
     <g id="text_4">
      <!-- 75 -->
      <g transform="translate(189.827468 322.182437) scale(0.1 -0.1)">
       <defs>
        <path id="DejaVuSans-37" d="M 525 4666 
L 3525 4666 
L 3525 4397 
L 1831 0 
L 1172 0 
L 2766 4134 
L 525 4134 
L 525 4666 
z
" transform="scale(0.015625)"/>
       </defs>
       <use xlink:href="#DejaVuSans-37"/>
       <use xlink:href="#DejaVuSans-35" transform="translate(63.623047 0)"/>
      </g>
     </g>
    </g>
    <g id="xtick_5">
     <g id="line2d_9">
      <path d="M 236.975715 307.584 
L 236.975715 41.472 
" clip-path="url(#p84c98d739f)" style="fill: none; stroke: #b0b0b0; stroke-width: 0.8; stroke-linecap: square"/>
     </g>
     <g id="line2d_10">
      <g>
       <use xlink:href="#md113df9ac0" x="236.975715" y="307.584" style="stroke: #000000; stroke-width: 0.8"/>
      </g>
     </g>
     <g id="text_5">
      <!-- 100 -->
      <g transform="translate(227.431965 322.182437) scale(0.1 -0.1)">
       <defs>
        <path id="DejaVuSans-31" d="M 794 531 
L 1825 531 
L 1825 4091 
L 703 3866 
L 703 4441 
L 1819 4666 
L 2450 4666 
L 2450 531 
L 3481 531 
L 3481 0 
L 794 0 
L 794 531 
z
" transform="scale(0.015625)"/>
       </defs>
       <use xlink:href="#DejaVuSans-31"/>
       <use xlink:href="#DejaVuSans-30" transform="translate(63.623047 0)"/>
       <use xlink:href="#DejaVuSans-30" transform="translate(127.246094 0)"/>
      </g>
     </g>
    </g>
    <g id="xtick_6">
     <g id="line2d_11">
      <path d="M 277.761462 307.584 
L 277.761462 41.472 
" clip-path="url(#p84c98d739f)" style="fill: none; stroke: #b0b0b0; stroke-width: 0.8; stroke-linecap: square"/>
     </g>
     <g id="line2d_12">
      <g>
       <use xlink:href="#md113df9ac0" x="277.761462" y="307.584" style="stroke: #000000; stroke-width: 0.8"/>
      </g>
     </g>
     <g id="text_6">
      <!-- 125 -->
      <g transform="translate(268.217712 322.182437) scale(0.1 -0.1)">
       <use xlink:href="#DejaVuSans-31"/>
       <use xlink:href="#DejaVuSans-32" transform="translate(63.623047 0)"/>
       <use xlink:href="#DejaVuSans-35" transform="translate(127.246094 0)"/>
      </g>
     </g>
    </g>
    <g id="xtick_7">
     <g id="line2d_13">
      <path d="M 318.547209 307.584 
L 318.547209 41.472 
" clip-path="url(#p84c98d739f)" style="fill: none; stroke: #b0b0b0; stroke-width: 0.8; stroke-linecap: square"/>
     </g>
     <g id="line2d_14">
      <g>
       <use xlink:href="#md113df9ac0" x="318.547209" y="307.584" style="stroke: #000000; stroke-width: 0.8"/>
      </g>
     </g>
     <g id="text_7">
      <!-- 150 -->
      <g transform="translate(309.003459 322.182437) scale(0.1 -0.1)">
       <use xlink:href="#DejaVuSans-31"/>
       <use xlink:href="#DejaVuSans-35" transform="translate(63.623047 0)"/>
       <use xlink:href="#DejaVuSans-30" transform="translate(127.246094 0)"/>
      </g>
     </g>
    </g>
    <g id="xtick_8">
     <g id="line2d_15">
      <path d="M 359.332956 307.584 
L 359.332956 41.472 
" clip-path="url(#p84c98d739f)" style="fill: none; stroke: #b0b0b0; stroke-width: 0.8; stroke-linecap: square"/>
     </g>
     <g id="line2d_16">
      <g>
       <use xlink:href="#md113df9ac0" x="359.332956" y="307.584" style="stroke: #000000; stroke-width: 0.8"/>
      </g>
     </g>
     <g id="text_8">
      <!-- 175 -->
      <g transform="translate(349.789206 322.182437) scale(0.1 -0.1)">
       <use xlink:href="#DejaVuSans-31"/>
       <use xlink:href="#DejaVuSans-37" transform="translate(63.623047 0)"/>
       <use xlink:href="#DejaVuSans-35" transform="translate(127.246094 0)"/>
      </g>
     </g>
    </g>
    <g id="xtick_9">
     <g id="line2d_17">
      <path d="M 400.118703 307.584 
L 400.118703 41.472 
" clip-path="url(#p84c98d739f)" style="fill: none; stroke: #b0b0b0; stroke-width: 0.8; stroke-linecap: square"/>
     </g>
     <g id="line2d_18">
      <g>
       <use xlink:href="#md113df9ac0" x="400.118703" y="307.584" style="stroke: #000000; stroke-width: 0.8"/>
      </g>
     </g>
     <g id="text_9">
      <!-- 200 -->
      <g transform="translate(390.574953 322.182437) scale(0.1 -0.1)">
       <use xlink:href="#DejaVuSans-32"/>
       <use xlink:href="#DejaVuSans-30" transform="translate(63.623047 0)"/>
       <use xlink:href="#DejaVuSans-30" transform="translate(127.246094 0)"/>
      </g>
     </g>
    </g>
    <g id="text_10">
     <!-- Generations -->
     <g transform="translate(205.662344 335.860562) scale(0.1 -0.1)">
      <defs>
       <path id="DejaVuSans-47" d="M 3809 666 
L 3809 1919 
L 2778 1919 
L 2778 2438 
L 4434 2438 
L 4434 434 
Q 4069 175 3628 42 
Q 3188 -91 2688 -91 
Q 1594 -91 976 548 
Q 359 1188 359 2328 
Q 359 3472 976 4111 
Q 1594 4750 2688 4750 
Q 3144 4750 3555 4637 
Q 3966 4525 4313 4306 
L 4313 3634 
Q 3963 3931 3569 4081 
Q 3175 4231 2741 4231 
Q 1884 4231 1454 3753 
Q 1025 3275 1025 2328 
Q 1025 1384 1454 906 
Q 1884 428 2741 428 
Q 3075 428 3337 486 
Q 3600 544 3809 666 
z
" transform="scale(0.015625)"/>
       <path id="DejaVuSans-65" d="M 3597 1894 
L 3597 1613 
L 953 1613 
Q 991 1019 1311 708 
Q 1631 397 2203 397 
Q 2534 397 2845 478 
Q 3156 559 3463 722 
L 3463 178 
Q 3153 47 2828 -22 
Q 2503 -91 2169 -91 
Q 1331 -91 842 396 
Q 353 884 353 1716 
Q 353 2575 817 3079 
Q 1281 3584 2069 3584 
Q 2775 3584 3186 3129 
Q 3597 2675 3597 1894 
z
M 3022 2063 
Q 3016 2534 2758 2815 
Q 2500 3097 2075 3097 
Q 1594 3097 1305 2825 
Q 1016 2553 972 2059 
L 3022 2063 
z
" transform="scale(0.015625)"/>
       <path id="DejaVuSans-6e" d="M 3513 2113 
L 3513 0 
L 2938 0 
L 2938 2094 
Q 2938 2591 2744 2837 
Q 2550 3084 2163 3084 
Q 1697 3084 1428 2787 
Q 1159 2491 1159 1978 
L 1159 0 
L 581 0 
L 581 3500 
L 1159 3500 
L 1159 2956 
Q 1366 3272 1645 3428 
Q 1925 3584 2291 3584 
Q 2894 3584 3203 3211 
Q 3513 2838 3513 2113 
z
" transform="scale(0.015625)"/>
       <path id="DejaVuSans-72" d="M 2631 2963 
Q 2534 3019 2420 3045 
Q 2306 3072 2169 3072 
Q 1681 3072 1420 2755 
Q 1159 2438 1159 1844 
L 1159 0 
L 581 0 
L 581 3500 
L 1159 3500 
L 1159 2956 
Q 1341 3275 1631 3429 
Q 1922 3584 2338 3584 
Q 2397 3584 2469 3576 
Q 2541 3569 2628 3553 
L 2631 2963 
z
" transform="scale(0.015625)"/>
       <path id="DejaVuSans-61" d="M 2194 1759 
Q 1497 1759 1228 1600 
Q 959 1441 959 1056 
Q 959 750 1161 570 
Q 1363 391 1709 391 
Q 2188 391 2477 730 
Q 2766 1069 2766 1631 
L 2766 1759 
L 2194 1759 
z
M 3341 1997 
L 3341 0 
L 2766 0 
L 2766 531 
Q 2569 213 2275 61 
Q 1981 -91 1556 -91 
Q 1019 -91 701 211 
Q 384 513 384 1019 
Q 384 1609 779 1909 
Q 1175 2209 1959 2209 
L 2766 2209 
L 2766 2266 
Q 2766 2663 2505 2880 
Q 2244 3097 1772 3097 
Q 1472 3097 1187 3025 
Q 903 2953 641 2809 
L 641 3341 
Q 956 3463 1253 3523 
Q 1550 3584 1831 3584 
Q 2591 3584 2966 3190 
Q 3341 2797 3341 1997 
z
" transform="scale(0.015625)"/>
       <path id="DejaVuSans-74" d="M 1172 4494 
L 1172 3500 
L 2356 3500 
L 2356 3053 
L 1172 3053 
L 1172 1153 
Q 1172 725 1289 603 
Q 1406 481 1766 481 
L 2356 481 
L 2356 0 
L 1766 0 
Q 1100 0 847 248 
Q 594 497 594 1153 
L 594 3053 
L 172 3053 
L 172 3500 
L 594 3500 
L 594 4494 
L 1172 4494 
z
" transform="scale(0.015625)"/>
       <path id="DejaVuSans-69" d="M 603 3500 
L 1178 3500 
L 1178 0 
L 603 0 
L 603 3500 
z
M 603 4863 
L 1178 4863 
L 1178 4134 
L 603 4134 
L 603 4863 
z
" transform="scale(0.015625)"/>
       <path id="DejaVuSans-6f" d="M 1959 3097 
Q 1497 3097 1228 2736 
Q 959 2375 959 1747 
Q 959 1119 1226 758 
Q 1494 397 1959 397 
Q 2419 397 2687 759 
Q 2956 1122 2956 1747 
Q 2956 2369 2687 2733 
Q 2419 3097 1959 3097 
z
M 1959 3584 
Q 2709 3584 3137 3096 
Q 3566 2609 3566 1747 
Q 3566 888 3137 398 
Q 2709 -91 1959 -91 
Q 1206 -91 779 398 
Q 353 888 353 1747 
Q 353 2609 779 3096 
Q 1206 3584 1959 3584 
z
" transform="scale(0.015625)"/>
       <path id="DejaVuSans-73" d="M 2834 3397 
L 2834 2853 
Q 2591 2978 2328 3040 
Q 2066 3103 1784 3103 
Q 1356 3103 1142 2972 
Q 928 2841 928 2578 
Q 928 2378 1081 2264 
Q 1234 2150 1697 2047 
L 1894 2003 
Q 2506 1872 2764 1633 
Q 3022 1394 3022 966 
Q 3022 478 2636 193 
Q 2250 -91 1575 -91 
Q 1294 -91 989 -36 
Q 684 19 347 128 
L 347 722 
Q 666 556 975 473 
Q 1284 391 1588 391 
Q 1994 391 2212 530 
Q 2431 669 2431 922 
Q 2431 1156 2273 1281 
Q 2116 1406 1581 1522 
L 1381 1569 
Q 847 1681 609 1914 
Q 372 2147 372 2553 
Q 372 3047 722 3315 
Q 1072 3584 1716 3584 
Q 2034 3584 2315 3537 
Q 2597 3491 2834 3397 
z
" transform="scale(0.015625)"/>
      </defs>
      <use xlink:href="#DejaVuSans-47"/>
      <use xlink:href="#DejaVuSans-65" transform="translate(77.490234 0)"/>
      <use xlink:href="#DejaVuSans-6e" transform="translate(139.013672 0)"/>
      <use xlink:href="#DejaVuSans-65" transform="translate(202.392578 0)"/>
      <use xlink:href="#DejaVuSans-72" transform="translate(263.916016 0)"/>
      <use xlink:href="#DejaVuSans-61" transform="translate(305.029297 0)"/>
      <use xlink:href="#DejaVuSans-74" transform="translate(366.308594 0)"/>
      <use xlink:href="#DejaVuSans-69" transform="translate(405.517578 0)"/>
      <use xlink:href="#DejaVuSans-6f" transform="translate(433.300781 0)"/>
      <use xlink:href="#DejaVuSans-6e" transform="translate(494.482422 0)"/>
      <use xlink:href="#DejaVuSans-73" transform="translate(557.861328 0)"/>
     </g>
    </g>
   </g>
   <g id="matplotlib.axis_2">
    <g id="ytick_1">
     <g id="line2d_19">
      <path d="M 57.6 136.01486 
L 414.72 136.01486 
" clip-path="url(#p84c98d739f)" style="fill: none; stroke: #b0b0b0; stroke-width: 0.8; stroke-linecap: square"/>
     </g>
     <g id="line2d_20">
      <defs>
       <path id="mb1dd6ba4d3" d="M 0 0 
L -3.5 0 
" style="stroke: #000000; stroke-width: 0.8"/>
      </defs>
      <g>
       <use xlink:href="#mb1dd6ba4d3" x="57.6" y="136.01486" style="stroke: #000000; stroke-width: 0.8"/>
      </g>
     </g>
     <g id="text_11">
      <!-- $\mathdefault{10^{2}}$ -->
      <g transform="translate(33 139.814079) scale(0.1 -0.1)">
       <use xlink:href="#DejaVuSans-31" transform="translate(0 0.765625)"/>
       <use xlink:href="#DejaVuSans-30" transform="translate(63.623047 0.765625)"/>
       <use xlink:href="#DejaVuSans-32" transform="translate(128.203125 39.046875) scale(0.7)"/>
      </g>
     </g>
    </g>
    <g id="text_12">
     <!-- Fitness -->
     <g transform="translate(26.920312 191.845187) rotate(-90) scale(0.1 -0.1)">
      <defs>
       <path id="DejaVuSans-46" d="M 628 4666 
L 3309 4666 
L 3309 4134 
L 1259 4134 
L 1259 2759 
L 3109 2759 
L 3109 2228 
L 1259 2228 
L 1259 0 
L 628 0 
L 628 4666 
z
" transform="scale(0.015625)"/>
      </defs>
      <use xlink:href="#DejaVuSans-46"/>
      <use xlink:href="#DejaVuSans-69" transform="translate(50.269531 0)"/>
      <use xlink:href="#DejaVuSans-74" transform="translate(78.052734 0)"/>
      <use xlink:href="#DejaVuSans-6e" transform="translate(117.261719 0)"/>
      <use xlink:href="#DejaVuSans-65" transform="translate(180.640625 0)"/>
      <use xlink:href="#DejaVuSans-73" transform="translate(242.164062 0)"/>
      <use xlink:href="#DejaVuSans-73" transform="translate(294.263672 0)"/>
     </g>
    </g>
   </g>
   <g id="line2d_21">
    <path d="M 73.832727 295.488 
L 75.464157 234.722122 
L 78.727017 193.992115 
L 80.358447 181.660823 
L 81.989877 189.703879 
L 83.621307 189.302303 
L 85.252736 175.139586 
L 86.884166 177.235427 
L 88.515596 178.649327 
L 90.147026 172.785788 
L 91.778456 172.225482 
L 93.409886 173.91944 
L 95.041316 166.480869 
L 96.672746 166.774083 
L 98.304175 170.845232 
L 99.935605 168.700759 
L 101.567035 168.323471 
L 103.198465 169.415262 
L 104.829895 167.328015 
L 106.461325 169.864448 
L 108.092755 163.742166 
L 109.724185 163.716934 
L 111.355614 166.039725 
L 112.987044 162.145739 
L 114.618474 163.54113 
L 116.249904 165.503042 
L 119.512764 163.45671 
L 121.144194 161.646268 
L 122.775624 163.343081 
L 124.407053 164.371345 
L 126.038483 164.826646 
L 127.669913 164.232471 
L 129.301343 164.337133 
L 130.932773 165.980651 
L 132.564203 162.933354 
L 134.195633 163.115244 
L 135.827063 162.28366 
L 137.458492 163.276595 
L 139.089922 163.187832 
L 140.721352 162.585362 
L 142.352782 164.229437 
L 143.984212 163.893366 
L 145.615642 164.505632 
L 147.247072 162.161253 
L 148.878502 164.980868 
L 150.509931 164.632607 
L 152.141361 160.985366 
L 153.772791 158.839114 
L 155.404221 159.97989 
L 157.035651 161.338036 
L 158.667081 159.320949 
L 160.298511 158.988988 
L 161.929941 160.249647 
L 163.56137 160.265246 
L 165.1928 159.185888 
L 166.82423 158.52749 
L 168.45566 160.179584 
L 170.08709 157.192041 
L 171.71852 158.933092 
L 173.34995 155.657146 
L 174.98138 158.181474 
L 176.61281 159.729444 
L 178.244239 160.017965 
L 179.875669 161.091934 
L 181.507099 157.108108 
L 183.138529 158.409709 
L 184.769959 156.164785 
L 186.401389 157.192528 
L 188.032819 160.665514 
L 191.295678 158.349682 
L 192.927108 157.687278 
L 194.558538 157.262749 
L 196.189968 160.461559 
L 197.821398 159.833264 
L 201.084258 160.71424 
L 202.715688 159.888045 
L 204.347117 159.440004 
L 205.978547 158.502274 
L 207.609977 157.740156 
L 209.241407 156.827055 
L 210.872837 157.751258 
L 212.504267 159.37791 
L 214.135697 158.044421 
L 215.767127 158.972154 
L 217.398556 158.147112 
L 219.029986 159.718551 
L 220.661416 157.984289 
L 222.292846 156.854836 
L 223.924276 158.482589 
L 225.555706 157.341741 
L 228.818566 160.060629 
L 230.449995 159.772455 
L 232.081425 161.227721 
L 233.712855 161.733269 
L 235.344285 159.985686 
L 236.975715 161.323805 
L 238.607145 160.399973 
L 240.238575 160.928325 
L 241.870005 158.625726 
L 243.501434 161.398257 
L 245.132864 158.697955 
L 246.764294 160.989136 
L 248.395724 157.948811 
L 250.027154 157.385797 
L 251.658584 158.817569 
L 253.290014 162.077164 
L 254.921444 157.407688 
L 256.552873 157.355104 
L 258.184303 158.847225 
L 259.815733 156.917727 
L 261.447163 159.326466 
L 263.078593 159.218555 
L 264.710023 158.939356 
L 266.341453 156.944784 
L 267.972883 158.442784 
L 269.604312 160.540831 
L 271.235742 158.382668 
L 272.867172 159.269327 
L 274.498602 155.420057 
L 276.130032 154.768315 
L 277.761462 158.750075 
L 279.392892 154.894369 
L 282.655751 161.752272 
L 284.287181 157.703347 
L 285.918611 156.817078 
L 287.550041 157.959921 
L 289.181471 158.193145 
L 290.812901 157.750339 
L 292.444331 157.950343 
L 294.075761 157.572748 
L 295.70719 156.297964 
L 297.33862 160.647105 
L 298.97005 156.588353 
L 300.60148 156.674448 
L 302.23291 159.727774 
L 303.86434 157.130327 
L 305.49577 160.05483 
L 307.1272 158.255111 
L 308.75863 159.908471 
L 310.390059 158.391215 
L 312.021489 157.647701 
L 313.652919 155.338243 
L 315.284349 160.359078 
L 316.915779 158.808647 
L 318.547209 158.734195 
L 320.178639 158.41715 
L 321.810069 157.631876 
L 323.441498 159.920596 
L 325.072928 160.037787 
L 326.704358 157.652017 
L 328.335788 158.237681 
L 329.967218 160.762709 
L 331.598648 157.728185 
L 333.230078 156.172801 
L 334.861508 158.865874 
L 336.492937 158.002036 
L 338.124367 160.269617 
L 339.755797 158.705824 
L 341.387227 158.605087 
L 343.018657 158.312778 
L 344.650087 158.253962 
L 346.281517 156.376581 
L 347.912947 159.43962 
L 349.544376 159.206105 
L 351.175806 156.296444 
L 352.807236 156.299673 
L 354.438666 159.014114 
L 356.070096 157.055128 
L 357.701526 154.646678 
L 359.332956 159.181255 
L 360.964386 158.00603 
L 362.595815 159.149061 
L 364.227245 155.454758 
L 365.858675 158.166552 
L 367.490105 157.918945 
L 369.121535 157.269101 
L 370.752965 156.147016 
L 372.384395 158.421252 
L 374.015825 159.893654 
L 375.647254 159.197709 
L 377.278684 159.484581 
L 378.910114 157.619932 
L 380.541544 158.050645 
L 382.172974 159.766626 
L 385.435834 158.825196 
L 387.067264 158.615489 
L 388.698693 159.594814 
L 390.330123 159.475202 
L 391.961553 154.413883 
L 393.592983 158.430819 
L 395.224413 155.318501 
L 396.855843 157.092134 
L 398.487273 158.41096 
L 398.487273 158.41096 
" clip-path="url(#p84c98d739f)" style="fill: none; stroke: #0000ff; stroke-width: 1.5; stroke-linecap: square"/>
   </g>
   <g id="line2d_22">
    <path d="M 73.832727 241.242022 
L 75.464157 182.726654 
L 77.095587 173.545733 
L 78.727017 156.776152 
L 80.358447 146.802845 
L 81.989877 152.910468 
L 83.621307 148.981015 
L 85.252736 142.388122 
L 86.884166 143.343643 
L 88.515596 146.143565 
L 90.147026 145.052648 
L 91.778456 147.179519 
L 93.409886 143.065751 
L 95.041316 139.824112 
L 96.672746 140.835545 
L 98.304175 145.867791 
L 99.935605 142.791318 
L 101.567035 144.457744 
L 103.198465 145.531604 
L 104.829895 142.236909 
L 106.461325 141.302746 
L 108.092755 141.438638 
L 109.724185 139.858898 
L 111.355614 144.463799 
L 112.987044 138.572669 
L 114.618474 139.566368 
L 116.249904 144.455477 
L 117.881334 140.957839 
L 119.512764 141.023191 
L 121.144194 136.508591 
L 122.775624 138.23622 
L 124.407053 141.432152 
L 126.038483 140.333976 
L 127.669913 143.644778 
L 129.301343 142.379798 
L 130.932773 143.889002 
L 132.564203 139.990355 
L 137.458492 139.639801 
L 139.089922 141.61224 
L 140.721352 139.934841 
L 142.352782 144.213183 
L 145.615642 141.840246 
L 147.247072 138.541604 
L 148.878502 140.652816 
L 150.509931 141.353121 
L 152.141361 138.924446 
L 153.772791 135.662988 
L 155.404221 139.657169 
L 157.035651 138.32224 
L 158.667081 138.217128 
L 160.298511 136.888647 
L 161.929941 138.794481 
L 163.56137 139.002942 
L 165.1928 138.999001 
L 166.82423 137.954946 
L 168.45566 138.404551 
L 170.08709 135.177614 
L 171.71852 136.263822 
L 173.34995 135.384041 
L 174.98138 137.174345 
L 176.61281 138.28497 
L 178.244239 140.843296 
L 179.875669 139.873041 
L 181.507099 135.003876 
L 183.138529 136.400708 
L 184.769959 137.262305 
L 186.401389 135.152216 
L 188.032819 140.027148 
L 189.664249 138.648817 
L 191.295678 137.706044 
L 192.927108 135.995584 
L 194.558538 135.73905 
L 196.189968 141.464239 
L 197.821398 139.965743 
L 199.452828 138.999722 
L 201.084258 139.62808 
L 202.715688 138.140827 
L 204.347117 136.392257 
L 205.978547 136.985438 
L 207.609977 137.219748 
L 209.241407 136.235734 
L 210.872837 137.255463 
L 212.504267 139.003683 
L 214.135697 136.982535 
L 215.767127 137.679662 
L 217.398556 136.139419 
L 219.029986 140.375619 
L 220.661416 136.992534 
L 222.292846 135.939331 
L 223.924276 137.664433 
L 225.555706 137.038252 
L 227.187136 137.745645 
L 228.818566 139.556986 
L 230.449995 136.553311 
L 232.081425 140.700288 
L 233.712855 141.425962 
L 235.344285 139.807118 
L 236.975715 140.127988 
L 238.607145 139.335422 
L 240.238575 138.049379 
L 241.870005 137.868314 
L 243.501434 139.447119 
L 245.132864 137.424471 
L 246.764294 141.536454 
L 248.395724 136.799101 
L 250.027154 137.264363 
L 251.658584 137.976215 
L 253.290014 143.472095 
L 254.921444 135.452869 
L 256.552873 135.32562 
L 258.184303 137.226971 
L 259.815733 136.634504 
L 261.447163 139.201638 
L 263.078593 138.659068 
L 264.710023 139.422994 
L 266.341453 135.524161 
L 267.972883 137.201041 
L 269.604312 141.215517 
L 272.867172 136.805826 
L 274.498602 135.390014 
L 276.130032 133.281841 
L 277.761462 137.905593 
L 279.392892 131.20851 
L 281.024322 137.954946 
L 282.655751 142.228869 
L 284.287181 135.97168 
L 285.918611 136.477505 
L 287.550041 137.568882 
L 289.181471 137.264665 
L 290.812901 136.71081 
L 292.444331 138.66796 
L 295.70719 134.86554 
L 297.33862 139.120417 
L 298.97005 134.620917 
L 300.60148 131.679938 
L 302.23291 140.022663 
L 303.86434 136.287195 
L 305.49577 139.38007 
L 307.1272 137.317205 
L 308.75863 138.199217 
L 310.390059 136.398788 
L 312.021489 136.461023 
L 313.652919 132.74565 
L 315.284349 139.255321 
L 316.915779 135.706959 
L 318.547209 138.361338 
L 321.810069 136.690878 
L 323.441498 136.894907 
L 325.072928 138.896807 
L 326.704358 136.035222 
L 328.335788 137.654818 
L 329.967218 138.449665 
L 331.598648 137.610092 
L 333.230078 134.449444 
L 334.861508 138.105388 
L 336.492937 136.769411 
L 338.124367 139.385445 
L 339.755797 139.129051 
L 341.387227 137.272154 
L 343.018657 137.140619 
L 344.650087 138.643189 
L 346.281517 135.868051 
L 347.912947 139.59551 
L 349.544376 139.528866 
L 351.175806 135.206358 
L 352.807236 134.111527 
L 354.438666 137.410468 
L 356.070096 136.101661 
L 357.701526 132.820299 
L 359.332956 141.464043 
L 360.964386 135.92333 
L 362.595815 137.843397 
L 364.227245 132.208401 
L 365.858675 138.516432 
L 367.490105 135.538405 
L 369.121535 134.475335 
L 370.752965 132.045868 
L 372.384395 137.564936 
L 374.015825 136.947947 
L 375.647254 137.0215 
L 377.278684 139.51781 
L 378.910114 137.363086 
L 382.172974 137.622384 
L 383.804404 139.131186 
L 385.435834 136.607417 
L 387.067264 139.139195 
L 388.698693 137.745531 
L 390.330123 138.864297 
L 391.961553 133.066447 
L 393.592983 138.058824 
L 395.224413 132.421057 
L 396.855843 137.857483 
L 398.487273 137.941904 
L 398.487273 137.941904 
" clip-path="url(#p84c98d739f)" style="fill: none; stroke-dasharray: 9.6,2.4,1.5,2.4; stroke-dashoffset: 0; stroke: #008000; stroke-width: 1.5"/>
   </g>
   <g id="line2d_23">
    <path d="M 73.832727 140.068326 
L 75.464157 116.220146 
L 77.095587 120.272426 
L 78.727017 120.549448 
L 80.358447 103.007447 
L 81.989877 103.406144 
L 83.621307 116.277089 
L 85.252736 87.416789 
L 86.884166 102.806143 
L 88.515596 107.167692 
L 90.147026 90.990345 
L 91.778456 115.61752 
L 93.409886 111.377472 
L 95.041316 80.088451 
L 96.672746 99.138029 
L 98.304175 107.195206 
L 99.935605 103.270585 
L 101.567035 87.483487 
L 103.198465 76.491533 
L 104.829895 103.104691 
L 106.461325 94.8018 
L 108.092755 90.84619 
L 109.724185 102.771039 
L 111.355614 103.090487 
L 112.987044 80.82775 
L 114.618474 79.90562 
L 116.249904 98.715564 
L 117.881334 102.848599 
L 119.512764 87.232553 
L 121.144194 73.40269 
L 122.775624 103.28363 
L 124.407053 98.75305 
L 126.038483 83.635813 
L 127.669913 84.209693 
L 129.301343 95.238752 
L 130.932773 56.697283 
L 132.564203 103.998601 
L 134.195633 69.675675 
L 135.827063 91.354722 
L 137.458492 87.115024 
L 139.089922 88.215135 
L 140.721352 91.515276 
L 142.352782 107.281583 
L 143.984212 98.895299 
L 145.615642 79.95096 
L 147.247072 87.227203 
L 148.878502 79.97271 
L 150.509931 94.662654 
L 152.141361 94.680462 
L 153.772791 95.05996 
L 155.404221 103.336586 
L 157.035651 63.531547 
L 158.667081 91.017959 
L 160.298511 86.985909 
L 161.929941 94.699771 
L 163.56137 87.210241 
L 165.1928 95.040459 
L 166.82423 95.246983 
L 168.45566 94.512947 
L 170.08709 90.881555 
L 171.71852 79.884947 
L 173.34995 94.633568 
L 174.98138 102.72787 
L 176.61281 83.294298 
L 178.244239 99.620982 
L 179.875669 98.832017 
L 181.507099 63.196008 
L 183.138529 92.008634 
L 184.769959 107.378036 
L 186.401389 63.760274 
L 188.032819 87.150662 
L 189.664249 91.256607 
L 191.295678 91.592947 
L 192.927108 87.759196 
L 194.558538 80.403548 
L 196.189968 87.090593 
L 197.821398 99.546415 
L 199.452828 95.213935 
L 201.084258 103.451369 
L 202.715688 99.251707 
L 204.347117 91.372902 
L 205.978547 95.015147 
L 207.609977 87.576631 
L 209.241407 102.541436 
L 210.872837 87.303759 
L 212.504267 94.991523 
L 214.135697 62.995196 
L 215.767127 91.187268 
L 217.398556 87.83438 
L 219.029986 95.401327 
L 220.661416 83.492871 
L 222.292846 76.591462 
L 223.924276 73.585358 
L 225.555706 87.48002 
L 227.187136 84.157896 
L 228.818566 99.585348 
L 230.449995 73.015755 
L 232.081425 94.766454 
L 233.712855 98.706832 
L 235.344285 83.468247 
L 236.975715 98.656818 
L 238.607145 99.07936 
L 240.238575 91.136632 
L 241.870005 99.135143 
L 243.501434 99.067489 
L 245.132864 76.546338 
L 246.764294 106.682859 
L 248.395724 95.120663 
L 250.027154 94.840981 
L 251.658584 91.202332 
L 253.290014 94.922982 
L 254.921444 95.102289 
L 256.552873 94.950189 
L 258.184303 73.797833 
L 259.815733 87.40289 
L 261.447163 102.471129 
L 263.078593 73.126131 
L 264.710023 79.95559 
L 266.341453 87.480503 
L 267.972883 83.637839 
L 269.604312 106.962202 
L 271.235742 87.323537 
L 272.867172 76.669986 
L 274.498602 87.485342 
L 276.130032 73.118402 
L 277.761462 90.757964 
L 279.392892 56.512836 
L 281.024322 102.985512 
L 282.655751 91.016024 
L 284.287181 87.635612 
L 285.918611 83.48695 
L 287.550041 91.180461 
L 289.181471 79.88558 
L 290.812901 87.965121 
L 292.444331 106.88608 
L 294.075761 83.166488 
L 295.70719 87.75804 
L 297.33862 91.467444 
L 298.97005 83.485776 
L 300.60148 53.568 
L 302.23291 98.410707 
L 303.86434 83.924933 
L 305.49577 91.600035 
L 307.1272 79.813353 
L 308.75863 99.077045 
L 310.390059 83.614534 
L 312.021489 95.524243 
L 313.652919 95.244343 
L 315.284349 94.597119 
L 316.915779 95.112161 
L 318.547209 87.162529 
L 320.178639 76.216631 
L 321.810069 91.006064 
L 323.441498 70.143797 
L 325.072928 91.351099 
L 326.704358 94.596104 
L 328.335788 76.60788 
L 329.967218 83.934005 
L 331.598648 99.173282 
L 333.230078 79.90632 
L 334.861508 95.309254 
L 336.492937 79.993519 
L 338.124367 95.546418 
L 339.755797 84.253251 
L 341.387227 76.539417 
L 343.018657 80.891834 
L 344.650087 95.177119 
L 346.281517 77.197961 
L 347.912947 106.469263 
L 349.544376 87.987818 
L 351.175806 98.958538 
L 352.807236 73.135979 
L 354.438666 98.928277 
L 356.070096 99.007181 
L 357.701526 90.965821 
L 359.332956 98.660273 
L 360.964386 91.078863 
L 362.595815 87.169736 
L 364.227245 80.082642 
L 365.858675 103.266436 
L 367.490105 76.382252 
L 369.121535 60.462183 
L 370.752965 57.253301 
L 372.384395 98.850292 
L 374.015825 72.688485 
L 375.647254 79.849278 
L 377.278684 98.831642 
L 378.910114 84.001121 
L 380.541544 94.682041 
L 382.172974 83.813024 
L 383.804404 95.052485 
L 385.435834 87.799578 
L 387.067264 95.288219 
L 388.698693 83.320347 
L 390.330123 99.242918 
L 391.961553 80.151945 
L 393.592983 91.72868 
L 395.224413 84.37797 
L 396.855843 91.088342 
L 398.487273 90.905677 
L 398.487273 90.905677 
" clip-path="url(#p84c98d739f)" style="fill: none; stroke: #ff0000; stroke-width: 1.5; stroke-linecap: square"/>
   </g>
   <g id="patch_3">
    <path d="M 57.6 307.584 
L 57.6 41.472 
" style="fill: none; stroke: #000000; stroke-width: 0.8; stroke-linejoin: miter; stroke-linecap: square"/>
   </g>
   <g id="patch_4">
    <path d="M 414.72 307.584 
L 414.72 41.472 
" style="fill: none; stroke: #000000; stroke-width: 0.8; stroke-linejoin: miter; stroke-linecap: square"/>
   </g>
   <g id="patch_5">
    <path d="M 57.6 307.584 
L 414.72 307.584 
" style="fill: none; stroke: #000000; stroke-width: 0.8; stroke-linejoin: miter; stroke-linecap: square"/>
   </g>
   <g id="patch_6">
    <path d="M 57.6 41.472 
L 414.72 41.472 
" style="fill: none; stroke: #000000; stroke-width: 0.8; stroke-linejoin: miter; stroke-linecap: square"/>
   </g>
   <g id="text_13">
    <!-- Population's average and best fitness -->
    <g transform="translate(123.529687 35.472) scale(0.12 -0.12)">
     <defs>
      <path id="DejaVuSans-50" d="M 1259 4147 
L 1259 2394 
L 2053 2394 
Q 2494 2394 2734 2622 
Q 2975 2850 2975 3272 
Q 2975 3691 2734 3919 
Q 2494 4147 2053 4147 
L 1259 4147 
z
M 628 4666 
L 2053 4666 
Q 2838 4666 3239 4311 
Q 3641 3956 3641 3272 
Q 3641 2581 3239 2228 
Q 2838 1875 2053 1875 
L 1259 1875 
L 1259 0 
L 628 0 
L 628 4666 
z
" transform="scale(0.015625)"/>
      <path id="DejaVuSans-70" d="M 1159 525 
L 1159 -1331 
L 581 -1331 
L 581 3500 
L 1159 3500 
L 1159 2969 
Q 1341 3281 1617 3432 
Q 1894 3584 2278 3584 
Q 2916 3584 3314 3078 
Q 3713 2572 3713 1747 
Q 3713 922 3314 415 
Q 2916 -91 2278 -91 
Q 1894 -91 1617 61 
Q 1341 213 1159 525 
z
M 3116 1747 
Q 3116 2381 2855 2742 
Q 2594 3103 2138 3103 
Q 1681 3103 1420 2742 
Q 1159 2381 1159 1747 
Q 1159 1113 1420 752 
Q 1681 391 2138 391 
Q 2594 391 2855 752 
Q 3116 1113 3116 1747 
z
" transform="scale(0.015625)"/>
      <path id="DejaVuSans-75" d="M 544 1381 
L 544 3500 
L 1119 3500 
L 1119 1403 
Q 1119 906 1312 657 
Q 1506 409 1894 409 
Q 2359 409 2629 706 
Q 2900 1003 2900 1516 
L 2900 3500 
L 3475 3500 
L 3475 0 
L 2900 0 
L 2900 538 
Q 2691 219 2414 64 
Q 2138 -91 1772 -91 
Q 1169 -91 856 284 
Q 544 659 544 1381 
z
M 1991 3584 
L 1991 3584 
z
" transform="scale(0.015625)"/>
      <path id="DejaVuSans-6c" d="M 603 4863 
L 1178 4863 
L 1178 0 
L 603 0 
L 603 4863 
z
" transform="scale(0.015625)"/>
      <path id="DejaVuSans-27" d="M 1147 4666 
L 1147 2931 
L 616 2931 
L 616 4666 
L 1147 4666 
z
" transform="scale(0.015625)"/>
      <path id="DejaVuSans-20" transform="scale(0.015625)"/>
      <path id="DejaVuSans-76" d="M 191 3500 
L 800 3500 
L 1894 563 
L 2988 3500 
L 3597 3500 
L 2284 0 
L 1503 0 
L 191 3500 
z
" transform="scale(0.015625)"/>
      <path id="DejaVuSans-67" d="M 2906 1791 
Q 2906 2416 2648 2759 
Q 2391 3103 1925 3103 
Q 1463 3103 1205 2759 
Q 947 2416 947 1791 
Q 947 1169 1205 825 
Q 1463 481 1925 481 
Q 2391 481 2648 825 
Q 2906 1169 2906 1791 
z
M 3481 434 
Q 3481 -459 3084 -895 
Q 2688 -1331 1869 -1331 
Q 1566 -1331 1297 -1286 
Q 1028 -1241 775 -1147 
L 775 -588 
Q 1028 -725 1275 -790 
Q 1522 -856 1778 -856 
Q 2344 -856 2625 -561 
Q 2906 -266 2906 331 
L 2906 616 
Q 2728 306 2450 153 
Q 2172 0 1784 0 
Q 1141 0 747 490 
Q 353 981 353 1791 
Q 353 2603 747 3093 
Q 1141 3584 1784 3584 
Q 2172 3584 2450 3431 
Q 2728 3278 2906 2969 
L 2906 3500 
L 3481 3500 
L 3481 434 
z
" transform="scale(0.015625)"/>
      <path id="DejaVuSans-64" d="M 2906 2969 
L 2906 4863 
L 3481 4863 
L 3481 0 
L 2906 0 
L 2906 525 
Q 2725 213 2448 61 
Q 2172 -91 1784 -91 
Q 1150 -91 751 415 
Q 353 922 353 1747 
Q 353 2572 751 3078 
Q 1150 3584 1784 3584 
Q 2172 3584 2448 3432 
Q 2725 3281 2906 2969 
z
M 947 1747 
Q 947 1113 1208 752 
Q 1469 391 1925 391 
Q 2381 391 2643 752 
Q 2906 1113 2906 1747 
Q 2906 2381 2643 2742 
Q 2381 3103 1925 3103 
Q 1469 3103 1208 2742 
Q 947 2381 947 1747 
z
" transform="scale(0.015625)"/>
      <path id="DejaVuSans-62" d="M 3116 1747 
Q 3116 2381 2855 2742 
Q 2594 3103 2138 3103 
Q 1681 3103 1420 2742 
Q 1159 2381 1159 1747 
Q 1159 1113 1420 752 
Q 1681 391 2138 391 
Q 2594 391 2855 752 
Q 3116 1113 3116 1747 
z
M 1159 2969 
Q 1341 3281 1617 3432 
Q 1894 3584 2278 3584 
Q 2916 3584 3314 3078 
Q 3713 2572 3713 1747 
Q 3713 922 3314 415 
Q 2916 -91 2278 -91 
Q 1894 -91 1617 61 
Q 1341 213 1159 525 
L 1159 0 
L 581 0 
L 581 4863 
L 1159 4863 
L 1159 2969 
z
" transform="scale(0.015625)"/>
      <path id="DejaVuSans-66" d="M 2375 4863 
L 2375 4384 
L 1825 4384 
Q 1516 4384 1395 4259 
Q 1275 4134 1275 3809 
L 1275 3500 
L 2222 3500 
L 2222 3053 
L 1275 3053 
L 1275 0 
L 697 0 
L 697 3053 
L 147 3053 
L 147 3500 
L 697 3500 
L 697 3744 
Q 697 4328 969 4595 
Q 1241 4863 1831 4863 
L 2375 4863 
z
" transform="scale(0.015625)"/>
     </defs>
     <use xlink:href="#DejaVuSans-50"/>
     <use xlink:href="#DejaVuSans-6f" transform="translate(56.677734 0)"/>
     <use xlink:href="#DejaVuSans-70" transform="translate(117.859375 0)"/>
     <use xlink:href="#DejaVuSans-75" transform="translate(181.335938 0)"/>
     <use xlink:href="#DejaVuSans-6c" transform="translate(244.714844 0)"/>
     <use xlink:href="#DejaVuSans-61" transform="translate(272.498047 0)"/>
     <use xlink:href="#DejaVuSans-74" transform="translate(333.777344 0)"/>
     <use xlink:href="#DejaVuSans-69" transform="translate(372.986328 0)"/>
     <use xlink:href="#DejaVuSans-6f" transform="translate(400.769531 0)"/>
     <use xlink:href="#DejaVuSans-6e" transform="translate(461.951172 0)"/>
     <use xlink:href="#DejaVuSans-27" transform="translate(525.330078 0)"/>
     <use xlink:href="#DejaVuSans-73" transform="translate(552.820312 0)"/>
     <use xlink:href="#DejaVuSans-20" transform="translate(604.919922 0)"/>
     <use xlink:href="#DejaVuSans-61" transform="translate(636.707031 0)"/>
     <use xlink:href="#DejaVuSans-76" transform="translate(697.986328 0)"/>
     <use xlink:href="#DejaVuSans-65" transform="translate(757.166016 0)"/>
     <use xlink:href="#DejaVuSans-72" transform="translate(818.689453 0)"/>
     <use xlink:href="#DejaVuSans-61" transform="translate(859.802734 0)"/>
     <use xlink:href="#DejaVuSans-67" transform="translate(921.082031 0)"/>
     <use xlink:href="#DejaVuSans-65" transform="translate(984.558594 0)"/>
     <use xlink:href="#DejaVuSans-20" transform="translate(1046.082031 0)"/>
     <use xlink:href="#DejaVuSans-61" transform="translate(1077.869141 0)"/>
     <use xlink:href="#DejaVuSans-6e" transform="translate(1139.148438 0)"/>
     <use xlink:href="#DejaVuSans-64" transform="translate(1202.527344 0)"/>
     <use xlink:href="#DejaVuSans-20" transform="translate(1266.003906 0)"/>
     <use xlink:href="#DejaVuSans-62" transform="translate(1297.791016 0)"/>
     <use xlink:href="#DejaVuSans-65" transform="translate(1361.267578 0)"/>
     <use xlink:href="#DejaVuSans-73" transform="translate(1422.791016 0)"/>
     <use xlink:href="#DejaVuSans-74" transform="translate(1474.890625 0)"/>
     <use xlink:href="#DejaVuSans-20" transform="translate(1514.099609 0)"/>
     <use xlink:href="#DejaVuSans-66" transform="translate(1545.886719 0)"/>
     <use xlink:href="#DejaVuSans-69" transform="translate(1581.091797 0)"/>
     <use xlink:href="#DejaVuSans-74" transform="translate(1608.875 0)"/>
     <use xlink:href="#DejaVuSans-6e" transform="translate(1648.083984 0)"/>
     <use xlink:href="#DejaVuSans-65" transform="translate(1711.462891 0)"/>
     <use xlink:href="#DejaVuSans-73" transform="translate(1772.986328 0)"/>
     <use xlink:href="#DejaVuSans-73" transform="translate(1825.085938 0)"/>
    </g>
   </g>
   <g id="legend_1">
    <g id="patch_7">
     <path d="M 334.779375 302.584 
L 407.72 302.584 
Q 409.72 302.584 409.72 300.584 
L 409.72 257.549625 
Q 409.72 255.549625 407.72 255.549625 
L 334.779375 255.549625 
Q 332.779375 255.549625 332.779375 257.549625 
L 332.779375 300.584 
Q 332.779375 302.584 334.779375 302.584 
z
" style="fill: #ffffff; opacity: 0.8; stroke: #cccccc; stroke-linejoin: miter"/>
    </g>
    <g id="line2d_24">
     <path d="M 336.779375 263.648062 
L 346.779375 263.648062 
L 356.779375 263.648062 
" style="fill: none; stroke: #0000ff; stroke-width: 1.5; stroke-linecap: square"/>
    </g>
    <g id="text_14">
     <!-- average -->
     <g transform="translate(364.779375 267.148062) scale(0.1 -0.1)">
      <use xlink:href="#DejaVuSans-61"/>
      <use xlink:href="#DejaVuSans-76" transform="translate(61.279297 0)"/>
      <use xlink:href="#DejaVuSans-65" transform="translate(120.458984 0)"/>
      <use xlink:href="#DejaVuSans-72" transform="translate(181.982422 0)"/>
      <use xlink:href="#DejaVuSans-61" transform="translate(223.095703 0)"/>
      <use xlink:href="#DejaVuSans-67" transform="translate(284.375 0)"/>
      <use xlink:href="#DejaVuSans-65" transform="translate(347.851562 0)"/>
     </g>
    </g>
    <g id="line2d_25">
     <path d="M 336.779375 278.326188 
L 346.779375 278.326188 
L 356.779375 278.326188 
" style="fill: none; stroke-dasharray: 9.6,2.4,1.5,2.4; stroke-dashoffset: 0; stroke: #008000; stroke-width: 1.5"/>
    </g>
    <g id="text_15">
     <!-- +1 sd -->
     <g transform="translate(364.779375 281.826188) scale(0.1 -0.1)">
      <defs>
       <path id="DejaVuSans-2b" d="M 2944 4013 
L 2944 2272 
L 4684 2272 
L 4684 1741 
L 2944 1741 
L 2944 0 
L 2419 0 
L 2419 1741 
L 678 1741 
L 678 2272 
L 2419 2272 
L 2419 4013 
L 2944 4013 
z
" transform="scale(0.015625)"/>
      </defs>
      <use xlink:href="#DejaVuSans-2b"/>
      <use xlink:href="#DejaVuSans-31" transform="translate(83.789062 0)"/>
      <use xlink:href="#DejaVuSans-20" transform="translate(147.412109 0)"/>
      <use xlink:href="#DejaVuSans-73" transform="translate(179.199219 0)"/>
      <use xlink:href="#DejaVuSans-64" transform="translate(231.298828 0)"/>
     </g>
    </g>
    <g id="line2d_26">
     <path d="M 336.779375 293.004312 
L 346.779375 293.004312 
L 356.779375 293.004312 
" style="fill: none; stroke: #ff0000; stroke-width: 1.5; stroke-linecap: square"/>
    </g>
    <g id="text_16">
     <!-- best -->
     <g transform="translate(364.779375 296.504312) scale(0.1 -0.1)">
      <use xlink:href="#DejaVuSans-62"/>
      <use xlink:href="#DejaVuSans-65" transform="translate(63.476562 0)"/>
      <use xlink:href="#DejaVuSans-73" transform="translate(125 0)"/>
      <use xlink:href="#DejaVuSans-74" transform="translate(177.099609 0)"/>
     </g>
    </g>
   </g>
  </g>
 </g>
 <defs>
  <clipPath id="p84c98d739f">
   <rect x="57.6" y="41.472" width="357.12" height="266.112"/>
  </clipPath>
 </defs>
</svg>
